<?xml version="1.0" encoding="utf-8"?>
<!-- Generator: Adobe Illustrator 24.0.1, SVG Export Plug-In . SVG Version: 6.00 Build 0)  -->
<svg version="1.1" id="Layer_1" xmlns="http://www.w3.org/2000/svg" xmlns:xlink="http://www.w3.org/1999/xlink" x="0px" y="0px"
	 viewBox="0 0 1286.3 738" style="enable-background:new 0 0 1286.3 738;" xml:space="preserve">
<style type="text/css">
	.st0{fill:#0E0E0E;}
	.st1{fill:#AB987A;}
	.st2{fill:#FFFFFF;}
	.st3{fill:#FF5733;}
	.st4{fill:none;stroke:#FF5733;stroke-width:12.7991;stroke-miterlimit:63.9946;}
	.st5{fill:#F6F6F6;}
	.st6{fill:none;stroke:#AB987A;stroke-width:6.4;stroke-miterlimit:64;}
	.st7{display:none;}
	.st8{display:inline;fill:none;stroke:#000FFF;stroke-miterlimit:10;}
</style>
<g id="Layer_1_1_">
	<title>Asset 1</title>
	<rect y="0" class="st0" width="1286.3" height="738"/>
	<path class="st1" d="M1024.6,161.9c27.8,0,50.3-22.5,50.3-50.3s-22.5-50.3-50.3-50.3c-27.8,0-50.3,22.5-50.3,50.3l0,0
		C974.4,139.3,996.9,161.8,1024.6,161.9 M1024.6,48.5c34.8,0,63.1,28.2,63.1,63.1s-28.2,63.1-63.1,63.1c-34.8,0-63.1-28.2-63.1-63.1
		l0,0C961.6,76.8,989.8,48.5,1024.6,48.5"/>
	<path class="st2" d="M784.6,170l-28.9,42.7l-29-42.7H784.6L784.6,170z"/>
	<path class="st1" d="M726.7,116.7h57.9l-28.9,42.7L726.7,116.7z"/>
	<path class="st3" d="M726.7,63.3h57.9L755.7,106L726.7,63.3z"/>
	<path class="st2" d="M788.1,618.2c3.5,3.3,8.2,7.9,17.1,7.9s13.7-4.5,17.1-7.9c3.1-3,4.6-4.3,8.2-4.3s5.1,1.3,8.2,4.3
		c3.5,3.3,8.2,7.9,17.1,7.9s13.6-4.5,17.1-7.9c3.1-3,4.6-4.3,8.2-4.3s5.1,1.3,8.2,4.3c3.5,3.3,8.2,7.9,17.1,7.9s13.6-4.5,17.1-7.9
		c3.1-3,4.6-4.3,8.2-4.3s5.1,1.3,8.2,4.3c3.5,3.3,8.2,7.9,17.1,7.9s13.7-4.5,17.1-7.9c3.1-3,4.6-4.3,8.2-4.3s5.1,1.3,8.2,4.3
		c3.5,3.3,8.2,7.9,17.1,7.9s13.7-4.5,17.1-7.9c3.1-3,4.6-4.3,8.2-4.3c2.2-0.1,4.3,0.7,5.9,2.2v-14.2c-1.9-0.5-3.9-0.8-5.9-0.8
		c-8.9,0-13.7,4.5-17.1,7.9c-3.1,3-4.6,4.3-8.2,4.3s-5.1-1.3-8.2-4.3c-3.5-3.3-8.2-7.9-17.1-7.9s-13.6,4.5-17.1,7.9
		c-3.1,3-4.6,4.3-8.2,4.3s-5.1-1.3-8.3-4.3c-3.5-3.3-8.2-7.9-17.1-7.9s-13.7,4.5-17.1,7.9c-3.1,3-4.6,4.3-8.2,4.3s-5.1-1.3-8.2-4.3
		c-3.5-3.3-8.2-7.9-17.1-7.9s-13.7,4.5-17.1,7.9c-3.1,3-4.6,4.3-8.2,4.3s-5.1-1.3-8.2-4.3c-3.5-3.3-8.2-7.9-17.1-7.9
		s-13.7,4.5-17.1,7.9c-3.1,3-4.6,4.3-8.2,4.3s-5.1-1.3-8.2-4.3c-3.5-3.3-8.2-7.9-17.1-7.9v12.8C783.4,613.9,785,615.2,788.1,618.2"
		/>
	<path class="st2" d="M145.8,738c6.3-11.5,14.1-22,23.4-31.2c54.3-54.3,142.6-54.3,196.9,0c9.2,9.3,17.1,19.8,23.4,31.2H418
		c-8.1-18.4-19.6-35.1-33.8-49.3c-64.2-64.3-168.8-64.3-233.1,0c-14.2,14.2-25.7,30.9-33.9,49.3H145.8z"/>
	<path class="st3" d="M553.6,0v250.5H186.8V0h-25.6v276.1h418V0H553.6z"/>
	<path class="st3" d="M1158.8,301.1h11.5v9.2h12.8v-9.2h10.4v-13.4h-10.4V277h-12.8v10.7h-11.5V301.1z"/>
	<g>
		<path class="st1" d="M491.7,270.9c-3.9-3.9-3.9-10.1,0-14s10.1-3.9,14,0s3.9,10.1,0,14l0,0C501.9,274.8,495.6,274.8,491.7,270.9"
			/>
		<path class="st1" d="M463.3,241.2c-3.9-3.9-3.9-10.1,0-14s10.1-3.9,14,0s3.9,10.1,0,14l0,0C473.4,245,467.2,245,463.3,241.2"/>
		<path class="st1" d="M433.6,211.1c-3.9-3.9-3.9-10.1,0-14s10.1-3.9,14,0s3.9,10.1,0,14l0,0C443.8,215,437.5,215,433.6,211.1"/>
		<path class="st1" d="M404.5,181.7c-3.9-3.9-3.9-10.1,0-14s10.1-3.9,14,0s3.9,10.1,0,14l0,0C414.6,185.5,408.3,185.5,404.5,181.7"
			/>
		<path class="st1" d="M463.3,300.6c-3.9-3.9-3.9-10.1,0-14s10.1-3.9,14,0s3.9,10.1,0,14l0,0C473.4,304.5,467.2,304.5,463.3,300.6"
			/>
		<path class="st1" d="M433.6,270.9c-3.9-3.9-3.9-10.1,0-14s10.1-3.9,14,0s3.9,10.1,0,14l0,0C443.8,274.8,437.5,274.8,433.6,270.9"
			/>
		<path class="st1" d="M404.5,241.2c-3.9-3.9-3.9-10.1,0-14s10.1-3.9,14,0s3.9,10.1,0,14l0,0C414.6,245,408.3,245,404.5,241.2"/>
		<path class="st1" d="M375.4,211.1c-3.9-3.9-3.9-10.1,0-14s10.1-3.9,14,0s3.9,10.1,0,14l0,0C385.5,215,379.3,215,375.4,211.1"/>
		<path class="st1" d="M433.6,330.8c-3.9-3.9-3.9-10.1,0-14s10.1-3.9,14,0s3.9,10.1,0,14l0,0C443.8,334.6,437.5,334.6,433.6,330.8"
			/>
		<path class="st1" d="M404.5,300.6c-3.9-3.9-3.9-10.1,0-14s10.1-3.9,14,0s3.9,10.1,0,14l0,0C414.6,304.4,408.3,304.4,404.5,300.6"
			/>
		<path class="st1" d="M375.4,270.9c-3.9-3.9-3.9-10.1,0-14s10.1-3.9,14,0s3.9,10.1,0,14l0,0C385.5,274.8,379.3,274.8,375.4,270.9"
			/>
		<path class="st1" d="M345.6,241.2c-3.9-3.9-3.9-10.1,0-14s10.1-3.9,14,0s3.9,10.1,0,14l0,0C355.8,245,349.5,245,345.6,241.2"/>
		<path class="st1" d="M404.5,356.5c-3.9-3.9-3.9-10.1,0-14s10.1-3.9,14,0s3.9,10.1,0,14l0,0C414.6,360.3,408.3,360.3,404.5,356.5"
			/>
		<path class="st1" d="M375.4,330.8c-3.9-3.9-3.9-10.1,0-14s10.1-3.9,14,0s3.9,10.1,0,14l0,0C385.5,334.6,379.3,334.6,375.4,330.8"
			/>
		<path class="st1" d="M345.6,300.6c-3.9-3.9-3.9-10.1,0-14s10.1-3.9,14,0s3.9,10.1,0,14l0,0C355.8,304.5,349.5,304.5,345.6,300.6"
			/>
		<path class="st1" d="M316.9,270.9c-3.9-3.9-3.9-10.1,0-14s10.1-3.9,14,0s3.9,10.1,0,14l0,0C327.1,274.8,320.8,274.8,316.9,270.9"
			/>
	</g>
	<path class="st3" d="M92.2,667.5c0-5.5,4.5-10,10-10s10,4.5,10,10s-4.5,10-10,10S92.2,673,92.2,667.5"/>
	
		<rect x="219.1" y="453.4" transform="matrix(0.7071 -0.7071 0.7071 0.7071 -266.4505 311.9256)" class="st4" width="48.4" height="48.4"/>
	<path class="st3" d="M496.6,653.5c0-7.2,5.8-13,13-13c7.2,0,13,5.8,13,13s-5.8,13-13,13C502.4,666.5,496.6,660.6,496.6,653.5
		L496.6,653.5"/>
	<path class="st5" d="M647.5,427.9c0-8.8,7.2-16,16-16s16,7.2,16,16s-7.2,16-16,16S647.5,436.8,647.5,427.9"/>
	<path class="st3" d="M99.9,356.9h11.5v9.2h12.8v-9.2h10.4v-13.4h-10.4v-10.7h-12.8v10.7H99.9V356.9z"/>
	<path class="st2" d="M1286.3,676.4v-32.8c-100.4-25.3-174.9-116.3-174.9-224.4s74.5-199.2,174.9-224.4V162
		c-118.2,26-206.9,131.4-206.9,257.3S1168.1,650.5,1286.3,676.4"/>
	<g>
		<ellipse class="st6" cx="942.9" cy="463.2" rx="9.9" ry="9.9"/>
		<circle class="st6" cx="942.9" cy="426.8" r="9.9"/>
		<circle class="st6" cx="942.9" cy="383.7" r="9.9"/>
		<circle class="st6" cx="942.9" cy="344.4" r="9.9"/>
		<circle class="st6" cx="898.9" cy="463.2" r="9.9"/>
		<circle class="st6" cx="898.9" cy="426.8" r="9.9"/>
		<ellipse class="st6" cx="898.9" cy="383.7" rx="9.9" ry="9.9"/>
		<ellipse class="st6" cx="898.9" cy="344.4" rx="9.9" ry="9.9"/>
		<ellipse class="st6" cx="856.3" cy="463.2" rx="9.9" ry="9.9"/>
		<circle class="st6" cx="856.3" cy="426.8" r="9.9"/>
		<circle class="st6" cx="856.3" cy="383.7" r="9.9"/>
		<circle class="st6" cx="856.3" cy="344.4" r="9.9"/>
		<circle class="st6" cx="814.5" cy="463.2" r="9.9"/>
		<circle class="st6" cx="814.5" cy="426.8" r="9.9"/>
		<ellipse class="st6" cx="814.5" cy="383.7" rx="9.9" ry="9.9"/>
		<ellipse class="st6" cx="814.5" cy="344.4" rx="9.9" ry="9.9"/>
	</g>
	<path class="st3" d="M520.8,538.5l-42.7,28.9l42.7,28.9l0,0V538.5z"/>
	<path class="st2" d="M574.1,596.4L574.1,596.4v-57.9l-42.7,28.9L574.1,596.4z"/>
	<path class="st1" d="M627.5,596.4v-57.9l-42.7,28.9L627.5,596.4z"/>
	<g>
		<path class="st2" d="M250.2,50.1c-3.4-3.3-8.2-7.9-17.1-7.9s-13.7,4.5-17.1,7.9c-3.1,3-4.6,4.3-8.2,4.3s-5.1-1.3-8.2-4.3
			c-3.4-3.3-8.2-7.9-17.1-7.9s-13.6,4.5-17.1,7.9c-3.1,3-4.6,4.3-8.2,4.3s-5.1-1.3-8.2-4.3c-3.4-3.3-8.2-7.9-17.1-7.9
			s-13.7,4.5-17.2,7.9c-3.1,3-4.6,4.3-8.3,4.3s-5.1-1.3-8.2-4.3c-3.5-3.3-8.2-7.9-17.1-7.9S67.4,46.7,64,50.1
			c-3.1,3-4.6,4.3-8.2,4.3s-5.1-1.3-8.2-4.3c-3.5-3.3-8.2-7.9-17.1-7.9s-13.7,4.5-17.1,7.9c-3.1,3-4.6,4.3-8.2,4.3
			c-2.2,0.1-4.3-0.7-5.9-2.2v14.2c1.9,0.5,3.9,0.8,5.9,0.8c8.9,0,13.6-4.6,17.1-7.9c3.1-3,4.6-4.3,8.2-4.3s5.1,1.3,8.2,4.3
			c3.5,3.3,8.2,7.9,17.1,7.9s13.6-4.6,17.1-7.9c3.1-3,4.6-4.3,8.3-4.3s5.1,1.3,8.2,4.3c3.5,3.3,8.2,7.9,17.1,7.9s13.7-4.6,17.1-7.9
			c3.1-3,4.6-4.3,8.2-4.3s5.1,1.3,8.2,4.3c3.5,3.3,8.2,7.9,17.1,7.9s13.6-4.6,17.1-7.9c3.1-3,4.6-4.3,8.2-4.3s5.1,1.3,8.2,4.3
			c3.5,3.3,8.2,7.9,17.1,7.9s13.7-4.6,17.1-7.9c3.1-3,4.6-4.3,8.2-4.3s5.1,1.3,8.2,4.3c3.4,3.3,8.2,7.9,17.1,7.9V54.4
			C254.8,54.4,253.3,53.1,250.2,50.1"/>
		<path class="st2" d="M503.7,50.1c-3.4-3.3-8.2-7.9-17.1-7.9s-13.7,4.5-17.1,7.9c-3.1,3-4.6,4.3-8.2,4.3s-5.1-1.3-8.2-4.3
			c-3.5-3.3-8.2-7.9-17.1-7.9s-13.6,4.5-17.1,7.9c-3.1,3-4.6,4.3-8.2,4.3s-5.1-1.3-8.2-4.3c-3.5-3.3-8.2-7.9-17.1-7.9
			s-13.7,4.5-17.2,7.9c-3.1,3-4.6,4.3-8.3,4.3c-3.6,0-5.1-1.3-8.2-4.3c-3.5-3.3-8.2-7.9-17.1-7.9s-13.7,4.5-17.1,7.9
			c-3.1,3-4.6,4.3-8.2,4.3s-5.1-1.3-8.2-4.3c-3.5-3.3-8.2-7.9-17.1-7.9s-13.7,4.5-17.1,7.9c-3.1,3-4.6,4.3-8.2,4.3
			c-2.2,0.1-4.3-0.7-5.9-2.2v14.2c1.9,0.5,3.9,0.8,5.9,0.8c8.9,0,13.6-4.6,17.1-7.9c3.1-3,4.6-4.3,8.2-4.3s5.1,1.3,8.2,4.3
			c3.5,3.3,8.2,7.9,17.1,7.9s13.6-4.6,17.1-7.9c3.1-3,4.6-4.3,8.3-4.3c3.7,0,5.1,1.3,8.2,4.3c3.5,3.3,8.2,7.9,17.1,7.9
			s13.6-4.6,17.1-7.9c3.1-3,4.6-4.3,8.2-4.3s5.1,1.3,8.2,4.3c3.5,3.3,8.2,7.9,17.1,7.9s13.6-4.6,17.1-7.9c3.1-3,4.6-4.3,8.2-4.3
			s5.1,1.3,8.2,4.3c3.5,3.3,8.2,7.9,17.1,7.9s13.7-4.6,17.1-7.9c3.1-3,4.6-4.3,8.2-4.3s5.1,1.3,8.2,4.3c3.5,3.3,8.2,7.9,17.1,7.9
			V54.4C508.4,54.4,506.9,53.1,503.7,50.1"/>
	</g>
</g>
<g id="VisiblePart" class="st7">
	<rect x="-1.1" y="-1" class="st8" width="315.1" height="739"/>
</g>
</svg>
