<?xml version="1.0" encoding="utf-8"?>
<!-- Generator: Adobe Illustrator 24.0.1, SVG Export Plug-In . SVG Version: 6.00 Build 0)  -->
<svg version="1.1" id="Layer_1" xmlns="http://www.w3.org/2000/svg" xmlns:xlink="http://www.w3.org/1999/xlink" x="0px" y="0px"
	 viewBox="0 0 1336 1015.2" style="enable-background:new 0 0 1336 1015.2;" xml:space="preserve">
<style type="text/css">
	.st0{fill:#FFD350;}
	.st1{fill-rule:evenodd;clip-rule:evenodd;fill:#0E0E0E;}
	.st2{fill:#FFFFFF;}
	.st3{fill:none;stroke:#68ECDF;stroke-width:8.2051;stroke-linecap:round;stroke-linejoin:round;stroke-miterlimit:27.3504;}
	.st4{fill:#FF5733;}
	.st5{fill:none;stroke:#FF5733;stroke-width:8.2051;stroke-miterlimit:27.3504;}
	.st6{fill:none;stroke:#FFD350;stroke-width:8.2051;stroke-miterlimit:27.3504;}
	.st7{fill:#FFE63E;}
	.st8{fill:none;stroke:#68ECDF;stroke-width:5.4427;stroke-miterlimit:27.3504;}
	.st9{fill:none;stroke:#FF5733;stroke-width:5.4427;stroke-miterlimit:27.3504;}
	.st10{display:none;}
	.st11{display:inline;fill:none;stroke:#000FFF;stroke-miterlimit:10;}
</style>
<g id="Layer_1_2_">
	<g id="Layer_1_1_" xmlns:serif="http://www.serif.com/">
		<g transform="matrix(1,0,0,1,176.206,361.138)">
			<path class="st0" d="M248.1-361.1c-0.2,0.6-0.3,1.2-0.5,1.8c-14.5,54.5-10.3,116,21.7,162.4c35.6,51.5,98.4,76.5,159.1,91.7
				C587.6-65.3,755.8-73,915-33.2c99.6,24.9,205.8,81.2,229.9,180.9C1170,251.3,1096,353,1090,459.4c-4,70.4,23.2,139.7,68,194.6
				V-361.1H248.1z"/>
		</g>
		<g transform="matrix(1,0,0,1,234.646,89.3671)">
			<path class="st1" d="M349.5-89.4c4.1,16,6.2,32.8,6.2,50.1c0,112.4-91.1,203.5-203.5,203.5S-51.3,73.1-51.3-39.3
				c0-17.3,2.2-34,6.2-50.1h-18.8c-3.7,16.1-5.7,32.8-5.7,50.1c0,122.5,99.3,221.8,221.8,221.8S374,83.2,374-39.3
				c0-17.2-2-34-5.7-50.1C368.3-89.4,349.5-89.4,349.5-89.4z"/>
		</g>
		<g transform="matrix(1,0,0,1,461.44,66.466)">
			<path class="st2" d="M743-39c0-9.3,0.7-18.5,1.9-27.4h-18.4c-1.1,9-1.7,18.1-1.7,27.4c0,96.7,61.9,178.8,148.1,209.2v-19.5
				C796.9,121.2,743,47.4,743-39"/>
		</g>
		<g transform="matrix(-0.707107,0.707107,0.707107,0.707107,475.255,271.665)">
			<path class="st3" d="M-370.5,820.1h211.9"/>
		</g>
		<g transform="matrix(-0.7071,0.707113,0.707113,0.7071,371.234,218.322)">
			<path class="st3" d="M-308.3,627.1h211.9"/>
		</g>
		<g transform="matrix(-0.707107,0.707107,0.707107,0.707107,390.719,187.128)">
			<path class="st3" d="M-370.5,612.7h211.9"/>
		</g>
		<g transform="matrix(0,-1,-1,0,384.157,190.667)">
			<path class="st4" d="M-365.7-616.4c-4.1,0-7.5,3.3-7.5,7.5c0,4.1,3.3,7.5,7.5,7.5c4.1,0,7.5-3.3,7.5-7.5
				C-358.2-613-361.6-616.4-365.7-616.4"/>
		</g>
		<g transform="matrix(0,-1,-1,0,34.2699,243.758)">
			<circle class="st5" cx="-480.9" cy="-1.8" r="30.6"/>
		</g>
		<g transform="matrix(0,-1,-1,0,460.827,113.655)">
			<path class="st6" d="M-255.2-741.9c0-16.9,0-30.6,0-30.6S-255.2-758.8-255.2-741.9s0,30.6,0,30.6S-255.2-725-255.2-741.9z"/>
		</g>
		<g transform="matrix(0,-1,-1,0,55.0751,46.3876)">
			<path class="st4" d="M-140.9-70.9c-18.2,0-33,14.8-33,33s14.8,33,33,33s33-14.8,33-33S-122.7-70.9-140.9-70.9"/>
		</g>
		<g transform="matrix(1,0,0,1,224.182,199.748)">
			<path class="st7" d="M331.3,345.8h-27v-27h-28.2v27h-27V374h27v27h28.2v-27h27V345.8z"/>
		</g>
		<g transform="matrix(1,0,0,1,384.993,51.5434)">
			<path class="st2" d="M610.4,88.6h-27v-27h-28.2v27h-27v28.2h27v27h28.2v-27h27V88.6z"/>
		</g>
		<g>
			<g transform="matrix(0.707107,-0.707107,-0.707107,-0.707107,253.839,4.0636)">
				<path class="st4" d="M242.8-296.5c-2.7,0-4.9,2.2-4.9,4.9c0,2.7,2.2,4.9,4.9,4.9s4.9-2.2,4.9-4.9
					C247.7-294.4,245.5-296.5,242.8-296.5"/>
			</g>
			<g transform="matrix(0.707107,-0.707107,-0.707107,-0.707107,261.883,12.1077)">
				<path class="st4" d="M242.8-316.3c-2.7,0-4.9,2.2-4.9,4.9s2.2,4.9,4.9,4.9s4.9-2.2,4.9-4.9S245.5-316.3,242.8-316.3"/>
			</g>
			<g transform="matrix(0.707107,-0.707107,-0.707107,-0.707107,269.927,20.152)">
				<path class="st4" d="M242.8-336c-2.7,0-4.9,2.2-4.9,4.9c0,2.7,2.2,4.9,4.9,4.9s4.9-2.2,4.9-4.9S245.5-336,242.8-336"/>
			</g>
			<g transform="matrix(0.707247,-0.706967,-0.706967,-0.707247,277.971,28.1968)">
				<path class="st4" d="M242.9-355.7c-2.7,0-4.9,2.2-4.9,4.9c0,2.7,2.2,4.9,4.9,4.9s4.9-2.2,4.9-4.9S245.6-355.7,242.9-355.7"/>
			</g>
			<g transform="matrix(0.707107,-0.707107,-0.707107,-0.707107,286.016,36.2404)">
				<path class="st4" d="M242.8-375.5c-2.7,0-4.9,2.2-4.9,4.9c0,2.7,2.2,4.9,4.9,4.9s4.9-2.2,4.9-4.9S245.5-375.5,242.8-375.5"/>
			</g>
			<g transform="matrix(0.707107,-0.707107,-0.707107,-0.707107,294.06,44.2844)">
				<path class="st4" d="M242.8-395.2c-2.7,0-4.9,2.2-4.9,4.9c0,2.7,2.2,4.9,4.9,4.9s4.9-2.2,4.9-4.9S245.5-395.2,242.8-395.2"/>
			</g>
			<g transform="matrix(0.707107,-0.707107,-0.707107,-0.707107,302.104,52.3288)">
				<path class="st4" d="M242.8-415c-2.7,0-4.9,2.2-4.9,4.9c0,2.7,2.2,4.9,4.9,4.9s4.9-2.2,4.9-4.9S245.5-415,242.8-415"/>
			</g>
			<g transform="matrix(0.707247,-0.706967,-0.706967,-0.707247,310.148,60.3736)">
				<path class="st4" d="M242.9-434.7c-2.7,0-4.9,2.2-4.9,4.9c0,2.7,2.2,4.9,4.9,4.9s4.9-2.2,4.9-4.9
					C247.8-432.5,245.6-434.7,242.9-434.7"/>
			</g>
			<g transform="matrix(0.707107,-0.707107,-0.707107,-0.707107,240.164,1.65025)">
				<path class="st4" d="M229-276.8c-2.7,0-4.9,2.2-4.9,4.9s2.2,4.9,4.9,4.9s4.9-2.2,4.9-4.9S231.7-276.8,229-276.8"/>
			</g>
			<g transform="matrix(0.707107,-0.707107,-0.707107,-0.707107,248.208,9.69485)">
				<path class="st4" d="M229-296.5c-2.7,0-4.9,2.2-4.9,4.9s2.2,4.9,4.9,4.9s4.9-2.2,4.9-4.9C233.9-294.4,231.7-296.5,229-296.5"/>
			</g>
			<g transform="matrix(0.707107,-0.707107,-0.707107,-0.707107,256.252,17.7385)">
				<path class="st4" d="M229-316.3c-2.7,0-4.9,2.2-4.9,4.9c0,2.7,2.2,4.9,4.9,4.9s4.9-2.2,4.9-4.9S231.7-316.3,229-316.3"/>
			</g>
			<g transform="matrix(0.707107,-0.707107,-0.707107,-0.707107,264.296,25.7829)">
				<path class="st4" d="M229-336c-2.7,0-4.9,2.2-4.9,4.9c0,2.7,2.2,4.9,4.9,4.9s4.9-2.2,4.9-4.9S231.7-336,229-336"/>
			</g>
			<g transform="matrix(0.707247,-0.706967,-0.706967,-0.707247,272.34,33.8277)">
				<path class="st4" d="M229.1-355.7c-2.7,0-4.9,2.2-4.9,4.9c0,2.7,2.2,4.9,4.9,4.9s4.9-2.2,4.9-4.9S231.8-355.7,229.1-355.7"/>
			</g>
			<g transform="matrix(0.707107,-0.707107,-0.707107,-0.707107,280.385,41.8712)">
				<path class="st4" d="M229-375.5c-2.7,0-4.9,2.2-4.9,4.9c0,2.7,2.2,4.9,4.9,4.9s4.9-2.2,4.9-4.9S231.7-375.5,229-375.5"/>
			</g>
			<g transform="matrix(0.707107,-0.707107,-0.707107,-0.707107,288.429,49.9153)">
				<path class="st4" d="M229-395.2c-2.7,0-4.9,2.2-4.9,4.9s2.2,4.9,4.9,4.9s4.9-2.2,4.9-4.9S231.7-395.2,229-395.2"/>
			</g>
			<g transform="matrix(0.707107,-0.707107,-0.707107,-0.707107,296.473,57.9596)">
				<path class="st4" d="M229-415c-2.7,0-4.9,2.2-4.9,4.9c0,2.7,2.2,4.9,4.9,4.9s4.9-2.2,4.9-4.9S231.7-415,229-415"/>
			</g>
			<g transform="matrix(0.707247,-0.706967,-0.706967,-0.707247,304.517,66.0045)">
				<path class="st4" d="M229.1-434.7c-2.7,0-4.9,2.2-4.9,4.9c0,2.7,2.2,4.9,4.9,4.9s4.9-2.2,4.9-4.9S231.8-434.7,229.1-434.7"/>
			</g>
			<g transform="matrix(0.707107,-0.707107,-0.707107,-0.707107,226.488,-0.7625)">
				<path class="st4" d="M215.2-257.1c-2.7,0-4.9,2.2-4.9,4.9s2.2,4.9,4.9,4.9s4.9-2.2,4.9-4.9C220.1-254.9,217.9-257.1,215.2-257.1
					"/>
			</g>
			<g transform="matrix(0.707107,-0.707107,-0.707107,-0.707107,234.533,7.28105)">
				<path class="st4" d="M215.2-276.8c-2.7,0-4.9,2.2-4.9,4.9c0,2.7,2.2,4.9,4.9,4.9s4.9-2.2,4.9-4.9S217.9-276.8,215.2-276.8"/>
			</g>
			<g transform="matrix(0.707107,-0.707107,-0.707107,-0.707107,242.577,15.3257)">
				<path class="st4" d="M215.2-296.5c-2.7,0-4.9,2.2-4.9,4.9s2.2,4.9,4.9,4.9s4.9-2.2,4.9-4.9C220.1-294.4,217.9-296.5,215.2-296.5
					"/>
			</g>
			<g transform="matrix(0.707107,-0.707107,-0.707107,-0.707107,250.621,23.3694)">
				<path class="st4" d="M215.2-316.3c-2.7,0-4.9,2.2-4.9,4.9s2.2,4.9,4.9,4.9s4.9-2.2,4.9-4.9S217.9-316.3,215.2-316.3"/>
			</g>
			<g transform="matrix(0.707107,-0.707107,-0.707107,-0.707107,258.665,31.4137)">
				<path class="st4" d="M215.2-336c-2.7,0-4.9,2.2-4.9,4.9c0,2.7,2.2,4.9,4.9,4.9s4.9-2.2,4.9-4.9S217.9-336,215.2-336"/>
			</g>
			<g transform="matrix(0.707107,-0.707107,-0.707107,-0.707107,266.709,39.4582)">
				<path class="st4" d="M215.2-355.8c-2.7,0-4.9,2.2-4.9,4.9s2.2,4.9,4.9,4.9s4.9-2.2,4.9-4.9S217.9-355.8,215.2-355.8"/>
			</g>
			<g transform="matrix(0.707107,-0.707107,-0.707107,-0.707107,274.754,47.5017)">
				<path class="st4" d="M215.2-375.5c-2.7,0-4.9,2.2-4.9,4.9c0,2.7,2.2,4.9,4.9,4.9s4.9-2.2,4.9-4.9S217.9-375.5,215.2-375.5"/>
			</g>
			<g transform="matrix(0.707107,-0.707107,-0.707107,-0.707107,282.798,55.5461)">
				<path class="st4" d="M215.2-395.2c-2.7,0-4.9,2.2-4.9,4.9c0,2.7,2.2,4.9,4.9,4.9s4.9-2.2,4.9-4.9
					C220.1-393,217.9-395.2,215.2-395.2"/>
			</g>
			<g transform="matrix(0.707107,-0.707107,-0.707107,-0.707107,290.842,63.5905)">
				<path class="st4" d="M215.2-415c-2.7,0-4.9,2.2-4.9,4.9c0,2.7,2.2,4.9,4.9,4.9s4.9-2.2,4.9-4.9S217.9-415,215.2-415"/>
			</g>
			<g transform="matrix(0.707107,-0.707107,-0.707107,-0.707107,298.886,71.6349)">
				<path class="st4" d="M215.2-434.7c-2.7,0-4.9,2.2-4.9,4.9s2.2,4.9,4.9,4.9s4.9-2.2,4.9-4.9S217.9-434.7,215.2-434.7"/>
			</g>
			<g transform="matrix(0.707107,-0.707107,-0.707107,-0.707107,220.858,4.8683)">
				<path class="st4" d="M201.4-257.1c-2.7,0-4.9,2.2-4.9,4.9s2.2,4.9,4.9,4.9s4.9-2.2,4.9-4.9C206.2-254.9,204.1-257.1,201.4-257.1
					"/>
			</g>
			<g transform="matrix(0.707107,-0.707107,-0.707107,-0.707107,228.902,12.9123)">
				<path class="st4" d="M201.4-276.8c-2.7,0-4.9,2.2-4.9,4.9c0,2.7,2.2,4.9,4.9,4.9s4.9-2.2,4.9-4.9
					C206.2-274.6,204.1-276.8,201.4-276.8"/>
			</g>
			<g transform="matrix(0.707107,-0.707107,-0.707107,-0.707107,236.946,20.9567)">
				<path class="st4" d="M201.4-296.5c-2.7,0-4.9,2.2-4.9,4.9s2.2,4.9,4.9,4.9s4.9-2.2,4.9-4.9S204.1-296.5,201.4-296.5"/>
			</g>
			<g transform="matrix(0.707107,-0.707107,-0.707107,-0.707107,244.991,29.0006)">
				<path class="st4" d="M201.4-316.3c-2.7,0-4.9,2.2-4.9,4.9c0,2.7,2.2,4.9,4.9,4.9s4.9-2.2,4.9-4.9
					C206.2-314.1,204.1-316.3,201.4-316.3"/>
			</g>
			<g transform="matrix(0.707107,-0.707107,-0.707107,-0.707107,253.034,37.0451)">
				<path class="st4" d="M201.4-336c-2.7,0-4.9,2.2-4.9,4.9s2.2,4.9,4.9,4.9s4.9-2.2,4.9-4.9S204.1-336,201.4-336"/>
			</g>
			<g transform="matrix(0.707107,-0.707107,-0.707107,-0.707107,261.079,45.0894)">
				<path class="st4" d="M201.4-355.8c-2.7,0-4.9,2.2-4.9,4.9c0,2.7,2.2,4.9,4.9,4.9s4.9-2.2,4.9-4.9
					C206.2-353.6,204.1-355.8,201.4-355.8"/>
			</g>
			<g transform="matrix(0.707107,-0.707107,-0.707107,-0.707107,269.123,53.1328)">
				<path class="st4" d="M201.4-375.5c-2.7,0-4.9,2.2-4.9,4.9c0,2.7,2.2,4.9,4.9,4.9s4.9-2.2,4.9-4.9
					C206.2-373.3,204.1-375.5,201.4-375.5"/>
			</g>
			<g transform="matrix(0.707107,-0.707107,-0.707107,-0.707107,277.167,61.1774)">
				<path class="st4" d="M201.4-395.2c-2.7,0-4.9,2.2-4.9,4.9c0,2.7,2.2,4.9,4.9,4.9s4.9-2.2,4.9-4.9
					C206.2-393,204.1-395.2,201.4-395.2"/>
			</g>
			<g transform="matrix(0.707107,-0.707107,-0.707107,-0.707107,285.211,69.2214)">
				<path class="st4" d="M201.4-415c-2.7,0-4.9,2.2-4.9,4.9s2.2,4.9,4.9,4.9s4.9-2.2,4.9-4.9S204.1-415,201.4-415"/>
			</g>
			<g transform="matrix(0.707107,-0.707107,-0.707107,-0.707107,293.255,77.2654)">
				<path class="st4" d="M201.4-434.7c-2.7,0-4.9,2.2-4.9,4.9c0,2.7,2.2,4.9,4.9,4.9s4.9-2.2,4.9-4.9
					C206.2-432.5,204.1-434.7,201.4-434.7"/>
			</g>
			<g transform="matrix(0.707107,-0.707107,-0.707107,-0.707107,207.183,2.45505)">
				<path class="st4" d="M187.5-237.3c-2.7,0-4.9,2.2-4.9,4.9s2.2,4.9,4.9,4.9s4.9-2.2,4.9-4.9S190.2-237.3,187.5-237.3"/>
			</g>
			<g transform="matrix(0.707107,-0.707107,-0.707107,-0.707107,215.227,10.4988)">
				<path class="st4" d="M187.5-257.1c-2.7,0-4.9,2.2-4.9,4.9s2.2,4.9,4.9,4.9s4.9-2.2,4.9-4.9C192.4-254.9,190.2-257.1,187.5-257.1
					"/>
			</g>
			<g transform="matrix(0.707107,-0.707107,-0.707107,-0.707107,223.271,18.5435)">
				<path class="st4" d="M187.5-276.8c-2.7,0-4.9,2.2-4.9,4.9s2.2,4.9,4.9,4.9s4.9-2.2,4.9-4.9S190.2-276.8,187.5-276.8"/>
			</g>
			<g transform="matrix(0.707107,-0.707107,-0.707107,-0.707107,231.315,26.5872)">
				<path class="st4" d="M187.5-296.5c-2.7,0-4.9,2.2-4.9,4.9s2.2,4.9,4.9,4.9s4.9-2.2,4.9-4.9S190.2-296.5,187.5-296.5"/>
			</g>
			<g transform="matrix(0.707107,-0.707107,-0.707107,-0.707107,239.359,34.6319)">
				<path class="st4" d="M187.5-316.3c-2.7,0-4.9,2.2-4.9,4.9s2.2,4.9,4.9,4.9s4.9-2.2,4.9-4.9S190.2-316.3,187.5-316.3"/>
			</g>
			<g transform="matrix(0.707107,-0.707107,-0.707107,-0.707107,247.403,42.6755)">
				<path class="st4" d="M187.5-336c-2.7,0-4.9,2.2-4.9,4.9c0,2.7,2.2,4.9,4.9,4.9s4.9-2.2,4.9-4.9S190.2-336,187.5-336"/>
			</g>
			<g transform="matrix(0.707107,-0.707107,-0.707107,-0.707107,255.448,50.7199)">
				<path class="st4" d="M187.5-355.8c-2.7,0-4.9,2.2-4.9,4.9c0,2.7,2.2,4.9,4.9,4.9s4.9-2.2,4.9-4.9S190.2-355.8,187.5-355.8"/>
			</g>
			<g transform="matrix(0.707247,-0.706967,-0.706967,-0.707247,263.491,58.7647)">
				<path class="st4" d="M187.6-375.5c-2.7,0-4.9,2.2-4.9,4.9c0,2.7,2.2,4.9,4.9,4.9s4.9-2.2,4.9-4.9S190.3-375.5,187.6-375.5"/>
			</g>
			<g transform="matrix(0.707107,-0.707107,-0.707107,-0.707107,271.536,66.8083)">
				<path class="st4" d="M187.5-395.2c-2.7,0-4.9,2.2-4.9,4.9c0,2.7,2.2,4.9,4.9,4.9s4.9-2.2,4.9-4.9S190.2-395.2,187.5-395.2"/>
			</g>
			<g transform="matrix(0.707107,-0.707107,-0.707107,-0.707107,279.58,74.8523)">
				<path class="st4" d="M187.5-415c-2.7,0-4.9,2.2-4.9,4.9s2.2,4.9,4.9,4.9s4.9-2.2,4.9-4.9S190.2-415,187.5-415"/>
			</g>
			<g transform="matrix(0.707107,-0.707107,-0.707107,-0.707107,287.624,82.8966)">
				<path class="st4" d="M187.5-434.7c-2.7,0-4.9,2.2-4.9,4.9c0,2.7,2.2,4.9,4.9,4.9s4.9-2.2,4.9-4.9S190.2-434.7,187.5-434.7"/>
			</g>
			<g transform="matrix(0.707107,-0.707107,-0.707107,-0.707107,193.507,0.0413464)">
				<path class="st4" d="M173.7-217.6c-2.7,0-4.9,2.2-4.9,4.9s2.2,4.9,4.9,4.9s4.9-2.2,4.9-4.9S176.4-217.6,173.7-217.6"/>
			</g>
			<g transform="matrix(0.707107,-0.707107,-0.707107,-0.707107,201.552,8.08595)">
				<path class="st4" d="M173.7-237.3c-2.7,0-4.9,2.2-4.9,4.9s2.2,4.9,4.9,4.9s4.9-2.2,4.9-4.9C178.6-235.1,176.4-237.3,173.7-237.3
					"/>
			</g>
			<g transform="matrix(0.707107,-0.707107,-0.707107,-0.707107,209.596,16.1296)">
				<path class="st4" d="M173.7-257.1c-2.7,0-4.9,2.2-4.9,4.9s2.2,4.9,4.9,4.9s4.9-2.2,4.9-4.9S176.4-257.1,173.7-257.1"/>
			</g>
			<g transform="matrix(0.707107,-0.707107,-0.707107,-0.707107,217.64,24.1744)">
				<path class="st4" d="M173.7-276.8c-2.7,0-4.9,2.2-4.9,4.9s2.2,4.9,4.9,4.9s4.9-2.2,4.9-4.9S176.4-276.8,173.7-276.8"/>
			</g>
			<g transform="matrix(0.707107,-0.707107,-0.707107,-0.707107,225.684,32.218)">
				<path class="st4" d="M173.7-296.5c-2.7,0-4.9,2.2-4.9,4.9s2.2,4.9,4.9,4.9s4.9-2.2,4.9-4.9S176.4-296.5,173.7-296.5"/>
			</g>
			<g transform="matrix(0.707107,-0.707107,-0.707107,-0.707107,233.729,40.2628)">
				<path class="st4" d="M173.7-316.3c-2.7,0-4.9,2.2-4.9,4.9s2.2,4.9,4.9,4.9s4.9-2.2,4.9-4.9S176.4-316.3,173.7-316.3"/>
			</g>
			<g transform="matrix(0.707107,-0.707107,-0.707107,-0.707107,241.772,48.3064)">
				<path class="st4" d="M173.7-336c-2.7,0-4.9,2.2-4.9,4.9s2.2,4.9,4.9,4.9s4.9-2.2,4.9-4.9S176.4-336,173.7-336"/>
			</g>
			<g transform="matrix(0.707107,-0.707107,-0.707107,-0.707107,249.817,56.3511)">
				<path class="st4" d="M173.7-355.8c-2.7,0-4.9,2.2-4.9,4.9s2.2,4.9,4.9,4.9s4.9-2.2,4.9-4.9S176.4-355.8,173.7-355.8"/>
			</g>
			<g transform="matrix(0.707247,-0.706967,-0.706967,-0.707247,257.86,64.3956)">
				<path class="st4" d="M173.8-375.5c-2.7,0-4.9,2.2-4.9,4.9c0,2.7,2.2,4.9,4.9,4.9s4.9-2.2,4.9-4.9S176.5-375.5,173.8-375.5"/>
			</g>
			<g transform="matrix(0.707107,-0.707107,-0.707107,-0.707107,265.905,72.4387)">
				<path class="st4" d="M173.7-395.2c-2.7,0-4.9,2.2-4.9,4.9c0,2.7,2.2,4.9,4.9,4.9s4.9-2.2,4.9-4.9
					C178.6-393,176.4-395.2,173.7-395.2"/>
			</g>
			<g transform="matrix(0.707107,-0.707107,-0.707107,-0.707107,273.949,80.4832)">
				<path class="st4" d="M173.7-415c-2.7,0-4.9,2.2-4.9,4.9c0,2.7,2.2,4.9,4.9,4.9s4.9-2.2,4.9-4.9S176.4-415,173.7-415"/>
			</g>
			<g transform="matrix(0.707107,-0.707107,-0.707107,-0.707107,281.993,88.5275)">
				<path class="st4" d="M173.7-434.7c-2.7,0-4.9,2.2-4.9,4.9c0,2.7,2.2,4.9,4.9,4.9s4.9-2.2,4.9-4.9
					C178.6-432.5,176.4-434.7,173.7-434.7"/>
			</g>
			<g transform="matrix(0.707107,-0.707107,-0.707107,-0.707107,187.877,5.6725)">
				<path class="st4" d="M159.9-217.6c-2.7,0-4.9,2.2-4.9,4.9s2.2,4.9,4.9,4.9s4.9-2.2,4.9-4.9C164.8-215.4,162.6-217.6,159.9-217.6
					"/>
			</g>
			<g transform="matrix(0.707107,-0.707107,-0.707107,-0.707107,195.921,13.717)">
				<path class="st4" d="M159.9-237.3c-2.7,0-4.9,2.2-4.9,4.9s2.2,4.9,4.9,4.9s4.9-2.2,4.9-4.9C164.8-235.1,162.6-237.3,159.9-237.3
					"/>
			</g>
			<g transform="matrix(0.707107,-0.707107,-0.707107,-0.707107,203.965,21.7609)">
				<path class="st4" d="M159.9-257.1c-2.7,0-4.9,2.2-4.9,4.9s2.2,4.9,4.9,4.9s4.9-2.2,4.9-4.9C164.8-254.9,162.6-257.1,159.9-257.1
					"/>
			</g>
			<g transform="matrix(0.707107,-0.707107,-0.707107,-0.707107,212.009,29.8053)">
				<path class="st4" d="M159.9-276.8c-2.7,0-4.9,2.2-4.9,4.9s2.2,4.9,4.9,4.9s4.9-2.2,4.9-4.9S162.6-276.8,159.9-276.8"/>
			</g>
			<g transform="matrix(0.707107,-0.707107,-0.707107,-0.707107,220.054,37.8493)">
				<path class="st4" d="M159.9-296.5c-2.7,0-4.9,2.2-4.9,4.9c0,2.7,2.2,4.9,4.9,4.9s4.9-2.2,4.9-4.9
					C164.8-294.4,162.6-296.5,159.9-296.5"/>
			</g>
			<g transform="matrix(0.707107,-0.707107,-0.707107,-0.707107,228.097,45.8937)">
				<path class="st4" d="M159.9-316.3c-2.7,0-4.9,2.2-4.9,4.9s2.2,4.9,4.9,4.9s4.9-2.2,4.9-4.9S162.6-316.3,159.9-316.3"/>
			</g>
			<g transform="matrix(0.707107,-0.707107,-0.707107,-0.707107,236.142,53.9373)">
				<path class="st4" d="M159.9-336c-2.7,0-4.9,2.2-4.9,4.9s2.2,4.9,4.9,4.9s4.9-2.2,4.9-4.9S162.6-336,159.9-336"/>
			</g>
			<g transform="matrix(0.707107,-0.707107,-0.707107,-0.707107,244.186,61.982)">
				<path class="st4" d="M159.9-355.8c-2.7,0-4.9,2.2-4.9,4.9s2.2,4.9,4.9,4.9s4.9-2.2,4.9-4.9C164.8-353.6,162.6-355.8,159.9-355.8
					"/>
			</g>
			<g transform="matrix(0.707107,-0.707107,-0.707107,-0.707107,252.23,70.026)">
				<path class="st4" d="M159.9-375.5c-2.7,0-4.9,2.2-4.9,4.9c0,2.7,2.2,4.9,4.9,4.9s4.9-2.2,4.9-4.9
					C164.8-373.3,162.6-375.5,159.9-375.5"/>
			</g>
			<g transform="matrix(0.707107,-0.707107,-0.707107,-0.707107,260.275,78.0696)">
				<path class="st4" d="M159.9-395.2c-2.7,0-4.9,2.2-4.9,4.9c0,2.7,2.2,4.9,4.9,4.9s4.9-2.2,4.9-4.9
					C164.8-393,162.6-395.2,159.9-395.2"/>
			</g>
			<g transform="matrix(0.707107,-0.707107,-0.707107,-0.707107,268.318,86.114)">
				<path class="st4" d="M159.9-415c-2.7,0-4.9,2.2-4.9,4.9s2.2,4.9,4.9,4.9s4.9-2.2,4.9-4.9S162.6-415,159.9-415"/>
			</g>
			<g transform="matrix(0.707107,-0.707107,-0.707107,-0.707107,276.363,94.1584)">
				<path class="st4" d="M159.9-434.7c-2.7,0-4.9,2.2-4.9,4.9c0,2.7,2.2,4.9,4.9,4.9s4.9-2.2,4.9-4.9
					C164.8-432.5,162.6-434.7,159.9-434.7"/>
			</g>
			<g transform="matrix(0.707107,-0.707107,-0.707107,-0.707107,182.246,11.3034)">
				<path class="st4" d="M146.1-217.6c-2.7,0-4.9,2.2-4.9,4.9s2.2,4.9,4.9,4.9s4.9-2.2,4.9-4.9C151-215.4,148.8-217.6,146.1-217.6"
					/>
			</g>
			<g transform="matrix(0.707107,-0.707107,-0.707107,-0.707107,190.29,19.3478)">
				<path class="st4" d="M146.1-237.3c-2.7,0-4.9,2.2-4.9,4.9s2.2,4.9,4.9,4.9s4.9-2.2,4.9-4.9S148.8-237.3,146.1-237.3"/>
			</g>
			<g transform="matrix(0.707107,-0.707107,-0.707107,-0.707107,198.334,27.3918)">
				<path class="st4" d="M146.1-257.1c-2.7,0-4.9,2.2-4.9,4.9s2.2,4.9,4.9,4.9s4.9-2.2,4.9-4.9C151-254.9,148.8-257.1,146.1-257.1"
					/>
			</g>
			<g transform="matrix(0.707107,-0.707107,-0.707107,-0.707107,206.378,35.4362)">
				<path class="st4" d="M146.1-276.8c-2.7,0-4.9,2.2-4.9,4.9c0,2.7,2.2,4.9,4.9,4.9s4.9-2.2,4.9-4.9
					C151-274.6,148.8-276.8,146.1-276.8"/>
			</g>
			<g transform="matrix(0.707107,-0.707107,-0.707107,-0.707107,214.423,43.4801)">
				<path class="st4" d="M146.1-296.5c-2.7,0-4.9,2.2-4.9,4.9c0,2.7,2.2,4.9,4.9,4.9s4.9-2.2,4.9-4.9
					C151-294.4,148.8-296.5,146.1-296.5"/>
			</g>
			<g transform="matrix(0.707107,-0.707107,-0.707107,-0.707107,222.466,51.5246)">
				<path class="st4" d="M146.1-316.3c-2.7,0-4.9,2.2-4.9,4.9s2.2,4.9,4.9,4.9s4.9-2.2,4.9-4.9S148.8-316.3,146.1-316.3"/>
			</g>
			<g transform="matrix(0.707107,-0.707107,-0.707107,-0.707107,230.511,59.5689)">
				<path class="st4" d="M146.1-336c-2.7,0-4.9,2.2-4.9,4.9s2.2,4.9,4.9,4.9s4.9-2.2,4.9-4.9S148.8-336,146.1-336"/>
			</g>
			<g transform="matrix(0.707107,-0.707107,-0.707107,-0.707107,238.555,67.6126)">
				<path class="st4" d="M146.1-355.8c-2.7,0-4.9,2.2-4.9,4.9c0,2.7,2.2,4.9,4.9,4.9s4.9-2.2,4.9-4.9
					C151-353.6,148.8-355.8,146.1-355.8"/>
			</g>
			<g transform="matrix(0.707107,-0.707107,-0.707107,-0.707107,246.599,75.6573)">
				<path class="st4" d="M146.1-375.5c-2.7,0-4.9,2.2-4.9,4.9s2.2,4.9,4.9,4.9s4.9-2.2,4.9-4.9S148.8-375.5,146.1-375.5"/>
			</g>
			<g transform="matrix(0.707247,-0.706967,-0.706967,-0.707247,254.643,83.7017)">
				<path class="st4" d="M146.2-395.2c-2.7,0-4.9,2.2-4.9,4.9c0,2.7,2.2,4.9,4.9,4.9s4.9-2.2,4.9-4.9S148.9-395.2,146.2-395.2"/>
			</g>
			<g transform="matrix(0.707107,-0.707107,-0.707107,-0.707107,262.688,91.7453)">
				<path class="st4" d="M146.1-415c-2.7,0-4.9,2.2-4.9,4.9c0,2.7,2.2,4.9,4.9,4.9s4.9-2.2,4.9-4.9S148.8-415,146.1-415"/>
			</g>
			<g transform="matrix(0.707107,-0.707107,-0.707107,-0.707107,270.731,99.7893)">
				<path class="st4" d="M146.1-434.7c-2.7,0-4.9,2.2-4.9,4.9c0,2.7,2.2,4.9,4.9,4.9s4.9-2.2,4.9-4.9S148.8-434.7,146.1-434.7"/>
			</g>
			<g transform="matrix(0.707107,-0.707107,-0.707107,-0.707107,176.615,16.9346)">
				<path class="st4" d="M132.3-217.6c-2.7,0-4.9,2.2-4.9,4.9s2.2,4.9,4.9,4.9s4.9-2.2,4.9-4.9S135-217.6,132.3-217.6"/>
			</g>
			<g transform="matrix(0.707107,-0.707107,-0.707107,-0.707107,184.659,24.9783)">
				<path class="st4" d="M132.3-237.3c-2.7,0-4.9,2.2-4.9,4.9s2.2,4.9,4.9,4.9s4.9-2.2,4.9-4.9S135-237.3,132.3-237.3"/>
			</g>
			<g transform="matrix(0.707107,-0.707107,-0.707107,-0.707107,192.703,33.023)">
				<path class="st4" d="M132.3-257.1c-2.7,0-4.9,2.2-4.9,4.9s2.2,4.9,4.9,4.9s4.9-2.2,4.9-4.9C137.2-254.9,135-257.1,132.3-257.1"
					/>
			</g>
			<g transform="matrix(0.707107,-0.707107,-0.707107,-0.707107,200.747,41.0667)">
				<path class="st4" d="M132.3-276.8c-2.7,0-4.9,2.2-4.9,4.9s2.2,4.9,4.9,4.9s4.9-2.2,4.9-4.9S135-276.8,132.3-276.8"/>
			</g>
			<g transform="matrix(0.707107,-0.707107,-0.707107,-0.707107,208.792,49.1114)">
				<path class="st4" d="M132.3-296.5c-2.7,0-4.9,2.2-4.9,4.9c0,2.7,2.2,4.9,4.9,4.9s4.9-2.2,4.9-4.9
					C137.2-294.4,135-296.5,132.3-296.5"/>
			</g>
			<g transform="matrix(0.707107,-0.707107,-0.707107,-0.707107,216.835,57.155)">
				<path class="st4" d="M132.3-316.3c-2.7,0-4.9,2.2-4.9,4.9s2.2,4.9,4.9,4.9s4.9-2.2,4.9-4.9S135-316.3,132.3-316.3"/>
			</g>
			<g transform="matrix(0.707107,-0.707107,-0.707107,-0.707107,224.88,65.1998)">
				<path class="st4" d="M132.3-336c-2.7,0-4.9,2.2-4.9,4.9s2.2,4.9,4.9,4.9s4.9-2.2,4.9-4.9S135-336,132.3-336"/>
			</g>
			<g transform="matrix(0.707107,-0.707107,-0.707107,-0.707107,232.924,73.2434)">
				<path class="st4" d="M132.3-355.8c-2.7,0-4.9,2.2-4.9,4.9c0,2.7,2.2,4.9,4.9,4.9s4.9-2.2,4.9-4.9S135-355.8,132.3-355.8"/>
			</g>
			<g transform="matrix(0.707107,-0.707107,-0.707107,-0.707107,240.968,81.2881)">
				<path class="st4" d="M132.3-375.5c-2.7,0-4.9,2.2-4.9,4.9s2.2,4.9,4.9,4.9s4.9-2.2,4.9-4.9S135-375.5,132.3-375.5"/>
			</g>
			<g transform="matrix(0.707107,-0.707107,-0.707107,-0.707107,249.012,89.3318)">
				<path class="st4" d="M132.3-395.2c-2.7,0-4.9,2.2-4.9,4.9s2.2,4.9,4.9,4.9s4.9-2.2,4.9-4.9S135-395.2,132.3-395.2"/>
			</g>
			<g transform="matrix(0.707107,-0.707107,-0.707107,-0.707107,257.057,97.3761)">
				<path class="st4" d="M132.3-415c-2.7,0-4.9,2.2-4.9,4.9c0,2.7,2.2,4.9,4.9,4.9s4.9-2.2,4.9-4.9S135-415,132.3-415"/>
			</g>
			<g transform="matrix(0.707107,-0.707107,-0.707107,-0.707107,265.101,105.42)">
				<path class="st4" d="M132.3-434.7c-2.7,0-4.9,2.2-4.9,4.9s2.2,4.9,4.9,4.9s4.9-2.2,4.9-4.9S135-434.7,132.3-434.7"/>
			</g>
			<g transform="matrix(0.707107,-0.707107,-0.707107,-0.707107,170.984,22.5656)">
				<path class="st4" d="M118.5-217.6c-2.7,0-4.9,2.2-4.9,4.9s2.2,4.9,4.9,4.9s4.9-2.2,4.9-4.9C123.3-215.4,121.2-217.6,118.5-217.6
					"/>
			</g>
			<g transform="matrix(0.707107,-0.707107,-0.707107,-0.707107,179.028,30.6091)">
				<path class="st4" d="M118.5-237.3c-2.7,0-4.9,2.2-4.9,4.9s2.2,4.9,4.9,4.9s4.9-2.2,4.9-4.9C123.3-235.1,121.2-237.3,118.5-237.3
					"/>
			</g>
			<g transform="matrix(0.707107,-0.707107,-0.707107,-0.707107,187.072,38.6539)">
				<path class="st4" d="M118.5-257.1c-2.7,0-4.9,2.2-4.9,4.9s2.2,4.9,4.9,4.9s4.9-2.2,4.9-4.9C123.3-254.9,121.2-257.1,118.5-257.1
					"/>
			</g>
			<g transform="matrix(0.707107,-0.707107,-0.707107,-0.707107,195.116,46.6975)">
				<path class="st4" d="M118.5-276.8c-2.7,0-4.9,2.2-4.9,4.9s2.2,4.9,4.9,4.9s4.9-2.2,4.9-4.9S121.2-276.8,118.5-276.8"/>
			</g>
			<g transform="matrix(0.707107,-0.707107,-0.707107,-0.707107,203.161,54.7422)">
				<path class="st4" d="M118.5-296.5c-2.7,0-4.9,2.2-4.9,4.9s2.2,4.9,4.9,4.9s4.9-2.2,4.9-4.9C123.3-294.4,121.2-296.5,118.5-296.5
					"/>
			</g>
			<g transform="matrix(0.707107,-0.707107,-0.707107,-0.707107,211.205,62.7859)">
				<path class="st4" d="M118.5-316.3c-2.7,0-4.9,2.2-4.9,4.9s2.2,4.9,4.9,4.9s4.9-2.2,4.9-4.9S121.2-316.3,118.5-316.3"/>
			</g>
			<g transform="matrix(0.707107,-0.707107,-0.707107,-0.707107,219.249,70.8306)">
				<path class="st4" d="M118.5-336c-2.7,0-4.9,2.2-4.9,4.9c0,2.7,2.2,4.9,4.9,4.9s4.9-2.2,4.9-4.9C123.3-333.8,121.2-336,118.5-336
					"/>
			</g>
			<g transform="matrix(0.707107,-0.707107,-0.707107,-0.707107,227.293,78.8743)">
				<path class="st4" d="M118.5-355.8c-2.7,0-4.9,2.2-4.9,4.9c0,2.7,2.2,4.9,4.9,4.9s4.9-2.2,4.9-4.9
					C123.3-353.6,121.2-355.8,118.5-355.8"/>
			</g>
			<g transform="matrix(0.707107,-0.707107,-0.707107,-0.707107,235.337,86.919)">
				<path class="st4" d="M118.5-375.5c-2.7,0-4.9,2.2-4.9,4.9s2.2,4.9,4.9,4.9s4.9-2.2,4.9-4.9C123.3-373.3,121.2-375.5,118.5-375.5
					"/>
			</g>
			<g transform="matrix(0.707107,-0.707107,-0.707107,-0.707107,243.381,94.9627)">
				<path class="st4" d="M118.5-395.2c-2.7,0-4.9,2.2-4.9,4.9s2.2,4.9,4.9,4.9s4.9-2.2,4.9-4.9S121.2-395.2,118.5-395.2"/>
			</g>
			<g transform="matrix(0.707107,-0.707107,-0.707107,-0.707107,251.426,103.007)">
				<path class="st4" d="M118.5-415c-2.7,0-4.9,2.2-4.9,4.9c0,2.7,2.2,4.9,4.9,4.9s4.9-2.2,4.9-4.9C123.3-412.8,121.2-415,118.5-415
					"/>
			</g>
			<g transform="matrix(0.707107,-0.707107,-0.707107,-0.707107,259.47,111.051)">
				<path class="st4" d="M118.5-434.7c-2.7,0-4.9,2.2-4.9,4.9c0,2.7,2.2,4.9,4.9,4.9s4.9-2.2,4.9-4.9
					C123.3-432.5,121.2-434.7,118.5-434.7"/>
			</g>
			<g transform="matrix(0.707107,-0.707107,-0.707107,-0.707107,165.353,28.1964)">
				<path class="st4" d="M104.6-217.6c-2.7,0-4.9,2.2-4.9,4.9s2.2,4.9,4.9,4.9s4.9-2.2,4.9-4.9S107.3-217.6,104.6-217.6"/>
			</g>
			<g transform="matrix(0.707107,-0.707107,-0.707107,-0.707107,173.397,36.2404)">
				<path class="st4" d="M104.6-237.3c-2.7,0-4.9,2.2-4.9,4.9s2.2,4.9,4.9,4.9s4.9-2.2,4.9-4.9S107.3-237.3,104.6-237.3"/>
			</g>
			<g transform="matrix(0.707107,-0.707107,-0.707107,-0.707107,181.441,44.2848)">
				<path class="st4" d="M104.6-257.1c-2.7,0-4.9,2.2-4.9,4.9s2.2,4.9,4.9,4.9s4.9-2.2,4.9-4.9S107.3-257.1,104.6-257.1"/>
			</g>
			<g transform="matrix(0.707107,-0.707107,-0.707107,-0.707107,189.486,52.3288)">
				<path class="st4" d="M104.6-276.8c-2.7,0-4.9,2.2-4.9,4.9c0,2.7,2.2,4.9,4.9,4.9s4.9-2.2,4.9-4.9S107.3-276.8,104.6-276.8"/>
			</g>
			<g transform="matrix(0.707107,-0.707107,-0.707107,-0.707107,197.529,60.3732)">
				<path class="st4" d="M104.6-296.5c-2.7,0-4.9,2.2-4.9,4.9s2.2,4.9,4.9,4.9s4.9-2.2,4.9-4.9S107.3-296.5,104.6-296.5"/>
			</g>
			<g transform="matrix(0.707107,-0.707107,-0.707107,-0.707107,205.574,68.4171)">
				<path class="st4" d="M104.6-316.3c-2.7,0-4.9,2.2-4.9,4.9c0,2.7,2.2,4.9,4.9,4.9s4.9-2.2,4.9-4.9S107.3-316.3,104.6-316.3"/>
			</g>
			<g transform="matrix(0.707107,-0.707107,-0.707107,-0.707107,213.618,76.4616)">
				<path class="st4" d="M104.6-336c-2.7,0-4.9,2.2-4.9,4.9s2.2,4.9,4.9,4.9s4.9-2.2,4.9-4.9S107.3-336,104.6-336"/>
			</g>
			<g transform="matrix(0.707107,-0.707107,-0.707107,-0.707107,221.662,84.5055)">
				<path class="st4" d="M104.6-355.8c-2.7,0-4.9,2.2-4.9,4.9c0,2.7,2.2,4.9,4.9,4.9s4.9-2.2,4.9-4.9S107.3-355.8,104.6-355.8"/>
			</g>
			<g transform="matrix(0.707107,-0.707107,-0.707107,-0.707107,229.706,92.55)">
				<path class="st4" d="M104.6-375.5c-2.7,0-4.9,2.2-4.9,4.9c0,2.7,2.2,4.9,4.9,4.9s4.9-2.2,4.9-4.9S107.3-375.5,104.6-375.5"/>
			</g>
			<g transform="matrix(0.707107,-0.707107,-0.707107,-0.707107,237.751,100.594)">
				<path class="st4" d="M104.6-395.2c-2.7,0-4.9,2.2-4.9,4.9s2.2,4.9,4.9,4.9s4.9-2.2,4.9-4.9S107.3-395.2,104.6-395.2"/>
			</g>
			<g transform="matrix(0.707107,-0.707107,-0.707107,-0.707107,245.795,108.638)">
				<path class="st4" d="M104.6-415c-2.7,0-4.9,2.2-4.9,4.9c0,2.7,2.2,4.9,4.9,4.9s4.9-2.2,4.9-4.9S107.3-415,104.6-415"/>
			</g>
			<g transform="matrix(0.707107,-0.707107,-0.707107,-0.707107,253.839,116.682)">
				<path class="st4" d="M104.6-434.7c-2.7,0-4.9,2.2-4.9,4.9c0,2.7,2.2,4.9,4.9,4.9s4.9-2.2,4.9-4.9S107.3-434.7,104.6-434.7"/>
			</g>
			<g transform="matrix(0.707107,-0.707107,-0.707107,-0.707107,159.722,33.8273)">
				<path class="st4" d="M90.8-217.6c-2.7,0-4.9,2.2-4.9,4.9s2.2,4.9,4.9,4.9s4.9-2.2,4.9-4.9S93.5-217.6,90.8-217.6"/>
			</g>
			<g transform="matrix(0.707107,-0.707107,-0.707107,-0.707107,167.766,41.8712)">
				<path class="st4" d="M90.8-237.3c-2.7,0-4.9,2.2-4.9,4.9s2.2,4.9,4.9,4.9c2.7,0,4.9-2.2,4.9-4.9
					C95.7-235.1,93.5-237.3,90.8-237.3"/>
			</g>
			<g transform="matrix(0.707107,-0.707107,-0.707107,-0.707107,175.81,49.9157)">
				<path class="st4" d="M90.8-257.1c-2.7,0-4.9,2.2-4.9,4.9s2.2,4.9,4.9,4.9s4.9-2.2,4.9-4.9S93.5-257.1,90.8-257.1"/>
			</g>
			<g transform="matrix(0.707107,-0.707107,-0.707107,-0.707107,183.855,57.96)">
				<path class="st4" d="M90.8-276.8c-2.7,0-4.9,2.2-4.9,4.9s2.2,4.9,4.9,4.9s4.9-2.2,4.9-4.9S93.5-276.8,90.8-276.8"/>
			</g>
			<g transform="matrix(0.707107,-0.707107,-0.707107,-0.707107,191.898,66.0037)">
				<path class="st4" d="M90.8-296.5c-2.7,0-4.9,2.2-4.9,4.9s2.2,4.9,4.9,4.9c2.7,0,4.9-2.2,4.9-4.9S93.5-296.5,90.8-296.5"/>
			</g>
			<g transform="matrix(0.707107,-0.707107,-0.707107,-0.707107,199.943,74.0484)">
				<path class="st4" d="M90.8-316.3c-2.7,0-4.9,2.2-4.9,4.9s2.2,4.9,4.9,4.9s4.9-2.2,4.9-4.9S93.5-316.3,90.8-316.3"/>
			</g>
			<g transform="matrix(0.707107,-0.707107,-0.707107,-0.707107,207.987,82.092)">
				<path class="st4" d="M90.8-336c-2.7,0-4.9,2.2-4.9,4.9s2.2,4.9,4.9,4.9c2.7,0,4.9-2.2,4.9-4.9S93.5-336,90.8-336"/>
			</g>
			<g transform="matrix(0.707107,-0.707107,-0.707107,-0.707107,216.031,90.1368)">
				<path class="st4" d="M90.8-355.8c-2.7,0-4.9,2.2-4.9,4.9s2.2,4.9,4.9,4.9c2.7,0,4.9-2.2,4.9-4.9S93.5-355.8,90.8-355.8"/>
			</g>
			<g transform="matrix(0.707107,-0.707107,-0.707107,-0.707107,224.075,98.1804)">
				<path class="st4" d="M90.8-375.5c-2.7,0-4.9,2.2-4.9,4.9s2.2,4.9,4.9,4.9c2.7,0,4.9-2.2,4.9-4.9S93.5-375.5,90.8-375.5"/>
			</g>
			<g transform="matrix(0.707107,-0.707107,-0.707107,-0.707107,232.12,106.225)">
				<path class="st4" d="M90.8-395.2c-2.7,0-4.9,2.2-4.9,4.9c0,2.7,2.2,4.9,4.9,4.9s4.9-2.2,4.9-4.9C95.7-393,93.5-395.2,90.8-395.2
					"/>
			</g>
			<g transform="matrix(0.707107,-0.707107,-0.707107,-0.707107,240.164,114.269)">
				<path class="st4" d="M90.8-415c-2.7,0-4.9,2.2-4.9,4.9c0,2.7,2.2,4.9,4.9,4.9c2.7,0,4.9-2.2,4.9-4.9S93.5-415,90.8-415"/>
			</g>
			<g transform="matrix(0.707107,-0.707107,-0.707107,-0.707107,248.208,122.313)">
				<path class="st4" d="M90.8-434.7c-2.7,0-4.9,2.2-4.9,4.9s2.2,4.9,4.9,4.9s4.9-2.2,4.9-4.9C95.7-432.5,93.5-434.7,90.8-434.7"/>
			</g>
			<g transform="matrix(0.707107,-0.707107,-0.707107,-0.707107,154.091,39.4578)">
				<path class="st4" d="M77-217.6c-2.7,0-4.9,2.2-4.9,4.9s2.2,4.9,4.9,4.9c2.7,0,4.9-2.2,4.9-4.9C81.9-215.4,79.7-217.6,77-217.6"
					/>
			</g>
			<g transform="matrix(0.707107,-0.707107,-0.707107,-0.707107,162.135,47.5025)">
				<path class="st4" d="M77-237.3c-2.7,0-4.9,2.2-4.9,4.9s2.2,4.9,4.9,4.9s4.9-2.2,4.9-4.9S79.7-237.3,77-237.3"/>
			</g>
			<g transform="matrix(0.707107,-0.707107,-0.707107,-0.707107,170.179,55.5461)">
				<path class="st4" d="M77-257.1c-2.7,0-4.9,2.2-4.9,4.9s2.2,4.9,4.9,4.9c2.7,0,4.9-2.2,4.9-4.9S79.7-257.1,77-257.1"/>
			</g>
			<g transform="matrix(0.707107,-0.707107,-0.707107,-0.707107,178.224,63.5909)">
				<path class="st4" d="M77-276.8c-2.7,0-4.9,2.2-4.9,4.9c0,2.7,2.2,4.9,4.9,4.9s4.9-2.2,4.9-4.9C81.9-274.6,79.7-276.8,77-276.8"
					/>
			</g>
			<g transform="matrix(0.707107,-0.707107,-0.707107,-0.707107,186.268,71.6345)">
				<path class="st4" d="M77-296.5c-2.7,0-4.9,2.2-4.9,4.9s2.2,4.9,4.9,4.9c2.7,0,4.9-2.2,4.9-4.9S79.7-296.5,77-296.5"/>
			</g>
			<g transform="matrix(0.707107,-0.707107,-0.707107,-0.707107,194.312,79.6793)">
				<path class="st4" d="M77-316.3c-2.7,0-4.9,2.2-4.9,4.9s2.2,4.9,4.9,4.9c2.7,0,4.9-2.2,4.9-4.9C81.9-314.1,79.7-316.3,77-316.3"
					/>
			</g>
			<g transform="matrix(0.707107,-0.707107,-0.707107,-0.707107,202.356,87.7229)">
				<path class="st4" d="M77-336c-2.7,0-4.9,2.2-4.9,4.9s2.2,4.9,4.9,4.9c2.7,0,4.9-2.2,4.9-4.9S79.7-336,77-336"/>
			</g>
			<g transform="matrix(0.707107,-0.707107,-0.707107,-0.707107,210.4,95.7676)">
				<path class="st4" d="M77-355.8c-2.7,0-4.9,2.2-4.9,4.9c0,2.7,2.2,4.9,4.9,4.9c2.7,0,4.9-2.2,4.9-4.9
					C81.9-353.6,79.7-355.8,77-355.8"/>
			</g>
			<g transform="matrix(0.707107,-0.707107,-0.707107,-0.707107,218.444,103.811)">
				<path class="st4" d="M77-375.5c-2.7,0-4.9,2.2-4.9,4.9c0,2.7,2.2,4.9,4.9,4.9c2.7,0,4.9-2.2,4.9-4.9S79.7-375.5,77-375.5"/>
			</g>
			<g transform="matrix(0.707107,-0.707107,-0.707107,-0.707107,226.489,111.856)">
				<path class="st4" d="M77-395.2c-2.7,0-4.9,2.2-4.9,4.9c0,2.7,2.2,4.9,4.9,4.9c2.7,0,4.9-2.2,4.9-4.9S79.7-395.2,77-395.2"/>
			</g>
			<g transform="matrix(0.707107,-0.707107,-0.707107,-0.707107,234.533,119.9)">
				<path class="st4" d="M77-415c-2.7,0-4.9,2.2-4.9,4.9c0,2.7,2.2,4.9,4.9,4.9c2.7,0,4.9-2.2,4.9-4.9S79.7-415,77-415"/>
			</g>
			<g transform="matrix(0.707107,-0.707107,-0.707107,-0.707107,242.577,127.944)">
				<path class="st4" d="M77-434.7c-2.7,0-4.9,2.2-4.9,4.9s2.2,4.9,4.9,4.9s4.9-2.2,4.9-4.9S79.7-434.7,77-434.7"/>
			</g>
			<g transform="matrix(0.707107,-0.707107,-0.707107,-0.707107,148.46,45.089)">
				<path class="st4" d="M63.2-217.6c-2.7,0-4.9,2.2-4.9,4.9s2.2,4.9,4.9,4.9s4.9-2.2,4.9-4.9S65.9-217.6,63.2-217.6"/>
			</g>
			<g transform="matrix(0.707107,-0.707107,-0.707107,-0.707107,156.504,53.1335)">
				<path class="st4" d="M63.2-237.3c-2.7,0-4.9,2.2-4.9,4.9s2.2,4.9,4.9,4.9s4.9-2.2,4.9-4.9S65.9-237.3,63.2-237.3"/>
			</g>
			<g transform="matrix(0.707107,-0.707107,-0.707107,-0.707107,164.549,61.1774)">
				<path class="st4" d="M63.2-257.1c-2.7,0-4.9,2.2-4.9,4.9s2.2,4.9,4.9,4.9s4.9-2.2,4.9-4.9C68.1-254.9,65.9-257.1,63.2-257.1"/>
			</g>
			<g transform="matrix(0.707107,-0.707107,-0.707107,-0.707107,172.592,69.2218)">
				<path class="st4" d="M63.2-276.8c-2.7,0-4.9,2.2-4.9,4.9s2.2,4.9,4.9,4.9s4.9-2.2,4.9-4.9S65.9-276.8,63.2-276.8"/>
			</g>
			<g transform="matrix(0.707107,-0.707107,-0.707107,-0.707107,180.637,77.2654)">
				<path class="st4" d="M63.2-296.5c-2.7,0-4.9,2.2-4.9,4.9s2.2,4.9,4.9,4.9s4.9-2.2,4.9-4.9S65.9-296.5,63.2-296.5"/>
			</g>
			<g transform="matrix(0.707107,-0.707107,-0.707107,-0.707107,188.681,85.3101)">
				<path class="st4" d="M63.2-316.3c-2.7,0-4.9,2.2-4.9,4.9s2.2,4.9,4.9,4.9s4.9-2.2,4.9-4.9S65.9-316.3,63.2-316.3"/>
			</g>
			<g transform="matrix(0.707107,-0.707107,-0.707107,-0.707107,196.725,93.3538)">
				<path class="st4" d="M63.2-336c-2.7,0-4.9,2.2-4.9,4.9s2.2,4.9,4.9,4.9s4.9-2.2,4.9-4.9S65.9-336,63.2-336"/>
			</g>
			<g transform="matrix(0.707107,-0.707107,-0.707107,-0.707107,204.77,101.398)">
				<path class="st4" d="M63.2-355.8c-2.7,0-4.9,2.2-4.9,4.9s2.2,4.9,4.9,4.9s4.9-2.2,4.9-4.9S65.9-355.8,63.2-355.8"/>
			</g>
			<g transform="matrix(0.707107,-0.707107,-0.707107,-0.707107,212.813,109.442)">
				<path class="st4" d="M63.2-375.5c-2.7,0-4.9,2.2-4.9,4.9c0,2.7,2.2,4.9,4.9,4.9s4.9-2.2,4.9-4.9S65.9-375.5,63.2-375.5"/>
			</g>
			<g transform="matrix(0.707107,-0.707107,-0.707107,-0.707107,220.858,117.487)">
				<path class="st4" d="M63.2-395.2c-2.7,0-4.9,2.2-4.9,4.9c0,2.7,2.2,4.9,4.9,4.9s4.9-2.2,4.9-4.9S65.9-395.2,63.2-395.2"/>
			</g>
			<g transform="matrix(0.707107,-0.707107,-0.707107,-0.707107,228.902,125.531)">
				<path class="st4" d="M63.2-415c-2.7,0-4.9,2.2-4.9,4.9s2.2,4.9,4.9,4.9s4.9-2.2,4.9-4.9S65.9-415,63.2-415"/>
			</g>
			<g transform="matrix(0.707107,-0.707107,-0.707107,-0.707107,236.946,133.575)">
				<path class="st4" d="M63.2-434.7c-2.7,0-4.9,2.2-4.9,4.9s2.2,4.9,4.9,4.9s4.9-2.2,4.9-4.9S65.9-434.7,63.2-434.7"/>
			</g>
			<g transform="matrix(0.707107,-0.707107,-0.707107,-0.707107,142.829,50.7199)">
				<path class="st4" d="M49.4-217.6c-2.7,0-4.9,2.2-4.9,4.9s2.2,4.9,4.9,4.9s4.9-2.2,4.9-4.9S52.1-217.6,49.4-217.6"/>
			</g>
			<g transform="matrix(0.707107,-0.707107,-0.707107,-0.707107,150.873,58.7643)">
				<path class="st4" d="M49.4-237.3c-2.7,0-4.9,2.2-4.9,4.9s2.2,4.9,4.9,4.9s4.9-2.2,4.9-4.9C54.3-235.1,52.1-237.3,49.4-237.3"/>
			</g>
			<g transform="matrix(0.707107,-0.707107,-0.707107,-0.707107,158.918,66.8083)">
				<path class="st4" d="M49.4-257.1c-2.7,0-4.9,2.2-4.9,4.9s2.2,4.9,4.9,4.9s4.9-2.2,4.9-4.9C54.3-254.9,52.1-257.1,49.4-257.1"/>
			</g>
			<g transform="matrix(0.707107,-0.707107,-0.707107,-0.707107,166.962,74.8527)">
				<path class="st4" d="M49.4-276.8c-2.7,0-4.9,2.2-4.9,4.9c0,2.7,2.2,4.9,4.9,4.9s4.9-2.2,4.9-4.9S52.1-276.8,49.4-276.8"/>
			</g>
			<g transform="matrix(0.707107,-0.707107,-0.707107,-0.707107,175.006,82.8966)">
				<path class="st4" d="M49.4-296.5c-2.7,0-4.9,2.2-4.9,4.9c0,2.7,2.2,4.9,4.9,4.9s4.9-2.2,4.9-4.9
					C54.3-294.4,52.1-296.5,49.4-296.5"/>
			</g>
			<g transform="matrix(0.707107,-0.707107,-0.707107,-0.707107,183.05,90.9411)">
				<path class="st4" d="M49.4-316.3c-2.7,0-4.9,2.2-4.9,4.9s2.2,4.9,4.9,4.9s4.9-2.2,4.9-4.9S52.1-316.3,49.4-316.3"/>
			</g>
			<g transform="matrix(0.707107,-0.707107,-0.707107,-0.707107,191.095,98.985)">
				<path class="st4" d="M49.4-336c-2.7,0-4.9,2.2-4.9,4.9c0,2.7,2.2,4.9,4.9,4.9s4.9-2.2,4.9-4.9S52.1-336,49.4-336"/>
			</g>
			<g transform="matrix(0.707107,-0.707107,-0.707107,-0.707107,199.138,107.03)">
				<path class="st4" d="M49.4-355.8c-2.7,0-4.9,2.2-4.9,4.9s2.2,4.9,4.9,4.9s4.9-2.2,4.9-4.9S52.1-355.8,49.4-355.8"/>
			</g>
			<g transform="matrix(0.707107,-0.707107,-0.707107,-0.707107,207.183,115.074)">
				<path class="st4" d="M49.4-375.5c-2.7,0-4.9,2.2-4.9,4.9c0,2.7,2.2,4.9,4.9,4.9s4.9-2.2,4.9-4.9S52.1-375.5,49.4-375.5"/>
			</g>
			<g transform="matrix(0.707107,-0.707107,-0.707107,-0.707107,215.227,123.117)">
				<path class="st4" d="M49.4-395.2c-2.7,0-4.9,2.2-4.9,4.9c0,2.7,2.2,4.9,4.9,4.9s4.9-2.2,4.9-4.9C54.3-393,52.1-395.2,49.4-395.2
					"/>
			</g>
			<g transform="matrix(0.707107,-0.707107,-0.707107,-0.707107,223.271,131.162)">
				<path class="st4" d="M49.4-415c-2.7,0-4.9,2.2-4.9,4.9c0,2.7,2.2,4.9,4.9,4.9s4.9-2.2,4.9-4.9S52.1-415,49.4-415"/>
			</g>
			<g transform="matrix(0.707107,-0.707107,-0.707107,-0.707107,231.315,139.206)">
				<path class="st4" d="M49.4-434.7c-2.7,0-4.9,2.2-4.9,4.9s2.2,4.9,4.9,4.9s4.9-2.2,4.9-4.9S52.1-434.7,49.4-434.7"/>
			</g>
			<g transform="matrix(0.707107,-0.707107,-0.707107,-0.707107,137.198,56.3511)">
				<path class="st4" d="M35.6-217.6c-2.7,0-4.9,2.2-4.9,4.9s2.2,4.9,4.9,4.9s4.9-2.2,4.9-4.9C40.4-215.4,38.3-217.6,35.6-217.6"/>
			</g>
			<g transform="matrix(0.707107,-0.707107,-0.707107,-0.707107,145.242,64.3952)">
				<path class="st4" d="M35.6-237.3c-2.7,0-4.9,2.2-4.9,4.9s2.2,4.9,4.9,4.9s4.9-2.2,4.9-4.9S38.3-237.3,35.6-237.3"/>
			</g>
			<g transform="matrix(0.707107,-0.707107,-0.707107,-0.707107,153.287,72.4395)">
				<path class="st4" d="M35.6-257.1c-2.7,0-4.9,2.2-4.9,4.9s2.2,4.9,4.9,4.9s4.9-2.2,4.9-4.9C40.4-254.9,38.3-257.1,35.6-257.1"/>
			</g>
			<g transform="matrix(0.707107,-0.707107,-0.707107,-0.707107,161.331,80.4832)">
				<path class="st4" d="M35.6-276.8c-2.7,0-4.9,2.2-4.9,4.9s2.2,4.9,4.9,4.9s4.9-2.2,4.9-4.9S38.3-276.8,35.6-276.8"/>
			</g>
			<g transform="matrix(0.707107,-0.707107,-0.707107,-0.707107,169.375,88.5279)">
				<path class="st4" d="M35.6-296.5c-2.7,0-4.9,2.2-4.9,4.9s2.2,4.9,4.9,4.9s4.9-2.2,4.9-4.9C40.4-294.4,38.3-296.5,35.6-296.5"/>
			</g>
			<g transform="matrix(0.707107,-0.707107,-0.707107,-0.707107,177.419,96.5715)">
				<path class="st4" d="M35.6-316.3c-2.7,0-4.9,2.2-4.9,4.9s2.2,4.9,4.9,4.9s4.9-2.2,4.9-4.9S38.3-316.3,35.6-316.3"/>
			</g>
			<g transform="matrix(0.707107,-0.707107,-0.707107,-0.707107,185.463,104.616)">
				<path class="st4" d="M35.6-336c-2.7,0-4.9,2.2-4.9,4.9c0,2.7,2.2,4.9,4.9,4.9s4.9-2.2,4.9-4.9C40.4-333.8,38.3-336,35.6-336"/>
			</g>
			<g transform="matrix(0.707107,-0.707107,-0.707107,-0.707107,193.507,112.66)">
				<path class="st4" d="M35.6-355.8c-2.7,0-4.9,2.2-4.9,4.9s2.2,4.9,4.9,4.9s4.9-2.2,4.9-4.9S38.3-355.8,35.6-355.8"/>
			</g>
			<g transform="matrix(0.707107,-0.707107,-0.707107,-0.707107,201.552,120.705)">
				<path class="st4" d="M35.6-375.5c-2.7,0-4.9,2.2-4.9,4.9s2.2,4.9,4.9,4.9s4.9-2.2,4.9-4.9C40.4-373.3,38.3-375.5,35.6-375.5"/>
			</g>
			<g transform="matrix(0.707107,-0.707107,-0.707107,-0.707107,209.596,128.748)">
				<path class="st4" d="M35.6-395.2c-2.7,0-4.9,2.2-4.9,4.9s2.2,4.9,4.9,4.9s4.9-2.2,4.9-4.9S38.3-395.2,35.6-395.2"/>
			</g>
			<g transform="matrix(0.707107,-0.707107,-0.707107,-0.707107,217.64,136.793)">
				<path class="st4" d="M35.6-415c-2.7,0-4.9,2.2-4.9,4.9c0,2.7,2.2,4.9,4.9,4.9s4.9-2.2,4.9-4.9C40.4-412.8,38.3-415,35.6-415"/>
			</g>
			<g transform="matrix(0.707107,-0.707107,-0.707107,-0.707107,225.684,144.837)">
				<path class="st4" d="M35.6-434.7c-2.7,0-4.9,2.2-4.9,4.9c0,2.7,2.2,4.9,4.9,4.9s4.9-2.2,4.9-4.9
					C40.4-432.5,38.3-434.7,35.6-434.7"/>
			</g>
			<g transform="matrix(0.707107,-0.707107,-0.707107,-0.707107,131.567,61.982)">
				<path class="st4" d="M21.7-217.6c-2.7,0-4.9,2.2-4.9,4.9s2.2,4.9,4.9,4.9s4.9-2.2,4.9-4.9S24.4-217.6,21.7-217.6"/>
			</g>
			<g transform="matrix(0.707107,-0.707107,-0.707107,-0.707107,139.611,70.0256)">
				<path class="st4" d="M21.7-237.3c-2.7,0-4.9,2.2-4.9,4.9s2.2,4.9,4.9,4.9s4.9-2.2,4.9-4.9S24.4-237.3,21.7-237.3"/>
			</g>
			<g transform="matrix(0.707107,-0.707107,-0.707107,-0.707107,147.656,78.0704)">
				<path class="st4" d="M21.7-257.1c-2.7,0-4.9,2.2-4.9,4.9s2.2,4.9,4.9,4.9s4.9-2.2,4.9-4.9C26.6-254.9,24.4-257.1,21.7-257.1"/>
			</g>
			<g transform="matrix(0.707107,-0.707107,-0.707107,-0.707107,155.7,86.114)">
				<path class="st4" d="M21.7-276.8c-2.7,0-4.9,2.2-4.9,4.9s2.2,4.9,4.9,4.9s4.9-2.2,4.9-4.9S24.4-276.8,21.7-276.8"/>
			</g>
			<g transform="matrix(0.707107,-0.707107,-0.707107,-0.707107,163.744,94.1588)">
				<path class="st4" d="M21.7-296.5c-2.7,0-4.9,2.2-4.9,4.9s2.2,4.9,4.9,4.9s4.9-2.2,4.9-4.9C26.6-294.4,24.4-296.5,21.7-296.5"/>
			</g>
			<g transform="matrix(0.707107,-0.707107,-0.707107,-0.707107,171.788,102.202)">
				<path class="st4" d="M21.7-316.3c-2.7,0-4.9,2.2-4.9,4.9s2.2,4.9,4.9,4.9s4.9-2.2,4.9-4.9S24.4-316.3,21.7-316.3"/>
			</g>
			<g transform="matrix(0.707107,-0.707107,-0.707107,-0.707107,179.833,110.247)">
				<path class="st4" d="M21.7-336c-2.7,0-4.9,2.2-4.9,4.9s2.2,4.9,4.9,4.9s4.9-2.2,4.9-4.9S24.4-336,21.7-336"/>
			</g>
			<g transform="matrix(0.707107,-0.707107,-0.707107,-0.707107,187.876,118.291)">
				<path class="st4" d="M21.7-355.8c-2.7,0-4.9,2.2-4.9,4.9s2.2,4.9,4.9,4.9s4.9-2.2,4.9-4.9S24.4-355.8,21.7-355.8"/>
			</g>
			<g transform="matrix(0.707107,-0.707107,-0.707107,-0.707107,195.921,126.335)">
				<path class="st4" d="M21.7-375.5c-2.7,0-4.9,2.2-4.9,4.9s2.2,4.9,4.9,4.9s4.9-2.2,4.9-4.9S24.4-375.5,21.7-375.5"/>
			</g>
			<g transform="matrix(0.707107,-0.707107,-0.707107,-0.707107,203.965,134.379)">
				<path class="st4" d="M21.7-395.2c-2.7,0-4.9,2.2-4.9,4.9s2.2,4.9,4.9,4.9s4.9-2.2,4.9-4.9S24.4-395.2,21.7-395.2"/>
			</g>
			<g transform="matrix(0.707107,-0.707107,-0.707107,-0.707107,212.009,142.424)">
				<path class="st4" d="M21.7-415c-2.7,0-4.9,2.2-4.9,4.9c0,2.7,2.2,4.9,4.9,4.9s4.9-2.2,4.9-4.9S24.4-415,21.7-415"/>
			</g>
			<g transform="matrix(0.707107,-0.707107,-0.707107,-0.707107,220.053,150.468)">
				<path class="st4" d="M21.7-434.7c-2.7,0-4.9,2.2-4.9,4.9s2.2,4.9,4.9,4.9s4.9-2.2,4.9-4.9S24.4-434.7,21.7-434.7"/>
			</g>
			<g transform="matrix(0.707107,-0.707107,-0.707107,-0.707107,125.936,67.613)">
				<path class="st4" d="M7.9-217.6c-2.7,0-4.9,2.2-4.9,4.9s2.2,4.9,4.9,4.9s4.9-2.2,4.9-4.9C12.8-215.4,10.6-217.6,7.9-217.6"/>
			</g>
			<g transform="matrix(0.707107,-0.707107,-0.707107,-0.707107,133.981,75.6569)">
				<path class="st4" d="M7.9-237.3c-2.7,0-4.9,2.2-4.9,4.9s2.2,4.9,4.9,4.9s4.9-2.2,4.9-4.9S10.6-237.3,7.9-237.3"/>
			</g>
			<g transform="matrix(0.707107,-0.707107,-0.707107,-0.707107,142.025,83.7013)">
				<path class="st4" d="M7.9-257.1c-2.7,0-4.9,2.2-4.9,4.9s2.2,4.9,4.9,4.9s4.9-2.2,4.9-4.9S10.6-257.1,7.9-257.1"/>
			</g>
			<g transform="matrix(0.707107,-0.707107,-0.707107,-0.707107,150.069,91.7453)">
				<path class="st4" d="M7.9-276.8c-2.7,0-4.9,2.2-4.9,4.9c0,2.7,2.2,4.9,4.9,4.9s4.9-2.2,4.9-4.9C12.8-274.6,10.6-276.8,7.9-276.8
					"/>
			</g>
			<g transform="matrix(0.707107,-0.707107,-0.707107,-0.707107,158.113,99.7897)">
				<path class="st4" d="M7.9-296.5c-2.7,0-4.9,2.2-4.9,4.9c0,2.7,2.2,4.9,4.9,4.9s4.9-2.2,4.9-4.9C12.8-294.4,10.6-296.5,7.9-296.5
					"/>
			</g>
			<g transform="matrix(0.707107,-0.707107,-0.707107,-0.707107,166.158,107.834)">
				<path class="st4" d="M7.9-316.3c-2.7,0-4.9,2.2-4.9,4.9c0,2.7,2.2,4.9,4.9,4.9s4.9-2.2,4.9-4.9C12.8-314.1,10.6-316.3,7.9-316.3
					"/>
			</g>
			<g transform="matrix(0.707107,-0.707107,-0.707107,-0.707107,174.201,115.878)">
				<path class="st4" d="M7.9-336c-2.7,0-4.9,2.2-4.9,4.9s2.2,4.9,4.9,4.9s4.9-2.2,4.9-4.9S10.6-336,7.9-336"/>
			</g>
			<g transform="matrix(0.707107,-0.707107,-0.707107,-0.707107,182.246,123.922)">
				<path class="st4" d="M7.9-355.8c-2.7,0-4.9,2.2-4.9,4.9s2.2,4.9,4.9,4.9s4.9-2.2,4.9-4.9S10.6-355.8,7.9-355.8"/>
			</g>
			<g transform="matrix(0.707107,-0.707107,-0.707107,-0.707107,190.29,131.966)">
				<path class="st4" d="M7.9-375.5c-2.7,0-4.9,2.2-4.9,4.9c0,2.7,2.2,4.9,4.9,4.9s4.9-2.2,4.9-4.9S10.6-375.5,7.9-375.5"/>
			</g>
			<g transform="matrix(0.707107,-0.707107,-0.707107,-0.707107,198.334,140.01)">
				<path class="st4" d="M7.9-395.2c-2.7,0-4.9,2.2-4.9,4.9s2.2,4.9,4.9,4.9s4.9-2.2,4.9-4.9S10.6-395.2,7.9-395.2"/>
			</g>
			<g transform="matrix(0.707107,-0.707107,-0.707107,-0.707107,206.378,148.055)">
				<path class="st4" d="M7.9-415c-2.7,0-4.9,2.2-4.9,4.9c0,2.7,2.2,4.9,4.9,4.9s4.9-2.2,4.9-4.9S10.6-415,7.9-415"/>
			</g>
			<g transform="matrix(0.707107,-0.707107,-0.707107,-0.707107,214.422,156.098)">
				<path class="st4" d="M7.9-434.7c-2.7,0-4.9,2.2-4.9,4.9s2.2,4.9,4.9,4.9s4.9-2.2,4.9-4.9S10.6-434.7,7.9-434.7"/>
			</g>
			<g transform="matrix(0.707107,-0.707107,-0.707107,-0.707107,367.513,3.008)">
				<path class="st4" d="M383.6-434.7c-2.7,0-4.9,2.2-4.9,4.9c0,2.7,2.2,4.9,4.9,4.9c2.7,0,4.9-2.2,4.9-4.9S386.3-434.7,383.6-434.7
					"/>
			</g>
			<g transform="matrix(0.707107,-0.707107,-0.707107,-0.707107,353.838,0.594546)">
				<path class="st4" d="M369.7-415c-2.7,0-4.9,2.2-4.9,4.9c0,2.7,2.2,4.9,4.9,4.9c2.7,0,4.9-2.2,4.9-4.9S372.4-415,369.7-415"/>
			</g>
			<g transform="matrix(0.707107,-0.707107,-0.707107,-0.707107,361.882,8.6388)">
				<path class="st4" d="M369.7-434.7c-2.7,0-4.9,2.2-4.9,4.9c0,2.7,2.2,4.9,4.9,4.9c2.7,0,4.9-2.2,4.9-4.9S372.4-434.7,369.7-434.7
					"/>
			</g>
			<g transform="matrix(0.707247,-0.706967,-0.706967,-0.707247,340.162,-1.81785)">
				<path class="st4" d="M356-395.2c-2.7,0-4.9,2.2-4.9,4.9c0,2.7,2.2,4.9,4.9,4.9c2.7,0,4.9-2.2,4.9-4.9S358.7-395.2,356-395.2"/>
			</g>
			<g transform="matrix(0.707107,-0.707107,-0.707107,-0.707107,348.207,6.2257)">
				<path class="st4" d="M355.9-415c-2.7,0-4.9,2.2-4.9,4.9c0,2.7,2.2,4.9,4.9,4.9c2.7,0,4.9-2.2,4.9-4.9S358.6-415,355.9-415"/>
			</g>
			<g transform="matrix(0.707107,-0.707107,-0.707107,-0.707107,356.251,14.2698)">
				<path class="st4" d="M355.9-434.7c-2.7,0-4.9,2.2-4.9,4.9c0,2.7,2.2,4.9,4.9,4.9c2.7,0,4.9-2.2,4.9-4.9S358.6-434.7,355.9-434.7
					"/>
			</g>
			<g transform="matrix(0.707247,-0.706967,-0.706967,-0.707247,334.531,3.81305)">
				<path class="st4" d="M342.2-395.2c-2.7,0-4.9,2.2-4.9,4.9c0,2.7,2.2,4.9,4.9,4.9c2.7,0,4.9-2.2,4.9-4.9S344.9-395.2,342.2-395.2
					"/>
			</g>
			<g transform="matrix(0.707107,-0.707107,-0.707107,-0.707107,342.576,11.8566)">
				<path class="st4" d="M342.1-415c-2.7,0-4.9,2.2-4.9,4.9c0,2.7,2.2,4.9,4.9,4.9c2.7,0,4.9-2.2,4.9-4.9S344.8-415,342.1-415"/>
			</g>
			<g transform="matrix(0.707107,-0.707107,-0.707107,-0.707107,350.62,19.9006)">
				<path class="st4" d="M342.1-434.7c-2.7,0-4.9,2.2-4.9,4.9s2.2,4.9,4.9,4.9c2.7,0,4.9-2.2,4.9-4.9S344.8-434.7,342.1-434.7"/>
			</g>
			<g transform="matrix(0.707107,-0.707107,-0.707107,-0.707107,320.857,1.3991)">
				<path class="st4" d="M328.3-375.5c-2.7,0-4.9,2.2-4.9,4.9c0,2.7,2.2,4.9,4.9,4.9c2.7,0,4.9-2.2,4.9-4.9S331-375.5,328.3-375.5"
					/>
			</g>
			<g transform="matrix(0.707107,-0.707107,-0.707107,-0.707107,328.901,9.4435)">
				<path class="st4" d="M328.3-395.2c-2.7,0-4.9,2.2-4.9,4.9c0,2.7,2.2,4.9,4.9,4.9s4.9-2.2,4.9-4.9
					C333.2-393,331-395.2,328.3-395.2"/>
			</g>
			<g transform="matrix(0.707107,-0.707107,-0.707107,-0.707107,336.946,17.4871)">
				<path class="st4" d="M328.3-415c-2.7,0-4.9,2.2-4.9,4.9c0,2.7,2.2,4.9,4.9,4.9c2.7,0,4.9-2.2,4.9-4.9S331-415,328.3-415"/>
			</g>
			<g transform="matrix(0.707107,-0.707107,-0.707107,-0.707107,344.989,25.5315)">
				<path class="st4" d="M328.3-434.7c-2.7,0-4.9,2.2-4.9,4.9c0,2.7,2.2,4.9,4.9,4.9c2.7,0,4.9-2.2,4.9-4.9
					C333.2-432.5,331-434.7,328.3-434.7"/>
			</g>
			<g transform="matrix(0.707107,-0.707107,-0.707107,-0.707107,307.182,-1.014)">
				<path class="st4" d="M314.5-355.8c-2.7,0-4.9,2.2-4.9,4.9c0,2.7,2.2,4.9,4.9,4.9c2.7,0,4.9-2.2,4.9-4.9
					C319.4-353.6,317.2-355.8,314.5-355.8"/>
			</g>
			<g transform="matrix(0.707107,-0.707107,-0.707107,-0.707107,315.226,7.03005)">
				<path class="st4" d="M314.5-375.5c-2.7,0-4.9,2.2-4.9,4.9s2.2,4.9,4.9,4.9c2.7,0,4.9-2.2,4.9-4.9S317.2-375.5,314.5-375.5"/>
			</g>
			<g transform="matrix(0.707107,-0.707107,-0.707107,-0.707107,323.27,15.0744)">
				<path class="st4" d="M314.5-395.2c-2.7,0-4.9,2.2-4.9,4.9s2.2,4.9,4.9,4.9c2.7,0,4.9-2.2,4.9-4.9S317.2-395.2,314.5-395.2"/>
			</g>
			<g transform="matrix(0.707247,-0.706967,-0.706967,-0.707247,331.314,23.1192)">
				<path class="st4" d="M314.6-414.9c-2.7,0-4.9,2.2-4.9,4.9c0,2.7,2.2,4.9,4.9,4.9c2.7,0,4.9-2.2,4.9-4.9S317.3-414.9,314.6-414.9
					"/>
			</g>
			<g transform="matrix(0.707107,-0.707107,-0.707107,-0.707107,339.358,31.1624)">
				<path class="st4" d="M314.5-434.7c-2.7,0-4.9,2.2-4.9,4.9s2.2,4.9,4.9,4.9c2.7,0,4.9-2.2,4.9-4.9S317.2-434.7,314.5-434.7"/>
			</g>
			<g transform="matrix(0.707107,-0.707107,-0.707107,-0.707107,301.551,4.6168)">
				<path class="st4" d="M300.7-355.8c-2.7,0-4.9,2.2-4.9,4.9c0,2.7,2.2,4.9,4.9,4.9c2.7,0,4.9-2.2,4.9-4.9S303.4-355.8,300.7-355.8
					"/>
			</g>
			<g transform="matrix(0.707107,-0.707107,-0.707107,-0.707107,309.595,12.6609)">
				<path class="st4" d="M300.7-375.5c-2.7,0-4.9,2.2-4.9,4.9c0,2.7,2.2,4.9,4.9,4.9c2.7,0,4.9-2.2,4.9-4.9S303.4-375.5,300.7-375.5
					"/>
			</g>
			<g transform="matrix(0.707107,-0.707107,-0.707107,-0.707107,317.639,20.7052)">
				<path class="st4" d="M300.7-395.2c-2.7,0-4.9,2.2-4.9,4.9c0,2.7,2.2,4.9,4.9,4.9c2.7,0,4.9-2.2,4.9-4.9S303.4-395.2,300.7-395.2
					"/>
			</g>
			<g transform="matrix(0.707247,-0.706967,-0.706967,-0.707247,325.683,28.7501)">
				<path class="st4" d="M300.7-414.9c-2.7,0-4.9,2.2-4.9,4.9c0,2.7,2.2,4.9,4.9,4.9c2.7,0,4.9-2.2,4.9-4.9S303.4-414.9,300.7-414.9
					"/>
			</g>
			<g transform="matrix(0.707107,-0.707107,-0.707107,-0.707107,333.728,36.7936)">
				<path class="st4" d="M300.7-434.7c-2.7,0-4.9,2.2-4.9,4.9c0,2.7,2.2,4.9,4.9,4.9c2.7,0,4.9-2.2,4.9-4.9S303.4-434.7,300.7-434.7
					"/>
			</g>
			<g transform="matrix(0.707247,-0.706967,-0.706967,-0.707247,287.875,2.20415)">
				<path class="st4" d="M286.9-336c-2.7,0-4.9,2.2-4.9,4.9c0,2.7,2.2,4.9,4.9,4.9c2.7,0,4.9-2.2,4.9-4.9S289.6-336,286.9-336"/>
			</g>
			<g transform="matrix(0.707107,-0.707107,-0.707107,-0.707107,295.92,10.2477)">
				<path class="st4" d="M286.8-355.8c-2.7,0-4.9,2.2-4.9,4.9c0,2.7,2.2,4.9,4.9,4.9c2.7,0,4.9-2.2,4.9-4.9S289.5-355.8,286.8-355.8
					"/>
			</g>
			<g transform="matrix(0.707107,-0.707107,-0.707107,-0.707107,303.964,18.2918)">
				<path class="st4" d="M286.8-375.5c-2.7,0-4.9,2.2-4.9,4.9s2.2,4.9,4.9,4.9c2.7,0,4.9-2.2,4.9-4.9S289.5-375.5,286.8-375.5"/>
			</g>
			<g transform="matrix(0.707107,-0.707107,-0.707107,-0.707107,312.008,26.3361)">
				<path class="st4" d="M286.8-395.2c-2.7,0-4.9,2.2-4.9,4.9c0,2.7,2.2,4.9,4.9,4.9c2.7,0,4.9-2.2,4.9-4.9
					C291.7-393,289.5-395.2,286.8-395.2"/>
			</g>
			<g transform="matrix(0.707247,-0.706967,-0.706967,-0.707247,320.052,34.3809)">
				<path class="st4" d="M286.9-414.9c-2.7,0-4.9,2.2-4.9,4.9c0,2.7,2.2,4.9,4.9,4.9c2.7,0,4.9-2.2,4.9-4.9S289.6-414.9,286.9-414.9
					"/>
			</g>
			<g transform="matrix(0.707107,-0.707107,-0.707107,-0.707107,328.097,42.4241)">
				<path class="st4" d="M286.8-434.7c-2.7,0-4.9,2.2-4.9,4.9c0,2.7,2.2,4.9,4.9,4.9c2.7,0,4.9-2.2,4.9-4.9
					C291.7-432.5,289.5-434.7,286.8-434.7"/>
			</g>
			<g transform="matrix(0.707107,-0.707107,-0.707107,-0.707107,274.2,-0.209654)">
				<path class="st4" d="M273-316.3c-2.7,0-4.9,2.2-4.9,4.9s2.2,4.9,4.9,4.9c2.7,0,4.9-2.2,4.9-4.9S275.7-316.3,273-316.3"/>
			</g>
			<g transform="matrix(0.707107,-0.707107,-0.707107,-0.707107,282.244,7.8346)">
				<path class="st4" d="M273-336c-2.7,0-4.9,2.2-4.9,4.9s2.2,4.9,4.9,4.9s4.9-2.2,4.9-4.9S275.7-336,273-336"/>
			</g>
			<g transform="matrix(0.707107,-0.707107,-0.707107,-0.707107,290.289,15.8782)">
				<path class="st4" d="M273-355.8c-2.7,0-4.9,2.2-4.9,4.9c0,2.7,2.2,4.9,4.9,4.9c2.7,0,4.9-2.2,4.9-4.9
					C277.9-353.6,275.7-355.8,273-355.8"/>
			</g>
			<g transform="matrix(0.707107,-0.707107,-0.707107,-0.707107,298.333,23.9226)">
				<path class="st4" d="M273-375.5c-2.7,0-4.9,2.2-4.9,4.9s2.2,4.9,4.9,4.9c2.7,0,4.9-2.2,4.9-4.9S275.7-375.5,273-375.5"/>
			</g>
			<g transform="matrix(0.707107,-0.707107,-0.707107,-0.707107,306.377,31.9669)">
				<path class="st4" d="M273-395.2c-2.7,0-4.9,2.2-4.9,4.9c0,2.7,2.2,4.9,4.9,4.9c2.7,0,4.9-2.2,4.9-4.9S275.7-395.2,273-395.2"/>
			</g>
			<g transform="matrix(0.707107,-0.707107,-0.707107,-0.707107,314.421,40.0114)">
				<path class="st4" d="M273-415c-2.7,0-4.9,2.2-4.9,4.9s2.2,4.9,4.9,4.9s4.9-2.2,4.9-4.9S275.7-415,273-415"/>
			</g>
			<g transform="matrix(0.707107,-0.707107,-0.707107,-0.707107,322.466,48.0549)">
				<path class="st4" d="M273-434.7c-2.7,0-4.9,2.2-4.9,4.9c0,2.7,2.2,4.9,4.9,4.9c2.7,0,4.9-2.2,4.9-4.9S275.7-434.7,273-434.7"/>
			</g>
			<g transform="matrix(0.707107,-0.707107,-0.707107,-0.707107,268.569,5.42115)">
				<path class="st4" d="M259.2-316.3c-2.7,0-4.9,2.2-4.9,4.9s2.2,4.9,4.9,4.9c2.7,0,4.9-2.2,4.9-4.9S261.9-316.3,259.2-316.3"/>
			</g>
			<g transform="matrix(0.707107,-0.707107,-0.707107,-0.707107,276.614,13.4659)">
				<path class="st4" d="M259.2-336c-2.7,0-4.9,2.2-4.9,4.9c0,2.7,2.2,4.9,4.9,4.9s4.9-2.2,4.9-4.9S261.9-336,259.2-336"/>
			</g>
			<g transform="matrix(0.707247,-0.706967,-0.706967,-0.707247,284.657,21.5103)">
				<path class="st4" d="M259.3-355.7c-2.7,0-4.9,2.2-4.9,4.9c0,2.7,2.2,4.9,4.9,4.9c2.7,0,4.9-2.2,4.9-4.9
					C264.2-353.5,262-355.7,259.3-355.7"/>
			</g>
			<g transform="matrix(0.707107,-0.707107,-0.707107,-0.707107,292.702,29.5539)">
				<path class="st4" d="M259.2-375.5c-2.7,0-4.9,2.2-4.9,4.9c0,2.7,2.2,4.9,4.9,4.9c2.7,0,4.9-2.2,4.9-4.9S261.9-375.5,259.2-375.5
					"/>
			</g>
			<g transform="matrix(0.707107,-0.707107,-0.707107,-0.707107,300.746,37.5979)">
				<path class="st4" d="M259.2-395.2c-2.7,0-4.9,2.2-4.9,4.9c0,2.7,2.2,4.9,4.9,4.9c2.7,0,4.9-2.2,4.9-4.9S261.9-395.2,259.2-395.2
					"/>
			</g>
			<g transform="matrix(0.707107,-0.707107,-0.707107,-0.707107,308.79,45.6422)">
				<path class="st4" d="M259.2-415c-2.7,0-4.9,2.2-4.9,4.9c0,2.7,2.2,4.9,4.9,4.9c2.7,0,4.9-2.2,4.9-4.9S261.9-415,259.2-415"/>
			</g>
			<g transform="matrix(0.707247,-0.706967,-0.706967,-0.707247,316.834,53.6871)">
				<path class="st4" d="M259.3-434.7c-2.7,0-4.9,2.2-4.9,4.9c0,2.7,2.2,4.9,4.9,4.9s4.9-2.2,4.9-4.9S262-434.7,259.3-434.7"/>
			</g>
		</g>
		<g transform="matrix(1,0,0,1,153.266,210.819)">
			<path class="st4" d="M231.3,183.8c-15,15-31.5,14-44.8,13.1c-11.8-0.7-21.2-1.3-30.1,7.6c-8.9,8.9-8.3,18.2-7.6,30.1
				c0.8,13.3,1.9,29.8-13.2,44.8c-15,15-31.5,14-44.8,13.1c-11.8-0.7-21.2-1.3-30.1,7.6s-8.3,18.2-7.6,30.1c1,13.3,2,29.8-13,44.8
				S8.6,389-4.7,388.1c-11.8-0.7-21.2-1.3-30.1,7.6c-3.7,3.7-9.8,3.7-13.5,0s-3.7-9.8,0-13.5c15-15,31.5-14,44.8-13.1
				c11.8,0.7,21.2,1.3,30.1-7.6s8.3-18.2,7.6-30.1c-0.8-13.3-1.9-29.8,13.1-44.8s31.5-14,44.8-13.1c11.8,0.7,21.2,1.3,30.1-7.6
				s8.3-18.2,7.6-30.1c-0.8-13.3-1.9-29.8,13.1-44.8s31.5-14,44.8-13.2c11.8,0.7,21.2,1.3,30.1-7.6c3.7-3.7,9.8-3.7,13.5,0
				C235,174,235,180.1,231.3,183.8"/>
		</g>
		<g transform="matrix(1,0,0,1,502.75,224.339)">
			<path class="st4" d="M814.7,218.3c-15,15-31.5,14-44.8,13.2c-11.8-0.7-21.2-1.3-30.1,7.6c-8.9,8.9-8.3,18.2-7.6,30.1
				c0.8,13.3,1.9,29.8-13.2,44.8c-15,15-31.5,14-44.8,13.1c-11.8-0.7-21.2-1.3-30.1,7.6c-8.9,8.9-8.3,18.2-7.6,30.1
				c0.8,13.3,1.9,29.8-13.1,44.8s-31.5,14-44.8,13.1c-11.8-0.7-21.2-1.3-30.1,7.6c-3.7,3.7-9.8,3.7-13.5,0s-3.7-9.8,0-13.5
				c15-15,31.5-14,44.8-13.1c11.8,0.7,21.2,1.3,30.1-7.6c8.9-8.9,8.3-18.2,7.6-30.1c-0.8-13.3-1.9-29.8,13.1-44.8s31.5-14,44.8-13.1
				c11.8,0.7,21.2,1.3,30.1-7.6c8.9-8.9,8.3-18.2,7.6-30.1c-0.8-13.3-1.9-29.8,13.1-44.8s31.5-14,44.8-13.1
				c11.8,0.7,21.2,1.3,30.1-7.6c3.7-3.7,9.8-3.7,13.5,0C818.4,208.5,818.4,214.6,814.7,218.3"/>
		</g>
		<g transform="matrix(1,0,0,1,345.201,180.375)">
			<path class="st8" d="M541.3,184.2L385.1,226l114.3,114.3L541.3,184.2z"/>
		</g>
		<g transform="matrix(1,0,0,1,340.002,164.154)">
			<path class="st9" d="M532.3,156l-156.2,41.9l114.3,114.3L532.3,156z"/>
		</g>
		<g id="DESIGNED-BY-FREEPIK" serif:id="DESIGNED BY FREEPIK">
		</g>
	</g>
</g>
<g id="VisiblePart" class="st10">
	<rect y="-0.6" class="st11" width="372.6" height="528.8"/>
</g>
</svg>
