<?xml version="1.0" encoding="utf-8"?>
<!-- Generator: Adobe Illustrator 24.0.1, SVG Export Plug-In . SVG Version: 6.00 Build 0)  -->
<svg version="1.1" id="Layer_1" xmlns="http://www.w3.org/2000/svg" xmlns:xlink="http://www.w3.org/1999/xlink" x="0px" y="0px"
	 viewBox="0 0 800.4 1114" style="enable-background:new 0 0 800.4 1114;" xml:space="preserve">
<style type="text/css">
	.st0{fill:#0E0E0E;}
	.st1{fill:#FF5733;}
	.st2{fill:#CDC5BE;}
	.st3{fill:#C04956;}
	.st4{fill:#F05666;}
	.st5{display:none;}
	.st6{display:inline;fill:none;stroke:#000FFF;stroke-miterlimit:10;}
</style>
<path class="st0" d="M198.1,195.7l37.6,78.4l56.6-66.1L198.1,195.7z"/>
<path class="st1" d="M436.3,225.2c-2.2-2.8-4.5-6.8-10.3-7.6c-5.8-0.8-9.2,2.1-11.9,4.7c-2.4,2.2-4.3,3.7-7.6,3.2
	c-3.3-0.4-4.7-2.7-6.5-5.1c-2.2-2.8-4.5-6.8-10.3-7.6c-5.8-0.8-9.2,2.1-11.9,4.7c-2.4,2.2-4.3,3.7-7.6,3.2c-3.3-0.4-4.7-2.7-6.5-5.1
	c-2.2-2.8-4.5-6.8-10.3-7.6l-0.6,5c3.3,0.4,4.7,2.7,6.5,5.1c2.2,2.8,4.5,6.8,10.3,7.6s9.2-2.1,11.9-4.7c2.4-2.2,4.3-3.7,7.6-3.2
	s4.7,2.7,6.5,5.1c2.2,2.8,4.5,6.8,10.3,7.6c5.8,0.8,9.2-2.1,11.9-4.7c2.4-2.2,4.3-3.7,7.6-3.2s4.7,2.7,6.5,5.1
	c2.2,2.8,4.5,6.8,10.3,7.6l0.6-5C439.5,229.8,438.1,227.5,436.3,225.2z"/>
<path class="st2" d="M497.2,636.2c-2.8-4.2-6.7-9.8-14.9-10.8s-13,3.3-17.2,6.6c-3.3,2.9-6.2,5.4-11.1,4.8c-5-0.6-7.1-3.8-9.5-7.5
	c-2.8-4.2-6.7-9.8-14.9-10.8c-8.2-1.1-13,3.3-17.3,6.6c-3.3,2.9-6.2,5.4-11.1,4.8c-5-0.6-7.1-3.8-9.5-7.5c-2.8-4.2-6.7-9.8-15-10.8
	l-1,7.4c5,0.6,7.1,3.8,9.5,7.5c2.8,4.1,6.7,9.8,15,10.8c8.2,1.1,13-3.3,17.2-6.6c3.3-2.9,6.2-5.4,11.1-4.8c5,0.6,7.1,3.8,9.5,7.5
	c2.8,4.1,6.7,9.8,15,10.8c8.3,1.1,13-3.3,17.3-6.6c3.3-2.9,6.2-5.4,11.1-4.8c5,0.6,7.1,3.8,9.5,7.5c2.8,4.1,6.7,9.8,14.9,10.8l1-7.4
	C501.8,643,499.6,640.2,497.2,636.2z"/>
<path class="st1" d="M682.9,412.2c-2.8-4.2-6.7-9.8-15-10.8c-8.3-1.1-13,3.3-17.3,6.6c-3.3,2.9-6.2,5.4-11.1,4.8
	c-5-0.6-7.1-3.8-9.5-7.5c-2.8-4.2-6.7-9.8-15-10.8c-8.3-1.1-13,3.3-17.3,6.6c-3.3,2.9-6.2,5.4-11.1,4.8c-5-0.6-7.1-3.8-9.5-7.5
	c-2.8-4.2-6.7-9.8-15-10.8l-1,7.4c5,0.6,7.1,3.8,9.5,7.5c2.8,4.2,6.7,9.8,15,10.8c8.3,1.1,13-3.3,17.3-6.6c3.3-2.9,6.2-5.4,11.1-4.8
	c5,0.6,7.1,3.8,9.5,7.5c2.8,4.2,6.7,9.8,15,10.8c8.3,1.1,13-3.3,17.3-6.6c3.3-2.9,6.2-5.4,11.1-4.8c5,0.6,7.1,3.8,9.5,7.5
	c2.8,4.2,6.7,9.8,15,10.8l1-7.4C687.6,419,685.5,415.8,682.9,412.2z"/>
<path class="st1" d="M171.8,166.1l31.1,64.6l46.7-54.4L171.8,166.1z M201.9,237.4L165.5,162l90.5,11.9L201.9,237.4z"/>
<path class="st2" d="M375.6,480.3l46.6,97.3l70-82L375.6,480.3L375.6,480.3z M421.3,587.1l-54.6-113l135.9,17.8L421.3,587.1z"/>
<g>
	<path class="st0" d="M64.6,470.7l185.9,24.3l3.5-4.6L62.4,465.4L64.6,470.7z"/>
	<path class="st0" d="M100.2,551.8l94.6,12.4l3.5-4.6L98,546.5L100.2,551.8z"/>
	<path class="st0" d="M60.1,460.4l197.1,25.8l3.5-4.6L57.9,455.1L60.1,460.4z"/>
	<path class="st0" d="M104.8,562.1l83.1,10.9l3.5-4.6l-88.8-11.6L104.8,562.1z"/>
	<path class="st0" d="M113.8,582.6l60.3,7.9l3.5-4.6l-66.5-8.7L113.8,582.6z"/>
	<path class="st0" d="M95.7,541.5l106.2,13.9l3.5-4.6L93.5,536.2L95.7,541.5z"/>
	<path class="st0" d="M109.3,572.4l71.9,9.4l3.5-4.6L106.6,567L109.3,572.4z"/>
	<path class="st0" d="M53.2,445.2l2.2,5.3l208.6,27.3l3.5-4.6L53.2,445.2z"/>
	<path class="st0" d="M77.9,501l151.6,19.8l3.5-4.6L75.7,495.7L77.9,501z"/>
	<path class="st0" d="M73.3,491.1l163.2,21.4l3.5-4.6L71,485.8L73.3,491.1z"/>
	<path class="st0" d="M82.4,511.3l140.1,18.3l3.5-4.6L80.2,505.9L82.4,511.3z"/>
	<path class="st0" d="M91.5,531.8l117.3,15.4l3.5-4.6L88.9,526.4L91.5,531.8z"/>
	<path class="st0" d="M87,521.6l128.9,16.9l3.5-4.6L84.7,516.2L87,521.6z"/>
	<path class="st0" d="M69.1,481l174.3,22.8l3.5-4.6L66.5,475.6L69.1,481z"/>
	<path class="st0" d="M131.7,623.2l14.9,1.9l3.5-4.6l-21.1-2.8L131.7,623.2z"/>
	<path class="st0" d="M118.1,592.4l49.2,6.4l3.5-4.6l-54.9-7.2L118.1,592.4z"/>
	<path class="st0" d="M127.1,612.9l26.5,3.5l3.5-4.6l-32.2-4.2L127.1,612.9z"/>
	<path class="st0" d="M122.6,602.7l37.6,4.9l3.5-4.6l-43.4-5.7L122.6,602.7z"/>
	<path class="st0" d="M137.6,636.2l6-7.2l-9.5-1.2L137.6,636.2z"/>
</g>
<g>
	<path class="st2" d="M377.7,290.6l119.4,15.6l2.5-3l-123.5-16.2L377.7,290.6z"/>
	<path class="st2" d="M400.4,342.8l60.7,7.9l2.5-3l-64.5-8.4L400.4,342.8z"/>
	<path class="st2" d="M374.8,284l126.4,16.6l2.5-3l-130.5-17.1L374.8,284z"/>
	<path class="st2" d="M403.3,349l53.3,7l2.5-3l-57-7.5L403.3,349z"/>
	<path class="st2" d="M409.1,362.4l38.9,5.1l2.5-3l-42.9-5.6L409.1,362.4z"/>
	<path class="st2" d="M397.8,336.1l68.2,8.9l2.5-3l-72.3-9.5L397.8,336.1z"/>
	<path class="st2" d="M406.2,355.7l46.3,6.1l2.5-3l-50.4-6.6L406.2,355.7z"/>
	<path class="st2" d="M370.2,274.1l1.7,3.5l133.9,17.5l2.5-3L370.2,274.1z"/>
	<path class="st2" d="M386.1,310.2l97.5,12.8l2.5-3l-101.1-13.2L386.1,310.2z"/>
	<path class="st2" d="M383.2,303.6l104.5,13.7l2.5-3L382,300.1L383.2,303.6z"/>
	<path class="st2" d="M389.1,316.5l90,11.8l2.5-3L387.4,313L389.1,316.5z"/>
	<path class="st2" d="M394.9,329.9l75.7,9.9l2.5-3l-79.7-10.4L394.9,329.9z"/>
	<path class="st2" d="M391.9,323.2l82.6,10.8l2.5-3l-86.8-11.4L391.9,323.2z"/>
	<path class="st2" d="M380.7,296.9l111.9,14.7l2.5-3l-115.6-15.1L380.7,296.9z"/>
	<path class="st2" d="M420.4,388.3l9.5,1.2l2.5-3l-13.7-1.8L420.4,388.3z"/>
	<path class="st2" d="M412.1,368.7l31.4,4.1l2.5-3l-35.5-4.6L412.1,368.7z"/>
	<path class="st2" d="M418,381.6l17,2.2l2.5-3l-20.6-2.7L418,381.6z"/>
	<path class="st2" d="M415,375.4l24.4,3.2l2.5-3l-28.1-3.7L415,375.4z"/>
	<path class="st2" d="M424.4,396.8l3.5-4.6l-6.1-0.8L424.4,396.8z"/>
</g>
<path class="st3" d="M571.4,288.3l2.7,2.1L740,84.7l-2.7-2.1L571.4,288.3z"/>
<path class="st3" d="M566.8,323.4l1.1,0.9L854.1-29.4l-1.1-0.9L566.8,323.4z"/>
<path class="st3" d="M12.5,923.2l2.7,2.1l166-205.6l-2.7-2.1L12.5,923.2z"/>
<path class="st2" d="M336.7,800l1.9,1.5l105.8-131.1l-1.9-1.5L336.7,800z"/>
<path class="st2" d="M311.5,180.3l1.9,1.6L419.2,50.7l-1.9-1.5L311.5,180.3z"/>
<path class="st3" d="M-83.9,969.9l1.2,1l286.2-353.7l-1.1-0.9L-83.9,969.9z"/>
<path class="st1" d="M208.7,686.2l4.7-3.6c0.9-0.7,1.1-2.4,0.5-3.7c-0.7-0.9-2.4-1.1-3.8-0.5l-4.7,3.6l-3.6-4.7
	c-0.7-0.9-2.4-1.1-3.8-0.5c-0.9,0.7-1.1,2.4-0.5,3.7l3.6,4.7l-4.7,3.6c-0.9,0.7-1.1,2.4-0.5,3.7c0.7,0.9,2.4,1.1,3.8,0.5l4.7-3.6
	l3.6,4.7c0.7,0.9,2.4,1.1,3.8,0.5c0.9-0.7,1.1-2.4,0.5-3.7L208.7,686.2z"/>
<path class="st1" d="M539,432.4l5.6-4.3c1.5-1.1,1.7-3.1,0.6-4.6c-1-1.3-3.1-1.6-4.6-0.6l-5.6,4.3l-4.3-5.6c-1-1.3-3.1-1.6-4.6-0.6
	c-1.4,1.1-1.6,3.1-0.6,4.6l4.3,5.6l-5.6,4.3c-1.4,1.1-1.6,3.1-0.6,4.6c1,1.4,3.1,1.6,4.6,0.6l5.6-4.3l4.3,5.6c1,1.3,3.1,1.6,4.6,0.6
	c1.5-1.1,1.7-3.1,0.6-4.6L539,432.4z"/>
<path class="st1" d="M497.6,601.7l-13.2-30.8l-20.7,26.3L497.6,601.7z"/>
<path class="st2" d="M255.7,754.1l-13.2-30.8l-20.7,26.3L255.7,754.1z"/>
<path class="st1" d="M125.8,305.2l156.9,367.7l246.7-314.4l-403.7-52.8L125.8,305.2z"/>
<path class="st1" d="M60.8,213.3c-0.6,4.6-4.8,7.7-9.3,7.2c-4.6-0.6-7.7-4.7-7.2-9.3c0.6-4.6,4.8-7.7,9.3-7.2
	C58.5,204.9,61.4,208.7,60.8,213.3z"/>
<path class="st4" d="M594.1,368.2c-0.3,2.1-2.2,3.9-4.7,3.6c-2.1-0.3-3.9-2.2-3.6-4.7c0.3-2.1,2.2-3.9,4.7-3.6
	C593,363.8,594.4,365.7,594.1,368.2z"/>
<g id="VisiblePart" class="st5">
	<rect y="153" class="st6" width="257.4" height="377.6"/>
</g>
</svg>
