<?xml version="1.0" standalone="no"?>
<!DOCTYPE svg PUBLIC "-//W3C//DTD SVG 1.1//EN" "http://www.w3.org/Graphics/SVG/1.1/DTD/svg11.dtd" >
<svg xmlns="http://www.w3.org/2000/svg" xmlns:xlink="http://www.w3.org/1999/xlink" version="1.1">
<metadata>
Created by FontForge 20190801 at Wed Nov 27 11:17:38 2019
 By Jimmy Wärting
Copyright \(c\) 2015 Monotype Imaging Inc.  All rights reserved.
</metadata>
<defs>
<font id="NeueHaasUnica-Heavy" horiz-adv-x="608" >
  <font-face 
    font-family="Neue Haas Unica"
    font-weight="800"
    font-stretch="normal"
    units-per-em="1000"
    panose-1="2 11 9 4 3 2 6 2 2 3"
    ascent="800"
    descent="-200"
    x-height="508"
    cap-height="712"
    bbox="-500 -291 1216 1133"
    underline-thickness="50"
    underline-position="-125"
    stemh="131"
    stemv="166"
    unicode-range="U+0020-FEFF"
  />
<missing-glyph horiz-adv-x="648" 
d="M597 740c25 -25 37 -58 37 -100v-568c0 -84 -53 -137 -137 -137h-346c-84 0 -137 53 -137 137v568c0 84 53 137 137 137h346c42 0 75 -12 100 -37zM547 23c12 12 18 28 18 49v568c0 43 -25 68 -68 68h-346c-41 0 -68 -25 -68 -68v-568c0 -41 27 -68 68 -68h346
c21 0 38 6 50 19zM439 359c-27 -25 -44 -46 -52 -63c-9 -17 -13 -41 -13 -71h-111c-1 9 -1 21 -1 38c0 33 4 58 12 77s25 41 51 68c39 39 47 56 47 85s-18 48 -47 48c-38 0 -57 -26 -57 -78h-135c1 119 71 184 192 184c115 0 184 -57 184 -152c0 -27 -5 -50 -14 -69
c-10 -19 -29 -42 -56 -67zM387 65h-136v119h136v-119z" />
    <glyph glyph-name="f_f.liga" unicode="ff" horiz-adv-x="690" 
d="M681 598c-7 1 -15 2 -24 2c-51 0 -74 -21 -74 -74v-18h94v-121h-94v-387h-164v387h-165v-387h-164v387h-81v121h81v37c0 117 64 176 183 176c29 0 55 -3 79 -9v-114c-7 1 -15 2 -24 2c-51 0 -74 -21 -74 -74v-18h165v37c0 117 64 176 183 176c29 0 55 -3 79 -9v-114z" />
    <glyph glyph-name="f_f_i.liga" unicode="ffi" horiz-adv-x="978" 
d="M90 508v37c0 117 64 176 183 176c29 0 55 -3 79 -9v-114c-7 1 -15 2 -24 2c-51 0 -74 -21 -74 -74v-18h165v37c0 117 64 176 183 176c29 0 55 -3 79 -9v-114c-7 1 -15 2 -24 2c-51 0 -74 -21 -74 -74v-18h94v-121h-94v-387h-164v387h-165v-387h-164v387h-81v121h81z
M751 508h166v-508h-166v508zM917 712v-131h-166v131h166z" />
    <glyph glyph-name="f_f_l.liga" unicode="ffl" horiz-adv-x="978" 
d="M681 598c-7 1 -15 2 -24 2c-51 0 -74 -21 -74 -74v-18h94v-121h-94v-387h-164v387h-165v-387h-164v387h-81v121h81v37c0 117 64 176 183 176c29 0 55 -3 79 -9v-114c-7 1 -15 2 -24 2c-51 0 -74 -21 -74 -74v-18h165v37c0 117 64 176 183 176c29 0 55 -3 79 -9v-114z
M917 712v-712h-166v712h166z" />
    <glyph glyph-name="f_i.liga" unicode="fi" horiz-adv-x="649" 
d="M9 508h81v37c0 117 64 176 183 176c29 0 55 -3 79 -9v-114c-7 1 -15 2 -24 2c-51 0 -74 -21 -74 -74v-18h94v-121h-94v-387h-164v387h-81v121zM588 0h-166v508h166v-508zM422 712h166v-131h-166v131z" />
    <glyph glyph-name="f_l.liga" unicode="fl" horiz-adv-x="649" 
d="M9 508h81v37c0 117 64 176 183 176c29 0 55 -3 79 -9v-114c-7 1 -15 2 -24 2c-51 0 -74 -21 -74 -74v-18h94v-121h-94v-387h-164v387h-81v121zM588 0h-166v712h166v-712z" />
    <glyph glyph-name=".notdef" horiz-adv-x="648" 
d="M597 740c25 -25 37 -58 37 -100v-568c0 -84 -53 -137 -137 -137h-346c-84 0 -137 53 -137 137v568c0 84 53 137 137 137h346c42 0 75 -12 100 -37zM547 23c12 12 18 28 18 49v568c0 43 -25 68 -68 68h-346c-41 0 -68 -25 -68 -68v-568c0 -41 27 -68 68 -68h346
c21 0 38 6 50 19zM439 359c-27 -25 -44 -46 -52 -63c-9 -17 -13 -41 -13 -71h-111c-1 9 -1 21 -1 38c0 33 4 58 12 77s25 41 51 68c39 39 47 56 47 85s-18 48 -47 48c-38 0 -57 -26 -57 -78h-135c1 119 71 184 192 184c115 0 184 -57 184 -152c0 -27 -5 -50 -14 -69
c-10 -19 -29 -42 -56 -67zM387 65h-136v119h136v-119z" />
    <glyph glyph-name="NULL" horiz-adv-x="0" 
 />
    <glyph glyph-name="NULL" horiz-adv-x="0" 
 />
    <glyph glyph-name="nonmarkingreturn" horiz-adv-x="333" 
 />
    <glyph glyph-name="space" unicode=" " horiz-adv-x="230" 
 />
    <glyph glyph-name="glyph1" horiz-adv-x="600" 
 />
    <glyph glyph-name="exclam" unicode="!" horiz-adv-x="346" 
d="M270 712l-30 -502h-134l-31 502h195zM261 147v-147h-176v147h176z" />
    <glyph glyph-name="quotedbl" unicode="&#x22;" horiz-adv-x="463" 
d="M254 712h158l-19 -280h-121zM210 712l-19 -280h-121l-18 280h158z" />
    <glyph glyph-name="numbersign" unicode="#" horiz-adv-x="695" 
d="M642 397h-97l-19 -119h97l-18 -115h-97l-26 -163h-135l26 163h-106l-26 -163h-135l26 163h-97l18 115h97l19 119h-97l18 115h97l26 162h135l-26 -162h106l26 162h135l-26 -162h97zM391 278l19 119h-106l-19 -119h106z" />
    <glyph glyph-name="dollar" unicode="$" horiz-adv-x="628" 
d="M572 467h-163c0 67 -34 101 -101 101c-60 0 -96 -26 -96 -70c0 -33 19 -52 54 -64c17 -6 44 -13 80 -22c52 -13 95 -27 128 -40c33 -14 60 -35 83 -63c22 -29 33 -67 33 -114c0 -115 -82 -191 -219 -207v-87h-118v86c-139 19 -216 99 -216 232h167
c0 -73 38 -109 113 -109c72 0 107 28 107 76c0 32 -22 52 -58 65c-18 7 -45 15 -82 25c-49 14 -90 28 -122 42c-32 13 -59 34 -81 61s-33 62 -33 105c0 109 77 185 205 202v78h118v-78c129 -16 201 -91 201 -219z" />
    <glyph glyph-name="percent" unicode="%" horiz-adv-x="933" 
d="M843 34c-31 -35 -74 -53 -129 -53c-111 0 -173 73 -173 204s62 204 173 204s174 -73 174 -204c0 -65 -15 -116 -45 -151zM90 640c30 35 73 53 128 53c111 0 174 -73 174 -204s-63 -204 -174 -204s-173 73 -173 204c0 65 15 116 45 151zM602 704h100l-371 -734h-100z
M714 71c35 0 53 38 53 114c0 77 -18 115 -53 115s-53 -38 -53 -115c0 -76 18 -114 53 -114zM165 489c0 -77 18 -115 53 -115s53 38 53 115c0 76 -18 114 -53 114s-53 -38 -53 -114z" />
    <glyph glyph-name="ampersand" unicode="&#x26;" horiz-adv-x="772" 
d="M569 0l-51 51c-52 -43 -126 -67 -209 -67c-172 0 -269 81 -269 210c0 89 48 157 143 203c-55 55 -73 95 -73 155c0 105 86 176 213 176c65 0 116 -15 155 -45c38 -31 57 -71 57 -122c0 -76 -39 -136 -126 -188l110 -110c16 31 24 74 24 129h160c-1 -94 -26 -174 -75 -239
l153 -153h-212zM211 202c0 -53 43 -90 112 -90c39 0 73 11 102 33l-152 153c-44 -28 -62 -56 -62 -96zM264 547c0 -31 12 -53 53 -94c43 31 65 64 65 97s-24 57 -59 57c-36 0 -59 -23 -59 -60z" />
    <glyph glyph-name="quotesingle" unicode="'" horiz-adv-x="262" 
d="M52 712h158l-19 -280h-121z" />
    <glyph glyph-name="parenleft" unicode="(" horiz-adv-x="349" 
d="M41 297c0 167 44 303 144 444h134c-37 -77 -63 -151 -79 -221c-17 -71 -25 -145 -25 -223c0 -77 8 -151 25 -221c16 -71 42 -145 79 -223h-134c-100 143 -144 279 -144 444z" />
    <glyph glyph-name="parenright" unicode=")" horiz-adv-x="349" 
d="M110 76c16 70 24 144 24 221c0 78 -8 152 -24 223c-17 70 -43 144 -80 221h134c100 -141 144 -277 144 -444c0 -165 -44 -301 -144 -444h-134c37 78 63 152 80 223z" />
    <glyph glyph-name="asterisk" unicode="*" horiz-adv-x="448" 
d="M23 522l37 115l126 -64l-23 139h122l-23 -139l126 64l37 -115l-139 -22l99 -99l-97 -71l-64 125l-63 -125l-98 71l99 99z" />
    <glyph glyph-name="plus" unicode="+" horiz-adv-x="566" 
d="M218 381v160h130v-160h159v-129h-159v-159h-130v159h-159v129h159z" />
    <glyph glyph-name="comma" unicode="," horiz-adv-x="274" 
d="M106 0h-57v184h177v-184l-91 -178h-98z" />
    <glyph glyph-name="hyphen" unicode="-" horiz-adv-x="337" 
d="M307 353v-122h-277v122h277z" />
    <glyph glyph-name="period" unicode="." horiz-adv-x="274" 
d="M225 184v-184h-176v184h176z" />
    <glyph glyph-name="slash" unicode="/" horiz-adv-x="503" 
d="M328 745h124l-297 -834h-125z" />
    <glyph glyph-name="zero" unicode="0" horiz-adv-x="623" 
d="M102 76c-49 61 -73 148 -73 261c0 225 101 353 282 353s282 -128 282 -353c0 -227 -101 -353 -282 -353c-91 0 -160 31 -209 92zM204 337c0 -141 38 -221 107 -221s108 80 108 221c0 140 -39 219 -108 219s-107 -78 -107 -219z" />
    <glyph glyph-name="one" unicode="1" horiz-adv-x="623" 
d="M95 557c115 0 168 34 180 117h154v-674h-171v435h-163v122z" />
    <glyph glyph-name="two" unicode="2" horiz-adv-x="623" 
d="M579 0h-538c-1 6 -1 16 -1 31c2 144 41 218 194 305c76 43 111 65 135 97c11 16 17 34 17 55c0 43 -28 69 -76 69c-59 0 -90 -35 -90 -100h-171c1 149 98 233 261 233c153 0 252 -81 252 -200c-3 -118 -62 -168 -175 -227c-121 -62 -141 -86 -145 -126h337v-137z" />
    <glyph glyph-name="three" unicode="3" horiz-adv-x="623" 
d="M574 186c0 -123 -104 -202 -262 -202c-179 0 -277 84 -277 240h173c0 -71 35 -107 104 -107c55 0 90 30 90 75c0 55 -40 82 -121 82h-20v128h22c69 0 112 32 112 80c0 47 -35 75 -88 75c-60 0 -94 -34 -94 -101h-169c0 147 98 234 266 234c78 0 140 -17 186 -51
c45 -35 68 -81 68 -140c0 -75 -36 -120 -117 -149v-2c88 -29 127 -78 127 -162z" />
    <glyph glyph-name="four" unicode="4" horiz-adv-x="623" 
d="M500 674v-405h104v-129h-104v-140h-168v140h-320v136l265 398h223zM338 269v75c0 75 2 145 7 210h-2c-34 -61 -73 -125 -117 -191l-64 -94h176z" />
    <glyph glyph-name="five" unicode="5" horiz-adv-x="623" 
d="M577 228c0 -148 -110 -244 -273 -244c-79 0 -141 19 -188 56s-70 87 -70 151h172c1 -48 39 -77 88 -77c63 0 97 37 97 106c0 68 -36 104 -95 104c-47 0 -78 -25 -87 -65l-167 11l38 404h447v-137h-310l-14 -136h2c35 33 80 50 134 50c133 0 226 -91 226 -223z" />
    <glyph glyph-name="six" unicode="6" horiz-adv-x="623" 
d="M582 222c0 -141 -107 -238 -263 -238c-176 0 -275 116 -275 336c0 235 108 370 289 370c141 0 232 -77 241 -205h-172c-7 49 -33 76 -78 76c-68 0 -113 -59 -117 -186h2c39 43 90 65 153 65c131 0 220 -89 220 -218zM230 214c0 -59 36 -99 89 -99c55 0 91 41 91 101
c0 63 -35 103 -90 103c-53 0 -90 -42 -90 -105z" />
    <glyph glyph-name="seven" unicode="7" horiz-adv-x="623" 
d="M43 674h525v-139c-50 -70 -94 -152 -131 -245s-65 -190 -83 -290h-184c23 107 55 208 97 302s87 171 135 230h-359v142z" />
    <glyph glyph-name="eight" unicode="8" horiz-adv-x="623" 
d="M534 601c21 -29 32 -62 32 -99c0 -73 -47 -131 -123 -151v-2c84 -20 138 -83 138 -166c0 -62 -24 -111 -72 -146c-49 -35 -115 -53 -198 -53s-148 18 -196 53c-49 35 -73 84 -73 146c0 83 54 146 138 166v2c-76 20 -123 78 -123 151c0 112 104 188 254 188
c100 0 180 -33 223 -89zM240 138c17 -15 41 -23 71 -23c61 0 99 32 99 83s-38 84 -99 84c-60 0 -98 -33 -98 -84c0 -25 9 -45 27 -60zM244 429c16 -14 38 -21 67 -21c57 0 93 30 93 78c0 45 -36 75 -93 75c-56 0 -92 -30 -92 -75c0 -24 8 -43 25 -57z" />
    <glyph glyph-name="nine" unicode="9" horiz-adv-x="623" 
d="M535 154c-47 -111 -135 -170 -255 -170c-141 0 -233 77 -241 206h172c5 -49 33 -76 78 -76c68 0 112 58 116 185h-2c-38 -43 -89 -65 -152 -65c-130 0 -221 90 -221 218c0 141 109 238 264 238c176 0 275 -116 275 -336c0 -78 -11 -145 -34 -200zM203 459
c0 -63 35 -104 90 -104c53 0 89 42 89 105c0 60 -34 99 -89 99s-90 -40 -90 -100z" />
    <glyph glyph-name="colon" unicode=":" horiz-adv-x="274" 
d="M49 324v184h176v-184h-176zM49 0v184h176v-184h-176z" />
    <glyph glyph-name="semicolon" unicode=";" horiz-adv-x="274" 
d="M37 -178l69 178h-57v184h177v-184l-91 -178h-98zM225 508v-184h-176v184h176z" />
    <glyph glyph-name="less" unicode="&#x3c;" horiz-adv-x="566" 
d="M507 569v-138l-295 -113v-2l295 -113v-138l-448 176v152z" />
    <glyph glyph-name="equal" unicode="=" horiz-adv-x="566" 
d="M59 153v124h448v-124h-448zM59 356v124h448v-124h-448z" />
    <glyph glyph-name="greater" unicode="&#x3e;" horiz-adv-x="566" 
d="M507 393v-152l-448 -176v138l295 113v2l-295 113v138z" />
    <glyph glyph-name="question" unicode="?" horiz-adv-x="570" 
d="M515 451c-14 -24 -40 -52 -79 -84c-74 -66 -87 -87 -89 -169h-140c-1 10 -2 25 -2 44c2 90 13 115 91 187c27 25 45 44 53 58c8 13 12 29 12 48c0 39 -27 62 -74 62c-57 0 -86 -33 -87 -98h-172c1 148 95 228 259 228c155 0 248 -70 248 -189c0 -34 -7 -63 -20 -87z
M188 0v147h176v-147h-176z" />
    <glyph glyph-name="at" unicode="@" horiz-adv-x="870" 
d="M501 148h-2c-29 -54 -72 -81 -129 -81c-95 0 -152 70 -153 198c2 151 83 253 196 253c49 0 83 -21 102 -64h2c3 12 6 31 11 54h123c-11 -55 -21 -110 -29 -164c-8 -55 -12 -95 -12 -121c0 -39 13 -55 41 -55c53 0 94 56 94 161c0 173 -117 287 -298 287
c-204 3 -325 -147 -323 -338c0 -192 122 -307 308 -307c87 0 159 17 217 52l42 -82c-72 -41 -158 -62 -259 -62c-245 0 -401 152 -401 399c-3 234 164 434 416 430c233 3 393 -154 391 -379c0 -174 -95 -262 -209 -262c-69 0 -115 28 -128 81zM367 205c10 -15 24 -23 43 -23
c47 0 82 52 82 140c0 52 -20 82 -57 82c-48 0 -84 -50 -84 -134c0 -28 5 -50 16 -65z" />
    <glyph glyph-name="A" unicode="A" horiz-adv-x="715" 
d="M244 712h227l243 -712h-182l-45 151h-258l-46 -151h-182zM272 293h173l-15 48c-29 95 -53 181 -72 259h-2c-20 -83 -43 -169 -70 -259z" />
    <glyph glyph-name="B" unicode="B" horiz-adv-x="664" 
d="M584 428c-20 -27 -51 -47 -92 -62v-2c93 -21 139 -76 139 -166c0 -61 -23 -109 -69 -144c-46 -36 -110 -54 -191 -54h-295v712h278c172 0 259 -70 259 -183c0 -41 -10 -75 -29 -101zM246 297v-162h94c80 0 113 24 113 79c0 57 -33 83 -116 83h-91zM336 424
c76 0 110 25 110 78s-32 76 -104 76h-96v-154h90z" />
    <glyph glyph-name="C" unicode="C" horiz-adv-x="715" 
d="M677 456h-179c-8 77 -56 122 -131 122c-95 0 -152 -85 -152 -222s58 -222 150 -222c75 0 125 46 134 126h181c-7 -88 -38 -156 -94 -204s-130 -72 -221 -72c-204 0 -331 142 -331 372s129 372 333 372c183 0 304 -107 310 -272z" />
    <glyph glyph-name="D" unicode="D" horiz-adv-x="742" 
d="M76 712h252c244 0 380 -128 380 -356s-136 -356 -380 -356h-252v712zM248 565v-418h76c135 0 204 70 204 209s-69 209 -204 209h-76z" />
    <glyph glyph-name="E" unicode="E" horiz-adv-x="634" 
d="M76 712h503v-145h-330v-135h308v-143h-308v-144h338v-145h-511v712z" />
    <glyph glyph-name="F" unicode="F" horiz-adv-x="591" 
d="M566 712v-148h-317v-164h294v-147h-294v-253h-173v712h490z" />
    <glyph glyph-name="G" unicode="G" horiz-adv-x="751" 
d="M683 0h-148v72h-2c-41 -56 -110 -86 -198 -86c-185 0 -301 139 -301 367c0 233 133 375 345 375c177 0 295 -95 307 -243h-186c-11 63 -53 98 -121 98c-101 0 -164 -87 -164 -230c0 -145 62 -235 163 -235c89 0 140 53 143 148h-153v134h315v-400z" />
    <glyph glyph-name="H" unicode="H" horiz-adv-x="761" 
d="M249 712v-270h263v270h173v-712h-173v295h-263v-295h-173v712h173z" />
    <glyph glyph-name="I" unicode="I" horiz-adv-x="325" 
d="M249 712v-712h-173v712h173z" />
    <glyph glyph-name="J" unicode="J" horiz-adv-x="410" 
d="M60 140c76 0 106 29 106 139v433h173v-471c0 -171 -77 -249 -246 -249c-31 0 -57 3 -78 9v144c15 -3 30 -5 45 -5z" />
    <glyph glyph-name="K" unicode="K" horiz-adv-x="690" 
d="M76 0v712h173v-307h2l209 307h207l-259 -337l278 -375h-218l-217 328h-2v-328h-173z" />
    <glyph glyph-name="L" unicode="L" horiz-adv-x="580" 
d="M76 712h173v-565h322v-147h-495v712z" />
    <glyph glyph-name="M" unicode="M" horiz-adv-x="1013" 
d="M937 0h-163v348c0 89 2 176 6 263h-2c-16 -69 -39 -155 -68 -259l-101 -352h-205l-101 352c-29 104 -52 190 -68 259h-2c4 -87 6 -174 6 -263v-348h-163v712h277l91 -316c25 -89 45 -177 62 -262h2c15 82 36 169 61 262l92 316h276v-712z" />
    <glyph glyph-name="N" unicode="N" horiz-adv-x="801" 
d="M76 0v712h249l125 -281c44 -102 83 -197 116 -285h2c-5 89 -8 189 -8 300v266h166v-712h-250l-124 281c-44 99 -83 194 -116 285h-2c5 -107 8 -207 8 -300v-266h-166z" />
    <glyph glyph-name="O" unicode="O" horiz-adv-x="757" 
d="M723 356c0 -229 -134 -372 -344 -372c-212 0 -345 143 -345 372s133 372 345 372c210 0 344 -143 344 -372zM215 356c0 -140 60 -222 164 -222c103 0 163 82 163 222s-60 222 -163 222c-104 0 -164 -82 -164 -222z" />
    <glyph glyph-name="P" unicode="P" horiz-adv-x="654" 
d="M361 712c177 0 271 -89 271 -237c0 -147 -94 -236 -271 -236h-112v-239h-173v712h285zM337 378c79 0 118 32 118 97s-39 98 -118 98h-88v-195h88z" />
    <glyph glyph-name="Q" unicode="Q" horiz-adv-x="757" 
d="M701 207c-15 -45 -36 -83 -64 -116l78 -88l-89 -82l-87 97c-47 -23 -101 -34 -161 -34c-210 0 -344 143 -344 372s134 372 344 372c212 0 345 -143 345 -372c0 -55 -7 -104 -22 -149zM260 184c29 -41 70 -61 123 -61c20 0 38 3 54 9l-91 101l91 82l88 -99
c17 37 25 82 25 135c0 143 -62 227 -167 227s-168 -84 -168 -227c0 -71 15 -127 45 -167z" />
    <glyph glyph-name="R" unicode="R" horiz-adv-x="685" 
d="M674 0h-186l-54 161c-25 75 -53 99 -120 99h-65v-260h-173v712h289c175 0 262 -68 262 -203c0 -87 -50 -150 -131 -174v-2c25 -9 46 -23 61 -43c15 -21 31 -54 48 -100zM249 578v-187h95c75 0 112 32 112 96c0 61 -40 91 -119 91h-88z" />
    <glyph glyph-name="S" unicode="S" horiz-adv-x="645" 
d="M613 212c0 -138 -115 -228 -291 -228c-187 0 -298 91 -298 248h184c0 -73 39 -110 118 -110c65 0 105 28 105 75c0 35 -18 53 -53 66c-17 6 -45 14 -83 24c-58 15 -104 29 -139 44s-63 36 -86 65s-34 67 -34 115c0 130 109 217 279 217c180 0 279 -81 279 -233h-180
c0 64 -38 99 -106 99c-57 0 -94 -27 -94 -67c4 -47 29 -59 142 -88c57 -14 103 -28 138 -43s63 -38 86 -67c22 -29 33 -68 33 -117z" />
    <glyph glyph-name="T" unicode="T" horiz-adv-x="627" 
d="M9 712h609v-147h-218v-565h-173v565h-218v147z" />
    <glyph glyph-name="U" unicode="U" horiz-adv-x="725" 
d="M243 712v-432c0 -93 42 -144 119 -144c79 0 120 51 120 144v432h173v-436c0 -188 -105 -292 -293 -292c-187 0 -292 104 -292 292v436h173z" />
    <glyph glyph-name="V" unicode="V" horiz-adv-x="663" 
d="M4 712h181l77 -275c27 -92 50 -185 68 -280h2c16 83 39 177 68 280l78 275h180l-214 -712h-226z" />
    <glyph glyph-name="W" unicode="W" horiz-adv-x="991" 
d="M839 0h-230l-60 285c-22 98 -40 193 -53 286h-2c-13 -87 -30 -182 -52 -286l-60 -285h-230l-144 712h168l48 -257c19 -105 35 -205 46 -298h2c17 101 36 201 57 298l56 257h221l56 -257c23 -102 41 -201 56 -298h2c13 99 28 198 47 298l47 257h169z" />
    <glyph glyph-name="X" unicode="X" horiz-adv-x="669" 
d="M223 365l-209 347h199l121 -238h2l120 238h199l-209 -347l222 -365h-204l-128 246h-2l-129 -246h-203z" />
    <glyph glyph-name="Y" unicode="Y" horiz-adv-x="663" 
d="M1 712h192l62 -129c29 -59 54 -119 76 -179h2c20 57 45 117 75 179l62 129h192l-244 -443v-269h-173v269z" />
    <glyph glyph-name="Z" unicode="Z" horiz-adv-x="593" 
d="M20 150l329 416v2h-314v144h521v-150l-329 -416v-2h345v-144h-552v150z" />
    <glyph glyph-name="bracketleft" unicode="[" horiz-adv-x="358" 
d="M65 741h273v-105h-117v-683h117v-104h-273v892z" />
    <glyph glyph-name="backslash" unicode="\" horiz-adv-x="503" 
d="M51 745h125l297 -834h-124z" />
    <glyph glyph-name="bracketright" unicode="]" horiz-adv-x="358" 
d="M20 636v105h273v-892h-273v104h117v683h-117z" />
    <glyph glyph-name="asciicircum" unicode="^" horiz-adv-x="520" 
d="M173 712h174l166 -341h-152l-100 211h-2l-100 -211h-152z" />
    <glyph glyph-name="underscore" unicode="_" horiz-adv-x="500" 
d="M500 -50v-91h-500v91h500z" />
    <glyph glyph-name="grave" unicode="`" horiz-adv-x="369" 
d="M241 712l78 -148h-128l-141 148h191z" />
    <glyph glyph-name="a" unicode="a" horiz-adv-x="561" 
d="M506 143c0 -60 5 -108 15 -143h-150c-5 19 -7 41 -7 66h-2c-39 -53 -94 -79 -165 -79c-54 0 -97 15 -128 44s-47 67 -47 112c0 89 57 141 202 164c42 7 83 11 122 14v18c0 55 -27 80 -71 80c-45 0 -71 -26 -72 -71h-160c5 103 83 176 232 176c155 0 231 -71 231 -206
v-175zM203 113c11 -11 27 -16 48 -16c27 0 53 9 70 26c20 21 25 44 25 89v18c-32 -1 -62 -5 -90 -10c-49 -9 -70 -29 -70 -65c0 -18 6 -32 17 -42z" />
    <glyph glyph-name="b" unicode="b" horiz-adv-x="610" 
d="M580 254c0 -162 -85 -268 -216 -268c-57 0 -110 28 -141 77h-2v-63h-160v712h166v-259h2c31 44 83 69 139 69c129 0 212 -106 212 -268zM218 254c0 -88 37 -142 93 -142c57 0 95 55 95 142s-38 142 -95 142c-56 0 -93 -54 -93 -142z" />
    <glyph glyph-name="c" unicode="c" horiz-adv-x="575" 
d="M549 314h-172c-5 53 -36 85 -81 85c-57 0 -92 -53 -92 -144c0 -92 34 -145 93 -145c45 0 76 35 79 94h173c-5 -67 -31 -121 -76 -160c-46 -40 -105 -60 -177 -60c-162 0 -266 107 -266 271c0 163 104 269 265 269c142 0 244 -86 254 -210z" />
    <glyph glyph-name="d" unicode="d" horiz-adv-x="610" 
d="M549 0h-160v63h-2c-31 -49 -84 -77 -141 -77c-131 0 -216 106 -216 268s83 268 212 268c56 0 108 -25 139 -69h2v259h166v-712zM204 254c0 -87 38 -142 95 -142c56 0 93 54 93 142s-37 142 -93 142c-57 0 -95 -55 -95 -142z" />
    <glyph glyph-name="e" unicode="e" horiz-adv-x="584" 
d="M554 220h-361c4 -89 43 -125 99 -125c47 0 80 25 85 61h169c-22 -97 -118 -172 -252 -172c-167 0 -264 114 -264 274c0 153 98 266 262 266c119 0 206 -62 242 -163c15 -39 20 -80 20 -141zM387 314c-7 68 -44 101 -95 101c-52 0 -87 -32 -96 -101h191z" />
    <glyph glyph-name="f" unicode="f" horiz-adv-x="361" 
d="M352 598c-7 1 -15 2 -24 2c-51 0 -74 -21 -74 -74v-18h94v-121h-94v-387h-164v387h-81v121h81v37c0 117 64 176 183 176c29 0 55 -3 79 -9v-114z" />
    <glyph glyph-name="g" unicode="g" horiz-adv-x="602" 
d="M541 33c0 -153 -92 -228 -255 -228c-141 0 -223 60 -234 163h161c3 -35 31 -56 76 -56c59 0 91 34 91 121v47h-2c-35 -49 -82 -74 -141 -74c-126 0 -207 101 -207 258s84 258 210 258c60 0 108 -27 144 -82h2v68h155v-475zM202 264c0 -77 35 -127 90 -127
c57 0 93 50 93 127c0 79 -36 128 -93 128c-55 0 -90 -49 -90 -128z" />
    <glyph glyph-name="h" unicode="h" 
d="M227 457h2c33 41 81 64 137 64c116 0 186 -73 186 -209v-312h-166v294c0 65 -26 98 -74 98c-53 0 -85 -44 -85 -129v-263h-166v712h166v-255z" />
    <glyph glyph-name="i" unicode="i" horiz-adv-x="288" 
d="M61 0v508h166v-508h-166zM61 581v131h166v-131h-166z" />
    <glyph glyph-name="j" unicode="j" horiz-adv-x="289" 
d="M-13 -68c52 0 75 24 75 97v479h166v-507c0 -131 -72 -191 -187 -191c-31 0 -58 3 -80 9v116c8 -2 17 -3 26 -3zM228 712v-131h-166v131h166z" />
    <glyph glyph-name="k" unicode="k" horiz-adv-x="566" 
d="M61 0v712h166v-404h2l136 200h192l-181 -237l200 -271h-204l-143 230h-2v-230h-166z" />
    <glyph glyph-name="l" unicode="l" horiz-adv-x="288" 
d="M227 712v-712h-166v712h166z" />
    <glyph glyph-name="m" unicode="m" horiz-adv-x="908" 
d="M852 0h-166v294c0 65 -24 98 -67 98c-52 0 -79 -46 -79 -134v-258h-166v301c0 59 -24 91 -67 91c-52 0 -80 -46 -80 -134v-258h-166v508h155v-58h2c35 47 83 71 143 71c69 0 122 -29 150 -88c39 57 90 88 163 88c111 0 178 -73 178 -209v-312z" />
    <glyph glyph-name="n" unicode="n" 
d="M218 447c35 47 85 74 148 74c116 0 186 -73 186 -209v-312h-166v294c0 65 -26 98 -74 98c-53 0 -85 -44 -85 -129v-263h-166v508h155v-61h2z" />
    <glyph glyph-name="o" unicode="o" horiz-adv-x="604" 
d="M574 254c0 -165 -107 -270 -272 -270s-272 105 -272 270s107 270 272 270s272 -105 272 -270zM205 254c0 -89 36 -144 97 -144s97 55 97 144s-36 144 -97 144s-97 -55 -97 -144z" />
    <glyph glyph-name="p" unicode="p" horiz-adv-x="610" 
d="M554 113c-35 -81 -101 -127 -186 -127c-56 0 -108 25 -139 69h-2v-240h-166v693h160v-63h2c31 49 84 77 141 77c131 0 216 -106 216 -268c0 -54 -9 -101 -26 -141zM244 150c17 -25 39 -38 67 -38c57 0 95 55 95 142s-38 142 -95 142c-56 0 -93 -54 -93 -142
c0 -44 9 -79 26 -104z" />
    <glyph glyph-name="q" unicode="q" horiz-adv-x="610" 
d="M549 -185h-166v240h-2c-31 -44 -83 -69 -139 -69c-129 0 -212 106 -212 268s85 268 216 268c57 0 110 -28 141 -77h2v63h160v-693zM230 151c17 -26 40 -39 69 -39c56 0 93 54 93 142s-37 142 -93 142c-57 0 -95 -55 -95 -142c0 -43 9 -78 26 -103z" />
    <glyph glyph-name="r" unicode="r" horiz-adv-x="415" 
d="M61 508h154v-70h2c35 53 80 78 143 78c17 0 33 -2 48 -6v-142c-19 3 -36 5 -51 5c-84 0 -130 -53 -130 -150v-223h-166v508z" />
    <glyph glyph-name="s" unicode="s" horiz-adv-x="542" 
d="M510 147c0 -99 -89 -163 -236 -163c-157 0 -243 60 -243 181h167c0 -48 26 -72 78 -72c41 0 64 17 64 42c-5 38 -22 43 -117 69c-79 20 -122 34 -155 76c-17 21 -25 49 -25 85c0 95 83 159 224 159c143 0 225 -58 225 -170h-158c0 43 -23 65 -68 65
c-37 0 -59 -15 -59 -40c3 -31 19 -38 104 -60c85 -23 134 -39 171 -83c19 -23 28 -52 28 -89z" />
    <glyph glyph-name="t" unicode="t" horiz-adv-x="378" 
d="M353 3c-23 -7 -59 -11 -84 -11c-128 0 -183 50 -183 169v226h-79v121h79v137h166v-137h96v-121h-96v-188c0 -55 19 -76 64 -76c13 0 26 2 37 5v-125z" />
    <glyph glyph-name="u" unicode="u" 
d="M106 41c-33 35 -50 87 -50 155v312h166v-294c0 -65 26 -98 74 -98c53 0 85 44 85 129v263h166v-508h-155v61h-2c-35 -47 -85 -74 -148 -74c-58 0 -103 18 -136 54z" />
    <glyph glyph-name="v" unicode="v" horiz-adv-x="533" 
d="M-8 508h176l50 -186c19 -75 34 -146 47 -215h2c11 59 27 131 48 215l49 186h177l-164 -508h-221z" />
    <glyph glyph-name="w" unicode="w" horiz-adv-x="848" 
d="M731 0h-227l-41 191c-15 73 -28 144 -38 213h-2c-10 -69 -23 -140 -38 -213l-41 -191h-227l-113 508h162l33 -187c13 -74 24 -146 32 -216h2c12 79 26 152 41 217l42 186h216l42 -186c15 -65 29 -138 41 -217h2c8 70 19 142 32 216l33 187h162z" />
    <glyph glyph-name="x" unicode="x" horiz-adv-x="535" 
d="M164 261l-159 247h188l73 -145h2l73 145h189l-159 -247l170 -261h-190l-83 163h-2l-83 -163h-189z" />
    <glyph glyph-name="y" unicode="y" horiz-adv-x="530" 
d="M538 508l-169 -499c-52 -151 -112 -201 -244 -201c-29 0 -57 3 -86 9v126c16 -5 33 -8 51 -8c47 0 77 25 77 66c0 9 -2 20 -5 32c-3 11 -11 33 -23 66l-149 409h179l49 -170c21 -79 38 -149 51 -212h2c14 71 31 142 51 213l47 169h169z" />
    <glyph glyph-name="z" unicode="z" horiz-adv-x="502" 
d="M29 131l231 248v2h-222v127h427v-131l-232 -248v-2h240v-127h-444v131z" />
    <glyph glyph-name="braceleft" unicode="{" horiz-adv-x="361" 
d="M333 646c-56 -3 -76 -23 -76 -84v-132c0 -77 -32 -117 -101 -134v-3c69 -19 101 -58 101 -135v-132c0 -61 20 -81 76 -84v-95h-25c-153 0 -201 53 -201 185v123c0 55 -16 76 -67 89v100c51 13 67 34 67 89v123c0 132 48 185 201 185h25v-95z" />
    <glyph glyph-name="bar" unicode="|" horiz-adv-x="297" 
d="M219 732v-937h-142v937h142z" />
    <glyph glyph-name="braceright" unicode="}" horiz-adv-x="361" 
d="M321 244c-52 -13 -68 -34 -68 -89v-123c0 -132 -46 -185 -200 -185h-25v95c56 3 76 23 76 84v132c0 77 32 116 101 135v3c-69 17 -101 57 -101 134v132c0 61 -20 81 -76 84v95h25c154 0 200 -53 200 -185v-123c0 -55 16 -76 68 -89v-100z" />
    <glyph glyph-name="asciitilde" unicode="~" horiz-adv-x="600" 
d="M553 308c-29 -63 -84 -98 -151 -98c-48 0 -81 18 -129 51c-36 24 -55 35 -78 35c-39 0 -64 -31 -64 -78h-106c0 123 72 207 173 207c47 0 79 -18 128 -50c35 -24 55 -36 79 -36c39 0 64 30 64 78h106c0 -41 -7 -78 -22 -109z" />
    <glyph glyph-name="uni00A0" unicode="&#xa0;" horiz-adv-x="230" 
 />
    <glyph glyph-name="exclamdown" unicode="&#xa1;" horiz-adv-x="346" 
d="M106 298h134l30 -502h-195zM261 508v-147h-177v147h177z" />
    <glyph glyph-name="cent" unicode="&#xa2;" horiz-adv-x="628" 
d="M516 139c-34 -38 -79 -62 -134 -72v-95h-119v94c-64 11 -115 41 -152 88s-56 106 -56 178c0 143 79 241 208 264v95h119v-96c111 -21 183 -99 192 -204h-172c-5 53 -36 85 -81 85c-59 0 -92 -53 -92 -144c0 -92 34 -145 93 -145c45 0 76 35 79 94h173
c-5 -57 -24 -104 -58 -142z" />
    <glyph glyph-name="sterling" unicode="&#xa3;" horiz-adv-x="628" 
d="M590 0h-567v137c60 0 89 32 89 121v15h-89v128h89v41c0 163 88 248 249 248c72 0 129 -20 172 -60c42 -40 63 -94 63 -162h-163c0 55 -26 86 -73 86c-53 0 -79 -37 -79 -111v-42h125v-128h-125v-13c0 -64 -17 -99 -58 -123v-2h367v-135z" />
    <glyph glyph-name="currency" unicode="&#xa4;" horiz-adv-x="628" 
d="M580 100l-91 -85l-76 82c-30 -13 -63 -20 -99 -20s-69 7 -99 20l-76 -82l-92 85l76 81c-18 31 -27 68 -27 110c0 40 9 77 27 111l-76 80l92 85l76 -82c30 13 63 20 99 20s69 -7 99 -20l76 82l91 -85l-75 -80c18 -34 27 -71 27 -111s-9 -77 -27 -111zM214 291
c0 -63 40 -104 100 -104s99 41 99 104s-39 104 -99 104s-100 -41 -100 -104z" />
    <glyph glyph-name="yen" unicode="&#xa5;" horiz-adv-x="628" 
d="M557 269h-156v-38h156v-74h-156v-157h-174v157h-156v74h156v38h-156v73h118l-172 332h189l39 -87c26 -61 49 -121 68 -179h2c19 58 42 118 68 179l39 87h189l-172 -332h118v-73z" />
    <glyph glyph-name="brokenbar" unicode="&#xa6;" horiz-adv-x="297" 
d="M77 -205v350h142v-350h-142zM77 382v350h142v-350h-142z" />
    <glyph glyph-name="section" unicode="&#xa7;" horiz-adv-x="656" 
d="M380 40c-7 8 -20 17 -37 26s-47 21 -88 38c-88 37 -135 62 -167 110c-16 24 -24 55 -24 92c0 61 31 110 84 142v2c-31 24 -46 58 -46 102c0 54 21 97 62 129c41 31 95 47 162 47c144 0 222 -64 230 -188h-161c-3 41 -26 65 -69 65c-35 0 -57 -18 -57 -46
c0 -24 10 -37 39 -50c14 -7 39 -17 75 -30c47 -17 84 -33 112 -48s51 -35 70 -61c18 -27 27 -60 27 -101c0 -61 -28 -110 -83 -145v-2c33 -25 49 -61 49 -109c0 -54 -21 -97 -62 -129c-42 -32 -98 -48 -167 -48c-148 0 -234 65 -239 190h164c3 -44 27 -66 72 -66
c39 0 64 19 64 48c0 13 -3 23 -10 32zM438 212c5 11 8 23 8 36c0 40 -22 65 -101 97l-101 43c-21 -14 -31 -34 -31 -60c0 -21 7 -38 21 -52s42 -30 84 -47c27 -11 59 -25 97 -42c9 6 17 14 23 25z" />
    <glyph glyph-name="dieresis" unicode="&#xa8;" horiz-adv-x="469" 
d="M50 581v131h143v-131h-143zM277 712h142v-131h-142v131z" />
    <glyph glyph-name="copyright" unicode="&#xa9;" horiz-adv-x="798" 
d="M715 551c30 -57 45 -122 45 -195c3 -220 -148 -374 -361 -371c-213 -3 -364 151 -361 371c-3 220 148 374 361 371c143 0 256 -64 316 -176zM662 195c25 46 37 100 37 161c0 184 -121 308 -300 308c-180 0 -299 -124 -299 -308s119 -308 299 -308c119 0 212 54 263 147z
M538 175c-35 -30 -81 -45 -138 -45c-125 0 -202 86 -202 225c0 141 76 227 203 227c115 0 188 -65 193 -169h-114c-3 48 -31 77 -79 77c-55 0 -89 -51 -89 -135c0 -81 33 -133 88 -133c47 0 77 31 82 80h115c-5 -55 -24 -97 -59 -127z" />
    <glyph glyph-name="ordfeminine" unicode="&#xaa;" horiz-adv-x="419" 
d="M391 330h-122c-4 13 -6 28 -6 45h-2c-28 -37 -67 -55 -118 -55c-79 0 -128 47 -128 112c0 64 44 100 149 116c33 5 61 8 84 9v13c0 32 -15 48 -44 48c-28 0 -43 -15 -44 -45h-130c5 72 61 124 176 124c116 0 173 -52 173 -148v-115c0 -43 4 -78 12 -104zM149 441
c0 -23 15 -37 40 -37c19 0 33 6 44 17c12 13 15 27 15 56v12c-18 0 -37 -2 -57 -7c-31 -7 -42 -20 -42 -41z" />
    <glyph glyph-name="guillemotleft" unicode="&#xab;" horiz-adv-x="570" 
d="M386 454h142l-106 -200l106 -200h-142l-114 200zM43 254l114 200h142l-106 -200l106 -200h-142z" />
    <glyph glyph-name="logicalnot" unicode="&#xac;" horiz-adv-x="566" 
d="M59 339v129h448v-342h-129v213h-319z" />
    <glyph glyph-name="uni00AD" unicode="&#xad;" horiz-adv-x="337" 
d="M307 353v-122h-277v122h277z" />
    <glyph glyph-name="registered" unicode="&#xae;" horiz-adv-x="592" 
d="M516 606c21 -39 31 -85 31 -136c0 -155 -100 -258 -251 -258s-251 103 -251 258s100 258 251 258c100 0 179 -45 220 -122zM483 355c17 33 26 72 26 115c0 131 -86 220 -213 220s-213 -89 -213 -220s86 -220 213 -220c84 0 151 38 187 105zM358 318l-26 73
c-9 31 -24 42 -55 42h-29v-115h-77v313h138c72 0 109 -33 109 -89c0 -39 -22 -68 -59 -77v-2c21 -5 33 -20 48 -59l32 -86h-81zM248 572v-82h40c37 0 55 16 55 43c0 24 -18 39 -53 39h-42z" />
    <glyph glyph-name="macron" unicode="&#xaf;" horiz-adv-x="459" 
d="M409 692v-103h-359v103h359z" />
    <glyph glyph-name="degree" unicode="&#xb0;" horiz-adv-x="348" 
d="M315 581c0 -78 -64 -141 -141 -141c-78 0 -142 63 -142 141c0 77 64 141 142 141c77 0 141 -64 141 -141zM111 581c0 -35 28 -63 63 -63s63 28 63 63s-28 63 -63 63s-63 -28 -63 -63z" />
    <glyph glyph-name="plusminus" unicode="&#xb1;" horiz-adv-x="566" 
d="M59 306v127h160v143h128v-143h160v-127h-160v-143h-128v143h-160zM59 127h448v-127h-448v127z" />
    <glyph glyph-name="uni00B2" unicode="&#xb2;" horiz-adv-x="471" 
d="M441 330h-407c-1 11 -2 20 -2 28c0 51 10 93 31 126s57 62 110 88c81 39 112 60 112 96c0 27 -19 42 -48 42c-37 0 -58 -22 -59 -65h-140c1 108 74 168 198 168c117 0 192 -62 192 -145c0 -76 -45 -117 -130 -154c-40 -17 -67 -31 -80 -41s-21 -21 -22 -33h245v-110z" />
    <glyph glyph-name="uni00B3" unicode="&#xb3;" horiz-adv-x="464" 
d="M432 464c0 -89 -77 -145 -198 -145c-135 0 -210 61 -210 170h142c0 -45 24 -68 68 -68c36 0 59 17 59 46c0 34 -26 51 -79 51h-13v99h16c44 0 71 18 71 49c0 28 -20 45 -56 45c-41 0 -63 -24 -63 -65h-137c0 105 74 167 201 167c120 0 193 -51 193 -134
c0 -51 -25 -82 -84 -103v-2c63 -20 90 -53 90 -110z" />
    <glyph glyph-name="acute" unicode="&#xb4;" horiz-adv-x="369" 
d="M50 564l78 148h191l-141 -148h-128z" />
    <glyph glyph-name="uni00B5" unicode="&#xb5;" horiz-adv-x="626" 
d="M617 5c-28 -9 -61 -14 -98 -14c-64 0 -104 25 -120 75h-2c-19 -45 -61 -72 -110 -72c-25 0 -45 5 -60 16v-195h-166v693h166v-291c0 -67 24 -101 73 -101c52 0 84 41 84 125v267h166v-330c0 -45 12 -61 43 -61c8 0 16 1 24 3v-115z" />
    <glyph glyph-name="paragraph" unicode="&#xb6;" horiz-adv-x="684" 
d="M40 497c0 65 19 118 56 157s86 58 149 58h411v-110h-80v-722h-119v722h-76v-722h-118v403h-18c-63 0 -112 19 -149 58s-56 91 -56 156z" />
    <glyph glyph-name="periodcentered" unicode="&#xb7;" horiz-adv-x="274" 
d="M225 397v-183h-176v183h176z" />
    <glyph glyph-name="cedilla" unicode="&#xb8;" horiz-adv-x="348" 
d="M148 0h67l-37 -60c10 3 21 5 33 5c52 0 87 -30 87 -78c0 -57 -47 -99 -128 -99c-43 0 -83 11 -120 32l26 53c29 -15 56 -22 81 -22c28 0 44 11 44 31s-16 33 -44 33c-11 0 -22 -2 -31 -6l-29 27z" />
    <glyph glyph-name="uni00B9" unicode="&#xb9;" horiz-adv-x="335" 
d="M11 719c89 0 131 24 140 83h125v-472h-140v288h-125v101z" />
    <glyph glyph-name="ordmasculine" unicode="&#xba;" horiz-adv-x="444" 
d="M76 370c-37 34 -55 80 -55 138c0 57 18 103 55 138c36 34 85 51 146 51s110 -17 147 -51c36 -35 54 -81 54 -138c0 -58 -18 -104 -54 -138c-37 -34 -86 -51 -147 -51s-110 17 -146 51zM163 508c0 -56 22 -88 59 -88s59 32 59 88s-22 88 -59 88s-59 -32 -59 -88z" />
    <glyph glyph-name="guillemotright" unicode="&#xbb;" horiz-adv-x="570" 
d="M377 254l-106 200h143l114 -200l-114 -200h-143zM149 254l-106 200h142l114 -200l-114 -200h-142z" />
    <glyph glyph-name="onequarter" unicode="&#xbc;" horiz-adv-x="824" 
d="M814 76h-70v-76h-121v76h-197v94l159 234h159v-236h70v-92zM494 674h100l-363 -674h-100zM9 514v89c68 0 103 24 115 71h118v-404h-130v244h-103zM629 168v37c0 45 1 85 4 120h-1c-24 -44 -45 -79 -64 -106l-36 -51h97z" />
    <glyph glyph-name="onehalf" unicode="&#xbd;" horiz-adv-x="849" 
d="M782 210c-19 -21 -47 -38 -84 -53c-35 -15 -59 -26 -70 -34s-18 -17 -19 -27h214v-96h-357c-1 5 -1 14 -1 25c0 45 9 81 27 109c17 27 49 52 94 75c73 35 99 50 99 82c0 20 -16 33 -41 33c-31 0 -49 -19 -49 -55h-124c0 92 64 145 173 145c103 0 167 -53 167 -126
c0 -32 -10 -58 -29 -78zM494 674h100l-363 -674h-100zM9 514v89c68 0 103 24 115 71h118v-404h-130v244h-103z" />
    <glyph glyph-name="threequarters" unicode="&#xbe;" horiz-adv-x="942" 
d="M544 170l159 234h159v-236h70v-92h-70v-76h-121v76h-197v94zM145 407c0 -37 20 -56 60 -56c31 0 51 15 51 38c0 27 -22 40 -65 40h-14v87h13c39 0 63 16 63 41c0 23 -20 37 -51 37c-36 0 -55 -20 -55 -53h-120c0 89 65 143 176 143c103 0 171 -46 171 -117
c0 -43 -22 -70 -74 -87v-1c55 -17 79 -47 79 -96c0 -77 -63 -123 -174 -123c-117 0 -184 51 -184 147h124zM712 674l-363 -674h-100l363 674h100zM747 168v37c0 45 1 85 4 120h-1c-24 -44 -45 -79 -64 -106l-36 -51h97z" />
    <glyph glyph-name="questiondown" unicode="&#xbf;" horiz-adv-x="542" 
d="M473 -161c-45 -39 -108 -58 -190 -58c-155 0 -248 70 -248 189c0 34 7 63 21 87c13 24 39 52 78 84c74 66 87 87 89 169h140c1 -10 2 -25 2 -44c-2 -90 -13 -115 -91 -187c-27 -25 -45 -44 -53 -57c-8 -14 -12 -30 -12 -49c0 -39 27 -62 74 -62c57 0 86 33 87 98h172
c-1 -75 -24 -131 -69 -170zM205 508h177v-147h-177v147z" />
    <glyph glyph-name="Agrave" unicode="&#xc0;" horiz-adv-x="715" 
d="M532 0l-45 151h-258l-46 -151h-182l243 712h227l243 -712h-182zM445 293l-15 48c-29 95 -53 181 -72 259h-2c-20 -83 -43 -169 -70 -259l-14 -48h173zM375 911l78 -151h-128l-141 151h191z" />
    <glyph glyph-name="Aacute" unicode="&#xc1;" horiz-adv-x="715" 
d="M532 0l-45 151h-258l-46 -151h-182l243 712h227l243 -712h-182zM272 293h173l-15 48c-29 95 -53 181 -72 259h-2c-20 -83 -43 -169 -70 -259zM340 911h191l-141 -151h-128z" />
    <glyph glyph-name="Acircumflex" unicode="&#xc2;" horiz-adv-x="715" 
d="M532 0l-45 151h-258l-46 -151h-182l243 712h227l243 -712h-182zM279 911h156l120 -151h-138l-60 79l-60 -79h-138zM445 293l-15 48c-29 95 -53 181 -72 259h-2c-20 -83 -43 -169 -70 -259l-14 -48h173z" />
    <glyph glyph-name="Atilde" unicode="&#xc3;" horiz-adv-x="715" 
d="M532 0l-45 151h-258l-46 -151h-182l243 712h227l243 -712h-182zM162 768c4 89 48 143 124 143c31 0 47 -8 84 -25c21 -12 37 -18 50 -18c27 0 39 14 43 43h89c-5 -89 -49 -143 -125 -143c-31 0 -52 9 -83 25c-21 12 -38 18 -51 18c-25 0 -39 -14 -42 -43h-89zM272 293
h173l-15 48c-29 95 -53 181 -72 259h-2c-20 -83 -43 -169 -70 -259z" />
    <glyph glyph-name="Adieresis" unicode="&#xc4;" horiz-adv-x="715" 
d="M1 0l243 712h227l243 -712h-182l-45 151h-258l-46 -151h-182zM272 293h173l-15 48c-29 95 -53 181 -72 259h-2c-20 -83 -43 -169 -70 -259zM173 769v131h143v-131h-143zM542 769h-142v131h142v-131z" />
    <glyph glyph-name="Aring" unicode="&#xc5;" horiz-adv-x="715" 
d="M532 0l-45 151h-258l-46 -151h-182l243 712h227l243 -712h-182zM243 865c0 31 11 58 34 81c22 22 49 33 80 33s58 -11 81 -33c22 -23 33 -50 33 -81s-11 -58 -33 -80c-23 -22 -50 -33 -81 -33s-58 11 -80 33c-23 22 -34 49 -34 80zM445 293l-15 48
c-29 95 -53 181 -72 259h-2c-20 -83 -43 -169 -70 -259l-14 -48h173zM301 865c0 -31 25 -56 56 -56s56 25 56 56s-25 56 -56 56s-56 -25 -56 -56z" />
    <glyph glyph-name="AE" unicode="&#xc6;" horiz-adv-x="977" 
d="M930 0h-410l-23 160h-245l-67 -160h-191l318 712h611v-145h-319l19 -135h276v-143h-256l21 -144h266v-145zM312 303h165l-39 269h-14z" />
    <glyph glyph-name="Ccedilla" unicode="&#xc7;" horiz-adv-x="715" 
d="M491 -133c0 -57 -47 -99 -128 -99c-43 0 -83 11 -120 32l26 53c29 -15 56 -22 81 -22c28 0 44 11 44 31s-16 33 -44 33c-12 0 -22 -2 -31 -6l-29 27l42 69c-184 14 -298 155 -298 371c0 230 129 372 333 372c183 0 304 -107 310 -272h-179c-8 77 -56 122 -131 122
c-95 0 -152 -85 -152 -222s58 -222 150 -222c75 0 125 46 134 126h181c-13 -164 -117 -263 -281 -275l-28 -45c10 3 21 5 33 5c52 0 87 -30 87 -78z" />
    <glyph glyph-name="Egrave" unicode="&#xc8;" horiz-adv-x="634" 
d="M76 712h503v-145h-330v-135h308v-143h-308v-144h338v-145h-511v712zM346 911l78 -151h-128l-141 151h191z" />
    <glyph glyph-name="Eacute" unicode="&#xc9;" horiz-adv-x="634" 
d="M76 712h503v-145h-330v-135h308v-143h-308v-144h338v-145h-511v712zM311 911h191l-141 -151h-128z" />
    <glyph glyph-name="Ecircumflex" unicode="&#xca;" horiz-adv-x="634" 
d="M587 0h-511v712h503v-145h-330v-135h308v-143h-308v-144h338v-145zM250 911h156l120 -151h-138l-60 79l-60 -79h-138z" />
    <glyph glyph-name="Edieresis" unicode="&#xcb;" horiz-adv-x="634" 
d="M587 0h-511v712h503v-145h-330v-135h308v-143h-308v-144h338v-145zM144 769v131h143v-131h-143zM513 900v-131h-142v131h142z" />
    <glyph glyph-name="Igrave" unicode="&#xcc;" horiz-adv-x="325" 
d="M249 712v-712h-173v712h173zM-11 911h191l78 -151h-128z" />
    <glyph glyph-name="Iacute" unicode="&#xcd;" horiz-adv-x="325" 
d="M249 712v-712h-173v712h173zM67 760l78 151h191l-141 -151h-128z" />
    <glyph glyph-name="Icircumflex" unicode="&#xce;" horiz-adv-x="325" 
d="M249 712v-712h-173v712h173zM84 911h156l120 -151h-138l-60 79l-60 -79h-138z" />
    <glyph glyph-name="Idieresis" unicode="&#xcf;" horiz-adv-x="325" 
d="M76 712h173v-712h-173v712zM-22 900h143v-131h-143v131zM205 900h142v-131h-142v131z" />
    <glyph glyph-name="Eth" unicode="&#xd0;" horiz-adv-x="744" 
d="M710 356c0 -228 -137 -356 -380 -356h-253v303h-62v114h62v295h253c243 0 380 -128 380 -356zM250 417h153v-114h-153v-156h76c135 0 204 70 204 209s-69 209 -204 209h-76v-148z" />
    <glyph glyph-name="Ntilde" unicode="&#xd1;" horiz-adv-x="801" 
d="M726 0h-250l-124 281c-44 99 -83 194 -116 285h-2c5 -107 8 -207 8 -300v-266h-166v712h249l125 -281c44 -102 83 -197 116 -285h2c-5 89 -8 189 -8 300v266h166v-712zM206 768c4 89 48 143 124 143c31 0 47 -8 84 -25c21 -12 37 -18 50 -18c27 0 39 14 43 43h89
c-5 -89 -49 -143 -125 -143c-31 0 -52 9 -83 25c-21 12 -38 18 -51 18c-25 0 -39 -14 -42 -43h-89z" />
    <glyph glyph-name="Ograve" unicode="&#xd2;" horiz-adv-x="757" 
d="M723 356c0 -229 -134 -372 -344 -372c-212 0 -345 143 -345 372s133 372 345 372c210 0 344 -143 344 -372zM215 356c0 -140 60 -222 164 -222c103 0 163 82 163 222s-60 222 -163 222c-104 0 -164 -82 -164 -222zM205 911h191l78 -151h-128z" />
    <glyph glyph-name="Oacute" unicode="&#xd3;" horiz-adv-x="757" 
d="M723 356c0 -229 -134 -372 -344 -372c-212 0 -345 143 -345 372s133 372 345 372c210 0 344 -143 344 -372zM215 356c0 -140 60 -222 164 -222c103 0 163 82 163 222s-60 222 -163 222c-104 0 -164 -82 -164 -222zM361 911h191l-141 -151h-128z" />
    <glyph glyph-name="Ocircumflex" unicode="&#xd4;" horiz-adv-x="757" 
d="M681 158c-56 -112 -162 -174 -302 -174c-212 0 -345 143 -345 372s133 372 345 372c210 0 344 -143 344 -372c0 -76 -14 -142 -42 -198zM258 193c29 -39 69 -59 121 -59c103 0 163 82 163 222s-60 222 -163 222c-104 0 -164 -82 -164 -222c0 -70 14 -124 43 -163z
M300 911h156l120 -151h-138l-60 79l-60 -79h-138z" />
    <glyph glyph-name="Otilde" unicode="&#xd5;" horiz-adv-x="757" 
d="M681 554c28 -56 42 -122 42 -198c0 -229 -134 -372 -344 -372c-212 0 -345 143 -345 372s133 372 345 372c140 0 246 -62 302 -174zM258 193c29 -39 69 -59 121 -59c103 0 163 82 163 222s-60 222 -163 222c-104 0 -164 -82 -164 -222c0 -70 14 -124 43 -163zM219 873
c21 25 51 38 89 38c31 0 47 -8 84 -25c21 -12 37 -18 50 -18c27 0 39 14 43 43h89c-5 -89 -49 -143 -125 -143c-31 0 -52 9 -83 25c-21 12 -38 18 -51 18c-25 0 -39 -14 -42 -43h-89c2 45 14 80 35 105z" />
    <glyph glyph-name="Odieresis" unicode="&#xd6;" horiz-adv-x="757" 
d="M681 158c-56 -112 -162 -174 -302 -174c-212 0 -345 143 -345 372s133 372 345 372c210 0 344 -143 344 -372c0 -76 -14 -142 -42 -198zM215 356c0 -140 60 -222 164 -222c103 0 163 82 163 222s-60 222 -163 222c-104 0 -164 -82 -164 -222zM194 769v131h143v-131h-143z
M421 769v131h142v-131h-142z" />
    <glyph glyph-name="multiply" unicode="&#xd7;" horiz-adv-x="566" 
d="M192 312l-175 176l91 91l175 -175l176 175l91 -91l-176 -176l176 -175l-91 -92l-176 176l-175 -176l-91 92z" />
    <glyph glyph-name="Oslash" unicode="&#xd8;" horiz-adv-x="757" 
d="M723 356c0 -229 -134 -372 -344 -372c-72 0 -134 16 -187 47l-58 -79l-71 52l61 83c-59 64 -90 157 -90 269c0 229 133 372 345 372c73 0 135 -16 186 -47l59 79l70 -52l-61 -83c59 -64 90 -157 90 -269zM379 125c109 0 172 86 172 231c0 52 -7 95 -22 129l-245 -331
c27 -19 58 -29 95 -29zM229 228l245 330c-27 19 -58 29 -95 29c-109 0 -172 -86 -172 -231c0 -49 7 -91 22 -128z" />
    <glyph glyph-name="Ugrave" unicode="&#xd9;" horiz-adv-x="725" 
d="M655 276c0 -188 -105 -292 -293 -292c-187 0 -292 104 -292 292v436h173v-432c0 -93 42 -144 119 -144c79 0 120 51 120 144v432h173v-436zM189 911h191l78 -151h-128z" />
    <glyph glyph-name="Uacute" unicode="&#xda;" horiz-adv-x="725" 
d="M655 276c0 -188 -105 -292 -293 -292c-187 0 -292 104 -292 292v436h173v-432c0 -93 42 -144 119 -144c79 0 120 51 120 144v432h173v-436zM344 911h191l-141 -151h-128z" />
    <glyph glyph-name="Ucircumflex" unicode="&#xdb;" horiz-adv-x="725" 
d="M655 276c0 -188 -105 -292 -293 -292c-187 0 -292 104 -292 292v436h173v-432c0 -93 42 -144 119 -144c79 0 120 51 120 144v432h173v-436zM284 911h156l120 -151h-138l-60 79l-60 -79h-138z" />
    <glyph glyph-name="Udieresis" unicode="&#xdc;" horiz-adv-x="725" 
d="M655 276c0 -188 -105 -292 -293 -292c-187 0 -292 104 -292 292v436h173v-432c0 -93 42 -144 119 -144c79 0 120 51 120 144v432h173v-436zM177 769v131h143v-131h-143zM546 900v-131h-142v131h142z" />
    <glyph glyph-name="Yacute" unicode="&#xdd;" horiz-adv-x="663" 
d="M255 583c29 -59 54 -119 76 -179h2c20 57 45 117 75 179l62 129h192l-244 -443v-269h-173v269l-244 443h192zM236 760l78 151h191l-141 -151h-128z" />
    <glyph glyph-name="Thorn" unicode="&#xde;" horiz-adv-x="654" 
d="M563 190c-46 -43 -113 -64 -202 -64h-112v-126h-173v712h173v-108h111c177 0 272 -90 272 -239c0 -74 -23 -132 -69 -175zM249 268h84c84 0 122 33 122 97c0 65 -38 97 -122 97h-84v-194z" />
    <glyph glyph-name="germandbls" unicode="&#xdf;" horiz-adv-x="587" 
d="M496 50c-43 -36 -102 -54 -177 -54c-13 0 -27 1 -43 4v128c5 -1 12 -1 19 -1c60 0 93 33 93 97s-36 99 -101 99h-11v132c65 0 95 25 95 78c0 45 -25 69 -69 69c-53 0 -75 -32 -75 -104v-498h-166v509c0 137 89 219 237 219c71 0 127 -16 169 -48c41 -32 62 -75 62 -129
c0 -78 -41 -130 -123 -156v-2c102 -23 153 -85 153 -188c0 -67 -21 -119 -63 -155z" />
    <glyph glyph-name="agrave" unicode="&#xe0;" horiz-adv-x="561" 
d="M371 0c-5 19 -7 41 -7 66h-2c-39 -53 -94 -79 -165 -79c-54 0 -97 15 -128 44s-47 67 -47 112c0 89 57 141 202 164c42 7 83 11 122 14v18c0 55 -27 80 -71 80c-45 0 -71 -26 -72 -71h-160c5 103 83 176 232 176c155 0 231 -71 231 -206v-175c0 -60 5 -108 15 -143h-150z
M287 712l78 -148h-128l-141 148h191zM186 155c0 -36 24 -58 65 -58c27 0 53 9 70 26c20 21 25 44 25 89v18c-32 -1 -62 -5 -90 -10c-49 -9 -70 -29 -70 -65z" />
    <glyph glyph-name="aacute" unicode="&#xe1;" horiz-adv-x="561" 
d="M371 0c-5 19 -7 41 -7 66h-2c-39 -53 -94 -79 -165 -79c-54 0 -97 15 -128 44s-47 67 -47 112c0 89 57 141 202 164c42 7 83 11 122 14v18c0 55 -27 80 -71 80c-45 0 -71 -26 -72 -71h-160c5 103 83 176 232 176c155 0 231 -71 231 -206v-175c0 -60 5 -108 15 -143h-150z
M252 712h191l-141 -148h-128zM203 113c11 -11 27 -16 48 -16c27 0 53 9 70 26c20 21 25 44 25 89v18c-32 -1 -62 -5 -90 -10c-49 -9 -70 -29 -70 -65c0 -18 6 -32 17 -42z" />
    <glyph glyph-name="acircumflex" unicode="&#xe2;" horiz-adv-x="561" 
d="M362 66c-39 -53 -94 -79 -165 -79c-54 0 -97 15 -128 44s-47 67 -47 112c0 89 57 141 202 164c42 7 83 11 122 14v18c0 55 -27 80 -71 80c-45 0 -71 -26 -72 -71h-160c5 103 83 176 232 176c155 0 231 -71 231 -206v-175c0 -60 5 -108 15 -143h-150c-5 19 -7 41 -7 66h-2
zM191 712h156l118 -148h-138l-58 76l-58 -76h-138zM186 155c0 -36 24 -58 65 -58c27 0 53 9 70 26c20 21 25 44 25 89v18c-32 -1 -62 -5 -90 -10c-49 -9 -70 -29 -70 -65z" />
    <glyph glyph-name="atilde" unicode="&#xe3;" horiz-adv-x="561" 
d="M346 339c0 55 -27 80 -71 80c-45 0 -71 -26 -72 -71h-160c5 103 83 176 232 176c155 0 231 -71 231 -206v-175c0 -60 5 -108 15 -143h-150c-5 19 -7 41 -7 66h-2c-39 -53 -94 -79 -165 -79c-54 0 -97 15 -128 44s-47 67 -47 112c0 89 57 141 202 164c42 7 83 11 122 14
v18zM362 680c7 7 11 17 13 32h89c-5 -89 -49 -143 -125 -143c-31 0 -52 9 -83 25c-21 12 -38 18 -51 18c-25 0 -39 -14 -42 -43h-89c4 89 48 143 124 143c31 0 47 -8 84 -25c21 -12 37 -18 50 -18s23 4 30 11zM346 212v18c-32 -1 -62 -5 -90 -10c-49 -9 -70 -29 -70 -65
s24 -58 65 -58c27 0 53 9 70 26c20 21 25 44 25 89z" />
    <glyph glyph-name="adieresis" unicode="&#xe4;" horiz-adv-x="561" 
d="M362 66c-39 -53 -94 -79 -165 -79c-54 0 -97 15 -128 44s-47 67 -47 112c0 89 57 141 202 164c42 7 83 11 122 14v18c0 55 -27 80 -71 80c-45 0 -71 -26 -72 -71h-160c5 103 83 176 232 176c155 0 231 -71 231 -206v-175c0 -60 5 -108 15 -143h-150c-5 19 -7 41 -7 66h-2
zM85 712h143v-131h-143v131zM454 581h-142v131h142v-131zM186 155c0 -36 24 -58 65 -58c27 0 53 9 70 26c20 21 25 44 25 89v18c-32 -1 -62 -5 -90 -10c-49 -9 -70 -29 -70 -65z" />
    <glyph glyph-name="aring" unicode="&#xe5;" horiz-adv-x="561" 
d="M327 400c-13 13 -30 19 -52 19c-45 0 -71 -26 -72 -71h-160c5 103 83 176 232 176c155 0 231 -71 231 -206v-175c0 -60 5 -108 15 -143h-150c-5 19 -7 41 -7 66h-2c-39 -53 -94 -79 -165 -79c-54 0 -97 15 -128 44s-47 67 -47 112c0 89 57 141 202 164c42 7 83 11 122 14
v18c0 27 -6 48 -19 61zM383 666c0 -31 -11 -58 -33 -80c-23 -22 -50 -33 -81 -33s-58 11 -80 33c-23 22 -34 49 -34 80s11 58 34 81c22 22 49 33 80 33s58 -11 81 -33c22 -23 33 -50 33 -81zM341 159c3 13 5 30 5 53v18c-32 -1 -62 -5 -90 -10c-49 -9 -70 -29 -70 -65
s24 -58 65 -58c27 0 53 9 70 26c10 11 17 23 20 36zM309 706c-11 11 -25 16 -40 16c-31 0 -56 -25 -56 -56s25 -56 56 -56s56 25 56 56c0 15 -5 29 -16 40z" />
    <glyph glyph-name="ae" unicode="&#xe6;" horiz-adv-x="895" 
d="M663 112c14 11 23 26 26 44h169c-20 -97 -118 -172 -249 -172c-83 0 -147 30 -190 85c-39 -57 -106 -85 -191 -85c-129 0 -206 68 -206 159c0 116 85 169 280 169h55v27c0 55 -25 80 -77 80c-47 0 -75 -26 -76 -71h-160c5 103 85 176 237 176c75 0 131 -18 168 -54
c43 36 95 54 158 54c117 0 204 -62 240 -163c13 -37 18 -78 18 -141h-353c3 -83 35 -125 95 -125c23 0 41 6 56 17zM186 154c0 -37 25 -62 69 -62c30 0 55 9 74 27c21 23 28 46 28 93v12h-47c-89 0 -124 -23 -124 -70zM513 311h186c-5 69 -43 104 -92 104
c-51 0 -86 -33 -94 -104z" />
    <glyph glyph-name="ccedilla" unicode="&#xe7;" horiz-adv-x="575" 
d="M386 -204c-23 -19 -54 -28 -95 -28c-43 0 -83 11 -120 32l26 53c29 -15 56 -22 81 -22c28 0 44 11 44 31s-16 33 -44 33c-12 0 -22 -2 -31 -6l-29 27l42 70c-71 7 -127 35 -168 83s-62 110 -62 186c0 163 104 269 265 269c142 0 244 -86 254 -210h-172
c-5 53 -36 85 -81 85c-57 0 -92 -53 -92 -144c0 -92 34 -145 93 -145c45 0 76 35 79 94h173c-11 -124 -94 -207 -222 -219l-28 -45c10 3 21 5 33 5c52 0 87 -30 87 -78c0 -29 -11 -52 -33 -71z" />
    <glyph glyph-name="egrave" unicode="&#xe8;" horiz-adv-x="584" 
d="M554 220h-361c4 -89 43 -125 99 -125c47 0 80 25 85 61h169c-22 -97 -118 -172 -252 -172c-167 0 -264 114 -264 274c0 153 98 266 262 266c119 0 206 -62 242 -163c15 -39 20 -80 20 -141zM309 712l78 -148h-128l-141 148h191zM387 314c-7 68 -44 101 -95 101
c-52 0 -87 -32 -96 -101h191z" />
    <glyph glyph-name="eacute" unicode="&#xe9;" horiz-adv-x="584" 
d="M554 220h-361c4 -89 43 -125 99 -125c47 0 80 25 85 61h169c-22 -97 -118 -172 -252 -172c-167 0 -264 114 -264 274c0 153 98 266 262 266c119 0 206 -62 242 -163c15 -39 20 -80 20 -141zM274 712h191l-141 -148h-128zM196 314h191c-7 68 -44 101 -95 101
c-52 0 -87 -32 -96 -101z" />
    <glyph glyph-name="ecircumflex" unicode="&#xea;" horiz-adv-x="584" 
d="M554 220h-361c4 -89 43 -125 99 -125c47 0 80 25 85 61h169c-22 -97 -118 -172 -252 -172c-167 0 -264 114 -264 274c0 153 98 266 262 266c119 0 206 -62 242 -163c15 -39 20 -80 20 -141zM213 712h156l118 -148h-138l-58 76l-58 -76h-138zM196 314h191
c-7 68 -44 101 -95 101c-52 0 -87 -32 -96 -101z" />
    <glyph glyph-name="edieresis" unicode="&#xeb;" horiz-adv-x="584" 
d="M554 220h-361c4 -89 43 -125 99 -125c47 0 80 25 85 61h169c-22 -97 -118 -172 -252 -172c-167 0 -264 114 -264 274c0 153 98 266 262 266c119 0 206 -62 242 -163c15 -39 20 -80 20 -141zM107 581v131h143v-131h-143zM476 712v-131h-142v131h142zM387 314
c-7 68 -44 101 -95 101c-52 0 -87 -32 -96 -101h191z" />
    <glyph glyph-name="igrave" unicode="&#xec;" horiz-adv-x="288" 
d="M227 508v-508h-166v508h166zM-29 712h191l78 -148h-128z" />
    <glyph glyph-name="iacute" unicode="&#xed;" horiz-adv-x="288" 
d="M227 508v-508h-166v508h166zM48 564l78 148h191l-141 -148h-128z" />
    <glyph glyph-name="icircumflex" unicode="&#xee;" horiz-adv-x="288" 
d="M61 508h166v-508h-166v508zM-37 566l108 146h146l108 -146h-130l-51 71l-50 -71h-131z" />
    <glyph glyph-name="idieresis" unicode="&#xef;" horiz-adv-x="288" 
d="M61 508h166v-508h-166v508zM-13 712h133v-131h-133v131zM168 712h132v-131h-132v131z" />
    <glyph glyph-name="eth" unicode="&#xf0;" horiz-adv-x="597" 
d="M567 262c0 -171 -105 -278 -270 -278c-163 0 -267 101 -267 256c0 159 90 263 227 263c22 0 44 -4 66 -12v2c-18 21 -43 46 -74 74l-129 -48l-26 68l91 34c-17 13 -38 28 -62 45l138 62c25 -16 48 -33 71 -51l126 47l26 -68l-90 -34c35 -33 65 -67 89 -101
c57 -81 84 -163 84 -259zM205 252c0 -89 36 -145 95 -145s95 56 95 145c0 91 -36 145 -95 145s-95 -54 -95 -145z" />
    <glyph glyph-name="ntilde" unicode="&#xf1;" 
d="M552 0h-166v294c0 65 -26 98 -74 98c-53 0 -85 -44 -85 -129v-263h-166v508h155v-61h2c35 47 85 74 148 74c116 0 186 -73 186 -209v-312zM112 569c4 89 48 143 124 143c31 0 47 -8 84 -25c21 -12 37 -18 50 -18c27 0 39 14 43 43h89c-5 -89 -49 -143 -125 -143
c-31 0 -52 9 -83 25c-21 12 -38 18 -51 18c-25 0 -39 -14 -42 -43h-89z" />
    <glyph glyph-name="ograve" unicode="&#xf2;" horiz-adv-x="604" 
d="M574 254c0 -165 -107 -270 -272 -270s-272 105 -272 270s107 270 272 270s272 -105 272 -270zM205 254c0 -89 36 -144 97 -144s97 55 97 144s-36 144 -97 144s-97 -55 -97 -144zM320 712l78 -148h-128l-141 148h191z" />
    <glyph glyph-name="oacute" unicode="&#xf3;" horiz-adv-x="604" 
d="M574 254c0 -165 -107 -270 -272 -270s-272 105 -272 270s107 270 272 270s272 -105 272 -270zM205 254c0 -89 36 -144 97 -144s97 55 97 144s-36 144 -97 144s-97 -55 -97 -144zM284 712h191l-141 -148h-128z" />
    <glyph glyph-name="ocircumflex" unicode="&#xf4;" horiz-adv-x="604" 
d="M574 254c0 -165 -107 -270 -272 -270s-272 105 -272 270s107 270 272 270s272 -105 272 -270zM231 149c17 -26 40 -39 71 -39c61 0 97 55 97 144s-36 144 -97 144s-97 -55 -97 -144c0 -45 9 -80 26 -105zM106 564l118 148h156l118 -148h-138l-58 76l-58 -76h-138z" />
    <glyph glyph-name="otilde" unicode="&#xf5;" horiz-adv-x="604" 
d="M446 17c-41 -22 -89 -33 -144 -33c-165 0 -272 105 -272 270s107 270 272 270s272 -105 272 -270c0 -109 -47 -193 -128 -237zM231 149c17 -26 40 -39 71 -39c61 0 97 55 97 144s-36 144 -97 144s-97 -55 -97 -144c0 -45 9 -80 26 -105zM142 674c21 25 51 38 89 38
c31 0 47 -8 84 -25c21 -12 37 -18 50 -18c27 0 39 14 43 43h89c-5 -89 -49 -143 -125 -143c-31 0 -52 9 -83 25c-21 12 -38 18 -51 18c-25 0 -39 -14 -42 -43h-89c2 45 14 80 35 105z" />
    <glyph glyph-name="odieresis" unicode="&#xf6;" horiz-adv-x="604" 
d="M541 111c-45 -81 -130 -127 -239 -127c-165 0 -272 105 -272 270s107 270 272 270s272 -105 272 -270c0 -55 -11 -102 -33 -143zM205 254c0 -89 36 -144 97 -144s97 55 97 144s-36 144 -97 144s-97 -55 -97 -144zM117 581v131h143v-131h-143zM344 581v131h142v-131h-142z
" />
    <glyph glyph-name="divide" unicode="&#xf7;" horiz-adv-x="566" 
d="M507 381v-129h-448v129h448zM213 75v118h140v-118h-140zM213 558h140v-117h-140v117z" />
    <glyph glyph-name="oslash" unicode="&#xf8;" horiz-adv-x="604" 
d="M574 254c0 -165 -107 -270 -272 -270c-49 0 -93 9 -133 27l-51 -69l-61 44l50 68c-49 48 -77 117 -77 200c0 165 107 270 272 270c50 0 95 -9 134 -28l51 70l61 -46l-50 -67c49 -48 76 -115 76 -199zM205 178l155 209c-17 13 -36 19 -58 19c-68 0 -108 -59 -108 -152
c0 -27 4 -53 11 -76zM302 102c67 0 108 59 108 152c0 26 -4 51 -11 74l-154 -208c16 -12 35 -18 57 -18z" />
    <glyph glyph-name="ugrave" unicode="&#xf9;" 
d="M547 0h-155v61h-2c-35 -47 -85 -74 -148 -74c-116 0 -186 73 -186 209v312h166v-294c0 -65 26 -98 74 -98c53 0 85 44 85 129v263h166v-508zM322 712l78 -148h-128l-141 148h191z" />
    <glyph glyph-name="uacute" unicode="&#xfa;" 
d="M547 0h-155v61h-2c-35 -47 -85 -74 -148 -74c-116 0 -186 73 -186 209v312h166v-294c0 -65 26 -98 74 -98c53 0 85 44 85 129v263h166v-508zM287 712h191l-141 -148h-128z" />
    <glyph glyph-name="ucircumflex" unicode="&#xfb;" 
d="M547 0h-155v61h-2c-35 -47 -85 -74 -148 -74c-116 0 -186 73 -186 209v312h166v-294c0 -65 26 -98 74 -98c53 0 85 44 85 129v263h166v-508zM108 564l118 148h156l118 -148h-138l-58 76l-58 -76h-138z" />
    <glyph glyph-name="udieresis" unicode="&#xfc;" 
d="M547 0h-155v61h-2c-35 -47 -85 -74 -148 -74c-116 0 -186 73 -186 209v312h166v-294c0 -65 26 -98 74 -98c53 0 85 44 85 129v263h166v-508zM120 581v131h143v-131h-143zM489 712v-131h-142v131h142z" />
    <glyph glyph-name="yacute" unicode="&#xfd;" horiz-adv-x="530" 
d="M369 9c-52 -151 -112 -201 -244 -201c-29 0 -57 3 -86 9v126c16 -5 33 -8 51 -8c47 0 77 25 77 66c0 9 -2 20 -5 32c-3 11 -11 33 -23 66l-149 409h179l49 -170c21 -79 38 -149 51 -212h2c14 71 31 142 51 213l47 169h169zM249 712h191l-141 -148h-128z" />
    <glyph glyph-name="thorn" unicode="&#xfe;" horiz-adv-x="610" 
d="M554 113c-35 -81 -101 -127 -186 -127c-56 0 -108 25 -139 69h-2v-240h-166v897h166v-259h2c31 44 82 69 137 69c129 0 214 -106 214 -268c0 -54 -9 -101 -26 -141zM218 254c0 -88 37 -142 93 -142c57 0 95 55 95 142s-38 142 -95 142c-56 0 -93 -54 -93 -142z" />
    <glyph glyph-name="ydieresis" unicode="&#xff;" horiz-adv-x="530" 
d="M169 508l49 -170c21 -79 38 -149 51 -212h2c14 71 31 142 51 213l47 169h169l-169 -499c-52 -151 -112 -201 -244 -201c-29 0 -57 3 -86 9v126c16 -5 33 -8 51 -8c47 0 77 25 77 66c0 9 -2 20 -5 32c-3 11 -11 33 -23 66l-149 409h179zM82 712h143v-131h-143v131z
M451 581h-142v131h142v-131z" />
    <glyph glyph-name="Amacron" unicode="&#x100;" horiz-adv-x="715" 
d="M244 712h227l243 -712h-182l-45 151h-258l-46 -151h-182zM537 776h-359v103h359v-103zM272 293h173l-15 48c-29 95 -53 181 -72 259h-2c-20 -83 -43 -169 -70 -259z" />
    <glyph glyph-name="amacron" unicode="&#x101;" horiz-adv-x="561" 
d="M506 318v-175c0 -60 5 -108 15 -143h-150c-5 19 -7 41 -7 66h-2c-39 -53 -94 -79 -165 -79c-54 0 -97 15 -128 44s-47 67 -47 112c0 89 57 141 202 164c42 7 83 11 122 14v18c0 55 -27 80 -71 80c-45 0 -71 -26 -72 -71h-160c5 103 83 176 232 176
c155 0 231 -71 231 -206zM449 692v-103h-359v103h359zM186 155c0 -36 24 -58 65 -58c27 0 53 9 70 26c20 21 25 44 25 89v18c-32 -1 -62 -5 -90 -10c-49 -9 -70 -29 -70 -65z" />
    <glyph glyph-name="Abreve" unicode="&#x102;" horiz-adv-x="715" 
d="M532 0l-45 151h-258l-46 -151h-182l243 712h227l243 -712h-182zM285 911c3 -37 28 -58 72 -58s69 21 72 58h106c-5 -97 -70 -154 -178 -154s-173 57 -178 154h106zM445 293l-15 48c-29 95 -53 181 -72 259h-2c-20 -83 -43 -169 -70 -259l-14 -48h173z" />
    <glyph glyph-name="abreve" unicode="&#x103;" horiz-adv-x="561" 
d="M346 339c0 55 -27 80 -71 80c-45 0 -71 -26 -72 -71h-160c5 103 83 176 232 176c155 0 231 -71 231 -206v-175c0 -60 5 -108 15 -143h-150c-5 19 -7 41 -7 66h-2c-39 -53 -94 -79 -165 -79c-54 0 -97 15 -128 44s-47 67 -47 112c0 89 57 141 202 164c42 7 83 11 122 14
v18zM397 599c-31 -27 -74 -41 -128 -41c-108 0 -173 57 -178 154h106c3 -37 28 -58 72 -58s69 21 72 58h106c-3 -49 -19 -86 -50 -113zM346 230c-32 -1 -62 -5 -90 -10c-49 -9 -70 -29 -70 -65s24 -58 65 -58c27 0 53 9 70 26c20 21 25 44 25 89v18z" />
    <glyph glyph-name="Aogonek" unicode="&#x104;" horiz-adv-x="715" 
d="M717 -184c-28 -10 -59 -15 -93 -15c-81 0 -123 34 -123 91c0 43 27 75 84 108h-53l-45 151h-258l-46 -151h-182l243 712h227l243 -712c-48 -32 -65 -54 -65 -79c0 -20 11 -30 33 -30c12 0 24 2 35 7v-82zM272 293h173l-15 48c-29 95 -53 181 -72 259h-2
c-20 -83 -43 -169 -70 -259z" />
    <glyph glyph-name="aogonek" unicode="&#x105;" horiz-adv-x="561" 
d="M431 -199c-81 0 -123 34 -123 91c0 43 27 75 84 108h-21c-5 19 -7 41 -7 66h-2c-39 -53 -94 -79 -165 -79c-54 0 -97 15 -128 44s-47 67 -47 112c0 89 57 141 202 164c42 7 83 11 122 14v18c0 55 -27 80 -71 80c-45 0 -71 -26 -72 -71h-160c5 103 83 176 232 176
c155 0 231 -71 231 -206v-175c0 -60 5 -108 15 -143c-48 -32 -65 -54 -65 -79c0 -20 11 -30 33 -30c12 0 24 2 35 7v-82c-28 -10 -59 -15 -93 -15zM186 155c0 -36 24 -58 65 -58c27 0 53 9 70 26c20 21 25 44 25 89v18c-32 -1 -62 -5 -90 -10c-49 -9 -70 -29 -70 -65z" />
    <glyph glyph-name="Cacute" unicode="&#x106;" horiz-adv-x="715" 
d="M677 456h-179c-8 77 -56 122 -131 122c-95 0 -152 -85 -152 -222s58 -222 150 -222c75 0 125 46 134 126h181c-7 -88 -38 -156 -94 -204s-130 -72 -221 -72c-204 0 -331 142 -331 372s129 372 333 372c183 0 304 -107 310 -272zM349 911h191l-141 -151h-128z" />
    <glyph glyph-name="cacute" unicode="&#x107;" horiz-adv-x="575" 
d="M549 314h-172c-5 53 -36 85 -81 85c-57 0 -92 -53 -92 -144c0 -92 34 -145 93 -145c45 0 76 35 79 94h173c-5 -67 -31 -121 -76 -160c-46 -40 -105 -60 -177 -60c-162 0 -266 107 -266 271c0 163 104 269 265 269c142 0 244 -86 254 -210zM200 564l78 148h191l-141 -148
h-128z" />
    <glyph glyph-name="Ccircumflex" unicode="&#x108;" horiz-adv-x="715" 
d="M677 456h-179c-8 77 -56 122 -131 122c-95 0 -152 -85 -152 -222s58 -222 150 -222c75 0 125 46 134 126h181c-7 -88 -38 -156 -94 -204s-130 -72 -221 -72c-204 0 -331 142 -331 372s129 372 333 372c183 0 304 -107 310 -272zM289 911h156l120 -151h-138l-60 79
l-60 -79h-138z" />
    <glyph glyph-name="ccircumflex" unicode="&#x109;" horiz-adv-x="575" 
d="M549 314h-172c-5 53 -36 85 -81 85c-57 0 -92 -53 -92 -144c0 -92 34 -145 93 -145c45 0 76 35 79 94h173c-5 -67 -31 -121 -76 -160c-46 -40 -105 -60 -177 -60c-162 0 -266 107 -266 271c0 163 104 269 265 269c142 0 244 -86 254 -210zM99 564l118 148h156l118 -148
h-138l-58 76l-58 -76h-138z" />
    <glyph glyph-name="Cdotaccent" unicode="&#x10a;" horiz-adv-x="715" 
d="M677 456h-179c-8 77 -56 122 -131 122c-95 0 -152 -85 -152 -222s58 -222 150 -222c75 0 125 46 134 126h181c-7 -88 -38 -156 -94 -204s-130 -72 -221 -72c-204 0 -331 142 -331 372s129 372 333 372c183 0 304 -107 310 -272zM450 900v-131h-166v131h166z" />
    <glyph glyph-name="cdotaccent" unicode="&#x10b;" horiz-adv-x="575" 
d="M549 314h-172c-5 53 -36 85 -81 85c-57 0 -92 -53 -92 -144c0 -92 34 -145 93 -145c45 0 76 35 79 94h173c-5 -67 -31 -121 -76 -160c-46 -40 -105 -60 -177 -60c-162 0 -266 107 -266 271c0 163 104 269 265 269c142 0 244 -86 254 -210zM378 712v-131h-166v131h166z
" />
    <glyph glyph-name="Ccaron" unicode="&#x10c;" horiz-adv-x="715" 
d="M677 456h-179c-8 77 -56 122 -131 122c-95 0 -152 -85 -152 -222s58 -222 150 -222c75 0 125 46 134 126h181c-7 -88 -38 -156 -94 -204s-130 -72 -221 -72c-204 0 -331 142 -331 372s129 372 333 372c183 0 304 -107 310 -272zM307 911l60 -79l60 79h138l-120 -151h-156
l-120 151h138z" />
    <glyph glyph-name="ccaron" unicode="&#x10d;" horiz-adv-x="575" 
d="M549 314h-172c-5 53 -36 85 -81 85c-57 0 -92 -53 -92 -144c0 -92 34 -145 93 -145c45 0 76 35 79 94h173c-5 -67 -31 -121 -76 -160c-46 -40 -105 -60 -177 -60c-162 0 -266 107 -266 271c0 163 104 269 265 269c142 0 244 -86 254 -210zM99 712h138l58 -76l58 76h138
l-118 -148h-156z" />
    <glyph glyph-name="Dcaron" unicode="&#x10e;" horiz-adv-x="742" 
d="M708 356c0 -228 -136 -356 -380 -356h-252v712h252c244 0 380 -128 380 -356zM248 147h76c135 0 204 70 204 209s-69 209 -204 209h-76v-418zM280 911l60 -79l60 79h138l-120 -151h-156l-120 151h138z" />
    <glyph glyph-name="dcaron" unicode="&#x10f;" horiz-adv-x="610" 
d="M30 254c0 162 83 268 212 268c56 0 108 -25 139 -69h2v259h166v-712h-160v63h-2c-31 -49 -84 -77 -141 -77c-131 0 -216 106 -216 268zM230 151c17 -26 40 -39 69 -39c56 0 93 54 93 142s-37 142 -93 142c-57 0 -95 -55 -95 -142c0 -43 9 -78 26 -103zM671 534h-94
l24 178h130z" />
    <glyph glyph-name="Dcroat" unicode="&#x110;" horiz-adv-x="744" 
d="M710 356c0 -228 -137 -356 -380 -356h-253v303h-62v114h62v295h253c243 0 380 -128 380 -356zM250 417h153v-114h-153v-156h76c135 0 204 70 204 209s-69 209 -204 209h-76v-148z" />
    <glyph glyph-name="dcroat" unicode="&#x111;" horiz-adv-x="604" 
d="M549 0h-160v63h-2c-31 -49 -84 -77 -141 -77c-131 0 -216 106 -216 268s83 268 212 268c56 0 108 -25 139 -69h2v119h-128v78h128v62h166v-62h66v-78h-66v-572zM230 151c17 -26 40 -39 69 -39c56 0 93 54 93 142s-37 142 -93 142c-57 0 -95 -55 -95 -142
c0 -43 9 -78 26 -103z" />
    <glyph glyph-name="Emacron" unicode="&#x112;" horiz-adv-x="634" 
d="M76 712h503v-145h-330v-135h308v-143h-308v-144h338v-145h-511v712zM149 879h359v-103h-359v103z" />
    <glyph glyph-name="emacron" unicode="&#x113;" horiz-adv-x="584" 
d="M554 220h-361c4 -89 43 -125 99 -125c47 0 80 25 85 61h169c-22 -97 -118 -172 -252 -172c-167 0 -264 114 -264 274c0 153 98 266 262 266c119 0 206 -62 242 -163c15 -39 20 -80 20 -141zM112 589v103h359v-103h-359zM387 314c-7 68 -44 101 -95 101
c-52 0 -87 -32 -96 -101h191z" />
    <glyph glyph-name="Ebreve" unicode="&#x114;" horiz-adv-x="634" 
d="M587 0h-511v712h503v-145h-330v-135h308v-143h-308v-144h338v-145zM256 911c3 -37 28 -58 72 -58s69 21 72 58h106c-5 -97 -70 -154 -178 -154s-173 57 -178 154h106z" />
    <glyph glyph-name="ebreve" unicode="&#x115;" horiz-adv-x="584" 
d="M501 69c-45 -53 -119 -85 -207 -85c-167 0 -264 114 -264 274c0 153 98 266 262 266c119 0 206 -62 242 -163c15 -39 20 -80 20 -141h-361c4 -89 43 -125 99 -125c47 0 80 25 85 61h169c-7 -32 -22 -61 -45 -87zM219 712c3 -37 28 -58 72 -58s69 21 72 58h106
c-5 -97 -70 -154 -178 -154s-173 57 -178 154h106zM387 314c-7 68 -44 101 -95 101c-52 0 -87 -32 -96 -101h191z" />
    <glyph glyph-name="Edotaccent" unicode="&#x116;" horiz-adv-x="634" 
d="M76 712h503v-145h-330v-135h308v-143h-308v-144h338v-145h-511v712zM245 900h166v-131h-166v131z" />
    <glyph glyph-name="edotaccent" unicode="&#x117;" horiz-adv-x="584" 
d="M554 220h-361c4 -89 43 -125 99 -125c47 0 80 25 85 61h169c-22 -97 -118 -172 -252 -172c-167 0 -264 114 -264 274c0 153 98 266 262 266c119 0 206 -62 242 -163c15 -39 20 -80 20 -141zM208 581v131h166v-131h-166zM196 314h191c-7 68 -44 101 -95 101
c-52 0 -87 -32 -96 -101z" />
    <glyph glyph-name="Eogonek" unicode="&#x118;" horiz-adv-x="634" 
d="M590 -184c-28 -10 -59 -15 -93 -15c-81 0 -123 34 -123 91c0 43 27 75 84 108h-382v712h503v-145h-330v-135h308v-143h-308v-144h338v-145c-48 -32 -65 -54 -65 -79c0 -20 11 -30 33 -30c12 0 24 2 35 7v-82z" />
    <glyph glyph-name="eogonek" unicode="&#x119;" horiz-adv-x="584" 
d="M550 299c3 -22 4 -48 4 -79h-361c4 -89 43 -125 99 -125c47 0 80 25 85 61h169c-9 -44 -36 -87 -80 -129c-43 -41 -58 -70 -58 -101c0 -23 11 -35 34 -35c12 0 23 2 34 7v-82c-27 -10 -57 -15 -92 -15c-83 0 -124 34 -124 91c0 35 20 65 59 92v2c-11 -1 -19 -2 -25 -2
c-167 0 -264 114 -264 274c0 153 98 266 262 266c119 0 206 -62 242 -163c7 -19 13 -40 16 -62zM196 314h191c-7 68 -44 101 -95 101c-52 0 -87 -32 -96 -101z" />
    <glyph glyph-name="Ecaron" unicode="&#x11a;" horiz-adv-x="634" 
d="M587 0h-511v712h503v-145h-330v-135h308v-143h-308v-144h338v-145zM268 911l60 -79l60 79h138l-120 -151h-156l-120 151h138z" />
    <glyph glyph-name="ecaron" unicode="&#x11b;" horiz-adv-x="584" 
d="M554 220h-361c4 -89 43 -125 99 -125c47 0 80 25 85 61h169c-22 -97 -118 -172 -252 -172c-167 0 -264 114 -264 274c0 153 98 266 262 266c119 0 206 -62 242 -163c15 -39 20 -80 20 -141zM233 712l58 -76l58 76h138l-118 -148h-156l-118 148h138zM387 314
c-7 68 -44 101 -95 101c-52 0 -87 -32 -96 -101h191z" />
    <glyph glyph-name="Gcircumflex" unicode="&#x11c;" horiz-adv-x="751" 
d="M535 72h-2c-41 -56 -110 -86 -198 -86c-185 0 -301 139 -301 367c0 233 133 375 345 375c177 0 295 -95 307 -243h-186c-11 63 -53 98 -121 98c-101 0 -164 -87 -164 -230c0 -145 62 -235 163 -235c89 0 140 53 143 148h-153v134h315v-400h-148v72zM294 911h156l120 -151
h-138l-60 79l-60 -79h-138z" />
    <glyph glyph-name="gcircumflex" unicode="&#x11d;" horiz-adv-x="602" 
d="M380 80h-2c-35 -49 -82 -74 -141 -74c-126 0 -207 101 -207 258s84 258 210 258c60 0 108 -27 144 -82h2v68h155v-475c0 -153 -92 -228 -255 -228c-141 0 -223 60 -234 163h161c3 -35 31 -56 76 -56c59 0 91 34 91 121v47zM227 172c16 -23 38 -35 65 -35
c57 0 93 50 93 127c0 79 -36 128 -93 128c-55 0 -90 -49 -90 -128c0 -39 8 -69 25 -92zM87 564l118 148h156l118 -148h-138l-58 76l-58 -76h-138z" />
    <glyph glyph-name="Gbreve" unicode="&#x11e;" horiz-adv-x="751" 
d="M533 72c-41 -56 -110 -86 -198 -86c-185 0 -301 139 -301 367c0 233 133 375 345 375c177 0 295 -95 307 -243h-186c-11 63 -53 98 -121 98c-101 0 -164 -87 -164 -230c0 -145 62 -235 163 -235c89 0 140 53 143 148h-153v134h315v-400h-148v72h-2zM194 911h106
c3 -37 28 -58 72 -58s69 21 72 58h106c-5 -97 -70 -154 -178 -154s-173 57 -178 154z" />
    <glyph glyph-name="gbreve" unicode="&#x11f;" horiz-adv-x="602" 
d="M378 80c-35 -49 -82 -74 -141 -74c-126 0 -207 101 -207 258s84 258 210 258c60 0 108 -27 144 -82h2v68h155v-475c0 -153 -92 -228 -255 -228c-141 0 -223 60 -234 163h161c3 -35 31 -56 76 -56c59 0 91 34 91 121v47h-2zM385 264c0 79 -36 128 -93 128
c-55 0 -90 -49 -90 -128c0 -77 35 -127 90 -127c57 0 93 50 93 127zM411 599c-31 -27 -74 -41 -128 -41c-108 0 -173 57 -178 154h106c3 -37 28 -58 72 -58s69 21 72 58h106c-3 -49 -19 -86 -50 -113z" />
    <glyph glyph-name="Gdotaccent" unicode="&#x120;" horiz-adv-x="751" 
d="M683 0h-148v72h-2c-41 -56 -110 -86 -198 -86c-185 0 -301 139 -301 367c0 233 133 375 345 375c177 0 295 -95 307 -243h-186c-11 63 -53 98 -121 98c-101 0 -164 -87 -164 -230c0 -145 62 -235 163 -235c89 0 140 53 143 148h-153v134h315v-400zM455 900v-131h-166v131
h166z" />
    <glyph glyph-name="gdotaccent" unicode="&#x121;" horiz-adv-x="602" 
d="M541 508v-475c0 -153 -92 -228 -255 -228c-141 0 -223 60 -234 163h161c3 -35 31 -56 76 -56c59 0 91 34 91 121v47h-2c-35 -49 -82 -74 -141 -74c-126 0 -207 101 -207 258s84 258 210 258c60 0 108 -27 144 -82h2v68h155zM227 172c16 -23 38 -35 65 -35
c57 0 93 50 93 127c0 79 -36 128 -93 128c-55 0 -90 -49 -90 -128c0 -39 8 -69 25 -92zM200 581v131h166v-131h-166z" />
    <glyph glyph-name="Gcommaaccent" unicode="&#x122;" horiz-adv-x="751" 
d="M535 72h-2c-41 -56 -110 -86 -198 -86c-185 0 -301 139 -301 367c0 233 133 375 345 375c177 0 295 -95 307 -243h-186c-11 63 -53 98 -121 98c-101 0 -164 -87 -164 -230c0 -145 62 -235 163 -235c89 0 140 53 143 148h-153v134h315v-400h-148v72zM440 -54v-112
l-71 -109h-63l46 109h-46v112h134z" />
    <glyph glyph-name="gcommaaccent" unicode="&#x123;" horiz-adv-x="602" 
d="M380 80h-2c-35 -49 -82 -74 -141 -74c-126 0 -207 101 -207 258s84 258 210 258c60 0 108 -27 144 -82h2v68h155v-475c0 -153 -92 -228 -255 -228c-141 0 -223 60 -234 163h161c3 -35 31 -56 76 -56c59 0 91 34 91 121v47zM227 172c16 -23 38 -35 65 -35
c57 0 93 50 93 127c0 79 -36 128 -93 128c-55 0 -90 -49 -90 -128c0 -39 8 -69 25 -92zM216 684l71 109h63l-46 -109h46v-112h-134v112z" />
    <glyph glyph-name="Hcircumflex" unicode="&#x124;" horiz-adv-x="761" 
d="M685 0h-173v295h-263v-295h-173v712h173v-270h263v270h173v-712zM182 760l120 151h156l120 -151h-138l-60 79l-60 -79h-138z" />
    <glyph glyph-name="hcircumflex" unicode="&#x125;" 
d="M552 0h-166v294c0 65 -26 98 -74 98c-53 0 -85 -44 -85 -129v-263h-166v712h166v-255h2c33 41 81 64 137 64c116 0 186 -73 186 -209v-312zM225 911h156l120 -151h-138l-60 79l-60 -79h-138z" />
    <glyph glyph-name="Hbar" unicode="&#x126;" horiz-adv-x="761" 
d="M738 564h-53v-564h-173v295h-263v-295h-173v564h-53v80h53v68h173v-68h263v68h173v-68h53v-80zM249 564v-122h263v122h-263z" />
    <glyph glyph-name="hbar" unicode="&#x127;" 
d="M552 0h-166v294c0 65 -26 98 -74 98c-53 0 -85 -44 -85 -129v-263h-166v572h-71v73h71v67h166v-67h122v-73h-122v-115h2c33 41 81 64 137 64c116 0 186 -73 186 -209v-312z" />
    <glyph glyph-name="Itilde" unicode="&#x128;" horiz-adv-x="325" 
d="M76 712h173v-712h-173v712zM321 806c-21 -25 -51 -38 -89 -38c-31 0 -52 9 -83 25c-21 12 -38 18 -51 18c-25 0 -39 -14 -42 -43h-89c4 89 48 143 124 143c31 0 47 -8 84 -25c21 -12 37 -18 50 -18c27 0 39 14 43 43h89c-3 -45 -15 -80 -36 -105z" />
    <glyph glyph-name="itilde" unicode="&#x129;" horiz-adv-x="288" 
d="M61 508h166v-508h-166v508zM284 606c-19 -25 -47 -38 -82 -38c-28 0 -45 9 -72 26c-20 13 -30 19 -45 19c-22 0 -34 -15 -36 -45h-77c4 91 44 144 113 144c28 0 45 -9 72 -26c19 -13 30 -19 45 -19c23 0 34 14 37 45h78c-3 -45 -14 -81 -33 -106z" />
    <glyph glyph-name="Imacron" unicode="&#x12a;" horiz-adv-x="325" 
d="M76 712h173v-712h-173v712zM-17 879h359v-103h-359v103z" />
    <glyph glyph-name="imacron" unicode="&#x12b;" horiz-adv-x="288" 
d="M61 508h166v-508h-166v508zM-6 695h300v-103h-300v103z" />
    <glyph glyph-name="Ibreve" unicode="&#x12c;" horiz-adv-x="325" 
d="M76 712h173v-712h-173v712zM-16 911h106c3 -37 28 -58 72 -58s69 21 72 58h106c-5 -97 -70 -154 -178 -154s-173 57 -178 154z" />
    <glyph glyph-name="ibreve" unicode="&#x12d;" horiz-adv-x="288" 
d="M227 508v-508h-166v508h166zM-18 712h100c3 -40 24 -60 62 -60s59 20 62 60h100c-4 -97 -62 -154 -162 -154s-158 55 -162 154z" />
    <glyph glyph-name="Iogonek" unicode="&#x12e;" horiz-adv-x="325" 
d="M36 -108c0 43 27 75 84 108h-44v712h173v-712c-48 -32 -65 -54 -65 -79c0 -20 11 -30 33 -30c12 0 24 2 35 7v-82c-28 -10 -59 -15 -93 -15c-81 0 -123 34 -123 91z" />
    <glyph glyph-name="iogonek" unicode="&#x12f;" horiz-adv-x="288" 
d="M230 -184c-28 -10 -59 -15 -93 -15c-81 0 -123 34 -123 91c0 43 27 75 84 108h-37v508h166v-508c-48 -32 -65 -54 -65 -79c0 -20 11 -30 33 -30c12 0 24 2 35 7v-82zM227 712v-131h-166v131h166z" />
    <glyph glyph-name="Idotaccent" unicode="&#x130;" horiz-adv-x="325" 
d="M76 0v712h173v-712h-173zM245 900v-131h-166v131h166z" />
    <glyph glyph-name="dotlessi" unicode="&#x131;" horiz-adv-x="288" 
d="M227 508v-508h-166v508h166z" />
    <glyph glyph-name="IJ" unicode="&#x132;" horiz-adv-x="735" 
d="M340 145c15 -3 30 -5 45 -5c76 0 106 29 106 139v433h173v-471c0 -171 -77 -249 -246 -249c-31 0 -57 3 -78 9v144zM249 712v-712h-173v712h173z" />
    <glyph glyph-name="ij" unicode="&#x133;" horiz-adv-x="577" 
d="M249 -65c8 -2 17 -3 26 -3c52 0 75 24 75 97v479h166v-507c0 -131 -72 -191 -187 -191c-31 0 -58 3 -80 9v116zM61 508h166v-508h-166v508zM227 712v-131h-166v131h166zM516 581h-166v131h166v-131z" />
    <glyph glyph-name="Jcircumflex" unicode="&#x134;" horiz-adv-x="410" 
d="M339 241c0 -171 -77 -249 -246 -249c-31 0 -57 3 -78 9v144c15 -3 30 -5 45 -5c76 0 106 29 106 139v433h173v-471zM56 760l120 151h156l120 -151h-138l-60 79l-60 -79h-138z" />
    <glyph glyph-name="jcircumflex" unicode="&#x135;" horiz-adv-x="289" 
d="M44 -47c12 14 18 39 18 76v479h166v-507c0 -131 -72 -191 -187 -191c-31 0 -58 3 -80 9v116c8 -2 17 -3 26 -3c26 0 45 7 57 21zM72 712h146l108 -146h-130l-51 71l-50 -71h-131z" />
    <glyph glyph-name="Kcommaaccent" unicode="&#x136;" horiz-adv-x="690" 
d="M468 0l-217 328h-2v-328h-173v712h173v-307h2l209 307h207l-259 -337l278 -375h-218zM324 -166h-46v112h134v-112l-71 -109h-63z" />
    <glyph glyph-name="kcommaaccent" unicode="&#x137;" horiz-adv-x="566" 
d="M576 0h-204l-143 230h-2v-230h-166v712h166v-404h2l136 200h192l-181 -237zM276 -166h-46v112h134v-112l-71 -109h-63z" />
    <glyph glyph-name="kgreenlandic" unicode="&#x138;" horiz-adv-x="577" 
d="M61 0v508h166v-200h2l136 200h192l-181 -237l200 -271h-204l-143 230h-2v-230h-166z" />
    <glyph glyph-name="Lacute" unicode="&#x139;" horiz-adv-x="580" 
d="M249 712v-565h322v-147h-495v712h173zM96 760l78 151h191l-141 -151h-128z" />
    <glyph glyph-name="lacute" unicode="&#x13a;" horiz-adv-x="288" 
d="M61 0v712h166v-712h-166zM139 916h191l-141 -148h-128z" />
    <glyph glyph-name="Lcommaaccent" unicode="&#x13b;" horiz-adv-x="580" 
d="M76 0v712h173v-565h322v-147h-495zM257 -166v112h134v-112l-71 -109h-63l46 109h-46z" />
    <glyph glyph-name="lcommaaccent" unicode="&#x13c;" horiz-adv-x="288" 
d="M227 712v-712h-166v712h166zM211 -54v-112l-71 -109h-63l46 109h-46v112h134z" />
    <glyph glyph-name="Lcaron" unicode="&#x13d;" horiz-adv-x="580" 
d="M249 712v-565h322v-147h-495v712h173zM309 712h130l-60 -229h-94z" />
    <glyph glyph-name="lcaron" unicode="&#x13e;" horiz-adv-x="288" 
d="M61 0v712h166v-712h-166zM279 712h130l-60 -178h-94z" />
    <glyph glyph-name="Ldot" unicode="&#x13f;" horiz-adv-x="663" 
d="M76 0v712h173v-565h322v-147h-495zM579 528v-183h-176v183h176z" />
    <glyph glyph-name="ldot" unicode="&#x140;" horiz-adv-x="513" 
d="M227 712v-712h-166v712h166zM489 447v-183h-176v183h176z" />
    <glyph glyph-name="Lslash" unicode="&#x141;" horiz-adv-x="587" 
d="M12 236v134l71 42v300h173v-212l144 86v-134l-144 -86v-219h322v-147h-495v278z" />
    <glyph glyph-name="lslash" unicode="&#x142;" horiz-adv-x="352" 
d="M10 220v127l83 49v316h166v-237l83 49v-127l-83 -49v-348h-166v269z" />
    <glyph glyph-name="Nacute" unicode="&#x143;" horiz-adv-x="801" 
d="M726 0h-250l-124 281c-44 99 -83 194 -116 285h-2c5 -107 8 -207 8 -300v-266h-166v712h249l125 -281c44 -102 83 -197 116 -285h2c-5 89 -8 189 -8 300v266h166v-712zM305 760l78 151h191l-141 -151h-128z" />
    <glyph glyph-name="nacute" unicode="&#x144;" 
d="M552 0h-166v294c0 65 -26 98 -74 98c-53 0 -85 -44 -85 -129v-263h-166v508h155v-61h2c35 47 85 74 148 74c116 0 186 -73 186 -209v-312zM289 712h191l-141 -148h-128z" />
    <glyph glyph-name="Ncommaaccent" unicode="&#x145;" horiz-adv-x="801" 
d="M726 0h-250l-124 281c-44 99 -83 194 -116 285h-2c5 -107 8 -207 8 -300v-266h-166v712h249l125 -281c44 -102 83 -197 116 -285h2c-5 89 -8 189 -8 300v266h166v-712zM380 -166h-46v112h134v-112l-71 -109h-63z" />
    <glyph glyph-name="ncommaaccent" unicode="&#x146;" 
d="M552 0h-166v294c0 65 -26 98 -74 98c-53 0 -85 -44 -85 -129v-263h-166v508h155v-61h2c35 47 85 74 148 74c116 0 186 -73 186 -209v-312zM374 -54v-112l-71 -109h-63l46 109h-46v112h134z" />
    <glyph glyph-name="Ncaron" unicode="&#x147;" horiz-adv-x="801" 
d="M726 0h-250l-124 281c-44 99 -83 194 -116 285h-2c5 -107 8 -207 8 -300v-266h-166v712h249l125 -281c44 -102 83 -197 116 -285h2c-5 89 -8 189 -8 300v266h166v-712zM202 911h138l60 -79l60 79h138l-120 -151h-156z" />
    <glyph glyph-name="ncaron" unicode="&#x148;" 
d="M552 0h-166v294c0 65 -26 98 -74 98c-53 0 -85 -44 -85 -129v-263h-166v508h155v-61h2c35 47 85 74 148 74c116 0 186 -73 186 -209v-312zM249 712l58 -76l58 76h138l-118 -148h-156l-118 148h138z" />
    <glyph glyph-name="napostrophe" unicode="&#x149;" horiz-adv-x="778" 
d="M722 0h-166v294c0 65 -26 98 -74 98c-53 0 -85 -44 -85 -129v-263h-166v508h155v-61h2c35 47 85 74 148 74c116 0 186 -73 186 -209v-312zM106 556h-49v156h150v-156l-77 -152h-83z" />
    <glyph glyph-name="Eng" unicode="&#x14a;" horiz-adv-x="760" 
d="M684 -4c0 -129 -72 -190 -188 -190c-31 0 -57 3 -79 9v114c8 -2 17 -3 28 -3c45 0 68 18 68 59c0 11 -2 23 -7 34s-17 34 -36 68l-122 218c-44 81 -82 157 -114 228h-2c7 -80 10 -164 10 -252v-281h-166v712h214l122 -218c45 -81 82 -157 113 -228h2c-6 85 -9 170 -9 253
v193h166v-716z" />
    <glyph glyph-name="eng" unicode="&#x14b;" 
d="M552 3c0 -131 -72 -192 -187 -192c-30 0 -57 3 -80 9v117c8 -2 17 -3 26 -3c52 0 75 24 75 96v252c0 51 -6 74 -23 91c-13 13 -30 20 -51 20c-52 0 -85 -44 -85 -129v-264h-166v508h162v-56h2c37 47 89 70 145 70c54 0 97 -16 128 -47c39 -39 54 -86 54 -177v-295z" />
    <glyph glyph-name="Omacron" unicode="&#x14c;" horiz-adv-x="757" 
d="M681 158c-56 -112 -162 -174 -302 -174c-212 0 -345 143 -345 372s133 372 345 372c210 0 344 -143 344 -372c0 -76 -14 -142 -42 -198zM215 356c0 -140 60 -222 164 -222c103 0 163 82 163 222s-60 222 -163 222c-104 0 -164 -82 -164 -222zM558 879v-103h-359v103h359z
" />
    <glyph glyph-name="omacron" unicode="&#x14d;" horiz-adv-x="604" 
d="M541 111c-45 -81 -130 -127 -239 -127c-165 0 -272 105 -272 270s107 270 272 270s272 -105 272 -270c0 -55 -11 -102 -33 -143zM205 254c0 -89 36 -144 97 -144s97 55 97 144s-36 144 -97 144s-97 -55 -97 -144zM122 692h359v-103h-359v103z" />
    <glyph glyph-name="Obreve" unicode="&#x14e;" horiz-adv-x="757" 
d="M681 158c-56 -112 -162 -174 -302 -174c-212 0 -345 143 -345 372s133 372 345 372c210 0 344 -143 344 -372c0 -76 -14 -142 -42 -198zM215 356c0 -140 60 -222 164 -222c103 0 163 82 163 222s-60 222 -163 222c-104 0 -164 -82 -164 -222zM201 911h106
c3 -37 28 -58 72 -58s69 21 72 58h106c-5 -97 -70 -154 -178 -154s-173 57 -178 154z" />
    <glyph glyph-name="obreve" unicode="&#x14f;" horiz-adv-x="604" 
d="M541 111c-45 -81 -130 -127 -239 -127c-165 0 -272 105 -272 270s107 270 272 270s272 -105 272 -270c0 -55 -11 -102 -33 -143zM205 254c0 -89 36 -144 97 -144s97 55 97 144s-36 144 -97 144s-97 -55 -97 -144zM124 712h106c3 -37 28 -58 72 -58s69 21 72 58h106
c-5 -97 -70 -154 -178 -154s-173 57 -178 154z" />
    <glyph glyph-name="Ohungarumlaut" unicode="&#x150;" horiz-adv-x="757" 
d="M681 158c-56 -112 -162 -174 -302 -174c-212 0 -345 143 -345 372s133 372 345 372c210 0 344 -143 344 -372c0 -76 -14 -142 -42 -198zM215 356c0 -140 60 -222 164 -222c103 0 163 82 163 222s-60 222 -163 222c-104 0 -164 -82 -164 -222zM383 760l99 151h166
l-141 -151h-124zM276 911h166l-141 -151h-123z" />
    <glyph glyph-name="ohungarumlaut" unicode="&#x151;" horiz-adv-x="604" 
d="M574 254c0 -165 -107 -270 -272 -270s-272 105 -272 270s107 270 272 270s272 -105 272 -270zM205 254c0 -89 36 -144 97 -144s97 55 97 144s-36 144 -97 144s-97 -55 -97 -144zM416 712h166l-141 -148h-124zM210 712h166l-141 -148h-123z" />
    <glyph glyph-name="OE" unicode="&#x152;" horiz-adv-x="1021" 
d="M974 0h-555c-123 0 -217 31 -284 93s-101 150 -101 263s34 201 101 263s161 93 284 93h548v-145h-331v-135h307v-143h-307v-144h338v-145zM266 199c34 -36 85 -54 153 -54h47v422h-47c-137 0 -205 -70 -205 -211c0 -69 17 -122 52 -157z" />
    <glyph glyph-name="oe" unicode="&#x153;" horiz-adv-x="938" 
d="M30 254c0 165 106 270 269 270c73 0 131 -23 176 -70c41 45 102 70 174 70c119 0 205 -62 240 -163c13 -37 19 -84 19 -141h-354c4 -89 41 -125 96 -125c45 0 76 25 81 61h170c-22 -97 -116 -172 -250 -172c-73 0 -135 25 -176 70c-45 -47 -103 -70 -176 -70
c-163 0 -269 105 -269 270zM231 149c17 -26 40 -39 71 -39c61 0 97 55 97 144s-36 144 -97 144s-97 -55 -97 -144c0 -45 9 -80 26 -105zM712 390c-17 17 -38 25 -63 25c-48 0 -83 -32 -92 -101h184c-3 34 -12 59 -29 76z" />
    <glyph glyph-name="Racute" unicode="&#x154;" horiz-adv-x="685" 
d="M674 0h-186l-54 161c-25 75 -53 99 -120 99h-65v-260h-173v712h289c175 0 262 -68 262 -203c0 -87 -50 -150 -131 -174v-2c25 -9 46 -23 61 -43c15 -21 31 -54 48 -100zM344 391c75 0 112 32 112 96c0 61 -40 91 -119 91h-88v-187h95zM316 911h191l-141 -151h-128z" />
    <glyph glyph-name="racute" unicode="&#x155;" horiz-adv-x="415" 
d="M215 438h2c35 53 80 78 143 78c17 0 33 -2 48 -6v-142c-19 3 -36 5 -51 5c-84 0 -130 -53 -130 -150v-223h-166v508h154v-70zM202 712h191l-141 -148h-128z" />
    <glyph glyph-name="Rcommaaccent" unicode="&#x156;" horiz-adv-x="685" 
d="M674 0h-186l-54 161c-25 75 -53 99 -120 99h-65v-260h-173v712h289c175 0 262 -68 262 -203c0 -87 -50 -150 -131 -174v-2c25 -9 46 -23 61 -43c15 -21 31 -54 48 -100zM344 391c75 0 112 32 112 96c0 61 -40 91 -119 91h-88v-187h95zM421 -54v-112l-71 -109h-63l46 109
h-46v112h134z" />
    <glyph glyph-name="rcommaaccent" unicode="&#x157;" horiz-adv-x="415" 
d="M408 368c-19 3 -36 5 -51 5c-84 0 -130 -53 -130 -150v-223h-166v508h154v-70h2c35 53 80 78 143 78c17 0 33 -2 48 -6v-142zM211 -54v-112l-71 -109h-63l46 109h-46v112h134z" />
    <glyph glyph-name="Rcaron" unicode="&#x158;" horiz-adv-x="685" 
d="M674 0h-186l-54 161c-25 75 -53 99 -120 99h-65v-260h-173v712h289c175 0 262 -68 262 -203c0 -87 -50 -150 -131 -174v-2c25 -9 46 -23 61 -43c15 -21 31 -54 48 -100zM249 391h95c75 0 112 32 112 96c0 61 -40 91 -119 91h-88v-187zM273 911l60 -79l60 79h138
l-120 -151h-156l-120 151h138z" />
    <glyph glyph-name="rcaron" unicode="&#x159;" horiz-adv-x="415" 
d="M408 368c-19 3 -36 5 -51 5c-84 0 -130 -53 -130 -150v-223h-166v508h154v-70h2c35 53 80 78 143 78c17 0 33 -2 48 -6v-142zM23 712h138l58 -76l58 76h138l-118 -148h-156z" />
    <glyph glyph-name="Sacute" unicode="&#x15a;" horiz-adv-x="645" 
d="M580 329c22 -29 33 -68 33 -117c0 -138 -115 -228 -291 -228c-187 0 -298 91 -298 248h184c0 -73 39 -110 118 -110c65 0 105 28 105 75c0 35 -18 53 -53 66c-17 6 -45 14 -83 24c-58 15 -104 29 -139 44s-63 36 -86 65s-34 67 -34 115c0 130 109 217 279 217
c180 0 279 -81 279 -233h-180c0 64 -38 99 -106 99c-57 0 -94 -27 -94 -67c4 -47 29 -59 142 -88c57 -14 103 -28 138 -43s63 -38 86 -67zM297 911h191l-141 -151h-128z" />
    <glyph glyph-name="sacute" unicode="&#x15b;" horiz-adv-x="542" 
d="M510 147c0 -99 -89 -163 -236 -163c-157 0 -243 60 -243 181h167c0 -48 26 -72 78 -72c41 0 64 17 64 42c-5 38 -22 43 -117 69c-79 20 -122 34 -155 76c-17 21 -25 49 -25 85c0 95 83 159 224 159c143 0 225 -58 225 -170h-158c0 43 -23 65 -68 65
c-37 0 -59 -15 -59 -40c3 -31 19 -38 104 -60c85 -23 134 -39 171 -83c19 -23 28 -52 28 -89zM172 564l78 148h191l-141 -148h-128z" />
    <glyph glyph-name="Scircumflex" unicode="&#x15c;" horiz-adv-x="645" 
d="M418 238c-19 20 -47 29 -123 49c-58 15 -104 29 -139 44s-63 36 -86 65s-34 67 -34 115c0 130 109 217 279 217c180 0 279 -81 279 -233h-180c0 64 -38 99 -106 99c-57 0 -94 -27 -94 -67c4 -47 29 -59 142 -88c57 -14 103 -28 138 -43s63 -38 86 -67
c22 -29 33 -68 33 -117c0 -138 -115 -228 -291 -228c-187 0 -298 91 -298 248h184c0 -73 39 -110 118 -110c65 0 105 28 105 75c0 17 -4 31 -13 41zM116 760l120 151h156l120 -151h-138l-60 79l-60 -79h-138z" />
    <glyph glyph-name="scircumflex" unicode="&#x15d;" horiz-adv-x="542" 
d="M482 236c19 -23 28 -52 28 -89c0 -99 -89 -163 -236 -163c-157 0 -243 60 -243 181h167c0 -48 26 -72 78 -72c41 0 64 17 64 42c-5 38 -22 43 -117 69c-79 20 -122 34 -155 76c-17 21 -25 49 -25 85c0 95 83 159 224 159c143 0 225 -58 225 -170h-158c0 43 -23 65 -68 65
c-37 0 -59 -15 -59 -40c3 -31 19 -38 104 -60c85 -23 134 -39 171 -83zM71 564l118 148h156l118 -148h-138l-58 76l-58 -76h-138z" />
    <glyph glyph-name="Scedilla" unicode="&#x15e;" horiz-adv-x="645" 
d="M349 -15l-28 -45c10 3 21 5 33 5c52 0 87 -30 87 -78c0 -57 -47 -99 -128 -99c-43 0 -83 11 -120 32l26 53c29 -15 56 -22 81 -22c28 0 44 11 44 31s-16 33 -44 33c-12 0 -22 -2 -31 -6l-29 27l42 69c-163 13 -258 102 -258 247h184c0 -73 39 -110 118 -110
c65 0 105 28 105 75c0 35 -18 53 -53 66c-17 6 -45 14 -83 24c-58 15 -104 29 -139 44s-63 36 -86 65s-34 67 -34 115c0 130 109 217 279 217c180 0 279 -81 279 -233h-180c0 64 -38 99 -106 99c-57 0 -94 -27 -94 -67c4 -47 29 -59 142 -88c57 -14 103 -28 138 -43
s63 -38 86 -67c22 -29 33 -68 33 -117c0 -131 -104 -219 -264 -227z" />
    <glyph glyph-name="scedilla" unicode="&#x15f;" horiz-adv-x="542" 
d="M305 -15l-28 -45c10 3 21 5 33 5c52 0 87 -30 87 -78c0 -57 -47 -99 -128 -99c-43 0 -83 11 -120 32l26 53c29 -15 56 -22 81 -22c28 0 44 11 44 31s-16 33 -44 33c-11 0 -22 -2 -31 -6l-29 27l42 69c-135 9 -207 68 -207 180h167c0 -48 26 -72 78 -72c41 0 64 17 64 42
c-5 38 -22 43 -117 69c-79 20 -122 34 -155 76c-17 21 -25 49 -25 85c0 95 83 159 224 159c143 0 225 -58 225 -170h-158c0 43 -23 65 -68 65c-37 0 -59 -15 -59 -40c3 -31 19 -38 104 -60c85 -23 134 -39 171 -83c19 -23 28 -52 28 -89c0 -92 -77 -154 -205 -162z" />
    <glyph glyph-name="Scaron" unicode="&#x160;" horiz-adv-x="645" 
d="M418 238c-19 20 -47 29 -123 49c-58 15 -104 29 -139 44s-63 36 -86 65s-34 67 -34 115c0 130 109 217 279 217c180 0 279 -81 279 -233h-180c0 64 -38 99 -106 99c-57 0 -94 -27 -94 -67c4 -47 29 -59 142 -88c57 -14 103 -28 138 -43s63 -38 86 -67
c22 -29 33 -68 33 -117c0 -138 -115 -228 -291 -228c-187 0 -298 91 -298 248h184c0 -73 39 -110 118 -110c65 0 105 28 105 75c0 17 -4 31 -13 41zM116 911h138l60 -79l60 79h138l-120 -151h-156z" />
    <glyph glyph-name="scaron" unicode="&#x161;" horiz-adv-x="542" 
d="M482 236c19 -23 28 -52 28 -89c0 -99 -89 -163 -236 -163c-157 0 -243 60 -243 181h167c0 -48 26 -72 78 -72c41 0 64 17 64 42c-5 38 -22 43 -117 69c-79 20 -122 34 -155 76c-17 21 -25 49 -25 85c0 95 83 159 224 159c143 0 225 -58 225 -170h-158c0 43 -23 65 -68 65
c-37 0 -59 -15 -59 -40c3 -31 19 -38 104 -60c85 -23 134 -39 171 -83zM71 712h138l58 -76l58 76h138l-118 -148h-156z" />
    <glyph glyph-name="Tcommaaccent" unicode="&#x162;" horiz-adv-x="627" 
d="M9 565v147h609v-147h-218v-565h-173v565h-218zM247 -166v112h134v-112l-71 -109h-63l46 109h-46z" />
    <glyph glyph-name="tcommaaccent" unicode="&#x163;" horiz-adv-x="378" 
d="M353 3c-23 -7 -59 -11 -84 -11c-128 0 -183 50 -183 169v226h-79v121h79v137h166v-137h96v-121h-96v-188c0 -55 19 -76 64 -76c13 0 26 2 37 5v-125zM144 -166v112h134v-112l-71 -109h-63l46 109h-46z" />
    <glyph glyph-name="Tcaron" unicode="&#x164;" horiz-adv-x="627" 
d="M9 712h609v-147h-218v-565h-173v565h-218v147zM253 911l60 -79l60 79h138l-120 -151h-156l-120 151h138z" />
    <glyph glyph-name="tcaron" unicode="&#x165;" horiz-adv-x="378" 
d="M86 508v137h166v-137h96v-121h-96v-188c0 -55 19 -76 64 -76c13 0 26 2 37 5v-125c-23 -7 -59 -11 -84 -11c-128 0 -183 50 -183 169v226h-79v121h79zM374 534h-94l24 178h130z" />
    <glyph glyph-name="Tbar" unicode="&#x166;" horiz-adv-x="627" 
d="M9 565v147h609v-147h-218v-173h132v-114h-132v-278h-173v278h-132v114h132v173h-218z" />
    <glyph glyph-name="tbar" unicode="&#x167;" horiz-adv-x="378" 
d="M353 3c-23 -7 -59 -11 -84 -11c-128 0 -182 49 -182 169v59h-76v89h76v82h-80v117h80v137h165v-137h96v-117h-96v-82h91v-89h-91v-24c0 -55 17 -76 64 -76c13 0 26 2 37 5v-122z" />
    <glyph glyph-name="Utilde" unicode="&#x168;" horiz-adv-x="725" 
d="M655 276c0 -188 -105 -292 -293 -292c-187 0 -292 104 -292 292v436h173v-432c0 -93 42 -144 119 -144c79 0 120 51 120 144v432h173v-436zM167 768c4 89 48 143 124 143c31 0 47 -8 84 -25c21 -12 37 -18 50 -18c27 0 39 14 43 43h89c-5 -89 -49 -143 -125 -143
c-31 0 -52 9 -83 25c-21 12 -38 18 -51 18c-25 0 -39 -14 -42 -43h-89z" />
    <glyph glyph-name="utilde" unicode="&#x169;" 
d="M547 0h-155v61h-2c-35 -47 -85 -74 -148 -74c-116 0 -186 73 -186 209v312h166v-294c0 -65 26 -98 74 -98c53 0 85 44 85 129v263h166v-508zM109 569c4 89 48 143 124 143c31 0 47 -8 84 -25c21 -12 37 -18 50 -18c27 0 39 14 43 43h89c-5 -89 -49 -143 -125 -143
c-31 0 -52 9 -83 25c-21 12 -38 18 -51 18c-25 0 -39 -14 -42 -43h-89z" />
    <glyph glyph-name="Umacron" unicode="&#x16a;" horiz-adv-x="725" 
d="M655 276c0 -188 -105 -292 -293 -292c-187 0 -292 104 -292 292v436h173v-432c0 -93 42 -144 119 -144c79 0 120 51 120 144v432h173v-436zM182 879h359v-103h-359v103z" />
    <glyph glyph-name="umacron" unicode="&#x16b;" 
d="M547 0h-155v61h-2c-35 -47 -85 -74 -148 -74c-116 0 -186 73 -186 209v312h166v-294c0 -65 26 -98 74 -98c53 0 85 44 85 129v263h166v-508zM484 692v-103h-359v103h359z" />
    <glyph glyph-name="Ubreve" unicode="&#x16c;" horiz-adv-x="725" 
d="M655 276c0 -188 -105 -292 -293 -292c-187 0 -292 104 -292 292v436h173v-432c0 -93 42 -144 119 -144c79 0 120 51 120 144v432h173v-436zM184 911h106c3 -37 28 -58 72 -58s69 21 72 58h106c-5 -97 -70 -154 -178 -154s-173 57 -178 154z" />
    <glyph glyph-name="ubreve" unicode="&#x16d;" 
d="M547 0h-155v61h-2c-35 -47 -85 -74 -148 -74c-116 0 -186 73 -186 209v312h166v-294c0 -65 26 -98 74 -98c53 0 85 44 85 129v263h166v-508zM232 712c3 -37 28 -58 72 -58s69 21 72 58h106c-5 -97 -70 -154 -178 -154s-173 57 -178 154h106z" />
    <glyph glyph-name="Uring" unicode="&#x16e;" horiz-adv-x="725" 
d="M655 276c0 -188 -105 -292 -293 -292c-187 0 -292 104 -292 292v436h173v-432c0 -93 42 -144 119 -144c79 0 120 51 120 144v432h173v-436zM248 865c0 31 11 58 34 81c22 22 49 33 80 33s58 -11 81 -33c22 -23 33 -50 33 -81s-11 -58 -33 -80c-23 -22 -50 -33 -81 -33
s-58 11 -80 33c-23 22 -34 49 -34 80zM306 865c0 -31 25 -56 56 -56s56 25 56 56s-25 56 -56 56s-56 -25 -56 -56z" />
    <glyph glyph-name="uring" unicode="&#x16f;" 
d="M392 61h-2c-35 -47 -85 -74 -148 -74c-116 0 -186 73 -186 209v312h166v-294c0 -65 26 -98 74 -98c53 0 85 44 85 129v263h166v-508h-155v61zM190 666c0 31 11 58 34 81c22 22 49 33 80 33s58 -11 81 -33c22 -23 33 -50 33 -81s-11 -58 -33 -80c-23 -22 -50 -33 -81 -33
s-58 11 -80 33c-23 22 -34 49 -34 80zM248 666c0 -31 25 -56 56 -56s56 25 56 56s-25 56 -56 56s-56 -25 -56 -56z" />
    <glyph glyph-name="Uhungarumlaut" unicode="&#x170;" horiz-adv-x="725" 
d="M655 276c0 -188 -105 -292 -293 -292c-187 0 -292 104 -292 292v436h173v-432c0 -93 42 -144 119 -144c79 0 120 51 120 144v432h173v-436zM367 760l99 151h166l-141 -151h-124zM162 760l98 151h166l-141 -151h-123z" />
    <glyph glyph-name="uhungarumlaut" unicode="&#x171;" 
d="M547 0h-155v61h-2c-35 -47 -85 -74 -148 -74c-116 0 -186 73 -186 209v312h166v-294c0 -65 26 -98 74 -98c53 0 85 44 85 129v263h166v-508zM418 712h166l-141 -148h-124zM114 564l98 148h166l-141 -148h-123z" />
    <glyph glyph-name="Uogonek" unicode="&#x172;" horiz-adv-x="725" 
d="M655 276c0 -115 -39 -194 -115 -255c-48 -39 -64 -65 -64 -96c0 -23 11 -35 33 -35c14 0 25 2 34 6v-80c-25 -10 -55 -15 -89 -15c-81 0 -122 34 -122 93c0 36 19 62 58 90v2c-12 -1 -21 -2 -28 -2c-187 0 -292 104 -292 292v436h173v-432c0 -93 42 -144 119 -144
c79 0 120 51 120 144v432h173v-436z" />
    <glyph glyph-name="uogonek" unicode="&#x173;" 
d="M551 -184c-28 -10 -59 -15 -93 -15c-81 0 -123 34 -123 91c0 43 27 75 84 108h-27v61h-2c-35 -47 -85 -74 -148 -74c-116 0 -186 73 -186 209v312h166v-294c0 -65 26 -98 74 -98c53 0 85 44 85 129v263h166v-508h1c-48 -32 -65 -54 -65 -79c0 -20 11 -30 33 -30
c11 0 23 2 35 7v-82z" />
    <glyph glyph-name="Wcircumflex" unicode="&#x174;" horiz-adv-x="991" 
d="M839 0h-230l-60 285c-22 98 -40 193 -53 286h-2c-13 -87 -30 -182 -52 -286l-60 -285h-230l-144 712h168l48 -257c19 -105 35 -205 46 -298h2c17 101 36 201 57 298l56 257h221l56 -257c23 -102 41 -201 56 -298h2c13 99 28 198 47 298l47 257h169zM296 760l120 151h156
l120 -151h-138l-60 79l-60 -79h-138z" />
    <glyph glyph-name="wcircumflex" unicode="&#x175;" horiz-adv-x="848" 
d="M731 0h-227l-41 191c-15 73 -28 144 -38 213h-2c-10 -69 -23 -140 -38 -213l-41 -191h-227l-113 508h162l33 -187c13 -74 24 -146 32 -216h2c12 79 26 152 41 217l42 186h216l42 -186c15 -65 29 -138 41 -217h2c8 70 19 142 32 216l33 187h162zM228 564l118 148h156
l118 -148h-138l-58 76l-58 -76h-138z" />
    <glyph glyph-name="Ycircumflex" unicode="&#x176;" horiz-adv-x="663" 
d="M662 712l-244 -443v-269h-173v269l-244 443h192l62 -129c29 -59 54 -119 76 -179h2c20 57 45 117 75 179l62 129h192zM133 760l120 151h156l120 -151h-138l-60 79l-60 -79h-138z" />
    <glyph glyph-name="ycircumflex" unicode="&#x177;" horiz-adv-x="530" 
d="M538 508l-169 -499c-52 -151 -112 -201 -244 -201c-29 0 -57 3 -86 9v126c16 -5 33 -8 51 -8c47 0 77 25 77 66c0 9 -2 20 -5 32c-3 11 -11 33 -23 66l-149 409h179l49 -170c21 -79 38 -149 51 -212h2c14 71 31 142 51 213l47 169h169zM71 564l118 148h156l118 -148h-138
l-58 76l-58 -76h-138z" />
    <glyph glyph-name="Ydieresis" unicode="&#x178;" horiz-adv-x="663" 
d="M1 712h192l62 -129c29 -59 54 -119 76 -179h2c20 57 45 117 75 179l62 129h192l-244 -443v-269h-173v269zM147 900h143v-131h-143v131zM516 769h-142v131h142v-131z" />
    <glyph glyph-name="Zacute" unicode="&#x179;" horiz-adv-x="593" 
d="M20 150l329 416v2h-314v144h521v-150l-329 -416v-2h345v-144h-552v150zM278 911h191l-141 -151h-128z" />
    <glyph glyph-name="zacute" unicode="&#x17a;" horiz-adv-x="502" 
d="M29 131l231 248v2h-222v127h427v-131l-232 -248v-2h240v-127h-444v131zM232 712h191l-141 -148h-128z" />
    <glyph glyph-name="Zdotaccent" unicode="&#x17b;" horiz-adv-x="593" 
d="M20 150l329 416v2h-314v144h521v-150l-329 -416v-2h345v-144h-552v150zM379 900v-131h-166v131h166z" />
    <glyph glyph-name="zdotaccent" unicode="&#x17c;" horiz-adv-x="502" 
d="M29 131l231 248v2h-222v127h427v-131l-232 -248v-2h240v-127h-444v131zM332 712v-131h-166v131h166z" />
    <glyph glyph-name="Zcaron" unicode="&#x17d;" horiz-adv-x="593" 
d="M572 0h-552v150l329 416v2h-314v144h521v-150l-329 -416v-2h345v-144zM236 911l60 -79l60 79h138l-120 -151h-156l-120 151h138z" />
    <glyph glyph-name="zcaron" unicode="&#x17e;" horiz-adv-x="502" 
d="M473 0h-444v131l231 248v2h-222v127h427v-131l-232 -248v-2h240v-127zM191 712l58 -76l58 76h138l-118 -148h-156l-118 148h138z" />
    <glyph glyph-name="longs" unicode="&#x17f;" horiz-adv-x="361" 
d="M9 508h81v37c0 117 64 176 183 176c29 0 55 -3 79 -9v-114c-7 1 -15 2 -24 2c-51 0 -74 -21 -74 -74v-526h-164v387h-81v121z" />
    <glyph glyph-name="uni018F" unicode="&#x18f;" horiz-adv-x="775" 
d="M699 166c-57 -113 -169 -182 -314 -182c-214 0 -351 145 -351 371c0 23 1 41 3 55h524c-8 121 -82 178 -183 178c-77 0 -128 -39 -140 -96h-185c28 132 146 236 326 236c224 2 364 -150 362 -371c0 -71 -14 -134 -42 -191zM217 281c13 -103 80 -156 168 -156
c91 0 155 53 172 156h-340z" />
    <glyph glyph-name="florin" unicode="&#x192;" horiz-adv-x="628" 
d="M603 594c-15 4 -33 6 -53 6c-53 0 -81 -24 -96 -84l-12 -48h111v-118h-139l-85 -334c-37 -147 -105 -208 -230 -208c-29 0 -53 3 -74 9v121c15 -4 31 -6 50 -6c53 0 77 22 96 98l82 320h-101v118h129l16 62c35 133 103 194 223 194c30 0 58 -3 83 -10v-120z" />
    <glyph glyph-name="Aringacute" unicode="&#x1fa;" horiz-adv-x="715" 
d="M714 0h-182l-45 151h-258l-46 -151h-182l243 712h227zM277 927c22 22 49 33 80 33s58 -11 81 -33c22 -23 33 -50 33 -81s-11 -58 -33 -80c-23 -22 -50 -33 -81 -33s-58 11 -80 33c-23 22 -34 49 -34 80s11 58 34 81zM272 293h173l-15 48c-29 95 -53 181 -72 259h-2
c-20 -83 -43 -169 -70 -259zM262 982l78 151h191l-141 -151h-128zM301 846c0 -31 25 -56 56 -56s56 25 56 56s-25 56 -56 56s-56 -25 -56 -56z" />
    <glyph glyph-name="aringacute" unicode="&#x1fb;" horiz-adv-x="561" 
d="M449 472c38 -35 57 -87 57 -154v-175c0 -60 5 -108 15 -143h-150c-5 19 -7 41 -7 66h-2c-39 -53 -94 -79 -165 -79c-54 0 -97 15 -128 44s-47 67 -47 112c0 89 57 141 202 164c42 7 83 11 122 14v18c0 55 -27 80 -71 80c-45 0 -71 -26 -72 -71h-160c5 103 83 176 232 176
c77 0 135 -17 174 -52zM350 578c-23 -22 -50 -33 -81 -33s-58 11 -80 33c-23 22 -34 49 -34 80s11 58 34 81c22 22 49 33 80 33s58 -11 81 -33c22 -23 33 -50 33 -81s-11 -58 -33 -80zM302 794h-128l78 148h191zM321 123c20 21 25 44 25 89v18c-32 -1 -62 -5 -90 -10
c-49 -9 -70 -29 -70 -65s24 -58 65 -58c27 0 53 9 70 26zM309 698c-11 11 -25 16 -40 16c-31 0 -56 -25 -56 -56s25 -56 56 -56s56 25 56 56c0 15 -5 29 -16 40z" />
    <glyph glyph-name="AEacute" unicode="&#x1fc;" horiz-adv-x="977" 
d="M930 0h-410l-23 160h-245l-67 -160h-191l318 712h611v-145h-319l19 -135h276v-143h-256l21 -144h266v-145zM499 911h191l-141 -151h-128zM477 303l-39 269h-14l-112 -269h165z" />
    <glyph glyph-name="aeacute" unicode="&#x1fd;" horiz-adv-x="895" 
d="M499 6c-32 15 -59 36 -80 63c-39 -57 -106 -85 -191 -85c-129 0 -206 68 -206 159c0 116 85 169 280 169h55v27c0 55 -25 80 -77 80c-47 0 -75 -26 -76 -71h-160c5 103 85 176 237 176c75 0 131 -18 168 -54c43 36 95 54 158 54c117 0 204 -62 240 -163
c13 -37 18 -78 18 -141h-353c3 -83 35 -125 95 -125c45 0 75 25 82 61h169c-20 -97 -118 -172 -249 -172c-41 0 -78 7 -110 22zM349 564l78 148h191l-141 -148h-128zM186 154c0 -37 25 -62 69 -62c30 0 55 9 74 27c21 23 28 46 28 93v12h-47c-89 0 -124 -23 -124 -70z
M699 311c-5 69 -43 104 -92 104c-51 0 -86 -33 -94 -104h186z" />
    <glyph glyph-name="Oslashacute" unicode="&#x1fe;" horiz-adv-x="757" 
d="M723 356c0 -229 -134 -372 -344 -372c-72 0 -134 16 -187 47l-58 -79l-71 52l61 83c-59 64 -90 157 -90 269c0 229 133 372 345 372c73 0 135 -16 186 -47l59 79l70 -52l-61 -83c59 -64 90 -157 90 -269zM379 125c109 0 172 86 172 231c0 52 -7 95 -22 129l-245 -331
c27 -19 58 -29 95 -29zM207 356c0 -49 7 -91 22 -128l245 330c-27 19 -58 29 -95 29c-109 0 -172 -86 -172 -231zM283 760l78 151h191l-141 -151h-128z" />
    <glyph glyph-name="oslashacute" unicode="&#x1ff;" horiz-adv-x="604" 
d="M574 254c0 -165 -107 -270 -272 -270c-49 0 -93 9 -133 27l-51 -69l-61 44l50 68c-49 48 -77 117 -77 200c0 165 107 270 272 270c50 0 95 -9 134 -28l51 70l61 -46l-50 -67c49 -48 76 -115 76 -199zM206 564l78 148h191l-141 -148h-128zM205 178l155 209
c-17 13 -36 19 -58 19c-68 0 -108 -59 -108 -152c0 -27 4 -53 11 -76zM302 102c67 0 108 59 108 152c0 26 -4 51 -11 74l-154 -208c16 -12 35 -18 57 -18z" />
    <glyph glyph-name="Scommaaccent" unicode="&#x218;" horiz-adv-x="645" 
d="M418 238c-19 20 -47 29 -123 49c-58 15 -104 29 -139 44s-63 36 -86 65s-34 67 -34 115c0 130 109 217 279 217c180 0 279 -81 279 -233h-180c0 64 -38 99 -106 99c-57 0 -94 -27 -94 -67c4 -47 29 -59 142 -88c57 -14 103 -28 138 -43s63 -38 86 -67
c22 -29 33 -68 33 -117c0 -138 -115 -228 -291 -228c-187 0 -298 91 -298 248h184c0 -73 39 -110 118 -110c65 0 105 28 105 75c0 17 -4 31 -13 41zM296 -166h-46v112h134v-112l-71 -109h-63z" />
    <glyph glyph-name="scommaaccent" unicode="&#x219;" horiz-adv-x="542" 
d="M482 236c19 -23 28 -52 28 -89c0 -99 -89 -163 -236 -163c-157 0 -243 60 -243 181h167c0 -48 26 -72 78 -72c41 0 64 17 64 42c-5 38 -22 43 -117 69c-79 20 -122 34 -155 76c-17 21 -25 49 -25 85c0 95 83 159 224 159c143 0 225 -58 225 -170h-158c0 43 -23 65 -68 65
c-37 0 -59 -15 -59 -40c3 -31 19 -38 104 -60c85 -23 134 -39 171 -83zM252 -166h-46v112h134v-112l-71 -109h-63z" />
    <glyph glyph-name="uni021A" unicode="&#x21a;" horiz-adv-x="627" 
d="M9 565v147h609v-147h-218v-565h-173v565h-218zM247 -166v112h134v-112l-71 -109h-63l46 109h-46z" />
    <glyph glyph-name="uni021B" unicode="&#x21b;" horiz-adv-x="378" 
d="M353 3c-23 -7 -59 -11 -84 -11c-128 0 -183 50 -183 169v226h-79v121h79v137h166v-137h96v-121h-96v-188c0 -55 19 -76 64 -76c13 0 26 2 37 5v-125zM144 -275l46 109h-46v112h134v-112l-71 -109h-63z" />
    <glyph glyph-name="uni0237" unicode="&#x237;" horiz-adv-x="289" 
d="M-13 -68c52 0 75 24 75 97v479h166v-507c0 -131 -72 -191 -187 -191c-31 0 -58 3 -80 9v116c8 -2 17 -3 26 -3z" />
    <glyph glyph-name="uni0259" unicode="&#x259;" horiz-adv-x="584" 
d="M554 255c0 -154 -100 -271 -263 -271c-159 0 -261 105 -261 269c0 13 1 26 2 38h358c-4 87 -42 122 -101 122c-41 0 -70 -24 -77 -57h-169c22 95 115 168 244 168c170 0 267 -112 267 -269zM196 197c7 -69 44 -104 95 -104c52 0 88 33 97 104h-192z" />
    <glyph glyph-name="afii57929" unicode="&#x2bc;" horiz-adv-x="266" 
d="M106 556h-49v156h150v-156l-77 -152h-83z" />
    <glyph glyph-name="circumflex" unicode="&#x2c6;" horiz-adv-x="492" 
d="M50 564l118 148h156l118 -148h-138l-58 76l-58 -76h-138z" />
    <glyph glyph-name="caron" unicode="&#x2c7;" horiz-adv-x="492" 
d="M188 712l58 -76l58 76h138l-118 -148h-156l-118 148h138z" />
    <glyph glyph-name="uni02C9" unicode="&#x2c9;" horiz-adv-x="459" 
d="M409 692v-103h-359v103h359z" />
    <glyph glyph-name="breve" unicode="&#x2d8;" horiz-adv-x="456" 
d="M50 712h106c3 -37 28 -58 72 -58s69 21 72 58h106c-5 -97 -70 -154 -178 -154s-173 57 -178 154z" />
    <glyph glyph-name="dotaccent" unicode="&#x2d9;" horiz-adv-x="266" 
d="M216 712v-131h-166v131h166z" />
    <glyph glyph-name="ring" unicode="&#x2da;" horiz-adv-x="328" 
d="M84 586c-23 22 -34 49 -34 80s11 58 34 81c22 22 49 33 80 33s58 -11 81 -33c22 -23 33 -50 33 -81s-11 -58 -33 -80c-23 -22 -50 -33 -81 -33s-58 11 -80 33zM108 666c0 -31 25 -56 56 -56s56 25 56 56s-25 56 -56 56s-56 -25 -56 -56z" />
    <glyph glyph-name="ogonek" unicode="&#x2db;" horiz-adv-x="316" 
d="M71 -51c13 17 34 34 63 51h129c-48 -32 -65 -54 -65 -79c0 -20 11 -30 33 -30c12 0 24 2 35 7v-82c-28 -10 -59 -15 -93 -15c-81 0 -123 34 -123 91c0 21 7 40 21 57z" />
    <glyph glyph-name="tilde" unicode="&#x2dc;" horiz-adv-x="490" 
d="M50 569c4 89 48 143 124 143c31 0 47 -8 84 -25c21 -12 37 -18 50 -18c27 0 39 14 43 43h89c-5 -89 -49 -143 -125 -143c-31 0 -52 9 -83 25c-21 12 -38 18 -51 18c-25 0 -39 -14 -42 -43h-89z" />
    <glyph glyph-name="hungarumlaut" unicode="&#x2dd;" horiz-adv-x="569" 
d="M354 712h166l-141 -148h-124zM50 564l98 148h166l-141 -148h-123z" />
    <glyph glyph-name="uni0312" unicode="&#x312;" horiz-adv-x="0" 
d="M50 684l71 109h63l-46 -109h46v-112h-134v112z" />
    <glyph glyph-name="uni0326" unicode="&#x326;" horiz-adv-x="0" 
d="M50 -166v112h134v-112l-71 -109h-63l46 109h-46z" />
    <glyph glyph-name="uni0333" unicode="&#x333;" horiz-adv-x="0" 
d="M-500 -291v84h500v-84h-500zM-500 -134v84h500v-84h-500z" />
    <glyph glyph-name="uni0374" unicode="&#x374;" horiz-adv-x="234" 
d="M30 508l27 204h147l-70 -204h-104z" />
    <glyph glyph-name="uni0375" unicode="&#x375;" horiz-adv-x="234" 
d="M30 -92l27 204h147l-70 -204h-104z" />
    <glyph glyph-name="uni037E" unicode="&#x37e;" horiz-adv-x="274" 
d="M106 0h-57v184h177v-184l-91 -178h-98zM225 508v-184h-176v184h176z" />
    <glyph glyph-name="tonos" unicode="&#x384;" horiz-adv-x="294" 
d="M50 566l32 166h162l-71 -166h-123z" />
    <glyph glyph-name="dieresistonos" unicode="&#x385;" horiz-adv-x="576" 
d="M241 727h135l-56 -161h-110zM397 702h129v-125h-129v125zM179 702v-125h-129v125h129z" />
    <glyph glyph-name="Alphatonos" unicode="&#x386;" horiz-adv-x="715" 
d="M532 0l-45 151h-258l-46 -151h-182l243 712h227l243 -712h-182zM-17 506l32 206h162l-71 -206h-123zM445 293l-15 48c-29 95 -53 181 -72 259h-2c-20 -83 -43 -169 -70 -259l-14 -48h173z" />
    <glyph glyph-name="anoteleia" unicode="&#x387;" horiz-adv-x="274" 
d="M225 508v-183h-176v183h176z" />
    <glyph glyph-name="Epsilontonos" unicode="&#x388;" horiz-adv-x="634" 
d="M579 712v-145h-330v-135h308v-143h-308v-144h338v-145h-511v712h503zM41 712l-71 -206h-123l32 206h162z" />
    <glyph glyph-name="Etatonos" unicode="&#x389;" horiz-adv-x="761" 
d="M76 712h173v-270h263v270h173v-712h-173v295h-263v-295h-173v712zM41 712l-71 -206h-123l32 206h162z" />
    <glyph glyph-name="Iotatonos" unicode="&#x38a;" horiz-adv-x="325" 
d="M76 0v712h173v-712h-173zM-153 506l32 206h162l-71 -206h-123z" />
    <glyph glyph-name="Omicrontonos" unicode="&#x38c;" horiz-adv-x="757" 
d="M723 356c0 -229 -134 -372 -344 -372c-212 0 -345 143 -345 372s133 372 345 372c210 0 344 -143 344 -372zM258 193c29 -39 69 -59 121 -59c103 0 163 82 163 222s-60 222 -163 222c-104 0 -164 -82 -164 -222c0 -70 14 -124 43 -163zM-108 506l32 206h162l-71 -206
h-123z" />
    <glyph glyph-name="Upsilontonos" unicode="&#x38e;" horiz-adv-x="663" 
d="M1 712h192l62 -129c29 -59 54 -119 76 -179h2c20 57 45 117 75 179l62 129h192l-244 -443v-269h-173v269zM-16 712l-71 -206h-123l32 206h162z" />
    <glyph glyph-name="Omegatonos" unicode="&#x38f;" horiz-adv-x="747" 
d="M719 0h-299v152c68 69 107 138 107 237c0 123 -61 189 -154 189c-92 0 -153 -66 -153 -189c0 -99 39 -168 107 -237v-152h-299v146h143v2c-84 79 -132 160 -132 269c0 101 30 179 91 232s142 79 243 79c102 0 183 -26 244 -79s91 -130 91 -232c0 -109 -48 -189 -132 -269
v-2h143v-146zM-119 506l32 206h162l-71 -206h-123z" />
    <glyph glyph-name="iotadieresistonos" unicode="&#x390;" horiz-adv-x="334" 
d="M56 508h166v-296c0 -65 19 -92 64 -92c15 0 27 2 37 5v-123c-25 -7 -53 -10 -84 -10c-128 0 -183 56 -183 191v325zM92 727h135l-56 -161h-110zM-99 702h129v-125h-129v125zM377 577h-129v125h129v-125z" />
    <glyph glyph-name="Alpha" unicode="&#x391;" horiz-adv-x="715" 
d="M244 712h227l243 -712h-182l-45 151h-258l-46 -151h-182zM272 293h173l-15 48c-29 95 -53 181 -72 259h-2c-20 -83 -43 -169 -70 -259z" />
    <glyph glyph-name="Beta" unicode="&#x392;" horiz-adv-x="664" 
d="M584 428c-20 -27 -51 -47 -92 -62v-2c93 -21 139 -76 139 -166c0 -61 -23 -109 -69 -144c-46 -36 -110 -54 -191 -54h-295v712h278c172 0 259 -70 259 -183c0 -41 -10 -75 -29 -101zM246 297v-162h94c80 0 113 24 113 79c0 57 -33 83 -116 83h-91zM336 424
c76 0 110 25 110 78s-32 76 -104 76h-96v-154h90z" />
    <glyph glyph-name="Gamma" unicode="&#x393;" horiz-adv-x="519" 
d="M76 712h434v-147h-261v-565h-173v712z" />
    <glyph glyph-name="Delta" unicode="&#x394;" horiz-adv-x="714" 
d="M246 712h224l243 -712h-712zM489 141l-61 200c-29 99 -53 186 -71 259h-2c-18 -73 -42 -160 -71 -259l-60 -200h265z" />
    <glyph glyph-name="Epsilon" unicode="&#x395;" horiz-adv-x="634" 
d="M76 712h503v-145h-330v-135h308v-143h-308v-144h338v-145h-511v712z" />
    <glyph glyph-name="Zeta" unicode="&#x396;" horiz-adv-x="593" 
d="M20 150l329 416v2h-314v144h521v-150l-329 -416v-2h345v-144h-552v150z" />
    <glyph glyph-name="Eta" unicode="&#x397;" horiz-adv-x="761" 
d="M249 712v-270h263v270h173v-712h-173v295h-263v-295h-173v712h173z" />
    <glyph glyph-name="Theta" unicode="&#x398;" horiz-adv-x="757" 
d="M681 159c-56 -112 -162 -175 -302 -175c-211 0 -345 145 -345 373s134 371 345 371c210 0 344 -143 344 -371c0 -76 -14 -142 -42 -198zM252 189c30 -41 72 -61 127 -61c109 0 172 85 172 229s-64 229 -172 229c-109 0 -173 -86 -173 -229c0 -72 15 -128 46 -168z
M504 417v-121h-250v121h250z" />
    <glyph glyph-name="Iota" unicode="&#x399;" horiz-adv-x="325" 
d="M249 712v-712h-173v712h173z" />
    <glyph glyph-name="Kappa" unicode="&#x39a;" horiz-adv-x="690" 
d="M76 0v712h173v-307h2l209 307h207l-259 -337l278 -375h-218l-217 328h-2v-328h-173z" />
    <glyph glyph-name="Lambda" unicode="&#x39b;" horiz-adv-x="701" 
d="M235 712h230l235 -712h-187l-96 335c-21 73 -43 159 -66 257h-2c-20 -91 -42 -176 -65 -257l-96 -335h-187z" />
    <glyph glyph-name="Mu" unicode="&#x39c;" horiz-adv-x="1013" 
d="M937 0h-163v348c0 89 2 176 6 263h-2c-16 -69 -39 -155 -68 -259l-101 -352h-205l-101 352c-29 104 -52 190 -68 259h-2c4 -87 6 -174 6 -263v-348h-163v712h277l91 -316c25 -89 45 -177 62 -262h2c15 82 36 169 61 262l92 316h276v-712z" />
    <glyph glyph-name="Nu" unicode="&#x39d;" horiz-adv-x="801" 
d="M76 0v712h249l125 -281c44 -102 83 -197 116 -285h2c-5 89 -8 189 -8 300v266h166v-712h-250l-124 281c-44 99 -83 194 -116 285h-2c5 -107 8 -207 8 -300v-266h-166z" />
    <glyph glyph-name="Xi" unicode="&#x39e;" horiz-adv-x="676" 
d="M47 0v161h582v-161h-582zM61 712h554v-161h-554v161zM78 278v161h520v-161h-520z" />
    <glyph glyph-name="Omicron" unicode="&#x39f;" horiz-adv-x="757" 
d="M723 356c0 -229 -134 -372 -344 -372c-212 0 -345 143 -345 372s133 372 345 372c210 0 344 -143 344 -372zM215 356c0 -140 60 -222 164 -222c103 0 163 82 163 222s-60 222 -163 222c-104 0 -164 -82 -164 -222z" />
    <glyph glyph-name="Pi" unicode="&#x3a0;" horiz-adv-x="750" 
d="M76 712h598v-712h-172v565h-253v-565h-173v712z" />
    <glyph glyph-name="Rho" unicode="&#x3a1;" horiz-adv-x="654" 
d="M361 712c177 0 271 -89 271 -237c0 -147 -94 -236 -271 -236h-112v-239h-173v712h285zM337 378c79 0 118 32 118 97s-39 98 -118 98h-88v-195h88z" />
    <glyph glyph-name="Sigma" unicode="&#x3a3;" horiz-adv-x="593" 
d="M24 0v150l166 212l-155 203v147h523v-146h-322v-2l158 -202l-171 -214v-2h349v-146h-548z" />
    <glyph glyph-name="Tau" unicode="&#x3a4;" horiz-adv-x="627" 
d="M9 712h609v-147h-218v-565h-173v565h-218v147z" />
    <glyph glyph-name="Upsilon" unicode="&#x3a5;" horiz-adv-x="663" 
d="M1 712h192l62 -129c29 -59 54 -119 76 -179h2c20 57 45 117 75 179l62 129h192l-244 -443v-269h-173v269z" />
    <glyph glyph-name="Phi" unicode="&#x3a6;" horiz-adv-x="860" 
d="M744 132c-55 -53 -132 -84 -231 -91v-73h-166v73c-199 15 -313 124 -313 321c0 195 114 300 313 315v67h166v-67c199 -15 313 -121 313 -318c0 -98 -27 -174 -82 -227zM209 362c0 -115 51 -178 142 -186v366c-92 -8 -142 -68 -142 -180zM509 542v-366
c91 8 142 70 142 183s-51 175 -142 183z" />
    <glyph glyph-name="Chi" unicode="&#x3a7;" horiz-adv-x="669" 
d="M223 365l-209 347h199l121 -238h2l120 238h199l-209 -347l222 -365h-204l-128 246h-2l-129 -246h-203z" />
    <glyph glyph-name="Psi" unicode="&#x3a8;" horiz-adv-x="860" 
d="M824 477c0 -204 -101 -304 -309 -319v-158h-170v158c-208 15 -309 115 -309 319v235h170v-227c0 -123 39 -174 139 -183v410h170v-410c100 9 139 60 139 183v227h170v-235z" />
    <glyph glyph-name="Omega" unicode="&#x3a9;" horiz-adv-x="747" 
d="M719 0h-299v152c68 69 107 138 107 237c0 123 -61 189 -154 189c-92 0 -153 -66 -153 -189c0 -99 39 -168 107 -237v-152h-299v146h143v2c-84 79 -132 160 -132 269c0 101 30 179 91 232s142 79 243 79c102 0 183 -26 244 -79s91 -130 91 -232c0 -109 -48 -189 -132 -269
v-2h143v-146z" />
    <glyph glyph-name="Iotadieresis" unicode="&#x3aa;" horiz-adv-x="325" 
d="M76 712h173v-712h-173v712zM-22 916h143v-131h-143v131zM205 916h142v-131h-142v131z" />
    <glyph glyph-name="Upsilondieresis" unicode="&#x3ab;" horiz-adv-x="663" 
d="M1 712h192l62 -129c29 -59 54 -119 76 -179h2c20 57 45 117 75 179l62 129h192l-244 -443v-269h-173v269zM147 900h143v-131h-143v131zM516 769h-142v131h142v-131z" />
    <glyph glyph-name="alphatonos" unicode="&#x3ac;" horiz-adv-x="633" 
d="M594 117c9 0 17 1 25 3v-115c-29 -9 -62 -14 -98 -14c-67 0 -109 25 -126 74h-2c-32 -51 -88 -79 -148 -79c-130 0 -215 106 -215 268s85 268 216 268c59 0 111 -28 142 -79h2c1 22 4 44 8 65h164c-7 -48 -10 -108 -10 -180v-150c0 -45 13 -61 42 -61zM204 254
c0 -87 38 -142 95 -142c56 0 93 54 93 142s-37 142 -93 142c-57 0 -95 -55 -95 -142zM267 732h162l-71 -166h-123z" />
    <glyph glyph-name="epsilontonos" unicode="&#x3ad;" horiz-adv-x="534" 
d="M445 32c-43 -32 -103 -48 -182 -48c-145 0 -231 56 -231 155c0 64 31 103 100 124v2c-63 21 -88 55 -88 110c0 93 86 149 219 149c145 0 235 -69 235 -184h-155c0 43 -28 68 -77 68c-41 0 -66 -18 -66 -49c0 -32 27 -51 74 -51h50v-105h-50c-55 0 -83 -18 -83 -53
c0 -31 29 -50 73 -50c56 0 84 24 84 71h160c0 -61 -21 -108 -63 -139zM230 732h162l-71 -166h-123z" />
    <glyph glyph-name="etatonos" unicode="&#x3ae;" horiz-adv-x="629" 
d="M573 -185h-166v476c0 68 -25 102 -74 102c-52 0 -85 -45 -85 -128v-265h-166v325c0 51 -12 68 -43 68c-9 0 -18 -1 -25 -3v112c33 10 64 15 93 15c69 0 106 -26 122 -87h2c35 57 92 92 160 92c113 0 182 -74 182 -210v-497zM214 566l32 166h162l-71 -166h-123z" />
    <glyph glyph-name="iotatonos" unicode="&#x3af;" horiz-adv-x="334" 
d="M56 183v325h166v-296c0 -65 19 -92 64 -92c15 0 27 2 37 5v-123c-25 -7 -53 -10 -84 -10c-128 0 -183 56 -183 191zM109 732h162l-71 -166h-123z" />
    <glyph glyph-name="upsilondieresistonos" unicode="&#x3b0;" horiz-adv-x="613" 
d="M11 502c32 10 63 15 93 15c97 0 142 -45 142 -166v-154c0 -61 22 -87 69 -87c60 0 90 53 90 158c0 87 -11 167 -34 240h161c25 -73 37 -158 37 -253c0 -175 -83 -271 -251 -271c-159 0 -239 63 -239 202v128c0 59 -12 77 -43 77c-9 0 -18 -1 -25 -3v114zM218 566l31 161
h135l-56 -161h-110zM58 702h129v-125h-129v125zM534 577h-129v125h129v-125z" />
    <glyph glyph-name="alpha" unicode="&#x3b1;" horiz-adv-x="633" 
d="M619 5c-29 -9 -62 -14 -98 -14c-67 0 -109 25 -126 74h-2c-32 -51 -88 -79 -148 -79c-130 0 -215 106 -215 268s85 268 216 268c59 0 111 -28 142 -79h2c1 22 4 44 8 65h164c-7 -48 -10 -108 -10 -180v-150c0 -45 13 -61 42 -61c9 0 17 1 25 3v-115zM230 151
c17 -26 40 -39 69 -39c56 0 93 54 93 142s-37 142 -93 142c-57 0 -95 -55 -95 -142c0 -43 9 -78 26 -103z" />
    <glyph glyph-name="beta" unicode="&#x3b2;" horiz-adv-x="614" 
d="M586 196c0 -63 -20 -113 -61 -150s-98 -56 -169 -56c-59 0 -102 15 -127 46h-2v-221h-166l1 668c0 155 91 245 248 245c74 0 133 -16 176 -49s65 -77 65 -134c0 -85 -41 -137 -124 -161v-2c104 -25 159 -83 159 -186zM227 198c0 -53 30 -85 89 -85c63 0 100 36 100 100
c0 67 -42 100 -127 100h-13v129h13c69 0 106 31 106 86c0 49 -30 79 -81 79c-60 0 -87 -38 -87 -119v-290z" />
    <glyph glyph-name="gamma" unicode="&#x3b3;" horiz-adv-x="573" 
d="M503 251c-31 -76 -78 -158 -140 -245v-12c0 -46 -5 -133 -11 -179h-166c6 46 11 133 11 179c0 43 -7 94 -21 153s-33 114 -58 164c-29 64 -55 82 -88 82c-6 0 -14 -1 -23 -2v114c25 9 53 13 84 13c37 0 67 -9 90 -26s45 -49 65 -96c29 -67 50 -138 61 -212h2
c48 105 75 203 84 324h172c-10 -95 -31 -181 -62 -257z" />
    <glyph glyph-name="delta" unicode="&#x3b4;" horiz-adv-x="599" 
d="M536 101c-45 -75 -129 -116 -237 -116c-161 0 -269 95 -269 245c0 111 65 192 180 219v2c-77 51 -112 90 -112 145c0 84 68 126 205 126c77 0 146 -8 208 -24v-130c-60 24 -130 37 -186 37c-39 0 -51 -8 -51 -25c0 -20 28 -37 103 -74c129 -64 192 -144 192 -275
c0 -50 -11 -93 -33 -130zM230 141c17 -23 40 -34 69 -34c59 0 95 48 95 127s-36 127 -95 127s-94 -48 -94 -127c0 -39 8 -70 25 -93z" />
    <glyph glyph-name="epsilon" unicode="&#x3b5;" horiz-adv-x="534" 
d="M445 32c-43 -32 -103 -48 -182 -48c-145 0 -231 56 -231 155c0 64 31 103 100 124v2c-63 21 -88 55 -88 110c0 93 86 149 219 149c145 0 235 -69 235 -184h-155c0 43 -28 68 -77 68c-41 0 -66 -18 -66 -49c0 -32 27 -51 74 -51h50v-105h-50c-55 0 -83 -18 -83 -53
c0 -31 29 -50 73 -50c56 0 84 24 84 71h160c0 -61 -21 -108 -63 -139z" />
    <glyph glyph-name="zeta" unicode="&#x3b6;" horiz-adv-x="494" 
d="M478 593c-179 -99 -274 -212 -274 -352c0 -73 36 -108 144 -125c101 -17 134 -63 134 -150c0 -36 -10 -76 -29 -111h-131c10 23 15 45 15 68c0 44 -21 68 -96 76c-77 9 -132 30 -163 63c-32 32 -48 79 -48 142c0 151 98 286 262 387v2h-236v119h422v-119z" />
    <glyph glyph-name="eta" unicode="&#x3b7;" horiz-adv-x="629" 
d="M573 -185h-166v476c0 68 -25 102 -74 102c-52 0 -85 -45 -85 -128v-265h-166v325c0 51 -12 68 -43 68c-9 0 -18 -1 -25 -3v112c33 10 64 15 93 15c69 0 106 -26 122 -87h2c35 57 92 92 160 92c113 0 182 -74 182 -210v-497z" />
    <glyph glyph-name="theta" unicode="&#x3b8;" horiz-adv-x="638" 
d="M605 356c0 -239 -102 -371 -286 -371s-286 132 -286 371s102 371 286 371s286 -132 286 -371zM240 155c19 -33 46 -50 79 -50c67 0 107 68 115 195h-231c5 -64 17 -112 37 -145zM434 412c-8 127 -48 195 -115 195s-107 -67 -116 -195h231z" />
    <glyph glyph-name="iota" unicode="&#x3b9;" horiz-adv-x="334" 
d="M222 508v-296c0 -65 19 -92 64 -92c15 0 27 2 37 5v-123c-25 -7 -53 -10 -84 -10c-128 0 -183 56 -183 191v325h166z" />
    <glyph glyph-name="kappa" unicode="&#x3ba;" horiz-adv-x="584" 
d="M568 372c-10 4 -22 6 -36 6c-53 0 -102 -29 -166 -98l230 -280h-198l-133 166l-41 -46v-120h-166v508h166v-204h2l82 96c37 43 71 74 102 91c30 17 65 25 104 25c19 0 37 -3 54 -8v-136z" />
    <glyph glyph-name="lambda" unicode="&#x3bb;" horiz-adv-x="615" 
d="M608 0c-18 -6 -40 -9 -67 -9c-93 1 -131 28 -176 153c-25 69 -46 133 -65 191h-1c-20 -55 -44 -120 -73 -193l-56 -142h-178l225 502c-24 68 -49 92 -96 92c-18 0 -34 -3 -48 -8v122c23 9 53 14 91 14c116 -3 167 -39 232 -208l111 -297c31 -81 54 -103 87 -103
c4 0 9 1 14 2v-116z" />
    <glyph glyph-name="mu" unicode="&#x3bc;" horiz-adv-x="626" 
d="M617 5c-28 -9 -61 -14 -98 -14c-64 0 -104 25 -120 75h-2c-19 -45 -61 -72 -110 -72c-25 0 -45 5 -60 16v-195h-166v693h166v-291c0 -67 24 -101 73 -101c52 0 84 41 84 125v267h166v-330c0 -45 12 -61 43 -61c8 0 16 1 24 3v-115z" />
    <glyph glyph-name="nu" unicode="&#x3bd;" horiz-adv-x="561" 
d="M545 459c0 -38 -4 -75 -12 -112c-9 -37 -23 -82 -44 -135s-53 -123 -95 -212h-225l-83 309c-17 64 -31 84 -62 84c-6 0 -12 -1 -19 -2v111c23 10 50 15 80 15c84 0 133 -48 154 -161l47 -237h2c35 85 59 153 72 205s19 100 19 145c0 14 -1 27 -3 39h164
c3 -14 5 -30 5 -49z" />
    <glyph glyph-name="xi" unicode="&#x3be;" horiz-adv-x="499" 
d="M480 -91c-5 -19 -13 -37 -22 -54h-131c11 25 16 47 16 68c0 45 -27 71 -119 80c-135 13 -194 71 -194 174c0 95 51 158 154 181v2c-67 16 -105 59 -105 122c0 57 25 93 74 109v2h-100v119h432v-119h-105c-101 0 -152 -32 -152 -97c0 -49 41 -75 110 -75h108v-118h-97
c-99 0 -145 -36 -145 -95c0 -56 34 -78 149 -94c101 -13 134 -61 134 -148c0 -19 -2 -38 -7 -57z" />
    <glyph glyph-name="omicron" unicode="&#x3bf;" horiz-adv-x="604" 
d="M574 254c0 -165 -107 -270 -272 -270s-272 105 -272 270s107 270 272 270s272 -105 272 -270zM205 254c0 -89 36 -144 97 -144s97 55 97 144s-36 144 -97 144s-97 -55 -97 -144z" />
    <glyph glyph-name="pi" unicode="&#x3c0;" horiz-adv-x="682" 
d="M665 387h-92v-205c0 -51 15 -67 51 -67c12 0 21 1 27 3v-116c-23 -7 -53 -11 -90 -11c-107 0 -154 47 -154 168v228h-145v-387h-166v387h-88v121h657v-121z" />
    <glyph glyph-name="rho" unicode="&#x3c1;" horiz-adv-x="611" 
d="M552 110c-40 -79 -115 -123 -212 -123c-51 0 -92 16 -116 44h-2v-216h-166v439c0 165 103 270 260 270c161 0 265 -109 265 -277c0 -53 -10 -98 -29 -137zM239 151c17 -25 39 -38 68 -38c63 0 100 53 100 141s-37 143 -100 143c-57 0 -94 -56 -94 -143
c0 -43 9 -78 26 -103z" />
    <glyph glyph-name="sigma1" unicode="&#x3c2;" horiz-adv-x="570" 
d="M549 299h-172c-4 61 -35 100 -87 100c-55 0 -88 -46 -88 -123c0 -85 46 -132 153 -147c113 -16 149 -69 149 -162c0 -39 -10 -77 -29 -112h-131c10 22 15 45 15 68c0 49 -26 74 -121 85c-140 15 -211 100 -211 251c0 83 23 148 70 195s111 70 193 70
c160 0 250 -86 259 -225z" />
    <glyph glyph-name="sigma" unicode="&#x3c3;" horiz-adv-x="634" 
d="M625 389h-117v-2c39 -35 60 -86 60 -149c0 -155 -104 -254 -266 -254c-165 0 -272 102 -272 263c0 159 107 261 272 261h323v-119zM230 147c17 -25 40 -37 71 -37c64 0 98 51 98 140c0 91 -34 142 -98 142c-61 0 -96 -51 -96 -142c0 -45 8 -79 25 -103z" />
    <glyph glyph-name="tau" unicode="&#x3c4;" horiz-adv-x="482" 
d="M8 389v119h467v-119h-156v-207c0 -51 15 -67 51 -67c12 0 21 1 27 3v-116c-23 -7 -53 -11 -90 -11c-107 0 -154 47 -154 168v230h-145z" />
    <glyph glyph-name="upsilon" unicode="&#x3c5;" horiz-adv-x="613" 
d="M569 255c0 -175 -83 -271 -251 -271c-159 0 -239 63 -239 202v128c0 59 -12 77 -43 77c-9 0 -18 -1 -25 -3v114c32 10 63 15 93 15c97 0 142 -45 142 -166v-154c0 -61 22 -87 69 -87c60 0 90 53 90 158c0 87 -11 167 -34 240h161c25 -73 37 -158 37 -253z" />
    <glyph glyph-name="phi" unicode="&#x3c6;" horiz-adv-x="812" 
d="M782 254c0 -81 -27 -146 -80 -193s-126 -73 -217 -77v-169h-158v169c-91 4 -164 30 -217 77s-80 112 -80 193s27 146 80 193s126 73 217 77v138h158v-138c91 -4 164 -30 217 -77s80 -112 80 -193zM199 254c0 -93 45 -147 128 -152v304c-83 -5 -128 -59 -128 -152z
M485 102c83 5 128 59 128 152s-45 147 -128 152v-304z" />
    <glyph glyph-name="chi" unicode="&#x3c7;" horiz-adv-x="617" 
d="M604 -179c-27 -10 -56 -15 -87 -15c-43 0 -77 9 -102 28s-48 52 -69 99l-40 91h-2l-128 -209h-183l221 335l-76 163c-31 67 -54 85 -98 85c-13 0 -24 -1 -33 -4v112c24 9 58 16 89 16c45 0 80 -9 105 -28s47 -52 67 -99l45 -105h2l121 218h182l-209 -349l70 -148
c31 -65 55 -81 96 -81c7 0 17 1 29 2v-111z" />
    <glyph glyph-name="psi" unicode="&#x3c8;" horiz-adv-x="846" 
d="M802 263c0 -167 -96 -263 -293 -272v-176h-166v176c-189 9 -287 86 -287 245v272h166v-255c0 -85 41 -128 121 -137v546h166v-546c85 11 127 65 127 160c0 87 -13 164 -39 232h164c27 -73 41 -154 41 -245z" />
    <glyph glyph-name="omega" unicode="&#x3c9;" horiz-adv-x="853" 
d="M809 224c0 -155 -68 -239 -211 -239c-93 0 -150 35 -171 106h-2c-21 -71 -78 -106 -171 -106c-141 0 -210 84 -210 239c0 101 22 200 65 284h173c-43 -77 -66 -170 -66 -265c0 -88 22 -134 71 -134c37 0 56 27 56 80v201h166v-201c0 -53 19 -80 57 -80c47 0 71 45 71 134
c0 95 -23 188 -66 265h173c43 -84 65 -183 65 -284z" />
    <glyph glyph-name="iotadieresis" unicode="&#x3ca;" horiz-adv-x="334" 
d="M323 2c-25 -7 -53 -10 -84 -10c-128 0 -183 56 -183 191v325h166v-296c0 -65 19 -92 64 -92c15 0 27 2 37 5v-123zM-46 712h143v-131h-143v131zM181 581v131h142v-131h-142z" />
    <glyph glyph-name="upsilondieresis" unicode="&#x3cb;" horiz-adv-x="613" 
d="M569 255c0 -175 -83 -271 -251 -271c-159 0 -239 63 -239 202v128c0 59 -12 77 -43 77c-9 0 -18 -1 -25 -3v114c32 10 63 15 93 15c97 0 142 -45 142 -166v-154c0 -61 22 -87 69 -87c60 0 90 53 90 158c0 87 -11 167 -34 240h161c25 -73 37 -158 37 -253zM112 712h143
v-131h-143v131zM339 581v131h142v-131h-142z" />
    <glyph glyph-name="omicrontonos" unicode="&#x3cc;" horiz-adv-x="604" 
d="M574 254c0 -165 -107 -270 -272 -270s-272 105 -272 270s107 270 272 270s272 -105 272 -270zM205 254c0 -89 36 -144 97 -144s97 55 97 144s-36 144 -97 144s-97 -55 -97 -144zM272 732h162l-71 -166h-123z" />
    <glyph glyph-name="upsilontonos" unicode="&#x3cd;" horiz-adv-x="613" 
d="M569 255c0 -175 -83 -271 -251 -271c-159 0 -239 63 -239 202v128c0 59 -12 77 -43 77c-9 0 -18 -1 -25 -3v114c32 10 63 15 93 15c97 0 142 -45 142 -166v-154c0 -61 22 -87 69 -87c60 0 90 53 90 158c0 87 -11 167 -34 240h161c25 -73 37 -158 37 -253zM266 732h162
l-71 -166h-123z" />
    <glyph glyph-name="omegatonos" unicode="&#x3ce;" horiz-adv-x="853" 
d="M809 224c0 -155 -68 -239 -211 -239c-93 0 -150 35 -171 106h-2c-21 -71 -78 -106 -171 -106c-141 0 -210 84 -210 239c0 101 22 200 65 284h173c-43 -77 -66 -170 -66 -265c0 -88 22 -134 71 -134c37 0 56 27 56 80v201h166v-201c0 -53 19 -80 57 -80c47 0 71 45 71 134
c0 95 -23 188 -66 265h173c43 -84 65 -183 65 -284zM396 732h162l-71 -166h-123z" />
    <glyph glyph-name="uni0400" unicode="&#x400;" horiz-adv-x="634" 
d="M76 712h503v-145h-330v-135h308v-143h-308v-144h338v-145h-511v712zM346 911l78 -151h-128l-141 151h191z" />
    <glyph glyph-name="afii10023" unicode="&#x401;" horiz-adv-x="634" 
d="M587 0h-511v712h503v-145h-330v-135h308v-143h-308v-144h338v-145zM144 769v131h143v-131h-143zM513 900v-131h-142v131h142z" />
    <glyph glyph-name="afii10051" unicode="&#x402;" horiz-adv-x="819" 
d="M733 50c-43 -42 -102 -63 -179 -63c-35 0 -67 4 -95 13v135c19 -5 40 -8 61 -8c69 0 103 32 103 95c0 66 -37 99 -111 99c-43 0 -81 -9 -112 -27v-294h-173v565h-218v147h609v-147h-218v-135c42 21 91 32 148 32c159 0 249 -87 249 -240c0 -73 -21 -130 -64 -172z" />
    <glyph glyph-name="afii10052" unicode="&#x403;" horiz-adv-x="519" 
d="M76 0v712h434v-147h-261v-565h-173zM197 760l78 151h191l-141 -151h-128z" />
    <glyph glyph-name="afii10053" unicode="&#x404;" horiz-adv-x="727" 
d="M689 459h-176c-11 77 -60 122 -139 122c-81 0 -137 -56 -156 -155h227v-140h-227c17 -99 74 -155 155 -155c79 0 131 46 140 126h179c-7 -87 -39 -154 -96 -201c-57 -48 -131 -72 -223 -72c-211 0 -339 142 -339 372s130 372 340 372c186 0 307 -105 315 -269z" />
    <glyph glyph-name="afii10054" unicode="&#x405;" horiz-adv-x="645" 
d="M613 212c0 -138 -115 -228 -291 -228c-187 0 -298 91 -298 248h184c0 -73 39 -110 118 -110c65 0 105 28 105 75c0 35 -18 53 -53 66c-17 6 -45 14 -83 24c-58 15 -104 29 -139 44s-63 36 -86 65s-34 67 -34 115c0 130 109 217 279 217c180 0 279 -81 279 -233h-180
c0 64 -38 99 -106 99c-57 0 -94 -27 -94 -67c4 -47 29 -59 142 -88c57 -14 103 -28 138 -43s63 -38 86 -67c22 -29 33 -68 33 -117z" />
    <glyph glyph-name="afii10055" unicode="&#x406;" horiz-adv-x="325" 
d="M249 712v-712h-173v712h173z" />
    <glyph glyph-name="afii10056" unicode="&#x407;" horiz-adv-x="325" 
d="M76 712h173v-712h-173v712zM-22 900h143v-131h-143v131zM205 900h142v-131h-142v131z" />
    <glyph glyph-name="afii10057" unicode="&#x408;" horiz-adv-x="410" 
d="M60 140c76 0 106 29 106 139v433h173v-471c0 -171 -77 -249 -246 -249c-31 0 -57 3 -78 9v144c15 -3 30 -5 45 -5z" />
    <glyph glyph-name="afii10058" unicode="&#x409;" horiz-adv-x="1074" 
d="M983 63c-46 -42 -113 -63 -202 -63h-285v565h-175c-6 -160 -18 -281 -36 -362c-19 -81 -45 -137 -78 -166c-34 -29 -81 -44 -140 -44c-23 0 -42 2 -56 7v140c5 -1 11 -2 18 -2c31 0 55 14 71 43c16 28 28 82 37 162s15 203 20 369h512v-239h112c177 0 271 -89 271 -236
c0 -74 -23 -132 -69 -174zM669 334v-195h88c79 0 118 33 118 98s-39 97 -118 97h-88z" />
    <glyph glyph-name="afii10059" unicode="&#x40a;" horiz-adv-x="1090" 
d="M999 63c-46 -42 -113 -63 -202 -63h-285v295h-263v-295h-173v712h173v-270h263v270h173v-239h112c177 0 271 -89 271 -236c0 -74 -23 -132 -69 -174zM685 139h88c79 0 118 33 118 98s-39 97 -118 97h-88v-195z" />
    <glyph glyph-name="afii10060" unicode="&#x40b;" horiz-adv-x="819" 
d="M788 0h-173v182c0 72 -37 111 -105 111c-41 0 -78 -5 -110 -16v-277h-173v565h-218v147h609v-147h-218v-146c47 14 100 21 159 21c148 0 229 -80 229 -224v-216z" />
    <glyph glyph-name="afii10061" unicode="&#x40c;" horiz-adv-x="690" 
d="M251 405l209 307h207l-259 -337l278 -375h-218l-217 328h-2v-328h-173v712h173v-307h2zM327 911h191l-141 -151h-128z" />
    <glyph glyph-name="uni040D" unicode="&#x40d;" horiz-adv-x="801" 
d="M726 0h-166v266c0 111 3 211 8 300h-2c-33 -88 -72 -183 -116 -285l-125 -281h-249v712h166v-266c0 -93 -3 -193 -8 -300h2c33 91 72 186 116 285l124 281h250v-712zM213 911h191l78 -151h-128z" />
    <glyph glyph-name="afii10062" unicode="&#x40e;" horiz-adv-x="699" 
d="M698 712l-275 -570c-53 -111 -123 -152 -219 -152c-34 0 -64 3 -89 10v142c13 -4 30 -6 49 -6c48 0 79 23 79 64c0 12 -2 24 -7 35s-19 41 -44 91l-191 386h188l93 -215c28 -66 51 -121 68 -166h2c24 65 49 129 76 190l82 191h188zM172 911h106c3 -37 28 -58 72 -58
s69 21 72 58h106c-5 -97 -70 -154 -178 -154s-173 57 -178 154z" />
    <glyph glyph-name="afii10145" unicode="&#x40f;" horiz-adv-x="751" 
d="M250 712v-565h251v565h174v-712h-220v-160h-166v160h-213v712h174z" />
    <glyph glyph-name="afii10017" unicode="&#x410;" horiz-adv-x="715" 
d="M244 712h227l243 -712h-182l-45 151h-258l-46 -151h-182zM272 293h173l-15 48c-29 95 -53 181 -72 259h-2c-20 -83 -43 -169 -70 -259z" />
    <glyph glyph-name="afii10018" unicode="&#x411;" horiz-adv-x="676" 
d="M594 712v-140h-348v-129h135c163 0 259 -85 259 -222s-96 -221 -259 -221h-305v712h518zM346 134c77 0 115 29 115 87c0 59 -38 89 -115 89h-100v-176h100z" />
    <glyph glyph-name="afii10019" unicode="&#x412;" horiz-adv-x="664" 
d="M584 428c-20 -27 -51 -47 -92 -62v-2c93 -21 139 -76 139 -166c0 -61 -23 -109 -69 -144c-46 -36 -110 -54 -191 -54h-295v712h278c172 0 259 -70 259 -183c0 -41 -10 -75 -29 -101zM246 297v-162h94c80 0 113 24 113 79c0 57 -33 83 -116 83h-91zM336 424
c76 0 110 25 110 78s-32 76 -104 76h-96v-154h90z" />
    <glyph glyph-name="afii10020" unicode="&#x413;" horiz-adv-x="519" 
d="M76 712h434v-147h-261v-565h-173v712z" />
    <glyph glyph-name="afii10021" unicode="&#x414;" horiz-adv-x="807" 
d="M149 334c11 83 18 209 21 378h538v-565h88v-307h-166v160h-449v-160h-166v307h87c20 42 36 104 47 187zM535 147v418h-201c-5 -184 -23 -323 -52 -418h253z" />
    <glyph glyph-name="afii10022" unicode="&#x415;" horiz-adv-x="634" 
d="M76 712h503v-145h-330v-135h308v-143h-308v-144h338v-145h-511v712z" />
    <glyph glyph-name="afii10024" unicode="&#x416;" horiz-adv-x="953" 
d="M745 0l-181 348h-2v-348h-170v348h-2l-182 -348h-204l228 372l-211 340h199l170 -324h2v324h170v-324h2l169 324h199l-211 -340l228 -372h-204z" />
    <glyph glyph-name="afii10025" unicode="&#x417;" horiz-adv-x="652" 
d="M620 194c0 -65 -26 -117 -78 -154s-123 -56 -213 -56c-197 0 -308 87 -308 250h186c0 -72 42 -110 122 -110c64 0 106 31 106 79c0 57 -44 86 -131 86h-44v136h44c77 0 124 32 124 83c0 48 -40 79 -105 79c-71 0 -109 -36 -109 -105h-183c0 155 110 245 295 245
c175 0 282 -74 282 -202c0 -79 -37 -125 -125 -156v-2c95 -31 137 -84 137 -173z" />
    <glyph glyph-name="afii10026" unicode="&#x418;" horiz-adv-x="801" 
d="M242 712v-266c0 -93 -3 -193 -8 -300h2c33 91 72 186 116 285l124 281h250v-712h-166v266c0 111 3 211 8 300h-2c-33 -88 -72 -183 -116 -285l-125 -281h-249v712h166z" />
    <glyph glyph-name="afii10027" unicode="&#x419;" horiz-adv-x="801" 
d="M726 0h-166v266c0 111 3 211 8 300h-2c-33 -88 -72 -183 -116 -285l-125 -281h-249v712h166v-266c0 -93 -3 -193 -8 -300h2c33 91 72 186 116 285l124 281h250v-712zM209 911h106c3 -37 28 -58 72 -58s69 21 72 58h106c-5 -97 -70 -154 -178 -154s-173 57 -178 154z" />
    <glyph glyph-name="afii10028" unicode="&#x41a;" horiz-adv-x="690" 
d="M76 0v712h173v-307h2l209 307h207l-259 -337l278 -375h-218l-217 328h-2v-328h-173z" />
    <glyph glyph-name="afii10029" unicode="&#x41b;" horiz-adv-x="745" 
d="M11 0v140c5 -1 11 -2 18 -2c31 0 55 14 71 43c16 28 28 82 37 162s15 203 20 369h512v-712h-173v565h-175c-6 -160 -18 -281 -36 -362c-19 -81 -45 -137 -78 -166c-34 -29 -81 -44 -140 -44c-23 0 -42 2 -56 7z" />
    <glyph glyph-name="afii10030" unicode="&#x41c;" horiz-adv-x="1013" 
d="M937 0h-163v348c0 89 2 176 6 263h-2c-16 -69 -39 -155 -68 -259l-101 -352h-205l-101 352c-29 104 -52 190 -68 259h-2c4 -87 6 -174 6 -263v-348h-163v712h277l91 -316c25 -89 45 -177 62 -262h2c15 82 36 169 61 262l92 316h276v-712z" />
    <glyph glyph-name="afii10031" unicode="&#x41d;" horiz-adv-x="761" 
d="M249 712v-270h263v270h173v-712h-173v295h-263v-295h-173v712h173z" />
    <glyph glyph-name="afii10032" unicode="&#x41e;" horiz-adv-x="757" 
d="M723 356c0 -229 -134 -372 -344 -372c-212 0 -345 143 -345 372s133 372 345 372c210 0 344 -143 344 -372zM215 356c0 -140 60 -222 164 -222c103 0 163 82 163 222s-60 222 -163 222c-104 0 -164 -82 -164 -222z" />
    <glyph glyph-name="afii10033" unicode="&#x41f;" horiz-adv-x="750" 
d="M76 712h598v-712h-172v565h-253v-565h-173v712z" />
    <glyph glyph-name="afii10034" unicode="&#x420;" horiz-adv-x="654" 
d="M361 712c177 0 271 -89 271 -237c0 -147 -94 -236 -271 -236h-112v-239h-173v712h285zM337 378c79 0 118 32 118 97s-39 98 -118 98h-88v-195h88z" />
    <glyph glyph-name="afii10035" unicode="&#x421;" horiz-adv-x="715" 
d="M677 456h-179c-8 77 -56 122 -131 122c-95 0 -152 -85 -152 -222s58 -222 150 -222c75 0 125 46 134 126h181c-7 -88 -38 -156 -94 -204s-130 -72 -221 -72c-204 0 -331 142 -331 372s129 372 333 372c183 0 304 -107 310 -272z" />
    <glyph glyph-name="afii10036" unicode="&#x422;" horiz-adv-x="627" 
d="M9 712h609v-147h-218v-565h-173v565h-218v147z" />
    <glyph glyph-name="afii10037" unicode="&#x423;" horiz-adv-x="699" 
d="M698 712l-275 -570c-53 -111 -123 -152 -219 -152c-34 0 -64 3 -89 10v142c13 -4 30 -6 49 -6c48 0 79 23 79 64c0 12 -2 24 -7 35s-19 41 -44 91l-191 386h188l93 -215c28 -66 51 -121 68 -166h2c24 65 49 129 76 190l82 191h188z" />
    <glyph glyph-name="afii10038" unicode="&#x424;" horiz-adv-x="880" 
d="M846 356c0 -185 -115 -292 -323 -307v-75h-167v75c-208 15 -322 123 -322 307s114 292 322 307v75h167v-75c208 -15 323 -122 323 -307zM520 187c96 13 148 72 148 169s-52 156 -148 169v-338zM250 240c25 -29 61 -46 109 -53v338c-96 -13 -147 -72 -147 -169
c0 -49 13 -87 38 -116z" />
    <glyph glyph-name="afii10039" unicode="&#x425;" horiz-adv-x="669" 
d="M223 365l-209 347h199l121 -238h2l120 238h199l-209 -347l222 -365h-204l-128 246h-2l-129 -246h-203z" />
    <glyph glyph-name="afii10040" unicode="&#x426;" horiz-adv-x="779" 
d="M76 0v712h174v-565h251v565h174v-565h88v-307h-166v160h-521z" />
    <glyph glyph-name="afii10041" unicode="&#x427;" horiz-adv-x="697" 
d="M31 461v251h173v-217c0 -71 43 -110 122 -110c43 0 83 5 122 15v312h173v-712h-173v258c-47 -12 -110 -20 -169 -20c-160 0 -248 80 -248 223z" />
    <glyph glyph-name="afii10042" unicode="&#x428;" horiz-adv-x="1044" 
d="M250 712v-565h185v565h174v-565h186v565h173v-712h-892v712h174z" />
    <glyph glyph-name="afii10043" unicode="&#x429;" horiz-adv-x="1067" 
d="M250 712v-565h185v565h174v-565h186v565h173v-565h88v-307h-166v160h-814v712h174z" />
    <glyph glyph-name="afii10044" unicode="&#x42a;" horiz-adv-x="775" 
d="M9 565v147h361v-239h112c177 0 271 -89 271 -236c0 -148 -94 -237 -271 -237h-285v565h-188zM370 139h88c79 0 118 33 118 98s-39 97 -118 97h-88v-195z" />
    <glyph glyph-name="afii10045" unicode="&#x42b;" horiz-adv-x="979" 
d="M76 712h173v-239h112c177 0 271 -89 271 -236c0 -148 -94 -237 -271 -237h-285v712zM903 0h-173v712h173v-712zM249 334v-195h88c79 0 118 33 118 98s-39 97 -118 97h-88z" />
    <glyph glyph-name="afii10046" unicode="&#x42c;" horiz-adv-x="654" 
d="M76 712h173v-239h112c177 0 271 -89 271 -236c0 -148 -94 -237 -271 -237h-285v712zM249 139h88c79 0 118 33 118 98s-39 97 -118 97h-88v-195z" />
    <glyph glyph-name="afii10047" unicode="&#x42d;" horiz-adv-x="727" 
d="M653 158c-55 -112 -159 -174 -298 -174c-93 0 -167 24 -224 72c-57 47 -89 114 -96 201h179c11 -80 62 -126 141 -126c81 0 137 56 154 155h-227v140h227c-19 99 -75 155 -156 155c-79 0 -129 -45 -138 -122h-177c8 163 130 269 315 269c210 0 340 -142 340 -372
c0 -77 -13 -143 -40 -198z" />
    <glyph glyph-name="afii10048" unicode="&#x42e;" horiz-adv-x="1054" 
d="M1020 355c0 -228 -127 -371 -331 -371c-90 0 -164 27 -221 80s-92 126 -104 219h-115v-283h-173v712h173v-282h115c13 93 48 166 105 219s131 79 220 79c204 0 331 -145 331 -373zM538 356c0 -140 57 -222 152 -222s151 82 151 221c0 140 -56 223 -151 223
s-152 -82 -152 -222z" />
    <glyph glyph-name="afii10049" unicode="&#x42f;" horiz-adv-x="679" 
d="M37 485c0 147 90 227 269 227h298v-712h-174v252h-126l-119 -252h-186l147 285c-73 37 -109 103 -109 200zM208 482c0 -66 37 -99 112 -99h110v195h-103c-79 0 -119 -32 -119 -96z" />
    <glyph glyph-name="afii10065" unicode="&#x430;" horiz-adv-x="561" 
d="M506 143c0 -60 5 -108 15 -143h-150c-5 19 -7 41 -7 66h-2c-39 -53 -94 -79 -165 -79c-54 0 -97 15 -128 44s-47 67 -47 112c0 89 57 141 202 164c42 7 83 11 122 14v18c0 55 -27 80 -71 80c-45 0 -71 -26 -72 -71h-160c5 103 83 176 232 176c155 0 231 -71 231 -206
v-175zM203 113c11 -11 27 -16 48 -16c27 0 53 9 70 26c20 21 25 44 25 89v18c-32 -1 -62 -5 -90 -10c-49 -9 -70 -29 -70 -65c0 -18 6 -32 17 -42z" />
    <glyph glyph-name="afii10066" unicode="&#x431;" horiz-adv-x="607" 
d="M543 594c-35 -10 -89 -16 -163 -19c-166 -8 -206 -52 -222 -172h2c28 59 86 88 173 88c145 0 238 -93 238 -238c0 -164 -106 -269 -269 -269c-173 0 -269 105 -269 302c3 313 93 401 314 418c94 7 159 15 196 24v-134zM230 143c17 -25 40 -37 71 -37c61 0 96 48 96 135
c0 85 -37 135 -98 135c-64 0 -94 -48 -94 -131c0 -44 8 -78 25 -102z" />
    <glyph glyph-name="afii10067" unicode="&#x432;" horiz-adv-x="568" 
d="M536 142c0 -91 -76 -142 -212 -142h-263v508h254c139 0 208 -46 208 -137c0 -59 -31 -92 -96 -109v-2c72 -13 109 -54 109 -118zM220 211v-110h65c57 0 85 18 85 55s-28 55 -85 55h-65zM286 303c51 0 76 17 76 52s-25 52 -76 52h-66v-104h66z" />
    <glyph glyph-name="afii10068" unicode="&#x433;" horiz-adv-x="452" 
d="M61 0v508h382v-121h-216v-387h-166z" />
    <glyph glyph-name="afii10069" unicode="&#x434;" horiz-adv-x="668" 
d="M112 249c10 55 18 142 24 259h456v-387h68v-281h-164v160h-324v-160h-164v281h61c18 29 32 72 43 128zM428 121v266h-136c-6 -113 -19 -202 -38 -266h174z" />
    <glyph glyph-name="afii10070" unicode="&#x435;" horiz-adv-x="584" 
d="M554 220h-361c4 -89 43 -125 99 -125c47 0 80 25 85 61h169c-22 -97 -118 -172 -252 -172c-167 0 -264 114 -264 274c0 153 98 266 262 266c119 0 206 -62 242 -163c15 -39 20 -80 20 -141zM387 314c-7 68 -44 101 -95 101c-52 0 -87 -32 -96 -101h191z" />
    <glyph glyph-name="afii10072" unicode="&#x436;" horiz-adv-x="795" 
d="M806 0h-196l-130 252h-2v-252h-161v252h-2l-131 -252h-195l177 272l-159 236h184l124 -221h2v221h161v-221h2l124 221h184l-159 -236z" />
    <glyph glyph-name="afii10073" unicode="&#x437;" horiz-adv-x="532" 
d="M500 139c0 -100 -86 -155 -231 -155c-157 0 -244 64 -244 187h159c0 -47 28 -71 85 -71c44 0 72 19 72 50c0 35 -28 53 -83 53h-49v105h49c47 0 74 19 74 51c0 31 -25 49 -66 49c-49 0 -77 -25 -77 -68h-154c0 115 90 184 234 184c133 0 219 -56 219 -149
c0 -55 -25 -89 -88 -110v-2c71 -21 100 -60 100 -124z" />
    <glyph glyph-name="afii10074" unicode="&#x438;" horiz-adv-x="687" 
d="M61 0v508h161v-181c0 -69 -3 -136 -10 -200h2c21 64 47 126 76 187l96 194h240v-508h-161v180c0 67 3 134 9 201h-2c-19 -62 -44 -124 -75 -187l-96 -194h-240z" />
    <glyph glyph-name="afii10075" unicode="&#x439;" horiz-adv-x="687" 
d="M626 0h-161v180c0 67 3 134 9 201h-2c-19 -62 -44 -124 -75 -187l-96 -194h-240v508h161v-181c0 -69 -3 -136 -10 -200h2c21 64 47 126 76 187l96 194h240v-508zM166 712h106c3 -37 28 -58 72 -58s69 21 72 58h106c-5 -97 -70 -154 -178 -154s-173 57 -178 154z" />
    <glyph glyph-name="afii10076" unicode="&#x43a;" horiz-adv-x="577" 
d="M61 0v508h166v-200h2l136 200h192l-181 -237l200 -271h-204l-143 230h-2v-230h-166z" />
    <glyph glyph-name="afii10077" unicode="&#x43b;" horiz-adv-x="594" 
d="M6 0v117c7 -1 13 -2 20 -2c63 5 84 57 90 393h417v-508h-166v387h-104c-13 -330 -64 -390 -201 -394c-21 0 -40 2 -56 7z" />
    <glyph glyph-name="afii10078" unicode="&#x43c;" horiz-adv-x="848" 
d="M787 0h-150v226c0 53 2 113 5 180h-1c-16 -64 -32 -123 -49 -178l-70 -228h-196l-71 228c-23 83 -39 143 -48 178h-2c3 -67 5 -127 5 -180v-226h-149v508h253l65 -211c17 -53 31 -115 44 -186h2c10 61 24 123 43 186l65 211h254v-508z" />
    <glyph glyph-name="afii10079" unicode="&#x43d;" horiz-adv-x="622" 
d="M227 508v-190h168v190h166v-508h-166v198h-168v-198h-166v508h166z" />
    <glyph glyph-name="afii10080" unicode="&#x43e;" horiz-adv-x="604" 
d="M574 254c0 -165 -107 -270 -272 -270s-272 105 -272 270s107 270 272 270s272 -105 272 -270zM205 254c0 -89 36 -144 97 -144s97 55 97 144s-36 144 -97 144s-97 -55 -97 -144z" />
    <glyph glyph-name="afii10081" unicode="&#x43f;" horiz-adv-x="615" 
d="M61 508h493v-508h-166v387h-161v-387h-166v508z" />
    <glyph glyph-name="afii10082" unicode="&#x440;" horiz-adv-x="610" 
d="M554 113c-35 -81 -101 -127 -186 -127c-56 0 -108 25 -139 69h-2v-240h-166v693h160v-63h2c31 49 84 77 141 77c131 0 216 -106 216 -268c0 -54 -9 -101 -26 -141zM244 150c17 -25 39 -38 67 -38c57 0 95 55 95 142s-38 142 -95 142c-56 0 -93 -54 -93 -142
c0 -44 9 -79 26 -104z" />
    <glyph glyph-name="afii10083" unicode="&#x441;" horiz-adv-x="575" 
d="M549 314h-172c-5 53 -36 85 -81 85c-57 0 -92 -53 -92 -144c0 -92 34 -145 93 -145c45 0 76 35 79 94h173c-5 -67 -31 -121 -76 -160c-46 -40 -105 -60 -177 -60c-162 0 -266 107 -266 271c0 163 104 269 265 269c142 0 244 -86 254 -210z" />
    <glyph glyph-name="afii10084" unicode="&#x442;" horiz-adv-x="487" 
d="M4 508h479v-121h-157v-387h-166v387h-156v121z" />
    <glyph glyph-name="afii10085" unicode="&#x443;" horiz-adv-x="530" 
d="M538 508l-169 -499c-52 -151 -112 -201 -244 -201c-29 0 -57 3 -86 9v126c16 -5 33 -8 51 -8c47 0 77 25 77 66c0 9 -2 20 -5 32c-3 11 -11 33 -23 66l-149 409h179l49 -170c21 -79 38 -149 51 -212h2c14 71 31 142 51 213l47 169h169z" />
    <glyph glyph-name="afii10086" unicode="&#x444;" horiz-adv-x="841" 
d="M30 254c0 162 81 268 207 268c39 0 73 -13 102 -38v228h163v-228c29 25 63 38 102 38c125 0 207 -106 207 -268s-81 -268 -208 -268c-37 0 -71 12 -101 37v-208h-163v208c-30 -25 -64 -37 -101 -37c-127 0 -208 106 -208 268zM616 359c-17 26 -39 39 -67 39
c-17 0 -33 -7 -47 -21v-246c14 -14 30 -21 47 -21c56 0 91 56 91 144c0 44 -8 79 -24 105zM201 254c0 -88 35 -144 91 -144c17 0 33 7 47 21v246c-14 14 -30 21 -47 21c-56 0 -91 -56 -91 -144z" />
    <glyph glyph-name="afii10087" unicode="&#x445;" horiz-adv-x="535" 
d="M164 261l-159 247h188l73 -145h2l73 145h189l-159 -247l170 -261h-190l-83 163h-2l-83 -163h-189z" />
    <glyph glyph-name="afii10088" unicode="&#x446;" horiz-adv-x="628" 
d="M61 0v508h166v-387h159v387h166v-387h68v-281h-166v160h-393z" />
    <glyph glyph-name="afii10089" unicode="&#x447;" horiz-adv-x="573" 
d="M26 508h166v-157c0 -45 26 -71 77 -71c27 0 53 4 77 12v216h166v-508h-166v177c-43 -11 -89 -17 -138 -17c-117 0 -182 57 -182 158v190z" />
    <glyph glyph-name="afii10090" unicode="&#x448;" horiz-adv-x="878" 
d="M227 508v-387h129v387h166v-387h129v387h166v-508h-756v508h166z" />
    <glyph glyph-name="afii10091" unicode="&#x449;" horiz-adv-x="893" 
d="M227 508v-387h129v387h166v-387h129v387h166v-387h68v-281h-166v160h-658v508h166z" />
    <glyph glyph-name="afii10092" unicode="&#x44a;" horiz-adv-x="649" 
d="M4 387v121h296v-155h102c141 0 220 -60 220 -176c0 -117 -79 -177 -220 -177h-268v387h-130zM300 113h81c49 0 74 21 74 64c0 42 -25 63 -74 63h-81v-127z" />
    <glyph glyph-name="afii10093" unicode="&#x44b;" horiz-adv-x="838" 
d="M61 508h166v-155h102c141 0 220 -60 220 -176c0 -117 -79 -177 -220 -177h-268v508zM777 0h-166v508h166v-508zM227 113h81c49 0 74 21 74 64c0 42 -25 63 -74 63h-81v-127z" />
    <glyph glyph-name="afii10094" unicode="&#x44c;" horiz-adv-x="576" 
d="M227 508v-155h102c141 0 220 -60 220 -176c0 -117 -79 -177 -220 -177h-268v508h166zM308 113c49 0 74 21 74 64c0 42 -25 63 -74 63h-81v-127h81z" />
    <glyph glyph-name="afii10095" unicode="&#x44d;" horiz-adv-x="575" 
d="M545 255c0 -164 -104 -271 -265 -271c-73 0 -132 19 -177 57c-46 38 -72 89 -77 154h162c3 -59 39 -94 91 -94c53 0 89 39 100 107h-157v102h155c-12 63 -47 99 -98 99s-86 -33 -91 -86h-162c12 118 111 201 254 201c161 0 265 -106 265 -269z" />
    <glyph glyph-name="afii10096" unicode="&#x44e;" horiz-adv-x="867" 
d="M837 254c0 -165 -105 -270 -270 -270c-143 0 -241 80 -264 211h-76v-195h-166v508h166v-193h76c23 129 121 209 264 209c165 0 270 -105 270 -270zM471 254c0 -89 36 -144 96 -144s96 55 96 144s-36 144 -96 144s-96 -55 -96 -144z" />
    <glyph glyph-name="afii10097" unicode="&#x44f;" horiz-adv-x="582" 
d="M34 338c0 111 75 170 226 170h261v-508h-162v157h-97l-82 -157h-176l110 188c-53 29 -80 79 -80 150zM195 331c0 -42 29 -63 88 -63h76v125h-72c-61 0 -92 -21 -92 -62z" />
    <glyph glyph-name="uni0450" unicode="&#x450;" horiz-adv-x="584" 
d="M554 220h-361c4 -89 43 -125 99 -125c47 0 80 25 85 61h169c-22 -97 -118 -172 -252 -172c-167 0 -264 114 -264 274c0 153 98 266 262 266c119 0 206 -62 242 -163c15 -39 20 -80 20 -141zM309 712l78 -148h-128l-141 148h191zM387 314c-7 68 -44 101 -95 101
c-52 0 -87 -32 -96 -101h191z" />
    <glyph glyph-name="afii10071" unicode="&#x451;" horiz-adv-x="584" 
d="M554 220h-361c4 -89 43 -125 99 -125c47 0 80 25 85 61h169c-22 -97 -118 -172 -252 -172c-167 0 -264 114 -264 274c0 153 98 266 262 266c119 0 206 -62 242 -163c15 -39 20 -80 20 -141zM107 581v131h143v-131h-143zM476 712v-131h-142v131h142zM387 314
c-7 68 -44 101 -95 101c-52 0 -87 -32 -96 -101h191z" />
    <glyph glyph-name="afii10099" unicode="&#x452;" horiz-adv-x="610" 
d="M554 1c0 -131 -72 -191 -187 -191c-31 0 -58 3 -80 9v116c8 -2 17 -3 26 -3c52 0 75 24 75 97v210c0 65 -27 98 -75 98c-53 0 -86 -44 -86 -129v-208h-166v537h-71v98h71v77h166v-77h215v-98h-215v-135h2c33 41 81 64 137 64c117 0 188 -73 188 -209v-256z" />
    <glyph glyph-name="afii10100" unicode="&#x453;" horiz-adv-x="452" 
d="M61 508h382v-121h-216v-387h-166v508zM157 564l78 148h191l-141 -148h-128z" />
    <glyph glyph-name="afii10101" unicode="&#x454;" horiz-adv-x="575" 
d="M549 323h-161c-5 53 -41 86 -92 86s-86 -36 -98 -99h155v-102h-157c11 -68 48 -107 101 -107c52 0 87 35 90 94h162c-5 -65 -31 -116 -76 -154s-104 -57 -177 -57c-162 0 -266 107 -266 271c0 163 104 269 265 269c142 0 244 -83 254 -201z" />
    <glyph glyph-name="afii10102" unicode="&#x455;" horiz-adv-x="542" 
d="M510 147c0 -99 -89 -163 -236 -163c-157 0 -243 60 -243 181h167c0 -48 26 -72 78 -72c41 0 64 17 64 42c-5 38 -22 43 -117 69c-79 20 -122 34 -155 76c-17 21 -25 49 -25 85c0 95 83 159 224 159c143 0 225 -58 225 -170h-158c0 43 -23 65 -68 65
c-37 0 -59 -15 -59 -40c3 -31 19 -38 104 -60c85 -23 134 -39 171 -83c19 -23 28 -52 28 -89z" />
    <glyph glyph-name="afii10103" unicode="&#x456;" horiz-adv-x="288" 
d="M61 0v508h166v-508h-166zM61 581v131h166v-131h-166z" />
    <glyph glyph-name="afii10104" unicode="&#x457;" horiz-adv-x="288" 
d="M61 508h166v-508h-166v508zM-13 712h133v-131h-133v131zM168 712h132v-131h-132v131z" />
    <glyph glyph-name="afii10105" unicode="&#x458;" horiz-adv-x="289" 
d="M-39 -65c8 -2 17 -3 26 -3c52 0 75 24 75 97v479h166v-507c0 -131 -72 -191 -187 -191c-31 0 -58 3 -80 9v116zM62 581v131h166v-131h-166z" />
    <glyph glyph-name="afii10106" unicode="&#x459;" horiz-adv-x="883" 
d="M799 45c-38 -30 -92 -45 -163 -45h-269v387h-104c-13 -330 -64 -390 -201 -394c-21 0 -40 2 -56 7v117c7 -1 13 -2 20 -2c63 5 84 57 90 393h417v-155h103c141 0 219 -60 219 -176c0 -59 -19 -103 -56 -132zM533 240v-127h81c49 0 74 21 74 64c0 42 -25 63 -74 63h-81z
" />
    <glyph glyph-name="afii10107" unicode="&#x45a;" horiz-adv-x="908" 
d="M824 45c-38 -30 -92 -45 -163 -45h-268v198h-166v-198h-166v508h166v-190h166v190h166v-155h102c141 0 220 -60 220 -176c0 -59 -19 -103 -57 -132zM559 113h81c49 0 74 21 74 64c0 42 -25 63 -74 63h-81v-127z" />
    <glyph glyph-name="afii10108" unicode="&#x45b;" horiz-adv-x="610" 
d="M554 0h-166v239c0 65 -27 98 -75 98c-53 0 -86 -44 -86 -129v-208h-166v537h-71v98h71v77h166v-77h215v-98h-215v-135h2c33 41 81 64 137 64c117 0 188 -73 188 -209v-257z" />
    <glyph glyph-name="afii10109" unicode="&#x45c;" horiz-adv-x="577" 
d="M227 0h-166v508h166v-200h2l136 200h192l-181 -237l200 -271h-204l-143 230h-2v-230zM278 712h191l-141 -148h-128z" />
    <glyph glyph-name="uni045D" unicode="&#x45d;" horiz-adv-x="687" 
d="M626 0h-161v180c0 67 3 134 9 201h-2c-19 -62 -44 -124 -75 -187l-96 -194h-240v508h161v-181c0 -69 -3 -136 -10 -200h2c21 64 47 126 76 187l96 194h240v-508zM362 712l78 -148h-128l-141 148h191z" />
    <glyph glyph-name="afii10110" unicode="&#x45e;" horiz-adv-x="530" 
d="M169 508l49 -170c21 -79 38 -149 51 -212h2c14 71 31 142 51 213l47 169h169l-169 -499c-52 -151 -112 -201 -244 -201c-29 0 -57 3 -86 9v126c16 -5 33 -8 51 -8c47 0 77 25 77 66c0 9 -2 20 -5 32c-3 11 -11 33 -23 66l-149 409h179zM395 599c-31 -27 -74 -41 -128 -41
c-108 0 -173 57 -178 154h106c3 -37 28 -58 72 -58s69 21 72 58h106c-3 -49 -19 -86 -50 -113z" />
    <glyph glyph-name="afii10193" unicode="&#x45f;" horiz-adv-x="615" 
d="M61 508h166v-387h161v387h166v-508h-165v-160h-166v160h-162v508z" />
    <glyph glyph-name="afii10050" unicode="&#x490;" horiz-adv-x="519" 
d="M76 0v712h268v134h166v-281h-261v-565h-173z" />
    <glyph glyph-name="afii10098" unicode="&#x491;" horiz-adv-x="452" 
d="M61 0v508h229v160h153v-281h-216v-387h-166z" />
    <glyph glyph-name="uni0492" unicode="&#x492;" horiz-adv-x="521" 
d="M77 373v339h435v-147h-261v-192h134v-114h-134v-259h-174v259h-62v114h62z" />
    <glyph glyph-name="uni0493" unicode="&#x493;" horiz-adv-x="458" 
d="M68 273v235h382v-121h-216v-114h122v-100h-122v-173h-166v173h-56v100h56z" />
    <glyph glyph-name="uni0496" unicode="&#x496;" horiz-adv-x="953" 
d="M949 -160h-166v160h-38l-181 348h-2v-348h-170v348h-2l-182 -348h-204l228 372l-211 340h199l170 -324h2v324h170v-324h2l169 324h199l-211 -340l138 -225h90v-307z" />
    <glyph glyph-name="uni0497" unicode="&#x497;" horiz-adv-x="795" 
d="M806 -160h-166v160h-30l-130 252h-2v-252h-161v252h-2l-131 -252h-195l177 272l-159 236h184l124 -221h2v221h161v-221h2l124 221h184l-159 -236l98 -151h79v-281z" />
    <glyph glyph-name="uni049A" unicode="&#x49a;" horiz-adv-x="690" 
d="M249 0h-173v712h173v-307h2l209 307h207l-259 -337l169 -228h109v-307h-166v160h-52l-217 328h-2v-328z" />
    <glyph glyph-name="uni049B" unicode="&#x49b;" horiz-adv-x="577" 
d="M227 0h-166v508h166v-200h2l136 200h192l-181 -237l111 -150h89v-281h-166v160h-38l-143 230h-2v-230z" />
    <glyph glyph-name="uni049C" unicode="&#x49c;" horiz-adv-x="760" 
d="M552 0l-153 295h-2v-151h-107v151h-44v-295h-170v712h170v-270h44v150h107v-150h2l140 270h200l-209 -338l226 -374h-204z" />
    <glyph glyph-name="uni049D" unicode="&#x49d;" horiz-adv-x="643" 
d="M476 272l177 -272h-195l-109 209h-5v-110h-87v110h-35v-209h-161v508h161v-178h35v114h87v-114h7l100 178h184z" />
    <glyph glyph-name="uni04A2" unicode="&#x4a2;" horiz-adv-x="789" 
d="M76 712h173v-270h263v270h173v-565h88v-307h-166v160h-95v295h-263v-295h-173v712z" />
    <glyph glyph-name="uni04A3" unicode="&#x4a3;" horiz-adv-x="637" 
d="M61 508h166v-190h168v190h166v-387h68v-281h-166v160h-68v198h-168v-198h-166v508z" />
    <glyph glyph-name="uni04AE" unicode="&#x4ae;" horiz-adv-x="663" 
d="M1 712h192l62 -129c29 -59 54 -119 76 -179h2c20 57 45 117 75 179l62 129h192l-244 -443v-269h-173v269z" />
    <glyph glyph-name="uni04AF" unicode="&#x4af;" horiz-adv-x="533" 
d="M-8 508h176l50 -163c17 -58 33 -122 47 -193h2c13 64 29 128 48 193l49 163h177l-192 -523v-170h-166v170z" />
    <glyph glyph-name="uni04B2" unicode="&#x4b2;" horiz-adv-x="669" 
d="M668 -160h-166v160h-38l-128 246h-2l-129 -246h-203l221 365l-209 347h199l121 -238h2l120 238h199l-209 -347l133 -218h89v-307z" />
    <glyph glyph-name="uni04B3" unicode="&#x4b3;" horiz-adv-x="535" 
d="M541 -160h-166v160h-24l-83 163h-2l-83 -163h-189l170 261l-159 247h188l73 -145h2l73 145h189l-159 -247l91 -140h79v-281z" />
    <glyph glyph-name="uni04B8" unicode="&#x4b8;" horiz-adv-x="697" 
d="M621 0h-173v258c-15 -4 -36 -8 -65 -13v-129h-114v122c-153 3 -238 83 -238 223v251h173v-217c0 -51 22 -86 65 -101v175h114v-181c25 3 47 7 65 12v312h173v-712z" />
    <glyph glyph-name="uni04B9" unicode="&#x4b9;" horiz-adv-x="583" 
d="M522 0h-163v179c-10 -3 -24 -7 -42 -10v-90h-87v81h-15c-121 0 -189 60 -189 165v183h163v-150c0 -40 12 -63 41 -72v135h87v-137c13 2 27 5 42 10v214h163v-508z" />
    <glyph glyph-name="uni04BA" unicode="&#x4ba;" horiz-adv-x="697" 
d="M76 712h173v-258c51 13 108 20 169 20c160 0 248 -80 248 -223v-251h-174v217c0 71 -42 110 -121 110c-43 0 -84 -5 -122 -15v-312h-173v712z" />
    <glyph glyph-name="uni04BB" unicode="&#x4bb;" 
d="M227 457h2c33 41 81 64 137 64c116 0 186 -73 186 -209v-312h-166v294c0 65 -26 98 -74 98c-53 0 -85 -44 -85 -129v-263h-166v712h166v-255z" />
    <glyph glyph-name="uni04C0" unicode="&#x4c0;" horiz-adv-x="325" 
d="M249 712v-712h-173v712h173z" />
    <glyph glyph-name="uni04CF" unicode="&#x4cf;" horiz-adv-x="288" 
d="M227 712v-712h-166v712h166z" />
    <glyph glyph-name="uni04D8" unicode="&#x4d8;" horiz-adv-x="775" 
d="M699 166c-57 -113 -169 -182 -314 -182c-214 0 -351 145 -351 371c0 23 1 41 3 55h524c-8 121 -82 178 -183 178c-77 0 -128 -39 -140 -96h-185c28 132 146 236 326 236c224 2 364 -150 362 -371c0 -71 -14 -134 -42 -191zM217 281c13 -103 80 -156 168 -156
c91 0 155 53 172 156h-340z" />
    <glyph glyph-name="afii10846" unicode="&#x4d9;" horiz-adv-x="584" 
d="M554 255c0 -154 -100 -271 -263 -271c-159 0 -261 105 -261 269c0 13 1 26 2 38h358c-4 87 -42 122 -101 122c-41 0 -70 -24 -77 -57h-169c22 95 115 168 244 168c170 0 267 -112 267 -269zM196 197c7 -69 44 -104 95 -104c52 0 88 33 97 104h-192z" />
    <glyph glyph-name="uni04E8" unicode="&#x4e8;" horiz-adv-x="757" 
d="M681 158c-56 -112 -162 -174 -302 -174c-212 0 -345 143 -345 372s133 372 345 372c210 0 344 -143 344 -372c0 -76 -14 -142 -42 -198zM266 169c29 -29 67 -44 113 -44c92 0 153 61 170 166h-340c9 -53 28 -93 57 -122zM549 421c-17 105 -78 166 -170 166
s-153 -61 -170 -166h340z" />
    <glyph glyph-name="uni04E9" unicode="&#x4e9;" horiz-adv-x="604" 
d="M541 111c-45 -81 -130 -127 -239 -127c-165 0 -272 105 -272 270s107 270 272 270s272 -105 272 -270c0 -55 -11 -102 -33 -143zM230 128c19 -19 43 -29 72 -29c57 0 96 41 107 110h-215c5 -35 17 -62 36 -81zM410 299c-11 69 -49 110 -108 110c-57 0 -96 -41 -107 -110
h215z" />
    <glyph glyph-name="Wgrave" unicode="&#x1e80;" horiz-adv-x="991" 
d="M839 0h-230l-60 285c-22 98 -40 193 -53 286h-2c-13 -87 -30 -182 -52 -286l-60 -285h-230l-144 712h168l48 -257c19 -105 35 -205 46 -298h2c17 101 36 201 57 298l56 257h221l56 -257c23 -102 41 -201 56 -298h2c13 99 28 198 47 298l47 257h169zM321 911h191l78 -151
h-128z" />
    <glyph glyph-name="wgrave" unicode="&#x1e81;" horiz-adv-x="848" 
d="M731 0h-227l-41 191c-15 73 -28 144 -38 213h-2c-10 -69 -23 -140 -38 -213l-41 -191h-227l-113 508h162l33 -187c13 -74 24 -146 32 -216h2c12 79 26 152 41 217l42 186h216l42 -186c15 -65 29 -138 41 -217h2c8 70 19 142 32 216l33 187h162zM251 712h191l78 -148h-128
z" />
    <glyph glyph-name="Wacute" unicode="&#x1e82;" horiz-adv-x="991" 
d="M839 0h-230l-60 285c-22 98 -40 193 -53 286h-2c-13 -87 -30 -182 -52 -286l-60 -285h-230l-144 712h168l48 -257c19 -105 35 -205 46 -298h2c17 101 36 201 57 298l56 257h221l56 -257c23 -102 41 -201 56 -298h2c13 99 28 198 47 298l47 257h169zM476 911h191
l-141 -151h-128z" />
    <glyph glyph-name="wacute" unicode="&#x1e83;" horiz-adv-x="848" 
d="M731 0h-227l-41 191c-15 73 -28 144 -38 213h-2c-10 -69 -23 -140 -38 -213l-41 -191h-227l-113 508h162l33 -187c13 -74 24 -146 32 -216h2c12 79 26 152 41 217l42 186h216l42 -186c15 -65 29 -138 41 -217h2c8 70 19 142 32 216l33 187h162zM406 712h191l-141 -148
h-128z" />
    <glyph glyph-name="Wdieresis" unicode="&#x1e84;" horiz-adv-x="991" 
d="M839 0h-230l-60 285c-22 98 -40 193 -53 286h-2c-13 -87 -30 -182 -52 -286l-60 -285h-230l-144 712h168l48 -257c19 -105 35 -205 46 -298h2c17 101 36 201 57 298l56 257h221l56 -257c23 -102 41 -201 56 -298h2c13 99 28 198 47 298l47 257h169zM309 769v131h143v-131
h-143zM678 900v-131h-142v131h142z" />
    <glyph glyph-name="wdieresis" unicode="&#x1e85;" horiz-adv-x="848" 
d="M731 0h-227l-41 191c-15 73 -28 144 -38 213h-2c-10 -69 -23 -140 -38 -213l-41 -191h-227l-113 508h162l33 -187c13 -74 24 -146 32 -216h2c12 79 26 152 41 217l42 186h216l42 -186c15 -65 29 -138 41 -217h2c8 70 19 142 32 216l33 187h162zM239 581v131h143v-131
h-143zM466 581v131h142v-131h-142z" />
    <glyph glyph-name="uni1E9E" unicode="&#x1e9e;" horiz-adv-x="814" 
d="M782 196c0 -67 -23 -118 -68 -155c-46 -37 -108 -56 -186 -56c-156 0 -239 72 -239 213h156c0 -51 26 -77 78 -77c51 0 80 26 80 77c0 76 -65 114 -194 122v116l108 120c-28 21 -64 32 -107 32c-112 0 -171 -62 -171 -182v-406h-173v402c0 213 125 325 356 325
c129 0 240 -54 309 -141l-145 -161c127 -36 196 -112 196 -229z" />
    <glyph glyph-name="Ygrave" unicode="&#x1ef2;" horiz-adv-x="663" 
d="M255 583c29 -59 54 -119 76 -179h2c20 57 45 117 75 179l62 129h192l-244 -443v-269h-173v269l-244 443h192zM158 911h191l78 -151h-128z" />
    <glyph glyph-name="ygrave" unicode="&#x1ef3;" horiz-adv-x="530" 
d="M538 508l-169 -499c-52 -151 -112 -201 -244 -201c-29 0 -57 3 -86 9v126c16 -5 33 -8 51 -8c47 0 77 25 77 66c0 9 -2 20 -5 32c-3 11 -11 33 -23 66l-149 409h179l49 -170c21 -79 38 -149 51 -212h2c14 71 31 142 51 213l47 169h169zM285 712l78 -148h-128l-141 148
h191z" />
    <glyph glyph-name="uni2010" unicode="&#x2010;" horiz-adv-x="337" 
d="M307 353v-122h-277v122h277z" />
    <glyph glyph-name="endash" unicode="&#x2013;" horiz-adv-x="500" 
d="M480 353v-122h-460v122h460z" />
    <glyph glyph-name="emdash" unicode="&#x2014;" horiz-adv-x="1000" 
d="M980 353v-122h-960v122h960z" />
    <glyph glyph-name="afii00208" unicode="&#x2015;" horiz-adv-x="1000" 
d="M980 353v-122h-960v122h960z" />
    <glyph glyph-name="underscoredbl" unicode="&#x2017;" horiz-adv-x="500" 
d="M0 -291v84h500v-84h-500zM0 -134v84h500v-84h-500z" />
    <glyph glyph-name="quoteleft" unicode="&#x2018;" horiz-adv-x="266" 
d="M59 561l77 151h83l-59 -151h49v-157h-150v157z" />
    <glyph glyph-name="quoteright" unicode="&#x2019;" horiz-adv-x="266" 
d="M106 556h-49v156h150v-156l-77 -152h-83z" />
    <glyph glyph-name="quotesinglbase" unicode="&#x201a;" horiz-adv-x="266" 
d="M106 0h-49v156h150v-156l-77 -152h-83z" />
    <glyph glyph-name="quotereversed" unicode="&#x201b;" horiz-adv-x="266" 
d="M59 712h150v-156h-49l59 -152h-83l-77 152v156z" />
    <glyph glyph-name="quotedblleft" unicode="&#x201c;" horiz-adv-x="466" 
d="M336 712h83l-59 -151h49v-157h-150v157zM59 404v157l77 151h83l-59 -151h49v-157h-150z" />
    <glyph glyph-name="quotedblright" unicode="&#x201d;" horiz-adv-x="466" 
d="M247 404l59 152h-49v156h150v-156l-77 -152h-83zM106 556h-49v156h150v-156l-77 -152h-83z" />
    <glyph glyph-name="quotedblbase" unicode="&#x201e;" horiz-adv-x="466" 
d="M247 -152l59 152h-49v156h150v-156l-77 -152h-83zM106 0h-49v156h150v-156l-77 -152h-83z" />
    <glyph glyph-name="dagger" unicode="&#x2020;" horiz-adv-x="606" 
d="M57 546h163v166h166v-165h163v-139h-163v-528h-166v528h-163v138z" />
    <glyph glyph-name="daggerdbl" unicode="&#x2021;" horiz-adv-x="606" 
d="M549 411h-163v-230h163v-136h-163v-165h-166v165h-163v136h163v230h-163v136h163v165h166v-165h163v-136z" />
    <glyph glyph-name="bullet" unicode="&#x2022;" horiz-adv-x="389" 
d="M40 356c0 84 71 155 155 155c85 0 154 -71 154 -155s-69 -155 -154 -155c-84 0 -155 71 -155 155z" />
    <glyph glyph-name="ellipsis" unicode="&#x2026;" horiz-adv-x="943" 
d="M718 184h176v-184h-176v184zM384 184h176v-184h-176v184zM49 184h176v-184h-176v184z" />
    <glyph glyph-name="perthousand" unicode="&#x2030;" horiz-adv-x="1117" 
d="M70 647c27 31 64 46 113 46c97 0 153 -64 153 -177s-54 -177 -153 -177s-153 64 -153 177c0 57 13 100 40 131zM821 289c27 31 64 46 113 46c97 0 153 -64 153 -177s-54 -177 -153 -177s-153 64 -153 177c0 57 13 100 40 131zM430 158c0 113 56 177 153 177
s153 -64 153 -177s-54 -177 -153 -177s-153 64 -153 177zM130 -30l402 734h102l-402 -734h-102zM889 158c0 -62 15 -93 45 -93s45 31 45 93s-15 93 -45 93s-45 -31 -45 -93zM138 516c0 -62 15 -93 45 -93s45 31 45 93s-15 93 -45 93s-45 -31 -45 -93zM550 89
c7 -16 18 -24 33 -24c31 0 46 32 46 93c0 60 -17 93 -46 93s-45 -33 -45 -93c0 -31 4 -54 12 -69z" />
    <glyph glyph-name="minute" unicode="&#x2032;" horiz-adv-x="237" 
d="M30 432l31 242h146l-73 -242h-104z" />
    <glyph glyph-name="second" unicode="&#x2033;" horiz-adv-x="430" 
d="M226 432l31 242h146l-73 -242h-104zM30 432l31 242h146l-73 -242h-104z" />
    <glyph glyph-name="guilsinglleft" unicode="&#x2039;" horiz-adv-x="342" 
d="M43 254l114 200h142l-106 -200l106 -200h-142z" />
    <glyph glyph-name="guilsinglright" unicode="&#x203a;" horiz-adv-x="342" 
d="M149 254l-106 200h142l114 -200l-114 -200h-142z" />
    <glyph glyph-name="exclamdbl" unicode="&#x203c;" horiz-adv-x="612" 
d="M106 210l-31 502h195l-30 -502h-134zM342 712h195l-30 -502h-134zM528 147v-147h-176v147h176zM85 0v147h176v-147h-176z" />
    <glyph glyph-name="uni203D" unicode="&#x203d;" horiz-adv-x="570" 
d="M513 368c-15 -25 -43 -50 -84 -76c-33 -21 -55 -38 -66 -49c-11 -12 -16 -27 -16 -45h-140c-1 12 -2 20 -2 25c0 68 14 89 90 145c27 20 45 36 54 49c8 12 12 27 12 46c0 40 -27 65 -74 65c-57 0 -87 -27 -88 -90h-171c1 113 59 184 163 209l-3 65h189l-4 -63
c104 -23 162 -90 162 -186c0 -39 -7 -70 -22 -95zM364 147v-147h-176v147h176z" />
    <glyph glyph-name="uni203E" unicode="&#x203e;" horiz-adv-x="500" 
d="M500 879v-103h-500v103h500z" />
    <glyph glyph-name="fraction" unicode="&#x2044;" horiz-adv-x="149" 
d="M206 674h100l-363 -674h-100z" />
    <glyph glyph-name="uni2070" unicode="&#x2070;" horiz-adv-x="481" 
d="M84 383c-37 43 -55 104 -55 183c0 157 76 247 212 247c135 0 211 -90 211 -247c0 -159 -76 -247 -211 -247c-68 0 -120 21 -157 64zM170 566c0 -93 24 -145 71 -145c45 0 69 52 69 145c0 92 -24 144 -69 144c-47 0 -71 -52 -71 -144z" />
    <glyph glyph-name="uni2074" unicode="&#x2074;" horiz-adv-x="466" 
d="M374 802v-280h81v-101h-81v-91h-136v91h-227v106l184 275h179zM244 522v48c0 41 2 86 5 136h-2c-20 -36 -45 -75 -74 -118l-44 -66h115z" />
    <glyph glyph-name="uni2075" unicode="&#x2075;" horiz-adv-x="466" 
d="M403 691h-224l-8 -78h2c27 21 59 32 98 32c48 0 87 -14 118 -42c30 -29 45 -66 45 -111c0 -53 -18 -95 -55 -126s-87 -47 -148 -47c-123 0 -199 55 -199 150h140c1 -31 24 -50 59 -50c40 0 63 23 63 66c0 41 -24 65 -61 65c-32 0 -51 -17 -58 -42l-136 8l27 286h337v-111
z" />
    <glyph glyph-name="uni2076" unicode="&#x2076;" horiz-adv-x="460" 
d="M409 400c-33 -51 -96 -81 -172 -81c-132 0 -208 83 -208 238c0 160 80 256 215 256c107 0 177 -55 184 -148h-140c-4 33 -21 49 -51 49c-47 0 -71 -39 -74 -118h2c27 27 64 41 110 41c47 0 86 -14 115 -41c29 -28 44 -64 44 -109c0 -33 -8 -62 -25 -87zM195 438
c11 -11 25 -17 42 -17c35 0 59 24 59 61s-23 62 -59 62c-35 0 -58 -24 -58 -63c0 -18 5 -32 16 -43z" />
    <glyph glyph-name="uni2077" unicode="&#x2077;" horiz-adv-x="414" 
d="M11 802h392v-108c-72 -95 -126 -228 -153 -364h-150c15 69 38 135 68 198s63 116 98 159h-255v115z" />
    <glyph glyph-name="uni2078" unicode="&#x2078;" horiz-adv-x="461" 
d="M379 356c-36 -25 -86 -37 -149 -37c-127 0 -202 52 -202 140c0 59 40 103 101 115v2c-55 13 -90 53 -90 104c0 40 18 72 53 97c35 24 81 36 138 36s104 -12 139 -36c35 -25 52 -57 52 -97c0 -52 -33 -91 -89 -104v-2c61 -12 101 -56 101 -115c0 -44 -18 -78 -54 -103z
M184 433c11 -9 27 -14 46 -14c40 0 64 20 64 51c0 32 -24 52 -64 52c-39 0 -63 -20 -63 -52c0 -15 6 -28 17 -37zM186 631c11 -9 25 -13 44 -13c37 0 61 18 61 49c0 29 -24 47 -61 47s-60 -18 -60 -47c0 -15 5 -27 16 -36z" />
    <glyph glyph-name="uni2079" unicode="&#x2079;" horiz-adv-x="460" 
d="M431 575c0 -160 -80 -256 -215 -256c-108 0 -177 55 -184 148h140c3 -32 20 -49 51 -49c47 0 71 39 74 118h-2c-27 -27 -64 -41 -110 -41c-47 0 -86 14 -115 42c-29 27 -44 63 -44 108c0 98 81 168 197 168c132 0 208 -83 208 -238zM164 650c0 -37 23 -62 58 -62
s59 26 59 63c0 36 -24 60 -59 60s-58 -24 -58 -61z" />
    <glyph glyph-name="uni207A" unicode="&#x207a;" horiz-adv-x="412" 
d="M42 604h110v108h108v-108h110v-105h-110v-107h-108v107h-110v105z" />
    <glyph glyph-name="uni207B" unicode="&#x207b;" horiz-adv-x="412" 
d="M370 604v-105h-328v105h328z" />
    <glyph glyph-name="uni207C" unicode="&#x207c;" horiz-adv-x="412" 
d="M42 426v99h328v-99h-328zM42 578v99h328v-99h-328z" />
    <glyph glyph-name="uni207D" unicode="&#x207d;" horiz-adv-x="263" 
d="M28 538c0 113 31 210 106 311h108c-51 -112 -71 -206 -71 -311s20 -199 71 -311h-108c-75 101 -106 198 -106 311z" />
    <glyph glyph-name="uni207E" unicode="&#x207e;" horiz-adv-x="263" 
d="M129 849c75 -101 106 -196 106 -311s-31 -211 -106 -311h-108c51 112 72 206 72 311c0 104 -21 198 -72 311h108z" />
    <glyph glyph-name="uni2080" unicode="&#x2080;" horiz-adv-x="481" 
d="M84 -119c-37 43 -55 104 -55 183c0 157 76 247 212 247c135 0 211 -90 211 -247c0 -159 -76 -247 -211 -247c-68 0 -120 21 -157 64zM170 64c0 -93 24 -145 71 -145c45 0 69 52 69 145c0 92 -24 144 -69 144c-47 0 -71 -52 -71 -144z" />
    <glyph glyph-name="uni2081" unicode="&#x2081;" horiz-adv-x="335" 
d="M10 217c89 0 131 24 140 83h125v-472h-140v288h-125v101z" />
    <glyph glyph-name="uni2082" unicode="&#x2082;" horiz-adv-x="471" 
d="M441 -172h-407c-1 11 -2 20 -2 28c0 51 10 93 31 126s57 62 110 88c81 39 112 60 112 96c0 27 -19 42 -48 42c-37 0 -58 -22 -59 -65h-140c1 108 74 168 198 168c117 0 192 -62 192 -145c0 -76 -45 -117 -130 -154c-40 -17 -67 -31 -80 -41s-21 -21 -22 -33h245v-110z
" />
    <glyph glyph-name="uni2083" unicode="&#x2083;" horiz-adv-x="464" 
d="M432 -38c0 -89 -77 -145 -198 -145c-135 0 -210 61 -210 170h142c0 -45 24 -68 68 -68c36 0 59 17 59 46c0 34 -26 51 -79 51h-13v99h16c44 0 71 18 71 49c0 28 -20 45 -56 45c-41 0 -63 -24 -63 -65h-137c0 105 74 167 201 167c120 0 193 -51 193 -134
c0 -51 -25 -82 -84 -103v-2c63 -20 90 -53 90 -110z" />
    <glyph glyph-name="uni2084" unicode="&#x2084;" horiz-adv-x="466" 
d="M373 300v-280h81v-101h-81v-91h-136v91h-227v106l184 275h179zM243 20v48c0 41 2 86 5 136h-2c-20 -36 -45 -75 -74 -118l-44 -66h115z" />
    <glyph glyph-name="uni2085" unicode="&#x2085;" horiz-adv-x="466" 
d="M403 189h-224l-8 -78h2c27 21 59 32 98 32c48 0 87 -14 118 -42c30 -29 45 -66 45 -111c0 -53 -18 -95 -55 -126s-87 -47 -148 -47c-123 0 -199 55 -199 150h140c1 -31 24 -50 59 -50c40 0 63 23 63 66c0 41 -24 65 -61 65c-32 0 -51 -17 -58 -42l-136 8l27 286h337v-111
z" />
    <glyph glyph-name="uni2086" unicode="&#x2086;" horiz-adv-x="460" 
d="M409 -102c-33 -51 -96 -81 -172 -81c-132 0 -208 83 -208 238c0 160 80 256 215 256c107 0 177 -55 184 -148h-140c-4 33 -21 49 -51 49c-47 0 -71 -39 -74 -118h2c27 27 64 41 110 41c47 0 86 -14 115 -41c29 -28 44 -64 44 -109c0 -33 -8 -62 -25 -87zM195 -65
c11 -11 25 -16 42 -16c35 0 59 24 59 61s-23 62 -59 62c-35 0 -58 -24 -58 -63c0 -18 5 -33 16 -44z" />
    <glyph glyph-name="uni2087" unicode="&#x2087;" horiz-adv-x="414" 
d="M10 300h392v-108c-72 -95 -126 -228 -153 -364h-150c15 69 38 135 68 198s63 116 98 159h-255v115z" />
    <glyph glyph-name="uni2088" unicode="&#x2088;" horiz-adv-x="461" 
d="M379 -146c-36 -25 -86 -37 -149 -37c-127 0 -202 52 -202 140c0 59 40 103 101 115v2c-55 13 -90 53 -90 104c0 40 18 72 53 97c35 24 81 36 138 36s104 -12 139 -36c35 -25 52 -57 52 -97c0 -52 -33 -91 -89 -104v-2c61 -12 101 -56 101 -115c0 -44 -18 -78 -54 -103z
M184 -69c11 -9 27 -14 46 -14c40 0 64 20 64 51c0 32 -24 52 -64 52c-39 0 -63 -20 -63 -52c0 -15 6 -28 17 -37zM186 129c11 -9 25 -13 44 -13c37 0 61 18 61 49c0 29 -24 47 -61 47s-60 -18 -60 -47c0 -15 5 -27 16 -36z" />
    <glyph glyph-name="uni2089" unicode="&#x2089;" horiz-adv-x="460" 
d="M431 73c0 -160 -80 -256 -215 -256c-108 0 -177 55 -184 148h140c3 -32 20 -49 51 -49c47 0 71 39 74 118h-2c-27 -27 -64 -41 -110 -41c-47 0 -86 14 -115 42c-29 27 -44 63 -44 108c0 98 81 168 197 168c132 0 208 -83 208 -238zM164 148c0 -37 23 -62 58 -62
s59 26 59 63c0 36 -24 60 -59 60s-58 -24 -58 -61z" />
    <glyph glyph-name="uni208A" unicode="&#x208a;" horiz-adv-x="412" 
d="M42 102h110v108h108v-108h110v-105h-110v-107h-108v107h-110v105z" />
    <glyph glyph-name="uni208B" unicode="&#x208b;" horiz-adv-x="412" 
d="M370 102v-105h-328v105h328z" />
    <glyph glyph-name="uni208C" unicode="&#x208c;" horiz-adv-x="412" 
d="M42 -76v99h328v-99h-328zM42 76v99h328v-99h-328z" />
    <glyph glyph-name="uni208D" unicode="&#x208d;" horiz-adv-x="263" 
d="M28 36c0 113 31 210 106 311h108c-51 -112 -71 -206 -71 -311s20 -199 71 -311h-108c-75 101 -106 198 -106 311z" />
    <glyph glyph-name="uni208E" unicode="&#x208e;" horiz-adv-x="263" 
d="M129 347c75 -101 106 -196 106 -311s-31 -211 -106 -311h-108c51 112 72 206 72 311c0 104 -21 198 -72 311h108z" />
    <glyph glyph-name="uni2099" unicode="&#x2099;" horiz-adv-x="449" 
d="M43 184h126v-41h1c27 34 63 51 107 51c83 0 133 -52 133 -147v-219h-135v202c0 39 -15 59 -45 59c-34 0 -51 -28 -51 -83v-178h-136v356z" />
    <glyph glyph-name="franc" unicode="&#x20a3;" horiz-adv-x="628" 
d="M587 529h-315v-106h292v-144h-292v-78h164v-119h-164v-82h-173v82h-76v119h76v473h488v-145z" />
    <glyph glyph-name="lira" unicode="&#x20a4;" horiz-adv-x="628" 
d="M596 468h-163c0 55 -26 86 -73 86c-53 0 -79 -37 -79 -111v-28h125v-73h-125v-38h125v-73h-126c-5 -45 -22 -74 -57 -94v-2h367v-135h-567v137c55 0 83 26 88 94h-88v73h89v38h-89v73h89v27c0 163 88 248 249 248c72 0 129 -20 172 -60c42 -40 63 -94 63 -162z" />
    <glyph glyph-name="peseta" unicode="&#x20a7;" horiz-adv-x="937" 
d="M912 3c-23 -7 -59 -11 -84 -11c-128 0 -183 50 -183 169v226h-43c-20 -117 -112 -186 -268 -186h-85v-201h-173v674h258c147 0 237 -61 264 -166h47v137h166v-137h96v-121h-96v-188c0 -55 19 -76 64 -76c13 0 26 2 37 5v-125zM249 340h61c79 0 118 32 118 97
s-39 98 -118 98h-61v-195z" />
    <glyph glyph-name="Euro" unicode="&#x20ac;" horiz-adv-x="628" 
d="M611 462h-166c-9 57 -44 90 -99 90c-63 0 -103 -42 -119 -127h210l-14 -73h-203v-38h196l-14 -73h-173c16 -79 55 -119 117 -119c55 0 91 35 100 92h169c-15 -144 -115 -230 -268 -230c-156 0 -257 92 -285 257h-61l14 73h40v38h-54l14 73h46c27 169 128 265 288 265
c155 0 251 -87 262 -228z" />
    <glyph glyph-name="uni20B9" unicode="&#x20b9;" horiz-adv-x="628" 
d="M572 429h-85c-15 -68 -71 -113 -158 -129v-2c45 -17 78 -52 111 -121l87 -177h-199l-75 167c-32 68 -70 96 -127 96h-15v106h50c67 0 112 21 132 60h-262l26 93h241c-17 39 -60 59 -129 59h-138l26 93h540l-25 -93h-142v-2c25 -11 43 -30 53 -57h114z" />
    <glyph glyph-name="uni20BA" unicode="&#x20ba;" horiz-adv-x="628" 
d="M519 76c-61 -57 -147 -86 -259 -86c-53 0 -107 3 -162 10v236l-85 -47v95l85 47v59l-85 -47v95l85 47v189h174v-108l161 88v-95l-161 -88v-59l161 88v-95l-161 -87v-178c101 0 157 62 157 185h181c0 -109 -30 -192 -91 -249z" />
    <glyph glyph-name="uni20BC" unicode="&#x20bc;" horiz-adv-x="759" 
d="M723 0h-155v293c0 124 -31 175 -111 183v-476h-155v476c-80 -8 -112 -60 -112 -183v-293h-154v301c0 204 87 305 266 320v91h155v-91c179 -15 266 -116 266 -320v-301z" />
    <glyph glyph-name="uni20BD" unicode="&#x20bd;" horiz-adv-x="628" 
d="M540 311c-43 -37 -105 -56 -187 -56h-94v-51h175v-112h-175v-92h-173v92h-74v112h74v51h-74v122h74v297h267c164 0 250 -78 250 -209c0 -65 -21 -117 -63 -154zM328 377c65 0 97 29 97 88c0 58 -32 87 -97 87h-69v-175h69z" />
    <glyph glyph-name="afii61248" unicode="&#x2105;" horiz-adv-x="964" 
d="M892 311c36 -35 54 -81 54 -138c0 -58 -18 -104 -54 -138c-37 -34 -86 -51 -147 -51s-110 17 -146 51c-37 34 -55 80 -55 138c0 57 18 103 55 138c36 34 85 51 146 51s110 -17 147 -51zM74 639c35 34 83 51 143 51c108 0 183 -59 192 -151h-140c-3 32 -22 50 -50 50
c-35 0 -56 -32 -56 -87c0 -57 21 -89 57 -89c28 0 47 22 48 57h141c-7 -97 -82 -158 -191 -158c-60 0 -108 17 -143 52c-36 34 -54 80 -54 138c0 57 18 103 53 137zM607 674h100l-363 -674h-100zM789 108c10 15 15 37 15 65c0 56 -22 88 -59 88s-59 -32 -59 -88
s22 -88 59 -88c19 0 33 8 44 23z" />
    <glyph glyph-name="afii61289" unicode="&#x2113;" horiz-adv-x="452" 
d="M365 307c-31 -47 -73 -81 -128 -101v-26c0 -52 19 -74 64 -74c15 0 31 2 46 7v-112c-27 -7 -57 -11 -88 -11c-127 0 -184 58 -184 186v10c-17 1 -33 3 -47 6v84c15 -3 31 -5 47 -6v188c0 177 53 232 169 232c100 0 166 -61 166 -198c0 -77 -15 -138 -45 -185zM237 498
v-193c54 37 81 100 81 189c0 65 -15 97 -44 97c-27 0 -37 -21 -37 -93z" />
    <glyph glyph-name="afii61352" unicode="&#x2116;" horiz-adv-x="1216" 
d="M325 712l125 -281c44 -102 83 -197 116 -285h2c-5 89 -8 189 -8 300v266h166v-712h-250l-124 281c-44 99 -83 194 -116 285h-2c5 -107 8 -207 8 -300v-266h-166v712h249zM796 437c0 58 18 104 55 138c36 34 85 51 146 51c123 0 200 -73 200 -189s-77 -189 -200 -189
c-61 0 -110 17 -146 51c-37 34 -55 80 -55 138zM816 199h358v-115h-358v115zM1041 502c-11 15 -25 23 -44 23c-39 0 -60 -32 -60 -88c0 -55 23 -88 60 -88s59 33 59 88c0 28 -5 50 -15 65z" />
    <glyph glyph-name="uni2117" unicode="&#x2117;" horiz-adv-x="798" 
d="M715 551c30 -57 45 -122 45 -195c3 -220 -148 -374 -361 -371c-213 -3 -364 151 -361 371c-3 220 148 374 361 371c143 0 256 -64 316 -176zM662 518c-51 92 -144 146 -263 146c-180 0 -299 -124 -299 -308s119 -308 299 -308c179 0 300 124 300 308
c0 61 -12 115 -37 162zM605 422c0 -93 -59 -150 -172 -150h-73v-139h-110v438h183c115 0 172 -56 172 -149zM360 363h58c49 0 74 20 74 59c0 37 -24 59 -75 59h-57v-118z" />
    <glyph glyph-name="trademark" unicode="&#x2122;" horiz-adv-x="857" 
d="M819 356h-99v161c0 57 1 99 2 128h-2c-12 -56 -21 -98 -28 -126l-38 -163h-131l-38 163l-9 42c-4 19 -11 47 -18 84h-2c1 -57 2 -100 2 -128v-161h-99v356h169l34 -143c10 -41 19 -85 26 -131h2c6 42 14 86 25 131l34 143h170v-356zM5 712h318v-94h-103v-262h-112v262
h-103v94z" />
    <glyph glyph-name="uni2126" unicode="&#x2126;" horiz-adv-x="747" 
d="M719 0h-299v152c68 69 107 138 107 237c0 123 -61 189 -154 189c-92 0 -153 -66 -153 -189c0 -99 39 -168 107 -237v-152h-299v146h143v2c-84 79 -132 160 -132 269c0 101 30 179 91 232s142 79 243 79c102 0 183 -26 244 -79s91 -130 91 -232c0 -109 -48 -189 -132 -269
v-2h143v-146z" />
    <glyph glyph-name="estimated" unicode="&#x212e;" horiz-adv-x="863" 
d="M740 123c-27 -37 -66 -69 -118 -95c-52 -27 -115 -40 -190 -40c-227 -2 -388 149 -385 349c-3 199 151 356 385 353c236 4 385 -168 383 -362h-612c-8 0 -14 -6 -14 -13v-167c0 -21 4 -32 16 -44c62 -61 138 -91 227 -91c96 0 186 45 239 110h69zM189 362
c0 -7 6 -12 14 -12h456c8 0 13 5 13 12v167c0 20 -3 30 -15 41c-63 63 -138 94 -225 94c-89 0 -164 -31 -227 -94c-12 -11 -16 -21 -16 -41v-167z" />
    <glyph glyph-name="oneeighth" unicode="&#x215b;" horiz-adv-x="839" 
d="M760 382c30 -21 45 -50 45 -85c0 -43 -29 -75 -78 -86v-2c53 -11 88 -48 88 -97c0 -77 -66 -122 -177 -122s-177 45 -177 122c0 49 34 86 89 97v2c-49 11 -79 43 -79 86c0 71 67 117 167 117c51 0 91 -11 122 -32zM494 674h100l-363 -674h-100zM9 603c68 0 103 24 115 71
h118v-404h-130v244h-103v89zM678 90c9 7 14 18 14 31c0 25 -22 42 -54 42s-53 -17 -53 -42c0 -27 20 -43 53 -43c17 0 30 4 40 12zM638 328c-31 0 -51 -15 -51 -39s20 -40 51 -40s51 16 51 40s-20 39 -51 39z" />
    <glyph glyph-name="threeeighths" unicode="&#x215c;" horiz-adv-x="957" 
d="M579 112c0 49 34 86 89 97v2c-49 11 -79 43 -79 86c0 71 67 117 167 117c101 0 167 -46 167 -117c0 -43 -29 -75 -78 -86v-2c53 -11 88 -48 88 -97c0 -77 -66 -122 -177 -122s-177 45 -177 122zM21 407h124c0 -37 20 -56 60 -56c31 0 51 15 51 38c0 27 -22 40 -65 40h-14
v87h13c39 0 63 16 63 41c0 23 -20 37 -51 37c-36 0 -55 -20 -55 -53h-120c0 89 65 143 176 143c103 0 171 -46 171 -117c0 -43 -22 -70 -74 -87v-1c55 -17 79 -47 79 -96c0 -77 -63 -123 -174 -123c-117 0 -184 51 -184 147zM712 674l-363 -674h-100l363 674h100zM703 121
c0 -27 20 -43 53 -43s54 16 54 43c0 25 -22 42 -54 42s-53 -17 -53 -42zM719 260c9 -7 22 -11 37 -11c31 0 51 16 51 40s-20 39 -51 39s-51 -15 -51 -39c0 -12 5 -22 14 -29z" />
    <glyph glyph-name="fiveeighths" unicode="&#x215d;" horiz-adv-x="958" 
d="M627 22c-31 21 -47 51 -47 90c0 49 34 86 89 97v2c-49 11 -79 43 -79 86c0 71 67 117 167 117c101 0 167 -46 167 -117c0 -43 -29 -75 -78 -86v-2c53 -11 88 -48 88 -97c0 -77 -66 -122 -177 -122c-55 0 -99 11 -130 32zM154 389c1 -27 21 -42 50 -42c33 0 54 22 54 57
c0 33 -20 54 -52 54c-28 0 -45 -13 -50 -36l-122 7l24 245h295v-97h-194l-7 -64h2c22 18 50 27 85 27c41 0 75 -12 102 -37c26 -25 39 -58 39 -98c0 -88 -69 -145 -176 -145s-176 49 -176 129h126zM713 674l-363 -674h-100l363 674h100zM718 90c9 -8 22 -12 39 -12
c33 0 54 16 54 43c0 25 -22 42 -54 42s-53 -17 -53 -42c0 -13 5 -24 14 -31zM720 260c9 -7 22 -11 37 -11c31 0 51 16 51 40s-20 39 -51 39s-51 -15 -51 -39c0 -12 5 -22 14 -29z" />
    <glyph glyph-name="seveneighths" unicode="&#x215e;" horiz-adv-x="859" 
d="M780 382c30 -21 45 -50 45 -85c0 -43 -29 -75 -78 -86v-2c53 -11 88 -48 88 -97c0 -77 -66 -122 -177 -122s-177 45 -177 122c0 49 34 86 89 97v2c-49 11 -79 43 -79 86c0 71 67 117 167 117c51 0 91 -11 122 -32zM9 674h339v-94c-61 -81 -108 -194 -132 -310h-133
c13 59 33 115 59 170c25 54 53 99 84 136h-217v98zM151 0l363 674h100l-363 -674h-100zM698 90c9 7 14 18 14 31c0 25 -22 42 -54 42s-53 -17 -53 -42c0 -27 20 -43 53 -43c17 0 30 4 40 12zM695 260c9 7 14 17 14 29c0 24 -20 39 -51 39s-51 -15 -51 -39s20 -40 51 -40
c15 0 28 4 37 11z" />
    <glyph glyph-name="uni2166" unicode="&#x2166;" horiz-adv-x="1292" 
d="M185 712l77 -275c27 -92 50 -185 68 -280h2c16 83 39 177 68 280l78 275h180l-214 -712h-226l-214 712h181zM719 0v712h173v-712h-173zM1216 0h-173v712h173v-712z" />
    <glyph glyph-name="partialdiff" unicode="&#x2202;" horiz-adv-x="632" 
d="M571 379c0 -133 -26 -232 -77 -297s-119 -98 -204 -98c-83 0 -146 22 -190 66c-45 44 -67 103 -67 177c0 145 93 252 248 252c52 0 93 -15 124 -44h2c1 5 1 12 1 21c0 85 -45 144 -109 144c-44 0 -69 -23 -75 -69h-169c12 123 94 197 237 197c185 0 279 -122 279 -349z
M228 142c15 -20 38 -30 67 -30c63 0 100 52 100 135c0 75 -34 119 -91 119c-61 0 -99 -55 -99 -139c0 -37 8 -65 23 -85z" />
    <glyph glyph-name="uni2206" unicode="&#x2206;" horiz-adv-x="714" 
d="M246 712h224l243 -712h-712zM489 141l-61 200c-29 99 -53 186 -71 259h-2c-18 -73 -42 -160 -71 -259l-60 -200h265z" />
    <glyph glyph-name="product" unicode="&#x220f;" horiz-adv-x="702" 
d="M76 712h551v-832h-173v685h-205v-685h-173v832z" />
    <glyph glyph-name="summation" unicode="&#x2211;" horiz-adv-x="527" 
d="M35 712h457v-148h-269l161 -268l-161 -267h269v-149h-457v149l165 267l-165 268v148z" />
    <glyph glyph-name="minus" unicode="&#x2212;" horiz-adv-x="566" 
d="M507 381v-129h-448v129h448z" />
    <glyph glyph-name="uni2215" unicode="&#x2215;" horiz-adv-x="503" 
d="M328 745h124l-297 -834h-125z" />
    <glyph glyph-name="uni2219" unicode="&#x2219;" horiz-adv-x="371" 
d="M274 397v-183h-176v183h176z" />
    <glyph glyph-name="radical" unicode="&#x221a;" horiz-adv-x="674" 
d="M25 253v133h195l89 -372h2l199 698h144l-238 -832h-220l-88 373h-83z" />
    <glyph glyph-name="infinity" unicode="&#x221e;" horiz-adv-x="706" 
d="M645 175c-31 -33 -72 -50 -123 -50c-73 0 -125 33 -169 88c-44 -55 -96 -88 -169 -88c-51 0 -92 17 -123 50s-46 78 -46 133s15 100 46 133s72 50 123 50c73 0 125 -33 169 -88c44 55 96 88 169 88c51 0 92 -17 123 -50s46 -78 46 -133s-15 -100 -46 -133zM421 308
c29 -40 54 -61 86 -61c37 0 58 24 58 61s-21 61 -58 61c-32 0 -57 -21 -86 -61zM141 308c0 -37 22 -61 58 -61c32 0 57 21 86 61c-29 40 -54 61 -86 61c-36 0 -58 -24 -58 -61z" />
    <glyph glyph-name="integral" unicode="&#x222b;" horiz-adv-x="372" 
d="M30 -73c51 0 74 22 74 75v543c0 117 63 176 182 176c29 0 55 -3 79 -9v-114c-7 1 -14 2 -23 2c-51 0 -74 -22 -74 -75v-543c0 -117 -64 -176 -183 -176c-28 0 -54 3 -78 9v114c7 -1 14 -2 23 -2z" />
    <glyph glyph-name="approxequal" unicode="&#x2248;" horiz-adv-x="566" 
d="M95 254c25 32 59 48 102 48c36 0 63 -14 103 -41c32 -21 45 -29 64 -29c29 0 47 21 47 57h98c0 -52 -13 -94 -38 -126c-26 -33 -60 -49 -102 -49c-36 0 -63 14 -103 41c-32 21 -45 29 -64 29c-29 0 -47 -22 -47 -57h-98c0 53 13 95 38 127zM411 507h98
c0 -52 -13 -94 -38 -126c-26 -33 -60 -49 -102 -49c-36 0 -63 14 -103 41c-32 21 -45 29 -64 29c-29 0 -47 -21 -47 -57h-98c0 105 55 175 140 175c36 0 63 -14 103 -41c32 -21 45 -29 64 -29c29 0 47 22 47 57z" />
    <glyph glyph-name="notequal" unicode="&#x2260;" horiz-adv-x="566" 
d="M507 153h-256l-62 -113h-113l61 113h-78v124h146l42 79h-188v124h256l61 113h114l-62 -113h79v-124h-146l-43 -79h189v-124z" />
    <glyph glyph-name="lessequal" unicode="&#x2264;" horiz-adv-x="566" 
d="M59 281v148l448 145v-124l-295 -94v-2l295 -93v-124zM59 0v117h448v-117h-448z" />
    <glyph glyph-name="greaterequal" unicode="&#x2265;" horiz-adv-x="566" 
d="M354 354v2l-295 94v124l448 -145v-148l-448 -144v124zM59 0v117h448v-117h-448z" />
    <glyph glyph-name="lozenge" unicode="&#x25ca;" horiz-adv-x="668" 
d="M223 712h221l184 -356l-184 -356h-221l-183 356zM334 118l123 238l-123 238l-124 -238z" />
    <glyph glyph-name="uniF8FF" unicode="&#xf8ff;" horiz-adv-x="648" 
 />
    <glyph glyph-name="uniFB00" unicode="&#xfb00;" horiz-adv-x="690" 
d="M681 598c-7 1 -15 2 -24 2c-51 0 -74 -21 -74 -74v-18h94v-121h-94v-387h-164v387h-165v-387h-164v387h-81v121h81v37c0 117 64 176 183 176c29 0 55 -3 79 -9v-114c-7 1 -15 2 -24 2c-51 0 -74 -21 -74 -74v-18h165v37c0 117 64 176 183 176c29 0 55 -3 79 -9v-114z" />
    <glyph glyph-name="uniFB01" unicode="&#xfb01;" horiz-adv-x="649" 
d="M9 508h81v37c0 117 64 176 183 176c29 0 55 -3 79 -9v-114c-7 1 -15 2 -24 2c-51 0 -74 -21 -74 -74v-18h94v-121h-94v-387h-164v387h-81v121zM588 0h-166v508h166v-508zM422 712h166v-131h-166v131z" />
    <glyph glyph-name="uniFB02" unicode="&#xfb02;" horiz-adv-x="649" 
d="M9 508h81v37c0 117 64 176 183 176c29 0 55 -3 79 -9v-114c-7 1 -15 2 -24 2c-51 0 -74 -21 -74 -74v-18h94v-121h-94v-387h-164v387h-81v121zM588 0h-166v712h166v-712z" />
    <glyph glyph-name="uniFB03" unicode="&#xfb03;" horiz-adv-x="978" 
d="M90 508v37c0 117 64 176 183 176c29 0 55 -3 79 -9v-114c-7 1 -15 2 -24 2c-51 0 -74 -21 -74 -74v-18h165v37c0 117 64 176 183 176c29 0 55 -3 79 -9v-114c-7 1 -15 2 -24 2c-51 0 -74 -21 -74 -74v-18h94v-121h-94v-387h-164v387h-165v-387h-164v387h-81v121h81z
M751 508h166v-508h-166v508zM917 712v-131h-166v131h166z" />
    <glyph glyph-name="uniFB04" unicode="&#xfb04;" horiz-adv-x="978" 
d="M681 598c-7 1 -15 2 -24 2c-51 0 -74 -21 -74 -74v-18h94v-121h-94v-387h-164v387h-165v-387h-164v387h-81v121h81v37c0 117 64 176 183 176c29 0 55 -3 79 -9v-114c-7 1 -15 2 -24 2c-51 0 -74 -21 -74 -74v-18h165v37c0 117 64 176 183 176c29 0 55 -3 79 -9v-114z
M917 712v-712h-166v712h166z" />
    <glyph glyph-name="uniFEFF" unicode="&#xfeff;" horiz-adv-x="0" 
 />
    <glyph glyph-name="glyph202" horiz-adv-x="410" 
d="M60 140c76 0 106 29 106 139v433h173v-471c0 -171 -77 -249 -246 -249c-31 0 -57 3 -78 9v144c15 -3 30 -5 45 -5zM236 916h191l-141 -148h-128z" />
    <glyph glyph-name="Ccedilla.salt" horiz-adv-x="715" 
d="M677 456h-179c-8 77 -56 122 -131 122c-95 0 -152 -85 -152 -222s58 -222 150 -222c75 0 125 46 134 126h181c-7 -88 -38 -156 -94 -204s-130 -72 -221 -72c-204 0 -331 142 -331 372s129 372 333 372c183 0 304 -107 310 -272zM319 -49h133l-98 -168h-176z" />
    <glyph glyph-name="Scedilla.salt" horiz-adv-x="645" 
d="M580 329c22 -29 33 -68 33 -117c0 -138 -115 -228 -291 -228c-187 0 -298 91 -298 248h184c0 -73 39 -110 118 -110c65 0 105 28 105 75c0 35 -18 53 -53 66c-17 6 -45 14 -83 24c-58 15 -104 29 -139 44s-63 36 -86 65s-34 67 -34 115c0 130 109 217 279 217
c180 0 279 -81 279 -233h-180c0 64 -38 99 -106 99c-57 0 -94 -27 -94 -67c4 -47 29 -59 142 -88c57 -14 103 -28 138 -43s63 -38 86 -67zM269 -49h133l-98 -168h-176z" />
    <glyph glyph-name="Tcommaaccent.salt" horiz-adv-x="627" 
d="M9 565v147h609v-147h-218v-565h-173v565h-218zM266 -49h133l-98 -168h-176z" />
    <glyph glyph-name="i.locl" horiz-adv-x="288" 
d="M61 0v508h166v-508h-166zM61 581v131h166v-131h-166z" />
    <glyph glyph-name="glyph314" horiz-adv-x="289" 
d="M-13 -68c52 0 75 24 75 97v479h166v-507c0 -131 -72 -191 -187 -191c-31 0 -58 3 -80 9v116c8 -2 17 -3 26 -3zM49 564l78 148h191l-141 -148h-128z" />
    <glyph glyph-name="ccedilla.salt" horiz-adv-x="575" 
d="M549 314h-172c-5 53 -36 85 -81 85c-57 0 -92 -53 -92 -144c0 -92 34 -145 93 -145c45 0 76 35 79 94h173c-5 -67 -31 -121 -76 -160c-46 -40 -105 -60 -177 -60c-162 0 -266 107 -266 271c0 163 104 269 265 269c142 0 244 -86 254 -210zM247 -49h133l-98 -168h-176z
" />
    <glyph glyph-name="scedilla.salt" horiz-adv-x="542" 
d="M510 147c0 -99 -89 -163 -236 -163c-157 0 -243 60 -243 181h167c0 -48 26 -72 78 -72c41 0 64 17 64 42c-5 38 -22 43 -117 69c-79 20 -122 34 -155 76c-17 21 -25 49 -25 85c0 95 83 159 224 159c143 0 225 -58 225 -170h-158c0 43 -23 65 -68 65
c-37 0 -59 -15 -59 -40c3 -31 19 -38 104 -60c85 -23 134 -39 171 -83c19 -23 28 -52 28 -89zM225 -49h133l-98 -168h-176z" />
    <glyph glyph-name="tcommaaccent.salt" horiz-adv-x="378" 
d="M353 3c-23 -7 -59 -11 -84 -11c-128 0 -183 50 -183 169v226h-79v121h79v137h166v-137h96v-121h-96v-188c0 -55 19 -76 64 -76c13 0 26 2 37 5v-125zM163 -49h133l-98 -168h-176z" />
    <glyph glyph-name="a.superior" horiz-adv-x="419" 
d="M391 330h-122c-4 13 -6 28 -6 45h-2c-28 -37 -67 -55 -118 -55c-79 0 -128 47 -128 112c0 64 44 100 149 116c33 5 61 8 84 9v13c0 32 -15 48 -44 48c-28 0 -43 -15 -44 -45h-130c5 72 61 124 176 124c116 0 173 -52 173 -148v-115c0 -43 4 -78 12 -104zM149 441
c0 -23 15 -37 40 -37c19 0 33 6 44 17c12 13 15 27 15 56v12c-18 0 -37 -2 -57 -7c-31 -7 -42 -20 -42 -41z" />
    <glyph glyph-name="b.superior" horiz-adv-x="452" 
d="M431 508c0 -115 -62 -189 -158 -189c-40 0 -77 17 -98 52h-2v-41h-130v498h136v-176h2c21 28 58 44 95 44c95 0 155 -73 155 -188zM172 508c0 -53 22 -86 58 -86s60 34 60 86c0 53 -24 86 -60 86s-58 -34 -58 -86z" />
    <glyph glyph-name="c.superior" horiz-adv-x="427" 
d="M352 362c-35 -29 -79 -43 -134 -43c-60 0 -108 17 -143 52c-36 34 -54 80 -54 138c0 57 18 103 53 137s83 51 143 51c108 0 183 -59 192 -151h-140c-3 32 -22 50 -50 50c-35 0 -56 -32 -56 -87c0 -57 21 -89 57 -89c28 0 47 22 48 57h141c-3 -49 -22 -87 -57 -115z" />
    <glyph glyph-name="d.superior" horiz-adv-x="453" 
d="M410 330h-131v41h-1c-21 -35 -58 -52 -99 -52c-96 0 -158 74 -158 189s60 188 155 188c39 0 75 -16 96 -44h2v176h136v-498zM163 508c0 -53 23 -86 60 -86c36 0 58 33 58 86c0 52 -22 86 -58 86c-37 0 -60 -33 -60 -86z" />
    <glyph glyph-name="e.superior" horiz-adv-x="431" 
d="M410 480h-256c3 -49 23 -74 61 -74c28 0 49 14 52 34h138c-8 -35 -29 -64 -63 -87c-35 -23 -76 -34 -125 -34c-62 0 -110 18 -144 54c-35 35 -52 81 -52 137c0 106 73 187 194 187c89 0 152 -39 180 -110c12 -27 15 -55 15 -107zM274 551c-3 43 -27 62 -59 62
c-34 0 -54 -21 -60 -62h119z" />
    <glyph glyph-name="egrave.superior" horiz-adv-x="431" 
d="M410 480h-256c3 -49 23 -74 61 -74c28 0 49 14 52 34h138c-8 -35 -29 -64 -63 -87c-35 -23 -76 -34 -125 -34c-62 0 -110 18 -144 54c-35 35 -52 81 -52 137c0 106 73 187 194 187c89 0 152 -39 180 -110c12 -27 15 -55 15 -107zM220 828l73 -104h-119l-118 104h164z
M274 551c-3 43 -27 62 -59 62c-34 0 -54 -21 -60 -62h119z" />
    <glyph glyph-name="f.superior" horiz-adv-x="274" 
d="M268 737c-5 1 -11 2 -18 2c-36 0 -52 -14 -52 -49v-4h66v-97h-66v-259h-136v259h-56v97h56v19c0 87 50 131 143 131c19 0 40 -3 63 -8v-91z" />
    <glyph glyph-name="g.superior" horiz-adv-x="445" 
d="M403 355c0 -109 -64 -163 -193 -163c-104 0 -165 42 -173 117h128c3 -23 19 -35 47 -35c39 0 59 20 59 76v39h-2c-23 -31 -60 -49 -100 -49c-91 0 -148 70 -148 178c0 109 58 178 151 178c43 0 79 -21 103 -57h1v47h127v-331zM176 462c10 -14 24 -21 41 -21
c36 0 58 30 58 77s-22 77 -58 77c-35 0 -57 -29 -57 -77c0 -24 5 -43 16 -56z" />
    <glyph glyph-name="h.superior" horiz-adv-x="449" 
d="M43 828h136v-174h2c21 27 56 42 96 42c83 0 133 -52 133 -147v-219h-135v202c0 39 -15 59 -45 59c-34 0 -51 -28 -51 -83v-178h-136v498z" />
    <glyph glyph-name="i.superior" horiz-adv-x="221" 
d="M43 330v356h136v-356h-136zM43 729v99h136v-99h-136z" />
    <glyph glyph-name="j.superior" horiz-adv-x="224" 
d="M-27 297c8 -1 14 -2 18 -2c37 0 54 17 54 69v322h136v-346c0 -96 -56 -143 -143 -143c-27 0 -49 2 -65 7v93zM45 729v99h136v-99h-136z" />
    <glyph glyph-name="k.superior" horiz-adv-x="425" 
d="M43 330v499h136v-279h2l80 136h159l-123 -168l135 -188h-165l-86 155h-2v-155h-136z" />
    <glyph glyph-name="l.superior" horiz-adv-x="221" 
d="M179 828v-498h-136v498h136z" />
    <glyph glyph-name="m.superior" horiz-adv-x="667" 
d="M628 330h-136v202c0 39 -15 59 -40 59c-33 0 -49 -28 -49 -83v-178h-135v206c0 37 -13 55 -40 55c-33 0 -49 -28 -49 -83v-178h-136v356h126v-41h2c25 34 60 51 104 51c51 0 87 -21 108 -62c28 41 67 62 117 62c80 0 128 -52 128 -147v-219z" />
    <glyph glyph-name="n.superior" horiz-adv-x="449" 
d="M43 686h126v-41h1c27 34 63 51 107 51c83 0 133 -52 133 -147v-219h-135v202c0 39 -15 59 -45 59c-34 0 -51 -28 -51 -83v-178h-136v356z" />
    <glyph glyph-name="o.superior" horiz-adv-x="444" 
d="M76 370c-37 34 -55 80 -55 138c0 57 18 103 55 138c36 34 85 51 146 51s110 -17 147 -51c36 -35 54 -81 54 -138c0 -58 -18 -104 -54 -138c-37 -34 -86 -51 -147 -51s-110 17 -146 51zM163 508c0 -56 22 -88 59 -88s59 32 59 88s-22 88 -59 88s-59 -32 -59 -88z" />
    <glyph glyph-name="p.superior" horiz-adv-x="452" 
d="M389 371c-28 -35 -66 -52 -113 -52c-39 0 -75 16 -95 44h-2v-162h-136v485h130v-41h2c21 33 58 51 98 51c96 0 158 -73 158 -188c0 -57 -14 -103 -42 -137zM188 445c10 -15 24 -23 42 -23c36 0 60 34 60 86c0 53 -24 86 -60 86s-58 -34 -58 -86c0 -27 5 -48 16 -63z" />
    <glyph glyph-name="q.superior" horiz-adv-x="453" 
d="M410 201h-136v162h-2c-21 -28 -57 -44 -96 -44c-95 0 -155 74 -155 189s62 188 158 188c41 0 78 -18 99 -51h1v41h131v-485zM163 508c0 -53 23 -86 60 -86c36 0 58 33 58 86c0 52 -22 86 -58 86c-37 0 -60 -33 -60 -86z" />
    <glyph glyph-name="r.superior" horiz-adv-x="317" 
d="M169 686v-48h2c25 35 60 53 105 53c14 0 26 -1 36 -4v-115c-16 3 -30 4 -41 4c-60 0 -92 -36 -92 -103v-143h-136v356h126z" />
    <glyph glyph-name="s.superior" horiz-adv-x="405" 
d="M383 435c0 -71 -64 -116 -176 -116c-123 0 -185 42 -185 127h136c0 -31 16 -44 49 -44c25 0 40 9 40 24c0 11 -5 19 -16 24s-33 11 -68 20c-56 15 -89 25 -113 55c-13 15 -19 34 -19 59c0 68 58 113 170 113c107 0 169 -39 169 -118h-129c0 26 -14 39 -41 39
c-24 0 -36 -8 -36 -23c0 -17 12 -23 72 -39c87 -23 143 -42 147 -121z" />
    <glyph glyph-name="t.superior" horiz-adv-x="286" 
d="M268 332c-27 -6 -50 -9 -67 -9c-97 0 -140 37 -140 122v144h-56v97h56v99h135v-99h68v-97h-68v-107c0 -37 13 -52 45 -52c11 0 20 1 27 3v-101z" />
    <glyph glyph-name="u.superior" horiz-adv-x="449" 
d="M39 686h136v-202c0 -39 15 -59 44 -59c35 0 52 28 52 83v178h135v-356h-126v41h-1c-25 -32 -62 -51 -106 -51c-84 0 -134 52 -134 147v219z" />
    <glyph glyph-name="v.superior" horiz-adv-x="400" 
d="M-6 686h146l30 -120c13 -55 22 -104 29 -148h2c7 44 16 93 29 148l30 120h146l-114 -356h-184z" />
    <glyph glyph-name="w.superior" horiz-adv-x="635" 
d="M550 330h-180l-26 127c-11 53 -20 102 -26 147h-1c-8 -55 -16 -104 -25 -147l-27 -127h-180l-82 356h131l21 -124c9 -59 16 -108 19 -148h2c8 55 17 105 28 150l28 122h171l29 -122c13 -55 22 -105 28 -150h2c3 40 10 89 19 148l20 124h131z" />
    <glyph glyph-name="x.superior" horiz-adv-x="402" 
d="M115 513l-111 173h152l44 -98h2l44 98h152l-111 -173l119 -183h-153l-51 108h-2l-51 -108h-153z" />
    <glyph glyph-name="y.superior" horiz-adv-x="401" 
d="M295 352c-40 -120 -84 -157 -181 -157c-23 0 -46 2 -68 7v98c11 -3 23 -5 34 -5c29 0 47 14 47 35c0 12 -6 30 -23 73l-111 283h148l32 -119c15 -53 26 -102 34 -147h2c9 51 19 101 31 148l28 118h138z" />
    <glyph glyph-name="z.superior" horiz-adv-x="371" 
d="M21 330v105l155 147v2h-150v102h319v-105l-155 -147v-2h161v-102h-330z" />
    <glyph glyph-name="A.aalt" horiz-adv-x="613" 
d="M1 0l193 548h225l194 -548h-178l-29 97h-198l-29 -97h-178zM245 221h125l-11 35c-20 63 -37 124 -51 183h-2c-15 -59 -32 -120 -51 -183z" />
    <glyph glyph-name="Aacute.aalt" horiz-adv-x="613" 
d="M435 0l-29 97h-198l-29 -97h-178l193 548h225l194 -548h-178zM289 752h191l-141 -148h-128zM245 221h125l-11 35c-20 63 -37 124 -51 183h-2c-15 -59 -32 -120 -51 -183z" />
    <glyph glyph-name="Abreve.aalt" horiz-adv-x="613" 
d="M435 0l-29 97h-198l-29 -97h-178l193 548h225l194 -548h-178zM129 752h106c3 -37 28 -58 72 -58s69 21 72 58h106c-5 -97 -70 -154 -178 -154s-173 57 -178 154zM370 221l-11 35c-20 63 -37 124 -51 183h-2c-15 -59 -32 -120 -51 -183l-10 -35h125z" />
    <glyph glyph-name="Acircumflex.aalt" horiz-adv-x="613" 
d="M435 0l-29 97h-198l-29 -97h-178l193 548h225l194 -548h-178zM228 752h156l118 -148h-138l-58 76l-58 -76h-138zM370 221l-11 35c-20 63 -37 124 -51 183h-2c-15 -59 -32 -120 -51 -183l-10 -35h125z" />
    <glyph glyph-name="Adieresis.aalt" horiz-adv-x="613" 
d="M1 0l193 548h225l194 -548h-178l-29 97h-198l-29 -97h-178zM122 621v131h143v-131h-143zM491 621h-142v131h142v-131zM245 221h125l-11 35c-20 63 -37 124 -51 183h-2c-15 -59 -32 -120 -51 -183z" />
    <glyph glyph-name="Agrave.aalt" horiz-adv-x="613" 
d="M435 0l-29 97h-198l-29 -97h-178l193 548h225l194 -548h-178zM324 752l78 -148h-128l-141 148h191zM370 221l-11 35c-20 63 -37 124 -51 183h-2c-15 -59 -32 -120 -51 -183l-10 -35h125z" />
    <glyph glyph-name="Amacron.aalt" horiz-adv-x="613" 
d="M194 548h225l194 -548h-178l-29 97h-198l-29 -97h-178zM486 629h-359v103h359v-103zM245 221h125l-11 35c-20 63 -37 124 -51 183h-2c-15 -59 -32 -120 -51 -183z" />
    <glyph glyph-name="Aogonek.aalt" horiz-adv-x="613" 
d="M616 -184c-28 -10 -59 -15 -93 -15c-81 0 -123 34 -123 91c0 43 27 75 84 108h-49l-29 97h-198l-29 -97h-178l193 548h225l194 -548c-48 -32 -65 -54 -65 -79c0 -20 11 -30 33 -30c12 0 24 2 35 7v-82zM370 221l-11 35c-20 63 -37 124 -51 183h-2
c-15 -59 -32 -120 -51 -183l-10 -35h125z" />
    <glyph glyph-name="Aring.aalt" horiz-adv-x="613" 
d="M435 0l-29 97h-198l-29 -97h-178l193 548h225l194 -548h-178zM227 787c22 22 49 33 80 33s58 -11 81 -33c22 -23 33 -50 33 -81s-11 -58 -33 -80c-23 -22 -50 -33 -81 -33s-58 11 -80 33c-23 22 -34 49 -34 80s11 58 34 81zM245 221h125l-11 35c-20 63 -37 124 -51 183
h-2c-15 -59 -32 -120 -51 -183zM268 667c11 -11 24 -17 39 -17c31 0 56 25 56 56s-25 56 -56 56s-56 -25 -56 -56c0 -15 6 -28 17 -39z" />
    <glyph glyph-name="Atilde.aalt" horiz-adv-x="613" 
d="M194 548h225l194 -548h-178l-29 97h-198l-29 -97h-178zM466 647c-21 -25 -51 -38 -89 -38c-31 0 -52 9 -83 25c-21 12 -38 18 -51 18c-25 0 -39 -14 -42 -43h-89c4 89 48 143 124 143c31 0 47 -8 84 -25c21 -12 37 -18 50 -18c27 0 39 14 43 43h89
c-3 -45 -15 -80 -36 -105zM245 221h125l-11 35c-20 63 -37 124 -51 183h-2c-15 -59 -32 -120 -51 -183z" />
    <glyph glyph-name="AE.aalt" horiz-adv-x="812" 
d="M769 0h-344l-17 106h-196l-45 -106h-172l250 548h520v-130h-252l12 -79h220v-126h-200l13 -83h211v-130zM389 233l-30 187h-12l-80 -187h122z" />
    <glyph glyph-name="B.aalt" horiz-adv-x="589" 
d="M514 327c-16 -20 -41 -34 -75 -43v-2c76 -15 114 -57 114 -128c0 -95 -82 -154 -218 -154h-267v548h256c143 0 214 -54 214 -141c0 -33 -8 -60 -24 -80zM234 222v-105h61c63 0 84 14 84 51c0 39 -24 54 -85 54h-60zM293 331c56 0 81 16 81 51s-23 50 -75 50h-65v-101h59z
" />
    <glyph glyph-name="C.aalt" horiz-adv-x="612" 
d="M569 344h-175c-5 53 -37 82 -88 82c-61 0 -100 -56 -100 -152s38 -152 101 -152c48 0 81 32 88 85h177c-12 -144 -112 -223 -265 -223c-86 0 -153 26 -202 77s-74 122 -74 213c0 179 107 290 275 290c78 0 141 -19 188 -58s72 -93 75 -162z" />
    <glyph glyph-name="Cacute.aalt" horiz-adv-x="612" 
d="M569 344h-175c-5 53 -37 82 -88 82c-61 0 -100 -56 -100 -152s38 -152 101 -152c48 0 81 32 88 85h177c-12 -144 -112 -223 -265 -223c-86 0 -153 26 -202 77s-74 122 -74 213c0 179 107 290 275 290c78 0 141 -19 188 -58s72 -93 75 -162zM210 604l78 148h191l-141 -148
h-128z" />
    <glyph glyph-name="Ccaron.aalt" horiz-adv-x="612" 
d="M569 344h-175c-5 53 -37 82 -88 82c-61 0 -100 -56 -100 -152s38 -152 101 -152c48 0 81 32 88 85h177c-12 -144 -112 -223 -265 -223c-86 0 -153 26 -202 77s-74 122 -74 213c0 179 107 290 275 290c78 0 141 -19 188 -58s72 -93 75 -162zM109 752h138l58 -76l58 76h138
l-118 -148h-156z" />
    <glyph glyph-name="Ccedilla.c2sc" horiz-adv-x="612" 
d="M398 -204c-23 -19 -54 -28 -95 -28c-43 0 -83 11 -120 32l26 53c29 -15 56 -22 81 -22c28 0 44 11 44 31s-16 33 -44 33c-12 0 -22 -2 -31 -6l-29 27l42 70c-151 13 -241 120 -241 288c0 179 107 290 275 290c78 0 141 -19 188 -58s72 -93 75 -162h-175
c-5 53 -37 82 -88 82c-61 0 -100 -56 -100 -152s38 -152 101 -152c48 0 81 32 88 85h177c-11 -133 -98 -211 -233 -222l-28 -45c10 3 21 5 33 5c52 0 87 -30 87 -78c0 -29 -11 -52 -33 -71z" />
    <glyph glyph-name="Ccircumflex.aalt" horiz-adv-x="612" 
d="M569 344h-175c-5 53 -37 82 -88 82c-61 0 -100 -56 -100 -152s38 -152 101 -152c48 0 81 32 88 85h177c-12 -144 -112 -223 -265 -223c-86 0 -153 26 -202 77s-74 122 -74 213c0 179 107 290 275 290c78 0 141 -19 188 -58s72 -93 75 -162zM109 604l118 148h156l118 -148
h-138l-58 76l-58 -76h-138z" />
    <glyph glyph-name="Cdotaccent.aalt" horiz-adv-x="612" 
d="M569 344h-175c-5 53 -37 82 -88 82c-61 0 -100 -56 -100 -152s38 -152 101 -152c48 0 81 32 88 85h177c-12 -144 -112 -223 -265 -223c-86 0 -153 26 -202 77s-74 122 -74 213c0 179 107 290 275 290c78 0 141 -19 188 -58s72 -93 75 -162zM388 752v-131h-166v131h166z
" />
    <glyph glyph-name="D.aalt" horiz-adv-x="636" 
d="M68 548h223c201 0 314 -98 314 -274c0 -175 -113 -274 -314 -274h-223v548zM237 413v-278h50c93 0 143 48 143 139s-50 139 -143 139h-50z" />
    <glyph glyph-name="Eth.aalt" horiz-adv-x="640" 
d="M610 274c0 -175 -113 -274 -314 -274h-223v229h-59v96h59v223h223c201 0 314 -98 314 -274zM239 325h102v-96h-102v-98h53c96 0 146 51 146 143s-50 143 -146 143h-53v-92z" />
    <glyph glyph-name="Dcaron.aalt" horiz-adv-x="636" 
d="M605 274c0 -175 -113 -274 -314 -274h-223v548h223c201 0 314 -98 314 -274zM237 413v-278h50c93 0 143 48 143 139s-50 139 -143 139h-50zM104 752h138l58 -76l58 76h138l-118 -148h-156z" />
    <glyph glyph-name="Dcroat.aalt" horiz-adv-x="640" 
d="M610 274c0 -175 -113 -274 -314 -274h-223v229h-59v96h59v223h223c201 0 314 -98 314 -274zM239 325h102v-96h-102v-98h53c96 0 146 51 146 143s-50 143 -146 143h-53v-92z" />
    <glyph glyph-name="E.aalt" horiz-adv-x="535" 
d="M68 548h421v-130h-261v-79h241v-126h-241v-83h264v-130h-424v548z" />
    <glyph glyph-name="Eacute.aalt" horiz-adv-x="535" 
d="M68 548h421v-130h-261v-79h241v-126h-241v-83h264v-130h-424v548zM261 752h191l-141 -148h-128z" />
    <glyph glyph-name="Ebreve.aalt" horiz-adv-x="535" 
d="M492 0h-424v548h421v-130h-261v-79h241v-126h-241v-83h264v-130zM207 752c3 -37 28 -58 72 -58s69 21 72 58h106c-5 -97 -70 -154 -178 -154s-173 57 -178 154h106z" />
    <glyph glyph-name="Ecaron.aalt" horiz-adv-x="535" 
d="M492 0h-424v548h421v-130h-261v-79h241v-126h-241v-83h264v-130zM82 752h138l58 -76l58 76h138l-118 -148h-156z" />
    <glyph glyph-name="Ecircumflex.aalt" horiz-adv-x="535" 
d="M492 0h-424v548h421v-130h-261v-79h241v-126h-241v-83h264v-130zM82 604l118 148h156l118 -148h-138l-58 76l-58 -76h-138z" />
    <glyph glyph-name="Edieresis.aalt" horiz-adv-x="535" 
d="M492 0h-424v548h421v-130h-261v-79h241v-126h-241v-83h264v-130zM94 621v131h143v-131h-143zM463 752v-131h-142v131h142z" />
    <glyph glyph-name="Edotaccent.aalt" horiz-adv-x="535" 
d="M68 548h421v-130h-261v-79h241v-126h-241v-83h264v-130h-424v548zM196 752h166v-131h-166v131z" />
    <glyph glyph-name="Egrave.aalt" horiz-adv-x="535" 
d="M68 548h421v-130h-261v-79h241v-126h-241v-83h264v-130h-424v548zM296 752l78 -148h-128l-141 148h191z" />
    <glyph glyph-name="Emacron.aalt" horiz-adv-x="535" 
d="M68 548h421v-130h-261v-79h241v-126h-241v-83h264v-130h-424v548zM99 732h359v-103h-359v103z" />
    <glyph glyph-name="Eogonek.aalt" horiz-adv-x="535" 
d="M496 -184c-28 -10 -59 -15 -93 -15c-81 0 -123 34 -123 91c0 43 27 75 84 108h-296v548h421v-130h-261v-79h241v-126h-241v-83h264v-130h1c-48 -32 -65 -54 -65 -79c0 -20 11 -30 33 -30c12 0 24 2 35 7v-82z" />
    <glyph glyph-name="F.aalt" horiz-adv-x="496" 
d="M477 548v-133h-249v-101h231v-133h-231v-181h-160v548h409z" />
    <glyph glyph-name="uniFB01.aalt" horiz-adv-x="801" 
d="M68 0v548h409v-133h-249v-101h231v-133h-231v-181h-160zM564 548h170v-548h-170v548z" />
    <glyph glyph-name="uniFB02.aalt" horiz-adv-x="995" 
d="M477 548v-133h-249v-101h231v-133h-231v-181h-160v548h409zM734 548v-407h252v-141h-422v548h170z" />
    <glyph glyph-name="G.aalt" horiz-adv-x="639" 
d="M578 0h-143v46h-2c-35 -39 -86 -59 -153 -59c-153 0 -249 109 -249 285c0 180 113 292 291 292c73 0 133 -17 179 -52s72 -82 79 -141h-177c-8 40 -37 62 -82 62c-71 0 -115 -58 -115 -161c0 -104 43 -164 115 -164c61 0 97 33 100 88h-110v118h267v-314z" />
    <glyph glyph-name="Gbreve.aalt" horiz-adv-x="639" 
d="M435 0v46h-2c-35 -39 -86 -59 -153 -59c-153 0 -249 109 -249 285c0 180 113 292 291 292c73 0 133 -17 179 -52s72 -82 79 -141h-177c-8 40 -37 62 -82 62c-71 0 -115 -58 -115 -161c0 -104 43 -164 115 -164c61 0 97 33 100 88h-110v118h267v-314h-143zM138 752h106
c3 -37 28 -58 72 -58s69 21 72 58h106c-5 -97 -70 -154 -178 -154s-173 57 -178 154z" />
    <glyph glyph-name="Gcircumflex.aalt" horiz-adv-x="639" 
d="M578 0h-143v46h-2c-35 -39 -86 -59 -153 -59c-153 0 -249 109 -249 285c0 180 113 292 291 292c73 0 133 -17 179 -52s72 -82 79 -141h-177c-8 40 -37 62 -82 62c-71 0 -115 -58 -115 -161c0 -104 43 -164 115 -164c61 0 97 33 100 88h-110v118h267v-314zM119 604
l118 148h156l118 -148h-138l-58 76l-58 -76h-138z" />
    <glyph glyph-name="Gcommaaccent.aalt" horiz-adv-x="639" 
d="M578 0h-143v46h-2c-35 -39 -86 -59 -153 -59c-153 0 -249 109 -249 285c0 180 113 292 291 292c73 0 133 -17 179 -52s72 -82 79 -141h-177c-8 40 -37 62 -82 62c-71 0 -115 -58 -115 -161c0 -104 43 -164 115 -164c61 0 97 33 100 88h-110v118h267v-314zM248 -275
l46 109h-46v112h134v-112l-71 -109h-63z" />
    <glyph glyph-name="Gdotaccent.aalt" horiz-adv-x="639" 
d="M578 0h-143v46h-2c-35 -39 -86 -59 -153 -59c-153 0 -249 109 -249 285c0 180 113 292 291 292c73 0 133 -17 179 -52s72 -82 79 -141h-177c-8 40 -37 62 -82 62c-71 0 -115 -58 -115 -161c0 -104 43 -164 115 -164c61 0 97 33 100 88h-110v118h267v-314zM399 752v-131
h-166v131h166z" />
    <glyph glyph-name="H.aalt" horiz-adv-x="663" 
d="M238 548v-196h187v196h170v-548h-170v212h-187v-212h-170v548h170z" />
    <glyph glyph-name="Hbar.aalt" horiz-adv-x="663" 
d="M636 431h-41v-431h-170v212h-187v-212h-170v431h-41v68h41v49h170v-49h187v49h170v-49h41v-68zM238 431v-79h187v79h-187z" />
    <glyph glyph-name="Hcircumflex.aalt" horiz-adv-x="663" 
d="M595 0h-170v212h-187v-212h-170v548h170v-196h187v196h170v-548zM135 604l118 148h156l118 -148h-138l-58 76l-58 -76h-138z" />
    <glyph glyph-name="I.aalt" horiz-adv-x="306" 
d="M238 548v-548h-170v548h170z" />
    <glyph glyph-name="Iacute.aalt" horiz-adv-x="306" 
d="M238 548v-548h-170v548h170zM57 604l78 148h191l-141 -148h-128z" />
    <glyph glyph-name="Ibreve.aalt" horiz-adv-x="306" 
d="M238 548v-548h-170v548h170zM-9 752h100c3 -40 24 -60 62 -60s59 20 62 60h100c-4 -97 -62 -154 -162 -154s-158 55 -162 154z" />
    <glyph glyph-name="Icircumflex.aalt" horiz-adv-x="306" 
d="M68 548h170v-548h-170v548zM-28 606l108 146h146l108 -146h-130l-51 71l-50 -71h-131z" />
    <glyph glyph-name="Idieresis.aalt" horiz-adv-x="306" 
d="M68 548h170v-548h-170v548zM-4 752h133v-131h-133v131zM177 752h132v-131h-132v131z" />
    <glyph glyph-name="Idotaccent.aalt" horiz-adv-x="306" 
d="M68 0v548h170v-548h-170zM236 752v-131h-166v131h166z" />
    <glyph glyph-name="Igrave.aalt" horiz-adv-x="306" 
d="M238 548v-548h-170v548h170zM-20 752h191l78 -148h-128z" />
    <glyph glyph-name="IJ.aalt" horiz-adv-x="669" 
d="M319 137c12 -2 24 -3 36 -3c61 0 82 24 82 107v307h169v-351c0 -141 -66 -204 -213 -204c-27 0 -52 3 -73 8zM68 0v548h170v-548h-170z" />
    <glyph glyph-name="Imacron.aalt" horiz-adv-x="306" 
d="M68 548h170v-548h-170v548zM3 735h300v-103h-300v103z" />
    <glyph glyph-name="Iogonek.aalt" horiz-adv-x="306" 
d="M25 -108c0 43 27 75 84 108h-41v548h170v-548c-48 -32 -65 -54 -65 -79c0 -20 11 -30 33 -30c12 0 24 2 35 7v-82c-28 -10 -59 -15 -93 -15c-81 0 -123 34 -123 91z" />
    <glyph glyph-name="Itilde.aalt" horiz-adv-x="306" 
d="M68 548h170v-548h-170v548zM293 646c-19 -25 -47 -38 -82 -38c-28 0 -45 9 -72 26c-20 13 -30 19 -45 19c-22 0 -34 -15 -36 -45h-77c4 91 44 144 113 144c28 0 45 -9 72 -26c19 -13 30 -19 45 -19c23 0 34 14 37 45h78c-3 -45 -14 -81 -33 -106z" />
    <glyph glyph-name="J.c2sc" horiz-adv-x="364" 
d="M13 137c12 -2 24 -3 36 -3c61 0 82 24 82 107v307h169v-351c0 -141 -66 -204 -213 -204c-27 0 -52 3 -73 8z" />
    <glyph glyph-name="Jcircumflex.aalt" horiz-adv-x="364" 
d="M113 157c12 15 18 43 18 84v307h169v-351c0 -141 -66 -204 -213 -204c-27 0 -52 3 -73 8l-1 136c12 -2 24 -3 36 -3c31 0 52 8 64 23zM139 752h146l108 -146h-130l-51 71l-50 -71h-131z" />
    <glyph glyph-name="K.aalt" 
d="M68 0v548h170v-230h2l149 230h202l-197 -258l210 -290h-210l-154 245h-2v-245h-170z" />
    <glyph glyph-name="Kcommaaccent.aalt" 
d="M604 0h-210l-154 245h-2v-245h-170v548h170v-230h2l149 230h202l-197 -258zM286 -166h-46v112h134v-112l-71 -109h-63z" />
    <glyph glyph-name="L.aalt" horiz-adv-x="499" 
d="M68 548h170v-407h252v-141h-422v548z" />
    <glyph glyph-name="Lacute.aalt" horiz-adv-x="499" 
d="M238 548v-407h252v-141h-422v548h170zM88 604l78 148h191l-141 -148h-128z" />
    <glyph glyph-name="Lcaron.aalt" horiz-adv-x="499" 
d="M238 548v-407h252v-141h-422v548h170zM297 548h130l-60 -178h-94z" />
    <glyph glyph-name="Lcommaaccent.aalt" horiz-adv-x="499" 
d="M68 0v548h170v-407h252v-141h-422zM246 -166h-46v112h134v-112l-71 -109h-63z" />
    <glyph glyph-name="Ldot.aalt" horiz-adv-x="562" 
d="M68 0v548h170v-407h252v-141h-422zM516 447v-170h-163v170h163z" />
    <glyph glyph-name="glyph418" horiz-adv-x="364" 
d="M49 134c61 0 82 24 82 107v307h169v-351c0 -141 -66 -204 -213 -204c-27 0 -52 3 -73 8l-1 136c12 -2 24 -3 36 -3zM117 604l78 148h191l-141 -148h-128z" />
    <glyph glyph-name="Lslash.aalt" horiz-adv-x="501" 
d="M10 179v112l61 34v223h169v-137l103 57v-112l-103 -57v-158h252v-141h-421v213z" />
    <glyph glyph-name="M.aalt" horiz-adv-x="900" 
d="M832 0h-160v261c0 59 2 126 5 199h-2c-15 -72 -31 -137 -48 -196l-73 -264h-207l-73 264c-14 50 -30 115 -49 196h-2c4 -66 6 -132 6 -199v-261h-161v548h274l63 -232c21 -77 35 -143 44 -200h2c11 65 25 131 44 200l64 232h273v-548z" />
    <glyph glyph-name="N.aalt" horiz-adv-x="717" 
d="M68 0v548h253l89 -208c30 -71 57 -140 81 -209h2c-4 59 -6 132 -6 220v197h162v-548h-252l-89 208c-29 67 -57 136 -82 209h-2c5 -68 7 -141 7 -220v-197h-163z" />
    <glyph glyph-name="Nacute.aalt" horiz-adv-x="717" 
d="M649 0h-252l-89 208c-29 67 -57 136 -82 209h-2c5 -68 7 -141 7 -220v-197h-163v548h253l89 -208c30 -71 57 -140 81 -209h2c-4 59 -6 132 -6 220v197h162v-548zM341 752h191l-141 -148h-128z" />
    <glyph glyph-name="Ncaron.aalt" horiz-adv-x="717" 
d="M649 0h-252l-89 208c-29 67 -57 136 -82 209h-2c5 -68 7 -141 7 -220v-197h-163v548h253l89 -208c30 -71 57 -140 81 -209h2c-4 59 -6 132 -6 220v197h162v-548zM163 752h138l58 -76l58 76h138l-118 -148h-156z" />
    <glyph glyph-name="Ncommaaccent.aalt" horiz-adv-x="717" 
d="M649 0h-252l-89 208c-29 67 -57 136 -82 209h-2c5 -68 7 -141 7 -220v-197h-163v548h253l89 -208c30 -71 57 -140 81 -209h2c-4 59 -6 132 -6 220v197h162v-548zM338 -166h-46v112h134v-112l-71 -109h-63z" />
    <glyph glyph-name="Eng.aalt" horiz-adv-x="665" 
d="M597 -7c0 -108 -67 -160 -171 -160c-30 0 -55 3 -75 9v108c6 -2 14 -3 24 -3c34 0 51 15 51 45c0 8 -2 17 -7 27s-15 28 -30 55l-84 145c-32 55 -59 107 -80 158h-2c5 -65 8 -126 8 -183v-194h-163v548h207l84 -145c31 -54 58 -107 82 -159h2c-5 55 -8 116 -8 183v121
h162v-555z" />
    <glyph glyph-name="Ntilde.aalt" horiz-adv-x="717" 
d="M649 0h-252l-89 208c-29 67 -57 136 -82 209h-2c5 -68 7 -141 7 -220v-197h-163v548h253l89 -208c30 -71 57 -140 81 -209h2c-4 59 -6 132 -6 220v197h162v-548zM199 714c21 25 51 38 89 38c31 0 47 -8 84 -25c21 -12 37 -18 50 -18c27 0 39 14 43 43h89
c-5 -89 -49 -143 -125 -143c-31 0 -52 9 -83 25c-21 12 -38 18 -51 18c-25 0 -39 -14 -42 -43h-89c2 45 14 80 35 105z" />
    <glyph glyph-name="O.aalt" horiz-adv-x="632" 
d="M601 274c0 -177 -110 -290 -285 -290s-285 113 -285 290s110 290 285 290s285 -113 285 -290zM206 274c0 -99 39 -152 110 -152s110 53 110 152s-39 152 -110 152s-110 -53 -110 -152z" />
    <glyph glyph-name="Oacute.aalt" horiz-adv-x="632" 
d="M601 274c0 -177 -110 -290 -285 -290s-285 113 -285 290s110 290 285 290s285 -113 285 -290zM206 274c0 -99 39 -152 110 -152s110 53 110 152s-39 152 -110 152s-110 -53 -110 -152zM298 752h191l-141 -148h-128z" />
    <glyph glyph-name="Obreve.aalt" horiz-adv-x="632" 
d="M567 121c-47 -88 -135 -137 -251 -137c-175 0 -285 113 -285 290s110 290 285 290s285 -113 285 -290c0 -59 -11 -110 -34 -153zM206 274c0 -99 39 -152 110 -152s110 53 110 152s-39 152 -110 152s-110 -53 -110 -152zM138 752h106c3 -37 28 -58 72 -58s69 21 72 58h106
c-5 -97 -70 -154 -178 -154s-173 57 -178 154z" />
    </font>
</defs>
</svg>
