<?xml version="1.0" standalone="no"?>
<!DOCTYPE svg PUBLIC "-//W3C//DTD SVG 1.1//EN" "http://www.w3.org/Graphics/SVG/1.1/DTD/svg11.dtd" >
<svg xmlns="http://www.w3.org/2000/svg" xmlns:xlink="http://www.w3.org/1999/xlink" version="1.1">
<metadata>
Created by FontForge 20190801 at Wed Nov 27 11:15:16 2019
 By Jimmy Wärting
Copyright \(c\) 2015 Monotype Imaging Inc.  All rights reserved.
</metadata>
<defs>
<font id="NeueHaasUnica-Bold" horiz-adv-x="600" >
  <font-face 
    font-family="Neue Haas Unica"
    font-weight="700"
    font-stretch="normal"
    units-per-em="1000"
    panose-1="2 11 8 4 3 2 6 2 2 3"
    ascent="800"
    descent="-200"
    x-height="508"
    cap-height="712"
    bbox="-500 -275 1159 1116"
    underline-thickness="50"
    underline-position="-125"
    stemh="110"
    stemv="123"
    unicode-range="U+0020-FEFF"
  />
<missing-glyph horiz-adv-x="642" 
d="M491 -65h-340c-83 0 -135 52 -135 135v572c0 83 52 135 135 135h340c83 0 135 -52 135 -135v-572c0 -83 -52 -135 -135 -135zM543 18c13 13 19 30 19 52v572c0 44 -27 71 -71 71h-340c-44 0 -71 -27 -71 -71v-572c0 -44 27 -71 71 -71h340c22 0 39 6 52 19zM379 295
c-9 -18 -13 -43 -13 -76h-102c-1 7 -1 18 -1 31c0 37 4 65 13 85s27 44 54 72c20 20 33 36 39 47c5 11 8 24 8 40c0 32 -19 52 -54 52c-43 0 -63 -24 -64 -80h-125c1 117 70 181 189 181c112 0 180 -58 180 -151c0 -27 -5 -50 -15 -69s-29 -42 -57 -68
c-27 -25 -44 -46 -52 -64zM379 65h-128v112h128v-112z" />
    <glyph glyph-name="f_f.liga" unicode="ff" horiz-adv-x="652" 
d="M642 613c-6 2 -14 3 -25 3c-51 0 -74 -23 -74 -79v-29h96v-104h-96v-404h-138v404h-173v-404h-138v404h-84v104h84v46c0 111 59 166 168 166c23 0 46 -3 69 -8v-99c-6 2 -14 3 -25 3c-51 0 -74 -23 -74 -79v-29h173v46c0 111 59 166 168 166c23 0 46 -3 69 -8v-99z" />
    <glyph glyph-name="f_f_i.liga" unicode="ffi" horiz-adv-x="928" 
d="M94 508v46c0 111 59 166 168 166c23 0 46 -3 69 -8v-99c-6 2 -14 3 -25 3c-51 0 -74 -23 -74 -79v-29h173v46c0 111 59 166 168 166c23 0 46 -3 69 -8v-99c-6 2 -14 3 -25 3c-51 0 -74 -23 -74 -79v-29h96v-104h-96v-404h-138v404h-173v-404h-138v404h-84v104h84z
M720 508h140v-508h-140v508zM860 712v-120h-140v120h140z" />
    <glyph glyph-name="f_f_l.liga" unicode="ffl" horiz-adv-x="928" 
d="M642 613c-6 2 -14 3 -25 3c-51 0 -74 -23 -74 -79v-29h96v-104h-96v-404h-138v404h-173v-404h-138v404h-84v104h84v46c0 111 59 166 168 166c23 0 46 -3 69 -8v-99c-6 2 -14 3 -25 3c-51 0 -74 -23 -74 -79v-29h173v46c0 111 59 166 168 166c23 0 46 -3 69 -8v-99z
M860 712v-712h-140v712h140z" />
    <glyph glyph-name="f_i.liga" unicode="fi" horiz-adv-x="617" 
d="M10 404v104h84v46c0 111 59 166 168 166c23 0 46 -3 69 -8v-99c-6 2 -14 3 -25 3c-51 0 -74 -23 -74 -79v-29h96v-104h-96v-404h-138v404h-84zM549 0h-140v508h140v-508zM409 712h140v-120h-140v120z" />
    <glyph glyph-name="f_l.liga" unicode="fl" horiz-adv-x="617" 
d="M94 508v46c0 111 59 166 168 166c23 0 46 -3 69 -8v-99c-6 2 -14 3 -25 3c-51 0 -74 -23 -74 -79v-29h96v-104h-96v-404h-138v404h-84v104h84zM549 0h-140v712h140v-712z" />
    <glyph glyph-name=".notdef" horiz-adv-x="642" 
d="M491 -65h-340c-83 0 -135 52 -135 135v572c0 83 52 135 135 135h340c83 0 135 -52 135 -135v-572c0 -83 -52 -135 -135 -135zM543 18c13 13 19 30 19 52v572c0 44 -27 71 -71 71h-340c-44 0 -71 -27 -71 -71v-572c0 -44 27 -71 71 -71h340c22 0 39 6 52 19zM379 295
c-9 -18 -13 -43 -13 -76h-102c-1 7 -1 18 -1 31c0 37 4 65 13 85s27 44 54 72c20 20 33 36 39 47c5 11 8 24 8 40c0 32 -19 52 -54 52c-43 0 -63 -24 -64 -80h-125c1 117 70 181 189 181c112 0 180 -58 180 -151c0 -27 -5 -50 -15 -69s-29 -42 -57 -68
c-27 -25 -44 -46 -52 -64zM379 65h-128v112h128v-112z" />
    <glyph glyph-name="NULL" horiz-adv-x="0" 
 />
    <glyph glyph-name="NULL" horiz-adv-x="0" 
 />
    <glyph glyph-name="nonmarkingreturn" horiz-adv-x="333" 
 />
    <glyph glyph-name="space" unicode=" " horiz-adv-x="230" 
 />
    <glyph glyph-name="glyph1" 
 />
    <glyph glyph-name="exclam" unicode="!" horiz-adv-x="324" 
d="M247 712l-31 -514h-108l-31 514h170zM239 132v-132h-154v132h154z" />
    <glyph glyph-name="quotedbl" unicode="&#x22;" horiz-adv-x="436" 
d="M244 712h132l-15 -273h-102zM192 712l-15 -273h-102l-15 273h132z" />
    <glyph glyph-name="numbersign" unicode="#" horiz-adv-x="672" 
d="M621 402h-99l-21 -129h100l-16 -100h-100l-27 -173h-120l27 173h-111l-27 -173h-120l27 173h-99l16 100h99l21 129h-100l16 100h100l27 172h120l-27 -172h111l27 172h120l-27 -172h99zM381 273l20 129h-111l-20 -129h111z" />
    <glyph glyph-name="dollar" unicode="$" 
d="M411 466c0 63 -24 101 -71 115v-182c93 -24 152 -45 193 -100c21 -27 31 -64 31 -110c0 -113 -87 -190 -224 -203v-85h-81v84c-143 12 -223 94 -223 235h133c0 -72 30 -114 90 -127v197c-87 25 -143 48 -183 100c-21 26 -31 59 -31 100c0 56 19 102 58 138
c39 35 91 56 156 61v75h81v-76c132 -15 202 -89 202 -222h-131zM340 92c59 9 89 41 89 90c0 43 -28 65 -89 85v-175zM181 503c0 -43 23 -64 78 -81v162c-49 -8 -78 -37 -78 -81z" />
    <glyph glyph-name="percent" unicode="%" horiz-adv-x="909" 
d="M821 36c-29 -35 -69 -52 -122 -52c-105 0 -165 71 -165 198s60 198 165 198s165 -71 165 -198c0 -63 -14 -112 -43 -146zM88 639c29 34 69 51 122 51c105 0 165 -71 165 -198s-60 -198 -165 -198s-165 71 -165 198c0 63 14 112 43 147zM602 704h82l-377 -734h-82zM699 64
c39 0 58 39 58 118s-19 118 -58 118s-58 -39 -58 -118s19 -118 58 -118zM152 492c0 -79 19 -118 58 -118s58 39 58 118s-19 118 -58 118s-58 -39 -58 -118z" />
    <glyph glyph-name="ampersand" unicode="&#x26;" horiz-adv-x="753" 
d="M612 149l145 -149h-190l-53 55c-49 -45 -128 -71 -212 -71c-165 0 -259 80 -259 208c0 95 49 163 147 205c-27 29 -46 54 -57 77s-16 50 -16 82c0 52 19 94 56 125s87 47 148 47c123 0 200 -64 200 -165c0 -76 -37 -135 -125 -191l123 -127c21 38 32 90 32 157h139
c-2 -102 -28 -186 -78 -253zM225 132c22 -19 53 -28 92 -28c41 0 79 12 114 35l-165 170c-55 -31 -75 -63 -75 -107c0 -29 11 -52 34 -70zM255 547c0 -32 13 -54 60 -102c48 33 72 68 72 105c0 39 -27 64 -66 64c-41 0 -66 -26 -66 -67z" />
    <glyph glyph-name="quotesingle" unicode="'" horiz-adv-x="252" 
d="M60 712h132l-15 -273h-102z" />
    <glyph glyph-name="parenleft" unicode="(" horiz-adv-x="328" 
d="M42 297c0 169 44 305 141 444h115c-37 -76 -64 -149 -81 -219s-25 -145 -25 -225s8 -155 25 -225c17 -71 44 -144 81 -219h-115c-97 140 -141 275 -141 444z" />
    <glyph glyph-name="parenright" unicode=")" horiz-adv-x="328" 
d="M111 72c17 70 25 145 25 225s-8 155 -25 225s-44 143 -81 219h115c97 -139 141 -275 141 -444s-44 -304 -141 -444h-115c37 75 64 148 81 219z" />
    <glyph glyph-name="asterisk" unicode="*" horiz-adv-x="426" 
d="M26 539l30 96l123 -57l-16 134h100l-16 -134l123 57l30 -96l-132 -26l91 -99l-80 -58l-66 117l-66 -117l-80 58l91 99z" />
    <glyph glyph-name="plus" unicode="+" horiz-adv-x="566" 
d="M64 262v109h165v165h108v-165h165v-109h-165v-165h-108v165h-165z" />
    <glyph glyph-name="comma" unicode="," horiz-adv-x="258" 
d="M103 0h-51v167h154v-167l-74 -172h-84z" />
    <glyph glyph-name="hyphen" unicode="-" horiz-adv-x="320" 
d="M290 347v-110h-260v110h260z" />
    <glyph glyph-name="period" unicode="." horiz-adv-x="258" 
d="M206 167v-167h-154v167h154z" />
    <glyph glyph-name="slash" unicode="/" horiz-adv-x="488" 
d="M328 745h109l-298 -834h-109z" />
    <glyph glyph-name="zero" unicode="0" 
d="M101 76c-47 61 -70 148 -70 261c0 225 97 353 269 353s269 -128 269 -353c0 -227 -96 -353 -269 -353c-87 0 -153 31 -199 92zM181 337c0 -151 42 -234 119 -234s119 83 119 234c0 148 -42 232 -119 232s-119 -84 -119 -232z" />
    <glyph glyph-name="one" unicode="1" 
d="M96 559c113 0 164 34 176 115h131v-674h-144v457h-163v102z" />
    <glyph glyph-name="two" unicode="2" 
d="M553 0h-509c-1 5 -1 13 -1 22c2 140 36 210 194 304c108 63 146 93 149 165c0 48 -32 80 -87 80c-67 0 -101 -36 -102 -108h-145c4 147 95 227 247 227c72 0 130 -17 173 -52s64 -82 64 -141c-3 -120 -59 -169 -170 -234c-124 -72 -148 -100 -150 -145h337v-118z" />
    <glyph glyph-name="three" unicode="3" 
d="M520 77c-41 -60 -118 -93 -217 -93c-168 0 -261 83 -261 236h145c0 -78 39 -117 116 -117c61 0 101 34 101 85c0 61 -45 91 -135 91h-21v116h21c79 0 127 35 127 91c0 51 -39 85 -99 85c-68 0 -102 -37 -102 -111h-145c0 145 92 230 251 230c74 0 132 -17 175 -51
c43 -35 64 -81 64 -139c0 -76 -37 -122 -118 -151v-2c88 -29 128 -81 128 -166c0 -40 -10 -75 -30 -104z" />
    <glyph glyph-name="four" unicode="4" 
d="M484 674v-410h95v-113h-95v-151h-144v151h-326v120l276 403h194zM344 264v82c0 79 2 154 7 224h-2c-39 -67 -84 -138 -135 -212l-66 -94h196z" />
    <glyph glyph-name="five" unicode="5" 
d="M551 225c0 -147 -105 -241 -260 -241c-74 0 -133 18 -176 54c-44 36 -66 85 -66 147h145c1 -52 45 -83 98 -83c69 0 109 41 109 117c0 75 -42 115 -107 115c-51 0 -87 -27 -96 -70l-143 9l38 401h424v-117h-309l-17 -159h2c32 33 80 51 132 51c133 0 226 -91 226 -224z
" />
    <glyph glyph-name="six" unicode="6" 
d="M558 220c0 -141 -104 -236 -253 -236c-167 0 -259 113 -259 333c0 239 101 373 278 373c133 0 218 -75 225 -200h-146c-7 53 -38 82 -87 82c-77 0 -130 -65 -134 -202h2c39 47 91 70 154 70c131 0 220 -91 220 -220zM232 132c18 -20 42 -30 73 -30c63 0 103 44 103 113
c0 71 -40 116 -101 116s-102 -47 -102 -119c0 -33 9 -60 27 -80z" />
    <glyph glyph-name="seven" unicode="7" 
d="M43 674h503v-124c-50 -71 -94 -155 -132 -251s-66 -196 -84 -299h-157c23 115 57 221 100 318s87 175 134 234h-364v122z" />
    <glyph glyph-name="eight" unicode="8" 
d="M512 602c21 -28 31 -61 31 -98c0 -73 -46 -130 -122 -153v-2c84 -23 136 -84 136 -168c0 -61 -23 -109 -70 -144s-109 -53 -187 -53s-140 18 -187 53s-70 83 -70 144c0 84 52 145 136 168v2c-76 23 -122 80 -122 153c0 112 101 186 243 186c95 0 171 -32 212 -88z
M218 128c20 -17 47 -25 82 -25c69 0 112 36 112 93c0 56 -44 93 -112 93s-112 -37 -112 -93c0 -29 10 -51 30 -68zM224 428c19 -16 44 -24 76 -24c64 0 104 33 104 88c0 49 -41 81 -104 81s-104 -32 -104 -81c0 -27 9 -49 28 -64z" />
    <glyph glyph-name="nine" unicode="9" 
d="M534 357c0 -239 -101 -373 -278 -373c-133 0 -218 75 -225 200h146c7 -53 38 -82 87 -82c77 0 130 65 134 202h-2c-39 -47 -91 -70 -154 -70c-131 0 -220 91 -220 220c0 141 104 236 253 236c167 0 259 -113 259 -333zM200 375c18 -21 42 -32 73 -32c61 0 102 47 102 119
c0 67 -39 110 -100 110c-63 0 -103 -44 -103 -113c0 -35 9 -63 28 -84z" />
    <glyph glyph-name="colon" unicode=":" horiz-adv-x="258" 
d="M52 341v167h154v-167h-154zM52 0v167h154v-167h-154z" />
    <glyph glyph-name="semicolon" unicode=";" horiz-adv-x="258" 
d="M48 -172l55 172h-51v167h154v-167l-74 -172h-84zM206 508v-167h-154v167h154z" />
    <glyph glyph-name="less" unicode="&#x3c;" horiz-adv-x="566" 
d="M502 559v-118l-309 -123v-2l309 -123v-118l-438 181v122z" />
    <glyph glyph-name="equal" unicode="=" horiz-adv-x="566" 
d="M64 167v109h438v-109h-438zM64 357v109h438v-109h-438z" />
    <glyph glyph-name="greater" unicode="&#x3e;" horiz-adv-x="566" 
d="M502 378v-122l-438 -181v118l309 123v2l-309 123v118z" />
    <glyph glyph-name="question" unicode="?" horiz-adv-x="547" 
d="M490 454c-13 -23 -40 -52 -80 -87c-74 -67 -85 -85 -87 -181h-119c-1 8 -1 19 -1 32c2 103 15 130 95 207c28 25 46 45 54 60c8 14 12 31 12 52c0 43 -31 69 -87 69c-65 0 -98 -32 -101 -101h-146c4 145 91 222 247 222c145 0 233 -71 233 -186c0 -35 -7 -64 -20 -87z
M185 0v132h154v-132h-154z" />
    <glyph glyph-name="at" unicode="@" horiz-adv-x="872" 
d="M507 152h-2c-28 -55 -72 -83 -131 -83c-93 0 -150 70 -151 197c2 150 82 252 194 252c51 0 86 -23 105 -68h2c6 31 10 50 12 58h111c-11 -56 -21 -111 -29 -165c-8 -55 -12 -95 -12 -122c0 -43 15 -60 44 -60c56 0 99 59 99 168c0 174 -118 290 -301 290
c-204 3 -327 -149 -325 -341c0 -193 121 -310 310 -310c87 0 159 18 218 53l39 -76c-72 -41 -158 -62 -257 -62c-241 0 -396 150 -396 395c-2 232 161 430 411 426c232 2 390 -150 387 -375c0 -173 -93 -260 -204 -260c-67 0 -111 28 -124 83zM361 198c11 -17 27 -25 48 -25
c51 0 91 56 91 153c0 56 -23 89 -64 89c-53 0 -93 -54 -93 -145c0 -31 6 -55 18 -72z" />
    <glyph glyph-name="A" unicode="A" horiz-adv-x="698" 
d="M250 712h198l247 -712h-154l-55 174h-273l-56 -174h-154zM253 300h193l-15 47c-33 104 -60 197 -81 278h-2c-25 -93 -51 -186 -80 -278z" />
    <glyph glyph-name="B" unicode="B" horiz-adv-x="650" 
d="M614 195c0 -120 -95 -195 -254 -195h-278v712h256c172 0 259 -70 259 -183c0 -81 -40 -135 -124 -166v-2c97 -21 141 -74 141 -166zM229 303v-182h109c89 0 127 28 127 89c0 65 -38 93 -131 93h-105zM333 419c85 0 123 27 123 88c0 59 -35 85 -116 85h-111v-173h104z" />
    <glyph glyph-name="C" unicode="C" horiz-adv-x="701" 
d="M658 465h-148c-9 83 -64 133 -147 133c-108 0 -174 -91 -174 -242s64 -242 171 -242c84 0 139 49 150 136h151c-7 -84 -37 -149 -90 -196s-124 -70 -211 -70c-199 0 -323 142 -323 372c0 229 125 372 326 372c175 0 289 -107 295 -263z" />
    <glyph glyph-name="D" unicode="D" horiz-adv-x="734" 
d="M82 712h237c243 0 378 -128 378 -356s-135 -356 -378 -356h-237v712zM228 586v-460h89c153 0 228 75 228 230s-75 230 -228 230h-89z" />
    <glyph glyph-name="E" unicode="E" horiz-adv-x="633" 
d="M82 712h492v-126h-345v-161h322v-125h-322v-174h354v-126h-501v712z" />
    <glyph glyph-name="F" unicode="F" horiz-adv-x="584" 
d="M557 712v-126h-328v-194h303v-126h-303v-266h-147v712h475z" />
    <glyph glyph-name="G" unicode="G" horiz-adv-x="744" 
d="M669 0h-124v77h-2c-41 -57 -115 -91 -208 -91c-182 0 -298 141 -298 367c0 232 131 375 338 375c173 0 282 -90 297 -238h-158c-13 71 -60 108 -139 108c-115 0 -186 -93 -186 -245c0 -156 70 -251 183 -251c103 0 159 60 160 169h-169v120h306v-391z" />
    <glyph glyph-name="H" unicode="H" horiz-adv-x="750" 
d="M229 712v-279h292v279h147v-712h-147v307h-292v-307h-147v712h147z" />
    <glyph glyph-name="I" unicode="I" horiz-adv-x="311" 
d="M229 712v-712h-147v712h147z" />
    <glyph glyph-name="J" unicode="J" horiz-adv-x="392" 
d="M62 121c74 0 106 27 106 137v454h147v-485c0 -161 -72 -234 -235 -234c-25 0 -47 3 -65 8v125c18 -3 34 -5 47 -5z" />
    <glyph glyph-name="K" unicode="K" horiz-adv-x="663" 
d="M82 0v712h147v-313h2l233 313h172l-271 -338l294 -374h-187l-241 336h-2v-336h-147z" />
    <glyph glyph-name="L" unicode="L" horiz-adv-x="575" 
d="M82 712h147v-586h336v-126h-483v712z" />
    <glyph glyph-name="M" unicode="M" horiz-adv-x="984" 
d="M902 0h-141v354c0 89 2 178 6 267h-2c-22 -84 -47 -171 -76 -262l-113 -359h-168l-113 359c-29 91 -54 178 -76 262h-2c4 -89 6 -178 6 -267v-354h-141v712h236l103 -327c28 -89 51 -177 70 -262h2c19 85 42 173 70 262l103 327h236v-712z" />
    <glyph glyph-name="N" unicode="N" horiz-adv-x="776" 
d="M82 0v712h209l138 -289c51 -107 94 -205 130 -294h2c-5 110 -8 213 -8 309v274h141v-712h-209l-138 289c-51 107 -94 205 -130 294h-2c5 -110 8 -213 8 -309v-274h-141z" />
    <glyph glyph-name="O" unicode="O" horiz-adv-x="748" 
d="M711 356c0 -230 -128 -372 -337 -372s-337 142 -337 372s128 372 337 372s337 -142 337 -372zM189 356c0 -151 70 -242 185 -242s185 91 185 242s-70 242 -185 242s-185 -91 -185 -242z" />
    <glyph glyph-name="P" unicode="P" horiz-adv-x="636" 
d="M351 712c169 0 261 -89 261 -230s-92 -230 -261 -230h-122v-252h-147v712h269zM331 374c87 0 131 36 131 108s-44 108 -131 108h-102v-216h102z" />
    <glyph glyph-name="Q" unicode="Q" horiz-adv-x="748" 
d="M689 204c-15 -45 -36 -84 -64 -115l81 -91l-78 -73l-87 97c-47 -25 -103 -38 -167 -38c-209 0 -337 142 -337 372s128 372 337 372s337 -142 337 -372c0 -56 -7 -107 -22 -152zM239 172c33 -44 79 -66 138 -66c27 0 52 5 74 15l-99 110l81 74l97 -109c23 41 35 93 35 156
c0 152 -71 246 -188 246s-188 -94 -188 -246c0 -76 17 -136 50 -180z" />
    <glyph glyph-name="R" unicode="R" horiz-adv-x="666" 
d="M652 0h-160l-57 169c-13 39 -29 66 -46 81c-18 15 -44 22 -79 22h-81v-272h-147v712h262c176 0 260 -72 260 -201c0 -87 -50 -151 -130 -174v-2c25 -9 45 -23 60 -42s30 -51 47 -96zM229 593v-204h104c82 0 123 35 123 105c0 66 -44 99 -131 99h-96z" />
    <glyph glyph-name="S" unicode="S" horiz-adv-x="630" 
d="M594 209c0 -135 -113 -225 -278 -225c-180 0 -288 90 -288 250h152c0 -87 47 -131 138 -131c75 0 123 35 123 91c0 40 -21 62 -58 75c-19 7 -48 15 -89 26c-58 15 -104 29 -138 43s-62 35 -84 64c-23 28 -34 66 -34 115c0 125 107 211 263 211c177 0 270 -81 270 -234
h-149c0 75 -44 117 -124 117c-65 0 -109 -31 -109 -78c4 -55 34 -70 155 -101c55 -14 100 -28 134 -42c34 -15 62 -36 84 -65c21 -29 32 -67 32 -116z" />
    <glyph glyph-name="T" unicode="T" horiz-adv-x="615" 
d="M10 712h595v-126h-224v-586h-147v586h-224v126z" />
    <glyph glyph-name="U" unicode="U" horiz-adv-x="718" 
d="M223 712v-435c0 -105 48 -163 136 -163s136 58 136 163v435h147v-440c0 -187 -102 -288 -283 -288s-283 101 -283 288v440h147z" />
    <glyph glyph-name="V" unicode="V" horiz-adv-x="638" 
d="M6 712h150l85 -277c31 -97 56 -194 77 -291h2c19 85 44 182 77 291l85 277h150l-221 -712h-184z" />
    <glyph glyph-name="W" unicode="W" horiz-adv-x="956" 
d="M947 712l-149 -712h-191l-66 282c-25 105 -45 206 -62 305h-2c-17 -99 -37 -200 -62 -305l-66 -282h-191l-149 712h144l51 -259c21 -108 39 -211 52 -308h2c18 101 40 203 65 308l62 259h186l62 -259c25 -105 47 -207 65 -308h2c13 97 31 200 52 308l51 259h144z" />
    <glyph glyph-name="X" unicode="X" horiz-adv-x="630" 
d="M226 362l-212 350h168l132 -246h2l132 246h168l-212 -350l223 -362h-171l-140 252h-2l-140 -252h-171z" />
    <glyph glyph-name="Y" unicode="Y" horiz-adv-x="638" 
d="M2 712h165l68 -134c30 -59 58 -120 83 -181h2c25 61 53 122 83 181l68 134h164l-243 -435v-277h-147v277z" />
    <glyph glyph-name="Z" unicode="Z" horiz-adv-x="582" 
d="M20 129l350 457v2h-334v124h509v-129l-350 -457v-2h367v-124h-542v129z" />
    <glyph glyph-name="bracketleft" unicode="[" horiz-adv-x="329" 
d="M70 741h244v-81h-112v-728h112v-81h-244v890z" />
    <glyph glyph-name="backslash" unicode="\" horiz-adv-x="488" 
d="M51 745h109l298 -834h-109z" />
    <glyph glyph-name="bracketright" unicode="]" horiz-adv-x="329" 
d="M15 660v81h244v-890h-244v81h112v728h-112z" />
    <glyph glyph-name="asciicircum" unicode="^" horiz-adv-x="496" 
d="M174 712h148l166 -341h-129l-110 231h-2l-110 -231h-129z" />
    <glyph glyph-name="underscore" unicode="_" horiz-adv-x="500" 
d="M500 -50v-76h-500v76h500z" />
    <glyph glyph-name="grave" unicode="`" horiz-adv-x="350" 
d="M223 712l77 -146h-110l-140 146h173z" />
    <glyph glyph-name="a" unicode="a" horiz-adv-x="547" 
d="M499 0h-126c-5 19 -7 42 -7 68h-2c-37 -53 -92 -80 -165 -80c-53 0 -95 15 -126 44s-47 65 -47 110c0 87 56 139 197 162c43 7 85 11 127 14v18c0 61 -31 90 -83 90s-81 -29 -84 -77h-136c5 103 81 175 220 175c144 0 218 -68 218 -201v-184c0 -57 5 -104 14 -139z
M166 152c0 -39 27 -64 75 -64c31 0 61 10 80 29c23 23 29 48 29 97v19c-40 -3 -74 -6 -102 -11c-59 -11 -82 -30 -82 -70z" />
    <glyph glyph-name="b" unicode="b" horiz-adv-x="598" 
d="M563 254c0 -161 -84 -267 -211 -267c-60 0 -115 29 -146 80h-2v-67h-136v712h140v-265h2c31 47 85 74 144 74c127 0 209 -106 209 -267zM201 254c0 -100 42 -160 106 -160c67 0 110 63 110 160s-43 160 -110 160c-64 0 -106 -60 -106 -160z" />
    <glyph glyph-name="c" unicode="c" horiz-adv-x="562" 
d="M531 319h-146c-5 60 -42 97 -95 97c-68 0 -109 -62 -109 -162s41 -162 109 -162c53 0 90 40 94 107h147c-5 -65 -30 -117 -73 -156s-99 -59 -167 -59c-155 0 -256 108 -256 270s101 270 256 270c134 0 230 -85 240 -205z" />
    <glyph glyph-name="d" unicode="d" horiz-adv-x="598" 
d="M530 0h-136v67h-2c-31 -51 -86 -80 -146 -80c-127 0 -211 106 -211 267s82 267 209 267c59 0 113 -27 144 -74h2v265h140v-712zM181 254c0 -97 43 -160 110 -160c64 0 106 60 106 160s-42 160 -106 160c-67 0 -110 -63 -110 -160z" />
    <glyph glyph-name="e" unicode="e" horiz-adv-x="573" 
d="M538 225h-365c4 -99 50 -142 115 -142c55 0 93 28 100 71h143c-20 -95 -112 -170 -243 -170c-159 0 -253 112 -253 274c0 151 95 266 252 266c116 0 203 -65 235 -169c11 -34 16 -77 16 -130zM398 313c-8 73 -52 112 -111 112s-100 -37 -111 -112h222z" />
    <glyph glyph-name="f" unicode="f" horiz-adv-x="341" 
d="M331 613c-6 2 -14 3 -25 3c-51 0 -74 -23 -74 -79v-29h96v-104h-96v-404h-138v404h-84v104h84v46c0 111 59 166 168 166c23 0 46 -3 69 -8v-99z" />
    <glyph glyph-name="g" unicode="g" horiz-adv-x="591" 
d="M459 -137c-43 -38 -102 -57 -177 -57c-137 0 -217 61 -225 162h140c3 -39 35 -62 88 -62c67 0 102 36 102 131v45h-2c-37 -53 -81 -76 -142 -76c-127 0 -208 101 -208 258s84 258 210 258c63 0 105 -25 144 -82h2v68h132v-476c0 -75 -21 -131 -64 -169zM209 160
c18 -26 43 -39 74 -39c65 0 108 56 108 143s-43 143 -108 143c-63 0 -102 -55 -102 -143c0 -44 9 -79 28 -104z" />
    <glyph glyph-name="h" unicode="h" 
d="M208 452h2c35 45 85 68 140 68c116 0 187 -73 187 -208v-312h-140v298c0 75 -33 112 -89 112c-60 0 -100 -49 -100 -138v-272h-140v712h140v-260z" />
    <glyph glyph-name="i" unicode="i" horiz-adv-x="276" 
d="M68 0v508h140v-508h-140zM68 592v120h140v-120h-140z" />
    <glyph glyph-name="j" unicode="j" horiz-adv-x="278" 
d="M-5 -84c52 0 75 23 75 94v498h140v-519c0 -123 -66 -179 -173 -179c-25 0 -48 3 -69 8v101c8 -2 17 -3 27 -3zM210 712v-120h-140v120h140z" />
    <glyph glyph-name="k" unicode="k" horiz-adv-x="543" 
d="M68 0v712h140v-409h2l164 205h158l-193 -234l214 -274h-173l-170 238h-2v-238h-140z" />
    <glyph glyph-name="l" unicode="l" horiz-adv-x="276" 
d="M208 712v-712h-140v712h140z" />
    <glyph glyph-name="m" unicode="m" horiz-adv-x="897" 
d="M834 0h-140v298c0 75 -29 112 -80 112c-60 0 -93 -53 -93 -149v-261h-140v307c0 65 -28 103 -80 103c-60 0 -93 -53 -93 -149v-261h-140v508h132v-58h2c37 48 81 70 141 70c71 0 123 -30 151 -87c40 57 87 87 162 87c111 0 178 -72 178 -208v-312z" />
    <glyph glyph-name="n" unicode="n" 
d="M201 444c35 47 86 76 149 76c116 0 187 -73 187 -208v-312h-140v298c0 75 -33 112 -89 112c-60 0 -100 -49 -100 -138v-272h-140v508h131v-64h2z" />
    <glyph glyph-name="o" unicode="o" horiz-adv-x="590" 
d="M555 254c0 -165 -102 -270 -260 -270s-260 105 -260 270s102 270 260 270s260 -105 260 -270zM182 254c0 -99 44 -162 113 -162s113 63 113 162s-44 162 -113 162s-113 -63 -113 -162z" />
    <glyph glyph-name="p" unicode="p" horiz-adv-x="598" 
d="M538 114c-35 -81 -100 -127 -184 -127c-59 0 -113 27 -144 74h-2v-246h-140v693h136v-67h2c31 51 86 80 146 80c127 0 211 -106 211 -267c0 -53 -8 -100 -25 -140zM230 137c19 -29 45 -43 77 -43c67 0 110 63 110 160s-43 160 -110 160c-64 0 -106 -60 -106 -160
c0 -50 10 -89 29 -117z" />
    <glyph glyph-name="q" unicode="q" horiz-adv-x="598" 
d="M530 -185h-140v246h-2c-31 -47 -85 -74 -144 -74c-127 0 -209 106 -209 267s84 267 211 267c60 0 115 -29 146 -80h2v67h136v-693zM211 138c20 -29 47 -44 80 -44c64 0 106 60 106 160s-42 160 -106 160c-67 0 -110 -63 -110 -160c0 -49 10 -87 30 -116z" />
    <glyph glyph-name="r" unicode="r" horiz-adv-x="392" 
d="M68 508h129v-72h2c33 55 79 80 139 80c17 0 32 -2 46 -6v-121c-18 3 -33 5 -44 5c-85 0 -132 -54 -132 -154v-240h-140v508z" />
    <glyph glyph-name="s" unicode="s" horiz-adv-x="524" 
d="M487 143c0 -48 -20 -86 -60 -115c-41 -30 -95 -44 -164 -44c-144 0 -228 61 -228 181h142c0 -51 32 -80 89 -80c48 0 74 18 74 49c0 28 -17 44 -45 54c-15 5 -39 11 -72 20c-40 11 -71 21 -93 30c-23 9 -42 23 -58 44c-17 21 -25 49 -25 86c0 91 86 156 210 156
c135 0 213 -60 213 -172h-134c0 49 -27 74 -80 74c-44 0 -69 -18 -69 -47c5 -38 22 -41 109 -65c43 -11 76 -22 101 -32s46 -26 64 -48c17 -22 26 -52 26 -91z" />
    <glyph glyph-name="t" unicode="t" horiz-adv-x="357" 
d="M332 3c-21 -7 -46 -10 -74 -10c-117 0 -168 48 -168 165v246h-82v104h82v132h140v-132h97v-104h-97v-221c0 -56 18 -78 66 -78c14 0 26 2 36 5v-107z" />
    <glyph glyph-name="u" unicode="u" 
d="M113 42c-33 35 -50 87 -50 154v312h140v-298c0 -75 33 -112 89 -112c60 0 100 49 100 138v272h140v-508h-131v64h-2c-35 -47 -86 -76 -149 -76c-58 0 -104 18 -137 54z" />
    <glyph glyph-name="v" unicode="v" horiz-adv-x="510" 
d="M-7 508h146l59 -200c22 -75 41 -148 56 -220h2c15 72 34 145 56 220l59 200h146l-171 -508h-182z" />
    <glyph glyph-name="w" unicode="w" horiz-adv-x="810" 
d="M693 0h-200l-45 200c-15 69 -29 142 -42 217h-2c-13 -75 -27 -148 -42 -217l-45 -200h-200l-112 508h139l38 -196c16 -82 28 -156 37 -221h2c12 75 26 148 43 219l45 198h192l45 -198c17 -71 31 -144 43 -219h2c9 65 21 139 37 221l38 196h139z" />
    <glyph glyph-name="x" unicode="x" horiz-adv-x="508" 
d="M168 261l-163 247h161l87 -149h2l87 149h161l-163 -247l174 -261h-163l-96 172h-2l-96 -172h-163z" />
    <glyph glyph-name="y" unicode="y" horiz-adv-x="504" 
d="M511 508l-182 -511c-52 -143 -113 -188 -242 -188c-26 0 -50 3 -73 8v112c15 -5 33 -8 54 -8c56 0 93 33 93 82c0 19 -4 36 -24 92l-144 413h150l52 -170c21 -71 40 -142 56 -213h2c20 82 40 153 59 213l55 170h144z" />
    <glyph glyph-name="z" unicode="z" horiz-adv-x="484" 
d="M28 114l249 282v2h-239v110h408v-114l-249 -282v-2h259v-110h-428v114z" />
    <glyph glyph-name="braceleft" unicode="{" horiz-adv-x="338" 
d="M313 661c-57 -3 -80 -25 -80 -90v-144c0 -75 -27 -112 -94 -131v-3c67 -19 94 -56 94 -131v-144c0 -65 23 -88 80 -89v-81h-24c-138 0 -183 52 -183 178v133c0 57 -15 79 -66 92v87c51 15 66 36 66 92v134c0 126 45 177 183 177h24v-80z" />
    <glyph glyph-name="bar" unicode="|" horiz-adv-x="294" 
d="M210 732v-937h-126v937h126z" />
    <glyph glyph-name="braceright" unicode="}" horiz-adv-x="338" 
d="M298 251c-51 -13 -66 -35 -66 -92v-133c0 -126 -45 -178 -183 -178h-24v81c57 1 80 24 80 89v144c0 75 27 112 94 131v3c-67 19 -94 56 -94 131v144c0 65 -23 87 -80 90v80h24c138 0 183 -51 183 -177v-134c0 -56 15 -77 66 -92v-87z" />
    <glyph glyph-name="asciitilde" unicode="~" horiz-adv-x="594" 
d="M548 308c-28 -60 -79 -93 -143 -93c-49 0 -84 20 -133 55c-40 28 -59 40 -86 40c-43 0 -71 -34 -71 -87h-90c0 117 68 196 164 196c49 0 82 -20 133 -56c37 -28 58 -40 85 -40c43 0 72 34 72 87h90c0 -39 -7 -73 -21 -102z" />
    <glyph glyph-name="uni00A0" unicode="&#xa0;" horiz-adv-x="230" 
 />
    <glyph glyph-name="exclamdown" unicode="&#xa1;" horiz-adv-x="324" 
d="M108 310h108l31 -514h-170zM239 508v-132h-154v132h154z" />
    <glyph glyph-name="cent" unicode="&#xa2;" 
d="M486 132c-36 -39 -83 -61 -141 -68v-90h-81v91c-65 9 -117 38 -155 85s-57 108 -57 182s19 135 57 182s90 76 155 85v91h81v-90c57 -7 104 -28 141 -65c36 -37 57 -83 62 -138h-146c-4 45 -23 75 -57 90v-309c32 15 53 51 56 99h147c-5 -59 -26 -107 -62 -145zM198 332
c0 -77 23 -131 66 -152v304c-43 -21 -66 -75 -66 -152z" />
    <glyph glyph-name="sterling" unicode="&#xa3;" 
d="M565 0h-541v118c60 0 90 36 90 131v28h-90v117h90v57c0 160 81 239 236 239c139 0 222 -82 222 -217h-141c0 63 -29 97 -81 97c-59 0 -89 -40 -89 -119v-57h122v-117h-122v-26c0 -72 -17 -108 -62 -133v-2h366v-116z" />
    <glyph glyph-name="currency" unicode="&#xa4;" 
d="M563 99l-87 -81l-71 77c-33 -15 -68 -22 -105 -22s-72 7 -105 22l-71 -77l-87 81l72 76c-20 34 -30 73 -30 116s10 82 30 116l-72 76l87 81l71 -77c33 15 68 22 105 22s72 -7 105 -22l71 77l87 -81l-72 -76c20 -34 30 -73 30 -116s-10 -82 -30 -116zM192 291
c0 -67 43 -112 108 -112s108 45 108 112s-43 112 -108 112s-108 -45 -108 -112z" />
    <glyph glyph-name="yen" unicode="&#xa5;" 
d="M534 167h-160v-167h-148v167h-160v70h160v40h-160v70h122l-175 327h163l46 -96c29 -60 54 -120 77 -181h2c23 61 48 121 77 181l46 96h163l-175 -327h122v-70h-160v-40h160v-70z" />
    <glyph glyph-name="brokenbar" unicode="&#xa6;" horiz-adv-x="294" 
d="M84 -205v350h126v-350h-126zM84 382v350h126v-350h-126z" />
    <glyph glyph-name="section" unicode="&#xa7;" horiz-adv-x="646" 
d="M345 75c-19 9 -50 22 -94 40c-84 35 -132 60 -163 108c-16 24 -24 54 -24 90c0 61 32 113 89 149v2c-25 20 -43 54 -43 97c0 101 90 167 213 167c140 0 214 -62 222 -186h-141c-3 45 -30 73 -81 73c-40 0 -67 -20 -67 -52c0 -27 11 -39 40 -53c14 -7 40 -18 77 -32
c49 -18 87 -35 116 -50c28 -16 51 -37 68 -62c17 -26 25 -59 25 -99c0 -61 -29 -110 -88 -147v-2c31 -23 47 -59 47 -106c0 -52 -20 -93 -59 -123c-40 -30 -93 -45 -159 -45c-143 0 -228 61 -233 184h142c5 -47 35 -71 88 -71c45 0 75 20 75 55c0 28 -14 44 -50 63zM436 210
c7 12 10 26 10 41c0 44 -24 74 -108 107l-100 42c-25 -13 -38 -38 -38 -66c0 -24 8 -44 24 -60s47 -33 93 -52c17 -7 48 -20 92 -40c11 6 20 15 27 28z" />
    <glyph glyph-name="dieresis" unicode="&#xa8;" horiz-adv-x="440" 
d="M267 712h123v-120h-123v120zM50 592v120h123v-120h-123z" />
    <glyph glyph-name="copyright" unicode="&#xa9;" horiz-adv-x="802" 
d="M716 550c30 -56 45 -121 45 -194c2 -219 -147 -373 -360 -370c-213 -3 -362 151 -360 370c-2 219 147 373 360 370c143 0 255 -64 315 -176zM670 191c25 47 38 102 38 165c0 188 -124 315 -307 315s-306 -127 -306 -315s123 -315 306 -315c121 0 217 55 269 150zM538 171
c-35 -31 -81 -46 -137 -46c-125 0 -202 87 -202 230c0 144 77 232 204 232c113 0 186 -66 191 -169h-97c-4 55 -38 90 -94 90c-67 0 -107 -58 -107 -153c0 -93 41 -151 105 -151c55 0 91 36 98 93h98c-5 -54 -24 -96 -59 -126z" />
    <glyph glyph-name="ordfeminine" unicode="&#xaa;" horiz-adv-x="412" 
d="M378 330h-108c-4 14 -6 29 -6 46h-1c-28 -37 -68 -55 -119 -55c-77 0 -126 46 -126 110c0 63 42 99 146 115c33 5 62 8 87 9v13c0 36 -17 54 -51 54c-32 0 -50 -17 -51 -49h-116c4 72 60 124 168 124c111 0 166 -50 166 -145v-121c0 -41 4 -75 11 -101zM149 410
c8 -7 19 -11 34 -11c22 0 39 6 50 18c15 15 18 30 18 61v13c-23 -1 -45 -4 -64 -8c-36 -7 -50 -20 -50 -44c0 -12 4 -22 12 -29z" />
    <glyph glyph-name="guillemotleft" unicode="&#xab;" horiz-adv-x="532" 
d="M366 454h122l-108 -200l108 -200h-122l-114 200zM44 254l114 200h122l-108 -200l108 -200h-122z" />
    <glyph glyph-name="logicalnot" unicode="&#xac;" horiz-adv-x="566" 
d="M64 353v109h438v-330h-108v221h-330z" />
    <glyph glyph-name="uni00AD" unicode="&#xad;" horiz-adv-x="320" 
d="M290 347v-110h-260v110h260z" />
    <glyph glyph-name="registered" unicode="&#xae;" horiz-adv-x="592" 
d="M516 606c21 -39 31 -85 31 -136c0 -155 -100 -258 -251 -258s-251 103 -251 258s100 258 251 258c100 0 179 -45 220 -122zM409 665c-33 18 -70 27 -113 27c-128 0 -215 -89 -215 -222s87 -222 215 -222s215 89 215 222c0 88 -38 158 -102 195zM356 465v-2
c21 -7 33 -20 46 -56l33 -91h-72l-27 77c-9 32 -25 43 -56 43h-36v-120h-68v316h128c72 0 110 -34 110 -90c0 -37 -22 -68 -58 -77zM244 577v-87h43c40 0 60 15 60 46c0 25 -20 41 -57 41h-46z" />
    <glyph glyph-name="macron" unicode="&#xaf;" horiz-adv-x="426" 
d="M376 689v-91h-326v91h326z" />
    <glyph glyph-name="degree" unicode="&#xb0;" horiz-adv-x="339" 
d="M305 587c0 -75 -63 -135 -135 -135c-74 0 -136 60 -136 135s62 135 136 135c72 0 135 -60 135 -135zM105 587c0 -36 29 -65 65 -65s65 29 65 65s-29 65 -65 65s-65 -29 -65 -65z" />
    <glyph glyph-name="plusminus" unicode="&#xb1;" horiz-adv-x="566" 
d="M229 411v155h108v-155h165v-109h-165v-155h-108v155h-165v109h165zM64 0v109h438v-109h-438z" />
    <glyph glyph-name="uni00B2" unicode="&#xb2;" horiz-adv-x="458" 
d="M425 330h-389c-1 5 -1 12 -1 23c0 50 10 91 30 124c20 32 57 62 110 90c80 41 110 64 110 104c0 28 -20 47 -55 47c-42 0 -64 -23 -65 -69h-124c1 105 72 164 189 164c55 0 100 -13 133 -39s50 -60 50 -102c0 -76 -43 -117 -127 -158c-41 -20 -69 -36 -82 -47
c-14 -12 -22 -25 -23 -38h244v-99z" />
    <glyph glyph-name="uni00B3" unicode="&#xb3;" horiz-adv-x="452" 
d="M418 461c0 -87 -74 -142 -189 -142c-129 0 -200 59 -200 168h125c0 -48 26 -73 75 -73c39 0 65 20 65 51c0 37 -29 56 -87 56h-14v92h16c49 0 80 21 80 54c0 31 -24 51 -63 51c-45 0 -67 -23 -67 -70h-123c0 104 71 165 192 165c113 0 184 -51 184 -134
c0 -52 -26 -83 -85 -104v-2c63 -20 91 -55 91 -112z" />
    <glyph glyph-name="acute" unicode="&#xb4;" horiz-adv-x="350" 
d="M50 566l77 146h173l-140 -146h-110z" />
    <glyph glyph-name="uni00B5" unicode="&#xb5;" horiz-adv-x="613" 
d="M603 4c-24 -8 -52 -12 -85 -12c-62 0 -99 27 -111 81h-2c-19 -49 -65 -79 -121 -79c-33 0 -58 7 -76 21v-200h-140v693h140v-298c0 -75 31 -112 87 -112c60 0 100 49 100 138v272h140v-340c0 -51 13 -67 44 -67c8 0 16 1 24 3v-100z" />
    <glyph glyph-name="paragraph" unicode="&#xb6;" horiz-adv-x="656" 
d="M40 501c0 65 18 116 55 154c36 38 85 57 146 57h391v-96h-80v-736h-103v736h-82v-736h-103v410h-23c-61 0 -110 19 -146 57c-37 38 -55 89 -55 154z" />
    <glyph glyph-name="periodcentered" unicode="&#xb7;" horiz-adv-x="258" 
d="M206 389v-167h-154v167h154z" />
    <glyph glyph-name="cedilla" unicode="&#xb8;" horiz-adv-x="336" 
d="M152 0h55l-38 -61c9 3 19 5 32 5c47 0 85 -29 85 -76c0 -55 -45 -94 -122 -94c-40 0 -78 10 -114 30l22 45c27 -15 54 -22 80 -22c31 0 49 12 49 35s-19 38 -48 38c-11 0 -22 -2 -32 -6l-21 23z" />
    <glyph glyph-name="uni00B9" unicode="&#xb9;" horiz-adv-x="326" 
d="M11 720c89 0 130 23 141 82h111v-472h-124v301h-128v89z" />
    <glyph glyph-name="ordmasculine" unicode="&#xba;" horiz-adv-x="438" 
d="M78 370c-35 34 -53 80 -53 138c0 57 18 103 53 138c35 34 82 51 141 51s107 -17 142 -51c35 -35 52 -81 52 -138c0 -116 -75 -189 -194 -189c-59 0 -106 17 -141 51zM151 508c0 -61 27 -99 68 -99s68 38 68 99s-25 98 -68 98s-68 -37 -68 -98z" />
    <glyph glyph-name="guillemotright" unicode="&#xbb;" horiz-adv-x="532" 
d="M360 254l-108 200h122l114 -200l-114 -200h-122zM152 254l-108 200h122l114 -200l-114 -200h-122z" />
    <glyph glyph-name="onequarter" unicode="&#xbc;" horiz-adv-x="801" 
d="M791 80h-66v-80h-112v80h-199v88l163 236h148v-237h66v-87zM490 674h91l-369 -674h-91zM9 522v81c67 0 102 24 114 71h106v-404h-117v252h-103zM513 167h106v42c0 46 1 87 4 124h-1c-23 -42 -47 -80 -71 -113z" />
    <glyph glyph-name="onehalf" unicode="&#xbd;" horiz-adv-x="830" 
d="M762 211c-19 -21 -47 -39 -83 -55s-60 -28 -71 -37c-12 -9 -19 -19 -20 -30h214v-89h-346c-1 5 -1 12 -1 22c0 44 9 80 27 108c17 27 49 53 95 76c37 18 62 33 76 44s21 25 21 43c0 21 -17 36 -45 36c-35 0 -54 -21 -54 -58h-114c1 92 63 143 167 143
c100 0 162 -50 162 -123c0 -33 -9 -59 -28 -80zM490 674h91l-369 -674h-91zM9 522v81c67 0 102 24 114 71h106v-404h-117v252h-103z" />
    <glyph glyph-name="threequarters" unicode="&#xbe;" horiz-adv-x="924" 
d="M537 168l163 236h148v-237h66v-87h-66v-80h-112v80h-199v88zM139 404c0 -39 21 -58 64 -58c33 0 56 16 56 41c0 29 -25 45 -72 45h-14v82h13c43 0 69 18 69 46c0 23 -22 39 -55 39c-37 0 -58 -20 -58 -55h-111c0 88 64 140 169 140c101 0 166 -45 166 -116
c0 -44 -22 -69 -74 -88v-1c55 -17 79 -47 79 -98c0 -76 -63 -121 -168 -121c-113 0 -178 51 -178 144h114zM704 674l-369 -674h-91l369 674h91zM742 167v42c0 46 1 87 4 124h-1c-23 -42 -47 -80 -71 -113l-38 -53h106z" />
    <glyph glyph-name="questiondown" unicode="&#xbf;" horiz-adv-x="517" 
d="M451 -163c-43 -37 -103 -56 -181 -56c-145 0 -233 71 -233 186c0 35 7 64 20 87s40 52 80 87c74 67 85 85 87 181h119c1 -8 1 -19 1 -32c-2 -104 -15 -130 -95 -207c-28 -25 -46 -45 -54 -59c-8 -15 -12 -32 -12 -53c0 -43 31 -69 87 -69c65 0 98 32 101 101h146
c-2 -73 -24 -128 -66 -166zM362 508v-132h-154v132h154z" />
    <glyph glyph-name="Agrave" unicode="&#xc0;" horiz-adv-x="698" 
d="M541 0l-55 174h-273l-56 -174h-154l247 712h198l247 -712h-154zM446 300l-15 47c-33 104 -60 197 -81 278h-2c-25 -93 -51 -186 -80 -278l-15 -47h193zM357 906l77 -146h-110l-140 146h173z" />
    <glyph glyph-name="Aacute" unicode="&#xc1;" horiz-adv-x="698" 
d="M541 0l-55 174h-273l-56 -174h-154l247 712h198l247 -712h-154zM446 300l-15 47c-33 104 -60 197 -81 278h-2c-25 -93 -51 -186 -80 -278l-15 -47h193zM341 906h173l-140 -146h-110z" />
    <glyph glyph-name="Acircumflex" unicode="&#xc2;" horiz-adv-x="698" 
d="M541 0l-55 174h-273l-56 -174h-154l247 712h198l247 -712h-154zM274 906h149l114 -146h-128l-61 76l-60 -76h-128zM253 300h193l-15 47c-33 104 -60 197 -81 278h-2c-25 -93 -51 -186 -80 -278z" />
    <glyph glyph-name="Atilde" unicode="&#xc3;" horiz-adv-x="698" 
d="M541 0l-55 174h-273l-56 -174h-154l247 712h198l247 -712h-154zM161 771c4 84 47 135 118 135c32 0 54 -10 83 -27c21 -12 35 -19 51 -19c28 0 42 14 46 46h78c-4 -84 -47 -135 -118 -135c-32 0 -53 10 -82 27c-24 13 -35 19 -52 19c-28 0 -42 -14 -46 -46h-78zM446 300
l-15 47c-33 104 -60 197 -81 278h-2c-25 -93 -51 -186 -80 -278l-15 -47h193z" />
    <glyph glyph-name="Adieresis" unicode="&#xc4;" horiz-adv-x="698" 
d="M541 0l-55 174h-273l-56 -174h-154l247 712h198l247 -712h-154zM253 300h193l-15 47c-33 104 -60 197 -81 278h-2c-25 -93 -51 -186 -80 -278zM396 769v120h123v-120h-123zM302 889v-120h-123v120h123z" />
    <glyph glyph-name="Aring" unicode="&#xc5;" horiz-adv-x="698" 
d="M541 0l-55 174h-273l-56 -174h-154l247 712h198l247 -712h-154zM241 858c0 30 11 56 32 77s46 31 76 31s56 -10 77 -31s31 -47 31 -77s-10 -55 -31 -76s-47 -32 -77 -32s-55 11 -76 32s-32 46 -32 76zM446 300l-15 47c-33 104 -60 197 -81 278h-2
c-25 -93 -51 -186 -80 -278l-15 -47h193zM295 858c0 -29 25 -54 54 -54c31 0 54 25 54 54c0 31 -23 54 -54 54c-29 0 -54 -23 -54 -54z" />
    <glyph glyph-name="AE" unicode="&#xc6;" horiz-adv-x="965" 
d="M915 0h-398l-26 179h-254l-77 -179h-166l332 712h580v-126h-332l23 -161h286v-125h-268l25 -174h275v-126zM291 303h182l-42 292h-14z" />
    <glyph glyph-name="Ccedilla" unicode="&#xc7;" horiz-adv-x="701" 
d="M464 563c-26 23 -60 35 -101 35c-108 0 -174 -91 -174 -242s64 -242 171 -242c84 0 139 49 150 136h151c-13 -157 -112 -253 -268 -265l-29 -46c9 3 19 5 32 5c47 0 85 -29 85 -76c0 -55 -45 -94 -122 -94c-40 0 -78 10 -114 30l22 45c27 -15 54 -22 80 -22
c31 0 49 12 49 35s-19 38 -48 38c-11 0 -22 -2 -32 -6l-21 23l42 68c-186 10 -300 150 -300 371c0 229 125 372 326 372c175 0 289 -107 295 -263h-148c-5 41 -20 74 -46 98z" />
    <glyph glyph-name="Egrave" unicode="&#xc8;" horiz-adv-x="633" 
d="M82 712h492v-126h-345v-161h322v-125h-322v-174h354v-126h-501v712zM336 906l77 -146h-110l-140 146h173z" />
    <glyph glyph-name="Eacute" unicode="&#xc9;" horiz-adv-x="633" 
d="M82 712h492v-126h-345v-161h322v-125h-322v-174h354v-126h-501v712zM320 906h173l-140 -146h-110z" />
    <glyph glyph-name="Ecircumflex" unicode="&#xca;" horiz-adv-x="633" 
d="M583 0h-501v712h492v-126h-345v-161h322v-125h-322v-174h354v-126zM253 906h149l114 -146h-128l-61 76l-60 -76h-128z" />
    <glyph glyph-name="Edieresis" unicode="&#xcb;" horiz-adv-x="633" 
d="M583 0h-501v712h492v-126h-345v-161h322v-125h-322v-174h354v-126zM498 889v-120h-123v120h123zM158 769v120h123v-120h-123z" />
    <glyph glyph-name="Igrave" unicode="&#xcc;" horiz-adv-x="311" 
d="M229 712v-712h-147v712h147zM-9 906h173l77 -146h-110z" />
    <glyph glyph-name="Iacute" unicode="&#xcd;" horiz-adv-x="311" 
d="M229 712v-712h-147v712h147zM71 760l77 146h173l-140 -146h-110z" />
    <glyph glyph-name="Icircumflex" unicode="&#xce;" horiz-adv-x="311" 
d="M82 712h147v-712h-147v712zM-33 760l114 146h149l114 -146h-128l-61 76l-60 -76h-128z" />
    <glyph glyph-name="Idieresis" unicode="&#xcf;" horiz-adv-x="311" 
d="M82 712h147v-712h-147v712zM203 889h123v-120h-123v120zM-14 889h123v-120h-123v120z" />
    <glyph glyph-name="Eth" unicode="&#xd0;" horiz-adv-x="734" 
d="M697 356c0 -228 -135 -356 -378 -356h-237v307h-64v106h64v299h237c243 0 378 -128 378 -356zM228 413h166v-106h-166v-181h89c153 0 228 75 228 230s-75 230 -228 230h-89v-173z" />
    <glyph glyph-name="Ntilde" unicode="&#xd1;" horiz-adv-x="776" 
d="M694 712v-712h-209l-138 289c-51 107 -94 205 -130 294h-2c5 -110 8 -213 8 -309v-274h-141v712h209l138 -289c51 -107 94 -205 130 -294h2c-5 110 -8 213 -8 309v274h141zM234 870c21 24 49 36 84 36c32 0 54 -10 83 -27c21 -12 35 -19 51 -19c28 0 42 14 46 46h78
c-4 -84 -47 -135 -118 -135c-32 0 -53 10 -82 27c-24 13 -35 19 -52 19c-28 0 -42 -14 -46 -46h-78c2 42 13 75 34 99z" />
    <glyph glyph-name="Ograve" unicode="&#xd2;" horiz-adv-x="748" 
d="M711 356c0 -230 -128 -372 -337 -372s-337 142 -337 372s128 372 337 372s337 -142 337 -372zM189 356c0 -151 70 -242 185 -242s185 91 185 242s-70 242 -185 242s-185 -91 -185 -242zM382 906l77 -146h-110l-140 146h173z" />
    <glyph glyph-name="Oacute" unicode="&#xd3;" horiz-adv-x="748" 
d="M711 356c0 -230 -128 -372 -337 -372s-337 142 -337 372s128 372 337 372s337 -142 337 -372zM189 356c0 -151 70 -242 185 -242s185 91 185 242s-70 242 -185 242s-185 -91 -185 -242zM366 906h173l-140 -146h-110z" />
    <glyph glyph-name="Ocircumflex" unicode="&#xd4;" horiz-adv-x="748" 
d="M671 158c-55 -112 -158 -174 -297 -174c-209 0 -337 142 -337 372s128 372 337 372s337 -142 337 -372c0 -77 -13 -143 -40 -198zM239 179c33 -43 78 -65 135 -65c115 0 185 91 185 242s-70 242 -185 242s-185 -91 -185 -242c0 -75 17 -134 50 -177zM299 906h149
l114 -146h-128l-61 76l-60 -76h-128z" />
    <glyph glyph-name="Otilde" unicode="&#xd5;" horiz-adv-x="748" 
d="M554 29c-51 -30 -111 -45 -180 -45c-209 0 -337 142 -337 372s128 372 337 372s337 -142 337 -372c0 -153 -56 -267 -157 -327zM510 534c-33 43 -79 64 -136 64c-115 0 -185 -91 -185 -242s70 -242 185 -242s185 91 185 242c0 75 -16 135 -49 178zM528 807
c-21 -24 -49 -36 -84 -36c-32 0 -53 10 -82 27c-24 13 -35 19 -52 19c-28 0 -42 -14 -46 -46h-78c4 84 47 135 118 135c32 0 54 -10 83 -27c21 -12 35 -19 51 -19c28 0 42 14 46 46h78c-2 -42 -13 -75 -34 -99z" />
    <glyph glyph-name="Odieresis" unicode="&#xd6;" horiz-adv-x="748" 
d="M671 158c-55 -112 -158 -174 -297 -174c-209 0 -337 142 -337 372s128 372 337 372s337 -142 337 -372c0 -77 -13 -143 -40 -198zM189 356c0 -151 70 -242 185 -242s185 91 185 242s-70 242 -185 242s-185 -91 -185 -242zM421 769v120h123v-120h-123zM204 769v120h123
v-120h-123z" />
    <glyph glyph-name="multiply" unicode="&#xd7;" horiz-adv-x="566" 
d="M21 492l78 76l184 -184l185 184l77 -76l-185 -185l185 -185l-77 -77l-185 185l-184 -185l-78 77l185 185z" />
    <glyph glyph-name="Oslash" unicode="&#xd8;" horiz-adv-x="748" 
d="M711 356c0 -230 -128 -372 -337 -372c-74 0 -137 17 -190 51l-59 -78l-62 48l61 82c-58 66 -87 156 -87 269c0 230 128 372 337 372c74 0 138 -17 191 -52l59 79l61 -48l-61 -82c56 -64 87 -157 87 -269zM374 106c119 0 191 95 191 250c0 59 -10 109 -31 150l-271 -364
c31 -24 68 -36 111 -36zM213 206l272 363c-31 25 -68 37 -111 37c-119 0 -191 -95 -191 -250c0 -58 10 -108 30 -150z" />
    <glyph glyph-name="Ugrave" unicode="&#xd9;" horiz-adv-x="718" 
d="M642 272c0 -187 -102 -288 -283 -288s-283 101 -283 288v440h147v-435c0 -105 48 -163 136 -163s136 58 136 163v435h147v-440zM194 906h173l77 -146h-110z" />
    <glyph glyph-name="Uacute" unicode="&#xda;" horiz-adv-x="718" 
d="M642 272c0 -187 -102 -288 -283 -288s-283 101 -283 288v440h147v-435c0 -105 48 -163 136 -163s136 58 136 163v435h147v-440zM351 906h173l-140 -146h-110z" />
    <glyph glyph-name="Ucircumflex" unicode="&#xdb;" horiz-adv-x="718" 
d="M642 272c0 -187 -102 -288 -283 -288s-283 101 -283 288v440h147v-435c0 -105 48 -163 136 -163s136 58 136 163v435h147v-440zM284 906h149l114 -146h-128l-61 76l-60 -76h-128z" />
    <glyph glyph-name="Udieresis" unicode="&#xdc;" horiz-adv-x="718" 
d="M642 272c0 -187 -102 -288 -283 -288s-283 101 -283 288v440h147v-435c0 -105 48 -163 136 -163s136 58 136 163v435h147v-440zM529 889v-120h-123v120h123zM189 769v120h123v-120h-123z" />
    <glyph glyph-name="Yacute" unicode="&#xdd;" horiz-adv-x="638" 
d="M235 578c30 -59 58 -120 83 -181h2c25 61 53 122 83 181l68 134h164l-243 -435v-277h-147v277l-243 435h165zM311 906h173l-140 -146h-110z" />
    <glyph glyph-name="Thorn" unicode="&#xde;" horiz-adv-x="636" 
d="M82 712h147v-117h122c169 0 261 -89 261 -230s-92 -230 -261 -230h-122v-135h-147v712zM331 257c87 0 131 36 131 108s-44 108 -131 108h-102v-216h102z" />
    <glyph glyph-name="germandbls" unicode="&#xdf;" horiz-adv-x="575" 
d="M542 206c0 -66 -21 -118 -63 -155s-96 -56 -163 -56c-18 0 -35 2 -50 5v113c6 -1 13 -2 22 -2c73 0 109 37 109 110c0 71 -42 112 -119 112h-12v115c77 0 109 26 109 89c0 52 -29 80 -81 80c-60 0 -86 -36 -86 -117v-500h-140v510c0 137 83 218 224 218
c67 0 120 -16 159 -48s58 -75 58 -128c0 -78 -41 -130 -122 -156v-2c103 -20 155 -84 155 -188z" />
    <glyph glyph-name="agrave" unicode="&#xe0;" horiz-adv-x="547" 
d="M373 0c-5 19 -7 42 -7 68h-2c-37 -53 -92 -80 -165 -80c-53 0 -95 15 -126 44s-47 65 -47 110c0 87 56 139 197 162c43 7 85 11 127 14v18c0 61 -31 90 -83 90s-81 -29 -84 -77h-136c5 103 81 175 220 175c144 0 218 -68 218 -201v-184c0 -57 5 -104 14 -139h-126z
M166 152c0 -39 27 -64 75 -64c31 0 61 10 80 29c23 23 29 48 29 97v19c-40 -3 -74 -6 -102 -11c-59 -11 -82 -30 -82 -70zM269 712l77 -146h-110l-140 146h173z" />
    <glyph glyph-name="aacute" unicode="&#xe1;" horiz-adv-x="547" 
d="M373 0c-5 19 -7 42 -7 68h-2c-37 -53 -92 -80 -165 -80c-53 0 -95 15 -126 44s-47 65 -47 110c0 87 56 139 197 162c43 7 85 11 127 14v18c0 61 -31 90 -83 90s-81 -29 -84 -77h-136c5 103 81 175 220 175c144 0 218 -68 218 -201v-184c0 -57 5 -104 14 -139h-126z
M186 106c13 -12 31 -18 55 -18c31 0 61 10 80 29c23 23 29 48 29 97v19c-40 -3 -74 -6 -102 -11c-59 -11 -82 -30 -82 -70c0 -19 7 -35 20 -46zM176 566l77 146h173l-140 -146h-110z" />
    <glyph glyph-name="acircumflex" unicode="&#xe2;" horiz-adv-x="547" 
d="M364 68c-37 -53 -92 -80 -165 -80c-53 0 -95 15 -126 44s-47 65 -47 110c0 87 56 139 197 162c43 7 85 11 127 14v18c0 61 -31 90 -83 90s-81 -29 -84 -77h-136c5 103 81 175 220 175c144 0 218 -68 218 -201v-184c0 -57 5 -104 14 -139h-126c-5 19 -7 42 -7 68h-2z
M186 712h149l114 -146h-128l-60 76l-61 -76h-128zM186 106c13 -12 31 -18 55 -18c31 0 61 10 80 29c23 23 29 48 29 97v19c-40 -3 -74 -6 -102 -11c-59 -11 -82 -30 -82 -70c0 -19 7 -35 20 -46z" />
    <glyph glyph-name="atilde" unicode="&#xe3;" horiz-adv-x="547" 
d="M328 404c-15 15 -35 22 -61 22c-52 0 -81 -29 -84 -77h-136c5 103 81 175 220 175c144 0 218 -68 218 -201v-184c0 -57 5 -104 14 -139h-126c-5 19 -7 42 -7 68h-2c-37 -53 -92 -80 -165 -80c-53 0 -95 15 -126 44s-47 65 -47 110c0 87 56 139 197 162c43 7 85 11 127 14
v18c0 31 -7 53 -22 68zM325 666c28 0 42 14 46 46h78c-4 -84 -47 -135 -118 -135c-32 0 -53 10 -82 27c-24 13 -35 19 -52 19c-28 0 -42 -14 -46 -46h-78c4 84 47 135 118 135c32 0 54 -10 83 -27c21 -12 35 -19 51 -19zM344 156c4 14 6 33 6 58v19c-40 -3 -74 -6 -102 -11
c-59 -11 -82 -30 -82 -70c0 -39 27 -64 75 -64c31 0 61 10 80 29c11 11 19 24 23 39z" />
    <glyph glyph-name="adieresis" unicode="&#xe4;" horiz-adv-x="547" 
d="M364 68c-37 -53 -92 -80 -165 -80c-53 0 -95 15 -126 44s-47 65 -47 110c0 87 56 139 197 162c43 7 85 11 127 14v18c0 61 -31 90 -83 90s-81 -29 -84 -77h-136c5 103 81 175 220 175c144 0 218 -68 218 -201v-184c0 -57 5 -104 14 -139h-126c-5 19 -7 42 -7 68h-2z
M166 152c0 -39 27 -64 75 -64c31 0 61 10 80 29c23 23 29 48 29 97v19c-40 -3 -74 -6 -102 -11c-59 -11 -82 -30 -82 -70zM91 712h123v-120h-123v120zM431 592h-123v120h123v-120z" />
    <glyph glyph-name="aring" unicode="&#xe5;" horiz-adv-x="547" 
d="M328 404c-15 15 -35 22 -61 22c-52 0 -81 -29 -84 -77h-136c5 103 81 175 220 175c144 0 218 -68 218 -201v-184c0 -57 5 -104 14 -139h-126c-5 19 -7 42 -7 68h-2c-37 -53 -92 -80 -165 -80c-53 0 -95 15 -126 44s-47 65 -47 110c0 87 56 139 197 162c43 7 85 11 127 14
v18c0 31 -7 53 -22 68zM338 588c-21 -21 -47 -32 -77 -32s-55 11 -76 32s-32 46 -32 76s11 56 32 77s46 31 76 31s56 -10 77 -31s31 -47 31 -77s-10 -55 -31 -76zM344 156c4 14 6 33 6 58v19c-40 -3 -74 -6 -102 -11c-59 -11 -82 -30 -82 -70c0 -39 27 -64 75 -64
c31 0 61 10 80 29c11 11 19 24 23 39zM315 664c0 31 -23 54 -54 54c-29 0 -54 -23 -54 -54c0 -29 25 -54 54 -54c31 0 54 25 54 54z" />
    <glyph glyph-name="ae" unicode="&#xe6;" horiz-adv-x="880" 
d="M493 7c-31 15 -57 37 -78 66c-40 -59 -109 -89 -192 -89c-121 0 -197 68 -197 158c0 107 76 166 256 166h78v28c0 63 -29 90 -88 90c-55 0 -85 -29 -88 -77h-136c5 103 83 175 224 175c77 0 133 -20 168 -60c42 40 95 60 159 60c113 0 199 -65 231 -169
c10 -35 15 -78 15 -130h-355c4 -99 47 -142 110 -142c52 0 88 28 95 71h143c-20 -95 -109 -170 -238 -170c-40 0 -76 8 -107 23zM187 103c14 -13 33 -19 58 -19c32 0 64 11 84 31c24 24 31 50 31 99v11h-63c-96 0 -131 -24 -131 -73c0 -21 7 -37 21 -49zM492 308h213
c-7 77 -49 117 -106 117c-59 0 -98 -40 -107 -117z" />
    <glyph glyph-name="ccedilla" unicode="&#xe7;" horiz-adv-x="562" 
d="M531 199c-11 -120 -90 -202 -210 -214l-29 -46c9 3 19 5 32 5c47 0 85 -29 85 -76c0 -55 -45 -94 -122 -94c-40 0 -78 10 -114 30l22 45c27 -15 54 -22 80 -22c31 0 49 12 49 35s-19 38 -48 38c-11 0 -22 -2 -32 -6l-21 23l43 68c-71 5 -127 32 -168 81
c-42 48 -63 111 -63 188c0 162 101 270 256 270c134 0 230 -85 240 -205h-146c-5 60 -42 97 -95 97c-68 0 -109 -62 -109 -162s41 -162 109 -162c53 0 90 40 94 107h147z" />
    <glyph glyph-name="egrave" unicode="&#xe8;" horiz-adv-x="573" 
d="M538 225h-365c4 -99 50 -142 115 -142c55 0 93 28 100 71h143c-20 -95 -112 -170 -243 -170c-159 0 -253 112 -253 274c0 151 95 266 252 266c116 0 203 -65 235 -169c11 -34 16 -77 16 -130zM121 712h173l77 -146h-110zM176 313h222c-8 73 -52 112 -111 112
s-100 -37 -111 -112z" />
    <glyph glyph-name="eacute" unicode="&#xe9;" horiz-adv-x="573" 
d="M538 225h-365c4 -99 50 -142 115 -142c55 0 93 28 100 71h143c-20 -95 -112 -170 -243 -170c-159 0 -253 112 -253 274c0 151 95 266 252 266c116 0 203 -65 235 -169c11 -34 16 -77 16 -130zM201 566l77 146h173l-140 -146h-110zM398 313c-8 73 -52 112 -111 112
s-100 -37 -111 -112h222z" />
    <glyph glyph-name="ecircumflex" unicode="&#xea;" horiz-adv-x="573" 
d="M538 225h-365c4 -99 50 -142 115 -142c55 0 93 28 100 71h143c-20 -95 -112 -170 -243 -170c-159 0 -253 112 -253 274c0 151 95 266 252 266c116 0 203 -65 235 -169c11 -34 16 -77 16 -130zM97 566l114 146h149l114 -146h-128l-60 76l-61 -76h-128zM398 313
c-8 73 -52 112 -111 112s-100 -37 -111 -112h222z" />
    <glyph glyph-name="edieresis" unicode="&#xeb;" horiz-adv-x="573" 
d="M538 225h-365c4 -99 50 -142 115 -142c55 0 93 28 100 71h143c-20 -95 -112 -170 -243 -170c-159 0 -253 112 -253 274c0 151 95 266 252 266c116 0 203 -65 235 -169c11 -34 16 -77 16 -130zM398 313c-8 73 -52 112 -111 112s-100 -37 -111 -112h222zM333 592v120h123
v-120h-123zM116 592v120h123v-120h-123z" />
    <glyph glyph-name="igrave" unicode="&#xec;" horiz-adv-x="276" 
d="M208 508v-508h-140v508h140zM-27 712h173l77 -146h-110z" />
    <glyph glyph-name="iacute" unicode="&#xed;" horiz-adv-x="276" 
d="M208 508v-508h-140v508h140zM53 566l77 146h173l-140 -146h-110z" />
    <glyph glyph-name="icircumflex" unicode="&#xee;" horiz-adv-x="276" 
d="M68 0v508h140v-508h-140zM-36 567l103 145h141l103 -145h-120l-53 77l-53 -77h-121z" />
    <glyph glyph-name="idieresis" unicode="&#xef;" horiz-adv-x="276" 
d="M68 508h140v-508h-140v508zM163 712h123v-120h-123v120zM-10 712h123v-120h-123v120z" />
    <glyph glyph-name="eth" unicode="&#xf0;" horiz-adv-x="590" 
d="M555 260c0 -167 -100 -276 -258 -276c-159 0 -262 102 -262 260c0 160 88 264 225 264c27 0 51 -5 74 -16v2c-22 27 -49 55 -82 83l-127 -51l-24 60l95 38c-23 19 -44 34 -63 47l110 57c30 -20 55 -38 76 -55l127 51l24 -60l-96 -39c37 -33 67 -67 91 -100
c61 -84 90 -166 90 -265zM182 254c0 -99 44 -162 113 -162s113 63 113 162s-44 162 -113 162s-113 -63 -113 -162z" />
    <glyph glyph-name="ntilde" unicode="&#xf1;" 
d="M199 508v-64h2c35 47 86 76 149 76c116 0 187 -73 187 -208v-312h-140v298c0 75 -33 112 -89 112c-60 0 -100 -49 -100 -138v-272h-140v508h131zM491 712c-4 -84 -47 -135 -118 -135c-32 0 -53 10 -82 27c-24 13 -35 19 -52 19c-28 0 -42 -14 -46 -46h-78
c4 84 47 135 118 135c32 0 54 -10 83 -27c21 -12 35 -19 51 -19c28 0 42 14 46 46h78z" />
    <glyph glyph-name="ograve" unicode="&#xf2;" horiz-adv-x="590" 
d="M555 254c0 -165 -102 -270 -260 -270s-260 105 -260 270s102 270 260 270s260 -105 260 -270zM182 254c0 -99 44 -162 113 -162s113 63 113 162s-44 162 -113 162s-113 -63 -113 -162zM303 712l77 -146h-110l-140 146h173z" />
    <glyph glyph-name="oacute" unicode="&#xf3;" horiz-adv-x="590" 
d="M555 254c0 -165 -102 -270 -260 -270s-260 105 -260 270s102 270 260 270s260 -105 260 -270zM182 254c0 -99 44 -162 113 -162s113 63 113 162s-44 162 -113 162s-113 -63 -113 -162zM287 712h173l-140 -146h-110z" />
    <glyph glyph-name="ocircumflex" unicode="&#xf4;" horiz-adv-x="590" 
d="M555 254c0 -165 -102 -270 -260 -270s-260 105 -260 270s102 270 260 270s260 -105 260 -270zM213 136c20 -29 47 -44 82 -44c69 0 113 63 113 162s-44 162 -113 162s-113 -63 -113 -162c0 -49 10 -89 31 -118zM106 566l114 146h149l114 -146h-128l-60 76l-61 -76h-128z
" />
    <glyph glyph-name="otilde" unicode="&#xf5;" horiz-adv-x="590" 
d="M433 17c-39 -22 -85 -33 -138 -33c-158 0 -260 105 -260 270s102 270 260 270s260 -105 260 -270c0 -109 -45 -193 -122 -237zM182 254c0 -99 44 -162 113 -162s113 63 113 162s-44 162 -113 162s-113 -63 -113 -162zM483 712c-4 -84 -47 -135 -118 -135
c-32 0 -53 10 -82 27c-24 13 -35 19 -52 19c-28 0 -42 -14 -46 -46h-78c4 84 47 135 118 135c32 0 54 -10 83 -27c21 -12 35 -19 51 -19c28 0 42 14 46 46h78z" />
    <glyph glyph-name="odieresis" unicode="&#xf6;" horiz-adv-x="590" 
d="M523 111c-43 -81 -123 -127 -228 -127c-158 0 -260 105 -260 270s102 270 260 270s260 -105 260 -270c0 -55 -11 -102 -32 -143zM182 254c0 -99 44 -162 113 -162s113 63 113 162s-44 162 -113 162s-113 -63 -113 -162zM342 592v120h123v-120h-123zM125 592v120h123v-120
h-123z" />
    <glyph glyph-name="divide" unicode="&#xf7;" horiz-adv-x="566" 
d="M502 371v-109h-438v109h438zM224 551h118v-110h-118v110zM224 82v110h118v-110h-118z" />
    <glyph glyph-name="oslash" unicode="&#xf8;" horiz-adv-x="590" 
d="M523 111c-43 -81 -123 -127 -228 -127c-52 0 -98 11 -137 33l-51 -69l-53 39l52 69c-45 48 -71 117 -71 198c0 165 102 270 260 270c52 0 98 -11 138 -33l52 69l52 -41l-52 -69c47 -49 70 -114 70 -196c0 -55 -11 -102 -32 -143zM174 254c0 -35 5 -64 15 -88l174 232
c-19 16 -42 24 -68 24c-73 0 -121 -65 -121 -168zM295 86c75 0 121 65 121 168c0 33 -5 61 -14 86l-174 -231c19 -15 41 -23 67 -23z" />
    <glyph glyph-name="ugrave" unicode="&#xf9;" 
d="M532 0h-131v64h-2c-35 -47 -86 -76 -149 -76c-116 0 -187 73 -187 208v312h140v-298c0 -75 33 -112 89 -112c60 0 100 49 100 138v272h140v-508zM308 712l77 -146h-110l-140 146h173z" />
    <glyph glyph-name="uacute" unicode="&#xfa;" 
d="M532 0h-131v64h-2c-35 -47 -86 -76 -149 -76c-116 0 -187 73 -187 208v312h140v-298c0 -75 33 -112 89 -112c60 0 100 49 100 138v272h140v-508zM292 712h173l-140 -146h-110z" />
    <glyph glyph-name="ucircumflex" unicode="&#xfb;" 
d="M532 0h-131v64h-2c-35 -47 -86 -76 -149 -76c-116 0 -187 73 -187 208v312h140v-298c0 -75 33 -112 89 -112c60 0 100 49 100 138v272h140v-508zM111 566l114 146h149l114 -146h-128l-60 76l-61 -76h-128z" />
    <glyph glyph-name="udieresis" unicode="&#xfc;" 
d="M532 0h-131v64h-2c-35 -47 -86 -76 -149 -76c-116 0 -187 73 -187 208v312h140v-298c0 -75 33 -112 89 -112c60 0 100 49 100 138v272h140v-508zM470 712v-120h-123v120h123zM130 592v120h123v-120h-123z" />
    <glyph glyph-name="yacute" unicode="&#xfd;" horiz-adv-x="504" 
d="M511 508l-182 -511c-52 -143 -113 -188 -242 -188c-26 0 -50 3 -73 8v112c15 -5 33 -8 54 -8c56 0 93 33 93 82c0 19 -4 36 -24 92l-144 413h150l52 -170c21 -71 40 -142 56 -213h2c20 82 40 153 59 213l55 170h144zM244 712h173l-140 -146h-110z" />
    <glyph glyph-name="thorn" unicode="&#xfe;" horiz-adv-x="598" 
d="M538 114c-35 -81 -100 -127 -184 -127c-59 0 -113 27 -144 74h-2v-246h-140v897h140v-265h2c31 47 83 74 142 74c127 0 211 -106 211 -267c0 -53 -8 -100 -25 -140zM201 254c0 -100 42 -160 106 -160c67 0 110 63 110 160s-43 160 -110 160c-64 0 -106 -60 -106 -160z
" />
    <glyph glyph-name="ydieresis" unicode="&#xff;" horiz-adv-x="504" 
d="M143 508l52 -170c21 -71 40 -142 56 -213h2c20 82 40 153 59 213l55 170h144l-182 -511c-52 -143 -113 -188 -242 -188c-26 0 -50 3 -73 8v112c15 -5 33 -8 54 -8c56 0 93 33 93 82c0 19 -4 36 -24 92l-144 413h150zM205 712v-120h-123v120h123zM422 592h-123v120h123
v-120z" />
    <glyph glyph-name="Amacron" unicode="&#x100;" horiz-adv-x="698" 
d="M541 0l-55 174h-273l-56 -174h-154l247 712h198l247 -712h-154zM253 300h193l-15 47c-33 104 -60 197 -81 278h-2c-25 -93 -51 -186 -80 -278zM186 869h326v-91h-326v91z" />
    <glyph glyph-name="amacron" unicode="&#x101;" horiz-adv-x="547" 
d="M26 142c0 87 56 139 197 162c43 7 85 11 127 14v18c0 61 -31 90 -83 90s-81 -29 -84 -77h-136c5 103 81 175 220 175c144 0 218 -68 218 -201v-184c0 -57 5 -104 14 -139h-126c-5 19 -7 42 -7 68h-2c-37 -53 -92 -80 -165 -80c-53 0 -95 15 -126 44s-47 65 -47 110z
M424 598h-326v91h326v-91zM186 106c13 -12 31 -18 55 -18c31 0 61 10 80 29c23 23 29 48 29 97v19c-40 -3 -74 -6 -102 -11c-59 -11 -82 -30 -82 -70c0 -19 7 -35 20 -46z" />
    <glyph glyph-name="Abreve" unicode="&#x102;" horiz-adv-x="698" 
d="M541 0l-55 174h-273l-56 -174h-154l247 712h198l247 -712h-154zM269 906c3 -40 33 -64 80 -64s77 24 80 64h95c-5 -96 -71 -151 -175 -151s-170 55 -175 151h95zM446 300l-15 47c-33 104 -60 197 -81 278h-2c-25 -93 -51 -186 -80 -278l-15 -47h193z" />
    <glyph glyph-name="abreve" unicode="&#x103;" horiz-adv-x="547" 
d="M350 336c0 61 -31 90 -83 90s-81 -29 -84 -77h-136c5 103 81 175 220 175c144 0 218 -68 218 -201v-184c0 -57 5 -104 14 -139h-126c-5 19 -7 42 -7 68h-2c-37 -53 -92 -80 -165 -80c-53 0 -95 15 -126 44s-47 65 -47 110c0 87 56 139 197 162c43 7 85 11 127 14v18z
M386 601c-31 -27 -73 -40 -125 -40c-104 0 -170 55 -175 151h95c3 -40 33 -64 80 -64s77 24 80 64h95c-3 -48 -19 -85 -50 -111zM350 233c-40 -3 -74 -6 -102 -11c-59 -11 -82 -30 -82 -70c0 -39 27 -64 75 -64c31 0 61 10 80 29c23 23 29 48 29 97v19z" />
    <glyph glyph-name="Aogonek" unicode="&#x104;" horiz-adv-x="698" 
d="M698 -184c-22 -9 -48 -13 -78 -13c-75 0 -113 32 -113 87c0 43 25 74 78 110h-44l-55 174h-273l-56 -174h-154l247 712h198l247 -712c-51 -35 -68 -60 -68 -88c0 -21 12 -31 35 -31c14 0 26 2 36 6v-71zM446 300l-15 47c-33 104 -60 197 -81 278h-2
c-25 -93 -51 -186 -80 -278l-15 -47h193z" />
    <glyph glyph-name="aogonek" unicode="&#x105;" horiz-adv-x="547" 
d="M424 -197c-75 0 -113 32 -113 87c0 43 25 74 78 110h-16c-5 19 -7 42 -7 68h-2c-37 -53 -92 -80 -165 -80c-53 0 -95 15 -126 44s-47 65 -47 110c0 87 56 139 197 162c43 7 85 11 127 14v18c0 61 -31 90 -83 90s-81 -29 -84 -77h-136c5 103 81 175 220 175
c144 0 218 -68 218 -201v-184c0 -57 5 -104 14 -139c-51 -35 -68 -60 -68 -88c0 -21 12 -31 35 -31c14 0 26 2 36 6v-71c-21 -9 -47 -13 -78 -13zM166 152c0 -39 27 -64 75 -64c31 0 61 10 80 29c23 23 29 48 29 97v19c-40 -3 -74 -6 -102 -11c-59 -11 -82 -30 -82 -70z" />
    <glyph glyph-name="Cacute" unicode="&#x106;" horiz-adv-x="701" 
d="M658 465h-148c-9 83 -64 133 -147 133c-108 0 -174 -91 -174 -242s64 -242 171 -242c84 0 139 49 150 136h151c-7 -84 -37 -149 -90 -196s-124 -70 -211 -70c-199 0 -323 142 -323 372c0 229 125 372 326 372c175 0 289 -107 295 -263zM355 906h173l-140 -146h-110z" />
    <glyph glyph-name="cacute" unicode="&#x107;" horiz-adv-x="562" 
d="M531 319h-146c-5 60 -42 97 -95 97c-68 0 -109 -62 -109 -162s41 -162 109 -162c53 0 90 40 94 107h147c-5 -65 -30 -117 -73 -156s-99 -59 -167 -59c-155 0 -256 108 -256 270s101 270 256 270c134 0 230 -85 240 -205zM283 712h173l-140 -146h-110z" />
    <glyph glyph-name="Ccircumflex" unicode="&#x108;" horiz-adv-x="701" 
d="M658 465h-148c-9 83 -64 133 -147 133c-108 0 -174 -91 -174 -242s64 -242 171 -242c84 0 139 49 150 136h151c-7 -84 -37 -149 -90 -196s-124 -70 -211 -70c-199 0 -323 142 -323 372c0 229 125 372 326 372c175 0 289 -107 295 -263zM288 906h149l114 -146h-128l-61 76
l-60 -76h-128z" />
    <glyph glyph-name="ccircumflex" unicode="&#x109;" horiz-adv-x="562" 
d="M531 319h-146c-5 60 -42 97 -95 97c-68 0 -109 -62 -109 -162s41 -162 109 -162c53 0 90 40 94 107h147c-5 -65 -30 -117 -73 -156s-99 -59 -167 -59c-155 0 -256 108 -256 270s101 270 256 270c134 0 230 -85 240 -205zM216 712h149l114 -146h-128l-60 76l-61 -76h-128z
" />
    <glyph glyph-name="Cdotaccent" unicode="&#x10a;" horiz-adv-x="701" 
d="M658 465h-148c-9 83 -64 133 -147 133c-108 0 -174 -91 -174 -242s64 -242 171 -242c84 0 139 49 150 136h151c-7 -84 -37 -149 -90 -196s-124 -70 -211 -70c-199 0 -323 142 -323 372c0 229 125 372 326 372c175 0 289 -107 295 -263zM433 889v-120h-140v120h140z" />
    <glyph glyph-name="cdotaccent" unicode="&#x10b;" horiz-adv-x="562" 
d="M531 319h-146c-5 60 -42 97 -95 97c-68 0 -109 -62 -109 -162s41 -162 109 -162c53 0 90 40 94 107h147c-5 -65 -30 -117 -73 -156s-99 -59 -167 -59c-155 0 -256 108 -256 270s101 270 256 270c134 0 230 -85 240 -205zM361 712v-120h-140v120h140z" />
    <glyph glyph-name="Ccaron" unicode="&#x10c;" horiz-adv-x="701" 
d="M658 465h-148c-9 83 -64 133 -147 133c-108 0 -174 -91 -174 -242s64 -242 171 -242c84 0 139 49 150 136h151c-7 -84 -37 -149 -90 -196s-124 -70 -211 -70c-199 0 -323 142 -323 372c0 229 125 372 326 372c175 0 289 -107 295 -263zM302 906l61 -76l60 76h128
l-114 -146h-149l-114 146h128z" />
    <glyph glyph-name="ccaron" unicode="&#x10d;" horiz-adv-x="562" 
d="M531 319h-146c-5 60 -42 97 -95 97c-68 0 -109 -62 -109 -162s41 -162 109 -162c53 0 90 40 94 107h147c-5 -65 -30 -117 -73 -156s-99 -59 -167 -59c-155 0 -256 108 -256 270s101 270 256 270c134 0 230 -85 240 -205zM102 712h128l61 -76l60 76h128l-114 -146h-149z
" />
    <glyph glyph-name="Dcaron" unicode="&#x10e;" horiz-adv-x="734" 
d="M697 356c0 -228 -135 -356 -378 -356h-237v712h237c243 0 378 -128 378 -356zM228 126h89c153 0 228 75 228 230s-75 230 -228 230h-89v-460zM273 906l61 -76l60 76h128l-114 -146h-149l-114 146h128z" />
    <glyph glyph-name="dcaron" unicode="&#x10f;" horiz-adv-x="598" 
d="M35 254c0 161 82 267 209 267c59 0 113 -27 144 -74h2v265h140v-712h-136v67h-2c-31 -51 -86 -80 -146 -80c-127 0 -211 106 -211 267zM211 138c20 -29 47 -44 80 -44c64 0 106 60 106 160s-42 160 -106 160c-67 0 -110 -63 -110 -160c0 -49 10 -87 30 -116zM637 535h-79
l26 177h111z" />
    <glyph glyph-name="Dcroat" unicode="&#x110;" horiz-adv-x="734" 
d="M697 356c0 -228 -135 -356 -378 -356h-237v307h-64v106h64v299h237c243 0 378 -128 378 -356zM228 413h166v-106h-166v-181h89c153 0 228 75 228 230s-75 230 -228 230h-89v-173z" />
    <glyph glyph-name="dcroat" unicode="&#x111;" horiz-adv-x="590" 
d="M530 0h-136v67h-2c-31 -51 -86 -80 -146 -80c-127 0 -211 106 -211 267s82 267 209 267c59 0 113 -27 144 -74h2v129h-120v72h120v64h140v-64h66v-72h-66v-576zM211 138c20 -29 47 -44 80 -44c64 0 106 60 106 160s-42 160 -106 160c-67 0 -110 -63 -110 -160
c0 -49 10 -87 30 -116z" />
    <glyph glyph-name="Emacron" unicode="&#x112;" horiz-adv-x="633" 
d="M82 712h492v-126h-345v-161h322v-125h-322v-174h354v-126h-501v712zM165 869h326v-91h-326v91z" />
    <glyph glyph-name="emacron" unicode="&#x113;" horiz-adv-x="573" 
d="M538 225h-365c4 -99 50 -142 115 -142c55 0 93 28 100 71h143c-20 -95 -112 -170 -243 -170c-159 0 -253 112 -253 274c0 151 95 266 252 266c116 0 203 -65 235 -169c11 -34 16 -77 16 -130zM123 598v91h326v-91h-326zM398 313c-8 73 -52 112 -111 112
s-100 -37 -111 -112h222z" />
    <glyph glyph-name="Ebreve" unicode="&#x114;" horiz-adv-x="633" 
d="M583 0h-501v712h492v-126h-345v-161h322v-125h-322v-174h354v-126zM248 906c3 -40 33 -64 80 -64s77 24 80 64h95c-5 -96 -71 -151 -175 -151s-170 55 -175 151h95z" />
    <glyph glyph-name="ebreve" unicode="&#x115;" horiz-adv-x="573" 
d="M489 68c-44 -52 -114 -84 -201 -84c-159 0 -253 112 -253 274c0 151 95 266 252 266c116 0 203 -65 235 -169c11 -34 16 -77 16 -130h-365c4 -99 50 -142 115 -142c55 0 93 28 100 71h143c-7 -31 -21 -60 -42 -86zM206 712c3 -40 33 -64 80 -64s77 24 80 64h95
c-5 -96 -71 -151 -175 -151s-170 55 -175 151h95zM176 313h222c-8 73 -52 112 -111 112s-100 -37 -111 -112z" />
    <glyph glyph-name="Edotaccent" unicode="&#x116;" horiz-adv-x="633" 
d="M82 712h492v-126h-345v-161h322v-125h-322v-174h354v-126h-501v712zM398 889v-120h-140v120h140z" />
    <glyph glyph-name="edotaccent" unicode="&#x117;" horiz-adv-x="573" 
d="M538 225h-365c4 -99 50 -142 115 -142c55 0 93 28 100 71h143c-20 -95 -112 -170 -243 -170c-159 0 -253 112 -253 274c0 151 95 266 252 266c116 0 203 -65 235 -169c11 -34 16 -77 16 -130zM176 313h222c-8 73 -52 112 -111 112s-100 -37 -111 -112zM216 712h140v-120
h-140v120z" />
    <glyph glyph-name="Eogonek" unicode="&#x118;" horiz-adv-x="633" 
d="M586 -184c-22 -9 -48 -13 -78 -13c-75 0 -113 32 -113 87c0 43 25 74 78 110h-391v712h492v-126h-345v-161h322v-125h-322v-174h354v-126c-51 -35 -68 -60 -68 -88c0 -21 12 -31 35 -31c14 0 26 2 36 6v-71z" />
    <glyph glyph-name="eogonek" unicode="&#x119;" horiz-adv-x="573" 
d="M538 225h-365c4 -99 50 -142 115 -142c55 0 93 28 100 71h143c-9 -43 -35 -86 -80 -130c-48 -47 -66 -75 -66 -107c0 -24 12 -36 35 -36c14 0 26 2 36 6v-71c-21 -9 -47 -13 -78 -13c-75 0 -113 32 -113 87c0 35 18 67 55 94v2c-12 -1 -23 -2 -32 -2
c-159 0 -253 112 -253 274c0 151 95 266 252 266c116 0 203 -65 235 -169c11 -34 16 -77 16 -130zM176 313h222c-8 73 -52 112 -111 112s-100 -37 -111 -112z" />
    <glyph glyph-name="Ecaron" unicode="&#x11a;" horiz-adv-x="633" 
d="M583 0h-501v712h492v-126h-345v-161h322v-125h-322v-174h354v-126zM267 906l61 -76l60 76h128l-114 -146h-149l-114 146h128z" />
    <glyph glyph-name="ecaron" unicode="&#x11b;" horiz-adv-x="573" 
d="M538 225h-365c4 -99 50 -142 115 -142c55 0 93 28 100 71h143c-20 -95 -112 -170 -243 -170c-159 0 -253 112 -253 274c0 151 95 266 252 266c116 0 203 -65 235 -169c11 -34 16 -77 16 -130zM225 712l61 -76l60 76h128l-114 -146h-149l-114 146h128zM176 313h222
c-8 73 -52 112 -111 112s-100 -37 -111 -112z" />
    <glyph glyph-name="Gcircumflex" unicode="&#x11c;" horiz-adv-x="744" 
d="M672 490h-158c-13 71 -60 108 -139 108c-115 0 -186 -93 -186 -245c0 -156 70 -251 183 -251c103 0 159 60 160 169h-169v120h306v-391h-124v77h-2c-41 -57 -115 -91 -208 -91c-182 0 -298 141 -298 367c0 232 131 375 338 375c173 0 282 -90 297 -238zM292 906h149
l114 -146h-128l-61 76l-60 -76h-128z" />
    <glyph glyph-name="gcircumflex" unicode="&#x11d;" horiz-adv-x="591" 
d="M385 82c-37 -53 -81 -76 -142 -76c-127 0 -208 101 -208 258s84 258 210 258c63 0 105 -25 144 -82h2v68h132v-476c0 -149 -90 -226 -241 -226c-137 0 -217 61 -225 162h140c3 -39 35 -62 88 -62c67 0 102 36 102 131v45h-2zM362 368c-20 26 -46 39 -79 39
c-63 0 -102 -55 -102 -143s39 -143 102 -143c65 0 108 56 108 143c0 43 -10 78 -29 104zM88 566l114 146h149l114 -146h-128l-60 76l-61 -76h-128z" />
    <glyph glyph-name="Gbreve" unicode="&#x11e;" horiz-adv-x="744" 
d="M543 77c-41 -57 -115 -91 -208 -91c-182 0 -298 141 -298 367c0 232 131 375 338 375c173 0 282 -90 297 -238h-158c-13 71 -60 108 -139 108c-115 0 -186 -93 -186 -245c0 -156 70 -251 183 -251c103 0 159 60 160 169h-169v120h306v-391h-124v77h-2zM287 906
c3 -40 33 -64 80 -64s77 24 80 64h95c-5 -96 -71 -151 -175 -151s-170 55 -175 151h95z" />
    <glyph glyph-name="gbreve" unicode="&#x11f;" horiz-adv-x="591" 
d="M387 37v45h-2c-37 -53 -81 -76 -142 -76c-127 0 -208 101 -208 258s84 258 210 258c63 0 105 -25 144 -82h2v68h132v-476c0 -149 -90 -226 -241 -226c-137 0 -217 61 -225 162h140c3 -39 35 -62 88 -62c67 0 102 36 102 131zM391 264c0 87 -43 143 -108 143
c-63 0 -102 -55 -102 -143s39 -143 102 -143c65 0 108 56 108 143zM402 601c-31 -27 -73 -40 -125 -40c-104 0 -170 55 -175 151h95c3 -40 33 -64 80 -64s77 24 80 64h95c-3 -48 -19 -85 -50 -111z" />
    <glyph glyph-name="Gdotaccent" unicode="&#x120;" horiz-adv-x="744" 
d="M669 0h-124v77h-2c-41 -57 -115 -91 -208 -91c-182 0 -298 141 -298 367c0 232 131 375 338 375c173 0 282 -90 297 -238h-158c-13 71 -60 108 -139 108c-115 0 -186 -93 -186 -245c0 -156 70 -251 183 -251c103 0 159 60 160 169h-169v120h306v-391zM437 889v-120h-140
v120h140z" />
    <glyph glyph-name="gdotaccent" unicode="&#x121;" horiz-adv-x="591" 
d="M387 82h-2c-37 -53 -81 -76 -142 -76c-127 0 -208 101 -208 258s84 258 210 258c63 0 105 -25 144 -82h2v68h132v-476c0 -149 -90 -226 -241 -226c-137 0 -217 61 -225 162h140c3 -39 35 -62 88 -62c67 0 102 36 102 131v45zM209 160c18 -26 43 -39 74 -39
c65 0 108 56 108 143s-43 143 -108 143c-63 0 -102 -55 -102 -143c0 -44 9 -79 28 -104zM347 712v-120h-140v120h140z" />
    <glyph glyph-name="Gcommaaccent" unicode="&#x122;" horiz-adv-x="744" 
d="M672 490h-158c-13 71 -60 108 -139 108c-115 0 -186 -93 -186 -245c0 -156 70 -251 183 -251c103 0 159 60 160 169h-169v120h306v-391h-124v77h-2c-41 -57 -115 -91 -208 -91c-182 0 -298 141 -298 367c0 232 131 375 338 375c173 0 282 -90 297 -238zM428 -59v-104
l-68 -107h-56l45 107h-45v104h124z" />
    <glyph glyph-name="gcommaaccent" unicode="&#x123;" horiz-adv-x="591" 
d="M385 82c-37 -53 -81 -76 -142 -76c-127 0 -208 101 -208 258s84 258 210 258c63 0 105 -25 144 -82h2v68h132v-476c0 -149 -90 -226 -241 -226c-137 0 -217 61 -225 162h140c3 -39 35 -62 88 -62c67 0 102 36 102 131v45h-2zM391 264c0 87 -43 143 -108 143
c-63 0 -102 -55 -102 -143s39 -143 102 -143c65 0 108 56 108 143zM283 788h56l-45 -107h45v-104h-124v104z" />
    <glyph glyph-name="Hcircumflex" unicode="&#x124;" horiz-adv-x="750" 
d="M668 0h-147v307h-292v-307h-147v712h147v-279h292v279h147v-712zM186 760l114 146h149l114 -146h-128l-61 76l-60 -76h-128z" />
    <glyph glyph-name="hcircumflex" unicode="&#x125;" 
d="M537 0h-140v298c0 75 -33 112 -89 112c-60 0 -100 -49 -100 -138v-272h-140v712h140v-260h2c35 45 85 68 140 68c116 0 187 -73 187 -208v-312zM224 906h149l114 -146h-128l-61 76l-60 -76h-128z" />
    <glyph glyph-name="Hbar" unicode="&#x126;" horiz-adv-x="750" 
d="M723 568h-55v-568h-147v307h-292v-307h-147v568h-55v72h55v72h147v-72h292v72h147v-72h55v-72zM229 568v-135h292v135h-292z" />
    <glyph glyph-name="hbar" unicode="&#x127;" 
d="M537 0h-140v298c0 75 -33 112 -89 112c-60 0 -100 -49 -100 -138v-272h-140v576h-74v64h74v72h140v-72h112v-64h-112v-124h2c35 45 85 68 140 68c116 0 187 -73 187 -208v-312z" />
    <glyph glyph-name="Itilde" unicode="&#x128;" horiz-adv-x="311" 
d="M82 712h147v-712h-147v712zM310 807c-21 -24 -49 -36 -84 -36c-32 0 -53 10 -82 27c-24 13 -35 19 -52 19c-28 0 -42 -14 -46 -46h-78c4 84 47 135 118 135c32 0 54 -10 83 -27c21 -12 35 -19 51 -19c28 0 42 14 46 46h78c-2 -42 -13 -75 -34 -99z" />
    <glyph glyph-name="itilde" unicode="&#x129;" horiz-adv-x="276" 
d="M68 508h140v-508h-140v508zM273 613c-19 -24 -44 -36 -77 -36c-29 0 -46 9 -71 28c-23 15 -30 20 -45 20c-25 0 -37 -16 -40 -48h-67c4 85 42 135 107 135c29 0 47 -11 72 -28c19 -13 29 -20 44 -20c25 0 37 15 40 48h68c-2 -42 -12 -75 -31 -99z" />
    <glyph glyph-name="Imacron" unicode="&#x12a;" horiz-adv-x="311" 
d="M82 712h147v-712h-147v712zM-7 869h326v-91h-326v91z" />
    <glyph glyph-name="imacron" unicode="&#x12b;" horiz-adv-x="276" 
d="M68 508h140v-508h-140v508zM-5 694h286v-91h-286v91z" />
    <glyph glyph-name="Ibreve" unicode="&#x12c;" horiz-adv-x="311" 
d="M229 712v-712h-147v712h147zM76 906c3 -40 33 -64 80 -64s77 24 80 64h95c-5 -96 -71 -151 -175 -151s-170 55 -175 151h95z" />
    <glyph glyph-name="ibreve" unicode="&#x12d;" horiz-adv-x="276" 
d="M208 508v-508h-140v508h140zM67 712c3 -43 30 -68 71 -68s68 25 71 68h88c-5 -95 -63 -151 -159 -151s-154 55 -159 151h88z" />
    <glyph glyph-name="Iogonek" unicode="&#x12e;" horiz-adv-x="311" 
d="M41 -110c0 43 25 74 78 110h-37v712h147v-712c-51 -35 -68 -60 -68 -88c0 -21 12 -31 35 -31c14 0 26 2 36 6v-71c-22 -9 -48 -13 -78 -13c-75 0 -113 32 -113 87z" />
    <glyph glyph-name="iogonek" unicode="&#x12f;" horiz-adv-x="276" 
d="M211 -184c-22 -9 -48 -13 -78 -13c-75 0 -113 32 -113 87c0 43 25 74 78 110h-30v508h140v-508c-51 -35 -68 -60 -68 -88c0 -21 12 -31 35 -31c14 0 26 2 36 6v-71zM208 712v-120h-140v120h140z" />
    <glyph glyph-name="Idotaccent" unicode="&#x130;" horiz-adv-x="311" 
d="M82 0v712h147v-712h-147zM226 889v-120h-140v120h140z" />
    <glyph glyph-name="dotlessi" unicode="&#x131;" horiz-adv-x="276" 
d="M208 508v-508h-140v508h140z" />
    <glyph glyph-name="IJ" unicode="&#x132;" horiz-adv-x="703" 
d="M326 126c18 -3 34 -5 47 -5c74 0 106 27 106 137v454h147v-485c0 -161 -72 -234 -235 -234c-25 0 -47 3 -65 8v125zM229 712v-712h-147v712h147z" />
    <glyph glyph-name="ij" unicode="&#x133;" horiz-adv-x="554" 
d="M244 -81c8 -2 17 -3 27 -3c52 0 75 23 75 94v498h140v-519c0 -123 -66 -179 -173 -179c-25 0 -48 3 -69 8v101zM68 508h140v-508h-140v508zM208 712v-120h-140v120h140zM486 592h-140v120h140v-120z" />
    <glyph glyph-name="Jcircumflex" unicode="&#x134;" horiz-adv-x="392" 
d="M15 1v125c18 -3 34 -5 47 -5c74 0 106 27 106 137v454h147v-485c0 -161 -72 -234 -235 -234c-25 0 -47 3 -65 8zM430 760h-128l-61 76l-60 -76h-128l114 146h149z" />
    <glyph glyph-name="jcircumflex" unicode="&#x135;" horiz-adv-x="278" 
d="M-32 -81c8 -2 17 -3 27 -3c52 0 75 23 75 94v498h140v-519c0 -123 -66 -179 -173 -179c-25 0 -48 3 -69 8v101zM210 712l103 -145h-120l-53 77l-53 -77h-121l103 145h141z" />
    <glyph glyph-name="Kcommaaccent" unicode="&#x136;" horiz-adv-x="663" 
d="M472 0l-241 336h-2v-336h-147v712h147v-313h2l233 313h172l-271 -338l294 -374h-187zM315 -163h-45v104h124v-104l-68 -107h-56z" />
    <glyph glyph-name="kcommaaccent" unicode="&#x137;" horiz-adv-x="543" 
d="M380 0l-170 238h-2v-238h-140v712h140v-409h2l164 205h158l-193 -234l214 -274h-173zM274 -163h-45v104h124v-104l-68 -107h-56z" />
    <glyph glyph-name="kgreenlandic" unicode="&#x138;" horiz-adv-x="560" 
d="M68 0v508h140v-205h2l164 205h158l-193 -234l214 -274h-173l-170 238h-2v-238h-140z" />
    <glyph glyph-name="Lacute" unicode="&#x139;" horiz-adv-x="575" 
d="M229 712v-586h336v-126h-483v712h147zM100 760l77 146h173l-140 -146h-110z" />
    <glyph glyph-name="lacute" unicode="&#x13a;" horiz-adv-x="276" 
d="M68 0v712h140v-712h-140zM145 916h173l-140 -146h-110z" />
    <glyph glyph-name="Lcommaaccent" unicode="&#x13b;" horiz-adv-x="575" 
d="M82 0v712h147v-586h336v-126h-483zM262 -163v104h124v-104l-68 -107h-56l45 107h-45z" />
    <glyph glyph-name="lcommaaccent" unicode="&#x13c;" horiz-adv-x="276" 
d="M208 712v-712h-140v712h140zM200 -59v-104l-68 -107h-56l45 107h-45v104h124z" />
    <glyph glyph-name="Lcaron" unicode="&#x13d;" horiz-adv-x="575" 
d="M229 712v-586h336v-126h-483v712h147zM295 712h111l-58 -224h-79z" />
    <glyph glyph-name="lcaron" unicode="&#x13e;" horiz-adv-x="276" 
d="M68 0v712h140v-712h-140zM262 712h111l-58 -177h-79z" />
    <glyph glyph-name="Ldot" unicode="&#x13f;" horiz-adv-x="655" 
d="M82 0v712h147v-586h336v-126h-483zM553 515v-167h-154v167h154z" />
    <glyph glyph-name="ldot" unicode="&#x140;" horiz-adv-x="484" 
d="M208 712v-712h-140v712h140zM457 439v-167h-154v167h154z" />
    <glyph glyph-name="Lslash" unicode="&#x141;" horiz-adv-x="575" 
d="M13 239v122l69 41v310h147v-232l139 83v-122l-139 -83v-232h336v-126h-483v280z" />
    <glyph glyph-name="lslash" unicode="&#x142;" horiz-adv-x="332" 
d="M10 228v116l86 51v317h140v-251l86 51v-116l-86 -51v-345h-140v279z" />
    <glyph glyph-name="Nacute" unicode="&#x143;" horiz-adv-x="776" 
d="M694 0h-209l-138 289c-51 107 -94 205 -130 294h-2c5 -110 8 -213 8 -309v-274h-141v712h209l138 -289c51 -107 94 -205 130 -294h2c-5 110 -8 213 -8 309v274h141v-712zM303 760l77 146h173l-140 -146h-110z" />
    <glyph glyph-name="nacute" unicode="&#x144;" 
d="M537 0h-140v298c0 75 -33 112 -89 112c-60 0 -100 -49 -100 -138v-272h-140v508h131v-64h2c35 47 86 76 149 76c116 0 187 -73 187 -208v-312zM295 712h173l-140 -146h-110z" />
    <glyph glyph-name="Ncommaaccent" unicode="&#x145;" horiz-adv-x="776" 
d="M694 0h-209l-138 289c-51 107 -94 205 -130 294h-2c5 -110 8 -213 8 -309v-274h-141v712h209l138 -289c51 -107 94 -205 130 -294h2c-5 110 -8 213 -8 309v274h141v-712zM371 -163h-45v104h124v-104l-68 -107h-56z" />
    <glyph glyph-name="ncommaaccent" unicode="&#x146;" 
d="M537 0h-140v298c0 75 -33 112 -89 112c-60 0 -100 -49 -100 -138v-272h-140v508h131v-64h2c35 47 86 76 149 76c116 0 187 -73 187 -208v-312zM241 -59h124v-104l-68 -107h-56l45 107h-45v104z" />
    <glyph glyph-name="Ncaron" unicode="&#x147;" horiz-adv-x="776" 
d="M694 0h-209l-138 289c-51 107 -94 205 -130 294h-2c5 -110 8 -213 8 -309v-274h-141v712h209l138 -289c51 -107 94 -205 130 -294h2c-5 110 -8 213 -8 309v274h141v-712zM199 906h128l61 -76l60 76h128l-114 -146h-149z" />
    <glyph glyph-name="ncaron" unicode="&#x148;" 
d="M537 0h-140v298c0 75 -33 112 -89 112c-60 0 -100 -49 -100 -138v-272h-140v508h131v-64h2c35 47 86 76 149 76c116 0 187 -73 187 -208v-312zM242 712l61 -76l60 76h128l-114 -146h-149l-114 146h128z" />
    <glyph glyph-name="napostrophe" unicode="&#x149;" horiz-adv-x="750" 
d="M687 0h-140v298c0 75 -33 112 -89 112c-60 0 -100 -49 -100 -138v-272h-140v508h131v-64h2c35 47 86 76 149 76c116 0 187 -73 187 -208v-312zM105 570h-44v142h131v-142l-63 -146h-71z" />
    <glyph glyph-name="Eng" unicode="&#x14a;" horiz-adv-x="746" 
d="M664 -14c0 -123 -66 -179 -173 -179c-25 0 -48 3 -69 8v101c9 -2 19 -3 30 -3c45 0 69 20 69 65c0 12 -2 24 -7 35s-16 32 -35 65l-139 241c-46 81 -87 159 -123 236h-2c5 -75 8 -160 8 -254v-301h-141v712h183l141 -246c46 -81 87 -159 123 -236h2c-5 75 -8 160 -8 254
v228h141v-726z" />
    <glyph glyph-name="eng" unicode="&#x14b;" 
d="M537 -10c0 -123 -66 -179 -173 -179c-25 0 -48 3 -69 8v101c8 -2 17 -3 27 -3c52 0 75 23 75 94v274c0 56 -7 82 -26 102c-15 16 -36 24 -62 24c-60 0 -101 -49 -101 -138v-273h-140v508h132v-65h2c37 53 92 78 153 78c55 0 98 -16 129 -48c37 -37 53 -86 53 -175v-308z
" />
    <glyph glyph-name="Omacron" unicode="&#x14c;" horiz-adv-x="748" 
d="M671 158c-55 -112 -158 -174 -297 -174c-209 0 -337 142 -337 372s128 372 337 372s337 -142 337 -372c0 -77 -13 -143 -40 -198zM239 179c33 -43 78 -65 135 -65c115 0 185 91 185 242s-70 242 -185 242s-185 -91 -185 -242c0 -75 17 -134 50 -177zM537 869v-91h-326v91
h326z" />
    <glyph glyph-name="omacron" unicode="&#x14d;" horiz-adv-x="590" 
d="M523 111c-43 -81 -123 -127 -228 -127c-158 0 -260 105 -260 270s102 270 260 270s260 -105 260 -270c0 -55 -11 -102 -32 -143zM182 254c0 -99 44 -162 113 -162s113 63 113 162s-44 162 -113 162s-113 -63 -113 -162zM132 689h326v-91h-326v91z" />
    <glyph glyph-name="Obreve" unicode="&#x14e;" horiz-adv-x="748" 
d="M671 158c-55 -112 -158 -174 -297 -174c-209 0 -337 142 -337 372s128 372 337 372s337 -142 337 -372c0 -77 -13 -143 -40 -198zM239 179c33 -43 78 -65 135 -65c115 0 185 91 185 242s-70 242 -185 242s-185 -91 -185 -242c0 -75 17 -134 50 -177zM294 906
c3 -40 33 -64 80 -64s77 24 80 64h95c-5 -96 -71 -151 -175 -151s-170 55 -175 151h95z" />
    <glyph glyph-name="obreve" unicode="&#x14f;" horiz-adv-x="590" 
d="M523 111c-43 -81 -123 -127 -228 -127c-158 0 -260 105 -260 270s102 270 260 270s260 -105 260 -270c0 -55 -11 -102 -32 -143zM182 254c0 -99 44 -162 113 -162s113 63 113 162s-44 162 -113 162s-113 -63 -113 -162zM120 712h95c3 -40 33 -64 80 -64s77 24 80 64h95
c-5 -96 -71 -151 -175 -151s-170 55 -175 151z" />
    <glyph glyph-name="Ohungarumlaut" unicode="&#x150;" horiz-adv-x="748" 
d="M711 356c0 -230 -128 -372 -337 -372s-337 142 -337 372s128 372 337 372s337 -142 337 -372zM189 356c0 -151 70 -242 185 -242s185 91 185 242s-70 242 -185 242s-185 -91 -185 -242zM468 906h153l-140 -146h-110zM181 760l97 146h153l-140 -146h-110z" />
    <glyph glyph-name="ohungarumlaut" unicode="&#x151;" horiz-adv-x="590" 
d="M555 254c0 -165 -102 -270 -260 -270s-260 105 -260 270s102 270 260 270s260 -105 260 -270zM182 254c0 -99 44 -162 113 -162s113 63 113 162s-44 162 -113 162s-113 -63 -113 -162zM409 712h153l-140 -146h-110zM219 712h153l-140 -146h-110z" />
    <glyph glyph-name="OE" unicode="&#x152;" horiz-adv-x="1020" 
d="M970 0h-551c-244 0 -382 128 -382 356s138 356 382 356h542v-126h-345v-161h322v-125h-322v-174h354v-126zM419 126h50v460h-50c-153 0 -230 -77 -230 -230s77 -230 230 -230z" />
    <glyph glyph-name="oe" unicode="&#x153;" horiz-adv-x="928" 
d="M743 154h143c-20 -95 -109 -170 -238 -170c-73 0 -135 27 -175 76c-43 -49 -103 -76 -178 -76c-158 0 -260 105 -260 270s102 270 260 270c75 0 135 -27 178 -76c41 48 101 76 174 76c113 0 199 -65 231 -169c10 -35 15 -78 15 -130h-355c4 -99 47 -142 110 -142
c52 0 88 28 95 71zM213 136c20 -29 47 -44 82 -44c69 0 113 63 113 162s-44 162 -113 162s-113 -63 -113 -162c0 -49 10 -89 31 -118zM719 397c-19 19 -43 28 -72 28c-57 0 -95 -37 -106 -112h212c-4 37 -15 65 -34 84z" />
    <glyph glyph-name="Racute" unicode="&#x154;" horiz-adv-x="666" 
d="M652 0h-160l-57 169c-13 39 -29 66 -46 81c-18 15 -44 22 -79 22h-81v-272h-147v712h262c176 0 260 -72 260 -201c0 -87 -50 -151 -130 -174v-2c25 -9 45 -23 60 -42s30 -51 47 -96zM229 389h104c82 0 123 35 123 105c0 66 -44 99 -131 99h-96v-204zM317 906h173
l-140 -146h-110z" />
    <glyph glyph-name="racute" unicode="&#x155;" horiz-adv-x="392" 
d="M197 436h2c33 55 79 80 139 80c17 0 32 -2 46 -6v-121c-18 3 -33 5 -44 5c-85 0 -132 -54 -132 -154v-240h-140v508h129v-72zM201 712h173l-140 -146h-110z" />
    <glyph glyph-name="Rcommaaccent" unicode="&#x156;" horiz-adv-x="666" 
d="M652 0h-160l-57 169c-13 39 -29 66 -46 81c-18 15 -44 22 -79 22h-81v-272h-147v712h262c176 0 260 -72 260 -201c0 -87 -50 -151 -130 -174v-2c25 -9 45 -23 60 -42s30 -51 47 -96zM333 389c82 0 123 35 123 105c0 66 -44 99 -131 99h-96v-204h104zM409 -59v-104
l-68 -107h-56l45 107h-45v104h124z" />
    <glyph glyph-name="rcommaaccent" unicode="&#x157;" horiz-adv-x="392" 
d="M384 389c-18 3 -33 5 -44 5c-85 0 -132 -54 -132 -154v-240h-140v508h129v-72h2c33 55 79 80 139 80c17 0 32 -2 46 -6v-121zM200 -59v-104l-68 -107h-56l45 107h-45v104h124z" />
    <glyph glyph-name="Rcaron" unicode="&#x158;" horiz-adv-x="666" 
d="M652 0h-160l-57 169c-13 39 -29 66 -46 81c-18 15 -44 22 -79 22h-81v-272h-147v712h262c176 0 260 -72 260 -201c0 -87 -50 -151 -130 -174v-2c25 -9 45 -23 60 -42s30 -51 47 -96zM229 593v-204h104c82 0 123 35 123 105c0 66 -44 99 -131 99h-96zM136 906h128l61 -76
l60 76h128l-114 -146h-149z" />
    <glyph glyph-name="rcaron" unicode="&#x159;" horiz-adv-x="392" 
d="M384 389c-18 3 -33 5 -44 5c-85 0 -132 -54 -132 -154v-240h-140v508h129v-72h2c33 55 79 80 139 80c17 0 32 -2 46 -6v-121zM20 712h128l61 -76l60 76h128l-114 -146h-149z" />
    <glyph glyph-name="Sacute" unicode="&#x15a;" horiz-adv-x="630" 
d="M461 12c-42 -19 -90 -28 -145 -28c-180 0 -288 90 -288 250h152c0 -87 47 -131 138 -131c75 0 123 35 123 91c0 40 -21 62 -58 75c-19 7 -48 15 -89 26c-58 15 -104 29 -138 43s-62 35 -84 64c-23 28 -34 66 -34 115c0 125 107 211 263 211c177 0 270 -81 270 -234h-149
c0 75 -44 117 -124 117c-65 0 -109 -31 -109 -78c4 -55 34 -70 155 -101c55 -14 100 -28 134 -42c34 -15 62 -36 84 -65c21 -29 32 -67 32 -116c0 -89 -49 -160 -133 -197zM293 906h173l-140 -146h-110z" />
    <glyph glyph-name="sacute" unicode="&#x15b;" horiz-adv-x="524" 
d="M470 352h-134c0 49 -27 74 -80 74c-44 0 -69 -18 -69 -47c5 -38 22 -41 109 -65c43 -11 76 -22 101 -32s46 -26 64 -48c17 -22 26 -52 26 -91c0 -48 -20 -86 -60 -115c-41 -30 -95 -44 -164 -44c-144 0 -228 61 -228 181h142c0 -51 32 -80 89 -80c48 0 74 18 74 49
c0 28 -17 44 -45 54c-15 5 -39 11 -72 20c-40 11 -71 21 -93 30c-23 9 -42 23 -58 44c-17 21 -25 49 -25 86c0 91 86 156 210 156c135 0 213 -60 213 -172zM172 566l77 146h173l-140 -146h-110z" />
    <glyph glyph-name="Scircumflex" unicode="&#x15c;" horiz-adv-x="630" 
d="M422 494c0 75 -44 117 -124 117c-65 0 -109 -31 -109 -78c4 -55 34 -70 155 -101c55 -14 100 -28 134 -42c34 -15 62 -36 84 -65c21 -29 32 -67 32 -116c0 -135 -113 -225 -278 -225c-180 0 -288 90 -288 250h152c0 -87 47 -131 138 -131c75 0 123 35 123 91
c0 40 -21 62 -58 75c-19 7 -48 15 -89 26c-58 15 -104 29 -138 43s-62 35 -84 64c-23 28 -34 66 -34 115c0 125 107 211 263 211c177 0 270 -81 270 -234h-149zM112 760l114 146h149l114 -146h-128l-61 76l-60 -76h-128z" />
    <glyph glyph-name="scircumflex" unicode="&#x15d;" horiz-adv-x="524" 
d="M177 165c0 -51 32 -80 89 -80c48 0 74 18 74 49c0 28 -17 44 -45 54c-15 5 -39 11 -72 20c-40 11 -71 21 -93 30c-23 9 -42 23 -58 44c-17 21 -25 49 -25 86c0 91 86 156 210 156c135 0 213 -60 213 -172h-134c0 49 -27 74 -80 74c-44 0 -69 -18 -69 -47
c5 -38 22 -41 109 -65c43 -11 76 -22 101 -32s46 -26 64 -48c17 -22 26 -52 26 -91c0 -48 -20 -86 -60 -115c-41 -30 -95 -44 -164 -44c-144 0 -228 61 -228 181h142zM445 566h-128l-60 76l-61 -76h-128l114 146h149z" />
    <glyph glyph-name="Scedilla" unicode="&#x15e;" horiz-adv-x="630" 
d="M341 -138c0 23 -19 38 -48 38c-11 0 -22 -2 -32 -6l-21 23l43 68c-160 11 -255 100 -255 249h152c0 -87 47 -131 138 -131c75 0 123 35 123 91c0 40 -21 62 -58 75c-19 7 -48 15 -89 26c-58 15 -104 29 -138 43s-62 35 -84 64c-23 28 -34 66 -34 115
c0 125 107 211 263 211c177 0 270 -81 270 -234h-149c0 75 -44 117 -124 117c-65 0 -109 -31 -109 -78c4 -55 34 -70 155 -101c55 -14 100 -28 134 -42c34 -15 62 -36 84 -65c21 -29 32 -67 32 -116c0 -128 -103 -218 -257 -224l-28 -46c9 3 19 5 32 5c47 0 85 -29 85 -76
c0 -55 -45 -94 -122 -94c-40 0 -78 10 -114 30l22 45c27 -15 54 -22 80 -22c31 0 49 12 49 35z" />
    <glyph glyph-name="scedilla" unicode="&#x15f;" horiz-adv-x="524" 
d="M281 -111c-9 7 -20 11 -35 11c-11 0 -22 -2 -32 -6l-21 23l42 68c-127 7 -200 68 -200 180h142c0 -51 32 -80 89 -80c48 0 74 18 74 49c0 28 -17 44 -45 54c-15 5 -39 11 -72 20c-40 11 -71 21 -93 30c-23 9 -42 23 -58 44c-17 21 -25 49 -25 86c0 91 86 156 210 156
c135 0 213 -60 213 -172h-134c0 49 -27 74 -80 74c-44 0 -69 -18 -69 -47c5 -38 22 -41 109 -65c43 -11 76 -22 101 -32s46 -26 64 -48c17 -22 26 -52 26 -91c0 -88 -76 -150 -196 -158l-29 -46c9 3 19 5 32 5c47 0 85 -29 85 -76c0 -55 -45 -94 -122 -94
c-40 0 -78 10 -114 30l22 45c27 -15 54 -22 80 -22c31 0 49 12 49 35c0 11 -4 20 -13 27z" />
    <glyph glyph-name="Scaron" unicode="&#x160;" horiz-adv-x="630" 
d="M422 494c0 75 -44 117 -124 117c-65 0 -109 -31 -109 -78c4 -55 34 -70 155 -101c55 -14 100 -28 134 -42c34 -15 62 -36 84 -65c21 -29 32 -67 32 -116c0 -135 -113 -225 -278 -225c-180 0 -288 90 -288 250h152c0 -87 47 -131 138 -131c75 0 123 35 123 91
c0 40 -21 62 -58 75c-19 7 -48 15 -89 26c-58 15 -104 29 -138 43s-62 35 -84 64c-23 28 -34 66 -34 115c0 125 107 211 263 211c177 0 270 -81 270 -234h-149zM112 906h128l61 -76l60 76h128l-114 -146h-149z" />
    <glyph glyph-name="scaron" unicode="&#x161;" horiz-adv-x="524" 
d="M35 165h142c0 -51 32 -80 89 -80c48 0 74 18 74 49c0 28 -17 44 -45 54c-15 5 -39 11 -72 20c-40 11 -71 21 -93 30c-23 9 -42 23 -58 44c-17 21 -25 49 -25 86c0 91 86 156 210 156c135 0 213 -60 213 -172h-134c0 49 -27 74 -80 74c-44 0 -69 -18 -69 -47
c5 -38 22 -41 109 -65c43 -11 76 -22 101 -32s46 -26 64 -48c17 -22 26 -52 26 -91c0 -48 -20 -86 -60 -115c-41 -30 -95 -44 -164 -44c-144 0 -228 61 -228 181zM331 566h-149l-114 146h128l61 -76l60 76h128z" />
    <glyph glyph-name="Tcommaaccent" unicode="&#x162;" horiz-adv-x="615" 
d="M10 586v126h595v-126h-224v-586h-147v586h-224zM246 -163v104h124v-104l-68 -107h-56l45 107h-45z" />
    <glyph glyph-name="tcommaaccent" unicode="&#x163;" horiz-adv-x="357" 
d="M332 3c-21 -7 -46 -10 -74 -10c-117 0 -168 48 -168 165v246h-82v104h82v132h140v-132h97v-104h-97v-221c0 -56 18 -78 66 -78c14 0 26 2 36 5v-107zM137 -59h124v-104l-68 -107h-56l45 107h-45v104z" />
    <glyph glyph-name="Tcaron" unicode="&#x164;" horiz-adv-x="615" 
d="M10 586v126h595v-126h-224v-586h-147v586h-224zM119 906h128l61 -76l60 76h128l-114 -146h-149z" />
    <glyph glyph-name="tcaron" unicode="&#x165;" horiz-adv-x="357" 
d="M90 508v132h140v-132h97v-104h-97v-221c0 -56 18 -78 66 -78c14 0 26 2 36 5v-107c-21 -7 -46 -10 -74 -10c-117 0 -168 48 -168 165v246h-82v104h82zM337 535h-79l26 177h111z" />
    <glyph glyph-name="Tbar" unicode="&#x166;" horiz-adv-x="615" 
d="M10 586v126h595v-126h-224v-186h135v-106h-135v-294h-147v294h-135v106h135v186h-224z" />
    <glyph glyph-name="tbar" unicode="&#x167;" horiz-adv-x="357" 
d="M332 3c-21 -7 -46 -10 -74 -10c-117 0 -167 48 -167 165v67h-80v83h80v96h-83v104h83v132h139v-132h97v-104h-97v-96h94v-83h-94v-42c0 -56 18 -78 66 -78c14 0 26 2 36 5v-107z" />
    <glyph glyph-name="Utilde" unicode="&#x168;" horiz-adv-x="718" 
d="M642 272c0 -187 -102 -288 -283 -288s-283 101 -283 288v440h147v-435c0 -105 48 -163 136 -163s136 58 136 163v435h147v-440zM171 771c4 84 47 135 118 135c32 0 54 -10 83 -27c21 -12 35 -19 51 -19c28 0 42 14 46 46h78c-4 -84 -47 -135 -118 -135
c-32 0 -53 10 -82 27c-24 13 -35 19 -52 19c-28 0 -42 -14 -46 -46h-78z" />
    <glyph glyph-name="utilde" unicode="&#x169;" 
d="M401 64h-2c-35 -47 -86 -76 -149 -76c-116 0 -187 73 -187 208v312h140v-298c0 -75 33 -112 89 -112c60 0 100 49 100 138v272h140v-508h-131v64zM146 676c21 24 49 36 84 36c32 0 54 -10 83 -27c21 -12 35 -19 51 -19c28 0 42 14 46 46h78c-4 -84 -47 -135 -118 -135
c-32 0 -53 10 -82 27c-24 13 -35 19 -52 19c-28 0 -42 -14 -46 -46h-78c2 42 13 75 34 99z" />
    <glyph glyph-name="Umacron" unicode="&#x16a;" horiz-adv-x="718" 
d="M642 272c0 -187 -102 -288 -283 -288s-283 101 -283 288v440h147v-435c0 -105 48 -163 136 -163s136 58 136 163v435h147v-440zM196 869h326v-91h-326v91z" />
    <glyph glyph-name="umacron" unicode="&#x16b;" 
d="M532 0h-131v64h-2c-35 -47 -86 -76 -149 -76c-116 0 -187 73 -187 208v312h140v-298c0 -75 33 -112 89 -112c60 0 100 49 100 138v272h140v-508zM463 689v-91h-326v91h326z" />
    <glyph glyph-name="Ubreve" unicode="&#x16c;" horiz-adv-x="718" 
d="M642 272c0 -187 -102 -288 -283 -288s-283 101 -283 288v440h147v-435c0 -105 48 -163 136 -163s136 58 136 163v435h147v-440zM184 906h95c3 -40 33 -64 80 -64s77 24 80 64h95c-5 -96 -71 -151 -175 -151s-170 55 -175 151z" />
    <glyph glyph-name="ubreve" unicode="&#x16d;" 
d="M532 0h-131v64h-2c-35 -47 -86 -76 -149 -76c-116 0 -187 73 -187 208v312h140v-298c0 -75 33 -112 89 -112c60 0 100 49 100 138v272h140v-508zM220 712c3 -40 33 -64 80 -64s77 24 80 64h95c-5 -96 -71 -151 -175 -151s-170 55 -175 151h95z" />
    <glyph glyph-name="Uring" unicode="&#x16e;" horiz-adv-x="718" 
d="M642 272c0 -187 -102 -288 -283 -288s-283 101 -283 288v440h147v-435c0 -105 48 -163 136 -163s136 58 136 163v435h147v-440zM251 858c0 30 11 56 32 77s46 31 76 31s56 -10 77 -31s31 -47 31 -77s-10 -55 -31 -76s-47 -32 -77 -32s-55 11 -76 32s-32 46 -32 76z
M305 858c0 -29 25 -54 54 -54c31 0 54 25 54 54c0 31 -23 54 -54 54c-29 0 -54 -23 -54 -54z" />
    <glyph glyph-name="uring" unicode="&#x16f;" 
d="M401 64h-2c-35 -47 -86 -76 -149 -76c-116 0 -187 73 -187 208v312h140v-298c0 -75 33 -112 89 -112c60 0 100 49 100 138v272h140v-508h-131v64zM192 664c0 30 11 56 32 77s46 31 76 31s56 -10 77 -31s31 -47 31 -77s-10 -55 -31 -76s-47 -32 -77 -32s-55 11 -76 32
s-32 46 -32 76zM246 664c0 -29 25 -54 54 -54c31 0 54 25 54 54c0 31 -23 54 -54 54c-29 0 -54 -23 -54 -54z" />
    <glyph glyph-name="Uhungarumlaut" unicode="&#x170;" horiz-adv-x="718" 
d="M642 272c0 -187 -102 -288 -283 -288s-283 101 -283 288v440h147v-435c0 -105 48 -163 136 -163s136 58 136 163v435h147v-440zM453 906h153l-140 -146h-110zM166 760l97 146h153l-140 -146h-110z" />
    <glyph glyph-name="uhungarumlaut" unicode="&#x171;" 
d="M532 0h-131v64h-2c-35 -47 -86 -76 -149 -76c-116 0 -187 73 -187 208v312h140v-298c0 -75 33 -112 89 -112c60 0 100 49 100 138v272h140v-508zM414 712h153l-140 -146h-110zM224 712h153l-140 -146h-110z" />
    <glyph glyph-name="Uogonek" unicode="&#x172;" horiz-adv-x="718" 
d="M642 272c0 -116 -39 -197 -115 -256c-49 -39 -66 -65 -66 -96c0 -26 12 -39 35 -39c14 0 26 2 36 6v-71c-21 -9 -47 -13 -78 -13c-75 0 -113 32 -113 91c0 36 17 62 54 91v2c-11 -2 -23 -3 -36 -3c-181 0 -283 101 -283 288v440h147v-435c0 -105 48 -163 136 -163
s136 58 136 163v435h147v-440z" />
    <glyph glyph-name="uogonek" unicode="&#x173;" 
d="M535 -184c-21 -9 -47 -13 -78 -13c-75 0 -113 32 -113 87c0 43 25 74 78 110h-21v64h-2c-35 -47 -86 -76 -149 -76c-116 0 -187 73 -187 208v312h140v-298c0 -75 33 -112 89 -112c60 0 100 49 100 138v272h140v-508c-51 -35 -68 -60 -68 -88c0 -21 12 -31 35 -31
c14 0 26 2 36 6v-71z" />
    <glyph glyph-name="Wcircumflex" unicode="&#x174;" horiz-adv-x="956" 
d="M947 712l-149 -712h-191l-66 282c-25 105 -45 206 -62 305h-2c-17 -99 -37 -200 -62 -305l-66 -282h-191l-149 712h144l51 -259c21 -108 39 -211 52 -308h2c18 101 40 203 65 308l62 259h186l62 -259c25 -105 47 -207 65 -308h2c13 97 31 200 52 308l51 259h144zM287 760
l114 146h149l114 -146h-128l-61 76l-60 -76h-128z" />
    <glyph glyph-name="wcircumflex" unicode="&#x175;" horiz-adv-x="810" 
d="M693 0h-200l-45 200c-15 69 -29 142 -42 217h-2c-13 -75 -27 -148 -42 -217l-45 -200h-200l-112 508h139l38 -196c16 -82 28 -156 37 -221h2c12 75 26 148 43 219l45 198h192l45 -198c17 -71 31 -144 43 -219h2c9 65 21 139 37 221l38 196h139zM216 566l114 146h149
l114 -146h-128l-60 76l-61 -76h-128z" />
    <glyph glyph-name="Ycircumflex" unicode="&#x176;" horiz-adv-x="638" 
d="M635 712l-243 -435v-277h-147v277l-243 435h165l68 -134c30 -59 58 -120 83 -181h2c25 61 53 122 83 181l68 134h164zM130 760l114 146h149l114 -146h-128l-61 76l-60 -76h-128z" />
    <glyph glyph-name="ycircumflex" unicode="&#x177;" horiz-adv-x="504" 
d="M511 508l-182 -511c-52 -143 -113 -188 -242 -188c-26 0 -50 3 -73 8v112c15 -5 33 -8 54 -8c56 0 93 33 93 82c0 19 -4 36 -24 92l-144 413h150l52 -170c21 -71 40 -142 56 -213h2c20 82 40 153 59 213l55 170h144zM63 566l114 146h149l114 -146h-128l-60 76l-61 -76
h-128z" />
    <glyph glyph-name="Ydieresis" unicode="&#x178;" horiz-adv-x="638" 
d="M167 712l68 -134c30 -59 58 -120 83 -181h2c25 61 53 122 83 181l68 134h164l-243 -435v-277h-147v277l-243 435h165zM149 769v120h123v-120h-123zM489 769h-123v120h123v-120z" />
    <glyph glyph-name="Zacute" unicode="&#x179;" horiz-adv-x="582" 
d="M20 129l350 457v2h-334v124h509v-129l-350 -457v-2h367v-124h-542v129zM283 906h173l-140 -146h-110z" />
    <glyph glyph-name="zacute" unicode="&#x17a;" horiz-adv-x="484" 
d="M28 114l249 282v2h-239v110h408v-114l-249 -282v-2h259v-110h-428v114zM227 712h173l-140 -146h-110z" />
    <glyph glyph-name="Zdotaccent" unicode="&#x17b;" horiz-adv-x="582" 
d="M20 129l350 457v2h-334v124h509v-129l-350 -457v-2h367v-124h-542v129zM361 889v-120h-140v120h140z" />
    <glyph glyph-name="zdotaccent" unicode="&#x17c;" horiz-adv-x="484" 
d="M28 114l249 282v2h-239v110h408v-114l-249 -282v-2h259v-110h-428v114zM305 712v-120h-140v120h140z" />
    <glyph glyph-name="Zcaron" unicode="&#x17d;" horiz-adv-x="582" 
d="M562 0h-542v129l350 457v2h-334v124h509v-129l-350 -457v-2h367v-124zM102 906h128l61 -76l60 76h128l-114 -146h-149z" />
    <glyph glyph-name="zcaron" unicode="&#x17e;" horiz-adv-x="484" 
d="M456 0h-428v114l249 282v2h-239v110h408v-114l-249 -282v-2h259v-110zM174 712l61 -76l60 76h128l-114 -146h-149l-114 146h128z" />
    <glyph glyph-name="longs" unicode="&#x17f;" horiz-adv-x="341" 
d="M10 508h84v46c0 111 59 166 168 166c23 0 46 -3 69 -8v-99c-6 2 -14 3 -25 3c-51 0 -74 -23 -74 -79v-537h-138v404h-84v104z" />
    <glyph glyph-name="uni018F" unicode="&#x18f;" horiz-adv-x="764" 
d="M685 166c-56 -113 -166 -182 -307 -182c-209 0 -341 145 -341 371c0 22 1 39 3 51h534c-8 132 -91 195 -204 195c-87 0 -144 -43 -157 -106h-157c30 129 137 233 316 233c218 2 357 -148 355 -371c0 -71 -14 -134 -42 -191zM254 158c34 -29 75 -44 124 -44
c103 0 174 61 191 170h-378c8 -55 29 -97 63 -126z" />
    <glyph glyph-name="florin" unicode="&#x192;" 
d="M579 606c-14 4 -31 6 -50 6c-55 0 -83 -24 -100 -92l-13 -52h110v-104h-135l-91 -358c-18 -72 -43 -123 -75 -153c-32 -29 -78 -44 -137 -44c-27 0 -49 3 -67 8v108c14 -4 30 -6 49 -6c26 0 46 7 59 20s25 39 35 78l88 347h-101v104h126l16 63c35 135 95 192 206 192
c29 0 55 -3 80 -10v-107z" />
    <glyph glyph-name="Aringacute" unicode="&#x1fa;" horiz-adv-x="698" 
d="M695 0h-154l-55 174h-273l-56 -174h-154l247 712h198zM241 841c0 30 11 56 32 77s46 31 76 31s56 -10 77 -31s31 -47 31 -77s-10 -55 -31 -76s-47 -32 -77 -32s-55 11 -76 32s-32 46 -32 76zM446 300l-15 47c-33 104 -60 197 -81 278h-2c-25 -93 -51 -186 -80 -278
l-15 -47h193zM264 970l77 146h173l-140 -146h-110zM295 841c0 -29 25 -54 54 -54c31 0 54 25 54 54c0 31 -23 54 -54 54c-29 0 -54 -23 -54 -54z" />
    <glyph glyph-name="aringacute" unicode="&#x1fb;" horiz-adv-x="547" 
d="M267 426c-52 0 -81 -29 -84 -77h-136c5 103 81 175 220 175c144 0 218 -68 218 -201v-184c0 -57 5 -104 14 -139h-126c-5 19 -7 42 -7 68h-2c-37 -53 -92 -80 -165 -80c-53 0 -95 15 -126 44s-47 65 -47 110c0 87 56 139 197 162c43 7 85 11 127 14v18
c0 61 -31 90 -83 90zM338 577c-21 -21 -47 -32 -77 -32s-55 11 -76 32s-32 46 -32 76s11 56 32 77s46 31 76 31s56 -10 77 -31s31 -47 31 -77s-10 -55 -31 -76zM321 117c23 23 29 48 29 97v19c-40 -3 -74 -6 -102 -11c-59 -11 -82 -30 -82 -70c0 -39 27 -64 75 -64
c31 0 61 10 80 29zM286 782h-110l77 146h173zM315 653c0 31 -23 54 -54 54c-29 0 -54 -23 -54 -54c0 -29 25 -54 54 -54c31 0 54 25 54 54z" />
    <glyph glyph-name="AEacute" unicode="&#x1fc;" horiz-adv-x="965" 
d="M915 0h-398l-26 179h-254l-77 -179h-166l332 712h580v-126h-332l23 -161h286v-125h-268l25 -174h275v-126zM473 303l-42 292h-14l-126 -292h182zM433 760l77 146h173l-140 -146h-110z" />
    <glyph glyph-name="aeacute" unicode="&#x1fd;" horiz-adv-x="880" 
d="M490 225c4 -99 47 -142 110 -142c52 0 88 28 95 71h143c-20 -95 -109 -170 -238 -170c-80 0 -144 32 -185 89c-40 -59 -109 -89 -192 -89c-121 0 -197 68 -197 158c0 107 76 166 256 166h78v28c0 63 -29 90 -88 90c-55 0 -85 -29 -88 -77h-136c5 103 83 175 224 175
c77 0 133 -20 168 -60c42 40 95 60 159 60c113 0 199 -65 231 -169c10 -35 15 -78 15 -130h-355zM166 152c0 -41 30 -68 79 -68c32 0 64 11 84 31c24 24 31 50 31 99v11h-63c-96 0 -131 -24 -131 -73zM461 566h-110l77 146h173zM705 308c-7 77 -49 117 -106 117
c-59 0 -98 -40 -107 -117h213z" />
    <glyph glyph-name="Oslashacute" unicode="&#x1fe;" horiz-adv-x="748" 
d="M711 356c0 -230 -128 -372 -337 -372c-74 0 -137 17 -190 51l-59 -78l-62 48l61 82c-58 66 -87 156 -87 269c0 230 128 372 337 372c74 0 138 -17 191 -52l59 79l61 -48l-61 -82c56 -64 87 -157 87 -269zM374 106c119 0 191 95 191 250c0 59 -10 109 -31 150l-271 -364
c31 -24 68 -36 111 -36zM213 206l272 363c-31 25 -68 37 -111 37c-119 0 -191 -95 -191 -250c0 -58 10 -108 30 -150zM289 760l77 146h173l-140 -146h-110z" />
    <glyph glyph-name="oslashacute" unicode="&#x1ff;" horiz-adv-x="590" 
d="M523 111c-43 -81 -123 -127 -228 -127c-52 0 -98 11 -137 33l-51 -69l-53 39l52 69c-45 48 -71 117 -71 198c0 165 102 270 260 270c52 0 98 -11 138 -33l52 69l52 -41l-52 -69c47 -49 70 -114 70 -196c0 -55 -11 -102 -32 -143zM174 254c0 -35 5 -64 15 -88l174 232
c-19 16 -42 24 -68 24c-73 0 -121 -65 -121 -168zM295 86c75 0 121 65 121 168c0 33 -5 61 -14 86l-174 -231c19 -15 41 -23 67 -23zM210 566l77 146h173l-140 -146h-110z" />
    <glyph glyph-name="Scommaaccent" unicode="&#x218;" horiz-adv-x="630" 
d="M422 494c0 75 -44 117 -124 117c-65 0 -109 -31 -109 -78c4 -55 34 -70 155 -101c55 -14 100 -28 134 -42c34 -15 62 -36 84 -65c21 -29 32 -67 32 -116c0 -135 -113 -225 -278 -225c-180 0 -288 90 -288 250h152c0 -87 47 -131 138 -131c75 0 123 35 123 91
c0 40 -21 62 -58 75c-19 7 -48 15 -89 26c-58 15 -104 29 -138 43s-62 35 -84 64c-23 28 -34 66 -34 115c0 125 107 211 263 211c177 0 270 -81 270 -234h-149zM246 -270l45 107h-45v104h124v-104l-68 -107h-56z" />
    <glyph glyph-name="scommaaccent" unicode="&#x219;" horiz-adv-x="524" 
d="M328 168c-16 16 -38 23 -105 40c-40 11 -71 21 -93 30c-23 9 -42 23 -58 44c-17 21 -25 49 -25 86c0 91 86 156 210 156c135 0 213 -60 213 -172h-134c0 49 -27 74 -80 74c-44 0 -69 -18 -69 -47c5 -38 22 -41 109 -65c43 -11 76 -22 101 -32s46 -26 64 -48
c17 -22 26 -52 26 -91c0 -48 -20 -86 -60 -115c-41 -30 -95 -44 -164 -44c-144 0 -228 61 -228 181h142c0 -51 32 -80 89 -80c48 0 74 18 74 49c0 14 -4 25 -12 34zM199 -59h124v-104l-68 -107h-56l45 107h-45v104z" />
    <glyph glyph-name="uni021A" unicode="&#x21a;" horiz-adv-x="615" 
d="M10 586v126h595v-126h-224v-586h-147v586h-224zM246 -163v104h124v-104l-68 -107h-56l45 107h-45z" />
    <glyph glyph-name="uni021B" unicode="&#x21b;" horiz-adv-x="357" 
d="M332 3c-21 -7 -46 -10 -74 -10c-117 0 -168 48 -168 165v246h-82v104h82v132h140v-132h97v-104h-97v-221c0 -56 18 -78 66 -78c14 0 26 2 36 5v-107zM261 -59v-104l-68 -107h-56l45 107h-45v104h124z" />
    <glyph glyph-name="uni0237" unicode="&#x237;" horiz-adv-x="278" 
d="M-5 -84c52 0 75 23 75 94v498h140v-519c0 -123 -66 -179 -173 -179c-25 0 -48 3 -69 8v101c8 -2 17 -3 27 -3z" />
    <glyph glyph-name="uni0259" unicode="&#x259;" horiz-adv-x="573" 
d="M508 116c-40 -81 -119 -132 -222 -132c-153 0 -251 105 -251 270c0 12 1 23 2 34h363c-4 95 -51 137 -119 137c-49 0 -83 -27 -90 -66h-143c11 47 37 87 78 118s92 47 155 47c161 0 257 -110 257 -270c0 -51 -10 -97 -30 -138zM175 200c8 -77 51 -117 111 -117
c59 0 100 40 111 117h-222z" />
    <glyph glyph-name="afii57929" unicode="&#x2bc;" horiz-adv-x="254" 
d="M105 570h-44v142h131v-142l-63 -146h-71z" />
    <glyph glyph-name="circumflex" unicode="&#x2c6;" horiz-adv-x="477" 
d="M50 566l114 146h149l114 -146h-128l-60 76l-61 -76h-128z" />
    <glyph glyph-name="caron" unicode="&#x2c7;" horiz-adv-x="477" 
d="M178 712l61 -76l60 76h128l-114 -146h-149l-114 146h128z" />
    <glyph glyph-name="uni02C9" unicode="&#x2c9;" horiz-adv-x="426" 
d="M376 689v-91h-326v91h326z" />
    <glyph glyph-name="breve" unicode="&#x2d8;" horiz-adv-x="450" 
d="M50 712h95c3 -40 33 -64 80 -64s77 24 80 64h95c-5 -96 -71 -151 -175 -151s-170 55 -175 151z" />
    <glyph glyph-name="dotaccent" unicode="&#x2d9;" horiz-adv-x="240" 
d="M190 712v-120h-140v120h140z" />
    <glyph glyph-name="ring" unicode="&#x2da;" horiz-adv-x="316" 
d="M82 588c-21 21 -32 46 -32 76s11 56 32 77s46 31 76 31s56 -10 77 -31s31 -47 31 -77s-10 -55 -31 -76s-47 -32 -77 -32s-55 11 -76 32zM104 664c0 -29 25 -54 54 -54c31 0 54 25 54 54c0 31 -23 54 -54 54c-29 0 -54 -23 -54 -54z" />
    <glyph glyph-name="ogonek" unicode="&#x2db;" horiz-adv-x="291" 
d="M69 -53c13 17 32 35 59 53h110c-51 -35 -68 -60 -68 -88c0 -21 12 -31 35 -31c14 0 26 2 36 6v-71c-22 -9 -48 -13 -78 -13c-75 0 -113 32 -113 87c0 21 6 40 19 57z" />
    <glyph glyph-name="tilde" unicode="&#x2dc;" horiz-adv-x="476" 
d="M392 613c-21 -24 -49 -36 -84 -36c-32 0 -53 10 -82 27c-24 13 -35 19 -52 19c-28 0 -42 -14 -46 -46h-78c4 84 47 135 118 135c32 0 54 -10 83 -27c21 -12 35 -19 51 -19c28 0 42 14 46 46h78c-2 -42 -13 -75 -34 -99z" />
    <glyph glyph-name="hungarumlaut" unicode="&#x2dd;" horiz-adv-x="540" 
d="M337 712h153l-140 -146h-110zM50 566l97 146h153l-140 -146h-110z" />
    <glyph glyph-name="uni0312" unicode="&#x312;" horiz-adv-x="0" 
d="M50 681l68 107h56l-45 -107h45v-104h-124v104z" />
    <glyph glyph-name="uni0326" unicode="&#x326;" horiz-adv-x="0" 
d="M50 -163v104h124v-104l-68 -107h-56l45 107h-45z" />
    <glyph glyph-name="uni0333" unicode="&#x333;" horiz-adv-x="0" 
d="M-500 -266v71h500v-71h-500zM-500 -121v71h500v-71h-500z" />
    <glyph glyph-name="uni0374" unicode="&#x374;" horiz-adv-x="215" 
d="M30 508l30 204h125l-67 -204h-88z" />
    <glyph glyph-name="uni0375" unicode="&#x375;" horiz-adv-x="215" 
d="M30 -92l30 204h125l-67 -204h-88z" />
    <glyph glyph-name="uni037E" unicode="&#x37e;" horiz-adv-x="258" 
d="M103 0h-51v167h154v-167l-74 -172h-84zM52 341v167h154v-167h-154z" />
    <glyph glyph-name="tonos" unicode="&#x384;" horiz-adv-x="272" 
d="M50 568l35 164h137l-68 -164h-104z" />
    <glyph glyph-name="dieresistonos" unicode="&#x385;" horiz-adv-x="540" 
d="M233 724h116l-54 -156h-95zM377 697h113v-117h-113v117zM163 697v-117h-113v117h113z" />
    <glyph glyph-name="Alphatonos" unicode="&#x386;" horiz-adv-x="698" 
d="M541 0l-55 174h-273l-56 -174h-154l247 712h198l247 -712h-154zM446 300l-15 47c-33 104 -60 197 -81 278h-2c-25 -93 -51 -186 -80 -278l-15 -47h193zM3 508l35 204h137l-68 -204h-104z" />
    <glyph glyph-name="anoteleia" unicode="&#x387;" horiz-adv-x="258" 
d="M206 508v-167h-154v167h154z" />
    <glyph glyph-name="Epsilontonos" unicode="&#x388;" horiz-adv-x="633" 
d="M574 712v-126h-345v-161h322v-125h-322v-174h354v-126h-501v712h492zM39 712l-68 -204h-104l35 204h137z" />
    <glyph glyph-name="Etatonos" unicode="&#x389;" horiz-adv-x="750" 
d="M82 712h147v-279h292v279h147v-712h-147v307h-292v-307h-147v712zM39 712l-68 -204h-104l35 204h137z" />
    <glyph glyph-name="Iotatonos" unicode="&#x38a;" horiz-adv-x="311" 
d="M82 0v712h147v-712h-147zM-133 508l35 204h137l-68 -204h-104z" />
    <glyph glyph-name="Omicrontonos" unicode="&#x38c;" horiz-adv-x="748" 
d="M711 356c0 -230 -128 -372 -337 -372s-337 142 -337 372s128 372 337 372s337 -142 337 -372zM189 356c0 -151 70 -242 185 -242s185 91 185 242s-70 242 -185 242s-185 -91 -185 -242zM-55 712h137l-68 -204h-104z" />
    <glyph glyph-name="Upsilontonos" unicode="&#x38e;" horiz-adv-x="638" 
d="M2 712h165l68 -134c30 -59 58 -120 83 -181h2c25 61 53 122 83 181l68 134h164l-243 -435v-277h-147v277zM-19 712l-68 -204h-104l35 204h137z" />
    <glyph glyph-name="Omegatonos" unicode="&#x38f;" horiz-adv-x="734" 
d="M703 0h-286v130c79 80 123 155 123 262c0 133 -68 206 -173 206s-173 -73 -173 -206c0 -107 44 -182 123 -262v-130h-286v124h150v2c-88 88 -139 172 -139 288c0 103 30 181 89 234s137 80 236 80s178 -27 237 -80s88 -131 88 -234c0 -116 -51 -200 -139 -288v-2h150
v-124zM-99 508l35 204h137l-68 -204h-104z" />
    <glyph glyph-name="iotadieresistonos" unicode="&#x390;" horiz-adv-x="316" 
d="M63 508h140v-305c0 -71 18 -98 66 -98c14 0 26 2 36 5v-108c-20 -6 -45 -9 -74 -9c-117 0 -168 54 -168 185v330zM63 568l33 156h116l-54 -156h-95zM-87 580v117h113v-117h-113zM353 580h-113v117h113v-117z" />
    <glyph glyph-name="Alpha" unicode="&#x391;" horiz-adv-x="698" 
d="M250 712h198l247 -712h-154l-55 174h-273l-56 -174h-154zM253 300h193l-15 47c-33 104 -60 197 -81 278h-2c-25 -93 -51 -186 -80 -278z" />
    <glyph glyph-name="Beta" unicode="&#x392;" horiz-adv-x="650" 
d="M614 195c0 -120 -95 -195 -254 -195h-278v712h256c172 0 259 -70 259 -183c0 -81 -40 -135 -124 -166v-2c97 -21 141 -74 141 -166zM229 303v-182h109c89 0 127 28 127 89c0 65 -38 93 -131 93h-105zM333 419c85 0 123 27 123 88c0 59 -35 85 -116 85h-111v-173h104z" />
    <glyph glyph-name="Gamma" unicode="&#x393;" horiz-adv-x="508" 
d="M82 712h416v-126h-269v-586h-147v712z" />
    <glyph glyph-name="Delta" unicode="&#x394;" horiz-adv-x="698" 
d="M252 712h198l245 -712h-692zM499 126l-70 221c-29 92 -55 185 -80 278h-2c-21 -81 -48 -174 -81 -278l-71 -221h304z" />
    <glyph glyph-name="Epsilon" unicode="&#x395;" horiz-adv-x="633" 
d="M82 712h492v-126h-345v-161h322v-125h-322v-174h354v-126h-501v712z" />
    <glyph glyph-name="Zeta" unicode="&#x396;" horiz-adv-x="582" 
d="M20 129l350 457v2h-334v124h509v-129l-350 -457v-2h367v-124h-542v129z" />
    <glyph glyph-name="Eta" unicode="&#x397;" horiz-adv-x="750" 
d="M229 712v-279h292v279h147v-712h-147v307h-292v-307h-147v712h147z" />
    <glyph glyph-name="Theta" unicode="&#x398;" horiz-adv-x="748" 
d="M671 158c-55 -112 -158 -174 -297 -174c-209 0 -337 142 -337 373c0 228 128 371 337 371s337 -143 337 -371c0 -77 -13 -143 -40 -199zM234 176c34 -44 81 -66 140 -66c119 0 191 94 191 247s-72 247 -191 247s-191 -94 -191 -247c0 -77 17 -137 51 -181zM507 413v-113
h-266v113h266z" />
    <glyph glyph-name="Iota" unicode="&#x399;" horiz-adv-x="311" 
d="M229 712v-712h-147v712h147z" />
    <glyph glyph-name="Kappa" unicode="&#x39a;" horiz-adv-x="663" 
d="M82 0v712h147v-313h2l233 313h172l-271 -338l294 -374h-187l-241 336h-2v-336h-147z" />
    <glyph glyph-name="Lambda" unicode="&#x39b;" horiz-adv-x="684" 
d="M242 712h200l239 -712h-159l-104 342c-27 86 -52 178 -75 275h-2c-23 -97 -48 -189 -75 -275l-104 -342h-159z" />
    <glyph glyph-name="Mu" unicode="&#x39c;" horiz-adv-x="984" 
d="M902 0h-141v354c0 89 2 178 6 267h-2c-22 -84 -47 -171 -76 -262l-113 -359h-168l-113 359c-29 91 -54 178 -76 262h-2c4 -89 6 -178 6 -267v-354h-141v712h236l103 -327c28 -89 51 -177 70 -262h2c19 85 42 173 70 262l103 327h236v-712z" />
    <glyph glyph-name="Nu" unicode="&#x39d;" horiz-adv-x="776" 
d="M82 0v712h209l138 -289c51 -107 94 -205 130 -294h2c-5 110 -8 213 -8 309v274h141v-712h-209l-138 289c-51 107 -94 205 -130 294h-2c5 -110 8 -213 8 -309v-274h-141z" />
    <glyph glyph-name="Xi" unicode="&#x39e;" horiz-adv-x="675" 
d="M50 0v147h575v-147h-575zM64 712h547v-147h-547v147zM81 285v147h513v-147h-513z" />
    <glyph glyph-name="Omicron" unicode="&#x39f;" horiz-adv-x="748" 
d="M711 356c0 -230 -128 -372 -337 -372s-337 142 -337 372s128 372 337 372s337 -142 337 -372zM189 356c0 -151 70 -242 185 -242s185 91 185 242s-70 242 -185 242s-185 -91 -185 -242z" />
    <glyph glyph-name="Pi" unicode="&#x3a0;" horiz-adv-x="739" 
d="M82 712h575v-712h-146v586h-282v-586h-147v712z" />
    <glyph glyph-name="Rho" unicode="&#x3a1;" horiz-adv-x="636" 
d="M351 712c169 0 261 -89 261 -230s-92 -230 -261 -230h-122v-252h-147v712h269zM331 374c87 0 131 36 131 108s-44 108 -131 108h-102v-216h102z" />
    <glyph glyph-name="Sigma" unicode="&#x3a3;" horiz-adv-x="585" 
d="M23 0v129l181 233l-170 226v124h517v-124h-339v-2l168 -224l-183 -236v-2h368v-124h-542z" />
    <glyph glyph-name="Tau" unicode="&#x3a4;" horiz-adv-x="615" 
d="M10 712h595v-126h-224v-586h-147v586h-224v126z" />
    <glyph glyph-name="Upsilon" unicode="&#x3a5;" horiz-adv-x="638" 
d="M2 712h165l68 -134c30 -59 58 -120 83 -181h2c25 61 53 122 83 181l68 134h164l-243 -435v-277h-147v277z" />
    <glyph glyph-name="Phi" unicode="&#x3a6;" horiz-adv-x="833" 
d="M715 135c-54 -53 -130 -83 -228 -90v-75h-141v75c-196 15 -309 123 -309 319c0 192 113 296 309 309v69h141v-69c196 -13 309 -119 309 -314c0 -97 -27 -171 -81 -224zM187 364c0 -123 56 -190 159 -198v386c-103 -8 -159 -71 -159 -188zM487 166c101 8 159 74 159 193
c0 120 -58 185 -159 193v-386z" />
    <glyph glyph-name="Chi" unicode="&#x3a7;" horiz-adv-x="630" 
d="M226 362l-212 350h168l132 -246h2l132 246h168l-212 -350l223 -362h-171l-140 252h-2l-140 -252h-171z" />
    <glyph glyph-name="Psi" unicode="&#x3a8;" horiz-adv-x="841" 
d="M801 484c0 -208 -96 -306 -307 -321v-163h-147v163c-211 15 -307 113 -307 321v228h147v-224c0 -132 44 -189 160 -198v422h147v-422c116 9 160 66 160 198v224h147v-228z" />
    <glyph glyph-name="Omega" unicode="&#x3a9;" horiz-adv-x="734" 
d="M703 0h-286v130c79 80 123 155 123 262c0 133 -68 206 -173 206s-173 -73 -173 -206c0 -107 44 -182 123 -262v-130h-286v124h150v2c-88 88 -139 172 -139 288c0 103 30 181 89 234s137 80 236 80s178 -27 237 -80s88 -131 88 -234c0 -116 -51 -200 -139 -288v-2h150
v-124z" />
    <glyph glyph-name="Iotadieresis" unicode="&#x3aa;" horiz-adv-x="311" 
d="M82 712h147v-712h-147v712zM203 916h123v-120h-123v120zM-14 916h123v-120h-123v120z" />
    <glyph glyph-name="Upsilondieresis" unicode="&#x3ab;" horiz-adv-x="638" 
d="M167 712l68 -134c30 -59 58 -120 83 -181h2c25 61 53 122 83 181l68 134h164l-243 -435v-277h-147v277l-243 435h165zM149 769v120h123v-120h-123zM489 769h-123v120h123v-120z" />
    <glyph glyph-name="alphatonos" unicode="&#x3ac;" horiz-adv-x="613" 
d="M574 101c8 0 16 1 24 3v-100c-24 -8 -52 -12 -85 -12c-65 0 -103 26 -115 79h-2c-31 -53 -89 -84 -152 -84c-127 0 -209 106 -209 267s84 267 211 267c61 0 116 -30 148 -83h2c1 25 4 48 8 70h136c-7 -48 -10 -108 -10 -180v-160c0 -51 13 -67 44 -67zM181 254
c0 -97 43 -160 110 -160c64 0 106 60 106 160s-42 160 -106 160c-67 0 -110 -63 -110 -160zM269 732h137l-68 -164h-104z" />
    <glyph glyph-name="epsilontonos" unicode="&#x3ad;" horiz-adv-x="518" 
d="M427 31c-40 -31 -98 -47 -173 -47c-133 0 -218 57 -218 153c0 65 31 104 103 125v2c-64 23 -91 57 -91 113c0 92 80 147 205 147c140 0 224 -66 224 -179h-139c0 49 -30 76 -82 76c-44 0 -72 -21 -72 -56c0 -37 32 -60 84 -60h50v-101h-50c-63 0 -94 -20 -94 -61
c0 -35 32 -56 80 -56c62 0 93 27 93 80h140c0 -60 -20 -105 -60 -136zM233 732h137l-68 -164h-104z" />
    <glyph glyph-name="etatonos" unicode="&#x3ae;" horiz-adv-x="616" 
d="M553 -185h-140v479c0 77 -31 118 -88 118c-60 0 -101 -51 -101 -138v-274h-140v337c0 55 -13 74 -44 74c-10 0 -18 -1 -25 -3v95c28 9 55 13 81 13c64 0 99 -27 112 -92h2c33 61 92 97 163 97c113 0 180 -73 180 -210v-496zM219 568l35 164h137l-68 -164h-104z" />
    <glyph glyph-name="iotatonos" unicode="&#x3af;" horiz-adv-x="316" 
d="M63 178v330h140v-305c0 -71 18 -98 66 -98c14 0 26 2 36 5v-108c-20 -6 -45 -9 -74 -9c-117 0 -168 54 -168 185zM115 732h137l-68 -164h-104z" />
    <glyph glyph-name="upsilondieresistonos" unicode="&#x3b0;" horiz-adv-x="602" 
d="M553 250c0 -172 -79 -266 -242 -266c-152 0 -229 61 -229 197v146c0 61 -12 80 -44 80c-9 0 -18 -1 -25 -3v99c28 9 55 13 81 13c88 0 129 -41 129 -156v-167c0 -71 29 -100 86 -100c70 0 105 56 105 168c0 91 -12 173 -35 247h136c25 -77 38 -163 38 -258zM219 568
l33 156h116l-54 -156h-95zM396 697h113v-117h-113v117zM69 697h113v-117h-113v117z" />
    <glyph glyph-name="alpha" unicode="&#x3b1;" horiz-adv-x="613" 
d="M598 4c-24 -8 -52 -12 -85 -12c-65 0 -103 26 -115 79h-2c-31 -53 -89 -84 -152 -84c-127 0 -209 106 -209 267s84 267 211 267c61 0 116 -30 148 -83h2c1 25 4 48 8 70h136c-7 -48 -10 -108 -10 -180v-160c0 -51 13 -67 44 -67c8 0 16 1 24 3v-100zM211 138
c20 -29 47 -44 80 -44c64 0 106 60 106 160s-42 160 -106 160c-67 0 -110 -63 -110 -160c0 -49 10 -87 30 -116z" />
    <glyph glyph-name="beta" unicode="&#x3b2;" horiz-adv-x="606" 
d="M513 45c-41 -37 -96 -55 -166 -55c-64 0 -112 20 -137 56h-2v-231h-140l1 666c0 157 86 247 238 247c71 0 127 -16 168 -49s62 -77 62 -132c0 -85 -43 -139 -128 -162v-2c109 -23 164 -85 164 -188c0 -63 -20 -113 -60 -150zM208 485v-291c0 -63 35 -100 106 -100
c72 0 116 43 116 115c0 79 -50 116 -149 116h-14v109h14c81 0 124 35 124 99c0 57 -34 91 -94 91c-72 0 -103 -43 -103 -139z" />
    <glyph glyph-name="gamma" unicode="&#x3b3;" horiz-adv-x="556" 
d="M484 251c-31 -76 -78 -158 -140 -245v-12c0 -46 -5 -133 -11 -179h-140c6 46 11 133 11 179c0 45 -7 99 -22 162s-36 121 -63 174c-31 63 -55 81 -88 81c-6 0 -14 -1 -23 -2v97c23 7 48 11 73 11c67 0 106 -28 147 -116c35 -75 59 -166 70 -243h2c59 115 90 219 101 350
h145c-10 -95 -31 -181 -62 -257z" />
    <glyph glyph-name="delta" unicode="&#x3b4;" horiz-adv-x="590" 
d="M523 100c-43 -75 -124 -116 -228 -116c-156 0 -260 95 -260 245c0 113 64 195 179 234v2c-79 51 -112 87 -112 140c0 78 63 117 189 117c75 0 145 -9 208 -26v-115c-61 25 -131 39 -190 39c-45 0 -59 -9 -59 -28c0 -23 28 -40 112 -84c127 -65 193 -149 193 -278
c0 -50 -11 -93 -32 -130zM213 129c21 -25 48 -38 82 -38c68 0 113 54 113 141c0 79 -39 135 -116 170c-69 -28 -110 -86 -110 -173c0 -42 10 -75 31 -100z" />
    <glyph glyph-name="epsilon" unicode="&#x3b5;" horiz-adv-x="518" 
d="M427 31c-40 -31 -98 -47 -173 -47c-133 0 -218 57 -218 153c0 65 31 104 103 125v2c-64 23 -91 57 -91 113c0 92 80 147 205 147c140 0 224 -66 224 -179h-139c0 49 -30 76 -82 76c-44 0 -72 -21 -72 -56c0 -37 32 -60 84 -60h50v-101h-50c-63 0 -94 -20 -94 -61
c0 -35 32 -56 80 -56c62 0 93 27 93 80h140c0 -60 -20 -105 -60 -136z" />
    <glyph glyph-name="zeta" unicode="&#x3b6;" horiz-adv-x="482" 
d="M462 611c-187 -106 -281 -230 -281 -371c0 -79 40 -116 153 -133c101 -16 134 -62 134 -145c0 -37 -9 -73 -28 -107h-111c11 23 16 47 16 71c0 45 -21 69 -100 78c-77 9 -131 30 -162 63c-32 32 -48 79 -48 142c0 156 100 296 264 400v2h-238v101h401v-101z" />
    <glyph glyph-name="eta" unicode="&#x3b7;" horiz-adv-x="616" 
d="M553 -185h-140v479c0 77 -31 118 -88 118c-60 0 -101 -51 -101 -138v-274h-140v337c0 55 -13 74 -44 74c-10 0 -18 -1 -25 -3v95c28 9 55 13 81 13c64 0 99 -27 112 -92h2c33 61 92 97 163 97c113 0 180 -73 180 -210v-496z" />
    <glyph glyph-name="theta" unicode="&#x3b8;" horiz-adv-x="623" 
d="M587 356c0 -236 -99 -370 -276 -370c-176 0 -275 134 -275 370s99 370 275 370c177 0 276 -134 276 -370zM219 145c23 -38 53 -57 92 -57c76 0 123 78 131 219h-263c4 -71 17 -125 40 -162zM442 405c-8 141 -55 219 -131 219c-77 0 -124 -78 -132 -219h263z" />
    <glyph glyph-name="iota" unicode="&#x3b9;" horiz-adv-x="316" 
d="M203 508v-305c0 -71 18 -98 66 -98c14 0 26 2 36 5v-108c-20 -6 -45 -9 -74 -9c-117 0 -168 54 -168 185v330h140z" />
    <glyph glyph-name="kappa" unicode="&#x3ba;" horiz-adv-x="560" 
d="M548 393c-10 3 -21 5 -33 5c-57 0 -106 -33 -183 -118l241 -280h-168l-158 183l-43 -48v-135h-140v508h140v-217h2l90 105c39 45 73 77 103 94c29 17 63 25 101 25c16 0 32 -2 48 -7v-115z" />
    <glyph glyph-name="lambda" unicode="&#x3bb;" horiz-adv-x="597" 
d="M590 0c-17 -5 -37 -8 -58 -8c-82 0 -123 28 -163 146c-18 49 -44 123 -79 223h-1c-26 -68 -54 -137 -83 -208l-63 -153h-150l227 503c-29 83 -56 109 -104 109c-19 0 -35 -3 -49 -8v104c21 9 49 13 83 13c109 -2 156 -40 220 -207l119 -315c31 -81 54 -102 87 -102
c4 0 9 1 14 2v-99z" />
    <glyph glyph-name="mu" unicode="&#x3bc;" horiz-adv-x="613" 
d="M603 4c-24 -8 -52 -12 -85 -12c-62 0 -99 27 -111 81h-2c-19 -49 -65 -79 -121 -79c-33 0 -58 7 -76 21v-200h-140v693h140v-298c0 -75 31 -112 87 -112c60 0 100 49 100 138v272h140v-340c0 -51 13 -67 44 -67c8 0 16 1 24 3v-100z" />
    <glyph glyph-name="nu" unicode="&#x3bd;" horiz-adv-x="542" 
d="M526 461c0 -38 -4 -76 -13 -113s-24 -82 -46 -135s-55 -124 -98 -213h-186l-92 323c-19 68 -35 88 -66 88c-8 0 -14 -1 -19 -3v95c19 9 42 13 69 13c76 0 123 -45 147 -153l58 -257h2c39 89 67 161 82 214s22 103 22 149c0 14 -1 27 -3 39h138c3 -13 5 -29 5 -47z" />
    <glyph glyph-name="xi" unicode="&#x3be;" horiz-adv-x="487" 
d="M472 611h-97c-111 0 -168 -38 -168 -109c0 -56 48 -86 123 -86h103v-100h-91c-109 0 -161 -42 -161 -109c0 -30 12 -52 35 -67s65 -27 125 -34c101 -13 134 -60 134 -144c0 -37 -9 -73 -28 -107h-111c11 25 17 48 17 71c0 47 -27 72 -119 81c-137 13 -199 72 -199 175
c0 96 51 156 152 181v2c-68 19 -106 62 -106 127c0 61 27 100 80 117v2h-104v101h415v-101z" />
    <glyph glyph-name="omicron" unicode="&#x3bf;" horiz-adv-x="590" 
d="M555 254c0 -165 -102 -270 -260 -270s-260 105 -260 270s102 270 260 270s260 -105 260 -270zM182 254c0 -99 44 -162 113 -162s113 63 113 162s-44 162 -113 162s-113 -63 -113 -162z" />
    <glyph glyph-name="pi" unicode="&#x3c0;" horiz-adv-x="672" 
d="M654 404h-100v-231c0 -57 18 -76 57 -76c13 0 22 1 28 4v-99c-22 -7 -49 -10 -80 -10c-99 0 -145 45 -145 162v250h-172v-404h-140v404h-93v104h645v-104z" />
    <glyph glyph-name="rho" unicode="&#x3c1;" horiz-adv-x="602" 
d="M538 111c-39 -79 -112 -123 -209 -123c-56 0 -101 19 -124 51h-2v-224h-140v439c0 165 98 270 249 270c156 0 255 -107 255 -276c0 -53 -10 -98 -29 -137zM225 138c19 -29 46 -43 79 -43c73 0 116 60 116 159c0 100 -43 161 -116 161c-67 0 -109 -62 -109 -161
c0 -49 10 -87 30 -116z" />
    <glyph glyph-name="sigma1" unicode="&#x3c2;" horiz-adv-x="552" 
d="M531 307h-145c-5 68 -42 110 -102 110c-67 0 -106 -52 -106 -141c0 -91 50 -140 162 -156c109 -16 145 -66 145 -158c0 -37 -9 -73 -28 -107h-112c11 23 17 46 17 71c0 52 -26 77 -119 88c-141 15 -212 99 -212 248c0 82 23 146 68 193c45 46 106 69 185 69
c152 0 238 -84 247 -217z" />
    <glyph glyph-name="sigma" unicode="&#x3c3;" horiz-adv-x="620" 
d="M610 407h-130v-2c47 -35 72 -92 72 -165c0 -157 -101 -256 -257 -256c-158 0 -260 102 -260 263s102 261 260 261h315v-101zM212 134c19 -28 47 -42 82 -42c73 0 114 58 114 158c0 101 -41 159 -114 159c-71 0 -112 -58 -112 -159c0 -50 10 -89 30 -116z" />
    <glyph glyph-name="tau" unicode="&#x3c4;" horiz-adv-x="468" 
d="M9 407v101h450v-101h-161v-234c0 -57 18 -76 57 -76c13 0 22 1 28 4v-99c-22 -7 -49 -10 -80 -10c-99 0 -145 45 -145 162v253h-149z" />
    <glyph glyph-name="upsilon" unicode="&#x3c5;" horiz-adv-x="602" 
d="M553 250c0 -172 -79 -266 -242 -266c-152 0 -229 61 -229 197v146c0 61 -12 80 -44 80c-9 0 -18 -1 -25 -3v99c28 9 55 13 81 13c88 0 129 -41 129 -156v-167c0 -71 29 -100 86 -100c70 0 105 56 105 168c0 91 -12 173 -35 247h136c25 -77 38 -163 38 -258z" />
    <glyph glyph-name="phi" unicode="&#x3c6;" horiz-adv-x="795" 
d="M760 254c0 -81 -26 -146 -79 -193c-53 -48 -126 -74 -217 -77v-169h-133v169c-91 3 -163 29 -216 77c-53 47 -80 112 -80 193s27 146 80 194c53 47 125 73 216 76v138h133v-138c91 -3 164 -29 217 -76c53 -48 79 -113 79 -194zM177 254c0 -104 55 -165 154 -170v340
c-99 -5 -154 -66 -154 -170zM464 84c99 5 153 66 153 170s-54 165 -153 170v-340z" />
    <glyph glyph-name="chi" unicode="&#x3c7;" horiz-adv-x="601" 
d="M589 -180c-24 -9 -51 -13 -80 -13c-40 0 -72 9 -95 27c-24 19 -47 51 -68 98l-48 107h-2l-143 -224h-154l226 338l-82 175c-32 69 -56 88 -100 88c-12 0 -24 -2 -35 -5v95c21 9 53 15 81 15c42 0 75 -9 99 -27c23 -19 45 -51 65 -97l53 -120h2l136 231h154l-216 -348
l77 -163c32 -68 57 -85 98 -85c11 0 22 1 32 3v-95z" />
    <glyph glyph-name="psi" unicode="&#x3c8;" horiz-adv-x="823" 
d="M773 259c0 -165 -95 -259 -288 -268v-176h-140v176c-187 7 -282 82 -282 239v278h140v-264c0 -95 47 -140 142 -148v566h140v-565c99 10 148 68 148 173c0 89 -13 168 -39 238h138c27 -74 41 -157 41 -249z" />
    <glyph glyph-name="omega" unicode="&#x3c9;" horiz-adv-x="832" 
d="M782 224c0 -153 -66 -238 -201 -238c-89 0 -144 35 -164 105h-2c-20 -70 -75 -105 -164 -105c-135 0 -201 85 -201 238c0 101 22 200 65 284h146c-43 -79 -66 -173 -66 -268c0 -97 26 -149 83 -149c45 0 68 31 68 92v204h140v-204c0 -61 23 -92 68 -92c55 0 83 50 83 149
c0 95 -23 189 -66 268h146c43 -84 65 -183 65 -284z" />
    <glyph glyph-name="iotadieresis" unicode="&#x3ca;" horiz-adv-x="316" 
d="M305 2c-20 -6 -45 -9 -74 -9c-117 0 -168 54 -168 185v330h140v-305c0 -71 18 -98 66 -98c14 0 26 2 36 5v-108zM180 592v120h123v-120h-123zM-37 592v120h123v-120h-123z" />
    <glyph glyph-name="upsilondieresis" unicode="&#x3cb;" horiz-adv-x="602" 
d="M553 250c0 -172 -79 -266 -242 -266c-152 0 -229 61 -229 197v146c0 61 -12 80 -44 80c-9 0 -18 -1 -25 -3v99c28 9 55 13 81 13c88 0 129 -41 129 -156v-167c0 -71 29 -100 86 -100c70 0 105 56 105 168c0 91 -12 173 -35 247h136c25 -77 38 -163 38 -258zM336 592v120
h123v-120h-123zM119 712h123v-120h-123v120z" />
    <glyph glyph-name="omicrontonos" unicode="&#x3cc;" horiz-adv-x="590" 
d="M555 254c0 -165 -102 -270 -260 -270s-260 105 -260 270s102 270 260 270s260 -105 260 -270zM182 254c0 -99 44 -162 113 -162s113 63 113 162s-44 162 -113 162s-113 -63 -113 -162zM277 732h137l-68 -164h-104z" />
    <glyph glyph-name="upsilontonos" unicode="&#x3cd;" horiz-adv-x="602" 
d="M553 250c0 -172 -79 -266 -242 -266c-152 0 -229 61 -229 197v146c0 61 -12 80 -44 80c-9 0 -18 -1 -25 -3v99c28 9 55 13 81 13c88 0 129 -41 129 -156v-167c0 -71 29 -100 86 -100c70 0 105 56 105 168c0 91 -12 173 -35 247h136c25 -77 38 -163 38 -258zM271 732h137
l-68 -164h-104z" />
    <glyph glyph-name="omegatonos" unicode="&#x3ce;" horiz-adv-x="832" 
d="M782 224c0 -153 -66 -238 -201 -238c-89 0 -144 35 -164 105h-2c-20 -70 -75 -105 -164 -105c-135 0 -201 85 -201 238c0 101 22 200 65 284h146c-43 -79 -66 -173 -66 -268c0 -97 26 -149 83 -149c45 0 68 31 68 92v204h140v-204c0 -61 23 -92 68 -92c55 0 83 50 83 149
c0 95 -23 189 -66 268h146c43 -84 65 -183 65 -284zM398 732h137l-68 -164h-104z" />
    <glyph glyph-name="uni0400" unicode="&#x400;" horiz-adv-x="633" 
d="M82 712h492v-126h-345v-161h322v-125h-322v-174h354v-126h-501v712zM336 906l77 -146h-110l-140 146h173z" />
    <glyph glyph-name="afii10023" unicode="&#x401;" horiz-adv-x="633" 
d="M583 0h-501v712h492v-126h-345v-161h322v-125h-322v-174h354v-126zM498 889v-120h-123v120h123zM158 769v120h123v-120h-123z" />
    <glyph glyph-name="afii10051" unicode="&#x402;" horiz-adv-x="802" 
d="M714 51c-43 -43 -101 -64 -176 -64c-36 0 -67 4 -93 13v122c21 -6 45 -9 71 -9c77 0 115 36 115 109c0 76 -42 114 -125 114c-47 0 -89 -10 -125 -29v-307h-147v586h-224v126h595v-126h-224v-157c44 22 95 33 152 33c155 0 245 -88 245 -239c0 -72 -21 -129 -64 -172z
" />
    <glyph glyph-name="afii10052" unicode="&#x403;" horiz-adv-x="508" 
d="M82 0v712h416v-126h-269v-586h-147zM205 760l77 146h173l-140 -146h-110z" />
    <glyph glyph-name="afii10053" unicode="&#x404;" horiz-adv-x="711" 
d="M668 465h-148c-11 83 -66 133 -151 133c-95 0 -159 -67 -176 -179h248v-126h-248c17 -113 80 -179 173 -179c87 0 142 49 154 136h151c-15 -168 -128 -266 -305 -266c-204 0 -329 142 -329 372c0 229 127 372 332 372c175 0 293 -107 299 -263z" />
    <glyph glyph-name="afii10054" unicode="&#x405;" horiz-adv-x="630" 
d="M594 209c0 -135 -113 -225 -278 -225c-180 0 -288 90 -288 250h152c0 -87 47 -131 138 -131c75 0 123 35 123 91c0 40 -21 62 -58 75c-19 7 -48 15 -89 26c-58 15 -104 29 -138 43s-62 35 -84 64c-23 28 -34 66 -34 115c0 125 107 211 263 211c177 0 270 -81 270 -234
h-149c0 75 -44 117 -124 117c-65 0 -109 -31 -109 -78c4 -55 34 -70 155 -101c55 -14 100 -28 134 -42c34 -15 62 -36 84 -65c21 -29 32 -67 32 -116z" />
    <glyph glyph-name="afii10055" unicode="&#x406;" horiz-adv-x="311" 
d="M229 712v-712h-147v712h147z" />
    <glyph glyph-name="afii10056" unicode="&#x407;" horiz-adv-x="311" 
d="M82 712h147v-712h-147v712zM203 889h123v-120h-123v120zM-14 889h123v-120h-123v120z" />
    <glyph glyph-name="afii10057" unicode="&#x408;" horiz-adv-x="392" 
d="M62 121c74 0 106 27 106 137v454h147v-485c0 -161 -72 -234 -235 -234c-25 0 -47 3 -65 8v125c18 -3 34 -5 47 -5z" />
    <glyph glyph-name="afii10058" unicode="&#x409;" horiz-adv-x="1060" 
d="M969 62c-45 -41 -109 -62 -194 -62h-269v586h-200c-5 -167 -17 -292 -34 -376s-42 -141 -74 -171c-33 -30 -79 -45 -138 -45c-19 0 -36 2 -49 6v120c5 -1 11 -2 18 -2c33 0 59 15 76 44s31 85 40 168s15 210 20 382h488v-252h122c169 0 261 -89 261 -230
c0 -71 -22 -127 -67 -168zM653 338v-216h102c87 0 131 36 131 108s-44 108 -131 108h-102z" />
    <glyph glyph-name="afii10059" unicode="&#x40a;" horiz-adv-x="1075" 
d="M984 62c-45 -41 -109 -62 -194 -62h-269v307h-292v-307h-147v712h147v-279h292v279h147v-252h122c169 0 261 -89 261 -230c0 -71 -22 -127 -67 -168zM668 122h102c87 0 131 36 131 108s-44 108 -131 108h-102v-216z" />
    <glyph glyph-name="afii10060" unicode="&#x40b;" horiz-adv-x="801" 
d="M768 0h-147v190c0 79 -40 122 -115 122c-48 0 -90 -6 -125 -18v-294h-147v586h-224v126h595v-126h-224v-171c47 15 102 23 164 23c144 0 223 -78 223 -219v-219z" />
    <glyph glyph-name="afii10061" unicode="&#x40c;" horiz-adv-x="663" 
d="M231 399l233 313h172l-271 -338l294 -374h-187l-241 336h-2v-336h-147v712h147v-313h2zM324 906h173l-140 -146h-110z" />
    <glyph glyph-name="uni040D" unicode="&#x40d;" horiz-adv-x="776" 
d="M694 0h-141v274c0 96 3 199 8 309h-2c-36 -89 -79 -187 -130 -294l-138 -289h-209v712h141v-274c0 -96 -3 -199 -8 -309h2c36 89 79 187 130 294l138 289h209v-712zM213 906h173l77 -146h-110z" />
    <glyph glyph-name="afii10062" unicode="&#x40e;" horiz-adv-x="682" 
d="M680 712l-278 -572c-53 -108 -118 -149 -210 -149c-33 0 -61 3 -82 9v123c13 -4 29 -6 49 -6c53 0 88 26 88 74c0 13 -2 26 -6 37c-5 11 -18 39 -41 84l-198 400h159l91 -205c33 -74 63 -143 89 -206h2c28 71 57 139 87 206l91 205h159zM261 906c3 -40 33 -64 80 -64
s77 24 80 64h95c-5 -96 -71 -151 -175 -151s-170 55 -175 151h95z" />
    <glyph glyph-name="afii10145" unicode="&#x40f;" horiz-adv-x="740" 
d="M229 712v-586h282v586h147v-712h-223v-160h-140v160h-213v712h147z" />
    <glyph glyph-name="afii10017" unicode="&#x410;" horiz-adv-x="698" 
d="M250 712h198l247 -712h-154l-55 174h-273l-56 -174h-154zM253 300h193l-15 47c-33 104 -60 197 -81 278h-2c-25 -93 -51 -186 -80 -278z" />
    <glyph glyph-name="afii10018" unicode="&#x411;" horiz-adv-x="665" 
d="M376 443c79 0 140 -20 185 -59c45 -40 67 -94 67 -163c0 -137 -93 -221 -252 -221h-294v712h501v-122h-354v-147h147zM347 122c87 0 130 33 130 99c0 65 -43 100 -130 100h-118v-199h118z" />
    <glyph glyph-name="afii10019" unicode="&#x412;" horiz-adv-x="650" 
d="M614 195c0 -120 -95 -195 -254 -195h-278v712h256c172 0 259 -70 259 -183c0 -81 -40 -135 -124 -166v-2c97 -21 141 -74 141 -166zM229 303v-182h109c89 0 127 28 127 89c0 65 -38 93 -131 93h-105zM333 419c85 0 123 27 123 88c0 59 -35 85 -116 85h-111v-173h104z" />
    <glyph glyph-name="afii10020" unicode="&#x413;" horiz-adv-x="508" 
d="M82 712h416v-126h-269v-586h-147v712z" />
    <glyph glyph-name="afii10021" unicode="&#x414;" horiz-adv-x="794" 
d="M154 320c11 86 18 217 21 392h515v-586h90v-286h-140v160h-480v-160h-140v286h85c21 43 37 107 49 194zM543 126v460h-227c-6 -209 -25 -363 -58 -460h285z" />
    <glyph glyph-name="afii10022" unicode="&#x415;" horiz-adv-x="633" 
d="M82 712h492v-126h-345v-161h322v-125h-322v-174h354v-126h-501v712z" />
    <glyph glyph-name="afii10024" unicode="&#x416;" horiz-adv-x="918" 
d="M740 0l-207 356h-2v-356h-144v356h-2l-207 -356h-174l245 374l-220 338h169l187 -333h2v333h144v-333h2l187 333h169l-220 -338l245 -374h-174z" />
    <glyph glyph-name="afii10025" unicode="&#x417;" horiz-adv-x="636" 
d="M600 191c0 -126 -113 -207 -279 -207c-191 0 -295 87 -295 248h156c0 -81 47 -124 139 -124c73 0 121 35 121 90c0 65 -48 97 -151 97h-46v121h46c88 0 142 37 142 96c0 55 -46 91 -118 91c-81 0 -122 -39 -122 -118h-158c0 153 104 242 285 242c168 0 268 -75 268 -200
c0 -80 -38 -128 -125 -159v-2c95 -31 137 -84 137 -175z" />
    <glyph glyph-name="afii10026" unicode="&#x418;" horiz-adv-x="776" 
d="M223 712v-274c0 -96 -3 -199 -8 -309h2c36 89 79 187 130 294l138 289h209v-712h-141v274c0 96 3 199 8 309h-2c-36 -89 -79 -187 -130 -294l-138 -289h-209v712h141z" />
    <glyph glyph-name="afii10027" unicode="&#x419;" horiz-adv-x="776" 
d="M694 0h-141v274c0 96 3 199 8 309h-2c-36 -89 -79 -187 -130 -294l-138 -289h-209v712h141v-274c0 -96 -3 -199 -8 -309h2c36 89 79 187 130 294l138 289h209v-712zM203 906h95c3 -40 33 -64 80 -64s77 24 80 64h95c-5 -96 -71 -151 -175 -151s-170 55 -175 151z" />
    <glyph glyph-name="afii10028" unicode="&#x41a;" horiz-adv-x="663" 
d="M82 0v712h147v-313h2l233 313h172l-271 -338l294 -374h-187l-241 336h-2v-336h-147z" />
    <glyph glyph-name="afii10029" unicode="&#x41b;" horiz-adv-x="735" 
d="M11 0v120c5 -1 11 -2 18 -2c33 0 59 15 76 44s31 85 40 168s15 210 20 382h488v-712h-147v586h-200c-5 -167 -17 -292 -34 -376s-42 -141 -74 -171c-33 -30 -79 -45 -138 -45c-19 0 -36 2 -49 6z" />
    <glyph glyph-name="afii10030" unicode="&#x41c;" horiz-adv-x="984" 
d="M902 0h-141v354c0 89 2 178 6 267h-2c-22 -84 -47 -171 -76 -262l-113 -359h-168l-113 359c-29 91 -54 178 -76 262h-2c4 -89 6 -178 6 -267v-354h-141v712h236l103 -327c28 -89 51 -177 70 -262h2c19 85 42 173 70 262l103 327h236v-712z" />
    <glyph glyph-name="afii10031" unicode="&#x41d;" horiz-adv-x="750" 
d="M229 712v-279h292v279h147v-712h-147v307h-292v-307h-147v712h147z" />
    <glyph glyph-name="afii10032" unicode="&#x41e;" horiz-adv-x="748" 
d="M711 356c0 -230 -128 -372 -337 -372s-337 142 -337 372s128 372 337 372s337 -142 337 -372zM189 356c0 -151 70 -242 185 -242s185 91 185 242s-70 242 -185 242s-185 -91 -185 -242z" />
    <glyph glyph-name="afii10033" unicode="&#x41f;" horiz-adv-x="739" 
d="M82 712h575v-712h-146v586h-282v-586h-147v712z" />
    <glyph glyph-name="afii10034" unicode="&#x420;" horiz-adv-x="636" 
d="M351 712c169 0 261 -89 261 -230s-92 -230 -261 -230h-122v-252h-147v712h269zM331 374c87 0 131 36 131 108s-44 108 -131 108h-102v-216h102z" />
    <glyph glyph-name="afii10035" unicode="&#x421;" horiz-adv-x="701" 
d="M658 465h-148c-9 83 -64 133 -147 133c-108 0 -174 -91 -174 -242s64 -242 171 -242c84 0 139 49 150 136h151c-7 -84 -37 -149 -90 -196s-124 -70 -211 -70c-199 0 -323 142 -323 372c0 229 125 372 326 372c175 0 289 -107 295 -263z" />
    <glyph glyph-name="afii10036" unicode="&#x422;" horiz-adv-x="615" 
d="M10 712h595v-126h-224v-586h-147v586h-224v126z" />
    <glyph glyph-name="afii10037" unicode="&#x423;" horiz-adv-x="682" 
d="M680 712l-278 -572c-53 -108 -118 -149 -210 -149c-33 0 -61 3 -82 9v123c13 -4 29 -6 49 -6c53 0 88 26 88 74c0 13 -2 26 -6 37c-5 11 -18 39 -41 84l-198 400h159l91 -205c33 -74 63 -143 89 -206h2c28 71 57 139 87 206l91 205h159z" />
    <glyph glyph-name="afii10038" unicode="&#x424;" horiz-adv-x="862" 
d="M825 356c0 -184 -115 -293 -323 -305v-77h-143v77c-207 12 -322 121 -322 305s115 293 322 305v77h143v-77c208 -12 323 -121 323 -305zM502 173c109 12 171 78 171 183s-62 171 -171 183v-366zM233 230c29 -31 71 -50 126 -57v366c-109 -13 -170 -78 -170 -183
c0 -53 15 -95 44 -126z" />
    <glyph glyph-name="afii10039" unicode="&#x425;" horiz-adv-x="630" 
d="M226 362l-212 350h168l132 -246h2l132 246h168l-212 -350l223 -362h-171l-140 252h-2l-140 -252h-171z" />
    <glyph glyph-name="afii10040" unicode="&#x426;" horiz-adv-x="770" 
d="M82 0v712h147v-586h282v586h147v-586h90v-286h-140v160h-526z" />
    <glyph glyph-name="afii10041" unicode="&#x427;" horiz-adv-x="679" 
d="M180 712v-217c0 -79 47 -122 135 -122c45 0 96 7 135 18v321h147v-712h-147v269c-49 -13 -115 -22 -174 -22c-157 0 -243 78 -243 219v246h147z" />
    <glyph glyph-name="afii10042" unicode="&#x428;" horiz-adv-x="1028" 
d="M229 712v-586h212v586h147v-586h212v586h146v-712h-864v712h147z" />
    <glyph glyph-name="afii10043" unicode="&#x429;" horiz-adv-x="1050" 
d="M229 712v-586h212v586h147v-586h212v586h146v-586h90v-286h-140v160h-814v712h147z" />
    <glyph glyph-name="afii10044" unicode="&#x42a;" horiz-adv-x="758" 
d="M10 586v126h341v-252h122c169 0 261 -89 261 -230s-92 -230 -261 -230h-269v586h-194zM351 122h102c87 0 131 36 131 108s-44 108 -131 108h-102v-216z" />
    <glyph glyph-name="afii10045" unicode="&#x42b;" horiz-adv-x="947" 
d="M82 712h147v-252h122c169 0 261 -89 261 -230s-92 -230 -261 -230h-269v712zM865 0h-147v712h147v-712zM229 338v-216h102c87 0 131 36 131 108s-44 108 -131 108h-102z" />
    <glyph glyph-name="afii10046" unicode="&#x42c;" horiz-adv-x="636" 
d="M82 712h147v-252h122c169 0 261 -89 261 -230s-92 -230 -261 -230h-269v712zM229 122h102c87 0 131 36 131 108s-44 108 -131 108h-102v-216z" />
    <glyph glyph-name="afii10047" unicode="&#x42d;" horiz-adv-x="711" 
d="M635 158c-53 -112 -155 -174 -290 -174c-177 0 -290 98 -305 266h151c12 -87 67 -136 154 -136c93 0 156 66 173 179h-248v126h248c-17 112 -81 179 -176 179c-85 0 -140 -50 -151 -133h-148c6 156 124 263 299 263c205 0 332 -143 332 -372c0 -77 -13 -143 -39 -198z
" />
    <glyph glyph-name="afii10048" unicode="&#x42e;" horiz-adv-x="1035" 
d="M998 356c0 -230 -124 -372 -325 -372c-91 0 -164 27 -221 82s-90 130 -101 227h-122v-293h-147v712h147v-293h122c11 97 44 172 101 227s130 82 221 82c201 0 325 -142 325 -372zM500 356c0 -149 66 -242 173 -242c108 0 173 91 173 242s-65 242 -173 242
c-107 0 -173 -93 -173 -242z" />
    <glyph glyph-name="afii10049" unicode="&#x42f;" horiz-adv-x="662" 
d="M40 490c0 143 88 222 260 222h280v-712h-147v264h-144l-128 -264h-160l153 291c-76 36 -114 104 -114 199zM188 490c0 -73 41 -109 123 -109h122v212h-114c-87 0 -131 -34 -131 -103z" />
    <glyph glyph-name="afii10065" unicode="&#x430;" horiz-adv-x="547" 
d="M499 0h-126c-5 19 -7 42 -7 68h-2c-37 -53 -92 -80 -165 -80c-53 0 -95 15 -126 44s-47 65 -47 110c0 87 56 139 197 162c43 7 85 11 127 14v18c0 61 -31 90 -83 90s-81 -29 -84 -77h-136c5 103 81 175 220 175c144 0 218 -68 218 -201v-184c0 -57 5 -104 14 -139z
M166 152c0 -39 27 -64 75 -64c31 0 61 10 80 29c23 23 29 48 29 97v19c-40 -3 -74 -6 -102 -11c-59 -11 -82 -30 -82 -70z" />
    <glyph glyph-name="afii10066" unicode="&#x431;" 
d="M531 611c-32 -9 -86 -16 -163 -20c-166 -11 -207 -59 -225 -194h2c29 65 88 97 177 97c142 0 235 -94 235 -242c0 -165 -102 -268 -260 -268c-167 0 -260 106 -260 298c3 317 89 403 303 422c92 7 156 15 191 24v-117zM212 133c19 -27 47 -41 84 -41c73 0 114 54 114 149
s-43 151 -116 151c-77 0 -112 -54 -112 -145c0 -49 10 -87 30 -114z" />
    <glyph glyph-name="afii10067" unicode="&#x432;" horiz-adv-x="549" 
d="M478 301c-15 -18 -39 -31 -71 -39v-2c71 -13 106 -52 106 -118c0 -91 -74 -142 -203 -142h-242v508h228c137 0 205 -46 205 -137c0 -29 -8 -53 -23 -70zM203 215v-124h75c63 0 95 21 95 62s-32 62 -95 62h-75zM279 299c57 0 85 20 85 59s-28 59 -85 59h-76v-118h76z" />
    <glyph glyph-name="afii10068" unicode="&#x433;" horiz-adv-x="441" 
d="M68 0v508h363v-104h-223v-404h-140z" />
    <glyph glyph-name="afii10069" unicode="&#x434;" horiz-adv-x="640" 
d="M116 237c11 59 19 149 24 271h422v-404h70v-264h-140v160h-344v-160h-140v264h64c18 30 33 74 44 133zM422 104v300h-148c-7 -132 -22 -232 -43 -300h191z" />
    <glyph glyph-name="afii10070" unicode="&#x435;" horiz-adv-x="573" 
d="M538 225h-365c4 -99 50 -142 115 -142c55 0 93 28 100 71h143c-20 -95 -112 -170 -243 -170c-159 0 -253 112 -253 274c0 151 95 266 252 266c116 0 203 -65 235 -169c11 -34 16 -77 16 -130zM398 313c-8 73 -52 112 -111 112s-100 -37 -111 -112h222z" />
    <glyph glyph-name="afii10072" unicode="&#x436;" horiz-adv-x="760" 
d="M604 0l-154 259h-2v-259h-136v259h-2l-154 -259h-168l188 274l-168 234h153l149 -226h2v226h136v-226h2l149 226h153l-168 -234l188 -274h-168z" />
    <glyph glyph-name="afii10073" unicode="&#x437;" horiz-adv-x="516" 
d="M480 137c0 -96 -85 -153 -218 -153c-151 0 -233 63 -233 183h140c0 -53 31 -80 93 -80c48 0 80 21 80 56c0 41 -31 61 -94 61h-50v101h50c52 0 84 23 84 60c0 35 -28 56 -72 56c-52 0 -82 -27 -82 -76h-139c0 113 84 179 224 179c125 0 205 -55 205 -147
c0 -56 -27 -90 -91 -113v-2c72 -21 103 -60 103 -125z" />
    <glyph glyph-name="afii10074" unicode="&#x438;" horiz-adv-x="670" 
d="M68 0v508h140v-190c0 -61 -3 -127 -8 -198h2c25 65 54 127 87 188l109 200h204v-508h-140v189c0 62 3 128 8 199h-2c-25 -65 -54 -127 -87 -188l-109 -200h-204z" />
    <glyph glyph-name="afii10075" unicode="&#x439;" horiz-adv-x="670" 
d="M602 0h-140v189c0 62 3 128 8 199h-2c-25 -65 -54 -127 -87 -188l-109 -200h-204v508h140v-190c0 -61 -3 -127 -8 -198h2c25 65 54 127 87 188l109 200h204v-508zM256 712c3 -40 33 -64 80 -64s77 24 80 64h95c-5 -96 -71 -151 -175 -151s-170 55 -175 151h95z" />
    <glyph glyph-name="afii10076" unicode="&#x43a;" horiz-adv-x="560" 
d="M68 0v508h140v-205h2l164 205h158l-193 -234l214 -274h-173l-170 238h-2v-238h-140z" />
    <glyph glyph-name="afii10077" unicode="&#x43b;" horiz-adv-x="574" 
d="M6 0v99c7 -1 13 -2 19 -2c65 5 84 59 92 411h389v-508h-140v404h-119c-11 -344 -61 -406 -191 -410c-18 0 -35 2 -50 6z" />
    <glyph glyph-name="afii10078" unicode="&#x43c;" horiz-adv-x="834" 
d="M766 0h-130v233c0 54 2 115 5 183h-1c-15 -53 -35 -114 -58 -181l-82 -235h-166l-83 235c-25 76 -44 136 -57 181h-2c3 -68 5 -129 5 -183v-233h-129v508h220l76 -217c19 -56 37 -118 52 -186h2c13 59 30 121 52 186l75 217h221v-508z" />
    <glyph glyph-name="afii10079" unicode="&#x43d;" horiz-adv-x="613" 
d="M208 508v-198h197v198h140v-508h-140v206h-197v-206h-140v508h140z" />
    <glyph glyph-name="afii10080" unicode="&#x43e;" horiz-adv-x="590" 
d="M555 254c0 -165 -102 -270 -260 -270s-260 105 -260 270s102 270 260 270s260 -105 260 -270zM182 254c0 -99 44 -162 113 -162s113 63 113 162s-44 162 -113 162s-113 -63 -113 -162z" />
    <glyph glyph-name="afii10081" unicode="&#x43f;" horiz-adv-x="605" 
d="M68 508h469v-508h-140v404h-189v-404h-140v508z" />
    <glyph glyph-name="afii10082" unicode="&#x440;" horiz-adv-x="598" 
d="M538 114c-35 -81 -100 -127 -184 -127c-59 0 -113 27 -144 74h-2v-246h-140v693h136v-67h2c31 51 86 80 146 80c127 0 211 -106 211 -267c0 -53 -8 -100 -25 -140zM230 137c19 -29 45 -43 77 -43c67 0 110 63 110 160s-43 160 -110 160c-64 0 -106 -60 -106 -160
c0 -50 10 -89 29 -117z" />
    <glyph glyph-name="afii10083" unicode="&#x441;" horiz-adv-x="562" 
d="M531 319h-146c-5 60 -42 97 -95 97c-68 0 -109 -62 -109 -162s41 -162 109 -162c53 0 90 40 94 107h147c-5 -65 -30 -117 -73 -156s-99 -59 -167 -59c-155 0 -256 108 -256 270s101 270 256 270c134 0 230 -85 240 -205z" />
    <glyph glyph-name="afii10084" unicode="&#x442;" horiz-adv-x="474" 
d="M6 508h462v-104h-161v-404h-140v404h-161v104z" />
    <glyph glyph-name="afii10085" unicode="&#x443;" horiz-adv-x="504" 
d="M511 508l-182 -511c-52 -143 -113 -188 -242 -188c-26 0 -50 3 -73 8v112c15 -5 33 -8 54 -8c56 0 93 33 93 82c0 19 -4 36 -24 92l-144 413h150l52 -170c21 -71 40 -142 56 -213h2c20 82 40 153 59 213l55 170h144z" />
    <glyph glyph-name="afii10086" unicode="&#x444;" horiz-adv-x="820" 
d="M35 254c0 161 80 267 203 267c38 0 72 -12 102 -37v228h140v-228c30 25 64 37 102 37c123 0 203 -106 203 -267s-80 -267 -205 -267c-37 0 -70 12 -100 36v-208h-140v208c-30 -24 -63 -36 -100 -36c-125 0 -205 106 -205 267zM181 254c0 -97 40 -160 104 -160
c21 0 39 8 55 24v272c-16 16 -34 24 -55 24c-64 0 -104 -63 -104 -160zM611 371c-19 29 -45 43 -76 43c-21 0 -39 -8 -55 -24v-272c16 -16 34 -24 55 -24c63 0 104 63 104 160c0 49 -9 88 -28 117z" />
    <glyph glyph-name="afii10087" unicode="&#x445;" horiz-adv-x="508" 
d="M168 261l-163 247h161l87 -149h2l87 149h161l-163 -247l174 -261h-163l-96 172h-2l-96 -172h-163z" />
    <glyph glyph-name="afii10088" unicode="&#x446;" horiz-adv-x="615" 
d="M68 0v508h140v-404h189v404h140v-404h70v-264h-140v160h-399z" />
    <glyph glyph-name="afii10089" unicode="&#x447;" horiz-adv-x="558" 
d="M29 508h140v-157c0 -52 31 -81 91 -81c32 0 62 5 90 14v224h140v-508h-140v184c-43 -12 -90 -18 -141 -18c-116 0 -180 56 -180 156v186z" />
    <glyph glyph-name="afii10090" unicode="&#x448;" horiz-adv-x="854" 
d="M208 508v-404h149v404h140v-404h149v404h140v-508h-718v508h140z" />
    <glyph glyph-name="afii10091" unicode="&#x449;" horiz-adv-x="864" 
d="M68 508h140v-404h149v404h140v-404h149v404h140v-404h70v-264h-140v160h-648v508z" />
    <glyph glyph-name="afii10092" unicode="&#x44a;" horiz-adv-x="625" 
d="M6 404v104h271v-164h112c133 0 205 -61 205 -172c0 -112 -72 -172 -205 -172h-252v404h-131zM277 101h93c56 0 84 24 84 71s-28 71 -84 71h-93v-142z" />
    <glyph glyph-name="afii10093" unicode="&#x44b;" horiz-adv-x="802" 
d="M68 508h140v-164h112c133 0 205 -61 205 -172c0 -112 -72 -172 -205 -172h-252v508zM734 0h-140v508h140v-508zM208 101h93c56 0 84 24 84 71s-28 71 -84 71h-93v-142z" />
    <glyph glyph-name="afii10094" unicode="&#x44c;" horiz-adv-x="556" 
d="M208 508v-164h112c133 0 205 -61 205 -172c0 -112 -72 -172 -205 -172h-252v508h140zM301 101c56 0 84 24 84 71s-28 71 -84 71h-93v-142h93z" />
    <glyph glyph-name="afii10095" unicode="&#x44d;" horiz-adv-x="562" 
d="M527 254c0 -162 -101 -270 -256 -270c-68 0 -124 19 -167 57s-68 89 -73 152h143c4 -64 42 -105 98 -105c59 0 99 45 110 121h-168v100h166c-12 69 -52 111 -108 111s-94 -36 -99 -95h-142c12 116 105 199 240 199c155 0 256 -108 256 -270z" />
    <glyph glyph-name="afii10096" unicode="&#x44e;" horiz-adv-x="846" 
d="M811 254c0 -165 -102 -270 -260 -270c-141 0 -237 82 -256 218h-87v-202h-140v508h140v-202h87c19 136 115 218 256 218c158 0 260 -105 260 -270zM438 254c0 -99 44 -162 113 -162s113 63 113 162s-44 162 -113 162s-113 -63 -113 -162z" />
    <glyph glyph-name="afii10097" unicode="&#x44f;" horiz-adv-x="563" 
d="M93 465c37 29 92 43 165 43h237v-508h-135v166h-116l-90 -166h-146l114 192c-56 28 -84 77 -84 148c0 55 18 96 55 125zM269 265h91v140h-85c-68 0 -103 -21 -103 -69c0 -47 32 -71 97 -71z" />
    <glyph glyph-name="uni0450" unicode="&#x450;" horiz-adv-x="573" 
d="M538 225h-365c4 -99 50 -142 115 -142c55 0 93 28 100 71h143c-20 -95 -112 -170 -243 -170c-159 0 -253 112 -253 274c0 151 95 266 252 266c116 0 203 -65 235 -169c11 -34 16 -77 16 -130zM121 712h173l77 -146h-110zM176 313h222c-8 73 -52 112 -111 112
s-100 -37 -111 -112z" />
    <glyph glyph-name="afii10071" unicode="&#x451;" horiz-adv-x="573" 
d="M538 225h-365c4 -99 50 -142 115 -142c55 0 93 28 100 71h143c-20 -95 -112 -170 -243 -170c-159 0 -253 112 -253 274c0 151 95 266 252 266c116 0 203 -65 235 -169c11 -34 16 -77 16 -130zM398 313c-8 73 -52 112 -111 112s-100 -37 -111 -112h222zM333 592v120h123
v-120h-123zM116 592v120h123v-120h-123z" />
    <glyph glyph-name="afii10099" unicode="&#x452;" 
d="M537 -11c0 -123 -66 -179 -173 -179c-25 0 -48 3 -69 8v101c8 -2 17 -3 27 -3c52 0 75 23 75 94v234c0 75 -33 112 -89 112c-60 0 -100 -49 -100 -138v-218h-140v544h-74v88h74v80h140v-80h212v-88h-212v-146h2c35 45 85 68 140 68c116 0 187 -73 187 -208v-269z" />
    <glyph glyph-name="afii10100" unicode="&#x453;" horiz-adv-x="441" 
d="M68 508h363v-104h-223v-404h-140v508zM165 566l77 146h173l-140 -146h-110z" />
    <glyph glyph-name="afii10101" unicode="&#x454;" horiz-adv-x="562" 
d="M531 325h-142c-5 59 -43 95 -99 95s-96 -42 -108 -111h166v-100h-168c11 -76 51 -121 110 -121c56 0 94 41 98 105h143c-5 -63 -30 -114 -73 -152s-99 -57 -167 -57c-155 0 -256 108 -256 270s101 270 256 270c135 0 228 -83 240 -199z" />
    <glyph glyph-name="afii10102" unicode="&#x455;" horiz-adv-x="524" 
d="M487 143c0 -48 -20 -86 -60 -115c-41 -30 -95 -44 -164 -44c-144 0 -228 61 -228 181h142c0 -51 32 -80 89 -80c48 0 74 18 74 49c0 28 -17 44 -45 54c-15 5 -39 11 -72 20c-40 11 -71 21 -93 30c-23 9 -42 23 -58 44c-17 21 -25 49 -25 86c0 91 86 156 210 156
c135 0 213 -60 213 -172h-134c0 49 -27 74 -80 74c-44 0 -69 -18 -69 -47c5 -38 22 -41 109 -65c43 -11 76 -22 101 -32s46 -26 64 -48c17 -22 26 -52 26 -91z" />
    <glyph glyph-name="afii10103" unicode="&#x456;" horiz-adv-x="276" 
d="M68 0v508h140v-508h-140zM68 592v120h140v-120h-140z" />
    <glyph glyph-name="afii10104" unicode="&#x457;" horiz-adv-x="276" 
d="M68 508h140v-508h-140v508zM163 712h123v-120h-123v120zM-10 712h123v-120h-123v120z" />
    <glyph glyph-name="afii10105" unicode="&#x458;" horiz-adv-x="278" 
d="M-32 -81c8 -2 17 -3 27 -3c52 0 75 23 75 94v498h140v-519c0 -123 -66 -179 -173 -179c-25 0 -48 3 -69 8v101zM70 592v120h140v-120h-140z" />
    <glyph glyph-name="afii10106" unicode="&#x459;" horiz-adv-x="854" 
d="M771 44c-35 -29 -86 -44 -153 -44h-252v404h-119c-11 -344 -61 -406 -191 -410c-18 0 -35 2 -50 6v99c7 -1 13 -2 19 -2c65 5 84 59 92 411h389v-164h112c133 0 205 -61 205 -172c0 -56 -17 -99 -52 -128zM506 243v-142h93c56 0 84 24 84 71s-28 71 -84 71h-93z" />
    <glyph glyph-name="afii10107" unicode="&#x45a;" horiz-adv-x="893" 
d="M810 44c-35 -29 -86 -44 -153 -44h-252v206h-197v-206h-140v508h140v-198h197v198h140v-164h112c133 0 205 -61 205 -172c0 -56 -17 -99 -52 -128zM545 101h93c56 0 84 24 84 71s-28 71 -84 71h-93v-142z" />
    <glyph glyph-name="afii10108" unicode="&#x45b;" 
d="M537 0h-140v244c0 75 -33 112 -89 112c-60 0 -100 -49 -100 -138v-218h-140v544h-74v88h74v80h140v-80h212v-88h-212v-146h2c35 45 85 68 140 68c116 0 187 -73 187 -208v-258z" />
    <glyph glyph-name="afii10109" unicode="&#x45c;" horiz-adv-x="560" 
d="M208 0h-140v508h140v-205h2l164 205h158l-193 -234l214 -274h-173l-170 238h-2v-238zM283 712h173l-140 -146h-110z" />
    <glyph glyph-name="uni045D" unicode="&#x45d;" horiz-adv-x="670" 
d="M602 0h-140v189c0 62 3 128 8 199h-2c-25 -65 -54 -127 -87 -188l-109 -200h-204v508h140v-190c0 -61 -3 -127 -8 -198h2c25 65 54 127 87 188l109 200h204v-508zM344 712l77 -146h-110l-140 146h173z" />
    <glyph glyph-name="afii10110" unicode="&#x45e;" horiz-adv-x="504" 
d="M143 508l52 -170c21 -71 40 -142 56 -213h2c20 82 40 153 59 213l55 170h144l-182 -511c-52 -143 -113 -188 -242 -188c-26 0 -50 3 -73 8v112c15 -5 33 -8 54 -8c56 0 93 33 93 82c0 19 -4 36 -24 92l-144 413h150zM377 601c-31 -27 -73 -40 -125 -40
c-104 0 -170 55 -175 151h95c3 -40 33 -64 80 -64s77 24 80 64h95c-3 -48 -19 -85 -50 -111z" />
    <glyph glyph-name="afii10193" unicode="&#x45f;" horiz-adv-x="605" 
d="M208 508v-404h189v404h140v-508h-167v-160h-140v160h-162v508h140z" />
    <glyph glyph-name="afii10050" unicode="&#x490;" horiz-adv-x="508" 
d="M82 0v712h276v138h140v-264h-269v-586h-147z" />
    <glyph glyph-name="afii10098" unicode="&#x491;" horiz-adv-x="441" 
d="M68 0v508h233v160h130v-264h-223v-404h-140z" />
    <glyph glyph-name="uni0492" unicode="&#x492;" horiz-adv-x="508" 
d="M82 378v334h416v-126h-269v-208h145v-106h-145v-272h-147v272h-64v106h64z" />
    <glyph glyph-name="uni0493" unicode="&#x493;" horiz-adv-x="446" 
d="M73 278v230h363v-104h-223v-126h126v-96h-126v-182h-140v182h-60v96h60z" />
    <glyph glyph-name="uni0496" unicode="&#x496;" horiz-adv-x="918" 
d="M914 -160h-140v160h-34l-207 356h-2v-356h-144v356h-2l-207 -356h-174l245 374l-220 338h169l187 -333h2v333h144v-333h2l187 333h169l-220 -338l162 -248h83v-286z" />
    <glyph glyph-name="uni0497" unicode="&#x497;" horiz-adv-x="760" 
d="M772 -160h-140v160h-28l-154 259h-2v-259h-136v259h-2l-154 -259h-168l188 274l-168 234h153l149 -226h2v226h136v-226h2l149 226h153l-168 -234l117 -170h71v-264z" />
    <glyph glyph-name="uni049A" unicode="&#x49a;" horiz-adv-x="663" 
d="M231 399l233 313h172l-271 -338l195 -248h99v-286h-140v160h-47l-241 336h-2v-336h-147v712h147v-313h2z" />
    <glyph glyph-name="uni049B" unicode="&#x49b;" horiz-adv-x="560" 
d="M208 0h-140v508h140v-205h2l164 205h158l-193 -234l133 -170h81v-264h-140v160h-33l-170 238h-2v-238z" />
    <glyph glyph-name="uni049C" unicode="&#x49c;" horiz-adv-x="737" 
d="M559 0l-177 307h-2v-155h-110v155h-44v-307h-144v712h144v-279h44v155h110v-155h2l157 279h169l-219 -337l244 -375h-174z" />
    <glyph glyph-name="uni049D" unicode="&#x49d;" horiz-adv-x="618" 
d="M460 0l-130 219h-2v-119h-87v119h-37v-219h-136v508h136v-185h37v119h87v-119h5l122 185h153l-168 -234l188 -274h-168z" />
    <glyph glyph-name="uni04A2" unicode="&#x4a2;" horiz-adv-x="780" 
d="M82 712h147v-279h292v279h147v-586h90v-286h-140v160h-97v307h-292v-307h-147v712z" />
    <glyph glyph-name="uni04A3" unicode="&#x4a3;" horiz-adv-x="623" 
d="M68 508h140v-198h197v198h140v-404h70v-264h-140v160h-70v206h-197v-206h-140v508z" />
    <glyph glyph-name="uni04AE" unicode="&#x4ae;" horiz-adv-x="638" 
d="M2 712h165l68 -134c30 -59 58 -120 83 -181h2c25 61 53 122 83 181l68 134h164l-243 -435v-277h-147v277z" />
    <glyph glyph-name="uni04AF" unicode="&#x4af;" horiz-adv-x="510" 
d="M-7 508h146l59 -176c19 -56 38 -121 56 -196h2c18 75 37 140 56 196l59 176h146l-192 -521v-172h-140v172z" />
    <glyph glyph-name="uni04B2" unicode="&#x4b2;" horiz-adv-x="630" 
d="M627 -160h-140v160h-31l-140 252h-2l-140 -252h-171l223 362l-212 350h168l132 -246h2l132 246h168l-212 -350l145 -236h78v-286z" />
    <glyph glyph-name="uni04B3" unicode="&#x4b3;" horiz-adv-x="508" 
d="M514 -160h-140v160h-23l-96 172h-2l-96 -172h-163l174 261l-163 247h161l87 -149h2l87 149h161l-163 -247l105 -157h69v-264z" />
    <glyph glyph-name="uni04B8" unicode="&#x4b8;" horiz-adv-x="679" 
d="M597 0h-147v269c-21 -6 -46 -11 -75 -15v-134h-120v127c-144 7 -222 84 -222 219v246h147v-217c0 -59 25 -97 75 -113v186h120v-191c27 3 52 7 75 14v321h147v-712z" />
    <glyph glyph-name="uni04B9" unicode="&#x4b9;" horiz-adv-x="558" 
d="M490 0h-140v184c-19 -5 -35 -9 -47 -10v-95h-87v87h-7c-116 0 -180 56 -180 156v186h140v-157c0 -41 15 -67 47 -76v146h87v-148c17 3 33 7 47 11v224h140v-508z" />
    <glyph glyph-name="uni04BA" unicode="&#x4ba;" horiz-adv-x="679" 
d="M229 712v-269c49 13 115 22 174 22c157 0 243 -78 243 -219v-246h-147v217c0 79 -47 122 -135 122c-45 0 -96 -7 -135 -18v-321h-147v712h147z" />
    <glyph glyph-name="uni04BB" unicode="&#x4bb;" 
d="M208 452h2c35 45 85 68 140 68c116 0 187 -73 187 -208v-312h-140v298c0 75 -33 112 -89 112c-60 0 -100 -49 -100 -138v-272h-140v712h140v-260z" />
    <glyph glyph-name="uni04C0" unicode="&#x4c0;" horiz-adv-x="311" 
d="M229 712v-712h-147v712h147z" />
    <glyph glyph-name="uni04CF" unicode="&#x4cf;" horiz-adv-x="276" 
d="M208 712v-712h-140v712h140z" />
    <glyph glyph-name="uni04D8" unicode="&#x4d8;" horiz-adv-x="764" 
d="M685 166c-56 -113 -166 -182 -307 -182c-209 0 -341 145 -341 371c0 22 1 39 3 51h534c-8 132 -91 195 -204 195c-87 0 -144 -43 -157 -106h-157c30 129 137 233 316 233c218 2 357 -148 355 -371c0 -71 -14 -134 -42 -191zM254 158c34 -29 75 -44 124 -44
c103 0 174 61 191 170h-378c8 -55 29 -97 63 -126z" />
    <glyph glyph-name="afii10846" unicode="&#x4d9;" horiz-adv-x="573" 
d="M508 116c-40 -81 -119 -132 -222 -132c-153 0 -251 105 -251 270c0 12 1 23 2 34h363c-4 95 -51 137 -119 137c-49 0 -83 -27 -90 -66h-143c11 47 37 87 78 118s92 47 155 47c161 0 257 -110 257 -270c0 -51 -10 -97 -30 -138zM175 200c8 -77 51 -117 111 -117
c59 0 100 40 111 117h-222z" />
    <glyph glyph-name="uni04E8" unicode="&#x4e8;" horiz-adv-x="748" 
d="M671 158c-55 -112 -158 -174 -297 -174c-209 0 -337 142 -337 372s128 372 337 372s337 -142 337 -372c0 -77 -13 -143 -40 -198zM248 156c33 -33 75 -50 126 -50c104 0 172 70 191 187h-381c9 -59 31 -104 64 -137zM565 419c-19 117 -87 187 -191 187
c-103 0 -171 -70 -190 -187h381z" />
    <glyph glyph-name="uni04E9" unicode="&#x4e9;" horiz-adv-x="590" 
d="M523 111c-43 -81 -123 -127 -228 -127c-158 0 -260 105 -260 270s102 270 260 270s260 -105 260 -270c0 -55 -11 -102 -32 -143zM217 119c21 -22 47 -33 78 -33c61 0 105 46 117 123h-235c6 -39 19 -69 40 -90zM412 299c-12 76 -56 123 -117 123
c-63 0 -106 -47 -118 -123h235z" />
    <glyph glyph-name="Wgrave" unicode="&#x1e80;" horiz-adv-x="956" 
d="M947 712l-149 -712h-191l-66 282c-25 105 -45 206 -62 305h-2c-17 -99 -37 -200 -62 -305l-66 -282h-191l-149 712h144l51 -259c21 -108 39 -211 52 -308h2c18 101 40 203 65 308l62 259h186l62 -259c25 -105 47 -207 65 -308h2c13 97 31 200 52 308l51 259h144zM311 906
h173l77 -146h-110z" />
    <glyph glyph-name="wgrave" unicode="&#x1e81;" horiz-adv-x="810" 
d="M693 0h-200l-45 200c-15 69 -29 142 -42 217h-2c-13 -75 -27 -148 -42 -217l-45 -200h-200l-112 508h139l38 -196c16 -82 28 -156 37 -221h2c12 75 26 148 43 219l45 198h192l45 -198c17 -71 31 -144 43 -219h2c9 65 21 139 37 221l38 196h139zM240 712h173l77 -146h-110
z" />
    <glyph glyph-name="Wacute" unicode="&#x1e82;" horiz-adv-x="956" 
d="M947 712l-149 -712h-191l-66 282c-25 105 -45 206 -62 305h-2c-17 -99 -37 -200 -62 -305l-66 -282h-191l-149 712h144l51 -259c21 -108 39 -211 52 -308h2c18 101 40 203 65 308l62 259h186l62 -259c25 -105 47 -207 65 -308h2c13 97 31 200 52 308l51 259h144zM468 906
h173l-140 -146h-110z" />
    <glyph glyph-name="wacute" unicode="&#x1e83;" horiz-adv-x="810" 
d="M693 0h-200l-45 200c-15 69 -29 142 -42 217h-2c-13 -75 -27 -148 -42 -217l-45 -200h-200l-112 508h139l38 -196c16 -82 28 -156 37 -221h2c12 75 26 148 43 219l45 198h192l45 -198c17 -71 31 -144 43 -219h2c9 65 21 139 37 221l38 196h139zM397 712h173l-140 -146
h-110z" />
    <glyph glyph-name="Wdieresis" unicode="&#x1e84;" horiz-adv-x="956" 
d="M947 712l-149 -712h-191l-66 282c-25 105 -45 206 -62 305h-2c-17 -99 -37 -200 -62 -305l-66 -282h-191l-149 712h144l51 -259c21 -108 39 -211 52 -308h2c18 101 40 203 65 308l62 259h186l62 -259c25 -105 47 -207 65 -308h2c13 97 31 200 52 308l51 259h144zM646 889
v-120h-123v120h123zM306 769v120h123v-120h-123z" />
    <glyph glyph-name="wdieresis" unicode="&#x1e85;" horiz-adv-x="810" 
d="M693 0h-200l-45 200c-15 69 -29 142 -42 217h-2c-13 -75 -27 -148 -42 -217l-45 -200h-200l-112 508h139l38 -196c16 -82 28 -156 37 -221h2c12 75 26 148 43 219l45 198h192l45 -198c17 -71 31 -144 43 -219h2c9 65 21 139 37 221l38 196h139zM452 592v120h123v-120
h-123zM235 592v120h123v-120h-123z" />
    <glyph glyph-name="uni1E9E" unicode="&#x1e9e;" horiz-adv-x="801" 
d="M763 195c0 -133 -95 -209 -246 -209c-153 0 -236 70 -236 206h141c0 -56 31 -86 92 -86c60 0 95 32 95 91c0 84 -69 125 -205 134v100l121 133c-31 27 -75 42 -124 42c-120 0 -182 -66 -182 -194v-412h-147v409c0 208 119 317 339 317c124 0 231 -53 298 -137l-149 -163
c132 -33 203 -110 203 -231z" />
    <glyph glyph-name="Ygrave" unicode="&#x1ef2;" horiz-adv-x="638" 
d="M235 578c30 -59 58 -120 83 -181h2c25 61 53 122 83 181l68 134h164l-243 -435v-277h-147v277l-243 435h165zM327 906l77 -146h-110l-140 146h173z" />
    <glyph glyph-name="ygrave" unicode="&#x1ef3;" horiz-adv-x="504" 
d="M511 508l-182 -511c-52 -143 -113 -188 -242 -188c-26 0 -50 3 -73 8v112c15 -5 33 -8 54 -8c56 0 93 33 93 82c0 19 -4 36 -24 92l-144 413h150l52 -170c21 -71 40 -142 56 -213h2c20 82 40 153 59 213l55 170h144zM260 712l77 -146h-110l-140 146h173z" />
    <glyph glyph-name="uni2010" unicode="&#x2010;" horiz-adv-x="320" 
d="M290 347v-110h-260v110h260z" />
    <glyph glyph-name="endash" unicode="&#x2013;" horiz-adv-x="500" 
d="M480 347v-110h-460v110h460z" />
    <glyph glyph-name="emdash" unicode="&#x2014;" horiz-adv-x="1000" 
d="M980 347v-110h-960v110h960z" />
    <glyph glyph-name="afii00208" unicode="&#x2015;" horiz-adv-x="1000" 
d="M980 347v-110h-960v110h960z" />
    <glyph glyph-name="underscoredbl" unicode="&#x2017;" horiz-adv-x="500" 
d="M0 -266v71h500v-71h-500zM0 -121v71h500v-71h-500z" />
    <glyph glyph-name="quoteleft" unicode="&#x2018;" horiz-adv-x="254" 
d="M62 566l63 146h71l-47 -146h44v-142h-131v142z" />
    <glyph glyph-name="quoteright" unicode="&#x2019;" horiz-adv-x="254" 
d="M105 570h-44v142h131v-142l-63 -146h-71z" />
    <glyph glyph-name="quotesinglbase" unicode="&#x201a;" horiz-adv-x="254" 
d="M105 0h-44v142h131v-142l-63 -146h-71z" />
    <glyph glyph-name="quotereversed" unicode="&#x201b;" horiz-adv-x="254" 
d="M62 712h131v-142h-44l47 -146h-71l-63 146v142z" />
    <glyph glyph-name="quotedblleft" unicode="&#x201c;" horiz-adv-x="436" 
d="M307 712h71l-47 -146h44v-142h-131v142zM62 424v142l63 146h71l-47 -146h44v-142h-131z" />
    <glyph glyph-name="quotedblright" unicode="&#x201d;" horiz-adv-x="436" 
d="M240 424l47 146h-44v142h131v-142l-63 -146h-71zM105 570h-44v142h131v-142l-63 -146h-71z" />
    <glyph glyph-name="quotedblbase" unicode="&#x201e;" horiz-adv-x="436" 
d="M240 -146l47 146h-44v142h131v-142l-63 -146h-71zM105 0h-44v142h131v-142l-63 -146h-71z" />
    <glyph glyph-name="dagger" unicode="&#x2020;" horiz-adv-x="564" 
d="M54 536h158v176h140v-176h158v-111h-158v-545h-140v545h-158v111z" />
    <glyph glyph-name="daggerdbl" unicode="&#x2021;" horiz-adv-x="564" 
d="M510 425h-158v-258h158v-111h-158v-176h-140v176h-158v111h158v258h-158v111h158v176h140v-176h158v-111z" />
    <glyph glyph-name="bullet" unicode="&#x2022;" horiz-adv-x="360" 
d="M40 356c0 78 64 140 140 140c78 0 140 -62 140 -140c0 -76 -62 -140 -140 -140c-76 0 -140 64 -140 140z" />
    <glyph glyph-name="ellipsis" unicode="&#x2026;" horiz-adv-x="898" 
d="M526 167v-167h-154v167h154zM206 167v-167h-154v167h154zM846 167v-167h-154v167h154z" />
    <glyph glyph-name="perthousand" unicode="&#x2030;" horiz-adv-x="1091" 
d="M807 282c25 29 61 44 108 44c93 0 146 -62 146 -171s-53 -171 -146 -171s-146 62 -146 171c0 55 13 97 38 127zM30 519c0 109 53 171 146 171s146 -62 146 -171s-53 -171 -146 -171s-146 62 -146 171zM712 155c0 -109 -53 -171 -146 -171s-146 62 -146 171
s53 171 146 171s146 -62 146 -171zM119 -30l420 734h84l-420 -734h-84zM139 448c9 -17 21 -25 37 -25c32 0 50 35 50 96s-18 96 -50 96s-50 -35 -50 -96c0 -31 4 -54 13 -71zM878 84c9 -17 21 -25 37 -25c32 0 50 35 50 96s-18 96 -50 96s-50 -35 -50 -96
c0 -31 4 -54 13 -71zM616 155c0 61 -18 96 -50 96s-50 -35 -50 -96s18 -96 50 -96s50 35 50 96z" />
    <glyph glyph-name="minute" unicode="&#x2032;" horiz-adv-x="215" 
d="M30 439l30 235h125l-67 -235h-88z" />
    <glyph glyph-name="second" unicode="&#x2033;" horiz-adv-x="399" 
d="M214 439l30 235h125l-67 -235h-88zM30 439l30 235h125l-67 -235h-88z" />
    <glyph glyph-name="guilsinglleft" unicode="&#x2039;" horiz-adv-x="324" 
d="M44 254l114 200h122l-108 -200l108 -200h-122z" />
    <glyph glyph-name="guilsinglright" unicode="&#x203a;" horiz-adv-x="324" 
d="M152 254l-108 200h122l114 -200l-114 -200h-122z" />
    <glyph glyph-name="exclamdbl" unicode="&#x203c;" horiz-adv-x="574" 
d="M108 198l-31 514h170l-31 -514h-108zM327 712h170l-31 -514h-108zM85 0v132h154v-132h-154zM489 132v-132h-154v132h154z" />
    <glyph glyph-name="uni203D" unicode="&#x203d;" horiz-adv-x="547" 
d="M488 365c-15 -26 -44 -53 -86 -80c-32 -21 -53 -38 -63 -50c-11 -12 -16 -28 -16 -49h-119c-1 6 -1 14 -1 25c2 77 13 93 95 154c27 20 45 36 54 49c8 13 12 29 12 49c0 45 -31 74 -87 74c-65 0 -98 -28 -101 -92h-146c3 112 60 182 164 205l-3 62h162l-4 -61
c103 -21 161 -89 161 -188c0 -40 -7 -73 -22 -98zM339 132v-132h-154v132h154z" />
    <glyph glyph-name="uni203E" unicode="&#x203e;" horiz-adv-x="500" 
d="M500 869v-91h-500v91h500z" />
    <glyph glyph-name="fraction" unicode="&#x2044;" horiz-adv-x="148" 
d="M213 674h91l-369 -674h-91z" />
    <glyph glyph-name="uni2070" unicode="&#x2070;" horiz-adv-x="469" 
d="M84 383c-35 43 -53 104 -53 183c0 157 72 247 204 247c129 0 203 -90 203 -247c0 -159 -74 -247 -203 -247c-66 0 -116 21 -151 64zM157 566c0 -97 27 -153 78 -153c49 0 76 56 76 153s-27 152 -76 152c-51 0 -78 -55 -78 -152z" />
    <glyph glyph-name="uni2074" unicode="&#x2074;" horiz-adv-x="449" 
d="M362 802v-283h76v-92h-76v-97h-121v97h-230v97l190 278h161zM245 519v52c0 43 2 91 5 144h-1c-25 -42 -53 -85 -84 -130l-46 -66h126z" />
    <glyph glyph-name="uni2075" unicode="&#x2075;" horiz-adv-x="452" 
d="M390 703h-224l-9 -92h2c24 23 59 35 96 35c48 0 87 -14 118 -43c30 -29 45 -67 45 -113c0 -52 -18 -93 -53 -124c-36 -31 -83 -47 -141 -47c-116 0 -190 55 -190 146h124c1 -33 28 -53 65 -53c44 0 69 25 69 72c0 45 -27 72 -68 72c-33 0 -55 -18 -63 -45l-121 7l27 284
h323v-99z" />
    <glyph glyph-name="uni2076" unicode="&#x2076;" horiz-adv-x="448" 
d="M396 399c-32 -51 -92 -80 -167 -80c-127 0 -198 81 -198 236c0 163 77 258 208 258c103 0 168 -53 175 -145h-125c-4 35 -23 53 -56 53c-53 0 -81 -43 -84 -129h2c27 30 64 45 110 45c47 0 85 -14 115 -42c29 -28 44 -64 44 -109c0 -33 -8 -62 -24 -87zM183 432
c12 -13 28 -19 47 -19c39 0 65 27 65 68s-25 69 -65 69c-39 0 -65 -27 -65 -70c0 -20 6 -36 18 -48z" />
    <glyph glyph-name="uni2077" unicode="&#x2077;" horiz-adv-x="400" 
d="M11 802h378v-99c-72 -99 -128 -234 -153 -373h-134c16 73 39 143 70 209c30 65 62 119 96 160h-257v103z" />
    <glyph glyph-name="uni2078" unicode="&#x2078;" horiz-adv-x="451" 
d="M368 356c-35 -25 -83 -37 -143 -37c-120 0 -194 52 -194 139c0 59 39 103 99 116v2c-55 15 -89 54 -89 105c0 40 17 72 51 96s78 36 133 36s99 -12 133 -36s51 -56 51 -96c0 -51 -34 -90 -89 -105v-2c60 -13 100 -57 100 -116c0 -43 -17 -77 -52 -102zM174 428
c13 -11 30 -16 51 -16c44 0 71 22 71 57s-27 57 -71 57c-43 0 -71 -22 -71 -57c0 -17 7 -31 20 -41zM176 631c12 -10 28 -15 49 -15c41 0 67 21 67 54c0 31 -26 51 -67 51s-67 -20 -67 -51c0 -17 6 -30 18 -39z" />
    <glyph glyph-name="uni2079" unicode="&#x2079;" horiz-adv-x="448" 
d="M417 577c0 -163 -77 -258 -208 -258c-103 0 -168 53 -175 145h125c4 -35 23 -53 56 -53c53 0 81 43 84 129h-2c-27 -30 -63 -45 -110 -45s-85 14 -114 42c-30 28 -45 64 -45 109c0 99 78 167 191 167c127 0 198 -81 198 -236zM153 651c0 -41 25 -69 65 -69
c39 0 65 29 65 70c0 40 -26 67 -65 67s-65 -27 -65 -68z" />
    <glyph glyph-name="uni207A" unicode="&#x207a;" horiz-adv-x="413" 
d="M45 598h114v111h95v-111h114v-93h-114v-111h-95v111h-114v93z" />
    <glyph glyph-name="uni207B" unicode="&#x207b;" horiz-adv-x="413" 
d="M368 598v-93h-323v93h323z" />
    <glyph glyph-name="uni207C" unicode="&#x207c;" horiz-adv-x="413" 
d="M45 435v89h323v-89h-323zM45 579v89h323v-89h-323z" />
    <glyph glyph-name="uni207D" unicode="&#x207d;" horiz-adv-x="251" 
d="M29 538c0 116 32 212 104 311h97c-52 -109 -73 -203 -73 -311s21 -200 73 -311h-97c-72 100 -104 195 -104 311z" />
    <glyph glyph-name="uni207E" unicode="&#x207e;" horiz-adv-x="251" 
d="M118 849c72 -100 104 -195 104 -311s-32 -212 -104 -311h-97c52 109 73 203 73 311s-21 200 -73 311h97z" />
    <glyph glyph-name="uni2080" unicode="&#x2080;" horiz-adv-x="469" 
d="M84 -119c-35 43 -53 104 -53 183c0 157 72 247 204 247c129 0 203 -90 203 -247c0 -159 -74 -247 -203 -247c-66 0 -116 21 -151 64zM157 64c0 -97 27 -153 78 -153c49 0 76 56 76 153s-27 152 -76 152c-51 0 -78 -55 -78 -152z" />
    <glyph glyph-name="uni2081" unicode="&#x2081;" horiz-adv-x="326" 
d="M10 218c89 0 130 23 141 82h111v-472h-124v301h-128v89z" />
    <glyph glyph-name="uni2082" unicode="&#x2082;" horiz-adv-x="458" 
d="M425 -172h-389c-1 5 -1 12 -1 23c0 50 10 91 30 123c20 33 57 63 110 91c80 41 110 64 110 104c0 28 -20 47 -55 47c-42 0 -64 -23 -65 -69h-124c1 105 72 164 189 164c55 0 100 -13 133 -39s50 -60 50 -102c0 -76 -43 -117 -127 -158c-41 -20 -69 -36 -82 -48
c-14 -11 -22 -24 -23 -37h244v-99z" />
    <glyph glyph-name="uni2083" unicode="&#x2083;" horiz-adv-x="452" 
d="M418 -41c0 -87 -74 -142 -189 -142c-129 0 -200 59 -200 168h125c0 -48 26 -73 75 -73c39 0 65 20 65 51c0 37 -29 56 -87 56h-14v92h16c49 0 80 21 80 54c0 31 -24 51 -63 51c-45 0 -67 -23 -67 -70h-123c0 104 71 165 192 165c113 0 184 -51 184 -134
c0 -52 -26 -83 -85 -104v-2c63 -20 91 -55 91 -112z" />
    <glyph glyph-name="uni2084" unicode="&#x2084;" horiz-adv-x="449" 
d="M361 300v-283h76v-92h-76v-97h-121v97h-230v97l190 278h161zM244 17v52c0 43 2 91 5 144h-1c-25 -42 -53 -85 -84 -130l-46 -66h126z" />
    <glyph glyph-name="uni2085" unicode="&#x2085;" horiz-adv-x="452" 
d="M390 201h-224l-9 -92h2c24 23 59 35 96 35c48 0 87 -14 118 -43c30 -29 45 -67 45 -113c0 -52 -18 -94 -53 -125c-36 -31 -83 -46 -141 -46c-116 0 -190 55 -190 146h124c1 -33 28 -53 65 -53c44 0 69 25 69 72c0 45 -27 72 -68 72c-33 0 -55 -18 -63 -45l-121 7l27 284
h323v-99z" />
    <glyph glyph-name="uni2086" unicode="&#x2086;" horiz-adv-x="448" 
d="M396 -103c-32 -51 -92 -80 -167 -80c-127 0 -198 81 -198 236c0 163 77 258 208 258c103 0 168 -53 175 -145h-125c-4 35 -23 53 -56 53c-53 0 -81 -43 -84 -129h2c27 30 64 45 110 45c47 0 85 -14 115 -42c29 -28 44 -64 44 -109c0 -33 -8 -62 -24 -87zM183 -71
c12 -12 28 -18 47 -18c39 0 65 27 65 68s-25 69 -65 69c-39 0 -65 -27 -65 -70c0 -20 6 -36 18 -49z" />
    <glyph glyph-name="uni2087" unicode="&#x2087;" horiz-adv-x="400" 
d="M10 300h378v-99c-72 -99 -128 -234 -153 -373h-134c16 73 39 143 70 209c30 65 62 119 96 160h-257v103z" />
    <glyph glyph-name="uni2088" unicode="&#x2088;" horiz-adv-x="451" 
d="M368 -146c-35 -25 -83 -37 -143 -37c-120 0 -194 52 -194 139c0 59 39 103 99 116v2c-55 15 -89 54 -89 105c0 40 17 72 51 96s78 36 133 36s99 -12 133 -36s51 -56 51 -96c0 -51 -34 -90 -89 -105v-2c60 -13 100 -57 100 -116c0 -43 -17 -77 -52 -102zM174 -75
c13 -10 30 -15 51 -15c44 0 71 22 71 57s-27 57 -71 57c-43 0 -71 -22 -71 -57c0 -17 7 -31 20 -42zM176 129c12 -10 28 -15 49 -15c41 0 67 21 67 54c0 31 -26 51 -67 51s-67 -20 -67 -51c0 -17 6 -30 18 -39z" />
    <glyph glyph-name="uni2089" unicode="&#x2089;" horiz-adv-x="448" 
d="M417 75c0 -163 -77 -258 -208 -258c-103 0 -168 53 -175 145h125c4 -35 23 -53 56 -53c53 0 81 43 84 129h-2c-27 -30 -63 -45 -110 -45s-85 14 -114 42c-30 28 -45 64 -45 109c0 99 78 167 191 167c127 0 198 -81 198 -236zM153 149c0 -41 25 -69 65 -69
c39 0 65 29 65 70c0 40 -26 67 -65 67s-65 -27 -65 -68z" />
    <glyph glyph-name="uni208A" unicode="&#x208a;" horiz-adv-x="413" 
d="M45 96h114v111h95v-111h114v-93h-114v-111h-95v111h-114v93z" />
    <glyph glyph-name="uni208B" unicode="&#x208b;" horiz-adv-x="413" 
d="M368 96v-93h-323v93h323z" />
    <glyph glyph-name="uni208C" unicode="&#x208c;" horiz-adv-x="413" 
d="M45 -67v89h323v-89h-323zM45 77v89h323v-89h-323z" />
    <glyph glyph-name="uni208D" unicode="&#x208d;" horiz-adv-x="251" 
d="M29 36c0 116 32 212 104 311h97c-52 -109 -73 -203 -73 -311s21 -200 73 -311h-97c-72 100 -104 195 -104 311z" />
    <glyph glyph-name="uni208E" unicode="&#x208e;" horiz-adv-x="251" 
d="M118 347c72 -100 104 -195 104 -311s-32 -212 -104 -311h-97c52 109 73 203 73 311s-21 200 -73 311h97z" />
    <glyph glyph-name="uni2099" unicode="&#x2099;" horiz-adv-x="446" 
d="M160 184v-43h1c27 35 62 52 107 52c84 0 134 -51 134 -146v-219h-120v205c0 44 -18 67 -53 67c-39 0 -61 -30 -61 -89v-183h-120v356h112z" />
    <glyph glyph-name="franc" unicode="&#x20a3;" 
d="M573 548h-324v-126h299v-126h-299v-92h164v-107h-164v-97h-147v97h-78v107h78v470h471v-126z" />
    <glyph glyph-name="lira" unicode="&#x20a4;" 
d="M572 473h-141c0 63 -29 97 -81 97c-59 0 -89 -40 -89 -119v-36h122v-70h-122v-40h122v-70h-122c-3 -61 -19 -94 -62 -117v-2h366v-116h-541v118c57 0 87 33 90 117h-90v70h90v40h-90v70h90v36c0 160 81 239 236 239c139 0 222 -82 222 -217z" />
    <glyph glyph-name="peseta" unicode="&#x20a7;" horiz-adv-x="895" 
d="M870 3c-21 -7 -46 -10 -74 -10c-117 0 -168 48 -168 165v246h-49c-16 -119 -106 -190 -258 -190h-92v-214h-147v674h239c141 0 230 -62 254 -166h53v132h140v-132h97v-104h-97v-221c0 -56 18 -78 66 -78c14 0 26 2 36 5v-107zM229 336h72c87 0 131 36 131 108
s-44 108 -131 108h-72v-216z" />
    <glyph glyph-name="Euro" unicode="&#x20ac;" 
d="M583 467h-138c-11 65 -49 104 -110 104c-71 0 -117 -51 -133 -148h219l-13 -70h-212v-40h204l-13 -70h-183c16 -92 60 -140 128 -140c61 0 102 40 113 107h141c-6 -70 -32 -125 -77 -165c-45 -41 -104 -61 -177 -61c-152 0 -247 91 -271 259h-60l13 70h40v40h-53l13 70
h45c24 172 120 267 276 267c147 0 239 -84 248 -223z" />
    <glyph glyph-name="uni20B9" unicode="&#x20b9;" 
d="M549 434h-88c-16 -68 -71 -113 -158 -129v-2c45 -17 78 -52 113 -123l88 -180h-168l-78 170c-33 73 -74 103 -137 103h-16v93h47c72 0 121 25 141 68h-265l24 86h247c-15 45 -61 68 -138 68h-133l24 86h521l-24 -86h-150v-2c31 -13 51 -35 60 -66h114z" />
    <glyph glyph-name="uni20BA" unicode="&#x20ba;" 
d="M494 76c-59 -56 -144 -84 -254 -84c-47 0 -93 3 -140 8v243l-87 -47v90l87 47v67l-87 -47v90l87 47v184h147v-113l166 90v-90l-166 -90v-67l166 90v-90l-166 -90v-193c119 0 184 69 184 201h152c0 -108 -30 -190 -89 -246z" />
    <glyph glyph-name="uni20BC" unicode="&#x20bc;" horiz-adv-x="716" 
d="M676 0h-132v294c0 133 -32 189 -120 198v-492h-132v492c-87 -9 -120 -66 -120 -198v-294h-132v298c0 208 80 306 252 321v93h132v-93c172 -15 252 -113 252 -321v-298z" />
    <glyph glyph-name="uni20BD" unicode="&#x20bd;" 
d="M518 311c-41 -37 -101 -56 -179 -56h-104v-54h181v-106h-181v-95h-147v95h-79v106h79v54h-79v112h79v307h251c156 0 240 -80 240 -209c0 -65 -20 -117 -61 -154zM318 367c73 0 110 33 110 98c0 61 -34 97 -110 97h-83v-195h83z" />
    <glyph glyph-name="afii61248" unicode="&#x2105;" horiz-adv-x="946" 
d="M870 311c35 -35 52 -81 52 -138c0 -116 -75 -189 -194 -189s-194 73 -194 189c0 57 18 103 53 138c35 34 82 51 141 51s107 -17 142 -51zM76 639c35 34 81 51 139 51c103 0 175 -59 183 -148h-124c-3 35 -25 57 -58 57c-40 0 -66 -37 -66 -97c0 -63 26 -100 67 -100
c31 0 55 26 56 65h125c-7 -95 -78 -155 -183 -155c-58 0 -104 17 -139 52c-35 34 -52 80 -52 138c0 57 17 103 52 137zM604 674h91l-369 -674h-91zM778 101c12 17 18 41 18 72c0 61 -25 98 -68 98s-68 -37 -68 -98s27 -99 68 -99c21 0 37 9 50 27z" />
    <glyph glyph-name="afii61289" unicode="&#x2113;" horiz-adv-x="450" 
d="M397 493c0 -159 -65 -253 -174 -289v-36c0 -55 20 -79 68 -79c15 0 30 2 47 7v-95c-26 -7 -54 -11 -83 -11c-117 0 -171 55 -171 175v22c-19 1 -36 3 -49 6v77c15 -3 31 -5 49 -6v203c0 170 49 223 155 223c95 0 158 -61 158 -197zM223 497v-206c61 37 91 104 91 202
c0 72 -16 108 -49 108c-31 0 -42 -23 -42 -104z" />
    <glyph glyph-name="afii61352" unicode="&#x2116;" horiz-adv-x="1183" 
d="M291 712l138 -289c51 -107 94 -205 130 -294h2c-5 110 -8 213 -8 309v274h141v-712h-209l-138 289c-51 107 -94 205 -130 294h-2c5 -110 8 -213 8 -309v-274h-141v712h209zM771 432c0 57 18 103 53 138c35 34 82 51 141 51s107 -17 142 -51c35 -35 52 -81 52 -138
c0 -116 -75 -189 -194 -189s-194 73 -194 189zM788 194h351v-105h-351v105zM1033 432c0 61 -25 98 -68 98s-68 -37 -68 -98s27 -99 68 -99s68 38 68 99z" />
    <glyph glyph-name="uni2117" unicode="&#x2117;" horiz-adv-x="802" 
d="M716 550c30 -56 45 -121 45 -194c2 -219 -147 -373 -360 -370c-213 -3 -362 151 -360 370c-2 219 147 373 360 370c143 0 255 -64 315 -176zM670 521c-52 95 -148 150 -269 150c-183 0 -306 -127 -306 -315s123 -315 306 -315s307 127 307 315c0 63 -13 118 -38 165z
M606 429c0 -92 -58 -148 -170 -148h-84v-155h-94v451h178c112 0 170 -56 170 -148zM352 360h71c57 0 86 23 86 69c0 44 -27 70 -86 70h-71v-139z" />
    <glyph glyph-name="trademark" unicode="&#x2122;" horiz-adv-x="829" 
d="M788 356h-90v163c0 43 1 86 3 129h-2l-30 -127l-41 -165h-114l-41 165l-30 127h-2c2 -43 3 -86 3 -129v-163h-90v356h152l36 -141c12 -48 21 -92 28 -131h2c7 39 16 83 28 131l36 141h152v-356zM5 629v83h311v-83h-106v-273h-99v273h-106z" />
    <glyph glyph-name="uni2126" unicode="&#x2126;" horiz-adv-x="734" 
d="M703 0h-286v130c79 80 123 155 123 262c0 133 -68 206 -173 206s-173 -73 -173 -206c0 -107 44 -182 123 -262v-130h-286v124h150v2c-88 88 -139 172 -139 288c0 103 30 181 89 234s137 80 236 80s178 -27 237 -80s88 -131 88 -234c0 -116 -51 -200 -139 -288v-2h150
v-124z" />
    <glyph glyph-name="estimated" unicode="&#x212e;" horiz-adv-x="863" 
d="M740 123c-27 -37 -66 -69 -118 -95c-52 -27 -115 -40 -190 -40c-227 -2 -388 149 -385 349c-3 199 151 356 385 353c236 4 385 -168 383 -362h-612c-8 0 -14 -6 -14 -13v-167c0 -21 4 -32 16 -44c62 -61 138 -91 227 -91c96 0 186 45 239 110h69zM189 362
c0 -7 6 -12 14 -12h456c8 0 13 5 13 12v167c0 20 -3 30 -15 41c-63 63 -138 94 -225 94c-89 0 -164 -31 -227 -94c-12 -11 -16 -21 -16 -41v-167z" />
    <glyph glyph-name="oneeighth" unicode="&#x215b;" horiz-adv-x="822" 
d="M742 382c29 -21 44 -49 44 -84c0 -43 -29 -76 -77 -87v-2c53 -9 87 -48 87 -97c0 -76 -65 -122 -173 -122s-172 45 -172 122c0 49 35 86 88 97v2c-48 11 -78 44 -78 87c0 69 66 116 162 116c49 0 89 -11 119 -32zM490 674h91l-369 -674h-91zM9 603c67 0 102 24 114 71
h106v-404h-117v252h-103v81zM667 87c11 8 16 19 16 33c0 28 -24 46 -60 46c-35 0 -58 -18 -58 -46s22 -46 58 -46c19 0 33 4 44 13zM623 332c-33 0 -55 -17 -55 -42s22 -43 55 -43c35 0 57 16 57 43c0 25 -22 42 -57 42z" />
    <glyph glyph-name="threeeighths" unicode="&#x215c;" horiz-adv-x="945" 
d="M598 175c16 17 37 29 64 34v2c-48 11 -78 44 -78 87c0 69 66 116 162 116c99 0 163 -47 163 -116c0 -43 -29 -76 -77 -87v-2c53 -9 87 -48 87 -97c0 -76 -65 -122 -173 -122s-172 45 -172 122c0 25 8 46 24 63zM25 404h114c0 -39 21 -58 64 -58c33 0 56 16 56 41
c0 29 -25 45 -72 45h-14v82h13c43 0 69 18 69 46c0 23 -22 39 -55 39c-37 0 -58 -20 -58 -55h-111c0 88 64 140 169 140c101 0 166 -45 166 -116c0 -44 -22 -69 -74 -88v-1c55 -17 79 -47 79 -98c0 -76 -63 -121 -168 -121c-113 0 -178 51 -178 144zM704 674l-369 -674h-91
l369 674h91zM688 120c0 -28 22 -46 58 -46c37 0 60 18 60 46s-24 46 -60 46c-35 0 -58 -18 -58 -46zM706 259c10 -8 23 -12 40 -12c35 0 57 16 57 43c0 25 -22 42 -57 42c-33 0 -55 -17 -55 -42c0 -13 5 -23 15 -31z" />
    <glyph glyph-name="fiveeighths" unicode="&#x215d;" horiz-adv-x="944" 
d="M619 22c-31 21 -46 51 -46 90c0 49 35 86 88 97v2c-48 11 -78 44 -78 87c0 69 66 116 162 116c99 0 163 -47 163 -116c0 -43 -29 -76 -77 -87v-2c53 -9 87 -48 87 -97c0 -76 -65 -122 -173 -122c-54 0 -96 11 -126 32zM145 387c1 -28 22 -44 54 -44c37 0 59 23 59 60
c0 36 -22 58 -57 58c-31 0 -50 -14 -55 -38l-111 7l24 244h287v-90h-196l-8 -71h2c21 19 50 28 85 28c84 0 142 -56 142 -137c0 -87 -68 -144 -171 -144c-104 0 -170 48 -170 127h115zM703 674l-369 -674h-91l369 674h91zM703 87c10 -9 24 -13 42 -13c37 0 60 18 60 46
s-24 46 -60 46c-35 0 -58 -18 -58 -46c0 -14 5 -25 16 -33zM705 259c10 -8 23 -12 40 -12c35 0 57 16 57 43c0 25 -22 42 -57 42c-33 0 -55 -17 -55 -42c0 -13 5 -23 15 -31z" />
    <glyph glyph-name="seveneighths" unicode="&#x215e;" horiz-adv-x="848" 
d="M768 382c29 -21 44 -49 44 -84c0 -43 -29 -76 -77 -87v-2c53 -9 87 -48 87 -97c0 -76 -65 -122 -173 -122s-172 45 -172 122c0 49 35 86 88 97v2c-48 11 -78 44 -78 87c0 69 66 116 162 116c49 0 89 -11 119 -32zM9 674h334v-89c-61 -81 -109 -196 -133 -315h-122
c13 61 33 120 60 175c26 55 54 101 84 138h-223v91zM147 0l369 674h91l-369 -674h-91zM693 87c11 8 16 19 16 33c0 28 -24 46 -60 46c-35 0 -58 -18 -58 -46s22 -46 58 -46c19 0 33 4 44 13zM691 259c10 7 15 18 15 31c0 25 -22 42 -57 42c-33 0 -55 -17 -55 -42
s22 -43 55 -43c17 0 31 4 42 12z" />
    <glyph glyph-name="uni2166" unicode="&#x2166;" horiz-adv-x="1240" 
d="M156 712l85 -277c31 -97 56 -194 77 -291h2c19 85 44 182 77 291l85 277h150l-221 -712h-184l-221 712h150zM700 0v712h147v-712h-147zM1158 0h-147v712h147v-712z" />
    <glyph glyph-name="partialdiff" unicode="&#x2202;" horiz-adv-x="625" 
d="M524 157c-48 -119 -134 -173 -239 -173c-79 0 -140 22 -183 66s-64 102 -64 175c0 146 93 254 246 254c60 0 106 -21 134 -52h2c1 5 1 12 1 23c0 97 -56 161 -128 161c-51 0 -80 -25 -87 -75h-145c12 119 88 192 224 192c180 0 274 -121 274 -348
c0 -90 -12 -164 -35 -223zM183 224c0 -77 38 -123 107 -123c72 0 118 57 118 144c0 80 -41 129 -109 129c-71 0 -116 -62 -116 -150z" />
    <glyph glyph-name="uni2206" unicode="&#x2206;" horiz-adv-x="698" 
d="M252 712h198l245 -712h-692zM499 126l-70 221c-29 92 -55 185 -80 278h-2c-21 -81 -48 -174 -81 -278l-71 -221h304z" />
    <glyph glyph-name="product" unicode="&#x220f;" horiz-adv-x="679" 
d="M82 712h515v-832h-146v706h-222v-706h-147v832z" />
    <glyph glyph-name="summation" unicode="&#x2211;" horiz-adv-x="515" 
d="M35 712h445v-128h-283l173 -289l-173 -286h283v-129h-445v129l176 286l-176 289v128z" />
    <glyph glyph-name="minus" unicode="&#x2212;" horiz-adv-x="566" 
d="M502 371v-109h-438v109h438z" />
    <glyph glyph-name="uni2215" unicode="&#x2215;" horiz-adv-x="488" 
d="M328 745h109l-298 -834h-109z" />
    <glyph glyph-name="uni2219" unicode="&#x2219;" horiz-adv-x="362" 
d="M258 389v-167h-154v167h154z" />
    <glyph glyph-name="radical" unicode="&#x221a;" horiz-adv-x="641" 
d="M25 265v112h177l91 -380h2l204 715h122l-238 -832h-185l-90 385h-83z" />
    <glyph glyph-name="infinity" unicode="&#x221e;" horiz-adv-x="674" 
d="M616 185c-29 -31 -67 -47 -114 -47c-72 0 -121 35 -165 91c-45 -57 -93 -91 -165 -91c-95 0 -157 67 -157 170s62 170 157 170c72 0 120 -34 165 -91c44 56 93 91 165 91c95 0 157 -67 157 -170c0 -51 -14 -92 -43 -123zM393 308c32 -44 60 -68 97 -68c40 0 64 27 64 68
s-24 68 -64 68c-37 0 -65 -24 -97 -68zM120 308c0 -41 24 -68 64 -68c37 0 64 24 96 68c-32 44 -59 68 -96 68c-40 0 -64 -27 -64 -68z" />
    <glyph glyph-name="integral" unicode="&#x222b;" horiz-adv-x="352" 
d="M33 -89c51 0 74 23 74 79v564c0 111 59 166 168 166c23 0 46 -3 69 -8v-99c-6 2 -14 3 -25 3c-51 0 -74 -23 -74 -79v-564c0 -111 -59 -166 -168 -166c-23 0 -46 3 -69 8v99c6 -2 14 -3 25 -3z" />
    <glyph glyph-name="approxequal" unicode="&#x2248;" horiz-adv-x="566" 
d="M97 466c24 30 56 45 97 45c39 0 65 -16 105 -44c29 -21 48 -33 69 -33c32 0 52 25 52 64h86c0 -100 -53 -166 -134 -166c-39 0 -66 16 -105 44c-32 23 -49 33 -69 33c-33 0 -52 -24 -52 -64h-86c0 50 12 90 37 121zM420 289h86c0 -100 -53 -166 -134 -166
c-39 0 -66 16 -105 44c-32 23 -49 33 -69 33c-32 0 -52 -25 -52 -64h-86c0 100 53 166 134 166c39 0 65 -16 105 -44c29 -21 48 -33 69 -33c33 0 52 24 52 64z" />
    <glyph glyph-name="notequal" unicode="&#x2260;" horiz-adv-x="566" 
d="M502 167h-255l-67 -117h-98l67 117h-85v109h146l47 81h-193v109h254l67 117h99l-67 -117h85v-109h-147l-46 -81h193v-109z" />
    <glyph glyph-name="lessequal" unicode="&#x2264;" horiz-adv-x="566" 
d="M64 277v134l438 148v-110l-309 -104v-2l309 -104v-110zM64 0v105h438v-105h-438z" />
    <glyph glyph-name="greaterequal" unicode="&#x2265;" horiz-adv-x="566" 
d="M373 343v2l-309 104v110l438 -148v-134l-438 -148v110zM64 0v105h438v-105h-438z" />
    <glyph glyph-name="lozenge" unicode="&#x25ca;" horiz-adv-x="644" 
d="M229 712h186l189 -356l-189 -356h-186l-189 356zM322 100l138 256l-138 256l-138 -256z" />
    <glyph glyph-name="uniF8FF" unicode="&#xf8ff;" horiz-adv-x="642" 
 />
    <glyph glyph-name="uniFB00" unicode="&#xfb00;" horiz-adv-x="652" 
d="M642 613c-6 2 -14 3 -25 3c-51 0 -74 -23 -74 -79v-29h96v-104h-96v-404h-138v404h-173v-404h-138v404h-84v104h84v46c0 111 59 166 168 166c23 0 46 -3 69 -8v-99c-6 2 -14 3 -25 3c-51 0 -74 -23 -74 -79v-29h173v46c0 111 59 166 168 166c23 0 46 -3 69 -8v-99z" />
    <glyph glyph-name="uniFB01" unicode="&#xfb01;" horiz-adv-x="617" 
d="M10 404v104h84v46c0 111 59 166 168 166c23 0 46 -3 69 -8v-99c-6 2 -14 3 -25 3c-51 0 -74 -23 -74 -79v-29h96v-104h-96v-404h-138v404h-84zM549 0h-140v508h140v-508zM409 712h140v-120h-140v120z" />
    <glyph glyph-name="uniFB02" unicode="&#xfb02;" horiz-adv-x="617" 
d="M94 508v46c0 111 59 166 168 166c23 0 46 -3 69 -8v-99c-6 2 -14 3 -25 3c-51 0 -74 -23 -74 -79v-29h96v-104h-96v-404h-138v404h-84v104h84zM549 0h-140v712h140v-712z" />
    <glyph glyph-name="uniFB03" unicode="&#xfb03;" horiz-adv-x="928" 
d="M94 508v46c0 111 59 166 168 166c23 0 46 -3 69 -8v-99c-6 2 -14 3 -25 3c-51 0 -74 -23 -74 -79v-29h173v46c0 111 59 166 168 166c23 0 46 -3 69 -8v-99c-6 2 -14 3 -25 3c-51 0 -74 -23 -74 -79v-29h96v-104h-96v-404h-138v404h-173v-404h-138v404h-84v104h84z
M720 508h140v-508h-140v508zM860 712v-120h-140v120h140z" />
    <glyph glyph-name="uniFB04" unicode="&#xfb04;" horiz-adv-x="928" 
d="M642 613c-6 2 -14 3 -25 3c-51 0 -74 -23 -74 -79v-29h96v-104h-96v-404h-138v404h-173v-404h-138v404h-84v104h84v46c0 111 59 166 168 166c23 0 46 -3 69 -8v-99c-6 2 -14 3 -25 3c-51 0 -74 -23 -74 -79v-29h173v46c0 111 59 166 168 166c23 0 46 -3 69 -8v-99z
M860 712v-712h-140v712h140z" />
    <glyph glyph-name="uniFEFF" unicode="&#xfeff;" horiz-adv-x="0" 
 />
    <glyph glyph-name="glyph202" horiz-adv-x="392" 
d="M62 121c74 0 106 27 106 137v454h147v-485c0 -161 -72 -234 -235 -234c-25 0 -47 3 -65 8v125c18 -3 34 -5 47 -5zM234 916h173l-140 -146h-110z" />
    <glyph glyph-name="Ccedilla.salt" horiz-adv-x="701" 
d="M658 465h-148c-9 83 -64 133 -147 133c-108 0 -174 -91 -174 -242s64 -242 171 -242c84 0 139 49 150 136h151c-7 -84 -37 -149 -90 -196s-124 -70 -211 -70c-199 0 -323 142 -323 372c0 229 125 372 326 372c175 0 289 -107 295 -263zM316 -49h120l-97 -168h-163z" />
    <glyph glyph-name="Scedilla.salt" horiz-adv-x="630" 
d="M461 12c-42 -19 -90 -28 -145 -28c-180 0 -288 90 -288 250h152c0 -87 47 -131 138 -131c75 0 123 35 123 91c0 40 -21 62 -58 75c-19 7 -48 15 -89 26c-58 15 -104 29 -138 43s-62 35 -84 64c-23 28 -34 66 -34 115c0 125 107 211 263 211c177 0 270 -81 270 -234h-149
c0 75 -44 117 -124 117c-65 0 -109 -31 -109 -78c4 -55 34 -70 155 -101c55 -14 100 -28 134 -42c34 -15 62 -36 84 -65c21 -29 32 -67 32 -116c0 -89 -49 -160 -133 -197zM121 -217l140 168h120l-97 -168h-163z" />
    <glyph glyph-name="Tcommaaccent.salt" horiz-adv-x="615" 
d="M10 586v126h595v-126h-224v-586h-147v586h-224zM261 -49h120l-97 -168h-163z" />
    <glyph glyph-name="i.locl" horiz-adv-x="276" 
d="M68 0v508h140v-508h-140zM68 592v120h140v-120h-140z" />
    <glyph glyph-name="glyph314" horiz-adv-x="278" 
d="M-5 -84c52 0 75 23 75 94v498h140v-519c0 -123 -66 -179 -173 -179c-25 0 -48 3 -69 8v101c8 -2 17 -3 27 -3zM55 566l77 146h173l-140 -146h-110z" />
    <glyph glyph-name="ccedilla.salt" horiz-adv-x="562" 
d="M531 319h-146c-5 60 -42 97 -95 97c-68 0 -109 -62 -109 -162s41 -162 109 -162c53 0 90 40 94 107h147c-5 -65 -30 -117 -73 -156s-99 -59 -167 -59c-155 0 -256 108 -256 270s101 270 256 270c134 0 230 -85 240 -205zM104 -217l140 168h120l-97 -168h-163z" />
    <glyph glyph-name="scedilla.salt" horiz-adv-x="524" 
d="M470 352h-134c0 49 -27 74 -80 74c-44 0 -69 -18 -69 -47c5 -38 22 -41 109 -65c43 -11 76 -22 101 -32s46 -26 64 -48c17 -22 26 -52 26 -91c0 -48 -20 -86 -60 -115c-41 -30 -95 -44 -164 -44c-144 0 -228 61 -228 181h142c0 -51 32 -80 89 -80c48 0 74 18 74 49
c0 28 -17 44 -45 54c-15 5 -39 11 -72 20c-40 11 -71 21 -93 30c-23 9 -42 23 -58 44c-17 21 -25 49 -25 86c0 91 86 156 210 156c135 0 213 -60 213 -172zM74 -217l140 168h120l-97 -168h-163z" />
    <glyph glyph-name="tcommaaccent.salt" horiz-adv-x="357" 
d="M332 3c-21 -7 -46 -10 -74 -10c-117 0 -168 48 -168 165v246h-82v104h82v132h140v-132h97v-104h-97v-221c0 -56 18 -78 66 -78c14 0 26 2 36 5v-107zM152 -49h120l-97 -168h-163z" />
    <glyph glyph-name="a.superior" horiz-adv-x="412" 
d="M378 330h-108c-4 14 -6 29 -6 46h-1c-28 -37 -68 -55 -119 -55c-77 0 -126 46 -126 110c0 63 42 99 146 115c33 5 62 8 87 9v13c0 36 -17 54 -51 54c-32 0 -50 -17 -51 -49h-116c4 72 60 124 168 124c111 0 166 -50 166 -145v-121c0 -41 4 -75 11 -101zM149 410
c8 -7 19 -11 34 -11c22 0 39 6 50 18c15 15 18 30 18 61v13c-23 -1 -45 -4 -64 -8c-36 -7 -50 -20 -50 -44c0 -12 4 -22 12 -29z" />
    <glyph glyph-name="b.superior" horiz-adv-x="447" 
d="M422 508c0 -115 -62 -188 -155 -188c-43 0 -81 18 -102 53h-1v-43h-116v498h120v-180h2c21 31 59 48 99 48c93 0 153 -73 153 -188zM162 508c0 -60 26 -97 66 -97c41 0 69 38 69 97s-28 97 -69 97c-40 0 -66 -37 -66 -97z" />
    <glyph glyph-name="c.superior" horiz-adv-x="420" 
d="M344 361c-33 -28 -76 -42 -129 -42c-58 0 -104 17 -139 52c-35 34 -52 80 -52 138c0 57 17 103 52 137s81 51 139 51c103 0 175 -59 183 -148h-124c-3 35 -25 57 -58 57c-40 0 -66 -37 -66 -97c0 -63 26 -100 67 -100c31 0 55 26 56 65h125c-3 -47 -21 -85 -54 -113z" />
    <glyph glyph-name="d.superior" horiz-adv-x="447" 
d="M399 330h-116v43h-1c-21 -35 -59 -53 -102 -53c-93 0 -155 73 -155 188s60 188 153 188c40 0 78 -17 99 -48h2v180h120v-498zM150 508c0 -59 28 -97 69 -97c40 0 66 37 66 97s-26 97 -66 97c-41 0 -69 -38 -69 -97z" />
    <glyph glyph-name="e.superior" horiz-adv-x="426" 
d="M401 483h-259c3 -60 31 -84 71 -84c33 0 57 16 61 40h122c-16 -69 -86 -120 -182 -120c-59 0 -106 18 -139 53c-34 35 -51 81 -51 138c0 106 72 187 189 187c85 0 148 -42 175 -113c9 -27 13 -54 13 -101zM281 550c-5 47 -32 69 -68 69c-39 0 -62 -23 -69 -69h137z" />
    <glyph glyph-name="egrave.superior" horiz-adv-x="426" 
d="M401 483h-259c3 -60 31 -84 71 -84c33 0 57 16 61 40h122c-16 -69 -86 -120 -182 -120c-59 0 -106 18 -139 53c-34 35 -51 81 -51 138c0 106 72 187 189 187c85 0 148 -42 175 -113c9 -27 13 -54 13 -101zM212 828l72 -104h-106l-117 104h151zM144 550h137
c-5 47 -32 69 -68 69c-39 0 -62 -23 -69 -69z" />
    <glyph glyph-name="f.superior" horiz-adv-x="262" 
d="M255 746c-5 1 -11 2 -18 2c-36 0 -52 -15 -52 -51v-11h67v-87h-67v-269h-120v269h-58v87h58v24c0 83 46 125 133 125c21 0 40 -2 57 -7v-82z" />
    <glyph glyph-name="g.superior" horiz-adv-x="440" 
d="M392 354c0 -108 -65 -161 -184 -161c-101 0 -161 42 -168 115h116c1 -24 22 -38 54 -38c44 0 66 23 66 83v38h-2c-25 -34 -58 -51 -101 -51c-91 0 -149 69 -149 178s59 178 151 178c43 0 77 -19 104 -57h1v47h112v-332zM148 518c0 -53 25 -86 65 -86c41 0 66 34 66 86
s-25 86 -66 86c-40 0 -65 -33 -65 -86z" />
    <glyph glyph-name="h.superior" horiz-adv-x="446" 
d="M48 330v498h120v-177h2c24 29 57 44 98 44c84 0 134 -51 134 -146v-219h-120v205c0 44 -18 67 -53 67c-39 0 -61 -30 -61 -89v-183h-120z" />
    <glyph glyph-name="i.superior" horiz-adv-x="216" 
d="M48 330v356h120v-356h-120zM48 735v93h120v-93h-120z" />
    <glyph glyph-name="j.superior" horiz-adv-x="219" 
d="M-22 287c8 -1 14 -2 19 -2c37 0 54 17 54 68v333h120v-353c0 -93 -52 -136 -135 -136c-23 0 -42 2 -58 6v84zM51 735v93h120v-93h-120z" />
    <glyph glyph-name="k.superior" horiz-adv-x="412" 
d="M48 330v499h120v-282h2l97 139h139l-130 -167l143 -189h-147l-102 160h-2v-160h-120z" />
    <glyph glyph-name="l.superior" horiz-adv-x="216" 
d="M168 828v-498h-120v498h120z" />
    <glyph glyph-name="m.superior" horiz-adv-x="662" 
d="M618 330h-120v205c0 44 -17 67 -48 67c-36 0 -57 -31 -57 -92v-180h-120v210c0 41 -16 62 -48 62c-37 0 -57 -31 -57 -92v-180h-120v356h112v-41h2c26 33 60 50 103 50c51 0 87 -20 108 -61c29 41 68 61 117 61c80 0 128 -51 128 -146v-219z" />
    <glyph glyph-name="n.superior" horiz-adv-x="446" 
d="M160 686v-43h1c27 35 62 52 107 52c84 0 134 -51 134 -146v-219h-120v205c0 44 -18 67 -53 67c-39 0 -61 -30 -61 -89v-183h-120v356h112z" />
    <glyph glyph-name="o.superior" horiz-adv-x="438" 
d="M78 370c-35 34 -53 80 -53 138c0 57 18 103 53 138c35 34 82 51 141 51s107 -17 142 -51c35 -35 52 -81 52 -138c0 -116 -75 -189 -194 -189c-59 0 -106 17 -141 51zM151 508c0 -61 27 -99 68 -99s68 38 68 99s-25 98 -68 98s-68 -37 -68 -98z" />
    <glyph glyph-name="p.superior" horiz-adv-x="447" 
d="M381 371c-28 -34 -65 -51 -112 -51c-40 0 -78 16 -99 47h-2v-166h-120v485h116v-44h1c21 35 59 54 102 54c93 0 155 -73 155 -188c0 -57 -14 -103 -41 -137zM180 437c12 -17 28 -26 48 -26c41 0 69 38 69 97s-28 97 -69 97c-40 0 -66 -37 -66 -97c0 -30 6 -54 18 -71z
" />
    <glyph glyph-name="q.superior" horiz-adv-x="447" 
d="M399 201h-120v166h-2c-21 -31 -59 -47 -99 -47c-93 0 -153 73 -153 188s62 188 155 188c43 0 81 -19 102 -54h1v44h116v-485zM169 438c13 -18 29 -27 50 -27c40 0 66 37 66 97s-26 97 -66 97c-41 0 -69 -38 -69 -97c0 -29 6 -53 19 -70z" />
    <glyph glyph-name="r.superior" horiz-adv-x="305" 
d="M48 686h111v-49h2c25 37 58 54 103 54c13 0 25 -1 35 -4v-103c-11 3 -23 4 -37 4c-61 0 -94 -37 -94 -105v-153h-120v356z" />
    <glyph glyph-name="s.superior" horiz-adv-x="396" 
d="M370 433c0 -69 -64 -114 -169 -114c-115 0 -176 42 -176 127h121c0 -33 19 -49 56 -49c29 0 46 11 46 28c0 24 -17 31 -84 47c-57 15 -88 24 -112 53c-12 15 -18 35 -18 60c0 67 59 112 162 112s162 -40 162 -119h-115c0 29 -16 44 -48 44c-28 0 -42 -9 -42 -27
c0 -20 15 -26 75 -41c61 -16 97 -27 123 -58c13 -16 19 -37 19 -63z" />
    <glyph glyph-name="t.superior" horiz-adv-x="274" 
d="M256 332c-21 -5 -42 -8 -61 -8c-92 0 -131 35 -131 119v156h-58v87h58v96h119v-96h69v-87h-69v-127c0 -39 13 -53 46 -53c11 0 20 1 27 3v-90z" />
    <glyph glyph-name="u.superior" horiz-adv-x="446" 
d="M44 686h120v-205c0 -44 18 -67 53 -67c39 0 61 30 61 89v183h120v-356h-112v43h-1c-27 -35 -62 -52 -107 -52c-84 0 -134 51 -134 146v219z" />
    <glyph glyph-name="v.superior" horiz-adv-x="386" 
d="M-5 686h128l35 -128c15 -59 27 -109 34 -151h2c7 42 19 92 34 151l35 128h128l-118 -356h-160z" />
    <glyph glyph-name="w.superior" horiz-adv-x="613" 
d="M528 330h-164l-29 132c-9 43 -19 93 -28 149h-1c-8 -51 -17 -101 -27 -149l-30 -132h-164l-81 356h117l24 -130c11 -58 18 -108 22 -150h2c9 60 19 110 29 151l30 129h157l30 -129c12 -49 22 -99 30 -151h1c5 45 13 95 23 150l23 130h117z" />
    <glyph glyph-name="x.superior" horiz-adv-x="386" 
d="M118 513l-114 173h136l52 -101h2l52 101h136l-114 -173l122 -183h-137l-59 113h-2l-59 -113h-137z" />
    <glyph glyph-name="y.superior" horiz-adv-x="385" 
d="M270 342c-40 -111 -82 -146 -178 -146c-24 0 -44 2 -61 6v90c11 -3 23 -5 36 -5c35 0 56 16 56 44c0 13 -3 24 -20 69l-108 286h130l34 -119c16 -55 28 -105 37 -148h2c11 51 23 101 36 148l33 119h123z" />
    <glyph glyph-name="z.superior" horiz-adv-x="360" 
d="M20 425l166 167v2h-160v92h308v-95l-166 -167v-2h172v-92h-320v95z" />
    <glyph glyph-name="A.aalt" horiz-adv-x="586" 
d="M197 548h192l194 -548h-153l-33 107h-208l-33 -107h-153zM226 226h134l-10 34c-23 74 -42 139 -56 194h-2c-16 -65 -34 -130 -55 -194z" />
    <glyph glyph-name="Aacute.aalt" horiz-adv-x="586" 
d="M430 0l-33 107h-208l-33 -107h-153l194 548h192l194 -548h-153zM285 752h173l-140 -146h-110zM226 226h134l-10 34c-23 74 -42 139 -56 194h-2c-16 -65 -34 -130 -55 -194z" />
    <glyph glyph-name="Abreve.aalt" horiz-adv-x="586" 
d="M430 0l-33 107h-208l-33 -107h-153l194 548h192l194 -548h-153zM118 752h95c3 -40 33 -64 80 -64s77 24 80 64h95c-5 -96 -71 -151 -175 -151s-170 55 -175 151zM226 226h134l-10 34c-23 74 -42 139 -56 194h-2c-16 -65 -34 -130 -55 -194z" />
    <glyph glyph-name="Acircumflex.aalt" horiz-adv-x="586" 
d="M430 0l-33 107h-208l-33 -107h-153l194 548h192l194 -548h-153zM218 752h149l114 -146h-128l-60 76l-61 -76h-128zM226 226h134l-10 34c-23 74 -42 139 -56 194h-2c-16 -65 -34 -130 -55 -194z" />
    <glyph glyph-name="Adieresis.aalt" horiz-adv-x="586" 
d="M3 0l194 548h192l194 -548h-153l-33 107h-208l-33 -107h-153zM123 632v120h123v-120h-123zM463 632h-123v120h123v-120zM226 226h134l-10 34c-23 74 -42 139 -56 194h-2c-16 -65 -34 -130 -55 -194z" />
    <glyph glyph-name="Agrave.aalt" horiz-adv-x="586" 
d="M430 0l-33 107h-208l-33 -107h-153l194 548h192l194 -548h-153zM301 752l77 -146h-110l-140 146h173zM360 226l-10 34c-23 74 -42 139 -56 194h-2c-16 -65 -34 -130 -55 -194l-11 -34h134z" />
    <glyph glyph-name="Amacron.aalt" horiz-adv-x="586" 
d="M197 548h192l194 -548h-153l-33 107h-208l-33 -107h-153zM456 638h-326v91h326v-91zM226 226h134l-10 34c-23 74 -42 139 -56 194h-2c-16 -65 -34 -130 -55 -194z" />
    <glyph glyph-name="Aogonek.aalt" horiz-adv-x="586" 
d="M586 -184c-22 -9 -48 -13 -78 -13c-75 0 -113 32 -113 87c0 43 25 74 78 110h-43l-33 107h-208l-33 -107h-153l194 548h192l194 -548c-51 -35 -68 -60 -68 -88c0 -21 12 -31 35 -31c14 0 26 2 36 6v-71zM360 226l-10 34c-23 74 -42 139 -56 194h-2
c-16 -65 -34 -130 -55 -194l-11 -34h134z" />
    <glyph glyph-name="Aring.aalt" horiz-adv-x="586" 
d="M430 0l-33 107h-208l-33 -107h-153l194 548h192l194 -548h-153zM217 781c21 21 46 31 76 31s56 -10 77 -31s31 -47 31 -77s-10 -55 -31 -76s-47 -32 -77 -32s-55 11 -76 32s-32 46 -32 76s11 56 32 77zM226 226h134l-10 34c-23 74 -42 139 -56 194h-2
c-16 -65 -34 -130 -55 -194zM239 704c0 -29 25 -54 54 -54c31 0 54 25 54 54c0 31 -23 54 -54 54c-29 0 -54 -23 -54 -54z" />
    <glyph glyph-name="Atilde.aalt" horiz-adv-x="586" 
d="M3 0l194 548h192l194 -548h-153l-33 107h-208l-33 -107h-153zM447 653c-21 -24 -49 -36 -84 -36c-32 0 -53 10 -82 27c-24 13 -35 19 -52 19c-28 0 -42 -14 -46 -46h-78c4 84 47 135 118 135c32 0 54 -10 83 -27c21 -12 35 -19 51 -19c28 0 42 14 46 46h78
c-2 -42 -13 -75 -34 -99zM226 226h134l-10 34c-23 74 -42 139 -56 194h-2c-16 -65 -34 -130 -55 -194z" />
    <glyph glyph-name="AE.aalt" horiz-adv-x="804" 
d="M759 0h-339l-18 115h-199l-50 -115h-158l258 548h501v-120h-258l14 -92h224v-118h-205l15 -98h215v-120zM384 233l-31 199h-11l-87 -199h129z" />
    <glyph glyph-name="B.aalt" horiz-adv-x="566" 
d="M524 152c0 -93 -80 -152 -211 -152h-239v548h224c140 0 212 -54 212 -141c0 -68 -32 -108 -103 -125v-2c80 -13 117 -56 117 -128zM217 224v-112h66c69 0 92 13 92 54c0 43 -25 58 -93 58h-65zM280 330c63 0 90 17 90 54s-26 53 -83 53h-70v-107h63z" />
    <glyph glyph-name="C.aalt" horiz-adv-x="608" 
d="M556 351h-149c-7 56 -44 88 -103 88c-73 0 -119 -64 -119 -165c0 -103 46 -165 119 -165c57 0 95 33 103 90h152c-12 -137 -107 -215 -255 -215c-84 0 -150 26 -198 77s-72 122 -72 213c0 179 103 290 270 290c75 0 135 -19 180 -57s69 -90 72 -156z" />
    <glyph glyph-name="Cacute.aalt" horiz-adv-x="608" 
d="M556 351h-149c-7 56 -44 88 -103 88c-73 0 -119 -64 -119 -165c0 -103 46 -165 119 -165c57 0 95 33 103 90h152c-12 -137 -107 -215 -255 -215c-84 0 -150 26 -198 77s-72 122 -72 213c0 179 103 290 270 290c75 0 135 -19 180 -57s69 -90 72 -156zM295 752h173
l-140 -146h-110z" />
    <glyph glyph-name="Ccaron.aalt" horiz-adv-x="608" 
d="M556 351h-149c-7 56 -44 88 -103 88c-73 0 -119 -64 -119 -165c0 -103 46 -165 119 -165c57 0 95 33 103 90h152c-12 -137 -107 -215 -255 -215c-84 0 -150 26 -198 77s-72 122 -72 213c0 179 103 290 270 290c75 0 135 -19 180 -57s69 -90 72 -156zM114 752h128l61 -76
l60 76h128l-114 -146h-149z" />
    <glyph glyph-name="Ccedilla.c2sc" horiz-adv-x="608" 
d="M407 351c-7 56 -44 88 -103 88c-73 0 -119 -64 -119 -165c0 -103 46 -165 119 -165c57 0 95 33 103 90h152c-11 -128 -94 -203 -225 -214l-29 -46c9 3 19 5 32 5c47 0 85 -29 85 -76c0 -55 -45 -94 -122 -94c-40 0 -78 10 -114 30l22 45c27 -15 54 -22 80 -22
c31 0 49 12 49 35s-19 38 -48 38c-11 0 -22 -2 -32 -6l-21 23l43 68c-153 11 -245 117 -245 289c0 179 103 290 270 290c75 0 135 -19 180 -57s69 -90 72 -156h-149z" />
    <glyph glyph-name="Ccircumflex.aalt" horiz-adv-x="608" 
d="M556 351h-149c-7 56 -44 88 -103 88c-73 0 -119 -64 -119 -165c0 -103 46 -165 119 -165c57 0 95 33 103 90h152c-12 -137 -107 -215 -255 -215c-84 0 -150 26 -198 77s-72 122 -72 213c0 179 103 290 270 290c75 0 135 -19 180 -57s69 -90 72 -156zM114 606l114 146h149
l114 -146h-128l-60 76l-61 -76h-128z" />
    <glyph glyph-name="Cdotaccent.aalt" horiz-adv-x="608" 
d="M556 351h-149c-7 56 -44 88 -103 88c-73 0 -119 -64 -119 -165c0 -103 46 -165 119 -165c57 0 95 33 103 90h152c-12 -137 -107 -215 -255 -215c-84 0 -150 26 -198 77s-72 122 -72 213c0 179 103 290 270 290c75 0 135 -19 180 -57s69 -90 72 -156zM373 752v-120h-140
v120h140z" />
    <glyph glyph-name="D.aalt" horiz-adv-x="621" 
d="M279 548c199 0 309 -98 309 -274s-110 -274 -309 -274h-205v548h205zM277 123c107 0 160 50 160 151s-53 151 -160 151h-59v-302h59z" />
    <glyph glyph-name="Eth.aalt" horiz-adv-x="625" 
d="M592 274c0 -176 -110 -274 -309 -274h-205v231h-62v92h62v225h205c199 0 309 -98 309 -274zM222 323h109v-92h-109v-108h59c107 0 160 50 160 151s-53 151 -160 151h-59v-102z" />
    <glyph glyph-name="Dcaron.aalt" horiz-adv-x="621" 
d="M508 71c-53 -47 -130 -71 -229 -71h-205v548h205c199 0 309 -98 309 -274c0 -88 -27 -156 -80 -203zM218 123h59c107 0 160 50 160 151s-53 151 -160 151h-59v-302zM97 752h128l61 -76l60 76h128l-114 -146h-149z" />
    <glyph glyph-name="Dcroat.aalt" horiz-adv-x="625" 
d="M592 274c0 -176 -110 -274 -309 -274h-205v231h-62v92h62v225h205c199 0 309 -98 309 -274zM222 323h109v-92h-109v-108h59c107 0 160 50 160 151s-53 151 -160 151h-59v-102z" />
    <glyph glyph-name="E.aalt" horiz-adv-x="536" 
d="M74 548h412v-120h-268v-92h248v-118h-248v-98h273v-120h-417v548z" />
    <glyph glyph-name="Eacute.aalt" horiz-adv-x="536" 
d="M74 548h412v-120h-268v-92h248v-118h-248v-98h273v-120h-417v548zM272 752h173l-140 -146h-110z" />
    <glyph glyph-name="Ebreve.aalt" horiz-adv-x="536" 
d="M491 0h-417v548h412v-120h-268v-92h248v-118h-248v-98h273v-120zM105 752h95c3 -40 33 -64 80 -64s77 24 80 64h95c-5 -96 -71 -151 -175 -151s-170 55 -175 151z" />
    <glyph glyph-name="Ecaron.aalt" horiz-adv-x="536" 
d="M491 0h-417v548h412v-120h-268v-92h248v-118h-248v-98h273v-120zM91 752h128l61 -76l60 76h128l-114 -146h-149z" />
    <glyph glyph-name="Ecircumflex.aalt" horiz-adv-x="536" 
d="M491 0h-417v548h412v-120h-268v-92h248v-118h-248v-98h273v-120zM91 606l114 146h149l114 -146h-128l-60 76l-61 -76h-128z" />
    <glyph glyph-name="Edieresis.aalt" horiz-adv-x="536" 
d="M491 0h-417v548h412v-120h-268v-92h248v-118h-248v-98h273v-120zM450 752v-120h-123v120h123zM110 632v120h123v-120h-123z" />
    <glyph glyph-name="Edotaccent.aalt" horiz-adv-x="536" 
d="M74 548h412v-120h-268v-92h248v-118h-248v-98h273v-120h-417v548zM210 752h140v-120h-140v120z" />
    <glyph glyph-name="Egrave.aalt" horiz-adv-x="536" 
d="M74 548h412v-120h-268v-92h248v-118h-248v-98h273v-120h-417v548zM288 752l77 -146h-110l-140 146h173z" />
    <glyph glyph-name="Emacron.aalt" horiz-adv-x="536" 
d="M74 548h412v-120h-268v-92h248v-118h-248v-98h273v-120h-417v548zM117 729h326v-91h-326v91z" />
    <glyph glyph-name="Eogonek.aalt" horiz-adv-x="536" 
d="M494 -184c-22 -9 -48 -13 -78 -13c-75 0 -113 32 -113 87c0 43 25 74 78 110h-307v548h412v-120h-268v-92h248v-118h-248v-98h273v-120c-51 -35 -68 -60 -68 -88c0 -21 12 -31 35 -31c14 0 26 2 36 6v-71z" />
    <glyph glyph-name="F.aalt" horiz-adv-x="491" 
d="M472 548v-122h-254v-116h235v-122h-235v-188h-144v548h398z" />
    <glyph glyph-name="uniFB01.aalt" horiz-adv-x="783" 
d="M74 0v548h398v-122h-254v-116h235v-122h-235v-188h-144zM565 548h144v-548h-144v548z" />
    <glyph glyph-name="uniFB02.aalt" horiz-adv-x="978" 
d="M472 548v-122h-254v-116h235v-122h-235v-188h-144v548h398zM709 548v-426h259v-122h-403v548h144z" />
    <glyph glyph-name="G.aalt" horiz-adv-x="629" 
d="M562 0h-123v48h-2c-35 -39 -90 -61 -159 -61c-151 0 -244 109 -244 285c0 180 110 292 282 292c140 0 231 -70 248 -189h-153c-11 45 -42 68 -95 68c-80 0 -131 -64 -131 -171c0 -109 49 -175 129 -175c71 0 109 39 112 104h-122v110h258v-311z" />
    <glyph glyph-name="Gbreve.aalt" horiz-adv-x="629" 
d="M439 0v48h-2c-35 -39 -90 -61 -159 -61c-151 0 -244 109 -244 285c0 180 110 292 282 292c140 0 231 -70 248 -189h-153c-11 45 -42 68 -95 68c-80 0 -131 -64 -131 -171c0 -109 49 -175 129 -175c71 0 109 39 112 104h-122v110h258v-311h-123zM134 752h95
c3 -40 33 -64 80 -64s77 24 80 64h95c-5 -96 -71 -151 -175 -151s-170 55 -175 151z" />
    <glyph glyph-name="Gcircumflex.aalt" horiz-adv-x="629" 
d="M562 0h-123v48h-2c-35 -39 -90 -61 -159 -61c-151 0 -244 109 -244 285c0 180 110 292 282 292c140 0 231 -70 248 -189h-153c-11 45 -42 68 -95 68c-80 0 -131 -64 -131 -171c0 -109 49 -175 129 -175c71 0 109 39 112 104h-122v110h258v-311zM234 752h149l114 -146
h-128l-60 76l-61 -76h-128z" />
    <glyph glyph-name="Gcommaaccent.aalt" horiz-adv-x="629" 
d="M562 0h-123v48h-2c-35 -39 -90 -61 -159 -61c-151 0 -244 109 -244 285c0 180 110 292 282 292c140 0 231 -70 248 -189h-153c-11 45 -42 68 -95 68c-80 0 -131 -64 -131 -171c0 -109 49 -175 129 -175c71 0 109 39 112 104h-122v110h258v-311zM248 -270l45 107h-45v104
h124v-104l-68 -107h-56z" />
    <glyph glyph-name="Gdotaccent.aalt" horiz-adv-x="629" 
d="M562 0h-123v48h-2c-35 -39 -90 -61 -159 -61c-151 0 -244 109 -244 285c0 180 110 292 282 292c140 0 231 -70 248 -189h-153c-11 45 -42 68 -95 68c-80 0 -131 -64 -131 -171c0 -109 49 -175 129 -175c71 0 109 39 112 104h-122v110h258v-311zM379 752v-120h-140v120
h140z" />
    <glyph glyph-name="H.aalt" horiz-adv-x="642" 
d="M218 548v-204h206v204h144v-548h-144v222h-206v-222h-144v548h144z" />
    <glyph glyph-name="Hbar.aalt" horiz-adv-x="642" 
d="M608 434h-40v-434h-144v222h-206v-222h-144v434h-40v62h40v52h144v-52h206v52h144v-52h40v-62zM218 434v-90h206v90h-206z" />
    <glyph glyph-name="Hcircumflex.aalt" horiz-adv-x="642" 
d="M568 0h-144v222h-206v-222h-144v548h144v-204h206v204h144v-548zM132 606l114 146h149l114 -146h-128l-60 76l-61 -76h-128z" />
    <glyph glyph-name="I.aalt" horiz-adv-x="292" 
d="M218 548v-548h-144v548h144z" />
    <glyph glyph-name="Iacute.aalt" horiz-adv-x="292" 
d="M218 548v-548h-144v548h144zM61 606l77 146h173l-140 -146h-110z" />
    <glyph glyph-name="Ibreve.aalt" horiz-adv-x="292" 
d="M74 548h144v-548h-144v548zM-13 752h88c3 -43 30 -68 71 -68s68 25 71 68h88c-5 -95 -63 -151 -159 -151s-154 55 -159 151z" />
    <glyph glyph-name="Icircumflex.aalt" horiz-adv-x="292" 
d="M74 548h144v-548h-144v548zM-28 607l103 145h141l103 -145h-120l-53 77l-53 -77h-121z" />
    <glyph glyph-name="Idieresis.aalt" horiz-adv-x="292" 
d="M74 548h144v-548h-144v548zM171 752h123v-120h-123v120zM-2 752h123v-120h-123v120z" />
    <glyph glyph-name="Idotaccent.aalt" horiz-adv-x="292" 
d="M74 0v548h144v-548h-144zM216 752v-120h-140v120h140z" />
    <glyph glyph-name="Igrave.aalt" horiz-adv-x="292" 
d="M218 548v-548h-144v548h144zM-19 752h173l77 -146h-110z" />
    <glyph glyph-name="IJ.aalt" horiz-adv-x="634" 
d="M305 119c12 -2 24 -3 37 -3c59 0 80 23 80 106v326h143v-359c0 -135 -61 -195 -198 -195c-22 0 -42 2 -61 7zM74 0v548h144v-548h-144z" />
    <glyph glyph-name="Imacron.aalt" horiz-adv-x="292" 
d="M74 548h144v-548h-144v548zM3 734h286v-91h-286v91z" />
    <glyph glyph-name="Iogonek.aalt" horiz-adv-x="292" 
d="M30 -110c0 43 25 74 78 110h-34v548h144v-548c-51 -35 -68 -60 -68 -88c0 -21 12 -31 35 -31c14 0 26 2 36 6v-71c-22 -9 -48 -13 -78 -13c-75 0 -113 32 -113 87z" />
    <glyph glyph-name="Itilde.aalt" horiz-adv-x="292" 
d="M74 548h144v-548h-144v548zM281 653c-19 -24 -44 -36 -77 -36c-29 0 -46 9 -71 28c-23 15 -30 20 -45 20c-25 0 -37 -16 -40 -48h-67c4 85 42 135 107 135c29 0 47 -11 72 -28c19 -13 29 -20 44 -20c25 0 37 15 40 48h68c-2 -42 -12 -75 -31 -99z" />
    <glyph glyph-name="J.c2sc" horiz-adv-x="342" 
d="M13 119c12 -2 24 -3 37 -3c59 0 80 23 80 106v326h143v-359c0 -135 -61 -195 -198 -195c-22 0 -42 2 -61 7z" />
    <glyph glyph-name="Jcircumflex.aalt" horiz-adv-x="342" 
d="M112 138c12 15 18 43 18 84v326h143v-359c0 -135 -61 -195 -198 -195c-22 0 -42 2 -61 7l-1 118c12 -2 24 -3 37 -3c29 0 50 7 62 22zM132 752h141l103 -145h-120l-53 77l-53 -77h-121z" />
    <glyph glyph-name="K.aalt" horiz-adv-x="571" 
d="M74 0v548h144v-234h3l160 234h170l-200 -259l216 -289h-182l-164 250h-3v-250h-144z" />
    <glyph glyph-name="Kcommaaccent.aalt" horiz-adv-x="571" 
d="M385 0l-164 250h-3v-250h-144v548h144v-234h3l160 234h170l-200 -259l216 -289h-182zM272 -163h-45v104h124v-104l-68 -107h-56z" />
    <glyph glyph-name="L.aalt" horiz-adv-x="487" 
d="M74 548h144v-426h259v-122h-403v548z" />
    <glyph glyph-name="Lacute.aalt" horiz-adv-x="487" 
d="M218 548v-426h259v-122h-403v548h144zM88 606l77 146h173l-140 -146h-110z" />
    <glyph glyph-name="Lcaron.aalt" horiz-adv-x="487" 
d="M218 548v-426h259v-122h-403v548h144zM285 548h111l-58 -177h-79z" />
    <glyph glyph-name="Lcommaaccent.aalt" horiz-adv-x="487" 
d="M74 0v548h144v-426h259v-122h-403zM250 -163h-45v104h124v-104l-68 -107h-56z" />
    <glyph glyph-name="Ldot.aalt" horiz-adv-x="547" 
d="M74 0v548h144v-426h259v-122h-403zM497 439v-167h-154v167h154z" />
    <glyph glyph-name="glyph418" horiz-adv-x="342" 
d="M50 116c59 0 80 23 80 106v326h143v-359c0 -135 -61 -195 -198 -195c-22 0 -42 2 -61 7l-1 118c12 -2 24 -3 37 -3zM118 606l77 146h173l-140 -146h-110z" />
    <glyph glyph-name="Lslash.aalt" horiz-adv-x="488" 
d="M11 181v104l64 36v227h144v-152l102 57v-104l-102 -57v-170h259v-122h-403v217z" />
    <glyph glyph-name="M.aalt" horiz-adv-x="850" 
d="M776 0h-138v265c0 67 2 134 6 200h-2c-20 -81 -37 -146 -52 -197l-79 -268h-172l-79 268c-15 51 -32 116 -52 197h-2c4 -66 6 -133 6 -200v-265h-138v548h233l69 -238c21 -73 37 -139 48 -199h2c11 60 27 126 48 199l69 238h233v-548z" />
    <glyph glyph-name="N.aalt" horiz-adv-x="672" 
d="M74 0v548h208l96 -213c33 -72 62 -143 87 -213h2c-5 69 -7 144 -7 225v201h138v-548h-208l-95 213c-32 68 -61 139 -88 213h-2c5 -69 7 -144 7 -225v-201h-138z" />
    <glyph glyph-name="Nacute.aalt" horiz-adv-x="672" 
d="M598 0h-208l-95 213c-32 68 -61 139 -88 213h-2c5 -69 7 -144 7 -225v-201h-138v548h208l96 -213c33 -72 62 -143 87 -213h2c-5 69 -7 144 -7 225v201h138v-548zM251 606l77 146h173l-140 -146h-110z" />
    <glyph glyph-name="Ncaron.aalt" horiz-adv-x="672" 
d="M598 0h-208l-95 213c-32 68 -61 139 -88 213h-2c5 -69 7 -144 7 -225v-201h-138v548h208l96 -213c33 -72 62 -143 87 -213h2c-5 69 -7 144 -7 225v201h138v-548zM147 752h128l61 -76l60 76h128l-114 -146h-149z" />
    <glyph glyph-name="Ncommaaccent.aalt" horiz-adv-x="672" 
d="M598 0h-208l-95 213c-32 68 -61 139 -88 213h-2c5 -69 7 -144 7 -225v-201h-138v548h208l96 -213c33 -72 62 -143 87 -213h2c-5 69 -7 144 -7 225v201h138v-548zM319 -163h-45v104h124v-104l-68 -107h-56z" />
    <glyph glyph-name="Eng.aalt" horiz-adv-x="649" 
d="M575 -16c0 -101 -60 -149 -155 -149c-27 0 -49 2 -66 7v94c9 -1 17 -2 24 -2c37 0 56 16 56 49c0 9 -3 18 -8 29c-5 10 -17 31 -36 62l-94 157c-32 53 -62 109 -90 168h-2c5 -66 8 -128 8 -187v-212h-138v548h179l100 -167c37 -63 67 -119 90 -168h2c-5 56 -8 118 -8 187
v148h138v-564z" />
    <glyph glyph-name="Ntilde.aalt" horiz-adv-x="672" 
d="M467 122c-5 69 -7 144 -7 225v201h138v-548h-208l-95 213c-32 68 -61 139 -88 213h-2c5 -69 7 -144 7 -225v-201h-138v548h208l96 -213c33 -72 62 -143 87 -213h2zM182 716c21 24 49 36 84 36c32 0 54 -10 83 -27c21 -12 35 -19 51 -19c28 0 42 14 46 46h78
c-4 -84 -47 -135 -118 -135c-32 0 -53 10 -82 27c-24 13 -35 19 -52 19c-28 0 -42 -14 -46 -46h-78c2 42 13 75 34 99z" />
    <glyph glyph-name="O.aalt" horiz-adv-x="628" 
d="M595 274c0 -179 -108 -290 -281 -290s-281 111 -281 290s108 290 281 290s281 -111 281 -290zM184 274c0 -105 49 -167 130 -167s130 62 130 167s-49 167 -130 167s-130 -62 -130 -167z" />
    <glyph glyph-name="Oacute.aalt" horiz-adv-x="628" 
d="M595 274c0 -179 -108 -290 -281 -290s-281 111 -281 290s108 290 281 290s281 -111 281 -290zM184 274c0 -105 49 -167 130 -167s130 62 130 167s-49 167 -130 167s-130 -62 -130 -167zM306 752h173l-140 -146h-110z" />
    <glyph glyph-name="Obreve.aalt" horiz-adv-x="628" 
d="M561 120c-45 -88 -132 -136 -247 -136c-173 0 -281 111 -281 290s108 290 281 290s281 -111 281 -290c0 -59 -11 -111 -34 -154zM184 274c0 -105 49 -167 130 -167s130 62 130 167s-49 167 -130 167s-130 -62 -130 -167zM139 752h95c3 -40 33 -64 80 -64s77 24 80 64h95
c-5 -96 -71 -151 -175 -151s-170 55 -175 151z" />
    </font>
</defs>
</svg>
