<?xml version="1.0" standalone="no"?>
<!DOCTYPE svg PUBLIC "-//W3C//DTD SVG 1.1//EN" "http://www.w3.org/Graphics/SVG/1.1/DTD/svg11.dtd" >
<svg xmlns="http://www.w3.org/2000/svg" xmlns:xlink="http://www.w3.org/1999/xlink" version="1.1">
<metadata>
Created by FontForge 20190801 at Wed Nov 27 11:12:57 2019
 By Jimmy Wärting
Copyright \(c\) 2015 Monotype Imaging Inc.  All rights reserved.
</metadata>
<defs>
<font id="NeueHaasUnica-Black" horiz-adv-x="616" >
  <font-face 
    font-family="Neue Haas Unica"
    font-weight="900"
    font-stretch="normal"
    units-per-em="1000"
    panose-1="2 11 10 4 3 2 6 2 2 3"
    ascent="800"
    descent="-200"
    x-height="508"
    cap-height="712"
    bbox="-500 -315 1275 1149"
    underline-thickness="50"
    underline-position="-125"
    stemh="150"
    stemv="192"
    unicode-range="U+0020-FEFF"
  />
<missing-glyph horiz-adv-x="654" 
d="M605 740c25 -25 37 -58 37 -101v-566c0 -85 -53 -138 -138 -138h-354c-85 0 -138 53 -138 138v566c0 85 53 138 138 138h354c43 0 76 -12 101 -37zM550 27c11 11 17 27 17 46v566c0 39 -24 63 -63 63h-354c-39 0 -63 -24 -63 -63v-566c0 -39 24 -63 63 -63h354
c19 0 35 6 46 17zM395 297c-9 -17 -14 -39 -14 -65h-118c-2 14 -3 29 -3 44c0 29 4 52 12 69c7 17 23 39 48 64c39 40 47 55 47 83c0 27 -16 43 -41 43c-33 0 -50 -25 -50 -74h-145c1 120 72 186 195 186c119 0 190 -58 190 -154c0 -53 -17 -85 -69 -134
c-26 -25 -43 -45 -52 -62zM250 65v126h144v-126h-144z" />
    <glyph glyph-name="f_f.liga" unicode="ff" horiz-adv-x="727" 
d="M721 582c-5 2 -13 3 -25 3c-49 0 -72 -21 -72 -70v-7h92v-137h-92v-371h-192v371h-155v-371h-192v371h-78v137h78v29c0 123 69 185 200 185c29 0 58 -3 89 -10v-130c-5 2 -13 3 -25 3c-49 0 -72 -21 -72 -70v-7h155v29c0 123 69 185 200 185c29 0 58 -3 89 -10v-130z" />
    <glyph glyph-name="f_f_i.liga" unicode="ffi" horiz-adv-x="1027" 
d="M7 371v137h78v29c0 123 69 185 200 185c29 0 58 -3 89 -10v-130c-5 2 -13 3 -25 3c-49 0 -72 -21 -72 -70v-7h155v29c0 123 69 185 200 185c29 0 58 -3 89 -10v-130c-5 2 -13 3 -25 3c-49 0 -72 -21 -72 -70v-7h92v-137h-92v-371h-192v371h-155v-371h-192v371h-78z
M781 508h192v-508h-192v508zM973 712v-141h-192v141h192z" />
    <glyph glyph-name="f_f_l.liga" unicode="ffl" horiz-adv-x="1027" 
d="M721 582c-5 2 -13 3 -25 3c-49 0 -72 -21 -72 -70v-7h92v-137h-92v-371h-192v371h-155v-371h-192v371h-78v137h78v29c0 123 69 185 200 185c29 0 58 -3 89 -10v-130c-5 2 -13 3 -25 3c-49 0 -72 -21 -72 -70v-7h155v29c0 123 69 185 200 185c29 0 58 -3 89 -10v-130z
M973 712v-712h-192v712h192z" />
    <glyph glyph-name="f_i.liga" unicode="fi" horiz-adv-x="680" 
d="M7 371v137h78v29c0 123 69 185 200 185c29 0 58 -3 89 -10v-130c-5 2 -13 3 -25 3c-49 0 -72 -21 -72 -70v-7h92v-137h-92v-371h-192v371h-78zM626 0h-192v508h192v-508zM434 712h192v-141h-192v141z" />
    <glyph glyph-name="f_l.liga" unicode="fl" horiz-adv-x="680" 
d="M7 371v137h78v29c0 123 69 185 200 185c29 0 58 -3 89 -10v-130c-5 2 -13 3 -25 3c-49 0 -72 -21 -72 -70v-7h92v-137h-92v-371h-192v371h-78zM626 0h-192v712h192v-712z" />
    <glyph glyph-name=".notdef" horiz-adv-x="654" 
d="M605 740c25 -25 37 -58 37 -101v-566c0 -85 -53 -138 -138 -138h-354c-85 0 -138 53 -138 138v566c0 85 53 138 138 138h354c43 0 76 -12 101 -37zM550 27c11 11 17 27 17 46v566c0 39 -24 63 -63 63h-354c-39 0 -63 -24 -63 -63v-566c0 -39 24 -63 63 -63h354
c19 0 35 6 46 17zM395 297c-9 -17 -14 -39 -14 -65h-118c-2 14 -3 29 -3 44c0 29 4 52 12 69c7 17 23 39 48 64c39 40 47 55 47 83c0 27 -16 43 -41 43c-33 0 -50 -25 -50 -74h-145c1 120 72 186 195 186c119 0 190 -58 190 -154c0 -53 -17 -85 -69 -134
c-26 -25 -43 -45 -52 -62zM250 65v126h144v-126h-144z" />
    <glyph glyph-name="NULL" horiz-adv-x="0" 
 />
    <glyph glyph-name="NULL" horiz-adv-x="0" 
 />
    <glyph glyph-name="nonmarkingreturn" horiz-adv-x="333" 
 />
    <glyph glyph-name="space" unicode=" " horiz-adv-x="230" 
 />
    <glyph glyph-name="glyph1" horiz-adv-x="600" 
 />
    <glyph glyph-name="exclam" unicode="!" horiz-adv-x="367" 
d="M294 712l-30 -489h-160l-30 489h220zM284 161v-161h-200v161h200z" />
    <glyph glyph-name="quotedbl" unicode="&#x22;" horiz-adv-x="491" 
d="M263 712h183l-22 -287h-139zM227 712l-22 -287h-139l-22 287h183z" />
    <glyph glyph-name="numbersign" unicode="#" horiz-adv-x="719" 
d="M662 392h-95l-17 -109h96l-22 -129h-95l-24 -154h-149l24 154h-101l-24 -154h-149l24 154h-96l21 129h96l17 109h-96l21 129h96l24 153h149l-24 -153h101l24 153h149l-24 -153h96zM401 283l17 109h-101l-17 -109h101z" />
    <glyph glyph-name="dollar" unicode="$" horiz-adv-x="656" 
d="M582 314c23 -29 34 -67 34 -114c0 -119 -83 -195 -226 -212v-87h-130v87c-141 19 -221 100 -221 229h201c0 -59 31 -86 94 -86c56 0 86 22 86 58c0 27 -18 42 -50 54c-16 5 -42 13 -77 23c-103 28 -164 50 -208 105c-22 27 -33 63 -33 107c0 112 75 188 208 207v79h130
v-77c135 -16 211 -91 211 -218h-195c0 53 -28 80 -84 80c-51 0 -78 -20 -78 -56c5 -42 24 -47 121 -73c107 -25 172 -49 217 -106z" />
    <glyph glyph-name="percent" unicode="%" horiz-adv-x="956" 
d="M93 641c31 36 76 54 134 54c116 0 181 -75 181 -210s-65 -210 -181 -210s-182 77 -182 210c0 67 16 119 48 156zM864 34c-31 -37 -76 -55 -134 -55c-116 0 -182 75 -182 210c0 133 66 210 182 210s181 -75 181 -210c0 -67 -16 -119 -47 -155zM601 704h118l-364 -734h-118
zM191 402c7 -18 19 -27 36 -27c32 0 48 37 48 110c0 74 -16 111 -48 111s-48 -37 -48 -111c0 -37 4 -65 12 -83zM694 106c7 -19 19 -28 36 -28c32 0 48 37 48 111c0 73 -16 110 -48 110s-48 -37 -48 -110c0 -37 4 -65 12 -83z" />
    <glyph glyph-name="ampersand" unicode="&#x26;" horiz-adv-x="790" 
d="M571 0l-48 48c-57 -43 -127 -64 -208 -64c-177 0 -278 82 -278 211c0 87 45 152 140 200c-56 56 -74 96 -74 153c0 107 91 180 222 180c135 0 225 -67 225 -170c0 -75 -43 -136 -128 -184l96 -94c11 25 17 58 17 101h182c-1 -91 -24 -161 -73 -224l161 -157h-234z
M258 143c18 -15 42 -22 72 -22c33 0 62 10 88 30l-138 137c-35 -25 -49 -51 -49 -87c0 -24 9 -43 27 -58zM284 507c6 -13 17 -28 34 -46c39 29 58 59 58 88s-22 51 -51 51c-31 0 -51 -21 -51 -53c0 -15 3 -28 10 -40z" />
    <glyph glyph-name="quotesingle" unicode="'" horiz-adv-x="271" 
d="M44 712h183l-22 -287h-139z" />
    <glyph glyph-name="parenleft" unicode="(" horiz-adv-x="370" 
d="M40 297c0 163 44 300 147 444h153c-36 -79 -62 -154 -77 -224c-16 -71 -24 -144 -24 -220s8 -149 24 -219c15 -70 41 -145 77 -225h-153c-104 145 -147 281 -147 444z" />
    <glyph glyph-name="parenright" unicode=")" horiz-adv-x="370" 
d="M108 78c15 70 23 143 23 219s-8 149 -23 220c-16 70 -42 145 -78 224h153c103 -144 147 -281 147 -444s-43 -299 -147 -444h-153c36 80 62 155 78 225z" />
    <glyph glyph-name="asterisk" unicode="*" horiz-adv-x="470" 
d="M21 504l44 136l127 -72l-28 144h143l-29 -144l128 72l43 -136l-145 -16l108 -101l-116 -83l-61 133l-61 -133l-115 83l108 101z" />
    <glyph glyph-name="plus" unicode="+" horiz-adv-x="566" 
d="M55 392h151v154h154v-154h151v-149h-151v-155h-154v155h-151v149z" />
    <glyph glyph-name="comma" unicode="," horiz-adv-x="291" 
d="M109 0h-64v200h200v-200l-107 -185h-113z" />
    <glyph glyph-name="hyphen" unicode="-" horiz-adv-x="353" 
d="M323 359v-134h-293v134h293z" />
    <glyph glyph-name="period" unicode="." horiz-adv-x="290" 
d="M245 200v-200h-200v200h200z" />
    <glyph glyph-name="slash" unicode="/" horiz-adv-x="519" 
d="M327 745h141l-298 -834h-140z" />
    <glyph glyph-name="zero" unicode="0" horiz-adv-x="645" 
d="M105 76c-51 61 -77 148 -77 261c0 225 106 353 295 353s295 -128 295 -353s-106 -353 -295 -353c-95 0 -167 31 -218 92zM227 337c0 -133 33 -207 96 -207s95 74 95 207c0 132 -32 207 -95 207s-96 -75 -96 -207z" />
    <glyph glyph-name="one" unicode="1" horiz-adv-x="645" 
d="M93 555c119 0 172 35 185 119h178v-674h-199v413h-164v142z" />
    <glyph glyph-name="two" unicode="2" horiz-adv-x="645" 
d="M606 0h-568c-1 15 -2 28 -2 39c0 146 46 231 194 307c77 39 113 60 138 89c12 15 18 31 18 49c0 36 -24 60 -64 60c-49 0 -79 -33 -80 -94h-197c1 153 102 240 275 240c163 0 267 -87 267 -208c0 -108 -61 -166 -180 -218c-115 -52 -136 -74 -140 -108h339v-156z" />
    <glyph glyph-name="three" unicode="3" horiz-adv-x="645" 
d="M597 191c0 -126 -109 -207 -276 -207c-189 0 -293 87 -293 244h200c0 -64 32 -98 92 -98c49 0 79 26 79 66c0 48 -34 72 -107 72h-17v142h23c59 0 95 26 95 69c0 40 -28 65 -75 65c-56 0 -86 -33 -86 -93h-194c0 151 104 239 280 239c167 0 270 -75 270 -191
c0 -75 -35 -119 -116 -148v-2c87 -28 125 -77 125 -158z" />
    <glyph glyph-name="four" unicode="4" horiz-adv-x="645" 
d="M517 674v-399h113v-145h-113v-130h-192v130h-315v152l255 392h252zM333 275v68c0 69 2 134 7 195h-2c-29 -56 -63 -113 -101 -170l-61 -93h157z" />
    <glyph glyph-name="five" unicode="5" horiz-adv-x="645" 
d="M603 232c0 -150 -114 -248 -285 -248c-84 0 -151 19 -200 57c-50 38 -75 90 -75 157h199c1 -44 32 -71 79 -71c53 0 85 32 85 95c0 60 -32 93 -83 93c-43 0 -70 -24 -78 -61l-192 12l37 408h470v-156h-310l-11 -113h2c38 32 83 48 136 48c133 0 226 -92 226 -221z" />
    <glyph glyph-name="six" unicode="6" horiz-adv-x="645" 
d="M607 224c0 -141 -114 -240 -275 -240c-184 0 -290 119 -290 340c0 228 114 366 299 366c151 0 248 -78 257 -211h-197c-5 45 -29 70 -69 70c-57 0 -95 -53 -99 -168h2c38 40 88 60 151 60c128 0 221 -90 221 -217zM256 217c0 -53 31 -88 78 -88c45 0 77 36 77 87
c0 55 -31 91 -78 91s-77 -37 -77 -90z" />
    <glyph glyph-name="seven" unicode="7" horiz-adv-x="645" 
d="M44 674h546v-153c-49 -68 -92 -147 -128 -238c-37 -91 -64 -186 -83 -283h-212c21 100 53 195 94 286s86 166 135 226h-352v162z" />
    <glyph glyph-name="eight" unicode="8" horiz-adv-x="645" 
d="M566 291c25 -30 38 -66 38 -107c0 -125 -105 -200 -281 -200c-177 0 -282 75 -282 200c0 83 55 146 140 165v2c-77 19 -124 76 -124 149c0 114 107 190 266 190s265 -76 265 -190c0 -73 -47 -130 -124 -149v-2c43 -9 77 -29 102 -58zM261 147c15 -14 36 -21 62 -21
c52 0 85 30 85 75s-33 73 -85 73c-53 0 -86 -28 -86 -73c0 -23 8 -41 24 -54zM264 431c15 -13 34 -19 59 -19c49 0 81 28 81 69s-32 69 -81 69s-82 -26 -82 -69c0 -21 8 -37 23 -50z" />
    <glyph glyph-name="nine" unicode="9" horiz-adv-x="645" 
d="M567 155c-48 -109 -140 -170 -263 -170c-149 0 -248 78 -257 210h197c5 -45 29 -70 69 -70c57 0 96 54 100 169h-2c-39 -40 -89 -60 -152 -60c-129 0 -220 90 -220 217c0 141 112 240 274 240c184 0 290 -119 290 -340c0 -76 -12 -141 -36 -196zM256 393
c14 -17 33 -25 56 -25c47 0 78 37 78 90c0 52 -31 88 -78 88s-78 -36 -78 -88c0 -27 7 -49 22 -65z" />
    <glyph glyph-name="colon" unicode=":" horiz-adv-x="290" 
d="M45 308v200h200v-200h-200zM45 0v200h200v-200h-200z" />
    <glyph glyph-name="semicolon" unicode=";" horiz-adv-x="291" 
d="M25 -185l84 185h-64v200h200v-200l-107 -185h-113zM245 508v-200h-200v200h200z" />
    <glyph glyph-name="less" unicode="&#x3c;" horiz-adv-x="566" 
d="M511 578v-156l-279 -104v-2l279 -104v-156l-456 171v180z" />
    <glyph glyph-name="equal" unicode="=" horiz-adv-x="566" 
d="M55 138v140h456v-140h-456zM55 355v140h456v-140h-456z" />
    <glyph glyph-name="greater" unicode="&#x3e;" horiz-adv-x="566" 
d="M511 407v-180l-456 -171v156l279 104v2l-279 104v156z" />
    <glyph glyph-name="question" unicode="?" horiz-adv-x="592" 
d="M539 449c-14 -23 -40 -51 -77 -82c-37 -30 -61 -55 -73 -76s-18 -47 -18 -80h-162c-2 18 -3 36 -3 54c2 77 13 98 87 169c27 24 44 42 52 55c8 12 12 27 12 44c0 33 -23 55 -60 55c-49 0 -74 -29 -74 -96h-198c1 153 100 236 272 236c164 0 262 -73 262 -193
c0 -34 -7 -63 -20 -86zM190 0v161h200v-161h-200z" />
    <glyph glyph-name="at" unicode="@" horiz-adv-x="867" 
d="M494 143h-2c-27 -52 -69 -78 -126 -78c-96 0 -153 70 -154 199c2 150 84 254 197 254c47 0 80 -20 99 -60h2c3 20 7 37 10 50h136c-11 -55 -21 -109 -29 -163s-12 -94 -12 -120c0 -35 12 -50 37 -50c51 0 90 54 90 155c0 169 -117 282 -295 282
c-205 0 -322 -143 -322 -333c0 -189 120 -304 307 -304c85 0 157 17 216 51l45 -89c-73 -41 -160 -62 -261 -62c-248 0 -407 153 -407 404c-3 236 166 437 422 433c235 2 398 -155 395 -382c0 -175 -98 -265 -215 -265c-71 0 -117 27 -133 78zM373 211c9 -14 21 -21 37 -21
c41 0 75 49 75 128c0 47 -19 74 -50 74c-44 0 -76 -43 -76 -122c0 -25 5 -45 14 -59z" />
    <glyph glyph-name="A" unicode="A" horiz-adv-x="731" 
d="M-2 0l239 712h257l239 -712h-211l-36 128h-241l-36 -128h-211zM289 285h153l-14 49c-21 73 -41 153 -61 240h-2c-21 -91 -42 -171 -62 -240z" />
    <glyph glyph-name="B" unicode="B" horiz-adv-x="677" 
d="M648 200c0 -61 -24 -110 -71 -146s-113 -54 -196 -54h-312v712h302c172 0 259 -71 259 -184c0 -81 -37 -132 -118 -160v-2c89 -20 136 -78 136 -166zM262 290v-142h81c71 0 99 21 99 70c0 51 -31 72 -103 72h-77zM339 430c67 0 97 21 97 68c0 45 -28 67 -91 67h-83v-135
h77z" />
    <glyph glyph-name="C" unicode="C" horiz-adv-x="730" 
d="M696 447h-210c-8 71 -48 111 -115 111c-80 0 -131 -77 -131 -202c0 -124 51 -202 131 -202c65 0 109 44 116 117h213c-7 -92 -40 -163 -98 -212c-59 -50 -136 -75 -231 -75c-210 0 -340 142 -340 372s130 372 340 372c192 0 317 -106 325 -281z" />
    <glyph glyph-name="D" unicode="D" horiz-adv-x="751" 
d="M69 712h269c244 0 382 -128 382 -356s-138 -356 -382 -356h-269v712zM269 544v-376h63c116 0 179 67 179 188s-63 188 -179 188h-63z" />
    <glyph glyph-name="E" unicode="E" horiz-adv-x="635" 
d="M69 712h515v-165h-315v-107h293v-161h-293v-114h321v-165h-521v712z" />
    <glyph glyph-name="F" unicode="F" horiz-adv-x="597" 
d="M575 712v-170h-306v-134h286v-169h-286v-239h-200v712h506z" />
    <glyph glyph-name="G" unicode="G" horiz-adv-x="758" 
d="M697 0h-171v68h-2c-43 -55 -107 -83 -190 -83c-187 0 -303 141 -303 368c0 233 134 375 353 375c183 0 305 -98 315 -248h-212c-9 56 -45 87 -104 87c-88 0 -143 -82 -143 -214c0 -135 55 -219 144 -219c76 0 123 49 127 128h-137v146h323v-408z" />
    <glyph glyph-name="H" unicode="H" horiz-adv-x="771" 
d="M269 712v-262h233v262h200v-712h-200v282h-233v-282h-200v712h200z" />
    <glyph glyph-name="I" unicode="I" horiz-adv-x="338" 
d="M269 712v-712h-200v712h200z" />
    <glyph glyph-name="J" unicode="J" horiz-adv-x="428" 
d="M59 160c79 0 105 31 105 141v411h200v-458c0 -181 -82 -264 -258 -264c-29 0 -59 4 -91 11v163c17 -3 32 -4 44 -4z" />
    <glyph glyph-name="K" unicode="K" horiz-adv-x="716" 
d="M69 0v712h200v-300h2l186 300h241l-247 -336l262 -376h-250l-192 319h-2v-319h-200z" />
    <glyph glyph-name="L" unicode="L" horiz-adv-x="586" 
d="M69 712h200v-544h309v-168h-509v712z" />
    <glyph glyph-name="M" unicode="M" horiz-adv-x="1042" 
d="M973 0h-186v341c0 87 2 174 6 261h-2c-20 -96 -40 -182 -60 -258l-89 -344h-242l-89 344c-20 76 -40 162 -60 258h-2c4 -87 6 -174 6 -261v-341h-186v712h318l79 -306c23 -84 41 -171 54 -262h2c12 81 30 169 54 262l79 306h318v-712z" />
    <glyph glyph-name="N" unicode="N" horiz-adv-x="827" 
d="M69 0v712h291l110 -273c39 -94 73 -186 102 -276h2c-5 103 -8 200 -8 291v258h191v-712h-290l-111 273c-38 95 -72 187 -102 276h-2c5 -86 8 -183 8 -291v-258h-191z" />
    <glyph glyph-name="O" unicode="O" horiz-adv-x="767" 
d="M736 356c0 -227 -137 -372 -353 -372c-215 0 -352 145 -352 372s137 372 352 372c216 0 353 -145 353 -372zM241 356c0 -129 51 -202 142 -202c92 0 143 73 143 202s-51 202 -143 202c-91 0 -142 -73 -142 -202z" />
    <glyph glyph-name="P" unicode="P" horiz-adv-x="673" 
d="M370 712c187 0 283 -91 283 -243s-96 -244 -283 -244h-101v-225h-200v712h301zM342 382c70 0 105 29 105 87c0 57 -35 86 -105 86h-73v-173h73z" />
    <glyph glyph-name="Q" unicode="Q" horiz-adv-x="767" 
d="M713 208c-15 -45 -37 -83 -66 -116l76 -84l-100 -90l-86 96c-45 -20 -96 -30 -154 -30c-215 0 -352 145 -352 372s137 372 352 372c213 3 355 -148 353 -372c0 -54 -8 -103 -23 -148zM280 196c25 -37 61 -55 108 -55c11 0 22 1 32 3l-80 90l100 90l79 -88
c11 32 17 70 17 114c0 133 -53 208 -148 208c-93 0 -147 -76 -147 -208c0 -67 13 -118 39 -154z" />
    <glyph glyph-name="R" unicode="R" horiz-adv-x="705" 
d="M696 0h-212l-51 153c-24 71 -51 94 -114 94h-50v-247h-200v712h317c176 0 264 -68 264 -204c0 -87 -49 -149 -133 -174v-2c26 -9 47 -24 63 -45c15 -21 32 -56 50 -103zM269 562v-170h85c67 0 101 29 101 88c0 57 -37 82 -106 82h-80z" />
    <glyph glyph-name="S" unicode="S" horiz-adv-x="661" 
d="M631 214c0 -142 -115 -230 -303 -230c-193 0 -307 91 -307 247h216c0 -61 33 -91 98 -91c53 0 85 24 85 61c0 29 -16 44 -48 56c-16 6 -42 13 -77 22c-59 16 -105 31 -140 46s-63 36 -86 65s-34 67 -34 115c0 135 110 223 293 223s288 -81 288 -232h-210
c0 52 -31 81 -88 81c-49 0 -79 -22 -79 -55c4 -42 24 -50 129 -76c113 -28 183 -53 229 -113c23 -30 34 -70 34 -119z" />
    <glyph glyph-name="T" unicode="T" horiz-adv-x="638" 
d="M8 712h622v-168h-211v-544h-200v544h-211v168z" />
    <glyph glyph-name="U" unicode="U" horiz-adv-x="731" 
d="M263 712v-428c0 -81 36 -126 103 -126s102 45 102 126v428h200v-431c0 -189 -109 -297 -302 -297s-303 106 -303 297v431h200z" />
    <glyph glyph-name="V" unicode="V" horiz-adv-x="687" 
d="M3 712h211l70 -273c25 -98 45 -188 59 -269h2c14 81 34 171 59 269l69 273h212l-207 -712h-268z" />
    <glyph glyph-name="W" unicode="W" horiz-adv-x="1025" 
d="M880 0h-270l-54 287c-19 109 -33 199 -42 269h-2c-9 -78 -24 -168 -43 -269l-54 -287h-270l-139 712h194l43 -254c15 -89 29 -185 42 -288h2c12 94 28 190 47 288l50 254h257l50 -254c19 -93 35 -189 48 -288h2c11 96 25 192 41 288l44 254h193z" />
    <glyph glyph-name="X" unicode="X" horiz-adv-x="709" 
d="M220 369l-205 343h230l108 -229h2l109 229h230l-205 -343l219 -369h-235l-118 239h-2l-117 -239h-236z" />
    <glyph glyph-name="Y" unicode="Y" horiz-adv-x="689" 
d="M0 712h220l56 -125c28 -63 50 -121 67 -176h2c18 57 41 115 68 176l56 125h219l-244 -452v-260h-200v260z" />
    <glyph glyph-name="Z" unicode="Z" horiz-adv-x="605" 
d="M20 172l307 374v2h-293v164h532v-172l-306 -374v-2h323v-164h-563v172z" />
    <glyph glyph-name="bracketleft" unicode="[" horiz-adv-x="388" 
d="M60 -154v895h303v-129h-123v-639h122v-127h-302z" />
    <glyph glyph-name="backslash" unicode="\" horiz-adv-x="519" 
d="M51 745h140l298 -834h-141z" />
    <glyph glyph-name="bracketright" unicode="]" horiz-adv-x="388" 
d="M328 741v-895h-302v127h122v639h-123v129h303z" />
    <glyph glyph-name="asciicircum" unicode="^" horiz-adv-x="543" 
d="M5 371l166 341h201l166 -341h-176l-89 192h-2l-89 -192h-177z" />
    <glyph glyph-name="underscore" unicode="_" horiz-adv-x="500" 
d="M500 -50v-105h-500v105h500z" />
    <glyph glyph-name="grave" unicode="`" horiz-adv-x="388" 
d="M258 712l80 -150h-146l-142 150h208z" />
    <glyph glyph-name="a" unicode="a" horiz-adv-x="576" 
d="M543 0h-173c-5 19 -8 41 -8 64h-2c-40 -52 -95 -78 -165 -78c-54 0 -97 15 -129 45s-48 68 -48 114c0 92 59 143 207 166c36 6 75 10 117 13v18c0 47 -20 70 -60 70c-37 0 -59 -22 -60 -65h-183c3 51 25 94 65 127s100 50 180 50c164 0 243 -74 243 -211v-165
c0 -63 5 -112 16 -148zM206 158c0 -32 20 -53 56 -53c23 0 45 8 58 24c17 19 22 40 22 80v19c-33 -3 -59 -7 -78 -11c-41 -9 -58 -27 -58 -59z" />
    <glyph glyph-name="b" unicode="b" horiz-adv-x="622" 
d="M597 254c0 -163 -89 -269 -221 -269c-56 0 -105 25 -136 73h-2v-58h-184v712h192v-252h2c29 41 80 63 133 63c131 0 216 -106 216 -269zM236 254c0 -76 31 -124 79 -124c49 0 81 48 81 124s-32 124 -81 124c-48 0 -79 -48 -79 -124z" />
    <glyph glyph-name="c" unicode="c" horiz-adv-x="589" 
d="M488 44c-49 -40 -111 -60 -188 -60c-166 0 -275 105 -275 272c0 162 107 268 275 268c75 0 137 -19 186 -58c48 -39 75 -92 82 -158h-199c-4 47 -29 73 -66 73c-48 0 -76 -45 -76 -125c0 -84 28 -129 76 -129c39 0 65 30 66 82h199c-5 -70 -32 -125 -80 -165z" />
    <glyph glyph-name="d" unicode="d" horiz-adv-x="622" 
d="M568 0h-184v58h-2c-31 -48 -80 -73 -136 -73c-132 0 -221 106 -221 269s85 269 216 269c53 0 104 -22 133 -63h2v252h192v-712zM226 254c0 -76 32 -124 81 -124c48 0 79 48 79 124s-31 124 -79 124c-49 0 -81 -48 -81 -124z" />
    <glyph glyph-name="e" unicode="e" horiz-adv-x="594" 
d="M569 215h-355c4 -79 34 -107 83 -107c39 0 65 20 69 49h196c-22 -99 -126 -173 -263 -173c-175 0 -274 117 -274 273c0 152 101 267 271 267c123 0 211 -57 251 -157c16 -40 22 -83 22 -152zM215 316h161c-5 61 -35 88 -80 88s-72 -29 -81 -88z" />
    <glyph glyph-name="f" unicode="f" horiz-adv-x="380" 
d="M374 582c-5 2 -13 3 -25 3c-49 0 -72 -21 -72 -70v-7h92v-137h-92v-371h-192v371h-78v137h78v29c0 123 69 185 200 185c29 0 58 -3 89 -10v-130z" />
    <glyph glyph-name="g" unicode="g" horiz-adv-x="613" 
d="M559 35c0 -155 -90 -232 -270 -232c-143 0 -230 61 -242 165h182c3 -31 26 -49 63 -49c52 0 80 31 80 110v49h-2c-29 -45 -82 -71 -139 -71c-127 0 -206 101 -206 258s82 258 211 258c57 0 111 -31 142 -83h2v68h179v-473zM243 184c14 -21 33 -31 58 -31
c47 0 77 44 77 112s-30 113 -77 113c-48 0 -79 -45 -79 -113c0 -34 7 -61 21 -81z" />
    <glyph glyph-name="h" unicode="h" 
d="M54 712h192v-250h2c31 39 77 60 133 60c116 0 186 -74 186 -209v-313h-192v289c0 57 -20 85 -60 85c-46 0 -69 -40 -69 -119v-255h-192v712z" />
    <glyph glyph-name="i" unicode="i" horiz-adv-x="300" 
d="M54 0v508h192v-508h-192zM54 571v141h192v-141h-192z" />
    <glyph glyph-name="j" unicode="j" horiz-adv-x="300" 
d="M-21 -51c52 0 75 23 75 98v461h192v-494c0 -137 -79 -205 -200 -205c-35 0 -66 4 -92 11v132c7 -2 16 -3 25 -3zM246 712v-141h-192v141h192z" />
    <glyph glyph-name="k" unicode="k" horiz-adv-x="589" 
d="M54 0v712h192v-398h2l107 194h227l-170 -240l187 -268h-235l-116 222h-2v-222h-192z" />
    <glyph glyph-name="l" unicode="l" horiz-adv-x="300" 
d="M246 712v-712h-192v712h192z" />
    <glyph glyph-name="m" unicode="m" horiz-adv-x="919" 
d="M870 0h-192v289c0 55 -18 85 -53 85c-45 0 -67 -40 -67 -120v-254h-192v294c0 53 -18 80 -54 80c-44 0 -66 -40 -66 -120v-254h-192v508h178v-58h2c33 47 84 72 145 72c70 0 120 -30 150 -89c37 59 92 89 163 89c111 0 178 -74 178 -209v-313z" />
    <glyph glyph-name="n" unicode="n" 
d="M54 508h178v-58h2c35 45 84 72 147 72c116 0 186 -74 186 -209v-313h-192v289c0 57 -20 85 -60 85c-46 0 -69 -40 -69 -119v-255h-192v508z" />
    <glyph glyph-name="o" unicode="o" horiz-adv-x="618" 
d="M593 254c0 -165 -112 -270 -284 -270s-284 105 -284 270s112 270 284 270s284 -105 284 -270zM227 254c0 -80 30 -127 82 -127s82 47 82 127s-30 127 -82 127s-82 -47 -82 -127z" />
    <glyph glyph-name="p" unicode="p" horiz-adv-x="622" 
d="M571 112c-36 -81 -103 -127 -190 -127c-53 0 -104 22 -133 63h-2v-233h-192v693h184v-58h2c31 48 80 73 136 73c132 0 221 -106 221 -269c0 -54 -9 -101 -26 -142zM258 164c14 -23 33 -34 57 -34c49 0 81 48 81 124s-32 124 -81 124c-48 0 -79 -48 -79 -124
c0 -38 7 -68 22 -90z" />
    <glyph glyph-name="q" unicode="q" horiz-adv-x="622" 
d="M568 -185h-192v233h-2c-29 -41 -80 -63 -133 -63c-131 0 -216 106 -216 269s89 269 221 269c56 0 105 -25 136 -73h2v58h184v-693zM226 254c0 -76 32 -124 81 -124c48 0 79 48 79 124s-31 124 -79 124c-49 0 -81 -48 -81 -124z" />
    <glyph glyph-name="r" unicode="r" horiz-adv-x="437" 
d="M54 508h178v-69h2c36 53 84 77 148 77c19 0 35 -2 50 -6v-164c-17 4 -37 6 -58 6c-83 0 -128 -52 -128 -147v-205h-192v508z" />
    <glyph glyph-name="s" unicode="s" horiz-adv-x="559" 
d="M532 150c0 -101 -91 -166 -247 -166c-173 0 -259 60 -259 181h192c0 -43 21 -63 68 -63c36 0 54 12 54 35c-5 32 -19 36 -117 62c-77 20 -124 36 -158 79c-17 21 -26 50 -26 85c0 97 82 161 239 161c149 0 236 -56 236 -168h-182c0 37 -19 56 -57 56
c-31 0 -47 -11 -47 -34c3 -26 13 -31 99 -54c85 -23 139 -41 177 -86c19 -23 28 -52 28 -88z" />
    <glyph glyph-name="t" unicode="t" horiz-adv-x="398" 
d="M373 4c-24 -8 -64 -13 -93 -13c-139 0 -198 52 -198 173v207h-77v137h77v142h192v-142h94v-137h-94v-155c0 -55 18 -75 63 -75c14 0 26 2 36 5v-142z" />
    <glyph glyph-name="u" unicode="u" 
d="M49 195v313h192v-289c0 -57 20 -85 60 -85c46 0 69 40 69 119v255h192v-508h-178v58h-2c-35 -45 -84 -72 -147 -72c-116 0 -186 74 -186 209z" />
    <glyph glyph-name="v" unicode="v" horiz-adv-x="555" 
d="M-9 508h207l39 -171c17 -75 31 -146 40 -212h2c11 73 24 144 39 212l40 171h206l-156 -508h-261z" />
    <glyph glyph-name="w" unicode="w" horiz-adv-x="886" 
d="M768 0h-254l-36 181c-13 63 -24 134 -34 211h-2c-10 -77 -21 -148 -34 -211l-36 -181h-254l-114 508h185l27 -177c11 -75 20 -146 26 -211h2c9 60 22 131 39 213l39 175h242l39 -175c17 -82 30 -153 39 -213h2c6 65 15 136 26 211l27 177h185z" />
    <glyph glyph-name="x" unicode="x" horiz-adv-x="561" 
d="M159 261l-154 247h216l59 -140h2l59 140h215l-154 -247l165 -261h-215l-70 155h-2l-70 -155h-216z" />
    <glyph glyph-name="y" unicode="y" horiz-adv-x="557" 
d="M409 22c-52 -163 -112 -214 -245 -214c-40 0 -73 3 -100 10v138c15 -4 31 -6 47 -6c40 0 63 17 63 50c0 7 -2 17 -5 28s-12 37 -27 76l-154 404h208l45 -169c18 -69 34 -140 47 -211h2c10 64 24 135 41 212l39 168h196z" />
    <glyph glyph-name="z" unicode="z" horiz-adv-x="521" 
d="M30 0v149l214 212v2h-207v145h446v-149l-213 -212v-2h221v-145h-461z" />
    <glyph glyph-name="braceleft" unicode="{" horiz-adv-x="383" 
d="M353 632c-52 -3 -73 -22 -73 -78v-120c0 -80 -35 -122 -108 -139v-3c73 -17 108 -59 108 -139v-119c0 -57 21 -77 73 -78v-110h-26c-169 0 -218 53 -218 193v111c0 53 -16 74 -69 87v113c53 13 69 34 69 87v111c0 140 49 193 218 193h26v-109z" />
    <glyph glyph-name="bar" unicode="|" horiz-adv-x="299" 
d="M229 732v-937h-158v937h158z" />
    <glyph glyph-name="braceright" unicode="}" horiz-adv-x="383" 
d="M343 237c-52 -13 -68 -34 -68 -87v-111c0 -140 -48 -193 -219 -193h-26v110c52 1 73 21 73 78v119c0 80 35 122 108 139v3c-73 17 -108 59 -108 139v120c0 56 -21 75 -73 78v109h26c171 0 219 -53 219 -193v-111c0 -53 16 -74 68 -87v-113z" />
    <glyph glyph-name="asciitilde" unicode="~" horiz-adv-x="606" 
d="M558 310c-32 -67 -89 -105 -160 -105c-44 0 -76 16 -123 45c-32 21 -51 31 -72 31c-33 0 -55 -26 -55 -69h-123c0 130 77 219 183 219c44 0 74 -15 123 -46c32 -21 50 -31 71 -31c33 0 56 29 56 70h123c0 -43 -8 -81 -23 -114z" />
    <glyph glyph-name="uni00A0" unicode="&#xa0;" horiz-adv-x="230" 
 />
    <glyph glyph-name="exclamdown" unicode="&#xa1;" horiz-adv-x="367" 
d="M103 285h160l31 -489h-220zM283 508v-161h-199v161h199z" />
    <glyph glyph-name="cent" unicode="&#xa2;" horiz-adv-x="656" 
d="M541 141c-36 -39 -84 -63 -143 -74v-96h-129v96c-131 23 -211 122 -211 266c0 141 79 239 211 263v96h129v-97c116 -20 192 -98 203 -210h-199c-4 47 -29 73 -66 73c-48 0 -76 -45 -76 -125c0 -84 28 -129 76 -129c39 0 65 30 66 82h199c-5 -59 -25 -107 -60 -145z" />
    <glyph glyph-name="sterling" unicode="&#xa3;" horiz-adv-x="656" 
d="M615 0h-592v155c59 0 86 29 86 112v2h-86v140h86v25c0 163 97 256 262 256c150 0 248 -89 248 -228h-185c0 49 -22 76 -63 76c-49 0 -71 -32 -71 -104v-25h130v-140h-130c0 -56 -16 -92 -53 -112v-2h368v-155z" />
    <glyph glyph-name="currency" unicode="&#xa4;" horiz-adv-x="656" 
d="M518 397c16 -33 24 -69 24 -106c0 -40 -8 -75 -24 -105l80 -85l-97 -88l-80 86c-29 -11 -60 -17 -93 -17c-34 0 -65 6 -93 17l-81 -86l-96 88l79 84c-17 31 -25 67 -25 106s8 74 25 105l-79 85l96 88l81 -86c28 11 59 17 93 17c33 0 64 -6 93 -17l80 86l96 -88zM261 222
c17 -17 39 -26 66 -26c55 0 92 38 92 95s-37 95 -92 95s-91 -38 -91 -95c0 -29 8 -52 25 -69z" />
    <glyph glyph-name="yen" unicode="&#xa5;" horiz-adv-x="656" 
d="M581 260h-153v-36h153v-76h-153v-148h-200v148h-153v76h153v36h-153v77h114l-169 337h217l31 -79c23 -56 42 -114 59 -175h2c17 61 36 119 59 175l31 79h217l-169 -337h114v-77z" />
    <glyph glyph-name="brokenbar" unicode="&#xa6;" horiz-adv-x="299" 
d="M71 -205v350h158v-350h-158zM71 382v350h158v-350h-158z" />
    <glyph glyph-name="section" unicode="&#xa7;" horiz-adv-x="665" 
d="M384 5c0 23 -10 35 -42 51c-16 8 -43 20 -82 37c-47 20 -83 37 -108 52c-26 15 -47 35 -63 60c-17 25 -25 56 -25 95c0 60 29 109 78 134v2c-31 26 -47 62 -47 108c0 57 21 102 64 135c42 33 98 49 169 49c149 0 232 -68 240 -189h-183c-1 35 -20 55 -55 55
c-29 0 -47 -16 -47 -40c3 -33 11 -37 111 -73c44 -16 80 -31 108 -46c27 -15 51 -35 70 -62s29 -61 29 -103c0 -61 -26 -108 -77 -141v-2c35 -27 52 -65 52 -112c0 -113 -95 -187 -240 -187c-155 0 -240 67 -245 196h184c2 -40 21 -60 58 -60c32 0 51 16 51 41zM446 246
c0 36 -20 57 -93 86c-31 12 -65 26 -102 43c-17 -14 -26 -31 -26 -52c0 -36 15 -54 94 -87l101 -45c17 13 26 32 26 55z" />
    <glyph glyph-name="dieresis" unicode="&#xa8;" horiz-adv-x="499" 
d="M286 712h163v-141h-163v141zM50 571v141h162v-141h-162z" />
    <glyph glyph-name="copyright" unicode="&#xa9;" horiz-adv-x="794" 
d="M714 551c30 -57 45 -122 45 -195c3 -219 -148 -375 -362 -372c-214 -3 -365 153 -362 372c-3 219 148 375 362 372c143 0 257 -65 317 -177zM653 199c24 45 36 98 36 157c0 179 -118 300 -292 300s-292 -121 -292 -300s118 -300 292 -300c116 0 207 52 256 143zM538 181
c-35 -30 -82 -45 -139 -45c-125 0 -202 83 -202 220s77 220 202 220c117 0 191 -62 196 -169h-131c-4 41 -28 65 -65 65c-44 0 -72 -44 -72 -116c0 -71 29 -116 72 -116c37 0 61 25 65 68h133c-4 -55 -24 -98 -59 -127z" />
    <glyph glyph-name="ordfeminine" unicode="&#xaa;" horiz-adv-x="427" 
d="M404 330h-137c-4 12 -6 26 -6 43h-1c-29 -35 -69 -53 -119 -53c-79 0 -128 47 -128 112c0 67 44 102 152 118c26 4 53 7 81 8v13c0 29 -12 43 -37 43s-37 -14 -37 -42h-144c4 72 62 125 182 125c123 0 182 -54 182 -151v-110c0 -45 4 -80 12 -106zM160 442
c0 -20 12 -33 35 -33c17 0 29 5 37 15c11 13 14 26 14 51v13c-21 -2 -37 -5 -50 -8c-24 -5 -36 -18 -36 -38z" />
    <glyph glyph-name="guillemotleft" unicode="&#xab;" horiz-adv-x="609" 
d="M404 454h163l-104 -200l104 -200h-163l-114 200zM41 254l114 200h163l-104 -200l104 -200h-163z" />
    <glyph glyph-name="logicalnot" unicode="&#xac;" horiz-adv-x="566" 
d="M55 324v150h456v-354h-148v204h-308z" />
    <glyph glyph-name="uni00AD" unicode="&#xad;" horiz-adv-x="353" 
d="M323 359v-134h-293v134h293z" />
    <glyph glyph-name="registered" unicode="&#xae;" horiz-adv-x="592" 
d="M516 606c21 -39 31 -85 31 -136c0 -155 -100 -258 -251 -258s-251 103 -251 258s100 258 251 258c100 0 179 -45 220 -122zM406 661c-32 18 -69 27 -110 27c-125 0 -211 -87 -211 -218s86 -218 211 -218s211 87 211 218c0 87 -37 155 -101 191zM390 445
c7 -9 15 -24 23 -44l31 -81h-91l-26 68c-11 31 -24 41 -53 41h-22v-109h-87v310h149c71 0 109 -33 109 -88c0 -39 -22 -65 -61 -77v-2c11 -3 21 -9 28 -18zM252 566v-75h36c34 0 51 13 51 40c0 21 -17 35 -48 35h-39z" />
    <glyph glyph-name="macron" unicode="&#xaf;" horiz-adv-x="493" 
d="M443 696v-115h-393v115h393z" />
    <glyph glyph-name="degree" unicode="&#xb0;" horiz-adv-x="356" 
d="M326 574c0 -80 -67 -147 -147 -147c-81 0 -148 67 -148 147c0 83 67 148 148 148c80 0 147 -65 147 -148zM118 574c0 -33 28 -61 61 -61s61 28 61 61c0 35 -26 61 -61 61c-33 0 -61 -26 -61 -61z" />
    <glyph glyph-name="plusminus" unicode="&#xb1;" horiz-adv-x="566" 
d="M55 310v145h153v130h150v-130h153v-145h-153v-130h-150v130h-153zM55 145h456v-145h-456v145z" />
    <glyph glyph-name="uni00B2" unicode="&#xb2;" horiz-adv-x="484" 
d="M456 330h-425c-1 5 -1 16 -1 33c0 53 10 97 31 130s57 61 109 84c83 37 115 56 115 88c0 23 -15 37 -42 37c-31 0 -52 -21 -52 -60h-155c0 109 75 171 206 171c124 0 201 -65 201 -150c0 -75 -48 -117 -133 -148c-39 -15 -64 -26 -77 -35s-21 -18 -23 -29h246v-121z" />
    <glyph glyph-name="uni00B3" unicode="&#xb3;" horiz-adv-x="476" 
d="M447 467c0 -91 -82 -148 -207 -148c-143 0 -220 60 -220 173h158c0 -43 20 -65 61 -65c32 0 52 16 52 41c0 31 -22 46 -71 46h-12v108h18c37 0 62 17 62 42s-18 41 -50 41c-37 0 -58 -23 -58 -62h-153c0 107 78 170 210 170c125 0 204 -52 204 -135
c0 -51 -25 -81 -84 -102v-2c63 -20 90 -52 90 -107z" />
    <glyph glyph-name="acute" unicode="&#xb4;" horiz-adv-x="388" 
d="M50 562l80 150h208l-142 -150h-146z" />
    <glyph glyph-name="uni00B5" unicode="&#xb5;" horiz-adv-x="640" 
d="M631 6c-32 -11 -69 -17 -111 -17c-65 0 -108 23 -130 70h-2c-19 -41 -54 -64 -99 -64c-17 0 -32 3 -43 9v-189h-192v693h192v-283c0 -61 20 -91 59 -91c45 0 68 37 68 111v263h192v-320c0 -40 13 -55 41 -55c9 0 17 1 25 3v-130z" />
    <glyph glyph-name="paragraph" unicode="&#xb6;" horiz-adv-x="713" 
d="M40 494c0 67 19 120 57 159c37 39 88 59 151 59h431v-124h-80v-708h-133v708h-71v-708h-133v395h-14c-63 0 -114 20 -151 60c-38 39 -57 92 -57 159z" />
    <glyph glyph-name="periodcentered" unicode="&#xb7;" horiz-adv-x="290" 
d="M245 406v-201h-200v201h200z" />
    <glyph glyph-name="cedilla" unicode="&#xb8;" horiz-adv-x="361" 
d="M311 -134c0 -61 -49 -105 -134 -105c-44 0 -90 12 -127 35l30 62c32 -15 59 -23 82 -23c25 0 39 10 39 26c0 17 -14 29 -39 29c-11 0 -21 -2 -30 -7l-39 32l51 85h80l-36 -59c11 3 22 5 32 5c57 0 91 -31 91 -80z" />
    <glyph glyph-name="uni00B9" unicode="&#xb9;" horiz-adv-x="343" 
d="M11 717c88 0 129 25 138 85h140v-472h-157v275h-121v112z" />
    <glyph glyph-name="ordmasculine" unicode="&#xba;" horiz-adv-x="450" 
d="M74 370c-37 34 -56 80 -56 138s19 104 56 138s88 51 151 51s114 -17 151 -51s56 -80 56 -138s-19 -104 -56 -138s-88 -51 -151 -51s-114 17 -151 51zM174 508c0 -51 18 -78 51 -78s51 27 51 78c0 49 -18 77 -51 77s-51 -28 -51 -77z" />
    <glyph glyph-name="guillemotright" unicode="&#xbb;" horiz-adv-x="609" 
d="M145 254l-104 200h163l114 -200l-114 -200h-163zM395 254l-104 200h162l114 -200l-114 -200h-162z" />
    <glyph glyph-name="onequarter" unicode="&#xbc;" horiz-adv-x="847" 
d="M838 71h-75v-71h-131v71h-194v101l154 232h171v-236h75v-97zM497 674h110l-356 -674h-110zM9 505v97c68 0 105 24 117 72h128v-404h-143v235h-102zM640 168v34c0 44 1 82 4 115h-2c-14 -29 -33 -61 -57 -98l-33 -51h88z" />
    <glyph glyph-name="onehalf" unicode="&#xbd;" horiz-adv-x="868" 
d="M803 208c-20 -20 -48 -37 -85 -51c-35 -13 -57 -22 -68 -29s-18 -15 -19 -24h213v-104h-369c-1 6 -1 16 -1 29c0 89 31 139 122 182c38 19 64 33 78 43c14 9 21 21 21 34c0 19 -12 30 -35 30c-28 0 -45 -17 -45 -52h-135c1 95 67 148 180 148c105 0 172 -54 172 -129
c0 -32 -10 -58 -29 -77zM497 674h110l-356 -674h-110zM9 505v97c68 0 105 24 117 72h128v-404h-143v235h-102z" />
    <glyph glyph-name="threequarters" unicode="&#xbe;" horiz-adv-x="960" 
d="M551 71v101l154 232h171v-236h75v-97h-75v-71h-131v71h-194zM16 409h136c0 -35 18 -53 55 -53c28 0 47 14 47 35c0 24 -20 36 -60 36h-14v92h13c38 0 57 12 57 36c0 20 -17 33 -46 33c-32 0 -51 -18 -51 -49h-130c0 91 69 145 182 145c105 0 176 -47 176 -118
c0 -44 -22 -70 -73 -85v-2c55 -16 78 -45 78 -93c0 -81 -63 -126 -179 -126c-121 0 -191 52 -191 149zM720 674l-356 -674h-110l356 674h110zM753 168v34c0 44 1 82 4 115h-2c-14 -29 -33 -61 -57 -98l-33 -51h88z" />
    <glyph glyph-name="questiondown" unicode="&#xbf;" horiz-adv-x="567" 
d="M495 -160c-47 -40 -114 -60 -200 -60c-164 0 -262 73 -262 193c0 34 7 63 21 86c13 23 39 51 76 82c37 30 61 55 73 76s18 47 18 80h162c2 -18 3 -36 3 -54c0 -77 -13 -101 -87 -169c-27 -24 -44 -42 -52 -54c-8 -13 -12 -28 -12 -45c0 -33 23 -55 60 -55
c49 0 74 29 74 96h198c-1 -77 -25 -135 -72 -176zM203 347v161h199v-161h-199z" />
    <glyph glyph-name="Agrave" unicode="&#xc0;" horiz-adv-x="731" 
d="M522 0l-36 128h-241l-36 -128h-211l239 712h257l239 -712h-211zM392 916l80 -156h-146l-142 156h208zM442 285l-14 49c-21 73 -41 153 -61 240h-2c-21 -91 -42 -171 -62 -240l-14 -49h153z" />
    <glyph glyph-name="Aacute" unicode="&#xc1;" horiz-adv-x="731" 
d="M522 0l-36 128h-241l-36 -128h-211l239 712h257l239 -712h-211zM339 916h208l-142 -156h-146zM289 285h153l-14 49c-21 73 -41 153 -61 240h-2c-21 -91 -42 -171 -62 -240z" />
    <glyph glyph-name="Acircumflex" unicode="&#xc2;" horiz-adv-x="731" 
d="M522 0l-36 128h-241l-36 -128h-211l239 712h257l239 -712h-211zM284 916h162l128 -156h-149l-60 81l-59 -81h-149zM289 285h153l-14 49c-21 73 -41 153 -61 240h-2c-21 -91 -42 -171 -62 -240z" />
    <glyph glyph-name="Atilde" unicode="&#xc3;" horiz-adv-x="731" 
d="M237 712h257l239 -712h-211l-36 128h-241l-36 -128h-211zM531 805c-23 -27 -54 -41 -94 -41c-31 0 -51 8 -84 24c-24 12 -35 17 -50 17c-24 0 -36 -13 -40 -41h-99c5 96 51 152 131 152c31 0 51 -8 84 -24c4 -1 31 -16 50 -16c24 0 36 12 39 40h99
c-2 -47 -14 -84 -36 -111zM289 285h153l-14 49c-21 73 -41 153 -61 240h-2c-21 -91 -42 -171 -62 -240z" />
    <glyph glyph-name="Adieresis" unicode="&#xc4;" horiz-adv-x="731" 
d="M-2 0l239 712h257l239 -712h-211l-36 128h-241l-36 -128h-211zM565 769h-163v141h163v-141zM166 769v141h162v-141h-162zM289 285h153l-14 49c-21 73 -41 153 -61 240h-2c-21 -91 -42 -171 -62 -240z" />
    <glyph glyph-name="Aring" unicode="&#xc5;" horiz-adv-x="731" 
d="M522 0l-36 128h-241l-36 -128h-211l239 712h257l239 -712h-211zM246 873c0 33 12 62 36 85c23 23 51 35 84 35s62 -12 85 -35s34 -52 34 -85s-11 -62 -34 -85s-52 -35 -85 -35s-61 12 -84 36c-24 23 -36 51 -36 84zM442 285l-14 49c-21 73 -41 153 -61 240h-2
c-21 -91 -42 -171 -62 -240l-14 -49h153zM308 873c0 -32 26 -58 58 -58s58 26 58 58s-26 58 -58 58s-58 -26 -58 -58z" />
    <glyph glyph-name="AE" unicode="&#xc6;" horiz-adv-x="989" 
d="M944 0h-421l-20 142h-236l-57 -142h-216l304 712h643v-165h-308l16 -107h267v-161h-245l17 -114h256v-165zM481 302l-36 247h-14l-99 -247h149z" />
    <glyph glyph-name="Ccedilla" unicode="&#xc7;" horiz-adv-x="730" 
d="M502 -134c0 -61 -49 -105 -134 -105c-44 0 -90 12 -127 35l30 62c32 -15 59 -23 82 -23c25 0 39 10 39 26c0 17 -14 29 -39 29c-11 0 -21 -2 -30 -7l-39 32l43 71c-93 9 -166 47 -218 112s-78 151 -78 258c0 230 130 372 340 372c192 0 317 -106 325 -281h-210
c-8 71 -48 111 -115 111c-80 0 -131 -77 -131 -202c0 -124 51 -202 131 -202c65 0 109 44 116 117h213c-13 -172 -123 -274 -294 -286l-27 -44c11 3 22 5 32 5c57 0 91 -31 91 -80z" />
    <glyph glyph-name="Egrave" unicode="&#xc8;" horiz-adv-x="635" 
d="M69 712h515v-165h-315v-107h293v-161h-293v-114h321v-165h-521v712zM355 916l80 -156h-146l-142 156h208z" />
    <glyph glyph-name="Eacute" unicode="&#xc9;" horiz-adv-x="635" 
d="M69 712h515v-165h-315v-107h293v-161h-293v-114h321v-165h-521v712zM302 916h208l-142 -156h-146z" />
    <glyph glyph-name="Ecircumflex" unicode="&#xca;" horiz-adv-x="635" 
d="M590 0h-521v712h515v-165h-315v-107h293v-161h-293v-114h321v-165zM120 760l127 156h162l128 -156h-149l-60 81l-59 -81h-149z" />
    <glyph glyph-name="Edieresis" unicode="&#xcb;" horiz-adv-x="635" 
d="M590 0h-521v712h515v-165h-315v-107h293v-161h-293v-114h321v-165zM528 910v-141h-163v141h163zM129 769v141h162v-141h-162z" />
    <glyph glyph-name="Igrave" unicode="&#xcc;" horiz-adv-x="338" 
d="M269 712v-712h-200v712h200zM-13 916h208l80 -156h-146z" />
    <glyph glyph-name="Iacute" unicode="&#xcd;" horiz-adv-x="338" 
d="M269 712v-712h-200v712h200zM62 760l80 156h208l-142 -156h-146z" />
    <glyph glyph-name="Icircumflex" unicode="&#xce;" horiz-adv-x="338" 
d="M269 712v-712h-200v712h200zM87 916h162l128 -156h-149l-60 81l-59 -81h-149z" />
    <glyph glyph-name="Idieresis" unicode="&#xcf;" horiz-adv-x="338" 
d="M69 712h200v-712h-200v712zM205 910h163v-141h-163v141zM-31 910h162v-141h-162v141z" />
    <glyph glyph-name="Eth" unicode="&#xd0;" horiz-adv-x="754" 
d="M723 356c0 -228 -137 -356 -382 -356h-268v298h-60v122h60v292h268c245 0 382 -128 382 -356zM272 420h140v-122h-140v-130h63c116 0 179 67 179 188s-63 188 -179 188h-63v-124z" />
    <glyph glyph-name="Ntilde" unicode="&#xd1;" horiz-adv-x="827" 
d="M574 163c-5 103 -8 200 -8 291v258h191v-712h-290l-111 273c-38 95 -72 187 -102 276h-2c5 -86 8 -183 8 -291v-258h-191v712h291l110 -273c39 -94 73 -186 102 -276h2zM249 876c22 27 53 40 93 40c31 0 51 -8 84 -24c4 -1 31 -16 50 -16c24 0 36 12 39 40h99
c-4 -95 -50 -152 -130 -152c-31 0 -51 8 -84 24c-24 12 -35 17 -50 17c-24 0 -36 -13 -40 -41h-99c3 48 15 85 38 112z" />
    <glyph glyph-name="Ograve" unicode="&#xd2;" horiz-adv-x="767" 
d="M736 356c0 -227 -137 -372 -353 -372c-215 0 -352 145 -352 372s137 372 352 372c216 0 353 -145 353 -372zM241 356c0 -129 51 -202 142 -202c92 0 143 73 143 202s-51 202 -143 202c-91 0 -142 -73 -142 -202zM202 916h208l80 -156h-146z" />
    <glyph glyph-name="Oacute" unicode="&#xd3;" horiz-adv-x="767" 
d="M736 356c0 -227 -137 -372 -353 -372c-215 0 -352 145 -352 372s137 372 352 372c216 0 353 -145 353 -372zM241 356c0 -129 51 -202 142 -202c92 0 143 73 143 202s-51 202 -143 202c-91 0 -142 -73 -142 -202zM357 916h208l-142 -156h-146z" />
    <glyph glyph-name="Ocircumflex" unicode="&#xd4;" horiz-adv-x="767" 
d="M693 159c-57 -112 -167 -175 -310 -175c-215 0 -352 145 -352 372s137 372 352 372c216 0 353 -145 353 -372c0 -75 -14 -141 -43 -197zM278 207c25 -35 60 -53 105 -53c92 0 143 73 143 202s-51 202 -143 202c-91 0 -142 -73 -142 -202c0 -65 12 -114 37 -149zM302 916
h162l128 -156h-149l-60 81l-59 -81h-149z" />
    <glyph glyph-name="Otilde" unicode="&#xd5;" horiz-adv-x="767" 
d="M570 30c-53 -31 -116 -46 -187 -46c-215 0 -352 145 -352 372s137 372 352 372c216 0 353 -145 353 -372c0 -151 -59 -266 -166 -326zM489 506c-25 35 -60 52 -106 52c-91 0 -142 -73 -142 -202s51 -202 142 -202c92 0 143 73 143 202c0 65 -12 115 -37 150zM548 805
c-23 -27 -54 -41 -94 -41c-31 0 -51 8 -84 24c-24 12 -35 17 -50 17c-24 0 -36 -13 -40 -41h-99c5 96 51 152 131 152c31 0 51 -8 84 -24c4 -1 31 -16 50 -16c24 0 36 12 39 40h99c-2 -47 -14 -84 -36 -111z" />
    <glyph glyph-name="Odieresis" unicode="&#xd6;" horiz-adv-x="767" 
d="M693 159c-57 -112 -167 -175 -310 -175c-215 0 -352 145 -352 372s137 372 352 372c216 0 353 -145 353 -372c0 -75 -14 -141 -43 -197zM241 356c0 -129 51 -202 142 -202c92 0 143 73 143 202s-51 202 -143 202c-91 0 -142 -73 -142 -202zM420 769v141h163v-141h-163z
M184 769v141h162v-141h-162z" />
    <glyph glyph-name="multiply" unicode="&#xd7;" horiz-adv-x="566" 
d="M12 152l167 166l-167 165l106 106l166 -166l166 166l105 -106l-166 -165l166 -166l-105 -106l-166 166l-166 -166z" />
    <glyph glyph-name="Oslash" unicode="&#xd8;" horiz-adv-x="767" 
d="M736 356c0 -227 -137 -372 -353 -372c-68 0 -128 14 -181 42l-59 -80l-79 58l61 82c-61 65 -94 158 -94 270c0 227 137 372 352 372c69 0 130 -14 182 -43l60 81l79 -58l-61 -83c60 -64 93 -157 93 -269zM245 250l218 296c-23 15 -50 22 -80 22c-97 0 -153 -77 -153 -212
c0 -41 5 -77 15 -106zM383 144c99 0 154 77 154 212c0 40 -5 75 -14 105l-218 -295c21 -15 47 -22 78 -22z" />
    <glyph glyph-name="Ugrave" unicode="&#xd9;" horiz-adv-x="731" 
d="M668 281c0 -189 -109 -297 -302 -297s-303 106 -303 297v431h200v-428c0 -81 36 -126 103 -126s102 45 102 126v428h200v-431zM183 916h208l80 -156h-146z" />
    <glyph glyph-name="Uacute" unicode="&#xda;" horiz-adv-x="731" 
d="M668 281c0 -189 -109 -297 -302 -297s-303 106 -303 297v431h200v-428c0 -81 36 -126 103 -126s102 45 102 126v428h200v-431zM339 916h208l-142 -156h-146z" />
    <glyph glyph-name="Ucircumflex" unicode="&#xdb;" horiz-adv-x="731" 
d="M668 281c0 -189 -109 -297 -302 -297s-303 106 -303 297v431h200v-428c0 -81 36 -126 103 -126s102 45 102 126v428h200v-431zM283 916h162l128 -156h-149l-60 81l-59 -81h-149z" />
    <glyph glyph-name="Udieresis" unicode="&#xdc;" horiz-adv-x="731" 
d="M668 281c0 -189 -109 -297 -302 -297s-303 106 -303 297v431h200v-428c0 -81 36 -126 103 -126s102 45 102 126v428h200v-431zM565 910v-141h-163v141h163zM166 769v141h162v-141h-162z" />
    <glyph glyph-name="Yacute" unicode="&#xdd;" horiz-adv-x="689" 
d="M276 587c28 -63 50 -121 67 -176h2c18 57 41 115 68 176l56 125h219l-244 -452v-260h-200v260l-244 452h220zM238 760l80 156h208l-142 -156h-146z" />
    <glyph glyph-name="Thorn" unicode="&#xde;" horiz-adv-x="673" 
d="M653 366c0 -156 -98 -249 -283 -249h-100v-117h-201v712h201v-99h100c185 0 283 -92 283 -247zM270 279h64c80 0 113 26 113 86s-34 87 -113 87h-64v-173z" />
    <glyph glyph-name="germandbls" unicode="&#xdf;" horiz-adv-x="599" 
d="M576 204c0 -137 -87 -207 -254 -207c-15 0 -27 1 -37 3v144c5 -1 11 -2 18 -2c49 0 76 29 76 85c0 55 -29 85 -84 85h-10v151c56 0 83 22 83 66c0 37 -23 58 -59 58c-44 0 -63 -28 -63 -91v-496h-192v509c0 68 22 122 67 161c44 39 105 58 182 58c75 0 134 -16 179 -48
c45 -33 67 -76 67 -131c0 -80 -39 -128 -123 -155v-2c101 -27 150 -88 150 -188z" />
    <glyph glyph-name="agrave" unicode="&#xe0;" horiz-adv-x="576" 
d="M527 313v-165c0 -63 5 -112 16 -148h-173c-5 19 -8 41 -8 64h-2c-40 -52 -95 -78 -165 -78c-54 0 -97 15 -129 45s-48 68 -48 114c0 92 59 143 207 166c36 6 75 10 117 13v18c0 47 -20 70 -60 70c-37 0 -59 -22 -60 -65h-183c3 51 25 94 65 127s100 50 180 50
c164 0 243 -74 243 -211zM96 712h208l80 -150h-146zM221 120c9 -10 23 -15 41 -15c23 0 45 8 58 24c17 19 22 40 22 80v19c-33 -3 -59 -7 -78 -11c-41 -9 -58 -27 -58 -59c0 -16 5 -29 15 -38z" />
    <glyph glyph-name="aacute" unicode="&#xe1;" horiz-adv-x="576" 
d="M527 313v-165c0 -63 5 -112 16 -148h-173c-5 19 -8 41 -8 64h-2c-40 -52 -95 -78 -165 -78c-54 0 -97 15 -129 45s-48 68 -48 114c0 92 59 143 207 166c36 6 75 10 117 13v18c0 47 -20 70 -60 70c-37 0 -59 -22 -60 -65h-183c3 51 25 94 65 127s100 50 180 50
c164 0 243 -74 243 -211zM251 712h208l-142 -150h-146zM221 120c9 -10 23 -15 41 -15c23 0 45 8 58 24c17 19 22 40 22 80v19c-33 -3 -59 -7 -78 -11c-41 -9 -58 -27 -58 -59c0 -16 5 -29 15 -38z" />
    <glyph glyph-name="acircumflex" unicode="&#xe2;" horiz-adv-x="576" 
d="M360 64c-40 -52 -95 -78 -165 -78c-54 0 -97 15 -129 45s-48 68 -48 114c0 92 59 143 207 166c36 6 75 10 117 13v18c0 47 -20 70 -60 70c-37 0 -59 -22 -60 -65h-183c3 51 25 94 65 127s100 50 180 50c164 0 243 -74 243 -211v-165c0 -63 5 -112 16 -148h-173
c-5 19 -8 41 -8 64h-2zM74 562l123 150h162l123 -150h-149l-55 75l-55 -75h-149zM221 120c9 -10 23 -15 41 -15c23 0 45 8 58 24c17 19 22 40 22 80v19c-33 -3 -59 -7 -78 -11c-41 -9 -58 -27 -58 -59c0 -16 5 -29 15 -38z" />
    <glyph glyph-name="atilde" unicode="&#xe3;" horiz-adv-x="576" 
d="M342 342c0 47 -20 70 -60 70c-37 0 -59 -22 -60 -65h-183c3 51 25 94 65 127s100 50 180 50c164 0 243 -74 243 -211v-165c0 -63 5 -112 16 -148h-173c-5 19 -8 41 -8 64h-2c-40 -52 -95 -78 -165 -78c-54 0 -97 15 -129 45s-48 68 -48 114c0 92 59 143 207 166
c36 6 75 10 117 13v18zM341 672c24 0 36 12 39 40h99c-4 -95 -50 -152 -130 -152c-31 0 -51 8 -84 24c-24 12 -35 17 -50 17c-24 0 -36 -13 -40 -41h-99c5 96 51 152 131 152c31 0 51 -8 84 -24c4 -1 31 -16 50 -16zM338 161c3 12 4 28 4 48v19c-33 -3 -59 -7 -78 -11
c-41 -9 -58 -27 -58 -59s20 -53 56 -53c23 0 45 8 58 24c9 9 15 20 18 32z" />
    <glyph glyph-name="adieresis" unicode="&#xe4;" horiz-adv-x="576" 
d="M362 64h-2c-40 -52 -95 -78 -165 -78c-54 0 -97 15 -129 45s-48 68 -48 114c0 92 59 143 207 166c36 6 75 10 117 13v18c0 47 -20 70 -60 70c-37 0 -59 -22 -60 -65h-183c3 51 25 94 65 127s100 50 180 50c164 0 243 -74 243 -211v-165c0 -63 5 -112 16 -148h-173
c-5 19 -8 41 -8 64zM477 571h-163v141h163v-141zM78 571v141h162v-141h-162zM206 158c0 -32 20 -53 56 -53c23 0 45 8 58 24c17 19 22 40 22 80v19c-33 -3 -59 -7 -78 -11c-41 -9 -58 -27 -58 -59z" />
    <glyph glyph-name="aring" unicode="&#xe5;" horiz-adv-x="576" 
d="M342 342c0 47 -20 70 -60 70c-37 0 -59 -22 -60 -65h-183c3 51 25 94 65 127s100 50 180 50c164 0 243 -74 243 -211v-165c0 -63 5 -112 16 -148h-173c-5 19 -8 41 -8 64h-2c-40 -52 -95 -78 -165 -78c-54 0 -97 15 -129 45s-48 68 -48 114c0 92 59 143 207 166
c36 6 75 10 117 13v18zM397 669c0 -33 -11 -62 -34 -85s-52 -35 -85 -35s-61 12 -84 36c-24 23 -36 51 -36 84s12 62 36 85c23 23 51 35 84 35s62 -12 85 -35s34 -52 34 -85zM338 161c3 12 4 28 4 48v19c-33 -3 -59 -7 -78 -11c-41 -9 -58 -27 -58 -59s20 -53 56 -53
c23 0 45 8 58 24c9 9 15 20 18 32zM336 669c0 32 -26 58 -58 58s-58 -26 -58 -58s26 -58 58 -58s58 26 58 58z" />
    <glyph glyph-name="ae" unicode="&#xe6;" horiz-adv-x="911" 
d="M662 122c12 9 19 20 20 35h196c-22 -99 -126 -173 -261 -173c-83 0 -149 29 -193 81c-39 -54 -103 -81 -192 -81c-136 0 -214 66 -214 161c0 124 93 171 304 171h32v26c0 48 -20 70 -65 70c-43 0 -65 -22 -66 -65h-183c3 51 25 94 66 127s102 50 183 50
c73 0 129 -16 168 -49c42 33 94 49 157 49c123 0 210 -57 249 -157c16 -40 23 -84 23 -152h-353c4 -79 34 -107 82 -107c19 0 34 5 47 14zM221 116c10 -11 24 -16 43 -16c27 0 49 8 64 24c19 19 26 43 26 86v13h-31c-78 0 -117 -22 -117 -66c0 -17 5 -31 15 -41zM669 383
c-15 14 -33 21 -55 21c-44 0 -70 -30 -78 -90h157c-2 31 -10 54 -24 69z" />
    <glyph glyph-name="ccedilla" unicode="&#xe7;" horiz-adv-x="589" 
d="M369 308c-4 47 -29 73 -66 73c-48 0 -76 -45 -76 -125c0 -84 28 -129 76 -129c39 0 65 30 66 82h199c-9 -128 -98 -211 -233 -223l-27 -45c11 3 22 5 32 5c57 0 91 -31 91 -80c0 -61 -49 -105 -134 -105c-44 0 -90 12 -127 35l30 62c32 -15 59 -23 82 -23
c25 0 39 10 39 26c0 17 -14 29 -39 29c-11 0 -21 -2 -30 -7l-39 32l43 72c-71 9 -128 37 -169 85c-41 47 -62 109 -62 184c0 162 107 268 275 268c75 0 137 -19 186 -58c48 -39 75 -92 82 -158h-199z" />
    <glyph glyph-name="egrave" unicode="&#xe8;" horiz-adv-x="594" 
d="M569 215h-355c4 -79 34 -107 83 -107c39 0 65 20 69 49h196c-22 -99 -126 -173 -263 -173c-175 0 -274 117 -274 273c0 152 101 267 271 267c123 0 211 -57 251 -157c16 -40 22 -83 22 -152zM323 712l80 -150h-146l-142 150h208zM376 316c-5 61 -35 88 -80 88
s-72 -29 -81 -88h161z" />
    <glyph glyph-name="eacute" unicode="&#xe9;" horiz-adv-x="594" 
d="M569 215h-355c4 -79 34 -107 83 -107c39 0 65 20 69 49h196c-22 -99 -126 -173 -263 -173c-175 0 -274 117 -274 273c0 152 101 267 271 267c123 0 211 -57 251 -157c16 -40 22 -83 22 -152zM190 562l80 150h208l-142 -150h-146zM215 316h161c-5 61 -35 88 -80 88
s-72 -29 -81 -88z" />
    <glyph glyph-name="ecircumflex" unicode="&#xea;" horiz-adv-x="594" 
d="M569 215h-355c4 -79 34 -107 83 -107c39 0 65 20 69 49h196c-22 -99 -126 -173 -263 -173c-175 0 -274 117 -274 273c0 152 101 267 271 267c123 0 211 -57 251 -157c16 -40 22 -83 22 -152zM216 712h162l123 -150h-149l-55 75l-55 -75h-149zM376 316
c-5 61 -35 88 -80 88s-72 -29 -81 -88h161z" />
    <glyph glyph-name="edieresis" unicode="&#xeb;" horiz-adv-x="594" 
d="M569 215h-355c4 -79 34 -107 83 -107c39 0 65 20 69 49h196c-22 -99 -126 -173 -263 -173c-175 0 -274 117 -274 273c0 152 101 267 271 267c123 0 211 -57 251 -157c16 -40 22 -83 22 -152zM333 571v141h163v-141h-163zM259 712v-141h-162v141h162zM215 316h161
c-5 61 -35 88 -80 88s-72 -29 -81 -88z" />
    <glyph glyph-name="igrave" unicode="&#xec;" horiz-adv-x="300" 
d="M246 508v-508h-192v508h192zM-32 712h208l80 -150h-146z" />
    <glyph glyph-name="iacute" unicode="&#xed;" horiz-adv-x="300" 
d="M246 508v-508h-192v508h192zM44 562l80 150h208l-142 -150h-146z" />
    <glyph glyph-name="icircumflex" unicode="&#xee;" horiz-adv-x="300" 
d="M54 508h192v-508h-192v508zM-39 565l113 147h152l113 -147h-141l-48 64l-47 -64h-142z" />
    <glyph glyph-name="idieresis" unicode="&#xef;" horiz-adv-x="300" 
d="M54 508h192v-508h-192v508zM173 712h143v-141h-143v141zM-15 712h142v-141h-142v141z" />
    <glyph glyph-name="eth" unicode="&#xf0;" horiz-adv-x="605" 
d="M580 264c0 -176 -110 -280 -282 -280c-165 0 -273 99 -273 252c0 159 90 262 228 262c23 0 42 -3 58 -9v2c-18 21 -40 43 -65 66l-130 -46l-28 77l85 30c-15 12 -35 26 -59 43l165 67c25 -16 48 -32 67 -48l124 44l28 -77l-82 -29c34 -33 63 -67 86 -101
c53 -80 78 -158 78 -253zM248 157c13 -23 32 -34 57 -34c49 0 77 47 77 128c0 80 -28 128 -77 128s-77 -48 -77 -128c0 -41 7 -72 20 -94z" />
    <glyph glyph-name="ntilde" unicode="&#xf1;" 
d="M567 313v-313h-192v289c0 57 -20 85 -60 85c-46 0 -69 -40 -69 -119v-255h-192v508h178v-58h2c35 45 84 72 147 72c116 0 186 -74 186 -209zM109 560c5 96 51 152 131 152c31 0 51 -8 84 -24c4 -1 31 -16 50 -16c24 0 36 12 39 40h99c-4 -95 -50 -152 -130 -152
c-31 0 -51 8 -84 24c-24 12 -35 17 -50 17c-24 0 -36 -13 -40 -41h-99z" />
    <glyph glyph-name="ograve" unicode="&#xf2;" horiz-adv-x="618" 
d="M593 254c0 -165 -112 -270 -284 -270s-284 105 -284 270s112 270 284 270s284 -105 284 -270zM227 254c0 -80 30 -127 82 -127s82 47 82 127s-30 127 -82 127s-82 -47 -82 -127zM335 712l80 -150h-146l-142 150h208z" />
    <glyph glyph-name="oacute" unicode="&#xf3;" horiz-adv-x="618" 
d="M593 254c0 -165 -112 -270 -284 -270s-284 105 -284 270s112 270 284 270s284 -105 284 -270zM227 254c0 -80 30 -127 82 -127s82 47 82 127s-30 127 -82 127s-82 -47 -82 -127zM203 562l80 150h208l-142 -150h-146z" />
    <glyph glyph-name="ocircumflex" unicode="&#xf4;" horiz-adv-x="618" 
d="M593 254c0 -165 -112 -270 -284 -270s-284 105 -284 270s112 270 284 270s284 -105 284 -270zM105 562l123 150h162l123 -150h-149l-55 75l-55 -75h-149zM249 161c14 -23 34 -34 60 -34c52 0 82 47 82 127s-30 127 -82 127s-82 -47 -82 -127c0 -40 7 -71 22 -93z" />
    <glyph glyph-name="otilde" unicode="&#xf5;" horiz-adv-x="618" 
d="M558 397c23 -41 35 -88 35 -143c0 -165 -112 -270 -284 -270s-284 105 -284 270s112 270 284 270c115 0 202 -46 249 -127zM510 712c-4 -95 -50 -152 -130 -152c-31 0 -51 8 -84 24c-24 12 -35 17 -50 17c-24 0 -36 -13 -40 -41h-99c5 96 51 152 131 152
c31 0 51 -8 84 -24c4 -1 31 -16 50 -16c24 0 36 12 39 40h99zM227 254c0 -80 30 -127 82 -127s82 47 82 127s-30 127 -82 127s-82 -47 -82 -127z" />
    <glyph glyph-name="odieresis" unicode="&#xf6;" horiz-adv-x="618" 
d="M558 111c-47 -81 -134 -127 -249 -127c-172 0 -284 105 -284 270s112 270 284 270s284 -105 284 -270c0 -55 -12 -102 -35 -143zM227 254c0 -80 30 -127 82 -127s82 47 82 127s-30 127 -82 127s-82 -47 -82 -127zM346 571v141h163v-141h-163zM110 571v141h162v-141h-162z
" />
    <glyph glyph-name="divide" unicode="&#xf7;" horiz-adv-x="566" 
d="M511 392v-149h-456v149h456zM201 566h164v-126h-164v126zM201 68v126h164v-126h-164z" />
    <glyph glyph-name="oslash" unicode="&#xf8;" horiz-adv-x="618" 
d="M593 254c0 -165 -112 -270 -284 -270c-47 0 -90 8 -128 23l-52 -71l-68 50l48 65c-55 48 -84 118 -84 203c0 165 112 270 284 270c47 0 90 -8 129 -23l52 71l68 -50l-48 -66c53 -48 83 -117 83 -202zM222 193l134 183c-13 9 -29 14 -47 14c-60 0 -95 -53 -95 -136
c0 -21 3 -42 8 -61zM309 118c60 0 95 53 95 136c0 24 -2 44 -7 60l-134 -183c14 -9 29 -13 46 -13z" />
    <glyph glyph-name="ugrave" unicode="&#xf9;" 
d="M562 0h-178v58h-2c-35 -45 -84 -72 -147 -72c-116 0 -186 74 -186 209v313h192v-289c0 -57 20 -85 60 -85c46 0 69 40 69 119v255h192v-508zM335 712l80 -150h-146l-142 150h208z" />
    <glyph glyph-name="uacute" unicode="&#xfa;" 
d="M562 0h-178v58h-2c-35 -45 -84 -72 -147 -72c-116 0 -186 74 -186 209v313h192v-289c0 -57 20 -85 60 -85c46 0 69 40 69 119v255h192v-508zM282 712h208l-142 -150h-146z" />
    <glyph glyph-name="ucircumflex" unicode="&#xfb;" 
d="M562 0h-178v58h-2c-35 -45 -84 -72 -147 -72c-116 0 -186 74 -186 209v313h192v-289c0 -57 20 -85 60 -85c46 0 69 40 69 119v255h192v-508zM228 712h162l123 -150h-149l-55 75l-55 -75h-149z" />
    <glyph glyph-name="udieresis" unicode="&#xfc;" 
d="M562 0h-178v58h-2c-35 -45 -84 -72 -147 -72c-116 0 -186 74 -186 209v313h192v-289c0 -57 20 -85 60 -85c46 0 69 40 69 119v255h192v-508zM508 712v-141h-163v141h163zM271 712v-141h-162v141h162z" />
    <glyph glyph-name="yacute" unicode="&#xfd;" horiz-adv-x="557" 
d="M409 22c-52 -163 -112 -214 -245 -214c-40 0 -73 3 -100 10v138c15 -4 31 -6 47 -6c40 0 63 17 63 50c0 7 -2 17 -5 28s-12 37 -27 76l-154 404h208l45 -169c18 -69 34 -140 47 -211h2c10 64 24 135 41 212l39 168h196zM256 712h208l-142 -150h-146z" />
    <glyph glyph-name="thorn" unicode="&#xfe;" horiz-adv-x="622" 
d="M597 254c0 -163 -85 -269 -216 -269c-53 0 -104 22 -133 63h-2v-233h-192v897h192v-252h2c29 41 80 63 133 63c131 0 216 -106 216 -269zM236 254c0 -76 31 -124 79 -124c49 0 81 48 81 124s-32 124 -81 124c-48 0 -79 -48 -79 -124z" />
    <glyph glyph-name="ydieresis" unicode="&#xff;" horiz-adv-x="557" 
d="M196 508l45 -169c18 -69 34 -140 47 -211h2c10 64 24 135 41 212l39 168h196l-157 -486c-52 -163 -112 -214 -245 -214c-40 0 -73 3 -100 10v138c15 -4 31 -6 47 -6c40 0 63 17 63 50c0 7 -2 17 -5 28s-12 37 -27 76l-154 404h208zM482 571h-163v141h163v-141zM83 712
h162v-141h-162v141z" />
    <glyph glyph-name="Amacron" unicode="&#x100;" horiz-adv-x="731" 
d="M237 712h257l239 -712h-211l-36 128h-241l-36 -128h-211zM562 775h-393v115h393v-115zM289 285h153l-14 49c-21 73 -41 153 -61 240h-2c-21 -91 -42 -171 -62 -240z" />
    <glyph glyph-name="amacron" unicode="&#x101;" horiz-adv-x="576" 
d="M18 145c0 92 59 143 207 166c36 6 75 10 117 13v18c0 47 -20 70 -60 70c-37 0 -59 -22 -60 -65h-183c3 51 25 94 65 127s100 50 180 50c164 0 243 -74 243 -211v-165c0 -63 5 -112 16 -148h-173c-5 19 -8 41 -8 64h-2c-40 -52 -95 -78 -165 -78c-54 0 -97 15 -129 45
s-48 68 -48 114zM474 581h-393v115h393v-115zM221 120c9 -10 23 -15 41 -15c23 0 45 8 58 24c17 19 22 40 22 80v19c-33 -3 -59 -7 -78 -11c-41 -9 -58 -27 -58 -59c0 -16 5 -29 15 -38z" />
    <glyph glyph-name="Abreve" unicode="&#x102;" horiz-adv-x="731" 
d="M522 0l-36 128h-241l-36 -128h-211l239 712h257l239 -712h-211zM185 916h117c2 -34 23 -51 64 -51s62 17 64 51h117c-4 -100 -69 -157 -181 -157s-177 57 -181 157zM289 285h153l-14 49c-21 73 -41 153 -61 240h-2c-21 -91 -42 -171 -62 -240z" />
    <glyph glyph-name="abreve" unicode="&#x103;" horiz-adv-x="576" 
d="M362 64h-2c-40 -52 -95 -78 -165 -78c-54 0 -97 15 -129 45s-48 68 -48 114c0 92 59 143 207 166c36 6 75 10 117 13v18c0 47 -20 70 -60 70c-37 0 -59 -22 -60 -65h-183c3 51 25 94 65 127s100 50 180 50c164 0 243 -74 243 -211v-165c0 -63 5 -112 16 -148h-173
c-5 19 -8 41 -8 64zM409 596c-31 -27 -75 -41 -131 -41c-112 0 -177 57 -181 157h117c2 -34 23 -51 64 -51s62 17 64 51h117c-2 -50 -19 -89 -50 -116zM221 120c9 -10 23 -15 41 -15c23 0 45 8 58 24c17 19 22 40 22 80v19c-33 -3 -59 -7 -78 -11c-41 -9 -58 -27 -58 -59
c0 -16 5 -29 15 -38z" />
    <glyph glyph-name="Aogonek" unicode="&#x104;" horiz-adv-x="731" 
d="M736 -185c-30 -11 -65 -16 -106 -16c-89 0 -134 35 -134 96c0 43 30 74 90 105h-64l-36 128h-241l-36 -128h-211l239 712h257l239 -712c-44 -28 -60 -48 -60 -71c0 -18 10 -27 31 -27c13 0 23 2 32 6v-93zM442 285l-14 49c-21 73 -41 153 -61 240h-2
c-21 -91 -42 -171 -62 -240l-14 -49h153z" />
    <glyph glyph-name="aogonek" unicode="&#x105;" horiz-adv-x="576" 
d="M527 313v-165c0 -63 5 -112 16 -148c-44 -28 -60 -48 -60 -71c0 -18 10 -27 31 -27c13 0 23 2 32 6v-93c-30 -11 -65 -16 -106 -16c-89 0 -134 35 -134 96c0 43 30 74 90 105h-26c-5 19 -8 41 -8 64h-2c-40 -52 -95 -78 -165 -78c-54 0 -97 15 -129 45s-48 68 -48 114
c0 92 59 143 207 166c36 6 75 10 117 13v18c0 47 -20 70 -60 70c-37 0 -59 -22 -60 -65h-183c3 51 25 94 65 127s100 50 180 50c164 0 243 -74 243 -211zM221 120c9 -10 23 -15 41 -15c23 0 45 8 58 24c17 19 22 40 22 80v19c-33 -3 -59 -7 -78 -11c-41 -9 -58 -27 -58 -59
c0 -16 5 -29 15 -38z" />
    <glyph glyph-name="Cacute" unicode="&#x106;" horiz-adv-x="730" 
d="M696 447h-210c-8 71 -48 111 -115 111c-80 0 -131 -77 -131 -202c0 -124 51 -202 131 -202c65 0 109 44 116 117h213c-7 -92 -40 -163 -98 -212c-59 -50 -136 -75 -231 -75c-210 0 -340 142 -340 372s130 372 340 372c192 0 317 -106 325 -281zM345 916h208l-142 -156
h-146z" />
    <glyph glyph-name="cacute" unicode="&#x107;" horiz-adv-x="589" 
d="M488 44c-49 -40 -111 -60 -188 -60c-166 0 -275 105 -275 272c0 162 107 268 275 268c75 0 137 -19 186 -58c48 -39 75 -92 82 -158h-199c-4 47 -29 73 -66 73c-48 0 -76 -45 -76 -125c0 -84 28 -129 76 -129c39 0 65 30 66 82h199c-5 -70 -32 -125 -80 -165zM273 712
h208l-142 -150h-146z" />
    <glyph glyph-name="Ccircumflex" unicode="&#x108;" horiz-adv-x="730" 
d="M696 447h-210c-8 71 -48 111 -115 111c-80 0 -131 -77 -131 -202c0 -124 51 -202 131 -202c65 0 109 44 116 117h213c-7 -92 -40 -163 -98 -212c-59 -50 -136 -75 -231 -75c-210 0 -340 142 -340 372s130 372 340 372c192 0 317 -106 325 -281zM162 760l127 156h162
l128 -156h-149l-60 81l-59 -81h-149z" />
    <glyph glyph-name="ccircumflex" unicode="&#x109;" horiz-adv-x="589" 
d="M488 44c-49 -40 -111 -60 -188 -60c-166 0 -275 105 -275 272c0 162 107 268 275 268c75 0 137 -19 186 -58c48 -39 75 -92 82 -158h-199c-4 47 -29 73 -66 73c-48 0 -76 -45 -76 -125c0 -84 28 -129 76 -129c39 0 65 30 66 82h199c-5 -70 -32 -125 -80 -165zM96 562
l123 150h162l123 -150h-149l-55 75l-55 -75h-149z" />
    <glyph glyph-name="Cdotaccent" unicode="&#x10a;" horiz-adv-x="730" 
d="M696 447h-210c-8 71 -48 111 -115 111c-80 0 -131 -77 -131 -202c0 -124 51 -202 131 -202c65 0 109 44 116 117h213c-7 -92 -40 -163 -98 -212c-59 -50 -136 -75 -231 -75c-210 0 -340 142 -340 372s130 372 340 372c192 0 317 -106 325 -281zM466 910v-141h-192v141
h192z" />
    <glyph glyph-name="cdotaccent" unicode="&#x10b;" horiz-adv-x="589" 
d="M488 44c-49 -40 -111 -60 -188 -60c-166 0 -275 105 -275 272c0 162 107 268 275 268c75 0 137 -19 186 -58c48 -39 75 -92 82 -158h-199c-4 47 -29 73 -66 73c-48 0 -76 -45 -76 -125c0 -84 28 -129 76 -129c39 0 65 30 66 82h199c-5 -70 -32 -125 -80 -165zM396 712
v-141h-192v141h192z" />
    <glyph glyph-name="Ccaron" unicode="&#x10c;" horiz-adv-x="730" 
d="M696 447h-210c-8 71 -48 111 -115 111c-80 0 -131 -77 -131 -202c0 -124 51 -202 131 -202c65 0 109 44 116 117h213c-7 -92 -40 -163 -98 -212c-59 -50 -136 -75 -231 -75c-210 0 -340 142 -340 372s130 372 340 372c192 0 317 -106 325 -281zM162 916h149l60 -81l59 81
h149l-127 -156h-162z" />
    <glyph glyph-name="ccaron" unicode="&#x10d;" horiz-adv-x="589" 
d="M488 44c-49 -40 -111 -60 -188 -60c-166 0 -275 105 -275 272c0 162 107 268 275 268c75 0 137 -19 186 -58c48 -39 75 -92 82 -158h-199c-4 47 -29 73 -66 73c-48 0 -76 -45 -76 -125c0 -84 28 -129 76 -129c39 0 65 30 66 82h199c-5 -70 -32 -125 -80 -165zM245 712
l55 -75l55 75h149l-123 -150h-162l-123 150h149z" />
    <glyph glyph-name="Dcaron" unicode="&#x10e;" horiz-adv-x="751" 
d="M720 356c0 -228 -138 -356 -382 -356h-269v712h269c244 0 382 -128 382 -356zM269 544v-376h63c116 0 179 67 179 188s-63 188 -179 188h-63zM139 916h149l60 -81l59 81h149l-127 -156h-162z" />
    <glyph glyph-name="dcaron" unicode="&#x10f;" horiz-adv-x="622" 
d="M25 254c0 163 85 269 216 269c53 0 104 -22 133 -63h2v252h192v-712h-184v58h-2c-31 -48 -80 -73 -136 -73c-132 0 -221 106 -221 269zM226 254c0 -76 32 -124 81 -124c48 0 79 48 79 124s-31 124 -79 124c-49 0 -81 -48 -81 -124zM704 534h-108l21 178h151z" />
    <glyph glyph-name="Dcroat" unicode="&#x110;" horiz-adv-x="754" 
d="M723 356c0 -228 -137 -356 -382 -356h-268v298h-60v122h60v292h268c245 0 382 -128 382 -356zM272 420h140v-122h-140v-130h63c116 0 179 67 179 188s-63 188 -179 188h-63v-124z" />
    <glyph glyph-name="dcroat" unicode="&#x111;" horiz-adv-x="619" 
d="M568 0h-184v58h-2c-31 -48 -80 -73 -136 -73c-132 0 -221 106 -221 269s85 269 216 269c53 0 104 -22 133 -63h2v108h-135v85h135v59h192v-59h65v-85h-65v-568zM226 254c0 -76 32 -124 81 -124c48 0 79 48 79 124s-31 124 -79 124c-49 0 -81 -48 -81 -124z" />
    <glyph glyph-name="Emacron" unicode="&#x112;" horiz-adv-x="635" 
d="M69 712h515v-165h-315v-107h293v-161h-293v-114h321v-165h-521v712zM132 890h393v-115h-393v115z" />
    <glyph glyph-name="emacron" unicode="&#x113;" horiz-adv-x="594" 
d="M569 215h-355c4 -79 34 -107 83 -107c39 0 65 20 69 49h196c-22 -99 -126 -173 -263 -173c-175 0 -274 117 -274 273c0 152 101 267 271 267c123 0 211 -57 251 -157c16 -40 22 -83 22 -152zM100 581v115h393v-115h-393zM215 316h161c-5 61 -35 88 -80 88
s-72 -29 -81 -88z" />
    <glyph glyph-name="Ebreve" unicode="&#x114;" horiz-adv-x="635" 
d="M590 0h-521v712h515v-165h-315v-107h293v-161h-293v-114h321v-165zM265 916c2 -34 23 -51 64 -51s62 17 64 51h117c-4 -100 -69 -157 -181 -157s-177 57 -181 157h117z" />
    <glyph glyph-name="ebreve" unicode="&#x115;" horiz-adv-x="594" 
d="M569 215h-355c4 -79 34 -107 83 -107c39 0 65 20 69 49h196c-22 -99 -126 -173 -263 -173c-175 0 -274 117 -274 273c0 152 101 267 271 267c123 0 211 -57 251 -157c16 -40 22 -83 22 -152zM116 712h117c2 -34 23 -51 64 -51s62 17 64 51h117
c-4 -100 -69 -157 -181 -157s-177 57 -181 157zM215 316h161c-5 61 -35 88 -80 88s-72 -29 -81 -88z" />
    <glyph glyph-name="Edotaccent" unicode="&#x116;" horiz-adv-x="635" 
d="M69 712h515v-165h-315v-107h293v-161h-293v-114h321v-165h-521v712zM232 910h192v-141h-192v141z" />
    <glyph glyph-name="edotaccent" unicode="&#x117;" horiz-adv-x="594" 
d="M569 215h-355c4 -79 34 -107 83 -107c39 0 65 20 69 49h196c-22 -99 -126 -173 -263 -173c-175 0 -274 117 -274 273c0 152 101 267 271 267c123 0 211 -57 251 -157c16 -40 22 -83 22 -152zM201 571v141h192v-141h-192zM215 316h161c-5 61 -35 88 -80 88
s-72 -29 -81 -88z" />
    <glyph glyph-name="Eogonek" unicode="&#x118;" horiz-adv-x="635" 
d="M594 -185c-30 -11 -65 -16 -106 -16c-89 0 -134 35 -134 96c0 43 30 74 90 105h-375v712h515v-165h-315v-107h293v-161h-293v-114h321v-165h1c-44 -28 -60 -48 -60 -71c0 -18 10 -27 31 -27c13 0 23 2 32 6v-93z" />
    <glyph glyph-name="eogonek" unicode="&#x119;" horiz-adv-x="594" 
d="M564 302c3 -23 5 -52 5 -87h-355c4 -79 34 -107 83 -107c39 0 65 20 69 49h196c-10 -43 -37 -85 -80 -128c-39 -36 -52 -64 -52 -93c0 -23 11 -34 34 -34c12 0 23 2 32 6v-93c-31 -11 -66 -16 -107 -16c-88 0 -133 35 -133 96c0 36 21 63 62 88v2c-5 -1 -11 -1 -19 -1
c-175 0 -274 117 -274 273c0 152 101 267 271 267c123 0 211 -57 251 -157c8 -20 14 -42 17 -65zM376 316c-5 61 -35 88 -80 88s-72 -29 -81 -88h161z" />
    <glyph glyph-name="Ecaron" unicode="&#x11a;" horiz-adv-x="635" 
d="M590 0h-521v712h515v-165h-315v-107h293v-161h-293v-114h321v-165zM120 916h149l60 -81l59 81h149l-127 -156h-162z" />
    <glyph glyph-name="ecaron" unicode="&#x11b;" horiz-adv-x="594" 
d="M569 215h-355c4 -79 34 -107 83 -107c39 0 65 20 69 49h196c-22 -99 -126 -173 -263 -173c-175 0 -274 117 -274 273c0 152 101 267 271 267c123 0 211 -57 251 -157c16 -40 22 -83 22 -152zM242 712l55 -75l55 75h149l-123 -150h-162l-123 150h149zM376 316
c-5 61 -35 88 -80 88s-72 -29 -81 -88h161z" />
    <glyph glyph-name="Gcircumflex" unicode="&#x11c;" horiz-adv-x="758" 
d="M654 611c27 -38 42 -82 45 -131h-212c-9 56 -45 87 -104 87c-88 0 -143 -82 -143 -214c0 -135 55 -219 144 -219c76 0 123 49 127 128h-137v146h323v-408h-171v68h-2c-43 -55 -107 -83 -190 -83c-187 0 -303 141 -303 368c0 233 134 375 353 375c121 0 217 -42 270 -117z
M295 916h162l128 -156h-149l-60 81l-59 -81h-149z" />
    <glyph glyph-name="gcircumflex" unicode="&#x11d;" horiz-adv-x="613" 
d="M370 78c-29 -45 -82 -71 -139 -71c-127 0 -206 101 -206 258s82 258 211 258c57 0 111 -31 142 -83h2v68h179v-473c0 -155 -90 -232 -270 -232c-143 0 -230 61 -242 165h182c3 -31 26 -49 63 -49c52 0 80 31 80 110v49h-2zM494 562h-149l-55 75l-55 -75h-149l123 150h162
zM243 184c14 -21 33 -31 58 -31c47 0 77 44 77 112s-30 113 -77 113c-48 0 -79 -45 -79 -113c0 -34 7 -61 21 -81z" />
    <glyph glyph-name="Gbreve" unicode="&#x11e;" horiz-adv-x="758" 
d="M526 0v68h-2c-43 -55 -107 -83 -190 -83c-187 0 -303 141 -303 368c0 233 134 375 353 375c183 0 305 -98 315 -248h-212c-9 56 -45 87 -104 87c-88 0 -143 -82 -143 -214c0 -135 55 -219 144 -219c76 0 123 49 127 128h-137v146h323v-408h-171zM196 916h117
c2 -34 23 -51 64 -51s62 17 64 51h117c-4 -100 -69 -157 -181 -157s-177 57 -181 157z" />
    <glyph glyph-name="gbreve" unicode="&#x11f;" horiz-adv-x="613" 
d="M370 78c-29 -45 -82 -71 -139 -71c-127 0 -206 101 -206 258s82 258 211 258c57 0 111 -31 142 -83h2v68h179v-473c0 -155 -90 -232 -270 -232c-143 0 -230 61 -242 165h182c3 -31 26 -49 63 -49c52 0 80 31 80 110v49h-2zM421 596c-31 -27 -75 -41 -131 -41
c-112 0 -177 57 -181 157h117c2 -34 23 -51 64 -51s62 17 64 51h117c-2 -50 -19 -89 -50 -116zM357 347c-14 21 -33 31 -56 31c-48 0 -79 -45 -79 -113s30 -112 79 -112c47 0 77 44 77 112c0 34 -7 61 -21 82z" />
    <glyph glyph-name="Gdotaccent" unicode="&#x120;" horiz-adv-x="758" 
d="M697 0h-171v68h-2c-43 -55 -107 -83 -190 -83c-187 0 -303 141 -303 368c0 233 134 375 353 375c183 0 305 -98 315 -248h-212c-9 56 -45 87 -104 87c-88 0 -143 -82 -143 -214c0 -135 55 -219 144 -219c76 0 123 49 127 128h-137v146h323v-408zM472 910v-141h-192v141
h192z" />
    <glyph glyph-name="gdotaccent" unicode="&#x121;" horiz-adv-x="613" 
d="M380 440v68h179v-473c0 -155 -90 -232 -270 -232c-143 0 -230 61 -242 165h182c3 -31 26 -49 63 -49c52 0 80 31 80 110v49h-2c-29 -45 -82 -71 -139 -71c-127 0 -206 101 -206 258s82 258 211 258c57 0 111 -31 142 -83h2zM243 184c14 -21 33 -31 58 -31
c47 0 77 44 77 112s-30 113 -77 113c-48 0 -79 -45 -79 -113c0 -34 7 -61 21 -81zM194 571v141h192v-141h-192z" />
    <glyph glyph-name="Gcommaaccent" unicode="&#x122;" horiz-adv-x="758" 
d="M654 611c27 -38 42 -82 45 -131h-212c-9 56 -45 87 -104 87c-88 0 -143 -82 -143 -214c0 -135 55 -219 144 -219c76 0 123 49 127 128h-137v146h323v-408h-171v68h-2c-43 -55 -107 -83 -190 -83c-187 0 -303 141 -303 368c0 233 134 375 353 375c121 0 217 -42 270 -117z
M309 -280l47 110h-47v121h143v-121l-73 -110h-70z" />
    <glyph glyph-name="gcommaaccent" unicode="&#x123;" horiz-adv-x="613" 
d="M370 78c-29 -45 -82 -71 -139 -71c-127 0 -206 101 -206 258s82 258 211 258c57 0 111 -31 142 -83h2v68h179v-473c0 -155 -90 -232 -270 -232c-143 0 -230 61 -242 165h182c3 -31 26 -49 63 -49c52 0 80 31 80 110v49h-2zM222 265c0 -68 30 -112 79 -112
c47 0 77 44 77 112s-30 113 -77 113c-48 0 -79 -45 -79 -113zM361 567h-143v121l73 110h70l-47 -110h47v-121z" />
    <glyph glyph-name="Hcircumflex" unicode="&#x124;" horiz-adv-x="771" 
d="M702 0h-200v282h-233v-282h-200v712h200v-262h233v262h200v-712zM177 760l127 156h162l128 -156h-149l-60 81l-59 -81h-149z" />
    <glyph glyph-name="hcircumflex" unicode="&#x125;" 
d="M567 0h-192v289c0 57 -20 85 -60 85c-46 0 -69 -40 -69 -119v-255h-192v712h192v-250h2c31 39 77 60 133 60c116 0 186 -74 186 -209v-313zM225 916h162l128 -156h-149l-60 81l-59 -81h-149z" />
    <glyph glyph-name="Hbar" unicode="&#x126;" horiz-adv-x="771" 
d="M752 559h-50v-559h-200v282h-233v-282h-200v559h-50v90h50v63h200v-63h233v63h200v-63h50v-90zM269 559v-109h233v109h-233z" />
    <glyph glyph-name="hbar" unicode="&#x127;" 
d="M567 0h-192v289c0 57 -20 85 -60 85c-46 0 -69 -40 -69 -119v-255h-192v568h-69v82h69v62h192v-62h132v-82h-132v-106h2c31 39 77 60 133 60c116 0 186 -74 186 -209v-313z" />
    <glyph glyph-name="Itilde" unicode="&#x128;" horiz-adv-x="338" 
d="M269 712v-712h-200v712h200zM334 805c-23 -27 -54 -41 -94 -41c-31 0 -51 8 -84 24c-24 12 -35 17 -50 17c-24 0 -36 -13 -40 -41h-99c5 96 51 152 131 152c31 0 51 -8 84 -24c4 -1 31 -16 50 -16c24 0 36 12 39 40h99c-2 -47 -14 -84 -36 -111z" />
    <glyph glyph-name="itilde" unicode="&#x129;" horiz-adv-x="300" 
d="M246 508v-508h-192v508h192zM295 599c-21 -27 -49 -41 -86 -41c-27 0 -45 9 -72 25c-6 4 -35 21 -46 18c-20 0 -31 -14 -34 -43h-86c5 97 45 154 120 154c28 0 46 -9 73 -25c19 -12 30 -17 45 -17c20 0 31 14 33 42h87c-2 -48 -13 -86 -34 -113z" />
    <glyph glyph-name="Imacron" unicode="&#x12a;" horiz-adv-x="338" 
d="M69 712h200v-712h-200v712zM-28 890h393v-115h-393v115z" />
    <glyph glyph-name="imacron" unicode="&#x12b;" horiz-adv-x="300" 
d="M54 508h192v-508h-192v508zM-7 696h313v-116h-313v116z" />
    <glyph glyph-name="Ibreve" unicode="&#x12c;" horiz-adv-x="338" 
d="M269 712v-712h-200v712h200zM-12 916h117c2 -34 23 -51 64 -51s62 17 64 51h117c-4 -100 -69 -157 -181 -157s-177 57 -181 157z" />
    <glyph glyph-name="ibreve" unicode="&#x12d;" horiz-adv-x="300" 
d="M54 508h192v-508h-192v508zM-15 712h113c1 -35 18 -53 52 -53c33 0 49 17 52 53h113c-3 -101 -61 -157 -165 -157s-162 56 -165 157z" />
    <glyph glyph-name="Iogonek" unicode="&#x12e;" horiz-adv-x="338" 
d="M32 -105c0 43 30 74 90 105h-53v712h200v-712c-44 -28 -60 -48 -60 -71c0 -18 10 -27 31 -27c13 0 23 2 32 6v-93c-30 -11 -65 -16 -106 -16c-89 0 -134 35 -134 96z" />
    <glyph glyph-name="iogonek" unicode="&#x12f;" horiz-adv-x="300" 
d="M249 -185c-30 -11 -65 -16 -106 -16c-89 0 -134 35 -134 96c0 43 30 74 90 105h-45v508h192v-508c-44 -28 -60 -48 -60 -71c0 -18 10 -27 31 -27c13 0 23 2 32 6v-93zM246 712v-141h-192v141h192z" />
    <glyph glyph-name="Idotaccent" unicode="&#x130;" horiz-adv-x="338" 
d="M69 0v712h200v-712h-200zM264 910v-141h-192v141h192z" />
    <glyph glyph-name="dotlessi" unicode="&#x131;" horiz-adv-x="300" 
d="M246 508v-508h-192v508h192z" />
    <glyph glyph-name="IJ" unicode="&#x132;" horiz-adv-x="766" 
d="M353 164c17 -3 32 -4 44 -4c79 0 105 31 105 141v411h200v-458c0 -181 -82 -264 -258 -264c-29 0 -59 4 -91 11v163zM269 712v-712h-200v712h200z" />
    <glyph glyph-name="ij" unicode="&#x133;" horiz-adv-x="600" 
d="M254 -48c7 -2 16 -3 25 -3c52 0 75 23 75 98v461h192v-494c0 -137 -79 -205 -200 -205c-35 0 -66 4 -92 11v132zM54 508h192v-508h-192v508zM246 712v-141h-192v141h192zM546 571h-192v141h192v-141z" />
    <glyph glyph-name="Jcircumflex" unicode="&#x134;" horiz-adv-x="428" 
d="M364 254c0 -181 -82 -264 -258 -264c-29 0 -59 4 -91 11v163c17 -3 32 -4 44 -4c79 0 105 31 105 141v411h200v-458zM57 760l127 156h162l128 -156h-149l-60 81l-59 -81h-149z" />
    <glyph glyph-name="jcircumflex" unicode="&#x135;" horiz-adv-x="300" 
d="M36 -30c12 14 18 40 18 77v461h192v-494c0 -137 -79 -205 -200 -205c-35 0 -66 4 -92 11v132c7 -2 16 -3 25 -3c26 0 45 7 57 21zM74 712h152l113 -147h-141l-48 64l-47 -64h-142z" />
    <glyph glyph-name="Kcommaaccent" unicode="&#x136;" horiz-adv-x="716" 
d="M463 0l-192 319h-2v-319h-200v712h200v-300h2l186 300h241l-247 -336l262 -376h-250zM334 -170h-47v121h143v-121l-73 -110h-70z" />
    <glyph glyph-name="kcommaaccent" unicode="&#x137;" horiz-adv-x="589" 
d="M599 0h-235l-116 222h-2v-222h-192v712h192v-398h2l107 194h227l-170 -240zM278 -170h-47v121h143v-121l-73 -110h-70z" />
    <glyph glyph-name="kgreenlandic" unicode="&#x138;" horiz-adv-x="595" 
d="M54 0v508h192v-194h2l107 194h227l-170 -240l187 -268h-235l-116 222h-2v-222h-192z" />
    <glyph glyph-name="Lacute" unicode="&#x139;" horiz-adv-x="586" 
d="M269 712v-544h309v-168h-509v712h200zM93 760l80 156h208l-142 -156h-146z" />
    <glyph glyph-name="lacute" unicode="&#x13a;" horiz-adv-x="300" 
d="M54 0v712h192v-712h-192zM55 766l80 150h208l-142 -150h-146z" />
    <glyph glyph-name="Lcommaaccent" unicode="&#x13b;" horiz-adv-x="586" 
d="M69 0v712h200v-544h309v-168h-509zM299 -170h-47v121h143v-121l-73 -110h-70z" />
    <glyph glyph-name="lcommaaccent" unicode="&#x13c;" horiz-adv-x="300" 
d="M246 712v-712h-192v712h192zM222 -49v-121l-73 -110h-70l47 110h-47v121h143z" />
    <glyph glyph-name="Lcaron" unicode="&#x13d;" horiz-adv-x="586" 
d="M269 712v-544h309v-168h-509v712h200zM323 712h151l-64 -234h-108z" />
    <glyph glyph-name="lcaron" unicode="&#x13e;" horiz-adv-x="300" 
d="M54 0v712h192v-712h-192zM295 712h151l-64 -178h-108z" />
    <glyph glyph-name="Ldot" unicode="&#x13f;" horiz-adv-x="671" 
d="M69 0v712h200v-544h309v-168h-509zM606 542v-201h-200v201h200z" />
    <glyph glyph-name="ldot" unicode="&#x140;" horiz-adv-x="543" 
d="M246 712v-712h-192v712h192zM521 456v-201h-200v201h200z" />
    <glyph glyph-name="Lslash" unicode="&#x141;" horiz-adv-x="600" 
d="M10 233v145l73 43v291h200v-192l148 88v-146l-148 -87v-207h309v-168h-509v276z" />
    <glyph glyph-name="lslash" unicode="&#x142;" horiz-adv-x="372" 
d="M10 212v138l80 48v314h192v-225l80 48v-137l-80 -48v-350h-192v260z" />
    <glyph glyph-name="Nacute" unicode="&#x143;" horiz-adv-x="827" 
d="M757 0h-290l-111 273c-38 95 -72 187 -102 276h-2c5 -86 8 -183 8 -291v-258h-191v712h291l110 -273c39 -94 73 -186 102 -276h2c-5 103 -8 200 -8 291v258h191v-712zM387 916h208l-142 -156h-146z" />
    <glyph glyph-name="nacute" unicode="&#x144;" 
d="M567 0h-192v289c0 57 -20 85 -60 85c-46 0 -69 -40 -69 -119v-255h-192v508h178v-58h2c35 45 84 72 147 72c116 0 186 -74 186 -209v-313zM285 712h208l-142 -150h-146z" />
    <glyph glyph-name="Ncommaaccent" unicode="&#x145;" horiz-adv-x="827" 
d="M757 0h-290l-111 273c-38 95 -72 187 -102 276h-2c5 -86 8 -183 8 -291v-258h-191v712h291l110 -273c39 -94 73 -186 102 -276h2c-5 103 -8 200 -8 291v258h191v-712zM388 -170h-47v121h143v-121l-73 -110h-70z" />
    <glyph glyph-name="ncommaaccent" unicode="&#x146;" 
d="M567 0h-192v289c0 57 -20 85 -60 85c-46 0 -69 -40 -69 -119v-255h-192v508h178v-58h2c35 45 84 72 147 72c116 0 186 -74 186 -209v-313zM382 -49v-121l-73 -110h-70l47 110h-47v121h143z" />
    <glyph glyph-name="Ncaron" unicode="&#x147;" horiz-adv-x="827" 
d="M757 0h-290l-111 273c-38 95 -72 187 -102 276h-2c5 -86 8 -183 8 -291v-258h-191v712h291l110 -273c39 -94 73 -186 102 -276h2c-5 103 -8 200 -8 291v258h191v-712zM205 916h149l60 -81l59 81h149l-127 -156h-162z" />
    <glyph glyph-name="ncaron" unicode="&#x148;" 
d="M567 0h-192v289c0 57 -20 85 -60 85c-46 0 -69 -40 -69 -119v-255h-192v508h178v-58h2c35 45 84 72 147 72c116 0 186 -74 186 -209v-313zM107 712h149l55 -75l55 75h149l-123 -150h-162z" />
    <glyph glyph-name="napostrophe" unicode="&#x149;" horiz-adv-x="805" 
d="M756 0h-192v289c0 57 -20 85 -60 85c-46 0 -69 -40 -69 -119v-255h-192v508h178v-58h2c35 45 84 72 147 72c116 0 186 -74 186 -209v-313zM35 385l72 156h-55v171h170v-171l-91 -156h-96z" />
    <glyph glyph-name="Eng" unicode="&#x14a;" horiz-adv-x="773" 
d="M704 5c0 -136 -79 -200 -203 -200c-36 0 -65 3 -88 10v127c7 -2 16 -3 26 -3c44 0 65 15 65 52c0 11 -2 23 -7 34s-16 35 -35 70l-107 197c-43 82 -78 155 -103 219h-2c7 -79 10 -163 10 -251v-260h-191v712h247l101 -189c33 -59 68 -132 105 -220h2
c-7 76 -11 159 -11 250v159h191v-707z" />
    <glyph glyph-name="eng" unicode="&#x14b;" 
d="M567 15c0 -137 -79 -204 -200 -204c-35 0 -66 4 -92 11v131c7 -2 16 -3 25 -3c52 0 75 24 75 99v229c0 44 -6 66 -21 82c-10 10 -23 15 -38 15c-47 0 -70 -40 -70 -121v-254h-192v508h192v-46h2c37 41 82 61 136 61s96 -15 127 -46c39 -37 56 -87 56 -180v-282z" />
    <glyph glyph-name="Omacron" unicode="&#x14c;" horiz-adv-x="767" 
d="M693 159c-57 -112 -167 -175 -310 -175c-215 0 -352 145 -352 372s137 372 352 372c216 0 353 -145 353 -372c0 -75 -14 -141 -43 -197zM241 356c0 -129 51 -202 142 -202c92 0 143 73 143 202s-51 202 -143 202c-91 0 -142 -73 -142 -202zM187 890h393v-115h-393v115z
" />
    <glyph glyph-name="omacron" unicode="&#x14d;" horiz-adv-x="618" 
d="M558 111c-47 -81 -134 -127 -249 -127c-172 0 -284 105 -284 270s112 270 284 270s284 -105 284 -270c0 -55 -12 -102 -35 -143zM113 696h393v-115h-393v115zM227 254c0 -80 30 -127 82 -127s82 47 82 127s-30 127 -82 127s-82 -47 -82 -127z" />
    <glyph glyph-name="Obreve" unicode="&#x14e;" horiz-adv-x="767" 
d="M736 356c0 -227 -137 -372 -353 -372c-215 0 -352 145 -352 372s137 372 352 372c216 0 353 -145 353 -372zM241 356c0 -129 51 -202 142 -202c92 0 143 73 143 202s-51 202 -143 202c-91 0 -142 -73 -142 -202zM319 916c2 -34 23 -51 64 -51s62 17 64 51h117
c-4 -100 -69 -157 -181 -157s-177 57 -181 157h117z" />
    <glyph glyph-name="obreve" unicode="&#x14f;" horiz-adv-x="618" 
d="M593 254c0 -165 -112 -270 -284 -270s-284 105 -284 270s112 270 284 270s284 -105 284 -270zM245 712c2 -34 23 -51 64 -51s62 17 64 51h117c-4 -100 -69 -157 -181 -157s-177 57 -181 157h117zM227 254c0 -80 30 -127 82 -127s82 47 82 127s-30 127 -82 127
s-82 -47 -82 -127z" />
    <glyph glyph-name="Ohungarumlaut" unicode="&#x150;" horiz-adv-x="767" 
d="M736 356c0 -227 -137 -372 -353 -372c-215 0 -352 145 -352 372s137 372 352 372c216 0 353 -145 353 -372zM241 356c0 -129 51 -202 142 -202c92 0 143 73 143 202s-51 202 -143 202c-91 0 -142 -73 -142 -202zM276 916h179l-142 -156h-137zM496 916h179l-142 -156h-136
z" />
    <glyph glyph-name="ohungarumlaut" unicode="&#x151;" horiz-adv-x="618" 
d="M593 254c0 -165 -112 -270 -284 -270s-284 105 -284 270s112 270 284 270s284 -105 284 -270zM227 254c0 -80 30 -127 82 -127s82 47 82 127s-30 127 -82 127s-82 -47 -82 -127zM101 562l100 150h179l-142 -150h-137zM421 712h179l-142 -150h-136z" />
    <glyph glyph-name="OE" unicode="&#x152;" horiz-adv-x="1022" 
d="M977 0h-559c-123 0 -218 31 -285 93c-68 62 -102 150 -102 263s34 201 102 263c67 62 162 93 285 93h555v-165h-317v-107h293v-161h-293v-114h321v-165zM240 356c0 -124 61 -191 180 -191h43v382h-43c-119 0 -180 -67 -180 -191z" />
    <glyph glyph-name="oe" unicode="&#x153;" horiz-adv-x="948" 
d="M901 367c16 -40 22 -83 22 -152h-352c4 -79 33 -107 81 -107c37 0 64 20 68 49h195c-22 -99 -124 -173 -260 -173c-73 0 -133 22 -178 65c-45 -43 -103 -65 -175 -65c-168 0 -277 105 -277 270s109 270 277 270c72 0 130 -22 175 -65c45 43 103 65 175 65
c121 0 209 -57 249 -157zM249 161c14 -23 34 -34 60 -34c52 0 82 47 82 127s-30 127 -82 127s-82 -47 -82 -127c0 -40 7 -71 22 -93zM730 316c-5 60 -35 88 -78 88c-45 0 -72 -29 -80 -88h158z" />
    <glyph glyph-name="Racute" unicode="&#x154;" horiz-adv-x="705" 
d="M696 0h-212l-51 153c-24 71 -51 94 -114 94h-50v-247h-200v712h317c176 0 264 -68 264 -204c0 -87 -49 -149 -133 -174v-2c26 -9 47 -24 63 -45c15 -21 32 -56 50 -103zM354 392c67 0 101 29 101 88c0 57 -37 82 -106 82h-80v-170h85zM315 916h208l-142 -156h-146z" />
    <glyph glyph-name="racute" unicode="&#x155;" horiz-adv-x="437" 
d="M232 439h2c36 53 84 77 148 77c19 0 35 -2 50 -6v-164c-17 4 -37 6 -58 6c-83 0 -128 -52 -128 -147v-205h-192v508h178v-69zM204 712h208l-142 -150h-146z" />
    <glyph glyph-name="Rcommaaccent" unicode="&#x156;" horiz-adv-x="705" 
d="M696 0h-212l-51 153c-24 71 -51 94 -114 94h-50v-247h-200v712h317c176 0 264 -68 264 -204c0 -87 -49 -149 -133 -174v-2c26 -9 47 -24 63 -45c15 -21 32 -56 50 -103zM354 392c67 0 101 29 101 88c0 57 -37 82 -106 82h-80v-170h85zM337 -170h-47v121h143v-121
l-73 -110h-70z" />
    <glyph glyph-name="rcommaaccent" unicode="&#x157;" horiz-adv-x="437" 
d="M432 346c-17 4 -37 6 -58 6c-83 0 -128 -52 -128 -147v-205h-192v508h178v-69h2c36 53 84 77 148 77c19 0 35 -2 50 -6v-164zM222 -49v-121l-73 -110h-70l47 110h-47v121h143z" />
    <glyph glyph-name="Rcaron" unicode="&#x158;" horiz-adv-x="705" 
d="M696 0h-212l-51 153c-24 71 -51 94 -114 94h-50v-247h-200v712h317c176 0 264 -68 264 -204c0 -87 -49 -149 -133 -174v-2c26 -9 47 -24 63 -45c15 -21 32 -56 50 -103zM133 916h149l60 -81l59 81h149l-127 -156h-162zM269 392h85c67 0 101 29 101 88
c0 57 -37 82 -106 82h-80v-170z" />
    <glyph glyph-name="rcaron" unicode="&#x159;" horiz-adv-x="437" 
d="M432 346c-17 4 -37 6 -58 6c-83 0 -128 -52 -128 -147v-205h-192v508h178v-69h2c36 53 84 77 148 77c19 0 35 -2 50 -6v-164zM27 712h149l55 -75l55 75h149l-123 -150h-162z" />
    <glyph glyph-name="Sacute" unicode="&#x15a;" horiz-adv-x="661" 
d="M597 333c23 -30 34 -70 34 -119c0 -142 -115 -230 -303 -230c-193 0 -307 91 -307 247h216c0 -61 33 -91 98 -91c53 0 85 24 85 61c0 29 -16 44 -48 56c-16 6 -42 13 -77 22c-59 16 -105 31 -140 46s-63 36 -86 65s-34 67 -34 115c0 135 110 223 293 223
s288 -81 288 -232h-210c0 52 -31 81 -88 81c-49 0 -79 -22 -79 -55c4 -42 24 -50 129 -76c113 -28 182 -53 229 -113zM302 916h208l-142 -156h-146z" />
    <glyph glyph-name="sacute" unicode="&#x15b;" horiz-adv-x="559" 
d="M532 150c0 -101 -91 -166 -247 -166c-173 0 -259 60 -259 181h192c0 -43 21 -63 68 -63c36 0 54 12 54 35c-5 32 -19 36 -117 62c-77 20 -124 36 -158 79c-17 21 -26 50 -26 85c0 97 82 161 239 161c149 0 236 -56 236 -168h-182c0 37 -19 56 -57 56
c-31 0 -47 -11 -47 -34c3 -26 13 -31 99 -54c85 -23 139 -41 177 -86c19 -23 28 -52 28 -88zM171 562l80 150h208l-142 -150h-146z" />
    <glyph glyph-name="Scircumflex" unicode="&#x15c;" horiz-adv-x="661" 
d="M490 12c-45 -19 -99 -28 -162 -28c-193 0 -307 91 -307 247h216c0 -61 33 -91 98 -91c53 0 85 24 85 61c0 29 -16 44 -48 56c-16 6 -42 13 -77 22c-59 16 -105 31 -140 46s-63 36 -86 65s-34 67 -34 115c0 135 110 223 293 223s288 -81 288 -232h-210c0 52 -31 81 -88 81
c-49 0 -79 -22 -79 -55c4 -42 24 -50 129 -76c113 -28 183 -53 229 -113c23 -30 34 -70 34 -119c0 -95 -50 -165 -141 -202zM537 760h-149l-60 81l-59 -81h-149l127 156h162z" />
    <glyph glyph-name="scircumflex" unicode="&#x15d;" horiz-adv-x="559" 
d="M514 356h-182c0 37 -19 56 -57 56c-31 0 -47 -11 -47 -34c3 -26 13 -31 99 -54c85 -23 139 -41 177 -86c19 -23 28 -52 28 -88c0 -101 -91 -166 -247 -166c-173 0 -259 60 -259 181h192c0 -43 21 -63 68 -63c36 0 54 12 54 35c-5 32 -19 36 -117 62
c-77 20 -124 36 -158 79c-17 21 -26 50 -26 85c0 97 82 161 239 161c149 0 236 -56 236 -168zM74 562l123 150h162l123 -150h-149l-55 75l-55 -75h-149z" />
    <glyph glyph-name="Scedilla" unicode="&#x15e;" horiz-adv-x="661" 
d="M337 -118c-7 5 -16 8 -29 8c-11 0 -21 -2 -30 -7l-39 32l43 71c-165 13 -261 101 -261 245h216c0 -61 33 -91 98 -91c53 0 85 24 85 61c0 29 -16 44 -48 56c-16 6 -42 13 -77 22c-59 16 -105 31 -140 46s-63 36 -86 65s-34 67 -34 115c0 135 110 223 293 223
s288 -81 288 -232h-210c0 52 -31 81 -88 81c-49 0 -79 -22 -79 -55c4 -42 24 -50 129 -76c113 -28 183 -53 229 -113c23 -30 34 -70 34 -119c0 -133 -101 -218 -270 -229l-27 -44c11 3 22 5 32 5c57 0 91 -31 91 -80c0 -61 -49 -105 -134 -105c-44 0 -90 12 -127 35l30 62
c32 -15 59 -23 82 -23c25 0 39 10 39 26c0 9 -3 16 -10 21z" />
    <glyph glyph-name="scedilla" unicode="&#x15f;" horiz-adv-x="559" 
d="M319 -15l-27 -44c11 3 22 5 32 5c57 0 91 -31 91 -80c0 -61 -49 -105 -134 -105c-44 0 -90 12 -127 35l30 62c32 -15 59 -23 82 -23c25 0 39 10 39 26c0 17 -14 29 -39 29c-11 0 -21 -2 -30 -7l-39 32l42 71c-142 10 -213 70 -213 179h192c0 -43 21 -63 68 -63
c36 0 54 12 54 35c-5 32 -19 36 -117 62c-77 20 -124 36 -158 79c-17 21 -26 50 -26 85c0 97 82 161 239 161c149 0 236 -56 236 -168h-182c0 37 -19 56 -57 56c-31 0 -47 -11 -47 -34c3 -26 13 -31 99 -54c85 -23 139 -41 177 -86c19 -23 28 -52 28 -88
c0 -95 -77 -156 -213 -165z" />
    <glyph glyph-name="Scaron" unicode="&#x160;" horiz-adv-x="661" 
d="M490 12c-45 -19 -99 -28 -162 -28c-193 0 -307 91 -307 247h216c0 -61 33 -91 98 -91c53 0 85 24 85 61c0 29 -16 44 -48 56c-16 6 -42 13 -77 22c-59 16 -105 31 -140 46s-63 36 -86 65s-34 67 -34 115c0 135 110 223 293 223s288 -81 288 -232h-210c0 52 -31 81 -88 81
c-49 0 -79 -22 -79 -55c4 -42 24 -50 129 -76c113 -28 183 -53 229 -113c23 -30 34 -70 34 -119c0 -95 -50 -165 -141 -202zM410 760h-162l-128 156h149l60 -81l59 81h149z" />
    <glyph glyph-name="scaron" unicode="&#x161;" horiz-adv-x="559" 
d="M514 356h-182c0 37 -19 56 -57 56c-31 0 -47 -11 -47 -34c3 -26 13 -31 99 -54c85 -23 139 -41 177 -86c19 -23 28 -52 28 -88c0 -101 -91 -166 -247 -166c-173 0 -259 60 -259 181h192c0 -43 21 -63 68 -63c36 0 54 12 54 35c-5 32 -19 36 -117 62
c-77 20 -124 36 -158 79c-17 21 -26 50 -26 85c0 97 82 161 239 161c149 0 236 -56 236 -168zM74 712h149l55 -75l55 75h149l-123 -150h-162z" />
    <glyph glyph-name="Tcommaaccent" unicode="&#x162;" horiz-adv-x="638" 
d="M8 544v168h622v-168h-211v-544h-200v544h-211zM247 -170v121h143v-121l-73 -110h-70l47 110h-47z" />
    <glyph glyph-name="tcommaaccent" unicode="&#x163;" horiz-adv-x="398" 
d="M373 4c-24 -8 -64 -13 -93 -13c-139 0 -198 52 -198 173v207h-77v137h77v142h192v-142h94v-137h-94v-155c0 -55 18 -75 63 -75c14 0 26 2 36 5v-142zM152 -170v121h143v-121l-73 -110h-70l47 110h-47z" />
    <glyph glyph-name="Tcaron" unicode="&#x164;" horiz-adv-x="638" 
d="M8 712h622v-168h-211v-544h-200v544h-211v168zM260 916l60 -81l59 81h149l-127 -156h-162l-128 156h149z" />
    <glyph glyph-name="tcaron" unicode="&#x165;" horiz-adv-x="398" 
d="M82 508v142h192v-142h94v-137h-94v-155c0 -55 18 -75 63 -75c14 0 26 2 36 5v-142c-24 -8 -64 -13 -93 -13c-139 0 -198 52 -198 173v207h-77v137h77zM409 534h-108l21 178h151z" />
    <glyph glyph-name="Tbar" unicode="&#x166;" horiz-adv-x="638" 
d="M8 544v168h622v-168h-211v-160h128v-122h-128v-262h-200v262h-128v122h128v160h-211z" />
    <glyph glyph-name="tbar" unicode="&#x167;" horiz-adv-x="398" 
d="M373 4c-24 -8 -64 -13 -93 -13c-139 0 -198 52 -198 173v50h-72v95h72v68h-77v131h77v142h192v-142h94v-131h-94v-68h89v-95h-89v-5c0 -53 18 -75 63 -75c14 0 26 2 36 5v-135z" />
    <glyph glyph-name="Utilde" unicode="&#x168;" horiz-adv-x="731" 
d="M668 281c0 -189 -109 -297 -302 -297s-303 106 -303 297v431h200v-428c0 -81 36 -126 103 -126s102 45 102 126v428h200v-431zM163 764c5 96 51 152 131 152c31 0 51 -8 84 -24c4 -1 31 -16 50 -16c24 0 36 12 39 40h99c-4 -95 -50 -152 -130 -152c-31 0 -51 8 -84 24
c-24 12 -35 17 -50 17c-24 0 -36 -13 -40 -41h-99z" />
    <glyph glyph-name="utilde" unicode="&#x169;" 
d="M49 508h192v-289c0 -57 20 -85 60 -85c46 0 69 40 69 119v255h192v-508h-178v58h-2c-35 -45 -84 -72 -147 -72c-116 0 -186 74 -186 209v313zM474 601c-23 -27 -54 -41 -94 -41c-31 0 -51 8 -84 24c-24 12 -35 17 -50 17c-24 0 -36 -13 -40 -41h-99c5 96 51 152 131 152
c31 0 51 -8 84 -24c4 -1 31 -16 50 -16c24 0 36 12 39 40h99c-2 -47 -14 -84 -36 -111z" />
    <glyph glyph-name="Umacron" unicode="&#x16a;" horiz-adv-x="731" 
d="M668 281c0 -189 -109 -297 -302 -297s-303 106 -303 297v431h200v-428c0 -81 36 -126 103 -126s102 45 102 126v428h200v-431zM169 890h393v-115h-393v115z" />
    <glyph glyph-name="umacron" unicode="&#x16b;" 
d="M562 0h-178v58h-2c-35 -45 -84 -72 -147 -72c-116 0 -186 74 -186 209v313h192v-289c0 -57 20 -85 60 -85c46 0 69 40 69 119v255h192v-508zM505 696v-115h-393v115h393z" />
    <glyph glyph-name="Ubreve" unicode="&#x16c;" horiz-adv-x="731" 
d="M668 281c0 -189 -109 -297 -302 -297s-303 106 -303 297v431h200v-428c0 -81 36 -126 103 -126s102 45 102 126v428h200v-431zM184 916h117c2 -34 23 -51 64 -51s62 17 64 51h117c-4 -100 -69 -157 -181 -157s-177 57 -181 157z" />
    <glyph glyph-name="ubreve" unicode="&#x16d;" 
d="M562 0h-178v58h-2c-35 -45 -84 -72 -147 -72c-116 0 -186 74 -186 209v313h192v-289c0 -57 20 -85 60 -85c46 0 69 40 69 119v255h192v-508zM245 712c2 -34 23 -51 64 -51s62 17 64 51h117c-4 -100 -69 -157 -181 -157s-177 57 -181 157h117z" />
    <glyph glyph-name="Uring" unicode="&#x16e;" horiz-adv-x="731" 
d="M668 281c0 -189 -109 -297 -302 -297s-303 106 -303 297v431h200v-428c0 -81 36 -126 103 -126s102 45 102 126v428h200v-431zM281 958c23 23 51 35 84 35s62 -12 85 -35s34 -52 34 -85s-11 -62 -34 -85s-52 -35 -85 -35s-61 12 -84 36c-24 23 -36 51 -36 84s12 62 36 85
zM324 832c11 -11 25 -17 41 -17c32 0 58 26 58 58s-26 58 -58 58s-58 -26 -58 -58c0 -16 6 -30 17 -41z" />
    <glyph glyph-name="uring" unicode="&#x16f;" 
d="M562 0h-178v58h-2c-35 -45 -84 -72 -147 -72c-116 0 -186 74 -186 209v313h192v-289c0 -57 20 -85 60 -85c46 0 69 40 69 119v255h192v-508zM189 669c0 33 12 62 36 85c23 23 51 35 84 35s62 -12 85 -35s34 -52 34 -85s-11 -62 -34 -85s-52 -35 -85 -35s-61 12 -84 36
c-24 23 -36 51 -36 84zM268 628c11 -11 25 -17 41 -17c32 0 58 26 58 58s-26 58 -58 58s-58 -26 -58 -58c0 -16 6 -30 17 -41z" />
    <glyph glyph-name="Uhungarumlaut" unicode="&#x170;" horiz-adv-x="731" 
d="M668 281c0 -189 -109 -297 -302 -297s-303 106 -303 297v431h200v-428c0 -81 36 -126 103 -126s102 45 102 126v428h200v-431zM157 760l100 156h179l-142 -156h-137zM378 760l99 156h179l-142 -156h-136z" />
    <glyph glyph-name="uhungarumlaut" unicode="&#x171;" 
d="M562 0h-178v58h-2c-35 -45 -84 -72 -147 -72c-116 0 -186 74 -186 209v313h192v-289c0 -57 20 -85 60 -85c46 0 69 40 69 119v255h192v-508zM201 712h179l-142 -150h-137zM421 712h179l-142 -150h-136z" />
    <glyph glyph-name="Uogonek" unicode="&#x172;" horiz-adv-x="731" 
d="M668 281c0 -115 -38 -192 -115 -256c-45 -37 -63 -66 -63 -94c0 -22 11 -33 32 -33c11 0 22 2 33 7v-90c-31 -10 -65 -15 -102 -15c-87 0 -130 34 -130 95c0 36 20 63 61 88v2c-4 -1 -10 -1 -18 -1c-193 0 -303 106 -303 297v431h200v-428c0 -81 36 -126 103 -126
s102 45 102 126v428h200v-431z" />
    <glyph glyph-name="uogonek" unicode="&#x173;" 
d="M565 -185c-30 -11 -65 -16 -106 -16c-89 0 -134 35 -134 96c0 43 30 74 90 105h-31v58h-2c-35 -45 -84 -72 -147 -72c-116 0 -186 74 -186 209v313h192v-289c0 -57 20 -85 60 -85c46 0 69 40 69 119v255h192v-508c-44 -28 -60 -48 -60 -71c0 -18 10 -27 31 -27
c13 0 23 2 32 6v-93z" />
    <glyph glyph-name="Wcircumflex" unicode="&#x174;" horiz-adv-x="1025" 
d="M880 0h-270l-54 287c-19 109 -33 199 -42 269h-2c-9 -78 -24 -168 -43 -269l-54 -287h-270l-139 712h194l43 -254c15 -89 29 -185 42 -288h2c12 94 28 190 47 288l50 254h257l50 -254c19 -93 35 -189 48 -288h2c11 96 25 192 41 288l44 254h193zM430 916h162l128 -156
h-149l-60 81l-59 -81h-149z" />
    <glyph glyph-name="wcircumflex" unicode="&#x175;" horiz-adv-x="886" 
d="M768 0h-254l-36 181c-13 63 -24 134 -34 211h-2c-10 -77 -21 -148 -34 -211l-36 -181h-254l-114 508h185l27 -177c11 -75 20 -146 26 -211h2c9 60 22 131 39 213l39 175h242l39 -175c17 -82 30 -153 39 -213h2c6 65 15 136 26 211l27 177h185zM239 562l123 150h162
l123 -150h-149l-55 75l-55 -75h-149z" />
    <glyph glyph-name="Ycircumflex" unicode="&#x176;" horiz-adv-x="689" 
d="M688 712l-244 -452v-260h-200v260l-244 452h220l56 -125c28 -63 50 -121 67 -176h2c18 57 41 115 68 176l56 125h219zM136 760l127 156h162l128 -156h-149l-60 81l-59 -81h-149z" />
    <glyph glyph-name="ycircumflex" unicode="&#x177;" horiz-adv-x="557" 
d="M409 22c-52 -163 -112 -214 -245 -214c-40 0 -73 3 -100 10v138c15 -4 31 -6 47 -6c40 0 63 17 63 50c0 7 -2 17 -5 28s-12 37 -27 76l-154 404h208l45 -169c18 -69 34 -140 47 -211h2c10 64 24 135 41 212l39 168h196zM201 712h162l123 -150h-149l-55 75l-55 -75h-149z
" />
    <glyph glyph-name="Ydieresis" unicode="&#x178;" horiz-adv-x="689" 
d="M0 712h220l56 -125c28 -63 50 -121 67 -176h2c18 57 41 115 68 176l56 125h219l-244 -452v-260h-200v260zM544 769h-163v141h163v-141zM145 910h162v-141h-162v141z" />
    <glyph glyph-name="Zacute" unicode="&#x179;" horiz-adv-x="605" 
d="M20 172l307 374v2h-293v164h532v-172l-306 -374v-2h323v-164h-563v172zM275 916h208l-142 -156h-146z" />
    <glyph glyph-name="zacute" unicode="&#x17a;" horiz-adv-x="521" 
d="M30 149l214 212v2h-207v145h446v-149l-213 -212v-2h221v-145h-461v149zM237 712h208l-142 -150h-146z" />
    <glyph glyph-name="Zdotaccent" unicode="&#x17b;" horiz-adv-x="605" 
d="M20 172l307 374v2h-293v164h532v-172l-306 -374v-2h323v-164h-563v172zM396 910v-141h-192v141h192z" />
    <glyph glyph-name="zdotaccent" unicode="&#x17c;" horiz-adv-x="521" 
d="M30 149l214 212v2h-207v145h446v-149l-213 -212v-2h221v-145h-461v149zM360 712v-141h-192v141h192z" />
    <glyph glyph-name="Zcaron" unicode="&#x17d;" horiz-adv-x="605" 
d="M583 0h-563v172l307 374v2h-293v164h532v-172l-306 -374v-2h323v-164zM241 916l60 -81l59 81h149l-127 -156h-162l-128 156h149z" />
    <glyph glyph-name="zcaron" unicode="&#x17e;" horiz-adv-x="521" 
d="M491 0h-461v149l214 212v2h-207v145h446v-149l-213 -212v-2h221v-145zM209 712l55 -75l55 75h149l-123 -150h-162l-123 150h149z" />
    <glyph glyph-name="longs" unicode="&#x17f;" horiz-adv-x="380" 
d="M7 508h78v29c0 123 69 185 200 185c29 0 58 -3 89 -10v-130c-5 2 -13 3 -25 3c-49 0 -72 -21 -72 -70v-515h-192v371h-78v137z" />
    <glyph glyph-name="uni018F" unicode="&#x18f;" horiz-adv-x="787" 
d="M756 358c2 -210 -141 -377 -365 -374c-220 0 -360 143 -360 370c0 27 1 46 4 59h512c-8 113 -71 161 -160 161c-68 0 -114 -35 -123 -84h-215c30 133 156 238 337 238c232 3 372 -153 370 -370zM241 277c12 -93 70 -140 150 -140c81 0 137 45 153 140h-303z" />
    <glyph glyph-name="florin" unicode="&#x192;" horiz-adv-x="656" 
d="M628 582c-16 4 -35 6 -57 6c-52 0 -79 -24 -92 -76l-11 -44h111v-132h-143l-78 -310c-39 -151 -119 -218 -248 -218c-32 0 -59 3 -82 10v132c16 -4 33 -6 51 -6c55 0 80 23 100 99l74 293h-100v132h132l16 61c33 132 110 196 239 196c33 0 63 -4 88 -11v-132z" />
    <glyph glyph-name="Aringacute" unicode="&#x1fa;" horiz-adv-x="731" 
d="M486 128h-241l-36 -128h-211l239 712h257l239 -712h-211zM282 938c23 23 51 35 84 35s62 -12 85 -35s34 -52 34 -85s-11 -62 -34 -85s-52 -35 -85 -35s-61 12 -84 36c-24 23 -36 51 -36 84s12 62 36 85zM259 993l80 156h208l-142 -156h-146zM442 285l-14 49
c-21 73 -41 153 -61 240h-2c-21 -91 -42 -171 -62 -240l-14 -49h153zM325 812c11 -11 25 -17 41 -17c32 0 58 26 58 58s-26 58 -58 58s-58 -26 -58 -58c0 -16 6 -30 17 -41z" />
    <glyph glyph-name="aringacute" unicode="&#x1fb;" horiz-adv-x="576" 
d="M282 412c-37 0 -59 -22 -60 -65h-183c3 51 25 94 65 127s100 50 180 50c164 0 243 -74 243 -211v-165c0 -63 5 -112 16 -148h-173c-5 19 -8 41 -8 64h-2c-40 -52 -95 -78 -165 -78c-54 0 -97 15 -129 45s-48 68 -48 114c0 92 59 143 207 166c36 6 75 10 117 13v18
c0 47 -20 70 -60 70zM397 665c0 -33 -11 -62 -34 -85s-52 -35 -85 -35s-61 12 -84 36c-24 23 -36 51 -36 84s12 62 36 85c23 23 51 35 84 35s62 -12 85 -35s34 -52 34 -85zM317 805h-146l80 150h208zM320 129c17 19 22 40 22 80v19c-33 -3 -59 -7 -78 -11
c-41 -9 -58 -27 -58 -59s20 -53 56 -53c23 0 45 8 58 24zM319 706c-11 11 -25 17 -41 17c-32 0 -58 -26 -58 -58s26 -58 58 -58s58 26 58 58c0 16 -6 30 -17 41z" />
    <glyph glyph-name="AEacute" unicode="&#x1fc;" horiz-adv-x="989" 
d="M944 0h-421l-20 142h-236l-57 -142h-216l304 712h643v-165h-308l16 -107h267v-161h-245l17 -114h256v-165zM488 916h208l-142 -156h-146zM332 302h149l-36 247h-14z" />
    <glyph glyph-name="aeacute" unicode="&#x1fd;" horiz-adv-x="911" 
d="M615 108c37 0 64 20 67 49h196c-22 -99 -126 -173 -261 -173c-83 0 -149 29 -193 81c-39 -54 -103 -81 -192 -81c-136 0 -214 66 -214 161c0 124 93 171 304 171h32v26c0 48 -20 70 -65 70c-43 0 -65 -22 -66 -65h-183c3 51 25 94 66 127s102 50 183 50
c73 0 129 -16 168 -49c42 33 94 49 157 49c123 0 210 -57 249 -157c16 -40 23 -84 23 -152h-353c4 -79 34 -107 82 -107zM346 562l80 150h208l-142 -150h-146zM206 157c0 -35 21 -57 58 -57c27 0 49 8 64 24c19 19 26 43 26 86v13h-31c-78 0 -117 -22 -117 -66zM536 314h157
c-4 63 -35 90 -79 90s-70 -30 -78 -90z" />
    <glyph glyph-name="Oslashacute" unicode="&#x1fe;" horiz-adv-x="767" 
d="M736 356c0 -227 -137 -372 -353 -372c-68 0 -128 14 -181 42l-59 -80l-79 58l61 82c-61 65 -94 158 -94 270c0 227 137 372 352 372c69 0 130 -14 182 -43l60 81l79 -58l-61 -83c60 -64 93 -157 93 -269zM230 356c0 -41 5 -77 15 -106l218 296c-23 15 -50 22 -80 22
c-97 0 -153 -77 -153 -212zM383 144c99 0 154 77 154 212c0 40 -5 75 -14 105l-218 -295c21 -15 47 -22 78 -22zM277 760l80 156h208l-142 -156h-146z" />
    <glyph glyph-name="oslashacute" unicode="&#x1ff;" horiz-adv-x="618" 
d="M593 254c0 -165 -112 -270 -284 -270c-47 0 -90 8 -128 23l-52 -71l-68 50l48 65c-55 48 -84 118 -84 203c0 165 112 270 284 270c47 0 90 -8 129 -23l52 71l68 -50l-48 -66c53 -48 83 -117 83 -202zM203 562l80 150h208l-142 -150h-146zM222 193l134 183
c-13 9 -29 14 -47 14c-60 0 -95 -53 -95 -136c0 -21 3 -42 8 -61zM309 118c60 0 95 53 95 136c0 24 -2 44 -7 60l-134 -183c14 -9 29 -13 46 -13z" />
    <glyph glyph-name="Scommaaccent" unicode="&#x218;" horiz-adv-x="661" 
d="M408 236c-16 16 -42 26 -113 43c-59 16 -105 31 -140 46s-63 36 -86 65s-34 67 -34 115c0 135 110 223 293 223s288 -81 288 -232h-210c0 52 -31 81 -88 81c-49 0 -79 -22 -79 -55c4 -42 24 -50 129 -76c113 -28 183 -53 229 -113c23 -30 34 -70 34 -119
c0 -142 -115 -230 -303 -230c-193 0 -307 91 -307 247h216c0 -61 33 -91 98 -91c53 0 85 24 85 61c0 15 -4 26 -12 35zM301 -170h-47v121h143v-121l-73 -110h-70z" />
    <glyph glyph-name="scommaaccent" unicode="&#x219;" horiz-adv-x="559" 
d="M514 356h-182c0 37 -19 56 -57 56c-31 0 -47 -11 -47 -34c3 -26 13 -31 99 -54c85 -23 139 -41 177 -86c19 -23 28 -52 28 -88c0 -101 -91 -166 -247 -166c-173 0 -259 60 -259 181h192c0 -43 21 -63 68 -63c36 0 54 12 54 35c-5 32 -19 36 -117 62
c-77 20 -124 36 -158 79c-17 21 -26 50 -26 85c0 97 82 161 239 161c149 0 236 -56 236 -168zM259 -170h-47v121h143v-121l-73 -110h-70z" />
    <glyph glyph-name="uni021A" unicode="&#x21a;" horiz-adv-x="638" 
d="M8 544v168h622v-168h-211v-544h-200v544h-211zM247 -170v121h143v-121l-73 -110h-70l47 110h-47z" />
    <glyph glyph-name="uni021B" unicode="&#x21b;" horiz-adv-x="398" 
d="M373 4c-24 -8 -64 -13 -93 -13c-139 0 -198 52 -198 173v207h-77v137h77v142h192v-142h94v-137h-94v-155c0 -55 18 -75 63 -75c14 0 26 2 36 5v-142zM152 -280l47 110h-47v121h143v-121l-73 -110h-70z" />
    <glyph glyph-name="uni0237" unicode="&#x237;" horiz-adv-x="300" 
d="M-46 -48c7 -2 16 -3 25 -3c52 0 75 23 75 98v461h192v-494c0 -137 -79 -205 -200 -205c-35 0 -66 4 -92 11v132z" />
    <glyph glyph-name="uni0259" unicode="&#x259;" horiz-adv-x="594" 
d="M569 256c0 -155 -101 -272 -272 -272c-167 0 -272 106 -272 268c0 17 1 32 3 43h353c-4 77 -36 105 -85 105c-35 0 -58 -20 -62 -48h-196c22 98 123 172 256 172c175 0 275 -113 275 -268zM218 194c5 -61 36 -90 79 -90c47 0 74 30 83 90h-162z" />
    <glyph glyph-name="afii57929" unicode="&#x2bc;" horiz-adv-x="277" 
d="M107 541h-55v171h170v-171l-91 -156h-96z" />
    <glyph glyph-name="circumflex" unicode="&#x2c6;" horiz-adv-x="508" 
d="M50 562l123 150h162l123 -150h-149l-55 75l-55 -75h-149z" />
    <glyph glyph-name="caron" unicode="&#x2c7;" horiz-adv-x="508" 
d="M199 712l55 -75l55 75h149l-123 -150h-162l-123 150h149z" />
    <glyph glyph-name="uni02C9" unicode="&#x2c9;" horiz-adv-x="493" 
d="M443 696v-115h-393v115h393z" />
    <glyph glyph-name="breve" unicode="&#x2d8;" horiz-adv-x="462" 
d="M50 712h117c2 -34 23 -51 64 -51s62 17 64 51h117c-4 -100 -69 -157 -181 -157s-177 57 -181 157z" />
    <glyph glyph-name="dotaccent" unicode="&#x2d9;" horiz-adv-x="292" 
d="M242 712v-141h-192v141h192z" />
    <glyph glyph-name="ring" unicode="&#x2da;" horiz-adv-x="339" 
d="M86 585c-24 23 -36 51 -36 84s12 62 36 85c23 23 51 35 84 35s62 -12 85 -35s34 -52 34 -85s-11 -62 -34 -85s-52 -35 -85 -35s-61 12 -84 36zM112 669c0 -32 26 -58 58 -58s58 26 58 58s-26 58 -58 58s-58 -26 -58 -58z" />
    <glyph glyph-name="ogonek" unicode="&#x2db;" horiz-adv-x="340" 
d="M73 -48c15 17 37 33 67 48h147c-44 -28 -60 -48 -60 -71c0 -18 10 -27 31 -27c13 0 23 2 32 6v-93c-30 -11 -65 -16 -106 -16c-89 0 -134 35 -134 96c0 21 8 40 23 57z" />
    <glyph glyph-name="tilde" unicode="&#x2dc;" horiz-adv-x="503" 
d="M417 601c-23 -27 -54 -41 -94 -41c-31 0 -51 8 -84 24c-24 12 -35 17 -50 17c-24 0 -36 -13 -40 -41h-99c5 96 51 152 131 152c31 0 51 -8 84 -24c4 -1 31 -16 50 -16c24 0 36 12 39 40h99c-2 -47 -14 -84 -36 -111z" />
    <glyph glyph-name="hungarumlaut" unicode="&#x2dd;" horiz-adv-x="599" 
d="M50 562l100 150h179l-142 -150h-137zM370 712h179l-142 -150h-136z" />
    <glyph glyph-name="uni0312" unicode="&#x312;" horiz-adv-x="0" 
d="M50 688l73 110h70l-47 -110h47v-121h-143v121z" />
    <glyph glyph-name="uni0326" unicode="&#x326;" horiz-adv-x="0" 
d="M50 -170v121h143v-121l-73 -110h-70l47 110h-47z" />
    <glyph glyph-name="uni0333" unicode="&#x333;" horiz-adv-x="0" 
d="M-500 -315v97h500v-97h-500zM-500 -147v97h500v-97h-500z" />
    <glyph glyph-name="uni0374" unicode="&#x374;" horiz-adv-x="253" 
d="M30 508l25 204h168l-72 -204h-121z" />
    <glyph glyph-name="uni0375" unicode="&#x375;" horiz-adv-x="253" 
d="M30 -92l25 204h168l-72 -204h-121z" />
    <glyph glyph-name="uni037E" unicode="&#x37e;" horiz-adv-x="291" 
d="M109 0h-64v200h200v-200l-107 -185h-113zM45 308v200h200v-200h-200z" />
    <glyph glyph-name="tonos" unicode="&#x384;" horiz-adv-x="317" 
d="M50 564l30 168h187l-76 -168h-141z" />
    <glyph glyph-name="dieresistonos" unicode="&#x385;" horiz-adv-x="612" 
d="M249 729h153l-57 -165h-125zM416 707h146v-134h-146v134zM196 707v-134h-146v134h146z" />
    <glyph glyph-name="Alphatonos" unicode="&#x386;" horiz-adv-x="731" 
d="M522 0l-36 128h-241l-36 -128h-211l239 712h257l239 -712h-211zM-37 504l30 208h187l-76 -208h-141zM442 285l-14 49c-21 73 -41 153 -61 240h-2c-21 -91 -42 -171 -62 -240l-14 -49h153z" />
    <glyph glyph-name="anoteleia" unicode="&#x387;" horiz-adv-x="290" 
d="M245 508v-201h-200v201h200z" />
    <glyph glyph-name="Epsilontonos" unicode="&#x388;" horiz-adv-x="635" 
d="M584 712v-165h-315v-107h293v-161h-293v-114h321v-165h-521v712h515zM45 712l-76 -208h-141l30 208h187z" />
    <glyph glyph-name="Etatonos" unicode="&#x389;" horiz-adv-x="771" 
d="M69 712h200v-262h233v262h200v-712h-200v282h-233v-282h-200v712zM45 712l-76 -208h-141l30 208h187z" />
    <glyph glyph-name="Iotatonos" unicode="&#x38a;" horiz-adv-x="338" 
d="M69 0v712h200v-712h-200zM-172 504l30 208h187l-76 -208h-141z" />
    <glyph glyph-name="Omicrontonos" unicode="&#x38c;" horiz-adv-x="767" 
d="M736 356c0 -227 -137 -372 -353 -372c-215 0 -352 145 -352 372s137 372 352 372c216 0 353 -145 353 -372zM278 207c25 -35 60 -53 105 -53c92 0 143 73 143 202s-51 202 -143 202c-91 0 -142 -73 -142 -202c0 -65 12 -114 37 -149zM-126 504l30 208h187l-76 -208h-141z
" />
    <glyph glyph-name="Upsilontonos" unicode="&#x38e;" horiz-adv-x="689" 
d="M0 712h220l56 -125c28 -63 50 -121 67 -176h2c18 57 41 115 68 176l56 125h219l-244 -452v-260h-200v260zM-13 712l-76 -208h-141l30 208h187z" />
    <glyph glyph-name="Omegatonos" unicode="&#x38f;" horiz-adv-x="759" 
d="M734 0h-312v173c57 59 91 123 91 212c0 112 -53 172 -133 172c-81 0 -134 -60 -134 -172c0 -89 34 -153 91 -212v-173h-312v167h135v2c-79 75 -124 147 -124 250c0 101 31 177 94 230c62 53 145 79 250 79c104 0 187 -26 250 -79c62 -53 93 -129 93 -230
c0 -103 -45 -175 -124 -250v-2h135v-167zM-140 504l30 208h187l-76 -208h-141z" />
    <glyph glyph-name="iotadieresistonos" unicode="&#x390;" horiz-adv-x="351" 
d="M241 508v-288c0 -60 18 -84 63 -84c14 0 26 2 36 5v-139c-24 -7 -65 -11 -93 -11c-139 0 -198 59 -198 196v321h192zM88 729h153l-57 -165h-125zM-111 573v134h146v-134h-146zM401 573h-146v134h146v-134z" />
    <glyph glyph-name="Alpha" unicode="&#x391;" horiz-adv-x="731" 
d="M-2 0l239 712h257l239 -712h-211l-36 128h-241l-36 -128h-211zM289 285h153l-14 49c-21 73 -41 153 -61 240h-2c-21 -91 -42 -171 -62 -240z" />
    <glyph glyph-name="Beta" unicode="&#x392;" horiz-adv-x="677" 
d="M648 200c0 -61 -24 -110 -71 -146s-113 -54 -196 -54h-312v712h302c172 0 259 -71 259 -184c0 -81 -37 -132 -118 -160v-2c89 -20 136 -78 136 -166zM262 290v-142h81c71 0 99 21 99 70c0 51 -31 72 -103 72h-77zM339 430c67 0 97 21 97 68c0 45 -28 67 -91 67h-83v-135
h77z" />
    <glyph glyph-name="Gamma" unicode="&#x393;" horiz-adv-x="530" 
d="M69 712h453v-168h-253v-544h-200v712z" />
    <glyph glyph-name="Delta" unicode="&#x394;" horiz-adv-x="730" 
d="M-2 0l243 712h250l241 -712h-734zM251 157h227l-50 177c-22 76 -43 157 -62 242h-2c-17 -75 -38 -156 -63 -242z" />
    <glyph glyph-name="Epsilon" unicode="&#x395;" horiz-adv-x="635" 
d="M69 712h515v-165h-315v-107h293v-161h-293v-114h321v-165h-521v712z" />
    <glyph glyph-name="Zeta" unicode="&#x396;" horiz-adv-x="605" 
d="M20 172l307 374v2h-293v164h532v-172l-306 -374v-2h323v-164h-563v172z" />
    <glyph glyph-name="Eta" unicode="&#x397;" horiz-adv-x="771" 
d="M269 712v-262h233v262h200v-712h-200v282h-233v-282h-200v712h200z" />
    <glyph glyph-name="Theta" unicode="&#x398;" horiz-adv-x="767" 
d="M693 159c-59 -112 -167 -175 -310 -175c-215 0 -352 145 -352 372s137 372 352 372c214 0 353 -145 353 -372c0 -75 -14 -141 -43 -197zM270 201c26 -37 64 -56 113 -56c99 0 154 78 154 211c0 135 -55 211 -154 211s-153 -76 -153 -211c0 -67 13 -118 40 -155zM500 420
v-128h-234v128h234z" />
    <glyph glyph-name="Iota" unicode="&#x399;" horiz-adv-x="338" 
d="M269 712v-712h-200v712h200z" />
    <glyph glyph-name="Kappa" unicode="&#x39a;" horiz-adv-x="716" 
d="M69 0v712h200v-300h2l186 300h241l-247 -336l262 -376h-250l-192 319h-2v-319h-200z" />
    <glyph glyph-name="Lambda" unicode="&#x39b;" horiz-adv-x="718" 
d="M229 712h260l231 -712h-215l-90 329c-21 81 -40 160 -55 237h-2c-17 -82 -35 -161 -56 -237l-89 -329h-215z" />
    <glyph glyph-name="Mu" unicode="&#x39c;" horiz-adv-x="1042" 
d="M973 0h-186v341c0 87 2 174 6 261h-2c-20 -96 -40 -182 -60 -258l-89 -344h-242l-89 344c-20 76 -40 162 -60 258h-2c4 -87 6 -174 6 -261v-341h-186v712h318l79 -306c23 -84 41 -171 54 -262h2c12 81 30 169 54 262l79 306h318v-712z" />
    <glyph glyph-name="Nu" unicode="&#x39d;" horiz-adv-x="827" 
d="M69 0v712h291l110 -273c39 -94 73 -186 102 -276h2c-5 103 -8 200 -8 291v258h191v-712h-290l-111 273c-38 95 -72 187 -102 276h-2c5 -86 8 -183 8 -291v-258h-191z" />
    <glyph glyph-name="Xi" unicode="&#x39e;" horiz-adv-x="677" 
d="M45 0v174h587v-174h-587zM59 712h559v-174h-559v174zM76 272v174h525v-174h-525z" />
    <glyph glyph-name="Omicron" unicode="&#x39f;" horiz-adv-x="767" 
d="M736 356c0 -227 -137 -372 -353 -372c-215 0 -352 145 -352 372s137 372 352 372c216 0 353 -145 353 -372zM241 356c0 -129 51 -202 142 -202c92 0 143 73 143 202s-51 202 -143 202c-91 0 -142 -73 -142 -202z" />
    <glyph glyph-name="Pi" unicode="&#x3a0;" horiz-adv-x="761" 
d="M69 712h623v-712h-200v544h-223v-544h-200v712z" />
    <glyph glyph-name="Rho" unicode="&#x3a1;" horiz-adv-x="673" 
d="M370 712c187 0 283 -91 283 -243s-96 -244 -283 -244h-101v-225h-200v712h301zM342 382c70 0 105 29 105 87c0 57 -35 86 -105 86h-73v-173h73z" />
    <glyph glyph-name="Sigma" unicode="&#x3a3;" horiz-adv-x="602" 
d="M25 0v172l151 191l-140 179v170h530v-167h-306v-2l148 -181l-160 -193v-2h332v-167h-555z" />
    <glyph glyph-name="Tau" unicode="&#x3a4;" horiz-adv-x="638" 
d="M8 712h622v-168h-211v-544h-200v544h-211v168z" />
    <glyph glyph-name="Upsilon" unicode="&#x3a5;" horiz-adv-x="689" 
d="M0 712h220l56 -125c28 -63 50 -121 67 -176h2c18 57 41 115 68 176l56 125h219l-244 -452v-260h-200v260z" />
    <glyph glyph-name="Phi" unicode="&#x3a6;" horiz-adv-x="887" 
d="M773 130c-56 -54 -134 -85 -235 -92v-72h-189v72c-203 15 -318 123 -318 322s115 305 318 320v66h189v-66c201 -15 318 -122 318 -322c0 -99 -28 -175 -83 -228zM232 360c0 -108 44 -166 123 -173v345c-79 -8 -123 -67 -123 -172zM532 532v-345c79 7 123 66 123 171
c0 108 -44 166 -123 174z" />
    <glyph glyph-name="Chi" unicode="&#x3a7;" horiz-adv-x="709" 
d="M220 369l-205 343h230l108 -229h2l109 229h230l-205 -343l219 -369h-235l-118 239h-2l-117 -239h-236z" />
    <glyph glyph-name="Psi" unicode="&#x3a8;" horiz-adv-x="879" 
d="M848 471c0 -199 -106 -304 -311 -319v-152h-195v152c-207 14 -311 120 -311 319v241h195v-229c0 -115 32 -161 116 -168v397h195v-397c83 7 116 55 116 168v229h195v-241z" />
    <glyph glyph-name="Omega" unicode="&#x3a9;" horiz-adv-x="759" 
d="M734 0h-312v173c57 59 91 123 91 212c0 112 -53 172 -133 172c-81 0 -134 -60 -134 -172c0 -89 34 -153 91 -212v-173h-312v167h135v2c-79 75 -124 147 -124 250c0 101 31 177 94 230c62 53 145 79 250 79c104 0 187 -26 250 -79c62 -53 93 -129 93 -230
c0 -103 -45 -175 -124 -250v-2h135v-167z" />
    <glyph glyph-name="Iotadieresis" unicode="&#x3aa;" horiz-adv-x="338" 
d="M69 712h200v-712h-200v712zM205 916h163v-141h-163v141zM-31 916h162v-141h-162v141z" />
    <glyph glyph-name="Upsilondieresis" unicode="&#x3ab;" horiz-adv-x="689" 
d="M0 712h220l56 -125c28 -63 50 -121 67 -176h2c18 57 41 115 68 176l56 125h219l-244 -452v-260h-200v260zM544 769h-163v141h163v-141zM145 910h162v-141h-162v141z" />
    <glyph glyph-name="alphatonos" unicode="&#x3ac;" horiz-adv-x="652" 
d="M615 133c8 0 16 1 24 3v-130c-31 -11 -68 -17 -111 -17c-68 0 -113 24 -136 71h-2c-32 -49 -86 -75 -145 -75c-133 0 -220 106 -220 269s89 269 221 269c56 0 106 -25 137 -74h2c1 24 3 44 6 59h192c-7 -48 -10 -108 -10 -180v-140c0 -40 13 -55 42 -55zM226 254
c0 -76 32 -124 81 -124c48 0 79 48 79 124s-31 124 -79 124c-49 0 -81 -48 -81 -124zM236 564l30 168h187l-76 -168h-141z" />
    <glyph glyph-name="epsilontonos" unicode="&#x3ad;" horiz-adv-x="549" 
d="M462 33c-45 -33 -108 -49 -189 -49c-159 0 -245 54 -245 158c0 63 29 100 97 123v2c-61 21 -85 52 -85 107c0 48 21 85 64 111s99 39 170 39c75 0 134 -17 178 -50c44 -34 66 -80 66 -139h-170c0 39 -24 61 -71 61c-40 0 -61 -15 -61 -42s23 -43 64 -43h49v-109h-49
c-48 0 -72 -15 -72 -45c0 -28 25 -44 65 -44c51 0 76 21 76 62h179c0 -63 -22 -110 -66 -142zM229 732h187l-76 -168h-141z" />
    <glyph glyph-name="etatonos" unicode="&#x3ae;" horiz-adv-x="642" 
d="M593 -185h-192v473c0 56 -19 87 -59 87c-47 0 -70 -40 -70 -120v-255h-192v312c0 45 -11 64 -42 64c-9 0 -18 -1 -25 -3v128c34 11 69 17 105 17c73 0 113 -24 132 -83h2c35 55 90 87 158 87c115 0 183 -74 183 -210v-497zM208 564l30 168h187l-76 -168h-141z" />
    <glyph glyph-name="iotatonos" unicode="&#x3af;" horiz-adv-x="351" 
d="M241 508v-288c0 -60 18 -84 63 -84c14 0 26 2 36 5v-139c-24 -7 -65 -11 -93 -11c-139 0 -198 59 -198 196v321h192zM74 564l30 168h187l-76 -168h-141z" />
    <glyph glyph-name="upsilondieresistonos" unicode="&#x3b0;" horiz-adv-x="623" 
d="M8 501c35 11 70 17 105 17c105 0 155 -47 155 -175v-142c0 -51 18 -73 54 -73c49 0 73 49 73 147c0 89 -11 166 -32 233h186c25 -75 37 -158 37 -249c0 -179 -86 -275 -261 -275c-165 0 -250 64 -250 208v108c0 56 -13 74 -42 74c-10 0 -18 -1 -25 -3v130zM218 564
l29 165h153l-57 -165h-125zM194 707v-134h-146v134h146zM560 573h-146v134h146v-134z" />
    <glyph glyph-name="alpha" unicode="&#x3b1;" horiz-adv-x="652" 
d="M639 6c-31 -11 -68 -17 -111 -17c-68 0 -113 24 -136 71h-2c-32 -49 -86 -75 -145 -75c-133 0 -220 106 -220 269s89 269 221 269c56 0 106 -25 137 -74h2c1 24 3 44 6 59h192c-7 -48 -10 -108 -10 -180v-140c0 -40 13 -55 42 -55c8 0 16 1 24 3v-130zM248 164
c15 -23 34 -34 59 -34c48 0 79 48 79 124s-31 124 -79 124c-49 0 -81 -48 -81 -124c0 -38 7 -68 22 -90z" />
    <glyph glyph-name="beta" unicode="&#x3b2;" horiz-adv-x="621" 
d="M598 196c0 -63 -21 -113 -62 -150s-98 -56 -170 -56c-51 0 -91 12 -118 36h-2v-211h-192v671c0 76 23 135 69 178s109 64 189 64c77 0 139 -16 185 -49c45 -33 68 -78 68 -135c0 -84 -39 -134 -120 -162v-2c101 -27 153 -84 153 -184zM246 201c0 -44 24 -70 72 -70
c52 0 84 30 84 85c0 57 -37 86 -106 86h-10v148h10c56 0 88 27 88 74c0 41 -25 65 -66 65c-51 0 -72 -30 -72 -98v-290z" />
    <glyph glyph-name="gamma" unicode="&#x3b3;" horiz-adv-x="589" 
d="M521 251c-31 -77 -78 -159 -140 -246v-11c0 -46 -5 -133 -11 -179h-192c6 46 11 133 11 179c0 40 -6 88 -19 144c-13 55 -30 107 -52 155c-31 65 -55 83 -88 83c-6 0 -14 -1 -23 -2v131c31 10 62 15 93 15c41 0 73 -9 98 -27c24 -19 46 -53 66 -103
c23 -57 41 -117 53 -180h2c36 96 57 187 65 298h199c-10 -95 -31 -181 -62 -257z" />
    <glyph glyph-name="delta" unicode="&#x3b4;" horiz-adv-x="607" 
d="M548 101c-47 -75 -133 -116 -244 -116c-168 0 -279 96 -279 246c0 104 62 182 171 210v2c-69 48 -101 87 -101 143c0 91 74 136 221 136c72 0 141 -7 206 -21v-145c-60 21 -128 33 -181 33c-32 0 -44 -8 -44 -21c0 -17 23 -30 96 -65c129 -60 189 -137 189 -270
c0 -51 -11 -95 -34 -132zM248 153c13 -21 32 -31 56 -31c47 0 76 44 76 115s-29 115 -76 115c-48 0 -77 -44 -77 -115c0 -35 7 -63 21 -84z" />
    <glyph glyph-name="epsilon" unicode="&#x3b5;" horiz-adv-x="549" 
d="M462 33c-45 -33 -108 -49 -189 -49c-159 0 -245 54 -245 158c0 63 29 100 97 123v2c-61 21 -85 52 -85 107c0 48 21 85 64 111s99 39 170 39c75 0 134 -17 178 -50c44 -34 66 -80 66 -139h-170c0 39 -24 61 -71 61c-40 0 -61 -15 -61 -42s23 -43 64 -43h49v-109h-49
c-48 0 -72 -15 -72 -45c0 -28 25 -44 65 -44c51 0 76 21 76 62h179c0 -63 -22 -110 -66 -142z" />
    <glyph glyph-name="zeta" unicode="&#x3b6;" horiz-adv-x="507" 
d="M494 576c-176 -96 -268 -201 -268 -333c0 -69 35 -101 136 -118s134 -66 134 -154c0 -40 -10 -79 -31 -116h-150c9 21 13 43 13 64c0 44 -20 67 -92 76c-77 9 -131 30 -162 62c-32 32 -48 79 -48 142c0 144 94 276 258 375v2h-233v136h443v-136z" />
    <glyph glyph-name="eta" unicode="&#x3b7;" horiz-adv-x="642" 
d="M593 -185h-192v473c0 56 -19 87 -59 87c-47 0 -70 -40 -70 -120v-255h-192v312c0 45 -11 64 -42 64c-9 0 -18 -1 -25 -3v128c34 11 69 17 105 17c73 0 113 -24 132 -83h2c35 55 90 87 158 87c115 0 183 -74 183 -210v-497z" />
    <glyph glyph-name="theta" unicode="&#x3b8;" horiz-adv-x="653" 
d="M326 727c193 0 298 -131 298 -371s-105 -371 -298 -371c-192 0 -297 131 -297 371s105 371 297 371zM425 419c-8 113 -42 171 -99 171s-90 -57 -99 -171h198zM326 122c57 0 91 58 99 171h-198c9 -114 42 -171 99 -171z" />
    <glyph glyph-name="iota" unicode="&#x3b9;" horiz-adv-x="351" 
d="M49 508h192v-288c0 -60 18 -84 63 -84c14 0 26 2 36 5v-139c-24 -7 -65 -11 -93 -11c-139 0 -198 59 -198 196v321z" />
    <glyph glyph-name="kappa" unicode="&#x3ba;" horiz-adv-x="608" 
d="M587 352c-12 3 -25 5 -38 5c-49 0 -94 -23 -150 -78l220 -279h-227l-110 146l-37 -42v-104h-192v508h192v-192h2l72 87c35 43 69 72 100 89s67 25 108 25c19 0 39 -3 60 -9v-156z" />
    <glyph glyph-name="lambda" unicode="&#x3bb;" horiz-adv-x="633" 
d="M627 0c-27 -7 -52 -11 -77 -11c-102 2 -143 29 -188 160c-15 45 -32 98 -51 159h-2c-22 -65 -43 -125 -63 -178l-49 -130h-206l224 500c-19 55 -44 76 -88 76c-18 0 -34 -3 -48 -8v140c28 11 61 16 99 16c122 -2 179 -40 243 -210l105 -280c31 -81 54 -102 87 -102
c4 0 9 1 14 2v-134z" />
    <glyph glyph-name="mu" unicode="&#x3bc;" horiz-adv-x="640" 
d="M631 6c-32 -11 -69 -17 -111 -17c-65 0 -108 23 -130 70h-2c-19 -41 -54 -64 -99 -64c-17 0 -32 3 -43 9v-189h-192v693h192v-283c0 -61 20 -91 59 -91c45 0 68 37 68 111v263h192v-320c0 -40 13 -55 41 -55c9 0 17 1 25 3v-130z" />
    <glyph glyph-name="nu" unicode="&#x3bd;" horiz-adv-x="579" 
d="M565 458c0 -38 -4 -75 -12 -112c-9 -37 -23 -82 -43 -134c-21 -53 -51 -123 -92 -212h-263l-73 295c-16 63 -30 81 -58 81c-8 0 -15 -1 -21 -3v129c25 11 56 16 91 16c91 0 143 -51 162 -170l36 -217h2c29 81 50 147 62 198c11 51 17 98 17 141c0 13 -1 26 -3 38h189
c4 -17 6 -33 6 -50z" />
    <glyph glyph-name="xi" unicode="&#x3be;" horiz-adv-x="512" 
d="M499 576h-115c-91 0 -136 -28 -136 -85c0 -43 35 -66 98 -66h114v-136h-105c-87 0 -129 -31 -129 -80c0 -51 34 -73 138 -86c103 -15 136 -64 136 -152c0 -38 -10 -77 -31 -116h-150c9 21 13 43 13 64c0 45 -27 69 -118 80c-133 15 -188 71 -188 174c0 96 51 159 155 180
v2c-67 15 -105 57 -105 118c0 52 23 86 70 101v2h-96v136h449v-136z" />
    <glyph glyph-name="omicron" unicode="&#x3bf;" horiz-adv-x="618" 
d="M593 254c0 -165 -112 -270 -284 -270s-284 105 -284 270s112 270 284 270s284 -105 284 -270zM227 254c0 -80 30 -127 82 -127s82 47 82 127s-30 127 -82 127s-82 -47 -82 -127z" />
    <glyph glyph-name="pi" unicode="&#x3c0;" horiz-adv-x="691" 
d="M675 371h-84v-180c0 -45 14 -59 46 -59c12 0 21 1 27 4v-134c-27 -7 -68 -12 -101 -12c-115 0 -164 47 -164 174v207h-117v-371h-192v371h-83v137h668v-137z" />
    <glyph glyph-name="rho" unicode="&#x3c1;" horiz-adv-x="621" 
d="M566 110c-40 -79 -116 -123 -215 -123c-45 0 -85 13 -108 36h-2v-208h-192v439c0 165 107 270 272 270c166 0 275 -108 275 -278c0 -52 -10 -97 -30 -136zM252 164c15 -23 34 -34 59 -34c51 0 82 48 82 124c0 77 -31 124 -82 124c-49 0 -81 -48 -81 -124
c0 -37 7 -67 22 -90z" />
    <glyph glyph-name="sigma1" unicode="&#x3c2;" horiz-adv-x="588" 
d="M493 -145h-151c9 19 14 40 14 64s-8 42 -25 55s-50 22 -99 27c-139 15 -208 103 -208 256c0 84 24 150 73 197c48 47 114 70 199 70c168 0 261 -89 270 -234h-198c-4 57 -29 91 -72 91s-70 -40 -70 -105c0 -81 44 -125 143 -138c117 -15 155 -70 155 -167
c0 -38 -10 -77 -31 -116z" />
    <glyph glyph-name="sigma" unicode="&#x3c3;" horiz-adv-x="648" 
d="M641 372h-105v-2c31 -35 47 -80 47 -134c0 -153 -107 -252 -274 -252c-172 0 -284 103 -284 262c0 160 112 262 284 262h332v-136zM248 160c14 -22 34 -33 61 -33c53 0 82 45 82 124s-29 123 -82 123s-82 -44 -82 -123c0 -39 7 -70 21 -91z" />
    <glyph glyph-name="tau" unicode="&#x3c4;" horiz-adv-x="497" 
d="M7 372v136h483v-136h-151v-181c0 -45 14 -59 46 -59c12 0 21 1 27 4v-134c-27 -7 -68 -12 -101 -12c-115 0 -164 47 -164 174v208h-140z" />
    <glyph glyph-name="upsilon" unicode="&#x3c5;" horiz-adv-x="623" 
d="M586 259c0 -179 -86 -275 -261 -275c-165 0 -250 64 -250 208v108c0 56 -13 74 -42 74c-10 0 -18 -1 -25 -3v130c35 11 70 17 105 17c105 0 155 -47 155 -175v-142c0 -51 18 -73 54 -73c49 0 73 49 73 147c0 89 -11 166 -32 233h186c25 -75 37 -158 37 -249z" />
    <glyph glyph-name="phi" unicode="&#x3c6;" horiz-adv-x="829" 
d="M804 254c0 -81 -27 -145 -80 -192c-54 -48 -127 -74 -219 -78v-169h-181v169c-92 4 -165 30 -218 78c-54 47 -81 111 -81 192s27 145 81 193c53 47 126 73 218 77v138h181v-138c92 -4 165 -30 219 -77c53 -48 80 -112 80 -193zM608 254c0 85 -34 129 -103 134v-268
c69 5 103 49 103 134zM220 254c0 -83 36 -128 104 -135v270c-68 -7 -104 -52 -104 -135z" />
    <glyph glyph-name="chi" unicode="&#x3c7;" horiz-adv-x="632" 
d="M620 -179c-30 -11 -62 -16 -95 -16c-46 0 -82 10 -109 29s-50 53 -71 101l-32 74h-2l-113 -194h-210l215 333l-70 150c-31 65 -54 83 -95 83c-9 0 -19 -1 -31 -4v128c24 11 62 18 97 18c47 0 84 -9 110 -28s49 -53 69 -101l38 -90h2l104 204h211l-202 -350l63 -133
c29 -63 53 -78 93 -78c10 0 19 1 28 3v-129z" />
    <glyph glyph-name="psi" unicode="&#x3c8;" horiz-adv-x="870" 
d="M832 266c0 -167 -98 -263 -298 -275v-176h-192v176c-195 11 -293 88 -293 251v266h192v-246c0 -76 33 -116 101 -127v527h192v-526c71 13 106 62 106 145c0 85 -13 160 -39 227h190c27 -72 41 -153 41 -242z" />
    <glyph glyph-name="omega" unicode="&#x3c9;" horiz-adv-x="873" 
d="M835 224c0 -155 -71 -239 -219 -239c-97 0 -156 35 -178 106h-2c-22 -71 -81 -106 -178 -106c-149 0 -220 84 -220 239c0 101 22 200 65 284h200c-43 -77 -66 -168 -66 -261c0 -80 19 -120 58 -120c31 0 46 23 46 68v197h192v-197c0 -45 15 -68 45 -68c39 0 58 40 58 120
c0 93 -23 184 -66 261h200c43 -84 65 -183 65 -284z" />
    <glyph glyph-name="iotadieresis" unicode="&#x3ca;" horiz-adv-x="351" 
d="M49 508h192v-288c0 -60 18 -84 63 -84c14 0 26 2 36 5v-139c-24 -7 -65 -11 -93 -11c-139 0 -198 59 -198 196v321zM345 571h-163v141h163v-141zM108 712v-141h-162v141h162z" />
    <glyph glyph-name="upsilondieresis" unicode="&#x3cb;" horiz-adv-x="623" 
d="M586 259c0 -179 -86 -275 -261 -275c-165 0 -250 64 -250 208v108c0 56 -13 74 -42 74c-10 0 -18 -1 -25 -3v130c35 11 70 17 105 17c105 0 155 -47 155 -175v-142c0 -51 18 -73 54 -73c49 0 73 49 73 147c0 89 -11 166 -32 233h186c25 -75 37 -158 37 -249zM340 571v141
h163v-141h-163zM104 712h162v-141h-162v141z" />
    <glyph glyph-name="omicrontonos" unicode="&#x3cc;" horiz-adv-x="618" 
d="M593 254c0 -165 -112 -270 -284 -270s-284 105 -284 270s112 270 284 270s284 -105 284 -270zM227 254c0 -80 30 -127 82 -127s82 47 82 127s-30 127 -82 127s-82 -47 -82 -127zM268 732h187l-76 -168h-141z" />
    <glyph glyph-name="upsilontonos" unicode="&#x3cd;" horiz-adv-x="623" 
d="M586 259c0 -179 -86 -275 -261 -275c-165 0 -250 64 -250 208v108c0 56 -13 74 -42 74c-10 0 -18 -1 -25 -3v130c35 11 70 17 105 17c105 0 155 -47 155 -175v-142c0 -51 18 -73 54 -73c49 0 73 49 73 147c0 89 -11 166 -32 233h186c25 -75 37 -158 37 -249zM233 564
l30 168h187l-76 -168h-141z" />
    <glyph glyph-name="omegatonos" unicode="&#x3ce;" horiz-adv-x="873" 
d="M835 224c0 -155 -71 -239 -219 -239c-97 0 -156 35 -178 106h-2c-22 -71 -81 -106 -178 -106c-149 0 -220 84 -220 239c0 101 22 200 65 284h200c-43 -77 -66 -168 -66 -261c0 -80 19 -120 58 -120c31 0 46 23 46 68v197h192v-197c0 -45 15 -68 45 -68c39 0 58 40 58 120
c0 93 -23 184 -66 261h200c43 -84 65 -183 65 -284zM366 564l30 168h187l-76 -168h-141z" />
    <glyph glyph-name="uni0400" unicode="&#x400;" horiz-adv-x="635" 
d="M69 712h515v-165h-315v-107h293v-161h-293v-114h321v-165h-521v712zM355 916l80 -156h-146l-142 156h208z" />
    <glyph glyph-name="afii10023" unicode="&#x401;" horiz-adv-x="635" 
d="M590 0h-521v712h515v-165h-315v-107h293v-161h-293v-114h321v-165zM528 910v-141h-163v141h163zM129 769v141h162v-141h-162z" />
    <glyph glyph-name="afii10051" unicode="&#x402;" horiz-adv-x="835" 
d="M752 49c-43 -41 -104 -62 -183 -62c-37 0 -69 4 -95 13v148c14 -4 31 -6 51 -6c61 0 91 24 91 81c0 55 -34 84 -99 84c-36 0 -69 -8 -98 -25v-282h-200v544h-211v168h622v-168h-211v-112c42 21 90 31 144 31c161 0 252 -87 252 -242c0 -73 -21 -131 -63 -172z" />
    <glyph glyph-name="afii10052" unicode="&#x403;" horiz-adv-x="530" 
d="M69 0v712h453v-168h-253v-544h-200zM190 760l80 156h208l-142 -156h-146z" />
    <glyph glyph-name="afii10053" unicode="&#x404;" horiz-adv-x="744" 
d="M710 454h-205c-9 71 -53 111 -125 111c-69 0 -118 -48 -137 -131h207v-155h-207c19 -84 68 -132 136 -132c71 0 117 42 128 117h207c-8 -89 -42 -158 -101 -207s-137 -73 -234 -73c-217 0 -348 142 -348 372s133 372 349 372c195 0 322 -103 330 -274z" />
    <glyph glyph-name="afii10054" unicode="&#x405;" horiz-adv-x="661" 
d="M631 214c0 -142 -115 -230 -303 -230c-193 0 -307 91 -307 247h216c0 -61 33 -91 98 -91c53 0 85 24 85 61c0 29 -16 44 -48 56c-16 6 -42 13 -77 22c-59 16 -105 31 -140 46s-63 36 -86 65s-34 67 -34 115c0 135 110 223 293 223s288 -81 288 -232h-210
c0 52 -31 81 -88 81c-49 0 -79 -22 -79 -55c4 -42 24 -50 129 -76c113 -28 183 -53 229 -113c23 -30 34 -70 34 -119z" />
    <glyph glyph-name="afii10055" unicode="&#x406;" horiz-adv-x="338" 
d="M269 712v-712h-200v712h200z" />
    <glyph glyph-name="afii10056" unicode="&#x407;" horiz-adv-x="338" 
d="M69 712h200v-712h-200v712zM205 910h163v-141h-163v141zM-31 910h162v-141h-162v141z" />
    <glyph glyph-name="afii10057" unicode="&#x408;" horiz-adv-x="428" 
d="M59 160c79 0 105 31 105 141v411h200v-458c0 -181 -82 -264 -258 -264c-29 0 -59 4 -91 11v163c17 -3 32 -4 44 -4z" />
    <glyph glyph-name="afii10058" unicode="&#x409;" horiz-adv-x="1089" 
d="M998 65c-48 -43 -119 -65 -212 -65h-301v545h-149c-7 -154 -20 -270 -39 -349c-20 -79 -47 -133 -81 -161c-35 -29 -82 -43 -142 -43c-23 0 -44 3 -64 8v160c7 -1 13 -2 18 -2c29 0 51 14 66 41s27 80 36 158c8 77 14 196 19 355h536v-225h101c187 0 283 -92 283 -244
c0 -76 -24 -135 -71 -178zM685 330v-173h73c70 0 105 29 105 86c0 58 -35 87 -105 87h-73z" />
    <glyph glyph-name="afii10059" unicode="&#x40a;" horiz-adv-x="1106" 
d="M1015 65c-48 -43 -119 -65 -212 -65h-301v282h-233v-282h-200v712h200v-262h233v262h200v-225h101c187 0 283 -92 283 -244c0 -76 -24 -135 -71 -178zM702 330v-173h73c70 0 105 29 105 86c0 58 -35 87 -105 87h-73z" />
    <glyph glyph-name="afii10060" unicode="&#x40b;" horiz-adv-x="837" 
d="M808 0h-200v175c0 64 -32 98 -95 98c-36 0 -67 -5 -94 -14v-259h-200v544h-211v168h622v-168h-211v-122c42 13 93 19 153 19c152 0 236 -81 236 -228v-213z" />
    <glyph glyph-name="afii10061" unicode="&#x40c;" horiz-adv-x="716" 
d="M271 412l186 300h241l-247 -336l262 -376h-250l-192 319h-2v-319h-200v712h200v-300h2zM332 916h208l-142 -156h-146z" />
    <glyph glyph-name="uni040D" unicode="&#x40d;" horiz-adv-x="827" 
d="M757 0h-191v258c0 91 3 188 8 291h-2c-29 -90 -63 -182 -102 -276l-110 -273h-291v712h191v-258c0 -108 -3 -205 -8 -291h2c30 89 64 181 102 276l111 273h290v-712zM214 916h208l80 -156h-146z" />
    <glyph glyph-name="afii10062" unicode="&#x40e;" horiz-adv-x="716" 
d="M716 712l-273 -568c-55 -113 -127 -154 -227 -154c-40 0 -72 3 -96 10v162c15 -5 32 -7 49 -7c44 0 69 18 69 54c0 11 -3 23 -8 36s-21 45 -46 96l-184 371h218l73 -178c23 -53 45 -110 67 -173h2c22 63 44 121 66 174l72 177h218zM294 916c2 -34 23 -51 64 -51
s62 17 64 51h117c-4 -100 -69 -157 -181 -157s-177 57 -181 157h117z" />
    <glyph glyph-name="afii10145" unicode="&#x40f;" horiz-adv-x="761" 
d="M270 712v-544h221v544h201v-712h-218v-160h-192v160h-213v712h201z" />
    <glyph glyph-name="afii10017" unicode="&#x410;" horiz-adv-x="731" 
d="M-2 0l239 712h257l239 -712h-211l-36 128h-241l-36 -128h-211zM289 285h153l-14 49c-21 73 -41 153 -61 240h-2c-21 -91 -42 -171 -62 -240z" />
    <glyph glyph-name="afii10018" unicode="&#x411;" horiz-adv-x="686" 
d="M606 555h-344v-111h125c83 0 149 -20 196 -59c47 -40 70 -94 70 -163s-23 -123 -70 -162c-47 -40 -113 -60 -196 -60h-318v712h537v-157zM345 145c69 0 101 24 101 77c0 52 -32 76 -101 76h-83v-153h83z" />
    <glyph glyph-name="afii10019" unicode="&#x412;" horiz-adv-x="677" 
d="M648 200c0 -61 -24 -110 -71 -146s-113 -54 -196 -54h-312v712h302c172 0 259 -71 259 -184c0 -81 -37 -132 -118 -160v-2c89 -20 136 -78 136 -166zM262 290v-142h81c71 0 99 21 99 70c0 51 -31 72 -103 72h-77zM339 430c67 0 97 21 97 68c0 45 -28 67 -91 67h-83v-135
h77z" />
    <glyph glyph-name="afii10020" unicode="&#x413;" horiz-adv-x="530" 
d="M69 712h453v-168h-253v-544h-200v712z" />
    <glyph glyph-name="afii10021" unicode="&#x414;" horiz-adv-x="821" 
d="M144 349c10 79 17 200 20 363h563v-544h85v-328h-192v160h-417v-160h-192v328h90c19 41 33 102 43 181zM527 168v377h-176c-7 -163 -22 -289 -47 -377h223z" />
    <glyph glyph-name="afii10022" unicode="&#x415;" horiz-adv-x="635" 
d="M69 712h515v-165h-315v-107h293v-161h-293v-114h321v-165h-521v712z" />
    <glyph glyph-name="afii10024" unicode="&#x416;" horiz-adv-x="988" 
d="M985 0h-235l-156 341h-2v-341h-196v341h-2l-155 -341h-236l213 371l-204 341h231l151 -315h2v315h196v-315h2l151 315h231l-203 -341z" />
    <glyph glyph-name="afii10025" unicode="&#x417;" horiz-adv-x="669" 
d="M639 197c0 -136 -112 -213 -301 -213c-207 0 -323 88 -323 253h216c0 -64 38 -96 107 -96c55 0 91 26 91 67c0 48 -39 74 -111 74h-42v151h42c65 0 104 28 104 72c0 41 -34 66 -90 66c-61 0 -96 -33 -96 -92h-210c0 155 118 248 307 248c91 0 163 -18 216 -53
c53 -36 80 -86 80 -151c0 -76 -37 -123 -125 -152v-2c93 -31 135 -84 135 -172z" />
    <glyph glyph-name="afii10026" unicode="&#x418;" horiz-adv-x="827" 
d="M260 712v-258c0 -108 -3 -205 -8 -291h2c30 89 64 181 102 276l111 273h290v-712h-191v258c0 91 3 188 8 291h-2c-29 -90 -63 -182 -102 -276l-110 -273h-291v712h191z" />
    <glyph glyph-name="afii10027" unicode="&#x419;" horiz-adv-x="827" 
d="M757 0h-191v258c0 91 3 188 8 291h-2c-29 -90 -63 -182 -102 -276l-110 -273h-291v712h191v-258c0 -108 -3 -205 -8 -291h2c30 89 64 181 102 276l111 273h290v-712zM331 916c2 -34 23 -51 64 -51s62 17 64 51h117c-4 -100 -69 -157 -181 -157s-177 57 -181 157h117z" />
    <glyph glyph-name="afii10028" unicode="&#x41a;" horiz-adv-x="716" 
d="M69 0v712h200v-300h2l186 300h241l-247 -336l262 -376h-250l-192 319h-2v-319h-200z" />
    <glyph glyph-name="afii10029" unicode="&#x41b;" horiz-adv-x="754" 
d="M10 0v160c7 -1 13 -2 18 -2c29 0 51 14 66 41s27 80 36 158c8 77 14 196 19 355h536v-712h-200v545h-149c-7 -154 -20 -270 -39 -349c-20 -79 -47 -133 -81 -161c-35 -29 -82 -43 -142 -43c-23 0 -44 3 -64 8z" />
    <glyph glyph-name="afii10030" unicode="&#x41c;" horiz-adv-x="1042" 
d="M973 0h-186v341c0 87 2 174 6 261h-2c-20 -96 -40 -182 -60 -258l-89 -344h-242l-89 344c-20 76 -40 162 -60 258h-2c4 -87 6 -174 6 -261v-341h-186v712h318l79 -306c23 -84 41 -171 54 -262h2c12 81 30 169 54 262l79 306h318v-712z" />
    <glyph glyph-name="afii10031" unicode="&#x41d;" horiz-adv-x="771" 
d="M269 712v-262h233v262h200v-712h-200v282h-233v-282h-200v712h200z" />
    <glyph glyph-name="afii10032" unicode="&#x41e;" horiz-adv-x="767" 
d="M736 356c0 -227 -137 -372 -353 -372c-215 0 -352 145 -352 372s137 372 352 372c216 0 353 -145 353 -372zM241 356c0 -129 51 -202 142 -202c92 0 143 73 143 202s-51 202 -143 202c-91 0 -142 -73 -142 -202z" />
    <glyph glyph-name="afii10033" unicode="&#x41f;" horiz-adv-x="761" 
d="M69 712h623v-712h-200v544h-223v-544h-200v712z" />
    <glyph glyph-name="afii10034" unicode="&#x420;" horiz-adv-x="673" 
d="M370 712c187 0 283 -91 283 -243s-96 -244 -283 -244h-101v-225h-200v712h301zM342 382c70 0 105 29 105 87c0 57 -35 86 -105 86h-73v-173h73z" />
    <glyph glyph-name="afii10035" unicode="&#x421;" horiz-adv-x="730" 
d="M696 447h-210c-8 71 -48 111 -115 111c-80 0 -131 -77 -131 -202c0 -124 51 -202 131 -202c65 0 109 44 116 117h213c-7 -92 -40 -163 -98 -212c-59 -50 -136 -75 -231 -75c-210 0 -340 142 -340 372s130 372 340 372c192 0 317 -106 325 -281z" />
    <glyph glyph-name="afii10036" unicode="&#x422;" horiz-adv-x="638" 
d="M8 712h622v-168h-211v-544h-200v544h-211v168z" />
    <glyph glyph-name="afii10037" unicode="&#x423;" horiz-adv-x="716" 
d="M716 712l-273 -568c-55 -113 -127 -154 -227 -154c-40 0 -72 3 -96 10v162c15 -5 32 -7 49 -7c44 0 69 18 69 54c0 11 -3 23 -8 36s-21 45 -46 96l-184 371h218l73 -178c23 -53 45 -110 67 -173h2c22 63 44 121 66 174l72 177h218z" />
    <glyph glyph-name="afii10038" unicode="&#x424;" horiz-adv-x="898" 
d="M867 356c0 -185 -113 -293 -322 -308v-74h-192v74c-209 15 -322 123 -322 308s113 293 322 308v74h192v-74c209 -15 322 -123 322 -308zM360 201v310c-84 -14 -126 -66 -126 -155c0 -90 42 -142 126 -155zM664 356c0 89 -42 141 -126 155v-310c84 13 126 65 126 155z" />
    <glyph glyph-name="afii10039" unicode="&#x425;" horiz-adv-x="709" 
d="M220 369l-205 343h230l108 -229h2l109 229h230l-205 -343l219 -369h-235l-118 239h-2l-117 -239h-236z" />
    <glyph glyph-name="afii10040" unicode="&#x426;" horiz-adv-x="789" 
d="M69 0v712h201v-544h221v544h201v-544h85v-328h-192v160h-516z" />
    <glyph glyph-name="afii10041" unicode="&#x427;" horiz-adv-x="714" 
d="M29 712h200v-217c0 -64 37 -99 108 -99c41 0 77 5 108 14v302h200v-712h-200v247c-49 -13 -104 -19 -163 -19c-164 0 -253 81 -253 229v255z" />
    <glyph glyph-name="afii10042" unicode="&#x428;" horiz-adv-x="1059" 
d="M270 712v-544h159v544h201v-544h159v544h201v-712h-921v712h201z" />
    <glyph glyph-name="afii10043" unicode="&#x429;" horiz-adv-x="1084" 
d="M270 712v-544h159v544h201v-544h159v544h201v-544h85v-328h-192v160h-814v712h201z" />
    <glyph glyph-name="afii10044" unicode="&#x42a;" horiz-adv-x="793" 
d="M8 544v168h381v-225h101c187 0 283 -92 283 -244s-96 -243 -283 -243h-301v544h-181zM389 157h73c70 0 105 29 105 86c0 58 -35 87 -105 87h-73v-173z" />
    <glyph glyph-name="afii10045" unicode="&#x42b;" horiz-adv-x="1011" 
d="M69 712h200v-225h101c187 0 283 -92 283 -244s-96 -243 -283 -243h-301v712zM942 0h-200v712h200v-712zM269 330v-173h73c70 0 105 29 105 86c0 58 -35 87 -105 87h-73z" />
    <glyph glyph-name="afii10046" unicode="&#x42c;" horiz-adv-x="673" 
d="M69 712h200v-225h101c187 0 283 -92 283 -244s-96 -243 -283 -243h-301v712zM269 157h73c70 0 105 29 105 86c0 58 -35 87 -105 87h-73v-173z" />
    <glyph glyph-name="afii10047" unicode="&#x42d;" horiz-adv-x="744" 
d="M713 356c0 -230 -133 -372 -349 -372c-96 0 -174 24 -233 73s-93 118 -101 207h207c9 -73 56 -117 127 -117c69 0 118 49 137 132h-207v155h207c-19 83 -68 131 -137 131c-72 0 -115 -40 -126 -111h-204c8 171 135 274 330 274c216 0 349 -142 349 -372z" />
    <glyph glyph-name="afii10048" unicode="&#x42e;" horiz-adv-x="1073" 
d="M1042 354c0 -225 -131 -370 -336 -370c-89 0 -163 26 -221 77c-59 51 -95 121 -110 211h-106v-272h-200v712h200v-272h106c15 90 51 161 110 212c58 51 132 76 221 76c205 0 336 -145 336 -374zM577 356c0 -129 46 -202 129 -202s129 72 129 200c0 131 -46 204 -129 204
s-129 -73 -129 -202z" />
    <glyph glyph-name="afii10049" unicode="&#x42f;" horiz-adv-x="697" 
d="M34 481c0 151 93 231 277 231h316v-712h-199v239h-109l-109 -239h-212l140 278c-69 39 -104 107 -104 203zM229 474c0 -60 34 -90 101 -90h98v178h-93c-71 0 -106 -29 -106 -88z" />
    <glyph glyph-name="afii10065" unicode="&#x430;" horiz-adv-x="576" 
d="M543 0h-173c-5 19 -8 41 -8 64h-2c-40 -52 -95 -78 -165 -78c-54 0 -97 15 -129 45s-48 68 -48 114c0 92 59 143 207 166c36 6 75 10 117 13v18c0 47 -20 70 -60 70c-37 0 -59 -22 -60 -65h-183c3 51 25 94 65 127s100 50 180 50c164 0 243 -74 243 -211v-165
c0 -63 5 -112 16 -148zM206 158c0 -32 20 -53 56 -53c23 0 45 8 58 24c17 19 22 40 22 80v19c-33 -3 -59 -7 -78 -11c-41 -9 -58 -27 -58 -59z" />
    <glyph glyph-name="afii10066" unicode="&#x431;" horiz-adv-x="613" 
d="M555 577c-36 -9 -90 -15 -163 -18c-166 -7 -206 -45 -220 -150h2c30 53 87 80 171 80c73 0 132 -21 176 -63c43 -43 65 -100 65 -173c0 -164 -109 -269 -279 -269c-181 0 -279 105 -279 305c3 311 100 400 326 416c88 5 155 12 201 23v-151zM227 242
c0 -77 27 -121 78 -121s78 43 78 119c0 77 -27 121 -78 121c-52 0 -78 -43 -78 -119z" />
    <glyph glyph-name="afii10067" unicode="&#x432;" horiz-adv-x="588" 
d="M560 143c0 -92 -80 -143 -221 -143h-285v508h279c141 0 211 -45 211 -138c0 -57 -29 -89 -96 -108v-2c69 -12 112 -56 112 -117zM236 207v-97h55c51 0 77 16 77 49c0 32 -26 48 -77 48h-55zM236 398v-91h57c44 0 66 15 66 45c0 31 -22 46 -66 46h-57z" />
    <glyph glyph-name="afii10068" unicode="&#x433;" horiz-adv-x="462" 
d="M54 0v508h401v-137h-209v-371h-192z" />
    <glyph glyph-name="afii10069" unicode="&#x434;" horiz-adv-x="697" 
d="M107 259c10 53 18 136 24 249h491v-371h67v-297h-189v160h-303v-160h-189v297h58c17 29 31 69 41 122zM433 137v234h-124c-7 -99 -18 -177 -34 -234h158z" />
    <glyph glyph-name="afii10070" unicode="&#x435;" horiz-adv-x="594" 
d="M569 215h-355c4 -79 34 -107 83 -107c39 0 65 20 69 49h196c-22 -99 -126 -173 -263 -173c-175 0 -274 117 -274 273c0 152 101 267 271 267c123 0 211 -57 251 -157c16 -40 22 -83 22 -152zM215 316h161c-5 61 -35 88 -80 88s-72 -29 -81 -88z" />
    <glyph glyph-name="afii10072" unicode="&#x436;" horiz-adv-x="829" 
d="M840 0h-223l-108 244h-2v-244h-185v244h-2l-107 -244h-224l167 268l-151 240h215l100 -216h2v216h185v-216h2l100 216h215l-151 -240z" />
    <glyph glyph-name="afii10073" unicode="&#x437;" horiz-adv-x="549" 
d="M521 142c0 -103 -86 -158 -245 -158c-163 0 -256 66 -256 191h180c0 -41 25 -62 75 -62c40 0 66 16 66 44c0 30 -24 45 -72 45h-50v109h50c41 0 64 16 64 43s-22 42 -61 42c-47 0 -71 -22 -71 -61h-171c0 59 22 105 67 139c44 33 103 50 178 50c71 0 127 -13 170 -39
s64 -63 64 -111c0 -55 -25 -86 -85 -107v-2c67 -23 97 -60 97 -123z" />
    <glyph glyph-name="afii10074" unicode="&#x438;" horiz-adv-x="704" 
d="M54 0v508h182v-171c0 -67 -4 -135 -12 -202h2c17 63 39 125 65 186l82 187h277v-508h-183v172c0 57 4 124 12 201h-2c-18 -63 -40 -125 -65 -186l-83 -187h-275z" />
    <glyph glyph-name="afii10075" unicode="&#x439;" horiz-adv-x="704" 
d="M650 0h-183v172c0 57 4 124 12 201h-2c-18 -63 -40 -125 -65 -186l-83 -187h-275v508h182v-171c0 -67 -4 -135 -12 -202h2c17 63 39 125 65 186l82 187h277v-508zM172 712h117c2 -34 23 -51 64 -51s62 17 64 51h117c-4 -100 -69 -157 -181 -157s-177 57 -181 157z" />
    <glyph glyph-name="afii10076" unicode="&#x43a;" horiz-adv-x="595" 
d="M54 0v508h192v-194h2l107 194h227l-170 -240l187 -268h-235l-116 222h-2v-222h-192z" />
    <glyph glyph-name="afii10077" unicode="&#x43b;" horiz-adv-x="615" 
d="M7 0v134c7 -1 13 -2 19 -2c64 5 82 53 90 376h445v-508h-192v371h-91c-13 -316 -69 -376 -209 -379c-23 0 -44 3 -62 8z" />
    <glyph glyph-name="afii10078" unicode="&#x43c;" horiz-adv-x="861" 
d="M807 0h-168v219c0 53 2 113 5 178h-2c-9 -46 -23 -105 -41 -176l-57 -221h-227l-57 221c-9 35 -23 94 -41 176h-2c3 -65 5 -125 5 -178v-219h-168v508h287l53 -205c17 -62 29 -124 35 -186h2c9 65 21 127 36 186l53 205h287v-508z" />
    <glyph glyph-name="afii10079" unicode="&#x43d;" horiz-adv-x="630" 
d="M246 508v-181h138v181h192v-508h-192v189h-138v-189h-192v508h192z" />
    <glyph glyph-name="afii10080" unicode="&#x43e;" horiz-adv-x="618" 
d="M593 254c0 -165 -112 -270 -284 -270s-284 105 -284 270s112 270 284 270s284 -105 284 -270zM227 254c0 -80 30 -127 82 -127s82 47 82 127s-30 127 -82 127s-82 -47 -82 -127z" />
    <glyph glyph-name="afii10081" unicode="&#x43f;" horiz-adv-x="625" 
d="M54 508h517v-508h-192v371h-133v-371h-192v508z" />
    <glyph glyph-name="afii10082" unicode="&#x440;" horiz-adv-x="622" 
d="M571 112c-36 -81 -103 -127 -190 -127c-53 0 -104 22 -133 63h-2v-233h-192v693h184v-58h2c31 48 80 73 136 73c132 0 221 -106 221 -269c0 -54 -9 -101 -26 -142zM258 164c14 -23 33 -34 57 -34c49 0 81 48 81 124s-32 124 -81 124c-48 0 -79 -48 -79 -124
c0 -38 7 -68 22 -90z" />
    <glyph glyph-name="afii10083" unicode="&#x441;" horiz-adv-x="589" 
d="M488 44c-49 -40 -111 -60 -188 -60c-166 0 -275 105 -275 272c0 162 107 268 275 268c75 0 137 -19 186 -58c48 -39 75 -92 82 -158h-199c-4 47 -29 73 -66 73c-48 0 -76 -45 -76 -125c0 -84 28 -129 76 -129c39 0 65 30 66 82h199c-5 -70 -32 -125 -80 -165z" />
    <glyph glyph-name="afii10084" unicode="&#x442;" horiz-adv-x="500" 
d="M3 508h494v-137h-151v-371h-192v371h-151v137z" />
    <glyph glyph-name="afii10085" unicode="&#x443;" horiz-adv-x="557" 
d="M409 22c-52 -163 -112 -214 -245 -214c-40 0 -73 3 -100 10v138c15 -4 31 -6 47 -6c40 0 63 17 63 50c0 7 -2 17 -5 28s-12 37 -27 76l-154 404h208l45 -169c18 -69 34 -140 47 -211h2c10 64 24 135 41 212l39 168h196z" />
    <glyph glyph-name="afii10086" unicode="&#x444;" horiz-adv-x="863" 
d="M739 490c63 -44 99 -128 99 -236c0 -163 -83 -269 -212 -269c-39 0 -72 13 -101 38v-208h-187v208c-29 -25 -62 -38 -101 -38c-129 0 -212 106 -212 269s83 269 211 269c39 0 73 -13 102 -38v227h187v-227c29 25 63 38 102 38c43 0 80 -11 112 -33zM221 254
c0 -79 29 -127 78 -127c16 0 29 5 39 16v222c-10 11 -23 16 -39 16c-49 0 -78 -48 -78 -127zM564 127c48 0 78 48 78 127s-30 127 -78 127c-16 0 -29 -5 -39 -16v-222c10 -11 23 -16 39 -16z" />
    <glyph glyph-name="afii10087" unicode="&#x445;" horiz-adv-x="561" 
d="M159 261l-154 247h216l59 -140h2l59 140h215l-154 -247l165 -261h-215l-70 155h-2l-70 -155h-216z" />
    <glyph glyph-name="afii10088" unicode="&#x446;" horiz-adv-x="642" 
d="M54 0v508h192v-371h129v371h192v-371h67v-297h-192v160h-388z" />
    <glyph glyph-name="afii10089" unicode="&#x447;" horiz-adv-x="587" 
d="M23 508h192v-157c0 -40 21 -60 64 -60c22 0 43 3 62 9v208h192v-508h-192v169c-41 -11 -86 -16 -134 -16c-119 0 -184 58 -184 161v194z" />
    <glyph glyph-name="afii10090" unicode="&#x448;" horiz-adv-x="902" 
d="M246 508v-371h109v371h192v-371h109v371h192v-508h-794v508h192z" />
    <glyph glyph-name="afii10091" unicode="&#x449;" horiz-adv-x="923" 
d="M246 508v-371h109v371h192v-371h109v371h192v-371h67v-297h-192v160h-669v508h192z" />
    <glyph glyph-name="afii10092" unicode="&#x44a;" horiz-adv-x="674" 
d="M3 371v137h319v-145h93c151 0 234 -59 234 -182s-83 -181 -234 -181h-285v371h-127zM322 126h69c43 0 64 18 64 55s-21 56 -64 56h-69v-111z" />
    <glyph glyph-name="afii10093" unicode="&#x44b;" horiz-adv-x="875" 
d="M54 508h192v-145h93c151 0 234 -59 234 -182s-83 -181 -234 -181h-285v508zM821 0h-192v508h192v-508zM246 126h69c43 0 64 18 64 55s-21 56 -64 56h-69v-111z" />
    <glyph glyph-name="afii10094" unicode="&#x44c;" horiz-adv-x="597" 
d="M246 508v-145h93c151 0 234 -59 234 -182s-83 -181 -234 -181h-285v508h192zM315 126c43 0 64 18 64 55s-21 56 -64 56h-69v-111h69z" />
    <glyph glyph-name="afii10095" unicode="&#x44d;" horiz-adv-x="589" 
d="M564 256c0 -167 -109 -272 -276 -272c-77 0 -139 19 -187 57s-75 90 -80 155h182c1 -51 35 -82 82 -82s79 32 90 92h-144v106h143c-12 55 -43 85 -88 85s-77 -27 -84 -76h-181c6 62 33 111 82 148s111 55 186 55c168 0 275 -106 275 -268z" />
    <glyph glyph-name="afii10096" unicode="&#x44e;" horiz-adv-x="887" 
d="M862 254c0 -165 -109 -270 -278 -270c-145 0 -247 76 -272 203h-66v-187h-192v508h192v-183h66c28 124 128 199 272 199c169 0 278 -105 278 -270zM505 254c0 -80 28 -127 79 -127s79 47 79 127s-28 127 -79 127s-79 -47 -79 -127z" />
    <glyph glyph-name="afii10097" unicode="&#x44f;" horiz-adv-x="602" 
d="M29 335c0 115 78 173 234 173h285v-508h-191v149h-77l-73 -149h-207l106 185c-51 30 -77 80 -77 150zM218 327c0 -36 23 -55 78 -55h61v109h-59c-53 0 -80 -18 -80 -54z" />
    <glyph glyph-name="uni0450" unicode="&#x450;" horiz-adv-x="594" 
d="M569 215h-355c4 -79 34 -107 83 -107c39 0 65 20 69 49h196c-22 -99 -126 -173 -263 -173c-175 0 -274 117 -274 273c0 152 101 267 271 267c123 0 211 -57 251 -157c16 -40 22 -83 22 -152zM323 712l80 -150h-146l-142 150h208zM376 316c-5 61 -35 88 -80 88
s-72 -29 -81 -88h161z" />
    <glyph glyph-name="afii10071" unicode="&#x451;" horiz-adv-x="594" 
d="M569 215h-355c4 -79 34 -107 83 -107c39 0 65 20 69 49h196c-22 -99 -126 -173 -263 -173c-175 0 -274 117 -274 273c0 152 101 267 271 267c123 0 211 -57 251 -157c16 -40 22 -83 22 -152zM333 571v141h163v-141h-163zM259 712v-141h-162v141h162zM215 316h161
c-5 61 -35 88 -80 88s-72 -29 -81 -88z" />
    <glyph glyph-name="afii10099" unicode="&#x452;" horiz-adv-x="620" 
d="M571 14c0 -137 -79 -205 -200 -205c-35 0 -66 4 -92 11v132c7 -2 16 -3 25 -3c52 0 75 23 75 98v186c0 55 -21 85 -62 85c-47 0 -71 -40 -71 -119v-199h-192v530h-69v109h69v73h192v-73h217v-109h-217v-124h2c33 40 78 60 135 60c117 0 188 -74 188 -209v-243z" />
    <glyph glyph-name="afii10100" unicode="&#x453;" horiz-adv-x="462" 
d="M455 508v-137h-209v-371h-192v508h401zM148 562l80 150h208l-142 -150h-146z" />
    <glyph glyph-name="afii10101" unicode="&#x454;" horiz-adv-x="589" 
d="M488 41c-49 -38 -111 -57 -188 -57c-166 0 -275 105 -275 272c0 162 107 268 275 268c75 0 137 -18 186 -55c48 -37 75 -86 82 -148h-182c-5 49 -38 76 -83 76s-76 -30 -88 -85h143v-106h-144c9 -60 42 -92 89 -92c48 0 82 31 83 82h182c-5 -65 -32 -117 -80 -155z" />
    <glyph glyph-name="afii10102" unicode="&#x455;" horiz-adv-x="559" 
d="M532 150c0 -101 -91 -166 -247 -166c-173 0 -259 60 -259 181h192c0 -43 21 -63 68 -63c36 0 54 12 54 35c-5 32 -19 36 -117 62c-77 20 -124 36 -158 79c-17 21 -26 50 -26 85c0 97 82 161 239 161c149 0 236 -56 236 -168h-182c0 37 -19 56 -57 56
c-31 0 -47 -11 -47 -34c3 -26 13 -31 99 -54c85 -23 139 -41 177 -86c19 -23 28 -52 28 -88z" />
    <glyph glyph-name="afii10103" unicode="&#x456;" horiz-adv-x="300" 
d="M54 0v508h192v-508h-192zM54 571v141h192v-141h-192z" />
    <glyph glyph-name="afii10104" unicode="&#x457;" horiz-adv-x="300" 
d="M54 508h192v-508h-192v508zM173 712h143v-141h-143v141zM-15 712h142v-141h-142v141z" />
    <glyph glyph-name="afii10105" unicode="&#x458;" horiz-adv-x="300" 
d="M-46 -48c7 -2 16 -3 25 -3c52 0 75 23 75 98v461h192v-494c0 -137 -79 -205 -200 -205c-35 0 -66 4 -92 11v132zM54 571v141h192v-141h-192z" />
    <glyph glyph-name="afii10106" unicode="&#x459;" horiz-adv-x="912" 
d="M827 45c-41 -30 -99 -45 -174 -45h-284v371h-91c-13 -316 -69 -376 -209 -379c-23 0 -44 3 -62 8v134c7 -1 13 -2 19 -2c64 5 82 53 90 376h445v-145h92c151 0 235 -59 235 -182c0 -61 -20 -107 -61 -136zM561 237v-111h69c43 0 64 18 64 55s-21 56 -64 56h-69z" />
    <glyph glyph-name="afii10107" unicode="&#x45a;" horiz-adv-x="924" 
d="M840 45c-41 -30 -99 -45 -174 -45h-285v189h-135v-189h-192v508h192v-181h135v181h192v-145h93c151 0 234 -59 234 -182c0 -61 -20 -107 -60 -136zM573 126h69c43 0 64 18 64 55s-21 56 -64 56h-69v-111z" />
    <glyph glyph-name="afii10108" unicode="&#x45b;" horiz-adv-x="620" 
d="M571 0h-192v233c0 55 -21 85 -62 85c-47 0 -71 -40 -71 -119v-199h-192v530h-69v109h69v73h192v-73h217v-109h-217v-124h2c33 40 78 60 135 60c117 0 188 -74 188 -209v-257z" />
    <glyph glyph-name="afii10109" unicode="&#x45c;" horiz-adv-x="595" 
d="M246 0h-192v508h192v-194h2l107 194h227l-170 -240l187 -268h-235l-116 222h-2v-222zM275 712h208l-142 -150h-146z" />
    <glyph glyph-name="uni045D" unicode="&#x45d;" horiz-adv-x="704" 
d="M650 0h-183v172c0 57 4 124 12 201h-2c-18 -63 -40 -125 -65 -186l-83 -187h-275v508h182v-171c0 -67 -4 -135 -12 -202h2c17 63 39 125 65 186l82 187h277v-508zM379 712l80 -150h-146l-142 150h208z" />
    <glyph glyph-name="afii10110" unicode="&#x45e;" horiz-adv-x="557" 
d="M-12 508h208l45 -169c18 -69 34 -140 47 -211h2c10 64 24 135 41 212l39 168h196l-157 -486c-52 -163 -112 -214 -245 -214c-40 0 -73 3 -100 10v138c15 -4 31 -6 47 -6c40 0 63 17 63 50c0 7 -2 17 -5 28s-12 37 -27 76zM413 596c-31 -27 -75 -41 -131 -41
c-112 0 -177 57 -181 157h117c2 -34 23 -51 64 -51s62 17 64 51h117c-2 -50 -19 -89 -50 -116z" />
    <glyph glyph-name="afii10193" unicode="&#x45f;" horiz-adv-x="625" 
d="M54 508h192v-371h133v371h192v-508h-164v-160h-192v160h-161v508z" />
    <glyph glyph-name="afii10050" unicode="&#x490;" horiz-adv-x="530" 
d="M69 0v712h261v129h192v-297h-253v-544h-200z" />
    <glyph glyph-name="afii10098" unicode="&#x491;" horiz-adv-x="462" 
d="M54 0v508h226v160h175v-297h-209v-371h-192z" />
    <glyph glyph-name="uni0492" unicode="&#x492;" horiz-adv-x="533" 
d="M73 369v343h452v-168h-253v-175h123v-122h-123v-247h-199v247h-60v122h60z" />
    <glyph glyph-name="uni0493" unicode="&#x493;" horiz-adv-x="471" 
d="M62 269v239h401v-137h-209v-102h120v-106h-120v-163h-192v163h-51v106h51z" />
    <glyph glyph-name="uni0496" unicode="&#x496;" horiz-adv-x="988" 
d="M985 -160h-192v160h-43l-156 341h-2v-341h-196v341h-2l-155 -341h-236l213 371l-204 341h231l151 -315h2v315h196v-315h2l151 315h231l-203 -341l116 -203h96v-328z" />
    <glyph glyph-name="uni0497" unicode="&#x497;" horiz-adv-x="829" 
d="M840 -160h-192v160h-31l-108 244h-2v-244h-185v244h-2l-107 -244h-224l167 268l-151 240h215l100 -216h2v216h185v-216h2l100 216h215l-151 -240l82 -131h85v-297z" />
    <glyph glyph-name="uni049A" unicode="&#x49a;" horiz-adv-x="716" 
d="M269 0h-200v712h200v-300h2l186 300h241l-247 -336l145 -208h117v-328h-192v160h-58l-192 319h-2v-319z" />
    <glyph glyph-name="uni049B" unicode="&#x49b;" horiz-adv-x="595" 
d="M248 314l107 194h227l-170 -240l91 -131h96v-297h-192v160h-43l-116 222h-2v-222h-192v508h192v-194h2z" />
    <glyph glyph-name="uni049C" unicode="&#x49c;" horiz-adv-x="782" 
d="M569 373l210 -373h-235l-128 282h-3v-145h-103v145h-45v-282h-196v712h196v-262h45v146h103v-146h2l125 262h230z" />
    <glyph glyph-name="uni049D" unicode="&#x49d;" horiz-adv-x="669" 
d="M512 268l167 -268h-224l-88 200h-8v-103h-87v103h-33v-200h-185v508h185v-171h33v109h87v-109h10l79 171h215z" />
    <glyph glyph-name="uni04A2" unicode="&#x4a2;" horiz-adv-x="799" 
d="M69 712h200v-262h233v262h200v-544h85v-328h-192v160h-93v282h-233v-282h-200v712z" />
    <glyph glyph-name="uni04A3" unicode="&#x4a3;" horiz-adv-x="651" 
d="M54 0v508h192v-181h138v181h192v-371h67v-297h-192v160h-67v189h-138v-189h-192z" />
    <glyph glyph-name="uni04AE" unicode="&#x4ae;" horiz-adv-x="689" 
d="M0 712h220l56 -125c28 -63 50 -121 67 -176h2c18 57 41 115 68 176l56 125h219l-244 -452v-260h-200v260z" />
    <glyph glyph-name="uni04AF" unicode="&#x4af;" horiz-adv-x="555" 
d="M-9 508h207l39 -150c16 -59 29 -123 40 -190h2c12 73 25 137 39 190l40 150h206l-190 -526v-167h-192v167z" />
    <glyph glyph-name="uni04B2" unicode="&#x4b2;" horiz-adv-x="709" 
d="M708 -160h-192v160h-43l-118 239h-2l-117 -239h-236l220 369l-205 343h230l108 -229h2l109 229h230l-205 -343l119 -201h100v-328z" />
    <glyph glyph-name="uni04B3" unicode="&#x4b3;" horiz-adv-x="561" 
d="M567 -160h-192v160h-23l-70 155h-2l-70 -155h-216l165 261l-154 247h216l59 -140h2l59 140h215l-154 -247l78 -124h87v-297z" />
    <glyph glyph-name="uni04B8" unicode="&#x4b8;" horiz-adv-x="714" 
d="M645 0h-200v247c-19 -5 -37 -8 -55 -11v-123h-106v115h-2c-164 0 -253 81 -253 229v255h200v-217c0 -46 18 -76 55 -90v165h106v-171c25 4 44 8 55 11v302h200v-712z" />
    <glyph glyph-name="uni04B9" unicode="&#x4b9;" horiz-adv-x="607" 
d="M553 0h-185v173l-36 -9v-85h-87v75l-25 -1c-125 0 -197 63 -197 174v181h185v-144c0 -37 10 -59 37 -68v125h87v-126c13 2 25 5 36 9v204h185v-508z" />
    <glyph glyph-name="uni04BA" unicode="&#x4ba;" horiz-adv-x="714" 
d="M69 712h200v-247c49 13 104 19 163 19c164 0 253 -81 253 -229v-255h-199v217c0 64 -38 99 -109 99c-40 0 -76 -5 -108 -14v-302h-200v712z" />
    <glyph glyph-name="uni04BB" unicode="&#x4bb;" 
d="M54 712h192v-250h2c31 39 77 60 133 60c116 0 186 -74 186 -209v-313h-192v289c0 57 -20 85 -60 85c-46 0 -69 -40 -69 -119v-255h-192v712z" />
    <glyph glyph-name="uni04C0" unicode="&#x4c0;" horiz-adv-x="338" 
d="M269 712v-712h-200v712h200z" />
    <glyph glyph-name="uni04CF" unicode="&#x4cf;" horiz-adv-x="300" 
d="M246 712v-712h-192v712h192z" />
    <glyph glyph-name="uni04D8" unicode="&#x4d8;" horiz-adv-x="787" 
d="M756 358c2 -210 -141 -377 -365 -374c-220 0 -360 143 -360 370c0 27 1 46 4 59h512c-8 113 -71 161 -160 161c-68 0 -114 -35 -123 -84h-215c30 133 156 238 337 238c232 3 372 -153 370 -370zM241 277c12 -93 70 -140 150 -140c81 0 137 45 153 140h-303z" />
    <glyph glyph-name="afii10846" unicode="&#x4d9;" horiz-adv-x="594" 
d="M569 256c0 -155 -101 -272 -272 -272c-167 0 -272 106 -272 268c0 17 1 32 3 43h353c-4 77 -36 105 -85 105c-35 0 -58 -20 -62 -48h-196c22 98 123 172 256 172c175 0 275 -113 275 -268zM218 194c5 -61 36 -90 79 -90c47 0 74 30 83 90h-162z" />
    <glyph glyph-name="uni04E8" unicode="&#x4e8;" horiz-adv-x="767" 
d="M693 159c-57 -112 -167 -175 -310 -175c-215 0 -352 145 -352 372s137 372 352 372c216 0 353 -145 353 -372c0 -75 -14 -141 -43 -197zM285 182c25 -25 58 -38 98 -38c81 0 134 52 149 145h-298c8 -47 25 -82 51 -107zM533 424c-16 93 -69 144 -150 144
c-80 0 -132 -51 -148 -144h298z" />
    <glyph glyph-name="uni04E9" unicode="&#x4e9;" horiz-adv-x="618" 
d="M558 111c-47 -81 -134 -127 -249 -127c-172 0 -284 105 -284 270s112 270 284 270s284 -105 284 -270c0 -55 -12 -102 -35 -143zM245 137c17 -17 38 -26 64 -26c52 0 87 36 98 97h-196c5 -31 17 -54 34 -71zM407 300c-11 61 -46 97 -98 97s-87 -36 -98 -97h196z" />
    <glyph glyph-name="Wgrave" unicode="&#x1e80;" horiz-adv-x="1025" 
d="M880 0h-270l-54 287c-19 109 -33 199 -42 269h-2c-9 -78 -24 -168 -43 -269l-54 -287h-270l-139 712h194l43 -254c15 -89 29 -185 42 -288h2c12 94 28 190 47 288l50 254h257l50 -254c19 -93 35 -189 48 -288h2c11 96 25 192 41 288l44 254h193zM330 916h208l80 -156
h-146z" />
    <glyph glyph-name="wgrave" unicode="&#x1e81;" horiz-adv-x="886" 
d="M768 0h-254l-36 181c-13 63 -24 134 -34 211h-2c-10 -77 -21 -148 -34 -211l-36 -181h-254l-114 508h185l27 -177c11 -75 20 -146 26 -211h2c9 60 22 131 39 213l39 175h242l39 -175c17 -82 30 -153 39 -213h2c6 65 15 136 26 211l27 177h185zM261 712h208l80 -150h-146z
" />
    <glyph glyph-name="Wacute" unicode="&#x1e82;" horiz-adv-x="1025" 
d="M880 0h-270l-54 287c-19 109 -33 199 -42 269h-2c-9 -78 -24 -168 -43 -269l-54 -287h-270l-139 712h194l43 -254c15 -89 29 -185 42 -288h2c12 94 28 190 47 288l50 254h257l50 -254c19 -93 35 -189 48 -288h2c11 96 25 192 41 288l44 254h193zM486 916h208l-142 -156
h-146z" />
    <glyph glyph-name="wacute" unicode="&#x1e83;" horiz-adv-x="886" 
d="M768 0h-254l-36 181c-13 63 -24 134 -34 211h-2c-10 -77 -21 -148 -34 -211l-36 -181h-254l-114 508h185l27 -177c11 -75 20 -146 26 -211h2c9 60 22 131 39 213l39 175h242l39 -175c17 -82 30 -153 39 -213h2c6 65 15 136 26 211l27 177h185zM417 712h208l-142 -150
h-146z" />
    <glyph glyph-name="Wdieresis" unicode="&#x1e84;" horiz-adv-x="1025" 
d="M880 0h-270l-54 287c-19 109 -33 199 -42 269h-2c-9 -78 -24 -168 -43 -269l-54 -287h-270l-139 712h194l43 -254c15 -89 29 -185 42 -288h2c12 94 28 190 47 288l50 254h257l50 -254c19 -93 35 -189 48 -288h2c11 96 25 192 41 288l44 254h193zM712 910v-141h-163v141
h163zM313 769v141h162v-141h-162z" />
    <glyph glyph-name="wdieresis" unicode="&#x1e85;" horiz-adv-x="886" 
d="M768 0h-254l-36 181c-13 63 -24 134 -34 211h-2c-10 -77 -21 -148 -34 -211l-36 -181h-254l-114 508h185l27 -177c11 -75 20 -146 26 -211h2c9 60 22 131 39 213l39 175h242l39 -175c17 -82 30 -153 39 -213h2c6 65 15 136 26 211l27 177h185zM480 571v141h163v-141h-163
zM244 571v141h162v-141h-162z" />
    <glyph glyph-name="uni1E9E" unicode="&#x1e9e;" horiz-adv-x="827" 
d="M730 40c-47 -37 -111 -56 -192 -56c-157 0 -242 73 -242 221h171c0 -47 22 -70 66 -70c41 0 65 23 65 64c0 68 -62 102 -185 110v132l96 107c-23 15 -53 23 -90 23c-104 0 -160 -59 -160 -172v-399h-200v396c0 217 131 332 374 332c133 0 250 -56 321 -144l-142 -160
c125 -39 188 -114 188 -227c0 -68 -23 -120 -70 -157z" />
    <glyph glyph-name="Ygrave" unicode="&#x1ef2;" horiz-adv-x="689" 
d="M276 587c28 -63 50 -121 67 -176h2c18 57 41 115 68 176l56 125h219l-244 -452v-260h-200v260l-244 452h220zM163 916h208l80 -156h-146z" />
    <glyph glyph-name="ygrave" unicode="&#x1ef3;" horiz-adv-x="557" 
d="M409 22c-52 -163 -112 -214 -245 -214c-40 0 -73 3 -100 10v138c15 -4 31 -6 47 -6c40 0 63 17 63 50c0 7 -2 17 -5 28s-12 37 -27 76l-154 404h208l45 -169c18 -69 34 -140 47 -211h2c10 64 24 135 41 212l39 168h196zM100 712h208l80 -150h-146z" />
    <glyph glyph-name="uni2010" unicode="&#x2010;" horiz-adv-x="353" 
d="M323 359v-134h-293v134h293z" />
    <glyph glyph-name="endash" unicode="&#x2013;" horiz-adv-x="500" 
d="M480 359v-134h-460v134h460z" />
    <glyph glyph-name="emdash" unicode="&#x2014;" horiz-adv-x="1000" 
d="M980 359v-134h-960v134h960z" />
    <glyph glyph-name="afii00208" unicode="&#x2015;" horiz-adv-x="1000" 
d="M980 359v-134h-960v134h960z" />
    <glyph glyph-name="underscoredbl" unicode="&#x2017;" horiz-adv-x="500" 
d="M0 -315v97h500v-97h-500zM0 -147v97h500v-97h-500z" />
    <glyph glyph-name="quoteleft" unicode="&#x2018;" horiz-adv-x="277" 
d="M55 555l91 157h96l-72 -157h55v-170h-170v170z" />
    <glyph glyph-name="quoteright" unicode="&#x2019;" horiz-adv-x="277" 
d="M107 541h-55v171h170v-171l-91 -156h-96z" />
    <glyph glyph-name="quotesinglbase" unicode="&#x201a;" horiz-adv-x="277" 
d="M107 0h-55v171h170v-171l-91 -156h-96z" />
    <glyph glyph-name="quotereversed" unicode="&#x201b;" horiz-adv-x="277" 
d="M55 712h170v-171h-55l72 -156h-96l-91 156v171z" />
    <glyph glyph-name="quotedblleft" unicode="&#x201c;" horiz-adv-x="495" 
d="M364 712h96l-72 -157h55v-170h-170v170zM55 385v170l91 157h96l-72 -157h55v-170h-170z" />
    <glyph glyph-name="quotedblright" unicode="&#x201d;" horiz-adv-x="495" 
d="M253 385l72 156h-55v171h170v-171l-91 -156h-96zM107 541h-55v171h170v-171l-91 -156h-96z" />
    <glyph glyph-name="quotedblbase" unicode="&#x201e;" horiz-adv-x="495" 
d="M253 -156l72 156h-55v171h170v-171l-91 -156h-96zM107 0h-55v171h170v-171l-91 -156h-96z" />
    <glyph glyph-name="dagger" unicode="&#x2020;" horiz-adv-x="648" 
d="M60 556h167v156h194v-155h167v-166h-167v-511h-194v511h-167v165z" />
    <glyph glyph-name="daggerdbl" unicode="&#x2021;" horiz-adv-x="648" 
d="M588 397h-167v-202h167v-160h-167v-155h-194v155h-167v160h167v202h-167v160h167v155h194v-155h167v-160z" />
    <glyph glyph-name="bullet" unicode="&#x2022;" horiz-adv-x="419" 
d="M40 356c0 93 77 169 169 169c93 0 170 -76 170 -169s-77 -169 -170 -169c-92 0 -169 76 -169 169z" />
    <glyph glyph-name="ellipsis" unicode="&#x2026;" horiz-adv-x="989" 
d="M744 200h200v-200h-200v200zM394 200h200v-200h-200v200zM45 200h200v-200h-200v200z" />
    <glyph glyph-name="perthousand" unicode="&#x2030;" horiz-adv-x="1143" 
d="M72 648c27 31 67 47 118 47c103 0 160 -64 160 -183c0 -117 -57 -183 -160 -183s-160 66 -160 183c0 59 14 105 42 136zM835 25c-28 31 -42 76 -42 135c0 119 57 183 160 183s160 -64 160 -183c0 -117 -57 -183 -160 -183c-51 0 -91 16 -118 48zM441 160
c0 119 57 183 160 183s160 -64 160 -183c0 -117 -57 -183 -160 -183s-160 66 -160 183zM142 -30l384 734h119l-384 -734h-119zM149 512c0 -60 14 -90 41 -90s41 30 41 90s-14 90 -41 90s-41 -30 -41 -90zM953 70c27 0 41 30 41 90s-14 90 -41 90s-41 -30 -41 -90
s14 -90 41 -90zM601 70c27 0 40 30 40 90s-13 90 -40 90c-28 0 -41 -29 -41 -90c0 -60 14 -90 41 -90z" />
    <glyph glyph-name="minute" unicode="&#x2032;" horiz-adv-x="260" 
d="M30 425l31 249h169l-79 -249h-121z" />
    <glyph glyph-name="second" unicode="&#x2033;" horiz-adv-x="461" 
d="M238 425l31 249h169l-79 -249h-121zM30 425l31 249h169l-79 -249h-121z" />
    <glyph glyph-name="guilsinglleft" unicode="&#x2039;" horiz-adv-x="359" 
d="M41 254l114 200h163l-104 -200l104 -200h-163z" />
    <glyph glyph-name="guilsinglright" unicode="&#x203a;" horiz-adv-x="359" 
d="M145 255l-104 200h163l114 -200l-114 -200h-163z" />
    <glyph glyph-name="exclamdbl" unicode="&#x203c;" horiz-adv-x="651" 
d="M104 223l-30 489h220l-30 -489h-160zM357 712h220l-30 -489h-160zM567 161v-161h-200v161h200zM84 0v161h200v-161h-200z" />
    <glyph glyph-name="uni203D" unicode="&#x203d;" horiz-adv-x="592" 
d="M537 372c-15 -24 -42 -48 -82 -73c-34 -20 -56 -36 -67 -47s-17 -25 -17 -41h-162c-1 5 -1 13 -1 24c0 60 13 83 85 137c27 20 44 36 52 48c8 11 12 25 12 42c0 35 -23 57 -60 57c-49 0 -74 -27 -75 -87h-197c1 113 59 186 163 214l-4 66h218l-4 -64
c103 -25 161 -91 161 -186c0 -36 -7 -66 -22 -90zM390 161v-161h-200v161h200z" />
    <glyph glyph-name="uni203E" unicode="&#x203e;" horiz-adv-x="500" 
d="M500 890v-115h-500v115h500z" />
    <glyph glyph-name="fraction" unicode="&#x2044;" horiz-adv-x="150" 
d="M198 674h110l-356 -674h-110z" />
    <glyph glyph-name="uni2070" unicode="&#x2070;" horiz-adv-x="492" 
d="M83 384c-38 43 -57 103 -57 182c0 157 79 247 220 247s220 -90 220 -247s-79 -247 -220 -247c-71 0 -125 22 -163 65zM182 566c0 -88 21 -137 64 -137s64 49 64 137s-21 137 -64 137s-64 -49 -64 -137z" />
    <glyph glyph-name="uni2074" unicode="&#x2074;" horiz-adv-x="484" 
d="M386 802v-276h87v-112h-87v-84h-150v84h-225v117l179 271h196zM242 526v43c0 38 2 80 5 127h-1c-22 -39 -43 -74 -64 -105l-44 -65h104z" />
    <glyph glyph-name="uni2075" unicode="&#x2075;" horiz-adv-x="479" 
d="M417 680h-226l-6 -65h2c28 20 61 30 99 30c48 0 87 -14 118 -42s46 -64 46 -109c0 -53 -19 -96 -58 -127c-39 -32 -90 -48 -154 -48c-128 0 -208 57 -208 153h157c0 -28 21 -45 53 -45c36 0 56 20 56 59c0 37 -22 59 -55 59c-27 0 -44 -13 -53 -40l-150 9l27 288h352
v-122z" />
    <glyph glyph-name="uni2076" unicode="&#x2076;" horiz-adv-x="471" 
d="M422 401c-35 -52 -98 -82 -178 -82c-137 0 -218 84 -218 240c0 79 20 141 60 186c39 45 93 68 162 68c113 0 186 -55 194 -151h-155c-3 31 -19 46 -46 46c-37 0 -61 -35 -64 -108h2c27 24 63 36 109 36c47 0 86 -14 116 -41c29 -27 44 -63 44 -107c0 -33 -9 -62 -26 -87z
M208 443c9 -10 22 -15 37 -15c31 0 51 22 51 55s-20 55 -51 55s-52 -22 -52 -55c0 -17 5 -30 15 -40z" />
    <glyph glyph-name="uni2077" unicode="&#x2077;" horiz-adv-x="428" 
d="M11 802h406v-116c-72 -95 -125 -224 -152 -356h-166c15 65 37 128 66 190c29 61 62 113 98 156h-252v126z" />
    <glyph glyph-name="uni2078" unicode="&#x2078;" horiz-adv-x="472" 
d="M391 356c-37 -25 -88 -37 -155 -37c-133 0 -210 52 -210 141c0 57 41 103 102 114v2c-56 12 -90 52 -90 103c0 40 18 72 54 97s84 37 144 37s108 -12 144 -37s54 -57 54 -97c0 -51 -35 -91 -91 -103v-2c61 -11 103 -57 103 -114c0 -45 -18 -79 -55 -104zM195 438
c10 -8 24 -12 41 -12c35 0 55 17 55 46c0 28 -20 45 -55 45s-56 -17 -56 -45c0 -15 5 -26 15 -34zM196 633c10 -8 23 -12 40 -12c33 0 54 17 54 44s-21 43 -54 43s-55 -16 -55 -43c0 -13 5 -24 15 -32z" />
    <glyph glyph-name="uni2079" unicode="&#x2079;" horiz-adv-x="471" 
d="M445 573c0 -79 -20 -141 -59 -186c-40 -45 -94 -68 -163 -68c-112 0 -186 55 -194 151h155c4 -31 19 -46 46 -46c37 0 61 35 64 108h-2c-27 -24 -63 -36 -109 -36c-47 0 -86 14 -115 41c-30 27 -45 63 -45 107c0 99 85 169 204 169c137 0 218 -84 218 -240zM175 649
c0 -33 20 -55 52 -55c31 0 51 22 51 55s-20 55 -51 55s-52 -22 -52 -55z" />
    <glyph glyph-name="uni207A" unicode="&#x207a;" horiz-adv-x="411" 
d="M38 611h107v104h122v-104h106v-117h-106v-105h-122v105h-107v117z" />
    <glyph glyph-name="uni207B" unicode="&#x207b;" horiz-adv-x="411" 
d="M373 611v-117h-335v117h335z" />
    <glyph glyph-name="uni207C" unicode="&#x207c;" horiz-adv-x="411" 
d="M38 418v107h335v-107h-335zM38 578v107h335v-107h-335z" />
    <glyph glyph-name="uni207D" unicode="&#x207d;" horiz-adv-x="276" 
d="M28 538c0 112 31 208 107 311h120c-51 -113 -71 -208 -71 -311s20 -195 71 -311h-120c-76 104 -107 199 -107 311z" />
    <glyph glyph-name="uni207E" unicode="&#x207e;" horiz-adv-x="276" 
d="M141 849c76 -104 107 -200 107 -311c0 -112 -31 -208 -107 -311h-120c49 112 70 207 70 311c0 103 -21 196 -70 311h120z" />
    <glyph glyph-name="uni2080" unicode="&#x2080;" horiz-adv-x="492" 
d="M83 -119c-38 43 -57 104 -57 183c0 157 79 247 220 247s220 -90 220 -247s-79 -247 -220 -247c-71 0 -125 21 -163 64zM182 64c0 -88 21 -137 64 -137s64 49 64 137s-21 137 -64 137s-64 -49 -64 -137z" />
    <glyph glyph-name="uni2081" unicode="&#x2081;" horiz-adv-x="343" 
d="M10 215c88 0 129 25 138 85h140v-472h-157v275h-121v112z" />
    <glyph glyph-name="uni2082" unicode="&#x2082;" horiz-adv-x="484" 
d="M456 -172h-425c-1 5 -1 16 -1 33c0 53 10 96 31 129c21 34 57 62 109 85c83 37 115 56 115 88c0 23 -15 37 -42 37c-31 0 -52 -21 -52 -60h-155c0 109 75 171 206 171c124 0 201 -65 201 -150c0 -75 -48 -117 -133 -148c-39 -15 -64 -26 -77 -35s-21 -18 -23 -29h246
v-121z" />
    <glyph glyph-name="uni2083" unicode="&#x2083;" horiz-adv-x="476" 
d="M447 -35c0 -91 -82 -148 -207 -148c-143 0 -220 60 -220 173h158c0 -43 20 -65 61 -65c32 0 52 16 52 41c0 31 -22 46 -71 46h-12v108h18c37 0 62 17 62 42s-18 41 -50 41c-37 0 -58 -23 -58 -62h-153c0 107 78 170 210 170c125 0 204 -52 204 -135
c0 -51 -25 -81 -84 -102v-2c63 -20 90 -52 90 -107z" />
    <glyph glyph-name="uni2084" unicode="&#x2084;" horiz-adv-x="484" 
d="M385 300v-276h87v-112h-87v-84h-150v84h-225v117l179 271h196zM241 24v43c0 38 2 80 5 127h-1c-22 -39 -43 -74 -64 -105l-44 -65h104z" />
    <glyph glyph-name="uni2085" unicode="&#x2085;" horiz-adv-x="479" 
d="M417 178h-226l-6 -65h2c28 20 61 30 99 30c48 0 87 -14 118 -42s46 -64 46 -109c0 -53 -19 -96 -58 -128c-39 -31 -90 -47 -154 -47c-128 0 -208 57 -208 153h157c0 -28 21 -45 53 -45c36 0 56 20 56 59c0 37 -22 59 -55 59c-27 0 -44 -13 -53 -40l-150 9l27 288h352
v-122z" />
    <glyph glyph-name="uni2086" unicode="&#x2086;" horiz-adv-x="471" 
d="M422 -102c-35 -51 -98 -81 -178 -81c-137 0 -218 84 -218 240c0 79 20 141 60 186c39 45 93 68 162 68c113 0 186 -55 194 -151h-155c-3 31 -19 46 -46 46c-37 0 -61 -35 -64 -108h2c27 24 63 36 109 36c47 0 86 -14 116 -41c29 -27 44 -63 44 -107c0 -33 -9 -62 -26 -88
zM208 -59c9 -10 22 -15 37 -15c31 0 51 22 51 55s-20 55 -51 55s-52 -22 -52 -55c0 -17 5 -30 15 -40z" />
    <glyph glyph-name="uni2087" unicode="&#x2087;" horiz-adv-x="428" 
d="M10 300h406v-116c-72 -95 -125 -224 -152 -356h-166c15 65 37 128 66 190c29 61 62 113 98 156h-252v126z" />
    <glyph glyph-name="uni2088" unicode="&#x2088;" horiz-adv-x="472" 
d="M391 -146c-37 -25 -88 -37 -155 -37c-133 0 -210 52 -210 141c0 57 41 103 102 114v2c-56 12 -90 52 -90 103c0 40 18 72 54 97s84 37 144 37s108 -12 144 -37s54 -57 54 -97c0 -51 -35 -91 -91 -103v-2c61 -11 103 -57 103 -114c0 -45 -18 -79 -55 -104zM195 -64
c10 -8 24 -12 41 -12c35 0 55 17 55 46c0 28 -20 45 -55 45s-56 -17 -56 -45c0 -15 5 -26 15 -34zM196 131c10 -8 23 -12 40 -12c33 0 54 17 54 44s-21 43 -54 43s-55 -16 -55 -43c0 -13 5 -24 15 -32z" />
    <glyph glyph-name="uni2089" unicode="&#x2089;" horiz-adv-x="471" 
d="M445 71c0 -79 -20 -141 -59 -186c-40 -45 -94 -68 -163 -68c-112 0 -186 55 -194 151h155c4 -31 19 -46 46 -46c37 0 61 35 64 108h-2c-27 -24 -63 -36 -109 -36c-47 0 -86 14 -115 41c-30 27 -45 63 -45 107c0 99 85 169 204 169c137 0 218 -84 218 -240zM175 147
c0 -33 20 -55 52 -55c31 0 51 22 51 55s-20 55 -51 55s-52 -22 -52 -55z" />
    <glyph glyph-name="uni208A" unicode="&#x208a;" horiz-adv-x="411" 
d="M38 109h107v104h122v-104h106v-117h-106v-105h-122v105h-107v117z" />
    <glyph glyph-name="uni208B" unicode="&#x208b;" horiz-adv-x="411" 
d="M373 109v-117h-335v117h335z" />
    <glyph glyph-name="uni208C" unicode="&#x208c;" horiz-adv-x="411" 
d="M38 -84v107h335v-107h-335zM38 76v107h335v-107h-335z" />
    <glyph glyph-name="uni208D" unicode="&#x208d;" horiz-adv-x="276" 
d="M28 36c0 112 31 208 107 311h120c-51 -113 -71 -208 -71 -311s20 -195 71 -311h-120c-76 104 -107 199 -107 311z" />
    <glyph glyph-name="uni208E" unicode="&#x208e;" horiz-adv-x="276" 
d="M141 347c76 -104 107 -200 107 -311c0 -112 -31 -208 -107 -311h-120c49 112 70 207 70 311c0 103 -21 196 -70 311h120z" />
    <glyph glyph-name="uni2099" unicode="&#x2099;" horiz-adv-x="453" 
d="M38 -172v356h140v-39h2c26 33 61 49 105 49c84 0 134 -52 134 -147v-219h-152v200c0 32 -11 51 -35 51c-29 0 -43 -23 -43 -78v-173h-151z" />
    <glyph glyph-name="franc" unicode="&#x20a3;" horiz-adv-x="656" 
d="M600 511h-304v-86h284v-162h-284v-66h164v-129h-164v-68h-200v68h-73v129h73v477h504v-163z" />
    <glyph glyph-name="lira" unicode="&#x20a4;" horiz-adv-x="656" 
d="M589 583c20 -35 30 -75 30 -121h-185c0 49 -22 76 -63 76c-49 0 -71 -32 -71 -104v-18h130v-77h-130v-36h130v-77h-134c-7 -32 -24 -55 -49 -69v-2h368v-155h-592v155c48 0 74 19 83 71h-83v77h86v36h-86v77h86v18c0 163 97 256 262 256c99 0 177 -39 218 -107z" />
    <glyph glyph-name="peseta" unicode="&#x20a7;" horiz-adv-x="978" 
d="M953 4c-24 -8 -64 -13 -93 -13c-139 0 -198 52 -198 173v207h-39c-23 -116 -117 -184 -276 -184h-78v-187h-200v674h278c152 0 243 -61 272 -166h43v142h192v-142h94v-137h-94v-155c0 -55 18 -75 63 -75c14 0 26 2 36 5v-142zM269 344h50c70 0 105 29 105 87
c0 57 -35 86 -105 86h-50v-173z" />
    <glyph glyph-name="Euro" unicode="&#x20ac;" horiz-adv-x="656" 
d="M639 457h-193c-9 48 -39 75 -88 75c-55 0 -90 -35 -105 -104h199l-14 -77h-194v-36h187l-14 -77h-163c17 -64 52 -96 105 -96c49 0 81 27 88 75h196c-16 -148 -121 -233 -281 -233s-268 93 -297 254h-64l15 77h40v36h-55l15 77h47c28 167 136 262 300 262
c163 0 265 -88 276 -233z" />
    <glyph glyph-name="uni20B9" unicode="&#x20b9;" horiz-adv-x="656" 
d="M594 424h-81c-13 -68 -69 -111 -157 -130v-2c43 -16 74 -50 109 -119l84 -173h-229l-73 163c-28 63 -64 89 -116 89h-14v119h54c59 0 101 20 121 53h-257l27 99h233c-18 35 -58 52 -119 52h-141l27 99h560l-28 -99h-134v-2c21 -11 37 -27 47 -50h115z" />
    <glyph glyph-name="uni20BA" unicode="&#x20ba;" horiz-adv-x="656" 
d="M543 75c-62 -57 -150 -86 -264 -86c-62 0 -123 4 -184 11v228l-82 -45v99l82 45v52l-82 -45v99l82 45v196h202v-104l157 86v-99l-157 -86v-51l157 86v-99l-157 -86v-163c84 0 130 58 130 169h209c0 -111 -31 -195 -93 -252z" />
    <glyph glyph-name="uni20BC" unicode="&#x20bc;" horiz-adv-x="801" 
d="M770 0h-177v293c0 113 -29 160 -104 168v-461h-177v461c-73 -8 -103 -56 -103 -168v-293h-178v305c0 199 97 303 281 318v89h177v-89c187 -14 281 -120 281 -318v-305z" />
    <glyph glyph-name="uni20BD" unicode="&#x20bd;" horiz-adv-x="656" 
d="M562 311c-44 -37 -109 -56 -196 -56h-84v-47h169v-120h-169v-88h-199v88h-67v120h67v47h-67v132h67v287h283c173 0 262 -77 262 -209c0 -66 -22 -117 -66 -154zM337 387c57 0 85 29 85 78c0 51 -28 77 -85 77h-55v-155h55z" />
    <glyph glyph-name="afii61248" unicode="&#x2105;" horiz-adv-x="983" 
d="M556 173c0 58 19 104 56 138s88 51 151 51s114 -17 151 -51s56 -80 56 -138s-19 -104 -56 -138s-88 -51 -151 -51s-114 17 -151 51s-56 80 -56 138zM72 640c37 33 86 50 148 50c113 0 191 -59 199 -155h-156c-3 29 -19 44 -40 44c-31 0 -46 -25 -46 -76
c0 -53 16 -80 47 -80c23 0 39 18 40 49h155c-7 -100 -83 -160 -199 -160c-62 0 -111 17 -148 52c-37 34 -55 80 -55 139c0 57 18 103 55 137zM609 674h110l-356 -674h-110zM763 250c-33 0 -51 -28 -51 -77c0 -51 18 -78 51 -78s51 27 51 78c0 49 -18 77 -51 77z" />
    <glyph glyph-name="afii61289" unicode="&#x2113;" horiz-adv-x="455" 
d="M377 309c-30 -47 -72 -80 -127 -101v-17c0 -47 18 -67 62 -67c17 0 32 2 45 6v-130c-28 -7 -59 -11 -93 -11c-135 0 -198 62 -199 195c-21 3 -36 5 -45 7v92c10 -2 25 -4 45 -7v174c0 183 59 240 185 240c103 0 172 -62 172 -199c0 -75 -15 -135 -45 -182zM250 499v-181
c49 37 73 96 73 177c0 61 -16 87 -39 87c-25 0 -34 -19 -34 -83z" />
    <glyph glyph-name="afii61352" unicode="&#x2116;" horiz-adv-x="1249" 
d="M69 712h291l110 -273c39 -94 73 -186 102 -276h2c-5 103 -8 200 -8 291v258h191v-712h-290l-111 273c-38 95 -72 187 -102 276h-2c5 -86 8 -183 8 -291v-258h-191v712zM878 581c37 34 87 51 150 51s114 -17 152 -51c37 -35 56 -81 56 -138c0 -58 -19 -104 -56 -138
c-38 -34 -89 -51 -152 -51s-114 17 -151 51s-56 80 -56 138c0 57 19 103 57 138zM1208 205v-125h-365v125h365zM1066 500c-9 13 -21 20 -38 20c-33 0 -50 -28 -50 -77c0 -51 17 -78 50 -78s51 27 51 78c0 25 -4 44 -13 57z" />
    <glyph glyph-name="uni2117" unicode="&#x2117;" horiz-adv-x="794" 
d="M714 551c30 -57 45 -122 45 -195c3 -219 -148 -375 -362 -372c-214 -3 -365 153 -362 372c-3 219 148 375 362 372c143 0 257 -65 317 -177zM653 513c-49 91 -140 143 -256 143c-174 0 -292 -121 -292 -300s118 -300 292 -300s292 121 292 300c0 59 -12 112 -36 157z
M242 564h187c116 0 175 -55 175 -150s-59 -150 -175 -150h-61v-123h-126v423zM368 366h44c41 0 62 16 62 48c0 33 -21 49 -64 49h-42v-97z" />
    <glyph glyph-name="trademark" unicode="&#x2122;" horiz-adv-x="884" 
d="M849 356h-108v160c0 56 0 98 1 125h-2l-16 -86c-4 -19 -7 -31 -8 -38l-36 -161h-147l-36 161c-5 22 -13 63 -25 124h-2c1 -13 1 -34 1 -62v-223h-108v356h187l33 -144c10 -49 17 -92 22 -131h2c4 31 12 75 23 131l32 144h187v-356zM5 712h326v-104h-100v-252h-125v252
h-101v104z" />
    <glyph glyph-name="uni2126" unicode="&#x2126;" horiz-adv-x="759" 
d="M734 0h-312v173c57 59 91 123 91 212c0 112 -53 172 -133 172c-81 0 -134 -60 -134 -172c0 -89 34 -153 91 -212v-173h-312v167h135v2c-79 75 -124 147 -124 250c0 101 31 177 94 230c62 53 145 79 250 79c104 0 187 -26 250 -79c62 -53 93 -129 93 -230
c0 -103 -45 -175 -124 -250v-2h135v-167z" />
    <glyph glyph-name="estimated" unicode="&#x212e;" horiz-adv-x="863" 
d="M740 123c-27 -37 -66 -69 -118 -95c-52 -27 -115 -40 -190 -40c-227 -2 -388 149 -385 349c-3 199 151 356 385 353c236 4 385 -168 383 -362h-612c-8 0 -14 -6 -14 -13v-167c0 -21 4 -32 16 -44c62 -61 138 -91 227 -91c96 0 186 45 239 110h69zM189 362
c0 -7 6 -12 14 -12h456c8 0 13 5 13 12v167c0 20 -3 30 -15 41c-63 63 -138 94 -225 94c-89 0 -164 -31 -227 -94c-12 -11 -16 -21 -16 -41v-167z" />
    <glyph glyph-name="oneeighth" unicode="&#x215b;" horiz-adv-x="856" 
d="M777 382c31 -22 46 -51 46 -86c0 -43 -30 -76 -78 -85v-2c53 -9 89 -47 89 -96c0 -77 -67 -123 -182 -123s-181 44 -181 123c0 49 36 87 89 96v2c-48 9 -78 42 -78 85c0 71 67 118 170 118c52 0 94 -11 125 -32zM497 674h110l-356 -674h-110zM9 602c68 0 105 24 117 72
h128v-404h-143v235h-102v97zM687 94c9 7 13 16 13 28c0 24 -19 38 -48 38c-28 0 -47 -14 -47 -38s19 -39 47 -39c15 0 26 4 35 11zM652 323c-27 0 -45 -15 -45 -36s18 -36 45 -36c28 0 47 15 47 36c0 23 -18 36 -47 36z" />
    <glyph glyph-name="threeeighths" unicode="&#x215c;" horiz-adv-x="969" 
d="M642 382c31 21 72 32 123 32c104 0 171 -47 171 -118c0 -43 -30 -76 -78 -85v-2c53 -9 89 -47 89 -96c0 -77 -67 -123 -182 -123s-181 44 -181 123c0 49 36 87 89 96v2c-48 9 -78 42 -78 85c0 35 16 64 47 86zM16 409h136c0 -35 18 -53 55 -53c28 0 47 14 47 35
c0 24 -20 36 -60 36h-14v92h13c38 0 57 12 57 36c0 20 -17 33 -46 33c-32 0 -51 -18 -51 -49h-130c0 91 69 145 182 145c105 0 176 -47 176 -118c0 -44 -22 -70 -73 -85v-2c55 -16 78 -45 78 -93c0 -81 -63 -126 -179 -126c-121 0 -191 52 -191 149zM720 674l-356 -674h-110
l356 674h110zM718 122c0 -24 19 -39 47 -39c29 0 48 15 48 39s-19 38 -48 38c-28 0 -47 -14 -47 -38zM733 261c8 -7 19 -10 32 -10c28 0 47 15 47 36c0 23 -18 36 -47 36c-27 0 -45 -15 -45 -36c0 -11 4 -19 13 -26z" />
    <glyph glyph-name="fiveeighths" unicode="&#x215d;" horiz-adv-x="971" 
d="M618 241c-14 15 -21 34 -21 55c0 71 67 118 170 118c104 0 171 -47 171 -118c0 -43 -30 -76 -78 -85v-2c53 -9 89 -47 89 -96c0 -77 -67 -123 -182 -123s-181 44 -181 123c0 49 36 87 89 96v2c-24 5 -43 15 -57 30zM163 392c0 -24 18 -41 46 -41c32 0 49 21 49 54
c0 31 -19 50 -48 50c-24 0 -40 -14 -44 -35l-132 8l23 246h304v-105h-193l-6 -57h2c21 18 49 27 84 27c41 0 75 -12 102 -37s40 -57 40 -96c0 -89 -72 -146 -183 -146s-181 49 -181 132h137zM256 0l356 674h110l-356 -674h-110zM733 94c9 -7 20 -11 34 -11c29 0 48 15 48 39
s-19 38 -48 38c-28 0 -47 -14 -47 -38c0 -12 4 -21 13 -28zM735 261c8 -7 19 -10 32 -10c28 0 47 15 47 36c0 23 -18 36 -47 36c-27 0 -45 -15 -45 -36c0 -11 4 -19 13 -26z" />
    <glyph glyph-name="seveneighths" unicode="&#x215e;" horiz-adv-x="871" 
d="M792 382c31 -22 46 -51 46 -86c0 -43 -30 -76 -78 -85v-2c53 -9 89 -47 89 -96c0 -77 -67 -123 -182 -123s-181 44 -181 123c0 49 36 87 89 96v2c-48 9 -78 42 -78 85c0 71 67 118 170 118c52 0 94 -11 125 -32zM9 674h345v-100c-63 -80 -109 -192 -132 -304h-145
c13 56 33 111 59 164c25 53 53 98 84 135h-211v105zM156 0l356 674h110l-356 -674h-110zM702 94c9 7 13 16 13 28c0 24 -19 38 -48 38c-28 0 -47 -14 -47 -38s19 -39 47 -39c15 0 26 4 35 11zM701 261c9 7 13 15 13 26c0 23 -18 36 -47 36c-27 0 -45 -15 -45 -36
s18 -36 45 -36c14 0 25 3 34 10z" />
    <glyph glyph-name="uni2166" unicode="&#x2166;" horiz-adv-x="1344" 
d="M214 712l70 -273c25 -98 45 -188 59 -269h2c14 81 34 171 59 269l69 273h212l-207 -712h-268l-207 712h211zM736 0v712h200v-712h-200zM1275 0h-200v712h200v-712z" />
    <glyph glyph-name="partialdiff" unicode="&#x2202;" horiz-adv-x="640" 
d="M584 379c0 -133 -26 -232 -78 -297s-122 -98 -210 -98c-173 0 -268 95 -268 246c0 144 95 249 249 249c49 0 87 -12 114 -35h2c1 3 1 9 1 17c0 76 -35 127 -88 127c-38 0 -59 -21 -63 -62h-194c13 125 100 202 249 202c191 0 286 -125 286 -349zM245 151
c13 -18 31 -27 55 -27c53 0 83 46 83 126c0 68 -26 107 -75 107c-52 0 -82 -48 -82 -128c0 -34 6 -60 19 -78z" />
    <glyph glyph-name="uni2206" unicode="&#x2206;" horiz-adv-x="730" 
d="M-2 0l243 712h250l241 -712h-734zM251 157h227l-50 177c-22 76 -43 157 -62 242h-2c-17 -75 -38 -156 -63 -242z" />
    <glyph glyph-name="product" unicode="&#x220f;" horiz-adv-x="726" 
d="M69 712h587v-832h-200v664h-186v-664h-201v832z" />
    <glyph glyph-name="summation" unicode="&#x2211;" horiz-adv-x="540" 
d="M35 712h470v-168h-257l149 -247l-148 -248h256v-169h-470v169l153 248l-153 247v168z" />
    <glyph glyph-name="minus" unicode="&#x2212;" horiz-adv-x="566" 
d="M511 392v-149h-456v149h456z" />
    <glyph glyph-name="uni2215" unicode="&#x2215;" horiz-adv-x="519" 
d="M327 745h141l-298 -834h-140z" />
    <glyph glyph-name="uni2219" unicode="&#x2219;" horiz-adv-x="381" 
d="M290 406v-201h-200v201h200z" />
    <glyph glyph-name="radical" unicode="&#x221a;" horiz-adv-x="707" 
d="M25 242v152h212l87 -364h2l194 682h167l-238 -832h-255l-85 362h-84z" />
    <glyph glyph-name="infinity" unicode="&#x221e;" horiz-adv-x="739" 
d="M675 165c-33 -36 -78 -54 -133 -54c-75 0 -126 32 -173 85c-45 -53 -97 -85 -172 -85c-55 0 -99 18 -132 54c-33 35 -50 83 -50 143s17 108 50 144c33 35 77 53 132 53c75 0 127 -32 172 -85c47 53 98 85 173 85c55 0 100 -18 133 -53c33 -36 49 -84 49 -144
s-16 -108 -49 -143zM449 308c25 -35 48 -53 76 -53c32 0 52 21 52 53s-20 53 -52 53c-28 0 -51 -18 -76 -53zM162 308c0 -32 19 -53 52 -53c27 0 50 18 75 53c-25 35 -48 53 -75 53c-33 0 -52 -21 -52 -53z" />
    <glyph glyph-name="integral" unicode="&#x222b;" horiz-adv-x="392" 
d="M28 -58c51 0 74 20 74 71v524c0 123 68 185 196 185c29 0 58 -3 89 -10v-130c-5 2 -13 3 -23 3c-51 0 -74 -20 -74 -71v-524c0 -123 -68 -185 -196 -185c-29 0 -58 3 -89 10v130c5 -2 13 -3 23 -3z" />
    <glyph glyph-name="approxequal" unicode="&#x2248;" horiz-adv-x="566" 
d="M94 251c27 34 62 51 107 51c35 0 62 -14 99 -38c31 -19 43 -25 59 -25c28 0 43 19 43 50h110c0 -55 -13 -100 -40 -134s-62 -51 -107 -51c-33 0 -58 13 -98 37c-27 17 -44 26 -60 26c-28 0 -44 -19 -44 -50h-109c0 55 13 100 40 134zM402 517h110
c0 -55 -13 -100 -40 -134s-62 -51 -107 -51c-33 0 -58 13 -98 37c-27 17 -44 26 -60 26c-28 0 -44 -19 -44 -50h-109c0 55 13 100 40 134s62 51 107 51c35 0 62 -14 99 -38c31 -19 43 -25 59 -25c28 0 43 19 43 50z" />
    <glyph glyph-name="notequal" unicode="&#x2260;" horiz-adv-x="566" 
d="M511 355h-143l-41 -77h184v-140h-256l-56 -107h-130l55 107h-69v140h142l40 77h-182v140h255l56 109h131l-57 -109h71v-140z" />
    <glyph glyph-name="lessequal" unicode="&#x2264;" horiz-adv-x="566" 
d="M55 286v161l456 141v-137l-279 -83v-2l279 -84v-137zM55 0v130h456v-130h-456z" />
    <glyph glyph-name="greaterequal" unicode="&#x2265;" horiz-adv-x="566" 
d="M334 366v2l-279 83v137l456 -141v-161l-456 -141v137zM55 0v130h456v-130h-456z" />
    <glyph glyph-name="lozenge" unicode="&#x25ca;" horiz-adv-x="691" 
d="M217 712h257l177 -356l-177 -356h-257l-177 356zM237 356l108 -220l109 220l-109 220z" />
    <glyph glyph-name="uniF8FF" unicode="&#xf8ff;" horiz-adv-x="654" 
 />
    <glyph glyph-name="uniFB00" unicode="&#xfb00;" horiz-adv-x="727" 
d="M721 582c-5 2 -13 3 -25 3c-49 0 -72 -21 -72 -70v-7h92v-137h-92v-371h-192v371h-155v-371h-192v371h-78v137h78v29c0 123 69 185 200 185c29 0 58 -3 89 -10v-130c-5 2 -13 3 -25 3c-49 0 -72 -21 -72 -70v-7h155v29c0 123 69 185 200 185c29 0 58 -3 89 -10v-130z" />
    <glyph glyph-name="uniFB01" unicode="&#xfb01;" horiz-adv-x="680" 
d="M7 371v137h78v29c0 123 69 185 200 185c29 0 58 -3 89 -10v-130c-5 2 -13 3 -25 3c-49 0 -72 -21 -72 -70v-7h92v-137h-92v-371h-192v371h-78zM626 0h-192v508h192v-508zM434 712h192v-141h-192v141z" />
    <glyph glyph-name="uniFB02" unicode="&#xfb02;" horiz-adv-x="680" 
d="M7 371v137h78v29c0 123 69 185 200 185c29 0 58 -3 89 -10v-130c-5 2 -13 3 -25 3c-49 0 -72 -21 -72 -70v-7h92v-137h-92v-371h-192v371h-78zM626 0h-192v712h192v-712z" />
    <glyph glyph-name="uniFB03" unicode="&#xfb03;" horiz-adv-x="1027" 
d="M7 371v137h78v29c0 123 69 185 200 185c29 0 58 -3 89 -10v-130c-5 2 -13 3 -25 3c-49 0 -72 -21 -72 -70v-7h155v29c0 123 69 185 200 185c29 0 58 -3 89 -10v-130c-5 2 -13 3 -25 3c-49 0 -72 -21 -72 -70v-7h92v-137h-92v-371h-192v371h-155v-371h-192v371h-78z
M781 508h192v-508h-192v508zM973 712v-141h-192v141h192z" />
    <glyph glyph-name="uniFB04" unicode="&#xfb04;" horiz-adv-x="1027" 
d="M721 582c-5 2 -13 3 -25 3c-49 0 -72 -21 -72 -70v-7h92v-137h-92v-371h-192v371h-155v-371h-192v371h-78v137h78v29c0 123 69 185 200 185c29 0 58 -3 89 -10v-130c-5 2 -13 3 -25 3c-49 0 -72 -21 -72 -70v-7h155v29c0 123 69 185 200 185c29 0 58 -3 89 -10v-130z
M973 712v-712h-192v712h192z" />
    <glyph glyph-name="uniFEFF" unicode="&#xfeff;" horiz-adv-x="0" 
 />
    <glyph glyph-name="glyph202" horiz-adv-x="428" 
d="M59 160c79 0 105 31 105 141v411h200v-458c0 -181 -82 -264 -258 -264c-29 0 -59 4 -91 11v163c17 -3 32 -4 44 -4zM240 916h208l-142 -150h-146z" />
    <glyph glyph-name="Ccedilla.salt" horiz-adv-x="730" 
d="M696 447h-210c-8 71 -48 111 -115 111c-80 0 -131 -77 -131 -202c0 -124 51 -202 131 -202c65 0 109 44 116 117h213c-7 -92 -40 -163 -98 -212c-59 -50 -136 -75 -231 -75c-210 0 -340 142 -340 372s130 372 340 372c192 0 317 -106 325 -281zM322 -49h147l-101 -168
h-188z" />
    <glyph glyph-name="Scedilla.salt" horiz-adv-x="661" 
d="M597 333c23 -30 34 -70 34 -119c0 -142 -115 -230 -303 -230c-193 0 -307 91 -307 247h216c0 -61 33 -91 98 -91c53 0 85 24 85 61c0 29 -16 44 -48 56c-16 6 -42 13 -77 22c-59 16 -105 31 -140 46s-63 36 -86 65s-34 67 -34 115c0 135 110 223 293 223
s288 -81 288 -232h-210c0 52 -31 81 -88 81c-49 0 -79 -22 -79 -55c4 -42 24 -50 129 -76c113 -28 182 -53 229 -113zM277 -49h147l-101 -168h-188z" />
    <glyph glyph-name="Tcommaaccent.salt" horiz-adv-x="638" 
d="M8 544v168h622v-168h-211v-544h-200v544h-211zM270 -49h147l-101 -168h-188z" />
    <glyph glyph-name="i.locl" horiz-adv-x="300" 
d="M54 0v508h192v-508h-192zM54 571v141h192v-141h-192z" />
    <glyph glyph-name="glyph314" horiz-adv-x="300" 
d="M-46 -180v132c7 -2 16 -3 25 -3c52 0 75 23 75 98v461h192v-494c0 -137 -79 -205 -200 -205c-35 0 -66 4 -92 11zM44 562l80 150h208l-142 -150h-146z" />
    <glyph glyph-name="ccedilla.salt" horiz-adv-x="589" 
d="M488 44c-49 -40 -111 -60 -188 -60c-166 0 -275 105 -275 272c0 162 107 268 275 268c75 0 137 -19 186 -58c48 -39 75 -92 82 -158h-199c-4 47 -29 73 -66 73c-48 0 -76 -45 -76 -125c0 -84 28 -129 76 -129c39 0 65 30 66 82h199c-5 -70 -32 -125 -80 -165zM109 -217
l142 168h147l-101 -168h-188z" />
    <glyph glyph-name="scedilla.salt" horiz-adv-x="559" 
d="M532 150c0 -101 -91 -166 -247 -166c-173 0 -259 60 -259 181h192c0 -43 21 -63 68 -63c36 0 54 12 54 35c-5 32 -19 36 -117 62c-77 20 -124 36 -158 79c-17 21 -26 50 -26 85c0 97 82 161 239 161c149 0 236 -56 236 -168h-182c0 37 -19 56 -57 56
c-31 0 -47 -11 -47 -34c3 -26 13 -31 99 -54c85 -23 139 -41 177 -86c19 -23 28 -52 28 -88zM93 -217l142 168h147l-101 -168h-188z" />
    <glyph glyph-name="tcommaaccent.salt" horiz-adv-x="398" 
d="M373 4c-24 -8 -64 -13 -93 -13c-139 0 -198 52 -198 173v207h-77v137h77v142h192v-142h94v-137h-94v-155c0 -55 18 -75 63 -75c14 0 26 2 36 5v-142zM175 -49h147l-101 -168h-188z" />
    <glyph glyph-name="a.superior" horiz-adv-x="427" 
d="M404 330h-137c-4 12 -6 26 -6 43h-1c-29 -35 -69 -53 -119 -53c-79 0 -128 47 -128 112c0 67 44 102 152 118c26 4 53 7 81 8v13c0 29 -12 43 -37 43s-37 -14 -37 -42h-144c4 72 62 125 182 125c123 0 182 -54 182 -151v-110c0 -45 4 -80 12 -106zM160 442
c0 -20 12 -33 35 -33c17 0 29 5 37 15c11 13 14 26 14 51v13c-21 -2 -37 -5 -50 -8c-24 -5 -36 -18 -36 -38z" />
    <glyph glyph-name="b.superior" horiz-adv-x="458" 
d="M441 508c0 -57 -15 -103 -44 -137c-29 -35 -68 -52 -117 -52c-39 0 -73 17 -96 49h-1v-38h-145v498h151v-173h2c21 28 56 42 93 42c96 0 157 -74 157 -189zM181 508c0 -45 19 -76 50 -76c32 0 51 29 51 76s-19 76 -51 76c-31 0 -50 -31 -50 -76z" />
    <glyph glyph-name="c.superior" horiz-adv-x="434" 
d="M220 697c113 0 191 -59 199 -155h-156c-3 29 -19 44 -40 44c-31 0 -46 -25 -46 -76c0 -53 16 -80 47 -80c23 0 39 18 40 49h155c-7 -100 -83 -160 -199 -160c-62 0 -111 17 -148 52c-37 34 -55 80 -55 139c0 57 18 103 55 137c37 33 86 50 148 50z" />
    <glyph glyph-name="d.superior" horiz-adv-x="458" 
d="M420 330h-144v38h-2c-23 -32 -56 -49 -95 -49c-49 0 -88 17 -117 52c-29 34 -44 80 -44 137c0 116 61 189 157 189c36 0 71 -15 92 -42h2v173h151v-498zM176 508c0 -47 20 -76 51 -76s50 31 50 76s-19 76 -50 76s-51 -29 -51 -76z" />
    <glyph glyph-name="e.superior" horiz-adv-x="437" 
d="M420 477h-254c3 -48 21 -64 52 -64c24 0 39 12 42 28h154c-8 -35 -30 -64 -65 -87c-36 -23 -79 -35 -129 -35c-129 0 -203 83 -203 191c0 106 74 187 201 187c89 0 155 -39 184 -106c13 -29 18 -62 18 -114zM267 552c-3 37 -22 54 -49 54c-28 0 -46 -14 -51 -54h100z" />
    <glyph glyph-name="egrave.superior" horiz-adv-x="437" 
d="M420 477h-254c3 -48 21 -64 52 -64c24 0 39 12 42 28h154c-8 -35 -30 -64 -65 -87c-36 -23 -79 -35 -129 -35c-129 0 -203 83 -203 191c0 106 74 187 201 187c89 0 155 -39 184 -106c13 -29 18 -62 18 -114zM228 828l76 -104h-133l-119 104h176zM167 552h100
c-3 37 -22 54 -49 54c-28 0 -46 -14 -51 -54z" />
    <glyph glyph-name="f.superior" horiz-adv-x="285" 
d="M60 700c0 91 52 136 151 136c27 0 50 -3 69 -8v-100c-2 1 -8 1 -17 1c-33 0 -50 -12 -51 -43h64v-107h-64v-249h-152v249h-55v107h55v14z" />
    <glyph glyph-name="g.superior" horiz-adv-x="451" 
d="M413 355c0 -112 -69 -163 -201 -163c-105 0 -168 43 -179 119h142c1 -21 16 -34 39 -34c35 0 53 24 53 71v40h-2c-20 -29 -60 -48 -100 -48c-91 0 -148 70 -148 178c0 109 59 178 152 178c41 0 81 -22 102 -57h2v47h140v-331zM172 518c0 -43 19 -68 50 -68s49 27 49 68
s-18 68 -49 68s-50 -25 -50 -68z" />
    <glyph glyph-name="h.superior" horiz-adv-x="453" 
d="M38 330v498h151v-172h2c23 27 55 40 94 40c84 0 134 -52 134 -147v-219h-152v200c0 32 -11 51 -35 51c-29 0 -43 -23 -43 -78v-173h-151z" />
    <glyph glyph-name="i.superior" horiz-adv-x="227" 
d="M38 330v356h151v-356h-151zM38 723v105h151v-105h-151z" />
    <glyph glyph-name="j.superior" horiz-adv-x="229" 
d="M-32 306c7 -1 13 -2 18 -2c37 0 54 18 54 71v311h151v-338c0 -103 -59 -152 -152 -152c-27 0 -51 3 -71 8v102zM40 723v105h151v-105h-151z" />
    <glyph glyph-name="k.superior" horiz-adv-x="439" 
d="M38 330v499h151v-276h2l63 133h181l-117 -171l128 -185h-185l-70 151h-2v-151h-151z" />
    <glyph glyph-name="l.superior" horiz-adv-x="227" 
d="M189 828v-498h-151v498h151z" />
    <glyph glyph-name="m.superior" horiz-adv-x="672" 
d="M638 330h-151v200c0 32 -11 51 -32 51c-27 0 -41 -22 -41 -75v-176h-151v202c0 33 -11 49 -33 49c-27 0 -41 -25 -41 -75v-176h-151v356h139v-41h2c24 32 61 51 106 51c51 0 87 -21 108 -62c24 39 65 62 117 62c80 0 128 -52 128 -147v-219z" />
    <glyph glyph-name="n.superior" horiz-adv-x="453" 
d="M38 330v356h140v-39h2c26 33 61 49 105 49c84 0 134 -52 134 -147v-219h-152v200c0 32 -11 51 -35 51c-29 0 -43 -23 -43 -78v-173h-151z" />
    <glyph glyph-name="o.superior" horiz-adv-x="450" 
d="M74 370c-37 34 -56 80 -56 138s19 104 56 138s88 51 151 51s114 -17 151 -51s56 -80 56 -138s-19 -104 -56 -138s-88 -51 -151 -51s-114 17 -151 51zM174 508c0 -51 18 -78 51 -78s51 27 51 78c0 49 -18 77 -51 77s-51 -28 -51 -77z" />
    <glyph glyph-name="p.superior" horiz-adv-x="458" 
d="M399 371c-29 -35 -67 -52 -115 -52c-37 0 -72 14 -93 41h-2v-159h-151v485h145v-39h1c21 33 57 50 96 50c49 0 88 -17 117 -51c29 -35 44 -81 44 -138s-14 -103 -42 -137zM195 453c9 -14 21 -21 36 -21c32 0 51 29 51 76s-19 76 -51 76c-31 0 -50 -31 -50 -76
c0 -23 5 -41 14 -55z" />
    <glyph glyph-name="q.superior" horiz-adv-x="458" 
d="M420 201h-151v159h-2c-20 -27 -55 -41 -92 -41c-96 0 -157 73 -157 189c0 57 15 103 44 138c29 34 68 51 117 51c39 0 74 -17 95 -50h2v39h144v-485zM190 453c9 -14 22 -21 37 -21c31 0 50 31 50 76s-19 76 -50 76s-51 -29 -51 -76c0 -23 5 -42 14 -55z" />
    <glyph glyph-name="r.superior" horiz-adv-x="329" 
d="M38 686h141v-47h2c27 36 60 52 108 52c15 0 27 -1 37 -4v-128c-11 3 -26 4 -45 4c-59 0 -92 -35 -92 -100v-133h-151v356z" />
    <glyph glyph-name="s.superior" horiz-adv-x="415" 
d="M396 438c0 -75 -65 -119 -184 -119c-129 0 -194 40 -194 127h151c0 -27 13 -40 44 -40c21 0 34 9 34 21c0 9 -5 16 -15 21c-11 5 -34 11 -70 20c-81 20 -131 38 -135 114c0 69 59 115 180 115c112 0 176 -39 176 -116h-143c0 22 -12 33 -35 33c-19 0 -29 -7 -29 -20
c0 -15 12 -20 69 -35c89 -25 147 -46 151 -121z" />
    <glyph glyph-name="t.superior" horiz-adv-x="298" 
d="M280 333c-19 -5 -49 -10 -72 -10c-104 0 -150 38 -150 123v133h-54v107h54v102h151v-102h68v-107h-68v-88c0 -36 12 -51 44 -51c11 0 20 1 27 3v-110z" />
    <glyph glyph-name="u.superior" horiz-adv-x="452" 
d="M34 467v219h151v-200c0 -34 12 -51 36 -51c28 0 42 23 42 78v173h152v-356h-140v39h-2c-26 -33 -61 -49 -106 -49c-83 0 -133 52 -133 147z" />
    <glyph glyph-name="v.superior" horiz-adv-x="414" 
d="M-6 686h164l23 -111c11 -57 20 -105 25 -146h2c5 41 14 89 25 146l23 111h164l-108 -356h-210z" />
    <glyph glyph-name="w.superior" horiz-adv-x="658" 
d="M573 330h-197l-24 121c-8 41 -15 90 -22 145h-2c-4 -35 -11 -83 -22 -145l-24 -121h-197l-82 356h145l16 -119c8 -56 13 -104 16 -144h2c7 51 16 100 27 148l27 115h186l26 -115c11 -45 20 -94 28 -148h1c3 43 9 91 17 144l16 119h145z" />
    <glyph glyph-name="x.superior" horiz-adv-x="418" 
d="M113 513l-109 173h169l35 -96h2l35 96h169l-109 -173l117 -183h-168l-44 103h-2l-44 -103h-168z" />
    <glyph glyph-name="y.superior" horiz-adv-x="416" 
d="M319 361c-40 -127 -83 -166 -182 -166c-32 0 -58 2 -77 7v105c9 -3 20 -4 33 -4c25 0 37 9 37 27c0 11 -6 30 -25 75l-114 281h165l31 -119c13 -54 24 -103 31 -147h2c7 51 16 101 25 148l24 118h154z" />
    <glyph glyph-name="z.superior" horiz-adv-x="382" 
d="M21 330v115l145 127v2h-140v112h331v-116l-146 -126v-2h150v-112h-340z" />
    <glyph glyph-name="A.aalt" horiz-adv-x="641" 
d="M-2 0l193 548h259l192 -548h-203l-25 87h-188l-25 -87h-203zM263 215h115l-11 38c-15 51 -30 107 -46 170h-2c-7 -33 -22 -89 -45 -170z" />
    <glyph glyph-name="Aacute.aalt" horiz-adv-x="641" 
d="M642 0h-203l-25 87h-188l-25 -87h-203l193 548h259zM294 752h208l-142 -150h-146zM263 215h115l-11 38c-15 51 -30 107 -46 170h-2c-7 -33 -22 -89 -45 -170z" />
    <glyph glyph-name="Abreve.aalt" horiz-adv-x="641" 
d="M-2 0l193 548h259l192 -548h-203l-25 87h-188l-25 -87h-203zM451 636c-31 -27 -75 -41 -131 -41c-112 0 -177 57 -181 157h117c2 -34 23 -51 64 -51s62 17 64 51h117c-2 -50 -19 -89 -50 -116zM263 215h115l-11 38c-15 51 -30 107 -46 170h-2c-7 -33 -22 -89 -45 -170z
" />
    <glyph glyph-name="Acircumflex.aalt" horiz-adv-x="641" 
d="M642 0h-203l-25 87h-188l-25 -87h-203l193 548h259zM240 752h162l123 -150h-149l-55 75l-55 -75h-149zM263 215h115l-11 38c-15 51 -30 107 -46 170h-2c-7 -33 -22 -89 -45 -170z" />
    <glyph glyph-name="Adieresis.aalt" horiz-adv-x="641" 
d="M-2 0l193 548h259l192 -548h-203l-25 87h-188l-25 -87h-203zM520 611h-163v141h163v-141zM121 611v141h162v-141h-162zM263 215h115l-11 38c-15 51 -30 107 -46 170h-2c-7 -33 -22 -89 -45 -170z" />
    <glyph glyph-name="Agrave.aalt" horiz-adv-x="641" 
d="M642 0h-203l-25 87h-188l-25 -87h-203l193 548h259zM347 752l80 -150h-146l-142 150h208zM378 215l-11 38c-15 51 -30 107 -46 170h-2c-7 -33 -22 -89 -45 -170l-11 -38h115z" />
    <glyph glyph-name="Amacron.aalt" horiz-adv-x="641" 
d="M191 548h259l192 -548h-203l-25 87h-188l-25 -87h-203zM517 621h-393v115h393v-115zM263 215h115l-11 38c-15 51 -30 107 -46 170h-2c-7 -33 -22 -89 -45 -170z" />
    <glyph glyph-name="Aogonek.aalt" horiz-adv-x="641" 
d="M645 -185c-30 -11 -65 -16 -106 -16c-89 0 -134 35 -134 96c0 43 30 74 90 105h-56l-25 87h-188l-25 -87h-203l193 548h259l192 -548c-44 -28 -60 -48 -60 -71c0 -18 10 -27 31 -27c13 0 23 2 32 6v-93zM378 215l-11 38c-15 51 -30 107 -46 170h-2
c-7 -33 -22 -89 -45 -170l-11 -38h115z" />
    <glyph glyph-name="Aring.aalt" horiz-adv-x="641" 
d="M642 0h-203l-25 87h-188l-25 -87h-203l193 548h259zM236 794c23 23 51 35 84 35s62 -12 85 -35s34 -52 34 -85s-11 -62 -34 -85s-52 -35 -85 -35s-61 12 -84 36c-24 23 -36 51 -36 84s12 62 36 85zM263 215h115l-11 38c-15 51 -30 107 -46 170h-2
c-7 -33 -22 -89 -45 -170zM279 668c11 -11 25 -17 41 -17c32 0 58 26 58 58s-26 58 -58 58s-58 -26 -58 -58c0 -16 6 -30 17 -41z" />
    <glyph glyph-name="Atilde.aalt" horiz-adv-x="641" 
d="M-2 0l193 548h259l192 -548h-203l-25 87h-188l-25 -87h-203zM485 641c-23 -27 -54 -41 -94 -41c-31 0 -51 8 -84 24c-24 12 -35 17 -50 17c-24 0 -36 -13 -40 -41h-99c5 96 51 152 131 152c31 0 51 -8 84 -24c4 -1 31 -16 50 -16c24 0 36 12 39 40h99
c-2 -47 -14 -84 -36 -111zM378 215l-11 38c-15 51 -30 107 -46 170h-2c-7 -33 -22 -89 -45 -170l-11 -38h115z" />
    <glyph glyph-name="AE.aalt" horiz-adv-x="819" 
d="M779 0h-350l-15 96h-193l-41 -96h-185l243 548h539v-140h-247l11 -65h216v-136h-195l11 -67h206v-140zM392 232l-28 175h-11l-74 -175h113z" />
    <glyph glyph-name="B.aalt" horiz-adv-x="612" 
d="M582 156c0 -96 -85 -156 -225 -156h-295v548h289c143 0 216 -54 216 -142c0 -64 -30 -100 -97 -120v-2c72 -15 112 -61 112 -128zM251 220v-99h57c53 0 74 13 74 48c0 36 -23 51 -76 51h-55zM305 333c51 0 74 15 74 47s-22 47 -69 47h-59v-94h54z" />
    <glyph glyph-name="C.aalt" 
d="M308 564c164 0 269 -83 274 -228h-201c-6 51 -30 76 -73 76c-51 0 -81 -47 -81 -139c0 -89 31 -137 82 -137c41 0 68 28 73 79h203c-12 -149 -115 -231 -276 -231c-88 0 -157 26 -206 77c-50 51 -75 121 -75 212s25 162 75 214c49 51 118 77 205 77z" />
    <glyph glyph-name="Cacute.aalt" 
d="M582 336h-201c-6 51 -30 76 -73 76c-51 0 -81 -47 -81 -139c0 -89 31 -137 82 -137c41 0 68 28 73 79h203c-12 -149 -115 -231 -276 -231c-88 0 -157 26 -206 77c-50 51 -75 121 -75 212s25 162 75 214c49 51 118 77 205 77c164 0 269 -83 274 -228zM201 602l80 150h208
l-142 -150h-146z" />
    <glyph glyph-name="Ccaron.aalt" 
d="M582 336h-201c-6 51 -30 76 -73 76c-51 0 -81 -47 -81 -139c0 -89 31 -137 82 -137c41 0 68 28 73 79h203c-12 -149 -115 -231 -276 -231c-88 0 -157 26 -206 77c-50 51 -75 121 -75 212s25 162 75 214c49 51 118 77 205 77c164 0 269 -83 274 -228zM253 752l55 -75
l55 75h149l-123 -150h-162l-123 150h149z" />
    <glyph glyph-name="Ccedilla.c2sc" 
d="M440 -134c0 -61 -49 -105 -134 -105c-44 0 -90 12 -127 35l30 62c32 -15 59 -23 82 -23c25 0 39 10 39 26c0 17 -14 29 -39 29c-11 0 -21 -2 -30 -7l-39 32l43 71c-149 17 -237 123 -237 287c0 91 25 162 75 214c49 51 118 77 205 77c164 0 269 -83 274 -228h-201
c-6 51 -30 76 -73 76c-51 0 -81 -47 -81 -139c0 -89 31 -137 82 -137c41 0 68 28 73 79h203c-11 -137 -100 -219 -241 -230l-27 -44c11 3 22 5 32 5c57 0 91 -31 91 -80z" />
    <glyph glyph-name="Ccircumflex.aalt" 
d="M582 336h-201c-6 51 -30 76 -73 76c-51 0 -81 -47 -81 -139c0 -89 31 -137 82 -137c41 0 68 28 73 79h203c-12 -149 -115 -231 -276 -231c-88 0 -157 26 -206 77c-50 51 -75 121 -75 212s25 162 75 214c49 51 118 77 205 77c164 0 269 -83 274 -228zM227 752h162
l123 -150h-149l-55 75l-55 -75h-149z" />
    <glyph glyph-name="Cdotaccent.aalt" 
d="M582 336h-201c-6 51 -30 76 -73 76c-51 0 -81 -47 -81 -139c0 -89 31 -137 82 -137c41 0 68 28 73 79h203c-12 -149 -115 -231 -276 -231c-88 0 -157 26 -206 77c-50 51 -75 121 -75 212s25 162 75 214c49 51 118 77 205 77c164 0 269 -83 274 -228zM212 611v141h192
v-141h-192z" />
    <glyph glyph-name="D.aalt" horiz-adv-x="650" 
d="M62 548h241c204 0 319 -98 319 -274c0 -175 -115 -274 -319 -274h-241v548zM257 402v-256h41c80 0 125 47 125 128s-45 128 -125 128h-41z" />
    <glyph glyph-name="Eth.aalt" horiz-adv-x="656" 
d="M628 274c0 -175 -115 -274 -319 -274h-241v226h-56v100h56v222h241c204 0 319 -98 319 -274zM350 326v-100h-94v-86h48c84 0 132 49 132 134s-48 134 -132 134h-48v-82h94z" />
    <glyph glyph-name="Dcaron.aalt" horiz-adv-x="650" 
d="M622 274c0 -175 -115 -274 -319 -274h-241v548h241c204 0 319 -98 319 -274zM111 752h149l55 -75l55 75h149l-123 -150h-162zM257 402v-256h41c80 0 125 47 125 128s-45 128 -125 128h-41z" />
    <glyph glyph-name="Dcroat.aalt" horiz-adv-x="656" 
d="M628 274c0 -175 -115 -274 -319 -274h-241v226h-56v100h56v222h241c204 0 319 -98 319 -274zM350 326v-100h-94v-86h48c84 0 132 49 132 134s-48 134 -132 134h-48v-82h94z" />
    <glyph glyph-name="E.aalt" horiz-adv-x="534" 
d="M63 548h428v-140h-253v-65h233v-136h-233v-67h256v-140h-431v548z" />
    <glyph glyph-name="Eacute.aalt" horiz-adv-x="534" 
d="M63 548h428v-140h-253v-65h233v-136h-233v-67h256v-140h-431v548zM251 752h208l-142 -150h-146z" />
    <glyph glyph-name="Ebreve.aalt" horiz-adv-x="534" 
d="M494 0h-431v548h428v-140h-253v-65h233v-136h-233v-67h256v-140zM213 752c2 -34 23 -51 64 -51s62 17 64 51h117c-4 -100 -69 -157 -181 -157s-177 57 -181 157h117z" />
    <glyph glyph-name="Ecaron.aalt" horiz-adv-x="534" 
d="M494 0h-431v548h428v-140h-253v-65h233v-136h-233v-67h256v-140zM74 752h149l55 -75l55 75h149l-123 -150h-162z" />
    <glyph glyph-name="Ecircumflex.aalt" horiz-adv-x="534" 
d="M494 0h-431v548h428v-140h-253v-65h233v-136h-233v-67h256v-140zM74 602l123 150h162l123 -150h-149l-55 75l-55 -75h-149z" />
    <glyph glyph-name="Edieresis.aalt" horiz-adv-x="534" 
d="M494 0h-431v548h428v-140h-253v-65h233v-136h-233v-67h256v-140zM477 752v-141h-163v141h163zM240 752v-141h-162v141h162z" />
    <glyph glyph-name="Edotaccent.aalt" horiz-adv-x="534" 
d="M63 548h428v-140h-253v-65h233v-136h-233v-67h256v-140h-431v548zM181 752h192v-141h-192v141z" />
    <glyph glyph-name="Egrave.aalt" horiz-adv-x="534" 
d="M63 548h428v-140h-253v-65h233v-136h-233v-67h256v-140h-431v548zM304 752l80 -150h-146l-142 150h208z" />
    <glyph glyph-name="Emacron.aalt" horiz-adv-x="534" 
d="M63 548h428v-140h-253v-65h233v-136h-233v-67h256v-140h-431v548zM81 736h393v-115h-393v115z" />
    <glyph glyph-name="Eogonek.aalt" horiz-adv-x="534" 
d="M496 -185c-30 -11 -65 -16 -106 -16c-89 0 -134 35 -134 96c0 43 30 74 90 105h-283v548h428v-140h-253v-65h233v-136h-233v-67h256v-140h-1c-44 -28 -60 -48 -60 -71c0 -18 10 -27 31 -27c13 0 23 2 32 6v-93z" />
    <glyph glyph-name="F.aalt" horiz-adv-x="500" 
d="M482 548v-144h-245v-86h229v-143h-229v-175h-175v548h420z" />
    <glyph glyph-name="uniFB01.aalt" horiz-adv-x="820" 
d="M62 0v548h420v-144h-245v-86h229v-143h-229v-175h-175zM563 548h194v-548h-194v548z" />
    <glyph glyph-name="uniFB02.aalt" horiz-adv-x="1011" 
d="M482 548v-144h-245v-86h229v-143h-229v-175h-175v548h420zM757 548v-389h246v-159h-440v548h194z" />
    <glyph glyph-name="G.aalt" horiz-adv-x="649" 
d="M595 0h-163v44h-2c-35 -39 -84 -58 -148 -58c-157 0 -254 109 -254 286c0 179 114 292 299 292c152 0 261 -79 269 -198h-201c-7 36 -31 57 -70 57c-61 0 -98 -51 -98 -151s37 -154 102 -154c51 0 81 29 88 74h-99l-1 126h278v-318z" />
    <glyph glyph-name="Gbreve.aalt" horiz-adv-x="649" 
d="M557 470c23 -30 36 -65 39 -104h-201c-7 36 -31 57 -70 57c-61 0 -98 -51 -98 -151s37 -154 102 -154c51 0 81 29 88 74h-99l-1 126h278v-318h-163v44h-2c-35 -39 -84 -58 -148 -58c-157 0 -254 109 -254 286c0 179 114 292 299 292c101 0 183 -34 230 -94zM141 752h117
c2 -34 23 -51 64 -51s62 17 64 51h117c-4 -100 -69 -157 -181 -157s-177 57 -181 157z" />
    <glyph glyph-name="Gcircumflex.aalt" horiz-adv-x="649" 
d="M596 366h-201c-7 36 -31 57 -70 57c-61 0 -98 -51 -98 -151s37 -154 102 -154c51 0 81 29 88 74h-99l-1 126h278v-318h-163v44h-2c-35 -39 -84 -58 -148 -58c-157 0 -254 109 -254 286c0 179 114 292 299 292c152 0 261 -79 269 -198zM119 602l123 150h162l123 -150h-149
l-55 75l-55 -75h-149z" />
    <glyph glyph-name="Gcommaaccent.aalt" horiz-adv-x="649" 
d="M596 366h-201c-7 36 -31 57 -70 57c-61 0 -98 -51 -98 -151s37 -154 102 -154c51 0 81 29 88 74h-99l-1 126h278v-318h-163v44h-2c-35 -39 -84 -58 -148 -58c-157 0 -254 109 -254 286c0 179 114 292 299 292c152 0 261 -79 269 -198zM247 -49h143v-121l-73 -110h-70
l47 110h-47v121z" />
    <glyph glyph-name="Gdotaccent.aalt" horiz-adv-x="649" 
d="M595 0h-163v44h-2c-35 -39 -84 -58 -148 -58c-157 0 -254 109 -254 286c0 179 114 292 299 292c152 0 261 -79 269 -198h-201c-7 36 -31 57 -70 57c-61 0 -98 -51 -98 -151s37 -154 102 -154c51 0 81 29 88 74h-99l-1 126h278v-318zM418 752v-141h-192v141h192z" />
    <glyph glyph-name="H.aalt" horiz-adv-x="684" 
d="M257 548v-187h170v187h194v-548h-194v201h-170v-201h-194v548h194z" />
    <glyph glyph-name="Hbar.aalt" horiz-adv-x="684" 
d="M664 428h-43v-428h-194v201h-170v-201h-194v428h-43v74h43v46h194v-46h170v46h194v-46h43v-74zM257 428v-67h170v67h-170z" />
    <glyph glyph-name="Hcircumflex.aalt" horiz-adv-x="684" 
d="M621 0h-194v201h-170v-201h-194v548h194v-187h170v187h194v-548zM139 602l123 150h162l123 -150h-149l-55 75l-55 -75h-149z" />
    <glyph glyph-name="I.aalt" horiz-adv-x="320" 
d="M257 548v-548h-194v548h194z" />
    <glyph glyph-name="Iacute.aalt" horiz-adv-x="320" 
d="M257 548v-548h-194v548h194zM54 602l80 150h208l-142 -150h-146z" />
    <glyph glyph-name="Ibreve.aalt" horiz-adv-x="320" 
d="M63 548h194v-548h-194v548zM-5 752h113c1 -35 18 -53 52 -53c33 0 49 17 52 53h113c-3 -101 -61 -157 -165 -157s-162 56 -165 157z" />
    <glyph glyph-name="Icircumflex.aalt" horiz-adv-x="320" 
d="M63 548h194v-548h-194v548zM-29 605l113 147h152l113 -147h-141l-48 64l-47 -64h-142z" />
    <glyph glyph-name="Idieresis.aalt" horiz-adv-x="320" 
d="M63 548h194v-548h-194v548zM183 752h143v-141h-143v141zM-5 752h142v-141h-142v141z" />
    <glyph glyph-name="Idotaccent.aalt" horiz-adv-x="320" 
d="M63 0v548h194v-548h-194zM256 752v-141h-192v141h192z" />
    <glyph glyph-name="Igrave.aalt" horiz-adv-x="320" 
d="M257 548v-548h-194v548h194zM-22 752h208l80 -150h-146z" />
    <glyph glyph-name="IJ.aalt" horiz-adv-x="705" 
d="M334 1v153c10 -2 22 -3 35 -3c63 0 84 27 84 110v287h194v-342c0 -148 -73 -214 -229 -214c-27 0 -55 3 -84 9zM63 0v548h194v-548h-194z" />
    <glyph glyph-name="Imacron.aalt" horiz-adv-x="320" 
d="M63 548h194v-548h-194v548zM3 736h313v-116h-313v116z" />
    <glyph glyph-name="Iogonek.aalt" horiz-adv-x="320" 
d="M20 -105c0 43 30 74 90 105h-47v548h194v-548c-44 -28 -60 -48 -60 -71c0 -18 10 -27 31 -27c13 0 23 2 32 6v-93c-30 -11 -65 -16 -106 -16c-89 0 -134 35 -134 96z" />
    <glyph glyph-name="Itilde.aalt" horiz-adv-x="320" 
d="M257 548v-548h-194v548h194zM305 639c-21 -27 -49 -41 -86 -41c-27 0 -45 9 -72 25c-6 4 -35 21 -46 18c-20 0 -31 -14 -34 -43h-86c5 97 45 154 120 154c28 0 46 -9 73 -25c19 -12 30 -17 45 -17c20 0 31 14 33 42h87c-2 -48 -13 -86 -34 -113z" />
    <glyph glyph-name="J.c2sc" horiz-adv-x="385" 
d="M49 151c63 0 84 27 84 110v287h194v-342c0 -148 -73 -214 -229 -214c-27 0 -55 3 -84 9v153c10 -2 22 -3 35 -3z" />
    <glyph glyph-name="Jcircumflex.aalt" horiz-adv-x="385" 
d="M115 175c12 16 18 45 18 86v287h194v-342c0 -148 -73 -214 -229 -214c-27 0 -55 3 -84 9v153c10 -2 22 -3 35 -3c31 0 53 8 66 24zM147 752h152l113 -147h-141l-48 64l-47 -64h-142z" />
    <glyph glyph-name="K.aalt" horiz-adv-x="644" 
d="M63 0v548h194v-226h3l138 226h232l-193 -258l204 -290h-239l-142 240h-3v-240h-194z" />
    <glyph glyph-name="Kcommaaccent.aalt" horiz-adv-x="644" 
d="M641 0h-239l-142 240h-3v-240h-194v548h194v-226h3l138 226h232l-193 -258zM397 -49v-121l-73 -110h-70l47 110h-47v121h143z" />
    <glyph glyph-name="L.aalt" horiz-adv-x="511" 
d="M63 548h194v-389h246v-159h-440v548z" />
    <glyph glyph-name="Lacute.aalt" horiz-adv-x="511" 
d="M257 548v-389h246v-159h-440v548h194zM89 602l80 150h208l-142 -150h-146z" />
    <glyph glyph-name="Lcaron.aalt" horiz-adv-x="511" 
d="M257 548v-389h246v-159h-440v548h194zM308 548h151l-64 -178h-108z" />
    <glyph glyph-name="Lcommaaccent.aalt" horiz-adv-x="511" 
d="M63 0v548h194v-389h246v-159h-440zM241 -170h-47v121h143v-121l-73 -110h-70z" />
    <glyph glyph-name="Ldot.aalt" horiz-adv-x="578" 
d="M63 0v548h194v-389h246v-159h-440zM534 455v-172h-171v172h171z" />
    <glyph glyph-name="glyph418" horiz-adv-x="385" 
d="M49 151c63 0 84 27 84 110v287h194v-342c0 -148 -73 -214 -229 -214c-27 0 -55 3 -84 9v153c10 -2 22 -3 35 -3zM116 602l80 150h208l-142 -150h-146z" />
    <glyph glyph-name="Lslash.aalt" horiz-adv-x="515" 
d="M9 177v120l57 32v219h195v-123l104 59v-121l-104 -58v-146h246v-159h-441v209z" />
    <glyph glyph-name="M.aalt" horiz-adv-x="951" 
d="M889 0h-183v258c0 77 2 143 5 197h-2c-17 -79 -32 -144 -45 -196l-67 -259h-243l-67 259c-16 65 -31 130 -44 196h-2c3 -58 4 -124 4 -197v-258h-182v548h313l59 -227c16 -63 29 -129 40 -200h2c9 62 22 129 40 200l58 227h314v-548z" />
    <glyph glyph-name="N.aalt" horiz-adv-x="763" 
d="M63 0v548h296l83 -204c27 -63 52 -131 75 -204h3c-5 66 -7 138 -7 216v192h188v-548h-297l-83 204c-31 77 -56 145 -75 205h-2c4 -57 6 -130 6 -217v-192h-187z" />
    <glyph glyph-name="Nacute.aalt" horiz-adv-x="763" 
d="M701 0h-297l-83 204c-31 77 -56 145 -75 205h-2c4 -57 6 -130 6 -217v-192h-187v548h296l83 -204c27 -63 52 -131 75 -204h3c-5 66 -7 138 -7 216v192h188v-548zM356 752h208l-142 -150h-146z" />
    <glyph glyph-name="Ncaron.aalt" horiz-adv-x="763" 
d="M701 0h-297l-83 204c-31 77 -56 145 -75 205h-2c4 -57 6 -130 6 -217v-192h-187v548h296l83 -204c27 -63 52 -131 75 -204h3c-5 66 -7 138 -7 216v192h188v-548zM178 752h149l55 -75l55 75h149l-123 -150h-162z" />
    <glyph glyph-name="Ncommaaccent.aalt" horiz-adv-x="763" 
d="M701 0h-297l-83 204c-31 77 -56 145 -75 205h-2c4 -57 6 -130 6 -217v-192h-187v548h296l83 -204c27 -63 52 -131 75 -204h3c-5 66 -7 138 -7 216v192h188v-548zM357 -170h-47v121h143v-121l-73 -110h-70z" />
    <glyph glyph-name="Eng.aalt" horiz-adv-x="682" 
d="M620 2c0 -113 -75 -170 -188 -170c-35 0 -63 3 -85 10v121c9 -1 17 -2 24 -2c31 0 48 14 48 39c0 7 -2 15 -5 23c-4 8 -13 25 -27 50l-73 133c-25 45 -48 94 -70 148h-2c5 -51 8 -111 8 -178v-176h-187v548h235l68 -123c30 -57 54 -106 72 -149h2c-5 53 -8 113 -8 178v94
h188v-546z" />
    <glyph glyph-name="Ntilde.aalt" horiz-adv-x="763" 
d="M520 140c-5 66 -7 138 -7 216v192h188v-548h-297l-83 204c-31 77 -56 145 -75 205h-2c4 -57 6 -130 6 -217v-192h-187v548h296l83 -204c27 -63 52 -131 75 -204h3zM218 712c22 27 53 40 93 40c31 0 51 -8 84 -24c4 -1 31 -16 50 -16c24 0 36 12 39 40h99
c-4 -95 -50 -152 -130 -152c-31 0 -51 8 -84 24c-24 12 -35 17 -50 17c-24 0 -36 -13 -40 -41h-99c3 48 15 85 38 112z" />
    <glyph glyph-name="O.aalt" horiz-adv-x="636" 
d="M608 274c0 -176 -113 -290 -290 -290s-290 114 -290 290s113 290 290 290s290 -114 290 -290zM250 172c15 -23 38 -34 67 -34c61 0 92 45 92 136s-31 136 -91 136s-91 -45 -91 -136c0 -45 8 -79 23 -102z" />
    <glyph glyph-name="Oacute.aalt" horiz-adv-x="636" 
d="M573 121c-48 -88 -138 -137 -255 -137c-177 0 -290 114 -290 290s113 290 290 290s290 -114 290 -290c0 -58 -12 -109 -35 -153zM250 172c15 -23 38 -34 67 -34c61 0 92 45 92 136s-31 136 -91 136s-91 -45 -91 -136c0 -45 8 -79 23 -102zM292 752h208l-142 -150h-146z
" />
    <glyph glyph-name="Obreve.aalt" horiz-adv-x="636" 
d="M608 274c0 -176 -113 -290 -290 -290s-290 114 -290 290s113 290 290 290s290 -114 290 -290zM250 172c15 -23 38 -34 67 -34c61 0 92 45 92 136s-31 136 -91 136s-91 -45 -91 -136c0 -45 8 -79 23 -102zM137 752h117c2 -34 23 -51 64 -51s62 17 64 51h117
c-4 -100 -69 -157 -181 -157s-177 57 -181 157z" />
    <glyph glyph-name="Ocircumflex.aalt" horiz-adv-x="636" 
d="M608 274c0 -176 -113 -290 -290 -290s-290 114 -290 290s113 290 290 290s290 -114 290 -290zM250 172c15 -23 38 -34 67 -34c61 0 92 45 92 136s-31 136 -91 136s-91 -45 -91 -136c0 -45 8 -79 23 -102zM114 602l123 150h162l123 -150h-149l-55 75l-55 -75h-149z" />
    <glyph glyph-name="Odieresis.aalt" horiz-adv-x="636" 
d="M608 274c0 -176 -113 -290 -290 -290s-290 114 -290 290s113 290 290 290s290 -114 290 -290zM250 172c15 -23 38 -34 67 -34c61 0 92 45 92 136s-31 136 -91 136s-91 -45 -91 -136c0 -45 8 -79 23 -102zM518 752v-141h-163v141h163zM119 611v141h162v-141h-162z" />
    </font>
</defs>
</svg>
