<?xml version="1.0" standalone="no"?>
<!DOCTYPE svg PUBLIC "-//W3C//DTD SVG 1.1//EN" "http://www.w3.org/Graphics/SVG/1.1/DTD/svg11.dtd" >
<svg xmlns="http://www.w3.org/2000/svg" xmlns:xlink="http://www.w3.org/1999/xlink" version="1.1">
<metadata>
Created by FontForge 20190801 at Wed Nov 27 11:24:19 2019
 By Jimmy Wärting
Copyright \(c\) 2015 Monotype Imaging Inc.  All rights reserved.
</metadata>
<defs>
<font id="NeueHaasUnica-UltraLight" horiz-adv-x="538" >
  <font-face 
    font-family="Neue Haas Unica"
    font-weight="250"
    font-stretch="normal"
    units-per-em="1000"
    panose-1="2 11 2 4 3 2 6 2 2 3"
    ascent="800"
    descent="-200"
    x-height="508"
    cap-height="712"
    bbox="-500 -275 1036 1042"
    underline-thickness="50"
    underline-position="-125"
    stemh="87"
    stemv="26"
    unicode-range="U+000D-FEFF"
  />
<missing-glyph horiz-adv-x="580" 
d="M430 -65h-280c-73 0 -120 45 -120 120v602c0 75 47 120 120 120h280c75 0 120 -45 120 -120v-602c0 -75 -45 -120 -120 -120zM506 -21c19 19 28 44 28 76v602c0 64 -40 104 -104 104h-280c-64 0 -104 -40 -104 -104v-602c0 -64 40 -104 104 -104h280c32 0 57 9 76 28z
M302 306c-21 -29 -28 -62 -28 -130h-13v17c0 90 13 117 81 175c34 29 57 53 68 72c11 18 17 40 17 65c0 36 -13 65 -39 88c-27 23 -60 34 -101 34c-85 0 -139 -49 -144 -136h-16c7 97 67 152 160 152c45 0 83 -13 112 -38c29 -26 44 -59 44 -100c0 -28 -6 -52 -18 -72
s-36 -45 -72 -76c-23 -20 -40 -37 -51 -51zM258 65v57h18v-57h-18z" />
    <glyph glyph-name="uni0066_uni0066" unicode="ff" horiz-adv-x="469" 
d="M454 696c-7 2 -16 3 -26 3c-55 0 -83 -35 -83 -105v-86h108v-16h-108v-492h-16v492h-202v-492h-16v492h-96v16h96v86c0 80 35 121 99 121c9 0 18 -1 26 -3v-16c-7 2 -15 3 -26 3c-55 0 -83 -35 -83 -105v-86h202v86c0 80 35 121 99 121c9 0 18 -1 26 -3v-16z" />
    <glyph glyph-name="uni0066_uni0066_uni0069" unicode="ffi" horiz-adv-x="667" 
d="M111 508v86c0 80 35 121 99 121c9 0 18 -1 26 -3v-16c-7 2 -15 3 -26 3c-55 0 -83 -35 -83 -105v-86h202v86c0 80 35 121 99 121c9 0 18 -1 26 -3v-16c-7 2 -16 3 -26 3c-55 0 -83 -35 -83 -105v-86h108v-16h-108v-492h-16v492h-202v-492h-16v492h-96v16h96zM560 508h16
v-508h-16v508zM576 712v-77h-16v77h16z" />
    <glyph glyph-name="uni0066_uni0066_uni006C" unicode="ffl" horiz-adv-x="667" 
d="M15 508h96v86c0 80 35 121 99 121c9 0 18 -1 26 -3v-16c-7 2 -15 3 -26 3c-55 0 -83 -35 -83 -105v-86h202v86c0 80 35 121 99 121c9 0 18 -1 26 -3v-16c-7 2 -16 3 -26 3c-55 0 -83 -35 -83 -105v-86h108v-16h-108v-492h-16v492h-202v-492h-16v492h-96v16zM560 0v712h16
v-712h-16z" />
    <glyph glyph-name="uni0066_uni0069" unicode="fi" horiz-adv-x="449" 
d="M15 492v16h96v86c0 80 35 121 99 121c9 0 18 -1 26 -3v-16c-7 2 -15 3 -26 3c-55 0 -83 -35 -83 -105v-86h108v-16h-108v-492h-16v492h-96zM358 0h-16v508h16v-508zM342 712h16v-77h-16v77z" />
    <glyph glyph-name="uni0066_uni006C" unicode="fl" horiz-adv-x="449" 
d="M15 492v16h96v86c0 80 35 121 99 121c9 0 18 -1 26 -3v-16c-7 2 -15 3 -26 3c-55 0 -83 -35 -83 -105v-86h108v-16h-108v-492h-16v492h-96zM358 0h-16v712h16v-712z" />
    <glyph glyph-name=".notdef" horiz-adv-x="580" 
d="M430 -65h-280c-73 0 -120 45 -120 120v602c0 75 47 120 120 120h280c75 0 120 -45 120 -120v-602c0 -75 -45 -120 -120 -120zM506 -21c19 19 28 44 28 76v602c0 64 -40 104 -104 104h-280c-64 0 -104 -40 -104 -104v-602c0 -64 40 -104 104 -104h280c32 0 57 9 76 28z
M302 306c-21 -29 -28 -62 -28 -130h-13v17c0 90 13 117 81 175c34 29 57 53 68 72c11 18 17 40 17 65c0 36 -13 65 -39 88c-27 23 -60 34 -101 34c-85 0 -139 -49 -144 -136h-16c7 97 67 152 160 152c45 0 83 -13 112 -38c29 -26 44 -59 44 -100c0 -28 -6 -52 -18 -72
s-36 -45 -72 -76c-23 -20 -40 -37 -51 -51zM258 65v57h18v-57h-18z" />
    <glyph glyph-name="NULL" horiz-adv-x="0" 
 />
    <glyph glyph-name="NULL" horiz-adv-x="0" 
 />
    <glyph glyph-name="CR" unicode="&#xd;" horiz-adv-x="250" 
 />
    <glyph glyph-name="uni0020" unicode=" " horiz-adv-x="230" 
 />
    <glyph glyph-name="uni0000" horiz-adv-x="0" 
 />
    <glyph glyph-name="uni0021" unicode="!" horiz-adv-x="202" 
d="M92 712h18l-4 -576h-10zM92 0v69h18v-69h-18z" />
    <glyph glyph-name="uni0022" unicode="&#x22;" horiz-adv-x="278" 
d="M180 712h18l-3 -244h-12zM98 712l-3 -244h-12l-3 244h18z" />
    <glyph glyph-name="uni0023" unicode="#" horiz-adv-x="619" 
d="M581 445h-142l-34 -213h143l-3 -16h-143l-34 -216h-16l34 216h-191l-34 -216h-16l34 216h-144l3 16h144l34 213h-145l3 16h144l34 213h16l-34 -213h191l34 213h16l-34 -213h143zM198 232h191l34 213h-191z" />
    <glyph glyph-name="uni0024" unicode="$" horiz-adv-x="500" 
d="M388 617c-29 33 -72 50 -131 51v-311c45 -13 81 -25 107 -37c25 -12 46 -30 63 -54s25 -57 25 -99c0 -108 -74 -176 -195 -177v-89h-16v89c-129 6 -193 83 -193 230h16c0 -137 57 -209 177 -214v339c-43 12 -77 24 -100 35s-42 27 -57 49s-23 53 -23 92
c0 103 63 162 180 163v80h16v-80c127 -3 189 -73 189 -218h-16c0 68 -14 118 -42 151zM436 167c0 75 -32 117 -79 139c-24 11 -57 22 -100 34v-334c112 1 179 62 179 161zM77 521c0 -69 27 -106 71 -126c21 -11 52 -22 93 -34v307c-108 -1 -164 -54 -164 -147z" />
    <glyph glyph-name="uni0025" unicode="%" horiz-adv-x="749" 
d="M78 637c21 31 52 47 93 47c81 0 126 -65 126 -181c0 -115 -45 -178 -126 -178s-126 63 -126 178c0 58 11 103 33 134zM485 302c21 31 52 47 93 47c81 0 126 -65 126 -181c0 -115 -45 -178 -126 -178s-126 63 -126 178c0 58 11 103 33 134zM89 383c19 -28 46 -42 82 -42
c72 0 110 57 110 162c0 107 -38 165 -110 165s-110 -58 -110 -165c0 -53 9 -93 28 -120zM660 48c19 27 28 67 28 120c0 107 -38 165 -110 165s-110 -58 -110 -165c0 -105 38 -162 110 -162c36 0 63 14 82 42zM554 704h18l-377 -734h-18z" />
    <glyph glyph-name="uni0026" unicode="&#x26;" horiz-adv-x="703" 
d="M540 123c-66 -89 -150 -133 -252 -133c-135 0 -215 80 -215 193c0 49 14 89 43 120c28 31 75 63 140 96c-42 41 -70 74 -84 100c-14 25 -21 54 -21 85c0 40 13 73 38 99s58 39 97 39c41 0 74 -13 99 -40s38 -61 38 -101c0 -80 -40 -134 -139 -186l254 -248
c42 63 63 146 63 248h16c0 -107 -22 -194 -67 -259l139 -136h-23zM89 183c0 -53 18 -95 53 -128s84 -49 146 -49c97 0 177 43 241 128l-261 254c-131 -68 -176 -108 -179 -205zM167 584c0 -29 7 -56 21 -81s42 -57 83 -96c100 51 136 99 136 174c0 35 -11 65 -33 89
c-23 24 -52 36 -88 36c-69 0 -119 -51 -119 -122z" />
    <glyph glyph-name="uni0027" unicode="'" horiz-adv-x="178" 
d="M80 712h18l-3 -244h-12z" />
    <glyph glyph-name="uni0028" unicode="(" horiz-adv-x="230" 
d="M87 538c20 69 52 136 95 203h18c-45 -68 -77 -136 -97 -205c-21 -69 -31 -149 -31 -239s10 -169 31 -238c20 -70 52 -138 97 -206h-18c-43 67 -75 134 -95 204c-21 69 -31 149 -31 240s10 172 31 241z" />
    <glyph glyph-name="uni0029" unicode=")" horiz-adv-x="230" 
d="M128 59c20 69 30 148 30 238s-10 170 -30 239c-21 69 -53 137 -98 205h18c43 -67 75 -134 96 -203c20 -69 30 -150 30 -241s-10 -171 -30 -240c-21 -69 -53 -137 -96 -204h-18c45 68 77 137 98 206z" />
    <glyph glyph-name="uni002A" unicode="*" horiz-adv-x="370" 
d="M40 600l6 18l133 -47l-3 141h18l-3 -141l133 47l6 -18l-135 -40l85 -113l-14 -10l-81 116l-81 -116l-14 10l85 113z" />
    <glyph glyph-name="uni002B" unicode="+" horiz-adv-x="566" 
d="M75 325h200v200h16v-200h200v-16h-200v-200h-16v200h-200v16z" />
    <glyph glyph-name="uni002C" unicode="," horiz-adv-x="136" 
d="M70 0v72h16v-72l-35 -127h-14z" />
    <glyph glyph-name="uni002D" unicode="-" horiz-adv-x="274" 
d="M244 300v-16h-214v16h214z" />
    <glyph glyph-name="uni002E" unicode="." horiz-adv-x="136" 
d="M77 72v-72h-18v72h18z" />
    <glyph glyph-name="uni002F" unicode="/" horiz-adv-x="395" 
d="M327 745h17l-297 -834h-17z" />
    <glyph glyph-name="uni0030" unicode="0" horiz-adv-x="520" 
d="M260 684c143 0 216 -119 216 -347c0 -229 -73 -347 -216 -347s-216 118 -216 347c0 228 73 347 216 347zM260 668c-133 0 -200 -110 -200 -331s67 -331 200 -331s200 110 200 331s-67 331 -200 331z" />
    <glyph glyph-name="uni0031" unicode="1" horiz-adv-x="520" 
d="M118 546v16c95 0 135 31 146 112h16v-674h-16v620h-1c-16 -51 -62 -74 -145 -74z" />
    <glyph glyph-name="uni0032" unicode="2" horiz-adv-x="520" 
d="M465 0h-414l-1 16c2 122 30 178 198 278c51 29 89 53 113 70c23 17 41 36 54 58s19 50 19 83c0 48 -16 87 -47 118c-32 30 -74 45 -126 45c-111 0 -176 -65 -185 -174h-16c9 117 82 190 201 190c113 0 189 -75 189 -179c0 -72 -28 -116 -78 -152
c-25 -19 -64 -43 -115 -72c-166 -97 -189 -150 -191 -265h399v-16z" />
    <glyph glyph-name="uni0033" unicode="3" horiz-adv-x="520" 
d="M464 172c0 -105 -92 -182 -215 -182c-62 0 -111 17 -146 52c-36 35 -54 81 -54 138h16c0 -105 69 -174 184 -174c113 0 199 71 199 166c0 104 -75 164 -199 164h-46v16h46c117 0 184 59 184 158c0 47 -17 86 -51 115c-35 29 -80 43 -137 43c-108 0 -177 -64 -177 -172
h-16c0 117 76 188 193 188c121 0 204 -71 204 -174c0 -89 -50 -145 -133 -165v-1c92 -20 148 -77 148 -172z" />
    <glyph glyph-name="uni0034" unicode="4" horiz-adv-x="520" 
d="M329 674h25v-451h140v-16h-140v-207h-16v207h-317v20zM338 223v435h-1l-300 -435h301z" />
    <glyph glyph-name="uni0035" unicode="5" horiz-adv-x="520" 
d="M429 658h-314l-32 -326h1c29 63 89 99 170 99c63 0 112 -20 149 -59s55 -92 55 -159s-19 -121 -57 -162c-39 -41 -90 -61 -154 -61c-113 0 -185 69 -185 182h16c0 -104 65 -166 169 -166c60 0 108 19 143 57c35 37 52 87 52 150c0 125 -72 202 -188 202
c-88 0 -149 -44 -176 -132l-15 1l38 390h328v-16z" />
    <glyph glyph-name="uni0036" unicode="6" horiz-adv-x="520" 
d="M445 98c-35 -69 -98 -108 -178 -108c-140 0 -214 105 -214 314c0 248 83 380 224 380c100 0 164 -61 181 -164h-16c-17 95 -73 148 -165 148c-135 0 -213 -132 -209 -400h2c8 48 29 88 64 120c35 31 78 47 129 47c123 0 207 -89 207 -219c0 -45 -8 -84 -25 -118zM129 67
c32 -41 78 -61 138 -61c57 0 102 19 136 58c34 38 51 89 51 152c0 61 -17 111 -52 148s-82 55 -139 55c-105 0 -183 -84 -183 -195c0 -64 16 -116 49 -157z" />
    <glyph glyph-name="uni0037" unicode="7" horiz-adv-x="520" 
d="M41 674h427v-16c-65 -96 -120 -195 -167 -298s-85 -223 -116 -360h-17c32 141 71 262 118 364c46 102 101 200 164 294h-409v16z" />
    <glyph glyph-name="uni0038" unicode="8" horiz-adv-x="520" 
d="M429 599c17 -27 25 -57 25 -91c0 -83 -55 -143 -135 -159v-1c88 -21 151 -84 151 -168c0 -111 -89 -190 -210 -190s-210 79 -210 190c0 84 63 147 151 168v1c-80 16 -135 76 -135 159c0 102 82 176 194 176c75 0 136 -32 169 -85zM429 261c-35 49 -96 79 -169 79
c-110 0 -194 -70 -194 -160c0 -102 82 -174 194 -174s194 72 194 174c0 29 -8 56 -25 81zM388 624c-33 29 -76 44 -128 44s-95 -15 -128 -44c-33 -30 -50 -69 -50 -116c0 -45 16 -81 49 -109c33 -29 76 -43 129 -43s96 14 129 43c33 28 49 64 49 109c0 47 -17 86 -50 116z
" />
    <glyph glyph-name="uni0039" unicode="9" horiz-adv-x="520" 
d="M450 406c-8 -48 -29 -88 -64 -119c-35 -32 -78 -48 -129 -48c-123 0 -207 89 -207 219c0 135 83 226 203 226c140 0 214 -105 214 -314c0 -248 -83 -380 -224 -380c-100 0 -164 61 -181 164h16c17 -95 73 -148 165 -148c135 0 213 132 209 400h-2zM66 458
c0 -61 18 -110 53 -147s81 -56 138 -56c105 0 183 84 183 195c0 64 -16 116 -48 157c-33 41 -79 61 -139 61c-57 0 -102 -19 -136 -57c-34 -39 -51 -90 -51 -153z" />
    <glyph glyph-name="uni003A" unicode=":" horiz-adv-x="136" 
d="M59 436v72h18v-72h-18zM59 0v72h18v-72h-18z" />
    <glyph glyph-name="uni003B" unicode=";" horiz-adv-x="138" 
d="M37 -127l33 127v72h16v-72l-35 -127h-14zM88 508v-72h-18v72h18z" />
    <glyph glyph-name="uni003C" unicode="&#x3c;" horiz-adv-x="566" 
d="M491 519v-18l-400 -183v-2l400 -183v-18l-416 191v22z" />
    <glyph glyph-name="uni003D" unicode="=" horiz-adv-x="566" 
d="M75 246v16h416v-16h-416zM75 371v16h416v-16h-416z" />
    <glyph glyph-name="uni003E" unicode="&#x3e;" horiz-adv-x="566" 
d="M491 328v-22l-416 -191v18l400 183v2l-400 183v18z" />
    <glyph glyph-name="uni003F" unicode="?" horiz-adv-x="468" 
d="M419 488c-13 -36 -42 -70 -103 -122c-87 -77 -97 -98 -100 -229h-13v21c2 114 16 144 102 219c90 76 107 109 107 174c0 90 -76 155 -177 155c-108 0 -175 -62 -183 -173h-16c9 121 82 189 199 189c111 0 193 -72 193 -171c0 -24 -3 -45 -9 -63zM200 0v69h18v-69h-18z
" />
    <glyph glyph-name="uni0040" unicode="@" horiz-adv-x="837" 
d="M546 392h1c5 32 12 71 21 116h16c-12 -58 -22 -116 -30 -174c-9 -58 -13 -101 -13 -129c0 -72 25 -104 76 -104c76 0 139 74 139 223c0 201 -130 332 -329 332c-214 4 -348 -171 -346 -383c0 -213 129 -342 331 -342c87 0 163 21 226 62l9 -14c-67 -43 -146 -64 -235 -64
c-211 0 -347 136 -347 358c-2 221 138 402 362 399c209 0 345 -138 345 -348c0 -158 -71 -239 -155 -239c-59 0 -91 39 -91 120h-1c-28 -80 -80 -120 -147 -120c-88 0 -139 66 -139 185c0 146 75 248 179 248c75 0 123 -50 128 -126zM504 464c-21 25 -49 38 -86 38
c-97 0 -163 -94 -163 -232c0 -111 44 -169 123 -169c84 0 156 77 156 257c0 45 -10 81 -30 106z" />
    <glyph glyph-name="uni0041" unicode="A" horiz-adv-x="634" 
d="M6 0l300 712h21l300 -712h-17l-112 266h-363l-112 -266h-17zM142 282h350l-175 414h-1z" />
    <glyph glyph-name="uni0042" unicode="B" horiz-adv-x="588" 
d="M532 189c0 -116 -78 -189 -209 -189h-218v712h197c141 0 213 -66 213 -174c0 -93 -56 -156 -149 -172v-1c99 -11 166 -77 166 -176zM121 357v-341h202c121 0 193 66 193 173c0 100 -70 168 -213 168h-182zM121 696v-323h182c133 0 196 68 196 165c0 99 -65 158 -197 158
h-181z" />
    <glyph glyph-name="uni0043" unicode="C" horiz-adv-x="660" 
d="M607 233c-16 -142 -115 -243 -269 -243c-177 0 -291 144 -291 366s117 366 298 366c155 0 250 -108 258 -241h-16c-10 126 -95 225 -242 225c-172 0 -282 -137 -282 -350s107 -350 275 -350c144 0 239 95 253 227h16z" />
    <glyph glyph-name="uni0044" unicode="D" horiz-adv-x="708" 
d="M301 712c232 0 360 -128 360 -356s-128 -356 -360 -356h-196v712h196zM121 16h180c223 0 344 121 344 340s-121 340 -344 340h-180v-680z" />
    <glyph glyph-name="uni0045" unicode="E" horiz-adv-x="586" 
d="M105 712h407v-16h-391v-322h374v-16h-374v-342h405v-16h-421v712z" />
    <glyph glyph-name="uni0046" unicode="F" 
d="M503 712v-16h-382v-317h363v-16h-363v-363h-16v712h398z" />
    <glyph glyph-name="uni0047" unicode="G" horiz-adv-x="697" 
d="M612 0h-16v95c0 55 1 97 3 126h-1c-24 -144 -119 -231 -259 -231c-181 0 -292 137 -292 362c0 229 118 370 307 370c75 0 134 -20 179 -59s70 -91 76 -156h-16c-12 120 -99 199 -239 199c-180 0 -291 -135 -291 -354c0 -215 105 -346 276 -346c75 0 136 26 185 79
c49 52 73 136 73 253h-238v16h253v-354z" />
    <glyph glyph-name="uni0048" unicode="H" horiz-adv-x="705" 
d="M121 712v-334h463v334h16v-712h-16v362h-463v-362h-16v712h16z" />
    <glyph glyph-name="uni0049" unicode="I" horiz-adv-x="226" 
d="M121 712v-712h-16v712h16z" />
    <glyph glyph-name="uni004A" unicode="J" horiz-adv-x="303" 
d="M15 1v16c13 -3 26 -5 39 -5c85 0 133 55 133 159v541h16v-541c0 -113 -54 -175 -149 -175c-15 0 -28 2 -39 5z" />
    <glyph glyph-name="uni004B" unicode="K" horiz-adv-x="532" 
d="M105 0v712h16v-332h1l350 332h24l-357 -338l389 -374h-24l-382 368h-1v-368h-16z" />
    <glyph glyph-name="uni004C" unicode="L" horiz-adv-x="525" 
d="M105 712h16v-696h399v-16h-415v712z" />
    <glyph glyph-name="uni004D" unicode="M" horiz-adv-x="849" 
d="M744 0h-16v696h-1l-292 -696h-21l-292 696h-1v-696h-16v712h27l292 -696h1l292 696h27v-712z" />
    <glyph glyph-name="uni004E" unicode="N" horiz-adv-x="718" 
d="M105 712h26l465 -697h1v697h16v-712h-26l-465 697h-1v-697h-16v712z" />
    <glyph glyph-name="uni004F" unicode="O" horiz-adv-x="702" 
d="M655 356c0 -222 -118 -366 -304 -366s-304 144 -304 366s118 366 304 366s304 -144 304 -366zM63 356c0 -213 114 -350 288 -350s288 137 288 350s-114 350 -288 350s-288 -137 -288 -350z" />
    <glyph glyph-name="uni0050" unicode="P" horiz-adv-x="575" 
d="M105 0v712h227c139 0 213 -76 213 -188s-74 -188 -213 -188h-211v-336h-16zM332 352c129 0 197 69 197 172s-68 172 -197 172h-211v-344h211z" />
    <glyph glyph-name="uni0051" unicode="Q" horiz-adv-x="702" 
d="M629 191c-17 -49 -42 -90 -74 -122l81 -90l-11 -11l-81 91c-50 -46 -113 -69 -189 -69c-186 0 -308 144 -308 366s122 366 308 366c182 0 300 -144 300 -366c0 -61 -9 -116 -26 -165zM63 356c0 -213 115 -350 292 -350c71 0 131 22 178 65l-93 104l11 11l94 -105
c60 61 94 158 94 275c0 213 -112 350 -284 350c-177 0 -292 -137 -292 -350z" />
    <glyph glyph-name="uni0052" unicode="R" horiz-adv-x="591" 
d="M542 0l-77 210c-39 101 -65 129 -159 132h-185v-342h-16v712h185c152 0 230 -66 230 -179c0 -101 -59 -167 -154 -183v-1c27 -7 49 -20 65 -39s32 -50 49 -95l79 -215h-17zM121 358h185c131 0 198 72 198 175c0 104 -71 163 -214 163h-169v-338z" />
    <glyph glyph-name="uni0053" unicode="S" horiz-adv-x="576" 
d="M511 173c0 -113 -85 -183 -222 -183c-155 0 -237 83 -237 248h16c0 -155 74 -232 221 -232c129 0 206 63 206 167c0 80 -33 121 -89 145c-29 11 -71 24 -127 38c-156 39 -211 75 -215 187c0 54 19 97 57 130c37 33 87 49 150 49c151 0 228 -80 228 -237h-16
c0 147 -71 221 -212 221c-117 0 -191 -64 -191 -163c4 -104 54 -134 202 -171c57 -14 102 -28 133 -41c31 -14 54 -33 71 -57c17 -25 25 -58 25 -101z" />
    <glyph glyph-name="uni0054" unicode="T" horiz-adv-x="568" 
d="M5 712h558v-16h-271v-696h-16v696h-271v16z" />
    <glyph glyph-name="uni0055" unicode="U" horiz-adv-x="670" 
d="M99 712h16v-452c0 -169 76 -254 220 -254s220 85 220 254v452h16v-452c0 -177 -83 -270 -236 -270s-236 93 -236 270v452z" />
    <glyph glyph-name="uni0056" unicode="V" horiz-adv-x="605" 
d="M8 712h17l277 -695h1l277 695h17l-284 -712h-21z" />
    <glyph glyph-name="uni0057" unicode="W" horiz-adv-x="861" 
d="M849 712l-202 -712h-23l-193 696h-1l-193 -696h-23l-202 712h16l197 -695h1l192 695h25l192 -695h1l197 695h16z" />
    <glyph glyph-name="uni0058" unicode="X" horiz-adv-x="593" 
d="M286 366l-259 346h20l249 -333h1l249 333h20l-259 -346l274 -366h-20l-264 353h-1l-264 -353h-20z" />
    <glyph glyph-name="uni0059" unicode="Y" horiz-adv-x="570" 
d="M7 712h19l258 -377h1l259 377h19l-270 -394v-318h-16v318z" />
    <glyph glyph-name="uni005A" unicode="Z" horiz-adv-x="547" 
d="M17 22l475 673v1h-470v16h486v-22l-475 -673v-1h497v-16h-513v22z" />
    <glyph glyph-name="uni005B" unicode="[" horiz-adv-x="238" 
d="M80 741h138v-16h-122v-857h122v-16h-138v889z" />
    <glyph glyph-name="uni005C" unicode="\" horiz-adv-x="395" 
d="M51 745h17l297 -834h-17z" />
    <glyph glyph-name="uni005D" unicode="]" horiz-adv-x="238" 
d="M20 725v16h138v-889h-138v16h122v857h-122z" />
    <glyph glyph-name="uni005E" unicode="^" horiz-adv-x="384" 
d="M181 712h22l166 -341h-18l-158 325h-2l-158 -325h-18z" />
    <glyph glyph-name="uni005F" unicode="_" horiz-adv-x="500" 
d="M500 -50v-16h-500v16h500z" />
    <glyph glyph-name="uni0060" unicode="`" horiz-adv-x="215" 
d="M50 712h21l94 -138h-17z" />
    <glyph glyph-name="uni0061" unicode="a" horiz-adv-x="494" 
d="M411 114c0 -43 3 -81 9 -114h-16c-5 34 -7 66 -7 97c0 12 0 22 1 29h-1c-27 -84 -97 -136 -190 -136c-100 0 -166 55 -166 140c0 81 50 128 175 147c57 9 116 16 179 23v33c0 115 -59 169 -152 169c-103 0 -158 -58 -165 -147h-16c7 100 72 163 181 163
c103 0 168 -61 168 -185v-219zM98 40c27 -23 64 -34 109 -34c59 0 106 19 139 57c19 21 32 43 39 64s10 51 10 92v65c-75 -9 -134 -16 -177 -23c-117 -17 -161 -59 -161 -131c0 -38 14 -68 41 -90z" />
    <glyph glyph-name="uni0062" unicode="b" horiz-adv-x="545" 
d="M497 254c0 -82 -19 -146 -57 -193s-90 -71 -155 -71c-97 0 -159 66 -180 165h-1c2 -29 3 -72 3 -127v-28h-16v712h16v-232c0 -55 -1 -98 -3 -127h1c21 99 83 165 180 165c65 0 117 -23 155 -70s57 -112 57 -194zM106 254c0 -153 68 -248 179 -248c121 0 196 93 196 248
s-75 248 -196 248c-111 0 -179 -95 -179 -248z" />
    <glyph glyph-name="uni0063" unicode="c" horiz-adv-x="493" 
d="M449 167c-5 -53 -24 -96 -58 -128c-35 -33 -78 -49 -131 -49c-132 0 -212 99 -212 264s80 264 212 264c53 0 96 -16 131 -47c34 -32 53 -74 58 -125h-16c-4 47 -22 84 -53 113c-32 29 -72 43 -120 43c-123 0 -196 -92 -196 -248s73 -248 196 -248c96 0 164 64 173 161h16
z" />
    <glyph glyph-name="uni0064" unicode="d" horiz-adv-x="545" 
d="M454 0h-16v28c0 55 1 98 3 127h-1c-21 -99 -83 -165 -180 -165c-65 0 -117 24 -155 71s-57 111 -57 193s19 147 57 194s90 70 155 70c97 0 159 -66 180 -165h1c-2 29 -3 72 -3 127v232h16v-712zM64 254c0 -155 75 -248 196 -248c111 0 179 95 179 248s-68 248 -179 248
c-121 0 -196 -93 -196 -248z" />
    <glyph glyph-name="uni0065" unicode="e" horiz-adv-x="515" 
d="M467 259h-403c0 -152 78 -253 201 -253c96 0 166 56 178 143h17c-15 -97 -90 -159 -195 -159c-132 0 -217 107 -217 274c0 155 82 254 209 254c109 0 186 -71 205 -184c3 -20 5 -45 5 -75zM451 275c0 144 -82 227 -194 227c-59 0 -105 -21 -139 -62
c-35 -42 -53 -97 -54 -165h387z" />
    <glyph glyph-name="uni0066" unicode="f" horiz-adv-x="251" 
d="M137 685c17 20 41 30 73 30c9 0 18 -1 26 -3v-16c-7 2 -15 3 -26 3c-55 0 -83 -35 -83 -105v-86h108v-16h-108v-492h-16v492h-96v16h96v86c0 40 9 70 26 91z" />
    <glyph glyph-name="uni0067" unicode="g" horiz-adv-x="545" 
d="M454 31c0 -144 -67 -220 -199 -220c-115 0 -188 58 -188 157h16c0 -89 67 -141 172 -141c122 0 183 68 183 204c0 59 1 104 2 134h-1c-25 -103 -90 -159 -179 -159c-65 0 -117 23 -155 69c-38 45 -57 108 -57 187s19 142 57 188c38 45 90 68 155 68
c89 0 154 -56 179 -159h1c-1 33 -2 83 -2 149h16v-477zM117 86c35 -43 82 -64 143 -64c55 0 98 22 130 65s48 101 48 175s-16 133 -48 176s-75 64 -130 64c-121 0 -196 -91 -196 -240c0 -75 18 -133 53 -176z" />
    <glyph glyph-name="uni0068" unicode="h" 
d="M454 0h-16v309c0 128 -57 193 -156 193c-94 0 -175 -77 -175 -184v-318h-16v712h16v-204c0 -55 -1 -97 -3 -126h1c23 80 90 136 177 136c108 0 172 -72 172 -209v-309z" />
    <glyph glyph-name="uni0069" unicode="i" horiz-adv-x="198" 
d="M91 0v508h16v-508h-16zM91 635v77h16v-77h-16z" />
    <glyph glyph-name="uni006A" unicode="j" horiz-adv-x="209" 
d="M9 -171c63 0 93 31 93 123v556h16v-556c0 -101 -37 -139 -109 -139c-7 0 -13 1 -18 2v16c5 -1 11 -2 18 -2zM118 712v-77h-16v77h16z" />
    <glyph glyph-name="uni006B" unicode="k" horiz-adv-x="439" 
d="M91 0v712h16v-430h1l281 226h25l-288 -232l317 -276h-24l-311 271h-1v-271h-16z" />
    <glyph glyph-name="uni006C" unicode="l" horiz-adv-x="198" 
d="M107 712v-712h-16v712h16z" />
    <glyph glyph-name="uni006D" unicode="m" horiz-adv-x="811" 
d="M727 0h-16v319c0 121 -49 183 -136 183c-90 0 -158 -69 -158 -172v-330h-16v340c0 100 -50 162 -134 162c-90 0 -160 -73 -160 -191v-311h-16v508h16c0 -54 -1 -95 -3 -123h1c23 83 82 133 162 133c79 0 131 -50 144 -130c20 80 83 130 164 130c96 0 152 -68 152 -199
v-319z" />
    <glyph glyph-name="uni006E" unicode="n" 
d="M454 0h-16v309c0 128 -57 193 -156 193c-94 0 -175 -77 -175 -184v-318h-16v508h16c0 -55 -1 -97 -3 -126h1c23 80 90 136 177 136c108 0 172 -72 172 -209v-309z" />
    <glyph glyph-name="uni006F" unicode="o" horiz-adv-x="528" 
d="M264 518c67 0 120 -23 159 -70c38 -47 57 -112 57 -194s-19 -146 -57 -193c-39 -47 -92 -71 -159 -71s-120 24 -158 71c-39 47 -58 111 -58 193s19 147 58 194c38 47 91 70 158 70zM117 72c35 -44 84 -66 147 -66c125 0 200 93 200 248s-75 248 -200 248
s-200 -93 -200 -248c0 -77 18 -138 53 -182z" />
    <glyph glyph-name="uni0070" unicode="p" horiz-adv-x="545" 
d="M440 61c-38 -47 -90 -71 -155 -71c-97 0 -159 66 -180 165h-1c2 -29 3 -72 3 -127v-213h-16v693h16v-28c0 -55 -1 -98 -3 -127h1c21 99 83 165 180 165c65 0 117 -23 155 -70s57 -112 57 -194s-19 -146 -57 -193zM106 254c0 -153 68 -248 179 -248c121 0 196 93 196 248
s-75 248 -196 248c-111 0 -179 -95 -179 -248z" />
    <glyph glyph-name="uni0071" unicode="q" horiz-adv-x="545" 
d="M454 -185h-16v324h-1c-28 -95 -89 -149 -177 -149c-65 0 -117 24 -155 71s-57 111 -57 193s19 147 57 194s90 70 155 70c87 0 149 -53 177 -149h1v139h16v-693zM116 72c35 -44 83 -66 144 -66c111 0 178 95 178 248s-67 248 -178 248c-123 0 -196 -93 -196 -248
c0 -77 17 -138 52 -182z" />
    <glyph glyph-name="uni0072" unicode="r" horiz-adv-x="319" 
d="M91 0v508h16c0 -58 -1 -102 -3 -133h1c24 89 85 135 172 135c8 0 17 -1 28 -2v-16c-11 1 -20 2 -28 2c-103 0 -170 -69 -170 -201v-293h-16z" />
    <glyph glyph-name="uni0073" unicode="s" horiz-adv-x="447" 
d="M401 128c0 -41 -16 -74 -47 -99c-32 -26 -72 -39 -121 -39c-120 0 -189 68 -189 184h16c0 -107 62 -168 173 -168c44 0 80 11 109 34s43 52 43 88c-5 82 -40 99 -172 128c-112 24 -155 47 -158 129c0 40 15 72 46 97c30 24 68 36 114 36c107 0 171 -66 171 -174h-16
c0 99 -58 158 -155 158c-84 0 -144 -46 -144 -117c3 -74 39 -88 145 -113c139 -31 182 -54 185 -144z" />
    <glyph glyph-name="uni0074" unicode="t" horiz-adv-x="270" 
d="M238 2c-12 -3 -24 -4 -35 -4c-64 0 -92 35 -92 116v378h-97v16h97v117h16v-117h106v-16h-106v-378c0 -72 21 -100 76 -100c11 0 23 1 35 4v-16z" />
    <glyph glyph-name="uni0075" unicode="u" 
d="M447 0h-16v111h-1c-29 -76 -97 -121 -174 -121c-108 0 -172 72 -172 209v309h16v-309c0 -128 57 -193 156 -193c94 0 175 77 175 184v318h16v-508z" />
    <glyph glyph-name="uni0076" unicode="v" horiz-adv-x="431" 
d="M2 508h17l196 -493h1l196 493h17l-202 -508h-23z" />
    <glyph glyph-name="uni0077" unicode="w" horiz-adv-x="742" 
d="M732 508l-170 -508h-24l-166 493h-2l-166 -493h-24l-170 508h16l165 -492h2l166 492h24l166 -492h2l165 492h16z" />
    <glyph glyph-name="uni0078" unicode="x" horiz-adv-x="440" 
d="M211 264l-190 244h20l179 -231h1l178 231h20l-189 -244l206 -264h-20l-195 251h-1l-196 -251h-20z" />
    <glyph glyph-name="uni0079" unicode="y" horiz-adv-x="431" 
d="M46 -173c66 3 96 27 157 172l-201 509h17l192 -486h1l200 486h17l-211 -514c-62 -151 -97 -180 -172 -183c-17 0 -31 2 -41 7v16c10 -5 24 -7 41 -7z" />
    <glyph glyph-name="uni007A" unicode="z" horiz-adv-x="441" 
d="M20 24l375 466v2h-365v16h381v-24l-375 -466v-2h385v-16h-401v24z" />
    <glyph glyph-name="uni007B" unicode="{" horiz-adv-x="279" 
d="M259 725c-93 0 -133 -38 -133 -133v-174c0 -68 -19 -100 -72 -120v-2c53 -20 72 -52 72 -120v-175c0 -95 40 -133 133 -133v-16h-2c-100 0 -147 46 -147 149v175c0 65 -18 91 -70 110v22c52 19 70 45 70 110v174c0 103 47 149 147 149h2v-16z" />
    <glyph glyph-name="uni007C" unicode="|" horiz-adv-x="236" 
d="M126 732v-937h-16v937h16z" />
    <glyph glyph-name="uni007D" unicode="}" horiz-adv-x="279" 
d="M239 286c-52 -19 -70 -45 -70 -110v-175c0 -103 -47 -149 -147 -149h-2v16c95 0 133 38 133 133v175c0 68 19 100 72 120v2c-53 20 -72 52 -72 120v174c0 95 -38 133 -133 133v16h2c100 0 147 -46 147 -149v-174c0 -65 18 -91 70 -110v-22z" />
    <glyph glyph-name="uni007E" unicode="~" horiz-adv-x="566" 
d="M541 381c0 -85 -49 -142 -122 -142c-55 0 -89 24 -141 71c-52 45 -82 68 -131 68c-65 0 -106 -50 -106 -126h-16c0 85 49 142 122 142c55 0 89 -24 141 -71c52 -45 82 -68 131 -68c65 0 106 50 106 126h16z" />
    <glyph glyph-name="uni00C1" unicode="&#xc1;" horiz-adv-x="634" 
d="M610 0l-112 266h-363l-112 -266h-17l300 712h21l300 -712h-17zM492 282l-175 414h-1l-174 -414h350zM368 886h22l-110 -126h-19z" />
    <glyph glyph-name="uni0102" unicode="&#x102;" horiz-adv-x="634" 
d="M610 0l-112 266h-363l-112 -266h-17l300 712h21l300 -712h-17zM492 282l-175 414h-1l-174 -414h350zM173 886h16c8 -72 52 -111 128 -111s120 39 128 111h16c-8 -80 -60 -127 -144 -127s-136 47 -144 127z" />
    <glyph glyph-name="uni00C2" unicode="&#xc2;" horiz-adv-x="634" 
d="M610 0l-112 266h-363l-112 -266h-17l300 712h21l300 -712h-17zM142 282h350l-175 414h-1zM189 760l120 126h16l120 -126h-22l-106 111l-106 -111h-22z" />
    <glyph glyph-name="uni00C4" unicode="&#xc4;" horiz-adv-x="634" 
d="M610 0l-112 266h-363l-112 -266h-17l300 712h21l300 -712h-17zM492 282l-175 414h-1l-174 -414h350zM417 856v-77h-16v77h16zM217 779v77h16v-77h-16z" />
    <glyph glyph-name="uni00C0" unicode="&#xc0;" horiz-adv-x="634" 
d="M610 0l-112 266h-363l-112 -266h-17l300 712h21l300 -712h-17zM142 282h350l-175 414h-1zM266 886l107 -126h-19l-110 126h22z" />
    <glyph glyph-name="uni0100" unicode="&#x100;" horiz-adv-x="634" 
d="M610 0l-112 266h-363l-112 -266h-17l300 712h21l300 -712h-17zM142 282h350l-175 414h-1zM430 818v-16h-226v16h226z" />
    <glyph glyph-name="uni0104" unicode="&#x104;" horiz-adv-x="634" 
d="M630 -184c-9 -3 -19 -5 -32 -5c-47 0 -71 24 -71 67s22 77 81 126l-110 262h-363l-112 -266h-17l300 712h21l300 -712c-63 -51 -84 -83 -84 -122c0 -34 18 -51 55 -51c13 0 23 2 32 5v-16zM142 282h350l-175 414h-1z" />
    <glyph glyph-name="uni00C5" unicode="&#xc5;" horiz-adv-x="634" 
d="M610 0l-112 266h-363l-112 -266h-17l300 712h21l300 -712h-17zM492 282l-175 414h-1l-174 -414h350zM233 851c0 47 39 84 84 84c47 0 84 -37 84 -84s-37 -84 -84 -84s-84 37 -84 84zM249 851c0 -37 31 -68 68 -68c39 0 68 31 68 68c0 39 -29 68 -68 68
c-37 0 -68 -29 -68 -68z" />
    <glyph glyph-name="uni01FA" unicode="&#x1fa;" horiz-adv-x="634" 
d="M6 0l300 712h21l300 -712h-17l-112 266h-363l-112 -266h-17zM492 282l-175 414h-1l-174 -414h350zM258 877c17 16 36 24 59 24c47 0 84 -37 84 -84s-37 -84 -84 -84s-84 37 -84 84c0 23 8 43 25 60zM269 769c13 -13 29 -20 48 -20c39 0 68 31 68 68c0 39 -29 68 -68 68
c-37 0 -68 -29 -68 -68c0 -19 7 -35 20 -48zM261 916l107 126h22l-110 -126h-19z" />
    <glyph glyph-name="uni00C3" unicode="&#xc3;" horiz-adv-x="634" 
d="M610 0l-112 266h-363l-112 -266h-17l300 712h21l300 -712h-17zM142 282h350l-175 414h-1zM173 795c4 52 30 81 69 81c28 0 48 -11 80 -34c28 -21 46 -31 70 -31c31 0 50 22 53 65h16c-4 -52 -30 -81 -69 -81c-28 0 -48 11 -80 34c-28 21 -46 31 -70 31
c-31 0 -50 -22 -53 -65h-16z" />
    <glyph glyph-name="uni00C6" unicode="&#xc6;" horiz-adv-x="905" 
d="M845 0h-328l-45 285h-307l-153 -285h-18l383 712h454v-16h-408l51 -322h340v-16h-338l55 -342h314v-16zM174 301h296l-63 395h-21z" />
    <glyph glyph-name="uni01FC" unicode="&#x1fc;" horiz-adv-x="905" 
d="M845 0h-328l-45 285h-307l-153 -285h-18l383 712h454v-16h-408l51 -322h340v-16h-338l55 -342h314v-16zM174 301h296l-63 395h-21zM459 760l107 126h22l-110 -126h-19z" />
    <glyph glyph-name="uni0106" unicode="&#x106;" horiz-adv-x="660" 
d="M607 233c-16 -142 -115 -243 -269 -243c-177 0 -291 144 -291 366s117 366 298 366c155 0 250 -108 258 -241h-16c-10 126 -95 225 -242 225c-172 0 -282 -137 -282 -350s107 -350 275 -350c144 0 239 95 253 227h16zM308 760h-19l107 126h22z" />
    <glyph glyph-name="uni010C" unicode="&#x10c;" horiz-adv-x="660" 
d="M587 481c-10 126 -95 225 -242 225c-172 0 -282 -137 -282 -350s107 -350 275 -350c144 0 239 95 253 227h16c-16 -142 -115 -243 -269 -243c-177 0 -291 144 -291 366s117 366 298 366c155 0 250 -108 258 -241h-16zM217 886h22l106 -111l106 111h22l-120 -126h-16z" />
    <glyph glyph-name="uni00C7" unicode="&#xc7;" horiz-adv-x="660" 
d="M552 116c21 34 34 73 39 117h16c-7 -68 -32 -124 -74 -167c-43 -44 -98 -69 -166 -75l-41 -60c6 2 13 3 21 3c52 0 81 -26 81 -67c0 -44 -34 -72 -89 -72c-30 0 -59 8 -86 23l8 14c24 -14 50 -21 78 -21c47 0 73 21 73 56s-22 52 -65 52c-12 0 -23 -2 -33 -5l-11 11
l44 65h-9c-177 0 -291 144 -291 366s117 366 298 366c155 0 250 -108 258 -241h-16c-10 126 -95 225 -242 225c-172 0 -282 -137 -282 -350s107 -350 275 -350c96 0 170 41 214 110z" />
    <glyph glyph-name="uni0108" unicode="&#x108;" horiz-adv-x="660" 
d="M587 481c-10 126 -95 225 -242 225c-172 0 -282 -137 -282 -350s107 -350 275 -350c144 0 239 95 253 227h16c-16 -142 -115 -243 -269 -243c-177 0 -291 144 -291 366s117 366 298 366c155 0 250 -108 258 -241h-16zM217 760l120 126h16l120 -126h-22l-106 111
l-106 -111h-22z" />
    <glyph glyph-name="uni010A" unicode="&#x10a;" horiz-adv-x="660" 
d="M607 233c-16 -142 -115 -243 -269 -243c-177 0 -291 144 -291 366s117 366 298 366c155 0 250 -108 258 -241h-16c-10 126 -95 225 -242 225c-172 0 -282 -137 -282 -350s107 -350 275 -350c144 0 239 95 253 227h16zM353 769h-16v77h16v-77z" />
    <glyph glyph-name="uni00D0" unicode="&#xd0;" horiz-adv-x="708" 
d="M661 356c0 -228 -128 -356 -360 -356h-196v352h-60v16h60v344h196c232 0 360 -128 360 -356zM121 368h256v-16h-256v-336h180c223 0 344 121 344 340s-121 340 -344 340h-180v-328z" />
    <glyph glyph-name="uni010E" unicode="&#x10e;" horiz-adv-x="708" 
d="M661 356c0 -228 -128 -356 -360 -356h-196v712h196c232 0 360 -128 360 -356zM301 16c223 0 344 121 344 340s-121 340 -344 340h-180v-680h180zM214 886l106 -111l106 111h22l-120 -126h-16l-120 126h22z" />
    <glyph glyph-name="uni0110" unicode="&#x110;" horiz-adv-x="708" 
d="M661 356c0 -228 -128 -356 -360 -356h-196v352h-60v16h60v344h196c232 0 360 -128 360 -356zM121 368h256v-16h-256v-336h180c223 0 344 121 344 340s-121 340 -344 340h-180v-328z" />
    <glyph glyph-name="uni00C9" unicode="&#xc9;" horiz-adv-x="586" 
d="M105 712h407v-16h-391v-322h374v-16h-374v-342h405v-16h-421v712zM360 886h22l-110 -126h-19z" />
    <glyph glyph-name="uni0114" unicode="&#x114;" horiz-adv-x="586" 
d="M526 0h-421v712h407v-16h-391v-322h374v-16h-374v-342h405v-16zM181 886c8 -72 52 -111 128 -111s120 39 128 111h16c-8 -80 -60 -127 -144 -127s-136 47 -144 127h16z" />
    <glyph glyph-name="uni011A" unicode="&#x11a;" horiz-adv-x="586" 
d="M526 0h-421v712h407v-16h-391v-322h374v-16h-374v-342h405v-16zM203 886l106 -111l106 111h22l-120 -126h-16l-120 126h22z" />
    <glyph glyph-name="uni00CA" unicode="&#xca;" horiz-adv-x="586" 
d="M526 0h-421v712h407v-16h-391v-322h374v-16h-374v-342h405v-16zM181 760l120 126h16l120 -126h-22l-106 111l-106 -111h-22z" />
    <glyph glyph-name="uni00CB" unicode="&#xcb;" horiz-adv-x="586" 
d="M526 0h-421v712h407v-16h-391v-322h374v-16h-374v-342h405v-16zM393 779v77h16v-77h-16zM209 779v77h16v-77h-16z" />
    <glyph glyph-name="uni0116" unicode="&#x116;" horiz-adv-x="586" 
d="M105 712h407v-16h-391v-322h374v-16h-374v-342h405v-16h-421v712zM317 846v-77h-16v77h16z" />
    <glyph glyph-name="uni00C8" unicode="&#xc8;" horiz-adv-x="586" 
d="M105 712h407v-16h-391v-322h374v-16h-374v-342h405v-16h-421v712zM258 886l107 -126h-19l-110 126h22z" />
    <glyph glyph-name="uni0112" unicode="&#x112;" horiz-adv-x="586" 
d="M105 712h407v-16h-391v-322h374v-16h-374v-342h405v-16h-421v712zM422 818v-16h-226v16h226z" />
    <glyph glyph-name="uni0118" unicode="&#x118;" horiz-adv-x="586" 
d="M529 -184c-9 -3 -19 -5 -32 -5c-47 0 -71 24 -71 67s21 74 77 122h-398v712h407v-16h-391v-322h374v-16h-374v-342h405v-16c-63 -51 -84 -83 -84 -122c0 -34 18 -51 55 -51c13 0 23 2 32 5v-16z" />
    <glyph glyph-name="uni011E" unicode="&#x11e;" horiz-adv-x="697" 
d="M609 507h-16c-12 120 -99 199 -239 199c-180 0 -291 -135 -291 -354c0 -215 105 -346 276 -346c75 0 136 26 185 79c49 52 73 136 73 253h-238v16h253v-354h-16v95c0 55 1 97 3 126h-1c-24 -144 -119 -231 -259 -231c-181 0 -292 137 -292 362c0 229 118 370 307 370
c75 0 134 -20 179 -59s70 -91 76 -156zM243 793c-25 22 -40 53 -44 93h16c8 -72 52 -111 128 -111s120 39 128 111h16c-8 -80 -60 -127 -144 -127c-42 0 -75 11 -100 34z" />
    <glyph glyph-name="uni011C" unicode="&#x11c;" horiz-adv-x="697" 
d="M599 221h-1c-24 -144 -119 -231 -259 -231c-181 0 -292 137 -292 362c0 229 118 370 307 370c75 0 134 -20 179 -59s70 -91 76 -156h-16c-12 120 -99 199 -239 199c-180 0 -291 -135 -291 -354c0 -215 105 -346 276 -346c75 0 136 26 185 79c49 52 73 136 73 253h-238v16
h253v-354h-16v95c0 55 1 97 3 126zM215 760l120 126h16l120 -126h-22l-106 111l-106 -111h-22z" />
    <glyph glyph-name="uni0122" unicode="&#x122;" horiz-adv-x="697" 
d="M596 0v95c0 55 1 97 3 126h-1c-24 -144 -119 -231 -259 -231c-181 0 -292 137 -292 362c0 229 118 370 307 370c75 0 134 -20 179 -59s70 -91 76 -156h-16c-12 120 -99 199 -239 199c-180 0 -291 -135 -291 -354c0 -215 105 -346 276 -346c75 0 136 26 185 79
c49 52 73 136 73 253h-238v16h253v-354h-16zM307 -239l28 94v66h16v-66l-30 -94h-14z" />
    <glyph glyph-name="uni0120" unicode="&#x120;" horiz-adv-x="697" 
d="M598 221c-24 -144 -119 -231 -259 -231c-181 0 -292 137 -292 362c0 229 118 370 307 370c75 0 134 -20 179 -59s70 -91 76 -156h-16c-12 120 -99 199 -239 199c-180 0 -291 -135 -291 -354c0 -215 105 -346 276 -346c75 0 136 26 185 79c49 52 73 136 73 253h-238v16
h253v-354h-16v95c0 55 1 97 3 126h-1zM335 769v77h16v-77h-16z" />
    <glyph glyph-name="uni0126" unicode="&#x126;" horiz-adv-x="705" 
d="M660 596h-60v-596h-16v362h-463v-362h-16v596h-60v16h60v100h16v-100h463v100h16v-100h60v-16zM121 596v-218h463v218h-463z" />
    <glyph glyph-name="uni0124" unicode="&#x124;" horiz-adv-x="705" 
d="M600 0h-16v362h-463v-362h-16v712h16v-334h463v334h16v-712zM345 886h16l120 -126h-22l-106 111l-106 -111h-22z" />
    <glyph glyph-name="uni0132" unicode="&#x132;" horiz-adv-x="529" 
d="M241 1v16c13 -3 26 -5 39 -5c85 0 133 55 133 159v541h16v-541c0 -113 -54 -175 -149 -175c-15 0 -28 2 -39 5zM121 712v-712h-16v712h16z" />
    <glyph glyph-name="uni00CD" unicode="&#xcd;" horiz-adv-x="226" 
d="M121 712v-712h-16v712h16zM57 760l107 126h22l-110 -126h-19z" />
    <glyph glyph-name="uni012C" unicode="&#x12c;" horiz-adv-x="226" 
d="M121 712v-712h-16v712h16zM-15 886c8 -72 52 -111 128 -111s120 39 128 111h16c-8 -80 -60 -127 -144 -127s-136 47 -144 127h16z" />
    <glyph glyph-name="uni00CE" unicode="&#xce;" horiz-adv-x="226" 
d="M105 0v712h16v-712h-16zM105 886h16l120 -126h-22l-106 111l-106 -111h-22z" />
    <glyph glyph-name="uni00CF" unicode="&#xcf;" horiz-adv-x="226" 
d="M121 712v-712h-16v712h16zM197 856h16v-77h-16v77zM29 856v-77h-16v77h16z" />
    <glyph glyph-name="uni0130" unicode="&#x130;" horiz-adv-x="226" 
d="M105 0v712h16v-712h-16zM105 769v77h16v-77h-16z" />
    <glyph glyph-name="uni00CC" unicode="&#xcc;" horiz-adv-x="226" 
d="M105 712h16v-712h-16v712zM62 886l107 -126h-19l-110 126h22z" />
    <glyph glyph-name="uni012A" unicode="&#x12a;" horiz-adv-x="226" 
d="M105 712h16v-712h-16v712zM0 818h226v-16h-226v16z" />
    <glyph glyph-name="uni012E" unicode="&#x12e;" horiz-adv-x="226" 
d="M21 -122c0 44 23 77 84 128v706h16v-712c-63 -51 -84 -83 -84 -122c0 -34 18 -51 55 -51c13 0 23 2 32 5v-16c-9 -3 -19 -5 -32 -5c-47 0 -71 24 -71 67z" />
    <glyph glyph-name="uni0128" unicode="&#x128;" horiz-adv-x="226" 
d="M105 712h16v-712h-16v712zM257 876c-4 -52 -30 -81 -69 -81c-28 0 -48 11 -80 34c-28 21 -46 31 -70 31c-31 0 -50 -22 -53 -65h-16c4 52 30 81 69 81c28 0 48 -11 80 -34c28 -21 46 -31 70 -31c31 0 50 22 53 65h16z" />
    <glyph glyph-name="uni0134" unicode="&#x134;" horiz-adv-x="303" 
d="M153 53c23 27 34 66 34 118v541h16v-541c0 -113 -54 -175 -149 -175c-15 0 -28 2 -39 5v16c13 -3 26 -5 39 -5c43 0 76 14 99 41zM67 760l120 126h16l120 -126h-22l-106 111l-106 -111h-22z" />
    <glyph glyph-name="uni0136" unicode="&#x136;" horiz-adv-x="532" 
d="M504 0l-382 368h-1v-368h-16v712h16v-332h1l350 332h24l-357 -338l389 -374h-24zM300 -145v66h16v-66l-30 -94h-14z" />
    <glyph glyph-name="uni0139" unicode="&#x139;" horiz-adv-x="525" 
d="M105 0v712h16v-696h399v-16h-415zM204 886h22l-110 -126h-19z" />
    <glyph glyph-name="uni013D" unicode="&#x13d;" horiz-adv-x="525" 
d="M121 712v-696h399v-16h-415v712h16zM242 712h17l-44 -214h-14z" />
    <glyph glyph-name="uni013B" unicode="&#x13b;" horiz-adv-x="525" 
d="M105 0v712h16v-696h399v-16h-415zM277 -239l28 94v66h16v-66l-30 -94h-14z" />
    <glyph glyph-name="uni013F" unicode="&#x13f;" horiz-adv-x="605" 
d="M105 0v712h16v-696h399v-16h-415zM425 427v-72h-18v72h18z" />
    <glyph glyph-name="uni0141" unicode="&#x141;" horiz-adv-x="525" 
d="M25 271v18l80 48v375h16v-367l165 99v-18l-165 -99v-311h399v-16h-415v319z" />
    <glyph glyph-name="uni0143" unicode="&#x143;" horiz-adv-x="718" 
d="M613 0h-26l-465 697h-1v-697h-16v712h26l465 -697h1v697h16v-712zM410 886h22l-110 -126h-19z" />
    <glyph glyph-name="uni0147" unicode="&#x147;" horiz-adv-x="718" 
d="M613 0h-26l-465 697h-1v-697h-16v712h26l465 -697h1v697h16v-712zM253 886l106 -111l106 111h22l-120 -126h-16l-120 126h22z" />
    <glyph glyph-name="uni0145" unicode="&#x145;" horiz-adv-x="718" 
d="M613 0h-26l-465 697h-1v-697h-16v712h26l465 -697h1v697h16v-712zM351 -145v66h16v-66l-30 -94h-14z" />
    <glyph glyph-name="uni014A" unicode="&#x14a;" horiz-adv-x="718" 
d="M613 -48c0 -101 -37 -139 -109 -139c-7 0 -13 1 -18 2v16c5 -1 11 -2 18 -2c63 0 93 31 93 123v48l-475 697h-1v-697h-16v712h26l465 -682h1v682h16v-760z" />
    <glyph glyph-name="uni00D1" unicode="&#xd1;" horiz-adv-x="718" 
d="M613 0h-26l-465 697h-1v-697h-16v712h26l465 -697h1v697h16v-712zM215 795c4 52 30 81 69 81c28 0 48 -11 80 -34c28 -21 46 -31 70 -31c31 0 50 22 53 65h16c-4 -52 -30 -81 -69 -81c-28 0 -48 11 -80 34c-28 21 -46 31 -70 31c-31 0 -50 -22 -53 -65h-16z" />
    <glyph glyph-name="uni00D3" unicode="&#xd3;" horiz-adv-x="702" 
d="M655 356c0 -222 -118 -366 -304 -366s-304 144 -304 366s118 366 304 366s304 -144 304 -366zM63 356c0 -213 114 -350 288 -350s288 137 288 350s-114 350 -288 350s-288 -137 -288 -350zM402 886h22l-110 -126h-19z" />
    <glyph glyph-name="uni014E" unicode="&#x14e;" horiz-adv-x="702" 
d="M47 356c0 222 118 366 304 366s304 -144 304 -366s-118 -366 -304 -366s-304 144 -304 366zM639 356c0 213 -114 350 -288 350s-288 -137 -288 -350s114 -350 288 -350s288 137 288 350zM223 886c8 -72 52 -111 128 -111s120 39 128 111h16c-8 -80 -60 -127 -144 -127
s-136 47 -144 127h16z" />
    <glyph glyph-name="uni00D4" unicode="&#xd4;" horiz-adv-x="702" 
d="M655 356c0 -222 -118 -366 -304 -366s-304 144 -304 366s118 366 304 366s304 -144 304 -366zM63 356c0 -213 114 -350 288 -350s288 137 288 350s-114 350 -288 350s-288 -137 -288 -350zM223 760l120 126h16l120 -126h-22l-106 111l-106 -111h-22z" />
    <glyph glyph-name="uni00D6" unicode="&#xd6;" horiz-adv-x="702" 
d="M618 163c-49 -111 -144 -173 -267 -173c-186 0 -304 144 -304 366s118 366 304 366s304 -144 304 -366c0 -74 -12 -138 -37 -193zM63 356c0 -213 114 -350 288 -350s288 137 288 350s-114 350 -288 350s-288 -137 -288 -350zM451 856v-77h-16v77h16zM251 779v77h16v-77
h-16z" />
    <glyph glyph-name="uni00D2" unicode="&#xd2;" horiz-adv-x="702" 
d="M655 356c0 -222 -118 -366 -304 -366s-304 144 -304 366s118 366 304 366s304 -144 304 -366zM63 356c0 -213 114 -350 288 -350s288 137 288 350s-114 350 -288 350s-288 -137 -288 -350zM300 886l107 -126h-19l-110 126h22z" />
    <glyph glyph-name="uni0150" unicode="&#x150;" horiz-adv-x="702" 
d="M655 356c0 -222 -118 -366 -304 -366s-304 144 -304 366s118 366 304 366s304 -144 304 -366zM63 356c0 -213 114 -350 288 -350s288 137 288 350s-114 350 -288 350s-288 -137 -288 -350zM487 886h24l-127 -126h-19zM266 760l122 126h24l-127 -126h-19z" />
    <glyph glyph-name="uni014C" unicode="&#x14c;" horiz-adv-x="702" 
d="M618 163c-49 -111 -144 -173 -267 -173c-186 0 -304 144 -304 366s118 366 304 366s304 -144 304 -366c0 -74 -12 -138 -37 -193zM63 356c0 -213 114 -350 288 -350s288 137 288 350s-114 350 -288 350s-288 -137 -288 -350zM464 818v-16h-226v16h226z" />
    <glyph glyph-name="uni00D8" unicode="&#xd8;" horiz-adv-x="702" 
d="M655 356c0 -222 -118 -366 -304 -366c-84 0 -153 28 -207 83l-63 -83l-12 9l65 85c-56 64 -87 157 -87 272c0 222 118 366 304 366c84 0 153 -28 207 -83l63 83l12 -9l-65 -85c56 -64 87 -157 87 -272zM84 209c14 -44 34 -81 60 -112l404 529c-50 53 -116 80 -197 80
c-174 0 -288 -137 -288 -350c0 -54 7 -103 21 -147zM351 6c174 0 288 137 288 350c0 108 -29 198 -81 259l-404 -529c50 -53 116 -80 197 -80z" />
    <glyph glyph-name="uni01FE" unicode="&#x1fe;" horiz-adv-x="702" 
d="M84 550c49 109 144 172 267 172c84 0 153 -28 207 -83l63 83l12 -9l-65 -85c56 -64 87 -157 87 -272c0 -222 -118 -366 -304 -366c-84 0 -153 28 -207 83l-63 -83l-12 9l65 85c-56 64 -87 157 -87 272c0 74 12 139 37 194zM639 356c0 108 -29 198 -81 259l-404 -529
c50 -53 116 -80 197 -80c174 0 288 137 288 350zM84 209c14 -44 34 -81 60 -112l404 529c-50 53 -116 80 -197 80c-174 0 -288 -137 -288 -350c0 -54 7 -103 21 -147zM295 760l107 126h22l-110 -126h-19z" />
    <glyph glyph-name="uni00D5" unicode="&#xd5;" horiz-adv-x="702" 
d="M512 35c-46 -30 -100 -45 -161 -45c-186 0 -304 144 -304 366s118 366 304 366s304 -144 304 -366c0 -148 -51 -261 -143 -321zM604 171c23 53 35 114 35 185c0 213 -114 350 -288 350s-288 -137 -288 -350s114 -350 288 -350c116 0 205 60 253 165zM474 816
c-13 -14 -29 -21 -48 -21c-28 0 -48 11 -80 34c-28 21 -46 31 -70 31c-31 0 -50 -22 -53 -65h-16c4 52 30 81 69 81c28 0 48 -11 80 -34c28 -21 46 -31 70 -31c31 0 50 22 53 65h16c-2 -26 -9 -46 -21 -60z" />
    <glyph glyph-name="uni0152" unicode="&#x152;" horiz-adv-x="962" 
d="M902 0h-510c-221 0 -345 128 -345 356s124 356 345 356h496v-16h-391v-322h374v-16h-374v-342h405v-16zM148 104c57 -59 138 -88 244 -88h89v680h-89c-212 0 -329 -121 -329 -340c0 -109 28 -193 85 -252z" />
    <glyph glyph-name="uni00DE" unicode="&#xde;" horiz-adv-x="575" 
d="M491 233c-37 -35 -90 -52 -159 -52h-211v-181h-16v712h16v-155h211c139 0 213 -76 213 -188c0 -56 -18 -101 -54 -136zM121 197h211c129 0 197 69 197 172s-68 172 -197 172h-211v-344z" />
    <glyph glyph-name="uni0154" unicode="&#x154;" horiz-adv-x="591" 
d="M542 0l-77 210c-39 101 -65 129 -159 132h-185v-342h-16v712h185c152 0 230 -66 230 -179c0 -101 -59 -167 -154 -183v-1c27 -7 49 -20 65 -39s32 -50 49 -95l79 -215h-17zM121 358h185c131 0 198 72 198 175c0 104 -71 163 -214 163h-169v-338zM236 760l107 126h22
l-110 -126h-19z" />
    <glyph glyph-name="uni0158" unicode="&#x158;" horiz-adv-x="591" 
d="M542 0l-77 210c-39 101 -65 129 -159 132h-185v-342h-16v712h185c152 0 230 -66 230 -179c0 -101 -59 -167 -154 -183v-1c27 -7 49 -20 65 -39s32 -50 49 -95l79 -215h-17zM121 358h185c131 0 198 72 198 175c0 104 -71 163 -214 163h-169v-338zM164 886h22l106 -111
l106 111h22l-120 -126h-16z" />
    <glyph glyph-name="uni0156" unicode="&#x156;" horiz-adv-x="591" 
d="M542 0l-77 210c-39 101 -65 129 -159 132h-185v-342h-16v712h185c152 0 230 -66 230 -179c0 -101 -59 -167 -154 -183v-1c27 -7 49 -20 65 -39s32 -50 49 -95l79 -215h-17zM121 358h185c131 0 198 72 198 175c0 104 -71 163 -214 163h-169v-338zM286 -239l28 94v66h16
v-66l-30 -94h-14z" />
    <glyph glyph-name="uni015A" unicode="&#x15a;" horiz-adv-x="576" 
d="M511 173c0 -113 -85 -183 -222 -183c-155 0 -237 83 -237 248h16c0 -155 74 -232 221 -232c129 0 206 63 206 167c0 80 -33 121 -89 145c-29 11 -71 24 -127 38c-156 39 -211 75 -215 187c0 54 19 97 57 130c37 33 87 49 150 49c151 0 228 -80 228 -237h-16
c0 147 -71 221 -212 221c-117 0 -191 -64 -191 -163c4 -104 54 -134 202 -171c57 -14 102 -28 133 -41c31 -14 54 -33 71 -57c17 -25 25 -58 25 -101zM234 760h-19l107 126h22z" />
    <glyph glyph-name="uni0160" unicode="&#x160;" horiz-adv-x="576" 
d="M452 39c-40 -33 -94 -49 -163 -49c-155 0 -237 83 -237 248h16c0 -155 74 -232 221 -232c129 0 206 63 206 167c0 80 -33 121 -89 145c-29 11 -71 24 -127 38c-156 39 -211 75 -215 187c0 54 19 97 57 130c37 33 87 49 150 49c151 0 228 -80 228 -237h-16
c0 147 -71 221 -212 221c-117 0 -191 -64 -191 -163c4 -104 54 -134 202 -171c57 -14 102 -28 133 -41c31 -14 54 -33 71 -57c17 -25 25 -58 25 -101c0 -57 -20 -101 -59 -134zM263 760l-120 126h22l106 -111l106 111h22l-120 -126h-16z" />
    <glyph glyph-name="uni015E" unicode="&#x15e;" horiz-adv-x="576" 
d="M354 -133c0 35 -22 52 -65 52c-12 0 -23 -2 -33 -5l-11 11l44 65c-155 0 -237 83 -237 248h16c0 -155 74 -232 221 -232c129 0 206 63 206 167c0 80 -33 121 -89 145c-29 11 -71 24 -127 38c-156 39 -211 75 -215 187c0 54 19 97 57 130c37 33 87 49 150 49
c151 0 228 -80 228 -237h-16c0 147 -71 221 -212 221c-117 0 -191 -64 -191 -163c4 -104 54 -134 202 -171c57 -14 102 -28 133 -41c31 -14 54 -33 71 -57c17 -25 25 -58 25 -101c0 -108 -75 -176 -202 -183l-41 -59c6 2 13 3 21 3c52 0 81 -26 81 -67
c0 -44 -34 -72 -89 -72c-30 0 -59 8 -86 23l8 14c24 -14 50 -21 78 -21c47 0 73 21 73 56z" />
    <glyph glyph-name="uni015C" unicode="&#x15c;" horiz-adv-x="576" 
d="M452 39c-40 -33 -94 -49 -163 -49c-155 0 -237 83 -237 248h16c0 -155 74 -232 221 -232c129 0 206 63 206 167c0 80 -33 121 -89 145c-29 11 -71 24 -127 38c-156 39 -211 75 -215 187c0 54 19 97 57 130c37 33 87 49 150 49c151 0 228 -80 228 -237h-16
c0 147 -71 221 -212 221c-117 0 -191 -64 -191 -163c4 -104 54 -134 202 -171c57 -14 102 -28 133 -41c31 -14 54 -33 71 -57c17 -25 25 -58 25 -101c0 -57 -20 -101 -59 -134zM143 760l120 126h16l120 -126h-22l-106 111l-106 -111h-22z" />
    <glyph glyph-name="uni0218" unicode="&#x218;" horiz-adv-x="576" 
d="M472 267c-16 22 -38 39 -66 51c-29 11 -71 24 -127 38c-156 39 -211 75 -215 187c0 54 19 97 57 130c37 33 87 49 150 49c151 0 228 -80 228 -237h-16c0 147 -71 221 -212 221c-117 0 -191 -64 -191 -163c4 -104 54 -134 202 -171c57 -14 102 -28 133 -41
c31 -14 54 -33 71 -57c17 -25 25 -58 25 -101c0 -113 -85 -183 -222 -183c-155 0 -237 83 -237 248h16c0 -155 74 -232 221 -232c129 0 206 63 206 167c0 40 -8 71 -23 94zM261 -239h-14l28 94v66h16v-66z" />
    <glyph glyph-name="uni1E9E" unicode="&#x1e9e;" horiz-adv-x="717" 
d="M607 42c-39 -35 -91 -52 -157 -52c-128 0 -199 61 -199 168h16c0 -97 64 -152 183 -152c123 0 198 64 198 181c0 129 -89 193 -265 209v16l204 204c-52 56 -132 90 -224 90c-167 0 -252 -88 -252 -260v-446h-16v446c0 181 92 276 268 276c101 0 190 -41 245 -106
l-206 -206c171 -19 262 -88 262 -223c0 -63 -19 -111 -57 -145z" />
    <glyph glyph-name="uni018F" unicode="&#x18f;" horiz-adv-x="697" 
d="M612 162c-51 -111 -147 -172 -268 -172c-183 0 -297 139 -297 366v5h587c0 209 -117 345 -296 345c-69 0 -127 -18 -173 -55s-74 -87 -83 -149h-17c11 68 41 122 90 161s110 59 183 59c189 0 312 -144 312 -366c0 -74 -13 -139 -38 -194zM100 162
c47 -103 133 -156 244 -156c178 0 286 138 290 339h-571c1 -71 13 -132 37 -183z" />
    <glyph glyph-name="uni0166" unicode="&#x166;" horiz-adv-x="568" 
d="M5 712h558v-16h-271v-278h158v-16h-158v-402h-16v402h-158v16h158v278h-271v16z" />
    <glyph glyph-name="uni0164" unicode="&#x164;" horiz-adv-x="568" 
d="M5 696v16h558v-16h-271v-696h-16v696h-271zM156 886h22l106 -111l106 111h22l-120 -126h-16z" />
    <glyph glyph-name="uni0162" unicode="&#x162;" horiz-adv-x="568" 
d="M563 712v-16h-271v-696h-16v696h-271v16h558zM248 -239l28 94v66h16v-66l-30 -94h-14z" />
    <glyph glyph-name="uni021A" unicode="&#x21a;" horiz-adv-x="568" 
d="M563 712v-16h-271v-696h-16v696h-271v16h558zM248 -239l28 94v66h16v-66l-30 -94h-14z" />
    <glyph glyph-name="uni00DA" unicode="&#xda;" horiz-adv-x="670" 
d="M571 260c0 -177 -83 -270 -236 -270s-236 93 -236 270v452h16v-452c0 -169 76 -254 220 -254s220 85 220 254v452h16v-452zM386 886h22l-110 -126h-19z" />
    <glyph glyph-name="uni016C" unicode="&#x16c;" horiz-adv-x="670" 
d="M571 260c0 -177 -83 -270 -236 -270s-236 93 -236 270v452h16v-452c0 -169 76 -254 220 -254s220 85 220 254v452h16v-452zM207 886c8 -72 52 -111 128 -111s120 39 128 111h16c-8 -80 -60 -127 -144 -127s-136 47 -144 127h16z" />
    <glyph glyph-name="uni00DB" unicode="&#xdb;" horiz-adv-x="670" 
d="M571 260c0 -177 -83 -270 -236 -270s-236 93 -236 270v452h16v-452c0 -169 76 -254 220 -254s220 85 220 254v452h16v-452zM327 886h16l120 -126h-22l-106 111l-106 -111h-22z" />
    <glyph glyph-name="uni00DC" unicode="&#xdc;" horiz-adv-x="670" 
d="M571 260c0 -177 -83 -270 -236 -270s-236 93 -236 270v452h16v-452c0 -169 76 -254 220 -254s220 85 220 254v452h16v-452zM419 779v77h16v-77h-16zM235 779v77h16v-77h-16z" />
    <glyph glyph-name="uni00D9" unicode="&#xd9;" horiz-adv-x="670" 
d="M571 260c0 -177 -83 -270 -236 -270s-236 93 -236 270v452h16v-452c0 -169 76 -254 220 -254s220 85 220 254v452h16v-452zM284 886l107 -126h-19l-110 126h22z" />
    <glyph glyph-name="uni0170" unicode="&#x170;" horiz-adv-x="670" 
d="M571 260c0 -177 -83 -270 -236 -270s-236 93 -236 270v452h16v-452c0 -169 76 -254 220 -254s220 85 220 254v452h16v-452zM349 760l122 126h24l-127 -126h-19zM250 760l122 126h24l-127 -126h-19z" />
    <glyph glyph-name="uni016A" unicode="&#x16a;" horiz-adv-x="670" 
d="M571 260c0 -177 -83 -270 -236 -270s-236 93 -236 270v452h16v-452c0 -169 76 -254 220 -254s220 85 220 254v452h16v-452zM448 818v-16h-226v16h226z" />
    <glyph glyph-name="uni0172" unicode="&#x172;" horiz-adv-x="670" 
d="M571 260c0 -61 -9 -111 -27 -149s-47 -73 -86 -105c-63 -51 -84 -83 -84 -122c0 -38 18 -57 55 -57c13 0 23 2 32 5v-16c-9 -3 -19 -5 -32 -5c-47 0 -71 26 -71 73c0 44 23 77 84 126v2c-31 -15 -67 -22 -107 -22c-153 0 -236 93 -236 270v452h16v-452
c0 -169 76 -254 220 -254s220 85 220 254v452h16v-452z" />
    <glyph glyph-name="uni016E" unicode="&#x16e;" horiz-adv-x="670" 
d="M571 260c0 -177 -83 -270 -236 -270s-236 93 -236 270v452h16v-452c0 -169 76 -254 220 -254s220 85 220 254v452h16v-452zM276 911c17 16 36 24 59 24c47 0 84 -37 84 -84s-37 -84 -84 -84s-84 37 -84 84c0 23 8 43 25 60zM287 803c13 -13 29 -20 48 -20
c39 0 68 31 68 68c0 39 -29 68 -68 68c-37 0 -68 -29 -68 -68c0 -19 7 -35 20 -48z" />
    <glyph glyph-name="uni0168" unicode="&#x168;" horiz-adv-x="670" 
d="M571 260c0 -177 -83 -270 -236 -270s-236 93 -236 270v452h16v-452c0 -169 76 -254 220 -254s220 85 220 254v452h16v-452zM213 855c12 14 28 21 47 21c28 0 48 -11 80 -34c28 -21 46 -31 70 -31c31 0 50 22 53 65h16c-4 -52 -30 -81 -69 -81c-28 0 -48 11 -80 34
c-28 21 -46 31 -70 31c-31 0 -50 -22 -53 -65h-16c2 26 9 46 22 60z" />
    <glyph glyph-name="uni1E82" unicode="&#x1e82;" horiz-adv-x="861" 
d="M849 712l-202 -712h-23l-193 696h-1l-193 -696h-23l-202 712h16l197 -695h1l192 695h25l192 -695h1l197 695h16zM375 760l107 126h22l-110 -126h-19z" />
    <glyph glyph-name="uni0174" unicode="&#x174;" horiz-adv-x="861" 
d="M849 712l-202 -712h-23l-193 696h-1l-193 -696h-23l-202 712h16l197 -695h1l192 695h25l192 -695h1l197 695h16zM303 760l120 126h16l120 -126h-22l-106 111l-106 -111h-22z" />
    <glyph glyph-name="uni1E84" unicode="&#x1e84;" horiz-adv-x="861" 
d="M849 712l-202 -712h-23l-193 696h-1l-193 -696h-23l-202 712h16l197 -695h1l192 695h25l192 -695h1l197 695h16zM515 856h16v-77h-16v77zM347 856v-77h-16v77h16z" />
    <glyph glyph-name="uni1E80" unicode="&#x1e80;" horiz-adv-x="861" 
d="M849 712l-202 -712h-23l-193 696h-1l-193 -696h-23l-202 712h16l197 -695h1l192 695h25l192 -695h1l197 695h16zM358 886h22l107 -126h-19z" />
    <glyph glyph-name="uni00DD" unicode="&#xdd;" horiz-adv-x="570" 
d="M26 712l258 -377h1l259 377h19l-270 -394v-318h-16v318l-270 394h19zM336 886h22l-110 -126h-19z" />
    <glyph glyph-name="uni0176" unicode="&#x176;" horiz-adv-x="570" 
d="M563 712l-270 -394v-318h-16v318l-270 394h19l258 -377h1l259 377h19zM157 760l120 126h16l120 -126h-22l-106 111l-106 -111h-22z" />
    <glyph glyph-name="uni0178" unicode="&#x178;" horiz-adv-x="570" 
d="M563 712l-270 -394v-318h-16v318l-270 394h19l258 -377h1l259 377h19zM369 856h16v-77h-16v77zM201 856v-77h-16v77h16z" />
    <glyph glyph-name="uni1EF2" unicode="&#x1ef2;" horiz-adv-x="570" 
d="M26 712l258 -377h1l259 377h19l-270 -394v-318h-16v318l-270 394h19zM212 886h22l107 -126h-19z" />
    <glyph glyph-name="uni0179" unicode="&#x179;" horiz-adv-x="547" 
d="M17 22l475 673v1h-470v16h486v-22l-475 -673v-1h497v-16h-513v22zM316 886h22l-110 -126h-19z" />
    <glyph glyph-name="uni017D" unicode="&#x17d;" horiz-adv-x="547" 
d="M530 0h-513v22l475 673v1h-470v16h486v-22l-475 -673v-1h497v-16zM137 886h22l106 -111l106 111h22l-120 -126h-16z" />
    <glyph glyph-name="uni017B" unicode="&#x17b;" horiz-adv-x="547" 
d="M17 22l475 673v1h-470v16h486v-22l-475 -673v-1h497v-16h-513v22zM273 846v-77h-16v77h16z" />
    <glyph glyph-name="uni0259" unicode="&#x259;" horiz-adv-x="515" 
d="M467 254c0 -160 -85 -264 -213 -264c-63 0 -113 24 -150 71s-56 111 -56 193v5h403c0 147 -78 243 -201 243c-93 0 -160 -56 -173 -143h-17c15 97 89 159 190 159c132 0 217 -104 217 -264zM118 69c35 -42 80 -63 136 -63c60 0 108 22 143 66c35 43 53 100 54 171h-387
c1 -75 19 -133 54 -174z" />
    <glyph glyph-name="uni004A.frac" horiz-adv-x="303" 
d="M54 12c85 0 133 55 133 159v541h16v-541c0 -113 -54 -175 -149 -175c-15 0 -28 2 -39 5v16c13 -3 26 -5 39 -5zM147 778l94 138h21l-98 -138h-17z" />
    <glyph glyph-name="uni00C7.salt" horiz-adv-x="660" 
d="M607 233c-16 -142 -115 -243 -269 -243c-177 0 -291 144 -291 366s117 366 298 366c155 0 250 -108 258 -241h-16c-10 126 -95 225 -242 225c-172 0 -282 -137 -282 -350s107 -350 275 -350c144 0 239 95 253 227h16zM252 -207h-22l126 158h18z" />
    <glyph glyph-name="uni015E.salt" horiz-adv-x="576" 
d="M511 173c0 -113 -85 -183 -222 -183c-155 0 -237 83 -237 248h16c0 -155 74 -232 221 -232c129 0 206 63 206 167c0 80 -33 121 -89 145c-29 11 -71 24 -127 38c-156 39 -211 75 -215 187c0 54 19 97 57 130c37 33 87 49 150 49c151 0 228 -80 228 -237h-16
c0 147 -71 221 -212 221c-117 0 -191 -64 -191 -163c4 -104 54 -134 202 -171c57 -14 102 -28 133 -41c31 -14 54 -33 71 -57c17 -25 25 -58 25 -101zM194 -207h-22l126 158h18z" />
    <glyph glyph-name="uni0162.salt" horiz-adv-x="568" 
d="M5 696v16h558v-16h-271v-696h-16v696h-271zM299 -49h18l-122 -158h-22z" />
    <glyph glyph-name="uni00E1" unicode="&#xe1;" horiz-adv-x="494" 
d="M397 97c0 12 0 22 1 29h-1c-27 -84 -97 -136 -190 -136c-100 0 -166 55 -166 140c0 81 50 128 175 147c57 9 116 16 179 23v33c0 115 -59 169 -152 169c-103 0 -158 -58 -165 -147h-16c7 100 72 163 181 163c103 0 168 -61 168 -185v-219c0 -43 3 -81 9 -114h-16
c-5 34 -7 66 -7 97zM57 130c0 -76 59 -124 150 -124c59 0 106 19 139 57c19 21 32 43 39 64s10 51 10 92v65c-75 -9 -134 -16 -177 -23c-117 -17 -161 -59 -161 -131zM282 712h21l-98 -138h-17z" />
    <glyph glyph-name="uni0103" unicode="&#x103;" horiz-adv-x="494" 
d="M411 333v-219c0 -43 3 -81 9 -114h-16c-5 34 -7 66 -7 97c0 12 0 22 1 29h-1c-27 -84 -97 -136 -190 -136c-100 0 -166 55 -166 140c0 81 50 128 175 147c57 9 116 16 179 23v33c0 115 -59 169 -152 169c-103 0 -158 -58 -165 -147h-16c7 100 72 163 181 163
c103 0 168 -61 168 -185zM395 219v65c-75 -9 -134 -16 -177 -23c-117 -17 -161 -59 -161 -131c0 -76 59 -124 150 -124c59 0 106 19 139 57c19 21 32 43 39 64s10 51 10 92zM92 712h16c8 -72 52 -111 128 -111s120 39 128 111h16c-8 -80 -60 -127 -144 -127
s-136 47 -144 127z" />
    <glyph glyph-name="uni00E2" unicode="&#xe2;" horiz-adv-x="494" 
d="M395 333c0 115 -59 169 -152 169c-103 0 -158 -58 -165 -147h-16c7 100 72 163 181 163c103 0 168 -61 168 -185v-219c0 -43 3 -81 9 -114h-16c-5 34 -7 66 -7 97c0 12 0 22 1 29h-1c-27 -84 -97 -136 -190 -136c-100 0 -166 55 -166 140c0 81 50 128 175 147
c57 9 116 16 179 23v33zM57 130c0 -76 59 -124 150 -124c59 0 106 19 139 57c19 21 32 43 39 64s10 51 10 92v65c-75 -9 -134 -16 -177 -23c-117 -17 -161 -59 -161 -131zM228 712h16l119 -138h-21l-106 123l-106 -123h-21z" />
    <glyph glyph-name="uni00E4" unicode="&#xe4;" horiz-adv-x="494" 
d="M395 333c0 115 -59 169 -152 169c-103 0 -158 -58 -165 -147h-16c7 100 72 163 181 163c103 0 168 -61 168 -185v-219c0 -43 3 -81 9 -114h-16c-5 34 -7 66 -7 97c0 12 0 22 1 29h-1c-27 -84 -97 -136 -190 -136c-100 0 -166 55 -166 140c0 81 50 128 175 147
c57 9 116 16 179 23v33zM395 284c-75 -9 -134 -16 -177 -23c-117 -17 -161 -59 -161 -131c0 -76 59 -124 150 -124c59 0 106 19 139 57c19 21 32 43 39 64s10 51 10 92v65zM336 712v-77h-16v77h16zM136 635v77h16v-77h-16z" />
    <glyph glyph-name="uni00E0" unicode="&#xe0;" horiz-adv-x="494" 
d="M397 97c0 12 0 22 1 29h-1c-27 -84 -97 -136 -190 -136c-100 0 -166 55 -166 140c0 81 50 128 175 147c57 9 116 16 179 23v33c0 115 -59 169 -152 169c-103 0 -158 -58 -165 -147h-16c7 100 72 163 181 163c103 0 168 -61 168 -185v-219c0 -43 3 -81 9 -114h-16
c-5 34 -7 66 -7 97zM57 130c0 -76 59 -124 150 -124c59 0 106 19 139 57c19 21 32 43 39 64s10 51 10 92v65c-75 -9 -134 -16 -177 -23c-117 -17 -161 -59 -161 -131zM191 712l94 -138h-17l-98 138h21z" />
    <glyph glyph-name="uni0101" unicode="&#x101;" horiz-adv-x="494" 
d="M397 97c0 12 0 22 1 29h-1c-27 -84 -97 -136 -190 -136c-100 0 -166 55 -166 140c0 81 50 128 175 147c57 9 116 16 179 23v33c0 115 -59 169 -152 169c-103 0 -158 -58 -165 -147h-16c7 100 72 163 181 163c103 0 168 -61 168 -185v-219c0 -43 3 -81 9 -114h-16
c-5 34 -7 66 -7 97zM57 130c0 -76 59 -124 150 -124c59 0 106 19 139 57c19 21 32 43 39 64s10 51 10 92v65c-75 -9 -134 -16 -177 -23c-117 -17 -161 -59 -161 -131zM349 664v-16h-226v16h226z" />
    <glyph glyph-name="uni0105" unicode="&#x105;" horiz-adv-x="494" 
d="M391 -189c-47 0 -71 24 -71 67c0 44 23 76 83 127c-4 37 -6 68 -6 92c0 12 0 22 1 29h-1c-27 -84 -97 -136 -190 -136c-100 0 -166 55 -166 140c0 81 50 128 175 147c57 9 116 16 179 23v33c0 115 -59 169 -152 169c-103 0 -158 -58 -165 -147h-16c7 100 72 163 181 163
c103 0 168 -61 168 -185v-219c0 -43 3 -81 9 -114c-63 -51 -84 -83 -84 -122c0 -34 18 -51 55 -51c13 0 23 2 32 5v-16c-9 -3 -19 -5 -32 -5zM395 284c-75 -9 -134 -16 -177 -23c-117 -17 -161 -59 -161 -131c0 -76 59 -124 150 -124c59 0 106 19 139 57c19 21 32 43 39 64
s10 51 10 92v65z" />
    <glyph glyph-name="uni00E5" unicode="&#xe5;" horiz-adv-x="494" 
d="M327 27c-33 -25 -73 -37 -120 -37c-100 0 -166 55 -166 140c0 81 50 128 175 147c57 9 116 16 179 23v33c0 115 -59 169 -152 169c-103 0 -158 -58 -165 -147h-16c7 100 72 163 181 163c103 0 168 -61 168 -185v-219c0 -43 3 -81 9 -114h-16c-5 34 -7 66 -7 97
c0 12 0 22 1 29h-1c-13 -42 -37 -75 -70 -99zM385 127c7 21 10 51 10 92v65c-75 -9 -134 -16 -177 -23c-117 -17 -161 -59 -161 -131c0 -76 59 -124 150 -124c59 0 106 19 139 57c19 21 32 43 39 64zM296 618c-17 -17 -37 -25 -60 -25c-47 0 -84 37 -84 84s39 84 84 84
c47 0 84 -37 84 -84c0 -23 -8 -43 -24 -59zM285 726c-13 13 -30 19 -49 19c-37 0 -68 -29 -68 -68c0 -37 31 -68 68 -68c39 0 68 31 68 68c0 19 -6 36 -19 49z" />
    <glyph glyph-name="uni01FB" unicode="&#x1fb;" horiz-adv-x="494" 
d="M366 472c30 -31 45 -77 45 -139v-219c0 -43 3 -81 9 -114h-16c-5 34 -7 66 -7 97c0 12 0 22 1 29h-1c-27 -84 -97 -136 -190 -136c-100 0 -166 55 -166 140c0 81 50 128 175 147c57 9 116 16 179 23v33c0 115 -59 169 -152 169c-103 0 -158 -58 -165 -147h-16
c7 100 72 163 181 163c51 0 92 -15 123 -46zM385 127c7 21 10 51 10 92v65c-75 -9 -134 -16 -177 -23c-117 -17 -161 -59 -161 -131c0 -76 59 -124 150 -124c59 0 106 19 139 57c19 21 32 43 39 64zM296 598c-17 -17 -37 -25 -60 -25c-47 0 -84 37 -84 84s39 84 84 84
c47 0 84 -37 84 -84c0 -23 -8 -43 -24 -59zM304 657c0 39 -29 68 -68 68c-37 0 -68 -29 -68 -68c0 -37 31 -68 68 -68c39 0 68 31 68 68zM303 912l-98 -138h-17l94 138h21z" />
    <glyph glyph-name="uni00E3" unicode="&#xe3;" horiz-adv-x="494" 
d="M327 27c-33 -25 -73 -37 -120 -37c-100 0 -166 55 -166 140c0 81 50 128 175 147c57 9 116 16 179 23v33c0 115 -59 169 -152 169c-103 0 -158 -58 -165 -147h-16c7 100 72 163 181 163c103 0 168 -61 168 -185v-219c0 -43 3 -81 9 -114h-16c-5 34 -7 66 -7 97
c0 12 0 22 1 29h-1c-13 -42 -37 -75 -70 -99zM385 127c7 21 10 51 10 92v65c-75 -9 -134 -16 -177 -23c-117 -17 -161 -59 -161 -131c0 -76 59 -124 150 -124c59 0 106 19 139 57c19 21 32 43 39 64zM348 654c9 11 15 27 16 48h16c-4 -52 -30 -81 -69 -81
c-28 0 -48 11 -80 34c-28 21 -46 31 -70 31c-31 0 -50 -22 -53 -65h-16c4 52 30 81 69 81c28 0 48 -11 80 -34c28 -21 46 -31 70 -31c15 0 28 6 37 17z" />
    <glyph glyph-name="uni00E6" unicode="&#xe6;" horiz-adv-x="815" 
d="M403 259c0 -152 70 -253 181 -253c87 0 148 56 159 143h17c-12 -97 -81 -159 -176 -159c-92 0 -160 65 -185 174h-1c-5 -54 -26 -96 -63 -127s-81 -47 -132 -47c-97 0 -162 55 -162 140c0 96 65 145 213 145h133v58c0 115 -56 169 -148 169c-93 0 -154 -60 -161 -147h-16
c3 49 21 89 54 119c32 29 73 44 123 44c91 0 152 -51 161 -154h1c25 97 88 154 175 154c100 0 171 -72 186 -184c3 -27 5 -52 5 -75h-364zM57 130c0 -76 58 -124 146 -124c57 0 109 22 140 61c17 20 28 41 35 62c6 21 9 51 9 90v40h-133c-139 0 -197 -42 -197 -129zM403 275
h348c0 144 -73 227 -175 227c-53 0 -94 -21 -125 -62c-31 -42 -47 -97 -48 -165z" />
    <glyph glyph-name="uni01FD" unicode="&#x1fd;" horiz-adv-x="815" 
d="M401 364c25 97 88 154 175 154c100 0 171 -72 186 -184c3 -27 5 -52 5 -75h-364c0 -152 70 -253 181 -253c87 0 148 56 159 143h17c-12 -97 -81 -159 -176 -159c-92 0 -160 65 -185 174h-1c-5 -54 -26 -96 -63 -127s-81 -47 -132 -47c-97 0 -162 55 -162 140
c0 96 65 145 213 145h133v58c0 115 -56 169 -148 169c-93 0 -154 -60 -161 -147h-16c3 49 21 89 54 119c32 29 73 44 123 44c91 0 152 -51 161 -154h1zM57 130c0 -76 58 -124 146 -124c57 0 109 22 140 61c17 20 28 41 35 62c6 21 9 51 9 90v40h-133
c-139 0 -197 -42 -197 -129zM403 275h348c0 144 -73 227 -175 227c-53 0 -94 -21 -125 -62c-31 -42 -47 -97 -48 -165zM471 712l-98 -138h-17l94 138h21z" />
    <glyph glyph-name="uni0107" unicode="&#x107;" horiz-adv-x="493" 
d="M449 167c-5 -53 -24 -96 -58 -128c-35 -33 -78 -49 -131 -49c-132 0 -212 99 -212 264s80 264 212 264c53 0 96 -16 131 -47c34 -32 53 -74 58 -125h-16c-4 47 -22 84 -53 113c-32 29 -72 43 -120 43c-123 0 -196 -92 -196 -248s73 -248 196 -248c96 0 164 64 173 161h16
zM212 574l94 138h21l-98 -138h-17z" />
    <glyph glyph-name="uni010D" unicode="&#x10d;" horiz-adv-x="493" 
d="M433 346c-4 47 -22 84 -53 113c-32 29 -72 43 -120 43c-123 0 -196 -92 -196 -248s73 -248 196 -248c96 0 164 64 173 161h16c-5 -53 -24 -96 -58 -128c-35 -33 -78 -49 -131 -49c-132 0 -212 99 -212 264s80 264 212 264c53 0 96 -16 131 -47c34 -32 53 -74 58 -125h-16
zM252 574l-119 138h21l106 -123l106 123h21l-119 -138h-16z" />
    <glyph glyph-name="uni00E7" unicode="&#xe7;" horiz-adv-x="493" 
d="M399 47c-29 -31 -67 -50 -113 -55l-41 -61c6 2 13 3 21 3c52 0 81 -26 81 -67c0 -44 -34 -72 -89 -72c-30 0 -59 8 -86 23l8 14c24 -14 50 -21 78 -21c47 0 73 21 73 56s-22 52 -65 52c-12 0 -23 -2 -33 -5l-11 11l44 65h-6c-132 0 -212 99 -212 264s80 264 212 264
c53 0 96 -16 131 -47c34 -32 53 -74 58 -125h-16c-4 47 -22 84 -53 113c-32 29 -72 43 -120 43c-123 0 -196 -92 -196 -248s73 -248 196 -248c96 0 164 64 173 161h16c-4 -49 -21 -89 -50 -120z" />
    <glyph glyph-name="uni0109" unicode="&#x109;" horiz-adv-x="493" 
d="M433 346c-4 47 -22 84 -53 113c-32 29 -72 43 -120 43c-123 0 -196 -92 -196 -248s73 -248 196 -248c96 0 164 64 173 161h16c-5 -53 -24 -96 -58 -128c-35 -33 -78 -49 -131 -49c-132 0 -212 99 -212 264s80 264 212 264c53 0 96 -16 131 -47c34 -32 53 -74 58 -125h-16
zM154 574h-21l119 138h16l119 -138h-21l-106 123z" />
    <glyph glyph-name="uni010B" unicode="&#x10b;" horiz-adv-x="493" 
d="M449 167c-5 -53 -24 -96 -58 -128c-35 -33 -78 -49 -131 -49c-132 0 -212 99 -212 264s80 264 212 264c53 0 96 -16 131 -47c34 -32 53 -74 58 -125h-16c-4 47 -22 84 -53 113c-32 29 -72 43 -120 43c-123 0 -196 -92 -196 -248s73 -248 196 -248c96 0 164 64 173 161h16
zM252 635v77h16v-77h-16z" />
    <glyph glyph-name="uni00F0" unicode="&#xf0;" horiz-adv-x="528" 
d="M480 254c0 -82 -19 -146 -58 -193s-92 -71 -159 -71s-119 24 -157 71c-39 47 -58 111 -58 193s19 147 58 194c38 47 90 70 157 70c57 0 110 -22 147 -62v2c-37 61 -89 120 -156 178l-127 -68l-7 14l121 65c-23 19 -50 41 -81 64l11 11c27 -19 55 -41 85 -67l120 64l7 -14
l-115 -61c40 -36 72 -69 97 -99c77 -96 115 -184 115 -291zM64 254c0 -155 75 -248 199 -248c125 0 201 93 201 248s-76 248 -201 248c-124 0 -199 -93 -199 -248z" />
    <glyph glyph-name="uni010F" unicode="&#x10f;" horiz-adv-x="545" 
d="M105 448c38 47 90 70 155 70c97 0 159 -66 180 -165h1c-2 29 -3 72 -3 127v232h16v-712h-16v28c0 55 1 98 3 127h-1c-21 -99 -83 -165 -180 -165c-65 0 -117 24 -155 71s-57 111 -57 193s19 147 57 194zM64 254c0 -155 75 -248 196 -248c111 0 179 95 179 248
s-68 248 -179 248c-121 0 -196 -93 -196 -248zM572 712l-44 -174h-14l41 174h17z" />
    <glyph glyph-name="uni0111" unicode="&#x111;" horiz-adv-x="544" 
d="M454 0h-16v28c0 55 1 98 3 127h-1c-21 -99 -83 -165 -180 -165c-65 0 -117 24 -155 71s-57 111 -57 193s19 147 57 194s90 70 155 70c97 0 159 -66 180 -165h1c-2 29 -3 72 -3 127v116h-155v16h155v100h16v-100h55v-16h-55v-596zM117 72c35 -44 82 -66 143 -66
c111 0 179 95 179 248s-68 248 -179 248c-121 0 -196 -93 -196 -248c0 -77 18 -138 53 -182z" />
    <glyph glyph-name="uni00E9" unicode="&#xe9;" horiz-adv-x="515" 
d="M467 259h-403c0 -152 78 -253 201 -253c96 0 166 56 178 143h17c-15 -97 -90 -159 -195 -159c-132 0 -217 107 -217 274c0 155 82 254 209 254c109 0 186 -71 205 -184c3 -20 5 -45 5 -75zM64 275h387c0 144 -82 227 -194 227c-59 0 -105 -21 -139 -62
c-35 -42 -53 -97 -54 -165zM303 712h21l-98 -138h-17z" />
    <glyph glyph-name="uni0115" unicode="&#x115;" horiz-adv-x="515" 
d="M74 399c33 76 99 119 183 119c109 0 186 -71 205 -184c3 -20 5 -45 5 -75h-403c0 -152 78 -253 201 -253c96 0 166 56 178 143h17c-15 -97 -90 -159 -195 -159c-132 0 -217 107 -217 274c0 51 9 96 26 135zM426 398c-33 68 -94 104 -169 104c-59 0 -105 -21 -139 -62
c-35 -42 -53 -97 -54 -165h387c0 47 -8 88 -25 123zM113 712h16c8 -72 52 -111 128 -111s120 39 128 111h16c-8 -80 -60 -127 -144 -127s-136 47 -144 127z" />
    <glyph glyph-name="uni011B" unicode="&#x11b;" horiz-adv-x="515" 
d="M467 259h-403c0 -152 78 -253 201 -253c96 0 166 56 178 143h17c-15 -97 -90 -159 -195 -159c-132 0 -217 107 -217 274c0 155 82 254 209 254c109 0 186 -71 205 -184c3 -20 5 -45 5 -75zM64 275h387c0 144 -82 227 -194 227c-59 0 -105 -21 -139 -62
c-35 -42 -53 -97 -54 -165zM151 712l106 -123l106 123h21l-119 -138h-16l-119 138h21z" />
    <glyph glyph-name="uni00EA" unicode="&#xea;" horiz-adv-x="515" 
d="M467 259h-403c0 -152 78 -253 201 -253c96 0 166 56 178 143h17c-15 -97 -90 -159 -195 -159c-132 0 -217 107 -217 274c0 155 82 254 209 254c109 0 186 -71 205 -184c3 -20 5 -45 5 -75zM451 275c0 144 -82 227 -194 227c-59 0 -105 -21 -139 -62
c-35 -42 -53 -97 -54 -165h387zM249 712h16l119 -138h-21l-106 123l-106 -123h-21z" />
    <glyph glyph-name="uni00EB" unicode="&#xeb;" horiz-adv-x="515" 
d="M467 259h-403c0 -152 78 -253 201 -253c96 0 166 56 178 143h17c-15 -97 -90 -159 -195 -159c-132 0 -217 107 -217 274c0 155 82 254 209 254c109 0 186 -71 205 -184c3 -20 5 -45 5 -75zM451 275c0 144 -82 227 -194 227c-59 0 -105 -21 -139 -62
c-35 -42 -53 -97 -54 -165h387zM357 712v-77h-16v77h16zM173 712v-77h-16v77h16z" />
    <glyph glyph-name="uni0117" unicode="&#x117;" horiz-adv-x="515" 
d="M467 259h-403c0 -152 78 -253 201 -253c96 0 166 56 178 143h17c-15 -97 -90 -159 -195 -159c-132 0 -217 107 -217 274c0 155 82 254 209 254c109 0 186 -71 205 -184c3 -20 5 -45 5 -75zM451 275c0 144 -82 227 -194 227c-59 0 -105 -21 -139 -62
c-35 -42 -53 -97 -54 -165h387zM265 712v-77h-16v77h16z" />
    <glyph glyph-name="uni00E8" unicode="&#xe8;" horiz-adv-x="515" 
d="M467 259h-403c0 -152 78 -253 201 -253c96 0 166 56 178 143h17c-15 -97 -90 -159 -195 -159c-132 0 -217 107 -217 274c0 155 82 254 209 254c109 0 186 -71 205 -184c3 -20 5 -45 5 -75zM451 275c0 144 -82 227 -194 227c-59 0 -105 -21 -139 -62
c-35 -42 -53 -97 -54 -165h387zM212 712l94 -138h-17l-98 138h21z" />
    <glyph glyph-name="uni0113" unicode="&#x113;" horiz-adv-x="515" 
d="M467 259h-403c0 -152 78 -253 201 -253c96 0 166 56 178 143h17c-15 -97 -90 -159 -195 -159c-132 0 -217 107 -217 274c0 155 82 254 209 254c109 0 186 -71 205 -184c3 -20 5 -45 5 -75zM64 275h387c0 144 -82 227 -194 227c-59 0 -105 -21 -139 -62
c-35 -42 -53 -97 -54 -165zM370 664v-16h-226v16h226z" />
    <glyph glyph-name="uni0119" unicode="&#x119;" horiz-adv-x="515" 
d="M462 334c3 -20 5 -45 5 -75h-403c0 -152 78 -253 201 -253c96 0 166 56 178 143h17c-9 -55 -28 -85 -73 -125c-69 -60 -93 -99 -93 -146c0 -34 18 -51 55 -51c13 0 23 2 32 5v-16c-9 -3 -19 -5 -32 -5c-47 0 -71 24 -71 67c0 44 20 79 68 126v2c-23 -11 -50 -16 -81 -16
c-132 0 -217 107 -217 274c0 155 82 254 209 254c109 0 186 -71 205 -184zM451 275c0 144 -82 227 -194 227c-59 0 -105 -21 -139 -62c-35 -42 -53 -97 -54 -165h387z" />
    <glyph glyph-name="uni011F" unicode="&#x11f;" horiz-adv-x="545" 
d="M404 -133c-33 -37 -83 -56 -149 -56c-115 0 -188 58 -188 157h16c0 -89 67 -141 172 -141c122 0 183 68 183 204c0 59 1 104 2 134h-1c-25 -103 -90 -159 -179 -159c-65 0 -117 23 -155 69c-38 45 -57 108 -57 187s19 142 57 188c38 45 90 68 155 68
c89 0 154 -56 179 -159h1c-1 33 -2 83 -2 149h16v-477c0 -72 -17 -127 -50 -164zM390 438c-32 43 -75 64 -130 64c-121 0 -196 -91 -196 -240s75 -240 196 -240c55 0 98 22 130 65s48 101 48 175s-16 133 -48 176zM133 712c8 -72 52 -111 128 -111s120 39 128 111h16
c-8 -80 -60 -127 -144 -127s-136 47 -144 127h16z" />
    <glyph glyph-name="uni011D" unicode="&#x11d;" horiz-adv-x="545" 
d="M454 508v-477c0 -144 -67 -220 -199 -220c-115 0 -188 58 -188 157h16c0 -89 67 -141 172 -141c122 0 183 68 183 204c0 59 1 104 2 134h-1c-25 -103 -90 -159 -179 -159c-65 0 -117 23 -155 69c-38 45 -57 108 -57 187s19 142 57 188c38 45 90 68 155 68
c89 0 154 -56 179 -159h1c-1 33 -2 83 -2 149h16zM64 262c0 -149 75 -240 196 -240c55 0 98 22 130 65s48 101 48 175s-16 133 -48 176s-75 64 -130 64c-121 0 -196 -91 -196 -240zM134 574l119 138h16l119 -138h-21l-106 123l-106 -123h-21z" />
    <glyph glyph-name="uni0123" unicode="&#x123;" horiz-adv-x="545" 
d="M438 508h16v-477c0 -144 -67 -220 -199 -220c-115 0 -188 58 -188 157h16c0 -89 67 -141 172 -141c122 0 183 68 183 204c0 59 1 104 2 134h-1c-25 -103 -90 -159 -179 -159c-65 0 -117 23 -155 69c-38 45 -57 108 -57 187s19 142 57 188c38 45 90 68 155 68
c89 0 154 -56 179 -159h1c-1 33 -2 83 -2 149zM117 86c35 -43 82 -64 143 -64c55 0 98 22 130 65s48 101 48 175s-16 133 -48 176s-75 64 -130 64c-121 0 -196 -91 -196 -240c0 -75 18 -133 53 -176zM269 747h14l-28 -94v-66h-16v66z" />
    <glyph glyph-name="uni0121" unicode="&#x121;" horiz-adv-x="545" 
d="M439 165c-25 -103 -90 -159 -179 -159c-65 0 -117 23 -155 69c-38 45 -57 108 -57 187s19 142 57 188c38 45 90 68 155 68c89 0 154 -56 179 -159h1c-1 33 -2 83 -2 149h16v-477c0 -144 -67 -220 -199 -220c-115 0 -188 58 -188 157h16c0 -89 67 -141 172 -141
c122 0 183 68 183 204c0 59 1 104 2 134h-1zM64 262c0 -149 75 -240 196 -240c55 0 98 22 130 65s48 101 48 175s-16 133 -48 176s-75 64 -130 64c-121 0 -196 -91 -196 -240zM269 712v-77h-16v77h16z" />
    <glyph glyph-name="uni0127" unicode="&#x127;" 
d="M454 0h-16v309c0 128 -57 193 -156 193c-94 0 -175 -77 -175 -184v-318h-16v596h-56v16h56v100h16v-100h154v-16h-154v-88c0 -55 -1 -97 -3 -126h1c23 80 90 136 177 136c108 0 172 -72 172 -209v-309z" />
    <glyph glyph-name="uni0125" unicode="&#x125;" 
d="M454 0h-16v309c0 128 -57 193 -156 193c-94 0 -175 -77 -175 -184v-318h-16v712h16v-204c0 -55 -1 -97 -3 -126h1c23 80 90 136 177 136c108 0 172 -72 172 -209v-309zM260 886h16l120 -126h-22l-106 111l-106 -111h-22z" />
    <glyph glyph-name="uni0131" unicode="&#x131;" horiz-adv-x="198" 
d="M107 508v-508h-16v508h16z" />
    <glyph glyph-name="uni00ED" unicode="&#xed;" horiz-adv-x="198" 
d="M107 508v-508h-16v508h16zM51 574l94 138h21l-98 -138h-17z" />
    <glyph glyph-name="uni012D" unicode="&#x12d;" horiz-adv-x="198" 
d="M107 508v-508h-16v508h16zM-3 712c7 -72 42 -111 102 -111s95 39 102 111h16c-7 -80 -49 -127 -118 -127s-111 46 -118 127h16z" />
    <glyph glyph-name="uni00EE" unicode="&#xee;" horiz-adv-x="198" 
d="M91 508h16v-508h-16v508zM90 712h17l97 -137h-20l-85 122l-86 -122h-20z" />
    <glyph glyph-name="uni00EF" unicode="&#xef;" horiz-adv-x="198" 
d="M107 508v-508h-16v508h16zM163 712h16v-69h-16v69zM35 712v-69h-16v69h16z" />
    <glyph glyph-name="uni0069.locl" horiz-adv-x="198" 
d="M91 0v508h16v-508h-16zM91 635v77h16v-77h-16z" />
    <glyph glyph-name="uni00EC" unicode="&#xec;" horiz-adv-x="198" 
d="M91 508h16v-508h-16v508zM54 712l94 -138h-17l-98 138h21z" />
    <glyph glyph-name="uni0133" unicode="&#x133;" horiz-adv-x="407" 
d="M189 -169c5 -1 11 -2 18 -2c63 0 93 31 93 123v556h16v-556c0 -101 -37 -139 -109 -139c-7 0 -13 1 -18 2v16zM91 508h16v-508h-16v508zM107 712v-77h-16v77h16zM316 635h-16v77h16v-77z" />
    <glyph glyph-name="uni012B" unicode="&#x12b;" horiz-adv-x="198" 
d="M91 508h16v-508h-16v508zM6 664h186v-16h-186v16z" />
    <glyph glyph-name="uni012F" unicode="&#x12f;" horiz-adv-x="198" 
d="M23 -122c0 -34 18 -51 55 -51c13 0 23 2 32 5v-16c-9 -3 -19 -5 -32 -5c-47 0 -71 24 -71 67c0 44 23 77 84 128v502h16v-508c-63 -51 -84 -83 -84 -122zM91 635v77h16v-77h-16z" />
    <glyph glyph-name="uni0129" unicode="&#x129;" horiz-adv-x="198" 
d="M91 508h16v-508h-16v508zM223 702c-3 -52 -27 -81 -63 -81c-24 0 -39 11 -67 35c-25 21 -37 30 -56 30c-28 0 -44 -22 -47 -65h-16c3 52 27 81 63 81c24 0 39 -11 67 -35c25 -21 37 -30 56 -30c28 0 44 22 47 65h16z" />
    <glyph glyph-name="uni0237" unicode="&#x237;" horiz-adv-x="209" 
d="M-9 -185v16c5 -1 11 -2 18 -2c63 0 93 31 93 123v556h16v-556c0 -101 -37 -139 -109 -139c-7 0 -13 1 -18 2z" />
    <glyph glyph-name="uni0135" unicode="&#x135;" horiz-adv-x="209" 
d="M79 -144c15 18 23 50 23 96v556h16v-556c0 -101 -37 -139 -109 -139c-7 0 -13 1 -18 2v16c5 -1 11 -2 18 -2c31 0 55 9 70 27zM101 712h17l97 -137h-20l-85 122l-86 -122h-20z" />
    <glyph glyph-name="uni0137" unicode="&#x137;" horiz-adv-x="439" 
d="M419 0l-311 271h-1v-271h-16v712h16v-430h1l281 226h25l-288 -232l317 -276h-24zM240 -145v66h16v-66l-30 -94h-14z" />
    <glyph glyph-name="uni0138" unicode="&#x138;" horiz-adv-x="453" 
d="M91 0v508h16v-226h1l281 226h25l-288 -232l317 -276h-24l-311 271h-1v-271h-16z" />
    <glyph glyph-name="uni013A" unicode="&#x13a;" horiz-adv-x="198" 
d="M107 712v-712h-16v712h16zM89 778l94 138h21l-98 -138h-17z" />
    <glyph glyph-name="uni013E" unicode="&#x13e;" horiz-adv-x="198" 
d="M91 0v712h16v-712h-16zM208 712h17l-44 -174h-14z" />
    <glyph glyph-name="uni013C" unicode="&#x13c;" horiz-adv-x="198" 
d="M91 0v712h16v-712h-16zM91 -145v66h16v-66l-30 -94h-14z" />
    <glyph glyph-name="uni0140" unicode="&#x140;" horiz-adv-x="304" 
d="M107 712v-712h-16v712h16zM260 390v-72h-18v72h18z" />
    <glyph glyph-name="uni0142" unicode="&#x142;" horiz-adv-x="236" 
d="M10 338v18l100 60v296h16v-288l100 60v-18l-100 -60v-406h-16v398z" />
    <glyph glyph-name="uni0144" unicode="&#x144;" 
d="M454 0h-16v309c0 128 -57 193 -156 193c-94 0 -175 -77 -175 -184v-318h-16v508h16c0 -55 -1 -97 -3 -126h1c23 80 90 136 177 136c108 0 172 -72 172 -209v-309zM238 574h-17l94 138h21z" />
    <glyph glyph-name="uni0149" unicode="&#x149;" horiz-adv-x="578" 
d="M494 309v-309h-16v309c0 128 -57 193 -156 193c-94 0 -175 -77 -175 -184v-318h-16v508h16c0 -55 -1 -97 -3 -126h1c23 80 90 136 177 136c108 0 172 -72 172 -209zM47 514l33 127v71h16v-71l-35 -127h-14z" />
    <glyph glyph-name="uni0148" unicode="&#x148;" 
d="M454 0h-16v309c0 128 -57 193 -156 193c-94 0 -175 -77 -175 -184v-318h-16v508h16c0 -55 -1 -97 -3 -126h1c23 80 90 136 177 136c108 0 172 -72 172 -209v-309zM261 574l-119 138h21l106 -123l106 123h21l-119 -138h-16z" />
    <glyph glyph-name="uni0146" unicode="&#x146;" 
d="M454 0h-16v309c0 128 -57 193 -156 193c-94 0 -175 -77 -175 -184v-318h-16v508h16c0 -55 -1 -97 -3 -126h1c23 80 90 136 177 136c108 0 172 -72 172 -209v-309zM247 -239h-14l28 94v66h16v-66z" />
    <glyph glyph-name="uni014B" unicode="&#x14b;" 
d="M454 -48c0 -101 -37 -139 -109 -139c-7 0 -13 1 -18 2v16c5 -1 11 -2 18 -2c63 0 93 31 93 123v349c0 76 -12 119 -41 152s-67 49 -115 49c-94 0 -175 -77 -175 -184v-318h-16v508h16c0 -55 -1 -97 -3 -126h1c23 80 90 136 177 136c53 0 95 -18 127 -54
c33 -37 45 -83 45 -163v-349z" />
    <glyph glyph-name="uni00F1" unicode="&#xf1;" 
d="M91 0v508h16c0 -55 -1 -97 -3 -126h1c23 80 90 136 177 136c108 0 172 -72 172 -209v-309h-16v309c0 128 -57 193 -156 193c-94 0 -175 -77 -175 -184v-318h-16zM397 702h16c-4 -52 -30 -81 -69 -81c-28 0 -48 11 -80 34c-28 21 -46 31 -70 31c-31 0 -50 -22 -53 -65h-16
c4 52 30 81 69 81c28 0 48 -11 80 -34c28 -21 46 -31 70 -31c31 0 50 22 53 65z" />
    <glyph glyph-name="uni00F3" unicode="&#xf3;" horiz-adv-x="528" 
d="M480 254c0 -82 -19 -146 -57 -193c-39 -47 -92 -71 -159 -71s-120 24 -158 71c-39 47 -58 111 -58 193s19 147 58 194c38 47 91 70 158 70s120 -23 159 -70c38 -47 57 -112 57 -194zM64 254c0 -155 75 -248 200 -248s200 93 200 248s-75 248 -200 248s-200 -93 -200 -248
zM310 712h21l-98 -138h-17z" />
    <glyph glyph-name="uni014F" unicode="&#x14f;" horiz-adv-x="528" 
d="M423 61c-39 -47 -92 -71 -159 -71s-120 24 -158 71c-39 47 -58 111 -58 193s19 147 58 194c38 47 91 70 158 70s120 -23 159 -70c38 -47 57 -112 57 -194s-19 -146 -57 -193zM64 254c0 -155 75 -248 200 -248s200 93 200 248s-75 248 -200 248s-200 -93 -200 -248z
M136 712c8 -72 52 -111 128 -111s120 39 128 111h16c-8 -80 -60 -127 -144 -127s-136 47 -144 127h16z" />
    <glyph glyph-name="uni00F4" unicode="&#xf4;" horiz-adv-x="528" 
d="M423 61c-39 -47 -92 -71 -159 -71s-120 24 -158 71c-39 47 -58 111 -58 193s19 147 58 194c38 47 91 70 158 70s120 -23 159 -70c38 -47 57 -112 57 -194s-19 -146 -57 -193zM64 254c0 -155 75 -248 200 -248s200 93 200 248s-75 248 -200 248s-200 -93 -200 -248z
M137 574l119 138h16l119 -138h-21l-106 123l-106 -123h-21z" />
    <glyph glyph-name="uni00F6" unicode="&#xf6;" horiz-adv-x="528" 
d="M480 254c0 -82 -19 -146 -57 -193c-39 -47 -92 -71 -159 -71s-120 24 -158 71c-39 47 -58 111 -58 193s19 147 58 194c38 47 91 70 158 70s120 -23 159 -70c38 -47 57 -112 57 -194zM117 72c35 -44 84 -66 147 -66c125 0 200 93 200 248s-75 248 -200 248
s-200 -93 -200 -248c0 -77 18 -138 53 -182zM364 712v-77h-16v77h16zM164 635v77h16v-77h-16z" />
    <glyph glyph-name="uni00F2" unicode="&#xf2;" horiz-adv-x="528" 
d="M423 61c-39 -47 -92 -71 -159 -71s-120 24 -158 71c-39 47 -58 111 -58 193s19 147 58 194c38 47 91 70 158 70s120 -23 159 -70c38 -47 57 -112 57 -194s-19 -146 -57 -193zM64 254c0 -155 75 -248 200 -248s200 93 200 248s-75 248 -200 248s-200 -93 -200 -248z
M219 712l94 -138h-17l-98 138h21z" />
    <glyph glyph-name="uni0151" unicode="&#x151;" horiz-adv-x="528" 
d="M423 61c-39 -47 -92 -71 -159 -71s-120 24 -158 71c-39 47 -58 111 -58 193s19 147 58 194c38 47 91 70 158 70s120 -23 159 -70c38 -47 57 -112 57 -194s-19 -146 -57 -193zM64 254c0 -155 75 -248 200 -248s200 93 200 248s-75 248 -200 248s-200 -93 -200 -248z
M278 574l122 138h24l-127 -138h-19zM179 574l122 138h24l-127 -138h-19z" />
    <glyph glyph-name="uni014D" unicode="&#x14d;" horiz-adv-x="528" 
d="M423 61c-39 -47 -92 -71 -159 -71s-120 24 -158 71c-39 47 -58 111 -58 193s19 147 58 194c38 47 91 70 158 70s120 -23 159 -70c38 -47 57 -112 57 -194s-19 -146 -57 -193zM64 254c0 -155 75 -248 200 -248s200 93 200 248s-75 248 -200 248s-200 -93 -200 -248z
M377 664v-16h-226v16h226z" />
    <glyph glyph-name="uni00F8" unicode="&#xf8;" horiz-adv-x="528" 
d="M480 254c0 -82 -19 -146 -58 -193s-92 -71 -159 -71c-61 0 -110 20 -147 59l-53 -70l-12 9l55 73c-39 46 -58 110 -58 193c0 82 19 147 58 194c38 47 90 70 157 70c60 0 109 -19 148 -58l53 69l12 -9l-55 -72c39 -45 59 -113 59 -194zM126 62c35 -37 81 -56 137 -56
c125 0 201 93 201 248c0 77 -17 137 -52 181zM116 73l286 374c-35 37 -81 55 -139 55c-124 0 -199 -93 -199 -248c0 -77 17 -137 52 -181z" />
    <glyph glyph-name="uni01FF" unicode="&#x1ff;" horiz-adv-x="528" 
d="M480 254c0 -82 -19 -146 -58 -193s-92 -71 -159 -71c-61 0 -110 20 -147 59l-53 -70l-12 9l55 73c-39 46 -58 110 -58 193c0 82 19 147 58 194c38 47 90 70 157 70c60 0 109 -19 148 -58l53 69l12 -9l-55 -72c39 -45 59 -113 59 -194zM263 6c125 0 201 93 201 248
c0 77 -17 137 -52 181l-286 -373c35 -37 81 -56 137 -56zM116 73l286 374c-35 37 -81 55 -139 55c-124 0 -199 -93 -199 -248c0 -77 17 -137 52 -181zM216 574l94 138h21l-98 -138h-17z" />
    <glyph glyph-name="uni00F5" unicode="&#xf5;" horiz-adv-x="528" 
d="M48 254c0 82 19 147 58 194c38 47 91 70 158 70s120 -23 159 -70c38 -47 57 -112 57 -194s-19 -146 -57 -193c-39 -47 -92 -71 -159 -71s-120 24 -158 71c-39 47 -58 111 -58 193zM411 436c-35 44 -84 66 -147 66c-125 0 -200 -93 -200 -248s75 -248 200 -248
s200 93 200 248c0 77 -18 138 -53 182zM142 681c12 14 28 21 47 21c28 0 48 -11 80 -34c28 -21 46 -31 70 -31c31 0 50 22 53 65h16c-4 -52 -30 -81 -69 -81c-28 0 -48 11 -80 34c-28 21 -46 31 -70 31c-31 0 -50 -22 -53 -65h-16c2 26 9 46 22 60z" />
    <glyph glyph-name="uni0153" unicode="&#x153;" horiz-adv-x="852" 
d="M729 45c29 26 46 61 51 104h17c-12 -97 -81 -159 -176 -159c-96 0 -165 72 -188 189h-1c-19 -119 -88 -189 -189 -189c-121 0 -195 100 -195 264s74 264 195 264c97 0 166 -66 187 -179h2c20 112 88 179 181 179c100 0 171 -72 186 -184c3 -27 5 -52 5 -75h-364
c0 -152 70 -253 181 -253c43 0 79 13 108 39zM64 254c0 -153 68 -248 179 -248c112 0 181 95 181 248s-69 248 -181 248c-111 0 -179 -95 -179 -248zM704 476c-27 17 -57 26 -91 26c-53 0 -94 -21 -125 -62c-31 -42 -47 -97 -48 -165h348c0 95 -32 165 -84 201z" />
    <glyph glyph-name="uni00FE" unicode="&#xfe;" horiz-adv-x="545" 
d="M497 254c0 -82 -19 -146 -57 -193s-90 -71 -155 -71c-97 0 -159 66 -180 165h-1c2 -29 3 -72 3 -127v-213h-16v897h16v-232c0 -55 -1 -98 -3 -127h1c21 99 83 165 180 165c65 0 117 -23 155 -70s57 -112 57 -194zM106 254c0 -153 68 -248 179 -248c121 0 196 93 196 248
s-75 248 -196 248c-111 0 -179 -95 -179 -248z" />
    <glyph glyph-name="uni0155" unicode="&#x155;" horiz-adv-x="319" 
d="M104 375h1c24 89 85 135 172 135c8 0 17 -1 28 -2v-16c-11 1 -20 2 -28 2c-103 0 -170 -69 -170 -201v-293h-16v508h16c0 -58 -1 -102 -3 -133zM143 574l94 138h21l-98 -138h-17z" />
    <glyph glyph-name="uni0159" unicode="&#x159;" horiz-adv-x="319" 
d="M305 492c-11 1 -20 2 -28 2c-103 0 -170 -69 -170 -201v-293h-16v508h16c0 -58 -1 -102 -3 -133h1c24 89 85 135 172 135c8 0 17 -1 28 -2v-16zM64 712h21l106 -123l106 123h21l-119 -138h-16z" />
    <glyph glyph-name="uni0157" unicode="&#x157;" horiz-adv-x="319" 
d="M305 492c-11 1 -20 2 -28 2c-103 0 -170 -69 -170 -201v-293h-16v508h16c0 -58 -1 -102 -3 -133h1c24 89 85 135 172 135c8 0 17 -1 28 -2v-16zM63 -239l28 94v66h16v-66l-30 -94h-14z" />
    <glyph glyph-name="uni015B" unicode="&#x15b;" horiz-adv-x="447" 
d="M368 191c-24 31 -66 46 -155 65c-112 24 -155 47 -158 129c0 40 15 72 46 97c30 24 68 36 114 36c107 0 171 -66 171 -174h-16c0 99 -58 158 -155 158c-84 0 -144 -46 -144 -117c3 -74 39 -88 145 -113c139 -31 182 -54 185 -144c0 -41 -16 -74 -47 -99
c-32 -26 -72 -39 -121 -39c-120 0 -189 68 -189 184h16c0 -107 62 -168 173 -168c44 0 80 11 109 34s43 52 43 88c0 27 -6 48 -17 63zM261 712h21l-98 -138h-17z" />
    <glyph glyph-name="uni0161" unicode="&#x161;" horiz-adv-x="447" 
d="M386 344h-16c0 99 -58 158 -155 158c-84 0 -144 -46 -144 -117c3 -74 39 -88 145 -113c139 -31 182 -54 185 -144c0 -41 -16 -74 -47 -99c-32 -26 -72 -39 -121 -39c-120 0 -189 68 -189 184h16c0 -107 62 -168 173 -168c44 0 80 11 109 34s43 52 43 88
c-5 82 -40 99 -172 128c-112 24 -155 47 -158 129c0 40 15 72 46 97c30 24 68 36 114 36c107 0 171 -66 171 -174zM88 712h21l106 -123l106 123h21l-119 -138h-16z" />
    <glyph glyph-name="uni015F" unicode="&#x15f;" horiz-adv-x="447" 
d="M249 -10l-41 -59c6 2 13 3 21 3c52 0 81 -26 81 -67c0 -44 -34 -72 -89 -72c-30 0 -59 8 -86 23l8 14c24 -14 50 -21 78 -21c47 0 73 21 73 56s-22 52 -65 52c-12 0 -23 -2 -33 -5l-11 11l44 65c-116 1 -185 69 -185 184h16c0 -107 62 -168 173 -168c44 0 80 11 109 34
s43 52 43 88c-5 82 -40 99 -172 128c-112 24 -155 47 -158 129c0 40 15 72 46 97c30 24 68 36 114 36c107 0 171 -66 171 -174h-16c0 99 -58 158 -155 158c-84 0 -144 -46 -144 -117c3 -74 39 -88 145 -113c139 -31 182 -54 185 -144c0 -38 -14 -70 -42 -95
c-29 -25 -65 -40 -110 -43z" />
    <glyph glyph-name="uni015D" unicode="&#x15d;" horiz-adv-x="447" 
d="M386 344h-16c0 99 -58 158 -155 158c-84 0 -144 -46 -144 -117c3 -74 39 -88 145 -113c139 -31 182 -54 185 -144c0 -41 -16 -74 -47 -99c-32 -26 -72 -39 -121 -39c-120 0 -189 68 -189 184h16c0 -107 62 -168 173 -168c44 0 80 11 109 34s43 52 43 88
c-5 82 -40 99 -172 128c-112 24 -155 47 -158 129c0 40 15 72 46 97c30 24 68 36 114 36c107 0 171 -66 171 -174zM207 712h16l119 -138h-21l-106 123l-106 -123h-21z" />
    <glyph glyph-name="uni0219" unicode="&#x219;" horiz-adv-x="447" 
d="M385 128c-5 82 -40 99 -172 128c-112 24 -155 47 -158 129c0 40 15 72 46 97c30 24 68 36 114 36c107 0 171 -66 171 -174h-16c0 99 -58 158 -155 158c-84 0 -144 -46 -144 -117c3 -74 39 -88 145 -113c139 -31 182 -54 185 -144c0 -41 -16 -74 -47 -99
c-32 -26 -72 -39 -121 -39c-120 0 -189 68 -189 184h16c0 -107 62 -168 173 -168c44 0 80 11 109 34s43 52 43 88zM187 -239l28 94v66h16v-66l-30 -94h-14z" />
    <glyph glyph-name="uni00DF" unicode="&#xdf;" horiz-adv-x="529" 
d="M483 205c0 -132 -85 -211 -232 -211c-22 0 -41 2 -58 7v17c16 -5 35 -8 58 -8c139 0 216 71 216 195c0 120 -76 191 -192 191h-16v16c117 0 173 56 173 144c0 91 -62 150 -161 150c-107 0 -164 -71 -164 -198v-508h-16v508c0 135 65 214 180 214c108 0 177 -66 177 -166
c0 -84 -44 -135 -127 -151v-1c95 -12 162 -80 162 -199z" />
    <glyph glyph-name="uni017F" unicode="&#x17f;" horiz-adv-x="251" 
d="M15 508h96v86c0 80 35 121 99 121c9 0 18 -1 26 -3v-16c-7 2 -15 3 -26 3c-55 0 -83 -35 -83 -105v-594h-16v492h-96v16z" />
    <glyph glyph-name="uni0167" unicode="&#x167;" horiz-adv-x="270" 
d="M238 2c-12 -3 -24 -4 -35 -4c-64 0 -92 35 -92 116v158h-95v16h95v204h-97v16h97v117h16v-117h106v-16h-106v-204h104v-16h-104v-158c0 -72 21 -100 76 -100c11 0 23 1 35 4v-16z" />
    <glyph glyph-name="uni0165" unicode="&#x165;" horiz-adv-x="270" 
d="M238 2c-12 -3 -24 -4 -35 -4c-64 0 -92 35 -92 116v378h-97v16h97v117h16v-117h106v-16h-106v-378c0 -72 21 -100 76 -100c11 0 23 1 35 4v-16zM228 712h17l-44 -174h-14z" />
    <glyph glyph-name="uni0163" unicode="&#x163;" horiz-adv-x="270" 
d="M238 2c-12 -3 -24 -4 -35 -4c-64 0 -92 35 -92 116v378h-97v16h97v117h16v-117h106v-16h-106v-378c0 -72 21 -100 76 -100c11 0 23 1 35 4v-16zM117 -239l28 94v66h16v-66l-30 -94h-14z" />
    <glyph glyph-name="uni021B" unicode="&#x21b;" horiz-adv-x="270" 
d="M238 2c-12 -3 -24 -4 -35 -4c-64 0 -92 35 -92 116v378h-97v16h97v117h16v-117h106v-16h-106v-378c0 -72 21 -100 76 -100c11 0 23 1 35 4v-16zM117 -239l28 94v66h16v-66l-30 -94h-14z" />
    <glyph glyph-name="uni00FA" unicode="&#xfa;" 
d="M447 0h-16v111h-1c-29 -76 -97 -121 -174 -121c-108 0 -172 72 -172 209v309h16v-309c0 -128 57 -193 156 -193c94 0 175 77 175 184v318h16v-508zM315 712h21l-98 -138h-17z" />
    <glyph glyph-name="uni016D" unicode="&#x16d;" 
d="M447 0h-16v111h-1c-29 -76 -97 -121 -174 -121c-108 0 -172 72 -172 209v309h16v-309c0 -128 57 -193 156 -193c94 0 175 77 175 184v318h16v-508zM141 712c8 -72 52 -111 128 -111s120 39 128 111h16c-8 -80 -60 -127 -144 -127s-136 47 -144 127h16z" />
    <glyph glyph-name="uni00FB" unicode="&#xfb;" 
d="M447 0h-16v111h-1c-29 -76 -97 -121 -174 -121c-108 0 -172 72 -172 209v309h16v-309c0 -128 57 -193 156 -193c94 0 175 77 175 184v318h16v-508zM261 712h16l119 -138h-21l-106 123l-106 -123h-21z" />
    <glyph glyph-name="uni00FC" unicode="&#xfc;" 
d="M447 0h-16v111h-1c-29 -76 -97 -121 -174 -121c-108 0 -172 72 -172 209v309h16v-309c0 -128 57 -193 156 -193c94 0 175 77 175 184v318h16v-508zM369 712v-77h-16v77h16zM169 635v77h16v-77h-16z" />
    <glyph glyph-name="uni00F9" unicode="&#xf9;" 
d="M447 0h-16v111h-1c-29 -76 -97 -121 -174 -121c-108 0 -172 72 -172 209v309h16v-309c0 -128 57 -193 156 -193c94 0 175 77 175 184v318h16v-508zM224 712l94 -138h-17l-98 138h21z" />
    <glyph glyph-name="uni0171" unicode="&#x171;" 
d="M447 0h-16v111h-1c-29 -76 -97 -121 -174 -121c-108 0 -172 72 -172 209v309h16v-309c0 -128 57 -193 156 -193c94 0 175 77 175 184v318h16v-508zM405 712h24l-127 -138h-19zM306 712h24l-127 -138h-19z" />
    <glyph glyph-name="uni016B" unicode="&#x16b;" 
d="M447 0h-16v111h-1c-29 -76 -97 -121 -174 -121c-108 0 -172 72 -172 209v309h16v-309c0 -128 57 -193 156 -193c94 0 175 77 175 184v318h16v-508zM382 664v-16h-226v16h226z" />
    <glyph glyph-name="uni0173" unicode="&#x173;" 
d="M450 -184c-9 -3 -19 -5 -32 -5c-47 0 -71 24 -71 67c0 44 23 77 84 128v105h-1c-29 -76 -97 -121 -174 -121c-108 0 -172 72 -172 209v309h16v-309c0 -128 57 -193 156 -193c94 0 175 77 175 184v318h16v-508c-63 -51 -84 -83 -84 -122c0 -34 18 -51 55 -51
c13 0 23 2 32 5v-16z" />
    <glyph glyph-name="uni016F" unicode="&#x16f;" 
d="M210 737c17 16 36 24 59 24c47 0 84 -37 84 -84s-37 -84 -84 -84s-84 37 -84 84c0 23 8 43 25 60zM431 508h16v-508h-16v111h-1c-29 -76 -97 -121 -174 -121c-108 0 -172 72 -172 209v309h16v-309c0 -128 57 -193 156 -193c94 0 175 77 175 184v318zM201 677
c0 -37 31 -68 68 -68c39 0 68 31 68 68c0 39 -29 68 -68 68c-37 0 -68 -29 -68 -68z" />
    <glyph glyph-name="uni0169" unicode="&#x169;" 
d="M431 0v111h-1c-29 -76 -97 -121 -174 -121c-108 0 -172 72 -172 209v309h16v-309c0 -128 57 -193 156 -193c94 0 175 77 175 184v318h16v-508h-16zM125 621c4 52 30 81 69 81c28 0 48 -11 80 -34c28 -21 46 -31 70 -31c31 0 50 22 53 65h16c-4 -52 -30 -81 -69 -81
c-28 0 -48 11 -80 34c-28 21 -46 31 -70 31c-31 0 -50 -22 -53 -65h-16z" />
    <glyph glyph-name="uni1E83" unicode="&#x1e83;" horiz-adv-x="742" 
d="M732 508l-170 -508h-24l-166 493h-2l-166 -493h-24l-170 508h16l165 -492h2l166 492h24l166 -492h2l165 492h16zM417 712h21l-98 -138h-17z" />
    <glyph glyph-name="uni0175" unicode="&#x175;" horiz-adv-x="742" 
d="M732 508l-170 -508h-24l-166 493h-2l-166 -493h-24l-170 508h16l165 -492h2l166 492h24l166 -492h2l165 492h16zM363 712h16l119 -138h-21l-106 123l-106 -123h-21z" />
    <glyph glyph-name="uni1E85" unicode="&#x1e85;" horiz-adv-x="742" 
d="M732 508l-170 -508h-24l-166 493h-2l-166 -493h-24l-170 508h16l165 -492h2l166 492h24l166 -492h2l165 492h16zM471 712v-77h-16v77h16zM271 712h16v-77h-16v77z" />
    <glyph glyph-name="uni1E81" unicode="&#x1e81;" horiz-adv-x="742" 
d="M732 508l-170 -508h-24l-166 493h-2l-166 -493h-24l-170 508h16l165 -492h2l166 492h24l166 -492h2l165 492h16zM326 712l94 -138h-17l-98 138h21z" />
    <glyph glyph-name="uni00FD" unicode="&#xfd;" horiz-adv-x="431" 
d="M429 508l-211 -514c-62 -151 -97 -180 -172 -183c-17 0 -31 2 -41 7v16c10 -5 24 -7 41 -7c66 3 96 27 157 172l-201 509h17l192 -486h1l200 486h17zM262 712h21l-98 -138h-17z" />
    <glyph glyph-name="uni0177" unicode="&#x177;" horiz-adv-x="431" 
d="M429 508l-211 -514c-62 -151 -97 -180 -172 -183c-17 0 -31 2 -41 7v16c10 -5 24 -7 41 -7c66 3 96 27 157 172l-201 509h17l192 -486h1l200 486h17zM208 712h16l119 -138h-21l-106 123l-106 -123h-21z" />
    <glyph glyph-name="uni00FF" unicode="&#xff;" horiz-adv-x="431" 
d="M429 508l-211 -514c-62 -151 -97 -180 -172 -183c-17 0 -31 2 -41 7v16c10 -5 24 -7 41 -7c66 3 96 27 157 172l-201 509h17l192 -486h1l200 486h17zM316 712v-77h-16v77h16zM132 712v-77h-16v77h16z" />
    <glyph glyph-name="uni1EF3" unicode="&#x1ef3;" horiz-adv-x="431" 
d="M429 508l-211 -514c-62 -151 -97 -180 -172 -183c-17 0 -31 2 -41 7v16c10 -5 24 -7 41 -7c66 3 96 27 157 172l-201 509h17l192 -486h1l200 486h17zM150 712h21l94 -138h-17z" />
    <glyph glyph-name="uni017A" unicode="&#x17a;" horiz-adv-x="441" 
d="M20 24l375 466v2h-365v16h381v-24l-375 -466v-2h385v-16h-401v24zM267 712h21l-98 -138h-17z" />
    <glyph glyph-name="uni017E" unicode="&#x17e;" horiz-adv-x="441" 
d="M421 0h-401v24l375 466v2h-365v16h381v-24l-375 -466v-2h385v-16zM94 712h21l106 -123l106 123h21l-119 -138h-16z" />
    <glyph glyph-name="uni017C" unicode="&#x17c;" horiz-adv-x="441" 
d="M20 24l375 466v2h-365v16h381v-24l-375 -466v-2h385v-16h-401v24zM229 712v-77h-16v77h16z" />
    <glyph glyph-name="uni006A.frac" horiz-adv-x="209" 
d="M9 -171c63 0 93 31 93 123v556h16v-556c0 -101 -37 -139 -109 -139c-7 0 -13 1 -18 2v16c5 -1 11 -2 18 -2zM62 574l94 138h21l-98 -138h-17z" />
    <glyph glyph-name="uni00E7.salt" horiz-adv-x="493" 
d="M449 167c-5 -53 -24 -96 -58 -128c-35 -33 -78 -49 -131 -49c-132 0 -212 99 -212 264s80 264 212 264c53 0 96 -16 131 -47c34 -32 53 -74 58 -125h-16c-4 47 -22 84 -53 113c-32 29 -72 43 -120 43c-123 0 -196 -92 -196 -248s73 -248 196 -248c96 0 164 64 173 161h16
zM149 -207l126 158h18l-122 -158h-22z" />
    <glyph glyph-name="uni015F.salt" horiz-adv-x="447" 
d="M368 191c-24 31 -66 46 -155 65c-112 24 -155 47 -158 129c0 40 15 72 46 97c30 24 68 36 114 36c107 0 171 -66 171 -174h-16c0 99 -58 158 -155 158c-84 0 -144 -46 -144 -117c3 -74 39 -88 145 -113c139 -31 182 -54 185 -144c0 -41 -16 -74 -47 -99
c-32 -26 -72 -39 -121 -39c-120 0 -189 68 -189 184h16c0 -107 62 -168 173 -168c44 0 80 11 109 34s43 52 43 88c0 27 -6 48 -17 63zM238 -49h18l-122 -158h-22z" />
    <glyph glyph-name="uni0163.salt" horiz-adv-x="270" 
d="M238 2c-12 -3 -24 -4 -35 -4c-64 0 -92 35 -92 116v378h-97v16h97v117h16v-117h106v-16h-106v-378c0 -72 21 -100 76 -100c11 0 23 1 35 4v-16zM168 -49h18l-122 -158h-22z" />
    <glyph glyph-name="uni0061.sups" horiz-adv-x="358" 
d="M299 408c0 -30 2 -56 7 -78h-16c-4 25 -6 50 -6 74h-1c-24 -51 -70 -81 -134 -81c-72 0 -120 39 -120 99c0 57 37 91 128 104c28 4 70 9 126 15v22c0 79 -40 115 -107 115c-71 0 -110 -39 -115 -99h-16c5 69 52 114 131 114c76 0 123 -43 123 -131v-154zM75 361
c19 -15 44 -23 75 -23c41 0 74 13 98 39c27 31 35 51 35 106v43c-61 -7 -102 -12 -124 -15c-81 -12 -113 -41 -113 -89c0 -26 10 -46 29 -61z" />
    <glyph glyph-name="uni0062.sups" horiz-adv-x="393" 
d="M319 373c-27 -33 -65 -50 -112 -50c-67 0 -113 41 -129 110h-1c2 -23 3 -57 3 -103h-16v498h16v-142c0 -46 -1 -80 -3 -103h1c16 69 62 110 129 110c93 0 152 -70 152 -185c0 -57 -13 -102 -40 -135zM80 508c0 -105 49 -170 126 -170c85 0 137 65 137 170
s-52 170 -137 170c-77 0 -126 -65 -126 -170z" />
    <glyph glyph-name="uni0063.sups" horiz-adv-x="357" 
d="M326 448c-7 -75 -61 -125 -138 -125c-96 0 -154 69 -154 185c0 115 58 185 154 185c77 0 131 -50 138 -122h-16c-7 63 -54 106 -122 106c-87 0 -138 -62 -138 -169s51 -170 138 -170c68 0 115 45 122 110h16z" />
    <glyph glyph-name="uni0064.sups" horiz-adv-x="393" 
d="M329 330h-16v90h-1c-19 -61 -63 -97 -126 -97c-95 0 -152 70 -152 185s59 185 152 185c63 0 107 -36 126 -97h1v232h16v-498zM50 508c0 -105 52 -170 137 -170c77 0 126 65 126 170s-49 170 -126 170c-85 0 -137 -65 -137 -170z" />
    <glyph glyph-name="uni0065.sups" horiz-adv-x="373" 
d="M339 509h-289c1 -105 57 -170 142 -170c68 0 117 37 126 96h16c-11 -68 -65 -112 -142 -112c-97 0 -158 75 -158 192c0 108 59 178 152 178c80 0 134 -49 149 -129c3 -15 4 -34 4 -55zM323 524c-1 97 -56 153 -137 153c-83 0 -133 -61 -136 -153h273z" />
    <glyph glyph-name="uni00E8.sups" horiz-adv-x="373" 
d="M339 509h-289c1 -105 57 -170 142 -170c68 0 117 37 126 96h16c-11 -68 -65 -112 -142 -112c-97 0 -158 75 -158 192c0 108 59 178 152 178c80 0 134 -49 149 -129c3 -15 4 -34 4 -55zM323 524c-1 97 -56 153 -137 153c-83 0 -133 -61 -136 -153h273zM144 828l77 -96h-18
l-81 96h22z" />
    <glyph glyph-name="uni0066.sups" horiz-adv-x="185" 
d="M174 812c-6 2 -13 3 -21 3c-39 0 -57 -23 -57 -71v-58h77v-16h-77v-340h-16v340h-69v16h69v58c0 57 25 87 73 87c8 0 15 -1 21 -3v-16z" />
    <glyph glyph-name="uni0067.sups" horiz-adv-x="394" 
d="M330 352c0 -101 -49 -155 -145 -155c-84 0 -137 42 -137 111h16c0 -60 46 -96 121 -96c86 0 129 47 129 140c0 38 1 67 3 87h-1c-20 -68 -65 -104 -129 -104c-95 0 -153 70 -153 179s58 179 153 179c63 0 110 -38 129 -105h1c-2 21 -3 54 -3 98h16v-334zM87 395
c24 -29 57 -44 100 -44c79 0 127 62 127 163s-48 163 -127 163c-85 0 -137 -62 -137 -163c0 -51 12 -90 37 -119z" />
    <glyph glyph-name="uni0068.sups" horiz-adv-x="388" 
d="M329 330h-16v216c0 88 -39 131 -110 131c-34 0 -63 -12 -87 -35c-24 -24 -36 -54 -36 -91v-221h-16v498h16v-142c0 -37 -1 -64 -3 -83h1c19 57 70 90 126 90c80 0 125 -51 125 -147v-216z" />
    <glyph glyph-name="uni0069.sups" horiz-adv-x="144" 
d="M64 330v356h16v-356h-16zM64 773v55h16v-55h-16z" />
    <glyph glyph-name="uni006A.sups" horiz-adv-x="153" 
d="M8 215c44 0 65 20 65 81v390h16v-390c0 -69 -28 -97 -81 -97c-4 0 -9 1 -14 2v16c5 -1 10 -2 14 -2zM73 773v55h16v-55h-16z" />
    <glyph glyph-name="uni006B.sups" horiz-adv-x="319" 
d="M64 330v498h16v-299h1l195 157h25l-202 -162l223 -194h-24l-217 189h-1v-189h-16z" />
    <glyph glyph-name="uni006C.sups" horiz-adv-x="144" 
d="M80 828v-498h-16v498h16z" />
    <glyph glyph-name="uni006D.sups" horiz-adv-x="586" 
d="M527 330h-16v222c0 84 -35 125 -100 125c-63 0 -108 -48 -108 -119v-228h-16v237c0 68 -37 110 -98 110c-64 0 -109 -50 -109 -131v-216h-16v356h16c0 -35 -1 -61 -3 -78h1c17 52 59 85 112 85c56 0 97 -34 108 -87c16 53 59 87 114 87c73 0 115 -48 115 -140v-223z" />
    <glyph glyph-name="uni006E.sups" horiz-adv-x="388" 
d="M77 603h1c19 57 70 90 126 90c80 0 125 -51 125 -147v-216h-16v216c0 88 -39 131 -110 131c-34 0 -63 -12 -87 -35c-24 -24 -36 -54 -36 -91v-221h-16v356h16c0 -37 -1 -64 -3 -83z" />
    <glyph glyph-name="uni006F.sups" horiz-adv-x="382" 
d="M191 693c97 0 157 -70 157 -185s-60 -185 -157 -185s-157 70 -157 185s60 185 157 185zM88 384c25 -30 59 -45 103 -45c88 0 141 64 141 169s-53 169 -141 169s-141 -64 -141 -169c0 -53 13 -94 38 -124z" />
    <glyph glyph-name="uni0070.sups" horiz-adv-x="393" 
d="M319 373c-27 -33 -65 -50 -112 -50c-67 0 -113 41 -129 110h-1c2 -23 3 -57 3 -103v-129h-16v485h16c0 -46 -1 -80 -3 -103h1c16 69 62 110 129 110c93 0 152 -70 152 -185c0 -57 -13 -102 -40 -135zM80 508c0 -105 49 -170 126 -170c85 0 137 65 137 170
s-52 170 -137 170c-77 0 -126 -65 -126 -170z" />
    <glyph glyph-name="uni0071.sups" horiz-adv-x="393" 
d="M329 201h-16v219h-1c-19 -61 -63 -97 -126 -97c-95 0 -152 70 -152 185s59 185 152 185c63 0 107 -36 126 -97h1v90h16v-485zM50 508c0 -105 52 -170 137 -170c77 0 126 65 126 170s-49 170 -126 170c-85 0 -137 -65 -137 -170z" />
    <glyph glyph-name="uni0072.sups" horiz-adv-x="232" 
d="M64 330v356h16c0 -40 -1 -69 -3 -88h1c17 57 62 89 123 89c6 0 13 -1 21 -2v-16c-8 1 -15 2 -21 2c-73 0 -121 -48 -121 -139v-202h-16z" />
    <glyph glyph-name="uni0073.sups" horiz-adv-x="324" 
d="M292 420c0 -57 -51 -97 -123 -97c-87 0 -138 48 -138 128h16c0 -71 45 -112 122 -112c63 0 107 33 107 81c0 54 -31 68 -122 87c-81 17 -115 36 -115 92s49 94 117 94c77 0 125 -46 125 -122h-16c0 67 -40 106 -109 106c-59 0 -101 -31 -101 -78c0 -23 8 -40 23 -49
s41 -18 80 -27c98 -22 131 -37 134 -103z" />
    <glyph glyph-name="uni0074.sups" horiz-adv-x="197" 
d="M175 331c-7 -2 -15 -3 -25 -3c-49 0 -71 27 -71 84v258h-69v16h69v82h16v-82h76v-16h-76v-258c0 -49 15 -68 55 -68c10 0 18 1 25 3v-16z" />
    <glyph glyph-name="uni0075.sups" horiz-adv-x="388" 
d="M75 470c0 -88 39 -131 110 -131c34 0 63 12 87 36c24 23 36 53 36 90v221h16v-356h-16v73h-1c-21 -51 -70 -80 -123 -80c-79 0 -125 51 -125 147v216h16v-216z" />
    <glyph glyph-name="uni0076.sups" horiz-adv-x="313" 
d="M1 686h17l138 -340h1l138 340h17l-144 -356h-23z" />
    <glyph glyph-name="uni0077.sups" horiz-adv-x="533" 
d="M526 686l-120 -356h-23l-116 341h-1l-116 -341h-23l-120 356h16l115 -340h1l115 340h25l115 -340h1l115 340h16z" />
    <glyph glyph-name="uni0078.sups" horiz-adv-x="321" 
d="M150 515l-135 171h20l125 -159h1l125 159h20l-135 -171l147 -185h-20l-137 172h-1l-137 -172h-20z" />
    <glyph glyph-name="uni0079.sups" horiz-adv-x="313" 
d="M34 213c47 0 72 20 112 116l-145 357h17l136 -335h1l140 335h17l-152 -362c-43 -103 -70 -126 -126 -126c-11 0 -21 1 -29 3v16c7 -3 17 -4 29 -4z" />
    <glyph glyph-name="uni007A.sups" horiz-adv-x="318" 
d="M14 350l265 319v1h-258v16h276v-20l-265 -319v-1h272v-16h-290v20z" />
    <glyph glyph-name="uniFB00" unicode="&#xfb00;" horiz-adv-x="469" 
d="M454 696c-7 2 -16 3 -26 3c-55 0 -83 -35 -83 -105v-86h108v-16h-108v-492h-16v492h-202v-492h-16v492h-96v16h96v86c0 80 35 121 99 121c9 0 18 -1 26 -3v-16c-7 2 -15 3 -26 3c-55 0 -83 -35 -83 -105v-86h202v86c0 80 35 121 99 121c9 0 18 -1 26 -3v-16z" />
    <glyph glyph-name="uniFB03" unicode="&#xfb03;" horiz-adv-x="667" 
d="M111 508v86c0 80 35 121 99 121c9 0 18 -1 26 -3v-16c-7 2 -15 3 -26 3c-55 0 -83 -35 -83 -105v-86h202v86c0 80 35 121 99 121c9 0 18 -1 26 -3v-16c-7 2 -16 3 -26 3c-55 0 -83 -35 -83 -105v-86h108v-16h-108v-492h-16v492h-202v-492h-16v492h-96v16h96zM560 508h16
v-508h-16v508zM576 712v-77h-16v77h16z" />
    <glyph glyph-name="uniFB04" unicode="&#xfb04;" horiz-adv-x="667" 
d="M111 508v86c0 80 35 121 99 121c9 0 18 -1 26 -3v-16c-7 2 -15 3 -26 3c-55 0 -83 -35 -83 -105v-86h202v86c0 80 35 121 99 121c9 0 18 -1 26 -3v-16c-7 2 -16 3 -26 3c-55 0 -83 -35 -83 -105v-86h108v-16h-108v-492h-16v492h-202v-492h-16v492h-96v16h96zM560 0v712
h16v-712h-16z" />
    <glyph glyph-name="uniFB01" unicode="&#xfb01;" horiz-adv-x="449" 
d="M15 492v16h96v86c0 80 35 121 99 121c9 0 18 -1 26 -3v-16c-7 2 -15 3 -26 3c-55 0 -83 -35 -83 -105v-86h108v-16h-108v-492h-16v492h-96zM358 0h-16v508h16v-508zM342 712h16v-77h-16v77z" />
    <glyph glyph-name="uniFB02" unicode="&#xfb02;" horiz-adv-x="449" 
d="M15 492v16h96v86c0 80 35 121 99 121c9 0 18 -1 26 -3v-16c-7 2 -15 3 -26 3c-55 0 -83 -35 -83 -105v-86h108v-16h-108v-492h-16v492h-96zM358 0h-16v712h16v-712z" />
    <glyph glyph-name="uni0041.c2sc" horiz-adv-x="523" 
d="M6 0l245 548h21l245 -548h-17l-90 202h-297l-90 -202h-17zM120 218h282l-140 315h-1z" />
    <glyph glyph-name="uni00C1.c2sc" horiz-adv-x="523" 
d="M500 0l-90 202h-297l-90 -202h-17l245 548h21l245 -548h-17zM402 218l-140 315h-1l-141 -315h282zM308 752h21l-98 -138h-17z" />
    <glyph glyph-name="uni0102.c2sc" horiz-adv-x="523" 
d="M500 0l-90 202h-297l-90 -202h-17l245 548h21l245 -548h-17zM120 218h282l-140 315h-1zM134 752c8 -72 52 -111 128 -111s120 39 128 111h16c-8 -80 -60 -127 -144 -127s-136 47 -144 127h16z" />
    <glyph glyph-name="uni00C2.c2sc" horiz-adv-x="523" 
d="M500 0l-90 202h-297l-90 -202h-17l245 548h21l245 -548h-17zM120 218h282l-140 315h-1zM135 614l119 138h16l119 -138h-21l-106 123l-106 -123h-21z" />
    <glyph glyph-name="uni00C4.c2sc" horiz-adv-x="523" 
d="M500 0l-90 202h-297l-90 -202h-17l245 548h21l245 -548h-17zM402 218l-140 315h-1l-141 -315h282zM362 752v-77h-16v77h16zM162 675v77h16v-77h-16z" />
    <glyph glyph-name="uni00C0.c2sc" horiz-adv-x="523" 
d="M500 0l-90 202h-297l-90 -202h-17l245 548h21l245 -548h-17zM120 218h282l-140 315h-1zM217 752l94 -138h-17l-98 138h21z" />
    <glyph glyph-name="uni0100.c2sc" horiz-adv-x="523" 
d="M500 0l-90 202h-297l-90 -202h-17l245 548h21l245 -548h-17zM120 218h282l-140 315h-1zM149 704h226v-16h-226v16z" />
    <glyph glyph-name="uni0104.c2sc" horiz-adv-x="523" 
d="M520 -184c-9 -3 -19 -5 -32 -5c-47 0 -71 24 -71 67s22 77 81 126l-88 198h-297l-90 -202h-17l245 548h21l245 -548c-63 -51 -84 -83 -84 -122c0 -34 18 -51 55 -51c13 0 23 2 32 5v-16zM120 218h282l-140 315h-1z" />
    <glyph glyph-name="uni00C5.c2sc" horiz-adv-x="523" 
d="M500 0l-90 202h-297l-90 -202h-17l245 548h21l245 -548h-17zM402 218l-140 315h-1l-141 -315h282zM178 717c0 47 39 84 84 84c47 0 84 -37 84 -84s-37 -84 -84 -84s-84 37 -84 84zM194 717c0 -37 31 -68 68 -68c39 0 68 31 68 68c0 39 -29 68 -68 68
c-37 0 -68 -29 -68 -68z" />
    <glyph glyph-name="uni00C3.c2sc" horiz-adv-x="523" 
d="M500 0l-90 202h-297l-90 -202h-17l245 548h21l245 -548h-17zM402 218l-140 315h-1l-141 -315h282zM118 661c4 52 30 81 69 81c28 0 48 -11 80 -34c28 -21 46 -31 70 -31c31 0 50 22 53 65h16c-4 -52 -30 -81 -69 -81c-28 0 -48 11 -80 34c-28 21 -46 31 -70 31
c-31 0 -50 -22 -53 -65h-16z" />
    <glyph glyph-name="uni00C6.c2sc" horiz-adv-x="753" 
d="M694 0h-270l-37 216h-251l-123 -216h-18l313 548h375v-16h-333l41 -242h278v-16h-276l45 -258h256v-16zM146 232h239l-51 300h-17z" />
    <glyph glyph-name="uni0042.c2sc" horiz-adv-x="506" 
d="M447 146c0 -89 -65 -146 -174 -146h-179v548h163c116 0 176 -51 176 -135c0 -71 -45 -120 -120 -131v-1c80 -9 134 -60 134 -135zM273 16c100 0 158 49 158 130c0 76 -58 127 -174 127h-147v-257h163zM110 532v-243h147c109 0 160 51 160 124c0 75 -53 119 -160 119h-147
z" />
    <glyph glyph-name="uni0043.c2sc" horiz-adv-x="553" 
d="M503 178c-6 -56 -29 -101 -68 -136s-91 -52 -154 -52c-144 0 -239 112 -239 284s96 284 245 284c128 0 205 -81 213 -186h-16c-4 49 -23 89 -58 122c-35 32 -81 48 -139 48c-140 0 -229 -106 -229 -268s86 -268 223 -268c58 0 106 16 143 48s58 73 63 124h16z" />
    <glyph glyph-name="uni0106.c2sc" horiz-adv-x="553" 
d="M503 178c-6 -56 -29 -101 -68 -136s-91 -52 -154 -52c-144 0 -239 112 -239 284s96 284 245 284c128 0 205 -81 213 -186h-16c-4 49 -23 89 -58 122c-35 32 -81 48 -139 48c-140 0 -229 -106 -229 -268s86 -268 223 -268c58 0 106 16 143 48s58 73 63 124h16zM256 614
h-17l94 138h21z" />
    <glyph glyph-name="uni010C.c2sc" horiz-adv-x="553" 
d="M503 178c-6 -56 -29 -101 -68 -136s-91 -52 -154 -52c-144 0 -239 112 -239 284s96 284 245 284c128 0 205 -81 213 -186h-16c-4 49 -23 89 -58 122c-35 32 -81 48 -139 48c-140 0 -229 -106 -229 -268s86 -268 223 -268c58 0 106 16 143 48s58 73 63 124h16zM279 614
l-119 138h21l106 -123l106 123h21l-119 -138h-16z" />
    <glyph glyph-name="uni00C7.c2sc" horiz-adv-x="553" 
d="M470 467c17 -29 27 -60 30 -95h-16c-4 49 -23 89 -58 122c-35 32 -81 48 -139 48c-140 0 -229 -106 -229 -268s86 -268 223 -268c58 0 106 16 143 48s58 73 63 124h16c-11 -104 -84 -178 -196 -187l-41 -60c6 2 13 3 21 3c52 0 81 -26 81 -67c0 -44 -34 -72 -89 -72
c-30 0 -59 8 -86 23l8 14c24 -14 50 -21 78 -21c47 0 73 21 73 56s-22 52 -65 52c-12 0 -23 -2 -33 -5l-11 11l44 65h-6c-144 0 -239 112 -239 284s96 284 245 284c84 0 148 -35 183 -91z" />
    <glyph glyph-name="uni0108.c2sc" horiz-adv-x="553" 
d="M503 178c-6 -56 -29 -101 -68 -136s-91 -52 -154 -52c-144 0 -239 112 -239 284s96 284 245 284c128 0 205 -81 213 -186h-16c-4 49 -23 89 -58 122c-35 32 -81 48 -139 48c-140 0 -229 -106 -229 -268s86 -268 223 -268c58 0 106 16 143 48s58 73 63 124h16zM181 614
h-21l119 138h16l119 -138h-21l-106 123z" />
    <glyph glyph-name="uni010A.c2sc" horiz-adv-x="553" 
d="M503 178c-6 -56 -29 -101 -68 -136s-91 -52 -154 -52c-144 0 -239 112 -239 284s96 284 245 284c128 0 205 -81 213 -186h-16c-4 49 -23 89 -58 122c-35 32 -81 48 -139 48c-140 0 -229 -106 -229 -268s86 -268 223 -268c58 0 106 16 143 48s58 73 63 124h16zM279 752h16
v-77h-16v77z" />
    <glyph glyph-name="uni0044.c2sc" horiz-adv-x="593" 
d="M255 548c191 0 296 -98 296 -274s-105 -274 -296 -274h-161v548h161zM110 16h145c181 0 280 91 280 258s-99 258 -280 258h-145v-516z" />
    <glyph glyph-name="uni00D0.c2sc" horiz-adv-x="594" 
d="M552 274c0 -176 -105 -274 -296 -274h-161v269h-58v16h58v263h161c191 0 296 -98 296 -274zM111 285h200v-16h-200v-253h145c181 0 280 91 280 258s-99 258 -280 258h-145v-247z" />
    <glyph glyph-name="uni010E.c2sc" horiz-adv-x="593" 
d="M551 274c0 -176 -105 -274 -296 -274h-161v548h161c191 0 296 -98 296 -274zM255 16c181 0 280 91 280 258s-99 258 -280 258h-145v-516h145zM165 752l106 -123l106 123h21l-119 -138h-16l-119 138h21z" />
    <glyph glyph-name="uni0110.c2sc" horiz-adv-x="594" 
d="M552 274c0 -176 -105 -274 -296 -274h-161v269h-58v16h58v263h161c191 0 296 -98 296 -274zM111 285h200v-16h-200v-253h145c181 0 280 91 280 258s-99 258 -280 258h-145v-247z" />
    <glyph glyph-name="uni0045.c2sc" horiz-adv-x="496" 
d="M95 548h336v-16h-320v-242h306v-16h-306v-258h331v-16h-347v548z" />
    <glyph glyph-name="uni00C9.c2sc" horiz-adv-x="496" 
d="M95 548h336v-16h-320v-242h306v-16h-306v-258h331v-16h-347v548zM309 752h21l-98 -138h-17z" />
    <glyph glyph-name="uni0114.c2sc" horiz-adv-x="496" 
d="M442 0h-347v548h336v-16h-320v-242h306v-16h-306v-258h331v-16zM135 752c8 -72 52 -111 128 -111s120 39 128 111h16c-8 -80 -60 -127 -144 -127s-136 47 -144 127h16z" />
    <glyph glyph-name="uni011A.c2sc" horiz-adv-x="496" 
d="M442 0h-347v548h336v-16h-320v-242h306v-16h-306v-258h331v-16zM157 752l106 -123l106 123h21l-119 -138h-16l-119 138h21z" />
    <glyph glyph-name="uni00CA.c2sc" horiz-adv-x="496" 
d="M442 0h-347v548h336v-16h-320v-242h306v-16h-306v-258h331v-16zM136 614l119 138h16l119 -138h-21l-106 123l-106 -123h-21z" />
    <glyph glyph-name="uni00CB.c2sc" horiz-adv-x="496" 
d="M442 0h-347v548h336v-16h-320v-242h306v-16h-306v-258h331v-16zM347 675v77h16v-77h-16zM163 675v77h16v-77h-16z" />
    <glyph glyph-name="uni0116.c2sc" horiz-adv-x="496" 
d="M95 548h336v-16h-320v-242h306v-16h-306v-258h331v-16h-347v548zM271 752v-77h-16v77h16z" />
    <glyph glyph-name="uni00C8.c2sc" horiz-adv-x="496" 
d="M95 548h336v-16h-320v-242h306v-16h-306v-258h331v-16h-347v548zM218 752l94 -138h-17l-98 138h21z" />
    <glyph glyph-name="uni0112.c2sc" horiz-adv-x="496" 
d="M95 548h336v-16h-320v-242h306v-16h-306v-258h331v-16h-347v548zM376 704v-16h-226v16h226z" />
    <glyph glyph-name="uni0118.c2sc" horiz-adv-x="496" 
d="M445 -184c-9 -3 -19 -5 -32 -5c-47 0 -71 24 -71 67s21 74 77 122h-324v548h336v-16h-320v-242h306v-16h-306v-258h331v-16c-63 -51 -84 -83 -84 -122c0 -34 18 -51 55 -51c13 0 23 2 32 5v-16z" />
    <glyph glyph-name="uni0046.c2sc" horiz-adv-x="455" 
d="M423 548v-16h-313v-240h297v-16h-297v-276h-16v548h329z" />
    <glyph glyph-name="uniFB01.smcp" horiz-adv-x="660" 
d="M94 0v548h329v-16h-313v-240h297v-16h-297v-276h-16zM550 548h16v-548h-16v548z" />
    <glyph glyph-name="uniFB02.smcp" horiz-adv-x="897" 
d="M423 548v-16h-313v-240h297v-16h-297v-276h-16v548h329zM566 548v-532h326v-16h-342v548h16z" />
    <glyph glyph-name="uni0047.c2sc" horiz-adv-x="584" 
d="M507 0h-16v49c0 52 1 91 3 116h-1c-20 -109 -98 -173 -211 -173c-148 0 -240 106 -240 279c0 175 97 285 252 285c123 0 200 -66 211 -166h-16c-11 91 -82 150 -195 150c-73 0 -131 -24 -173 -72s-63 -114 -63 -197c0 -82 20 -146 60 -193s95 -70 164 -70
c61 0 111 20 150 59s59 103 59 191h-193v16h209v-274z" />
    <glyph glyph-name="uni011E.c2sc" horiz-adv-x="584" 
d="M489 390c-11 91 -82 150 -195 150c-73 0 -131 -24 -173 -72s-63 -114 -63 -197c0 -82 20 -146 60 -193s95 -70 164 -70c61 0 111 20 150 59s59 103 59 191h-193v16h209v-274h-16v49c0 52 1 91 3 116h-1c-20 -109 -98 -173 -211 -173c-148 0 -240 106 -240 279
c0 175 97 285 252 285c123 0 200 -66 211 -166h-16zM142 752h16c8 -72 52 -111 128 -111s120 39 128 111h16c-8 -80 -60 -127 -144 -127s-136 47 -144 127z" />
    <glyph glyph-name="uni011C.c2sc" horiz-adv-x="584" 
d="M491 0v49c0 52 1 91 3 116h-1c-20 -109 -98 -173 -211 -173c-148 0 -240 106 -240 279c0 175 97 285 252 285c123 0 200 -66 211 -166h-16c-11 91 -82 150 -195 150c-73 0 -131 -24 -173 -72s-63 -114 -63 -197c0 -82 20 -146 60 -193s95 -70 164 -70c61 0 111 20 150 59
s59 103 59 191h-193v16h209v-274h-16zM159 614l119 138h16l119 -138h-21l-106 123l-106 -123h-21z" />
    <glyph glyph-name="uni0122.c2sc" horiz-adv-x="584" 
d="M493 165c-20 -109 -98 -173 -211 -173c-148 0 -240 106 -240 279c0 175 97 285 252 285c123 0 200 -66 211 -166h-16c-11 91 -82 150 -195 150c-73 0 -131 -24 -173 -72s-63 -114 -63 -197c0 -82 20 -146 60 -193s95 -70 164 -70c61 0 111 20 150 59s59 103 59 191h-193
v16h209v-274h-16v49c0 52 1 91 3 116h-1zM250 -239l28 94v66h16v-66l-30 -94h-14z" />
    <glyph glyph-name="uni0120.c2sc" horiz-adv-x="584" 
d="M507 0h-16v49c0 52 1 91 3 116h-1c-20 -109 -98 -173 -211 -173c-148 0 -240 106 -240 279c0 175 97 285 252 285c123 0 200 -66 211 -166h-16c-11 91 -82 150 -195 150c-73 0 -131 -24 -173 -72s-63 -114 -63 -197c0 -82 20 -146 60 -193s95 -70 164 -70
c61 0 111 20 150 59s59 103 59 191h-193v16h209v-274zM278 752h16v-77h-16v77z" />
    <glyph glyph-name="uni0048.c2sc" horiz-adv-x="598" 
d="M111 548v-255h376v255h16v-548h-16v277h-376v-277h-16v548h16z" />
    <glyph glyph-name="uni0126.c2sc" horiz-adv-x="597" 
d="M551 457h-48v-457h-16v277h-376v-277h-16v457h-50v16h50v75h16v-75h376v75h16v-75h48v-16zM111 457v-164h376v164h-376z" />
    <glyph glyph-name="uni0124.c2sc" horiz-adv-x="598" 
d="M503 0h-16v277h-376v-277h-16v548h16v-255h376v255h16v-548zM172 614l119 138h16l119 -138h-21l-106 123l-106 -123h-21z" />
    <glyph glyph-name="uni0049.c2sc" horiz-adv-x="206" 
d="M111 548v-548h-16v548h16z" />
    <glyph glyph-name="uni00CD.c2sc" horiz-adv-x="206" 
d="M111 548v-548h-16v548h16zM55 614l94 138h21l-98 -138h-17z" />
    <glyph glyph-name="uni012C.c2sc" horiz-adv-x="206" 
d="M111 548v-548h-16v548h16zM1 752c7 -72 42 -111 102 -111s95 39 102 111h16c-7 -80 -49 -127 -118 -127s-111 46 -118 127h16z" />
    <glyph glyph-name="uni00CE.c2sc" horiz-adv-x="206" 
d="M95 548h16v-548h-16v548zM94 752h17l97 -137h-20l-85 122l-86 -122h-20z" />
    <glyph glyph-name="uni00CF.c2sc" horiz-adv-x="206" 
d="M111 548v-548h-16v548h16zM167 752h16v-69h-16v69zM39 752v-69h-16v69h16z" />
    <glyph glyph-name="uni0130.c2sc" horiz-adv-x="206" 
d="M95 0v548h16v-548h-16zM95 675v77h16v-77h-16z" />
    <glyph glyph-name="uni00CC.c2sc" horiz-adv-x="206" 
d="M95 548h16v-548h-16v548zM58 752l94 -138h-17l-98 138h21z" />
    <glyph glyph-name="uni0132.c2sc" horiz-adv-x="467" 
d="M220 1v16c9 -3 19 -4 32 -4c69 0 109 41 109 120v415h16v-415c0 -88 -46 -136 -125 -136c-14 0 -25 1 -32 4zM111 548v-548h-16v548h16z" />
    <glyph glyph-name="uni012A.c2sc" horiz-adv-x="206" 
d="M95 548h16v-548h-16v548zM10 704h186v-16h-186v16z" />
    <glyph glyph-name="uni012E.c2sc" horiz-adv-x="206" 
d="M11 -122c0 44 23 77 84 128v542h16v-548c-63 -51 -84 -83 -84 -122c0 -34 18 -51 55 -51c13 0 23 2 32 5v-16c-9 -3 -19 -5 -32 -5c-47 0 -71 24 -71 67z" />
    <glyph glyph-name="uni0128.c2sc" horiz-adv-x="206" 
d="M95 548h16v-548h-16v548zM227 742c-3 -52 -27 -81 -63 -81c-24 0 -39 11 -67 35c-25 21 -37 30 -56 30c-28 0 -44 -22 -47 -65h-16c3 52 27 81 63 81c24 0 39 -11 67 -35c25 -21 37 -30 56 -30c28 0 44 22 47 65h16z" />
    <glyph glyph-name="uni004A.c2sc" horiz-adv-x="261" 
d="M14 1v16c9 -3 19 -4 32 -4c69 0 109 41 109 120v415h16v-415c0 -88 -46 -136 -125 -136c-14 0 -25 1 -32 4z" />
    <glyph glyph-name="uni0134.c2sc" horiz-adv-x="261" 
d="M127 44c19 20 28 50 28 89v415h16v-415c0 -88 -46 -136 -125 -136c-14 0 -25 1 -32 4v16c9 -3 19 -4 32 -4c35 0 62 10 81 31zM154 752h17l97 -137h-20l-85 122l-86 -122h-20z" />
    <glyph glyph-name="uni004B.c2sc" horiz-adv-x="451" 
d="M95 0v548h16v-255h1l285 255h24l-291 -260l317 -288h-24l-311 282h-1v-282h-16z" />
    <glyph glyph-name="uni0136.c2sc" horiz-adv-x="451" 
d="M423 0l-311 282h-1v-282h-16v548h16v-255h1l285 255h24l-291 -260l317 -288h-24zM255 -145v66h16v-66l-30 -94h-14z" />
    <glyph glyph-name="uni004C.c2sc" horiz-adv-x="442" 
d="M95 548h16v-532h326v-16h-342v548z" />
    <glyph glyph-name="uni0139.c2sc" horiz-adv-x="442" 
d="M95 548h16v-532h326v-16h-342v548zM97 614l94 138h21l-98 -138h-17z" />
    <glyph glyph-name="uni013D.c2sc" horiz-adv-x="442" 
d="M111 548v-532h326v-16h-342v548h16zM220 548h17l-44 -174h-14z" />
    <glyph glyph-name="uni013B.c2sc" horiz-adv-x="442" 
d="M95 0v548h16v-532h326v-16h-342zM230 -239l28 94v66h16v-66l-30 -94h-14z" />
    <glyph glyph-name="uni013F.c2sc" horiz-adv-x="501" 
d="M95 0v548h16v-532h326v-16h-342zM362 342v-72h-18v72h18z" />
    <glyph glyph-name="_418" horiz-adv-x="261" 
d="M46 13c69 0 109 41 109 120v415h16v-415c0 -88 -46 -136 -125 -136c-14 0 -25 1 -32 4v16c9 -3 19 -4 32 -4zM115 614l94 138h21l-98 -138h-17z" />
    <glyph glyph-name="uni0141.c2sc" horiz-adv-x="435" 
d="M23 208v18l65 37v285h16v-277l136 76v-18l-136 -76v-237h326v-16h-342v245z" />
    <glyph glyph-name="uni004D.c2sc" horiz-adv-x="719" 
d="M624 0h-16v531h-1l-237 -531h-21l-237 531h-1v-531h-16v548h27l237 -531h1l237 531h27v-548z" />
    <glyph glyph-name="uni004E.c2sc" horiz-adv-x="609" 
d="M95 548h26l376 -532h1v532h16v-548h-26l-376 532h-1v-532h-16v548z" />
    <glyph glyph-name="uni0143.c2sc" horiz-adv-x="609" 
d="M514 0h-26l-376 532h-1v-532h-16v548h26l376 -532h1v532h16v-548zM351 752h21l-98 -138h-17z" />
    <glyph glyph-name="uni0147.c2sc" horiz-adv-x="609" 
d="M514 0h-26l-376 532h-1v-532h-16v548h26l376 -532h1v532h16v-548zM199 752l106 -123l106 123h21l-119 -138h-16l-119 138h21z" />
    <glyph glyph-name="uni0145.c2sc" horiz-adv-x="609" 
d="M514 0h-26l-376 532h-1v-532h-16v548h26l376 -532h1v532h16v-548zM297 -145v66h16v-66l-30 -94h-14z" />
    <glyph glyph-name="uni014A.c2sc" horiz-adv-x="609" 
d="M514 -37c0 -77 -32 -108 -91 -108c-5 0 -11 1 -16 2v16c5 -1 10 -2 15 -2c51 0 76 24 76 92v37l-197 271c-34 48 -86 120 -155 216c-2 3 -13 18 -34 46h-1v-533h-16v548h26l376 -518h1v518h16v-585z" />
    <glyph glyph-name="uni00D1.c2sc" horiz-adv-x="609" 
d="M514 0h-26l-376 532h-1v-532h-16v548h26l376 -532h1v532h16v-548zM161 661c4 52 30 81 69 81c28 0 48 -11 80 -34c28 -21 46 -31 70 -31c31 0 50 22 53 65h16c-4 -52 -30 -81 -69 -81c-28 0 -48 11 -80 34c-28 21 -46 31 -70 31c-31 0 -50 -22 -53 -65h-16z" />
    <glyph glyph-name="uni004F.c2sc" horiz-adv-x="584" 
d="M542 274c0 -172 -100 -284 -250 -284s-250 112 -250 284s100 284 250 284s250 -112 250 -284zM58 274c0 -162 91 -268 234 -268s234 106 234 268s-91 268 -234 268s-234 -106 -234 -268z" />
    <glyph glyph-name="uni00D3.c2sc" horiz-adv-x="584" 
d="M542 274c0 -172 -100 -284 -250 -284s-250 112 -250 284s100 284 250 284s250 -112 250 -284zM58 274c0 -162 91 -268 234 -268s234 106 234 268s-91 268 -234 268s-234 -106 -234 -268zM338 752h21l-98 -138h-17z" />
    <glyph glyph-name="uni014E.c2sc" horiz-adv-x="584" 
d="M73 424c41 85 119 134 219 134c150 0 250 -112 250 -284s-100 -284 -250 -284s-250 112 -250 284c0 57 10 107 31 150zM526 274c0 162 -91 268 -234 268s-234 -106 -234 -268s91 -268 234 -268s234 106 234 268zM164 752c8 -72 52 -111 128 -111s120 39 128 111h16
c-8 -80 -60 -127 -144 -127s-136 47 -144 127h16z" />
    <glyph glyph-name="uni00D4.c2sc" horiz-adv-x="584" 
d="M542 274c0 -172 -100 -284 -250 -284s-250 112 -250 284s100 284 250 284s250 -112 250 -284zM58 274c0 -162 91 -268 234 -268s234 106 234 268s-91 268 -234 268s-234 -106 -234 -268zM165 614l119 138h16l119 -138h-21l-106 123l-106 -123h-21z" />
    <glyph glyph-name="uni00D6.c2sc" horiz-adv-x="584" 
d="M511 124c-41 -85 -119 -134 -219 -134c-150 0 -250 112 -250 284s100 284 250 284s250 -112 250 -284c0 -57 -10 -107 -31 -150zM58 274c0 -162 91 -268 234 -268s234 106 234 268s-91 268 -234 268s-234 -106 -234 -268zM392 752v-77h-16v77h16zM192 675v77h16v-77h-16z
" />
    <glyph glyph-name="uni00D2.c2sc" horiz-adv-x="584" 
d="M542 274c0 -172 -100 -284 -250 -284s-250 112 -250 284s100 284 250 284s250 -112 250 -284zM58 274c0 -162 91 -268 234 -268s234 106 234 268s-91 268 -234 268s-234 -106 -234 -268zM247 752l94 -138h-17l-98 138h21z" />
    <glyph glyph-name="uni0150.c2sc" horiz-adv-x="584" 
d="M542 274c0 -172 -100 -284 -250 -284s-250 112 -250 284s100 284 250 284s250 -112 250 -284zM58 274c0 -162 91 -268 234 -268s234 106 234 268s-91 268 -234 268s-234 -106 -234 -268zM428 752h24l-127 -138h-19zM207 614l122 138h24l-127 -138h-19z" />
    <glyph glyph-name="uni014C.c2sc" horiz-adv-x="584" 
d="M511 124c-41 -85 -119 -134 -219 -134c-150 0 -250 112 -250 284s100 284 250 284s250 -112 250 -284c0 -57 -10 -107 -31 -150zM58 274c0 -162 91 -268 234 -268s234 106 234 268s-91 268 -234 268s-234 -106 -234 -268zM405 704v-16h-226v16h226z" />
    <glyph glyph-name="uni00D8.c2sc" horiz-adv-x="585" 
d="M543 274c0 -172 -97 -284 -250 -284c-68 0 -126 23 -169 63l-51 -62l-12 9l52 64c-45 51 -70 123 -70 210c0 172 97 284 250 284c69 0 125 -21 170 -64l50 63l13 -9l-53 -65c45 -49 70 -121 70 -209zM293 6c143 0 234 106 234 268c0 83 -21 148 -64 197l-329 -405
c41 -40 94 -60 159 -60zM76 162c11 -33 26 -62 47 -85l329 405c-40 40 -93 60 -159 60c-143 0 -234 -106 -234 -268c0 -41 6 -79 17 -112z" />
    <glyph glyph-name="uni00D5.c2sc" horiz-adv-x="584" 
d="M511 424c21 -43 31 -93 31 -150c0 -172 -100 -284 -250 -284s-250 112 -250 284s100 284 250 284c100 0 178 -49 219 -134zM416 509c-35 22 -77 33 -124 33c-143 0 -234 -106 -234 -268s91 -268 234 -268s234 106 234 268c0 108 -39 191 -110 235zM415 682
c-13 -14 -29 -21 -48 -21c-28 0 -48 11 -80 34c-28 21 -46 31 -70 31c-31 0 -50 -22 -53 -65h-16c4 52 30 81 69 81c28 0 48 -11 80 -34c28 -21 46 -31 70 -31c31 0 50 22 53 65h16c-2 -26 -9 -46 -21 -60z" />
    <glyph glyph-name="uni0152.c2sc" horiz-adv-x="805" 
d="M746 0h-419c-181 0 -284 99 -284 274s103 274 284 274h408v-16h-320v-242h306v-16h-306v-258h331v-16zM128 83c46 -45 112 -67 199 -67h72v516h-72c-173 0 -268 -91 -268 -258c0 -83 23 -147 69 -191z" />
    <glyph glyph-name="uni0050.c2sc" horiz-adv-x="489" 
d="M95 0v548h186c115 0 177 -58 177 -146s-62 -146 -177 -146h-170v-256h-16zM281 272c105 0 161 51 161 130s-56 130 -161 130h-170v-260h170z" />
    <glyph glyph-name="uni00DE.c2sc" horiz-adv-x="489" 
d="M413 178c-31 -27 -75 -40 -132 -40h-170v-138h-16v548h16v-118h170c115 0 177 -58 177 -146c0 -44 -15 -79 -45 -106zM111 154h170c105 0 161 51 161 130s-56 130 -161 130h-170v-260z" />
    <glyph glyph-name="uni0051.c2sc" horiz-adv-x="585" 
d="M523 148c-14 -37 -34 -69 -60 -94l65 -68l-11 -12l-66 70c-42 -36 -95 -54 -158 -54c-150 0 -250 112 -250 284s100 284 250 284s250 -112 250 -284c0 -47 -7 -89 -20 -126zM88 132c37 -81 110 -126 205 -126c59 0 108 16 147 49l-77 81l11 11l78 -81
c48 47 75 119 75 208c0 162 -91 268 -234 268s-234 -106 -234 -268c0 -55 10 -102 29 -142z" />
    <glyph glyph-name="uni0052.c2sc" horiz-adv-x="499" 
d="M453 0l-63 161c-15 38 -31 64 -48 79c-17 14 -44 21 -81 21h-150v-261h-16v548h153c125 0 190 -50 190 -138c0 -79 -49 -130 -126 -141v-1c23 -5 41 -15 54 -29c13 -15 26 -39 39 -74l65 -165h-17zM111 277h150c107 0 161 56 161 133c0 79 -57 122 -174 122h-137v-255z
" />
    <glyph glyph-name="uni0154.c2sc" horiz-adv-x="499" 
d="M453 0l-63 161c-15 38 -31 64 -48 79c-17 14 -44 21 -81 21h-150v-261h-16v548h153c125 0 190 -50 190 -138c0 -79 -49 -130 -126 -141v-1c23 -5 41 -15 54 -29c13 -15 26 -39 39 -74l65 -165h-17zM111 277h150c107 0 161 56 161 133c0 79 -57 122 -174 122h-137v-255z
M296 752h21l-98 -138h-17z" />
    <glyph glyph-name="uni0158.c2sc" horiz-adv-x="499" 
d="M453 0l-63 161c-15 38 -31 64 -48 79c-17 14 -44 21 -81 21h-150v-261h-16v548h153c125 0 190 -50 190 -138c0 -79 -49 -130 -126 -141v-1c23 -5 41 -15 54 -29c13 -15 26 -39 39 -74l65 -165h-17zM111 277h150c107 0 161 56 161 133c0 79 -57 122 -174 122h-137v-255z
M123 752h21l106 -123l106 123h21l-119 -138h-16z" />
    <glyph glyph-name="uni0156.c2sc" horiz-adv-x="499" 
d="M453 0l-63 161c-15 38 -31 64 -48 79c-17 14 -44 21 -81 21h-150v-261h-16v548h153c125 0 190 -50 190 -138c0 -79 -49 -130 -126 -141v-1c23 -5 41 -15 54 -29c13 -15 26 -39 39 -74l65 -165h-17zM111 277h150c107 0 161 56 161 133c0 79 -57 122 -174 122h-137v-255z
M238 -239l28 94v66h16v-66l-30 -94h-14z" />
    <glyph glyph-name="uni0053.c2sc" horiz-adv-x="483" 
d="M424 135c0 -89 -71 -145 -184 -145c-125 0 -193 65 -193 193h16c0 -118 59 -177 177 -177c105 0 168 49 168 129c0 60 -27 90 -73 108c-23 9 -58 18 -103 29c-126 31 -171 58 -175 146c0 84 66 140 169 140c124 0 188 -63 188 -184h-16c0 112 -57 168 -172 168
c-95 0 -153 -48 -153 -124c3 -79 44 -101 162 -130c95 -21 141 -37 169 -75c13 -19 20 -45 20 -78z" />
    <glyph glyph-name="uni015A.c2sc" horiz-adv-x="483" 
d="M424 135c0 -89 -71 -145 -184 -145c-125 0 -193 65 -193 193h16c0 -118 59 -177 177 -177c105 0 168 49 168 129c0 60 -27 90 -73 108c-23 9 -58 18 -103 29c-126 31 -171 58 -175 146c0 84 66 140 169 140c124 0 188 -63 188 -184h-16c0 112 -57 168 -172 168
c-95 0 -153 -48 -153 -124c3 -79 44 -101 162 -130c95 -21 141 -37 169 -75c13 -19 20 -45 20 -78zM178 614l94 138h21l-98 -138h-17z" />
    <glyph glyph-name="uni0160.c2sc" horiz-adv-x="483" 
d="M375 29c-33 -26 -78 -39 -135 -39c-125 0 -193 65 -193 193h16c0 -118 59 -177 177 -177c105 0 168 49 168 129c0 60 -27 90 -73 108c-23 9 -58 18 -103 29c-126 31 -171 58 -175 146c0 84 66 140 169 140c124 0 188 -63 188 -184h-16c0 112 -57 168 -172 168
c-95 0 -153 -48 -153 -124c3 -79 44 -101 162 -130c95 -21 141 -37 169 -75c13 -19 20 -45 20 -78c0 -45 -16 -80 -49 -106zM99 752h21l106 -123l106 123h21l-119 -138h-16z" />
    <glyph glyph-name="uni015E.c2sc" horiz-adv-x="483" 
d="M266 -9l-41 -60c6 2 13 3 21 3c52 0 81 -26 81 -67c0 -44 -34 -72 -89 -72c-30 0 -59 8 -86 23l8 14c24 -14 50 -21 78 -21c47 0 73 21 73 56s-22 52 -65 52c-12 0 -23 -2 -33 -5l-11 11l44 65h-6c-125 0 -193 65 -193 193h16c0 -118 59 -177 177 -177
c105 0 168 49 168 129c0 60 -27 90 -73 108c-23 9 -58 18 -103 29c-126 31 -171 58 -175 146c0 84 66 140 169 140c124 0 188 -63 188 -184h-16c0 112 -57 168 -172 168c-95 0 -153 -48 -153 -124c3 -79 44 -101 162 -130c95 -21 141 -37 169 -75c13 -19 20 -45 20 -78
c0 -83 -59 -136 -158 -144z" />
    <glyph glyph-name="uni015C.c2sc" horiz-adv-x="483" 
d="M375 29c-33 -26 -78 -39 -135 -39c-125 0 -193 65 -193 193h16c0 -118 59 -177 177 -177c105 0 168 49 168 129c0 60 -27 90 -73 108c-23 9 -58 18 -103 29c-126 31 -171 58 -175 146c0 84 66 140 169 140c124 0 188 -63 188 -184h-16c0 112 -57 168 -172 168
c-95 0 -153 -48 -153 -124c3 -79 44 -101 162 -130c95 -21 141 -37 169 -75c13 -19 20 -45 20 -78c0 -45 -16 -80 -49 -106zM218 752h16l119 -138h-21l-106 123l-106 -123h-21z" />
    <glyph glyph-name="uni0218.c2sc" horiz-adv-x="483" 
d="M389 205c-13 16 -31 29 -54 38s-58 18 -103 29c-126 31 -171 58 -175 146c0 84 66 140 169 140c124 0 188 -63 188 -184h-16c0 112 -57 168 -172 168c-95 0 -153 -48 -153 -124c3 -79 44 -101 162 -130c95 -21 141 -37 169 -75c13 -19 20 -45 20 -78
c0 -89 -71 -145 -184 -145c-125 0 -193 65 -193 193h16c0 -118 59 -177 177 -177c105 0 168 49 168 129c0 30 -6 53 -19 70zM232 -145v66h16v-66l-30 -94h-14z" />
    <glyph glyph-name="uni1E9E.c2sc" horiz-adv-x="618" 
d="M512 31c-32 -27 -75 -41 -129 -41c-104 0 -163 49 -163 133h16c0 -75 52 -117 147 -117c99 0 160 50 160 138c0 99 -73 147 -216 159v16l164 154c-41 44 -105 69 -180 69c-135 0 -205 -67 -205 -200v-342h-16v342c0 141 77 216 221 216c84 0 157 -33 202 -85l-166 -156
c139 -16 212 -70 212 -173c0 -49 -16 -86 -47 -113z" />
    <glyph glyph-name="uni0054.c2sc" horiz-adv-x="467" 
d="M5 548h458v-16h-221v-532h-16v532h-221v16z" />
    <glyph glyph-name="uni0166.c2sc" horiz-adv-x="468" 
d="M5 532v16h458v-16h-221v-213h128v-16h-128v-303h-16v303h-128v16h128v213h-221z" />
    <glyph glyph-name="uni0164.c2sc" horiz-adv-x="467" 
d="M5 532v16h458v-16h-221v-532h-16v532h-221zM107 752h21l106 -123l106 123h21l-119 -138h-16z" />
    <glyph glyph-name="uni0162.c2sc" horiz-adv-x="467" 
d="M463 548v-16h-221v-532h-16v532h-221v16h458zM198 -239l28 94v66h16v-66l-30 -94h-14z" />
    <glyph glyph-name="uni021A.c2sc" horiz-adv-x="467" 
d="M463 548v-16h-221v-532h-16v532h-221v16h458zM198 -239l28 94v66h16v-66l-30 -94h-14z" />
    <glyph glyph-name="uni0055.c2sc" horiz-adv-x="569" 
d="M90 548h16v-349c0 -128 62 -193 179 -193s179 65 179 193v349h16v-349c0 -137 -70 -209 -195 -209s-195 72 -195 209v349z" />
    <glyph glyph-name="uni00DA.c2sc" horiz-adv-x="569" 
d="M480 199c0 -137 -70 -209 -195 -209s-195 72 -195 209v349h16v-349c0 -128 62 -193 179 -193s179 65 179 193v349h16v-349zM331 752h21l-98 -138h-17z" />
    <glyph glyph-name="uni016C.c2sc" horiz-adv-x="569" 
d="M480 199c0 -137 -70 -209 -195 -209s-195 72 -195 209v349h16v-349c0 -128 62 -193 179 -193s179 65 179 193v349h16v-349zM157 752c8 -72 52 -111 128 -111s120 39 128 111h16c-8 -80 -60 -127 -144 -127s-136 47 -144 127h16z" />
    <glyph glyph-name="uni00DB.c2sc" horiz-adv-x="569" 
d="M480 199c0 -137 -70 -209 -195 -209s-195 72 -195 209v349h16v-349c0 -128 62 -193 179 -193s179 65 179 193v349h16v-349zM277 752h16l119 -138h-21l-106 123l-106 -123h-21z" />
    <glyph glyph-name="uni00DC.c2sc" horiz-adv-x="569" 
d="M480 199c0 -137 -70 -209 -195 -209s-195 72 -195 209v349h16v-349c0 -128 62 -193 179 -193s179 65 179 193v349h16v-349zM369 675v77h16v-77h-16zM185 675v77h16v-77h-16z" />
    <glyph glyph-name="uni00D9.c2sc" horiz-adv-x="569" 
d="M480 199c0 -137 -70 -209 -195 -209s-195 72 -195 209v349h16v-349c0 -128 62 -193 179 -193s179 65 179 193v349h16v-349zM240 752l94 -138h-17l-98 138h21z" />
    <glyph glyph-name="uni0170.c2sc" horiz-adv-x="569" 
d="M480 199c0 -137 -70 -209 -195 -209s-195 72 -195 209v349h16v-349c0 -128 62 -193 179 -193s179 65 179 193v349h16v-349zM299 614l122 138h24l-127 -138h-19zM200 614l122 138h24l-127 -138h-19z" />
    <glyph glyph-name="uni016A.c2sc" horiz-adv-x="569" 
d="M480 199c0 -137 -70 -209 -195 -209s-195 72 -195 209v349h16v-349c0 -128 62 -193 179 -193s179 65 179 193v349h16v-349zM398 704v-16h-226v16h226z" />
    <glyph glyph-name="uni0172.c2sc" horiz-adv-x="567" 
d="M479 201c0 -93 -29 -148 -94 -201c-63 -51 -84 -83 -84 -122c0 -34 18 -51 55 -51c13 0 23 2 32 5v-16c-9 -3 -19 -5 -32 -5c-47 0 -71 24 -71 67c0 45 25 80 94 133v1c-26 -13 -58 -20 -95 -20c-125 0 -195 72 -195 209v347h16v-347c0 -128 62 -193 179 -193
s179 65 179 193v347h16v-347z" />
    <glyph glyph-name="uni016E.c2sc" horiz-adv-x="569" 
d="M226 777c17 16 36 24 59 24c47 0 84 -37 84 -84s-37 -84 -84 -84s-84 37 -84 84c0 23 8 43 25 60zM480 199c0 -137 -70 -209 -195 -209s-195 72 -195 209v349h16v-349c0 -128 62 -193 179 -193s179 65 179 193v349h16v-349zM237 669c13 -13 29 -20 48 -20
c39 0 68 31 68 68c0 39 -29 68 -68 68c-37 0 -68 -29 -68 -68c0 -19 7 -35 20 -48z" />
    <glyph glyph-name="uni0168.c2sc" horiz-adv-x="569" 
d="M480 199c0 -137 -70 -209 -195 -209s-195 72 -195 209v349h16v-349c0 -128 62 -193 179 -193s179 65 179 193v349h16v-349zM141 661c4 52 30 81 69 81c28 0 48 -11 80 -34c28 -21 46 -31 70 -31c31 0 50 22 53 65h16c-4 -52 -30 -81 -69 -81c-28 0 -48 11 -80 34
c-28 21 -46 31 -70 31c-31 0 -50 -22 -53 -65h-16z" />
    <glyph glyph-name="uni0056.c2sc" horiz-adv-x="497" 
d="M7 548h17l224 -531h1l224 531h17l-231 -548h-21z" />
    <glyph glyph-name="uni0057.c2sc" horiz-adv-x="711" 
d="M700 548l-165 -548h-23l-156 532h-1l-156 -532h-23l-165 548h17l159 -531h1l156 531h23l156 -531h1l159 531h17z" />
    <glyph glyph-name="uni1E82.c2sc" horiz-adv-x="711" 
d="M700 548l-165 -548h-23l-156 532h-1l-156 -532h-23l-165 548h17l159 -531h1l156 531h23l156 -531h1l159 531h17zM402 752h21l-98 -138h-17z" />
    <glyph glyph-name="uni0174.c2sc" horiz-adv-x="711" 
d="M700 548l-165 -548h-23l-156 532h-1l-156 -532h-23l-165 548h17l159 -531h1l156 531h23l156 -531h1l159 531h17zM348 752h16l119 -138h-21l-106 123l-106 -123h-21z" />
    <glyph glyph-name="uni1E84.c2sc" horiz-adv-x="711" 
d="M700 548l-165 -548h-23l-156 532h-1l-156 -532h-23l-165 548h17l159 -531h1l156 531h23l156 -531h1l159 531h17zM456 752v-77h-16v77h16zM256 752h16v-77h-16v77z" />
    <glyph glyph-name="uni1E80.c2sc" horiz-adv-x="711" 
d="M700 548l-165 -548h-23l-156 532h-1l-156 -532h-23l-165 548h17l159 -531h1l156 531h23l156 -531h1l159 531h17zM311 752l94 -138h-17l-98 138h21z" />
    <glyph glyph-name="uni0058.c2sc" horiz-adv-x="490" 
d="M235 282l-212 266h20l202 -253h1l201 253h20l-211 -266l223 -282h-20l-213 269h-1l-214 -269h-20z" />
    <glyph glyph-name="uni0059.c2sc" horiz-adv-x="471" 
d="M6 548h20l94 -130l116 -157h1l209 287h19l-221 -304v-244h-16v244z" />
    <glyph glyph-name="uni00DD.c2sc" horiz-adv-x="471" 
d="M120 418l116 -157h1l209 287h19l-221 -304v-244h-16v244l-222 304h20zM282 752h21l-98 -138h-17z" />
    <glyph glyph-name="uni0176.c2sc" horiz-adv-x="471" 
d="M465 548l-221 -304v-244h-16v244l-222 304h20l94 -130l116 -157h1l209 287h19zM109 614l119 138h16l119 -138h-21l-106 123l-106 -123h-21z" />
    <glyph glyph-name="uni0178.c2sc" horiz-adv-x="471" 
d="M465 548l-221 -304v-244h-16v244l-222 304h20l94 -130l116 -157h1l209 287h19zM320 752h16v-77h-16v77zM152 752v-77h-16v77h16z" />
    <glyph glyph-name="uni1EF2.c2sc" horiz-adv-x="471" 
d="M120 418l116 -157h1l209 287h19l-221 -304v-244h-16v244l-222 304h20zM170 752h21l94 -138h-17z" />
    <glyph glyph-name="uni005A.c2sc" horiz-adv-x="452" 
d="M16 20l386 511v1h-382v16h399v-20l-386 -511v-1h404v-16h-421v20z" />
    <glyph glyph-name="uni0179.c2sc" horiz-adv-x="452" 
d="M16 20l386 511v1h-382v16h399v-20l-386 -511v-1h404v-16h-421v20zM266 752h21l-98 -138h-17z" />
    <glyph glyph-name="uni017D.c2sc" horiz-adv-x="452" 
d="M437 0h-421v20l386 511v1h-382v16h399v-20l-386 -511v-1h404v-16zM93 752h21l106 -123l106 123h21l-119 -138h-16z" />
    <glyph glyph-name="uni017B.c2sc" horiz-adv-x="452" 
d="M16 20l386 511v1h-382v16h399v-20l-386 -511v-1h404v-16h-421v20zM228 752v-77h-16v77h16z" />
    <glyph glyph-name="_484" horiz-adv-x="553" 
d="M503 178c-6 -56 -29 -101 -68 -136s-91 -52 -154 -52c-144 0 -239 112 -239 284s96 284 245 284c128 0 205 -81 213 -186h-16c-4 49 -23 89 -58 122c-35 32 -81 48 -139 48c-140 0 -229 -106 -229 -268s86 -268 223 -268c58 0 106 16 143 48s58 73 63 124h16zM192 -207
h-22l126 158h18z" />
    <glyph glyph-name="_485" horiz-adv-x="483" 
d="M424 135c0 -89 -71 -145 -184 -145c-125 0 -193 65 -193 193h16c0 -118 59 -177 177 -177c105 0 168 49 168 129c0 60 -27 90 -73 108c-23 9 -58 18 -103 29c-126 31 -171 58 -175 146c0 84 66 140 169 140c124 0 188 -63 188 -184h-16c0 112 -57 168 -172 168
c-95 0 -153 -48 -153 -124c3 -79 44 -101 162 -130c95 -21 141 -37 169 -75c13 -19 20 -45 20 -78zM129 -207l126 158h18l-122 -158h-22z" />
    <glyph glyph-name="_486" horiz-adv-x="467" 
d="M5 532v16h458v-16h-221v-532h-16v532h-221zM249 -49h18l-122 -158h-22z" />
    <glyph glyph-name="uni00AA" unicode="&#xaa;" horiz-adv-x="358" 
d="M299 408c0 -30 2 -56 7 -78h-16c-4 25 -6 50 -6 74h-1c-24 -51 -70 -81 -134 -81c-72 0 -120 39 -120 99c0 57 37 91 128 104c28 4 70 9 126 15v22c0 79 -40 115 -107 115c-71 0 -110 -39 -115 -99h-16c5 69 52 114 131 114c76 0 123 -43 123 -131v-154zM75 361
c19 -15 44 -23 75 -23c41 0 74 13 98 39c27 31 35 51 35 106v43c-61 -7 -102 -12 -124 -15c-81 -12 -113 -41 -113 -89c0 -26 10 -46 29 -61z" />
    <glyph glyph-name="uni00BA" unicode="&#xba;" horiz-adv-x="382" 
d="M191 693c97 0 157 -70 157 -185s-60 -185 -157 -185s-157 70 -157 185s60 185 157 185zM88 384c25 -30 59 -45 103 -45c88 0 141 64 141 169s-53 169 -141 169s-141 -64 -141 -169c0 -53 13 -94 38 -124z" />
    <glyph glyph-name="uni0410" unicode="&#x410;" horiz-adv-x="634" 
d="M6 0l300 712h21l300 -712h-17l-112 266h-363l-112 -266h-17zM142 282h350l-175 414h-1z" />
    <glyph glyph-name="uni0411" unicode="&#x411;" horiz-adv-x="580" 
d="M502 696h-381v-306h202c136 0 217 -75 217 -195s-81 -195 -217 -195h-218v712h397v-16zM323 16c127 0 201 68 201 179s-74 179 -201 179h-202v-358h202z" />
    <glyph glyph-name="uni0412" unicode="&#x412;" horiz-adv-x="588" 
d="M532 189c0 -116 -78 -189 -209 -189h-218v712h197c141 0 213 -66 213 -174c0 -93 -56 -156 -149 -172v-1c99 -11 166 -77 166 -176zM121 357v-341h202c121 0 193 66 193 173c0 100 -70 168 -213 168h-182zM121 696v-323h182c133 0 196 68 196 165c0 99 -65 158 -197 158
h-181z" />
    <glyph glyph-name="uni0413" unicode="&#x413;" horiz-adv-x="457" 
d="M105 712h347v-16h-331v-696h-16v712z" />
    <glyph glyph-name="uni0403" unicode="&#x403;" horiz-adv-x="457" 
d="M105 0v712h347v-16h-331v-696h-16zM324 886h22l-110 -126h-19z" />
    <glyph glyph-name="uni0490" unicode="&#x490;" horiz-adv-x="457" 
d="M105 0v712h331v160h16v-176h-331v-696h-16z" />
    <glyph glyph-name="uni0414" unicode="&#x414;" horiz-adv-x="669" 
d="M630 -160h-16v160h-579v-160h-16v176h69c28 40 50 112 67 215c16 103 26 263 29 481h380v-696h66v-176zM548 16v680h-348c-3 -205 -12 -359 -28 -462c-17 -103 -38 -175 -64 -218h440z" />
    <glyph glyph-name="uni0415" unicode="&#x415;" horiz-adv-x="586" 
d="M105 712h407v-16h-391v-322h374v-16h-374v-342h405v-16h-421v712z" />
    <glyph glyph-name="uni0400" unicode="&#x400;" horiz-adv-x="586" 
d="M105 712h407v-16h-391v-322h374v-16h-374v-342h405v-16h-421v712zM258 886l107 -126h-19l-110 126h22z" />
    <glyph glyph-name="uni0401" unicode="&#x401;" horiz-adv-x="586" 
d="M526 0h-421v712h407v-16h-391v-322h374v-16h-374v-342h405v-16zM393 779v77h16v-77h-16zM209 779v77h16v-77h-16z" />
    <glyph glyph-name="uni0416" unicode="&#x416;" horiz-adv-x="794" 
d="M767 0l-361 372h-1v-372h-16v372h-1l-361 -372h-23l365 374l-336 338h23l332 -336h1v336h16v-336h1l332 336h23l-336 -338l365 -374h-23z" />
    <glyph glyph-name="uni0417" unicode="&#x417;" horiz-adv-x="579" 
d="M523 181c0 -58 -22 -104 -66 -139c-45 -35 -106 -52 -183 -52c-75 0 -133 18 -175 55c-43 36 -64 84 -64 144h16c0 -112 83 -183 223 -183c147 0 233 68 233 175c0 111 -89 173 -236 173h-75v16h71c143 0 222 63 222 167c0 103 -83 167 -220 167
c-131 0 -215 -67 -215 -182h-16c0 62 21 111 63 146s98 52 168 52c73 0 130 -16 173 -49c42 -33 63 -78 63 -134c0 -94 -53 -152 -158 -174v-1c105 -17 176 -76 176 -181z" />
    <glyph glyph-name="uni0418" unicode="&#x418;" horiz-adv-x="718" 
d="M121 712v-697h1l465 697h26v-712h-16v697h-1l-465 -697h-26v712h16z" />
    <glyph glyph-name="uni0419" unicode="&#x419;" horiz-adv-x="718" 
d="M613 0h-16v697h-1l-465 -697h-26v712h16v-697h1l465 697h26v-712zM231 886c8 -72 52 -111 128 -111s120 39 128 111h16c-8 -80 -60 -127 -144 -127s-136 47 -144 127h16z" />
    <glyph glyph-name="uni040D" unicode="&#x40d;" horiz-adv-x="718" 
d="M613 0h-16v697h-1l-465 -697h-26v712h16v-697h1l465 697h26v-712zM308 886l107 -126h-19l-110 126h22z" />
    <glyph glyph-name="uni041A" unicode="&#x41a;" horiz-adv-x="532" 
d="M105 0v712h16v-332h1l350 332h24l-357 -338l389 -374h-24l-382 368h-1v-368h-16z" />
    <glyph glyph-name="uni040C" unicode="&#x40c;" horiz-adv-x="532" 
d="M122 380l350 332h24l-357 -338l389 -374h-24l-382 368h-1v-368h-16v712h16v-332h1zM339 886h22l-110 -126h-19z" />
    <glyph glyph-name="uni041B" unicode="&#x41b;" horiz-adv-x="663" 
d="M13 0v16c5 -1 12 -2 20 -2c39 0 69 17 89 52c20 34 35 100 45 198c10 97 17 247 21 448h370v-712h-16v696h-339c-3 -199 -10 -348 -21 -446s-28 -164 -50 -199c-23 -35 -56 -53 -99 -53c-8 0 -15 1 -20 2z" />
    <glyph glyph-name="uni041C" unicode="&#x41c;" horiz-adv-x="849" 
d="M744 0h-16v696h-1l-292 -696h-21l-292 696h-1v-696h-16v712h27l292 -696h1l292 696h27v-712z" />
    <glyph glyph-name="uni041D" unicode="&#x41d;" horiz-adv-x="705" 
d="M121 712v-334h463v334h16v-712h-16v362h-463v-362h-16v712h16z" />
    <glyph glyph-name="uni041E" unicode="&#x41e;" horiz-adv-x="702" 
d="M655 356c0 -222 -118 -366 -304 -366s-304 144 -304 366s118 366 304 366s304 -144 304 -366zM63 356c0 -213 114 -350 288 -350s288 137 288 350s-114 350 -288 350s-288 -137 -288 -350z" />
    <glyph glyph-name="uni041F" unicode="&#x41f;" horiz-adv-x="695" 
d="M105 712h485v-712h-16v696h-453v-696h-16v712z" />
    <glyph glyph-name="uni0420" unicode="&#x420;" horiz-adv-x="575" 
d="M105 0v712h227c139 0 213 -76 213 -188s-74 -188 -213 -188h-211v-336h-16zM332 352c129 0 197 69 197 172s-68 172 -197 172h-211v-344h211z" />
    <glyph glyph-name="uni0421" unicode="&#x421;" horiz-adv-x="660" 
d="M607 233c-16 -142 -115 -243 -269 -243c-177 0 -291 144 -291 366s117 366 298 366c155 0 250 -108 258 -241h-16c-10 126 -95 225 -242 225c-172 0 -282 -137 -282 -350s107 -350 275 -350c144 0 239 95 253 227h16z" />
    <glyph glyph-name="uni0422" unicode="&#x422;" horiz-adv-x="568" 
d="M5 712h558v-16h-271v-696h-16v696h-271v16z" />
    <glyph glyph-name="uni0423" unicode="&#x423;" horiz-adv-x="604" 
d="M87 16c13 -4 30 -6 49 -6c64 0 107 33 155 128l-283 574h18l274 -555h1c47 95 82 165 106 212c10 21 22 45 35 71l136 272h18l-291 -581c-49 -99 -98 -137 -169 -137c-19 0 -36 2 -49 6v16z" />
    <glyph glyph-name="uni040E" unicode="&#x40e;" horiz-adv-x="604" 
d="M596 712l-291 -581c-49 -99 -98 -137 -169 -137c-19 0 -36 2 -49 6v16c13 -4 30 -6 49 -6c64 0 107 33 155 128l-283 574h18l274 -555h1c47 95 82 165 106 212c10 21 22 45 35 71l136 272h18zM158 886h16c8 -72 52 -111 128 -111s120 39 128 111h16
c-8 -80 -60 -127 -144 -127s-136 47 -144 127z" />
    <glyph glyph-name="uni0424" unicode="&#x424;" horiz-adv-x="774" 
d="M689 201c-55 -89 -158 -140 -294 -141v-80h-16v80c-205 2 -334 117 -334 296s129 294 334 296v80h16v-80c205 -2 334 -117 334 -296c0 -59 -13 -111 -40 -155zM100 209c52 -84 150 -132 279 -133v560c-194 -2 -318 -111 -318 -280c0 -56 13 -105 39 -147zM395 76
c194 2 318 111 318 280s-124 278 -318 280v-560z" />
    <glyph glyph-name="uni0425" unicode="&#x425;" horiz-adv-x="593" 
d="M286 366l-259 346h20l249 -333h1l249 333h20l-259 -346l274 -366h-20l-264 353h-1l-264 -353h-20z" />
    <glyph glyph-name="uni0427" unicode="&#x427;" horiz-adv-x="588" 
d="M56 712v-208c0 -116 72 -180 205 -180c71 0 149 12 206 31v357h16v-712h-16v338c-59 -17 -137 -30 -206 -30c-143 0 -221 71 -221 196v208h16z" />
    <glyph glyph-name="uni0426" unicode="&#x426;" horiz-adv-x="699" 
d="M105 0v712h16v-696h457v696h16v-696h66v-176h-16v160h-539z" />
    <glyph glyph-name="uni0428" unicode="&#x428;" horiz-adv-x="992" 
d="M121 712v-696h367v696h16v-696h367v696h16v-712h-782v712h16z" />
    <glyph glyph-name="uni0429" unicode="&#x429;" horiz-adv-x="992" 
d="M121 712v-696h367v696h16v-696h367v696h16v-696h66v-176h-16v160h-832v712h16z" />
    <glyph glyph-name="uni040F" unicode="&#x40f;" horiz-adv-x="699" 
d="M121 712v-696h457v696h16v-712h-236v-160h-16v160h-237v712h16z" />
    <glyph glyph-name="uni042F" unicode="&#x42f;" horiz-adv-x="581" 
d="M476 0h-16v342h-179c-21 0 -43 2 -64 5l-187 -347h-18l189 350c-100 23 -150 90 -150 177c0 117 78 185 230 185h195v-712zM67 527c0 -99 73 -169 214 -169h179v338h-179c-143 0 -214 -61 -214 -169z" />
    <glyph glyph-name="uni042C" unicode="&#x42c;" horiz-adv-x="575" 
d="M121 712v-336h211c139 0 213 -76 213 -188s-74 -188 -213 -188h-227v712h16zM121 16h211c129 0 197 69 197 172s-68 172 -197 172h-211v-344z" />
    <glyph glyph-name="uni042A" unicode="&#x42a;" horiz-adv-x="716" 
d="M686 185c0 -115 -80 -185 -213 -185h-227v696h-241v16h257v-337h211c139 0 213 -75 213 -190zM262 16h211c124 0 197 62 197 169c0 105 -66 174 -197 174h-211v-343z" />
    <glyph glyph-name="uni042B" unicode="&#x42b;" horiz-adv-x="801" 
d="M105 712h16v-336h211c139 0 213 -76 213 -188s-74 -188 -213 -188h-227v712zM121 16h211c129 0 197 69 197 172s-68 172 -197 172h-211v-344zM696 0h-16v712h16v-712z" />
    <glyph glyph-name="uni0409" unicode="&#x409;" horiz-adv-x="1012" 
d="M928 52c-37 -35 -90 -52 -159 -52h-227v696h-339c-3 -199 -10 -348 -21 -446s-28 -164 -50 -199c-23 -35 -56 -53 -99 -53c-8 0 -15 1 -20 2v16c5 -1 12 -2 20 -2c39 0 69 17 89 52c20 34 35 100 45 198c10 97 17 247 21 448h370v-336h211c139 0 213 -76 213 -188
c0 -56 -18 -101 -54 -136zM769 16c129 0 197 69 197 172s-68 172 -197 172h-211v-344h211z" />
    <glyph glyph-name="uni040A" unicode="&#x40a;" horiz-adv-x="1054" 
d="M970 52c-37 -35 -90 -52 -159 -52h-227v360h-463v-360h-16v712h16v-336h463v336h16v-336h211c139 0 213 -76 213 -188c0 -56 -18 -101 -54 -136zM600 16h211c129 0 197 69 197 172s-68 172 -197 172h-211v-344z" />
    <glyph glyph-name="uni0405" unicode="&#x405;" horiz-adv-x="576" 
d="M511 173c0 -113 -85 -183 -222 -183c-155 0 -237 83 -237 248h16c0 -155 74 -232 221 -232c129 0 206 63 206 167c0 80 -33 121 -89 145c-29 11 -71 24 -127 38c-156 39 -211 75 -215 187c0 54 19 97 57 130c37 33 87 49 150 49c151 0 228 -80 228 -237h-16
c0 147 -71 221 -212 221c-117 0 -191 -64 -191 -163c4 -104 54 -134 202 -171c57 -14 102 -28 133 -41c31 -14 54 -33 71 -57c17 -25 25 -58 25 -101z" />
    <glyph glyph-name="uni0404" unicode="&#x404;" horiz-adv-x="660" 
d="M607 233c-16 -142 -115 -243 -269 -243c-177 0 -291 144 -291 366s117 366 298 366c155 0 250 -108 258 -241h-16c-10 126 -95 225 -242 225c-170 0 -280 -134 -282 -342h369v-16h-369c2 -208 109 -342 275 -342c144 0 239 95 253 227h16z" />
    <glyph glyph-name="uni042D" unicode="&#x42d;" horiz-adv-x="660" 
d="M578 163c-48 -111 -139 -173 -256 -173c-154 0 -253 101 -269 243h16c14 -132 109 -227 253 -227c166 0 273 134 275 342h-369v16h369c-2 208 -112 342 -282 342c-147 0 -232 -99 -242 -225h-16c8 133 103 241 258 241c181 0 298 -144 298 -366c0 -74 -12 -138 -35 -193z
" />
    <glyph glyph-name="uni0406" unicode="&#x406;" horiz-adv-x="226" 
d="M121 712v-712h-16v712h16z" />
    <glyph glyph-name="uni0407" unicode="&#x407;" horiz-adv-x="226" 
d="M121 712v-712h-16v712h16zM197 856h16v-77h-16v77zM29 856v-77h-16v77h16z" />
    <glyph glyph-name="uni0408" unicode="&#x408;" horiz-adv-x="303" 
d="M15 1v16c13 -3 26 -5 39 -5c85 0 133 55 133 159v541h16v-541c0 -113 -54 -175 -149 -175c-15 0 -28 2 -39 5z" />
    <glyph glyph-name="uni040B" unicode="&#x40b;" horiz-adv-x="729" 
d="M689 0h-16v230c0 116 -65 180 -185 180c-73 0 -138 -10 -196 -31v-379h-16v696h-271v16h558v-16h-271v-300c60 20 125 30 196 30c129 0 201 -71 201 -196v-230z" />
    <glyph glyph-name="uni042E" unicode="&#x42e;" horiz-adv-x="898" 
d="M816 163c-48 -111 -138 -173 -254 -173c-174 0 -287 141 -289 358h-152v-348h-16v712h16v-348h152c2 217 115 358 289 358c175 0 289 -144 289 -366c0 -74 -12 -138 -35 -193zM322 171c44 -105 129 -165 240 -165c166 0 273 137 273 350s-107 350 -273 350
c-168 0 -273 -137 -273 -350c0 -71 11 -132 33 -185z" />
    <glyph glyph-name="uni0402" unicode="&#x402;" horiz-adv-x="735" 
d="M705 216c0 -69 -20 -123 -60 -163c-41 -40 -95 -60 -162 -60c-29 0 -55 2 -78 7v16c23 -5 49 -7 78 -7c125 0 206 78 206 207c0 133 -73 206 -210 206c-71 0 -134 -17 -187 -50v-372h-16v696h-271v16h558v-16h-271v-306c55 32 118 48 187 48c147 0 226 -79 226 -222z" />
    <glyph glyph-name="uni0492" unicode="&#x492;" horiz-adv-x="457" 
d="M105 368v344h347v-16h-331v-328h176v-16h-176v-352h-16v352h-60v16h60z" />
    <glyph glyph-name="uni0496" unicode="&#x496;" horiz-adv-x="794" 
d="M813 -160h-16v160h-30l-361 372h-1v-372h-16v372h-1l-361 -372h-23l365 374l-336 338h23l332 -336h1v336h16v-336h1l332 336h23l-336 -338l349 -358h39v-176z" />
    <glyph glyph-name="uni049A" unicode="&#x49a;" horiz-adv-x="532" 
d="M121 380h1l350 332h24l-357 -338l372 -358h39v-176h-16v160h-30l-382 368h-1v-368h-16v712h16v-332z" />
    <glyph glyph-name="uni049C" unicode="&#x49c;" horiz-adv-x="594" 
d="M567 0l-356 366v-170h-16v170h-74v-366h-16v712h16v-330h74v170h16l1 -170l326 330h23l-336 -338l365 -374h-23z" />
    <glyph glyph-name="uni049D" unicode="&#x49d;" horiz-adv-x="483" 
d="M464 0l-269 269v-153h-16v153h-72v-269h-16v508h16v-223h72v153h16l1 -153l241 223h24l-251 -231l277 -277h-23z" />
    <glyph glyph-name="uni04A2" unicode="&#x4a2;" horiz-adv-x="705" 
d="M105 712h16v-334h463v334h16v-696h66v-176h-16v160h-66v362h-463v-362h-16v712z" />
    <glyph glyph-name="uni04AE" unicode="&#x4ae;" horiz-adv-x="570" 
d="M7 712h19l258 -377h1l259 377h19l-270 -394v-318h-16v318z" />
    <glyph glyph-name="uni04AF" unicode="&#x4af;" horiz-adv-x="432" 
d="M19 508l196 -483h2l196 483h17l-206 -508v-185h-16v185l-206 508h17z" />
    <glyph glyph-name="uni04B2" unicode="&#x4b2;" horiz-adv-x="593" 
d="M607 -160h-16v160h-30l-264 353h-1l-264 -353h-20l274 366l-259 346h20l249 -333h1l249 333h20l-259 -346l262 -350h38v-176z" />
    <glyph glyph-name="uni04B8" unicode="&#x4b8;" horiz-adv-x="588" 
d="M483 0h-16v338c-57 -16 -130 -29 -198 -30v-169h-16v169c-137 3 -213 73 -213 196v208h16v-208c0 -115 68 -177 197 -180v237h16v-237c69 1 143 14 198 31v357h16v-712z" />
    <glyph glyph-name="uni04B9" unicode="&#x4b9;" horiz-adv-x="464" 
d="M373 0h-16v238c-46 -15 -95 -23 -148 -24v-125h-16v125c-105 3 -163 55 -163 146v148h16v-148c0 -83 51 -129 147 -130v181h16v-181c54 1 103 10 148 25v253h16v-508z" />
    <glyph glyph-name="uni04BA" unicode="&#x4ba;" horiz-adv-x="588" 
d="M121 712v-338c59 17 137 30 206 30c143 0 221 -71 221 -196v-208h-16v208c0 116 -72 180 -205 180c-71 0 -149 -12 -206 -31v-357h-16v712h16z" />
    <glyph glyph-name="uni04C0" unicode="&#x4c0;" horiz-adv-x="226" 
d="M121 712v-712h-16v712h16z" />
    <glyph glyph-name="uni04CF" unicode="&#x4cf;" horiz-adv-x="198" 
d="M107 712v-712h-16v712h16z" />
    <glyph glyph-name="uni04D8" unicode="&#x4d8;" horiz-adv-x="697" 
d="M612 162c-51 -111 -147 -172 -268 -172c-183 0 -297 139 -297 366v5h587c0 209 -117 345 -296 345c-69 0 -127 -18 -173 -55s-74 -87 -83 -149h-17c11 68 41 122 90 161s110 59 183 59c189 0 312 -144 312 -366c0 -74 -13 -139 -38 -194zM100 162
c47 -103 133 -156 244 -156c178 0 286 138 290 339h-571c1 -71 13 -132 37 -183z" />
    <glyph glyph-name="uni04E8" unicode="&#x4e8;" horiz-adv-x="702" 
d="M655 356c0 -222 -118 -366 -304 -366s-304 144 -304 366s118 366 304 366s304 -144 304 -366zM63 364h576c-2 208 -116 342 -288 342s-286 -134 -288 -342zM63 348c2 -208 116 -342 288 -342s286 134 288 342h-576z" />
    <glyph glyph-name="uni04E9" unicode="&#x4e9;" horiz-adv-x="528" 
d="M480 254c0 -82 -19 -146 -58 -193s-92 -71 -159 -71s-119 24 -157 71c-39 47 -58 111 -58 193s19 147 58 194c38 47 90 70 157 70s120 -23 159 -70s58 -112 58 -194zM119 70c35 -43 83 -64 144 -64c124 0 198 89 201 240h-400c1 -75 20 -134 55 -176zM464 262
c-3 151 -77 240 -201 240c-121 0 -196 -89 -199 -240h400z" />
    <glyph glyph-name="uni0414.salt" horiz-adv-x="722" 
d="M702 -160h-16v160h-650v-160h-16v176h47l284 696h21l284 -696h46v-176zM84 16h556l-278 680h-1z" />
    <glyph glyph-name="uni041B.salt" horiz-adv-x="615" 
d="M297 712h21l291 -712h-17l-284 696h-1l-284 -696h-17z" />
    <glyph glyph-name="uni0430" unicode="&#x430;" horiz-adv-x="494" 
d="M411 114c0 -43 3 -81 9 -114h-16c-5 34 -7 66 -7 97c0 12 0 22 1 29h-1c-27 -84 -97 -136 -190 -136c-100 0 -166 55 -166 140c0 81 50 128 175 147c57 9 116 16 179 23v33c0 115 -59 169 -152 169c-103 0 -158 -58 -165 -147h-16c7 100 72 163 181 163
c103 0 168 -61 168 -185v-219zM98 40c27 -23 64 -34 109 -34c59 0 106 19 139 57c19 21 32 43 39 64s10 51 10 92v65c-75 -9 -134 -16 -177 -23c-117 -17 -161 -59 -161 -131c0 -38 14 -68 41 -90z" />
    <glyph glyph-name="uni0431" unicode="&#x431;" 
d="M474 706c-25 -7 -71 -15 -140 -23l-24 -3c-113 -13 -170 -56 -200 -139c-15 -41 -27 -99 -36 -172h1c25 84 89 139 194 139c135 0 221 -98 221 -259s-81 -259 -216 -259c-67 0 -120 25 -158 74c-39 49 -58 115 -58 200c3 327 67 406 250 432l24 3c70 8 117 16 142 23v-16
zM74 264c0 -161 75 -258 200 -258s200 90 200 243c0 75 -18 135 -55 178s-87 65 -150 65c-69 0 -118 -21 -149 -62c-31 -42 -46 -97 -46 -166z" />
    <glyph glyph-name="uni0432" unicode="&#x432;" horiz-adv-x="487" 
d="M431 135c0 -84 -58 -135 -157 -135h-183v508h168c105 0 160 -50 160 -130c0 -63 -40 -105 -107 -117v-1c71 -8 119 -56 119 -125zM274 16c89 0 141 44 141 119c0 71 -51 117 -156 117h-152v-236h167zM107 492v-224h152c97 0 144 45 144 110c0 72 -48 114 -144 114h-152z
" />
    <glyph glyph-name="uni0433" unicode="&#x433;" horiz-adv-x="376" 
d="M91 0v508h270v-16h-254v-492h-16z" />
    <glyph glyph-name="uni0453" unicode="&#x453;" horiz-adv-x="376" 
d="M361 508v-16h-254v-492h-16v508h270zM272 712h21l-98 -138h-17z" />
    <glyph glyph-name="uni0491" unicode="&#x491;" horiz-adv-x="376" 
d="M91 0v508h254v160h16v-176h-254v-492h-16z" />
    <glyph glyph-name="uni0434" unicode="&#x434;" horiz-adv-x="521" 
d="M496 -160h-16v160h-449v-160h-16v176h56c21 28 38 78 51 150s22 186 27 342h281v-492h66v-176zM414 16v476h-250c-5 -143 -14 -250 -26 -322c-13 -72 -28 -123 -47 -154h323z" />
    <glyph glyph-name="uni0435" unicode="&#x435;" horiz-adv-x="515" 
d="M467 259h-403c0 -152 78 -253 201 -253c96 0 166 56 178 143h17c-15 -97 -90 -159 -195 -159c-132 0 -217 107 -217 274c0 155 82 254 209 254c109 0 186 -71 205 -184c3 -20 5 -45 5 -75zM451 275c0 144 -82 227 -194 227c-59 0 -105 -21 -139 -62
c-35 -42 -53 -97 -54 -165h387z" />
    <glyph glyph-name="uni0450" unicode="&#x450;" horiz-adv-x="515" 
d="M467 259h-403c0 -152 78 -253 201 -253c96 0 166 56 178 143h17c-15 -97 -90 -159 -195 -159c-132 0 -217 107 -217 274c0 155 82 254 209 254c109 0 186 -71 205 -184c3 -20 5 -45 5 -75zM451 275c0 144 -82 227 -194 227c-59 0 -105 -21 -139 -62
c-35 -42 -53 -97 -54 -165h387zM212 712l94 -138h-17l-98 138h21z" />
    <glyph glyph-name="uni0451" unicode="&#x451;" horiz-adv-x="515" 
d="M467 259h-403c0 -152 78 -253 201 -253c96 0 166 56 178 143h17c-15 -97 -90 -159 -195 -159c-132 0 -217 107 -217 274c0 155 82 254 209 254c109 0 186 -71 205 -184c3 -20 5 -45 5 -75zM451 275c0 144 -82 227 -194 227c-59 0 -105 -21 -139 -62
c-35 -42 -53 -97 -54 -165h387zM357 712v-77h-16v77h16zM173 712v-77h-16v77h16z" />
    <glyph glyph-name="uni0436" unicode="&#x436;" horiz-adv-x="610" 
d="M590 0l-276 275h-1v-275h-16v275h-1l-276 -275h-23l278 276l-252 232h24l249 -230h1v230h16v-230h1l249 230h24l-252 -232l278 -276h-23z" />
    <glyph glyph-name="uni0437" unicode="&#x437;" horiz-adv-x="458" 
d="M398 128c0 -83 -70 -138 -183 -138c-109 0 -175 57 -175 146h16c0 -80 58 -130 159 -130c104 0 167 47 167 122c0 79 -65 122 -173 122h-62v16h62c99 0 156 44 156 117s-56 119 -147 119c-93 0 -152 -49 -152 -130h-16c0 91 65 146 168 146c100 0 163 -52 163 -135
c0 -65 -36 -107 -108 -124v-1c76 -15 125 -55 125 -130z" />
    <glyph glyph-name="uni0438" unicode="&#x438;" horiz-adv-x="562" 
d="M91 508h16v-492h1l337 492h26v-508h-16v492h-1l-337 -492h-26v508z" />
    <glyph glyph-name="uni0439" unicode="&#x439;" horiz-adv-x="562" 
d="M471 0h-16v492h-1l-337 -492h-26v508h16v-492h1l337 492h26v-508zM153 712c8 -72 52 -111 128 -111s120 39 128 111h16c-8 -80 -60 -127 -144 -127s-136 47 -144 127h16z" />
    <glyph glyph-name="uni045D" unicode="&#x45d;" horiz-adv-x="562" 
d="M471 0h-16v492h-1l-337 -492h-26v508h16v-492h1l337 492h26v-508zM215 712h21l94 -138h-17z" />
    <glyph glyph-name="uni043A" unicode="&#x43a;" horiz-adv-x="453" 
d="M91 0v508h16v-226h1l281 226h25l-288 -232l317 -276h-24l-311 271h-1v-271h-16z" />
    <glyph glyph-name="uni045C" unicode="&#x45c;" horiz-adv-x="453" 
d="M108 282l281 226h25l-288 -232l317 -276h-24l-311 271h-1v-271h-16v508h16v-226h1zM294 712h21l-98 -138h-17z" />
    <glyph glyph-name="uni043B" unicode="&#x43b;" horiz-adv-x="518" 
d="M9 0v16c7 -1 13 -2 20 -2c29 0 52 12 68 37c15 24 27 71 35 141c8 69 13 175 14 316h281v-508h-16v492h-250c-1 -139 -6 -244 -15 -314c-9 -71 -23 -118 -41 -143s-43 -37 -76 -37c-7 0 -13 1 -20 2z" />
    <glyph glyph-name="uni043C" unicode="&#x43c;" horiz-adv-x="663" 
d="M572 0h-16v492h-1l-213 -492h-21l-213 492h-1v-492h-16v508h28l212 -492h1l212 492h28v-508z" />
    <glyph glyph-name="uni043D" unicode="&#x43d;" horiz-adv-x="551" 
d="M107 508v-242h337v242h16v-508h-16v250h-337v-250h-16v508h16z" />
    <glyph glyph-name="uni043E" unicode="&#x43e;" horiz-adv-x="528" 
d="M264 518c67 0 120 -23 159 -70c38 -47 57 -112 57 -194s-19 -146 -57 -193c-39 -47 -92 -71 -159 -71s-120 24 -158 71c-39 47 -58 111 -58 193s19 147 58 194c38 47 91 70 158 70zM117 72c35 -44 84 -66 147 -66c125 0 200 93 200 248s-75 248 -200 248
s-200 -93 -200 -248c0 -77 18 -138 53 -182z" />
    <glyph glyph-name="uni043F" unicode="&#x43f;" horiz-adv-x="545" 
d="M91 508h363v-508h-16v492h-331v-492h-16v508z" />
    <glyph glyph-name="uni0440" unicode="&#x440;" horiz-adv-x="545" 
d="M440 61c-38 -47 -90 -71 -155 -71c-97 0 -159 66 -180 165h-1c2 -29 3 -72 3 -127v-213h-16v693h16v-28c0 -55 -1 -98 -3 -127h1c21 99 83 165 180 165c65 0 117 -23 155 -70s57 -112 57 -194s-19 -146 -57 -193zM106 254c0 -153 68 -248 179 -248c121 0 196 93 196 248
s-75 248 -196 248c-111 0 -179 -95 -179 -248z" />
    <glyph glyph-name="uni0441" unicode="&#x441;" horiz-adv-x="493" 
d="M449 167c-5 -53 -24 -96 -58 -128c-35 -33 -78 -49 -131 -49c-132 0 -212 99 -212 264s80 264 212 264c53 0 96 -16 131 -47c34 -32 53 -74 58 -125h-16c-4 47 -22 84 -53 113c-32 29 -72 43 -120 43c-123 0 -196 -92 -196 -248s73 -248 196 -248c96 0 164 64 173 161h16
z" />
    <glyph glyph-name="uni0442" unicode="&#x442;" horiz-adv-x="432" 
d="M8 508h416v-16h-200v-492h-16v492h-200v16z" />
    <glyph glyph-name="uni0443" unicode="&#x443;" horiz-adv-x="431" 
d="M46 -173c66 3 96 27 157 172l-201 509h17l192 -486h1l200 486h17l-211 -514c-62 -151 -97 -180 -172 -183c-17 0 -31 2 -41 7v16c10 -5 24 -7 41 -7z" />
    <glyph glyph-name="uni045E" unicode="&#x45e;" horiz-adv-x="431" 
d="M429 508l-211 -514c-62 -151 -97 -180 -172 -183c-17 0 -31 2 -41 7v16c10 -5 24 -7 41 -7c66 3 96 27 157 172l-201 509h17l192 -486h1l200 486h17zM72 712h16c8 -72 52 -111 128 -111s120 39 128 111h16c-8 -80 -60 -127 -144 -127s-136 47 -144 127z" />
    <glyph glyph-name="uni0444" unicode="&#x444;" horiz-adv-x="724" 
d="M676 254c0 -82 -18 -146 -53 -193s-84 -71 -145 -71c-42 0 -78 16 -108 47v-222h-16v222c-30 -31 -66 -47 -108 -47c-61 0 -110 24 -145 71s-53 111 -53 193s18 147 53 194s84 70 145 70c42 0 78 -16 108 -47v241h16v-241c30 31 66 47 108 47c61 0 110 -23 145 -70
s53 -112 53 -194zM64 254c0 -155 69 -248 182 -248c43 0 79 17 108 51v394c-29 34 -65 51 -108 51c-113 0 -182 -93 -182 -248zM370 57c29 -34 65 -51 108 -51c113 0 182 93 182 248s-69 248 -182 248c-43 0 -79 -17 -108 -51v-394z" />
    <glyph glyph-name="uni0445" unicode="&#x445;" horiz-adv-x="440" 
d="M211 264l-190 244h20l179 -231h1l178 231h20l-189 -244l206 -264h-20l-195 251h-1l-196 -251h-20z" />
    <glyph glyph-name="uni0447" unicode="&#x447;" horiz-adv-x="464" 
d="M46 508v-148c0 -84 54 -130 155 -130c57 0 109 8 156 25v253h16v-508h-16v238c-48 -16 -100 -24 -156 -24c-111 0 -171 53 -171 146v148h16z" />
    <glyph glyph-name="uni0446" unicode="&#x446;" horiz-adv-x="545" 
d="M91 0v508h16v-492h331v492h16v-492h66v-176h-16v160h-413z" />
    <glyph glyph-name="uni0448" unicode="&#x448;" horiz-adv-x="812" 
d="M107 508v-492h291v492h16v-492h291v492h16v-508h-630v508h16z" />
    <glyph glyph-name="uni0449" unicode="&#x449;" horiz-adv-x="812" 
d="M107 508v-492h291v492h16v-492h291v492h16v-492h66v-176h-16v160h-680v508h16z" />
    <glyph glyph-name="uni045F" unicode="&#x45f;" horiz-adv-x="545" 
d="M107 508v-492h331v492h16v-508h-173v-160h-16v160h-174v508h16z" />
    <glyph glyph-name="uni044F" unicode="&#x44f;" horiz-adv-x="475" 
d="M384 0h-16v228h-142c-18 0 -34 1 -47 4l-134 -232h-19l137 235c-71 17 -108 69 -108 133c0 88 59 140 172 140h157v-508zM71 368c0 -73 52 -124 155 -124h142v248h-141c-104 0 -156 -44 -156 -124z" />
    <glyph glyph-name="uni044C" unicode="&#x44c;" horiz-adv-x="461" 
d="M107 508v-228h143c113 0 170 -47 170 -140s-57 -140 -170 -140h-159v508h16zM250 16c105 0 154 39 154 124s-49 124 -154 124h-143v-248h143z" />
    <glyph glyph-name="uni044A" unicode="&#x44a;" horiz-adv-x="548" 
d="M8 492v16h186v-228h143c113 0 170 -47 170 -140s-57 -140 -170 -140h-159v492h-170zM194 16h143c105 0 154 39 154 124s-49 124 -154 124h-143v-248z" />
    <glyph glyph-name="uni044B" unicode="&#x44b;" horiz-adv-x="629" 
d="M91 508h16v-228h143c113 0 170 -47 170 -140s-57 -140 -170 -140h-159v508zM107 264v-248h143c105 0 154 39 154 124s-49 124 -154 124h-143zM538 0h-16v508h16v-508z" />
    <glyph glyph-name="uni0459" unicode="&#x459;" horiz-adv-x="781" 
d="M9 0v16c7 -1 13 -2 20 -2c29 0 52 12 68 37c15 24 27 71 35 141c8 69 13 175 14 316h281v-228h143c113 0 170 -47 170 -140s-57 -140 -170 -140h-159v492h-250c-1 -139 -6 -244 -15 -314c-9 -71 -23 -118 -41 -143s-43 -37 -76 -37c-7 0 -13 1 -20 2zM724 140
c0 85 -49 124 -154 124h-143v-248h143c105 0 154 39 154 124z" />
    <glyph glyph-name="uni045A" unicode="&#x45a;" horiz-adv-x="814" 
d="M91 508h16v-228h337v228h16v-228h143c113 0 170 -47 170 -140s-57 -140 -170 -140h-159v264h-337v-264h-16v508zM757 140c0 85 -49 124 -154 124h-143v-248h143c105 0 154 39 154 124z" />
    <glyph glyph-name="uni0455" unicode="&#x455;" horiz-adv-x="447" 
d="M401 128c0 -41 -16 -74 -47 -99c-32 -26 -72 -39 -121 -39c-120 0 -189 68 -189 184h16c0 -107 62 -168 173 -168c44 0 80 11 109 34s43 52 43 88c-5 82 -40 99 -172 128c-112 24 -155 47 -158 129c0 40 15 72 46 97c30 24 68 36 114 36c107 0 171 -66 171 -174h-16
c0 99 -58 158 -155 158c-84 0 -144 -46 -144 -117c3 -74 39 -88 145 -113c139 -31 182 -54 185 -144z" />
    <glyph glyph-name="uni044D" unicode="&#x44d;" horiz-adv-x="493" 
d="M389 60c-38 -47 -90 -70 -156 -70c-53 0 -96 16 -130 49c-35 32 -54 75 -59 128h16c9 -97 77 -161 173 -161c121 0 193 90 196 243h-275v16h275c-3 149 -76 237 -196 237c-48 0 -88 -14 -119 -43c-32 -29 -50 -66 -54 -113h-16c5 51 24 93 59 125c34 31 77 47 130 47
c132 0 212 -99 212 -264c0 -83 -19 -147 -56 -194z" />
    <glyph glyph-name="uni0454" unicode="&#x454;" horiz-adv-x="493" 
d="M433 346c-4 47 -22 84 -53 113c-32 29 -72 43 -120 43c-120 0 -193 -88 -196 -237h275v-16h-275c3 -153 75 -243 196 -243c96 0 164 64 173 161h16c-5 -53 -24 -96 -58 -128c-35 -33 -78 -49 -131 -49c-132 0 -212 99 -212 264s80 264 212 264c53 0 96 -16 131 -47
c34 -32 53 -74 58 -125h-16z" />
    <glyph glyph-name="uni0457" unicode="&#x457;" horiz-adv-x="198" 
d="M107 508v-508h-16v508h16zM163 712h16v-69h-16v69zM35 712v-69h-16v69h16z" />
    <glyph glyph-name="uni0456" unicode="&#x456;" horiz-adv-x="198" 
d="M91 0v508h16v-508h-16zM91 635v77h16v-77h-16z" />
    <glyph glyph-name="uni0458" unicode="&#x458;" horiz-adv-x="209" 
d="M9 -171c63 0 93 31 93 123v556h16v-556c0 -101 -37 -139 -109 -139c-7 0 -13 1 -18 2v16c5 -1 11 -2 18 -2zM102 635v77h16v-77h-16z" />
    <glyph glyph-name="uni045B" unicode="&#x45b;" 
d="M454 0h-16v255c0 128 -57 193 -156 193c-94 0 -175 -77 -175 -184v-264h-16v592h-56v16h56v104h16v-104h244v-16h-244v-138c0 -55 -1 -97 -3 -126h1c23 80 90 136 177 136c108 0 172 -72 172 -209v-255z" />
    <glyph glyph-name="uni044E" unicode="&#x44e;" horiz-adv-x="706" 
d="M601 61c-39 -47 -92 -71 -159 -71c-66 0 -118 23 -156 69c-39 45 -59 108 -60 187h-119v-246h-16v508h16v-246h119c1 79 21 142 60 188c38 45 90 68 156 68c67 0 120 -23 159 -70c38 -47 57 -112 57 -194s-19 -146 -57 -193zM242 254c0 -155 75 -248 200 -248
s200 93 200 248s-75 248 -200 248s-200 -93 -200 -248z" />
    <glyph glyph-name="uni0452" unicode="&#x452;" 
d="M438 255c0 128 -57 193 -156 193c-94 0 -175 -77 -175 -184v-264h-16v592h-56v16h56v104h16v-104h244v-16h-244v-138c0 -55 -1 -97 -3 -126h1c23 80 90 136 177 136c108 0 172 -72 172 -209v-303c0 -101 -37 -139 -109 -139c-7 0 -13 1 -18 2v16c5 -1 11 -2 18 -2
c63 0 93 31 93 123v303z" />
    <glyph glyph-name="uni0493" unicode="&#x493;" horiz-adv-x="376" 
d="M91 258v250h270v-16h-254v-234h150v-16h-150v-242h-16v242h-56v16h56z" />
    <glyph glyph-name="uni0497" unicode="&#x497;" horiz-adv-x="610" 
d="M636 -160h-16v160h-30l-276 275h-1v-275h-16v275h-1l-276 -275h-23l278 276l-252 232h24l249 -230h1v230h16v-230h1l249 230h24l-252 -232l262 -260h39v-176z" />
    <glyph glyph-name="uni049B" unicode="&#x49b;" horiz-adv-x="453" 
d="M107 282h1l281 226h25l-288 -232l299 -260h40v-176h-16v160h-30l-311 271h-1v-271h-16v508h16v-226z" />
    <glyph glyph-name="uni04A3" unicode="&#x4a3;" horiz-adv-x="551" 
d="M91 508h16v-242h337v242h16v-492h66v-176h-16v160h-66v250h-337v-250h-16v508z" />
    <glyph glyph-name="uni04B3" unicode="&#x4b3;" horiz-adv-x="440" 
d="M462 -160h-16v160h-30l-195 251h-1l-196 -251h-20l207 264l-190 244h20l179 -231h1l178 231h20l-189 -244l194 -248h38v-176z" />
    <glyph glyph-name="uni04BB" unicode="&#x4bb;" 
d="M454 0h-16v309c0 128 -57 193 -156 193c-94 0 -175 -77 -175 -184v-318h-16v712h16v-204c0 -55 -1 -97 -3 -126h1c23 80 90 136 177 136c108 0 172 -72 172 -209v-309z" />
    <glyph glyph-name="uni04D9" unicode="&#x4d9;" horiz-adv-x="515" 
d="M467 254c0 -160 -85 -264 -213 -264c-63 0 -113 24 -150 71s-56 111 -56 193v5h403c0 147 -78 243 -201 243c-93 0 -160 -56 -173 -143h-17c15 97 89 159 190 159c132 0 217 -104 217 -264zM118 69c35 -42 80 -63 136 -63c60 0 108 22 143 66c35 43 53 100 54 171h-387
c1 -75 19 -133 54 -174z" />
    <glyph glyph-name="uni0432.salt" horiz-adv-x="532" 
d="M486 192c0 -125 -78 -202 -202 -202c-133 0 -200 70 -200 209v286c0 160 59 237 183 237c112 0 176 -64 176 -167c0 -89 -47 -147 -135 -164v-1c107 -12 178 -71 178 -198zM100 381v-182c0 -129 59 -193 184 -193c115 0 186 70 186 186c0 132 -77 189 -240 189h-130z
M100 397h130c131 0 197 53 197 158c0 93 -57 151 -160 151c-116 0 -167 -69 -167 -221v-88z" />
    <glyph glyph-name="uni0433.salt" horiz-adv-x="447" 
d="M403 170c0 -112 -69 -180 -189 -180c-49 0 -89 13 -120 39c-32 25 -48 58 -48 99c3 90 46 113 185 144c106 25 142 39 145 113c0 71 -60 117 -144 117c-97 0 -155 -59 -155 -158h-16c0 108 64 174 171 174c46 0 84 -12 115 -36c30 -25 45 -57 45 -97
c-3 -82 -46 -105 -158 -129c-132 -29 -167 -46 -172 -128c0 -36 14 -65 43 -88s65 -34 109 -34c111 0 173 60 173 164h16z" />
    <glyph glyph-name="uni0067.1" horiz-adv-x="545" 
d="M454 31c0 -144 -67 -220 -199 -220c-115 0 -188 58 -188 157h16c0 -89 67 -141 172 -141c122 0 183 68 183 204c0 59 1 104 2 134h-1c-25 -103 -90 -159 -179 -159c-65 0 -117 23 -155 69c-38 45 -57 108 -57 187s19 142 57 188c38 45 90 68 155 68
c89 0 154 -56 179 -159h1c-1 33 -2 83 -2 149h16v-477zM117 86c35 -43 82 -64 143 -64c55 0 98 22 130 65s48 101 48 175s-16 133 -48 176s-75 64 -130 64c-121 0 -196 -91 -196 -240c0 -75 18 -133 53 -176z" />
    <glyph glyph-name="uni0436.salt" horiz-adv-x="610" 
d="M590 0l-276 275h-1v-275h-16v275h-1l-276 -275h-23l278 276l-252 232h24l249 -230h1v434h16v-434h1l249 230h24l-252 -232l278 -276h-23z" />
    <glyph glyph-name="uni0437.salt" horiz-adv-x="483" 
d="M427 -3c0 -56 -18 -101 -54 -135s-84 -51 -143 -51c-60 0 -107 17 -142 52s-52 81 -52 138h16c0 -105 66 -174 178 -174c55 0 99 15 132 46s49 73 49 124c0 105 -74 167 -197 167h-98v16h98c116 0 183 61 183 161c0 97 -67 161 -170 161c-107 0 -172 -64 -172 -175h-16
c0 120 73 191 188 191c55 0 100 -16 135 -49c34 -33 51 -75 51 -128c0 -92 -51 -148 -135 -168v-1c93 -20 149 -79 149 -175z" />
    <glyph glyph-name="uni0438.salt" 
d="M447 0h-16v111h-1c-29 -76 -97 -121 -174 -121c-108 0 -172 72 -172 209v309h16v-309c0 -128 57 -193 156 -193c94 0 175 77 175 184v318h16v-508z" />
    <glyph glyph-name="uni0439.salt" 
d="M447 0h-16v111h-1c-29 -76 -97 -121 -174 -121c-108 0 -172 72 -172 209v309h16v-309c0 -128 57 -193 156 -193c94 0 175 77 175 184v318h16v-508zM141 712c8 -72 52 -111 128 -111s120 39 128 111h16c-8 -80 -60 -127 -144 -127s-136 47 -144 127h16z" />
    <glyph glyph-name="uni006B.2" horiz-adv-x="439" 
d="M91 0v712h16v-430h1l281 226h25l-288 -232l317 -276h-24l-311 271h-1v-271h-16z" />
    <glyph glyph-name="uni043B.salt" horiz-adv-x="431" 
d="M2 0l202 508h23l202 -508h-17l-196 493h-1l-196 -493h-17z" />
    <glyph glyph-name="uni006E.3" 
d="M454 0h-16v309c0 128 -57 193 -156 193c-94 0 -175 -77 -175 -184v-318h-16v508h16c0 -55 -1 -97 -3 -126h1c23 80 90 136 177 136c108 0 172 -72 172 -209v-309z" />
    <glyph glyph-name="uni006D.4" horiz-adv-x="811" 
d="M727 0h-16v319c0 121 -49 183 -136 183c-90 0 -158 -69 -158 -172v-330h-16v340c0 100 -50 162 -134 162c-90 0 -160 -73 -160 -191v-311h-16v508h16c0 -54 -1 -95 -3 -123h1c23 83 82 133 162 133c79 0 131 -50 144 -130c20 80 83 130 164 130c96 0 152 -68 152 -199
v-319z" />
    <glyph glyph-name="uni0446.salt" 
d="M513 -160h-16v160h-66c0 55 1 97 3 126h-1c-23 -80 -90 -136 -177 -136c-108 0 -172 72 -172 209v309h16v-309c0 -128 57 -193 156 -193c94 0 175 77 175 184v318h16v-492h66v-176z" />
    <glyph glyph-name="uni0448.salt" horiz-adv-x="811" 
d="M720 0h-16v107h-1c-24 -69 -83 -117 -159 -117c-77 0 -129 50 -144 127c-21 -76 -84 -127 -164 -127c-96 0 -152 68 -152 199v319h16v-319c0 -121 49 -183 136 -183c90 0 158 69 158 172v330h16v-340c0 -100 50 -162 134 -162c90 0 160 73 160 191v311h16v-508z" />
    <glyph glyph-name="uni0449.salt" horiz-adv-x="801" 
d="M770 -160v160h-66c0 54 1 95 3 123h-1c-23 -83 -82 -133 -162 -133c-79 0 -131 50 -144 130c-20 -80 -83 -130 -164 -130c-96 0 -152 68 -152 199v319h16v-319c0 -121 49 -183 136 -183c90 0 158 69 158 172v330h16v-340c0 -100 50 -162 134 -162c90 0 160 73 160 191
v311h16v-492h66v-176h-16z" />
    <glyph glyph-name="uni044C.salt" horiz-adv-x="474" 
d="M386 38c-31 -32 -74 -48 -127 -48c-107 0 -175 68 -175 177v341h16v-148c0 -55 -1 -98 -3 -127h1c20 69 78 111 153 111c112 0 182 -68 182 -177c0 -55 -16 -98 -47 -129zM143 49c28 -29 67 -43 116 -43c99 0 158 60 158 161s-63 161 -166 161c-93 0 -151 -61 -151 -161
c0 -50 14 -89 43 -118z" />
    <glyph glyph-name="uni044A.salt" horiz-adv-x="568" 
d="M480 38c-31 -32 -74 -48 -127 -48c-107 0 -175 68 -175 177v325h-170v16h186v-148c0 -55 -1 -98 -3 -127h1c20 69 78 111 153 111c112 0 182 -68 182 -177c0 -55 -16 -98 -47 -129zM237 49c28 -29 67 -43 116 -43c99 0 158 60 158 161s-63 161 -166 161
c-93 0 -151 -61 -151 -161c0 -50 14 -89 43 -118z" />
    <glyph glyph-name="uni044E.salt" horiz-adv-x="706" 
d="M601 61c-39 -47 -92 -71 -159 -71c-66 0 -118 23 -156 69c-39 45 -59 108 -60 187h-119v-246h-16v712h16v-450h119c1 79 21 142 60 188c38 45 90 68 156 68c67 0 120 -23 159 -70c38 -47 57 -112 57 -194s-19 -146 -57 -193zM242 254c0 -155 75 -248 200 -248
s200 93 200 248s-75 248 -200 248s-200 -93 -200 -248z" />
    <glyph glyph-name="uni0431.salt" horiz-adv-x="528" 
d="M453 706c-37 -13 -86 -20 -145 -20h-76c-76 0 -107 -21 -107 -69c0 -55 50 -95 150 -120c140 -35 205 -116 205 -261c0 -76 -19 -136 -58 -180s-91 -66 -158 -66s-119 22 -158 66s-58 104 -58 180c0 153 80 244 216 244c7 0 15 -1 26 -2v1c-121 26 -181 72 -181 138
c0 57 38 85 123 85h76c57 0 105 7 145 20v-16zM64 236c0 -143 75 -231 200 -231s200 88 200 231c0 145 -75 231 -200 231s-200 -86 -200 -231z" />
    <glyph glyph-name="uni0391" unicode="&#x391;" horiz-adv-x="634" 
d="M6 0l300 712h21l300 -712h-17l-112 266h-363l-112 -266h-17zM142 282h350l-175 414h-1z" />
    <glyph glyph-name="uni0392" unicode="&#x392;" horiz-adv-x="588" 
d="M532 189c0 -116 -78 -189 -209 -189h-218v712h197c141 0 213 -66 213 -174c0 -93 -56 -156 -149 -172v-1c99 -11 166 -77 166 -176zM121 357v-341h202c121 0 193 66 193 173c0 100 -70 168 -213 168h-182zM121 696v-323h182c133 0 196 68 196 165c0 99 -65 158 -197 158
h-181z" />
    <glyph glyph-name="uni0393" unicode="&#x393;" horiz-adv-x="457" 
d="M105 712h347v-16h-331v-696h-16v712z" />
    <glyph glyph-name="uni0394" unicode="&#x394;" horiz-adv-x="633" 
d="M6 0l300 712h21l300 -712h-621zM604 16l-287 680h-1l-286 -680h574z" />
    <glyph glyph-name="uni0395" unicode="&#x395;" horiz-adv-x="586" 
d="M105 712h407v-16h-391v-322h374v-16h-374v-342h405v-16h-421v712z" />
    <glyph glyph-name="uni0396" unicode="&#x396;" horiz-adv-x="547" 
d="M17 22l475 673v1h-470v16h486v-22l-475 -673v-1h497v-16h-513v22z" />
    <glyph glyph-name="uni0397" unicode="&#x397;" horiz-adv-x="705" 
d="M121 712v-334h463v334h16v-712h-16v362h-463v-362h-16v712h16z" />
    <glyph glyph-name="uni0398" unicode="&#x398;" horiz-adv-x="702" 
d="M655 356c0 -222 -118 -366 -304 -366s-304 144 -304 366s118 366 304 366s304 -144 304 -366zM99 171c47 -105 136 -165 252 -165c174 0 288 137 288 350s-114 350 -288 350s-288 -137 -288 -350c0 -71 12 -132 36 -185zM514 364v-16h-326v16h326z" />
    <glyph glyph-name="uni0399" unicode="&#x399;" horiz-adv-x="226" 
d="M121 712v-712h-16v712h16z" />
    <glyph glyph-name="uni039A" unicode="&#x39a;" horiz-adv-x="532" 
d="M105 0v712h16v-332h1l350 332h24l-357 -338l389 -374h-24l-382 368h-1v-368h-16z" />
    <glyph glyph-name="uni039B" unicode="&#x39b;" horiz-adv-x="615" 
d="M297 712h21l291 -712h-17l-284 696h-1l-284 -696h-17z" />
    <glyph glyph-name="uni039C" unicode="&#x39c;" horiz-adv-x="849" 
d="M744 0h-16v696h-1l-292 -696h-21l-292 696h-1v-696h-16v712h27l292 -696h1l292 696h27v-712z" />
    <glyph glyph-name="uni039D" unicode="&#x39d;" horiz-adv-x="718" 
d="M105 712h26l465 -697h1v697h16v-712h-26l-465 697h-1v-697h-16v712z" />
    <glyph glyph-name="uni039E" unicode="&#x39e;" horiz-adv-x="638" 
d="M65 0v16h508v-16h-508zM79 712h480v-16h-480v16zM96 358v16h446v-16h-446z" />
    <glyph glyph-name="uni039F" unicode="&#x39f;" horiz-adv-x="702" 
d="M655 356c0 -222 -118 -366 -304 -366s-304 144 -304 366s118 366 304 366s304 -144 304 -366zM63 356c0 -213 114 -350 288 -350s288 137 288 350s-114 350 -288 350s-288 -137 -288 -350z" />
    <glyph glyph-name="uni03A0" unicode="&#x3a0;" horiz-adv-x="695" 
d="M105 712h485v-712h-16v696h-453v-696h-16v712z" />
    <glyph glyph-name="uni03A1" unicode="&#x3a1;" horiz-adv-x="575" 
d="M105 0v712h227c139 0 213 -76 213 -188s-74 -188 -213 -188h-211v-336h-16zM332 352c129 0 197 69 197 172s-68 172 -197 172h-211v-344h211z" />
    <glyph glyph-name="uni03A3" unicode="&#x3a3;" horiz-adv-x="537" 
d="M20 0v16l245 346l-234 334v16h475v-16h-455v-1l234 -333l-244 -345v-1h479v-16h-500z" />
    <glyph glyph-name="uni03A4" unicode="&#x3a4;" horiz-adv-x="568" 
d="M5 712h558v-16h-271v-696h-16v696h-271v16z" />
    <glyph glyph-name="uni03A5" unicode="&#x3a5;" horiz-adv-x="570" 
d="M7 712h19l258 -377h1l259 377h19l-270 -394v-318h-16v318z" />
    <glyph glyph-name="uni03A6" unicode="&#x3a6;" horiz-adv-x="736" 
d="M606 143c-55 -52 -132 -79 -230 -82v-81h-16v81c-196 5 -313 113 -313 298s117 293 313 298v75h16v-75c196 -5 313 -113 313 -298c0 -93 -28 -165 -83 -216zM142 154c52 -49 125 -75 218 -77v564c-187 -4 -297 -106 -297 -282c0 -88 26 -156 79 -205zM376 77
c187 4 297 106 297 282s-110 278 -297 282v-564z" />
    <glyph glyph-name="uni03A7" unicode="&#x3a7;" horiz-adv-x="593" 
d="M286 366l-259 346h20l249 -333h1l249 333h20l-259 -346l274 -366h-20l-264 353h-1l-264 -353h-20z" />
    <glyph glyph-name="uni03A8" unicode="&#x3a8;" horiz-adv-x="702" 
d="M652 499c-2 -225 -79 -292 -293 -298v-201h-16v201c-214 6 -291 73 -293 298v213h16v-213c3 -217 71 -275 277 -282v495h16v-495c206 7 274 65 277 282v213h16v-213z" />
    <glyph glyph-name="uni03A9" unicode="&#x3a9;" horiz-adv-x="714" 
d="M667 0h-226v16c65 67 114 130 148 190s51 127 51 200c0 98 -26 173 -77 224s-120 76 -206 76s-155 -25 -206 -76s-77 -126 -77 -224c0 -73 17 -140 51 -200s83 -123 148 -190v-16h-226v16h205v1c-62 64 -110 127 -143 188c-34 61 -51 128 -51 201c0 103 27 182 82 236
c54 53 126 80 217 80s163 -27 218 -80c54 -54 81 -133 81 -236c0 -73 -17 -140 -50 -201c-34 -61 -82 -124 -144 -188v-1h205v-16z" />
    <glyph glyph-name="uni0386" unicode="&#x386;" horiz-adv-x="634" 
d="M610 0l-112 266h-363l-112 -266h-17l300 712h21l300 -712h-17zM492 282l-175 414h-1l-174 -414h350zM131 712h17l-52 -194h-14z" />
    <glyph glyph-name="uni0388" unicode="&#x388;" horiz-adv-x="586" 
d="M512 712v-16h-391v-322h374v-16h-374v-342h405v-16h-421v712h407zM-27 518h-14l49 194h17z" />
    <glyph glyph-name="uni0389" unicode="&#x389;" horiz-adv-x="705" 
d="M105 712h16v-334h463v334h16v-712h-16v362h-463v-362h-16v712zM-27 518h-14l49 194h17z" />
    <glyph glyph-name="uni038A" unicode="&#x38a;" horiz-adv-x="226" 
d="M105 0v712h16v-712h-16zM-41 518l49 194h17l-52 -194h-14z" />
    <glyph glyph-name="uni038C" unicode="&#x38c;" horiz-adv-x="702" 
d="M618 163c-49 -111 -144 -173 -267 -173c-186 0 -304 144 -304 366s118 366 304 366s304 -144 304 -366c0 -74 -12 -138 -37 -193zM99 171c47 -105 136 -165 252 -165c174 0 288 137 288 350s-114 350 -288 350s-288 -137 -288 -350c0 -71 12 -132 36 -185zM24 712h17
l-52 -194h-14z" />
    <glyph glyph-name="uni038E" unicode="&#x38e;" horiz-adv-x="570" 
d="M26 712l258 -377h1l259 377h19l-270 -394v-318h-16v318l-270 394h19zM-86 518h-14l49 194h17z" />
    <glyph glyph-name="uni038F" unicode="&#x38f;" horiz-adv-x="714" 
d="M667 0h-226v16c65 67 114 130 148 190s51 127 51 200c0 98 -26 173 -77 224s-120 76 -206 76s-155 -25 -206 -76s-77 -126 -77 -224c0 -73 17 -140 51 -200s83 -123 148 -190v-16h-226v16h205v1c-62 64 -110 127 -143 188c-34 61 -51 128 -51 201c0 103 27 182 82 236
c54 53 126 80 217 80s163 -27 218 -80c54 -54 81 -133 81 -236c0 -73 -17 -140 -50 -201c-34 -61 -82 -124 -144 -188v-1h205v-16zM-7 518h-14l49 194h17z" />
    <glyph glyph-name="uni03AA" unicode="&#x3aa;" horiz-adv-x="226" 
d="M121 712v-712h-16v712h16zM197 916h16v-77h-16v77zM29 916v-77h-16v77h16z" />
    <glyph glyph-name="uni03AB" unicode="&#x3ab;" horiz-adv-x="570" 
d="M563 712l-270 -394v-318h-16v318l-270 394h19l258 -377h1l259 377h19zM369 856h16v-77h-16v77zM201 856v-77h-16v77h16z" />
    <glyph glyph-name="uni03B1" unicode="&#x3b1;" horiz-adv-x="553" 
d="M528 1c-7 -3 -15 -4 -24 -4c-43 0 -66 25 -66 92c0 30 1 53 3 68h-1c-24 -109 -88 -167 -180 -167c-65 0 -117 24 -155 71s-57 111 -57 193s19 147 57 194s90 70 155 70c91 0 158 -60 181 -172h1c-1 12 -2 26 -2 43c0 38 3 78 8 119h16c-7 -48 -10 -108 -10 -180v-239
c0 -57 17 -76 50 -76c9 0 17 1 24 4v-16zM116 72c35 -44 83 -66 144 -66c111 0 178 95 178 248s-67 248 -178 248c-123 0 -196 -93 -196 -248c0 -77 17 -138 52 -182z" />
    <glyph glyph-name="uni03B2" unicode="&#x3b2;" horiz-adv-x="549" 
d="M503 192c0 -125 -81 -202 -210 -202c-102 0 -165 39 -188 117h-1c2 -21 3 -51 3 -92v-200h-16v656c0 169 61 251 193 251c112 0 176 -64 176 -167c0 -89 -51 -148 -147 -165v-1c113 -9 190 -69 190 -197zM107 471v-295c0 -107 62 -170 186 -170c120 0 194 70 194 186
c0 132 -82 189 -254 189h-20v16h20c141 0 211 53 211 158c0 93 -57 151 -160 151c-123 0 -177 -74 -177 -235z" />
    <glyph glyph-name="uni03B3" unicode="&#x3b3;" horiz-adv-x="476" 
d="M456 508c-10 -95 -30 -180 -61 -255c-31 -76 -78 -158 -140 -245v-14c0 -46 -5 -133 -11 -179h-16c6 46 11 133 11 179c0 56 -10 124 -31 204s-50 154 -87 221c-32 60 -56 76 -88 76c-9 0 -16 -1 -23 -3v16c7 2 14 3 23 3c39 0 66 -19 102 -84c33 -61 60 -127 81 -198
c21 -72 33 -137 37 -195h1c57 83 100 160 129 232s48 153 57 242h16z" />
    <glyph glyph-name="uni03B4" unicode="&#x3b4;" horiz-adv-x="528" 
d="M453 100c-36 -71 -102 -110 -189 -110c-130 0 -216 91 -216 233c0 140 79 235 218 279v2c-80 44 -116 67 -139 96c-12 15 -18 31 -18 49c0 49 38 73 113 73c74 0 144 -12 211 -36v-17c-66 25 -136 37 -211 37c-72 0 -97 -21 -97 -57c0 -31 25 -57 63 -81
c19 -12 49 -29 90 -52c137 -76 202 -161 202 -293c0 -47 -9 -88 -27 -123zM119 65c36 -39 84 -59 145 -59s109 20 146 59c36 39 54 91 54 158c0 120 -56 198 -179 270c-140 -39 -221 -131 -221 -270c0 -67 18 -119 55 -158z" />
    <glyph glyph-name="uni03B5" unicode="&#x3b5;" horiz-adv-x="458" 
d="M414 136c0 -89 -66 -146 -175 -146c-113 0 -183 55 -183 138c0 75 50 117 131 130v1c-75 16 -114 55 -114 124c0 83 63 135 163 135c103 0 168 -55 168 -146h-16c0 81 -59 130 -152 130c-91 0 -147 -46 -147 -119s57 -117 156 -117h62v-16h-62c-108 0 -173 -43 -173 -122
c0 -75 63 -122 167 -122c101 0 159 50 159 130h16z" />
    <glyph glyph-name="uni03B6" unicode="&#x3b6;" horiz-adv-x="415" 
d="M380 696c-97 -60 -173 -130 -228 -209c-56 -80 -84 -165 -84 -254c0 -58 15 -102 44 -132s79 -49 151 -58c100 -12 133 -45 133 -102c0 -30 -7 -59 -22 -86h-18c16 27 24 56 24 86c0 49 -26 75 -119 86c-77 9 -131 30 -162 63s-47 80 -47 143c0 91 28 177 83 256
s127 147 217 206v1h-273v16h301v-16z" />
    <glyph glyph-name="uni03B7" unicode="&#x3b7;" horiz-adv-x="546" 
d="M462 -185h-16v494c0 128 -57 193 -156 193c-94 0 -175 -77 -175 -184v-318h-16v419c0 57 -17 76 -50 76c-9 0 -17 -1 -24 -4v16c7 3 15 4 24 4c43 0 66 -25 66 -92c0 -13 -1 -24 -2 -33h1c27 84 96 132 176 132c108 0 172 -72 172 -209v-494z" />
    <glyph glyph-name="uni03B8" unicode="&#x3b8;" horiz-adv-x="552" 
d="M473 161c-36 -111 -106 -171 -198 -171c-138 0 -223 139 -223 366s85 366 223 366c139 0 225 -139 225 -366c0 -75 -9 -140 -27 -195zM94 165c33 -103 97 -159 181 -159c65 0 115 30 152 91s56 144 57 251h-416c1 -71 9 -132 26 -183zM68 364h416c-1 107 -20 190 -57 251
s-87 91 -152 91c-127 0 -205 -129 -207 -342z" />
    <glyph glyph-name="uni03B9" unicode="&#x3b9;" horiz-adv-x="223" 
d="M100 508v-379c0 -87 29 -116 84 -116c11 0 20 2 28 5v-16c-8 -3 -17 -5 -28 -5c-64 0 -100 37 -100 132v379h16z" />
    <glyph glyph-name="uni03BA" unicode="&#x3ba;" horiz-adv-x="465" 
d="M455 492c-8 1 -15 2 -20 2c-58 -2 -90 -24 -183 -126l-82 -91l293 -277h-24l-280 265l-52 -58v-207h-16v508h16v-277h1l132 147c99 108 128 129 195 132c5 0 12 -1 20 -2v-16z" />
    <glyph glyph-name="uni03BB" unicode="&#x3bb;" horiz-adv-x="517" 
d="M507 0c-5 -1 -10 -2 -14 -2c-21 0 -39 8 -54 23s-32 45 -49 90l-144 376h-1l-226 -487h-17l236 509c-59 152 -89 187 -160 190c-19 0 -34 -2 -45 -7v16c11 5 26 7 45 7c81 -3 113 -41 175 -201l153 -399c31 -80 54 -101 87 -101c4 0 9 1 14 2v-16z" />
    <glyph glyph-name="uni03BC" unicode="&#x3bc;" horiz-adv-x="547" 
d="M525 1c-7 -3 -15 -4 -24 -4c-45 0 -66 26 -66 103c0 7 0 13 1 19h-1c-23 -80 -92 -129 -172 -129c-83 0 -139 41 -158 125h-1c2 -26 3 -64 3 -115v-185h-16v693h16v-309c0 -128 57 -193 156 -193c94 0 172 73 172 188v314h16v-399c0 -76 13 -96 50 -96c9 0 17 1 24 4v-16
z" />
    <glyph glyph-name="uni03BD" unicode="&#x3bd;" horiz-adv-x="473" 
d="M453 468c0 -39 -5 -77 -15 -114c-10 -38 -28 -84 -54 -138s-64 -126 -115 -216h-23l-134 390c-28 80 -49 104 -86 104c-7 0 -12 -1 -16 -3v16c4 2 9 3 16 3c44 0 73 -30 101 -114l131 -381h1c145 256 176 342 178 453c0 14 -1 27 -3 40h16c2 -13 3 -26 3 -40z" />
    <glyph glyph-name="uni03BE" unicode="&#x3be;" horiz-adv-x="429" 
d="M372 -145c16 27 24 56 24 86c0 49 -27 77 -119 86c-164 16 -225 69 -225 176c0 96 56 163 171 183v1c-85 16 -135 68 -135 141c0 88 54 147 162 170v1c-21 -2 -51 -3 -91 -3h-90v16h335v-16h-56c-153 0 -244 -61 -244 -168c0 -43 17 -76 52 -99c34 -23 78 -34 131 -34h78
v-16h-60c-161 0 -237 -68 -237 -176c0 -97 51 -144 211 -160c100 -11 133 -43 133 -102c0 -30 -7 -59 -22 -86h-18z" />
    <glyph glyph-name="uni03BF" unicode="&#x3bf;" horiz-adv-x="528" 
d="M264 518c67 0 120 -23 159 -70c38 -47 57 -112 57 -194s-19 -146 -57 -193c-39 -47 -92 -71 -159 -71s-120 24 -158 71c-39 47 -58 111 -58 193s19 147 58 194c38 47 91 70 158 70zM117 72c35 -44 84 -66 147 -66c125 0 200 93 200 248s-75 248 -200 248
s-200 -93 -200 -248c0 -77 18 -138 53 -182z" />
    <glyph glyph-name="uni03C0" unicode="&#x3c0;" horiz-adv-x="625" 
d="M605 492h-140v-363c0 -87 29 -116 84 -116c13 0 23 2 32 5v-16c-9 -3 -19 -5 -32 -5c-64 0 -100 37 -100 132v363h-300v-492h-16v492h-118v16h590v-16z" />
    <glyph glyph-name="uni03C1" unicode="&#x3c1;" 
d="M433 61c-38 -47 -90 -71 -155 -71c-97 0 -159 66 -180 165h-1c2 -29 3 -72 3 -127v-213h-16v439c0 81 18 146 53 193s82 71 141 71c65 0 117 -23 155 -70s57 -112 57 -194s-19 -146 -57 -193zM148 73c31 -45 75 -67 130 -67c123 0 196 93 196 248s-73 248 -196 248
c-111 0 -178 -95 -178 -248c0 -77 16 -137 48 -181z" />
    <glyph glyph-name="uni03C2" unicode="&#x3c2;" horiz-adv-x="465" 
d="M429 346c-8 96 -70 156 -173 156c-120 0 -192 -83 -192 -226c0 -129 66 -201 205 -217c91 -11 122 -50 122 -118c0 -30 -7 -59 -22 -86h-18c16 27 24 56 24 86c0 59 -24 93 -108 102c-146 17 -219 94 -219 233c0 152 79 242 208 242c111 0 180 -67 189 -172h-16z" />
    <glyph glyph-name="uni03C3" unicode="&#x3c3;" horiz-adv-x="555" 
d="M540 492h-100c-47 0 -82 1 -105 3v-2c96 -31 145 -119 145 -244c0 -81 -19 -144 -58 -190s-92 -69 -159 -69s-119 23 -157 69c-39 46 -58 109 -58 190s19 144 58 190c38 46 90 69 157 69h277v-16zM117 71c35 -43 84 -65 146 -65c125 0 201 91 201 243s-76 243 -201 243
c-124 0 -199 -91 -199 -243c0 -76 18 -135 53 -178z" />
    <glyph glyph-name="uni03C4" unicode="&#x3c4;" horiz-adv-x="466" 
d="M15 508h436v-16h-218v-363c0 -87 29 -116 84 -116c13 0 23 2 32 5v-16c-9 -3 -19 -5 -32 -5c-64 0 -100 37 -100 132v363h-202v16z" />
    <glyph glyph-name="uni03C5" unicode="&#x3c5;" horiz-adv-x="540" 
d="M474 242c0 -163 -64 -252 -196 -252c-119 0 -180 56 -180 181v231c0 75 -11 93 -50 93c-9 0 -17 -1 -24 -4v16c7 3 15 4 24 4c48 0 66 -26 66 -109v-232c0 -115 55 -164 164 -164c120 0 180 79 180 236c0 99 -14 187 -41 266h16c27 -79 41 -167 41 -266z" />
    <glyph glyph-name="uni03C6" unicode="&#x3c6;" horiz-adv-x="692" 
d="M644 254c0 -81 -26 -145 -77 -192c-52 -47 -123 -71 -214 -72v-175h-16v175c-178 2 -289 103 -289 264s111 262 289 264v144h16v-144c91 -1 162 -24 214 -71c51 -47 77 -112 77 -193zM353 6c86 1 153 23 202 67s73 104 73 181s-24 137 -73 181s-116 66 -202 67v-496z
M137 74c48 -44 115 -67 200 -68v496c-171 -3 -273 -95 -273 -248c0 -77 24 -137 73 -180z" />
    <glyph glyph-name="uni03C7" unicode="&#x3c7;" horiz-adv-x="526" 
d="M516 -184c-15 -3 -30 -5 -45 -5c-54 0 -81 20 -119 114l-89 222h-1l-218 -332h-19l230 350l-94 234c-34 83 -54 100 -107 100c-17 0 -32 -2 -44 -7v16c12 5 27 7 44 7c29 0 53 -8 71 -23c17 -15 34 -44 51 -87l90 -224h1l215 327h19l-227 -346l93 -231
c36 -88 57 -104 104 -104c15 0 30 2 45 5v-16z" />
    <glyph glyph-name="uni03C8" unicode="&#x3c8;" horiz-adv-x="690" 
d="M621 242c0 -161 -86 -251 -263 -252v-175h-16v175c-171 3 -258 67 -258 210v308h16v-308c0 -133 79 -191 242 -194v656h16v-656c165 2 247 81 247 236c0 99 -14 187 -41 266h16c27 -79 41 -167 41 -266z" />
    <glyph glyph-name="uni03C9" unicode="&#x3c9;" horiz-adv-x="716" 
d="M646 224c0 -151 -52 -234 -157 -234c-71 0 -114 34 -130 101h-2c-16 -67 -59 -101 -130 -101c-105 0 -157 83 -157 234c0 101 22 200 65 284h17c-43 -84 -66 -183 -66 -284c0 -145 47 -218 141 -218c82 0 123 50 123 149v220h16v-220c0 -100 43 -149 123 -149
c94 0 141 73 141 218c0 101 -23 200 -66 284h17c43 -84 65 -183 65 -284z" />
    <glyph glyph-name="uni03AC" unicode="&#x3ac;" horiz-adv-x="553" 
d="M504 13c9 0 17 1 24 4v-16c-7 -3 -15 -4 -24 -4c-43 0 -66 25 -66 92c0 30 1 53 3 68h-1c-24 -109 -88 -167 -180 -167c-65 0 -117 24 -155 71s-57 111 -57 193s19 147 57 194s90 70 155 70c91 0 158 -60 181 -172h1c-1 12 -2 26 -2 43c0 38 3 78 8 119h16
c-7 -48 -10 -108 -10 -180v-239c0 -57 17 -76 50 -76zM64 254c0 -155 73 -248 196 -248c111 0 178 95 178 248s-67 248 -178 248c-123 0 -196 -93 -196 -248zM298 732h17l-52 -154h-14z" />
    <glyph glyph-name="uni03AF" unicode="&#x3af;" horiz-adv-x="223" 
d="M100 508v-379c0 -87 29 -116 84 -116c11 0 20 2 28 5v-16c-8 -3 -17 -5 -28 -5c-64 0 -100 37 -100 132v379h16zM82 578l49 154h17l-52 -154h-14z" />
    <glyph glyph-name="uni03CA" unicode="&#x3ca;" horiz-adv-x="223" 
d="M212 2c-8 -3 -17 -5 -28 -5c-64 0 -100 37 -100 132v379h16v-379c0 -87 29 -116 84 -116c11 0 20 2 28 5v-16zM176 635v77h16v-77h-16zM8 712v-77h-16v77h16z" />
    <glyph glyph-name="uni0390" unicode="&#x390;" horiz-adv-x="223" 
d="M212 2c-8 -3 -17 -5 -28 -5c-64 0 -100 37 -100 132v379h16v-379c0 -87 29 -116 84 -116c11 0 20 2 28 5v-16zM66 578l42 134h17l-45 -134h-14zM202 672v-77h-16v77h16zM-18 595v77h16v-77h-16z" />
    <glyph glyph-name="uni03CD" unicode="&#x3cd;" horiz-adv-x="540" 
d="M474 242c0 -163 -64 -252 -196 -252c-119 0 -180 56 -180 181v231c0 75 -11 93 -50 93c-9 0 -17 -1 -24 -4v16c7 3 15 4 24 4c48 0 66 -26 66 -109v-232c0 -115 55 -164 164 -164c120 0 180 79 180 236c0 99 -14 187 -41 266h16c27 -79 41 -167 41 -266zM301 732h17
l-52 -154h-14z" />
    <glyph glyph-name="uni03CB" unicode="&#x3cb;" horiz-adv-x="540" 
d="M474 242c0 -163 -64 -252 -196 -252c-119 0 -180 56 -180 181v231c0 75 -11 93 -50 93c-9 0 -17 -1 -24 -4v16c7 3 15 4 24 4c48 0 66 -26 66 -109v-232c0 -115 55 -164 164 -164c120 0 180 79 180 236c0 99 -14 187 -41 266h16c27 -79 41 -167 41 -266zM362 712v-77h-16
v77h16zM178 712v-77h-16v77h16z" />
    <glyph glyph-name="uni03B0" unicode="&#x3b0;" horiz-adv-x="540" 
d="M474 242c0 -163 -64 -252 -196 -252c-119 0 -180 56 -180 181v231c0 75 -11 93 -50 93c-9 0 -17 -1 -24 -4v16c7 3 15 4 24 4c48 0 66 -26 66 -109v-232c0 -115 55 -164 164 -164c120 0 180 79 180 236c0 99 -14 187 -41 266h16c27 -79 41 -167 41 -266zM236 578l42 134
h17l-45 -134h-14zM372 672v-77h-16v77h16zM152 672h16v-77h-16v77z" />
    <glyph glyph-name="uni03CC" unicode="&#x3cc;" horiz-adv-x="528" 
d="M423 61c-39 -47 -92 -71 -159 -71s-120 24 -158 71c-39 47 -58 111 -58 193s19 147 58 194c38 47 91 70 158 70s120 -23 159 -70c38 -47 57 -112 57 -194s-19 -146 -57 -193zM64 254c0 -155 75 -248 200 -248s200 93 200 248s-75 248 -200 248s-200 -93 -200 -248z
M303 732h17l-52 -154h-14z" />
    <glyph glyph-name="uni03CE" unicode="&#x3ce;" horiz-adv-x="716" 
d="M646 224c0 -151 -52 -234 -157 -234c-71 0 -114 34 -130 101h-2c-16 -67 -59 -101 -130 -101c-105 0 -157 83 -157 234c0 101 22 200 65 284h17c-43 -84 -66 -183 -66 -284c0 -145 47 -218 141 -218c82 0 123 50 123 149v220h16v-220c0 -100 43 -149 123 -149
c94 0 141 73 141 218c0 101 -23 200 -66 284h17c43 -84 65 -183 65 -284zM348 578l49 154h17l-52 -154h-14z" />
    <glyph glyph-name="uni03AD" unicode="&#x3ad;" horiz-adv-x="458" 
d="M368 30c-31 -27 -74 -40 -129 -40c-113 0 -183 55 -183 138c0 75 50 117 131 130v1c-75 16 -114 55 -114 124c0 83 63 135 163 135c103 0 168 -55 168 -146h-16c0 81 -59 130 -152 130c-91 0 -147 -46 -147 -119s57 -117 156 -117h62v-16h-62c-108 0 -173 -43 -173 -122
c0 -75 63 -122 167 -122c101 0 159 50 159 130h16c0 -45 -15 -80 -46 -106zM280 732h17l-52 -154h-14z" />
    <glyph glyph-name="uni03AE" unicode="&#x3ae;" horiz-adv-x="546" 
d="M462 -185h-16v494c0 128 -57 193 -156 193c-94 0 -175 -77 -175 -184v-318h-16v419c0 57 -17 76 -50 76c-9 0 -17 -1 -24 -4v16c7 3 15 4 24 4c43 0 66 -25 66 -92c0 -13 -1 -24 -2 -33h1c27 84 96 132 176 132c108 0 172 -72 172 -209v-494zM300 732h17l-52 -154h-14z
" />
    <glyph glyph-name="uni2099" unicode="&#x2099;" horiz-adv-x="388" 
d="M77 101h1c19 57 70 90 126 90c80 0 125 -51 125 -147v-216h-16v216c0 88 -39 131 -110 131c-34 0 -63 -12 -87 -35c-24 -24 -36 -54 -36 -91v-221h-16v356h16c0 -37 -1 -64 -3 -83z" />
    <glyph glyph-name="uni0030.5" horiz-adv-x="544" 
d="M272 684c143 0 216 -119 216 -347c0 -229 -73 -347 -216 -347s-216 118 -216 347c0 228 73 347 216 347zM272 668c-133 0 -200 -110 -200 -331s67 -331 200 -331s200 110 200 331s-67 331 -200 331z" />
    <glyph glyph-name="uni0031.6" horiz-adv-x="297" 
d="M15 546v16c95 0 135 31 146 112h16v-674h-16v620h-1c-16 -51 -62 -74 -145 -74z" />
    <glyph glyph-name="uni0032.7" horiz-adv-x="528" 
d="M473 0h-414l-1 16c2 122 30 178 198 278c51 29 89 53 113 70c23 17 41 36 54 58s19 50 19 83c0 48 -16 87 -47 118c-32 30 -74 45 -126 45c-111 0 -176 -65 -185 -174h-16c9 117 82 190 201 190c113 0 189 -75 189 -179c0 -72 -28 -116 -78 -152
c-25 -19 -64 -43 -115 -72c-166 -97 -189 -150 -191 -265h399v-16z" />
    <glyph glyph-name="uni0033.8" horiz-adv-x="526" 
d="M464 172c0 -105 -92 -182 -215 -182c-62 0 -111 17 -146 52c-36 35 -54 81 -54 138h16c0 -105 69 -174 184 -174c113 0 199 71 199 166c0 104 -75 164 -199 164h-46v16h46c117 0 184 59 184 158c0 47 -17 86 -51 115c-35 29 -80 43 -137 43c-108 0 -177 -64 -177 -172
h-16c0 117 76 188 193 188c121 0 204 -71 204 -174c0 -89 -50 -145 -133 -165v-1c92 -20 148 -77 148 -172z" />
    <glyph glyph-name="uni0034.9" horiz-adv-x="504" 
d="M323 674h25v-451h140v-16h-140v-207h-16v207h-317v20zM332 223v435h-1l-300 -435h301z" />
    <glyph glyph-name="uni0035.10" horiz-adv-x="520" 
d="M429 658h-314l-32 -326h1c29 63 89 99 170 99c63 0 112 -20 149 -59s55 -92 55 -159s-19 -121 -57 -162c-39 -41 -90 -61 -154 -61c-113 0 -185 69 -185 182h16c0 -104 65 -166 169 -166c60 0 108 19 143 57c35 37 52 87 52 150c0 125 -72 202 -188 202
c-88 0 -149 -44 -176 -132l-15 1l38 390h328v-16z" />
    <glyph glyph-name="uni0036.11" horiz-adv-x="524" 
d="M448 98c-35 -69 -98 -108 -178 -108c-140 0 -214 105 -214 314c0 248 83 380 224 380c100 0 164 -61 181 -164h-16c-17 95 -73 148 -165 148c-135 0 -213 -132 -209 -400h2c8 48 29 88 64 120c35 31 78 47 129 47c123 0 207 -89 207 -219c0 -45 -8 -84 -25 -118zM132 67
c32 -41 78 -61 138 -61c57 0 102 19 136 58c34 38 51 89 51 152c0 61 -17 111 -52 148s-82 55 -139 55c-105 0 -183 -84 -183 -195c0 -64 16 -116 49 -157z" />
    <glyph glyph-name="uni0037.pnum" horiz-adv-x="458" 
d="M15 674h427v-16c-65 -96 -120 -195 -167 -298s-85 -223 -116 -360h-17c32 141 71 262 118 364c46 102 101 200 164 294h-409v16z" />
    <glyph glyph-name="uni0038.12" horiz-adv-x="531" 
d="M434 599c17 -27 25 -57 25 -91c0 -83 -55 -143 -135 -159v-1c88 -21 151 -84 151 -168c0 -111 -89 -190 -210 -190s-210 79 -210 190c0 84 63 147 151 168v1c-80 16 -135 76 -135 159c0 102 82 176 194 176c75 0 136 -32 169 -85zM434 261c-35 49 -96 79 -169 79
c-110 0 -194 -70 -194 -160c0 -102 82 -174 194 -174s194 72 194 174c0 29 -8 56 -25 81zM393 624c-33 29 -76 44 -128 44s-95 -15 -128 -44c-33 -30 -50 -69 -50 -116c0 -45 16 -81 49 -109c33 -29 76 -43 129 -43s96 14 129 43c33 28 49 64 49 109c0 47 -17 86 -50 116z
" />
    <glyph glyph-name="uni0039.13" horiz-adv-x="524" 
d="M451 406c-8 -48 -29 -88 -64 -119c-35 -32 -78 -48 -129 -48c-123 0 -207 89 -207 219c0 135 83 226 203 226c140 0 214 -105 214 -314c0 -248 -83 -380 -224 -380c-100 0 -164 61 -181 164h16c17 -95 73 -148 165 -148c135 0 213 132 209 400h-2zM67 458
c0 -61 18 -110 53 -147s81 -56 138 -56c105 0 183 84 183 195c0 64 -16 116 -48 157c-33 41 -79 61 -139 61c-57 0 -102 -19 -136 -57c-34 -39 -51 -90 -51 -153z" />
    <glyph glyph-name="uni2044" unicode="&#x2044;" horiz-adv-x="102" 
d="M239 674h18l-394 -674h-18z" />
    <glyph glyph-name="uni00BD" unicode="&#xbd;" horiz-adv-x="619" 
d="M527 209c-16 -12 -39 -26 -70 -43c-99 -54 -116 -87 -116 -150h245v-16h-261v10c2 75 18 110 123 169c61 35 85 50 101 76c8 13 12 29 12 48c0 55 -41 92 -102 92c-65 0 -102 -37 -109 -100h-16c7 72 52 116 125 116c69 0 118 -45 118 -108c0 -44 -18 -71 -50 -94z
M427 674h18l-394 -674h-18zM74 622c14 10 23 27 26 52h16v-404h-16v357h-1c-13 -24 -43 -36 -90 -36v16c29 0 51 5 65 15z" />
    <glyph glyph-name="uni00BC" unicode="&#xbc;" horiz-adv-x="585" 
d="M575 121h-84v-121h-16v121h-196v18l189 265h23v-267h84v-16zM475 137v248h-1l-177 -248h178zM427 674h18l-394 -674h-18zM74 622c14 10 23 27 26 52h16v-404h-16v357h-1c-13 -24 -43 -36 -90 -36v16c29 0 51 5 65 15z" />
    <glyph glyph-name="uni00BE" unicode="&#xbe;" horiz-adv-x="724" 
d="M418 139l189 265h23v-267h84v-16h-84v-121h-16v121h-196v18zM613 385l-177 -248h178v248h-1zM30 380h16c0 -61 42 -101 113 -101c67 0 116 40 116 95c0 60 -45 94 -121 94h-26v16h26c71 0 112 35 112 91c0 55 -43 90 -110 90s-108 -36 -108 -99h-16c0 72 49 115 124 115
c76 0 126 -43 126 -106c0 -50 -27 -83 -80 -98v-1c56 -12 89 -46 89 -102c0 -32 -12 -58 -37 -79s-57 -32 -95 -32c-80 0 -129 46 -129 117zM566 674h18l-394 -674h-18z" />
    <glyph glyph-name="uni215B" unicode="&#x215b;" horiz-adv-x="620" 
d="M455 -6c-80 0 -132 46 -132 114c0 52 35 88 90 101v1c-48 12 -81 46 -81 94c0 64 50 107 123 107s123 -43 123 -107c0 -48 -33 -82 -81 -94v-1c55 -13 90 -49 90 -101c0 -68 -52 -114 -132 -114zM455 201c-67 0 -116 -40 -116 -93c0 -59 45 -98 116 -98s116 39 116 98
c0 53 -49 93 -116 93zM562 304c0 55 -42 91 -107 91s-107 -36 -107 -91c0 -52 43 -87 107 -87s107 35 107 87zM427 674h18l-394 -674h-18zM74 622c14 10 23 27 26 52h16v-404h-16v357h-1c-13 -24 -43 -36 -90 -36v16c29 0 51 5 65 15z" />
    <glyph glyph-name="uni215C" unicode="&#x215c;" horiz-adv-x="759" 
d="M498 26c-24 21 -36 48 -36 82c0 52 35 88 90 101v1c-48 12 -81 46 -81 94c0 64 50 107 123 107s123 -43 123 -107c0 -48 -33 -82 -81 -94v-1c55 -13 90 -49 90 -101c0 -68 -52 -114 -132 -114c-40 0 -72 11 -96 32zM478 108c0 -59 45 -98 116 -98s116 39 116 98
c0 53 -49 93 -116 93s-116 -40 -116 -93zM516 370c-19 -17 -29 -39 -29 -66c0 -52 43 -87 107 -87s107 35 107 87c0 55 -42 91 -107 91c-33 0 -59 -8 -78 -25zM30 380h16c0 -61 42 -101 113 -101c67 0 116 40 116 95c0 60 -45 94 -121 94h-26v16h26c71 0 112 35 112 91
c0 55 -43 90 -110 90s-108 -36 -108 -99h-16c0 72 49 115 124 115c76 0 126 -43 126 -106c0 -50 -27 -83 -80 -98v-1c56 -12 89 -46 89 -102c0 -32 -12 -58 -37 -79s-57 -32 -95 -32c-80 0 -129 46 -129 117zM566 674h18l-394 -674h-18z" />
    <glyph glyph-name="uni215D" unicode="&#x215d;" horiz-adv-x="756" 
d="M549 209v1c-48 12 -81 46 -81 94c0 64 50 107 123 107s123 -43 123 -107c0 -48 -33 -82 -81 -94v-1c55 -13 90 -49 90 -101c0 -68 -52 -114 -132 -114s-132 46 -132 114c0 52 35 88 90 101zM591 10c71 0 116 39 116 98c0 53 -49 93 -116 93s-116 -40 -116 -93
c0 -59 45 -98 116 -98zM484 304c0 -52 43 -87 107 -87s107 35 107 87c0 55 -42 91 -107 91s-107 -36 -107 -91zM37 374h16c0 -60 39 -95 102 -95c72 0 116 47 116 119s-43 116 -112 116c-53 0 -89 -25 -104 -76l-17 1l23 235h208v-16h-193l-17 -175h2c21 31 53 47 98 47
c79 0 128 -51 128 -132s-52 -135 -132 -135c-72 0 -118 43 -118 111zM581 674l-394 -674h-18l394 674h18z" />
    <glyph glyph-name="uni215E" unicode="&#x215e;" horiz-adv-x="668" 
d="M592 382c23 -20 34 -46 34 -78c0 -48 -33 -82 -81 -94v-1c55 -13 90 -49 90 -101c0 -68 -52 -114 -132 -114s-132 46 -132 114c0 52 35 88 90 101v1c-48 12 -81 46 -81 94c0 64 50 107 123 107c37 0 66 -10 89 -29zM588 37c21 18 31 42 31 71c0 53 -49 93 -116 93
s-116 -40 -116 -93c0 -59 45 -98 116 -98c35 0 64 9 85 27zM503 395c-65 0 -107 -36 -107 -91c0 -52 43 -87 107 -87s107 35 107 87c0 55 -42 91 -107 91zM81 0l394 674h18l-394 -674h-18zM276 674v-16c-76 -111 -133 -228 -172 -388h-17c40 167 96 281 171 388h-249v16h267
z" />
    <glyph glyph-name="uni0030.dnom" horiz-adv-x="340" 
d="M69 358c23 35 56 53 101 53c89 0 136 -72 136 -209s-47 -209 -136 -209s-136 72 -136 209c0 69 12 121 35 156zM50 202c0 -129 40 -193 120 -193s120 64 120 193s-40 193 -120 193s-120 -64 -120 -193z" />
    <glyph glyph-name="uni0031.dnom" horiz-adv-x="188" 
d="M74 352c14 10 23 27 26 52h16v-404h-16v357h-1c-13 -24 -43 -36 -90 -36v16c29 0 51 5 65 15z" />
    <glyph glyph-name="uni0032.dnom" horiz-adv-x="329" 
d="M296 0h-261v10c2 75 18 110 123 169c61 35 85 50 101 76c8 13 12 29 12 48c0 55 -41 92 -102 92c-65 0 -102 -37 -109 -100h-16c7 72 52 116 125 116c69 0 118 -45 118 -108c-4 -69 -30 -87 -120 -137c-99 -54 -116 -87 -116 -150h245v-16z" />
    <glyph glyph-name="uni0033.dnom" horiz-adv-x="327" 
d="M290 104c0 -32 -12 -58 -37 -79s-57 -32 -95 -32c-80 0 -129 46 -129 117h16c0 -61 42 -101 113 -101c67 0 116 40 116 95c0 60 -45 94 -121 94h-26v16h26c71 0 112 35 112 91c0 55 -43 90 -110 90s-108 -36 -108 -99h-16c0 72 49 115 124 115c76 0 126 -43 126 -106
c0 -50 -27 -83 -80 -98v-1c56 -12 89 -46 89 -102z" />
    <glyph glyph-name="uni0034.dnom" horiz-adv-x="315" 
d="M9 121v18l189 265h23v-267h84v-16h-84v-121h-16v121h-196zM27 137h178v248h-1z" />
    <glyph glyph-name="uni0035.dnom" horiz-adv-x="324" 
d="M269 388h-193l-17 -175h2c21 31 53 47 98 47c79 0 128 -51 128 -132s-52 -135 -132 -135c-72 0 -118 43 -118 111h16c0 -60 39 -95 102 -95c72 0 116 47 116 119s-43 116 -112 116c-53 0 -89 -25 -104 -76l-17 1l23 235h208v-16z" />
    <glyph glyph-name="uni0036.dnom" horiz-adv-x="326" 
d="M273 310c-11 55 -43 85 -98 85c-80 0 -126 -73 -125 -217h1c15 49 58 84 117 84c77 0 128 -53 128 -132c0 -81 -51 -136 -128 -136c-88 0 -134 64 -134 189c0 149 52 228 141 228c64 0 103 -38 114 -101h-16zM87 45c19 -23 46 -35 81 -35c68 0 112 47 112 120
c0 71 -44 116 -112 116c-64 0 -111 -48 -111 -113c0 -36 10 -65 30 -88z" />
    <glyph glyph-name="uni0037.dnom" horiz-adv-x="286" 
d="M9 404h267v-16c-76 -111 -133 -228 -172 -388h-17c40 167 96 281 171 388h-249v16z" />
    <glyph glyph-name="uni0038.dnom" horiz-adv-x="330" 
d="M261 26c-24 -21 -56 -32 -96 -32c-80 0 -132 46 -132 114c0 52 35 88 90 101v1c-48 12 -81 46 -81 94c0 64 50 107 123 107s123 -43 123 -107c0 -48 -33 -82 -81 -94v-1c55 -13 90 -49 90 -101c0 -34 -12 -61 -36 -82zM49 108c0 -59 45 -98 116 -98s116 39 116 98
c0 53 -49 93 -116 93s-116 -40 -116 -93zM58 304c0 -52 43 -87 107 -87s107 35 107 87c0 55 -42 91 -107 91s-107 -36 -107 -91z" />
    <glyph glyph-name="uni0039.dnom" horiz-adv-x="326" 
d="M275 227c-15 -49 -58 -84 -117 -84c-77 0 -128 53 -128 132c0 81 51 136 128 136c88 0 134 -64 134 -189c0 -149 -52 -228 -141 -228c-64 0 -103 38 -114 101h16c11 -55 43 -85 98 -85c80 0 126 73 125 217h-1zM46 275c0 -71 44 -116 112 -116c64 0 111 48 111 113
c0 72 -42 123 -111 123c-68 0 -112 -47 -112 -120z" />
    <glyph glyph-name="uni0030.frac" horiz-adv-x="340" 
d="M69 628c23 35 56 53 101 53c89 0 136 -72 136 -209s-47 -209 -136 -209s-136 72 -136 209c0 69 12 121 35 156zM50 472c0 -129 40 -193 120 -193s120 64 120 193s-40 193 -120 193s-120 -64 -120 -193z" />
    <glyph glyph-name="uni0031.frac" horiz-adv-x="188" 
d="M74 622c14 10 23 27 26 52h16v-404h-16v357h-1c-13 -24 -43 -36 -90 -36v16c29 0 51 5 65 15z" />
    <glyph glyph-name="uni0032.frac" horiz-adv-x="329" 
d="M296 270h-261v10c2 75 18 110 123 169c61 35 85 50 101 76c8 13 12 29 12 48c0 55 -41 92 -102 92c-65 0 -102 -37 -109 -100h-16c7 72 52 116 125 116c69 0 118 -45 118 -108c-4 -69 -30 -87 -120 -137c-99 -54 -116 -87 -116 -150h245v-16z" />
    <glyph glyph-name="uni0033.frac" horiz-adv-x="327" 
d="M291 374c0 -32 -12 -58 -37 -79s-57 -32 -95 -32c-80 0 -129 46 -129 117h16c0 -61 42 -101 113 -101c67 0 116 40 116 95c0 60 -45 94 -121 94h-26v16h26c71 0 112 35 112 91c0 55 -43 90 -110 90s-108 -36 -108 -99h-16c0 72 49 115 124 115c76 0 126 -43 126 -106
c0 -50 -27 -83 -80 -98v-1c56 -12 89 -46 89 -102z" />
    <glyph glyph-name="uni0034.frac" horiz-adv-x="315" 
d="M9 391v18l189 265h23v-267h84v-16h-84v-121h-16v121h-196zM27 407h178v248h-1z" />
    <glyph glyph-name="uni0035.frac" horiz-adv-x="324" 
d="M269 658h-193l-17 -175h2c21 31 53 47 98 47c79 0 128 -51 128 -132s-52 -135 -132 -135c-72 0 -118 43 -118 111h16c0 -60 39 -95 102 -95c72 0 116 47 116 119s-43 116 -112 116c-53 0 -89 -25 -104 -76l-17 1l23 235h208v-16z" />
    <glyph glyph-name="uni0036.frac" horiz-adv-x="326" 
d="M272 580c-11 55 -43 85 -98 85c-80 0 -126 -73 -125 -217h1c15 49 58 84 117 84c77 0 128 -53 128 -132c0 -81 -51 -136 -128 -136c-88 0 -134 64 -134 189c0 149 52 228 141 228c64 0 103 -38 114 -101h-16zM86 315c19 -23 46 -35 81 -35c68 0 112 47 112 120
c0 71 -44 116 -112 116c-64 0 -111 -48 -111 -113c0 -36 10 -65 30 -88z" />
    <glyph glyph-name="uni0037.frac" horiz-adv-x="286" 
d="M9 674h267v-16c-76 -111 -133 -228 -172 -388h-17c40 167 96 281 171 388h-249v16z" />
    <glyph glyph-name="uni0038.frac" horiz-adv-x="330" 
d="M261 296c-24 -21 -56 -32 -96 -32c-80 0 -132 46 -132 114c0 52 35 88 90 101v1c-48 12 -81 46 -81 94c0 64 50 107 123 107s123 -43 123 -107c0 -48 -33 -82 -81 -94v-1c55 -13 90 -49 90 -101c0 -34 -12 -61 -36 -82zM49 378c0 -59 45 -98 116 -98s116 39 116 98
c0 53 -49 93 -116 93s-116 -40 -116 -93zM58 574c0 -52 43 -87 107 -87s107 35 107 87c0 55 -42 91 -107 91s-107 -36 -107 -91z" />
    <glyph glyph-name="uni0039.frac" horiz-adv-x="326" 
d="M275 497c-15 -49 -58 -84 -117 -84c-77 0 -128 53 -128 132c0 81 51 136 128 136c88 0 134 -64 134 -189c0 -149 -52 -228 -141 -228c-64 0 -103 38 -114 101h16c11 -55 43 -85 98 -85c80 0 126 73 125 217h-1zM46 545c0 -71 44 -116 112 -116c64 0 111 48 111 113
c0 72 -42 123 -111 123c-68 0 -112 -47 -112 -120z" />
    <glyph glyph-name="uni2080" unicode="&#x2080;" horiz-adv-x="392" 
d="M79 246c26 41 65 61 117 61c104 0 157 -83 157 -243c0 -161 -53 -243 -157 -243s-157 82 -157 243c0 80 13 141 40 182zM56 64c0 -152 47 -228 140 -228s140 76 140 228c0 151 -47 227 -140 227s-140 -76 -140 -227z" />
    <glyph glyph-name="uni2081" unicode="&#x2081;" horiz-adv-x="216" 
d="M9 206v15c68 0 98 22 106 79h15v-472h-16v424h-1c-13 -32 -48 -46 -104 -46z" />
    <glyph glyph-name="uni2082" unicode="&#x2082;" horiz-adv-x="381" 
d="M342 -172h-300c-1 3 -1 7 -1 12c1 86 23 127 143 196c36 21 62 37 79 48s30 25 39 40s14 34 14 57c0 65 -49 110 -122 110c-77 0 -123 -43 -130 -118h-16c7 83 59 134 146 134c81 0 138 -51 138 -126c0 -51 -21 -82 -57 -108c-19 -13 -46 -30 -82 -50
c-115 -65 -136 -104 -136 -179h285v-16z" />
    <glyph glyph-name="uni2083" unicode="&#x2083;" horiz-adv-x="379" 
d="M336 -51c0 -37 -15 -67 -44 -92c-29 -24 -66 -36 -111 -36c-92 0 -147 52 -147 135h16c0 -73 48 -119 131 -119c40 0 73 10 100 31c26 21 39 48 39 81c0 71 -53 112 -141 112h-31v16h31c83 0 131 40 131 107c0 64 -53 107 -132 107c-77 0 -126 -44 -126 -117h-16
c0 83 55 133 142 133c88 0 148 -50 148 -122c0 -63 -35 -102 -94 -115v-1c65 -15 104 -55 104 -120z" />
    <glyph glyph-name="uni2084" unicode="&#x2084;" horiz-adv-x="365" 
d="M230 300h24v-314h99v-16h-99v-142h-16v142h-228v19zM238 -14v297h-1l-211 -297h212z" />
    <glyph glyph-name="uni2085" unicode="&#x2085;" horiz-adv-x="375" 
d="M311 284h-226l-21 -218h1c21 40 63 65 119 65c91 0 148 -60 148 -153c0 -95 -61 -157 -154 -157c-81 0 -135 49 -135 128h16c0 -71 46 -112 119 -112c85 0 138 54 138 141c0 85 -51 137 -132 137c-61 0 -105 -31 -124 -90l-16 1l27 274h240v-16z" />
    <glyph glyph-name="uni2086" unicode="&#x2086;" horiz-adv-x="378" 
d="M317 190c-12 64 -51 101 -115 101c-95 0 -149 -88 -148 -267h1c13 64 67 109 138 109c89 0 149 -62 149 -154c0 -47 -14 -86 -41 -115s-63 -43 -107 -43c-101 0 -155 73 -155 220c0 175 60 266 163 266c73 0 120 -44 132 -117h-17zM98 -122c23 -27 55 -41 96 -41
c79 0 132 57 132 142c0 83 -53 138 -133 138c-37 0 -68 -12 -93 -37s-37 -57 -37 -96c0 -43 12 -79 35 -106z" />
    </font>
</defs>
</svg>
