<?xml version="1.0" standalone="no"?>
<!DOCTYPE svg PUBLIC "-//W3C//DTD SVG 1.1//EN" "http://www.w3.org/Graphics/SVG/1.1/DTD/svg11.dtd" >
<svg xmlns="http://www.w3.org/2000/svg" xmlns:xlink="http://www.w3.org/1999/xlink" version="1.1">
<metadata>
Created by FontForge 20190801 at Wed Nov 27 11:21:01 2019
 By Jimmy Wärting
Copyright \(c\) 2015 Monotype Imaging Inc.  All rights reserved.
</metadata>
<defs>
<font id="NeueHaasUnica-Light" horiz-adv-x="563" >
  <font-face 
    font-family="Neue Haas Unica"
    font-weight="350"
    font-stretch="normal"
    units-per-em="1000"
    panose-1="2 11 4 4 3 2 6 2 2 3"
    ascent="800"
    descent="-200"
    x-height="508"
    cap-height="712"
    bbox="-500 -275 1089 1082"
    underline-thickness="50"
    underline-position="-125"
    stemh="52"
    stemv="65"
    unicode-range="U+0020-FEFF"
  />
<missing-glyph horiz-adv-x="614" 
d="M557 -31c-23 -23 -55 -34 -94 -34h-312c-79 0 -128 49 -128 128v586c0 79 49 128 128 128h312c79 0 128 -49 128 -128v-586c0 -39 -11 -71 -34 -94zM527 713c-16 15 -37 23 -64 23h-312c-53 0 -87 -34 -87 -87v-586c0 -53 34 -87 87 -87h312c27 0 48 8 64 23
c15 16 23 37 23 64v586c0 27 -8 48 -23 64zM338 392c27 23 44 42 51 56s11 32 11 53c0 55 -37 87 -98 87c-67 0 -105 -38 -109 -107h-63c5 108 67 165 172 165c49 0 89 -13 120 -40s46 -62 46 -105c0 -29 -5 -54 -16 -73c-11 -20 -33 -45 -68 -74c-62 -56 -67 -65 -69 -160
h-57v25c2 88 12 109 80 173zM248 146h77v-81h-77v81z" />
    <glyph glyph-name="f_f.liga" unicode="ff" horiz-adv-x="541" 
d="M526 659c-9 3 -20 4 -31 4c-49 0 -73 -26 -73 -90v-65h102v-52h-102v-456h-62v456h-192v-456h-62v456h-91v52h91v71c0 91 42 137 125 137c13 0 27 -1 42 -4v-53c-9 3 -20 4 -32 4c-49 0 -73 -26 -73 -90v-65h192v71c0 91 42 137 125 137c14 0 28 -1 41 -4v-53z" />
    <glyph glyph-name="f_f_i.liga" unicode="ffi" horiz-adv-x="769" 
d="M106 508v71c0 91 42 137 125 137c13 0 27 -1 42 -4v-53c-9 3 -20 4 -32 4c-49 0 -73 -26 -73 -90v-65h192v71c0 91 42 137 125 137c14 0 28 -1 41 -4v-53c-9 3 -20 4 -31 4c-49 0 -73 -26 -73 -90v-65h102v-52h-102v-456h-62v456h-192v-456h-62v456h-91v52h91zM624 508
h62v-508h-62v508zM624 624v88h62v-88h-62z" />
    <glyph glyph-name="f_f_l.liga" unicode="ffl" horiz-adv-x="769" 
d="M15 456v52h91v71c0 91 42 137 125 137c13 0 27 -1 42 -4v-53c-9 3 -20 4 -32 4c-49 0 -73 -26 -73 -90v-65h192v71c0 91 42 137 125 137c14 0 28 -1 41 -4v-53c-9 3 -20 4 -31 4c-49 0 -73 -26 -73 -90v-65h102v-52h-102v-456h-62v456h-192v-456h-62v456h-91zM624 0v712
h62v-712h-62z" />
    <glyph glyph-name="f_i.liga" unicode="fi" horiz-adv-x="516" 
d="M106 456h-91v52h91v71c0 91 42 137 125 137c13 0 27 -1 42 -4v-53c-9 3 -20 4 -32 4c-49 0 -73 -26 -73 -90v-65h103v-52h-103v-456h-62v456zM370 0v508h62v-508h-62zM432 712v-88h-62v88h62z" />
    <glyph glyph-name="f_l.liga" unicode="fl" horiz-adv-x="516" 
d="M106 508v71c0 91 42 137 125 137c13 0 27 -1 42 -4v-53c-9 3 -20 4 -32 4c-49 0 -73 -26 -73 -90v-65h103v-52h-103v-456h-62v456h-91v52h91zM432 0h-62v712h62v-712z" />
    <glyph glyph-name=".notdef" horiz-adv-x="614" 
d="M557 -31c-23 -23 -55 -34 -94 -34h-312c-79 0 -128 49 -128 128v586c0 79 49 128 128 128h312c79 0 128 -49 128 -128v-586c0 -39 -11 -71 -34 -94zM527 713c-16 15 -37 23 -64 23h-312c-53 0 -87 -34 -87 -87v-586c0 -53 34 -87 87 -87h312c27 0 48 8 64 23
c15 16 23 37 23 64v586c0 27 -8 48 -23 64zM338 392c27 23 44 42 51 56s11 32 11 53c0 55 -37 87 -98 87c-67 0 -105 -38 -109 -107h-63c5 108 67 165 172 165c49 0 89 -13 120 -40s46 -62 46 -105c0 -29 -5 -54 -16 -73c-11 -20 -33 -45 -68 -74c-62 -56 -67 -65 -69 -160
h-57v25c2 88 12 109 80 173zM248 146h77v-81h-77v81z" />
    <glyph glyph-name="NULL" horiz-adv-x="0" 
 />
    <glyph glyph-name="NULL" horiz-adv-x="0" 
 />
    <glyph glyph-name="nonmarkingreturn" horiz-adv-x="333" 
 />
    <glyph glyph-name="space" unicode=" " horiz-adv-x="230" 
 />
    <glyph glyph-name="glyph1" horiz-adv-x="600" 
 />
    <glyph glyph-name="exclam" unicode="!" horiz-adv-x="251" 
d="M100 164l-16 548h83l-16 -548h-51zM165 0h-79v93h79v-93z" />
    <glyph glyph-name="quotedbl" unicode="&#x22;" horiz-adv-x="340" 
d="M204 712h65l-10 -258h-45zM136 712l-10 -258h-45l-10 258h65z" />
    <glyph glyph-name="numbersign" unicode="#" horiz-adv-x="637" 
d="M602 478l-8 -49h-126l-29 -181h127l-8 -49h-126l-32 -199h-54l32 199h-161l-32 -199h-55l32 199h-127l8 49h126l29 181h-127l8 49h127l31 196h55l-31 -196h161l31 196h54l-31 -196h126zM224 248h161l29 181h-161z" />
    <glyph glyph-name="dollar" unicode="$" horiz-adv-x="544" 
d="M45 220h68c0 -107 43 -162 132 -173v274c-79 23 -129 43 -162 92c-17 25 -25 57 -25 98c0 103 70 168 187 175v78h54v-78c125 -10 188 -83 188 -220h-67c0 104 -38 153 -121 161v-251c89 -25 138 -45 173 -96c17 -26 26 -61 26 -105c0 -107 -75 -179 -199 -187v-87h-54
v87c-129 11 -199 91 -200 232zM396 84c23 22 34 52 34 90c-4 84 -40 104 -131 132v-260c42 3 74 16 97 38zM126 511c0 -71 35 -97 119 -121v238c-79 -6 -119 -45 -119 -117z" />
    <glyph glyph-name="percent" unicode="%" horiz-adv-x="841" 
d="M502 173c0 59 13 105 38 138c25 32 62 48 109 48c95 0 147 -67 147 -186s-52 -186 -147 -186s-147 67 -147 186zM84 363c-26 32 -39 78 -39 137c0 60 13 106 38 139c25 32 62 48 109 48c95 0 147 -67 147 -187c0 -119 -54 -185 -147 -185c-47 0 -83 16 -108 48zM202 -30
l377 734h61l-378 -734h-60zM710 271c-15 23 -35 35 -61 35c-52 0 -82 -48 -82 -133s30 -132 82 -132s83 47 83 132c0 42 -7 75 -22 98zM132 599c-15 -23 -22 -56 -22 -99s7 -75 22 -98c14 -23 34 -34 60 -34c52 0 83 48 83 132c0 85 -31 133 -83 133c-26 0 -46 -11 -60 -34z
" />
    <glyph glyph-name="ampersand" unicode="&#x26;" horiz-adv-x="724" 
d="M526 188c33 58 49 128 49 209h65c0 -96 -24 -185 -68 -254l144 -143h-90l-93 93c-57 -68 -139 -107 -231 -107c-143 0 -242 84 -242 202c0 91 52 162 164 215c-34 35 -57 65 -69 88s-18 51 -18 83c0 45 15 81 46 109c30 28 69 42 116 42c49 0 89 -14 119 -42
c29 -28 44 -64 44 -109c0 -41 -10 -76 -31 -103c-21 -28 -57 -55 -109 -81zM128 189c0 -82 71 -145 175 -145c75 0 139 32 188 91l-229 229c-50 -25 -85 -50 -104 -77c-20 -27 -30 -60 -30 -98zM198 573c0 -23 6 -45 17 -64s34 -46 68 -81c46 23 77 45 94 68
c16 22 24 48 24 77c0 57 -38 96 -102 96c-31 0 -56 -8 -74 -25s-27 -41 -27 -71z" />
    <glyph glyph-name="quotesingle" unicode="'" horiz-adv-x="207" 
d="M71 712h65l-10 -258h-45z" />
    <glyph glyph-name="parenleft" unicode="(" horiz-adv-x="274" 
d="M88 61c-22 71 -33 149 -33 236s11 166 33 237s55 140 99 207h57c-41 -73 -72 -145 -91 -215s-29 -146 -29 -229s10 -159 29 -229s50 -142 91 -215h-57c-44 67 -77 137 -99 208z" />
    <glyph glyph-name="parenright" unicode=")" horiz-adv-x="274" 
d="M122 527c-19 70 -50 141 -92 214h58c88 -135 131 -271 131 -444s-43 -309 -131 -444h-58c42 73 73 144 92 214s28 147 28 230s-9 160 -28 230z" />
    <glyph glyph-name="asterisk" unicode="*" horiz-adv-x="398" 
d="M34 564l22 66l125 -56l-16 138h68l-16 -138l125 56l22 -66l-134 -23l91 -98l-56 -43l-66 122l-66 -122l-57 43l91 98z" />
    <glyph glyph-name="plus" unicode="+" horiz-adv-x="566" 
d="M255 288h-181v57h181v181h56v-181h181v-57h-181v-180h-56v180z" />
    <glyph glyph-name="comma" unicode="," horiz-adv-x="210" 
d="M92 0h-30v92h86v-92l-41 -130h-45z" />
    <glyph glyph-name="hyphen" unicode="-" horiz-adv-x="290" 
d="M30 261v62h230v-62h-230z" />
    <glyph glyph-name="period" unicode="." horiz-adv-x="210" 
d="M62 0v92h86v-92h-86z" />
    <glyph glyph-name="slash" unicode="/" horiz-adv-x="442" 
d="M94 -89h-64l297 834h64z" />
    <glyph glyph-name="zero" unicode="0" horiz-adv-x="544" 
d="M272 -13c-75 0 -133 30 -172 90c-40 60 -60 147 -60 260c0 114 20 201 60 261c39 59 97 89 172 89c151 0 231 -122 231 -350c0 -227 -82 -350 -231 -350zM109 337c0 -189 56 -291 163 -291s163 102 163 291s-56 289 -163 289s-163 -100 -163 -289z" />
    <glyph glyph-name="one" unicode="1" horiz-adv-x="544" 
d="M109 562c103 0 145 31 158 112h52v-674h-65v509h-145v53z" />
    <glyph glyph-name="two" unicode="2" horiz-adv-x="544" 
d="M491 59v-59h-442c-1 5 -1 11 -1 19c2 135 30 193 200 296c81 47 119 73 143 113c11 20 17 44 17 73c0 75 -54 125 -137 125c-92 0 -139 -51 -146 -143h-68c3 63 24 113 63 150c39 36 89 54 152 54c121 0 204 -77 204 -185c0 -75 -34 -127 -86 -167
c-27 -21 -62 -44 -107 -70c-139 -83 -166 -126 -168 -206h376z" />
    <glyph glyph-name="three" unicode="3" horiz-adv-x="544" 
d="M489 175c0 -36 -9 -68 -28 -97c-39 -57 -109 -91 -196 -91c-137 0 -219 79 -219 208h68c0 -97 52 -148 151 -148c46 0 84 12 113 36s43 55 43 94c0 88 -62 136 -174 136h-29v59h29c101 0 163 50 163 129c0 76 -60 126 -149 126c-91 0 -143 -49 -143 -144h-67
c0 128 82 204 213 204c65 0 117 -16 156 -49c38 -33 57 -77 57 -132c0 -81 -37 -131 -116 -160v-2c87 -29 128 -82 128 -169z" />
    <glyph glyph-name="four" unicode="4" horiz-adv-x="544" 
d="M22 249l291 425h86v-432h119v-57h-119v-185h-64v185h-313v64zM334 604l-247 -362h249v362h-2z" />
    <glyph glyph-name="five" unicode="5" horiz-adv-x="544" 
d="M488 219c0 -47 -9 -87 -27 -122c-37 -71 -108 -110 -197 -110c-63 0 -113 17 -150 51c-38 34 -57 80 -57 139h67c1 -81 58 -130 139 -130c96 0 157 66 157 170c0 101 -58 164 -150 164c-73 0 -124 -37 -143 -108l-66 5l37 396h360v-59h-303l-21 -233h2
c29 37 82 59 138 59c65 0 117 -20 156 -60s58 -94 58 -162z" />
    <glyph glyph-name="six" unicode="6" horiz-adv-x="544" 
d="M471 334c17 -34 26 -73 26 -117c0 -136 -90 -230 -219 -230c-148 0 -228 109 -228 322c0 245 86 378 238 378c113 0 186 -68 199 -181h-68c-15 79 -59 121 -131 121c-108 0 -172 -94 -176 -282h2c40 61 99 94 172 94c83 0 149 -38 185 -105zM169 335
c-29 -31 -43 -70 -43 -117c0 -52 14 -93 41 -124s64 -47 111 -47c91 0 151 67 151 170c0 49 -14 88 -41 118c-28 30 -64 45 -109 45s-81 -15 -110 -45z" />
    <glyph glyph-name="seven" unicode="7" horiz-adv-x="544" 
d="M43 615v59h448v-60c-111 -160 -201 -367 -252 -614h-74c57 242 142 447 255 615h-377z" />
    <glyph glyph-name="eight" unicode="8" horiz-adv-x="544" 
d="M469 81c-19 -30 -46 -53 -80 -69c-35 -17 -74 -25 -117 -25c-132 0 -225 79 -225 196c0 81 45 137 128 165v2c-73 31 -115 82 -115 153c0 107 90 184 212 184s212 -77 212 -184c0 -71 -43 -122 -116 -153v-2c84 -28 129 -84 129 -165c0 -39 -9 -73 -28 -102zM386 86
c29 25 43 58 43 99c0 39 -15 71 -44 96s-67 37 -113 37s-84 -12 -113 -37s-44 -57 -44 -96c0 -84 62 -137 157 -137c47 0 85 13 114 38zM127 503c0 -38 13 -68 40 -91c26 -23 61 -35 105 -35c88 0 144 50 144 126c0 75 -59 124 -144 124c-87 0 -145 -49 -145 -124z" />
    <glyph glyph-name="nine" unicode="9" horiz-adv-x="544" 
d="M435 606c39 -54 58 -134 58 -241c0 -245 -87 -378 -239 -378c-113 0 -186 68 -199 181h68c15 -79 59 -121 132 -121c108 0 171 94 175 282h-2c-39 -61 -97 -94 -172 -94c-125 0 -211 90 -211 222c0 136 89 230 220 230c74 0 131 -27 170 -81zM156 581
c-28 -31 -42 -73 -42 -124c0 -97 59 -163 150 -163c45 0 81 15 110 46c28 30 42 69 42 116c0 104 -58 171 -151 171c-45 0 -82 -15 -109 -46z" />
    <glyph glyph-name="colon" unicode=":" horiz-adv-x="210" 
d="M62 0v92h86v-92h-86zM62 416v92h86v-92h-86z" />
    <glyph glyph-name="semicolon" unicode=";" horiz-adv-x="210" 
d="M148 92v-92l-41 -130h-45l30 130h-30v92h86zM148 508v-92h-86v92h86z" />
    <glyph glyph-name="less" unicode="&#x3c;" horiz-adv-x="566" 
d="M74 355l418 176v-62l-359 -151v-2l359 -151v-62l-418 176v76z" />
    <glyph glyph-name="equal" unicode="=" horiz-adv-x="566" 
d="M74 268h418v-56h-418v56zM74 421h418v-56h-418v56z" />
    <glyph glyph-name="greater" unicode="&#x3e;" horiz-adv-x="566" 
d="M74 165l359 151v2l-359 151v62l418 -176v-76l-418 -176v62z" />
    <glyph glyph-name="question" unicode="?" horiz-adv-x="501" 
d="M461 547c0 -25 -3 -46 -8 -63c-12 -36 -41 -70 -102 -121c-82 -72 -90 -85 -92 -208h-58v29c2 112 17 139 105 218c76 68 85 87 87 144c0 73 -56 120 -141 120c-93 0 -148 -50 -153 -143h-64c7 131 85 202 217 202c123 0 209 -73 209 -178zM269 0h-78v93h78v-93z" />
    <glyph glyph-name="at" unicode="@" horiz-adv-x="865" 
d="M525 171h-2c-29 -62 -76 -93 -141 -93c-89 0 -144 69 -145 192c0 146 79 248 187 248c59 0 100 -28 121 -84h2c3 25 8 49 13 74h58c-12 -56 -22 -112 -30 -169s-12 -100 -12 -127c0 -54 21 -81 62 -81c67 0 117 67 117 195c0 187 -124 309 -313 309
c-206 2 -333 -158 -331 -360c0 -201 124 -323 316 -323c87 0 160 19 221 57l25 -46c-69 -43 -151 -64 -246 -64c-228 0 -373 142 -373 376c-3 228 150 416 388 413c222 2 373 -147 370 -362c0 -164 -83 -248 -183 -248c-61 0 -95 31 -104 93zM300 270c0 -89 35 -137 98 -137
c72 0 127 71 127 211c0 76 -33 120 -93 120c-76 0 -132 -77 -132 -194z" />
    <glyph glyph-name="A" unicode="A" horiz-adv-x="664" 
d="M76 0h-70l282 712h89l281 -712h-70l-89 230h-334zM188 290h287l-142 369h-2l-12 -31c-35 -91 -69 -179 -102 -264z" />
    <glyph glyph-name="B" unicode="B" horiz-adv-x="615" 
d="M532 304c23 -30 35 -66 35 -108c0 -120 -85 -196 -229 -196h-237v712h221c152 0 230 -69 230 -180c0 -79 -41 -139 -116 -166v-2c40 -10 72 -30 96 -60zM166 335v-278h164c112 0 169 48 169 140c0 88 -58 138 -186 138h-147zM166 655v-263h147c120 0 173 50 173 131
c0 88 -57 132 -170 132h-150z" />
    <glyph glyph-name="C" unicode="C" horiz-adv-x="683" 
d="M590 603c23 -38 35 -81 38 -129h-68c-5 58 -27 104 -64 139c-38 34 -86 51 -145 51c-147 0 -237 -117 -237 -308s90 -308 235 -308c58 0 106 18 145 53s62 82 70 141h68c-16 -154 -121 -255 -283 -255c-186 0 -304 141 -304 369s117 369 306 369c109 0 194 -46 239 -122z
" />
    <glyph glyph-name="D" unicode="D" horiz-adv-x="718" 
d="M309 0h-208v712h208c232 0 364 -128 364 -356s-132 -356 -364 -356zM166 59h143c189 0 295 106 295 297s-106 297 -295 297h-143v-594z" />
    <glyph glyph-name="E" unicode="E" horiz-adv-x="610" 
d="M101 0v712h443v-59h-378v-258h359v-59h-359v-277h390v-59h-455z" />
    <glyph glyph-name="F" unicode="F" horiz-adv-x="568" 
d="M101 712h433v-59h-368v-269h346v-59h-346v-325h-65v712z" />
    <glyph glyph-name="G" unicode="G" horiz-adv-x="724" 
d="M637 372v-372h-61v109h-2c-18 -37 -48 -66 -90 -88s-89 -33 -141 -33c-182 0 -298 139 -298 366c0 228 120 371 315 371c156 0 264 -88 276 -223h-68c-17 103 -92 162 -208 162c-153 0 -246 -119 -246 -310s90 -306 236 -306c67 0 122 21 163 64c41 42 61 109 61 201
h-209v59h272z" />
    <glyph glyph-name="H" unicode="H" horiz-adv-x="731" 
d="M101 712h65v-313h399v313h65v-712h-65v340h-399v-340h-65v712z" />
    <glyph glyph-name="I" unicode="I" horiz-adv-x="267" 
d="M101 0v712h65v-712h-65z" />
    <glyph glyph-name="J" unicode="J" horiz-adv-x="337" 
d="M15 1v60c14 -3 28 -4 41 -4c80 0 120 43 120 138v517h66v-519c0 -131 -66 -197 -185 -197c-16 0 -30 2 -42 5z" />
    <glyph glyph-name="K" unicode="K" horiz-adv-x="607" 
d="M101 0v712h65v-325h2l314 325h88l-331 -340l363 -372h-91l-343 357h-2v-357h-65z" />
    <glyph glyph-name="L" unicode="L" horiz-adv-x="553" 
d="M101 712h65v-653h377v-59h-442v712z" />
    <glyph glyph-name="M" unicode="M" horiz-adv-x="909" 
d="M808 712v-712h-65v365c0 123 0 215 1 276h-2l-250 -641h-76l-249 641h-2c1 -61 1 -153 1 -276v-365h-65v712h105l141 -364l106 -278h2l248 642h105z" />
    <glyph glyph-name="N" unicode="N" horiz-adv-x="745" 
d="M101 0v712h99l290 -495c39 -68 68 -119 88 -152h2c-1 79 -1 198 -1 356v291h65v-712h-99l-290 495c-39 68 -68 119 -88 152h-2l1 -356v-291h-65z" />
    <glyph glyph-name="O" unicode="O" horiz-adv-x="724" 
d="M678 356c0 -224 -123 -369 -316 -369c-192 0 -317 146 -317 369s125 369 317 369c193 0 316 -145 316 -369zM145 519c-21 -47 -31 -101 -31 -163c0 -188 98 -308 248 -308s248 122 248 308s-98 308 -248 308c-100 0 -177 -52 -217 -145z" />
    <glyph glyph-name="P" unicode="P" horiz-adv-x="606" 
d="M101 712h232c156 0 243 -79 243 -207s-87 -208 -243 -208h-167v-297h-65v712zM332 653h-166v-297h166c115 0 176 54 176 149c0 93 -61 148 -176 148z" />
    <glyph glyph-name="Q" unicode="Q" horiz-adv-x="723" 
d="M677 356c0 -113 -32 -209 -89 -274l79 -84l-45 -43l-79 86c-51 -36 -110 -54 -178 -54c-194 0 -320 145 -320 369s126 369 320 369c191 0 312 -145 312 -369zM145 519c-21 -47 -31 -101 -31 -163s10 -116 31 -163c40 -93 119 -145 220 -145c51 0 96 14 133 41l-91 98
l45 42l91 -98c43 55 66 132 66 225c0 186 -96 308 -244 308c-101 0 -180 -53 -220 -145z" />
    <glyph glyph-name="R" unicode="R" horiz-adv-x="627" 
d="M597 0h-71l-68 198c-15 44 -33 74 -54 91s-51 25 -91 25h-147v-314h-65v712h209c164 0 244 -67 244 -190c0 -92 -55 -162 -138 -179v-2c26 -8 46 -21 61 -39c14 -19 29 -50 45 -94zM166 653v-280h148c115 0 173 58 173 146c0 89 -59 134 -178 134h-143z" />
    <glyph glyph-name="S" unicode="S" horiz-adv-x="599" 
d="M514 297c19 -27 29 -62 29 -107c0 -62 -22 -111 -65 -148c-44 -37 -103 -55 -178 -55c-163 0 -255 87 -255 250h65c0 -129 70 -190 190 -190c115 0 177 51 177 142c0 57 -28 89 -79 110c-26 10 -62 21 -109 33c-107 27 -166 49 -202 101c-19 25 -28 60 -28 103
c0 112 84 189 223 189c164 0 248 -79 248 -234h-66c0 117 -61 175 -182 175c-100 0 -157 -49 -157 -129c4 -85 50 -107 180 -139c108 -27 169 -49 209 -101z" />
    <glyph glyph-name="T" unicode="T" horiz-adv-x="592" 
d="M10 712h572v-59h-254v-653h-65v653h-253v59z" />
    <glyph glyph-name="U" unicode="U" horiz-adv-x="699" 
d="M95 712h65v-447c0 -144 69 -217 190 -217c120 0 189 73 189 217v447h65v-448c0 -181 -89 -277 -254 -277s-255 97 -255 277v448z" />
    <glyph glyph-name="V" unicode="V" horiz-adv-x="617" 
d="M7 712h69l232 -649h2l110 312l121 337h69l-257 -712h-88z" />
    <glyph glyph-name="W" unicode="W" horiz-adv-x="896" 
d="M819 712h66l-174 -712h-102l-80 325c-36 145 -63 254 -80 327h-2c-17 -73 -44 -182 -80 -327l-80 -325h-102l-174 712h66l74 -303c19 -77 48 -193 85 -348h2l160 651h100l160 -651h2l84 348z" />
    <glyph glyph-name="X" unicode="X" horiz-adv-x="617" 
d="M10 0l258 367l-244 345h79l204 -292h2l205 292h79l-244 -345l258 -367h-80l-218 313h-2l-218 -313h-79z" />
    <glyph glyph-name="Y" unicode="Y" horiz-adv-x="602" 
d="M5 712h77l218 -345h2c53 85 94 149 121 191l97 154h77l-263 -408v-304h-66v304z" />
    <glyph glyph-name="Z" unicode="Z" horiz-adv-x="558" 
d="M17 0v68l429 583v2h-420v59h495v-68l-429 -583v-2h448v-59h-523z" />
    <glyph glyph-name="bracketleft" unicode="[" horiz-adv-x="281" 
d="M79 741h182v-48h-121v-793h121v-48h-182v889z" />
    <glyph glyph-name="backslash" unicode="\" horiz-adv-x="442" 
d="M348 -89l-297 834h64l297 -834h-64z" />
    <glyph glyph-name="bracketright" unicode="]" horiz-adv-x="281" 
d="M20 741h182v-889h-182v48h121v793h-121v48z" />
    <glyph glyph-name="asciicircum" unicode="^" horiz-adv-x="426" 
d="M13 371l166 341h68l166 -341h-59l-140 290h-2l-140 -290h-59z" />
    <glyph glyph-name="underscore" unicode="_" horiz-adv-x="500" 
d="M0 -88v38h500v-38h-500z" />
    <glyph glyph-name="grave" unicode="`" horiz-adv-x="274" 
d="M165 571l-115 141h84l90 -141h-59z" />
    <glyph glyph-name="a" unicode="a" horiz-adv-x="524" 
d="M446 326v-201c0 -48 4 -90 11 -125h-58c-5 23 -7 48 -7 77h-2c-35 -58 -95 -87 -181 -87c-51 0 -93 14 -124 41c-32 27 -48 62 -48 105c0 87 52 133 193 156c49 8 101 14 156 18v24c0 91 -50 134 -130 134c-83 0 -129 -44 -133 -113h-65c7 99 78 166 198 166
c119 0 190 -66 190 -195zM133 206c-20 -15 -30 -37 -30 -66c0 -30 11 -54 32 -71c21 -18 50 -27 87 -27c47 0 89 16 117 45c18 19 30 37 37 56c7 18 10 43 10 76v39c-43 -3 -93 -9 -148 -18c-50 -7 -85 -19 -105 -34z" />
    <glyph glyph-name="b" unicode="b" horiz-adv-x="565" 
d="M521 255c0 -53 -9 -100 -26 -140c-35 -81 -101 -126 -188 -126c-72 0 -133 35 -160 88h-2v-77h-62v712h62v-279h2c27 53 88 88 160 88c131 0 214 -104 214 -266zM142 255c0 -65 14 -116 42 -155s66 -59 113 -59c97 0 159 83 159 214s-62 214 -159 214
c-47 0 -85 -19 -113 -58s-42 -91 -42 -156z" />
    <glyph glyph-name="c" unicode="c" horiz-adv-x="521" 
d="M480 181c-3 -37 -14 -70 -31 -99c-36 -59 -98 -95 -175 -95c-71 0 -127 24 -168 72c-41 47 -62 112 -62 195s21 148 62 196c41 47 97 71 168 71c57 0 105 -17 143 -52c37 -35 58 -80 63 -136h-65c-7 79 -64 134 -141 134c-101 0 -163 -81 -163 -213
c0 -133 62 -213 163 -213c38 0 70 14 97 41c26 27 41 60 44 99h65z" />
    <glyph glyph-name="d" unicode="d" horiz-adv-x="565" 
d="M482 712v-712h-62v77h-2c-27 -53 -88 -88 -160 -88c-131 0 -214 104 -214 266s83 266 214 266c72 0 133 -35 160 -88h2v279h62zM152 411c-29 -39 -43 -91 -43 -156c0 -131 62 -214 159 -214c47 0 85 20 113 59s42 90 42 155s-14 117 -42 156s-66 58 -113 58
c-49 0 -87 -19 -116 -58z" />
    <glyph glyph-name="e" unicode="e" horiz-adv-x="539" 
d="M487 340c5 -24 8 -57 8 -98h-388c3 -131 72 -202 169 -202c81 0 135 44 151 111h64c-9 -47 -31 -86 -68 -117s-86 -47 -147 -47c-72 0 -129 25 -170 75c-41 49 -62 116 -62 201c0 150 87 258 228 258c113 0 192 -68 215 -181zM108 293h327c-7 111 -70 175 -163 175
s-159 -67 -164 -175z" />
    <glyph glyph-name="f" unicode="f" horiz-adv-x="287" 
d="M168 0h-62v456h-91v52h91v71c0 91 42 137 125 137c13 0 27 -1 42 -4v-53c-9 3 -20 4 -32 4c-49 0 -73 -26 -73 -90v-65h103v-52h-103v-456z" />
    <glyph glyph-name="g" unicode="g" horiz-adv-x="565" 
d="M482 31c0 -73 -18 -129 -54 -167c-36 -37 -89 -56 -159 -56c-127 0 -203 60 -204 160h63c1 -68 56 -108 141 -108c103 0 151 55 151 174v60h-2c-35 -57 -91 -89 -156 -89c-132 0 -218 103 -218 258s86 258 218 258c67 0 123 -32 156 -89h2v76h62v-477zM151 412
c-28 -37 -42 -87 -42 -149s14 -112 42 -149s66 -56 113 -56c99 0 159 78 159 205s-60 205 -159 205c-47 0 -85 -19 -113 -56z" />
    <glyph glyph-name="h" unicode="h" 
d="M485 309v-309h-62v306c0 115 -45 159 -130 159c-81 0 -148 -59 -148 -164v-301h-62v712h62v-272h2c33 52 93 79 157 79c117 0 181 -71 181 -210z" />
    <glyph glyph-name="i" unicode="i" horiz-adv-x="228" 
d="M83 0v508h62v-508h-62zM83 624v88h62v-88h-62z" />
    <glyph glyph-name="j" unicode="j" horiz-adv-x="235" 
d="M-17 -185v54c11 -2 21 -3 30 -3c51 0 77 27 77 98v544h62v-545c0 -101 -44 -152 -133 -152c-13 0 -25 1 -36 4zM152 712v-88h-62v88h62z" />
    <glyph glyph-name="k" unicode="k" horiz-adv-x="479" 
d="M145 0h-62v712h62v-417h2l226 213h84l-246 -228l275 -280h-86l-253 262h-2v-262z" />
    <glyph glyph-name="l" unicode="l" horiz-adv-x="228" 
d="M83 0v712h62v-712h-62z" />
    <glyph glyph-name="m" unicode="m" horiz-adv-x="845" 
d="M767 315v-315h-62v311c0 112 -38 154 -114 154c-81 0 -135 -65 -135 -164v-301h-62v327c0 87 -42 138 -114 138c-81 0 -135 -68 -135 -172v-293h-62v508h62v-66h2c37 51 84 77 142 77c69 0 126 -37 151 -101c32 65 88 101 161 101c108 0 166 -69 166 -204z" />
    <glyph glyph-name="n" unicode="n" 
d="M485 309v-309h-62v306c0 115 -45 159 -130 159c-81 0 -148 -59 -148 -164v-301h-62v508h61v-69h2c32 49 90 80 158 80c117 0 181 -71 181 -210z" />
    <glyph glyph-name="o" unicode="o" horiz-adv-x="552" 
d="M276 -13c-72 0 -129 24 -170 72c-41 47 -62 112 -62 195s21 148 62 196c41 47 98 71 170 71s129 -24 170 -71c41 -48 62 -113 62 -196s-21 -148 -62 -195c-41 -48 -98 -72 -170 -72zM154 410c-30 -38 -45 -90 -45 -156c0 -132 63 -213 167 -213c105 0 168 81 168 213
s-63 213 -168 213c-52 0 -93 -19 -122 -57z" />
    <glyph glyph-name="p" unicode="p" horiz-adv-x="565" 
d="M521 255c0 -162 -83 -266 -214 -266c-72 0 -133 35 -160 88h-2v-262h-62v693h62v-75h2c27 53 88 88 160 88c131 0 214 -104 214 -266zM142 255c0 -65 14 -116 42 -155s66 -59 113 -59c97 0 159 83 159 214s-62 214 -159 214c-47 0 -85 -19 -113 -58s-42 -91 -42 -156z
" />
    <glyph glyph-name="q" unicode="q" horiz-adv-x="565" 
d="M482 508v-693h-62v262h-2c-27 -53 -88 -88 -160 -88c-131 0 -214 104 -214 266s83 266 214 266c72 0 133 -35 160 -88h2v75h62zM152 411c-29 -39 -43 -91 -43 -156c0 -131 62 -214 159 -214c47 0 85 20 113 59s42 90 42 155s-14 117 -42 156s-66 58 -113 58
c-49 0 -87 -19 -116 -58z" />
    <glyph glyph-name="r" unicode="r" horiz-adv-x="347" 
d="M83 0v508h61v-80h2c33 55 88 84 155 84c13 0 24 -1 34 -3v-59c-11 1 -21 2 -32 2c-101 0 -158 -67 -158 -184v-268h-62z" />
    <glyph glyph-name="s" unicode="s" horiz-adv-x="479" 
d="M410 220c17 -21 26 -49 26 -85c0 -44 -17 -80 -52 -107s-81 -41 -138 -41c-128 0 -204 67 -205 184h63c0 -83 51 -130 142 -130c76 0 128 37 128 90c0 44 -20 66 -59 79c-19 7 -50 15 -92 25c-39 9 -70 18 -91 26c-22 8 -41 21 -56 40s-23 44 -23 77c0 43 17 77 50 104
c33 26 75 39 127 39c120 0 190 -63 191 -174h-62c0 76 -48 120 -129 120c-69 0 -115 -33 -115 -84c0 -40 18 -59 50 -70c15 -5 41 -12 78 -21c44 -10 78 -19 103 -28s46 -24 64 -44z" />
    <glyph glyph-name="t" unicode="t" horiz-adv-x="302" 
d="M273 55v-53c-15 -3 -30 -5 -46 -5c-88 0 -124 40 -124 137v322h-91v52h91v118h62v-118h103v-52h-103v-321c0 -60 20 -84 73 -84c13 0 24 1 35 4z" />
    <glyph glyph-name="u" unicode="u" 
d="M480 508v-508h-61v69h-2c-31 -49 -89 -80 -158 -80c-117 0 -181 71 -181 210v309h62v-306c0 -115 45 -159 130 -159c81 0 148 59 148 164v301h62z" />
    <glyph glyph-name="v" unicode="v" horiz-adv-x="450" 
d="M-5 508h67l162 -448h2l162 448h67l-190 -508h-80z" />
    <glyph glyph-name="w" unicode="w" horiz-adv-x="750" 
d="M678 508h64l-147 -508h-89l-66 230c-27 92 -48 166 -64 222h-2c-16 -56 -37 -130 -64 -222l-66 -230h-89l-147 508h64l122 -432c1 -3 2 -10 5 -20h2l127 452h94l127 -452h2c3 10 4 17 5 20z" />
    <glyph glyph-name="x" unicode="x" horiz-adv-x="467" 
d="M0 0l196 266l-178 242h76l138 -198h2l139 198h75l-178 -242l197 -266h-77l-156 219h-2l-156 -219h-76z" />
    <glyph glyph-name="y" unicode="y" horiz-adv-x="456" 
d="M55 -189c-15 0 -27 1 -37 4v55c10 -3 22 -4 36 -4c78 3 96 20 141 134l-200 508h67l165 -429h2l165 429h67l-210 -532c-56 -134 -93 -162 -196 -165z" />
    <glyph glyph-name="z" unicode="z" horiz-adv-x="461" 
d="M25 0v58l324 394v2h-314v54h391v-58l-324 -394v-2h334v-54h-411z" />
    <glyph glyph-name="braceleft" unicode="{" horiz-adv-x="283" 
d="M259 741v-44c-67 -1 -92 -30 -92 -106v-173c0 -68 -20 -100 -79 -120v-3c59 -20 79 -52 79 -120v-173c0 -76 25 -105 92 -106v-44h-22c-89 0 -130 47 -130 154v167c0 60 -18 85 -67 100v47c49 15 67 40 67 100v167c0 107 41 154 130 154h22z" />
    <glyph glyph-name="bar" unicode="|" horiz-adv-x="262" 
d="M102 -205v937h58v-937h-58z" />
    <glyph glyph-name="braceright" unicode="}" horiz-adv-x="283" 
d="M243 320v-47c-51 -15 -67 -40 -67 -100v-167c0 -107 -42 -154 -131 -154h-22v44c67 1 92 30 92 106v173c0 68 20 100 79 120v3c-59 20 -79 52 -79 120v173c0 76 -25 105 -92 106v44h22c89 0 131 -47 131 -154v-167c0 -60 16 -85 67 -100z" />
    <glyph glyph-name="asciitilde" unicode="~" horiz-adv-x="578" 
d="M553 394c0 -49 -13 -89 -39 -120s-60 -46 -101 -46c-53 0 -87 22 -140 66c-48 39 -72 55 -109 55c-55 0 -90 -44 -90 -109h-49c0 49 13 89 39 120c26 30 60 45 102 45c52 0 84 -21 139 -65c45 -37 72 -55 109 -55c55 0 90 44 90 109h49z" />
    <glyph glyph-name="uni00A0" unicode="&#xa0;" horiz-adv-x="230" 
 />
    <glyph glyph-name="exclamdown" unicode="&#xa1;" horiz-adv-x="251" 
d="M84 -204l16 548h51l16 -548h-83zM86 415v93h79v-93h-79z" />
    <glyph glyph-name="cent" unicode="&#xa2;" horiz-adv-x="544" 
d="M490 261c-4 -51 -22 -95 -54 -130c-33 -35 -74 -56 -124 -62v-92h-54v91c-128 12 -204 110 -204 266s76 254 204 266v87h54v-88c50 -5 91 -25 124 -59c32 -34 50 -76 54 -127h-65c-5 68 -50 120 -113 131v-420c63 13 107 70 112 137h66zM120 334c0 -60 12 -108 37 -145
c24 -37 58 -59 101 -66v422c-87 -13 -138 -91 -138 -211z" />
    <glyph glyph-name="sterling" unicode="&#xa3;" horiz-adv-x="544" 
d="M496 56v-56h-472v56c67 0 100 45 100 136v109h-100v56h100v122c0 136 69 208 190 208c116 0 186 -75 186 -200h-62c0 91 -47 140 -124 140c-83 0 -127 -52 -127 -148v-122h127v-56h-127v-109c0 -69 -13 -107 -48 -134v-2h357z" />
    <glyph glyph-name="currency" unicode="&#xa4;" horiz-adv-x="544" 
d="M517 72l-45 -43l-77 83c-35 -24 -76 -36 -123 -36s-88 12 -123 36l-78 -83l-44 43l78 83c-27 38 -41 83 -41 136s14 98 41 136l-78 83l44 43l78 -83c35 24 76 36 123 36s88 -12 123 -36l77 83l45 -43l-79 -82c28 -37 42 -83 42 -137s-14 -100 -42 -137zM165 405
c-27 -29 -40 -67 -40 -114c0 -95 58 -156 147 -156s146 61 146 156s-57 156 -146 156c-45 0 -80 -14 -107 -42z" />
    <glyph glyph-name="yen" unicode="&#xa5;" horiz-adv-x="544" 
d="M483 367v-53h-179v-65h179v-53h-179v-196h-65v196h-179v53h179v65h-179v53h145l-198 307h77l187 -298h2l187 298h76l-198 -307h145z" />
    <glyph glyph-name="brokenbar" unicode="&#xa6;" horiz-adv-x="262" 
d="M102 145h58v-350h-58v350zM102 732h58v-350h-58v350z" />
    <glyph glyph-name="section" unicode="&#xa7;" horiz-adv-x="545" 
d="M298 456c149 -71 179 -96 183 -189c0 -63 -28 -111 -84 -144v-2c33 -27 50 -65 50 -113c0 -97 -68 -155 -179 -155c-119 0 -184 59 -185 175h63c1 -80 38 -120 122 -120c73 0 114 37 114 100c0 44 -17 67 -55 91c-19 11 -51 27 -94 48c-132 65 -164 90 -169 185
c0 59 28 108 80 140v2c-35 28 -49 61 -49 106c0 43 16 78 47 105s71 40 121 40c109 0 171 -59 172 -164h-63c-1 73 -37 109 -109 109c-64 0 -103 -34 -103 -90c0 -40 15 -60 48 -79c16 -9 46 -24 90 -45zM355 150c21 14 37 30 49 49c11 19 17 39 17 61c0 58 -26 87 -138 137
c-31 13 -64 29 -97 48c-43 -33 -62 -66 -62 -106c0 -28 10 -52 30 -72c19 -21 56 -43 109 -68c34 -15 65 -31 92 -49z" />
    <glyph glyph-name="dieresis" unicode="&#xa8;" horiz-adv-x="345" 
d="M234 712h61v-88h-61v88zM50 624v88h61v-88h-61z" />
    <glyph glyph-name="copyright" unicode="&#xa9;" horiz-adv-x="814" 
d="M595 677c54 -31 96 -74 126 -129c29 -55 44 -119 44 -192s-15 -137 -44 -192c-60 -111 -173 -175 -314 -175c-211 -2 -360 150 -358 367c-2 217 147 369 358 367c71 0 133 -15 188 -46zM684 526c-53 97 -152 154 -277 154c-189 0 -316 -130 -316 -324s127 -324 316 -324
c125 0 224 56 277 155c26 49 39 105 39 169s-13 121 -39 170zM598 280c-5 -53 -25 -95 -58 -126c-34 -31 -78 -47 -133 -47c-63 0 -113 22 -150 67c-37 44 -55 105 -55 182s19 137 56 182s87 67 150 67c56 0 101 -16 134 -47c33 -32 50 -73 53 -122h-63
c-7 68 -53 111 -124 111c-88 0 -141 -72 -141 -191s53 -191 140 -191c69 0 118 44 127 115h64z" />
    <glyph glyph-name="ordfeminine" unicode="&#xaa;" horiz-adv-x="383" 
d="M328 557v-136c0 -35 3 -66 9 -91h-49c-3 19 -5 36 -5 53h-2c-25 -40 -68 -60 -129 -60c-76 0 -126 43 -126 104s39 95 143 111c41 6 77 10 107 12v14c0 60 -34 87 -89 87c-56 0 -87 -28 -90 -72h-56c4 68 58 116 146 116c89 0 141 -46 141 -138zM104 472
c-14 -9 -21 -23 -21 -42c0 -39 29 -63 80 -63c32 0 63 11 80 28c25 25 33 44 33 88v23c-30 -2 -63 -6 -100 -12c-35 -5 -59 -13 -72 -22z" />
    <glyph glyph-name="guillemotleft" unicode="&#xab;" horiz-adv-x="430" 
d="M317 454h62l-112 -200l112 -200h-62l-114 200zM50 254l114 200h62l-112 -200l112 -200h-62z" />
    <glyph glyph-name="logicalnot" unicode="&#xac;" horiz-adv-x="566" 
d="M74 393v57h418v-306h-56v249h-362z" />
    <glyph glyph-name="uni00AD" unicode="&#xad;" horiz-adv-x="290" 
d="M260 323v-62h-230v62h230z" />
    <glyph glyph-name="registered" unicode="&#xae;" horiz-adv-x="584" 
d="M421 693c37 -21 66 -51 87 -89c21 -39 31 -83 31 -133c0 -150 -100 -254 -247 -254s-247 104 -247 254s100 254 247 254c49 0 92 -11 129 -32zM480 588c-18 33 -43 59 -75 78c-33 18 -70 27 -113 27c-128 0 -215 -89 -215 -222s87 -222 215 -222c43 0 80 9 113 28
c64 36 102 106 102 194c0 44 -9 83 -27 117zM388 494c-11 -15 -24 -25 -41 -28v-2c10 -3 18 -7 25 -14c6 -7 12 -19 17 -35l34 -100h-52l-27 85c-9 33 -27 46 -60 46h-53v-131h-47v320h112c69 0 107 -33 107 -92c0 -18 -5 -34 -15 -49zM231 488h53c47 0 70 18 70 55
c0 33 -22 50 -66 50h-57v-105z" />
    <glyph glyph-name="macron" unicode="&#xaf;" horiz-adv-x="363" 
d="M50 624v52h263v-52h-263z" />
    <glyph glyph-name="degree" unicode="&#xb0;" horiz-adv-x="309" 
d="M154 496c-31 0 -57 11 -79 33s-33 49 -33 80s11 58 33 80s48 33 79 33s58 -11 80 -33s33 -49 33 -80s-11 -58 -33 -80s-49 -33 -80 -33zM107 657c-13 -13 -20 -29 -20 -48c0 -37 30 -67 67 -67s69 30 69 67s-32 68 -69 68c-19 0 -34 -7 -47 -20z" />
    <glyph glyph-name="plusminus" unicode="&#xb1;" horiz-adv-x="566" 
d="M74 310v56h181v180h56v-180h181v-56h-181v-180h-56v180h-181zM74 0v56h418v-56h-418z" />
    <glyph glyph-name="uni00B2" unicode="&#xb2;" horiz-adv-x="402" 
d="M365 380v-50h-324c-1 3 -2 8 -2 15c2 96 22 139 145 210c41 23 69 42 86 59c16 17 24 39 24 66c0 48 -35 80 -91 80c-61 0 -94 -31 -98 -94h-59c4 91 66 146 158 146c89 0 150 -53 150 -132c-3 -82 -50 -116 -139 -168c-46 -26 -77 -48 -93 -67c-17 -19 -25 -41 -25 -65
h268z" />
    <glyph glyph-name="uni00B3" unicode="&#xb3;" horiz-adv-x="396" 
d="M336 526c14 -19 21 -43 21 -73c0 -39 -15 -70 -46 -95s-70 -38 -117 -38c-101 0 -162 57 -162 149h58c0 -65 35 -98 104 -98c61 0 104 33 104 84c0 57 -41 89 -120 89h-18v50h18c69 0 113 32 113 85c0 49 -39 81 -100 81c-65 0 -97 -32 -97 -95h-58c0 92 61 147 157 147
s156 -52 156 -129c0 -55 -25 -88 -81 -111v-2c31 -11 54 -26 68 -44z" />
    <glyph glyph-name="acute" unicode="&#xb4;" horiz-adv-x="274" 
d="M109 571h-59l90 141h84z" />
    <glyph glyph-name="uni00B5" unicode="&#xb5;" horiz-adv-x="568" 
d="M553 53v-51c-13 -5 -29 -7 -47 -7c-53 0 -79 23 -84 82h-2c-27 -52 -85 -85 -153 -85c-57 0 -98 18 -122 53v-230h-62v693h62v-303c0 -115 43 -160 127 -160c80 0 147 61 147 165v298h62v-375c0 -65 12 -84 48 -84c9 0 17 1 24 4z" />
    <glyph glyph-name="paragraph" unicode="&#xb6;" horiz-adv-x="555" 
d="M91 370c-34 36 -51 84 -51 144c0 61 17 109 51 145c34 35 80 53 137 53h305v-45h-80v-787h-48v787h-89v-787h-48v436h-40c-57 0 -103 18 -137 54z" />
    <glyph glyph-name="periodcentered" unicode="&#xb7;" horiz-adv-x="210" 
d="M62 260v91h86v-91h-86z" />
    <glyph glyph-name="cedilla" unicode="&#xb8;" horiz-adv-x="305" 
d="M100 -79l53 79h43l-42 -63c7 1 14 2 23 2c44 0 78 -28 78 -72c0 -48 -37 -85 -105 -85c-35 0 -69 9 -100 27l15 32c25 -13 51 -20 78 -20c39 0 60 16 60 44c0 27 -21 43 -56 43c-11 0 -21 -2 -31 -5z" />
    <glyph glyph-name="uni00B9" unicode="&#xb9;" horiz-adv-x="248" 
d="M11 723c75 0 107 22 116 79h45v-472h-56v348h-105v45z" />
    <glyph glyph-name="ordmasculine" unicode="&#xba;" horiz-adv-x="405" 
d="M203 320c-53 0 -94 17 -125 51c-31 33 -47 79 -47 137s16 104 47 137s72 50 125 50c107 0 171 -71 171 -187c0 -117 -64 -188 -171 -188zM89 508c0 -87 43 -141 114 -141c72 0 115 54 115 141s-43 141 -115 141c-71 0 -114 -54 -114 -141z" />
    <glyph glyph-name="guillemotright" unicode="&#xbb;" horiz-adv-x="430" 
d="M266 54h-63l113 200l-113 200h63l114 -200zM162 254l-112 200h62l114 -200l-114 -200h-62z" />
    <glyph glyph-name="onequarter" unicode="&#xbc;" horiz-adv-x="681" 
d="M672 103h-67v-103h-56v103h-193v55l174 246h75v-251h67v-50zM65 0l392 674h65l-392 -674h-65zM9 561v46c64 0 93 19 101 67h45v-404h-56v291h-90zM550 153v190h-2l-135 -190h137z" />
    <glyph glyph-name="onehalf" unicode="&#xbd;" horiz-adv-x="717" 
d="M645 218c-21 -22 -50 -44 -89 -65c-75 -41 -97 -67 -97 -103h227v-50h-284c-1 3 -1 7 -1 14c0 82 19 123 126 183c33 19 57 35 71 49c13 13 20 31 20 54c0 36 -29 61 -74 61c-49 0 -76 -25 -79 -75h-57c3 79 58 127 137 127s131 -46 131 -114c0 -32 -10 -59 -31 -81z
M457 674h65l-392 -674h-65zM81 623c15 10 25 27 29 51h45v-404h-56v291h-90v46c32 0 56 5 72 16z" />
    <glyph glyph-name="threequarters" unicode="&#xbe;" horiz-adv-x="808" 
d="M482 158l174 246h75v-251h67v-50h-67v-103h-56v103h-193v55zM312 376c0 -68 -58 -115 -142 -115c-89 0 -143 48 -143 131h57c0 -55 29 -79 86 -79c51 0 84 25 84 65c0 47 -36 72 -101 72h-13v50h13c57 0 94 27 94 68c0 39 -29 63 -78 63c-53 0 -81 -24 -81 -76h-57
c0 80 54 128 139 128c84 0 135 -43 135 -111c0 -45 -18 -73 -66 -94v-2c52 -21 73 -51 73 -100zM648 674l-392 -674h-65l392 674h65zM539 153h137v190h-2z" />
    <glyph glyph-name="questiondown" unicode="&#xbf;" horiz-adv-x="466" 
d="M466 -15c-8 -131 -85 -202 -217 -202c-123 0 -209 73 -209 178c0 73 18 108 110 184c82 72 90 85 92 208h58v-29c-2 -112 -17 -139 -105 -218c-76 -68 -85 -87 -87 -144c0 -73 56 -120 141 -120c93 0 148 50 153 143h64zM310 415h-79v93h79v-93z" />
    <glyph glyph-name="Agrave" unicode="&#xc0;" horiz-adv-x="664" 
d="M588 0l-89 230h-334l-89 -230h-70l282 712h89l281 -712h-70zM188 290h287l-142 369h-2l-12 -31c-35 -91 -69 -179 -102 -264zM216 895h84l90 -135h-59z" />
    <glyph glyph-name="Aacute" unicode="&#xc1;" horiz-adv-x="664" 
d="M588 0l-89 230h-334l-89 -230h-70l282 712h89l281 -712h-70zM188 290h287l-142 369h-2l-12 -31c-35 -91 -69 -179 -102 -264zM364 895h84l-115 -135h-59z" />
    <glyph glyph-name="Acircumflex" unicode="&#xc2;" horiz-adv-x="664" 
d="M588 0l-89 230h-334l-89 -230h-70l282 712h89l281 -712h-70zM475 290l-142 369h-2l-12 -31c-35 -91 -69 -179 -102 -264l-29 -74h287zM183 760l114 135h71l114 -135h-69l-81 95l-80 -95h-69z" />
    <glyph glyph-name="Atilde" unicode="&#xc3;" horiz-adv-x="664" 
d="M499 230h-334l-89 -230h-70l282 712h89l281 -712h-70zM475 290l-142 369h-2l-12 -31c-35 -91 -69 -179 -102 -264l-29 -74h287zM196 858c16 18 38 27 65 27c28 0 47 -9 82 -29c25 -16 41 -24 60 -24c27 0 43 18 46 53h48c-4 -68 -38 -105 -93 -105c-28 0 -50 11 -81 30
c-29 17 -44 24 -61 24c-27 0 -43 -19 -46 -54h-48c2 34 11 60 28 78z" />
    <glyph glyph-name="Adieresis" unicode="&#xc4;" horiz-adv-x="664" 
d="M588 0l-89 230h-334l-89 -230h-70l282 712h89l281 -712h-70zM188 290h287l-142 369h-2l-12 -31c-35 -91 -69 -179 -102 -264zM393 778v88h61v-88h-61zM270 866v-88h-61v88h61z" />
    <glyph glyph-name="Aring" unicode="&#xc5;" horiz-adv-x="664" 
d="M588 0l-89 230h-334l-89 -230h-70l282 712h89l281 -712h-70zM475 290l-142 369h-2l-12 -31c-35 -91 -69 -179 -102 -264l-29 -74h287zM235 850c0 27 10 49 29 68s41 28 68 28c53 0 96 -43 96 -96c0 -27 -9 -49 -28 -68s-41 -29 -68 -29s-49 10 -68 29s-29 41 -29 68z
M272 850c0 -33 27 -60 60 -60s59 27 59 60c0 32 -26 59 -59 59s-60 -27 -60 -59z" />
    <glyph glyph-name="AE" unicode="&#xc6;" horiz-adv-x="924" 
d="M869 59v-59h-359l-37 247h-281l-124 -247h-74l357 712h506v-59h-380l39 -258h322v-59h-313l42 -277h302zM221 306h243l-52 347h-17z" />
    <glyph glyph-name="Ccedilla" unicode="&#xc7;" horiz-adv-x="683" 
d="M494 101c39 35 62 82 70 141h68c-7 -72 -33 -131 -78 -176c-45 -46 -103 -72 -175 -78l-34 -51c7 1 14 2 23 2c44 0 78 -28 78 -72c0 -48 -37 -85 -105 -85c-35 0 -69 9 -100 27l15 32c25 -13 51 -20 78 -20c39 0 60 16 60 44c0 27 -21 43 -56 43c-11 0 -21 -2 -31 -5
l-16 18l44 66c-179 6 -290 147 -290 369c0 228 117 369 306 369c166 0 269 -107 277 -251h-68c-5 58 -27 104 -64 139c-38 34 -86 51 -145 51c-147 0 -237 -117 -237 -308s90 -308 235 -308c58 0 106 18 145 53z" />
    <glyph glyph-name="Egrave" unicode="&#xc8;" horiz-adv-x="610" 
d="M101 712h443v-59h-378v-258h359v-59h-359v-277h390v-59h-455v712zM290 895l90 -135h-59l-115 135h84z" />
    <glyph glyph-name="Eacute" unicode="&#xc9;" horiz-adv-x="610" 
d="M101 712h443v-59h-378v-258h359v-59h-359v-277h390v-59h-455v712zM355 895h84l-115 -135h-59z" />
    <glyph glyph-name="Ecircumflex" unicode="&#xca;" horiz-adv-x="610" 
d="M556 0h-455v712h443v-59h-378v-258h359v-59h-359v-277h390v-59zM173 760l114 135h71l114 -135h-69l-81 95l-80 -95h-69z" />
    <glyph glyph-name="Edieresis" unicode="&#xcb;" horiz-adv-x="610" 
d="M556 0h-455v712h443v-59h-378v-258h359v-59h-359v-277h390v-59zM383 778v88h61v-88h-61zM199 778v88h61v-88h-61z" />
    <glyph glyph-name="Igrave" unicode="&#xcc;" horiz-adv-x="267" 
d="M101 0v712h65v-712h-65zM17 895h84l90 -135h-59z" />
    <glyph glyph-name="Iacute" unicode="&#xcd;" horiz-adv-x="267" 
d="M166 712v-712h-65v712h65zM76 760l90 135h84l-115 -135h-59z" />
    <glyph glyph-name="Icircumflex" unicode="&#xce;" horiz-adv-x="267" 
d="M101 712h65v-712h-65v712zM-16 760l114 135h71l114 -135h-69l-81 95l-80 -95h-69z" />
    <glyph glyph-name="Idieresis" unicode="&#xcf;" horiz-adv-x="267" 
d="M166 712v-712h-65v712h65zM194 866h61v-88h-61v88zM71 866v-88h-61v88h61z" />
    <glyph glyph-name="Eth" unicode="&#xd0;" horiz-adv-x="718" 
d="M578 620c63 -62 95 -150 95 -264c0 -228 -132 -356 -364 -356h-208v333h-66v55h66v324h208c116 0 206 -31 269 -92zM166 653v-265h220v-55h-220v-274h143c189 0 295 106 295 297s-106 297 -295 297h-143z" />
    <glyph glyph-name="Ntilde" unicode="&#xd1;" horiz-adv-x="745" 
d="M580 65c-1 79 -1 198 -1 356v291h65v-712h-99l-290 495c-39 68 -68 119 -88 152h-2l1 -356v-291h-65v712h99l290 -495c39 -68 68 -119 88 -152h2zM236 858c16 18 38 27 65 27c28 0 47 -9 82 -29c25 -16 41 -24 60 -24c27 0 43 18 46 53h48c-4 -68 -38 -105 -93 -105
c-28 0 -50 11 -81 30c-29 17 -44 24 -61 24c-27 0 -43 -19 -46 -54h-48c2 34 11 60 28 78z" />
    <glyph glyph-name="Ograve" unicode="&#xd2;" horiz-adv-x="724" 
d="M678 356c0 -224 -123 -369 -316 -369c-192 0 -317 146 -317 369s125 369 317 369c193 0 316 -145 316 -369zM145 193c40 -93 117 -145 217 -145c150 0 248 122 248 308s-98 308 -248 308s-248 -120 -248 -308c0 -62 10 -116 31 -163zM330 895l90 -135h-59l-115 135h84z
" />
    <glyph glyph-name="Oacute" unicode="&#xd3;" horiz-adv-x="724" 
d="M640 161c-52 -111 -150 -174 -278 -174c-192 0 -317 146 -317 369s125 369 317 369c193 0 316 -145 316 -369c0 -75 -13 -140 -38 -195zM145 193c40 -93 117 -145 217 -145c150 0 248 122 248 308s-98 308 -248 308s-248 -120 -248 -308c0 -62 10 -116 31 -163zM394 895
h84l-115 -135h-59z" />
    <glyph glyph-name="Ocircumflex" unicode="&#xd4;" horiz-adv-x="724" 
d="M678 356c0 -224 -123 -369 -316 -369c-192 0 -317 146 -317 369s125 369 317 369c193 0 316 -145 316 -369zM114 356c0 -188 98 -308 248 -308s248 122 248 308s-98 308 -248 308s-248 -120 -248 -308zM326 895h71l114 -135h-69l-81 95l-80 -95h-69z" />
    <glyph glyph-name="Otilde" unicode="&#xd5;" horiz-adv-x="724" 
d="M640 551c25 -55 38 -120 38 -195c0 -224 -123 -369 -316 -369c-192 0 -317 146 -317 369s125 369 317 369c128 0 226 -63 278 -174zM493 626c-37 25 -81 38 -131 38c-150 0 -248 -120 -248 -308s98 -308 248 -308s248 122 248 308c0 124 -42 219 -117 270zM526 885
c-4 -68 -38 -105 -93 -105c-28 0 -50 11 -81 30c-29 17 -44 24 -61 24c-27 0 -43 -19 -46 -54h-48c4 68 38 105 93 105c28 0 47 -9 82 -29c25 -16 41 -24 60 -24c27 0 43 18 46 53h48z" />
    <glyph glyph-name="Odieresis" unicode="&#xd6;" horiz-adv-x="724" 
d="M640 161c-52 -111 -150 -174 -278 -174c-192 0 -317 146 -317 369s125 369 317 369c193 0 316 -145 316 -369c0 -75 -13 -140 -38 -195zM114 356c0 -188 98 -308 248 -308s248 122 248 308s-98 308 -248 308s-248 -120 -248 -308zM484 866v-88h-61v88h61zM239 778v88h61
v-88h-61z" />
    <glyph glyph-name="multiply" unicode="&#xd7;" horiz-adv-x="566" 
d="M87 71l-39 39l197 196l-197 196l39 39l196 -196l196 196l39 -39l-197 -196l197 -196l-39 -39l-196 197z" />
    <glyph glyph-name="Oslash" unicode="&#xd8;" horiz-adv-x="724" 
d="M657 505c14 -45 21 -95 21 -149c0 -224 -123 -369 -316 -369c-77 0 -142 22 -195 65l-60 -80l-45 35l65 85c-53 64 -82 156 -82 264c0 223 125 369 317 369c77 0 141 -22 194 -65l61 80l45 -34l-65 -86c26 -32 46 -70 60 -115zM144 519c-21 -47 -31 -101 -31 -163
c0 -85 19 -154 56 -208l348 460c-43 37 -94 56 -155 56c-100 0 -178 -53 -218 -145zM207 104c43 -37 94 -56 155 -56c150 0 248 120 248 308c0 86 -18 155 -55 208z" />
    <glyph glyph-name="Ugrave" unicode="&#xd9;" horiz-adv-x="699" 
d="M604 264c0 -181 -89 -277 -254 -277s-255 97 -255 277v448h65v-447c0 -144 69 -217 190 -217c120 0 189 73 189 217v447h65v-448zM317 895l90 -135h-59l-115 135h84z" />
    <glyph glyph-name="Uacute" unicode="&#xda;" horiz-adv-x="699" 
d="M604 264c0 -181 -89 -277 -254 -277s-255 97 -255 277v448h65v-447c0 -144 69 -217 190 -217c120 0 189 73 189 217v447h65v-448zM382 895h84l-115 -135h-59z" />
    <glyph glyph-name="Ucircumflex" unicode="&#xdb;" horiz-adv-x="699" 
d="M604 264c0 -181 -89 -277 -254 -277s-255 97 -255 277v448h65v-447c0 -144 69 -217 190 -217c120 0 189 73 189 217v447h65v-448zM314 895h71l114 -135h-69l-81 95l-80 -95h-69z" />
    <glyph glyph-name="Udieresis" unicode="&#xdc;" horiz-adv-x="699" 
d="M604 264c0 -181 -89 -277 -254 -277s-255 97 -255 277v448h65v-447c0 -144 69 -217 190 -217c120 0 189 73 189 217v447h65v-448zM411 778v88h61v-88h-61zM227 778v88h61v-88h-61z" />
    <glyph glyph-name="Yacute" unicode="&#xdd;" horiz-adv-x="602" 
d="M82 712l218 -345h2c53 85 94 149 121 191l97 154h77l-263 -408v-304h-66v304l-263 408h77zM243 760l90 135h84l-115 -135h-59z" />
    <glyph glyph-name="Thorn" unicode="&#xde;" horiz-adv-x="606" 
d="M513 521c42 -37 63 -88 63 -152c0 -128 -87 -208 -243 -208h-167v-161h-65v712h65v-136h167c78 0 138 -18 180 -55zM166 517v-297h166c115 0 176 54 176 149c0 93 -61 148 -176 148h-166z" />
    <glyph glyph-name="germandbls" unicode="&#xdf;" horiz-adv-x="548" 
d="M466 337c26 -33 39 -77 39 -130c0 -135 -85 -213 -232 -213c-19 0 -36 2 -52 6v56c13 -4 30 -6 49 -6c107 0 171 58 171 158s-63 162 -164 162h-15v58c96 0 146 44 146 123c0 73 -50 119 -127 119c-88 0 -136 -56 -136 -163v-507h-62v510c0 136 71 215 198 215
c57 0 103 -15 138 -46s52 -73 52 -124c0 -79 -37 -130 -111 -154v-2c44 -9 79 -29 106 -62z" />
    <glyph glyph-name="agrave" unicode="&#xe0;" horiz-adv-x="524" 
d="M446 326v-201c0 -48 4 -90 11 -125h-58c-5 23 -7 48 -7 77h-2c-35 -58 -95 -87 -181 -87c-51 0 -93 14 -124 41c-32 27 -48 62 -48 105c0 87 52 133 193 156c49 8 101 14 156 18v24c0 91 -50 134 -130 134c-83 0 -129 -44 -133 -113h-65c7 99 78 166 198 166
c119 0 190 -66 190 -195zM103 140c0 -60 44 -98 119 -98c47 0 89 16 117 45c18 19 30 37 37 56c7 18 10 43 10 76v39c-43 -3 -93 -9 -148 -18c-100 -15 -135 -43 -135 -100zM133 712h84l90 -141h-59z" />
    <glyph glyph-name="aacute" unicode="&#xe1;" horiz-adv-x="524" 
d="M446 326v-201c0 -48 4 -90 11 -125h-58c-5 23 -7 48 -7 77h-2c-35 -58 -95 -87 -181 -87c-51 0 -93 14 -124 41c-32 27 -48 62 -48 105c0 87 52 133 193 156c49 8 101 14 156 18v24c0 91 -50 134 -130 134c-83 0 -129 -44 -133 -113h-65c7 99 78 166 198 166
c119 0 190 -66 190 -195zM135 69c21 -18 50 -27 87 -27c47 0 89 16 117 45c18 19 30 37 37 56c7 18 10 43 10 76v39c-43 -3 -93 -9 -148 -18c-100 -15 -135 -43 -135 -100c0 -30 11 -54 32 -71zM281 712h84l-115 -141h-59z" />
    <glyph glyph-name="acircumflex" unicode="&#xe2;" horiz-adv-x="524" 
d="M390 77c-35 -58 -95 -87 -181 -87c-51 0 -93 14 -124 41c-32 27 -48 62 -48 105c0 87 52 133 193 156c49 8 101 14 156 18v24c0 91 -50 134 -130 134c-83 0 -129 -44 -133 -113h-65c7 99 78 166 198 166c119 0 190 -66 190 -195v-201c0 -48 4 -90 11 -125h-58
c-5 23 -7 48 -7 77h-2zM135 69c21 -18 50 -27 87 -27c47 0 89 16 117 45c18 19 30 37 37 56c7 18 10 43 10 76v39c-43 -3 -93 -9 -148 -18c-100 -15 -135 -43 -135 -100c0 -30 11 -54 32 -71zM213 712h71l114 -141h-69l-80 101l-81 -101h-69z" />
    <glyph glyph-name="atilde" unicode="&#xe3;" horiz-adv-x="524" 
d="M351 435c-23 22 -55 33 -95 33c-83 0 -129 -44 -133 -113h-65c7 99 78 166 198 166c119 0 190 -66 190 -195v-201c0 -48 4 -90 11 -125h-58c-5 23 -7 48 -7 77h-2c-35 -58 -95 -87 -181 -87c-51 0 -93 14 -124 41c-32 27 -48 62 -48 105c0 87 52 133 193 156
c49 8 101 14 156 18v24c0 45 -12 79 -35 101zM376 143c7 18 10 43 10 76v39c-43 -3 -93 -9 -148 -18c-100 -15 -135 -43 -135 -100c0 -60 44 -98 119 -98c47 0 89 16 117 45c18 19 30 37 37 56zM319 649c27 0 43 19 46 54h48c-4 -68 -38 -105 -93 -105c-28 0 -49 10 -81 29
c-25 16 -42 24 -61 24c-27 0 -43 -18 -46 -53h-48c4 68 38 105 93 105c27 0 45 -9 82 -30c31 -17 43 -24 60 -24z" />
    <glyph glyph-name="adieresis" unicode="&#xe4;" horiz-adv-x="524" 
d="M386 334c0 91 -50 134 -130 134c-83 0 -129 -44 -133 -113h-65c7 99 78 166 198 166c119 0 190 -66 190 -195v-201c0 -48 4 -90 11 -125h-58c-5 23 -7 48 -7 77h-2c-35 -58 -95 -87 -181 -87c-51 0 -93 14 -124 41c-32 27 -48 62 -48 105c0 87 52 133 193 156
c49 8 101 14 156 18v24zM103 140c0 -60 44 -98 119 -98c47 0 89 16 117 45c18 19 30 37 37 56c7 18 10 43 10 76v39c-43 -3 -93 -9 -148 -18c-100 -15 -135 -43 -135 -100zM310 712h61v-88h-61v88zM126 712h61v-88h-61v88z" />
    <glyph glyph-name="aring" unicode="&#xe5;" horiz-adv-x="524" 
d="M351 435c-23 22 -55 33 -95 33c-83 0 -129 -44 -133 -113h-65c7 99 78 166 198 166c119 0 190 -66 190 -195v-201c0 -48 4 -90 11 -125h-58c-5 23 -7 48 -7 77h-2c-35 -58 -95 -87 -181 -87c-51 0 -93 14 -124 41c-32 27 -48 62 -48 105c0 87 52 133 193 156
c49 8 101 14 156 18v24c0 45 -12 79 -35 101zM376 143c7 18 10 43 10 76v39c-43 -3 -93 -9 -148 -18c-100 -15 -135 -43 -135 -100c0 -60 44 -98 119 -98c47 0 89 16 117 45c18 19 30 37 37 56zM317 599c-19 -19 -41 -29 -68 -29s-49 10 -68 29s-29 41 -29 68s10 50 29 69
s41 28 68 28s49 -9 68 -28s28 -42 28 -69s-9 -49 -28 -68zM308 667c0 33 -26 59 -59 59s-60 -26 -60 -59s27 -60 60 -60s59 27 59 60z" />
    <glyph glyph-name="ae" unicode="&#xe6;" horiz-adv-x="854" 
d="M488 92c29 -35 66 -52 112 -52c76 0 126 44 141 111h64c-7 -47 -29 -86 -64 -117c-36 -31 -83 -47 -141 -47c-85 0 -149 44 -185 121c-35 -76 -108 -121 -204 -121c-52 0 -94 14 -126 42s-48 64 -48 108c0 99 64 156 224 156h125v41c0 89 -47 134 -130 134
c-81 0 -129 -45 -133 -113h-65c3 49 23 89 58 120s81 46 140 46c81 0 140 -31 167 -98c36 63 96 98 173 98c105 0 183 -70 206 -181c5 -25 7 -58 7 -99h-368c2 -65 18 -115 47 -149zM103 139c0 -31 11 -55 32 -73s50 -27 87 -27c48 0 90 17 117 46c18 19 30 37 37 56
c7 18 10 44 10 78v22h-117c-120 0 -166 -33 -166 -102zM441 293h307c-5 111 -65 175 -152 175c-89 0 -150 -67 -155 -175z" />
    <glyph glyph-name="ccedilla" unicode="&#xe7;" horiz-adv-x="521" 
d="M480 333h-65c-7 79 -64 134 -141 134c-101 0 -163 -81 -163 -213c0 -133 62 -213 163 -213c38 0 70 14 97 41c26 27 41 60 44 99h65c-4 -50 -21 -92 -52 -127s-70 -57 -118 -64l-35 -53c7 1 14 2 23 2c44 0 78 -28 78 -72c0 -48 -37 -85 -105 -85c-35 0 -69 9 -100 27
l15 32c25 -13 51 -20 78 -20c39 0 60 16 60 44c0 27 -21 43 -56 43c-11 0 -21 -2 -31 -5l-16 18l44 66c-69 2 -123 27 -162 74s-59 112 -59 193c0 83 21 148 62 196c41 47 97 71 168 71c57 0 105 -17 143 -52c37 -35 58 -80 63 -136z" />
    <glyph glyph-name="egrave" unicode="&#xe8;" horiz-adv-x="539" 
d="M495 242h-388c3 -131 72 -202 169 -202c81 0 135 44 151 111h64c-9 -47 -31 -86 -68 -117s-86 -47 -147 -47c-72 0 -129 25 -170 75c-41 49 -62 116 -62 201c0 150 87 258 228 258c113 0 192 -68 215 -181c5 -24 8 -57 8 -98zM435 293c-7 111 -70 175 -163 175
s-159 -67 -164 -175h327zM237 712l90 -141h-59l-115 141h84z" />
    <glyph glyph-name="eacute" unicode="&#xe9;" horiz-adv-x="539" 
d="M495 242h-388c3 -131 72 -202 169 -202c81 0 135 44 151 111h64c-9 -47 -31 -86 -68 -117s-86 -47 -147 -47c-72 0 -129 25 -170 75c-41 49 -62 116 -62 201c0 150 87 258 228 258c113 0 192 -68 215 -181c5 -24 8 -57 8 -98zM108 293h327c-7 111 -70 175 -163 175
s-159 -67 -164 -175zM301 712h84l-115 -141h-59z" />
    <glyph glyph-name="ecircumflex" unicode="&#xea;" horiz-adv-x="539" 
d="M495 242h-388c3 -131 72 -202 169 -202c81 0 135 44 151 111h64c-9 -47 -31 -86 -68 -117s-86 -47 -147 -47c-72 0 -129 25 -170 75c-41 49 -62 116 -62 201c0 150 87 258 228 258c113 0 192 -68 215 -181c5 -24 8 -57 8 -98zM435 293c-7 111 -70 175 -163 175
s-159 -67 -164 -175h327zM234 712h71l114 -141h-69l-80 101l-81 -101h-69z" />
    <glyph glyph-name="edieresis" unicode="&#xeb;" horiz-adv-x="539" 
d="M495 242h-388c3 -131 72 -202 169 -202c81 0 135 44 151 111h64c-9 -47 -31 -86 -68 -117s-86 -47 -147 -47c-72 0 -129 25 -170 75c-41 49 -62 116 -62 201c0 150 87 258 228 258c113 0 192 -68 215 -181c5 -24 8 -57 8 -98zM435 293c-7 111 -70 175 -163 175
s-159 -67 -164 -175h327zM330 624v88h61v-88h-61zM146 624v88h61v-88h-61z" />
    <glyph glyph-name="igrave" unicode="&#xec;" horiz-adv-x="228" 
d="M83 508h62v-508h-62v508zM82 712l90 -141h-59l-115 141h84z" />
    <glyph glyph-name="iacute" unicode="&#xed;" horiz-adv-x="228" 
d="M145 508v-508h-62v508h62zM57 571l90 141h84l-115 -141h-59z" />
    <glyph glyph-name="icircumflex" unicode="&#xee;" horiz-adv-x="228" 
d="M83 508h62v-508h-62v508zM77 712h74l98 -140h-67l-68 101l-67 -101h-68z" />
    <glyph glyph-name="idieresis" unicode="&#xef;" horiz-adv-x="228" 
d="M145 508v-508h-62v508h62zM156 712h61v-88h-61v88zM73 712v-88h-61v88h61z" />
    <glyph glyph-name="eth" unicode="&#xf0;" horiz-adv-x="553" 
d="M483 402c17 -45 26 -95 26 -148c0 -83 -21 -148 -62 -195c-42 -48 -99 -72 -171 -72s-129 24 -170 71s-62 111 -62 194c0 81 20 144 60 191s95 70 164 70c47 0 87 -15 120 -45v2c-31 44 -73 89 -125 135l-136 -65l-20 43l116 55c-27 22 -52 40 -73 53l41 34
c19 -12 47 -33 84 -62l120 58l20 -43l-101 -48c39 -36 69 -67 89 -92c36 -45 63 -91 80 -136zM109 252c0 -131 63 -211 167 -211c105 0 169 80 169 211s-64 211 -169 211c-52 0 -93 -19 -122 -56c-30 -38 -45 -90 -45 -155z" />
    <glyph glyph-name="ntilde" unicode="&#xf1;" 
d="M144 508v-69h2c32 49 90 80 158 80c117 0 181 -71 181 -210v-309h-62v306c0 115 -45 159 -130 159c-81 0 -148 -59 -148 -164v-301h-62v508h61zM422 625c-17 -18 -39 -27 -66 -27c-28 0 -49 10 -81 29c-25 16 -42 24 -61 24c-27 0 -43 -18 -46 -53h-48
c4 68 38 105 93 105c27 0 45 -9 82 -30c31 -17 43 -24 60 -24c27 0 43 19 46 54h48c-2 -34 -11 -60 -27 -78z" />
    <glyph glyph-name="ograve" unicode="&#xf2;" horiz-adv-x="552" 
d="M446 59c-41 -48 -98 -72 -170 -72s-129 24 -170 72c-41 47 -62 112 -62 195s21 148 62 196c41 47 98 71 170 71s129 -24 170 -71c41 -48 62 -113 62 -196s-21 -148 -62 -195zM109 254c0 -132 63 -213 167 -213c105 0 168 81 168 213s-63 213 -168 213
c-104 0 -167 -81 -167 -213zM160 712h84l90 -141h-59z" />
    <glyph glyph-name="oacute" unicode="&#xf3;" horiz-adv-x="552" 
d="M446 59c-41 -48 -98 -72 -170 -72s-129 24 -170 72c-41 47 -62 112 -62 195s21 148 62 196c41 47 98 71 170 71s129 -24 170 -71c41 -48 62 -113 62 -196s-21 -148 -62 -195zM154 98c29 -38 70 -57 122 -57c105 0 168 81 168 213s-63 213 -168 213
c-104 0 -167 -81 -167 -213c0 -66 15 -118 45 -156zM308 712h84l-115 -141h-59z" />
    <glyph glyph-name="ocircumflex" unicode="&#xf4;" horiz-adv-x="552" 
d="M446 59c-41 -48 -98 -72 -170 -72s-129 24 -170 72c-41 47 -62 112 -62 195s21 148 62 196c41 47 98 71 170 71s129 -24 170 -71c41 -48 62 -113 62 -196s-21 -148 -62 -195zM109 254c0 -132 63 -213 167 -213c105 0 168 81 168 213s-63 213 -168 213
c-104 0 -167 -81 -167 -213zM241 712h71l114 -141h-69l-80 101l-81 -101h-69z" />
    <glyph glyph-name="otilde" unicode="&#xf5;" horiz-adv-x="552" 
d="M106 450c41 47 98 71 170 71s129 -24 170 -71c41 -48 62 -113 62 -196s-21 -148 -62 -195c-41 -48 -98 -72 -170 -72s-129 24 -170 72c-41 47 -62 112 -62 195s21 148 62 196zM109 254c0 -132 63 -213 167 -213c105 0 168 81 168 213s-63 213 -168 213
c-104 0 -167 -81 -167 -213zM414 625c-17 -18 -39 -27 -66 -27c-28 0 -49 10 -81 29c-25 16 -42 24 -61 24c-27 0 -43 -18 -46 -53h-48c4 68 38 105 93 105c27 0 45 -9 82 -30c31 -17 43 -24 60 -24c27 0 43 19 46 54h48c-2 -34 -11 -60 -27 -78z" />
    <glyph glyph-name="odieresis" unicode="&#xf6;" horiz-adv-x="552" 
d="M508 254c0 -83 -21 -148 -62 -195c-41 -48 -98 -72 -170 -72s-129 24 -170 72c-41 47 -62 112 -62 195s21 148 62 196c41 47 98 71 170 71s129 -24 170 -71c41 -48 62 -113 62 -196zM109 254c0 -132 63 -213 167 -213c105 0 168 81 168 213s-63 213 -168 213
c-104 0 -167 -81 -167 -213zM398 712v-88h-61v88h61zM153 624v88h61v-88h-61z" />
    <glyph glyph-name="divide" unicode="&#xf7;" horiz-adv-x="566" 
d="M74 345h418v-57h-418v57zM250 441v72h66v-72h-66zM250 121v72h66v-72h-66z" />
    <glyph glyph-name="oslash" unicode="&#xf8;" horiz-adv-x="553" 
d="M467 546l39 -31l-55 -71c39 -47 58 -110 58 -190c0 -83 -21 -148 -62 -195c-42 -48 -99 -72 -171 -72c-54 0 -100 14 -139 42l-51 -66l-39 31l54 70c-38 47 -57 111 -57 190c0 83 21 148 62 196c41 47 98 71 170 71c55 0 101 -14 140 -43zM173 77c28 -24 62 -36 103 -36
c105 0 169 81 169 213c0 57 -11 103 -33 138zM153 410c-30 -38 -45 -90 -45 -156c0 -56 11 -102 32 -137l240 314c-28 24 -63 36 -104 36c-52 0 -93 -19 -123 -57z" />
    <glyph glyph-name="ugrave" unicode="&#xf9;" 
d="M480 0h-61v69h-2c-31 -49 -89 -80 -158 -80c-117 0 -181 71 -181 210v309h62v-306c0 -115 45 -159 130 -159c81 0 148 59 148 164v301h62v-508zM250 712l90 -141h-59l-115 141h84z" />
    <glyph glyph-name="uacute" unicode="&#xfa;" 
d="M480 0h-61v69h-2c-31 -49 -89 -80 -158 -80c-117 0 -181 71 -181 210v309h62v-306c0 -115 45 -159 130 -159c81 0 148 59 148 164v301h62v-508zM314 712h84l-115 -141h-59z" />
    <glyph glyph-name="ucircumflex" unicode="&#xfb;" 
d="M480 0h-61v69h-2c-31 -49 -89 -80 -158 -80c-117 0 -181 71 -181 210v309h62v-306c0 -115 45 -159 130 -159c81 0 148 59 148 164v301h62v-508zM247 712h71l114 -141h-69l-80 101l-81 -101h-69z" />
    <glyph glyph-name="udieresis" unicode="&#xfc;" 
d="M480 0h-61v69h-2c-31 -49 -89 -80 -158 -80c-117 0 -181 71 -181 210v309h62v-306c0 -115 45 -159 130 -159c81 0 148 59 148 164v301h62v-508zM343 624v88h61v-88h-61zM220 712v-88h-61v88h61z" />
    <glyph glyph-name="yacute" unicode="&#xfd;" horiz-adv-x="456" 
d="M461 508l-210 -532c-56 -134 -93 -162 -196 -165c-15 0 -27 1 -37 4v55c10 -3 22 -4 36 -4c78 3 96 20 141 134l-200 508h67l165 -429h2l165 429h67zM261 712h84l-115 -141h-59z" />
    <glyph glyph-name="thorn" unicode="&#xfe;" horiz-adv-x="565" 
d="M521 255c0 -53 -9 -100 -26 -140c-35 -81 -101 -126 -188 -126c-72 0 -133 35 -160 88h-2v-262h-62v897h62v-279h2c27 53 88 88 160 88c131 0 214 -104 214 -266zM142 255c0 -65 14 -116 42 -155s66 -59 113 -59c97 0 159 83 159 214s-62 214 -159 214
c-47 0 -85 -19 -113 -58s-42 -91 -42 -156z" />
    <glyph glyph-name="ydieresis" unicode="&#xff;" horiz-adv-x="456" 
d="M461 508l-210 -532c-56 -134 -93 -162 -196 -165c-15 0 -27 1 -37 4v55c10 -3 22 -4 36 -4c78 3 96 20 141 134l-200 508h67l165 -429h2l165 429h67zM350 712v-88h-61v88h61zM166 712v-88h-61v88h61z" />
    <glyph glyph-name="Amacron" unicode="&#x100;" horiz-adv-x="664" 
d="M588 0l-89 230h-334l-89 -230h-70l282 712h89l281 -712h-70zM475 290l-142 369h-2l-12 -31c-35 -91 -69 -179 -102 -264l-29 -74h287zM200 793v52h263v-52h-263z" />
    <glyph glyph-name="amacron" unicode="&#x101;" horiz-adv-x="524" 
d="M446 326v-201c0 -48 4 -90 11 -125h-58c-5 23 -7 48 -7 77h-2c-35 -58 -95 -87 -181 -87c-51 0 -93 14 -124 41c-32 27 -48 62 -48 105c0 87 52 133 193 156c49 8 101 14 156 18v24c0 91 -50 134 -130 134c-83 0 -129 -44 -133 -113h-65c7 99 78 166 198 166
c119 0 190 -66 190 -195zM135 69c21 -18 50 -27 87 -27c47 0 89 16 117 45c18 19 30 37 37 56c7 18 10 43 10 76v39c-43 -3 -93 -9 -148 -18c-100 -15 -135 -43 -135 -100c0 -30 11 -54 32 -71zM117 624v52h263v-52h-263z" />
    <glyph glyph-name="Abreve" unicode="&#x102;" horiz-adv-x="664" 
d="M588 0l-89 230h-334l-89 -230h-70l282 712h89l281 -712h-70zM188 290h287l-142 369h-2l-12 -31c-35 -91 -69 -179 -102 -264zM186 895h51c8 -57 42 -90 95 -90s86 31 95 90h51c-8 -88 -61 -139 -146 -139s-138 51 -146 139z" />
    <glyph glyph-name="abreve" unicode="&#x103;" horiz-adv-x="524" 
d="M386 334c0 91 -50 134 -130 134c-83 0 -129 -44 -133 -113h-65c7 99 78 166 198 166c119 0 190 -66 190 -195v-201c0 -48 4 -90 11 -125h-58c-5 23 -7 48 -7 77h-2c-35 -58 -95 -87 -181 -87c-51 0 -93 14 -124 41c-32 27 -48 62 -48 105c0 87 52 133 193 156
c49 8 101 14 156 18v24zM386 219v39c-43 -3 -93 -9 -148 -18c-100 -15 -135 -43 -135 -100c0 -60 44 -98 119 -98c47 0 89 16 117 45c18 19 30 37 37 56c7 18 10 43 10 76zM103 712h51c8 -57 42 -89 95 -89s86 30 95 89h51c-8 -88 -61 -139 -146 -139s-138 51 -146 139z" />
    <glyph glyph-name="Aogonek" unicode="&#x104;" horiz-adv-x="664" 
d="M661 -140v-44c-13 -5 -29 -8 -49 -8c-61 0 -92 27 -92 75c0 43 23 74 78 117h-10l-89 230h-334l-89 -230h-70l282 712h89l281 -712c-60 -45 -80 -75 -80 -110c0 -24 16 -37 43 -37c15 0 28 2 40 7zM188 290h287l-142 369h-2l-12 -31c-35 -91 -69 -179 -102 -264z" />
    <glyph glyph-name="aogonek" unicode="&#x105;" horiz-adv-x="524" 
d="M392 77h-2c-35 -58 -95 -87 -181 -87c-51 0 -93 14 -124 41c-32 27 -48 62 -48 105c0 87 52 133 193 156c49 8 101 14 156 18v24c0 91 -50 134 -130 134c-83 0 -129 -44 -133 -113h-65c7 99 78 166 198 166c119 0 190 -66 190 -195v-201c0 -48 4 -90 11 -125
c-60 -45 -80 -75 -80 -110c0 -24 16 -37 43 -37c15 0 28 2 40 7v-44c-13 -5 -29 -8 -49 -8c-61 0 -92 27 -92 75c0 43 24 75 80 118c-5 23 -7 48 -7 76zM133 206c-20 -15 -30 -37 -30 -66c0 -60 44 -98 119 -98c47 0 89 16 117 45c18 19 30 37 37 56c7 18 10 43 10 76v39
c-44 -3 -93 -9 -148 -18c-50 -7 -85 -19 -105 -34z" />
    <glyph glyph-name="Cacute" unicode="&#x106;" horiz-adv-x="683" 
d="M628 474h-68c-5 58 -27 104 -64 139c-38 34 -86 51 -145 51c-147 0 -237 -117 -237 -308s90 -308 235 -308c58 0 106 18 145 53s62 82 70 141h68c-16 -154 -121 -255 -283 -255c-186 0 -304 141 -304 369s117 369 306 369c166 0 269 -107 277 -251zM293 760l90 135h84
l-115 -135h-59z" />
    <glyph glyph-name="cacute" unicode="&#x107;" horiz-adv-x="521" 
d="M449 82c-36 -59 -98 -95 -175 -95c-71 0 -127 24 -168 72c-41 47 -62 112 -62 195s21 148 62 196c41 47 97 71 168 71c57 0 105 -17 143 -52c37 -35 58 -80 63 -136h-65c-7 79 -64 134 -141 134c-101 0 -163 -81 -163 -213c0 -133 62 -213 163 -213c38 0 70 14 97 41
c26 27 41 60 44 99h65c-3 -37 -14 -70 -31 -99zM216 571l90 141h84l-115 -141h-59z" />
    <glyph glyph-name="Ccircumflex" unicode="&#x108;" horiz-adv-x="683" 
d="M628 474h-68c-5 58 -27 104 -64 139c-38 34 -86 51 -145 51c-147 0 -237 -117 -237 -308s90 -308 235 -308c58 0 106 18 145 53s62 82 70 141h68c-16 -154 -121 -255 -283 -255c-186 0 -304 141 -304 369s117 369 306 369c166 0 269 -107 277 -251zM315 895h71l114 -135
h-69l-81 95l-80 -95h-69z" />
    <glyph glyph-name="ccircumflex" unicode="&#x109;" horiz-adv-x="521" 
d="M449 82c-36 -59 -98 -95 -175 -95c-71 0 -127 24 -168 72c-41 47 -62 112 -62 195s21 148 62 196c41 47 97 71 168 71c57 0 105 -17 143 -52c37 -35 58 -80 63 -136h-65c-7 79 -64 134 -141 134c-101 0 -163 -81 -163 -213c0 -133 62 -213 163 -213c38 0 70 14 97 41
c26 27 41 60 44 99h65c-3 -37 -14 -70 -31 -99zM125 571l114 141h71l114 -141h-69l-80 101l-81 -101h-69z" />
    <glyph glyph-name="Cdotaccent" unicode="&#x10a;" horiz-adv-x="683" 
d="M628 474h-68c-5 58 -27 104 -64 139c-38 34 -86 51 -145 51c-147 0 -237 -117 -237 -308s90 -308 235 -308c58 0 106 18 145 53s62 82 70 141h68c-16 -154 -121 -255 -283 -255c-186 0 -304 141 -304 369s117 369 306 369c166 0 269 -107 277 -251zM381 857v-88h-62v88
h62z" />
    <glyph glyph-name="cdotaccent" unicode="&#x10b;" horiz-adv-x="521" 
d="M449 82c-36 -59 -98 -95 -175 -95c-71 0 -127 24 -168 72c-41 47 -62 112 -62 195s21 148 62 196c41 47 97 71 168 71c57 0 105 -17 143 -52c37 -35 58 -80 63 -136h-65c-7 79 -64 134 -141 134c-101 0 -163 -81 -163 -213c0 -133 62 -213 163 -213c38 0 70 14 97 41
c26 27 41 60 44 99h65c-3 -37 -14 -70 -31 -99zM243 624v88h62v-88h-62z" />
    <glyph glyph-name="Ccaron" unicode="&#x10c;" horiz-adv-x="683" 
d="M628 474h-68c-5 58 -27 104 -64 139c-38 34 -86 51 -145 51c-147 0 -237 -117 -237 -308s90 -308 235 -308c58 0 106 18 145 53s62 82 70 141h68c-16 -154 -121 -255 -283 -255c-186 0 -304 141 -304 369s117 369 306 369c166 0 269 -107 277 -251zM270 895l81 -95l80 95
h69l-114 -135h-71l-114 135h69z" />
    <glyph glyph-name="ccaron" unicode="&#x10d;" horiz-adv-x="521" 
d="M449 82c-36 -59 -98 -95 -175 -95c-71 0 -127 24 -168 72c-41 47 -62 112 -62 195s21 148 62 196c41 47 97 71 168 71c57 0 105 -17 143 -52c37 -35 58 -80 63 -136h-65c-7 79 -64 134 -141 134c-101 0 -163 -81 -163 -213c0 -133 62 -213 163 -213c38 0 70 14 97 41
c26 27 41 60 44 99h65c-3 -37 -14 -70 -31 -99zM125 712h69l81 -101l80 101h69l-114 -141h-71z" />
    <glyph glyph-name="Dcaron" unicode="&#x10e;" horiz-adv-x="718" 
d="M673 356c0 -228 -132 -356 -364 -356h-208v712h208c232 0 364 -128 364 -356zM309 59c189 0 295 106 295 297s-106 297 -295 297h-143v-594h143zM246 895l81 -95l80 95h69l-114 -135h-71l-114 135h69z" />
    <glyph glyph-name="dcaron" unicode="&#x10f;" horiz-adv-x="565" 
d="M70 396c35 80 101 125 188 125c72 0 133 -35 160 -88h2v279h62v-712h-62v77h-2c-27 -53 -88 -88 -160 -88c-131 0 -214 104 -214 266c0 53 9 100 26 141zM109 255c0 -131 62 -214 159 -214c47 0 85 20 113 59s42 90 42 155s-14 117 -42 156s-66 58 -113 58
c-97 0 -159 -83 -159 -214zM560 536h-41l31 176h64z" />
    <glyph glyph-name="Dcroat" unicode="&#x110;" horiz-adv-x="718" 
d="M673 356c0 -228 -132 -356 -364 -356h-208v333h-66v55h66v324h208c232 0 364 -128 364 -356zM166 388h220v-55h-220v-274h143c189 0 295 106 295 297s-106 297 -295 297h-143v-265z" />
    <glyph glyph-name="dcroat" unicode="&#x111;" horiz-adv-x="560" 
d="M546 583h-64v-583h-62v77h-2c-27 -53 -88 -88 -160 -88c-131 0 -214 104 -214 266s83 266 214 266c72 0 133 -35 160 -88h2v150h-137v46h137v83h62v-83h64v-46zM152 411c-29 -39 -43 -91 -43 -156c0 -131 62 -214 159 -214c47 0 85 20 113 59s42 90 42 155
s-14 117 -42 156s-66 58 -113 58c-49 0 -87 -19 -116 -58z" />
    <glyph glyph-name="Emacron" unicode="&#x112;" horiz-adv-x="610" 
d="M101 712h443v-59h-378v-258h359v-59h-359v-277h390v-59h-455v712zM453 845v-52h-263v52h263z" />
    <glyph glyph-name="emacron" unicode="&#x113;" horiz-adv-x="539" 
d="M495 242h-388c3 -131 72 -202 169 -202c81 0 135 44 151 111h64c-9 -47 -31 -86 -68 -117s-86 -47 -147 -47c-72 0 -129 25 -170 75c-41 49 -62 116 -62 201c0 150 87 258 228 258c113 0 192 -68 215 -181c5 -24 8 -57 8 -98zM108 293h327c-7 111 -70 175 -163 175
s-159 -67 -164 -175zM400 676v-52h-263v52h263z" />
    <glyph glyph-name="Ebreve" unicode="&#x114;" horiz-adv-x="610" 
d="M556 0h-455v712h443v-59h-378v-258h359v-59h-359v-277h390v-59zM227 895c8 -57 42 -90 95 -90s86 31 95 90h51c-8 -88 -61 -139 -146 -139s-138 51 -146 139h51z" />
    <glyph glyph-name="ebreve" unicode="&#x115;" horiz-adv-x="539" 
d="M495 242h-388c3 -131 72 -202 169 -202c81 0 135 44 151 111h64c-9 -47 -31 -86 -68 -117s-86 -47 -147 -47c-72 0 -129 25 -170 75c-41 49 -62 116 -62 201c0 150 87 258 228 258c113 0 192 -68 215 -181c5 -24 8 -57 8 -98zM108 293h327c-7 111 -70 175 -163 175
s-159 -67 -164 -175zM174 712c8 -57 42 -89 95 -89s86 30 95 89h51c-8 -88 -61 -139 -146 -139s-138 51 -146 139h51z" />
    <glyph glyph-name="Edotaccent" unicode="&#x116;" horiz-adv-x="610" 
d="M101 712h443v-59h-378v-258h359v-59h-359v-277h390v-59h-455v712zM353 857v-88h-62v88h62z" />
    <glyph glyph-name="edotaccent" unicode="&#x117;" horiz-adv-x="539" 
d="M495 242h-388c3 -131 72 -202 169 -202c81 0 135 44 151 111h64c-9 -47 -31 -86 -68 -117s-86 -47 -147 -47c-72 0 -129 25 -170 75c-41 49 -62 116 -62 201c0 150 87 258 228 258c113 0 192 -68 215 -181c5 -24 8 -57 8 -98zM435 293c-7 111 -70 175 -163 175
s-159 -67 -164 -175h327zM238 712h62v-88h-62v88z" />
    <glyph glyph-name="Eogonek" unicode="&#x118;" horiz-adv-x="610" 
d="M559 -140v-44c-13 -5 -29 -8 -49 -8c-61 0 -92 27 -92 75c0 43 23 74 78 117h-395v712h443v-59h-378v-258h359v-59h-359v-277h390v-59c-60 -45 -80 -75 -80 -110c0 -24 16 -37 43 -37c15 0 28 2 40 7z" />
    <glyph glyph-name="eogonek" unicode="&#x119;" horiz-adv-x="539" 
d="M491 151c-5 -25 -13 -47 -25 -67c-13 -21 -30 -41 -52 -60c-64 -56 -85 -89 -85 -130c0 -27 14 -41 43 -41c15 0 28 2 40 7v-44c-14 -5 -30 -8 -49 -8c-63 0 -92 27 -92 75c0 39 16 71 52 107v2c-17 -3 -32 -5 -47 -5c-72 0 -129 25 -170 75c-41 49 -62 116 -62 201
c0 150 87 258 228 258c113 0 192 -68 215 -181c5 -24 8 -57 8 -98h-388c3 -131 72 -202 169 -202c81 0 135 44 151 111h64zM157 421c-30 -31 -46 -74 -49 -128h327c-7 111 -70 175 -163 175c-47 0 -85 -16 -115 -47z" />
    <glyph glyph-name="Ecaron" unicode="&#x11a;" horiz-adv-x="610" 
d="M556 0h-455v712h443v-59h-378v-258h359v-59h-359v-277h390v-59zM242 895l81 -95l80 95h69l-114 -135h-71l-114 135h69z" />
    <glyph glyph-name="ecaron" unicode="&#x11b;" horiz-adv-x="539" 
d="M495 242h-388c3 -131 72 -202 169 -202c81 0 135 44 151 111h64c-9 -47 -31 -86 -68 -117s-86 -47 -147 -47c-72 0 -129 25 -170 75c-41 49 -62 116 -62 201c0 150 87 258 228 258c113 0 192 -68 215 -181c5 -24 8 -57 8 -98zM108 293h327c-7 111 -70 175 -163 175
s-159 -67 -164 -175zM120 712h69l81 -101l80 101h69l-114 -141h-71z" />
    <glyph glyph-name="Gcircumflex" unicode="&#x11c;" horiz-adv-x="724" 
d="M574 109c-18 -37 -48 -66 -90 -88s-89 -33 -141 -33c-182 0 -298 139 -298 366c0 228 120 371 315 371c156 0 264 -88 276 -223h-68c-17 103 -92 162 -208 162c-153 0 -246 -119 -246 -310s90 -306 236 -306c67 0 122 21 163 64c41 42 61 109 61 201h-209v59h272v-372
h-61v109h-2zM320 895h71l114 -135h-69l-81 95l-80 -95h-69z" />
    <glyph glyph-name="gcircumflex" unicode="&#x11d;" horiz-adv-x="565" 
d="M420 34v60h-2c-35 -57 -91 -89 -156 -89c-132 0 -218 103 -218 258s86 258 218 258c67 0 123 -32 156 -89h2v76h62v-477c0 -147 -73 -223 -213 -223c-127 0 -203 60 -204 160h63c1 -68 56 -108 141 -108c103 0 151 55 151 174zM109 263c0 -62 14 -112 42 -149
s66 -56 113 -56c99 0 159 78 159 205s-60 205 -159 205c-47 0 -85 -19 -113 -56s-42 -87 -42 -149zM124 571l114 141h71l114 -141h-69l-80 101l-81 -101h-69z" />
    <glyph glyph-name="Gbreve" unicode="&#x11e;" horiz-adv-x="724" 
d="M574 313h-209v59h272v-372h-61v109h-2c-18 -37 -48 -66 -90 -88s-89 -33 -141 -33c-182 0 -298 139 -298 366c0 228 120 371 315 371c156 0 264 -88 276 -223h-68c-17 103 -92 162 -208 162c-153 0 -246 -119 -246 -310s90 -306 236 -306c67 0 122 21 163 64
c41 42 61 109 61 201zM210 895h51c8 -57 42 -90 95 -90s86 31 95 90h51c-8 -88 -61 -139 -146 -139s-138 51 -146 139z" />
    <glyph glyph-name="gbreve" unicode="&#x11f;" horiz-adv-x="565" 
d="M420 34v60h-2c-35 -57 -91 -89 -156 -89c-132 0 -218 103 -218 258s86 258 218 258c67 0 123 -32 156 -89h2v76h62v-477c0 -147 -73 -223 -213 -223c-127 0 -203 60 -204 160h63c1 -68 56 -108 141 -108c103 0 151 55 151 174zM423 263c0 127 -60 205 -159 205
c-47 0 -85 -19 -113 -56s-42 -87 -42 -149s14 -112 42 -149s66 -56 113 -56c99 0 159 78 159 205zM375 610c-25 -25 -59 -37 -102 -37c-85 0 -138 51 -146 139h51c8 -57 42 -89 95 -89s86 30 95 89h51c-4 -44 -19 -78 -44 -102z" />
    <glyph glyph-name="Gdotaccent" unicode="&#x120;" horiz-adv-x="724" 
d="M636 502h-68c-17 103 -92 162 -208 162c-153 0 -246 -119 -246 -310s90 -306 236 -306c67 0 122 21 163 64c41 42 61 109 61 201h-209v59h272v-372h-61v109h-2c-18 -37 -48 -66 -90 -88s-89 -33 -141 -33c-182 0 -298 139 -298 366c0 228 120 371 315 371
c156 0 264 -88 276 -223zM386 857v-88h-62v88h62z" />
    <glyph glyph-name="gdotaccent" unicode="&#x121;" horiz-adv-x="565" 
d="M420 432v76h62v-477c0 -147 -73 -223 -213 -223c-127 0 -203 60 -204 160h63c1 -68 56 -108 141 -108c103 0 151 55 151 174v60h-2c-35 -57 -91 -89 -156 -89c-132 0 -218 103 -218 258s86 258 218 258c67 0 123 -32 156 -89h2zM151 114c28 -37 66 -56 113 -56
c99 0 159 78 159 205s-60 205 -159 205c-47 0 -85 -19 -113 -56s-42 -87 -42 -149s14 -112 42 -149zM304 712v-88h-62v88h62z" />
    <glyph glyph-name="Gcommaaccent" unicode="&#x122;" horiz-adv-x="724" 
d="M574 109c-18 -37 -48 -66 -90 -88s-89 -33 -141 -33c-182 0 -298 139 -298 366c0 228 120 371 315 371c156 0 264 -88 276 -223h-68c-17 103 -92 162 -208 162c-153 0 -246 -119 -246 -310s90 -306 236 -306c67 0 122 21 163 64c41 42 61 109 61 201h-209v59h272v-372
h-61v109h-2zM313 -251l35 102h-28v81h71v-81l-49 -102h-29z" />
    <glyph glyph-name="gcommaaccent" unicode="&#x123;" horiz-adv-x="565" 
d="M420 34v60h-2c-35 -57 -91 -89 -156 -89c-132 0 -218 103 -218 258s86 258 218 258c67 0 123 -32 156 -89h2v76h62v-477c0 -147 -73 -223 -213 -223c-127 0 -203 60 -204 160h63c1 -68 56 -108 141 -108c103 0 151 55 151 174zM151 114c28 -37 66 -56 113 -56
c99 0 159 78 159 205s-60 205 -159 205c-47 0 -85 -19 -113 -56s-42 -87 -42 -149s14 -112 42 -149zM234 667l49 102h29l-35 -102h28v-81h-71v81z" />
    <glyph glyph-name="Hcircumflex" unicode="&#x124;" horiz-adv-x="731" 
d="M630 0h-65v340h-399v-340h-65v712h65v-313h399v313h65v-712zM330 895h71l114 -135h-69l-81 95l-80 -95h-69z" />
    <glyph glyph-name="hcircumflex" unicode="&#x125;" 
d="M485 0h-62v306c0 115 -45 159 -130 159c-81 0 -148 -59 -148 -164v-301h-62v712h62v-272h2c33 52 93 79 157 79c117 0 181 -71 181 -210v-309zM247 895h71l114 -135h-69l-81 95l-80 -95h-69z" />
    <glyph glyph-name="Hbar" unicode="&#x126;" horiz-adv-x="731" 
d="M690 629v-53h-60v-576h-65v340h-399v-340h-65v576h-60v53h60v83h65v-83h399v83h65v-83h60zM565 576h-399v-177h399v177z" />
    <glyph glyph-name="hbar" unicode="&#x127;" 
d="M485 309v-309h-62v306c0 115 -45 159 -130 159c-81 0 -148 -59 -148 -164v-301h-62v583h-69v46h69v83h62v-83h132v-46h-132v-143h2c33 52 93 79 157 79c117 0 181 -71 181 -210z" />
    <glyph glyph-name="Itilde" unicode="&#x128;" horiz-adv-x="267" 
d="M101 0v712h65v-712h-65zM271 807c-17 -18 -39 -27 -66 -27c-28 0 -50 11 -81 30c-29 17 -44 24 -61 24c-27 0 -43 -19 -46 -54h-48c4 68 38 105 93 105c28 0 47 -9 82 -29c25 -16 41 -24 60 -24c27 0 43 18 46 53h48c-2 -34 -11 -60 -27 -78z" />
    <glyph glyph-name="itilde" unicode="&#x129;" horiz-adv-x="228" 
d="M145 508v-508h-62v508h62zM233 626c-15 -19 -36 -28 -61 -28s-41 10 -68 30c-21 16 -34 24 -49 24c-24 0 -38 -18 -41 -54h-44c3 68 34 105 85 105c25 0 41 -11 69 -31c23 -17 33 -24 48 -24c25 0 39 18 42 55h44c-1 -33 -10 -59 -25 -77z" />
    <glyph glyph-name="Imacron" unicode="&#x12a;" horiz-adv-x="267" 
d="M101 712h65v-712h-65v712zM1 845h263v-52h-263v52z" />
    <glyph glyph-name="imacron" unicode="&#x12b;" horiz-adv-x="228" 
d="M83 508h62v-508h-62v508zM-7 676h242v-51h-242v51z" />
    <glyph glyph-name="Ibreve" unicode="&#x12c;" horiz-adv-x="267" 
d="M166 712v-712h-65v712h65zM39 895c8 -57 42 -90 95 -90s86 31 95 90h51c-8 -88 -61 -139 -146 -139s-138 51 -146 139h51z" />
    <glyph glyph-name="ibreve" unicode="&#x12d;" horiz-adv-x="228" 
d="M145 508v-508h-62v508h62zM36 712c4 -59 32 -90 79 -90s75 33 78 90h51c-3 -88 -49 -139 -129 -139s-126 51 -129 139h50z" />
    <glyph glyph-name="Iogonek" unicode="&#x12e;" horiz-adv-x="267" 
d="M51 -173c-15 13 -23 32 -23 56c0 21 6 41 19 58c12 18 32 38 59 59h-5v712h65v-712c-60 -45 -80 -75 -80 -110c0 -24 16 -37 43 -37c15 0 28 2 40 7v-44c-13 -5 -29 -8 -49 -8c-31 0 -54 6 -69 19z" />
    <glyph glyph-name="iogonek" unicode="&#x12f;" horiz-adv-x="228" 
d="M148 -140v-44c-13 -5 -29 -8 -49 -8c-61 0 -92 27 -92 75c0 43 23 74 78 117h-2v508h62v-508c-60 -45 -80 -75 -80 -110c0 -24 16 -37 43 -37c15 0 28 2 40 7zM83 712h62v-88h-62v88z" />
    <glyph glyph-name="Idotaccent" unicode="&#x130;" horiz-adv-x="267" 
d="M101 0v712h65v-712h-65zM164 857v-88h-62v88h62z" />
    <glyph glyph-name="dotlessi" unicode="&#x131;" horiz-adv-x="228" 
d="M83 0v508h62v-508h-62z" />
    <glyph glyph-name="IJ" unicode="&#x132;" horiz-adv-x="604" 
d="M282 1v60c14 -3 28 -4 41 -4c80 0 120 43 120 138v517h66v-519c0 -131 -66 -197 -185 -197c-16 0 -30 2 -42 5zM101 0v712h65v-712h-65z" />
    <glyph glyph-name="ij" unicode="&#x133;" horiz-adv-x="463" 
d="M380 508v-545c0 -101 -44 -152 -133 -152c-13 0 -25 1 -36 4v54c11 -2 21 -3 30 -3c51 0 77 27 77 98v544h62zM145 0h-62v508h62v-508zM380 624h-62v88h62v-88zM83 624v88h62v-88h-62z" />
    <glyph glyph-name="Jcircumflex" unicode="&#x134;" horiz-adv-x="337" 
d="M146 91c20 22 30 57 30 104v517h66v-519c0 -131 -66 -197 -185 -197c-16 0 -30 2 -42 5v60c14 -3 28 -4 41 -4c40 0 70 11 90 34zM60 760l114 135h71l114 -135h-69l-81 95l-80 -95h-69z" />
    <glyph glyph-name="jcircumflex" unicode="&#x135;" horiz-adv-x="235" 
d="M-17 -131c11 -2 21 -3 30 -3c51 0 77 27 77 98v544h62v-545c0 -101 -44 -152 -133 -152c-13 0 -25 1 -36 4v54zM84 712h74l98 -140h-67l-68 101l-67 -101h-68z" />
    <glyph glyph-name="Kcommaaccent" unicode="&#x136;" horiz-adv-x="607" 
d="M511 0l-343 357h-2v-357h-65v712h65v-325h2l314 325h88l-331 -340l363 -372h-91zM283 -251l35 102h-28v81h71v-81l-49 -102h-29z" />
    <glyph glyph-name="kcommaaccent" unicode="&#x137;" horiz-adv-x="479" 
d="M400 0l-253 262h-2v-262h-62v712h62v-417h2l226 213h84l-246 -228l275 -280h-86zM223 -251l35 102h-28v81h71v-81l-49 -102h-29z" />
    <glyph glyph-name="kgreenlandic" unicode="&#x138;" horiz-adv-x="496" 
d="M145 0h-62v508h62v-213h2l226 213h84l-246 -228l275 -280h-86l-253 262h-2v-262z" />
    <glyph glyph-name="Lacute" unicode="&#x139;" horiz-adv-x="553" 
d="M101 712h65v-653h377v-59h-442v712zM108 760l90 135h84l-115 -135h-59z" />
    <glyph glyph-name="lacute" unicode="&#x13a;" horiz-adv-x="228" 
d="M145 712v-712h-62v712h62zM78 775l90 141h84l-115 -141h-59z" />
    <glyph glyph-name="Lcommaaccent" unicode="&#x13b;" horiz-adv-x="553" 
d="M101 0v712h65v-653h377v-59h-442zM315 -149h-28v81h71v-81l-49 -102h-29z" />
    <glyph glyph-name="lcommaaccent" unicode="&#x13c;" horiz-adv-x="228" 
d="M83 712h62v-712h-62v712zM72 -251l35 102h-28v81h71v-81l-49 -102h-29z" />
    <glyph glyph-name="Lcaron" unicode="&#x13d;" horiz-adv-x="553" 
d="M166 712v-653h377v-59h-442v712h65zM265 712h64l-54 -215h-41z" />
    <glyph glyph-name="lcaron" unicode="&#x13e;" horiz-adv-x="228" 
d="M83 0v712h62v-712h-62zM215 712h64l-54 -176h-41z" />
    <glyph glyph-name="Ldot" unicode="&#x13f;" horiz-adv-x="633" 
d="M101 0v712h65v-653h377v-59h-442zM493 449v-91h-86v91h86z" />
    <glyph glyph-name="ldot" unicode="&#x140;" horiz-adv-x="356" 
d="M145 712v-712h-62v712h62zM335 401v-91h-86v91h86z" />
    <glyph glyph-name="Lslash" unicode="&#x141;" horiz-adv-x="553" 
d="M101 316l-84 -50v63l84 50v333h65v-301l152 91v-63l-152 -91v-289h377v-59h-442v316z" />
    <glyph glyph-name="lslash" unicode="&#x142;" horiz-adv-x="262" 
d="M100 363l-90 -53v59l90 53v290h62v-258l90 53v-59l-90 -53v-395h-62v363z" />
    <glyph glyph-name="Nacute" unicode="&#x143;" horiz-adv-x="745" 
d="M644 0h-99l-290 495c-39 68 -68 119 -88 152h-2l1 -356v-291h-65v712h99l290 -495c39 -68 68 -119 88 -152h2c-1 79 -1 198 -1 356v291h65v-712zM315 760l90 135h84l-115 -135h-59z" />
    <glyph glyph-name="nacute" unicode="&#x144;" 
d="M485 0h-62v306c0 115 -45 159 -130 159c-81 0 -148 -59 -148 -164v-301h-62v508h61v-69h2c32 49 90 80 158 80c117 0 181 -71 181 -210v-309zM316 712h84l-115 -141h-59z" />
    <glyph glyph-name="Ncommaaccent" unicode="&#x145;" horiz-adv-x="745" 
d="M644 0h-99l-290 495c-39 68 -68 119 -88 152h-2l1 -356v-291h-65v712h99l290 -495c39 -68 68 -119 88 -152h2c-1 79 -1 198 -1 356v291h65v-712zM366 -149h-28v81h71v-81l-49 -102h-29z" />
    <glyph glyph-name="ncommaaccent" unicode="&#x146;" 
d="M485 0h-62v306c0 115 -45 159 -130 159c-81 0 -148 -59 -148 -164v-301h-62v508h61v-69h2c32 49 90 80 158 80c117 0 181 -71 181 -210v-309zM277 -149h-28v81h71v-81l-49 -102h-29z" />
    <glyph glyph-name="Ncaron" unicode="&#x147;" horiz-adv-x="745" 
d="M644 0h-99l-290 495c-39 68 -68 119 -88 152h-2l1 -356v-291h-65v712h99l290 -495c39 -68 68 -119 88 -152h2c-1 79 -1 198 -1 356v291h65v-712zM292 895l81 -95l80 95h69l-114 -135h-71l-114 135h69z" />
    <glyph glyph-name="ncaron" unicode="&#x148;" 
d="M485 0h-62v306c0 115 -45 159 -130 159c-81 0 -148 -59 -148 -164v-301h-62v508h61v-69h2c32 49 90 80 158 80c117 0 181 -71 181 -210v-309zM135 712h69l81 -101l80 101h69l-114 -141h-71z" />
    <glyph glyph-name="napostrophe" unicode="&#x149;" horiz-adv-x="666" 
d="M588 0h-62v306c0 115 -45 159 -130 159c-81 0 -148 -59 -148 -164v-301h-62v508h61v-69h2c32 49 90 80 158 80c117 0 181 -71 181 -210v-309zM72 494l29 128h-29v90h84v-90l-40 -128h-44z" />
    <glyph glyph-name="Eng" unicode="&#x14a;" horiz-adv-x="743" 
d="M642 712v-759c0 -95 -45 -142 -135 -142c-13 0 -25 1 -36 4v54c11 -2 21 -3 30 -3c52 0 77 24 77 88v46l-411 645h-2l1 -346v-299h-65v712h97l378 -596h2v596h64z" />
    <glyph glyph-name="eng" unicode="&#x14b;" 
d="M485 299v-346c0 -95 -44 -142 -132 -142c-13 0 -25 1 -36 4v54c10 -2 20 -3 29 -3c52 0 77 25 77 89v340c0 72 -9 105 -33 133c-23 25 -56 38 -97 38c-81 0 -148 -61 -148 -165v-301h-62v508h62v-69h2c33 53 92 80 157 80c55 0 99 -17 132 -51c36 -39 49 -85 49 -169z
" />
    <glyph glyph-name="Omacron" unicode="&#x14c;" horiz-adv-x="724" 
d="M640 161c-52 -111 -150 -174 -278 -174c-192 0 -317 146 -317 369s125 369 317 369c193 0 316 -145 316 -369c0 -75 -13 -140 -38 -195zM145 193c40 -93 117 -145 217 -145c150 0 248 122 248 308s-98 308 -248 308s-248 -120 -248 -308c0 -62 10 -116 31 -163zM493 845
v-52h-263v52h263z" />
    <glyph glyph-name="omacron" unicode="&#x14d;" horiz-adv-x="552" 
d="M508 254c0 -83 -21 -148 -62 -195c-41 -48 -98 -72 -170 -72s-129 24 -170 72c-41 47 -62 112 -62 195s21 148 62 196c41 47 98 71 170 71s129 -24 170 -71c41 -48 62 -113 62 -196zM154 98c29 -38 70 -57 122 -57c105 0 168 81 168 213s-63 213 -168 213
c-104 0 -167 -81 -167 -213c0 -66 15 -118 45 -156zM407 676v-52h-263v52h263z" />
    <glyph glyph-name="Obreve" unicode="&#x14e;" horiz-adv-x="724" 
d="M45 356c0 223 125 369 317 369c193 0 316 -145 316 -369s-123 -369 -316 -369c-192 0 -317 146 -317 369zM610 356c0 186 -98 308 -248 308s-248 -120 -248 -308s98 -308 248 -308s248 122 248 308zM267 895c8 -57 42 -90 95 -90s86 31 95 90h51
c-8 -88 -61 -139 -146 -139s-138 51 -146 139h51z" />
    <glyph glyph-name="obreve" unicode="&#x14f;" horiz-adv-x="552" 
d="M446 59c-41 -48 -98 -72 -170 -72s-129 24 -170 72c-41 47 -62 112 -62 195s21 148 62 196c41 47 98 71 170 71s129 -24 170 -71c41 -48 62 -113 62 -196s-21 -148 -62 -195zM154 98c29 -38 70 -57 122 -57c105 0 168 81 168 213s-63 213 -168 213
c-104 0 -167 -81 -167 -213c0 -66 15 -118 45 -156zM130 712h51c8 -57 42 -89 95 -89s86 30 95 89h51c-8 -88 -61 -139 -146 -139s-138 51 -146 139z" />
    <glyph glyph-name="Ohungarumlaut" unicode="&#x150;" horiz-adv-x="724" 
d="M640 161c-52 -111 -150 -174 -278 -174c-192 0 -317 146 -317 369s125 369 317 369c193 0 316 -145 316 -369c0 -75 -13 -140 -38 -195zM114 356c0 -188 98 -308 248 -308s248 122 248 308s-98 308 -248 308s-248 -120 -248 -308zM384 753l110 142h80l-134 -142h-56z
M349 895h80l-134 -142h-56z" />
    <glyph glyph-name="ohungarumlaut" unicode="&#x151;" horiz-adv-x="552" 
d="M446 59c-41 -48 -98 -72 -170 -72s-129 24 -170 72c-41 47 -62 112 -62 195s21 148 62 196c41 47 98 71 170 71s129 -24 170 -71c41 -48 62 -113 62 -196s-21 -148 -62 -195zM109 254c0 -132 63 -213 167 -213c105 0 168 81 168 213s-63 213 -168 213
c-104 0 -167 -81 -167 -213zM410 712h80l-134 -141h-56zM155 571l110 141h80l-134 -141h-56z" />
    <glyph glyph-name="OE" unicode="&#x152;" horiz-adv-x="989" 
d="M934 59v-59h-530c-229 0 -359 128 -359 356s130 356 359 356h518v-59h-377v-258h358v-59h-358v-277h389zM114 356c0 -191 103 -297 290 -297h75v594h-75c-187 0 -290 -106 -290 -297z" />
    <glyph glyph-name="oe" unicode="&#x153;" horiz-adv-x="882" 
d="M102 59c-39 47 -58 112 -58 195s19 148 58 196c39 47 92 71 159 71c84 0 148 -43 181 -122c33 77 97 122 182 122c105 0 183 -70 206 -181c5 -29 8 -61 8 -98h-369c3 -131 67 -202 159 -202c77 0 128 44 141 111h64c-7 -47 -29 -86 -64 -117c-36 -31 -83 -47 -141 -47
c-87 0 -150 45 -185 125c-33 -80 -97 -125 -182 -125c-67 0 -120 24 -159 72zM150 410c-27 -38 -41 -90 -41 -156c0 -132 57 -213 152 -213s154 81 154 213s-59 213 -154 213c-47 0 -84 -19 -111 -57zM776 293c-5 111 -64 175 -152 175c-89 0 -150 -67 -155 -175h307z" />
    <glyph glyph-name="Racute" unicode="&#x154;" horiz-adv-x="627" 
d="M526 0l-68 198c-15 44 -33 74 -54 91s-51 25 -91 25h-147v-314h-65v712h209c164 0 244 -67 244 -190c0 -92 -55 -162 -138 -179v-2c26 -8 46 -21 61 -39c14 -19 29 -50 45 -94l75 -208h-71zM166 653v-280h148c115 0 173 58 173 146c0 89 -59 134 -178 134h-143zM253 760
l90 135h84l-115 -135h-59z" />
    <glyph glyph-name="racute" unicode="&#x155;" horiz-adv-x="347" 
d="M144 428h2c33 55 88 84 155 84c13 0 24 -1 34 -3v-59c-11 1 -21 2 -32 2c-101 0 -158 -67 -158 -184v-268h-62v508h61v-80zM238 712h84l-115 -141h-59z" />
    <glyph glyph-name="Rcommaaccent" unicode="&#x156;" horiz-adv-x="627" 
d="M526 0l-68 198c-15 44 -33 74 -54 91s-51 25 -91 25h-147v-314h-65v712h209c164 0 244 -67 244 -190c0 -92 -55 -162 -138 -179v-2c26 -8 46 -21 61 -39c14 -19 29 -50 45 -94l75 -208h-71zM166 653v-280h148c115 0 173 58 173 146c0 89 -59 134 -178 134h-143zM294 -251
l35 102h-28v81h71v-81l-49 -102h-29z" />
    <glyph glyph-name="rcommaaccent" unicode="&#x157;" horiz-adv-x="347" 
d="M335 450c-11 1 -21 2 -32 2c-101 0 -158 -67 -158 -184v-268h-62v508h61v-80h2c33 55 88 84 155 84c13 0 24 -1 34 -3v-59zM72 -251l35 102h-28v81h71v-81l-49 -102h-29z" />
    <glyph glyph-name="Rcaron" unicode="&#x158;" horiz-adv-x="627" 
d="M526 0l-68 198c-15 44 -33 74 -54 91s-51 25 -91 25h-147v-314h-65v712h209c164 0 244 -67 244 -190c0 -92 -55 -162 -138 -179v-2c26 -8 46 -21 61 -39c14 -19 29 -50 45 -94l75 -208h-71zM166 653v-280h148c115 0 173 58 173 146c0 89 -59 134 -178 134h-143zM230 895
l81 -95l80 95h69l-114 -135h-71l-114 135h69z" />
    <glyph glyph-name="rcaron" unicode="&#x159;" horiz-adv-x="347" 
d="M335 450c-11 1 -21 2 -32 2c-101 0 -158 -67 -158 -184v-268h-62v508h61v-80h2c33 55 88 84 155 84c13 0 24 -1 34 -3v-59zM126 712l81 -101l80 101h69l-114 -141h-71l-114 141h69z" />
    <glyph glyph-name="Sacute" unicode="&#x15a;" horiz-adv-x="599" 
d="M530 491h-66c0 117 -61 175 -182 175c-100 0 -157 -49 -157 -129c4 -85 50 -107 180 -139c108 -27 169 -49 209 -101c19 -27 29 -62 29 -107c0 -62 -22 -111 -65 -148c-44 -37 -103 -55 -178 -55c-163 0 -255 87 -255 250h65c0 -129 70 -190 190 -190
c115 0 177 51 177 142c0 57 -28 89 -79 110c-26 10 -62 21 -109 33c-107 27 -166 49 -202 101c-19 25 -28 60 -28 103c0 112 84 189 223 189c164 0 248 -79 248 -234zM314 895h84l-115 -135h-59z" />
    <glyph glyph-name="sacute" unicode="&#x15b;" horiz-adv-x="479" 
d="M421 347h-62c0 76 -48 120 -129 120c-69 0 -115 -33 -115 -84c0 -40 18 -59 50 -70c15 -5 41 -12 78 -21c44 -10 78 -19 103 -28s46 -24 64 -44c17 -21 26 -49 26 -85c0 -44 -17 -80 -52 -107s-81 -41 -138 -41c-128 0 -204 67 -205 184h63c0 -83 51 -130 142 -130
c76 0 128 37 128 90c0 44 -20 66 -59 79c-19 7 -50 15 -92 25c-39 9 -70 18 -91 26c-22 8 -41 21 -56 40s-23 44 -23 77c0 43 17 77 50 104c33 26 75 39 127 39c120 0 190 -63 191 -174zM262 712h84l-115 -141h-59z" />
    <glyph glyph-name="Scircumflex" unicode="&#x15c;" horiz-adv-x="599" 
d="M514 297c19 -27 29 -62 29 -107c0 -62 -22 -111 -65 -148c-44 -37 -103 -55 -178 -55c-163 0 -255 87 -255 250h65c0 -129 70 -190 190 -190c115 0 177 51 177 142c0 57 -28 89 -79 110c-26 10 -62 21 -109 33c-107 27 -166 49 -202 101c-19 25 -28 60 -28 103
c0 112 84 189 223 189c164 0 248 -79 248 -234h-66c0 117 -61 175 -182 175c-100 0 -157 -49 -157 -129c4 -85 50 -107 180 -139c108 -27 169 -49 209 -101zM247 895h71l114 -135h-69l-81 95l-80 -95h-69z" />
    <glyph glyph-name="scircumflex" unicode="&#x15d;" horiz-adv-x="479" 
d="M410 220c17 -21 26 -49 26 -85c0 -44 -17 -80 -52 -107s-81 -41 -138 -41c-128 0 -204 67 -205 184h63c0 -83 51 -130 142 -130c76 0 128 37 128 90c0 44 -20 66 -59 79c-19 7 -50 15 -92 25c-39 9 -70 18 -91 26c-22 8 -41 21 -56 40s-23 44 -23 77c0 43 17 77 50 104
c33 26 75 39 127 39c120 0 190 -63 191 -174h-62c0 76 -48 120 -129 120c-69 0 -115 -33 -115 -84c0 -40 18 -59 50 -70c15 -5 41 -12 78 -21c44 -10 78 -19 103 -28s46 -24 64 -44zM194 712h71l114 -141h-69l-80 101l-81 -101h-69z" />
    <glyph glyph-name="Scedilla" unicode="&#x15e;" horiz-adv-x="599" 
d="M324 -61c22 0 41 -7 56 -20s22 -30 22 -52c0 -48 -37 -85 -105 -85c-35 0 -69 9 -100 27l15 32c25 -13 51 -20 78 -20c39 0 60 16 60 44c0 27 -21 43 -56 43c-11 0 -21 -2 -31 -5l-16 18l44 66c-157 3 -246 90 -246 250h65c0 -129 70 -190 190 -190c115 0 177 51 177 142
c0 57 -28 89 -79 110c-26 10 -62 21 -109 33c-107 27 -166 49 -202 101c-19 25 -28 60 -28 103c0 112 84 189 223 189c164 0 248 -79 248 -234h-66c0 117 -61 175 -182 175c-100 0 -157 -49 -157 -129c4 -85 50 -107 180 -139c108 -27 169 -49 209 -101
c19 -27 29 -62 29 -107c0 -113 -79 -190 -208 -201l-34 -52c7 1 14 2 23 2z" />
    <glyph glyph-name="scedilla" unicode="&#x15f;" horiz-adv-x="479" 
d="M296 -135c0 27 -21 43 -56 43c-11 0 -21 -2 -31 -5l-16 18l44 66c-123 3 -195 69 -196 184h63c0 -83 51 -130 142 -130c76 0 128 37 128 90c0 44 -20 66 -59 79c-19 7 -50 15 -92 25c-39 9 -70 18 -91 26c-22 8 -41 21 -56 40s-23 44 -23 77c0 43 17 77 50 104
c33 26 75 39 127 39c120 0 190 -63 191 -174h-62c0 76 -48 120 -129 120c-69 0 -115 -33 -115 -84c0 -40 18 -59 50 -70c15 -5 41 -12 78 -21c44 -10 78 -19 103 -28s46 -24 64 -44c17 -21 26 -49 26 -85c0 -79 -59 -135 -154 -146l-35 -52c7 1 14 2 23 2
c44 0 78 -28 78 -72c0 -48 -37 -85 -105 -85c-35 0 -69 9 -100 27l15 32c25 -13 51 -20 78 -20c19 0 34 4 45 11c10 8 15 19 15 33z" />
    <glyph glyph-name="Scaron" unicode="&#x160;" horiz-adv-x="599" 
d="M514 297c19 -27 29 -62 29 -107c0 -62 -22 -111 -65 -148c-44 -37 -103 -55 -178 -55c-163 0 -255 87 -255 250h65c0 -129 70 -190 190 -190c115 0 177 51 177 142c0 57 -28 89 -79 110c-26 10 -62 21 -109 33c-107 27 -166 49 -202 101c-19 25 -28 60 -28 103
c0 112 84 189 223 189c164 0 248 -79 248 -234h-66c0 117 -61 175 -182 175c-100 0 -157 -49 -157 -129c4 -85 50 -107 180 -139c108 -27 169 -49 209 -101zM133 895h69l81 -95l80 95h69l-114 -135h-71z" />
    <glyph glyph-name="scaron" unicode="&#x161;" horiz-adv-x="479" 
d="M410 220c17 -21 26 -49 26 -85c0 -44 -17 -80 -52 -107s-81 -41 -138 -41c-128 0 -204 67 -205 184h63c0 -83 51 -130 142 -130c76 0 128 37 128 90c0 44 -20 66 -59 79c-19 7 -50 15 -92 25c-39 9 -70 18 -91 26c-22 8 -41 21 -56 40s-23 44 -23 77c0 43 17 77 50 104
c33 26 75 39 127 39c120 0 190 -63 191 -174h-62c0 76 -48 120 -129 120c-69 0 -115 -33 -115 -84c0 -40 18 -59 50 -70c15 -5 41 -12 78 -21c44 -10 78 -19 103 -28s46 -24 64 -44zM80 712h69l81 -101l80 101h69l-114 -141h-71z" />
    <glyph glyph-name="Tcommaaccent" unicode="&#x162;" horiz-adv-x="592" 
d="M582 712v-59h-254v-653h-65v653h-253v59h572zM289 -149h-28v81h71v-81l-49 -102h-29z" />
    <glyph glyph-name="tcommaaccent" unicode="&#x163;" horiz-adv-x="302" 
d="M273 55v-53c-15 -3 -30 -5 -46 -5c-88 0 -124 40 -124 137v322h-91v52h91v118h62v-118h103v-52h-103v-321c0 -60 20 -84 73 -84c13 0 24 1 35 4zM156 -251h-29l35 102h-28v81h71v-81z" />
    <glyph glyph-name="Tcaron" unicode="&#x164;" horiz-adv-x="592" 
d="M582 712v-59h-254v-653h-65v653h-253v59h572zM146 895h69l81 -95l80 95h69l-114 -135h-71z" />
    <glyph glyph-name="tcaron" unicode="&#x165;" horiz-adv-x="302" 
d="M273 2c-15 -3 -30 -5 -46 -5c-88 0 -124 40 -124 137v322h-91v52h91v118h62v-118h103v-52h-103v-321c0 -60 20 -84 73 -84c13 0 24 1 35 4v-53zM234 712h64l-54 -176h-41z" />
    <glyph glyph-name="Tbar" unicode="&#x166;" horiz-adv-x="592" 
d="M10 653v59h572v-59h-254v-240h145v-54h-145v-359h-65v359h-144v54h144v240h-253z" />
    <glyph glyph-name="tbar" unicode="&#x167;" horiz-adv-x="298" 
d="M273 55v-53c-15 -3 -30 -5 -46 -5c-88 0 -124 40 -124 137v117h-88v48h88v157h-91v52h91v118h62v-118h103v-52h-103v-157h100v-48h-100v-116c0 -60 20 -84 73 -84c13 0 24 1 35 4z" />
    <glyph glyph-name="Utilde" unicode="&#x168;" horiz-adv-x="699" 
d="M604 264c0 -181 -89 -277 -254 -277s-255 97 -255 277v448h65v-447c0 -144 69 -217 190 -217c120 0 189 73 189 217v447h65v-448zM185 780c4 68 38 105 93 105c28 0 47 -9 82 -29c25 -16 41 -24 60 -24c27 0 43 18 46 53h48c-4 -68 -38 -105 -93 -105
c-28 0 -50 11 -81 30c-29 17 -44 24 -61 24c-27 0 -43 -19 -46 -54h-48z" />
    <glyph glyph-name="utilde" unicode="&#x169;" 
d="M480 508v-508h-61v69h-2c-31 -49 -89 -80 -158 -80c-117 0 -181 71 -181 210v309h62v-306c0 -115 45 -159 130 -159c81 0 148 59 148 164v301h62zM118 598c4 68 38 105 93 105c27 0 45 -9 82 -30c31 -17 43 -24 60 -24c27 0 43 19 46 54h48c-4 -68 -38 -105 -93 -105
c-28 0 -49 10 -81 29c-25 16 -42 24 -61 24c-27 0 -43 -18 -46 -53h-48z" />
    <glyph glyph-name="Umacron" unicode="&#x16a;" horiz-adv-x="699" 
d="M604 264c0 -181 -89 -277 -254 -277s-255 97 -255 277v448h65v-447c0 -144 69 -217 190 -217c120 0 189 73 189 217v447h65v-448zM481 845v-52h-263v52h263z" />
    <glyph glyph-name="umacron" unicode="&#x16b;" 
d="M480 0h-61v69h-2c-31 -49 -89 -80 -158 -80c-117 0 -181 71 -181 210v309h62v-306c0 -115 45 -159 130 -159c81 0 148 59 148 164v301h62v-508zM150 676h263v-52h-263v52z" />
    <glyph glyph-name="Ubreve" unicode="&#x16c;" horiz-adv-x="699" 
d="M604 264c0 -181 -89 -277 -254 -277s-255 97 -255 277v448h65v-447c0 -144 69 -217 190 -217c120 0 189 73 189 217v447h65v-448zM255 895c8 -57 42 -90 95 -90s86 31 95 90h51c-8 -88 -61 -139 -146 -139s-138 51 -146 139h51z" />
    <glyph glyph-name="ubreve" unicode="&#x16d;" 
d="M480 0h-61v69h-2c-31 -49 -89 -80 -158 -80c-117 0 -181 71 -181 210v309h62v-306c0 -115 45 -159 130 -159c81 0 148 59 148 164v301h62v-508zM187 712c8 -57 42 -89 95 -89s86 30 95 89h51c-8 -88 -61 -139 -146 -139s-138 51 -146 139h51z" />
    <glyph glyph-name="Uring" unicode="&#x16e;" horiz-adv-x="699" 
d="M604 264c0 -181 -89 -277 -254 -277s-255 97 -255 277v448h65v-447c0 -144 69 -217 190 -217c120 0 189 73 189 217v447h65v-448zM282 918c19 19 41 28 68 28c53 0 96 -43 96 -96c0 -27 -9 -49 -28 -68s-41 -29 -68 -29s-49 10 -68 29s-29 41 -29 68s10 49 29 68z
M308 808c11 -12 25 -18 42 -18c33 0 59 27 59 60c0 32 -26 59 -59 59s-60 -27 -60 -59c0 -17 6 -31 18 -42z" />
    <glyph glyph-name="uring" unicode="&#x16f;" 
d="M419 69h-2c-31 -49 -89 -80 -158 -80c-117 0 -181 71 -181 210v309h62v-306c0 -115 45 -159 130 -159c81 0 148 59 148 164v301h62v-508h-61v69zM185 667c0 27 10 50 29 69s41 28 68 28s49 -9 68 -28s28 -42 28 -69s-9 -49 -28 -68s-41 -29 -68 -29s-49 10 -68 29
s-29 41 -29 68zM240 625c11 -12 25 -18 42 -18c33 0 59 27 59 60s-26 59 -59 59s-60 -26 -60 -59c0 -17 6 -31 18 -42z" />
    <glyph glyph-name="Uhungarumlaut" unicode="&#x170;" horiz-adv-x="699" 
d="M604 264c0 -181 -89 -277 -254 -277s-255 97 -255 277v448h65v-447c0 -144 69 -217 190 -217c120 0 189 73 189 217v447h65v-448zM482 895h80l-134 -142h-56zM227 753l110 142h80l-134 -142h-56z" />
    <glyph glyph-name="uhungarumlaut" unicode="&#x171;" 
d="M480 0h-61v69h-2c-31 -49 -89 -80 -158 -80c-117 0 -181 71 -181 210v309h62v-306c0 -115 45 -159 130 -159c81 0 148 59 148 164v301h62v-508zM416 712h80l-134 -141h-56zM161 571l110 141h80l-134 -141h-56z" />
    <glyph glyph-name="Uogonek" unicode="&#x172;" horiz-adv-x="699" 
d="M604 712v-448c0 -120 -38 -195 -114 -256c-60 -47 -80 -76 -80 -111c0 -29 16 -44 44 -44c15 0 28 2 39 7v-44c-13 -5 -29 -8 -48 -8c-63 0 -93 29 -93 81c0 39 19 67 64 106v2c-22 -7 -44 -10 -66 -10c-165 0 -255 97 -255 277v448h65v-447c0 -144 69 -217 190 -217
c120 0 189 73 189 217v447h65z" />
    <glyph glyph-name="uogonek" unicode="&#x173;" 
d="M483 -140v-44c-13 -5 -29 -8 -49 -8c-61 0 -92 27 -92 75c0 43 23 74 78 117h-1v69h-2c-31 -49 -89 -80 -158 -80c-117 0 -181 71 -181 210v309h62v-306c0 -115 45 -159 130 -159c81 0 148 59 148 164v301h62v-508c-60 -45 -80 -75 -80 -110c0 -24 16 -37 43 -37
c15 0 28 2 40 7z" />
    <glyph glyph-name="Wcircumflex" unicode="&#x174;" horiz-adv-x="896" 
d="M885 712l-174 -712h-102l-80 325c-36 145 -63 254 -80 327h-2c-17 -73 -44 -182 -80 -327l-80 -325h-102l-174 712h66l74 -303c19 -77 48 -193 85 -348h2l160 651h100l160 -651h2l84 348l75 303h66zM413 895h71l114 -135h-69l-81 95l-80 -95h-69z" />
    <glyph glyph-name="wcircumflex" unicode="&#x175;" horiz-adv-x="750" 
d="M742 508l-147 -508h-89l-66 230c-27 92 -48 166 -64 222h-2c-16 -56 -37 -130 -64 -222l-66 -230h-89l-147 508h64l122 -432c1 -3 2 -10 5 -20h2l127 452h94l127 -452h2c3 10 4 17 5 20l122 432h64zM225 571l114 141h71l114 -141h-69l-80 101l-81 -101h-69z" />
    <glyph glyph-name="Ycircumflex" unicode="&#x176;" horiz-adv-x="602" 
d="M597 712l-263 -408v-304h-66v304l-263 408h77l218 -345h2c53 85 94 149 121 191l97 154h77zM266 895h71l114 -135h-69l-81 95l-80 -95h-69z" />
    <glyph glyph-name="ycircumflex" unicode="&#x177;" horiz-adv-x="456" 
d="M461 508l-210 -532c-56 -134 -93 -162 -196 -165c-15 0 -27 1 -37 4v55c10 -3 22 -4 36 -4c78 3 96 20 141 134l-200 508h67l165 -429h2l165 429h67zM79 571l114 141h71l114 -141h-69l-80 101l-81 -101h-69z" />
    <glyph glyph-name="Ydieresis" unicode="&#x178;" horiz-adv-x="602" 
d="M597 712l-263 -408v-304h-66v304l-263 408h77l218 -345h2c53 85 94 149 121 191l97 154h77zM362 866h61v-88h-61v88zM239 866v-88h-61v88h61z" />
    <glyph glyph-name="Zacute" unicode="&#x179;" horiz-adv-x="558" 
d="M17 68l429 583v2h-420v59h495v-68l-429 -583v-2h448v-59h-523v68zM305 895h84l-115 -135h-59z" />
    <glyph glyph-name="zacute" unicode="&#x17a;" horiz-adv-x="461" 
d="M25 58l324 394v2h-314v54h391v-58l-324 -394v-2h334v-54h-411v58zM253 712h84l-115 -141h-59z" />
    <glyph glyph-name="Zdotaccent" unicode="&#x17b;" horiz-adv-x="558" 
d="M17 68l429 583v2h-420v59h495v-68l-429 -583v-2h448v-59h-523v68zM304 857v-88h-62v88h62z" />
    <glyph glyph-name="zdotaccent" unicode="&#x17c;" horiz-adv-x="461" 
d="M25 58l324 394v2h-314v54h391v-58l-324 -394v-2h334v-54h-411v58zM251 712v-88h-62v88h62z" />
    <glyph glyph-name="Zcaron" unicode="&#x17d;" horiz-adv-x="558" 
d="M540 0h-523v68l429 583v2h-420v59h495v-68l-429 -583v-2h448v-59zM124 895h69l81 -95l80 95h69l-114 -135h-71z" />
    <glyph glyph-name="zcaron" unicode="&#x17e;" horiz-adv-x="461" 
d="M436 0h-411v58l324 394v2h-314v54h391v-58l-324 -394v-2h334v-54zM71 712h69l81 -101l80 101h69l-114 -141h-71z" />
    <glyph glyph-name="longs" unicode="&#x17f;" horiz-adv-x="287" 
d="M15 508h91v71c0 91 42 137 125 137c13 0 27 -1 42 -4v-53c-9 3 -20 4 -32 4c-49 0 -73 -26 -73 -90v-573h-62v456h-91v52z" />
    <glyph glyph-name="uni018F" unicode="&#x18f;" horiz-adv-x="729" 
d="M684 356c0 -73 -13 -137 -39 -192c-53 -112 -154 -177 -286 -177c-193 0 -314 143 -314 369c0 7 1 15 2 24h568c-4 181 -113 284 -264 284c-117 0 -198 -65 -218 -164h-72c22 128 125 225 290 225c206 0 333 -146 333 -369zM114 321c3 -57 15 -106 36 -147
c43 -83 117 -126 209 -126c148 0 249 107 255 273h-500z" />
    <glyph glyph-name="florin" unicode="&#x192;" horiz-adv-x="544" 
d="M522 712v-57c-13 3 -27 5 -40 5c-60 0 -91 -30 -110 -110l-21 -82h110v-50h-122l-109 -431c-34 -131 -74 -176 -168 -176c-15 0 -28 2 -39 5v57c11 -3 23 -5 35 -5c56 0 85 25 111 127l106 423h-101v50h113l23 90c15 59 35 100 60 124c25 23 61 35 108 35
c15 0 29 -2 44 -5z" />
    <glyph glyph-name="Aringacute" unicode="&#x1fa;" horiz-adv-x="664" 
d="M6 0l282 712h89l281 -712h-70l-89 230h-334l-89 -230h-70zM475 290l-142 369h-2l-12 -31c-35 -91 -69 -179 -102 -264l-29 -74h287zM428 830c0 -27 -9 -49 -28 -68s-41 -29 -68 -29s-49 10 -68 29s-29 41 -29 68s10 49 29 68s41 28 68 28c53 0 96 -43 96 -96zM272 830
c0 -33 27 -60 60 -60s59 27 59 60c0 32 -26 59 -59 59s-60 -27 -60 -59zM274 947l90 135h84l-115 -135h-59z" />
    <glyph glyph-name="aringacute" unicode="&#x1fb;" horiz-adv-x="524" 
d="M396 472c33 -33 50 -81 50 -146v-201c0 -48 4 -90 11 -125h-58c-5 23 -7 48 -7 77h-2c-35 -58 -95 -87 -181 -87c-51 0 -93 14 -124 41c-32 27 -48 62 -48 105c0 87 52 133 193 156c49 8 101 14 156 18v24c0 91 -50 134 -130 134c-83 0 -129 -44 -133 -113h-65
c7 99 78 166 198 166c59 0 106 -16 140 -49zM339 87c18 19 30 37 37 56c7 18 10 43 10 76v39c-43 -3 -93 -9 -148 -18c-100 -15 -135 -43 -135 -100c0 -60 44 -98 119 -98c47 0 89 16 117 45zM317 577c-19 -19 -41 -29 -68 -29s-49 10 -68 29s-29 41 -29 68s10 50 29 69
s41 28 68 28s49 -9 68 -28s28 -42 28 -69s-9 -49 -28 -68zM291 687c-11 11 -25 17 -42 17c-33 0 -60 -26 -60 -59s27 -60 60 -60s59 27 59 60c0 17 -6 31 -17 42zM365 909l-115 -141h-59l90 141h84z" />
    <glyph glyph-name="AEacute" unicode="&#x1fc;" horiz-adv-x="924" 
d="M869 0h-359l-37 247h-281l-124 -247h-74l357 712h506v-59h-380l39 -258h322v-59h-313l42 -277h302v-59zM221 306h243l-52 347h-17zM534 895h84l-115 -135h-59z" />
    <glyph glyph-name="aeacute" unicode="&#x1fd;" horiz-adv-x="854" 
d="M441 241c4 -131 67 -201 159 -201c76 0 126 44 141 111h64c-7 -47 -29 -86 -64 -117c-36 -31 -83 -47 -141 -47c-85 0 -149 44 -185 121c-35 -76 -108 -121 -204 -121c-52 0 -94 14 -126 42s-48 64 -48 108c0 99 64 156 224 156h125v41c0 89 -47 134 -130 134
c-81 0 -129 -45 -133 -113h-65c3 49 23 89 58 120s81 46 140 46c81 0 140 -31 167 -98c36 63 96 98 173 98c105 0 183 -70 206 -181c5 -25 7 -58 7 -99h-368zM103 139c0 -61 44 -100 119 -100c48 0 90 17 117 46c18 19 30 37 37 56c7 18 10 44 10 78v22h-117
c-120 0 -166 -33 -166 -102zM748 293c-5 111 -65 175 -152 175c-89 0 -150 -67 -155 -175h307zM541 712l-115 -141h-59l90 141h84z" />
    <glyph glyph-name="Oslashacute" unicode="&#x1fe;" horiz-adv-x="724" 
d="M662 706l-65 -86c52 -64 81 -156 81 -264c0 -224 -123 -369 -316 -369c-77 0 -142 22 -195 65l-60 -80l-45 35l65 85c-53 64 -82 156 -82 264c0 223 125 369 317 369c77 0 141 -22 194 -65l61 80zM113 356c0 -85 19 -154 56 -208l348 460c-43 37 -94 56 -155 56
c-151 0 -249 -122 -249 -308zM362 48c150 0 248 120 248 308c0 86 -18 155 -55 208l-348 -460c43 -37 94 -56 155 -56zM394 895h84l-115 -135h-59z" />
    <glyph glyph-name="oslashacute" unicode="&#x1ff;" horiz-adv-x="553" 
d="M506 515l-55 -71c39 -47 58 -110 58 -190c0 -83 -21 -148 -62 -195c-42 -48 -99 -72 -171 -72c-54 0 -100 14 -139 42l-51 -66l-39 31l54 70c-38 47 -57 111 -57 190c0 83 21 148 62 196c41 47 98 71 170 71c55 0 101 -14 140 -43l51 68zM276 41c105 0 169 81 169 213
c0 57 -11 103 -33 138l-239 -315c28 -24 62 -36 103 -36zM108 254c0 -56 11 -102 32 -137l240 314c-28 24 -63 36 -104 36c-104 0 -168 -81 -168 -213zM309 712h84l-115 -141h-59z" />
    <glyph glyph-name="Scommaaccent" unicode="&#x218;" horiz-adv-x="599" 
d="M514 297c19 -27 29 -62 29 -107c0 -62 -22 -111 -65 -148c-44 -37 -103 -55 -178 -55c-163 0 -255 87 -255 250h65c0 -129 70 -190 190 -190c115 0 177 51 177 142c0 57 -28 89 -79 110c-26 10 -62 21 -109 33c-107 27 -166 49 -202 101c-19 25 -28 60 -28 103
c0 112 84 189 223 189c164 0 248 -79 248 -234h-66c0 117 -61 175 -182 175c-100 0 -157 -49 -157 -129c4 -85 50 -107 180 -139c108 -27 169 -49 209 -101zM257 -251l35 102h-28v81h71v-81l-49 -102h-29z" />
    <glyph glyph-name="scommaaccent" unicode="&#x219;" horiz-adv-x="479" 
d="M410 220c17 -21 26 -49 26 -85c0 -44 -17 -80 -52 -107s-81 -41 -138 -41c-128 0 -204 67 -205 184h63c0 -83 51 -130 142 -130c76 0 128 37 128 90c0 44 -20 66 -59 79c-19 7 -50 15 -92 25c-39 9 -70 18 -91 26c-22 8 -41 21 -56 40s-23 44 -23 77c0 43 17 77 50 104
c33 26 75 39 127 39c120 0 190 -63 191 -174h-62c0 76 -48 120 -129 120c-69 0 -115 -33 -115 -84c0 -40 18 -59 50 -70c15 -5 41 -12 78 -21c44 -10 78 -19 103 -28s46 -24 64 -44zM239 -149h-28v81h71v-81l-49 -102h-29z" />
    <glyph glyph-name="uni021A" unicode="&#x21a;" horiz-adv-x="592" 
d="M582 712v-59h-254v-653h-65v653h-253v59h572zM289 -149h-28v81h71v-81l-49 -102h-29z" />
    <glyph glyph-name="uni021B" unicode="&#x21b;" horiz-adv-x="302" 
d="M273 2c-15 -3 -30 -5 -46 -5c-88 0 -124 40 -124 137v322h-91v52h91v118h62v-118h103v-52h-103v-321c0 -60 20 -84 73 -84c13 0 24 1 35 4v-53zM127 -251l35 102h-28v81h71v-81l-49 -102h-29z" />
    <glyph glyph-name="uni0237" unicode="&#x237;" horiz-adv-x="235" 
d="M-17 -185v54c11 -2 21 -3 30 -3c51 0 77 27 77 98v544h62v-545c0 -101 -44 -152 -133 -152c-13 0 -25 1 -36 4z" />
    <glyph glyph-name="uni0259" unicode="&#x259;" horiz-adv-x="539" 
d="M495 254c0 -52 -9 -98 -27 -138c-37 -81 -108 -129 -203 -129c-135 0 -221 104 -221 267c0 9 0 16 1 20h387c-4 125 -73 194 -173 194c-76 0 -127 -44 -140 -111h-64c8 47 30 86 65 117s81 47 139 47c73 0 131 -24 173 -72c42 -49 63 -114 63 -195zM431 223h-327
c7 -116 69 -183 161 -183c96 0 161 70 166 183z" />
    <glyph glyph-name="afii57929" unicode="&#x2bc;" horiz-adv-x="229" 
d="M101 622h-29v90h84v-90l-40 -128h-44z" />
    <glyph glyph-name="circumflex" unicode="&#x2c6;" horiz-adv-x="399" 
d="M119 571h-69l114 141h71l114 -141h-69l-80 101z" />
    <glyph glyph-name="caron" unicode="&#x2c7;" horiz-adv-x="399" 
d="M50 712h69l81 -101l80 101h69l-114 -141h-71z" />
    <glyph glyph-name="uni02C9" unicode="&#x2c9;" horiz-adv-x="363" 
d="M50 624v52h263v-52h-263z" />
    <glyph glyph-name="breve" unicode="&#x2d8;" horiz-adv-x="392" 
d="M50 712h51c8 -57 42 -89 95 -89s86 30 95 89h51c-8 -88 -61 -139 -146 -139s-138 51 -146 139z" />
    <glyph glyph-name="dotaccent" unicode="&#x2d9;" horiz-adv-x="162" 
d="M50 624v88h62v-88h-62z" />
    <glyph glyph-name="ring" unicode="&#x2da;" horiz-adv-x="293" 
d="M147 570c-27 0 -49 10 -68 29s-29 41 -29 68s10 50 29 69s41 28 68 28s49 -9 68 -28s28 -42 28 -69s-9 -49 -28 -68s-41 -29 -68 -29zM87 667c0 -33 27 -60 60 -60s59 27 59 60s-26 59 -59 59s-60 -26 -60 -59z" />
    <glyph glyph-name="ogonek" unicode="&#x2db;" horiz-adv-x="241" 
d="M50 -117c0 44 25 76 82 120l56 -3c-60 -45 -80 -75 -80 -110c0 -24 16 -37 43 -37c15 0 28 2 40 7v-44c-13 -5 -29 -8 -49 -8c-61 0 -92 27 -92 75z" />
    <glyph glyph-name="tilde" unicode="&#x2dc;" horiz-adv-x="429" 
d="M379 703c-2 -34 -11 -60 -27 -78c-17 -18 -39 -27 -66 -27c-28 0 -49 10 -81 29c-25 16 -42 24 -61 24c-27 0 -43 -18 -46 -53h-48c4 68 38 105 93 105c27 0 45 -9 82 -30c31 -17 43 -24 60 -24c27 0 43 19 46 54h48z" />
    <glyph glyph-name="hungarumlaut" unicode="&#x2dd;" horiz-adv-x="435" 
d="M251 571h-56l110 141h80zM50 571l110 141h80l-134 -141h-56z" />
    <glyph glyph-name="uni0312" unicode="&#x312;" horiz-adv-x="0" 
d="M50 667l49 102h29l-35 -102h28v-81h-71v81z" />
    <glyph glyph-name="uni0326" unicode="&#x326;" horiz-adv-x="0" 
d="M50 -251l35 102h-28v81h71v-81l-49 -102h-29z" />
    <glyph glyph-name="uni0333" unicode="&#x333;" horiz-adv-x="0" 
d="M-500 -210v38h500v-38h-500zM-500 -50h500v-38h-500v38z" />
    <glyph glyph-name="uni0374" unicode="&#x374;" horiz-adv-x="162" 
d="M30 508l38 204h64l-60 -204h-42z" />
    <glyph glyph-name="uni0375" unicode="&#x375;" horiz-adv-x="162" 
d="M30 -92l38 204h64l-60 -204h-42z" />
    <glyph glyph-name="uni037E" unicode="&#x37e;" horiz-adv-x="210" 
d="M62 92h86v-92l-41 -130h-45l30 130h-30v92zM62 416v92h86v-92h-86z" />
    <glyph glyph-name="tonos" unicode="&#x384;" horiz-adv-x="205" 
d="M48 575l45 157h64l-58 -157h-51z" />
    <glyph glyph-name="dieresistonos" unicode="&#x385;" horiz-adv-x="417" 
d="M212 575h-49l39 141h58zM307 681h60v-92h-60v92zM110 589h-60v92h60v-92z" />
    <glyph glyph-name="Alphatonos" unicode="&#x386;" horiz-adv-x="664" 
d="M588 0l-89 230h-334l-89 -230h-70l282 712h89l281 -712h-70zM475 290l-142 369h-2l-12 -31c-35 -91 -69 -179 -102 -264l-29 -74h287zM111 712h64l-58 -197h-51z" />
    <glyph glyph-name="anoteleia" unicode="&#x387;" horiz-adv-x="210" 
d="M148 508v-91h-86v91h86z" />
    <glyph glyph-name="Epsilontonos" unicode="&#x388;" horiz-adv-x="610" 
d="M544 712v-59h-378v-258h359v-59h-359v-277h390v-59h-455v712h443zM32 712l-58 -197h-51l45 197h64z" />
    <glyph glyph-name="Etatonos" unicode="&#x389;" horiz-adv-x="731" 
d="M101 712h65v-313h399v313h65v-712h-65v340h-399v-340h-65v712zM32 712l-58 -197h-51l45 197h64z" />
    <glyph glyph-name="Iotatonos" unicode="&#x38a;" horiz-adv-x="267" 
d="M101 0v712h65v-712h-65zM-77 515l45 197h64l-58 -197h-51z" />
    <glyph glyph-name="Omicrontonos" unicode="&#x38c;" horiz-adv-x="724" 
d="M640 161c-52 -111 -150 -174 -278 -174c-192 0 -317 146 -317 369s125 369 317 369c193 0 316 -145 316 -369c0 -75 -13 -140 -38 -195zM145 193c40 -93 117 -145 217 -145c150 0 248 122 248 308s-98 308 -248 308s-248 -120 -248 -308c0 -62 10 -116 31 -163zM-46 515
l45 197h64l-58 -197h-51z" />
    <glyph glyph-name="Upsilontonos" unicode="&#x38e;" horiz-adv-x="602" 
d="M82 712l218 -345h2c53 85 94 149 121 191l97 154h77l-263 -408v-304h-66v304l-263 408h77zM-27 712l-58 -197h-51l45 197h64z" />
    <glyph glyph-name="Omegatonos" unicode="&#x38f;" horiz-adv-x="726" 
d="M685 0h-253v61c57 58 100 114 130 167c29 53 44 112 44 177c0 169 -95 259 -243 259c-147 0 -242 -90 -242 -259c0 -66 15 -125 45 -178c29 -53 72 -108 128 -166v-61h-253v59h180v2c-108 111 -169 215 -169 348c0 103 28 182 85 236c57 53 132 80 226 80
c95 0 170 -27 227 -80c56 -54 84 -133 84 -236c0 -133 -61 -237 -169 -348v-2h180v-59zM-4 712h64l-58 -197h-51z" />
    <glyph glyph-name="iotadieresistonos" unicode="&#x390;" horiz-adv-x="259" 
d="M140 508v-363c0 -68 21 -95 73 -95c13 0 25 2 36 5v-53c-17 -4 -33 -6 -47 -6c-88 0 -124 43 -124 147v365h62zM65 575l39 141h58l-48 -141h-49zM-48 681h60v-92h-60v92zM269 589h-60v92h60v-92z" />
    <glyph glyph-name="Alpha" unicode="&#x391;" horiz-adv-x="664" 
d="M76 0h-70l282 712h89l281 -712h-70l-89 230h-334zM188 290h287l-142 369h-2l-12 -31c-35 -91 -69 -179 -102 -264z" />
    <glyph glyph-name="Beta" unicode="&#x392;" horiz-adv-x="615" 
d="M567 196c0 -120 -85 -196 -229 -196h-237v712h221c152 0 230 -69 230 -180c0 -79 -41 -139 -116 -166v-2c80 -20 131 -84 131 -168zM166 335v-278h164c112 0 169 48 169 140c0 88 -58 138 -186 138h-147zM313 392c120 0 173 50 173 131c0 88 -57 132 -170 132h-150v-263
h147z" />
    <glyph glyph-name="Gamma" unicode="&#x393;" horiz-adv-x="478" 
d="M101 712h367v-59h-302v-653h-65v712z" />
    <glyph glyph-name="Delta" unicode="&#x394;" horiz-adv-x="664" 
d="M6 0l282 712h89l281 -712h-652zM331 659l-232 -600h466l-232 600h-2z" />
    <glyph glyph-name="Epsilon" unicode="&#x395;" horiz-adv-x="610" 
d="M101 0v712h443v-59h-378v-258h359v-59h-359v-277h390v-59h-455z" />
    <glyph glyph-name="Zeta" unicode="&#x396;" horiz-adv-x="558" 
d="M17 68l429 583v2h-420v59h495v-68l-429 -583v-2h448v-59h-523v68z" />
    <glyph glyph-name="Eta" unicode="&#x397;" horiz-adv-x="731" 
d="M101 712h65v-313h399v313h65v-712h-65v340h-399v-340h-65v712z" />
    <glyph glyph-name="Theta" unicode="&#x398;" horiz-adv-x="724" 
d="M678 356c0 -75 -13 -140 -38 -195c-52 -111 -150 -174 -278 -174c-192 0 -317 146 -317 369s125 369 317 369c193 0 316 -145 316 -369zM113 356c0 -62 10 -116 31 -162c40 -93 118 -146 218 -146c150 0 248 120 248 308s-98 308 -248 308c-100 0 -178 -53 -218 -145
c-21 -47 -31 -101 -31 -163zM510 325h-297v64h297v-64z" />
    <glyph glyph-name="Iota" unicode="&#x399;" horiz-adv-x="267" 
d="M101 0v712h65v-712h-65z" />
    <glyph glyph-name="Kappa" unicode="&#x39a;" horiz-adv-x="607" 
d="M101 0v712h65v-325h2l314 325h88l-331 -340l363 -372h-91l-343 357h-2v-357h-65z" />
    <glyph glyph-name="Lambda" unicode="&#x39b;" horiz-adv-x="647" 
d="M6 0l272 712h92l272 -712h-73l-244 656h-2l-245 -656h-72z" />
    <glyph glyph-name="Mu" unicode="&#x39c;" horiz-adv-x="909" 
d="M808 0h-65v365c0 123 0 215 1 276h-2l-250 -641h-76l-249 641h-2c1 -61 1 -153 1 -276v-365h-65v712h105l141 -364l106 -278h2l248 642h105v-712z" />
    <glyph glyph-name="Nu" unicode="&#x39d;" horiz-adv-x="745" 
d="M644 0h-99l-290 495c-39 68 -68 119 -88 152h-2l1 -356v-291h-65v712h99l290 -495c39 -68 68 -119 88 -152h2c-1 79 -1 198 -1 356v291h65v-712z" />
    <glyph glyph-name="Xi" unicode="&#x39e;" horiz-adv-x="654" 
d="M59 0v65h536v-65h-536zM73 712h508v-65h-508v65zM90 324v65h474v-65h-474z" />
    <glyph glyph-name="Omicron" unicode="&#x39f;" horiz-adv-x="724" 
d="M678 356c0 -224 -123 -369 -316 -369c-192 0 -317 146 -317 369s125 369 317 369c193 0 316 -145 316 -369zM145 519c-21 -47 -31 -101 -31 -163c0 -188 98 -308 248 -308s248 122 248 308s-98 308 -248 308c-100 0 -177 -52 -217 -145z" />
    <glyph glyph-name="Pi" unicode="&#x3a0;" horiz-adv-x="721" 
d="M101 712h519v-712h-65v653h-389v-653h-65v712z" />
    <glyph glyph-name="Rho" unicode="&#x3a1;" horiz-adv-x="606" 
d="M101 0v712h232c156 0 243 -79 243 -207s-87 -208 -243 -208h-167v-297h-65zM332 356c115 0 176 54 176 149c0 93 -61 148 -176 148h-166v-297h166z" />
    <glyph glyph-name="Sigma" unicode="&#x3a3;" horiz-adv-x="548" 
d="M531 0h-511v59l222 303l-211 291v59h486v-59h-404v-2l210 -289l-220 -300v-3h428v-59z" />
    <glyph glyph-name="Tau" unicode="&#x3a4;" horiz-adv-x="592" 
d="M10 712h572v-59h-254v-653h-65v653h-253v59z" />
    <glyph glyph-name="Upsilon" unicode="&#x3a5;" horiz-adv-x="602" 
d="M5 712h77l218 -345h2c53 85 94 149 121 191l97 154h77l-263 -408v-304h-66v304z" />
    <glyph glyph-name="Phi" unicode="&#x3a6;" horiz-adv-x="770" 
d="M725 359c0 -95 -27 -169 -81 -222c-55 -53 -130 -81 -227 -84v-77h-64v77c-193 7 -308 115 -308 306s115 299 308 306v71h64v-71c193 -7 308 -115 308 -306zM417 605v-492c152 4 239 90 239 246s-87 242 -239 246zM114 359c0 -77 21 -137 63 -179c42 -43 101 -65 176 -67
v492c-75 -2 -134 -24 -176 -66c-42 -43 -63 -103 -63 -180z" />
    <glyph glyph-name="Chi" unicode="&#x3a7;" horiz-adv-x="617" 
d="M268 367l-244 345h79l204 -292h2l205 292h79l-244 -345l258 -367h-80l-218 313h-2l-218 -313h-79z" />
    <glyph glyph-name="Psi" unicode="&#x3a8;" horiz-adv-x="752" 
d="M702 712v-218c0 -209 -90 -298 -294 -305v-189h-65v189c-204 7 -294 96 -294 305v218h66v-217c0 -172 63 -236 228 -242v459h65v-459c165 6 229 70 229 242v217h65z" />
    <glyph glyph-name="Omega" unicode="&#x3a9;" horiz-adv-x="726" 
d="M685 59v-59h-253v61c57 58 100 114 130 167c29 53 44 112 44 177c0 169 -95 259 -243 259c-147 0 -242 -90 -242 -259c0 -66 15 -125 45 -178c29 -53 72 -108 128 -166v-61h-253v59h180v2c-108 111 -169 215 -169 348c0 103 28 182 85 236c57 53 132 80 226 80
c95 0 170 -27 227 -80c56 -54 84 -133 84 -236c0 -133 -61 -237 -169 -348v-2h180z" />
    <glyph glyph-name="Iotadieresis" unicode="&#x3aa;" horiz-adv-x="267" 
d="M166 712v-712h-65v712h65zM194 916h61v-88h-61v88zM71 916v-88h-61v88h61z" />
    <glyph glyph-name="Upsilondieresis" unicode="&#x3ab;" horiz-adv-x="602" 
d="M597 712l-263 -408v-304h-66v304l-263 408h77l218 -345h2c53 85 94 149 121 191l97 154h77zM362 866h61v-88h-61v88zM239 866v-88h-61v88h61z" />
    <glyph glyph-name="alphatonos" unicode="&#x3ac;" horiz-adv-x="574" 
d="M530 47c9 0 17 1 24 4v-49c-14 -5 -30 -7 -48 -7c-52 0 -77 24 -84 87h-2c-27 -57 -89 -93 -162 -93c-131 0 -214 104 -214 266s83 266 214 266c75 0 136 -37 163 -94h2c1 28 4 55 8 81h62c-7 -45 -11 -105 -11 -180v-197c0 -65 12 -84 48 -84zM109 255
c0 -131 62 -214 159 -214c47 0 85 20 113 59s42 90 42 155s-14 117 -42 156s-66 58 -113 58c-97 0 -159 -83 -159 -214zM294 732h64l-58 -157h-51z" />
    <glyph glyph-name="epsilontonos" unicode="&#x3ad;" horiz-adv-x="480" 
d="M388 30c-35 -29 -83 -43 -144 -43c-121 0 -195 55 -195 146c0 62 34 104 101 126v2c-56 23 -87 59 -87 119c0 87 68 141 177 141c116 0 190 -61 190 -161h-65c0 69 -43 105 -122 105c-72 0 -114 -31 -114 -90c0 -55 53 -92 132 -92h51v-52h-51c-95 0 -146 -34 -146 -98
c0 -55 48 -90 129 -90c86 0 129 36 129 107h67c0 -51 -17 -91 -52 -120zM259 732h64l-58 -157h-51z" />
    <glyph glyph-name="etatonos" unicode="&#x3ae;" horiz-adv-x="572" 
d="M494 -185h-62v490c0 116 -45 161 -130 161c-81 0 -148 -61 -148 -165v-301h-62v370c0 68 -15 89 -48 89c-9 0 -17 -1 -24 -4v51c14 5 27 7 39 7c49 0 79 -24 87 -84h2c35 57 93 90 165 90c117 0 181 -71 181 -210v-494zM273 732h64l-58 -157h-51z" />
    <glyph glyph-name="iotatonos" unicode="&#x3af;" horiz-adv-x="259" 
d="M78 143v365h62v-363c0 -68 21 -95 73 -95c13 0 25 2 36 5v-53c-17 -4 -33 -6 -47 -6c-88 0 -124 43 -124 147zM127 732h64l-58 -157h-51z" />
    <glyph glyph-name="upsilondieresistonos" unicode="&#x3b0;" horiz-adv-x="564" 
d="M503 248c0 -168 -70 -261 -214 -261c-131 0 -198 58 -198 189v200c0 65 -12 83 -47 83c-9 0 -17 -1 -24 -4v51c12 5 26 7 41 7c65 0 93 -32 93 -127v-207c0 -96 44 -138 135 -138c101 0 152 69 152 208c0 97 -13 183 -39 259h61c27 -78 40 -165 40 -260zM222 575l39 141
h58l-48 -141h-49zM366 589v92h60v-92h-60zM109 681h60v-92h-60v92z" />
    <glyph glyph-name="alpha" unicode="&#x3b1;" horiz-adv-x="574" 
d="M554 51v-49c-14 -5 -30 -7 -48 -7c-52 0 -77 24 -84 87h-2c-27 -57 -89 -93 -162 -93c-131 0 -214 104 -214 266s83 266 214 266c75 0 136 -37 163 -94h2c1 28 4 55 8 81h62c-7 -45 -11 -105 -11 -180v-197c0 -65 12 -84 48 -84c9 0 17 1 24 4zM152 411
c-29 -39 -43 -91 -43 -156c0 -131 62 -214 159 -214c47 0 85 20 113 59s42 90 42 155s-14 117 -42 156s-66 58 -113 58c-49 0 -87 -19 -116 -58z" />
    <glyph glyph-name="beta" unicode="&#x3b2;" horiz-adv-x="572" 
d="M530 193c0 -63 -20 -112 -61 -148c-41 -37 -96 -55 -166 -55c-80 0 -132 25 -156 69h-2v-244h-62v659c0 167 71 251 210 251c123 0 196 -66 196 -173c0 -84 -46 -143 -118 -163v-2c95 -15 159 -78 159 -194zM145 477v-288c0 -89 52 -144 156 -144c103 0 165 57 165 154
c0 109 -70 157 -215 157h-17v58h17c117 0 175 48 175 133c0 77 -47 123 -132 123c-104 0 -149 -60 -149 -193z" />
    <glyph glyph-name="gamma" unicode="&#x3b3;" horiz-adv-x="505" 
d="M489 508c-10 -95 -30 -180 -61 -256s-78 -158 -140 -245v-13c0 -46 -5 -133 -11 -179h-62c6 46 11 133 11 179c0 52 -9 115 -28 188s-44 140 -76 201c-32 60 -55 76 -90 76c-9 0 -16 -1 -23 -3v51c13 4 27 6 41 6c49 0 80 -21 119 -96c27 -52 50 -108 68 -169
c17 -61 28 -117 33 -168h2c46 73 81 143 105 209c24 65 40 138 48 219h64z" />
    <glyph glyph-name="delta" unicode="&#x3b4;" horiz-adv-x="553" 
d="M508 225c0 -48 -9 -90 -28 -126c-39 -72 -111 -112 -203 -112c-140 0 -233 93 -233 238c0 129 68 220 188 261v2c-65 37 -92 56 -110 85c-9 14 -14 31 -14 52c0 65 47 97 141 97c74 0 144 -11 210 -33v-59c-66 25 -134 38 -204 38c-61 0 -83 -16 -83 -44
c0 -17 10 -32 31 -47c20 -15 56 -36 107 -63c136 -72 198 -156 198 -289zM156 373c-31 -39 -47 -89 -47 -148c0 -56 15 -101 46 -134s71 -50 122 -50c103 0 168 72 168 185c0 105 -50 174 -158 231c-57 -17 -100 -45 -131 -84z" />
    <glyph glyph-name="epsilon" unicode="&#x3b5;" horiz-adv-x="480" 
d="M440 150c0 -103 -73 -163 -196 -163c-121 0 -195 55 -195 146c0 62 34 104 101 126v2c-56 23 -87 59 -87 119c0 87 68 141 177 141c116 0 190 -61 190 -161h-65c0 69 -43 105 -122 105c-72 0 -114 -31 -114 -90c0 -55 53 -92 132 -92h51v-52h-51c-95 0 -146 -34 -146 -98
c0 -55 48 -90 129 -90c86 0 129 36 129 107h67z" />
    <glyph glyph-name="zeta" unicode="&#x3b6;" horiz-adv-x="439" 
d="M427 -51c0 -15 -2 -31 -6 -48c-5 -17 -11 -32 -19 -46h-57c14 27 21 53 21 80c0 47 -24 71 -104 79c-146 16 -219 88 -219 216c0 84 25 163 76 236s118 137 203 192v2h-252v52h338v-52c-188 -113 -300 -260 -300 -425c0 -101 47 -149 166 -162c109 -12 153 -53 153 -124z
" />
    <glyph glyph-name="eta" unicode="&#x3b7;" horiz-adv-x="572" 
d="M494 309v-494h-62v490c0 116 -45 161 -130 161c-81 0 -148 -61 -148 -165v-301h-62v370c0 68 -15 89 -48 89c-9 0 -17 -1 -24 -4v51c14 5 27 7 39 7c49 0 79 -24 87 -84h2c35 57 93 90 165 90c117 0 181 -71 181 -210z" />
    <glyph glyph-name="theta" unicode="&#x3b8;" horiz-adv-x="579" 
d="M503 554c19 -55 29 -121 29 -198c0 -231 -91 -369 -244 -369c-151 0 -242 138 -242 369s91 369 242 369c101 0 176 -60 215 -171zM161 595c-31 -51 -49 -122 -52 -213h359c-5 183 -71 289 -180 289c-53 0 -96 -25 -127 -76zM468 330h-359c7 -183 72 -289 179 -289
c109 0 175 106 180 289z" />
    <glyph glyph-name="iota" unicode="&#x3b9;" horiz-adv-x="259" 
d="M78 143v365h62v-363c0 -68 21 -95 73 -95c13 0 25 2 36 5v-53c-17 -4 -33 -6 -47 -6c-88 0 -124 43 -124 147z" />
    <glyph glyph-name="kappa" unicode="&#x3ba;" horiz-adv-x="503" 
d="M492 508v-55c-8 2 -16 3 -25 3c-27 0 -54 -9 -80 -26c-27 -18 -62 -51 -105 -100l-47 -53l270 -277h-86l-223 233l-51 -57v-176h-62v508h62v-250h2l115 130c88 100 130 124 199 124c9 0 19 -1 31 -4z" />
    <glyph glyph-name="lambda" unicode="&#x3bb;" horiz-adv-x="547" 
d="M537 52v-52c-11 -3 -20 -4 -29 -4c-59 0 -90 23 -128 125c-13 37 -41 112 -84 224l-33 86h-2l-198 -431h-68l236 511c-44 117 -78 152 -141 152c-19 0 -34 -2 -46 -7v52c13 6 30 9 53 9c94 0 138 -44 200 -203l139 -368c28 -76 51 -96 84 -96c5 0 10 1 17 2z" />
    <glyph glyph-name="mu" unicode="&#x3bc;" horiz-adv-x="568" 
d="M553 2c-13 -5 -29 -7 -47 -7c-53 0 -79 23 -84 82h-2c-27 -52 -85 -85 -153 -85c-57 0 -98 18 -122 53v-230h-62v693h62v-303c0 -115 43 -160 127 -160c80 0 147 61 147 165v298h62v-375c0 -65 12 -84 48 -84c9 0 17 1 24 4v-51z" />
    <glyph glyph-name="nu" unicode="&#x3bd;" horiz-adv-x="495" 
d="M474 508c3 -13 4 -27 4 -42c0 -38 -5 -76 -15 -113c-10 -38 -27 -84 -52 -138s-63 -126 -112 -215h-74l-123 365c-24 72 -42 93 -75 93c-6 0 -12 -1 -17 -2v50c9 4 21 6 35 6c56 0 85 -32 117 -128l106 -319h2c57 104 95 185 116 243c20 57 30 111 30 160
c0 14 -1 27 -3 40h61z" />
    <glyph glyph-name="xi" unicode="&#x3be;" horiz-adv-x="448" 
d="M428 -99c-5 -17 -11 -32 -19 -46h-57c14 27 21 53 21 80c0 48 -25 73 -105 80c-152 13 -225 74 -225 186c0 92 50 155 147 176v2c-65 19 -107 68 -107 136c0 65 33 116 93 143v2h-113v52h364v-52h-67c-139 0 -216 -51 -216 -142c0 -73 66 -113 161 -113h83v-52h-71
c-143 0 -208 -57 -208 -149c0 -81 49 -120 172 -131c108 -9 153 -52 153 -124c0 -15 -2 -31 -6 -48z" />
    <glyph glyph-name="omicron" unicode="&#x3bf;" horiz-adv-x="552" 
d="M276 -13c-72 0 -129 24 -170 72c-41 47 -62 112 -62 195s21 148 62 196c41 47 98 71 170 71s129 -24 170 -71c41 -48 62 -113 62 -196s-21 -148 -62 -195c-41 -48 -98 -72 -170 -72zM154 410c-30 -38 -45 -90 -45 -156c0 -132 63 -213 167 -213c105 0 168 81 168 213
s-63 213 -168 213c-52 0 -93 -19 -122 -57z" />
    <glyph glyph-name="pi" unicode="&#x3c0;" horiz-adv-x="642" 
d="M623 508v-52h-125v-306c0 -76 25 -101 74 -101c9 0 19 1 30 4v-51c-14 -5 -31 -7 -50 -7c-77 0 -116 41 -116 149v312h-252v-456h-62v456h-109v52h610z" />
    <glyph glyph-name="rho" unicode="&#x3c1;" horiz-adv-x="565" 
d="M521 254c0 -82 -20 -147 -61 -194s-96 -71 -165 -71c-75 0 -126 28 -153 79h-2v-253h-62v439c0 163 84 267 214 267c71 0 127 -24 168 -71c41 -48 61 -113 61 -196zM140 254c0 -65 14 -117 41 -154c27 -38 64 -57 111 -57c103 0 165 79 165 211c0 133 -62 213 -165 213
c-95 0 -152 -81 -152 -213z" />
    <glyph glyph-name="sigma1" unicode="&#x3c2;" horiz-adv-x="497" 
d="M426 -51c0 -15 -2 -31 -6 -48c-5 -17 -11 -32 -18 -46h-58c14 27 21 53 21 80c0 56 -24 84 -105 93c-146 17 -219 98 -219 243c0 156 85 250 225 250c127 0 201 -73 210 -190h-64c-7 83 -59 136 -146 136c-100 0 -160 -71 -160 -191c0 -117 47 -174 166 -189
c109 -13 154 -59 154 -138z" />
    <glyph glyph-name="sigma" unicode="&#x3c3;" horiz-adv-x="581" 
d="M568 508v-52h-151v-2c57 -36 91 -108 91 -208c0 -80 -21 -143 -62 -189c-42 -47 -99 -70 -170 -70s-128 23 -169 70c-42 47 -63 110 -63 191s21 144 63 191c41 46 98 69 169 69h292zM110 249c0 -131 62 -208 166 -208c107 0 169 77 169 208s-62 208 -169 208
c-104 0 -166 -77 -166 -208z" />
    <glyph glyph-name="tau" unicode="&#x3c4;" horiz-adv-x="466" 
d="M13 456v52h440v-52h-196v-306c0 -76 25 -101 74 -101c9 0 19 1 30 4v-51c-14 -5 -31 -7 -50 -7c-77 0 -116 41 -116 149v312h-182z" />
    <glyph glyph-name="upsilon" unicode="&#x3c5;" horiz-adv-x="564" 
d="M463 508c27 -78 40 -165 40 -260c0 -168 -70 -261 -214 -261c-131 0 -198 58 -198 189v200c0 65 -12 83 -47 83c-9 0 -17 -1 -24 -4v51c12 5 26 7 41 7c65 0 93 -32 93 -127v-207c0 -96 44 -138 135 -138c101 0 152 69 152 208c0 97 -13 183 -39 259h61z" />
    <glyph glyph-name="phi" unicode="&#x3c6;" horiz-adv-x="735" 
d="M690 254c0 -54 -12 -101 -35 -140c-48 -80 -138 -126 -257 -127v-172h-61v172c-180 2 -293 105 -293 267s113 265 293 267v141h61v-141c179 -2 292 -105 292 -267zM169 409c-41 -37 -61 -89 -61 -155c0 -132 85 -210 229 -213v426c-72 -1 -128 -21 -168 -58zM398 41
c144 1 228 81 228 213s-84 212 -228 213v-426z" />
    <glyph glyph-name="chi" unicode="&#x3c7;" horiz-adv-x="558" 
d="M547 -131v-52c-15 -5 -32 -7 -51 -7c-35 0 -62 8 -83 24s-42 47 -61 93l-76 179h-2l-188 -291h-71l230 346l-92 211c-34 77 -53 91 -103 91c-16 0 -30 -2 -41 -7v51c13 7 30 10 50 10c37 0 66 -8 87 -24c21 -17 41 -47 60 -91l77 -183h2l184 289h72l-224 -348l88 -204
c34 -79 55 -92 101 -92c13 0 26 2 41 5z" />
    <glyph glyph-name="psi" unicode="&#x3c8;" horiz-adv-x="741" 
d="M638 508c27 -77 41 -163 41 -259c0 -163 -89 -254 -272 -259v-175h-62v175c-176 4 -267 73 -267 222v296h62v-287c0 -119 68 -173 205 -177v618h62v-618c140 6 210 75 210 208c0 95 -14 180 -41 256h62z" />
    <glyph glyph-name="omega" unicode="&#x3c9;" horiz-adv-x="756" 
d="M678 373c11 -49 16 -98 16 -149c0 -158 -58 -237 -173 -237c-74 0 -122 30 -143 91h-1c-21 -60 -66 -91 -142 -91c-115 0 -173 79 -173 237c0 101 22 200 65 284h64c-43 -81 -66 -179 -66 -278c0 -126 40 -189 119 -189c69 0 103 45 103 134v204h62v-204
c0 -89 34 -134 103 -134c79 0 118 63 118 189c0 99 -23 197 -66 278h65c21 -42 38 -87 49 -135z" />
    <glyph glyph-name="iotadieresis" unicode="&#x3ca;" horiz-adv-x="259" 
d="M249 2c-17 -4 -33 -6 -47 -6c-88 0 -124 43 -124 147v365h62v-363c0 -68 21 -95 73 -95c13 0 25 2 36 5v-53zM170 712h61v-88h-61v88zM-14 712h61v-88h-61v88z" />
    <glyph glyph-name="upsilondieresis" unicode="&#x3cb;" horiz-adv-x="564" 
d="M503 248c0 -168 -70 -261 -214 -261c-131 0 -198 58 -198 189v200c0 65 -12 83 -47 83c-9 0 -17 -1 -24 -4v51c12 5 26 7 41 7c65 0 93 -32 93 -127v-207c0 -96 44 -138 135 -138c101 0 152 69 152 208c0 97 -13 183 -39 259h61c27 -78 40 -165 40 -260zM389 712v-88h-61
v88h61zM144 712h61v-88h-61v88z" />
    <glyph glyph-name="omicrontonos" unicode="&#x3cc;" horiz-adv-x="552" 
d="M446 59c-41 -48 -98 -72 -170 -72s-129 24 -170 72c-41 47 -62 112 -62 195s21 148 62 196c41 47 98 71 170 71s129 -24 170 -71c41 -48 62 -113 62 -196s-21 -148 -62 -195zM154 98c29 -38 70 -57 122 -57c105 0 168 81 168 213s-63 213 -168 213
c-104 0 -167 -81 -167 -213c0 -66 15 -118 45 -156zM293 732h64l-58 -157h-51z" />
    <glyph glyph-name="upsilontonos" unicode="&#x3cd;" horiz-adv-x="564" 
d="M503 248c0 -168 -70 -261 -214 -261c-131 0 -198 58 -198 189v200c0 65 -12 83 -47 83c-9 0 -17 -1 -24 -4v51c12 5 26 7 41 7c65 0 93 -32 93 -127v-207c0 -96 44 -138 135 -138c101 0 152 69 152 208c0 97 -13 183 -39 259h61c27 -78 40 -165 40 -260zM285 732h64
l-58 -157h-51z" />
    <glyph glyph-name="omegatonos" unicode="&#x3ce;" horiz-adv-x="756" 
d="M694 224c0 -158 -58 -237 -173 -237c-74 0 -122 30 -143 91h-1c-21 -60 -66 -91 -142 -91c-115 0 -173 79 -173 237c0 101 22 200 65 284h64c-43 -81 -66 -179 -66 -278c0 -126 40 -189 119 -189c69 0 103 45 103 134v204h62v-204c0 -89 34 -134 103 -134
c79 0 118 63 118 189c0 99 -23 197 -66 278h65c43 -84 65 -183 65 -284zM351 575l45 157h64l-58 -157h-51z" />
    <glyph glyph-name="uni0400" unicode="&#x400;" horiz-adv-x="610" 
d="M101 712h443v-59h-378v-258h359v-59h-359v-277h390v-59h-455v712zM290 895l90 -135h-59l-115 135h84z" />
    <glyph glyph-name="afii10023" unicode="&#x401;" horiz-adv-x="610" 
d="M556 0h-455v712h443v-59h-378v-258h359v-59h-359v-277h390v-59zM383 778v88h61v-88h-61zM199 778v88h61v-88h-61z" />
    <glyph glyph-name="afii10051" unicode="&#x402;" horiz-adv-x="760" 
d="M668 389c41 -41 62 -97 62 -170c0 -70 -22 -126 -65 -167s-102 -62 -175 -62c-35 0 -63 3 -84 10v60c22 -7 50 -11 83 -11c109 0 176 66 176 170c0 111 -61 171 -177 171c-57 0 -111 -14 -160 -41v-349h-65v653h-253v59h572v-59h-254v-243c50 26 104 39 162 39
c77 0 136 -20 178 -60z" />
    <glyph glyph-name="afii10052" unicode="&#x403;" horiz-adv-x="478" 
d="M101 0v712h367v-59h-302v-653h-65zM317 895h84l-115 -135h-59z" />
    <glyph glyph-name="afii10053" unicode="&#x404;" horiz-adv-x="684" 
d="M591 603c23 -38 35 -81 38 -129h-69c-5 58 -27 104 -64 139c-38 34 -86 51 -145 51c-69 0 -125 -25 -166 -74c-42 -49 -65 -117 -70 -204h349v-59h-349c4 -87 27 -156 69 -205c41 -49 96 -74 165 -74c58 0 106 18 145 53s62 82 70 141h68c-7 -77 -36 -139 -86 -185
c-51 -47 -116 -70 -197 -70c-186 0 -304 141 -304 369s117 369 306 369c111 0 195 -46 240 -122z" />
    <glyph glyph-name="afii10054" unicode="&#x405;" horiz-adv-x="599" 
d="M543 190c0 -62 -22 -111 -65 -148c-44 -37 -103 -55 -178 -55c-163 0 -255 87 -255 250h65c0 -129 70 -190 190 -190c115 0 177 51 177 142c0 57 -28 89 -79 110c-26 10 -62 21 -109 33c-107 27 -166 49 -202 101c-19 25 -28 60 -28 103c0 112 84 189 223 189
c164 0 248 -79 248 -234h-66c0 117 -61 175 -182 175c-100 0 -157 -49 -157 -129c4 -85 50 -107 180 -139c108 -27 169 -49 209 -101c19 -27 29 -62 29 -107z" />
    <glyph glyph-name="afii10055" unicode="&#x406;" horiz-adv-x="267" 
d="M166 712v-712h-65v712h65z" />
    <glyph glyph-name="afii10056" unicode="&#x407;" horiz-adv-x="267" 
d="M166 712v-712h-65v712h65zM194 866h61v-88h-61v88zM71 866v-88h-61v88h61z" />
    <glyph glyph-name="afii10057" unicode="&#x408;" horiz-adv-x="337" 
d="M56 57c80 0 120 43 120 138v517h66v-519c0 -131 -66 -197 -185 -197c-16 0 -30 2 -42 5v60c14 -3 28 -4 41 -4z" />
    <glyph glyph-name="afii10058" unicode="&#x409;" horiz-adv-x="1033" 
d="M940 359c42 -37 63 -88 63 -152s-21 -114 -63 -151s-102 -56 -180 -56h-232v653h-286c-4 -185 -13 -324 -26 -417c-14 -93 -34 -157 -61 -190s-64 -50 -113 -50c-13 0 -23 1 -30 4v56c7 -1 13 -2 18 -2c37 0 66 16 85 49c19 32 34 94 44 186c9 91 16 232 20 423h414v-297
h167c78 0 138 -19 180 -56zM593 356v-297h166c115 0 176 55 176 148c0 95 -61 149 -176 149h-166z" />
    <glyph glyph-name="afii10059" unicode="&#x40a;" horiz-adv-x="1070" 
d="M978 359c42 -37 63 -88 63 -152c0 -128 -88 -207 -243 -207h-233v354h-399v-354h-65v712h65v-299h399v299h65v-297h168c78 0 138 -19 180 -56zM630 59h166c115 0 176 55 176 148c0 95 -61 149 -176 149h-166v-297z" />
    <glyph glyph-name="afii10060" unicode="&#x40b;" horiz-adv-x="758" 
d="M720 220v-220h-65v215c0 103 -54 158 -157 158c-61 0 -118 -9 -170 -26v-347h-65v653h-253v59h572v-59h-254v-247c56 17 115 26 177 26c139 0 215 -76 215 -212z" />
    <glyph glyph-name="afii10061" unicode="&#x40c;" horiz-adv-x="607" 
d="M168 387l314 325h88l-331 -340l363 -372h-91l-343 357h-2v-357h-65v712h65v-325h2zM348 895h84l-115 -135h-59z" />
    <glyph glyph-name="uni040D" unicode="&#x40d;" horiz-adv-x="745" 
d="M644 0h-65v291c0 158 0 277 1 356h-2c-20 -33 -49 -84 -88 -152l-290 -495h-99v712h65v-291l-1 -356h2c20 33 49 84 88 152l290 495h99v-712zM256 895h84l90 -135h-59z" />
    <glyph glyph-name="afii10062" unicode="&#x40e;" horiz-adv-x="633" 
d="M627 712l-286 -578c-51 -101 -108 -141 -188 -141c-23 0 -42 2 -57 7v58c13 -4 30 -6 49 -6c61 0 100 28 137 101l-276 559h72l116 -241c53 -112 94 -196 121 -252h2l238 493h72zM222 895c8 -57 42 -90 95 -90s86 31 95 90h51c-8 -88 -61 -139 -146 -139
s-138 51 -146 139h51z" />
    <glyph glyph-name="afii10145" unicode="&#x40f;" horiz-adv-x="721" 
d="M101 712h65v-653h389v653h65v-712h-229v-160h-62v160h-228v712z" />
    <glyph glyph-name="afii10017" unicode="&#x410;" horiz-adv-x="664" 
d="M288 712h89l281 -712h-70l-89 230h-334l-89 -230h-70zM188 290h287l-142 369h-2l-12 -31c-35 -91 -69 -179 -102 -264z" />
    <glyph glyph-name="afii10018" unicode="&#x411;" horiz-adv-x="615" 
d="M534 712v-59h-368v-247h179c144 0 229 -78 229 -203s-85 -203 -229 -203h-244v712h433zM334 347h-168v-288h168c109 0 172 53 172 144s-63 144 -172 144z" />
    <glyph glyph-name="afii10019" unicode="&#x412;" horiz-adv-x="615" 
d="M567 196c0 -120 -85 -196 -229 -196h-237v712h221c152 0 230 -69 230 -180c0 -79 -41 -139 -116 -166v-2c80 -20 131 -84 131 -168zM166 335v-278h164c112 0 169 48 169 140c0 88 -58 138 -186 138h-147zM313 392c120 0 173 50 173 131c0 88 -57 132 -170 132h-150v-263
h147z" />
    <glyph glyph-name="afii10020" unicode="&#x413;" horiz-adv-x="478" 
d="M101 712h367v-59h-302v-653h-65v712z" />
    <glyph glyph-name="afii10021" unicode="&#x414;" horiz-adv-x="699" 
d="M675 59v-219h-62v160h-536v-160h-62v219h65c26 43 46 112 61 209s24 245 27 444h429v-653h78zM207 271c-13 -94 -31 -165 -52 -212h377v594h-301c-3 -161 -11 -289 -24 -382z" />
    <glyph glyph-name="afii10022" unicode="&#x415;" horiz-adv-x="610" 
d="M101 712h443v-59h-378v-258h359v-59h-359v-277h390v-59h-455v712z" />
    <glyph glyph-name="afii10024" unicode="&#x416;" horiz-adv-x="856" 
d="M851 0h-84l-304 364h-2v-364h-66v364h-2l-304 -364h-84l314 372l-285 340h81l278 -333h2v333h66v-333h2l278 333h81l-286 -340z" />
    <glyph glyph-name="afii10025" unicode="&#x417;" horiz-adv-x="603" 
d="M555 185c0 -39 -10 -74 -31 -103c-43 -60 -123 -95 -227 -95c-163 0 -260 83 -260 218h72c0 -103 65 -157 188 -157c117 0 186 54 186 139c0 92 -76 144 -208 144h-57v60h57c120 0 195 53 195 137c0 83 -69 135 -178 135c-113 0 -178 -54 -178 -154h-71
c0 67 23 120 69 158c45 38 106 57 183 57c76 0 136 -17 180 -51c43 -35 65 -81 65 -139c0 -89 -47 -140 -132 -169v-2c96 -28 147 -81 147 -178z" />
    <glyph glyph-name="afii10026" unicode="&#x418;" horiz-adv-x="745" 
d="M101 712h65v-291l-1 -356h2c20 33 49 84 88 152l290 495h99v-712h-65v291c0 158 0 277 1 356h-2c-20 -33 -49 -84 -88 -152l-290 -495h-99v712z" />
    <glyph glyph-name="afii10027" unicode="&#x419;" horiz-adv-x="745" 
d="M644 0h-65v291c0 158 0 277 1 356h-2c-20 -33 -49 -84 -88 -152l-290 -495h-99v712h65v-291l-1 -356h2c20 33 49 84 88 152l290 495h99v-712zM277 895c8 -57 42 -90 95 -90s86 31 95 90h51c-8 -88 -61 -139 -146 -139s-138 51 -146 139h51z" />
    <glyph glyph-name="afii10028" unicode="&#x41a;" horiz-adv-x="607" 
d="M101 0v712h65v-325h2l314 325h88l-331 -340l363 -372h-91l-343 357h-2v-357h-65z" />
    <glyph glyph-name="afii10029" unicode="&#x41b;" horiz-adv-x="694" 
d="M12 0v56c7 -1 13 -2 18 -2c37 0 66 16 85 49c19 32 34 94 44 186c9 91 16 232 20 423h414v-712h-65v653h-286c-4 -185 -13 -324 -26 -417c-14 -93 -34 -157 -61 -190s-64 -50 -113 -50c-13 0 -23 1 -30 4z" />
    <glyph glyph-name="afii10030" unicode="&#x41c;" horiz-adv-x="909" 
d="M808 0h-65v365c0 123 0 215 1 276h-2l-250 -641h-76l-249 641h-2c1 -61 1 -153 1 -276v-365h-65v712h105l141 -364l106 -278h2l248 642h105v-712z" />
    <glyph glyph-name="afii10031" unicode="&#x41d;" horiz-adv-x="731" 
d="M166 712v-313h399v313h65v-712h-65v340h-399v-340h-65v712h65z" />
    <glyph glyph-name="afii10032" unicode="&#x41e;" horiz-adv-x="724" 
d="M678 356c0 -224 -123 -369 -316 -369c-192 0 -317 146 -317 369s125 369 317 369c193 0 316 -145 316 -369zM114 356c0 -188 98 -308 248 -308s248 122 248 308s-98 308 -248 308s-248 -120 -248 -308z" />
    <glyph glyph-name="afii10033" unicode="&#x41f;" horiz-adv-x="721" 
d="M101 712h519v-712h-65v653h-389v-653h-65v712z" />
    <glyph glyph-name="afii10034" unicode="&#x420;" horiz-adv-x="606" 
d="M101 0v712h232c156 0 243 -79 243 -207s-87 -208 -243 -208h-167v-297h-65zM332 356c115 0 176 54 176 149c0 93 -61 148 -176 148h-166v-297h166z" />
    <glyph glyph-name="afii10035" unicode="&#x421;" horiz-adv-x="683" 
d="M628 474h-68c-5 58 -27 104 -64 139c-38 34 -86 51 -145 51c-147 0 -237 -117 -237 -308s90 -308 235 -308c58 0 106 18 145 53s62 82 70 141h68c-16 -154 -121 -255 -283 -255c-186 0 -304 141 -304 369s117 369 306 369c166 0 269 -107 277 -251z" />
    <glyph glyph-name="afii10036" unicode="&#x422;" horiz-adv-x="592" 
d="M10 712h572v-59h-254v-653h-65v653h-253v59z" />
    <glyph glyph-name="afii10037" unicode="&#x423;" horiz-adv-x="633" 
d="M6 712h72l116 -241c53 -112 94 -196 121 -252h2l238 493h72l-286 -578c-51 -101 -108 -141 -188 -141c-23 0 -42 2 -57 7v58c13 -4 30 -6 49 -6c61 0 100 28 137 101z" />
    <glyph glyph-name="afii10038" unicode="&#x424;" horiz-adv-x="809" 
d="M725 512c26 -45 39 -97 39 -156s-13 -111 -39 -155c-52 -89 -153 -140 -288 -144v-80h-65v80c-204 6 -327 120 -327 299s123 293 327 299v80h65v-80c135 -4 236 -55 288 -143zM437 595v-478c80 3 143 26 190 69c46 43 69 99 69 170s-23 127 -69 170
c-47 43 -110 66 -190 69zM183 526c-46 -43 -69 -99 -69 -170s23 -127 69 -170s109 -66 189 -69v478c-80 -3 -143 -26 -189 -69z" />
    <glyph glyph-name="afii10039" unicode="&#x425;" horiz-adv-x="617" 
d="M268 367l-244 345h79l204 -292h2l205 292h79l-244 -345l258 -367h-80l-218 313h-2l-218 -313h-79z" />
    <glyph glyph-name="afii10040" unicode="&#x426;" horiz-adv-x="723" 
d="M636 0h-535v712h65v-653h389v653h65v-653h78v-219h-62v160z" />
    <glyph glyph-name="afii10041" unicode="&#x427;" horiz-adv-x="625" 
d="M38 712h65v-212c0 -103 61 -158 177 -158c64 0 124 9 179 26v344h66v-712h-66v309c-59 -17 -122 -26 -188 -26c-151 0 -233 75 -233 210v219z" />
    <glyph glyph-name="afii10042" unicode="&#x428;" horiz-adv-x="1017" 
d="M101 0v712h65v-653h310v653h65v-653h310v653h65v-712h-815z" />
    <glyph glyph-name="afii10043" unicode="&#x429;" horiz-adv-x="1018" 
d="M101 712h65v-653h310v653h65v-653h310v653h65v-653h78v-219h-62v160h-831v712z" />
    <glyph glyph-name="afii10044" unicode="&#x42a;" horiz-adv-x="738" 
d="M709 207c0 -64 -21 -114 -63 -151c-43 -37 -103 -56 -181 -56h-232v653h-223v59h288v-297h167c156 0 244 -80 244 -208zM298 59h166c115 0 176 55 176 148c0 95 -61 149 -176 149h-166v-297z" />
    <glyph glyph-name="afii10045" unicode="&#x42b;" horiz-adv-x="873" 
d="M333 0h-232v712h65v-297h167c156 0 243 -80 243 -208s-87 -207 -243 -207zM166 356v-297h166c115 0 176 55 176 148c0 95 -61 149 -176 149h-166zM772 712v-712h-65v712h65z" />
    <glyph glyph-name="afii10046" unicode="&#x42c;" horiz-adv-x="606" 
d="M101 0v712h65v-297h167c156 0 243 -80 243 -208s-87 -207 -243 -207h-232zM166 356v-297h166c115 0 176 55 176 148c0 95 -61 149 -176 149h-166z" />
    <glyph glyph-name="afii10047" unicode="&#x42d;" horiz-adv-x="684" 
d="M638 356c0 -76 -12 -142 -36 -197c-49 -111 -143 -172 -267 -172c-81 0 -146 23 -197 70c-51 46 -80 108 -87 185h69c7 -59 30 -106 69 -141s87 -53 146 -53c69 0 124 25 166 74c41 49 64 118 68 205h-350v59h350c-5 87 -28 155 -70 204s-97 74 -166 74
c-59 0 -107 -17 -145 -52s-60 -81 -65 -138h-68c8 144 111 251 278 251c188 0 305 -141 305 -369z" />
    <glyph glyph-name="afii10048" unicode="&#x42e;" horiz-adv-x="959" 
d="M876 551c25 -55 37 -120 37 -195c0 -224 -118 -369 -300 -369c-174 0 -292 133 -300 340h-147v-327h-65v712h65v-326h147c10 207 125 339 300 339c121 0 214 -63 263 -174zM410 519c-19 -47 -29 -101 -29 -163c0 -186 91 -308 232 -308s232 122 232 308s-91 308 -232 308
c-93 0 -166 -53 -203 -145z" />
    <glyph glyph-name="afii10049" unicode="&#x42f;" horiz-adv-x="613" 
d="M512 712v-712h-65v314h-158c-12 0 -28 1 -48 2l-157 -316h-75l169 329c-89 28 -133 93 -133 186c0 125 83 197 244 197h223zM112 513c0 -84 58 -140 173 -140h162v280h-157c-119 0 -178 -47 -178 -140z" />
    <glyph glyph-name="afii10065" unicode="&#x430;" horiz-adv-x="524" 
d="M457 0h-58c-5 23 -7 48 -7 77h-2c-35 -58 -95 -87 -181 -87c-51 0 -93 14 -124 41c-32 27 -48 62 -48 105c0 87 52 133 193 156c49 8 101 14 156 18v24c0 91 -50 134 -130 134c-83 0 -129 -44 -133 -113h-65c7 99 78 166 198 166c119 0 190 -66 190 -195v-201
c0 -48 4 -90 11 -125zM135 69c21 -18 50 -27 87 -27c47 0 89 16 117 45c18 19 30 37 37 56c7 18 10 43 10 76v39c-43 -3 -93 -9 -148 -18c-100 -15 -135 -43 -135 -100c0 -30 11 -54 32 -71z" />
    <glyph glyph-name="afii10066" unicode="&#x431;" horiz-adv-x="562" 
d="M498 725v-59c-25 -7 -57 -12 -96 -16s-62 -6 -68 -7c-166 -20 -206 -77 -230 -252h2c28 72 85 116 177 116c142 0 235 -98 235 -257c0 -82 -21 -146 -62 -193s-98 -70 -170 -70c-147 0 -233 105 -233 284c3 323 75 408 270 429c81 8 140 16 175 25zM156 401
c-26 -36 -39 -84 -39 -145c0 -135 64 -215 169 -215s167 76 167 205c0 131 -66 209 -171 209c-58 0 -100 -18 -126 -54z" />
    <glyph glyph-name="afii10067" unicode="&#x432;" horiz-adv-x="516" 
d="M440 219c18 -21 27 -46 27 -77c0 -89 -65 -142 -176 -142h-208v508h191c119 0 182 -51 182 -132c0 -59 -28 -97 -85 -115v-2c28 -6 51 -19 69 -40zM145 52h127c86 0 129 30 129 91s-43 91 -129 91h-127v-182zM265 456h-120v-172h120c83 0 125 29 125 86s-42 86 -125 86z
" />
    <glyph glyph-name="afii10068" unicode="&#x433;" horiz-adv-x="405" 
d="M83 0v508h308v-52h-246v-456h-62z" />
    <glyph glyph-name="afii10069" unicode="&#x434;" horiz-adv-x="556" 
d="M70 52c20 29 36 76 49 143c12 66 21 170 26 313h328v-456h67v-212h-62v160h-403v-160h-62v212h57zM204 456c-9 -200 -31 -335 -64 -404h271v404h-207z" />
    <glyph glyph-name="afii10070" unicode="&#x435;" horiz-adv-x="539" 
d="M495 242h-388c3 -131 72 -202 169 -202c81 0 135 44 151 111h64c-9 -47 -31 -86 -68 -117s-86 -47 -147 -47c-72 0 -129 25 -170 75c-41 49 -62 116 -62 201c0 150 87 258 228 258c113 0 192 -68 215 -181c5 -24 8 -57 8 -98zM435 293c-7 111 -70 175 -163 175
s-159 -67 -164 -175h327z" />
    <glyph glyph-name="afii10072" unicode="&#x436;" horiz-adv-x="652" 
d="M659 0h-86l-214 271h-2v-271h-62v271h-2l-214 -271h-86l233 280l-208 228h84l191 -222h2v222h62v-222h2l191 222h84l-208 -228z" />
    <glyph glyph-name="afii10073" unicode="&#x437;" horiz-adv-x="477" 
d="M413 380c0 -30 -7 -54 -22 -73s-36 -35 -65 -46v-2c67 -22 101 -64 101 -126c0 -91 -74 -146 -194 -146c-124 0 -196 60 -196 163h66c0 -71 43 -107 130 -107c81 0 129 35 129 90c0 64 -52 98 -147 98h-51v52h51c79 0 133 37 133 92c0 59 -42 90 -114 90
c-80 0 -123 -36 -123 -105h-64c0 100 73 161 190 161c109 0 176 -54 176 -141z" />
    <glyph glyph-name="afii10074" unicode="&#x438;" horiz-adv-x="598" 
d="M147 66h2c28 49 54 92 77 129l190 313h99v-508h-65v442h-2c-28 -49 -54 -92 -77 -129l-189 -313h-99v508h65v-199c0 -108 0 -189 -1 -243z" />
    <glyph glyph-name="afii10075" unicode="&#x439;" horiz-adv-x="598" 
d="M515 0h-65v442h-2c-28 -49 -54 -92 -77 -129l-189 -313h-99v508h65v-199c0 -108 0 -189 -1 -243h2c28 49 54 92 77 129l190 313h99v-508zM204 712c8 -57 42 -89 95 -89s86 30 95 89h51c-8 -88 -61 -139 -146 -139s-138 51 -146 139h51z" />
    <glyph glyph-name="afii10076" unicode="&#x43a;" horiz-adv-x="496" 
d="M145 0h-62v508h62v-213h2l226 213h84l-246 -228l275 -280h-86l-253 262h-2v-262z" />
    <glyph glyph-name="afii10077" unicode="&#x43b;" horiz-adv-x="540" 
d="M6 0v51c7 -1 13 -2 20 -2c27 0 48 11 63 34s26 67 33 132s12 162 14 293h321v-508h-62v456h-200c-8 -386 -47 -454 -158 -459c-13 0 -23 1 -31 3z" />
    <glyph glyph-name="afii10078" unicode="&#x43c;" horiz-adv-x="734" 
d="M651 508v-508h-61v446h-2l-183 -446h-76l-103 252c-28 66 -55 131 -80 194h-2v-446h-61v508h103l99 -242c18 -43 45 -110 81 -200h2l81 200l100 242h102z" />
    <glyph glyph-name="afii10079" unicode="&#x43d;" horiz-adv-x="576" 
d="M83 508h62v-228h286v228h62v-508h-62v228h-286v-228h-62v508z" />
    <glyph glyph-name="afii10080" unicode="&#x43e;" horiz-adv-x="552" 
d="M106 59c-41 47 -62 112 -62 195s21 148 62 196c41 47 98 71 170 71s129 -24 170 -71c41 -48 62 -113 62 -196s-21 -148 -62 -195c-41 -48 -98 -72 -170 -72s-129 24 -170 72zM109 254c0 -132 63 -213 167 -213c105 0 168 81 168 213s-63 213 -168 213
c-104 0 -167 -81 -167 -213z" />
    <glyph glyph-name="afii10081" unicode="&#x43f;" horiz-adv-x="568" 
d="M83 508h402v-508h-62v456h-278v-456h-62v508z" />
    <glyph glyph-name="afii10082" unicode="&#x440;" horiz-adv-x="565" 
d="M521 255c0 -162 -83 -266 -214 -266c-72 0 -133 35 -160 88h-2v-262h-62v693h62v-75h2c27 53 88 88 160 88c131 0 214 -104 214 -266zM142 255c0 -65 14 -116 42 -155s66 -59 113 -59c97 0 159 83 159 214s-62 214 -159 214c-47 0 -85 -19 -113 -58s-42 -91 -42 -156z
" />
    <glyph glyph-name="afii10083" unicode="&#x441;" horiz-adv-x="521" 
d="M449 82c-36 -59 -98 -95 -175 -95c-71 0 -127 24 -168 72c-41 47 -62 112 -62 195s21 148 62 196c41 47 97 71 168 71c57 0 105 -17 143 -52c37 -35 58 -80 63 -136h-65c-7 79 -64 134 -141 134c-101 0 -163 -81 -163 -213c0 -133 62 -213 163 -213c38 0 70 14 97 41
c26 27 41 60 44 99h65c-3 -37 -14 -70 -31 -99z" />
    <glyph glyph-name="afii10084" unicode="&#x442;" horiz-adv-x="439" 
d="M7 508l425 -1v-51h-180v-456h-64v456h-181v52z" />
    <glyph glyph-name="afii10085" unicode="&#x443;" horiz-adv-x="456" 
d="M54 -134c78 3 96 20 141 134l-200 508h67l165 -429h2l165 429h67l-210 -532c-56 -134 -93 -162 -196 -165c-15 0 -27 1 -37 4v55c10 -3 22 -4 36 -4z" />
    <glyph glyph-name="afii10086" unicode="&#x444;" horiz-adv-x="770" 
d="M44 255c0 162 81 266 204 266c40 0 75 -14 106 -41v232h62v-232c31 27 66 41 106 41c124 0 204 -104 204 -266s-80 -266 -204 -266c-40 0 -75 13 -106 38v-212h-62v212c-31 -25 -66 -38 -106 -38c-123 0 -204 104 -204 266zM621 100c27 39 41 90 41 155s-14 117 -41 156
s-64 58 -109 58c-37 0 -69 -15 -96 -45v-341c27 -28 59 -42 96 -42c45 0 82 20 109 59zM109 255c0 -65 14 -116 41 -155s64 -59 109 -59c37 0 68 14 95 42v341c-27 30 -58 45 -95 45c-45 0 -82 -19 -109 -58s-41 -91 -41 -156z" />
    <glyph glyph-name="afii10087" unicode="&#x445;" horiz-adv-x="467" 
d="M196 266l-178 242h76l138 -198h2l139 198h75l-178 -242l197 -266h-77l-156 219h-2l-156 -219h-76z" />
    <glyph glyph-name="afii10088" unicode="&#x446;" horiz-adv-x="569" 
d="M83 0v508h62v-456h278v456h62v-456h67v-212h-62v160h-407z" />
    <glyph glyph-name="afii10089" unicode="&#x447;" horiz-adv-x="503" 
d="M33 508h62v-152c0 -72 46 -112 131 -112c47 0 91 7 132 21v243h62v-508h-62v211c-43 -13 -90 -20 -139 -20c-120 0 -186 58 -186 159v158z" />
    <glyph glyph-name="afii10090" unicode="&#x448;" horiz-adv-x="829" 
d="M83 508h62v-456h238v456h62v-456h239v456h62v-508h-663v508z" />
    <glyph glyph-name="afii10091" unicode="&#x449;" horiz-adv-x="829" 
d="M83 508h62v-456h238v456h62v-456h239v456h62v-456h57v-212h-62v160h-658v508z" />
    <glyph glyph-name="afii10092" unicode="&#x44a;" horiz-adv-x="577" 
d="M7 508h222v-200h130c121 0 190 -58 190 -154s-69 -154 -190 -154h-192v456h-160v52zM229 52h133c82 0 123 34 123 102s-41 102 -123 102h-133v-204z" />
    <glyph glyph-name="afii10093" unicode="&#x44b;" horiz-adv-x="691" 
d="M83 508h62v-200h130c121 0 190 -58 190 -154s-69 -154 -190 -154h-192v508zM145 256v-204h133c82 0 123 34 123 102s-41 102 -123 102h-133zM608 0h-62v508h62v-508z" />
    <glyph glyph-name="afii10094" unicode="&#x44c;" horiz-adv-x="502" 
d="M275 0h-192v508h62v-200h130c121 0 190 -58 190 -154s-69 -154 -190 -154zM278 256h-133v-204h133c82 0 123 34 123 102s-41 102 -123 102z" />
    <glyph glyph-name="afii10095" unicode="&#x44d;" horiz-adv-x="521" 
d="M476 254c0 -83 -20 -148 -61 -195c-41 -48 -97 -72 -168 -72c-116 0 -197 84 -207 194h65c3 -39 18 -72 45 -99s59 -41 97 -41c96 0 155 72 162 191h-249v52h249c-9 115 -69 183 -162 183c-81 0 -136 -65 -142 -134h-65c10 101 87 188 207 188c71 0 127 -24 168 -71
c41 -48 61 -113 61 -196z" />
    <glyph glyph-name="afii10096" unicode="&#x44e;" horiz-adv-x="760" 
d="M654 450c41 -48 62 -113 62 -196s-21 -148 -62 -195c-41 -48 -98 -72 -170 -72c-136 0 -222 89 -231 240h-108v-227h-62v508h62v-228l108 1c9 151 95 240 231 240c72 0 129 -24 170 -71zM317 254c0 -132 63 -213 167 -213c105 0 168 81 168 213s-63 213 -168 213
c-52 0 -93 -19 -122 -57c-30 -38 -45 -90 -45 -156z" />
    <glyph glyph-name="afii10097" unicode="&#x44f;" horiz-adv-x="511" 
d="M428 508v-508h-64v202h-145l-123 -202h-77l135 212c-72 21 -108 73 -108 145c0 95 66 151 193 151h189zM113 355c0 -61 41 -101 122 -101h129v202h-124c-85 0 -127 -34 -127 -101z" />
    <glyph glyph-name="uni0450" unicode="&#x450;" horiz-adv-x="539" 
d="M495 242h-388c3 -131 72 -202 169 -202c81 0 135 44 151 111h64c-9 -47 -31 -86 -68 -117s-86 -47 -147 -47c-72 0 -129 25 -170 75c-41 49 -62 116 -62 201c0 150 87 258 228 258c113 0 192 -68 215 -181c5 -24 8 -57 8 -98zM435 293c-7 111 -70 175 -163 175
s-159 -67 -164 -175h327zM237 712l90 -141h-59l-115 141h84z" />
    <glyph glyph-name="afii10071" unicode="&#x451;" horiz-adv-x="539" 
d="M495 242h-388c3 -131 72 -202 169 -202c81 0 135 44 151 111h64c-9 -47 -31 -86 -68 -117s-86 -47 -147 -47c-72 0 -129 25 -170 75c-41 49 -62 116 -62 201c0 150 87 258 228 258c113 0 192 -68 215 -181c5 -24 8 -57 8 -98zM435 293c-7 111 -70 175 -163 175
s-159 -67 -164 -175h327zM330 624v88h61v-88h-61zM146 624v88h61v-88h-61z" />
    <glyph glyph-name="afii10099" unicode="&#x452;" 
d="M485 255v-302c0 -95 -44 -142 -132 -142c-13 0 -25 1 -36 4v54c10 -2 20 -3 29 -3c52 0 77 25 77 89v297c0 115 -45 159 -130 159c-81 0 -148 -59 -148 -164v-247h-62v567h-69v48h69v97h62v-97h232v-48h-232v-181h2c33 52 93 79 157 79c117 0 181 -71 181 -210z" />
    <glyph glyph-name="afii10100" unicode="&#x453;" horiz-adv-x="405" 
d="M391 508v-52h-246v-456h-62v508h308zM269 712h84l-115 -141h-59z" />
    <glyph glyph-name="afii10101" unicode="&#x454;" horiz-adv-x="521" 
d="M450 427c17 -29 27 -60 30 -94h-65c-6 70 -60 134 -141 134c-93 0 -154 -68 -163 -183h249v-52h-249c7 -119 67 -191 163 -191c38 0 70 14 97 41c26 27 41 60 44 99h65c-10 -110 -89 -194 -206 -194c-71 0 -127 24 -168 72c-41 47 -62 112 -62 195s21 148 62 196
c41 47 97 71 168 71c79 0 141 -38 176 -94z" />
    <glyph glyph-name="afii10102" unicode="&#x455;" horiz-adv-x="479" 
d="M436 135c0 -44 -17 -80 -52 -107s-81 -41 -138 -41c-128 0 -204 67 -205 184h63c0 -83 51 -130 142 -130c76 0 128 37 128 90c0 44 -20 66 -59 79c-19 7 -50 15 -92 25c-39 9 -70 18 -91 26c-22 8 -41 21 -56 40s-23 44 -23 77c0 43 17 77 50 104c33 26 75 39 127 39
c120 0 190 -63 191 -174h-62c0 76 -48 120 -129 120c-69 0 -115 -33 -115 -84c0 -40 18 -59 50 -70c15 -5 41 -12 78 -21c44 -10 78 -19 103 -28s46 -24 64 -44c17 -21 26 -49 26 -85z" />
    <glyph glyph-name="afii10103" unicode="&#x456;" horiz-adv-x="228" 
d="M83 0v508h62v-508h-62zM83 712h62v-88h-62v88z" />
    <glyph glyph-name="afii10104" unicode="&#x457;" horiz-adv-x="228" 
d="M145 508v-508h-62v508h62zM156 712h61v-88h-61v88zM73 712v-88h-61v88h61z" />
    <glyph glyph-name="afii10105" unicode="&#x458;" horiz-adv-x="235" 
d="M-17 -185v54c11 -2 21 -3 30 -3c51 0 77 27 77 98v544h62v-545c0 -101 -44 -152 -133 -152c-13 0 -25 1 -36 4zM90 712h62v-88h-62v88z" />
    <glyph glyph-name="afii10106" unicode="&#x459;" horiz-adv-x="814" 
d="M777 154c0 -48 -16 -86 -49 -113s-80 -41 -141 -41h-192v456h-200c-8 -386 -47 -454 -158 -459c-13 0 -23 1 -31 3v51c7 -1 13 -2 20 -2c27 0 48 11 63 34s26 67 33 132s12 162 14 293h321v-200h130c121 0 190 -58 190 -154zM457 256v-204h133c82 0 123 34 123 102
s-41 102 -123 102h-133z" />
    <glyph glyph-name="afii10107" unicode="&#x45a;" horiz-adv-x="850" 
d="M813 154c0 -48 -16 -86 -49 -113s-80 -41 -141 -41h-192v254h-286v-254h-62v508h62v-202h286v202h62v-200h130c121 0 190 -58 190 -154zM493 52h133c82 0 123 34 123 102s-41 102 -123 102h-133v-204z" />
    <glyph glyph-name="afii10108" unicode="&#x45b;" 
d="M485 255v-255h-62v252c0 115 -45 159 -130 159c-81 0 -148 -59 -148 -164v-247h-62v567h-69v48h69v97h62v-97h232v-48h-232v-181h2c33 52 93 79 157 79c117 0 181 -71 181 -210z" />
    <glyph glyph-name="afii10109" unicode="&#x45c;" horiz-adv-x="496" 
d="M147 295l226 213h84l-246 -228l275 -280h-86l-253 262h-2v-262h-62v508h62v-213h2zM291 712h84l-115 -141h-59z" />
    <glyph glyph-name="uni045D" unicode="&#x45d;" horiz-adv-x="598" 
d="M515 0h-65v442h-2c-28 -49 -54 -92 -77 -129l-189 -313h-99v508h65v-199c0 -108 0 -189 -1 -243h2c28 49 54 92 77 129l190 313h99v-508zM183 712h84l90 -141h-59z" />
    <glyph glyph-name="afii10110" unicode="&#x45e;" horiz-adv-x="456" 
d="M461 508l-210 -532c-56 -134 -93 -162 -196 -165c-15 0 -27 1 -37 4v55c10 -3 22 -4 36 -4c78 3 96 20 141 134l-200 508h67l165 -429h2l165 429h67zM83 712h51c8 -57 42 -89 95 -89s86 30 95 89h51c-8 -88 -61 -139 -146 -139s-138 51 -146 139z" />
    <glyph glyph-name="afii10193" unicode="&#x45f;" horiz-adv-x="568" 
d="M83 508h62v-456h278v456h62v-508h-170v-160h-62v160h-170v508z" />
    <glyph glyph-name="afii10050" unicode="&#x490;" horiz-adv-x="478" 
d="M101 0v712h305v153h62v-212h-302v-653h-65z" />
    <glyph glyph-name="afii10098" unicode="&#x491;" horiz-adv-x="405" 
d="M83 0v508h246v160h62v-212h-246v-456h-62z" />
    <glyph glyph-name="uni0492" unicode="&#x492;" horiz-adv-x="478" 
d="M35 375h66v337h367v-59h-302v-278h144v-54h-144v-321h-65v321h-66v54z" />
    <glyph glyph-name="uni0493" unicode="&#x493;" horiz-adv-x="406" 
d="M25 275h58v233h308v-52h-246v-181h135v-48h-135v-227h-62v227h-58v48z" />
    <glyph glyph-name="uni0496" unicode="&#x496;" horiz-adv-x="856" 
d="M851 59v-219h-62v160h-22l-304 364h-2v-364h-66v364h-2l-304 -364h-84l314 372l-285 340h81l278 -333h2v333h66v-333h2l278 333h81l-286 -340l265 -313h50z" />
    <glyph glyph-name="uni0497" unicode="&#x497;" horiz-adv-x="652" 
d="M659 52v-212h-62v160h-24l-214 271h-2v-271h-62v271h-2l-214 -271h-86l233 280l-208 228h84l191 -222h2v222h62v-222h2l191 222h84l-208 -228l190 -228h43z" />
    <glyph glyph-name="uni049A" unicode="&#x49a;" horiz-adv-x="607" 
d="M168 357h-2v-357h-65v712h65v-325h2l314 325h88l-331 -340l305 -313h58v-219h-62v160h-29z" />
    <glyph glyph-name="uni049B" unicode="&#x49b;" horiz-adv-x="496" 
d="M147 262h-2v-262h-62v508h62v-213h2l226 213h84l-246 -228l224 -228h51v-212h-62v160h-24z" />
    <glyph glyph-name="uni049C" unicode="&#x49c;" horiz-adv-x="672" 
d="M667 0h-84l-288 340h-1v-179h-63v179h-65v-340h-65v712h65v-313h65v179h63v-179h2l261 313h81l-287 -343z" />
    <glyph glyph-name="uni049D" unicode="&#x49d;" horiz-adv-x="542" 
d="M549 0h-86l-198 253h-2v-145h-59v145h-59v-253h-62v508h62v-203h59v135h59v-135h2l175 203h83l-206 -227z" />
    <glyph glyph-name="uni04A2" unicode="&#x4a2;" horiz-adv-x="733" 
d="M166 0h-65v712h65v-313h399v313h65v-653h78v-219h-62v160h-81v340h-399v-340z" />
    <glyph glyph-name="uni04A3" unicode="&#x4a3;" horiz-adv-x="576" 
d="M145 0h-62v508h62v-228h286v228h62v-456h67v-212h-62v160h-67v228h-286v-228z" />
    <glyph glyph-name="uni04AE" unicode="&#x4ae;" horiz-adv-x="602" 
d="M5 712h77l218 -345h2c53 85 94 149 121 191l97 154h77l-263 -408v-304h-66v304z" />
    <glyph glyph-name="uni04AF" unicode="&#x4af;" horiz-adv-x="450" 
d="M-5 508h67l162 -430h2l162 430h67l-200 -515v-178h-61v178z" />
    <glyph glyph-name="uni04B2" unicode="&#x4b2;" horiz-adv-x="617" 
d="M612 59v-219h-62v160h-23l-218 313h-2l-218 -313h-79l258 367l-244 345h79l204 -292h2l205 292h79l-244 -345l217 -308h46z" />
    <glyph glyph-name="uni04B3" unicode="&#x4b3;" horiz-adv-x="467" 
d="M467 52v-212h-62v160h-15l-156 219h-2l-156 -219h-76l196 266l-178 242h76l138 -198h2l139 198h75l-178 -242l158 -214h39z" />
    <glyph glyph-name="uni04B8" unicode="&#x4b8;" horiz-adv-x="625" 
d="M525 712v-712h-66v309c-47 -13 -94 -21 -142 -25v-153h-64v152c-140 5 -215 81 -215 210v219h65v-212c0 -95 53 -149 150 -157v221h64v-221c51 3 99 11 142 25v344h66z" />
    <glyph glyph-name="uni04B9" unicode="&#x4b9;" horiz-adv-x="503" 
d="M420 508v-508h-62v211c-31 -10 -66 -16 -103 -19v-104h-59v104c-105 7 -163 63 -163 158v158h62v-152c0 -64 34 -102 101 -110v166h59v-167c34 2 68 9 103 20v243h62z" />
    <glyph glyph-name="uni04BA" unicode="&#x4ba;" horiz-adv-x="625" 
d="M101 712h65v-309c61 17 123 26 188 26c151 0 234 -75 234 -210v-219h-66v212c0 103 -61 158 -177 158c-64 0 -124 -9 -179 -26v-344h-65v712z" />
    <glyph glyph-name="uni04BB" unicode="&#x4bb;" 
d="M485 0h-62v306c0 115 -45 159 -130 159c-81 0 -148 -59 -148 -164v-301h-62v712h62v-272h2c33 52 93 79 157 79c117 0 181 -71 181 -210v-309z" />
    <glyph glyph-name="uni04C0" unicode="&#x4c0;" horiz-adv-x="267" 
d="M166 712v-712h-65v712h65z" />
    <glyph glyph-name="uni04CF" unicode="&#x4cf;" horiz-adv-x="228" 
d="M145 712v-712h-62v712h62z" />
    <glyph glyph-name="uni04D8" unicode="&#x4d8;" horiz-adv-x="729" 
d="M645 164c-53 -112 -154 -177 -286 -177c-193 0 -314 143 -314 369c0 7 1 15 2 24h568c-4 181 -113 284 -264 284c-117 0 -198 -65 -218 -164h-72c22 128 125 225 290 225c206 0 333 -146 333 -369c0 -73 -13 -137 -39 -192zM150 174c43 -83 117 -126 209 -126
c148 0 249 107 255 273h-500c3 -57 15 -106 36 -147z" />
    <glyph glyph-name="afii10846" unicode="&#x4d9;" horiz-adv-x="539" 
d="M468 116c-37 -81 -108 -129 -203 -129c-135 0 -221 104 -221 267c0 9 0 16 1 20h387c-4 125 -73 194 -173 194c-76 0 -127 -44 -140 -111h-64c8 47 30 86 65 117s81 47 139 47c73 0 131 -24 173 -72c42 -49 63 -114 63 -195c0 -52 -9 -98 -27 -138zM104 223
c7 -116 69 -183 161 -183c96 0 161 70 166 183h-327z" />
    <glyph glyph-name="uni04E8" unicode="&#x4e8;" horiz-adv-x="724" 
d="M678 356c0 -75 -13 -140 -38 -195c-52 -111 -150 -174 -278 -174c-192 0 -317 146 -317 369s125 369 317 369c193 0 316 -145 316 -369zM188 590c-44 -50 -69 -118 -74 -204h495c-5 85 -29 153 -73 203s-102 75 -174 75s-130 -25 -174 -74zM114 327
c5 -86 30 -154 74 -204s102 -75 174 -75c143 0 239 108 247 279h-495z" />
    <glyph glyph-name="uni04E9" unicode="&#x4e9;" horiz-adv-x="553" 
d="M447 450c41 -48 62 -113 62 -196s-21 -148 -62 -195c-42 -48 -99 -72 -171 -72s-129 24 -170 72c-41 47 -62 112 -62 195s21 148 62 196c41 47 98 71 170 71s129 -24 171 -71zM109 229c8 -117 70 -188 167 -188s161 71 168 188h-335zM159 418c-29 -33 -46 -79 -50 -138
h335c-8 117 -71 187 -168 187c-49 0 -88 -16 -117 -49z" />
    <glyph glyph-name="Wgrave" unicode="&#x1e80;" horiz-adv-x="896" 
d="M885 712l-174 -712h-102l-80 325c-36 145 -63 254 -80 327h-2c-17 -73 -44 -182 -80 -327l-80 -325h-102l-174 712h66l74 -303c19 -77 48 -193 85 -348h2l160 651h100l160 -651h2l84 348l75 303h66zM333 895h84l90 -135h-59z" />
    <glyph glyph-name="wgrave" unicode="&#x1e81;" horiz-adv-x="750" 
d="M742 508l-147 -508h-89l-66 230c-27 92 -48 166 -64 222h-2c-16 -56 -37 -130 -64 -222l-66 -230h-89l-147 508h64l122 -432c1 -3 2 -10 5 -20h2l127 452h94l127 -452h2c3 10 4 17 5 20l122 432h64zM259 712h84l90 -141h-59z" />
    <glyph glyph-name="Wacute" unicode="&#x1e82;" horiz-adv-x="896" 
d="M885 712l-174 -712h-102l-80 325c-36 145 -63 254 -80 327h-2c-17 -73 -44 -182 -80 -327l-80 -325h-102l-174 712h66l74 -303c19 -77 48 -193 85 -348h2l160 651h100l160 -651h2l84 348l75 303h66zM481 895h84l-115 -135h-59z" />
    <glyph glyph-name="wacute" unicode="&#x1e83;" horiz-adv-x="750" 
d="M742 508l-147 -508h-89l-66 230c-27 92 -48 166 -64 222h-2c-16 -56 -37 -130 -64 -222l-66 -230h-89l-147 508h64l122 -432c1 -3 2 -10 5 -20h2l127 452h94l127 -452h2c3 10 4 17 5 20l122 432h64zM407 712h84l-115 -141h-59z" />
    <glyph glyph-name="Wdieresis" unicode="&#x1e84;" horiz-adv-x="896" 
d="M885 712l-174 -712h-102l-80 325c-36 145 -63 254 -80 327h-2c-17 -73 -44 -182 -80 -327l-80 -325h-102l-174 712h66l74 -303c19 -77 48 -193 85 -348h2l160 651h100l160 -651h2l84 348l75 303h66zM510 778v88h61v-88h-61zM326 866h61v-88h-61v88z" />
    <glyph glyph-name="wdieresis" unicode="&#x1e85;" horiz-adv-x="750" 
d="M742 508l-147 -508h-89l-66 230c-27 92 -48 166 -64 222h-2c-16 -56 -37 -130 -64 -222l-66 -230h-89l-147 508h64l122 -432c1 -3 2 -10 5 -20h2l127 452h94l127 -452h2c3 10 4 17 5 20l122 432h64zM436 712h61v-88h-61v88zM252 712h61v-88h-61v88z" />
    <glyph glyph-name="uni1E9E" unicode="&#x1e9e;" horiz-adv-x="752" 
d="M644 343c39 -37 59 -88 59 -153c0 -128 -87 -201 -226 -201c-135 0 -210 66 -210 187h67c0 -81 48 -127 143 -127c99 0 158 50 158 141c0 113 -80 168 -240 181v52l166 175c-43 41 -108 67 -180 67c-148 0 -225 -79 -225 -235v-430h-65v430c0 188 106 295 291 295
c109 0 204 -47 263 -122l-174 -183c76 -14 134 -40 173 -77z" />
    <glyph glyph-name="Ygrave" unicode="&#x1ef2;" horiz-adv-x="602" 
d="M82 712l218 -345h2c53 85 94 149 121 191l97 154h77l-263 -408v-304h-66v304l-263 408h77zM269 895l90 -135h-59l-115 135h84z" />
    <glyph glyph-name="ygrave" unicode="&#x1ef3;" horiz-adv-x="456" 
d="M461 508l-210 -532c-56 -134 -93 -162 -196 -165c-15 0 -27 1 -37 4v55c10 -3 22 -4 36 -4c78 3 96 20 141 134l-200 508h67l165 -429h2l165 429h67zM196 712l90 -141h-59l-115 141h84z" />
    <glyph glyph-name="uni2010" unicode="&#x2010;" horiz-adv-x="290" 
d="M260 323v-62h-230v62h230z" />
    <glyph glyph-name="endash" unicode="&#x2013;" horiz-adv-x="500" 
d="M20 261v62h460v-62h-460z" />
    <glyph glyph-name="emdash" unicode="&#x2014;" horiz-adv-x="1000" 
d="M20 261v62h960v-62h-960z" />
    <glyph glyph-name="afii00208" unicode="&#x2015;" horiz-adv-x="1000" 
d="M980 323v-62h-960v62h960z" />
    <glyph glyph-name="underscoredbl" unicode="&#x2017;" horiz-adv-x="500" 
d="M0 -210v38h500v-38h-500zM0 -50h500v-38h-500v38z" />
    <glyph glyph-name="quoteleft" unicode="&#x2018;" horiz-adv-x="229" 
d="M72 584l41 128h44l-30 -128h29v-90h-84v90z" />
    <glyph glyph-name="quoteright" unicode="&#x2019;" horiz-adv-x="229" 
d="M101 622h-29v90h84v-90l-40 -128h-44z" />
    <glyph glyph-name="quotesinglbase" unicode="&#x201a;" horiz-adv-x="229" 
d="M72 0v90h84v-90l-40 -128h-44l29 128h-29z" />
    <glyph glyph-name="quotereversed" unicode="&#x201b;" horiz-adv-x="229" 
d="M72 712h84v-90h-29l30 -128h-44l-41 128v90z" />
    <glyph glyph-name="quotedblleft" unicode="&#x201c;" horiz-adv-x="379" 
d="M222 584l41 128h44l-30 -128h29v-90h-84v90zM156 494h-84v90l41 128h44l-30 -128h29v-90z" />
    <glyph glyph-name="quotedblright" unicode="&#x201d;" horiz-adv-x="379" 
d="M251 622h-29v90h84v-90l-40 -128h-44zM156 712v-90l-40 -128h-44l29 128h-29v90h84z" />
    <glyph glyph-name="quotedblbase" unicode="&#x201e;" horiz-adv-x="379" 
d="M251 0h-29v90h84v-90l-40 -128h-44zM156 90v-90l-40 -128h-44l29 128h-29v90h84z" />
    <glyph glyph-name="dagger" unicode="&#x2020;" horiz-adv-x="523" 
d="M229 460h-175v55h175v197h65v-197h175v-55h-175v-580h-65v580z" />
    <glyph glyph-name="daggerdbl" unicode="&#x2021;" horiz-adv-x="523" 
d="M469 516v-55h-175v-268h175v-55h-175v-258h-65v258h-175v55h175v268h-175v55h175v196h65v-196h175z" />
    <glyph glyph-name="bullet" unicode="&#x2022;" horiz-adv-x="322" 
d="M59 356c0 28 10 52 30 72s44 30 72 30c29 0 53 -10 73 -30s30 -44 30 -72s-10 -52 -30 -72s-44 -30 -73 -30c-28 0 -52 10 -72 30s-30 44 -30 72z" />
    <glyph glyph-name="ellipsis" unicode="&#x2026;" horiz-adv-x="681" 
d="M533 92h86v-92h-86v92zM297 92h86v-92h-86v92zM62 92h86v-92h-86v92z" />
    <glyph glyph-name="perthousand" unicode="&#x2030;" horiz-adv-x="975" 
d="M64 405c-23 28 -34 68 -34 120c0 104 46 162 129 162s129 -58 129 -162s-46 -163 -129 -163c-41 0 -73 14 -95 43zM594 271c22 -29 33 -69 33 -121c0 -104 -46 -162 -129 -162c-81 0 -129 58 -129 162s48 163 129 163c41 0 73 -14 96 -42zM721 30c-23 28 -34 68 -34 120
c0 104 48 163 129 163c83 0 129 -59 129 -163s-46 -162 -129 -162c-41 0 -72 14 -95 42zM86 -30l423 734h63l-424 -734h-62zM90 525c0 -71 25 -111 69 -111s69 40 69 111s-26 111 -69 111c-21 0 -38 -10 -50 -29c-13 -19 -19 -47 -19 -82zM549 68c12 19 18 47 18 82
c0 36 -6 64 -18 83s-29 28 -51 28c-43 0 -68 -39 -68 -111c0 -71 25 -111 68 -111c22 0 39 10 51 29zM766 233c-12 -19 -18 -47 -18 -83c0 -71 25 -111 68 -111c44 0 69 40 69 111c0 72 -25 111 -69 111c-21 0 -38 -9 -50 -28z" />
    <glyph glyph-name="minute" unicode="&#x2032;" horiz-adv-x="172" 
d="M72 454h-42l47 220h65z" />
    <glyph glyph-name="second" unicode="&#x2033;" horiz-adv-x="296" 
d="M163 454l47 220h65l-70 -220h-42zM30 454l47 220h65l-70 -220h-42z" />
    <glyph glyph-name="guilsinglleft" unicode="&#x2039;" horiz-adv-x="276" 
d="M164 54l-114 200l114 200h62l-112 -200l112 -200h-62z" />
    <glyph glyph-name="guilsinglright" unicode="&#x203a;" horiz-adv-x="276" 
d="M162 254l-112 200h62l114 -200l-114 -200h-62z" />
    <glyph glyph-name="exclamdbl" unicode="&#x203c;" horiz-adv-x="463" 
d="M296 712h83l-16 -548h-51zM100 164l-16 548h83l-16 -548h-51zM377 93v-93h-79v93h79zM86 0v93h79v-93h-79z" />
    <glyph glyph-name="uni203D" unicode="&#x203d;" horiz-adv-x="501" 
d="M461 487c0 -25 -3 -47 -8 -64c-12 -35 -39 -69 -102 -118c-69 -56 -76 -66 -79 -150h-52l-11 427c-67 -15 -105 -59 -110 -130h-64c5 108 68 174 173 190l-2 70h76l-2 -67c55 -3 99 -18 132 -47s49 -66 49 -111zM271 304h2c9 10 23 23 41 39c33 31 54 55 64 74
s15 42 15 69c0 57 -43 95 -114 100zM285 0h-79v93h79v-93z" />
    <glyph glyph-name="uni203E" unicode="&#x203e;" horiz-adv-x="500" 
d="M0 793v52h500v-52h-500z" />
    <glyph glyph-name="fraction" unicode="&#x2044;" horiz-adv-x="147" 
d="M-90 0h-65l392 674h65z" />
    <glyph glyph-name="uni2070" unicode="&#x2070;" horiz-adv-x="416" 
d="M208 320c-55 0 -96 21 -125 64c-29 42 -44 103 -44 182c0 80 15 141 44 183s70 63 125 63c111 0 170 -86 170 -246c0 -159 -61 -246 -170 -246zM97 566c0 -127 40 -196 111 -196s111 69 111 196c0 125 -40 194 -111 194s-111 -69 -111 -194z" />
    <glyph glyph-name="uni2074" unicode="&#x2074;" horiz-adv-x="384" 
d="M217 802h74v-298h82v-50h-82v-124h-55v124h-225v55zM67 504h170v237h-2l-46 -66c-22 -30 -44 -61 -66 -93z" />
    <glyph glyph-name="uni2075" unicode="&#x2075;" horiz-adv-x="396" 
d="M335 802v-50h-215l-15 -148h2c21 23 58 36 94 36c96 0 156 -60 156 -155c0 -101 -64 -165 -164 -165c-92 0 -153 52 -153 135h58c1 -52 39 -83 95 -83c65 0 106 43 106 111c0 65 -40 107 -101 107c-49 0 -85 -26 -98 -71l-57 4l27 279h265z" />
    <glyph glyph-name="uni2076" unicode="&#x2076;" horiz-adv-x="401" 
d="M324 595c28 -29 42 -66 42 -113c0 -48 -15 -87 -44 -117c-30 -30 -69 -45 -116 -45c-109 0 -167 78 -167 227c0 172 62 265 174 265c84 0 139 -50 146 -131h-58c-9 53 -39 79 -89 79c-72 0 -115 -60 -119 -180h2c27 39 66 58 119 58c45 0 82 -14 110 -43zM132 558
c-19 -20 -29 -46 -29 -77c0 -68 40 -109 103 -109c60 0 102 45 102 110c0 63 -40 106 -101 106c-31 0 -56 -10 -75 -30z" />
    <glyph glyph-name="uni2077" unicode="&#x2077;" horiz-adv-x="348" 
d="M11 752v50h326v-51c-77 -108 -142 -254 -175 -421h-64c40 165 99 306 178 422h-265z" />
    <glyph glyph-name="uni2078" unicode="&#x2078;" horiz-adv-x="399" 
d="M365 459c0 -41 -15 -74 -46 -100s-70 -39 -119 -39s-88 13 -119 39c-31 25 -46 59 -46 100c0 55 29 93 88 114v2c-53 25 -79 60 -79 106c0 38 15 69 44 94s66 37 112 37c45 0 83 -12 112 -37s43 -56 43 -94c0 -46 -26 -81 -79 -106v-2c59 -21 89 -59 89 -114zM123 524
c-20 -17 -30 -38 -30 -63c0 -55 43 -89 107 -89s106 34 106 89c0 51 -45 88 -106 88c-31 0 -57 -8 -77 -25zM129 739c-18 -15 -27 -34 -27 -58c0 -51 38 -83 98 -83c59 0 98 32 98 83c0 48 -39 79 -98 79c-29 0 -53 -7 -71 -21z" />
    <glyph glyph-name="uni2079" unicode="&#x2079;" horiz-adv-x="401" 
d="M320 755c28 -39 42 -95 42 -170c0 -172 -62 -265 -174 -265c-84 0 -139 50 -146 131h58c9 -53 39 -79 89 -79c72 0 115 60 119 180h-2c-27 -39 -66 -58 -119 -58c-45 0 -82 14 -110 43s-42 66 -42 113c0 48 15 87 45 117c29 30 68 45 116 45c54 0 95 -19 124 -57z
M122 730c-19 -21 -29 -47 -29 -80c0 -63 40 -106 101 -106s104 44 104 107c0 68 -40 109 -103 109c-30 0 -54 -10 -73 -30z" />
    <glyph glyph-name="uni207A" unicode="&#x207a;" horiz-adv-x="405" 
d="M179 528h-127v47h127v124h47v-124h127v-47h-127v-123h-47v123z" />
    <glyph glyph-name="uni207B" unicode="&#x207b;" horiz-adv-x="405" 
d="M52 528v47h301v-47h-301z" />
    <glyph glyph-name="uni207C" unicode="&#x207c;" horiz-adv-x="405" 
d="M52 519h301v-47h-301v47zM52 631h301v-47h-301v47z" />
    <glyph glyph-name="uni207D" unicode="&#x207d;" horiz-adv-x="204" 
d="M62 373c-16 50 -24 105 -24 165c0 120 32 216 96 311h49c-59 -104 -85 -196 -85 -311s26 -207 85 -311h-49c-32 47 -56 95 -72 146z" />
    <glyph glyph-name="uni207E" unicode="&#x207e;" horiz-adv-x="204" 
d="M70 227h-49c59 104 85 196 85 311s-26 207 -85 311h49c64 -93 96 -191 96 -311s-32 -216 -96 -311z" />
    <glyph glyph-name="uni2080" unicode="&#x2080;" horiz-adv-x="416" 
d="M82 -119c-29 43 -44 104 -44 183c0 160 60 246 169 246c111 0 170 -86 170 -246c0 -159 -61 -246 -170 -246c-55 0 -96 21 -125 63zM96 64c0 -127 40 -196 111 -196s111 69 111 196c0 125 -40 194 -111 194s-111 -69 -111 -194z" />
    <glyph glyph-name="uni2081" unicode="&#x2081;" horiz-adv-x="248" 
d="M10 221c75 0 107 22 116 79h45v-472h-56v348h-105v45z" />
    <glyph glyph-name="uni2082" unicode="&#x2082;" horiz-adv-x="402" 
d="M365 -172h-324c-1 3 -2 8 -2 15c2 96 22 139 145 210c41 23 69 42 86 59c16 17 24 39 24 66c0 48 -35 80 -91 80c-61 0 -94 -31 -98 -94h-59c4 91 66 146 158 146c89 0 150 -53 150 -132c-3 -82 -50 -116 -139 -168c-46 -26 -77 -49 -93 -68c-17 -19 -25 -40 -25 -64h268
v-50z" />
    <glyph glyph-name="uni2083" unicode="&#x2083;" horiz-adv-x="396" 
d="M357 -49c0 -39 -15 -71 -46 -96s-70 -37 -117 -37c-101 0 -162 57 -162 149h58c0 -65 35 -98 104 -98c61 0 104 33 104 84c0 57 -41 89 -120 89h-18v50h18c69 0 113 32 113 85c0 49 -39 81 -100 81c-65 0 -97 -32 -97 -95h-58c0 92 61 147 157 147s156 -52 156 -129
c0 -55 -25 -88 -81 -111v-2c63 -23 89 -57 89 -117z" />
    <glyph glyph-name="uni2084" unicode="&#x2084;" horiz-adv-x="384" 
d="M290 300v-298h82v-50h-82v-124h-55v124h-225v55l206 293h74zM236 2v237h-2l-46 -66c-22 -30 -44 -61 -66 -93l-56 -78h170z" />
    <glyph glyph-name="uni2085" unicode="&#x2085;" horiz-adv-x="396" 
d="M335 250h-215l-15 -148h2c21 23 58 36 94 36c96 0 156 -60 156 -155c0 -101 -64 -165 -164 -165c-92 0 -153 52 -153 135h58c1 -52 39 -83 95 -83c65 0 106 43 106 111c0 65 -40 107 -101 107c-49 0 -85 -26 -98 -71l-57 4l27 279h265v-50z" />
    <glyph glyph-name="uni2086" unicode="&#x2086;" horiz-adv-x="401" 
d="M365 -20c0 -48 -15 -87 -44 -117c-30 -30 -69 -45 -116 -45c-109 0 -167 78 -167 227c0 172 62 265 174 265c84 0 139 -50 146 -131h-58c-9 53 -39 79 -89 79c-72 0 -115 -60 -119 -180h2c27 39 66 58 119 58c45 0 82 -14 110 -43s42 -66 42 -113zM130 -101
c19 -19 44 -29 75 -29c60 0 102 45 102 110c0 63 -40 106 -101 106s-104 -44 -104 -107c0 -34 9 -61 28 -80z" />
    <glyph glyph-name="uni2087" unicode="&#x2087;" horiz-adv-x="348" 
d="M336 300v-51c-77 -108 -142 -254 -175 -421h-64c40 165 99 306 178 422h-265v50h326z" />
    <glyph glyph-name="uni2088" unicode="&#x2088;" horiz-adv-x="399" 
d="M319 -143c-31 -26 -70 -39 -119 -39s-88 13 -119 38c-31 26 -46 60 -46 101c0 55 29 93 88 114v2c-53 25 -79 60 -79 106c0 38 15 69 44 94s66 37 112 37c45 0 83 -12 112 -37s43 -56 43 -94c0 -46 -26 -81 -79 -106v-2c59 -21 89 -59 89 -114c0 -41 -15 -74 -46 -100z
M93 -41c0 -55 43 -89 107 -89s106 34 106 89c0 51 -45 88 -106 88c-63 0 -107 -37 -107 -88zM102 179c0 -51 38 -83 98 -83c59 0 98 32 98 83c0 48 -39 79 -98 79s-98 -31 -98 -79z" />
    <glyph glyph-name="uni2089" unicode="&#x2089;" horiz-adv-x="401" 
d="M362 83c0 -172 -62 -265 -174 -265c-84 0 -139 50 -146 131h58c9 -53 39 -79 89 -79c72 0 115 60 119 180h-2c-27 -39 -66 -58 -119 -58c-91 0 -152 63 -152 156c0 48 15 87 45 117c29 30 68 45 116 45c108 0 166 -78 166 -227zM93 148c0 -63 40 -106 101 -106
s104 44 104 107c0 68 -40 109 -103 109c-60 0 -102 -45 -102 -110z" />
    <glyph glyph-name="uni208A" unicode="&#x208a;" horiz-adv-x="406" 
d="M53 73h127v124h47v-124h127v-47h-127v-123h-47v123h-127v47z" />
    <glyph glyph-name="uni208B" unicode="&#x208b;" horiz-adv-x="406" 
d="M354 73v-47h-301v47h301z" />
    <glyph glyph-name="uni208C" unicode="&#x208c;" horiz-adv-x="406" 
d="M53 -30v47h301v-47h-301zM53 82v47h301v-47h-301z" />
    <glyph glyph-name="uni208D" unicode="&#x208d;" horiz-adv-x="204" 
d="M62 201c16 50 40 99 72 146h49c-59 -104 -85 -196 -85 -311s26 -207 85 -311h-49c-64 93 -96 191 -96 311c0 60 8 115 24 165z" />
    <glyph glyph-name="uni208E" unicode="&#x208e;" horiz-adv-x="204" 
d="M70 347c64 -93 96 -191 96 -311s-32 -216 -96 -311h-49c59 104 85 196 85 311s-26 207 -85 311h49z" />
    <glyph glyph-name="uni2099" unicode="&#x2099;" horiz-adv-x="409" 
d="M111 184v-45h2c21 32 63 53 110 53c87 0 132 -51 132 -148v-216h-53v213c0 79 -29 105 -89 105c-57 0 -101 -39 -101 -111v-207h-54v356h53z" />
    <glyph glyph-name="franc" unicode="&#x20a3;" horiz-adv-x="544" 
d="M509 674v-59h-332v-219h311v-60h-311v-131h177v-55h-177v-150h-66v150h-87v55h87v469h398z" />
    <glyph glyph-name="lira" unicode="&#x20a4;" horiz-adv-x="544" 
d="M438 487c0 91 -47 140 -124 140c-83 0 -127 -52 -127 -148v-65h127v-53h-127v-64h127v-54h-127v-51c0 -69 -13 -107 -48 -134v-2h357v-56h-472v56c67 0 100 45 100 136v51h-100v54h100v64h-100v53h100v65c0 136 69 208 190 208c116 0 186 -75 186 -200h-62z" />
    <glyph glyph-name="peseta" unicode="&#x20a7;" horiz-adv-x="811" 
d="M778 508v-52h-103v-321c0 -60 20 -84 73 -84c13 0 24 1 35 4v-53c-15 -3 -30 -5 -46 -5c-88 0 -124 40 -124 137v322h-76c-5 -123 -91 -197 -243 -197h-128v-259h-65v674h193c139 0 223 -62 240 -166h79v118h62v-118h103zM166 615v-297h127c115 0 176 54 176 149
c0 93 -61 148 -176 148h-127z" />
    <glyph glyph-name="Euro" unicode="&#x20ac;" horiz-adv-x="544" 
d="M528 202c-9 -70 -32 -123 -70 -160c-39 -37 -90 -55 -154 -55c-139 0 -227 91 -248 262h-55l10 53h41l-1 35c0 13 0 23 1 29h-51l10 53h44c21 175 109 268 249 268c131 0 209 -75 220 -211h-68c-8 96 -63 150 -152 150c-101 0 -163 -72 -180 -207h274l-10 -53h-268
l-1 -29c0 -16 0 -28 1 -35h257l-11 -53h-241c19 -132 79 -201 179 -201c87 0 143 54 156 154h68z" />
    <glyph glyph-name="uni20B9" unicode="&#x20b9;" horiz-adv-x="544" 
d="M516 524l-15 -54h-97c-12 -76 -75 -131 -172 -150v-2c45 -20 78 -57 113 -125l94 -193h-73l-86 178c-43 88 -90 122 -166 122h-16v55h43c111 0 179 44 194 115h-307l15 54h293c-13 64 -75 96 -186 96h-122l15 54h473l-15 -54h-168v-2c41 -15 64 -47 71 -94h112z" />
    <glyph glyph-name="uni20BA" unicode="&#x20ba;" horiz-adv-x="544" 
d="M447 316h67c0 -209 -119 -319 -334 -319c-22 0 -43 1 -62 3v290l-95 -52v61l95 52v96l-95 -52v61l95 52v166h65v-136l168 90v-60l-168 -90v-97l168 91v-60l-168 -91v-265c169 0 264 88 264 260z" />
    <glyph glyph-name="uni20BC" unicode="&#x20bc;" horiz-adv-x="626" 
d="M576 316v-316h-64v316c0 75 -13 128 -38 161c-26 32 -69 49 -129 52v-529h-64v529c-60 -3 -103 -20 -128 -52c-26 -33 -39 -86 -39 -161v-316h-65v316c0 189 71 270 232 277v119h64v-119c161 -7 231 -88 231 -277z" />
    <glyph glyph-name="uni20BD" unicode="&#x20bd;" horiz-adv-x="544" 
d="M513 477c0 -61 -19 -110 -57 -145c-39 -35 -94 -53 -166 -53h-132v-74h205v-55h-205v-150h-62v150h-83v55h83v74h-83v56h83v339h194c144 0 223 -74 223 -197zM158 618v-283h132c103 0 158 53 158 142s-55 141 -158 141h-132z" />
    <glyph glyph-name="afii61248" unicode="&#x2105;" horiz-adv-x="862" 
d="M831 175c0 -117 -64 -188 -171 -188c-105 0 -172 72 -172 188s67 187 172 187c107 0 171 -71 171 -187zM660 316c-71 0 -114 -54 -114 -141s43 -141 114 -141c72 0 115 54 115 141s-43 141 -115 141zM77 637c30 33 71 50 123 50c44 0 80 -13 107 -40s42 -58 45 -95h-56
c-1 22 -11 42 -29 60s-40 27 -67 27c-69 0 -111 -52 -111 -139s42 -139 111 -139c52 0 92 42 96 91h56c-3 -40 -19 -73 -46 -100c-28 -27 -63 -40 -106 -40c-104 0 -168 71 -168 188c0 58 15 104 45 137zM195 0l392 674h65l-392 -674h-65z" />
    <glyph glyph-name="afii61289" unicode="&#x2113;" horiz-adv-x="435" 
d="M322 642c22 -31 33 -79 33 -146c0 -173 -66 -267 -177 -294v-62c0 -67 23 -95 78 -95c17 0 34 3 50 8v-53c-18 -6 -39 -9 -62 -9c-88 0 -128 46 -128 149v55h-4c-21 0 -39 2 -55 6v44c19 -3 37 -5 55 -5h4v249c0 74 10 126 29 155s49 43 90 43c36 0 65 -15 87 -45z
M192 608c-9 -20 -14 -57 -14 -110v-249c87 27 130 110 130 247c0 100 -28 141 -69 141c-22 0 -38 -10 -47 -29z" />
    <glyph glyph-name="afii61352" unicode="&#x2116;" horiz-adv-x="1120" 
d="M101 712h99l290 -495c39 -68 68 -119 88 -152h2c-1 79 -1 198 -1 356v291h65v-712h-99l-290 495c-39 68 -68 119 -88 152h-2l1 -356v-291h-65v712zM746 425c0 116 67 188 172 188c53 0 94 -17 125 -50c31 -34 46 -80 46 -138c0 -117 -64 -188 -171 -188
c-53 0 -94 17 -125 51c-31 33 -47 79 -47 137zM1003 322c20 25 30 60 30 103c0 88 -43 142 -115 142c-71 0 -114 -54 -114 -142c0 -87 43 -141 114 -141c36 0 64 13 85 38zM1071 116h-307v53h307v-53z" />
    <glyph glyph-name="uni2117" unicode="&#x2117;" horiz-adv-x="814" 
d="M595 677c54 -31 96 -74 126 -129c29 -55 44 -119 44 -192s-15 -137 -44 -192c-60 -111 -173 -175 -314 -175c-211 -2 -360 150 -358 367c-2 217 147 369 358 367c71 0 133 -15 188 -46zM684 526c-27 49 -64 87 -111 114c-48 27 -103 40 -166 40
c-189 0 -316 -130 -316 -324s127 -324 316 -324c63 0 118 14 166 41c95 53 150 155 150 283c0 64 -13 121 -39 170zM272 110v478h162c116 0 180 -53 180 -148c0 -93 -65 -147 -180 -147h-99v-183h-63zM335 531v-180h98c75 0 116 30 116 89c0 60 -41 91 -116 91h-98z" />
    <glyph glyph-name="trademark" unicode="&#x2122;" horiz-adv-x="787" 
d="M736 712v-356h-50v299h-2c-3 -7 -10 -27 -22 -62l-89 -237h-57l-65 174c-15 40 -25 70 -32 90c-3 7 -8 19 -13 35h-2l1 -126v-173h-51v356h82l59 -164c11 -30 28 -75 49 -135h2l48 135l61 164h81zM5 712h293v-46h-121v-310h-51v310h-121v46z" />
    <glyph glyph-name="uni2126" unicode="&#x2126;" horiz-adv-x="726" 
d="M685 0h-253v61c57 58 100 114 130 167c29 53 44 112 44 177c0 169 -95 259 -243 259c-147 0 -242 -90 -242 -259c0 -66 15 -125 45 -178c29 -53 72 -108 128 -166v-61h-253v59h180v2c-108 111 -169 215 -169 348c0 103 28 182 85 236c57 53 132 80 226 80
c95 0 170 -27 227 -80c56 -54 84 -133 84 -236c0 -133 -61 -237 -169 -348v-2h180v-59z" />
    <glyph glyph-name="estimated" unicode="&#x212e;" horiz-adv-x="859" 
d="M766 507c31 -55 46 -116 46 -181h-610c-8 0 -13 -5 -13 -12v-166c0 -23 3 -33 15 -44c62 -61 137 -91 226 -91c96 0 185 44 238 109h69c-27 -37 -66 -68 -118 -94c-52 -27 -115 -40 -189 -40c-227 -3 -386 147 -383 348c-2 197 150 354 383 351c156 0 275 -71 336 -180z
M192 551c-2 -6 -3 -14 -3 -24v-166c0 -9 4 -13 13 -13h454c9 0 13 4 13 13v166c0 20 -3 29 -15 41c-63 62 -137 93 -224 93c-89 0 -164 -31 -226 -93c-6 -6 -10 -12 -12 -17z" />
    <glyph glyph-name="oneeighth" unicode="&#x215b;" horiz-adv-x="716" 
d="M542 -9c-87 0 -145 49 -145 120c0 48 23 79 72 98v1c-43 21 -65 51 -65 90c0 67 57 113 138 113c40 0 73 -11 99 -32c25 -21 38 -48 38 -81c0 -39 -22 -69 -65 -90v-1c51 -19 72 -50 72 -98c0 -71 -59 -120 -144 -120zM65 0l392 674h65l-392 -674h-65zM9 561v46
c64 0 93 19 101 67h45v-404h-56v291h-90zM629 112c0 43 -35 71 -87 71s-88 -28 -88 -71s35 -69 88 -69c52 0 87 26 87 69zM600 345c-15 11 -34 16 -58 16c-49 0 -81 -24 -81 -61c0 -41 32 -67 81 -67s80 26 80 67c0 19 -7 34 -22 45z" />
    <glyph glyph-name="threeeighths" unicode="&#x215c;" horiz-adv-x="843" 
d="M541 171c11 16 29 29 54 38v1c-43 21 -65 51 -65 90c0 67 57 113 138 113c40 0 73 -11 99 -32c25 -21 38 -48 38 -81c0 -39 -22 -69 -65 -90v-1c51 -19 72 -50 72 -98c0 -71 -59 -120 -144 -120c-87 0 -145 49 -145 120c0 24 6 44 18 60zM312 376
c0 -68 -58 -115 -142 -115c-89 0 -143 48 -143 131h57c0 -55 29 -79 86 -79c51 0 84 25 84 65c0 47 -36 72 -101 72h-13v50h13c57 0 94 27 94 68c0 39 -29 63 -78 63c-53 0 -81 -24 -81 -76h-57c0 80 54 128 139 128c84 0 135 -43 135 -111c0 -45 -18 -73 -66 -94v-2
c52 -21 73 -51 73 -100zM648 674l-392 -674h-65l392 674h65zM604 62c16 -13 37 -19 64 -19c52 0 87 26 87 69s-35 71 -87 71s-88 -28 -88 -71c0 -21 8 -38 24 -50zM587 300c0 -41 32 -67 81 -67s80 26 80 67c0 37 -32 61 -80 61c-49 0 -81 -24 -81 -61z" />
    <glyph glyph-name="fiveeighths" unicode="&#x215d;" horiz-adv-x="844" 
d="M564 25c-27 22 -40 51 -40 86c0 48 23 79 72 98v1c-43 21 -65 51 -65 90c0 67 57 113 138 113c40 0 73 -11 99 -32c25 -21 38 -48 38 -81c0 -39 -22 -69 -65 -90v-1c51 -19 72 -50 72 -98c0 -71 -59 -120 -144 -120c-43 0 -78 11 -105 34zM91 378c1 -41 34 -65 78 -65
c53 0 87 34 87 89c0 52 -31 84 -82 84c-43 0 -71 -19 -80 -55l-56 3l22 240h234v-51h-183l-11 -113h1c16 17 45 28 77 28c83 0 136 -53 136 -137c0 -85 -56 -140 -144 -140c-81 0 -136 45 -136 117h57zM649 674l-392 -674h-65l392 674h65zM581 112c0 -43 35 -69 88 -69
c52 0 87 26 87 69s-35 71 -87 71s-88 -28 -88 -71zM588 300c0 -41 32 -67 81 -67s80 26 80 67c0 37 -32 61 -80 61c-49 0 -81 -24 -81 -61z" />
    <glyph glyph-name="seveneighths" unicode="&#x215e;" horiz-adv-x="750" 
d="M647 209c51 -19 72 -50 72 -98c0 -71 -59 -120 -144 -120c-87 0 -145 49 -145 120c0 48 23 79 72 98v1c-43 21 -65 51 -65 90c0 67 57 113 138 113c40 0 73 -11 99 -32c25 -21 38 -48 38 -81c0 -39 -22 -69 -65 -90v-1zM490 674h65l-392 -674h-65zM9 674h284v-51
c-64 -85 -120 -216 -148 -353h-60c37 152 92 274 147 353h-223v51zM638 62c16 12 24 29 24 50c0 43 -35 71 -87 71s-88 -28 -88 -71s35 -69 88 -69c26 0 47 6 63 19zM575 361c-49 0 -81 -24 -81 -61c0 -41 32 -67 81 -67s80 26 80 67c0 37 -32 61 -80 61z" />
    <glyph glyph-name="uni2166" unicode="&#x2166;" horiz-adv-x="1131" 
d="M7 712h69l232 -649h2l110 312l121 337h69l-257 -712h-88zM698 712h65v-712h-65v712zM1030 0h-65v712h65v-712z" />
    <glyph glyph-name="partialdiff" unicode="&#x2202;" horiz-adv-x="589" 
d="M520 374c0 -87 -11 -160 -33 -218c-45 -116 -123 -169 -216 -169c-70 0 -124 21 -163 64c-39 42 -59 98 -59 169c0 145 88 258 227 258c88 0 147 -42 174 -101h2c1 7 1 18 1 33c0 153 -72 255 -183 255c-75 0 -117 -38 -128 -115h-68c12 108 76 175 195 175
c160 0 251 -122 251 -351zM137 321c-13 -31 -20 -65 -20 -104c0 -53 13 -95 40 -125c26 -30 64 -45 114 -45c51 0 92 19 121 57c29 37 44 84 44 140c0 104 -60 174 -156 174c-65 0 -116 -37 -143 -97z" />
    <glyph glyph-name="uni2206" unicode="&#x2206;" horiz-adv-x="664" 
d="M6 0l282 712h89l281 -712h-652zM565 59l-232 600h-2l-232 -600h466z" />
    <glyph glyph-name="product" unicode="&#x220f;" horiz-adv-x="652" 
d="M101 712h450v-832h-65v773h-320v-773h-65v832z" />
    <glyph glyph-name="summation" unicode="&#x2211;" horiz-adv-x="471" 
d="M35 654v58h401v-58h-329l214 -362l-214 -354h329v-58h-401v58l216 354z" />
    <glyph glyph-name="minus" unicode="&#x2212;" horiz-adv-x="566" 
d="M74 288v57h418v-57h-418z" />
    <glyph glyph-name="uni2215" unicode="&#x2215;" horiz-adv-x="442" 
d="M327 745h64l-297 -834h-64z" />
    <glyph glyph-name="uni2219" unicode="&#x2219;" horiz-adv-x="335" 
d="M210 351v-91h-86v91h86z" />
    <glyph glyph-name="radical" unicode="&#x221a;" horiz-adv-x="541" 
d="M106 300h-81v52h123l97 -406h2l218 766h56l-238 -832h-77z" />
    <glyph glyph-name="infinity" unicode="&#x221e;" horiz-adv-x="606" 
d="M591 308c0 -43 -12 -77 -36 -103c-25 -27 -56 -40 -95 -40c-69 0 -112 37 -157 98c-45 -61 -88 -98 -156 -98c-79 0 -132 58 -132 143s53 143 132 143c68 0 111 -37 156 -98c45 61 88 98 157 98c77 0 131 -58 131 -143zM334 308c40 -57 71 -87 120 -87c51 0 80 32 80 87
s-29 87 -80 87c-49 0 -80 -30 -120 -87zM94 372c-15 -15 -22 -37 -22 -64c0 -55 31 -87 80 -87s80 30 120 87c-40 57 -71 87 -120 87c-25 0 -44 -8 -58 -23z" />
    <glyph glyph-name="integral" unicode="&#x222b;" horiz-adv-x="295" 
d="M12 -185v53c8 -3 18 -4 31 -4c49 0 73 26 73 90v625c0 91 42 137 125 137c13 0 27 -1 42 -4v-53c-8 3 -19 4 -32 4c-49 0 -73 -26 -73 -90v-625c0 -91 -41 -137 -124 -137c-15 0 -29 1 -42 4z" />
    <glyph glyph-name="approxequal" unicode="&#x2248;" horiz-adv-x="566" 
d="M121 346h-53c0 83 46 139 117 139c44 0 71 -18 114 -54c37 -31 54 -43 82 -43c40 0 64 32 64 84h53c0 -83 -46 -139 -117 -139c-43 0 -71 18 -114 53c-32 28 -54 43 -82 43c-40 0 -64 -32 -64 -83zM428 228c11 15 17 35 17 60h53c0 -83 -46 -139 -117 -139
c-44 0 -73 19 -114 54c-35 29 -54 43 -82 43c-40 0 -64 -32 -64 -84h-53c0 41 11 75 32 101c21 25 50 38 85 38c44 0 71 -18 114 -54c36 -29 54 -42 82 -42c20 0 36 8 47 23z" />
    <glyph glyph-name="notequal" unicode="&#x2260;" horiz-adv-x="566" 
d="M492 268v-56h-246l-88 -132h-63l87 132h-108v56h145l65 97h-210v56h247l87 132h64l-88 -132h108v-56h-145l-64 -97h209z" />
    <glyph glyph-name="lessequal" unicode="&#x2264;" horiz-adv-x="566" 
d="M74 356l418 175v-61l-359 -150v-2l359 -150v-62l-418 175v75zM74 56h418v-56h-418v56z" />
    <glyph glyph-name="greaterequal" unicode="&#x2265;" horiz-adv-x="566" 
d="M74 168l359 150v2l-359 150v61l418 -175v-75l-418 -175v62zM74 0v56h418v-56h-418z" />
    <glyph glyph-name="lozenge" unicode="&#x25ca;" horiz-adv-x="574" 
d="M40 356l207 356h80l207 -356l-207 -356h-80zM105 356l182 -310l181 310l-181 310z" />
    <glyph glyph-name="uniF8FF" unicode="&#xf8ff;" horiz-adv-x="614" 
 />
    <glyph glyph-name="uniFB00" unicode="&#xfb00;" horiz-adv-x="541" 
d="M526 712v-53c-9 3 -20 4 -31 4c-49 0 -73 -26 -73 -90v-65h102v-52h-102v-456h-62v456h-192v-456h-62v456h-91v52h91v71c0 91 42 137 125 137c13 0 27 -1 42 -4v-53c-9 3 -20 4 -32 4c-49 0 -73 -26 -73 -90v-65h192v71c0 91 42 137 125 137c14 0 28 -1 41 -4z" />
    <glyph glyph-name="uniFB01" unicode="&#xfb01;" horiz-adv-x="516" 
d="M106 456h-91v52h91v71c0 91 42 137 125 137c13 0 27 -1 42 -4v-53c-9 3 -20 4 -32 4c-49 0 -73 -26 -73 -90v-65h103v-52h-103v-456h-62v456zM370 0v508h62v-508h-62zM432 712v-88h-62v88h62z" />
    <glyph glyph-name="uniFB02" unicode="&#xfb02;" horiz-adv-x="516" 
d="M106 508v71c0 91 42 137 125 137c13 0 27 -1 42 -4v-53c-9 3 -20 4 -32 4c-49 0 -73 -26 -73 -90v-65h103v-52h-103v-456h-62v456h-91v52h91zM432 0h-62v712h62v-712z" />
    <glyph glyph-name="uniFB03" unicode="&#xfb03;" horiz-adv-x="769" 
d="M15 456v52h91v71c0 91 42 137 125 137c13 0 27 -1 42 -4v-53c-9 3 -20 4 -32 4c-49 0 -73 -26 -73 -90v-65h192v71c0 91 42 137 125 137c14 0 28 -1 41 -4v-53c-9 3 -20 4 -31 4c-49 0 -73 -26 -73 -90v-65h102v-52h-102v-456h-62v456h-192v-456h-62v456h-91zM624 0v508
h62v-508h-62zM624 624v88h62v-88h-62z" />
    <glyph glyph-name="uniFB04" unicode="&#xfb04;" horiz-adv-x="769" 
d="M106 456h-91v52h91v71c0 91 42 137 125 137c13 0 27 -1 42 -4v-53c-9 3 -20 4 -32 4c-49 0 -73 -26 -73 -90v-65h192v71c0 91 42 137 125 137c14 0 28 -1 41 -4v-53c-9 3 -20 4 -31 4c-49 0 -73 -26 -73 -90v-65h102v-52h-102v-456h-62v456h-192v-456h-62v456zM624 0v712
h62v-712h-62z" />
    <glyph glyph-name="uniFEFF" unicode="&#xfeff;" horiz-adv-x="0" 
 />
    <glyph glyph-name="glyph202" horiz-adv-x="337" 
d="M56 57c80 0 120 43 120 138v517h66v-519c0 -131 -66 -197 -185 -197c-16 0 -30 2 -42 5v60c14 -3 28 -4 41 -4zM151 775l90 141h84l-115 -141h-59z" />
    <glyph glyph-name="Ccedilla.salt" horiz-adv-x="683" 
d="M628 474h-68c-5 58 -27 104 -64 139c-38 34 -86 51 -145 51c-147 0 -237 -117 -237 -308s90 -308 235 -308c58 0 106 18 145 53s62 82 70 141h68c-16 -154 -121 -255 -283 -255c-186 0 -304 141 -304 369s117 369 306 369c166 0 269 -107 277 -251zM327 -49h60l-101 -159
h-83z" />
    <glyph glyph-name="Scedilla.salt" horiz-adv-x="599" 
d="M530 491h-66c0 117 -61 175 -182 175c-100 0 -157 -49 -157 -129c4 -85 50 -107 180 -139c108 -27 169 -49 209 -101c19 -27 29 -62 29 -107c0 -62 -22 -111 -65 -148c-44 -37 -103 -55 -178 -55c-163 0 -255 87 -255 250h65c0 -129 70 -190 190 -190
c115 0 177 51 177 142c0 57 -28 89 -79 110c-26 10 -62 21 -109 33c-107 27 -166 49 -202 101c-19 25 -28 60 -28 103c0 112 84 189 223 189c164 0 248 -79 248 -234zM283 -49h60l-101 -159h-83z" />
    <glyph glyph-name="Tcommaaccent.salt" horiz-adv-x="592" 
d="M10 653v59h572v-59h-254v-653h-65v653h-253zM279 -49h60l-101 -159h-83z" />
    <glyph glyph-name="i.locl" horiz-adv-x="228" 
d="M83 0v508h62v-508h-62zM83 624v88h62v-88h-62z" />
    <glyph glyph-name="glyph314" horiz-adv-x="235" 
d="M-17 -131c11 -2 21 -3 30 -3c51 0 77 27 77 98v544h62v-545c0 -101 -44 -152 -133 -152c-13 0 -25 1 -36 4v54zM153 712h84l-115 -141h-59z" />
    <glyph glyph-name="ccedilla.salt" horiz-adv-x="521" 
d="M449 82c-36 -59 -98 -95 -175 -95c-71 0 -127 24 -168 72c-41 47 -62 112 -62 195s21 148 62 196c41 47 97 71 168 71c57 0 105 -17 143 -52c37 -35 58 -80 63 -136h-65c-7 79 -64 134 -141 134c-101 0 -163 -81 -163 -213c0 -133 62 -213 163 -213c38 0 70 14 97 41
c26 27 41 60 44 99h65c-3 -37 -14 -70 -31 -99zM133 -208l124 159h60l-101 -159h-83z" />
    <glyph glyph-name="scedilla.salt" horiz-adv-x="479" 
d="M421 347h-62c0 76 -48 120 -129 120c-69 0 -115 -33 -115 -84c0 -40 18 -59 50 -70c15 -5 41 -12 78 -21c44 -10 78 -19 103 -28s46 -24 64 -44c17 -21 26 -49 26 -85c0 -44 -17 -80 -52 -107s-81 -41 -138 -41c-128 0 -204 67 -205 184h63c0 -83 51 -130 142 -130
c76 0 128 37 128 90c0 44 -20 66 -59 79c-19 7 -50 15 -92 25c-39 9 -70 18 -91 26c-22 8 -41 21 -56 40s-23 44 -23 77c0 43 17 77 50 104c33 26 75 39 127 39c120 0 190 -63 191 -174zM105 -208l124 159h60l-101 -159h-83z" />
    <glyph glyph-name="tcommaaccent.salt" horiz-adv-x="302" 
d="M273 2c-15 -3 -30 -5 -46 -5c-88 0 -124 40 -124 137v322h-91v52h91v118h62v-118h103v-52h-103v-321c0 -60 20 -84 73 -84c13 0 24 1 35 4v-53zM152 -49h60l-101 -159h-83z" />
    <glyph glyph-name="a.superior" horiz-adv-x="383" 
d="M337 330h-49c-3 19 -5 36 -5 53h-2c-25 -40 -68 -60 -129 -60c-76 0 -126 43 -126 104s39 95 143 111c41 6 77 10 107 12v14c0 60 -34 87 -89 87c-56 0 -87 -28 -90 -72h-56c4 68 58 116 146 116c89 0 141 -46 141 -138v-136c0 -35 3 -66 9 -91zM104 384
c14 -11 34 -17 59 -17c32 0 63 11 80 28c25 25 33 44 33 88v23c-30 -2 -63 -6 -100 -12c-69 -11 -93 -27 -93 -64c0 -19 7 -35 21 -46z" />
    <glyph glyph-name="b.superior" horiz-adv-x="411" 
d="M338 645c28 -34 42 -79 42 -136c0 -113 -60 -187 -155 -187c-49 0 -92 24 -112 59h-2v-51h-53v498h54v-191h2c19 35 62 59 111 59c47 0 85 -17 113 -51zM138 612c-20 -26 -30 -60 -30 -103c0 -85 43 -142 108 -142s108 57 108 142s-43 142 -108 142
c-33 0 -59 -13 -78 -39z" />
    <glyph glyph-name="c.superior" horiz-adv-x="380" 
d="M307 655c27 -27 42 -58 45 -95h-56c-1 22 -11 42 -29 60s-40 27 -67 27c-69 0 -111 -52 -111 -139s42 -139 111 -139c52 0 92 42 96 91h56c-3 -40 -19 -73 -46 -100c-28 -27 -63 -40 -106 -40c-104 0 -168 71 -168 188c0 116 64 187 168 187c44 0 80 -13 107 -40z" />
    <glyph glyph-name="d.superior" horiz-adv-x="411" 
d="M353 828v-498h-53v51h-2c-19 -35 -63 -59 -111 -59c-95 0 -155 74 -155 187s61 187 154 187c49 0 92 -24 112 -59h2v191h53zM87 509c0 -85 44 -142 109 -142c64 0 107 57 107 142s-43 142 -107 142c-65 0 -109 -57 -109 -142z" />
    <glyph glyph-name="e.superior" horiz-adv-x="393" 
d="M356 569c4 -20 6 -44 6 -73h-276c3 -87 48 -131 115 -131c55 0 91 27 103 71h55c-12 -65 -67 -116 -158 -116c-105 0 -169 75 -169 194c0 53 15 97 45 131c29 33 70 50 122 50c83 0 140 -47 157 -126zM121 621c-21 -20 -32 -48 -35 -83h223c-5 71 -49 112 -110 112
c-32 0 -58 -10 -78 -29z" />
    <glyph glyph-name="egrave.superior" horiz-adv-x="393" 
d="M356 569c4 -20 6 -44 6 -73h-276c3 -87 48 -131 115 -131c55 0 91 27 103 71h55c-12 -65 -67 -116 -158 -116c-105 0 -169 75 -169 194c0 99 53 171 144 180l-87 93h77l67 -95c64 -11 108 -55 123 -123zM121 621c-21 -20 -32 -48 -35 -83h223c-5 71 -49 112 -110 112
c-32 0 -58 -10 -78 -29z" />
    <glyph glyph-name="f.superior" horiz-adv-x="214" 
d="M129 330h-54v311h-64v45h64v47c0 65 32 98 96 98c12 0 23 -1 32 -4v-43c-7 2 -14 3 -23 3c-35 0 -51 -17 -51 -61v-40h73v-45h-73v-311z" />
    <glyph glyph-name="g.superior" horiz-adv-x="411" 
d="M353 686v-334c0 -104 -55 -157 -160 -157c-91 0 -145 42 -145 113h53c1 -44 36 -69 92 -69c73 0 106 35 106 115v39h-2c-24 -36 -64 -56 -108 -56c-96 0 -157 71 -157 179s61 179 157 179c45 0 85 -20 109 -56h2v47h53zM116 614c-19 -25 -29 -58 -29 -98
c0 -80 41 -134 104 -134c69 0 111 50 111 134s-42 135 -111 135c-31 0 -56 -12 -75 -37z" />
    <glyph glyph-name="h.superior" horiz-adv-x="409" 
d="M112 828v-186h2c24 35 65 52 109 52c87 0 132 -51 132 -148v-216h-53v213c0 79 -29 105 -89 105c-57 0 -101 -39 -101 -111v-207h-54v498h54z" />
    <glyph glyph-name="i.superior" horiz-adv-x="170" 
d="M58 330v356h54v-356h-54zM58 828h54v-64h-54v64z" />
    <glyph glyph-name="j.superior" horiz-adv-x="176" 
d="M-12 200v47c6 -1 14 -2 24 -2c35 0 52 16 52 53v388h53v-389c0 -69 -36 -100 -99 -100c-9 0 -19 1 -30 3zM64 764v64h53v-64h-53z" />
    <glyph glyph-name="k.superior" horiz-adv-x="353" 
d="M112 330h-54v498h54v-289h2l151 147h72l-170 -159l191 -197h-74l-170 182h-2v-182z" />
    <glyph glyph-name="l.superior" horiz-adv-x="170" 
d="M58 330v498h54v-498h-54z" />
    <glyph glyph-name="m.superior" horiz-adv-x="614" 
d="M560 550v-220h-54v216c0 76 -25 102 -78 102c-56 0 -92 -45 -92 -113v-205h-54v226c0 59 -27 92 -78 92c-56 0 -92 -47 -92 -116v-202h-54v356h53v-43h2c28 35 58 51 99 51c49 0 90 -25 110 -69c25 46 63 69 115 69c80 0 123 -49 123 -144z" />
    <glyph glyph-name="n.superior" horiz-adv-x="410" 
d="M113 641c21 32 63 53 110 53c87 0 132 -51 132 -148v-216h-53v213c0 79 -29 105 -89 105c-57 0 -101 -39 -101 -111v-207h-54v356h53v-45h2z" />
    <glyph glyph-name="o.superior" horiz-adv-x="405" 
d="M78 371c-31 33 -47 79 -47 137c0 116 67 187 172 187c107 0 171 -71 171 -187c0 -117 -64 -188 -171 -188c-53 0 -94 17 -125 51zM89 508c0 -87 43 -141 114 -141c72 0 115 54 115 141s-43 141 -115 141c-71 0 -114 -54 -114 -141z" />
    <glyph glyph-name="p.superior" horiz-adv-x="411" 
d="M338 645c28 -34 42 -79 42 -136c0 -113 -60 -187 -155 -187c-49 0 -92 24 -111 59h-2v-180h-54v485h53v-50h2c20 35 63 60 112 60c47 0 85 -17 113 -51zM138 612c-20 -26 -30 -60 -30 -103s10 -77 30 -103c19 -26 45 -39 78 -39c65 0 108 57 108 142s-43 142 -108 142
c-33 0 -59 -13 -78 -39z" />
    <glyph glyph-name="q.superior" horiz-adv-x="411" 
d="M353 686v-485h-53v180h-2c-20 -35 -63 -59 -112 -59c-93 0 -154 74 -154 187s60 187 155 187c48 0 92 -25 111 -60h2v50h53zM117 612c-20 -26 -30 -60 -30 -103c0 -85 44 -142 109 -142c64 0 107 57 107 142s-43 142 -107 142c-33 0 -59 -13 -79 -39z" />
    <glyph glyph-name="r.superior" horiz-adv-x="256" 
d="M58 686h53v-55h2c26 39 62 58 109 58c7 0 16 -1 25 -2v-51c-8 1 -16 2 -24 2c-72 0 -111 -47 -111 -126v-182h-54v356z" />
    <glyph glyph-name="s.superior" horiz-adv-x="351" 
d="M301 488c13 -15 20 -36 20 -62c0 -64 -54 -106 -141 -106c-93 0 -148 46 -151 129h54c0 -53 36 -83 97 -83c52 0 88 23 88 56c0 28 -13 43 -40 52c-13 4 -35 10 -65 17c-5 1 -20 5 -45 11c-26 6 -46 17 -59 32c-14 15 -21 34 -21 59c0 61 52 102 131 102
c88 0 140 -44 141 -121h-54c0 49 -32 76 -87 76c-48 0 -78 -20 -78 -52c0 -27 13 -38 34 -45c11 -3 29 -8 56 -14c61 -13 92 -22 120 -51z" />
    <glyph glyph-name="t.superior" horiz-adv-x="223" 
d="M202 377v-46c-9 -2 -20 -3 -34 -3c-68 0 -96 28 -96 99v214h-64v45h64v83h54v-83h73v-45h-73v-212c0 -39 14 -55 51 -55c7 0 15 1 25 3z" />
    <glyph glyph-name="u.superior" horiz-adv-x="409" 
d="M186 322c-43 0 -76 13 -98 38c-23 25 -34 61 -34 110v216h54v-213c0 -79 29 -105 88 -105c57 0 102 40 102 111v207h53v-356h-53v45h-2c-21 -32 -63 -53 -110 -53z" />
    <glyph glyph-name="v.superior" horiz-adv-x="331" 
d="M-4 686h58l111 -304h2l55 154l55 150h58l-134 -356h-70z" />
    <glyph glyph-name="w.superior" horiz-adv-x="544" 
d="M484 686h55l-102 -356h-77l-43 154c-13 44 -23 77 -29 100l-15 53h-2c-16 -60 -31 -111 -44 -153l-43 -154h-76l-102 356h55l85 -308h2l85 308h79l43 -156c16 -61 23 -88 22 -81c8 -32 14 -56 19 -71h2z" />
    <glyph glyph-name="x.superior" horiz-adv-x="343" 
d="M0 330l140 187l-127 169h65l92 -132h2l93 132h64l-126 -169l140 -187h-66l-105 147h-2l-105 -147h-65z" />
    <glyph glyph-name="y.superior" horiz-adv-x="337" 
d="M44 198c-9 0 -18 1 -26 3v47c8 -2 16 -3 25 -3c55 0 71 15 98 85l-144 356h58l114 -290h2l112 290h57l-150 -375c-38 -89 -69 -113 -146 -113z" />
    <glyph glyph-name="z.superior" horiz-adv-x="334" 
d="M18 330v48l224 260v2h-217v46h285v-48l-225 -260v-2h232v-46h-299z" />
    <glyph glyph-name="A.aalt" horiz-adv-x="554" 
d="M76 0h-70l227 548h88l227 -548h-70l-67 166h-268zM187 275l-20 -50h220l-20 50c-41 100 -70 173 -89 220h-2c-19 -47 -48 -120 -89 -220z" />
    <glyph glyph-name="Aacute.aalt" horiz-adv-x="554" 
d="M478 0l-67 166h-268l-67 -166h-70l227 548h88l227 -548h-70zM387 225l-20 50c-41 100 -70 173 -89 220h-2c-19 -47 -48 -120 -89 -220l-20 -50h220zM309 752h84l-115 -141h-59z" />
    <glyph glyph-name="Abreve.aalt" horiz-adv-x="554" 
d="M478 0l-67 166h-268l-67 -166h-70l227 548h88l227 -548h-70zM167 225h220l-20 50c-41 100 -70 173 -89 220h-2c-19 -47 -48 -120 -89 -220zM182 752c8 -57 42 -89 95 -89s86 30 95 89h51c-8 -88 -61 -139 -146 -139s-138 51 -146 139h51z" />
    <glyph glyph-name="Acircumflex.aalt" horiz-adv-x="554" 
d="M478 0l-67 166h-268l-67 -166h-70l227 548h88l227 -548h-70zM387 225l-20 50c-41 100 -70 173 -89 220h-2c-19 -47 -48 -120 -89 -220l-20 -50h220zM241 752h71l114 -141h-69l-80 101l-81 -101h-69z" />
    <glyph glyph-name="Adieresis.aalt" horiz-adv-x="554" 
d="M478 0l-67 166h-268l-67 -166h-70l227 548h88l227 -548h-70zM387 225l-20 50c-41 100 -70 173 -89 220h-2c-19 -47 -48 -120 -89 -220l-20 -50h220zM338 664v88h61v-88h-61zM154 664v88h61v-88h-61z" />
    <glyph glyph-name="Agrave.aalt" horiz-adv-x="554" 
d="M478 0l-67 166h-268l-67 -166h-70l227 548h88l227 -548h-70zM387 225l-20 50c-41 100 -70 173 -89 220h-2c-19 -47 -48 -120 -89 -220l-20 -50h220zM161 752h84l90 -141h-59z" />
    <glyph glyph-name="Amacron.aalt" horiz-adv-x="554" 
d="M478 0l-67 166h-268l-67 -166h-70l227 548h88l227 -548h-70zM387 225l-20 50c-41 100 -70 173 -89 220h-2c-19 -47 -48 -120 -89 -220l-20 -50h220zM408 716v-52h-263v52h263z" />
    <glyph glyph-name="Aogonek.aalt" horiz-adv-x="554" 
d="M551 -140v-44c-13 -5 -29 -8 -49 -8c-61 0 -92 27 -92 75c0 43 23 74 78 117h-10l-67 166h-268l-67 -166h-70l227 548h88l227 -548c-60 -45 -80 -75 -80 -110c0 -24 16 -37 43 -37c15 0 28 2 40 7zM167 225h220l-20 50c-41 100 -70 173 -89 220h-2
c-19 -47 -48 -120 -89 -220z" />
    <glyph glyph-name="Aring.aalt" horiz-adv-x="554" 
d="M478 0l-67 166h-268l-67 -166h-70l227 548h88l227 -548h-70zM209 776c19 19 41 28 68 28s49 -9 68 -28s28 -42 28 -69s-9 -49 -28 -68s-41 -29 -68 -29s-49 10 -68 29s-29 41 -29 68s10 50 29 69zM167 225h220l-20 50c-41 100 -70 173 -89 220h-2
c-19 -47 -48 -120 -89 -220zM235 665c11 -12 25 -18 42 -18c33 0 59 27 59 60s-26 59 -59 59s-60 -26 -60 -59c0 -17 6 -31 18 -42z" />
    <glyph glyph-name="Atilde.aalt" horiz-adv-x="554" 
d="M478 0l-67 166h-268l-67 -166h-70l227 548h88l227 -548h-70zM167 225h220l-20 50c-41 100 -70 173 -89 220h-2c-19 -47 -48 -120 -89 -220zM113 638c4 68 38 105 93 105c27 0 45 -9 82 -30c31 -17 43 -24 60 -24c27 0 43 19 46 54h48c-4 -68 -38 -105 -93 -105
c-28 0 -49 10 -81 29c-25 16 -42 24 -61 24c-27 0 -43 -18 -46 -53h-48z" />
    <glyph glyph-name="AE.aalt" horiz-adv-x="771" 
d="M718 59v-59h-302l-29 178h-226l-93 -178h-73l287 548h427v-59h-305l29 -178h260v-59h-250l31 -193h244zM192 237h186l-41 252h-13z" />
    <glyph glyph-name="B.aalt" horiz-adv-x="537" 
d="M453 233c19 -23 28 -49 28 -80c0 -93 -71 -153 -191 -153h-200v548h187c127 0 193 -55 193 -142c0 -59 -33 -103 -93 -124v-2c32 -9 57 -24 76 -47zM155 251v-194h125c91 0 133 32 133 97c0 64 -45 97 -146 97h-112zM155 492v-185h112c91 0 137 30 137 91
c0 63 -41 94 -134 94h-115z" />
    <glyph glyph-name="C.aalt" horiz-adv-x="577" 
d="M459 188h69c-6 -61 -30 -110 -72 -146c-42 -37 -97 -55 -164 -55c-78 0 -139 26 -184 77s-67 121 -67 210s22 160 67 211s106 76 185 76c69 0 124 -18 165 -54s64 -83 67 -142h-69c-8 84 -72 135 -163 135c-115 0 -184 -85 -184 -226s68 -226 183 -226
c89 0 154 53 167 140z" />
    <glyph glyph-name="Cacute.aalt" horiz-adv-x="577" 
d="M528 188c-6 -61 -30 -110 -72 -146c-42 -37 -97 -55 -164 -55c-78 0 -139 26 -184 77s-67 121 -67 210s22 160 67 211s106 76 185 76c69 0 124 -18 165 -54s64 -83 67 -142h-69c-8 84 -72 135 -163 135c-115 0 -184 -85 -184 -226s68 -226 183 -226c89 0 154 53 167 140
h69zM325 752h84l-115 -141h-59z" />
    <glyph glyph-name="Ccaron.aalt" horiz-adv-x="577" 
d="M528 188c-6 -61 -30 -110 -72 -146c-42 -37 -97 -55 -164 -55c-78 0 -139 26 -184 77s-67 121 -67 210s22 160 67 211s106 76 185 76c69 0 124 -18 165 -54s64 -83 67 -142h-69c-8 84 -72 135 -163 135c-115 0 -184 -85 -184 -226s68 -226 183 -226c89 0 154 53 167 140
h69zM143 752h69l81 -101l80 101h69l-114 -141h-71z" />
    <glyph glyph-name="Ccedilla.c2sc" horiz-adv-x="577" 
d="M458 507c41 -36 64 -83 67 -142h-69c-8 84 -72 135 -163 135c-115 0 -184 -85 -184 -226s68 -226 183 -226c89 0 154 53 167 140h69c-11 -112 -85 -186 -200 -199l-35 -52c7 1 14 2 23 2c44 0 78 -28 78 -72c0 -48 -37 -85 -105 -85c-35 0 -69 9 -100 27l15 32
c25 -13 51 -20 78 -20c39 0 60 16 60 44c0 27 -21 43 -56 43c-11 0 -21 -2 -31 -5l-16 18l44 66c-75 2 -134 28 -177 79s-65 120 -65 208c0 89 22 160 67 211s106 76 185 76c69 0 124 -18 165 -54z" />
    <glyph glyph-name="Ccircumflex.aalt" horiz-adv-x="577" 
d="M528 188c-6 -61 -30 -110 -72 -146c-42 -37 -97 -55 -164 -55c-78 0 -139 26 -184 77s-67 121 -67 210s22 160 67 211s106 76 185 76c69 0 124 -18 165 -54s64 -83 67 -142h-69c-8 84 -72 135 -163 135c-115 0 -184 -85 -184 -226s68 -226 183 -226c89 0 154 53 167 140
h69zM143 611l114 141h71l114 -141h-69l-80 101l-81 -101h-69z" />
    <glyph glyph-name="Cdotaccent.aalt" horiz-adv-x="577" 
d="M528 188c-6 -61 -30 -110 -72 -146c-42 -37 -97 -55 -164 -55c-78 0 -139 26 -184 77s-67 121 -67 210s22 160 67 211s106 76 185 76c69 0 124 -18 165 -54s64 -83 67 -142h-69c-8 84 -72 135 -163 135c-115 0 -184 -85 -184 -226s68 -226 183 -226c89 0 154 53 167 140
h69zM323 752v-88h-62v88h62z" />
    <glyph glyph-name="D.aalt" horiz-adv-x="604" 
d="M263 0h-173v548h173c192 0 300 -98 300 -274s-108 -274 -300 -274zM155 59h108c148 0 231 76 231 215s-83 215 -231 215h-108v-430z" />
    <glyph glyph-name="Eth.aalt" horiz-adv-x="605" 
d="M486 477c52 -47 78 -115 78 -203c0 -176 -108 -274 -300 -274h-173v251h-64v53h64v244h173c96 0 170 -24 222 -71zM156 489v-185h165v-53h-165v-192h108c148 0 232 76 232 215s-84 215 -232 215h-108z" />
    <glyph glyph-name="Dcaron.aalt" horiz-adv-x="604" 
d="M563 274c0 -176 -108 -274 -300 -274h-173v548h173c192 0 300 -98 300 -274zM263 59c148 0 231 76 231 215s-83 215 -231 215h-108v-430h108zM197 752l81 -101l80 101h69l-114 -141h-71l-114 141h69z" />
    <glyph glyph-name="Dcroat.aalt" horiz-adv-x="605" 
d="M564 274c0 -176 -108 -274 -300 -274h-173v251h-64v53h64v244h173c192 0 300 -98 300 -274zM156 304h165v-53h-165v-192h108c148 0 232 76 232 215s-84 215 -232 215h-108v-185z" />
    <glyph glyph-name="E.aalt" horiz-adv-x="520" 
d="M91 0v548h372v-59h-307v-178h290v-59h-290v-193h315v-59h-380z" />
    <glyph glyph-name="Eacute.aalt" horiz-adv-x="520" 
d="M91 548h372v-59h-307v-178h290v-59h-290v-193h315v-59h-380v548zM309 752h84l-115 -141h-59z" />
    <glyph glyph-name="Ebreve.aalt" horiz-adv-x="520" 
d="M471 0h-380v548h372v-59h-307v-178h290v-59h-290v-193h315v-59zM182 752c8 -57 42 -89 95 -89s86 30 95 89h51c-8 -88 -61 -139 -146 -139s-138 51 -146 139h51z" />
    <glyph glyph-name="Ecaron.aalt" horiz-adv-x="520" 
d="M471 0h-380v548h372v-59h-307v-178h290v-59h-290v-193h315v-59zM197 752l81 -101l80 101h69l-114 -141h-71l-114 141h69z" />
    <glyph glyph-name="Ecircumflex.aalt" horiz-adv-x="520" 
d="M471 0h-380v548h372v-59h-307v-178h290v-59h-290v-193h315v-59zM242 752h71l114 -141h-69l-80 101l-81 -101h-69z" />
    <glyph glyph-name="Edieresis.aalt" horiz-adv-x="520" 
d="M471 0h-380v548h372v-59h-307v-178h290v-59h-290v-193h315v-59zM399 752v-88h-61v88h61zM154 664v88h61v-88h-61z" />
    <glyph glyph-name="Edotaccent.aalt" horiz-adv-x="520" 
d="M91 548h372v-59h-307v-178h290v-59h-290v-193h315v-59h-380v548zM308 752v-88h-62v88h62z" />
    <glyph glyph-name="Egrave.aalt" horiz-adv-x="520" 
d="M91 548h372v-59h-307v-178h290v-59h-290v-193h315v-59h-380v548zM245 752l90 -141h-59l-115 141h84z" />
    <glyph glyph-name="Emacron.aalt" horiz-adv-x="520" 
d="M91 548h372v-59h-307v-178h290v-59h-290v-193h315v-59h-380v548zM145 716h263v-52h-263v52z" />
    <glyph glyph-name="Eogonek.aalt" horiz-adv-x="520" 
d="M474 -140v-44c-13 -5 -29 -8 -49 -8c-61 0 -92 27 -92 75c0 43 23 74 78 117h-320v548h372v-59h-307v-178h290v-59h-290v-193h315v-59c-60 -45 -80 -75 -80 -110c0 -24 16 -37 43 -37c15 0 28 2 40 7z" />
    <glyph glyph-name="F.aalt" horiz-adv-x="484" 
d="M90 548h363v-59h-298v-191h280v-59h-280v-239h-65v548z" />
    <glyph glyph-name="uniFB01.aalt" horiz-adv-x="731" 
d="M90 0v548h363v-59h-298v-191h280v-59h-280v-239h-65zM575 548h65v-548h-65v548z" />
    <glyph glyph-name="uniFB02.aalt" horiz-adv-x="954" 
d="M453 548v-59h-298v-191h280v-59h-280v-239h-65v548h363zM640 548v-489h304v-59h-369v548h65z" />
    <glyph glyph-name="G.aalt" horiz-adv-x="610" 
d="M532 292v-292h-61v71h-2c-32 -51 -104 -81 -183 -81c-150 0 -245 108 -245 283c0 89 23 160 69 211s109 77 190 77c65 0 119 -16 162 -47c42 -31 65 -74 70 -127h-69c-15 73 -74 113 -163 113c-119 0 -191 -86 -191 -227c0 -139 69 -223 184 -223c108 0 176 57 176 184
h-165v58h228z" />
    <glyph glyph-name="Gbreve.aalt" horiz-adv-x="610" 
d="M469 71c-32 -51 -104 -81 -183 -81c-150 0 -245 108 -245 283c0 89 23 160 69 211s109 77 190 77c65 0 119 -16 162 -47c42 -31 65 -74 70 -127h-69c-15 73 -74 113 -163 113c-119 0 -191 -86 -191 -227c0 -139 69 -223 184 -223c108 0 176 57 176 184h-165v58h228v-292
h-61v71h-2zM200 752c8 -57 42 -89 95 -89s86 30 95 89h51c-8 -88 -61 -139 -146 -139s-138 51 -146 139h51z" />
    <glyph glyph-name="Gcircumflex.aalt" horiz-adv-x="610" 
d="M532 0h-61v71h-2c-32 -51 -104 -81 -183 -81c-150 0 -245 108 -245 283c0 89 23 160 69 211s109 77 190 77c65 0 119 -16 162 -47c42 -31 65 -74 70 -127h-69c-15 73 -74 113 -163 113c-119 0 -191 -86 -191 -227c0 -139 69 -223 184 -223c108 0 176 57 176 184h-165v58
h228v-292zM259 752h71l114 -141h-69l-80 101l-81 -101h-69z" />
    <glyph glyph-name="Gcommaaccent.aalt" horiz-adv-x="610" 
d="M532 0h-61v71h-2c-32 -51 -104 -81 -183 -81c-150 0 -245 108 -245 283c0 89 23 160 69 211s109 77 190 77c65 0 119 -16 162 -47c42 -31 65 -74 70 -127h-69c-15 73 -74 113 -163 113c-119 0 -191 -86 -191 -227c0 -139 69 -223 184 -223c108 0 176 57 176 184h-165v58
h228v-292zM256 -251l35 102h-28v81h71v-81l-49 -102h-29z" />
    <glyph glyph-name="Gdotaccent.aalt" horiz-adv-x="610" 
d="M532 0h-61v71h-2c-32 -51 -104 -81 -183 -81c-150 0 -245 108 -245 283c0 89 23 160 69 211s109 77 190 77c65 0 119 -16 162 -47c42 -31 65 -74 70 -127h-69c-15 73 -74 113 -163 113c-119 0 -191 -86 -191 -227c0 -139 69 -223 184 -223c108 0 176 57 176 184h-165v58
h228v-292zM325 752v-88h-62v88h62z" />
    <glyph glyph-name="H.aalt" horiz-adv-x="624" 
d="M91 548h65v-234h312v234h65v-548h-65v255h-312v-255h-65v548z" />
    <glyph glyph-name="Hbar.aalt" horiz-adv-x="624" 
d="M582 489v-51h-49v-438h-65v255h-312v-255h-65v438h-49v51h49v59h65v-59h312v59h65v-59h49zM468 438h-312v-124h312v124z" />
    <glyph glyph-name="Hcircumflex.aalt" horiz-adv-x="624" 
d="M533 0h-65v255h-312v-255h-65v548h65v-234h312v234h65v-548zM163 611l114 141h71l114 -141h-69l-80 101l-81 -101h-69z" />
    <glyph glyph-name="I.aalt" horiz-adv-x="247" 
d="M91 0v548h65v-548h-65z" />
    <glyph glyph-name="Iacute.aalt" horiz-adv-x="247" 
d="M156 548v-548h-65v548h65zM66 611l90 141h84l-115 -141h-59z" />
    <glyph glyph-name="Ibreve.aalt" horiz-adv-x="247" 
d="M156 548v-548h-65v548h65zM45 752c4 -59 32 -90 79 -90s75 33 78 90h51c-3 -88 -49 -139 -129 -139s-126 51 -129 139h50z" />
    <glyph glyph-name="Icircumflex.aalt" horiz-adv-x="247" 
d="M91 548h65v-548h-65v548zM86 752h74l98 -140h-67l-68 101l-67 -101h-68z" />
    <glyph glyph-name="Idieresis.aalt" horiz-adv-x="247" 
d="M156 548v-548h-65v548h65zM165 752h61v-88h-61v88zM82 752v-88h-61v88h61z" />
    <glyph glyph-name="Idotaccent.aalt" horiz-adv-x="247" 
d="M91 0v548h65v-548h-65zM154 752v-88h-62v88h62z" />
    <glyph glyph-name="Igrave.aalt" horiz-adv-x="247" 
d="M91 0v548h65v-548h-65zM7 752h84l90 -141h-59z" />
    <glyph glyph-name="IJ.aalt" horiz-adv-x="541" 
d="M260 1v59c12 -2 23 -3 34 -3c64 0 96 31 96 100v391h65v-393c0 -105 -56 -158 -157 -158c-17 0 -29 1 -38 4zM91 0v548h65v-548h-65z" />
    <glyph glyph-name="Imacron.aalt" horiz-adv-x="247" 
d="M91 548h65v-548h-65v548zM2 716h242v-51h-242v51z" />
    <glyph glyph-name="Iogonek.aalt" horiz-adv-x="247" 
d="M41 -173c-15 13 -23 32 -23 56c0 21 6 41 19 58c12 18 32 38 59 59h-5v548h65v-548c-60 -45 -80 -75 -80 -110c0 -24 16 -37 43 -37c15 0 28 2 40 7v-44c-13 -5 -29 -8 -49 -8c-31 0 -54 6 -69 19z" />
    <glyph glyph-name="Itilde.aalt" horiz-adv-x="247" 
d="M156 548v-548h-65v548h65zM242 666c-15 -19 -36 -28 -61 -28s-41 10 -68 30c-21 16 -34 24 -49 24c-24 0 -38 -18 -41 -54h-44c3 68 34 105 85 105c25 0 41 -11 69 -31c23 -17 33 -24 48 -24c25 0 39 18 42 55h44c-1 -33 -10 -59 -25 -77z" />
    <glyph glyph-name="J.c2sc" horiz-adv-x="294" 
d="M13 1v59c12 -2 23 -3 34 -3c64 0 96 31 96 100v391h65v-393c0 -105 -56 -158 -157 -158c-17 0 -29 1 -38 4z" />
    <glyph glyph-name="Jcircumflex.aalt" horiz-adv-x="294" 
d="M119 81c16 16 24 41 24 76v391h65v-393c0 -105 -56 -158 -157 -158c-17 0 -29 1 -38 4v59c12 -2 23 -3 34 -3c32 0 56 8 72 24zM137 752h74l98 -140h-67l-68 101l-67 -101h-68z" />
    <glyph glyph-name="K.aalt" horiz-adv-x="525" 
d="M91 548h65v-248h2l248 248h89l-265 -262l290 -286h-91l-271 271h-2v-271h-65v548z" />
    <glyph glyph-name="Kcommaaccent.aalt" horiz-adv-x="525" 
d="M429 0l-271 271h-2v-271h-65v548h65v-248h2l248 248h89l-265 -262l290 -286h-91zM238 -251l35 102h-28v81h71v-81l-49 -102h-29z" />
    <glyph glyph-name="L.aalt" horiz-adv-x="470" 
d="M91 548h65v-489h304v-59h-369v548z" />
    <glyph glyph-name="Lacute.aalt" horiz-adv-x="470" 
d="M91 548h65v-489h304v-59h-369v548zM100 611l90 141h84l-115 -141h-59z" />
    <glyph glyph-name="Lcaron.aalt" horiz-adv-x="470" 
d="M156 548v-489h304v-59h-369v548h65zM244 548h64l-54 -176h-41z" />
    <glyph glyph-name="Lcommaaccent.aalt" horiz-adv-x="470" 
d="M91 0v548h65v-489h304v-59h-369zM267 -149h-28v81h71v-81l-49 -102h-29z" />
    <glyph glyph-name="Ldot.aalt" horiz-adv-x="530" 
d="M460 0h-369v548h65v-489h304v-59zM346 288v92h85v-92h-85z" />
    </font>
</defs>
</svg>
