<?xml version="1.0" standalone="no"?>
<!DOCTYPE svg PUBLIC "-//W3C//DTD SVG 1.1//EN" "http://www.w3.org/Graphics/SVG/1.1/DTD/svg11.dtd" >
<svg xmlns="http://www.w3.org/2000/svg" xmlns:xlink="http://www.w3.org/1999/xlink" version="1.1">
<metadata>
Created by FontForge 20190801 at Wed Nov 27 11:21:25 2019
 By Jimmy Wärting
Copyright \(c\) 2015 Monotype Imaging Inc.  All rights reserved.
</metadata>
<defs>
<font id="NeueHaasUnica-LightItalic" horiz-adv-x="563" >
  <font-face 
    font-family="Neue Haas Unica"
    font-weight="350"
    font-style="italic"
    font-stretch="normal"
    units-per-em="1000"
    panose-1="2 11 4 4 3 2 6 9 2 3"
    ascent="800"
    descent="-200"
    x-height="508"
    cap-height="712"
    bbox="-616 -275 1144 1082"
    underline-thickness="50"
    underline-position="-125"
    slope="-14"
    stemh="52"
    stemv="63"
    unicode-range="U+0020-FEFF"
  />
<missing-glyph horiz-adv-x="614" 
d="M463 -65h-312c-79 0 -128 49 -128 128v586c0 79 49 128 128 128h312c79 0 128 -49 128 -128v-586c0 -79 -49 -128 -128 -128zM527 -1c15 16 23 37 23 64v586c0 53 -34 87 -87 87h-312c-53 0 -87 -34 -87 -87v-586c0 -53 34 -87 87 -87h312c27 0 48 8 64 23zM389 448
c7 14 11 32 11 53c0 55 -37 87 -98 87c-67 0 -105 -38 -109 -107h-63c5 108 67 165 172 165c49 0 89 -13 120 -40s46 -62 46 -105c0 -29 -5 -54 -16 -73c-11 -20 -33 -45 -68 -74c-62 -56 -67 -65 -69 -160h-57v25c2 88 12 109 80 173c27 23 44 42 51 56zM248 65v81h77v-81
h-77z" />
    <glyph glyph-name="f_f.liga" unicode="ff" horiz-adv-x="541" 
d="M628 659c-9 3 -19 4 -30 4c-51 0 -82 -27 -98 -95l-15 -60h102l-12 -52h-103l-113 -456h-62l114 456h-193l-113 -456h-62l114 456h-92l13 52h92l19 76c21 88 72 132 152 132c17 0 33 -2 46 -5l-13 -52c-9 3 -19 4 -30 4c-51 0 -82 -27 -98 -95l-15 -60h193l19 76
c21 88 72 132 152 132c18 0 33 -2 45 -5z" />
    <glyph glyph-name="f_f_i.liga" unicode="ffi" horiz-adv-x="769" 
d="M628 659c-9 3 -19 4 -30 4c-51 0 -82 -27 -98 -95l-15 -60h102l-12 -52h-103l-113 -456h-62l114 456h-193l-113 -456h-62l114 456h-92l13 52h92l19 76c21 88 72 132 152 132c17 0 33 -2 46 -5l-13 -52c-9 3 -19 4 -30 4c-51 0 -82 -27 -98 -95l-15 -60h193l19 76
c21 88 72 132 152 132c18 0 33 -2 45 -5zM749 508l-126 -508h-62l126 508h62zM738 712h62l-21 -88h-62z" />
    <glyph glyph-name="f_f_l.liga" unicode="ffl" horiz-adv-x="769" 
d="M157 456h-92l13 52h92l19 76c21 88 72 132 152 132c17 0 33 -2 46 -5l-13 -52c-9 3 -19 4 -30 4c-51 0 -82 -27 -98 -95l-15 -60h193l19 76c21 88 72 132 152 132c18 0 33 -2 45 -5l-12 -52c-9 3 -19 4 -30 4c-51 0 -82 -27 -98 -95l-15 -60h102l-12 -52h-103l-113 -456
h-62l114 456h-193l-113 -456h-62zM623 0h-62l177 712h62z" />
    <glyph glyph-name="f_i.liga" unicode="fi" horiz-adv-x="516" 
d="M43 0l114 456h-92l13 52h92l19 76c21 88 72 132 152 132c17 0 33 -2 46 -5l-13 -52c-9 3 -19 4 -30 4c-51 0 -82 -27 -98 -95l-15 -60h103l-13 -52h-103l-113 -456h-62zM307 0l126 508h62l-126 -508h-62zM525 624h-62l21 88h62z" />
    <glyph glyph-name="f_l.liga" unicode="fl" horiz-adv-x="516" 
d="M157 456h-92l13 52h92l19 76c21 88 72 132 152 132c17 0 33 -2 46 -5l-13 -52c-9 3 -19 4 -30 4c-51 0 -82 -27 -98 -95l-15 -60h103l-13 -52h-103l-113 -456h-62zM546 712l-177 -712h-62l177 712h62z" />
    <glyph glyph-name=".notdef" horiz-adv-x="614" 
d="M463 -65h-312c-79 0 -128 49 -128 128v586c0 79 49 128 128 128h312c79 0 128 -49 128 -128v-586c0 -79 -49 -128 -128 -128zM527 -1c15 16 23 37 23 64v586c0 53 -34 87 -87 87h-312c-53 0 -87 -34 -87 -87v-586c0 -53 34 -87 87 -87h312c27 0 48 8 64 23zM389 448
c7 14 11 32 11 53c0 55 -37 87 -98 87c-67 0 -105 -38 -109 -107h-63c5 108 67 165 172 165c49 0 89 -13 120 -40s46 -62 46 -105c0 -29 -5 -54 -16 -73c-11 -20 -33 -45 -68 -74c-62 -56 -67 -65 -69 -160h-57v25c2 88 12 109 80 173c27 23 44 42 51 56zM248 65v81h77v-81
h-77z" />
    <glyph glyph-name="NULL" horiz-adv-x="0" 
 />
    <glyph glyph-name="NULL" horiz-adv-x="0" 
 />
    <glyph glyph-name="nonmarkingreturn" horiz-adv-x="333" 
 />
    <glyph glyph-name="space" unicode=" " horiz-adv-x="230" 
 />
    <glyph glyph-name="glyph1" horiz-adv-x="600" 
 />
    <glyph glyph-name="exclam" unicode="!" horiz-adv-x="251" 
d="M198 712h83l-152 -548h-52zM23 0l23 93h78l-22 -93h-79z" />
    <glyph glyph-name="quotedbl" unicode="&#x22;" horiz-adv-x="340" 
d="M318 712h65l-74 -258h-46zM185 712h65l-74 -258h-46z" />
    <glyph glyph-name="numbersign" unicode="#" horiz-adv-x="637" 
d="M637 429h-125l-74 -181h127l-21 -49h-126l-81 -199h-54l81 199h-161l-81 -199h-55l81 199h-126l19 49h127l74 181h-127l19 49h128l80 196h55l-80 -196h161l80 196h54l-80 -196h126zM223 248h161l74 181h-161z" />
    <glyph glyph-name="dollar" unicode="$" horiz-adv-x="544" 
d="M406 684c95 -14 142 -68 142 -162c0 -21 -2 -40 -6 -56h-65c4 18 6 34 6 48c0 63 -31 100 -92 111l-63 -255c97 -35 151 -69 153 -174c2 -96 -90 -210 -249 -209l-21 -86h-54l22 89c-97 15 -149 73 -149 172c0 21 2 42 7 63h65c-5 -21 -7 -40 -7 -57
c0 -67 33 -107 99 -119l68 275c-47 19 -83 40 -106 64c-23 23 -35 58 -35 103c-1 90 79 200 230 197h2l19 76h54zM391 258c-17 17 -43 32 -80 47l-64 -259c118 4 169 80 169 143c0 29 -8 52 -25 69zM186 499c0 -56 29 -85 93 -110l59 240c-47 -1 -84 -15 -111 -40
s-41 -55 -41 -90z" />
    <glyph glyph-name="percent" unicode="%" horiz-adv-x="841" 
d="M123 558c28 73 85 129 162 129c80 0 121 -47 121 -132c2 -105 -65 -243 -182 -240c-80 0 -122 46 -122 133c0 36 7 73 21 110zM751 325c20 -23 30 -55 30 -98c2 -105 -65 -243 -182 -240c-79 0 -122 46 -122 133c-1 104 66 243 183 239c40 0 70 -11 91 -34zM752 704
l-561 -734h-60l560 734h61zM225 368c76 -3 118 113 117 186c0 53 -19 79 -58 79c-77 3 -118 -113 -117 -184c0 -54 19 -81 58 -81zM659 306c-77 3 -118 -112 -117 -185c0 -53 20 -80 59 -80c74 -4 118 114 117 185c0 52 -20 80 -59 80z" />
    <glyph glyph-name="ampersand" unicode="&#x26;" horiz-adv-x="724" 
d="M611 397h65c-24 -97 -70 -186 -131 -257l108 -140h-81l-72 95c-75 -69 -165 -109 -254 -109c-127 0 -204 66 -204 169c0 99 67 189 222 253c-36 56 -49 94 -49 139c0 86 68 178 183 178c89 0 142 -52 142 -133c0 -80 -49 -146 -186 -205l155 -201c47 59 81 129 102 211z
M108 160c0 -69 55 -116 143 -116c77 0 151 34 215 95l-173 227c-123 -54 -185 -123 -185 -206zM285 494c7 -18 20 -40 39 -67c62 26 104 52 126 79c21 27 32 55 32 84c0 48 -33 79 -88 79c-80 0 -120 -67 -120 -122c0 -17 4 -35 11 -53z" />
    <glyph glyph-name="quotesingle" unicode="'" horiz-adv-x="207" 
d="M185 712h65l-74 -258h-46z" />
    <glyph glyph-name="parenleft" unicode="(" horiz-adv-x="274" 
d="M47 133c0 101 22 205 66 312c43 107 107 205 191 296h61c-168 -203 -252 -426 -252 -627c0 -77 10 -164 31 -261h-53c-29 90 -44 183 -44 280z" />
    <glyph glyph-name="parenright" unicode=")" horiz-adv-x="274" 
d="M-70 -147c168 203 252 426 252 627c0 82 -10 169 -31 261h54c29 -91 43 -185 43 -280c0 -101 -22 -204 -65 -311c-44 -107 -108 -206 -191 -297h-62z" />
    <glyph glyph-name="asterisk" unicode="*" horiz-adv-x="398" 
d="M117 608l38 58l107 -84l18 137l66 -16l-49 -130l135 24l6 -69l-135 10l64 -117l-65 -28l-35 134l-93 -102l-45 55l112 73z" />
    <glyph glyph-name="plus" unicode="+" horiz-adv-x="566" 
d="M74 345h181v181h56v-181h181v-57h-181v-180h-56v180h-181v57z" />
    <glyph glyph-name="comma" unicode="," horiz-adv-x="210" 
d="M29 0h-30l23 92h85l-22 -92l-74 -130h-45z" />
    <glyph glyph-name="hyphen" unicode="-" horiz-adv-x="290" 
d="M32 261l15 62h230l-15 -62h-230z" />
    <glyph glyph-name="period" unicode="." horiz-adv-x="210" 
d="M-1 0l23 92h85l-22 -92h-86z" />
    <glyph glyph-name="slash" unicode="/" horiz-adv-x="446" 
d="M447 745h70l-503 -834h-70z" />
    <glyph glyph-name="zero" unicode="0" horiz-adv-x="544" 
d="M501 252c-24 -74 -60 -137 -107 -188s-104 -77 -169 -77c-116 0 -175 78 -175 230c0 63 12 132 36 206c23 73 58 136 105 187s103 77 168 77c117 0 178 -78 178 -230c0 -63 -12 -132 -36 -205zM116 220c0 -115 39 -174 114 -174c50 0 93 23 129 69s63 101 82 165
s28 121 28 172c0 116 -38 174 -114 174c-49 0 -92 -23 -128 -69c-37 -47 -64 -102 -83 -166s-28 -121 -28 -171z" />
    <glyph glyph-name="one" unicode="1" horiz-adv-x="544" 
d="M186 562c103 0 153 31 186 112h52l-168 -674h-65l127 509h-146z" />
    <glyph glyph-name="two" unicode="2" horiz-adv-x="544" 
d="M512 426c-33 -59 -101 -107 -221 -166c-160 -81 -199 -125 -221 -201h372l-14 -59h-442c31 156 91 218 279 313c158 82 199 118 202 202c0 71 -40 111 -113 111c-83 0 -141 -52 -169 -143h-71c36 131 127 204 244 204c55 0 98 -15 131 -45c32 -30 48 -69 48 -118
c0 -37 -8 -69 -25 -98z" />
    <glyph glyph-name="three" unicode="3" horiz-adv-x="544" 
d="M474 522c0 64 -49 105 -129 105c-87 0 -147 -49 -170 -144h-67c14 64 43 114 86 150s94 54 152 54c121 0 193 -62 193 -162c0 -81 -51 -154 -158 -187v-2c57 -24 89 -72 89 -137c2 -95 -93 -215 -248 -212c-128 0 -196 58 -196 158c0 17 2 34 7 50h66
c-3 -13 -5 -28 -5 -43c0 -70 43 -105 129 -105c114 0 181 79 181 151c0 76 -50 115 -142 115h-29l14 59h30c132 0 197 78 197 150z" />
    <glyph glyph-name="four" unicode="4" horiz-adv-x="544" 
d="M500 185h-118l-46 -185h-64l46 185h-314l17 69l392 420h91l-108 -432h119zM332 242l26 99l64 258h-2l-332 -357h244z" />
    <glyph glyph-name="five" unicode="5" horiz-adv-x="544" 
d="M548 615h-303l-74 -219h2c32 28 82 45 127 45c115 0 180 -72 180 -189c2 -117 -99 -269 -263 -265c-115 0 -184 55 -184 148c0 13 2 27 6 42h67c-3 -11 -4 -22 -4 -33c0 -61 47 -97 120 -97c121 -3 193 115 191 200c0 84 -46 134 -126 134c-68 0 -123 -37 -156 -108
l-64 5l136 396h360z" />
    <glyph glyph-name="six" unicode="6" horiz-adv-x="544" 
d="M548 506h-67c1 4 1 8 1 13c0 72 -36 108 -109 108c-97 0 -187 -94 -234 -267h2c47 51 106 79 171 79c109 0 176 -75 176 -196c2 -109 -99 -261 -249 -256c-123 0 -186 72 -186 212c0 65 13 136 38 213s62 142 111 195s106 80 172 80c112 0 176 -59 176 -154
c0 -11 -1 -20 -2 -27zM114 186c0 -87 46 -139 126 -139c112 -4 181 114 180 192c0 87 -45 141 -120 141c-115 3 -188 -111 -186 -194z" />
    <glyph glyph-name="seven" unicode="7" horiz-adv-x="544" 
d="M102 0c117 244 251 449 402 615h-371l15 59h447l-15 -60c-148 -160 -289 -369 -398 -614h-80z" />
    <glyph glyph-name="eight" unicode="8" horiz-adv-x="544" 
d="M448 96c-39 -64 -115 -109 -215 -109c-125 0 -203 69 -203 180c0 89 58 160 171 189v2c-49 29 -78 75 -78 135c-2 88 91 197 233 194c58 0 104 -15 139 -45s52 -69 52 -118c0 -85 -54 -152 -157 -185v-2c56 -27 87 -76 87 -144c0 -33 -10 -65 -29 -97zM412 200
c0 72 -53 118 -138 118c-113 0 -177 -78 -177 -150c0 -75 52 -120 139 -120c115 0 176 80 176 152zM462 453c11 21 17 43 17 66c0 67 -49 108 -128 108c-106 0 -163 -73 -163 -141s47 -109 128 -109c72 0 122 32 146 76z" />
    <glyph glyph-name="nine" unicode="9" horiz-adv-x="544" 
d="M493 262c-25 -77 -62 -142 -110 -195c-49 -53 -106 -80 -172 -80c-112 0 -176 59 -176 154c0 11 1 20 2 27h67c-1 -4 -1 -8 -1 -13c0 -72 36 -108 108 -108c97 0 187 94 234 267h-2c-45 -51 -106 -79 -171 -79c-109 0 -176 75 -176 196c-2 109 99 261 249 256
c123 0 186 -72 186 -212c0 -65 -13 -136 -38 -213zM197 332c21 -25 50 -38 87 -38c116 -3 187 111 186 194c0 87 -46 139 -126 139c-112 4 -180 -114 -179 -192c0 -43 11 -78 32 -103z" />
    <glyph glyph-name="colon" unicode=":" horiz-adv-x="210" 
d="M126 508h85l-22 -92h-86zM22 92h85l-22 -92h-86z" />
    <glyph glyph-name="semicolon" unicode=";" horiz-adv-x="210" 
d="M-34 -130l63 130h-30l23 92h85l-22 -92l-74 -130h-45zM126 508h85l-22 -92h-86z" />
    <glyph glyph-name="less" unicode="&#x3c;" horiz-adv-x="566" 
d="M492 531v-62l-359 -151v-2l359 -151v-62l-418 176v76z" />
    <glyph glyph-name="equal" unicode="=" horiz-adv-x="566" 
d="M74 212v56h418v-56h-418zM74 365v56h418v-56h-418z" />
    <glyph glyph-name="greater" unicode="&#x3e;" horiz-adv-x="566" 
d="M492 355v-76l-418 -176v62l359 151v2l-359 151v62z" />
    <glyph glyph-name="question" unicode="?" horiz-adv-x="501" 
d="M500 457c-22 -32 -63 -68 -123 -107c-99 -67 -109 -83 -142 -195h-58c34 137 48 157 159 236c112 78 128 112 128 167c0 67 -47 108 -123 108c-85 0 -150 -51 -175 -143h-65c36 131 124 202 243 202c115 0 188 -64 188 -163c0 -38 -11 -73 -32 -105zM150 93h79l-23 -93
h-78z" />
    <glyph glyph-name="at" unicode="@" horiz-adv-x="865" 
d="M533 99c-14 13 -21 32 -21 55c0 7 0 13 1 17h-2c-43 -63 -97 -93 -158 -93c-76 0 -117 49 -117 142c0 41 10 85 31 132c20 47 48 86 85 118s78 48 123 48c68 0 103 -35 111 -94h2c9 23 20 51 35 84h58c-34 -73 -63 -141 -86 -203c-23 -63 -35 -106 -35 -129
c0 -30 16 -45 47 -45c104 -5 172 151 171 254c0 77 -25 138 -74 183c-50 45 -119 67 -207 67c-80 0 -149 -22 -207 -65c-58 -44 -102 -98 -131 -163c-30 -65 -45 -128 -45 -189c0 -169 93 -266 252 -266c84 0 161 19 231 57l18 -46c-76 -43 -158 -64 -246 -64
c-98 0 -174 28 -229 83c-55 56 -83 134 -83 234c0 68 18 139 53 213c35 73 87 135 154 185c67 49 145 74 236 74c209 0 333 -118 333 -302c2 -149 -92 -312 -238 -308c-27 0 -48 7 -62 21zM551 381c0 52 -25 83 -73 83c-104 5 -179 -151 -178 -237c0 -63 24 -94 73 -94
c33 0 64 14 91 42s48 62 64 102c15 39 23 74 23 104z" />
    <glyph glyph-name="A" unicode="A" horiz-adv-x="664" 
d="M402 712h89l104 -712h-66l-32 230h-333l-146 -230h-75zM202 290h287l-51 369h-2c-74 -118 -136 -216 -187 -295z" />
    <glyph glyph-name="B" unicode="B" horiz-adv-x="615" 
d="M581 440c-28 -37 -68 -64 -120 -80v-2c59 -17 92 -69 92 -141c2 -99 -92 -220 -259 -217h-256l177 712h203c136 0 204 -58 204 -155c0 -41 -14 -80 -41 -117zM117 57h175c136 0 194 85 194 162c0 73 -47 116 -148 116h-152zM345 392c154 0 211 84 211 159
c0 69 -50 104 -150 104h-140l-66 -263h145z" />
    <glyph glyph-name="C" unicode="C" horiz-adv-x="684" 
d="M676 459h-68c2 13 3 26 3 37c0 103 -68 168 -175 168c-63 0 -118 -20 -164 -60c-46 -41 -81 -91 -104 -152c-24 -61 -36 -120 -36 -179c0 -137 69 -225 186 -225c54 0 103 16 147 49c43 33 76 76 97 130h68c-24 -73 -64 -131 -121 -174c-57 -44 -122 -66 -196 -66
c-78 0 -139 25 -182 76c-44 50 -66 118 -66 203c0 71 15 142 44 213s72 129 129 176s126 70 206 70c147 0 235 -92 235 -224c0 -14 -1 -28 -3 -42z" />
    <glyph glyph-name="D" unicode="D" horiz-adv-x="718" 
d="M378 712c211 0 321 -106 321 -303c0 -65 -15 -129 -46 -192s-79 -115 -143 -156s-143 -61 -236 -61h-236l177 712h163zM117 59h158c240 -4 357 189 355 346c0 161 -87 248 -254 248h-111z" />
    <glyph glyph-name="E" unicode="E" horiz-adv-x="610" 
d="M38 0l177 712h443l-15 -59h-378l-63 -258h358l-15 -59h-359l-69 -277h390l-14 -59h-455z" />
    <glyph glyph-name="F" unicode="F" horiz-adv-x="568" 
d="M38 0l177 712h433l-16 -59h-367l-67 -269h346l-14 -59h-346l-81 -325h-65z" />
    <glyph glyph-name="G" unicode="G" horiz-adv-x="724" 
d="M694 486h-69c1 5 1 11 1 19c0 101 -63 159 -172 159c-67 0 -125 -20 -174 -60c-49 -41 -85 -92 -110 -153c-25 -62 -38 -124 -38 -185c0 -135 65 -218 184 -218c59 0 114 20 164 61c49 40 84 103 105 188h-210l15 59h272l-88 -356h-61l23 93h-2c-24 -32 -57 -57 -99 -76
c-43 -20 -87 -29 -133 -29c-148 0 -236 113 -236 279c0 73 15 144 46 215c30 71 75 129 134 175c59 45 130 68 212 68c74 0 132 -19 175 -57c42 -38 63 -89 63 -152c0 -8 -1 -18 -2 -30z" />
    <glyph glyph-name="H" unicode="H" horiz-adv-x="731" 
d="M38 0l177 712h65l-77 -313h399l77 313h65l-177 -712h-65l85 340h-400l-84 -340h-65z" />
    <glyph glyph-name="I" unicode="I" horiz-adv-x="267" 
d="M215 712h65l-177 -712h-65z" />
    <glyph glyph-name="J" unicode="J" horiz-adv-x="337" 
d="M-33 62c12 -3 24 -5 36 -5c83 0 135 43 160 142l127 513h66l-133 -531c-29 -123 -108 -185 -220 -185c-21 0 -37 3 -50 8z" />
    <glyph glyph-name="K" unicode="K" horiz-adv-x="607" 
d="M215 712h65l-80 -321h2l385 321h97l-417 -344l272 -368h-83l-261 361h-2l-90 -361h-65z" />
    <glyph glyph-name="L" unicode="L" horiz-adv-x="553" 
d="M38 0l177 712h65l-163 -653h377l-14 -59h-442z" />
    <glyph glyph-name="M" unicode="M" horiz-adv-x="909" 
d="M838 641l-51 -80c-70 -110 -112 -176 -127 -198l-231 -363h-76l-51 363l-18 134c-9 64 -16 112 -20 144h-2l-159 -641h-65l177 712h100l80 -585l7 -57h2l407 642h111l-177 -712h-65l160 641h-2z" />
    <glyph glyph-name="N" unicode="N" horiz-adv-x="745" 
d="M189 351l-86 -351h-65l177 712h92l110 -316c43 -125 81 -235 114 -331h2c34 139 63 257 88 356l72 291h65l-177 -712h-92l-110 316c-43 125 -81 235 -114 331h-2c-12 -49 -37 -148 -74 -296z" />
    <glyph glyph-name="O" unicode="O" horiz-adv-x="724" 
d="M708 434c0 -69 -15 -139 -45 -208c-31 -69 -75 -126 -132 -171s-124 -68 -199 -68c-166 0 -265 118 -265 291c0 70 15 140 45 209s74 126 131 171s123 67 198 67c168 0 267 -118 267 -291zM133 278c0 -69 18 -125 53 -167s84 -63 147 -63c61 0 116 20 163 59
s83 88 108 148c25 59 38 119 38 178c0 70 -18 126 -53 168c-36 42 -86 63 -149 63c-61 0 -115 -20 -162 -59s-82 -89 -107 -149s-38 -119 -38 -178z" />
    <glyph glyph-name="P" unicode="P" horiz-adv-x="606" 
d="M609 418c-39 -71 -120 -121 -236 -121h-197l-73 -297h-65l177 712h201c145 0 222 -70 222 -186c0 -37 -10 -73 -29 -108zM191 356h184c135 0 197 89 197 167c0 84 -53 130 -160 130h-147z" />
    <glyph glyph-name="Q" unicode="Q" horiz-adv-x="723" 
d="M709 439c0 -67 -14 -135 -42 -202s-67 -123 -118 -166l59 -87l-51 -35l-58 85c-54 -31 -111 -47 -171 -47c-165 0 -262 116 -262 286c0 71 15 141 46 211c30 70 74 128 132 173c57 45 125 68 202 68c165 0 263 -116 263 -286zM187 111c35 -42 84 -63 147 -63
c47 0 91 12 130 36l-72 105l52 36l70 -103c40 38 71 85 94 142s34 113 34 169c0 70 -18 126 -53 168c-36 42 -86 63 -149 63c-61 0 -115 -20 -162 -59s-82 -89 -107 -149s-38 -120 -38 -179c0 -69 18 -125 54 -166z" />
    <glyph glyph-name="R" unicode="R" horiz-adv-x="627" 
d="M599 457c-29 -59 -87 -104 -162 -119v-2c41 -16 60 -47 71 -132l26 -204h-65l-22 198c-9 88 -39 116 -119 116h-147l-78 -314h-65l177 712h199c140 0 207 -60 207 -169c0 -29 -7 -57 -22 -86zM195 373h159c138 -2 200 92 199 160c0 80 -48 120 -144 120h-144z" />
    <glyph glyph-name="S" unicode="S" horiz-adv-x="599" 
d="M523 491c5 18 7 35 7 50c0 83 -52 125 -156 125c-121 0 -178 -76 -178 -139c0 -35 11 -61 34 -79c22 -18 59 -36 111 -53c83 -28 130 -51 161 -98c15 -24 23 -55 23 -93c2 -102 -96 -220 -271 -217c-143 0 -220 63 -220 186c0 21 2 43 7 64h65c-4 -22 -6 -42 -6 -59
c0 -87 53 -131 158 -131c142 0 201 81 201 151c-4 76 -45 99 -150 137c-83 29 -129 52 -157 98c-15 23 -22 52 -22 88c-2 92 88 207 249 204c145 0 217 -59 217 -177c0 -19 -2 -38 -7 -57h-66z" />
    <glyph glyph-name="T" unicode="T" horiz-adv-x="592" 
d="M109 653l15 59h572l-16 -59h-253l-162 -653h-65l162 653h-253z" />
    <glyph glyph-name="U" unicode="U" horiz-adv-x="699" 
d="M209 712h65l-109 -435c-7 -29 -11 -56 -11 -81c0 -97 55 -148 155 -148c113 0 193 66 228 197l116 467h65l-121 -484c-40 -157 -143 -241 -294 -241c-137 0 -213 73 -213 206c0 28 5 61 14 100z" />
    <glyph glyph-name="V" unicode="V" horiz-adv-x="617" 
d="M186 712l36 -337c8 -69 19 -173 34 -312h2l188 312l205 337h73l-434 -712h-88l-81 712h65z" />
    <glyph glyph-name="W" unicode="W" horiz-adv-x="896" 
d="M999 712l-351 -712h-102v325c0 73 1 182 2 327h-2c-7 -13 -37 -74 -90 -181l-232 -471h-102l3 712h63l-1 -303c0 -77 -1 -193 -2 -348h2l172 350l150 301h99l-1 -301v-350h2l321 651h69z" />
    <glyph glyph-name="X" unicode="X" horiz-adv-x="617" 
d="M295 371l-157 341h71l134 -295h2l274 295h88l-329 -349l166 -363h-71l-142 316h-2l-294 -316h-88z" />
    <glyph glyph-name="Y" unicode="Y" horiz-adv-x="602" 
d="M188 712l59 -154c17 -42 41 -106 73 -191h2c75 85 131 149 169 191l134 154h86l-365 -408l-75 -304h-66l76 304l-162 408h69z" />
    <glyph glyph-name="Z" unicode="Z" horiz-adv-x="558" 
d="M-46 0l18 72l568 579v2h-415l15 59h495l-18 -72l-568 -579v-2h442l-14 -59h-523z" />
    <glyph glyph-name="bracketleft" unicode="[" horiz-adv-x="281" 
d="M200 741h182l-11 -48h-122l-197 -793h121l-12 -48h-182z" />
    <glyph glyph-name="backslash" unicode="\" horiz-adv-x="442" 
d="M152 745h60l93 -834h-60z" />
    <glyph glyph-name="bracketright" unicode="]" horiz-adv-x="281" 
d="M-80 -148l11 48h122l198 793h-122l12 48h182l-221 -889h-182z" />
    <glyph glyph-name="asciicircum" unicode="^" horiz-adv-x="426" 
d="M179 712h68l166 -341h-59l-140 290h-2l-140 -290h-59z" />
    <glyph glyph-name="underscore" unicode="_" horiz-adv-x="500" 
d="M-86 -88l10 38h500l-10 -38h-500z" />
    <glyph glyph-name="grave" unicode="`" horiz-adv-x="274" 
d="M164 712h80l59 -141h-55z" />
    <glyph glyph-name="a" unicode="a" horiz-adv-x="524" 
d="M459 304l-44 -179c-13 -51 -20 -93 -21 -125h-59c1 26 5 48 10 67h-2c-45 -51 -105 -77 -179 -77c-97 0 -156 51 -156 128c0 94 73 152 220 174c55 8 112 14 172 18l3 12c5 19 7 35 7 49c0 65 -42 97 -113 97c-80 0 -133 -45 -148 -113h-65c11 49 36 89 75 120
s86 46 142 46c105 0 167 -50 167 -150c0 -19 -3 -42 -9 -67zM75 125c0 -52 38 -83 105 -83c93 0 167 62 195 166l12 50c-52 -3 -103 -9 -153 -17c-61 -9 -102 -24 -125 -43s-34 -44 -34 -73z" />
    <glyph glyph-name="b" unicode="b" horiz-adv-x="565" 
d="M497 172c-21 -53 -52 -96 -93 -131s-90 -52 -145 -52c-79 0 -135 42 -151 109h-2l-24 -98h-62l178 712h62l-66 -264h2c40 45 98 73 159 73c111 0 174 -72 174 -195c0 -51 -11 -102 -32 -154zM168 81c21 -27 50 -40 88 -40c129 -5 208 155 206 276c0 96 -42 152 -118 152
c-131 4 -209 -153 -207 -276c0 -48 10 -85 31 -112z" />
    <glyph glyph-name="c" unicode="c" horiz-adv-x="521" 
d="M495 323h-63c1 5 1 11 1 20c0 76 -43 124 -119 124c-128 4 -211 -156 -209 -275c0 -95 47 -151 123 -151c38 0 72 13 103 38s53 55 66 92h67c-19 -55 -50 -99 -93 -133s-92 -51 -147 -51c-113 0 -184 77 -184 202c-2 146 100 337 279 332c112 0 177 -68 177 -175
c0 -10 0 -18 -1 -23z" />
    <glyph glyph-name="d" unicode="d" horiz-adv-x="564" 
d="M596 712l-178 -712h-62l15 60h-2c-40 -45 -98 -73 -159 -73c-111 0 -174 72 -174 195c-2 148 104 342 270 337c79 0 135 -42 151 -109h2l75 302h62zM103 191c0 -96 42 -152 118 -152c130 -4 208 153 207 276c0 96 -42 152 -118 152c-131 4 -209 -153 -207 -276z" />
    <glyph glyph-name="e" unicode="e" horiz-adv-x="539" 
d="M492 242h-387c-4 -22 -6 -42 -6 -59c0 -93 50 -143 133 -143c77 0 140 44 169 111h64c-19 -47 -49 -86 -90 -117s-90 -47 -146 -47c-124 0 -190 73 -190 200c-2 148 107 339 285 334c117 0 181 -70 181 -187c0 -23 -4 -53 -13 -92zM117 293h327c3 14 4 29 4 44
c0 84 -47 131 -127 131c-95 0 -173 -67 -204 -175z" />
    <glyph glyph-name="f" unicode="f" horiz-adv-x="287" 
d="M65 456l13 52h92l19 76c21 88 72 132 152 132c17 0 33 -2 46 -5l-13 -52c-9 3 -19 4 -30 4c-51 0 -82 -27 -98 -95l-15 -60h103l-13 -52h-103l-113 -456h-62l114 456h-92z" />
    <glyph glyph-name="g" unicode="g" horiz-adv-x="565" 
d="M-9 -61c0 9 1 19 3 29h63c-2 -9 -3 -18 -3 -26c0 -53 42 -82 117 -82c103 0 165 54 194 173l12 48h-2c-45 -49 -107 -76 -170 -76c-104 0 -164 73 -164 196c-2 140 104 325 268 320c75 0 127 -38 148 -109h2l24 96h62l-124 -499c-33 -132 -121 -201 -253 -201
c-112 0 -177 48 -177 131zM431 321c0 93 -45 147 -128 147c-121 5 -200 -155 -198 -262c0 -93 40 -148 115 -148c130 -5 213 152 211 263z" />
    <glyph glyph-name="h" unicode="h" 
d="M496 297l-74 -297h-62l74 298c7 26 10 50 10 71c0 63 -35 96 -98 96c-42 0 -81 -14 -116 -43s-59 -70 -72 -121l-76 -301h-62l177 712h62l-66 -266h2c43 45 102 73 165 73c93 0 147 -51 147 -146c0 -21 -4 -47 -11 -76z" />
    <glyph glyph-name="i" unicode="i" horiz-adv-x="228" 
d="M146 508h62l-126 -508h-62zM197 712h62l-21 -88h-62z" />
    <glyph glyph-name="j" unicode="j" horiz-adv-x="235" 
d="M-113 -130c10 -3 20 -4 29 -4c53 0 84 28 103 103l134 539h62l-139 -555c-25 -100 -78 -142 -155 -142c-17 0 -33 2 -47 6zM183 624l21 88h62l-21 -88h-62z" />
    <glyph glyph-name="k" unicode="k" horiz-adv-x="479" 
d="M197 712h62l-103 -413h2l269 209h93l-303 -233l206 -275h-78l-195 267h-2l-66 -267h-62z" />
    <glyph glyph-name="l" unicode="l" horiz-adv-x="228" 
d="M197 712h62l-177 -712h-62z" />
    <glyph glyph-name="m" unicode="m" horiz-adv-x="845" 
d="M778 297l-74 -297h-62l76 305c7 29 11 53 11 72c0 63 -31 88 -91 88c-39 0 -74 -15 -105 -45s-53 -70 -65 -119l-75 -301h-62l78 315c5 20 8 38 8 53c0 61 -32 97 -89 97c-39 0 -75 -16 -106 -47c-32 -31 -54 -73 -67 -125l-73 -293h-62l126 508h62l-14 -58h2
c43 46 91 69 144 69c71 0 118 -36 133 -101c47 65 109 101 178 101c92 0 139 -47 139 -140c0 -23 -4 -51 -12 -82z" />
    <glyph glyph-name="n" unicode="n" 
d="M496 297l-74 -297h-62l74 298c7 26 10 50 10 71c0 63 -35 96 -98 96c-42 0 -81 -14 -116 -43s-59 -70 -72 -121l-76 -301h-62l127 508h61l-15 -63h2c43 47 102 74 165 74c93 0 147 -51 147 -146c0 -21 -4 -47 -11 -76z" />
    <glyph glyph-name="o" unicode="o" horiz-adv-x="552" 
d="M479 161c-21 -50 -53 -91 -95 -124s-92 -50 -149 -50c-124 0 -194 77 -194 210c-2 146 102 328 274 324c125 0 196 -77 196 -210c0 -50 -11 -100 -32 -150zM105 195c0 -99 47 -154 135 -154c130 -4 209 154 208 272c0 99 -48 154 -137 154c-130 4 -207 -154 -206 -272z
" />
    <glyph glyph-name="p" unicode="p" horiz-adv-x="565" 
d="M497 172c-21 -53 -52 -96 -93 -131s-90 -52 -145 -52c-79 0 -135 42 -151 109h-2l-70 -283h-62l173 693h62l-15 -60h2c40 45 98 73 159 73c111 0 174 -72 174 -195c0 -51 -11 -102 -32 -154zM168 81c21 -27 50 -40 88 -40c129 -5 208 155 206 276c0 96 -42 152 -118 152
c-131 4 -209 -153 -207 -276c0 -48 10 -85 31 -112z" />
    <glyph glyph-name="q" unicode="q" horiz-adv-x="564" 
d="M545 508l-173 -693h-62l61 245h-2c-40 -44 -98 -71 -158 -71c-111 0 -174 72 -174 195c-2 148 104 342 270 337c79 0 134 -44 150 -111h2l24 98h62zM104 193c0 -96 42 -152 118 -152c130 -4 208 153 207 276c0 96 -43 152 -119 152c-129 5 -208 -155 -206 -276z" />
    <glyph glyph-name="r" unicode="r" horiz-adv-x="347" 
d="M20 0l126 508h61l-18 -74h2c49 52 107 78 174 78c13 0 24 -1 34 -3l-15 -59c-11 1 -21 2 -32 2c-101 0 -175 -67 -203 -184l-67 -268h-62z" />
    <glyph glyph-name="s" unicode="s" horiz-adv-x="479" 
d="M382 347c3 15 4 27 4 36c0 55 -41 84 -114 84c-75 0 -124 -32 -124 -91c5 -52 22 -59 105 -85c35 -11 62 -21 81 -30s36 -23 50 -41c13 -19 20 -43 20 -74c0 -82 -71 -159 -207 -159c-117 0 -182 50 -182 139c0 17 2 32 6 45h62c-3 -15 -5 -28 -5 -40
c0 -59 43 -90 124 -90c89 0 140 39 140 100c-4 56 -30 67 -124 97c-61 19 -91 31 -115 65c-12 17 -18 39 -18 68c0 77 72 150 193 150c111 0 170 -47 170 -131c0 -16 -2 -30 -5 -43h-61z" />
    <glyph glyph-name="t" unicode="t" horiz-adv-x="302" 
d="M318 456h-102l-79 -317c-4 -15 -6 -27 -6 -38c0 -35 18 -50 57 -50c12 0 24 1 36 4l-14 -54c-15 -3 -27 -4 -36 -4c-72 0 -105 29 -105 94c0 19 3 38 8 57l77 308h-92l13 52h92l29 118h62l-29 -118h102z" />
    <glyph glyph-name="u" unicode="u" 
d="M543 508l-127 -508h-61l16 63h-2c-43 -45 -104 -74 -165 -74c-95 0 -148 51 -148 146c0 21 4 47 11 76l74 297h62l-74 -298c-7 -26 -10 -50 -10 -71c0 -63 35 -96 98 -96c41 0 80 15 116 44s60 69 73 120l75 301h62z" />
    <glyph glyph-name="v" unicode="v" horiz-adv-x="450" 
d="M58 508h63l25 -220l24 -228h2l275 448h71l-317 -508h-80z" />
    <glyph glyph-name="w" unicode="w" horiz-adv-x="750" 
d="M805 508l-273 -508h-89l-18 452h-2l-118 -222l-124 -230h-89l-21 508h60l16 -452h2l118 225l121 227h94l7 -227c4 -98 6 -173 7 -225h2l239 452h68z" />
    <glyph glyph-name="x" unicode="x" horiz-adv-x="467" 
d="M198 269l-117 239h68l92 -200h2l186 200h82l-236 -245l129 -263h-69l-104 221h-2l-208 -221h-84z" />
    <glyph glyph-name="y" unicode="y" horiz-adv-x="456" 
d="M-43 -134c78 3 100 22 174 134l-73 508h63l58 -429h2l272 429h71l-339 -532c-84 -132 -132 -165 -234 -165c-15 0 -29 2 -42 6l13 53c10 -3 22 -4 35 -4z" />
    <glyph glyph-name="z" unicode="z" horiz-adv-x="461" 
d="M-38 0l15 61l417 391v2h-309l14 54h391l-15 -61l-418 -391v-2h329l-13 -54h-411z" />
    <glyph glyph-name="braceleft" unicode="{" horiz-adv-x="283" 
d="M370 697c-67 -1 -100 -29 -117 -98l-47 -189c-15 -61 -43 -92 -107 -109l-1 -3c39 -17 55 -41 55 -81c0 -15 -2 -32 -7 -50l-40 -157c-4 -19 -6 -35 -6 -48c0 -47 21 -65 70 -66l-11 -44h-12c-73 0 -108 32 -108 104c0 16 3 38 10 67l38 150c5 20 7 35 7 44
c0 33 -14 51 -47 64l11 47c52 15 77 37 90 92l46 183c24 96 71 138 154 138h32z" />
    <glyph glyph-name="bar" unicode="|" horiz-adv-x="262" 
d="M160 732v-937h-58v937h58z" />
    <glyph glyph-name="braceright" unicode="}" horiz-adv-x="283" 
d="M254 570l-37 -151c-5 -20 -7 -34 -7 -43c0 -33 14 -51 47 -64l-12 -48c-52 -15 -77 -38 -90 -91l-45 -183c-24 -96 -72 -138 -155 -138h-32l11 44c65 1 100 29 117 98l46 189c15 61 44 92 107 109l1 3c-37 17 -54 41 -54 81c0 15 2 32 7 50l39 157c5 18 7 34 7 48
c0 47 -21 65 -70 66l10 44h12c75 0 108 -32 108 -104c0 -17 -3 -39 -10 -67z" />
    <glyph glyph-name="asciitilde" unicode="~" horiz-adv-x="578" 
d="M588 394c-25 -105 -91 -166 -171 -166c-56 0 -85 22 -130 66c-39 37 -60 55 -99 55c-55 0 -102 -44 -118 -109h-48c24 105 90 165 171 165c27 0 50 -5 68 -16c17 -11 38 -27 61 -49c39 -37 60 -55 99 -55c55 0 102 44 119 109h48z" />
    <glyph glyph-name="uni00A0" unicode="&#xa0;" horiz-adv-x="230" 
 />
    <glyph glyph-name="exclamdown" unicode="&#xa1;" horiz-adv-x="252" 
d="M122 344h52l-121 -548h-83zM126 415l23 93h79l-23 -93h-79z" />
    <glyph glyph-name="cent" unicode="&#xa2;" horiz-adv-x="544" 
d="M524 403h-63c1 5 1 11 1 20c0 61 -27 104 -78 119l-105 -419c67 8 123 61 148 128h67c-19 -53 -48 -96 -88 -129c-41 -34 -87 -52 -140 -55l-23 -90h-54l23 94c-89 16 -143 89 -143 198c-2 144 99 335 276 332l21 86h54l-23 -91c83 -17 128 -81 128 -170
c0 -10 0 -18 -1 -23zM134 272c0 -80 35 -134 92 -147l105 422c-122 -6 -198 -160 -197 -275z" />
    <glyph glyph-name="sterling" unicode="&#xa3;" horiz-adv-x="544" 
d="M556 487h-61c3 18 5 32 5 43c0 64 -37 97 -102 97c-77 0 -129 -48 -152 -136l-33 -134h127l-14 -56h-127l-27 -109c-16 -68 -41 -106 -82 -134v-2h357l-14 -56h-472l14 56c67 0 112 45 134 136l27 109h-100l14 56h100l37 147c29 120 106 183 215 183
c103 0 160 -54 160 -149c0 -16 -2 -33 -6 -51z" />
    <glyph glyph-name="currency" unicode="&#xa4;" horiz-adv-x="544" 
d="M472 29l-77 83c-35 -24 -76 -36 -123 -36s-88 12 -123 36l-78 -83l-44 43l78 83c-27 38 -41 83 -41 136s14 98 41 136l-78 83l44 43l78 -83c35 24 76 36 123 36s88 -12 123 -36l77 83l45 -43l-79 -82c28 -37 42 -83 42 -137s-14 -100 -42 -137l79 -82zM125 291
c0 -95 58 -156 147 -156s146 61 146 156s-57 156 -146 156s-147 -61 -147 -156z" />
    <glyph glyph-name="yen" unicode="&#xa5;" horiz-adv-x="544" 
d="M641 674l-275 -307h145l-13 -53h-179l-16 -65h179l-13 -53h-179l-49 -196h-65l49 196h-179l13 53h179l16 65h-179l13 53h145l-121 307h69l40 -106c17 -43 41 -107 73 -192h2l261 298h84z" />
    <glyph glyph-name="brokenbar" unicode="&#xa6;" horiz-adv-x="262" 
d="M102 -205v350h58v-350h-58zM102 382v350h58v-350h-58z" />
    <glyph glyph-name="section" unicode="&#xa7;" horiz-adv-x="545" 
d="M295 654c-36 -21 -54 -56 -54 -91c0 -28 14 -46 40 -65c13 -10 35 -25 66 -44c51 -32 87 -60 107 -83c19 -23 29 -51 29 -84c0 -69 -39 -136 -123 -177v-2c18 -20 27 -46 27 -78c1 -80 -72 -180 -203 -177c-105 0 -161 45 -161 133c0 15 2 29 5 42h62
c-2 -13 -3 -25 -3 -36c0 -56 31 -84 102 -84c87 0 133 61 133 117c0 32 -16 54 -44 77c-15 11 -38 27 -69 48c-46 30 -78 56 -96 79c-19 23 -28 51 -28 84c0 64 40 132 117 171v2c-17 19 -26 43 -26 71c0 81 71 168 188 168c97 0 150 -45 150 -129c0 -10 -1 -22 -3 -35h-62
c2 10 3 20 3 30c0 53 -31 79 -92 79c-25 0 -47 -5 -65 -16zM321 399c-31 18 -57 35 -80 51c-67 -37 -97 -82 -97 -126c0 -45 26 -78 101 -125c28 -17 54 -34 79 -53c59 33 99 80 99 131c0 45 -26 77 -102 122z" />
    <glyph glyph-name="dieresis" unicode="&#xa8;" horiz-adv-x="345" 
d="M348 712h61l-21 -88h-61zM164 712h61l-22 -88h-60z" />
    <glyph glyph-name="copyright" unicode="&#xa9;" horiz-adv-x="814" 
d="M721 548c29 -55 44 -119 44 -192c3 -217 -146 -369 -358 -367c-211 -2 -360 150 -358 367c-2 217 147 369 358 367c141 0 254 -64 314 -175zM684 187c26 49 39 105 39 169c0 193 -127 324 -316 324s-316 -130 -316 -324s127 -324 316 -324c125 0 224 56 277 155zM540 154
c-34 -31 -78 -47 -133 -47c-63 0 -113 22 -150 67c-37 44 -55 105 -55 182s19 137 56 182s87 67 150 67c56 0 101 -16 134 -47c33 -32 50 -73 53 -122h-63c-7 68 -53 111 -124 111c-88 0 -141 -72 -141 -191s53 -191 140 -191c69 0 118 44 127 115h64
c-5 -53 -25 -95 -58 -126z" />
    <glyph glyph-name="ordfeminine" unicode="&#xaa;" horiz-adv-x="383" 
d="M400 542l-29 -121c-10 -40 -15 -70 -15 -91h-52c1 13 3 25 5 36h-2c-31 -29 -72 -43 -123 -43c-71 0 -114 36 -114 91c0 67 54 108 161 124c39 6 79 10 119 11l2 7c3 15 4 26 4 33c0 43 -29 62 -77 62c-55 0 -90 -28 -101 -72h-56c16 67 77 116 160 116
c79 0 124 -35 124 -107c0 -15 -2 -30 -6 -46zM128 420c0 -33 24 -53 71 -53c63 0 116 40 133 109l8 30c-39 -3 -73 -6 -103 -11c-85 -13 -109 -36 -109 -75z" />
    <glyph glyph-name="guillemotleft" unicode="&#xab;" horiz-adv-x="430" 
d="M363 454h66l-163 -204l63 -196h-58l-67 204zM51 258l159 196h66l-163 -204l63 -196h-58z" />
    <glyph glyph-name="logicalnot" unicode="&#xac;" horiz-adv-x="566" 
d="M74 393v57h418v-306h-56v249h-362z" />
    <glyph glyph-name="uni00AD" unicode="&#xad;" horiz-adv-x="290" 
d="M32 261l15 62h230l-15 -62h-230z" />
    <glyph glyph-name="registered" unicode="&#xae;" horiz-adv-x="584" 
d="M562 604c21 -39 31 -83 31 -133c0 -150 -100 -254 -247 -254s-247 104 -247 254s100 254 247 254c97 0 175 -45 216 -121zM459 666c-33 18 -70 27 -113 27c-128 0 -215 -89 -215 -222s87 -222 215 -222s215 89 215 222c0 88 -38 158 -102 195zM426 450
c6 -7 12 -19 17 -35l34 -100h-52l-27 85c-11 33 -27 46 -60 46h-53v-131h-48v320h112c71 0 108 -33 108 -92c0 -36 -23 -70 -56 -77v-2c10 -3 18 -7 25 -14zM285 593v-105h53c47 0 70 18 70 55c0 33 -22 50 -66 50h-57z" />
    <glyph glyph-name="macron" unicode="&#xaf;" horiz-adv-x="363" 
d="M143 624l12 52h263l-12 -52h-263z" />
    <glyph glyph-name="degree" unicode="&#xb0;" horiz-adv-x="309" 
d="M163 530c-23 22 -34 48 -34 79s11 58 34 80c22 22 48 33 79 33s58 -11 80 -33s33 -49 33 -80s-11 -57 -33 -79c-22 -23 -49 -34 -80 -34s-57 11 -79 34zM175 609c0 -37 30 -67 67 -67s68 30 68 67s-31 68 -68 68s-67 -31 -67 -68z" />
    <glyph glyph-name="plusminus" unicode="&#xb1;" horiz-adv-x="566" 
d="M74 310v56h181v180h56v-180h181v-56h-181v-180h-56v180h-181zM74 56h418v-56h-418v56z" />
    <glyph glyph-name="uni00B2" unicode="&#xb2;" horiz-adv-x="400" 
d="M458 694c0 -38 -13 -71 -40 -98s-73 -57 -136 -88c-54 -27 -91 -49 -112 -67s-34 -38 -40 -61h264l-12 -50h-324c23 114 63 154 201 224c53 26 89 48 109 67c19 18 29 40 29 65c0 49 -25 74 -76 74c-56 0 -95 -35 -112 -94h-62c27 95 91 146 178 146
c81 0 133 -49 133 -118z" />
    <glyph glyph-name="uni00B3" unicode="&#xb3;" horiz-adv-x="395" 
d="M455 696c0 -56 -36 -106 -113 -131v-1c41 -19 64 -51 64 -95c0 -68 -66 -149 -179 -149c-95 0 -145 41 -145 113c0 14 2 26 5 36h57c-3 -10 -4 -20 -4 -29c0 -46 29 -69 88 -69c76 0 122 51 122 97c0 51 -35 76 -100 76h-18l11 50h20c91 0 136 51 136 99
c0 41 -34 67 -87 67c-62 0 -101 -32 -116 -95h-58c21 92 89 147 174 147c91 0 143 -44 143 -116z" />
    <glyph glyph-name="acute" unicode="&#xb4;" horiz-adv-x="274" 
d="M250 712h88l-146 -141h-63z" />
    <glyph glyph-name="uni00B5" unicode="&#xb5;" horiz-adv-x="568" 
d="M490 0c-10 -3 -23 -5 -38 -5c-45 0 -67 22 -67 67l1 15h-2c-39 -52 -100 -85 -167 -85c-63 0 -104 23 -121 70l-61 -247h-62l173 693h62l-74 -295c-7 -29 -11 -53 -11 -71c0 -68 37 -97 104 -97c40 0 77 15 112 44c34 29 57 70 70 121l73 298h62l-93 -375
c-5 -19 -8 -36 -8 -51c0 -24 10 -33 35 -33c9 0 17 1 25 4z" />
    <glyph glyph-name="paragraph" unicode="&#xb6;" horiz-adv-x="555" 
d="M107 496c-1 100 79 219 205 216h335l-11 -45h-80l-196 -787h-48l196 787h-89l-196 -787h-48l108 436c-117 11 -176 71 -176 180z" />
    <glyph glyph-name="periodcentered" unicode="&#xb7;" horiz-adv-x="210" 
d="M64 260l22 91h85l-22 -91h-85z" />
    <glyph glyph-name="cedilla" unicode="&#xb8;" horiz-adv-x="303" 
d="M88 0h47l-58 -63c5 1 11 2 18 2c37 0 61 -25 61 -66c0 -25 -11 -46 -34 -64s-52 -27 -87 -27c-37 0 -69 9 -96 27l19 32c23 -13 48 -20 75 -20c44 0 71 19 71 50c0 24 -16 37 -45 37c-11 0 -22 -2 -32 -5l-15 15z" />
    <glyph glyph-name="uni00B9" unicode="&#xb9;" horiz-adv-x="247" 
d="M128 723c75 0 111 22 135 79h45l-118 -472h-56l86 348h-104z" />
    <glyph glyph-name="ordmasculine" unicode="&#xba;" horiz-adv-x="402" 
d="M413 441c-32 -69 -93 -121 -177 -121c-92 0 -143 55 -143 151c-2 102 72 227 197 224c93 0 146 -54 146 -150c0 -35 -8 -69 -23 -104zM147 469c0 -65 32 -102 93 -102c88 -3 142 102 141 180c0 64 -33 101 -94 101c-89 3 -141 -101 -140 -179z" />
    <glyph glyph-name="guillemotright" unicode="&#xbb;" horiz-adv-x="430" 
d="M153 54l164 204l-64 196h59l67 -204l-159 -196h-67zM0 54l163 204l-63 196h58l67 -204l-158 -196h-67z" />
    <glyph glyph-name="onequarter" unicode="&#xbc;" horiz-adv-x="681" 
d="M634 103h-67l-26 -103h-55l26 103h-193l15 59l230 242h78l-63 -252h67zM562 674h65l-560 -674h-65zM85 561l12 46c65 0 97 18 117 67h45l-100 -404h-56l72 291h-90zM524 152l46 185h-2l-176 -185h132z" />
    <glyph glyph-name="onehalf" unicode="&#xbd;" horiz-adv-x="715" 
d="M684 312c0 -33 -11 -62 -34 -85c-23 -24 -62 -50 -116 -78c-45 -23 -75 -41 -92 -54s-28 -28 -33 -44h222l-11 -51h-282c21 99 53 135 173 197c43 22 73 40 89 55s24 32 24 52c0 38 -20 57 -60 57c-44 0 -74 -28 -89 -76h-62c23 84 79 128 155 128c71 0 116 -41 116 -101
zM2 0l560 674h65l-560 -674h-65zM85 561l12 46c65 0 97 18 117 67h45l-100 -404h-56l72 291h-90z" />
    <glyph glyph-name="threequarters" unicode="&#xbe;" horiz-adv-x="805" 
d="M458 162l230 242h78l-63 -252h67l-12 -49h-67l-26 -103h-55l26 103h-193zM341 390c0 -58 -57 -129 -154 -129c-83 0 -128 36 -128 99c0 11 1 21 4 32h59c-2 -9 -3 -17 -3 -26c0 -37 22 -54 69 -54c60 0 96 37 96 78c0 39 -29 59 -81 59h-14l12 51h15c72 0 110 39 110 80
c0 32 -25 52 -68 52c-49 0 -81 -26 -94 -77h-57c17 80 77 128 153 128c79 0 123 -37 123 -100c0 -51 -30 -87 -91 -109v-2c31 -16 49 -46 49 -82zM751 674l-560 -674h-65l560 674h65zM648 152l46 185h-2l-176 -185h132z" />
    <glyph glyph-name="questiondown" unicode="&#xbf;" horiz-adv-x="466" 
d="M2 51c21 32 62 68 122 107c99 67 109 83 142 195h58c-34 -137 -48 -157 -159 -236c-112 -78 -128 -112 -128 -167c0 -67 47 -108 123 -108c85 0 150 51 175 143h64c-35 -131 -123 -202 -242 -202c-115 0 -188 64 -188 163c0 38 11 73 33 105zM351 415h-79l22 93h79z" />
    <glyph glyph-name="Agrave" unicode="&#xc0;" horiz-adv-x="664" 
d="M529 0l-32 230h-333l-146 -230h-75l459 712h89l104 -712h-66zM489 290l-51 369h-2c-74 -118 -136 -216 -187 -295l-47 -74h287zM376 895h80l60 -135h-55z" />
    <glyph glyph-name="Aacute" unicode="&#xc1;" horiz-adv-x="664" 
d="M529 0l-32 230h-333l-146 -230h-75l459 712h89l104 -712h-66zM202 290h287l-51 369h-2c-74 -118 -136 -216 -187 -295zM520 895h88l-145 -135h-63z" />
    <glyph glyph-name="Acircumflex" unicode="&#xc2;" horiz-adv-x="664" 
d="M-57 0l459 712h89l104 -712h-66l-32 230h-333l-146 -230h-75zM489 290l-51 369h-2c-74 -118 -136 -216 -187 -295l-47 -74h287zM547 760l-57 95l-105 -95h-76l148 135h71l80 -135h-61z" />
    <glyph glyph-name="Atilde" unicode="&#xc3;" horiz-adv-x="664" 
d="M402 712h89l104 -712h-66l-32 230h-333l-146 -230h-75zM202 290h287l-51 369h-2c-74 -118 -136 -216 -187 -295zM611 808c-20 -19 -43 -28 -68 -28c-28 0 -45 10 -77 30c-28 17 -38 24 -57 24c-27 0 -48 -19 -59 -54h-50c19 67 61 105 112 105c29 0 50 -11 78 -30
c24 -16 40 -23 57 -23c27 0 47 18 60 53h48c-10 -33 -25 -59 -44 -77z" />
    <glyph glyph-name="Adieresis" unicode="&#xc4;" horiz-adv-x="664" 
d="M-57 0l459 712h89l104 -712h-66l-32 230h-333l-146 -230h-75zM489 290l-51 369h-2c-74 -118 -136 -216 -187 -295l-47 -74h287zM340 778l22 88h61l-22 -88h-61zM585 778h-61l22 88h61z" />
    <glyph glyph-name="Aring" unicode="&#xc5;" horiz-adv-x="664" 
d="M-57 0l459 712h89l104 -712h-66l-32 230h-333l-146 -230h-75zM489 290l-51 369h-2c-74 -118 -136 -216 -187 -295l-47 -74h287zM539 782c-19 -19 -42 -29 -69 -29s-49 10 -68 29s-29 41 -29 68s10 49 29 68s41 28 68 28s50 -9 69 -28s28 -41 28 -68s-9 -49 -28 -68z
M410 850c0 -33 27 -60 60 -60s59 25 59 60c0 32 -26 59 -59 59s-60 -27 -60 -59z" />
    <glyph glyph-name="AE" unicode="&#xc6;" horiz-adv-x="924" 
d="M956 653h-380l-24 -258h321l-15 -59h-313l-27 -277h302l-14 -59h-355l24 247h-281l-185 -247h-78l534 712h506zM481 306l34 347h-16l-260 -347h242z" />
    <glyph glyph-name="Ccedilla" unicode="&#xc7;" horiz-adv-x="684" 
d="M630 227c-23 -69 -61 -125 -114 -168s-114 -67 -183 -71l-47 -51c5 1 11 2 18 2c37 0 61 -25 61 -66c0 -25 -11 -46 -34 -64s-52 -27 -87 -27c-37 0 -69 9 -96 27l19 32c23 -13 48 -20 75 -20c44 0 71 19 71 50c0 24 -16 37 -45 37c-11 0 -22 -2 -32 -5l-15 15l65 70
c-70 6 -124 34 -163 84c-39 49 -58 114 -58 194c0 71 15 142 44 213s72 129 129 176s126 70 206 70c147 0 235 -92 235 -224c0 -14 -1 -28 -3 -42h-68c2 13 3 25 3 37c0 103 -68 168 -175 168c-63 0 -118 -20 -164 -60c-46 -41 -81 -91 -104 -152c-24 -61 -36 -120 -36 -179
c0 -137 69 -225 186 -225c54 0 103 16 147 49c43 33 76 76 97 130h68z" />
    <glyph glyph-name="Egrave" unicode="&#xc8;" horiz-adv-x="610" 
d="M507 59l-14 -59h-455l177 712h443l-15 -59h-378l-63 -258h358l-15 -59h-359l-69 -277h390zM436 895l60 -135h-55l-85 135h80z" />
    <glyph glyph-name="Eacute" unicode="&#xc9;" horiz-adv-x="610" 
d="M507 59l-14 -59h-455l177 712h443l-15 -59h-378l-63 -258h358l-15 -59h-359l-69 -277h390zM501 895h88l-145 -135h-63z" />
    <glyph glyph-name="Ecircumflex" unicode="&#xca;" horiz-adv-x="610" 
d="M643 653h-378l-63 -258h358l-15 -59h-359l-69 -277h390l-14 -59h-455l177 712h443zM289 760l148 135h71l80 -135h-61l-57 95l-105 -95h-76z" />
    <glyph glyph-name="Edieresis" unicode="&#xcb;" horiz-adv-x="610" 
d="M643 653h-378l-63 -258h358l-15 -59h-359l-69 -277h390l-14 -59h-455l177 712h443zM504 778l22 88h61l-22 -88h-61zM320 778l22 88h61l-22 -88h-61z" />
    <glyph glyph-name="Igrave" unicode="&#xcc;" horiz-adv-x="267" 
d="M215 712h65l-177 -712h-65zM257 895l60 -135h-55l-85 135h80z" />
    <glyph glyph-name="Iacute" unicode="&#xcd;" horiz-adv-x="267" 
d="M215 712h65l-177 -712h-65zM202 760l120 135h88l-145 -135h-63z" />
    <glyph glyph-name="Icircumflex" unicode="&#xce;" horiz-adv-x="267" 
d="M38 0l177 712h65l-177 -712h-65zM258 895h71l80 -135h-61l-57 95l-105 -95h-76z" />
    <glyph glyph-name="Idieresis" unicode="&#xcf;" horiz-adv-x="267" 
d="M38 0l177 712h65l-177 -712h-65zM325 778l22 88h61l-22 -88h-61zM163 866h61l-22 -88h-61z" />
    <glyph glyph-name="Eth" unicode="&#xd0;" horiz-adv-x="718" 
d="M653 217c-31 -63 -79 -115 -143 -156s-143 -61 -236 -61h-236l83 333h-67l14 55h66l81 324h163c211 0 321 -106 321 -303c0 -65 -15 -129 -46 -192zM275 59c240 -4 357 189 355 346c0 161 -87 248 -254 248h-111l-66 -265h221l-14 -55h-221l-68 -274h158z" />
    <glyph glyph-name="Ntilde" unicode="&#xd1;" horiz-adv-x="745" 
d="M215 712h92l110 -316c43 -125 81 -235 114 -331h2c34 139 63 257 88 356l72 291h65l-177 -712h-92l-110 316c-43 125 -81 235 -114 331h-2c-12 -49 -37 -148 -74 -296l-86 -351h-65zM695 885c-20 -67 -61 -105 -112 -105c-28 0 -45 10 -77 30c-28 17 -38 24 -57 24
c-27 0 -48 -19 -59 -54h-50c19 67 61 105 112 105c29 0 50 -11 78 -30c24 -16 40 -23 57 -23c27 0 47 18 60 53h48z" />
    <glyph glyph-name="Ograve" unicode="&#xd2;" horiz-adv-x="724" 
d="M708 434c0 -69 -15 -139 -45 -208c-31 -69 -75 -126 -132 -171s-124 -68 -199 -68c-166 0 -265 118 -265 291c0 70 15 140 45 209s74 126 131 171s123 67 198 67c168 0 267 -118 267 -291zM133 278c0 -69 18 -125 53 -167s84 -63 147 -63c61 0 116 20 163 59
s83 88 108 148c25 59 38 119 38 178c0 70 -18 126 -53 168c-36 42 -86 63 -149 63c-61 0 -115 -20 -162 -59s-82 -89 -107 -149s-38 -119 -38 -178zM462 895l60 -135h-55l-85 135h80z" />
    <glyph glyph-name="Oacute" unicode="&#xd3;" horiz-adv-x="724" 
d="M708 434c0 -69 -15 -139 -45 -208c-31 -69 -75 -126 -132 -171s-124 -68 -199 -68c-166 0 -265 118 -265 291c0 70 15 140 45 209s74 126 131 171s123 67 198 67c168 0 267 -118 267 -291zM133 278c0 -69 18 -125 53 -167s84 -63 147 -63c61 0 116 20 163 59
s83 88 108 148c25 59 38 119 38 178c0 70 -18 126 -53 168c-36 42 -86 63 -149 63c-61 0 -115 -20 -162 -59s-82 -89 -107 -149s-38 -119 -38 -178zM526 895h88l-145 -135h-63z" />
    <glyph glyph-name="Ocircumflex" unicode="&#xd4;" horiz-adv-x="724" 
d="M708 434c0 -69 -15 -139 -45 -208c-31 -69 -75 -126 -132 -171s-124 -68 -199 -68c-166 0 -265 118 -265 291c0 70 15 140 45 209s74 126 131 171s123 67 198 67c168 0 267 -118 267 -291zM186 111c35 -42 84 -63 147 -63c61 0 116 20 163 59s83 88 108 148
c25 59 38 119 38 178c0 70 -18 126 -53 168c-36 42 -86 63 -149 63c-61 0 -115 -20 -162 -59s-82 -89 -107 -149s-38 -119 -38 -178c0 -69 18 -125 53 -167zM462 895h71l80 -135h-61l-57 95l-105 -95h-76z" />
    <glyph glyph-name="Otilde" unicode="&#xd5;" horiz-adv-x="724" 
d="M677 586c21 -44 31 -95 31 -152c0 -69 -15 -139 -45 -208c-31 -69 -75 -126 -132 -171s-124 -68 -199 -68c-166 0 -265 118 -265 291c0 70 15 140 45 209s74 126 131 171s123 67 198 67c111 0 193 -51 236 -139zM589 601c-36 42 -86 63 -149 63c-61 0 -115 -20 -162 -59
s-82 -89 -107 -149s-38 -119 -38 -178c0 -69 18 -125 53 -167s84 -63 147 -63c61 0 116 20 163 59s83 88 108 148c25 59 38 119 38 178c0 70 -18 126 -53 168zM660 885c-20 -67 -61 -105 -112 -105c-28 0 -45 10 -77 30c-28 17 -38 24 -57 24c-27 0 -48 -19 -59 -54h-50
c19 67 61 105 112 105c29 0 50 -11 78 -30c24 -16 40 -23 57 -23c27 0 47 18 60 53h48z" />
    <glyph glyph-name="Odieresis" unicode="&#xd6;" horiz-adv-x="724" 
d="M708 434c0 -69 -15 -139 -45 -208c-31 -69 -75 -126 -132 -171s-124 -68 -199 -68c-166 0 -265 118 -265 291c0 70 15 140 45 209s74 126 131 171s123 67 198 67c168 0 267 -118 267 -291zM133 278c0 -69 18 -125 53 -167s84 -63 147 -63c61 0 116 20 163 59
s83 88 108 148c25 59 38 119 38 178c0 70 -18 126 -53 168c-36 42 -86 63 -149 63c-61 0 -115 -20 -162 -59s-82 -89 -107 -149s-38 -119 -38 -178zM530 778l22 88h61l-22 -88h-61zM368 866h61l-22 -88h-61z" />
    <glyph glyph-name="multiply" unicode="&#xd7;" horiz-adv-x="566" 
d="M245 306l-197 196l39 39l196 -196l196 196l39 -39l-197 -196l197 -196l-39 -39l-196 197l-196 -197l-39 39z" />
    <glyph glyph-name="Oslash" unicode="&#xd8;" horiz-adv-x="724" 
d="M747 675l-76 -75c25 -45 38 -99 38 -162c0 -71 -15 -141 -46 -210c-31 -70 -75 -128 -133 -173s-125 -68 -202 -68c-82 0 -147 27 -194 80l-70 -70l-39 40l77 76c-24 45 -36 98 -36 161c0 71 15 141 46 211c30 69 74 127 132 172c57 45 124 68 201 68
c81 0 149 -28 194 -79l70 69zM333 48c61 0 116 20 163 59s83 88 108 148c25 59 38 119 38 178c0 45 -7 83 -21 116l-438 -434c35 -45 85 -67 150 -67zM133 278c0 -42 7 -80 20 -114l438 434c-35 44 -86 66 -151 66c-61 0 -115 -20 -162 -59s-82 -89 -107 -149
s-38 -119 -38 -178z" />
    <glyph glyph-name="Ugrave" unicode="&#xd9;" horiz-adv-x="699" 
d="M718 712l-121 -484c-40 -157 -143 -241 -294 -241c-137 0 -213 73 -213 206c0 28 5 61 14 100l105 419h65l-109 -435c-7 -29 -11 -56 -11 -81c0 -97 55 -148 155 -148c113 0 193 66 228 197l116 467h65zM383 895h80l60 -135h-55z" />
    <glyph glyph-name="Uacute" unicode="&#xda;" horiz-adv-x="699" 
d="M718 712l-121 -484c-40 -157 -143 -241 -294 -241c-137 0 -213 73 -213 206c0 28 5 61 14 100l105 419h65l-109 -435c-7 -29 -11 -56 -11 -81c0 -97 55 -148 155 -148c113 0 193 66 228 197l116 467h65zM528 895h88l-145 -135h-63z" />
    <glyph glyph-name="Ucircumflex" unicode="&#xdb;" horiz-adv-x="699" 
d="M718 712l-121 -484c-40 -157 -143 -241 -294 -241c-137 0 -213 73 -213 206c0 28 5 61 14 100l105 419h65l-109 -435c-7 -29 -11 -56 -11 -81c0 -97 55 -148 155 -148c113 0 193 66 228 197l116 467h65zM464 895h71l80 -135h-61l-57 95l-105 -95h-76z" />
    <glyph glyph-name="Udieresis" unicode="&#xdc;" horiz-adv-x="699" 
d="M718 712l-121 -484c-40 -157 -143 -241 -294 -241c-137 0 -213 73 -213 206c0 28 5 61 14 100l105 419h65l-109 -435c-7 -29 -11 -56 -11 -81c0 -97 55 -148 155 -148c113 0 193 66 228 197l116 467h65zM532 778l22 88h61l-22 -88h-61zM348 778l22 88h61l-22 -88h-61z
" />
    <glyph glyph-name="Yacute" unicode="&#xdd;" horiz-adv-x="602" 
d="M247 558c17 -42 41 -106 73 -191h2c75 85 131 149 169 191l134 154h86l-365 -408l-75 -304h-66l76 304l-162 408h69zM471 895h88l-145 -135h-63z" />
    <glyph glyph-name="Thorn" unicode="&#xde;" horiz-adv-x="602" 
d="M575 282c-39 -71 -120 -121 -235 -121h-197l-40 -161h-65l177 712h65l-34 -136h137c145 0 221 -69 221 -186c0 -37 -10 -73 -29 -108zM342 220c133 0 196 89 196 167c0 84 -53 130 -160 130h-147l-73 -297h184z" />
    <glyph glyph-name="germandbls" unicode="&#xdf;" horiz-adv-x="548" 
d="M509 470c-27 -35 -65 -60 -114 -73v-2c63 -20 99 -70 99 -154c2 -119 -95 -249 -276 -247c-22 0 -42 3 -59 9l13 53c12 -4 28 -6 47 -6c139 -3 215 102 213 192c0 80 -49 128 -136 128h-5l15 58c124 0 178 79 178 146c0 61 -39 96 -110 96c-83 0 -139 -56 -166 -163
l-126 -507h-62l128 514c33 135 115 211 230 211c107 0 170 -54 170 -141c0 -41 -13 -79 -39 -114z" />
    <glyph glyph-name="agrave" unicode="&#xe0;" horiz-adv-x="524" 
d="M415 125c-13 -51 -20 -93 -21 -125h-59c1 26 5 48 10 67h-2c-45 -51 -105 -77 -179 -77c-97 0 -156 51 -156 128c0 94 73 152 220 174c55 8 112 14 172 18l3 12c5 19 7 35 7 49c0 65 -42 97 -113 97c-80 0 -133 -45 -148 -113h-65c11 49 36 89 75 120s86 46 142 46
c105 0 167 -50 167 -150c0 -19 -3 -42 -9 -67zM75 125c0 -52 38 -83 105 -83c93 0 167 62 195 166l12 50c-52 -3 -103 -9 -153 -17c-61 -9 -102 -24 -125 -43s-34 -44 -34 -73zM317 712l59 -141h-55l-84 141h80z" />
    <glyph glyph-name="aacute" unicode="&#xe1;" horiz-adv-x="524" 
d="M415 125c-13 -51 -20 -93 -21 -125h-59c1 26 5 48 10 67h-2c-45 -51 -105 -77 -179 -77c-97 0 -156 51 -156 128c0 94 73 152 220 174c55 8 112 14 172 18l3 12c5 19 7 35 7 49c0 65 -42 97 -113 97c-80 0 -133 -45 -148 -113h-65c11 49 36 89 75 120s86 46 142 46
c105 0 167 -50 167 -150c0 -19 -3 -42 -9 -67zM75 125c0 -52 38 -83 105 -83c93 0 167 62 195 166l12 50c-52 -3 -103 -9 -153 -17c-61 -9 -102 -24 -125 -43s-34 -44 -34 -73zM381 712h88l-146 -141h-63z" />
    <glyph glyph-name="acircumflex" unicode="&#xe2;" horiz-adv-x="524" 
d="M403 322c5 19 7 35 7 49c0 65 -42 97 -113 97c-80 0 -133 -45 -148 -113h-65c11 49 36 89 75 120s86 46 142 46c105 0 167 -50 167 -150c0 -19 -3 -42 -9 -67l-44 -179c-13 -51 -20 -93 -21 -125h-59c1 26 5 48 10 67h-2c-45 -51 -105 -77 -179 -77
c-97 0 -156 51 -156 128c0 94 73 152 220 174c55 8 112 14 172 18zM75 125c0 -52 38 -83 105 -83c93 0 167 62 195 166l12 50c-52 -3 -103 -9 -153 -17c-61 -9 -102 -24 -125 -43s-34 -44 -34 -73zM168 571l149 141h71l79 -141h-63l-56 101l-105 -101h-75z" />
    <glyph glyph-name="atilde" unicode="&#xe3;" horiz-adv-x="524" 
d="M380 444c-20 16 -48 24 -83 24c-80 0 -133 -45 -148 -113h-65c11 49 36 89 75 120s86 46 142 46c105 0 167 -50 167 -150c0 -19 -3 -42 -9 -67l-44 -179c-13 -51 -20 -93 -21 -125h-59c1 26 5 48 10 67h-2c-45 -51 -105 -77 -179 -77c-97 0 -156 51 -156 128
c0 94 73 152 220 174c55 8 112 14 172 18l3 12c5 19 7 35 7 49c0 33 -10 57 -30 73zM387 258c-52 -3 -103 -9 -153 -17c-61 -9 -102 -24 -125 -43s-34 -44 -34 -73c0 -52 38 -83 105 -83c93 0 167 62 195 166zM366 606c-11 5 -25 12 -40 21c-24 16 -38 24 -57 24
c-27 0 -47 -18 -58 -53h-50c19 67 60 105 112 105c28 0 48 -10 77 -30c24 -16 37 -24 56 -24c28 0 48 18 61 54h48c-20 -67 -61 -105 -112 -105c-14 0 -26 3 -37 8z" />
    <glyph glyph-name="adieresis" unicode="&#xe4;" horiz-adv-x="524" 
d="M410 371c0 65 -42 97 -113 97c-80 0 -133 -45 -148 -113h-65c11 49 36 89 75 120s86 46 142 46c105 0 167 -50 167 -150c0 -19 -3 -42 -9 -67l-44 -179c-13 -51 -20 -93 -21 -125h-59c1 26 5 48 10 67h-2c-45 -51 -105 -77 -179 -77c-97 0 -156 51 -156 128
c0 94 73 152 220 174c55 8 112 14 172 18l3 12c5 19 7 35 7 49zM103 64c18 -15 44 -22 77 -22c93 0 167 62 195 166l12 50c-52 -3 -103 -9 -153 -17c-61 -9 -102 -24 -125 -43s-34 -44 -34 -73c0 -26 9 -46 28 -61zM475 712l-21 -88h-61l21 88h61zM209 624l21 88h61l-22 -88
h-60z" />
    <glyph glyph-name="aring" unicode="&#xe5;" horiz-adv-x="524" 
d="M335 0c1 26 5 48 10 67h-2c-45 -51 -105 -77 -179 -77c-97 0 -156 51 -156 128c0 94 73 152 220 174c55 8 112 14 172 18l3 12c5 19 7 35 7 49c0 65 -42 97 -113 97c-80 0 -133 -45 -148 -113h-65c11 49 36 89 75 120s86 46 142 46c105 0 167 -50 167 -150
c0 -19 -3 -42 -9 -67l-44 -179c-13 -51 -20 -93 -21 -125h-59zM387 258c-52 -3 -103 -9 -153 -17c-61 -9 -102 -24 -125 -43s-34 -44 -34 -73c0 -52 38 -83 105 -83c93 0 167 62 195 166zM400 599c-19 -19 -41 -29 -68 -29s-49 10 -68 29s-29 41 -29 68s10 50 29 69
s41 28 68 28s49 -9 68 -28s28 -42 28 -69s-9 -49 -28 -68zM374 709c-11 11 -25 17 -42 17c-33 0 -60 -26 -60 -59s27 -60 60 -60s59 27 59 60c0 17 -6 31 -17 42z" />
    <glyph glyph-name="ae" unicode="&#xe6;" horiz-adv-x="854" 
d="M541 494c32 18 68 27 107 27c111 0 172 -70 172 -187c0 -24 -5 -55 -14 -93h-367c-4 -21 -6 -40 -6 -58c0 -93 47 -143 124 -143c72 0 131 44 158 111h64c-18 -47 -47 -86 -86 -117s-86 -47 -140 -47c-89 0 -146 46 -165 130c-47 -81 -126 -130 -214 -130
c-104 0 -166 52 -166 131c0 84 62 175 249 175h139l6 25c4 17 6 32 6 47c0 69 -39 103 -111 103c-80 0 -132 -45 -148 -113h-65c11 49 36 89 75 120s86 46 142 46c83 0 139 -34 155 -103c24 32 52 57 85 76zM101 63c17 -16 41 -24 74 -24c97 0 177 67 202 179l6 23h-128
c-119 0 -180 -38 -181 -113c1 -28 10 -50 27 -65zM451 293h307c3 14 4 29 4 44c0 85 -42 131 -117 131c-89 0 -165 -67 -194 -175z" />
    <glyph glyph-name="ccedilla" unicode="&#xe7;" horiz-adv-x="521" 
d="M464 171c-35 -97 -110 -168 -205 -181l-48 -53c5 1 11 2 18 2c37 0 61 -25 61 -66c0 -25 -11 -46 -34 -64s-52 -27 -87 -27c-37 0 -69 9 -96 27l19 32c23 -13 48 -20 75 -20c44 0 71 19 71 50c0 24 -16 37 -45 37c-11 0 -22 -2 -32 -5l-15 15l64 69
c-105 7 -170 82 -170 202c-2 146 100 337 279 332c112 0 177 -68 177 -175c0 -10 0 -18 -1 -23h-63c1 5 1 11 1 20c0 76 -43 124 -119 124c-128 4 -211 -156 -209 -275c0 -95 47 -151 123 -151c38 0 72 13 103 38s53 55 66 92h67z" />
    <glyph glyph-name="egrave" unicode="&#xe8;" horiz-adv-x="539" 
d="M492 242h-387c-4 -22 -6 -42 -6 -59c0 -93 50 -143 133 -143c77 0 140 44 169 111h64c-19 -47 -49 -86 -90 -117s-90 -47 -146 -47c-124 0 -190 73 -190 200c-2 148 107 339 285 334c117 0 181 -70 181 -187c0 -23 -4 -53 -13 -92zM117 293h327c3 14 4 29 4 44
c0 84 -47 131 -127 131c-95 0 -173 -67 -204 -175zM247 712h80l59 -141h-55z" />
    <glyph glyph-name="eacute" unicode="&#xe9;" horiz-adv-x="539" 
d="M492 242h-387c-4 -22 -6 -42 -6 -59c0 -93 50 -143 133 -143c77 0 140 44 169 111h64c-19 -47 -49 -86 -90 -117s-90 -47 -146 -47c-124 0 -190 73 -190 200c-2 148 107 339 285 334c117 0 181 -70 181 -187c0 -23 -4 -53 -13 -92zM117 293h327c3 14 4 29 4 44
c0 84 -47 131 -127 131c-95 0 -173 -67 -204 -175zM391 712h88l-146 -141h-63z" />
    <glyph glyph-name="ecircumflex" unicode="&#xea;" horiz-adv-x="539" 
d="M492 242h-387c-4 -22 -6 -42 -6 -59c0 -93 50 -143 133 -143c77 0 140 44 169 111h64c-19 -47 -49 -86 -90 -117s-90 -47 -146 -47c-124 0 -190 73 -190 200c-2 148 107 339 285 334c117 0 181 -70 181 -187c0 -23 -4 -53 -13 -92zM117 293h327c3 14 4 29 4 44
c0 84 -47 131 -127 131c-95 0 -173 -67 -204 -175zM179 571l149 141h71l79 -141h-63l-56 101l-105 -101h-75z" />
    <glyph glyph-name="edieresis" unicode="&#xeb;" horiz-adv-x="539" 
d="M492 242h-387c-4 -22 -6 -42 -6 -59c0 -93 50 -143 133 -143c77 0 140 44 169 111h64c-19 -47 -49 -86 -90 -117s-90 -47 -146 -47c-124 0 -190 73 -190 200c-2 148 107 339 285 334c117 0 181 -70 181 -187c0 -23 -4 -53 -13 -92zM117 293h327c3 14 4 29 4 44
c0 84 -47 131 -127 131c-95 0 -173 -67 -204 -175zM424 712h61l-21 -88h-61zM240 712h61l-22 -88h-60z" />
    <glyph glyph-name="igrave" unicode="&#xec;" horiz-adv-x="228" 
d="M146 508h62l-126 -508h-62zM192 712l59 -141h-55l-84 141h80z" />
    <glyph glyph-name="iacute" unicode="&#xed;" horiz-adv-x="228" 
d="M146 508h62l-126 -508h-62zM136 571l121 141h88l-146 -141h-63z" />
    <glyph glyph-name="icircumflex" unicode="&#xee;" horiz-adv-x="228" 
d="M146 508h62l-126 -508h-62zM58 572l133 140h74l63 -140h-61l-42 101l-92 -101h-75z" />
    <glyph glyph-name="idieresis" unicode="&#xef;" horiz-adv-x="228" 
d="M20 0l126 508h62l-126 -508h-62zM248 624l22 88h61l-22 -88h-61zM126 712h61l-22 -88h-60z" />
    <glyph glyph-name="eth" unicode="&#xf0;" horiz-adv-x="553" 
d="M521 679l-125 -54c73 -93 118 -199 118 -307c2 -150 -105 -335 -283 -331c-123 0 -191 77 -192 208c-1 143 106 323 279 318c47 0 83 -13 108 -40l1 2c-20 45 -47 88 -81 129l-148 -63l-18 42l133 57c-17 18 -35 35 -54 51l43 34c22 -20 43 -41 63 -63l137 59zM103 191
c0 -96 47 -150 132 -150c135 -4 218 157 216 269c0 97 -47 153 -134 153c-135 5 -216 -157 -214 -272z" />
    <glyph glyph-name="ntilde" unicode="&#xf1;" 
d="M507 373c0 -21 -4 -47 -11 -76l-74 -297h-62l74 298c7 26 10 50 10 71c0 63 -35 96 -98 96c-42 0 -81 -14 -116 -43s-59 -70 -72 -121l-76 -301h-62l127 508h61l-15 -63h2c43 47 102 74 165 74c93 0 147 -51 147 -146zM251 676c19 18 42 27 68 27c28 0 48 -10 77 -30
c24 -16 37 -24 56 -24c28 0 48 18 61 54h48c-20 -67 -61 -105 -112 -105c-28 0 -46 10 -77 29c-24 16 -38 24 -57 24c-27 0 -47 -18 -58 -53h-50c9 33 24 59 44 78z" />
    <glyph glyph-name="ograve" unicode="&#xf2;" horiz-adv-x="552" 
d="M479 161c-21 -50 -53 -91 -95 -124s-92 -50 -149 -50c-124 0 -194 77 -194 210c-2 146 102 328 274 324c125 0 196 -77 196 -210c0 -50 -11 -100 -32 -150zM140 81c23 -27 56 -40 100 -40c130 -4 209 154 208 272c0 99 -48 154 -137 154c-130 4 -207 -154 -206 -272
c0 -49 12 -87 35 -114zM334 712l59 -141h-55l-84 141h80z" />
    <glyph glyph-name="oacute" unicode="&#xf3;" horiz-adv-x="552" 
d="M479 161c-21 -50 -53 -91 -95 -124s-92 -50 -149 -50c-124 0 -194 77 -194 210c-2 146 102 328 274 324c125 0 196 -77 196 -210c0 -50 -11 -100 -32 -150zM140 81c23 -27 56 -40 100 -40c130 -4 209 154 208 272c0 99 -48 154 -137 154c-130 4 -207 -154 -206 -272
c0 -49 12 -87 35 -114zM398 712h88l-146 -141h-63z" />
    <glyph glyph-name="ocircumflex" unicode="&#xf4;" horiz-adv-x="552" 
d="M479 161c-21 -50 -53 -91 -95 -124s-92 -50 -149 -50c-124 0 -194 77 -194 210c-2 146 102 328 274 324c125 0 196 -77 196 -210c0 -50 -11 -100 -32 -150zM105 195c0 -99 47 -154 135 -154c130 -4 209 154 208 272c0 99 -48 154 -137 154c-130 4 -207 -154 -206 -272z
M335 712h71l79 -141h-63l-56 101l-105 -101h-75z" />
    <glyph glyph-name="otilde" unicode="&#xf5;" horiz-adv-x="552" 
d="M41 197c-2 146 102 328 274 324c125 0 196 -77 196 -210c2 -146 -103 -329 -276 -324c-124 0 -194 77 -194 210zM105 195c0 -99 47 -154 135 -154c130 -4 209 154 208 272c0 99 -48 154 -137 154c-130 4 -207 -154 -206 -272zM485 703h48c-20 -67 -61 -105 -112 -105
c-28 0 -46 10 -77 29c-24 16 -38 24 -57 24c-27 0 -47 -18 -58 -53h-50c19 67 60 105 112 105c28 0 48 -10 77 -30c24 -16 37 -24 56 -24c28 0 48 18 61 54z" />
    <glyph glyph-name="odieresis" unicode="&#xf6;" horiz-adv-x="552" 
d="M479 161c-21 -50 -53 -91 -95 -124s-92 -50 -149 -50c-124 0 -194 77 -194 210c-2 146 102 328 274 324c125 0 196 -77 196 -210c0 -50 -11 -100 -32 -150zM105 195c0 -99 47 -154 135 -154c130 -4 209 154 208 272c0 99 -48 154 -137 154c-130 4 -207 -154 -206 -272z
M431 712h61l-21 -88h-61zM247 712h61l-22 -88h-60z" />
    <glyph glyph-name="divide" unicode="&#xf7;" horiz-adv-x="566" 
d="M492 345v-57h-418v57h418zM250 513h66v-72h-66v72zM250 121v72h66v-72h-66z" />
    <glyph glyph-name="oslash" unicode="&#xf8;" horiz-adv-x="553" 
d="M551 493l-64 -63c17 -31 25 -71 25 -119c2 -145 -105 -329 -281 -324c-59 0 -105 17 -138 52l-59 -58l-35 35l65 64c-15 33 -23 72 -23 117c-2 146 104 328 281 324c58 0 103 -17 136 -51l58 58zM235 41c134 -4 215 154 214 272c0 27 -3 50 -10 69l-303 -300
c22 -27 55 -41 99 -41zM103 195c0 -25 3 -48 9 -67l303 299c-23 27 -55 40 -98 40c-134 4 -215 -154 -214 -272z" />
    <glyph glyph-name="ugrave" unicode="&#xf9;" 
d="M543 508l-127 -508h-61l16 63h-2c-43 -45 -104 -74 -165 -74c-95 0 -148 51 -148 146c0 21 4 47 11 76l74 297h62l-74 -298c-7 -26 -10 -50 -10 -71c0 -63 35 -96 98 -96c41 0 80 15 116 44s60 69 73 120l75 301h62zM270 712h80l59 -141h-55z" />
    <glyph glyph-name="uacute" unicode="&#xfa;" 
d="M543 508l-127 -508h-61l16 63h-2c-43 -45 -104 -74 -165 -74c-95 0 -148 51 -148 146c0 21 4 47 11 76l74 297h62l-74 -298c-7 -26 -10 -50 -10 -71c0 -63 35 -96 98 -96c41 0 80 15 116 44s60 69 73 120l75 301h62zM414 712h88l-146 -141h-63z" />
    <glyph glyph-name="ucircumflex" unicode="&#xfb;" 
d="M543 508l-127 -508h-61l16 63h-2c-43 -45 -104 -74 -165 -74c-95 0 -148 51 -148 146c0 21 4 47 11 76l74 297h62l-74 -298c-7 -26 -10 -50 -10 -71c0 -63 35 -96 98 -96c41 0 80 15 116 44s60 69 73 120l75 301h62zM351 712h71l79 -141h-63l-56 101l-105 -101h-75z" />
    <glyph glyph-name="udieresis" unicode="&#xfc;" 
d="M67 211l74 297h62l-74 -298c-7 -26 -10 -50 -10 -71c0 -63 35 -96 98 -96c41 0 80 15 116 44s60 69 73 120l75 301h62l-127 -508h-61l16 63h-2c-43 -45 -104 -74 -165 -74c-95 0 -148 51 -148 146c0 21 4 47 11 76zM487 624h-61l21 88h61zM263 712h61l-22 -88h-60z" />
    <glyph glyph-name="yacute" unicode="&#xfd;" horiz-adv-x="456" 
d="M524 508l-339 -532c-84 -132 -132 -165 -234 -165c-15 0 -29 2 -42 6l13 53c10 -3 22 -4 35 -4c78 3 100 22 174 134l-73 508h63l58 -429h2l272 429h71zM351 712h88l-146 -141h-63z" />
    <glyph glyph-name="thorn" unicode="&#xfe;" horiz-adv-x="567" 
d="M497 172c-21 -53 -52 -96 -93 -131s-90 -52 -145 -52c-79 0 -135 42 -151 109h-2l-70 -283h-62l223 897h62l-65 -264h2c40 45 99 73 159 73c111 0 174 -72 174 -195c0 -51 -11 -102 -32 -154zM168 81c21 -27 50 -40 88 -40c129 -5 208 155 206 276c0 96 -42 152 -118 152
c-131 4 -209 -153 -207 -276c0 -48 10 -85 31 -112z" />
    <glyph glyph-name="ydieresis" unicode="&#xff;" horiz-adv-x="456" 
d="M524 508l-339 -532c-84 -132 -132 -165 -234 -165c-15 0 -29 2 -42 6l13 53c10 -3 22 -4 35 -4c78 3 100 22 174 134l-73 508h63l58 -429h2l272 429h71zM362 624l21 88h61l-21 -88h-61zM199 712h61l-22 -88h-60z" />
    <glyph glyph-name="Amacron" unicode="&#x100;" horiz-adv-x="664" 
d="M402 712h89l104 -712h-66l-32 230h-333l-146 -230h-75zM202 290h287l-51 369h-2c-74 -118 -136 -216 -187 -295zM598 793h-263l12 52h263z" />
    <glyph glyph-name="amacron" unicode="&#x101;" horiz-adv-x="524" 
d="M468 371c0 -19 -3 -42 -9 -67l-44 -179c-13 -51 -20 -93 -21 -125h-59c1 26 5 48 10 67h-2c-45 -51 -105 -77 -179 -77c-97 0 -156 51 -156 128c0 94 73 152 220 174c55 8 112 14 172 18l3 12c5 19 7 35 7 49c0 65 -42 97 -113 97c-80 0 -133 -45 -148 -113h-65
c11 49 36 89 75 120s86 46 142 46c105 0 167 -50 167 -150zM75 125c0 -52 38 -83 105 -83c93 0 167 62 195 166l12 50c-52 -3 -103 -9 -153 -17c-61 -9 -102 -24 -125 -43s-34 -44 -34 -73zM200 624l12 52h263l-12 -52h-263z" />
    <glyph glyph-name="Abreve" unicode="&#x102;" horiz-adv-x="664" 
d="M-57 0l459 712h89l104 -712h-66l-32 230h-333l-146 -230h-75zM489 290l-51 369h-2c-74 -118 -136 -216 -187 -295l-47 -74h287zM638 895c-24 -88 -87 -139 -172 -139c-79 0 -122 41 -122 114c0 11 1 19 2 25h47c-1 -3 -1 -9 -1 -16c0 -48 26 -74 73 -74
c57 0 98 31 119 90h54z" />
    <glyph glyph-name="abreve" unicode="&#x103;" horiz-adv-x="524" 
d="M380 444c-20 16 -48 24 -83 24c-80 0 -133 -45 -148 -113h-65c11 49 36 89 75 120s86 46 142 46c105 0 167 -50 167 -150c0 -19 -3 -42 -9 -67l-44 -179c-13 -51 -20 -93 -21 -125h-59c1 26 5 48 10 67h-2c-45 -51 -105 -77 -179 -77c-97 0 -156 51 -156 128
c0 94 73 152 220 174c55 8 112 14 172 18l3 12c5 19 7 35 7 49c0 33 -10 57 -30 73zM103 64c18 -15 44 -22 77 -22c93 0 167 62 195 166l12 50c-52 -3 -103 -9 -153 -17c-61 -9 -102 -24 -125 -43s-34 -44 -34 -73c0 -26 9 -46 28 -61zM444 712h55
c-24 -88 -88 -139 -173 -139c-79 0 -121 42 -121 115c0 10 1 18 2 24h47c-1 -3 -1 -9 -1 -16c0 -48 26 -73 73 -73c56 0 98 32 118 89z" />
    <glyph glyph-name="Aogonek" unicode="&#x104;" horiz-adv-x="664" 
d="M551 -186c-11 -4 -26 -6 -43 -6c-53 0 -81 24 -81 68c0 43 32 79 105 124h-3l-32 230h-333l-146 -230h-75l459 712h89l104 -712c-81 -49 -108 -86 -108 -117c0 -20 12 -30 35 -30c14 0 28 2 41 7zM202 290h287l-51 369h-2c-74 -118 -136 -216 -187 -295z" />
    <glyph glyph-name="aogonek" unicode="&#x105;" horiz-adv-x="524" 
d="M380 444c-20 16 -48 24 -83 24c-80 0 -133 -45 -148 -113h-65c11 49 36 89 75 120s86 46 142 46c105 0 167 -50 167 -150c0 -20 -3 -42 -9 -67l-44 -179c-13 -51 -20 -93 -21 -125c-81 -49 -108 -86 -108 -117c0 -20 12 -30 35 -30c14 0 28 2 41 7l-12 -46
c-11 -4 -26 -6 -43 -6c-53 0 -81 24 -81 68s33 81 109 126c1 25 5 47 10 65h-2c-45 -51 -105 -77 -179 -77c-97 0 -156 51 -156 128c0 94 73 152 220 174c55 8 112 14 172 18l3 12c5 19 7 35 7 49c0 33 -10 57 -30 73zM103 64c18 -15 44 -22 77 -22c93 0 167 62 195 166
l12 50c-52 -3 -103 -9 -153 -17c-61 -9 -102 -24 -125 -43s-34 -44 -34 -73c0 -26 9 -46 28 -61z" />
    <glyph glyph-name="Cacute" unicode="&#x106;" horiz-adv-x="684" 
d="M676 459h-68c2 13 3 26 3 37c0 103 -68 168 -175 168c-63 0 -118 -20 -164 -60c-46 -41 -81 -91 -104 -152c-24 -61 -36 -120 -36 -179c0 -137 69 -225 186 -225c54 0 103 16 147 49c43 33 76 76 97 130h68c-24 -73 -64 -131 -121 -174c-57 -44 -122 -66 -196 -66
c-78 0 -139 25 -182 76c-44 50 -66 118 -66 203c0 71 15 142 44 213s72 129 129 176s126 70 206 70c147 0 235 -92 235 -224c0 -14 -1 -28 -3 -42zM524 895h88l-145 -135h-63z" />
    <glyph glyph-name="cacute" unicode="&#x107;" horiz-adv-x="521" 
d="M495 323h-63c1 5 1 11 1 20c0 76 -43 124 -119 124c-128 4 -211 -156 -209 -275c0 -95 47 -151 123 -151c38 0 72 13 103 38s53 55 66 92h67c-19 -55 -50 -99 -93 -133s-92 -51 -147 -51c-113 0 -184 77 -184 202c-2 146 100 337 279 332c112 0 177 -68 177 -175
c0 -10 0 -18 -1 -23zM275 571l121 141h88l-146 -141h-63z" />
    <glyph glyph-name="Ccircumflex" unicode="&#x108;" horiz-adv-x="684" 
d="M676 459h-68c2 13 3 26 3 37c0 103 -68 168 -175 168c-63 0 -118 -20 -164 -60c-46 -41 -81 -91 -104 -152c-24 -61 -36 -120 -36 -179c0 -137 69 -225 186 -225c54 0 103 16 147 49c43 33 76 76 97 130h68c-24 -73 -64 -131 -121 -174c-57 -44 -122 -66 -196 -66
c-78 0 -139 25 -182 76c-44 50 -66 118 -66 203c0 71 15 142 44 213s72 129 129 176s126 70 206 70c147 0 235 -92 235 -224c0 -14 -1 -28 -3 -42zM312 760l148 135h71l80 -135h-61l-57 95l-105 -95h-76z" />
    <glyph glyph-name="ccircumflex" unicode="&#x109;" horiz-adv-x="521" 
d="M495 323h-63c1 5 1 11 1 20c0 76 -43 124 -119 124c-128 4 -211 -156 -209 -275c0 -95 47 -151 123 -151c38 0 72 13 103 38s53 55 66 92h67c-19 -55 -50 -99 -93 -133s-92 -51 -147 -51c-113 0 -184 77 -184 202c-2 146 100 337 279 332c112 0 177 -68 177 -175
c0 -10 0 -18 -1 -23zM333 712h71l79 -141h-63l-56 101l-105 -101h-75z" />
    <glyph glyph-name="Cdotaccent" unicode="&#x10a;" horiz-adv-x="684" 
d="M676 459h-68c2 13 3 26 3 37c0 103 -68 168 -175 168c-63 0 -118 -20 -164 -60c-46 -41 -81 -91 -104 -152c-24 -61 -36 -120 -36 -179c0 -137 69 -225 186 -225c54 0 103 16 147 49c43 33 76 76 97 130h68c-24 -73 -64 -131 -121 -174c-57 -44 -122 -66 -196 -66
c-78 0 -139 25 -182 76c-44 50 -66 118 -66 203c0 71 15 142 44 213s72 129 129 176s126 70 206 70c147 0 235 -92 235 -224c0 -14 -1 -28 -3 -42zM457 866h62l-22 -88h-62z" />
    <glyph glyph-name="cdotaccent" unicode="&#x10b;" horiz-adv-x="521" 
d="M495 323h-63c1 5 1 11 1 20c0 76 -43 124 -119 124c-128 4 -211 -156 -209 -275c0 -95 47 -151 123 -151c38 0 72 13 103 38s53 55 66 92h67c-19 -55 -50 -99 -93 -133s-92 -51 -147 -51c-113 0 -184 77 -184 202c-2 146 100 337 279 332c112 0 177 -68 177 -175
c0 -10 0 -18 -1 -23zM337 712h62l-21 -88h-62z" />
    <glyph glyph-name="Ccaron" unicode="&#x10c;" horiz-adv-x="684" 
d="M676 459h-68c2 13 3 26 3 37c0 103 -68 168 -175 168c-63 0 -118 -20 -164 -60c-46 -41 -81 -91 -104 -152c-24 -61 -36 -120 -36 -179c0 -137 69 -225 186 -225c54 0 103 16 147 49c43 33 76 76 97 130h68c-24 -73 -64 -131 -121 -174c-57 -44 -122 -66 -196 -66
c-78 0 -139 25 -182 76c-44 50 -66 118 -66 203c0 71 15 142 44 213s72 129 129 176s126 70 206 70c147 0 235 -92 235 -224c0 -14 -1 -28 -3 -42zM346 895h62l57 -95l104 95h76l-148 -135h-71z" />
    <glyph glyph-name="ccaron" unicode="&#x10d;" horiz-adv-x="521" 
d="M495 323h-63c1 5 1 11 1 20c0 76 -43 124 -119 124c-128 4 -211 -156 -209 -275c0 -95 47 -151 123 -151c38 0 72 13 103 38s53 55 66 92h67c-19 -55 -50 -99 -93 -133s-92 -51 -147 -51c-113 0 -184 77 -184 202c-2 146 100 337 279 332c112 0 177 -68 177 -175
c0 -10 0 -18 -1 -23zM218 712h63l56 -101l105 101h75l-149 -141h-71z" />
    <glyph glyph-name="Dcaron" unicode="&#x10e;" horiz-adv-x="718" 
d="M653 217c-31 -63 -79 -115 -143 -156s-143 -61 -236 -61h-236l177 712h163c211 0 321 -106 321 -303c0 -65 -15 -129 -46 -192zM275 59c240 -4 357 189 355 346c0 161 -87 248 -254 248h-111l-148 -594h158zM337 895h62l57 -95l104 95h76l-148 -135h-71z" />
    <glyph glyph-name="dcaron" unicode="&#x10f;" horiz-adv-x="564" 
d="M68 337c21 52 53 95 94 130s89 52 144 52c79 0 135 -42 151 -109h2l75 302h62l-178 -712h-62l15 60h-2c-40 -45 -98 -73 -159 -73c-111 0 -174 72 -174 195c0 51 11 102 32 155zM134 79c20 -27 49 -40 87 -40c130 -4 208 153 207 276c0 96 -42 152 -118 152
c-131 4 -209 -153 -207 -276c0 -48 10 -85 31 -112zM728 712l-98 -176h-41l75 176h64z" />
    <glyph glyph-name="Dcroat" unicode="&#x110;" horiz-adv-x="718" 
d="M653 217c-31 -63 -79 -115 -143 -156s-143 -61 -236 -61h-236l83 333h-67l14 55h66l81 324h163c211 0 321 -106 321 -303c0 -65 -15 -129 -46 -192zM275 59c240 -4 357 189 355 346c0 161 -87 248 -254 248h-111l-66 -265h221l-14 -55h-221l-68 -274h158z" />
    <glyph glyph-name="dcroat" unicode="&#x111;" horiz-adv-x="560" 
d="M639 629l-11 -46h-64l-146 -583h-62l15 60h-2c-40 -45 -98 -73 -159 -73c-111 0 -174 72 -174 195c-2 148 104 342 270 337c79 0 135 -42 151 -109h2l43 173h-137l11 46h137l21 83h62l-21 -83h64zM103 191c0 -96 42 -152 118 -152c130 -4 208 153 207 276
c0 96 -42 152 -118 152c-131 4 -209 -153 -207 -276z" />
    <glyph glyph-name="Emacron" unicode="&#x112;" horiz-adv-x="610" 
d="M507 59l-14 -59h-455l177 712h443l-15 -59h-378l-63 -258h358l-15 -59h-359l-69 -277h390zM327 845h263l-12 -52h-263z" />
    <glyph glyph-name="emacron" unicode="&#x113;" horiz-adv-x="539" 
d="M492 242h-387c-4 -22 -6 -42 -6 -59c0 -93 50 -143 133 -143c77 0 140 44 169 111h64c-19 -47 -49 -86 -90 -117s-90 -47 -146 -47c-124 0 -190 73 -190 200c-2 148 107 339 285 334c117 0 181 -70 181 -187c0 -23 -4 -53 -13 -92zM117 293h327c3 14 4 29 4 44
c0 84 -47 131 -127 131c-95 0 -173 -67 -204 -175zM222 676h263l-12 -52h-263z" />
    <glyph glyph-name="Ebreve" unicode="&#x114;" horiz-adv-x="610" 
d="M643 653h-378l-63 -258h358l-15 -59h-359l-69 -277h390l-14 -59h-455l177 712h443zM324 870c0 11 1 19 2 25h47c-1 -3 -1 -9 -1 -16c0 -48 26 -74 73 -74c57 0 98 31 119 90h54c-24 -88 -87 -139 -172 -139c-79 0 -122 41 -122 114z" />
    <glyph glyph-name="ebreve" unicode="&#x115;" horiz-adv-x="539" 
d="M39 187c-2 148 107 339 285 334c117 0 181 -70 181 -187c0 -23 -4 -53 -13 -92h-387c-4 -22 -6 -42 -6 -59c0 -93 50 -143 133 -143c77 0 140 44 169 111h64c-19 -47 -49 -86 -90 -117s-90 -47 -146 -47c-124 0 -190 73 -190 200zM117 293h327c3 14 4 29 4 44
c0 84 -47 131 -127 131c-95 0 -173 -67 -204 -175zM446 610c-31 -25 -67 -37 -110 -37c-79 0 -121 42 -121 115c0 10 1 18 2 24h47c-1 -3 -1 -9 -1 -16c0 -48 26 -73 73 -73c56 0 98 32 118 89h55c-12 -44 -33 -78 -63 -102z" />
    <glyph glyph-name="Edotaccent" unicode="&#x116;" horiz-adv-x="610" 
d="M507 59l-14 -59h-455l177 712h443l-15 -59h-378l-63 -258h358l-15 -59h-359l-69 -277h390zM412 778l22 88h62l-22 -88h-62z" />
    <glyph glyph-name="edotaccent" unicode="&#x117;" horiz-adv-x="539" 
d="M492 242h-387c-4 -22 -6 -42 -6 -59c0 -93 50 -143 133 -143c77 0 140 44 169 111h64c-19 -47 -49 -86 -90 -117s-90 -47 -146 -47c-124 0 -190 73 -190 200c-2 148 107 339 285 334c117 0 181 -70 181 -187c0 -23 -4 -53 -13 -92zM117 293h327c3 14 4 29 4 44
c0 84 -47 131 -127 131c-95 0 -173 -67 -204 -175zM332 712h62l-21 -88h-62z" />
    <glyph glyph-name="Eogonek" unicode="&#x118;" horiz-adv-x="610" 
d="M643 653h-378l-63 -258h358l-15 -59h-359l-69 -277h390l-14 -59c-81 -49 -108 -86 -108 -117c0 -20 12 -30 35 -30c14 0 28 2 41 7l-12 -46c-11 -4 -26 -6 -43 -6c-53 0 -81 24 -81 68c0 43 32 79 105 124h-392l177 712h443z" />
    <glyph glyph-name="eogonek" unicode="&#x119;" horiz-adv-x="537" 
d="M71 341c22 51 55 94 98 129c43 34 94 51 153 51c117 0 182 -70 182 -187c0 -24 -5 -55 -14 -92h-387c-4 -22 -6 -42 -6 -59c0 -93 50 -143 134 -143c76 0 139 44 168 111h64c-19 -52 -57 -98 -114 -138c-87 -60 -113 -97 -113 -130c0 -20 12 -30 35 -30c15 0 28 2 40 7
l-11 -46c-11 -4 -25 -6 -44 -6c-53 0 -80 24 -80 68c0 37 24 71 79 111v2c-11 -1 -20 -2 -28 -2c-124 0 -190 73 -190 200c0 51 11 102 34 154zM446 337c0 84 -47 131 -127 131c-95 0 -173 -67 -204 -175h327c3 14 4 29 4 44z" />
    <glyph glyph-name="Ecaron" unicode="&#x11a;" horiz-adv-x="610" 
d="M643 653h-378l-63 -258h358l-15 -59h-359l-69 -277h390l-14 -59h-455l177 712h443zM323 895h62l57 -95l104 95h76l-148 -135h-71z" />
    <glyph glyph-name="ecaron" unicode="&#x11b;" horiz-adv-x="539" 
d="M492 242h-387c-4 -22 -6 -42 -6 -59c0 -93 50 -143 133 -143c77 0 140 44 169 111h64c-19 -47 -49 -86 -90 -117s-90 -47 -146 -47c-124 0 -190 73 -190 200c-2 148 107 339 285 334c117 0 181 -70 181 -187c0 -23 -4 -53 -13 -92zM117 293h327c3 14 4 29 4 44
c0 84 -47 131 -127 131c-95 0 -173 -67 -204 -175zM276 712l56 -101l105 101h75l-149 -141h-71l-79 141h63z" />
    <glyph glyph-name="Gcircumflex" unicode="&#x11c;" horiz-adv-x="724" 
d="M581 623c-30 27 -72 41 -127 41c-67 0 -125 -20 -174 -60c-49 -41 -85 -92 -110 -153c-25 -62 -38 -124 -38 -185c0 -135 65 -218 184 -218c59 0 114 20 164 61c49 40 84 103 105 188h-210l15 59h272l-88 -356h-61l23 93h-2c-24 -32 -57 -57 -99 -76
c-43 -20 -87 -29 -133 -29c-148 0 -236 113 -236 279c0 73 15 144 46 215c30 71 75 129 134 175c59 45 130 68 212 68c74 0 132 -19 175 -57c42 -38 63 -89 63 -152c0 -8 -1 -18 -2 -30h-69c1 5 1 11 1 19c0 51 -15 90 -45 118zM465 895h71l80 -135h-61l-57 95l-105 -95h-76
z" />
    <glyph glyph-name="gcircumflex" unicode="&#x11d;" horiz-adv-x="565" 
d="M375 81c-45 -49 -107 -76 -170 -76c-104 0 -164 73 -164 196c-2 140 104 325 268 320c75 0 127 -38 148 -109h2l24 96h62l-124 -499c-33 -132 -121 -201 -253 -201c-112 0 -177 48 -177 131c0 9 1 19 3 29h63c-2 -9 -3 -18 -3 -26c0 -53 42 -82 117 -82
c103 0 165 54 194 173l12 48h-2zM398 430c-22 25 -54 38 -95 38c-121 5 -200 -155 -198 -262c0 -93 40 -148 115 -148c130 -5 213 152 211 263c0 47 -11 83 -33 109zM383 672l-105 -101h-75l149 141h71l79 -141h-63z" />
    <glyph glyph-name="Gbreve" unicode="&#x11e;" horiz-adv-x="724" 
d="M574 0h-61l23 93h-2c-24 -32 -57 -57 -99 -76c-43 -20 -87 -29 -133 -29c-148 0 -236 113 -236 279c0 73 15 144 46 215c30 71 75 129 134 175c59 45 130 68 212 68c74 0 132 -19 175 -57c42 -38 63 -89 63 -152c0 -8 -1 -18 -2 -30h-69c1 5 1 11 1 19
c0 101 -63 159 -172 159c-67 0 -125 -20 -174 -60c-49 -41 -85 -92 -110 -153c-25 -62 -38 -124 -38 -185c0 -135 65 -218 184 -218c59 0 114 20 164 61c49 40 84 103 105 188h-210l15 59h272zM593 895h54c-24 -88 -87 -139 -172 -139c-79 0 -122 41 -122 114
c0 11 1 19 2 25h47c-1 -3 -1 -9 -1 -16c0 -48 26 -74 73 -74c57 0 98 31 119 90z" />
    <glyph glyph-name="gbreve" unicode="&#x11f;" horiz-adv-x="565" 
d="M332 -141c-43 -34 -98 -51 -164 -51c-112 0 -177 48 -177 131c0 9 1 19 3 29h63c-2 -9 -3 -18 -3 -26c0 -53 42 -82 117 -82c103 0 165 54 194 173l12 48h-2c-45 -49 -107 -76 -170 -76c-104 0 -164 73 -164 196c-2 140 104 325 268 320c75 0 127 -38 148 -109h2l24 96
h62l-124 -499c-17 -66 -46 -116 -89 -150zM406 203c17 41 25 80 25 118c0 93 -45 147 -128 147c-121 5 -200 -155 -198 -262c0 -93 40 -148 115 -148c87 0 153 62 186 145zM433 646c20 15 35 37 45 66h55c-24 -88 -88 -139 -173 -139c-79 0 -121 42 -121 115c0 10 1 18 2 24
h47c-1 -3 -1 -9 -1 -16c0 -48 26 -73 73 -73c28 0 52 8 73 23z" />
    <glyph glyph-name="Gdotaccent" unicode="&#x120;" horiz-adv-x="724" 
d="M696 516c0 -8 -1 -18 -2 -30h-69c1 5 1 11 1 19c0 101 -63 159 -172 159c-67 0 -125 -20 -174 -60c-49 -41 -85 -92 -110 -153c-25 -62 -38 -124 -38 -185c0 -135 65 -218 184 -218c59 0 114 20 164 61c49 40 84 103 105 188h-210l15 59h272l-88 -356h-61l23 93h-2
c-24 -32 -57 -57 -99 -76c-43 -20 -87 -29 -133 -29c-148 0 -236 113 -236 279c0 73 15 144 46 215c30 71 75 129 134 175c59 45 130 68 212 68c74 0 132 -19 175 -57c42 -38 63 -89 63 -152zM462 866h62l-22 -88h-62z" />
    <glyph glyph-name="gdotaccent" unicode="&#x121;" horiz-adv-x="565" 
d="M457 412h2l24 96h62l-124 -499c-33 -132 -121 -201 -253 -201c-112 0 -177 48 -177 131c0 9 1 19 3 29h63c-2 -9 -3 -18 -3 -26c0 -53 42 -82 117 -82c103 0 165 54 194 173l12 48h-2c-45 -49 -107 -76 -170 -76c-104 0 -164 73 -164 196c-2 140 104 325 268 320
c75 0 127 -38 148 -109zM398 430c-22 25 -54 38 -95 38c-121 5 -200 -155 -198 -262c0 -93 40 -148 115 -148c130 -5 213 152 211 263c0 47 -11 83 -33 109zM397 624h-62l21 88h62z" />
    <glyph glyph-name="Gcommaaccent" unicode="&#x122;" horiz-adv-x="724" 
d="M581 623c-30 27 -72 41 -127 41c-67 0 -125 -20 -174 -60c-49 -41 -85 -92 -110 -153c-25 -62 -38 -124 -38 -185c0 -135 65 -218 184 -218c59 0 114 20 164 61c49 40 84 103 105 188h-210l15 59h272l-88 -356h-61l23 93h-2c-24 -32 -57 -57 -99 -76
c-43 -20 -87 -29 -133 -29c-148 0 -236 113 -236 279c0 73 15 144 46 215c30 71 75 129 134 175c59 45 130 68 212 68c74 0 132 -19 175 -57c42 -38 63 -89 63 -152c0 -8 -1 -18 -2 -30h-69c1 5 1 11 1 19c0 51 -15 90 -45 118zM257 -149h-28l20 81h71l-19 -81l-76 -102h-28
z" />
    <glyph glyph-name="gcommaaccent" unicode="&#x123;" horiz-adv-x="565" 
d="M457 412h2l24 96h62l-124 -499c-33 -132 -121 -201 -253 -201c-112 0 -177 48 -177 131c0 9 1 19 3 29h63c-2 -9 -3 -18 -3 -26c0 -53 42 -82 117 -82c103 0 165 54 194 173l12 48h-2c-45 -49 -107 -76 -170 -76c-104 0 -164 73 -164 196c-2 140 104 325 268 320
c75 0 127 -38 148 -109zM398 430c-22 25 -54 38 -95 38c-121 5 -200 -155 -198 -262c0 -93 40 -148 115 -148c130 -5 213 152 211 263c0 47 -11 83 -33 109zM409 667l-21 -81h-71l20 81l75 102h28l-59 -102h28z" />
    <glyph glyph-name="Hcircumflex" unicode="&#x124;" horiz-adv-x="731" 
d="M744 712l-177 -712h-65l85 340h-400l-84 -340h-65l177 712h65l-77 -313h399l77 313h65zM342 760l148 135h71l80 -135h-61l-57 95l-105 -95h-76z" />
    <glyph glyph-name="hcircumflex" unicode="&#x125;" 
d="M197 712h62l-66 -266h2c43 45 102 73 165 73c93 0 147 -51 147 -146c0 -21 -4 -47 -11 -76l-74 -297h-62l74 298c7 26 10 50 10 71c0 63 -35 96 -98 96c-42 0 -81 -14 -116 -43s-59 -70 -72 -121l-76 -301h-62zM497 760l-57 95l-105 -95h-76l148 135h71l80 -135h-61z" />
    <glyph glyph-name="Hbar" unicode="&#x126;" horiz-adv-x="731" 
d="M771 576h-61l-143 -576h-65l85 340h-400l-84 -340h-65l143 576h-59l12 53h60l21 83h65l-20 -83h399l20 83h65l-21 -83h60zM203 399h399l44 177h-399z" />
    <glyph glyph-name="hbar" unicode="&#x127;" 
d="M496 297l-74 -297h-62l74 298c7 26 10 50 10 71c0 63 -35 96 -98 96c-42 0 -81 -14 -116 -43s-59 -70 -72 -121l-76 -301h-62l145 583h-69l11 46h69l21 83h62l-21 -83h132l-11 -46h-132l-34 -137h2c43 45 102 73 165 73c93 0 147 -51 147 -146c0 -21 -4 -47 -11 -76z" />
    <glyph glyph-name="Itilde" unicode="&#x128;" horiz-adv-x="267" 
d="M215 712h65l-177 -712h-65zM412 808c-20 -19 -43 -28 -68 -28c-28 0 -45 10 -77 30c-28 17 -38 24 -57 24c-27 0 -48 -19 -59 -54h-50c19 67 61 105 112 105c29 0 50 -11 78 -30c24 -16 40 -23 57 -23c27 0 47 18 60 53h48c-10 -33 -25 -59 -44 -77z" />
    <glyph glyph-name="itilde" unicode="&#x129;" horiz-adv-x="228" 
d="M146 508h62l-126 -508h-62zM331 626c-19 -19 -40 -28 -63 -28c-25 0 -41 10 -68 30c-19 15 -32 23 -47 23c-23 0 -40 -18 -51 -53h-49c20 67 58 105 105 105c25 0 41 -10 68 -30c19 -16 34 -24 47 -24c23 0 40 18 53 54h47c-10 -33 -24 -59 -42 -77z" />
    <glyph glyph-name="Imacron" unicode="&#x12a;" horiz-adv-x="267" 
d="M215 712h65l-177 -712h-65zM136 793l12 52h263l-12 -52h-263z" />
    <glyph glyph-name="imacron" unicode="&#x12b;" horiz-adv-x="228" 
d="M146 508h62l-126 -508h-62zM86 624l12 52h242l-13 -52h-241z" />
    <glyph glyph-name="Ibreve" unicode="&#x12c;" horiz-adv-x="267" 
d="M103 0h-65l177 712h65zM148 895h47c-1 -3 -1 -9 -1 -16c0 -48 26 -74 73 -74c57 0 98 31 119 90h54c-24 -88 -87 -139 -172 -139c-79 0 -122 41 -122 114c0 11 1 19 2 25z" />
    <glyph glyph-name="ibreve" unicode="&#x12d;" horiz-adv-x="228" 
d="M82 0h-62l126 508h62zM97 683c0 11 1 20 3 29h46c-1 -3 -1 -10 -1 -20c0 -44 23 -69 62 -69c45 0 79 30 98 89h53c-23 -88 -80 -139 -155 -139c-68 0 -106 39 -106 110z" />
    <glyph glyph-name="Iogonek" unicode="&#x12e;" horiz-adv-x="267" 
d="M-65 -124c0 43 32 79 105 124h-2l177 712h65l-177 -712c-81 -49 -108 -86 -108 -117c0 -20 12 -30 35 -30c14 0 28 2 41 7l-12 -46c-11 -4 -26 -6 -43 -6c-53 0 -81 24 -81 68z" />
    <glyph glyph-name="iogonek" unicode="&#x12f;" horiz-adv-x="228" 
d="M20 1l126 507h62l-126 -508c-81 -49 -108 -86 -108 -117c0 -20 12 -30 35 -30c14 0 28 2 41 7l-12 -46c-11 -4 -26 -6 -43 -6c-53 0 -81 24 -81 68c0 43 31 80 106 125zM176 624l21 88h62l-21 -88h-62z" />
    <glyph glyph-name="Idotaccent" unicode="&#x130;" horiz-adv-x="267" 
d="M215 712h65l-177 -712h-65zM255 866h62l-22 -88h-62z" />
    <glyph glyph-name="dotlessi" unicode="&#x131;" horiz-adv-x="228" 
d="M146 508h62l-126 -508h-62z" />
    <glyph glyph-name="IJ" unicode="&#x132;" horiz-adv-x="604" 
d="M234 62c12 -3 24 -5 36 -5c83 0 135 43 160 142l127 513h66l-133 -531c-29 -123 -108 -185 -220 -185c-21 0 -37 3 -50 8zM215 712h65l-177 -712h-65z" />
    <glyph glyph-name="ij" unicode="&#x133;" horiz-adv-x="463" 
d="M115 -130c10 -3 20 -4 29 -4c53 0 84 28 103 103l134 539h62l-139 -555c-25 -100 -78 -142 -155 -142c-17 0 -33 2 -47 6zM146 508h62l-126 -508h-62zM176 624l21 88h62l-21 -88h-62zM473 624h-62l21 88h62z" />
    <glyph glyph-name="Jcircumflex" unicode="&#x134;" horiz-adv-x="337" 
d="M3 -4c-21 0 -37 3 -50 8l14 58c12 -3 24 -5 36 -5c83 0 135 43 160 142l127 513h66l-133 -531c-29 -123 -108 -185 -220 -185zM186 760l148 135h71l80 -135h-61l-57 95l-105 -95h-76z" />
    <glyph glyph-name="jcircumflex" unicode="&#x135;" horiz-adv-x="235" 
d="M-20 -111c17 16 30 43 39 80l134 539h62l-139 -555c-25 -100 -78 -142 -155 -142c-17 0 -33 2 -47 6l13 53c10 -3 20 -4 29 -4c27 0 48 8 64 23zM198 712h74l63 -140h-61l-42 101l-92 -101h-75z" />
    <glyph glyph-name="Kcommaaccent" unicode="&#x136;" horiz-adv-x="607" 
d="M684 712l-417 -344l272 -368h-83l-261 361h-2l-90 -361h-65l177 712h65l-80 -321h2l385 321h97zM217 -149h-28l20 81h71l-19 -81l-76 -102h-28z" />
    <glyph glyph-name="kcommaaccent" unicode="&#x137;" horiz-adv-x="479" 
d="M520 508l-303 -233l206 -275h-78l-195 267h-2l-66 -267h-62l177 712h62l-103 -413h2l269 209h93zM167 -149h-28l20 81h71l-19 -81l-76 -102h-28z" />
    <glyph glyph-name="kgreenlandic" unicode="&#x138;" horiz-adv-x="496" 
d="M146 508h62l-52 -209h2l269 209h93l-303 -233l206 -275h-78l-195 267h-2l-66 -267h-62z" />
    <glyph glyph-name="Lacute" unicode="&#x139;" horiz-adv-x="553" 
d="M215 712h65l-163 -653h377l-14 -59h-442zM354 895h88l-145 -135h-63z" />
    <glyph glyph-name="lacute" unicode="&#x13a;" horiz-adv-x="228" 
d="M197 712h62l-177 -712h-62zM329 916h88l-146 -141h-63z" />
    <glyph glyph-name="Lcommaaccent" unicode="&#x13b;" horiz-adv-x="553" 
d="M215 712h65l-163 -653h377l-14 -59h-442zM214 -149h-28l20 81h71l-19 -81l-76 -102h-28z" />
    <glyph glyph-name="lcommaaccent" unicode="&#x13c;" horiz-adv-x="228" 
d="M20 0l177 712h62l-177 -712h-62zM11 -149h-28l20 81h71l-19 -81l-76 -102h-28z" />
    <glyph glyph-name="Lcaron" unicode="&#x13d;" horiz-adv-x="553" 
d="M215 712h65l-163 -653h377l-14 -59h-442zM379 712h64l-107 -215h-41z" />
    <glyph glyph-name="lcaron" unicode="&#x13e;" horiz-adv-x="228" 
d="M20 0l177 712h62l-177 -712h-62zM254 536l75 176h64l-98 -176h-41z" />
    <glyph glyph-name="Ldot" unicode="&#x13f;" horiz-adv-x="633" 
d="M215 712h65l-163 -653h377l-14 -59h-442zM456 449h85l-22 -91h-85z" />
    <glyph glyph-name="ldot" unicode="&#x140;" horiz-adv-x="357" 
d="M197 712h62l-177 -712h-62zM286 401h85l-22 -91h-85z" />
    <glyph glyph-name="Lslash" unicode="&#x141;" horiz-adv-x="553" 
d="M18 263l18 70l97 51l82 328h65l-74 -297l175 91l-18 -70l-175 -91l-71 -286h377l-14 -59h-442l78 314z" />
    <glyph glyph-name="lslash" unicode="&#x142;" horiz-adv-x="262" 
d="M40 373l103 54l71 285h62l-63 -254l103 53l-17 -67l-103 -54l-97 -390h-62l89 360l-103 -54z" />
    <glyph glyph-name="Nacute" unicode="&#x143;" horiz-adv-x="745" 
d="M758 712l-177 -712h-92l-110 316c-43 125 -81 235 -114 331h-2c-12 -49 -37 -148 -74 -296l-86 -351h-65l177 712h92l110 -316c43 -125 81 -235 114 -331h2c34 139 63 257 88 356l72 291h65zM441 760l120 135h88l-145 -135h-63z" />
    <glyph glyph-name="nacute" unicode="&#x144;" 
d="M496 297l-74 -297h-62l74 298c7 26 10 50 10 71c0 63 -35 96 -98 96c-42 0 -81 -14 -116 -43s-59 -70 -72 -121l-76 -301h-62l127 508h61l-15 -63h2c43 47 102 74 165 74c93 0 147 -51 147 -146c0 -21 -4 -47 -11 -76zM305 571l121 141h88l-146 -141h-63z" />
    <glyph glyph-name="Ncommaaccent" unicode="&#x145;" horiz-adv-x="745" 
d="M758 712l-177 -712h-92l-110 316c-43 125 -81 235 -114 331h-2c-12 -49 -37 -148 -74 -296l-86 -351h-65l177 712h92l110 -316c43 -125 81 -235 114 -331h2c34 139 63 257 88 356l72 291h65zM265 -149h-28l20 81h71l-19 -81l-76 -102h-28z" />
    <glyph glyph-name="ncommaaccent" unicode="&#x146;" 
d="M496 297l-74 -297h-62l74 298c7 26 10 50 10 71c0 63 -35 96 -98 96c-42 0 -81 -14 -116 -43s-59 -70 -72 -121l-76 -301h-62l127 508h61l-15 -63h2c43 47 102 74 165 74c93 0 147 -51 147 -146c0 -21 -4 -47 -11 -76zM176 -149h-28l20 81h71l-19 -81l-76 -102h-28z" />
    <glyph glyph-name="Ncaron" unicode="&#x147;" horiz-adv-x="745" 
d="M758 712l-177 -712h-92l-110 316c-43 125 -81 235 -114 331h-2c-12 -49 -37 -148 -74 -296l-86 -351h-65l177 712h92l110 -316c43 -125 81 -235 114 -331h2c34 139 63 257 88 356l72 291h65zM383 895h62l57 -95l104 95h76l-148 -135h-71z" />
    <glyph glyph-name="ncaron" unicode="&#x148;" 
d="M496 297l-74 -297h-62l74 298c7 26 10 50 10 71c0 63 -35 96 -98 96c-42 0 -81 -14 -116 -43s-59 -70 -72 -121l-76 -301h-62l127 508h61l-15 -63h2c43 47 102 74 165 74c93 0 147 -51 147 -146c0 -21 -4 -47 -11 -76zM312 712l56 -101l105 101h75l-149 -141h-71l-79 141
h63z" />
    <glyph glyph-name="napostrophe" unicode="&#x149;" horiz-adv-x="666" 
d="M599 297l-74 -297h-62l74 298c7 26 10 50 10 71c0 63 -35 96 -98 96c-42 0 -81 -14 -116 -43s-59 -70 -72 -121l-76 -301h-62l127 508h61l-15 -63h2c43 47 102 74 165 74c93 0 147 -51 147 -146c0 -21 -4 -47 -11 -76zM193 622h-29l22 90h84l-21 -90l-73 -128h-44z" />
    <glyph glyph-name="Eng" unicode="&#x14a;" horiz-adv-x="743" 
d="M756 712l-189 -760c-25 -100 -80 -141 -161 -141c-17 0 -31 2 -43 7l12 51c10 -2 20 -3 30 -3c51 0 83 29 100 98l9 37l-129 332c-29 75 -56 144 -80 208l-40 104h-2c-22 -89 -36 -147 -43 -173l-117 -472h-65l177 712h90l113 -294c53 -139 94 -243 121 -312h2
c37 153 66 269 86 346l65 260h64z" />
    <glyph glyph-name="eng" unicode="&#x14b;" 
d="M496 297l-86 -344c-27 -100 -79 -142 -156 -142c-17 0 -32 2 -46 6l12 53c10 -3 20 -4 30 -4c52 0 83 28 102 103l82 329c7 26 10 50 10 71c0 63 -35 96 -98 96c-42 0 -81 -14 -116 -43s-59 -70 -72 -121l-76 -301h-62l127 508h61l-15 -63h2c43 47 102 74 165 74
c93 0 147 -51 147 -146c0 -21 -4 -47 -11 -76z" />
    <glyph glyph-name="Omacron" unicode="&#x14c;" horiz-adv-x="724" 
d="M708 434c0 -69 -15 -139 -45 -208c-31 -69 -75 -126 -132 -171s-124 -68 -199 -68c-166 0 -265 118 -265 291c0 70 15 140 45 209s74 126 131 171s123 67 198 67c168 0 267 -118 267 -291zM133 278c0 -69 18 -125 53 -167s84 -63 147 -63c61 0 116 20 163 59
s83 88 108 148c25 59 38 119 38 178c0 70 -18 126 -53 168c-36 42 -86 63 -149 63c-61 0 -115 -20 -162 -59s-82 -89 -107 -149s-38 -119 -38 -178zM353 845h263l-12 -52h-263z" />
    <glyph glyph-name="omacron" unicode="&#x14d;" horiz-adv-x="552" 
d="M73 347c21 50 53 92 94 125s91 49 148 49c125 0 196 -77 196 -210c2 -146 -103 -329 -276 -324c-124 0 -194 77 -194 210c0 50 11 100 32 150zM105 195c0 -99 47 -154 135 -154c130 -4 209 154 208 272c0 99 -48 154 -137 154c-130 4 -207 -154 -206 -272zM480 624h-263
l12 52h263z" />
    <glyph glyph-name="Obreve" unicode="&#x14e;" horiz-adv-x="724" 
d="M112 487c30 69 74 126 131 171s123 67 198 67c168 0 267 -118 267 -291c0 -69 -15 -139 -45 -208c-31 -69 -75 -126 -132 -171s-124 -68 -199 -68c-166 0 -265 118 -265 291c0 70 15 140 45 209zM642 433c0 70 -18 126 -53 168c-36 42 -86 63 -149 63
c-61 0 -115 -20 -162 -59s-82 -89 -107 -149s-38 -119 -38 -178c0 -69 18 -125 53 -167s84 -63 147 -63c61 0 116 20 163 59s83 88 108 148c25 59 38 119 38 178zM350 870c0 11 1 19 2 25h47c-1 -3 -1 -9 -1 -16c0 -48 26 -74 73 -74c57 0 98 31 119 90h54
c-24 -88 -87 -139 -172 -139c-79 0 -122 41 -122 114z" />
    <glyph glyph-name="obreve" unicode="&#x14f;" horiz-adv-x="552" 
d="M479 161c-21 -50 -53 -91 -95 -124s-92 -50 -149 -50c-124 0 -194 77 -194 210c-2 146 102 328 274 324c125 0 196 -77 196 -210c0 -50 -11 -100 -32 -150zM140 81c23 -27 56 -40 100 -40c130 -4 209 154 208 272c0 99 -48 154 -137 154c-130 4 -207 -154 -206 -272
c0 -49 12 -87 35 -114zM222 688c0 10 1 18 2 24h47c-1 -3 -1 -9 -1 -16c0 -48 26 -73 73 -73c56 0 98 32 118 89h55c-24 -88 -88 -139 -173 -139c-79 0 -121 42 -121 115z" />
    <glyph glyph-name="Ohungarumlaut" unicode="&#x150;" horiz-adv-x="724" 
d="M708 434c0 -69 -15 -139 -45 -208c-31 -69 -75 -126 -132 -171s-124 -68 -199 -68c-166 0 -265 118 -265 291c0 70 15 140 45 209s74 126 131 171s123 67 198 67c168 0 267 -118 267 -291zM133 278c0 -69 18 -125 53 -167s84 -63 147 -63c61 0 116 20 163 59
s83 88 108 148c25 59 38 119 38 178c0 70 -18 126 -53 168c-36 42 -86 63 -149 63c-61 0 -115 -20 -162 -59s-82 -89 -107 -149s-38 -119 -38 -178zM484 753l142 142h84l-165 -142h-61zM481 895h84l-165 -142h-61z" />
    <glyph glyph-name="ohungarumlaut" unicode="&#x151;" horiz-adv-x="552" 
d="M41 197c-2 146 102 328 274 324c125 0 196 -77 196 -210c2 -146 -103 -329 -276 -324c-124 0 -194 77 -194 210zM105 195c0 -99 47 -154 135 -154c130 -4 209 154 208 272c0 99 -48 154 -137 154c-130 4 -207 -154 -206 -272zM355 712h84l-165 -141h-60zM584 712
l-165 -141h-60l141 141h84z" />
    <glyph glyph-name="OE" unicode="&#x152;" horiz-adv-x="989" 
d="M1021 653h-377l-64 -258h359l-15 -59h-359l-69 -277h389l-14 -59h-502c-196 0 -299 106 -299 303c0 65 15 130 46 193s78 114 141 155s140 61 232 61h547zM198 123c39 -43 97 -64 173 -64h59l148 594h-90c-236 4 -351 -189 -349 -346c0 -81 20 -142 59 -184z" />
    <glyph glyph-name="oe" unicode="&#x153;" horiz-adv-x="882" 
d="M806 473c29 -32 43 -77 43 -135c0 -26 -5 -58 -15 -96h-362c-5 -21 -7 -42 -7 -62c0 -92 46 -140 122 -140c71 0 129 44 157 111h64c-18 -47 -47 -86 -86 -117s-86 -47 -139 -47c-87 0 -142 44 -161 124c-47 -76 -116 -124 -204 -124c-115 0 -177 74 -177 205
c-2 149 101 334 270 329c87 0 142 -47 161 -132c47 80 119 132 208 132c55 0 97 -16 126 -48zM104 191c0 -95 41 -150 120 -150c127 -5 204 157 202 276c0 96 -42 150 -119 150c-126 5 -204 -157 -203 -276zM675 468c-87 0 -162 -67 -191 -175h303c3 15 4 31 4 47
c0 83 -41 128 -116 128z" />
    <glyph glyph-name="Racute" unicode="&#x154;" horiz-adv-x="627" 
d="M599 457c-29 -59 -87 -104 -162 -119v-2c41 -16 60 -47 71 -132l26 -204h-65l-22 198c-9 88 -39 116 -119 116h-147l-78 -314h-65l177 712h199c140 0 207 -60 207 -169c0 -29 -7 -57 -22 -86zM354 373c138 -2 200 92 199 160c0 80 -48 120 -144 120h-144l-70 -280h159z
M359 760l120 135h88l-145 -135h-63z" />
    <glyph glyph-name="racute" unicode="&#x155;" horiz-adv-x="347" 
d="M82 0h-62l126 508h61l-18 -74h2c49 52 107 78 174 78c13 0 24 -1 34 -3l-15 -59c-11 1 -21 2 -32 2c-101 0 -175 -67 -203 -184zM348 712h88l-146 -141h-63z" />
    <glyph glyph-name="Rcommaaccent" unicode="&#x156;" horiz-adv-x="627" 
d="M599 457c-29 -59 -87 -104 -162 -119v-2c41 -16 60 -47 71 -132l26 -204h-65l-22 198c-9 88 -39 116 -119 116h-147l-78 -314h-65l177 712h199c140 0 207 -60 207 -169c0 -29 -7 -57 -22 -86zM195 373h159c138 -2 200 92 199 160c0 80 -48 120 -144 120h-144zM239 -149
h-28l20 81h71l-19 -81l-76 -102h-28z" />
    <glyph glyph-name="rcommaaccent" unicode="&#x157;" horiz-adv-x="347" 
d="M384 450c-11 1 -21 2 -32 2c-101 0 -175 -67 -203 -184l-67 -268h-62l126 508h61l-18 -74h2c49 52 107 78 174 78c13 0 24 -1 34 -3zM11 -149h-28l20 81h71l-19 -81l-76 -102h-28z" />
    <glyph glyph-name="Rcaron" unicode="&#x158;" horiz-adv-x="627" 
d="M599 457c-29 -59 -87 -104 -162 -119v-2c41 -16 60 -47 71 -132l26 -204h-65l-22 198c-9 88 -39 116 -119 116h-147l-78 -314h-65l177 712h199c140 0 207 -60 207 -169c0 -29 -7 -57 -22 -86zM354 373c138 -2 200 92 199 160c0 80 -48 120 -144 120h-144l-70 -280h159z
M363 895l57 -95l104 95h76l-148 -135h-71l-80 135h62z" />
    <glyph glyph-name="rcaron" unicode="&#x159;" horiz-adv-x="347" 
d="M20 0l126 508h61l-18 -74h2c49 52 107 78 174 78c13 0 24 -1 34 -3l-15 -59c-11 1 -21 2 -32 2c-101 0 -175 -67 -203 -184l-67 -268h-62zM470 712l-149 -141h-71l-79 141h63l56 -101l105 101h75z" />
    <glyph glyph-name="Sacute" unicode="&#x15a;" horiz-adv-x="599" 
d="M495 102c-41 -67 -125 -115 -241 -115c-143 0 -220 63 -220 186c0 21 2 43 7 64h65c-4 -22 -6 -42 -6 -59c0 -87 53 -131 158 -131c142 0 201 81 201 151c-4 76 -45 99 -150 137c-83 29 -129 52 -157 98c-15 23 -22 52 -22 88c-2 92 88 207 249 204
c145 0 217 -59 217 -177c0 -19 -2 -38 -7 -57h-66c5 18 7 35 7 50c0 83 -52 125 -156 125c-121 0 -178 -76 -178 -139c0 -35 11 -61 34 -79c22 -18 59 -36 111 -53c83 -28 130 -51 161 -98c15 -24 23 -55 23 -93c0 -35 -10 -69 -30 -102zM543 895l-145 -135h-63l120 135h88z
" />
    <glyph glyph-name="sacute" unicode="&#x15b;" horiz-adv-x="479" 
d="M357 446c-20 14 -48 21 -85 21c-75 0 -124 -32 -124 -91c5 -52 22 -59 105 -85c35 -11 62 -21 81 -30s36 -23 50 -41c13 -19 20 -43 20 -74c0 -82 -71 -159 -207 -159c-117 0 -182 50 -182 139c0 17 2 32 6 45h62c-3 -15 -5 -28 -5 -40c0 -59 43 -90 124 -90
c89 0 140 39 140 100c-4 56 -30 67 -124 97c-61 19 -91 31 -115 65c-12 17 -18 39 -18 68c0 77 72 150 193 150c111 0 170 -47 170 -131c0 -16 -2 -30 -5 -43h-61c3 15 4 27 4 36c0 27 -10 48 -29 63zM450 712l-146 -141h-63l121 141h88z" />
    <glyph glyph-name="Scircumflex" unicode="&#x15c;" horiz-adv-x="599" 
d="M502 297c15 -24 23 -55 23 -93c2 -102 -96 -220 -271 -217c-143 0 -220 63 -220 186c0 21 2 43 7 64h65c-4 -22 -6 -42 -6 -59c0 -87 53 -131 158 -131c142 0 201 81 201 151c-4 76 -45 99 -150 137c-83 29 -129 52 -157 98c-15 23 -22 52 -22 88c-2 92 88 207 249 204
c145 0 217 -59 217 -177c0 -19 -2 -38 -7 -57h-66c5 18 7 35 7 50c0 83 -52 125 -156 125c-121 0 -178 -76 -178 -139c0 -35 11 -61 34 -79c22 -18 59 -36 111 -53c83 -28 130 -51 161 -98zM542 760h-61l-57 95l-105 -95h-76l148 135h71z" />
    <glyph glyph-name="scircumflex" unicode="&#x15d;" horiz-adv-x="479" 
d="M329 185c-17 21 -47 33 -111 53c-61 19 -91 31 -115 65c-12 17 -18 39 -18 68c0 77 72 150 193 150c111 0 170 -47 170 -131c0 -16 -2 -30 -5 -43h-61c3 15 4 27 4 36c0 55 -41 84 -114 84c-75 0 -124 -32 -124 -91c5 -52 22 -59 105 -85c35 -11 62 -21 81 -30
s36 -23 50 -41c13 -19 20 -43 20 -74c0 -82 -71 -159 -207 -159c-117 0 -182 50 -182 139c0 17 2 32 6 45h62c-3 -15 -5 -28 -5 -40c0 -59 43 -90 124 -90c89 0 140 39 140 100c0 18 -4 33 -13 44zM448 571h-63l-56 101l-105 -101h-75l149 141h71z" />
    <glyph glyph-name="Scedilla" unicode="&#x15e;" horiz-adv-x="599" 
d="M286 -191c-23 -18 -52 -27 -87 -27c-37 0 -69 9 -96 27l19 32c23 -13 48 -20 75 -20c44 0 71 19 71 50c0 24 -16 37 -45 37c-11 0 -22 -2 -32 -5l-15 15l64 69c-133 4 -206 67 -206 186c0 21 2 43 7 64h65c-4 -22 -6 -42 -6 -59c0 -87 53 -131 158 -131
c142 0 201 81 201 151c-4 76 -45 99 -150 137c-83 29 -129 52 -157 98c-15 23 -22 52 -22 88c-2 92 88 207 249 204c145 0 217 -59 217 -177c0 -19 -2 -38 -7 -57h-66c5 18 7 35 7 50c0 83 -52 125 -156 125c-121 0 -178 -76 -178 -139c0 -35 11 -61 34 -79
c22 -18 59 -36 111 -53c83 -28 130 -51 161 -98c15 -24 23 -55 23 -93c2 -94 -84 -205 -237 -216l-47 -51c5 1 11 2 18 2c37 0 61 -25 61 -66c0 -25 -11 -46 -34 -64z" />
    <glyph glyph-name="scedilla" unicode="&#x15f;" horiz-adv-x="479" 
d="M306 68c24 18 36 42 36 73c-4 56 -30 67 -124 97c-61 19 -91 31 -115 65c-12 17 -18 39 -18 68c0 77 72 150 193 150c111 0 170 -47 170 -131c0 -16 -2 -30 -5 -43h-61c3 15 4 27 4 36c0 55 -41 84 -114 84c-75 0 -124 -32 -124 -91c5 -52 22 -59 105 -85
c35 -11 62 -21 81 -30s36 -23 50 -41c13 -19 20 -43 20 -74c0 -79 -62 -146 -175 -158l-47 -51c5 1 11 2 18 2c37 0 61 -25 61 -66c0 -25 -11 -46 -34 -64s-52 -27 -87 -27c-37 0 -69 9 -96 27l19 32c23 -13 48 -20 75 -20c44 0 71 19 71 50c0 24 -16 37 -45 37
c-11 0 -22 -2 -32 -5l-15 15l64 69c-107 5 -166 54 -166 139c0 17 2 32 6 45h62c-3 -15 -5 -28 -5 -40c0 -59 43 -90 124 -90c45 0 79 9 104 27z" />
    <glyph glyph-name="Scaron" unicode="&#x160;" horiz-adv-x="599" 
d="M459 198c-4 76 -45 99 -150 137c-83 29 -129 52 -157 98c-15 23 -22 52 -22 88c-2 92 88 207 249 204c145 0 217 -59 217 -177c0 -19 -2 -38 -7 -57h-66c5 18 7 35 7 50c0 83 -52 125 -156 125c-121 0 -178 -76 -178 -139c0 -35 11 -61 34 -79c22 -18 59 -36 111 -53
c83 -28 130 -51 161 -98c15 -24 23 -55 23 -93c2 -102 -96 -220 -271 -217c-143 0 -220 63 -220 186c0 21 2 43 7 64h65c-4 -22 -6 -42 -6 -59c0 -87 53 -131 158 -131c142 0 201 81 201 151zM576 895l-148 -135h-71l-80 135h62l57 -95l104 95h76z" />
    <glyph glyph-name="scaron" unicode="&#x161;" horiz-adv-x="479" 
d="M329 185c-17 21 -47 33 -111 53c-61 19 -91 31 -115 65c-12 17 -18 39 -18 68c0 77 72 150 193 150c111 0 170 -47 170 -131c0 -16 -2 -30 -5 -43h-61c3 15 4 27 4 36c0 55 -41 84 -114 84c-75 0 -124 -32 -124 -91c5 -52 22 -59 105 -85c35 -11 62 -21 81 -30
s36 -23 50 -41c13 -19 20 -43 20 -74c0 -82 -71 -159 -207 -159c-117 0 -182 50 -182 139c0 17 2 32 6 45h62c-3 -15 -5 -28 -5 -40c0 -59 43 -90 124 -90c89 0 140 39 140 100c0 18 -4 33 -13 44zM334 571h-71l-79 141h63l56 -101l105 101h75z" />
    <glyph glyph-name="Tcommaaccent" unicode="&#x162;" horiz-adv-x="289" 
d="M124 712h572l-16 -59h-253l-162 -653h-65l162 653h-253zM193 -149h-28l20 81h71l-19 -81l-76 -102h-28z" />
    <glyph glyph-name="tcommaaccent" unicode="&#x163;" horiz-adv-x="302" 
d="M318 456h-102l-79 -317c-4 -15 -6 -27 -6 -38c0 -35 18 -50 57 -50c12 0 24 1 36 4l-14 -54c-15 -3 -27 -4 -36 -4c-72 0 -105 29 -105 94c0 19 3 38 8 57l77 308h-92l13 52h92l29 118h62l-29 -118h102zM71 -149h-28l20 81h71l-19 -81l-76 -102h-28z" />
    <glyph glyph-name="Tcaron" unicode="&#x164;" horiz-adv-x="592" 
d="M109 653l15 59h572l-16 -59h-253l-162 -653h-65l162 653h-253zM300 895h62l57 -95l104 95h76l-148 -135h-71z" />
    <glyph glyph-name="tcaron" unicode="&#x165;" horiz-adv-x="302" 
d="M75 508h92l29 118h62l-29 -118h102l-13 -52h-102l-79 -317c-4 -15 -6 -27 -6 -38c0 -35 18 -50 57 -50c12 0 24 1 36 4l-14 -54c-15 -3 -27 -4 -36 -4c-72 0 -105 29 -105 94c0 19 3 38 8 57l77 308h-92zM412 712l-98 -176h-41l75 176h64z" />
    <glyph glyph-name="Tbar" unicode="&#x166;" horiz-adv-x="592" 
d="M696 712l-16 -59h-253l-60 -240h146l-14 -54h-145l-89 -359h-65l89 359h-144l13 54h144l60 240h-253l15 59h572z" />
    <glyph glyph-name="tbar" unicode="&#x167;" horiz-adv-x="298" 
d="M318 456h-102l-39 -157h99l-12 -48h-99l-28 -112c-4 -15 -6 -27 -6 -38c0 -35 18 -50 57 -50c12 0 24 1 36 4l-14 -54c-15 -3 -27 -4 -36 -4c-72 0 -105 29 -105 94c0 19 3 38 8 57l26 103h-89l12 48h89l39 157h-92l13 52h92l29 118h62l-29 -118h102z" />
    <glyph glyph-name="Utilde" unicode="&#x168;" horiz-adv-x="699" 
d="M90 193c0 28 5 61 14 100l105 419h65l-109 -435c-7 -29 -11 -56 -11 -81c0 -97 55 -148 155 -148c113 0 193 66 228 197l116 467h65l-121 -484c-40 -157 -143 -241 -294 -241c-137 0 -213 73 -213 206zM618 808c-20 -19 -43 -28 -68 -28c-28 0 -45 10 -77 30
c-28 17 -38 24 -57 24c-27 0 -48 -19 -59 -54h-50c19 67 61 105 112 105c29 0 50 -11 78 -30c24 -16 40 -23 57 -23c27 0 47 18 60 53h48c-10 -33 -25 -59 -44 -77z" />
    <glyph glyph-name="utilde" unicode="&#x169;" 
d="M67 211l74 297h62l-74 -298c-7 -26 -10 -50 -10 -71c0 -63 35 -96 98 -96c41 0 80 15 116 44s60 69 73 120l75 301h62l-127 -508h-61l16 63h-2c-43 -45 -104 -74 -165 -74c-95 0 -148 51 -148 146c0 21 4 47 11 76zM501 703h48c-20 -67 -61 -105 -112 -105
c-28 0 -46 10 -77 29c-24 16 -38 24 -57 24c-27 0 -47 -18 -58 -53h-50c19 67 60 105 112 105c28 0 48 -10 77 -30c24 -16 37 -24 56 -24c28 0 48 18 61 54z" />
    <glyph glyph-name="Umacron" unicode="&#x16a;" horiz-adv-x="699" 
d="M718 712l-121 -484c-40 -157 -143 -241 -294 -241c-137 0 -213 73 -213 206c0 28 5 61 14 100l105 419h65l-109 -435c-7 -29 -11 -56 -11 -81c0 -97 55 -148 155 -148c113 0 193 66 228 197l116 467h65zM355 845h263l-12 -52h-263z" />
    <glyph glyph-name="umacron" unicode="&#x16b;" 
d="M67 211l74 297h62l-74 -298c-7 -26 -10 -50 -10 -71c0 -63 35 -96 98 -96c41 0 80 15 116 44s60 69 73 120l75 301h62l-127 -508h-61l16 63h-2c-43 -45 -104 -74 -165 -74c-95 0 -148 51 -148 146c0 21 4 47 11 76zM496 624h-263l12 52h263z" />
    <glyph glyph-name="Ubreve" unicode="&#x16c;" horiz-adv-x="699" 
d="M718 712l-121 -484c-40 -157 -143 -241 -294 -241c-137 0 -213 73 -213 206c0 28 5 61 14 100l105 419h65l-109 -435c-7 -29 -11 -56 -11 -81c0 -97 55 -148 155 -148c113 0 193 66 228 197l116 467h65zM352 870c0 11 1 19 2 25h47c-1 -3 -1 -9 -1 -16
c0 -48 26 -74 73 -74c57 0 98 31 119 90h54c-24 -88 -87 -139 -172 -139c-79 0 -122 41 -122 114z" />
    <glyph glyph-name="ubreve" unicode="&#x16d;" 
d="M543 508l-127 -508h-61l16 63h-2c-43 -45 -104 -74 -165 -74c-95 0 -148 51 -148 146c0 21 4 47 11 76l74 297h62l-74 -298c-7 -26 -10 -50 -10 -71c0 -63 35 -96 98 -96c41 0 80 15 116 44s60 69 73 120l75 301h62zM238 688c0 10 1 18 2 24h47c-1 -3 -1 -9 -1 -16
c0 -48 26 -73 73 -73c56 0 98 32 118 89h55c-24 -88 -88 -139 -173 -139c-79 0 -121 42 -121 115z" />
    <glyph glyph-name="Uring" unicode="&#x16e;" horiz-adv-x="699" 
d="M718 712l-121 -484c-40 -157 -143 -241 -294 -241c-137 0 -213 73 -213 206c0 28 5 61 14 100l105 419h65l-109 -435c-7 -29 -11 -56 -11 -81c0 -97 55 -148 155 -148c113 0 193 66 228 197l116 467h65zM381 850c0 27 10 49 29 68s41 28 68 28s50 -9 69 -28
s28 -41 28 -68s-9 -49 -28 -68s-42 -29 -69 -29s-49 10 -68 29s-29 41 -29 68zM418 850c0 -33 27 -60 60 -60s59 25 59 60c0 32 -26 59 -59 59s-60 -27 -60 -59z" />
    <glyph glyph-name="uring" unicode="&#x16f;" 
d="M416 0h-61l16 63h-2c-43 -45 -104 -74 -165 -74c-95 0 -148 51 -148 146c0 21 4 47 11 76l74 297h62l-74 -298c-7 -26 -10 -50 -10 -71c0 -63 35 -96 98 -96c41 0 80 15 116 44s60 69 73 120l75 301h62zM268 667c0 27 10 50 29 69s41 28 68 28s49 -9 68 -28
s28 -42 28 -69s-9 -49 -28 -68s-41 -29 -68 -29s-49 10 -68 29s-29 41 -29 68zM305 667c0 -33 27 -60 60 -60s59 27 59 60s-26 59 -59 59s-60 -26 -60 -59z" />
    <glyph glyph-name="Uhungarumlaut" unicode="&#x170;" horiz-adv-x="699" 
d="M718 712l-121 -484c-40 -157 -143 -241 -294 -241c-137 0 -213 73 -213 206c0 28 5 61 14 100l105 419h65l-109 -435c-7 -29 -11 -56 -11 -81c0 -97 55 -148 155 -148c113 0 193 66 228 197l116 467h65zM486 753l142 142h84l-165 -142h-61zM341 753l142 142h84l-165 -142
h-61z" />
    <glyph glyph-name="uhungarumlaut" unicode="&#x171;" 
d="M67 211l74 297h62l-74 -298c-7 -26 -10 -50 -10 -71c0 -63 35 -96 98 -96c41 0 80 15 116 44s60 69 73 120l75 301h62l-127 -508h-61l16 63h-2c-43 -45 -104 -74 -165 -74c-95 0 -148 51 -148 146c0 21 4 47 11 76zM371 712h84l-165 -141h-60zM600 712l-165 -141h-60
l141 141h84z" />
    <glyph glyph-name="Uogonek" unicode="&#x172;" horiz-adv-x="699" 
d="M718 712l-119 -476c-24 -94 -68 -162 -131 -204c-57 -37 -96 -67 -117 -89s-31 -42 -31 -60c0 -20 11 -30 34 -30c14 0 28 2 41 7l-11 -46c-12 -4 -27 -6 -44 -6c-53 0 -80 24 -80 68c0 39 26 73 85 112v2c-13 -2 -27 -3 -42 -3c-140 0 -213 70 -213 206
c0 28 5 61 14 100l105 419h65l-109 -435c-7 -29 -11 -56 -11 -81c0 -97 55 -148 155 -148c115 0 196 69 229 205l115 459h65z" />
    <glyph glyph-name="uogonek" unicode="&#x173;" 
d="M543 508l-127 -508c-81 -49 -108 -86 -108 -117c0 -20 12 -30 35 -30c14 0 28 2 41 7l-12 -46c-11 -4 -26 -6 -43 -6c-53 0 -81 24 -81 68c0 43 32 80 107 125l16 62h-2c-43 -45 -104 -74 -165 -74c-95 0 -148 51 -148 146c0 21 4 47 11 76l74 297h62l-74 -298
c-7 -26 -10 -50 -10 -71c0 -63 35 -96 98 -96c41 0 80 15 116 44s60 69 73 120l75 301h62z" />
    <glyph glyph-name="Wcircumflex" unicode="&#x174;" horiz-adv-x="896" 
d="M999 712l-351 -712h-102v325c0 73 1 182 2 327h-2c-7 -13 -37 -74 -90 -181l-232 -471h-102l3 712h63l-1 -303c0 -77 -1 -193 -2 -348h2l172 350l150 301h99l-1 -301v-350h2l321 651h69zM569 895h71l80 -135h-61l-57 95l-105 -95h-76z" />
    <glyph glyph-name="wcircumflex" unicode="&#x175;" horiz-adv-x="750" 
d="M805 508l-273 -508h-89l-18 452h-2l-118 -222l-124 -230h-89l-21 508h60l16 -452h2l118 225l121 227h94l7 -227c4 -98 6 -173 7 -225h2l239 452h68zM301 571l149 141h71l79 -141h-63l-56 101l-105 -101h-75z" />
    <glyph glyph-name="Ycircumflex" unicode="&#x176;" horiz-adv-x="602" 
d="M711 712l-365 -408l-75 -304h-66l76 304l-162 408h69l59 -154c17 -42 41 -106 73 -191h2c75 85 131 149 169 191l134 154h86zM407 895h71l80 -135h-61l-57 95l-105 -95h-76z" />
    <glyph glyph-name="ycircumflex" unicode="&#x177;" horiz-adv-x="456" 
d="M524 508l-339 -532c-84 -132 -132 -165 -234 -165c-15 0 -29 2 -42 6l13 53c10 -3 22 -4 35 -4c78 3 100 22 174 134l-73 508h63l58 -429h2l272 429h71zM287 712h71l79 -141h-63l-56 101l-105 -101h-75z" />
    <glyph glyph-name="Ydieresis" unicode="&#x178;" horiz-adv-x="602" 
d="M711 712l-365 -408l-75 -304h-66l76 304l-162 408h69l59 -154c17 -42 41 -106 73 -191h2c75 85 131 149 169 191l134 154h86zM497 866h61l-22 -88h-61zM291 778l22 88h61l-22 -88h-61z" />
    <glyph glyph-name="Zacute" unicode="&#x179;" horiz-adv-x="558" 
d="M540 651v2h-415l15 59h495l-18 -72l-568 -579v-2h442l-14 -59h-523l18 72zM451 895h88l-145 -135h-63z" />
    <glyph glyph-name="zacute" unicode="&#x17a;" horiz-adv-x="461" 
d="M394 452v2h-309l14 54h391l-15 -61l-418 -391v-2h329l-13 -54h-411l15 61zM353 712h88l-146 -141h-63z" />
    <glyph glyph-name="Zdotaccent" unicode="&#x17b;" horiz-adv-x="558" 
d="M540 651v2h-415l15 59h495l-18 -72l-568 -579v-2h442l-14 -59h-523l18 72zM385 866h62l-22 -88h-62z" />
    <glyph glyph-name="zdotaccent" unicode="&#x17c;" horiz-adv-x="461" 
d="M394 452v2h-309l14 54h391l-15 -61l-418 -391v-2h329l-13 -54h-411l15 61zM293 712h62l-21 -88h-62z" />
    <glyph glyph-name="Zcaron" unicode="&#x17d;" horiz-adv-x="558" 
d="M617 640l-568 -579v-2h442l-14 -59h-523l18 72l568 579v2h-415l15 59h495zM274 895h62l57 -95l104 95h76l-148 -135h-71z" />
    <glyph glyph-name="zcaron" unicode="&#x17e;" horiz-adv-x="461" 
d="M475 447l-418 -391v-2h329l-13 -54h-411l15 61l417 391v2h-309l14 54h391zM175 712h63l56 -101l105 101h75l-149 -141h-71z" />
    <glyph glyph-name="longs" unicode="&#x17f;" horiz-adv-x="287" 
d="M43 0l114 456h-92l13 52h92l19 76c21 88 72 132 152 132c17 0 33 -2 46 -5l-13 -52c-9 3 -19 4 -30 4c-51 0 -82 -27 -98 -95l-141 -568h-62z" />
    <glyph glyph-name="uni018F" unicode="&#x18f;" horiz-adv-x="729" 
d="M671 237c-32 -72 -78 -132 -139 -179s-134 -71 -217 -71c-165 0 -260 96 -260 259c0 41 8 85 25 134h562c5 25 7 50 7 73c0 137 -76 212 -204 212c-58 0 -110 -15 -156 -45c-47 -31 -81 -71 -102 -120h-74c26 66 69 120 128 162s128 63 207 63c175 0 270 -101 270 -276
c0 -70 -16 -141 -47 -212zM173 98c35 -34 83 -51 145 -51c147 0 270 107 310 274h-497c-7 -26 -10 -52 -10 -78c0 -63 17 -111 52 -145z" />
    <glyph glyph-name="florin" unicode="&#x192;" horiz-adv-x="544" 
d="M622 656c-8 3 -20 4 -37 4c-60 0 -98 -30 -138 -110l-41 -82h108l-12 -50h-119l-217 -431c-66 -131 -118 -176 -212 -176c-17 0 -30 2 -40 6l14 55c7 -3 18 -4 31 -4c29 0 54 9 75 26s43 51 68 101l212 423h-98l11 50h111l45 90c29 59 60 100 91 124c31 23 70 35 117 35
c17 0 32 -2 45 -6z" />
    <glyph glyph-name="Aringacute" unicode="&#x1fa;" horiz-adv-x="664" 
d="M-57 0l459 712h89l104 -712h-66l-32 230h-333l-146 -230h-75zM489 290l-51 369h-2c-74 -118 -136 -216 -187 -295l-47 -74h287zM523 762c-19 -19 -42 -29 -69 -29s-49 10 -68 29s-29 41 -29 68s10 49 29 68s41 28 68 28s50 -9 69 -28s28 -41 28 -68s-9 -49 -28 -68z
M394 830c0 -33 27 -60 60 -60s59 25 59 60c0 32 -26 59 -59 59s-60 -27 -60 -59zM401 947l120 135h88l-145 -135h-63z" />
    <glyph glyph-name="aringacute" unicode="&#x1fb;" horiz-adv-x="524" 
d="M343 67c-45 -51 -105 -77 -179 -77c-97 0 -156 51 -156 128c0 94 73 152 220 174c55 8 112 14 172 18l3 12c5 19 7 35 7 49c0 65 -42 97 -113 97c-80 0 -133 -45 -148 -113h-65c11 49 36 89 75 120s86 46 142 46c105 0 167 -50 167 -150c0 -19 -3 -42 -9 -67l-44 -179
c-13 -51 -20 -93 -21 -125h-59c1 26 5 48 10 67h-2zM387 258c-52 -3 -103 -9 -153 -17c-61 -9 -102 -24 -125 -43s-34 -44 -34 -73c0 -52 38 -83 105 -83c93 0 167 62 195 166zM335 548c-27 0 -49 10 -68 29s-29 41 -29 68s10 50 29 69s41 28 68 28s49 -9 68 -28
s28 -42 28 -69s-9 -49 -28 -68s-41 -29 -68 -29zM335 704c-33 0 -60 -26 -60 -59s27 -60 60 -60s59 27 59 60s-26 59 -59 59zM353 768h-63l121 141h88z" />
    <glyph glyph-name="AEacute" unicode="&#x1fc;" horiz-adv-x="924" 
d="M956 653h-380l-24 -258h321l-15 -59h-313l-27 -277h302l-14 -59h-355l24 247h-281l-185 -247h-78l534 712h506zM239 306h242l34 347h-16zM690 895h88l-145 -135h-63z" />
    <glyph glyph-name="aeacute" unicode="&#x1fd;" horiz-adv-x="854" 
d="M541 494c32 18 68 27 107 27c111 0 172 -70 172 -187c0 -24 -5 -55 -14 -93h-367c-4 -21 -6 -40 -6 -58c0 -93 47 -143 124 -143c72 0 131 44 158 111h64c-18 -47 -47 -86 -86 -117s-86 -47 -140 -47c-89 0 -146 46 -165 130c-47 -81 -126 -130 -214 -130
c-104 0 -166 52 -166 131c0 84 62 175 249 175h139l6 25c4 17 6 32 6 47c0 69 -39 103 -111 103c-80 0 -132 -45 -148 -113h-65c11 49 36 89 75 120s86 46 142 46c83 0 139 -34 155 -103c24 32 52 57 85 76zM101 63c17 -16 41 -24 74 -24c97 0 177 67 202 179l6 23h-128
c-119 0 -180 -38 -181 -113c1 -28 10 -50 27 -65zM451 293h307c3 14 4 29 4 44c0 85 -42 131 -117 131c-89 0 -165 -67 -194 -175zM446 571l121 141h88l-146 -141h-63z" />
    <glyph glyph-name="Oslashacute" unicode="&#x1fe;" horiz-adv-x="724" 
d="M671 600c25 -45 38 -99 38 -162c0 -71 -15 -141 -46 -210c-31 -70 -75 -128 -133 -173s-125 -68 -202 -68c-82 0 -147 27 -194 80l-70 -70l-39 40l77 76c-24 45 -36 98 -36 161c0 71 15 141 46 211c30 69 74 127 132 172c57 45 124 68 201 68c81 0 149 -28 194 -79l70 69
l38 -40zM183 115c35 -45 85 -67 150 -67c61 0 116 20 163 59s83 88 108 148c25 59 38 119 38 178c0 45 -7 83 -21 116zM133 278c0 -42 7 -80 20 -114l438 434c-35 44 -86 66 -151 66c-61 0 -115 -20 -162 -59s-82 -89 -107 -149s-38 -119 -38 -178zM430 760l120 135h88
l-145 -135h-63z" />
    <glyph glyph-name="oslashacute" unicode="&#x1ff;" horiz-adv-x="553" 
d="M551 493l-64 -63c17 -31 25 -71 25 -119c2 -145 -105 -329 -281 -324c-59 0 -105 17 -138 52l-59 -58l-35 35l65 64c-15 33 -23 72 -23 117c-2 146 104 328 281 324c58 0 103 -17 136 -51l58 58zM235 41c134 -4 215 154 214 272c0 27 -3 50 -10 69l-303 -300
c22 -27 55 -41 99 -41zM112 128l303 299c-23 27 -55 40 -98 40c-134 4 -215 -154 -214 -272c0 -25 3 -48 9 -67zM419 712h88l-146 -141h-63z" />
    <glyph glyph-name="Scommaaccent" unicode="&#x218;" horiz-adv-x="599" 
d="M403 20c-41 -22 -91 -33 -149 -33c-143 0 -220 63 -220 186c0 21 2 43 7 64h65c-4 -22 -6 -42 -6 -59c0 -87 53 -131 158 -131c142 0 201 81 201 151c-4 76 -45 99 -150 137c-83 29 -129 52 -157 98c-15 23 -22 52 -22 88c-2 92 88 207 249 204c145 0 217 -59 217 -177
c0 -19 -2 -38 -7 -57h-66c5 18 7 35 7 50c0 83 -52 125 -156 125c-121 0 -178 -76 -178 -139c0 -35 11 -61 34 -79c22 -18 59 -36 111 -53c83 -28 130 -51 161 -98c15 -24 23 -55 23 -93c0 -69 -41 -141 -122 -184zM147 -251l60 102h-28l20 81h71l-19 -81l-76 -102h-28z" />
    <glyph glyph-name="scommaaccent" unicode="&#x219;" horiz-adv-x="479" 
d="M342 141c-4 56 -30 67 -124 97c-61 19 -91 31 -115 65c-12 17 -18 39 -18 68c0 77 72 150 193 150c111 0 170 -47 170 -131c0 -16 -2 -30 -5 -43h-61c3 15 4 27 4 36c0 55 -41 84 -114 84c-75 0 -124 -32 -124 -91c5 -52 22 -59 105 -85c35 -11 62 -21 81 -30
s36 -23 50 -41c13 -19 20 -43 20 -74c0 -82 -71 -159 -207 -159c-117 0 -182 50 -182 139c0 17 2 32 6 45h62c-3 -15 -5 -28 -5 -40c0 -59 43 -90 124 -90c89 0 140 39 140 100zM148 -149h-28l20 81h71l-19 -81l-76 -102h-28z" />
    <glyph glyph-name="uni021A" unicode="&#x21a;" horiz-adv-x="592" 
d="M124 712h572l-16 -59h-253l-162 -653h-65l162 653h-253zM193 -149h-28l20 81h71l-19 -81l-76 -102h-28z" />
    <glyph glyph-name="uni021B" unicode="&#x21b;" horiz-adv-x="302" 
d="M318 456h-102l-79 -317c-4 -15 -6 -27 -6 -38c0 -35 18 -50 57 -50c12 0 24 1 36 4l-14 -54c-15 -3 -27 -4 -36 -4c-72 0 -105 29 -105 94c0 19 3 38 8 57l77 308h-92l13 52h92l29 118h62l-29 -118h102zM11 -251l60 102h-28l20 81h71l-19 -81l-76 -102h-28z" />
    <glyph glyph-name="uni0237" unicode="&#x237;" horiz-adv-x="235" 
d="M-113 -130c10 -3 20 -4 29 -4c53 0 84 28 103 103l134 539h62l-139 -555c-25 -100 -78 -142 -155 -142c-17 0 -33 2 -47 6z" />
    <glyph glyph-name="uni0259" unicode="&#x259;" horiz-adv-x="539" 
d="M468 168c-23 -52 -56 -95 -99 -129c-43 -35 -95 -52 -154 -52c-117 0 -181 70 -181 187c0 32 6 65 19 100h382c3 15 5 32 5 51c0 93 -50 143 -133 143c-76 0 -137 -40 -166 -103h-65c19 45 49 82 90 112c41 29 89 44 144 44c124 0 191 -73 191 -200
c0 -51 -11 -102 -33 -153zM91 171c0 -84 47 -131 127 -131c96 0 177 68 206 183h-327c-4 -19 -6 -37 -6 -52z" />
    <glyph glyph-name="afii57929" unicode="&#x2bc;" horiz-adv-x="229" 
d="M194 622h-29l21 90h84l-21 -90l-73 -128h-44z" />
    <glyph glyph-name="circumflex" unicode="&#x2c6;" horiz-adv-x="399" 
d="M129 571l149 141h71l79 -141h-63l-56 101l-105 -101h-75z" />
    <glyph glyph-name="caron" unicode="&#x2c7;" horiz-adv-x="399" 
d="M227 712l56 -101l105 101h75l-149 -141h-71l-79 141h63z" />
    <glyph glyph-name="uni02C9" unicode="&#x2c9;" horiz-adv-x="363" 
d="M143 624l12 52h263l-12 -52h-263z" />
    <glyph glyph-name="breve" unicode="&#x2d8;" horiz-adv-x="392" 
d="M162 688c0 10 1 18 2 24h47c-1 -3 -1 -9 -1 -16c0 -48 26 -73 73 -73c56 0 98 32 118 89h55c-24 -88 -88 -139 -173 -139c-79 0 -121 42 -121 115z" />
    <glyph glyph-name="dotaccent" unicode="&#x2d9;" horiz-adv-x="162" 
d="M143 624l21 88h62l-21 -88h-62z" />
    <glyph glyph-name="ring" unicode="&#x2da;" horiz-adv-x="300" 
d="M185 599c-19 19 -29 41 -29 68s10 50 29 69s41 28 68 28s49 -9 68 -28s28 -42 28 -69s-9 -49 -28 -68s-41 -29 -68 -29s-49 10 -68 29zM193 667c0 -33 27 -60 60 -60s59 27 59 60s-26 59 -59 59s-60 -26 -60 -59z" />
    <glyph glyph-name="ogonek" unicode="&#x2db;" horiz-adv-x="242" 
d="M-42 -124c0 44 33 80 110 127l58 -3c-81 -49 -108 -86 -108 -117c0 -20 12 -30 35 -30c14 0 28 2 41 7l-12 -46c-11 -4 -26 -6 -43 -6c-53 0 -81 24 -81 68z" />
    <glyph glyph-name="tilde" unicode="&#x2dc;" horiz-adv-x="429" 
d="M249 703c28 0 48 -10 77 -30c24 -16 37 -24 56 -24c28 0 48 18 61 54h48c-20 -67 -61 -105 -112 -105c-28 0 -46 10 -77 29c-24 16 -38 24 -57 24c-27 0 -47 -18 -58 -53h-50c19 67 60 105 112 105z" />
    <glyph glyph-name="hungarumlaut" unicode="&#x2dd;" horiz-adv-x="435" 
d="M415 712h84l-165 -141h-60zM129 571l141 141h84l-165 -141h-60z" />
    <glyph glyph-name="uni0312" unicode="&#x312;" horiz-adv-x="0" 
d="M133 586l20 81l75 102h28l-59 -102h28l-21 -81h-71z" />
    <glyph glyph-name="uni0326" unicode="&#x326;" horiz-adv-x="0" 
d="M-15 -149h-28l20 81h71l-19 -81l-76 -102h-28z" />
    <glyph glyph-name="uni0333" unicode="&#x333;" horiz-adv-x="0" 
d="M-576 -50h500l-10 -38h-500zM-616 -210l10 38h500l-10 -38h-500z" />
    <glyph glyph-name="uni0374" unicode="&#x374;" horiz-adv-x="162" 
d="M182 712h64l-111 -204h-42z" />
    <glyph glyph-name="uni0375" unicode="&#x375;" horiz-adv-x="162" 
d="M32 112h64l-111 -204h-42z" />
    <glyph glyph-name="uni037E" unicode="&#x37e;" horiz-adv-x="210" 
d="M-34 -130l63 130h-30l23 92h85l-22 -92l-74 -130h-45zM126 508h85l-22 -92h-86z" />
    <glyph glyph-name="tonos" unicode="&#x384;" horiz-adv-x="209" 
d="M213 732h65l-97 -157h-51z" />
    <glyph glyph-name="dieresistonos" unicode="&#x385;" horiz-adv-x="417" 
d="M243 575l74 141h58l-83 -141h-49zM390 589l23 92h60l-22 -92h-61zM134 589l22 92h61l-23 -92h-60z" />
    <glyph glyph-name="Alphatonos" unicode="&#x386;" horiz-adv-x="664" 
d="M529 0l-32 230h-333l-146 -230h-75l459 712h89l104 -712h-66zM202 290h287l-51 369h-2c-74 -118 -136 -216 -187 -295zM224 712h65l-107 -197h-51z" />
    <glyph glyph-name="anoteleia" unicode="&#x387;" horiz-adv-x="210" 
d="M103 417l22 91h85l-22 -91h-85z" />
    <glyph glyph-name="Epsilontonos" unicode="&#x388;" horiz-adv-x="610" 
d="M38 0l177 712h443l-15 -59h-378l-63 -258h358l-15 -59h-359l-69 -277h390l-14 -59h-455zM39 515h-51l93 197h65z" />
    <glyph glyph-name="Etatonos" unicode="&#x389;" horiz-adv-x="731" 
d="M38 0l177 712h65l-77 -313h399l77 313h65l-177 -712h-65l85 340h-400l-84 -340h-65zM39 515h-51l93 197h65z" />
    <glyph glyph-name="Iotatonos" unicode="&#x38a;" horiz-adv-x="267" 
d="M215 712h65l-177 -712h-65zM-12 515l93 197h65l-107 -197h-51z" />
    <glyph glyph-name="Omicrontonos" unicode="&#x38c;" horiz-adv-x="724" 
d="M708 434c0 -69 -15 -139 -45 -208c-31 -69 -75 -126 -132 -171s-124 -68 -199 -68c-166 0 -265 118 -265 291c0 70 15 140 45 209s74 126 131 171s123 67 198 67c168 0 267 -118 267 -291zM133 278c0 -69 18 -125 53 -167s84 -63 147 -63c61 0 116 20 163 59
s83 88 108 148c25 59 38 119 38 178c0 70 -18 126 -53 168c-36 42 -86 63 -149 63c-61 0 -115 -20 -162 -59s-82 -89 -107 -149s-38 -119 -38 -178zM19 515l93 197h65l-107 -197h-51z" />
    <glyph glyph-name="Upsilontonos" unicode="&#x38e;" horiz-adv-x="602" 
d="M119 712h69l59 -154c17 -42 41 -106 73 -191h2c75 85 131 149 169 191l134 154h86l-365 -408l-75 -304h-66l76 304zM-20 515h-51l93 197h65z" />
    <glyph glyph-name="Omegatonos" unicode="&#x38f;" horiz-adv-x="726" 
d="M651 267c-43 -68 -107 -137 -192 -206v-2h177l-14 -59h-257l15 61c181 147 265 270 265 411c0 127 -74 192 -198 192c-191 4 -302 -179 -300 -331c0 -97 32 -173 95 -272l-15 -61h-249l14 59h183v2c-60 97 -93 178 -93 278c-2 180 132 391 371 386
c164 0 262 -82 262 -243c0 -75 -21 -147 -64 -215zM16 515l93 197h65l-107 -197h-51z" />
    <glyph glyph-name="iotadieresistonos" unicode="&#x390;" horiz-adv-x="259" 
d="M44 90c0 19 4 42 11 70l86 348h62l-86 -348c-7 -25 -10 -45 -10 -58c0 -37 18 -52 59 -52c12 0 23 2 33 5l-13 -55c-13 -3 -25 -4 -34 -4c-75 0 -108 27 -108 94zM144 575l74 141h58l-83 -141h-49zM35 589l22 92h61l-23 -92h-60zM352 589h-61l23 92h60z" />
    <glyph glyph-name="Alpha" unicode="&#x391;" horiz-adv-x="664" 
d="M402 712h89l104 -712h-66l-32 230h-333l-146 -230h-75zM202 290h287l-51 369h-2c-74 -118 -136 -216 -187 -295z" />
    <glyph glyph-name="Beta" unicode="&#x392;" horiz-adv-x="615" 
d="M581 440c-28 -37 -68 -64 -120 -80v-2c59 -17 92 -69 92 -141c2 -99 -92 -220 -259 -217h-256l177 712h203c136 0 204 -58 204 -155c0 -41 -14 -80 -41 -117zM117 57h175c136 0 194 85 194 162c0 73 -47 116 -148 116h-152zM345 392c154 0 211 84 211 159
c0 69 -50 104 -150 104h-140l-66 -263h145z" />
    <glyph glyph-name="Gamma" unicode="&#x393;" horiz-adv-x="478" 
d="M38 0l177 712h367l-15 -59h-302l-162 -653h-65z" />
    <glyph glyph-name="Delta" unicode="&#x394;" horiz-adv-x="664" 
d="M-57 0l459 712h89l104 -712h-652zM56 59h465l-41 305l-41 295h-2c-74 -118 -136 -216 -187 -295z" />
    <glyph glyph-name="Epsilon" unicode="&#x395;" horiz-adv-x="610" 
d="M38 0l177 712h443l-15 -59h-378l-63 -258h358l-15 -59h-359l-69 -277h390l-14 -59h-455z" />
    <glyph glyph-name="Zeta" unicode="&#x396;" horiz-adv-x="558" 
d="M-46 0l18 72l568 579v2h-415l15 59h495l-18 -72l-568 -579v-2h442l-14 -59h-523z" />
    <glyph glyph-name="Eta" unicode="&#x397;" horiz-adv-x="731" 
d="M38 0l177 712h65l-77 -313h399l77 313h65l-177 -712h-65l85 340h-400l-84 -340h-65z" />
    <glyph glyph-name="Theta" unicode="&#x398;" horiz-adv-x="724" 
d="M709 439c0 -71 -15 -141 -46 -210c-31 -70 -75 -128 -133 -173c-58 -46 -125 -69 -202 -69c-165 0 -262 116 -262 286c0 71 15 141 46 211c30 70 74 128 132 173c57 45 125 68 202 68c165 0 263 -116 263 -286zM186 111c35 -42 84 -63 147 -63c61 0 116 20 163 59
s83 88 108 148c25 59 38 119 38 178c0 70 -18 126 -53 168c-36 42 -86 63 -149 63c-62 0 -116 -20 -163 -59s-82 -89 -107 -149s-37 -119 -37 -178c0 -70 18 -126 53 -167zM246 389h297l-16 -64h-297z" />
    <glyph glyph-name="Iota" unicode="&#x399;" horiz-adv-x="267" 
d="M215 712h65l-177 -712h-65z" />
    <glyph glyph-name="Kappa" unicode="&#x39a;" horiz-adv-x="607" 
d="M215 712h65l-80 -321h2l385 321h97l-417 -344l272 -368h-83l-261 361h-2l-90 -361h-65z" />
    <glyph glyph-name="Lambda" unicode="&#x39b;" horiz-adv-x="647" 
d="M-57 0l449 712h92l95 -712h-69l-45 363c-14 115 -26 213 -36 293h-2l-72 -116c-70 -113 -107 -172 -110 -177l-225 -363h-77z" />
    <glyph glyph-name="Mu" unicode="&#x39c;" horiz-adv-x="909" 
d="M838 641l-51 -80c-70 -110 -112 -176 -127 -198l-231 -363h-76l-51 363l-18 134c-9 64 -16 112 -20 144h-2l-159 -641h-65l177 712h100l80 -585l7 -57h2l407 642h111l-177 -712h-65l160 641h-2z" />
    <glyph glyph-name="Nu" unicode="&#x39d;" horiz-adv-x="745" 
d="M189 351l-86 -351h-65l177 712h92l110 -316c43 -125 81 -235 114 -331h2c34 139 63 257 88 356l72 291h65l-177 -712h-92l-110 316c-43 125 -81 235 -114 331h-2c-12 -49 -37 -148 -74 -296z" />
    <glyph glyph-name="Xi" unicode="&#x39e;" horiz-adv-x="654" 
d="M13 65h535l-16 -65h-536zM187 712h508l-16 -65h-508zM124 389h474l-17 -65h-473z" />
    <glyph glyph-name="Omicron" unicode="&#x39f;" horiz-adv-x="724" 
d="M708 434c0 -69 -15 -139 -45 -208c-31 -69 -75 -126 -132 -171s-124 -68 -199 -68c-166 0 -265 118 -265 291c0 70 15 140 45 209s74 126 131 171s123 67 198 67c168 0 267 -118 267 -291zM133 278c0 -69 18 -125 53 -167s84 -63 147 -63c61 0 116 20 163 59
s83 88 108 148c25 59 38 119 38 178c0 70 -18 126 -53 168c-36 42 -86 63 -149 63c-61 0 -115 -20 -162 -59s-82 -89 -107 -149s-38 -119 -38 -178z" />
    <glyph glyph-name="Pi" unicode="&#x3a0;" horiz-adv-x="721" 
d="M215 712h519l-177 -712h-65l162 653h-389l-162 -653h-65z" />
    <glyph glyph-name="Rho" unicode="&#x3a1;" horiz-adv-x="606" 
d="M609 418c-39 -71 -120 -121 -236 -121h-197l-73 -297h-65l177 712h201c145 0 222 -70 222 -186c0 -37 -10 -73 -29 -108zM191 356h184c135 0 197 89 197 167c0 84 -53 130 -160 130h-147z" />
    <glyph glyph-name="Sigma" unicode="&#x3a3;" horiz-adv-x="548" 
d="M-28 64l298 302l-139 291l14 55h486l-15 -59h-410v-1l142 -298l-288 -293v-2h422l-14 -59h-511z" />
    <glyph glyph-name="Tau" unicode="&#x3a4;" horiz-adv-x="592" 
d="M109 653l15 59h572l-16 -59h-253l-162 -653h-65l162 653h-253z" />
    <glyph glyph-name="Upsilon" unicode="&#x3a5;" horiz-adv-x="602" 
d="M188 712l59 -154c17 -42 41 -106 73 -191h2c75 85 131 149 169 191l134 154h86l-365 -408l-75 -304h-66l76 304l-162 408h69z" />
    <glyph glyph-name="Phi" unicode="&#x3a6;" horiz-adv-x="772" 
d="M711 232c-27 -53 -68 -96 -123 -129c-55 -34 -122 -51 -200 -51h-20l-19 -76h-65l20 82c-147 24 -230 121 -230 269c-2 156 125 344 364 339h18l18 70h65l-19 -76c148 -24 231 -119 231 -266c0 -56 -13 -110 -40 -162zM383 112h11c191 -4 289 151 288 276
c0 115 -64 191 -177 212zM143 330c0 -116 63 -191 176 -212l122 488h-9c-189 3 -291 -152 -289 -276z" />
    <glyph glyph-name="Chi" unicode="&#x3a7;" horiz-adv-x="617" 
d="M295 371l-157 341h71l134 -295h2l274 295h88l-329 -349l166 -363h-71l-142 316h-2l-294 -316h-88z" />
    <glyph glyph-name="Psi" unicode="&#x3a8;" horiz-adv-x="752" 
d="M754 463c-25 -97 -65 -166 -122 -209s-135 -65 -236 -66h-4l-47 -188h-65l47 191c-155 15 -228 81 -228 218c0 31 6 69 17 113l47 190h66l-50 -201c-10 -39 -15 -73 -15 -101c0 -101 55 -147 179 -156l114 458h65l-114 -460c165 4 243 65 285 226l58 234h65z" />
    <glyph glyph-name="Omega" unicode="&#x3a9;" horiz-adv-x="726" 
d="M651 267c-43 -68 -107 -137 -192 -206v-2h177l-14 -59h-257l15 61c181 147 265 270 265 411c0 127 -74 192 -198 192c-191 4 -302 -179 -300 -331c0 -97 32 -173 95 -272l-15 -61h-249l14 59h183v2c-60 97 -93 178 -93 278c-2 180 132 391 371 386
c164 0 262 -82 262 -243c0 -75 -21 -147 -64 -215z" />
    <glyph glyph-name="Iotadieresis" unicode="&#x3aa;" horiz-adv-x="267" 
d="M38 0l177 712h65l-177 -712h-65zM338 828l21 88h61l-21 -88h-61zM175 916h61l-22 -88h-60z" />
    <glyph glyph-name="Upsilondieresis" unicode="&#x3ab;" horiz-adv-x="602" 
d="M711 712l-365 -408l-75 -304h-66l76 304l-162 408h69l59 -154c17 -42 41 -106 73 -191h2c75 85 131 149 169 191l134 154h86zM497 866h61l-22 -88h-61zM291 778l22 88h61l-22 -88h-61z" />
    <glyph glyph-name="alphatonos" unicode="&#x3ac;" horiz-adv-x="574" 
d="M461 405c11 42 22 76 33 103h62c-20 -51 -39 -111 -56 -180l-48 -197c-5 -19 -8 -36 -8 -51c0 -24 10 -33 35 -33c9 0 17 1 25 4l-13 -51c-13 -3 -27 -5 -40 -5c-51 0 -73 23 -73 71h-2c-43 -48 -101 -77 -164 -77c-111 0 -174 72 -174 195c-2 148 104 342 270 337
c80 0 136 -47 151 -116h2zM105 193c0 -96 42 -152 118 -152c130 -4 208 153 207 276c0 96 -43 152 -119 152c-129 5 -208 -155 -206 -276zM402 732h65l-97 -157h-51z" />
    <glyph glyph-name="epsilontonos" unicode="&#x3ad;" horiz-adv-x="480" 
d="M54 210c23 27 56 46 100 57v2c-40 21 -60 53 -60 94c0 72 67 158 203 158c101 0 161 -50 161 -138c0 -6 -1 -15 -2 -27h-65c1 12 2 20 2 24c0 57 -35 85 -104 85c-87 0 -131 -52 -131 -99c0 -51 45 -83 117 -83h45l-13 -52h-61c-107 0 -160 -48 -160 -105
c0 -52 42 -83 115 -83c79 0 127 34 146 103h66c-24 -100 -105 -159 -220 -159c-111 0 -173 48 -173 132c0 33 11 64 34 91zM442 732l-97 -157h-51l83 157h65z" />
    <glyph glyph-name="etatonos" unicode="&#x3ae;" horiz-adv-x="572" 
d="M505 297l-120 -482h-62l120 483c7 26 10 50 10 71c0 63 -35 96 -98 96c-41 0 -80 -14 -116 -43s-60 -70 -73 -121l-75 -301h-62l92 370c5 23 8 40 8 52c0 27 -11 37 -34 37c-9 0 -17 -1 -25 -4l13 53c9 3 20 5 33 5c45 0 70 -24 70 -71l-1 -13h2c48 57 112 90 181 90
c93 0 148 -51 148 -146c0 -21 -4 -47 -11 -76zM391 732h65l-97 -157h-51z" />
    <glyph glyph-name="iotatonos" unicode="&#x3af;" horiz-adv-x="259" 
d="M141 508h62l-86 -348c-7 -25 -10 -45 -10 -58c0 -37 18 -52 59 -52c12 0 23 2 33 5l-13 -55c-13 -3 -25 -4 -34 -4c-75 0 -108 27 -108 94c0 19 4 42 11 70zM245 732h65l-97 -157h-51z" />
    <glyph glyph-name="upsilondieresistonos" unicode="&#x3b0;" horiz-adv-x="564" 
d="M512 508c5 -29 7 -60 7 -95c0 -69 -9 -136 -26 -200c-17 -65 -47 -118 -88 -161s-96 -65 -163 -65c-115 0 -173 50 -173 151c0 19 4 42 11 69l41 165c5 23 8 40 8 51c0 27 -10 36 -34 36c-9 0 -17 -1 -25 -4l13 53c11 3 24 5 37 5c47 0 72 -24 72 -83
c0 -14 -3 -35 -10 -64l-43 -175c-5 -21 -8 -39 -8 -53c0 -68 40 -97 119 -97c52 0 94 20 125 60s53 88 66 145c12 57 18 113 18 169c0 32 -3 63 -9 93h62zM282 575l74 141h58l-83 -141h-49zM512 681l-22 -92h-61l23 92h60zM195 681h61l-23 -92h-60z" />
    <glyph glyph-name="alpha" unicode="&#x3b1;" horiz-adv-x="574" 
d="M556 508c-20 -51 -39 -111 -56 -180l-48 -197c-5 -19 -8 -36 -8 -51c0 -24 10 -33 35 -33c9 0 17 1 25 4l-13 -51c-13 -3 -27 -5 -40 -5c-51 0 -73 23 -73 71h-2c-43 -48 -101 -77 -164 -77c-111 0 -174 72 -174 195c-2 148 104 342 270 337c80 0 136 -47 151 -116h2
c11 42 22 76 33 103h62zM136 81c20 -27 49 -40 87 -40c130 -4 208 153 207 276c0 96 -43 152 -119 152c-129 5 -208 -155 -206 -276c0 -48 10 -85 31 -112z" />
    <glyph glyph-name="beta" unicode="&#x3b2;" horiz-adv-x="572" 
d="M515 222c2 -110 -88 -235 -249 -232c-87 0 -142 29 -163 86h-2l-65 -261h-62l166 668c41 161 127 242 259 242c107 0 164 -58 164 -155c0 -87 -56 -162 -160 -185v-2c67 -15 112 -70 112 -161zM163 76c23 -21 58 -31 105 -31c124 0 185 96 185 179c0 91 -57 132 -177 132
h-16l14 58h17c151 0 207 75 207 150c0 68 -36 106 -107 106c-100 0 -158 -60 -191 -193l-66 -268c-4 -17 -6 -32 -6 -46c0 -37 12 -66 35 -87z" />
    <glyph glyph-name="gamma" unicode="&#x3b3;" horiz-adv-x="505" 
d="M552 508c-33 -95 -75 -180 -125 -256s-117 -158 -201 -245c-7 -30 -16 -63 -27 -100c-11 -36 -22 -67 -31 -92h-62c25 71 44 132 56 186c12 53 18 110 18 172c0 75 -7 142 -21 200c-14 57 -39 86 -76 86c-8 0 -16 -1 -24 -3l13 52c12 3 24 5 35 5c89 0 127 -109 127 -317
c0 -39 -3 -77 -10 -116h2c65 73 117 143 158 209c40 65 74 138 102 219h66z" />
    <glyph glyph-name="delta" unicode="&#x3b4;" horiz-adv-x="553" 
d="M552 630c-60 25 -124 38 -193 38c-72 0 -96 -24 -96 -53c0 -15 8 -29 23 -42c15 -14 41 -35 80 -62c93 -64 139 -135 139 -235c2 -133 -105 -293 -275 -289c-123 0 -196 74 -196 197c0 121 85 254 254 304v2c-33 26 -55 47 -68 63s-20 35 -20 57c0 61 48 112 155 112
c79 0 149 -12 211 -37zM135 80c24 -26 58 -39 101 -39c131 -4 206 130 205 227c0 79 -33 137 -100 188c-162 -44 -242 -165 -242 -271c0 -45 12 -80 36 -105z" />
    <glyph glyph-name="epsilon" unicode="&#x3b5;" horiz-adv-x="480" 
d="M456 356h-65c1 12 2 20 2 24c0 57 -35 85 -104 85c-87 0 -131 -52 -131 -99c0 -51 45 -83 117 -83h45l-13 -52h-61c-107 0 -160 -48 -160 -105c0 -52 42 -83 115 -83c79 0 127 34 146 103h66c-24 -100 -105 -159 -220 -159c-111 0 -173 48 -173 132c0 67 46 125 134 148
v2c-40 21 -60 53 -60 94c0 72 67 158 203 158c101 0 161 -50 161 -138c0 -6 -1 -15 -2 -27z" />
    <glyph glyph-name="zeta" unicode="&#x3b6;" horiz-adv-x="439" 
d="M510 660c-264 -128 -411 -320 -408 -455c0 -76 38 -113 126 -130s124 -50 124 -107c0 -32 -16 -74 -41 -113h-61c24 35 38 72 38 96c0 33 -23 53 -86 65c-113 21 -167 76 -167 177c-2 139 139 337 377 465v2h-240l12 52h338z" />
    <glyph glyph-name="eta" unicode="&#x3b7;" horiz-adv-x="572" 
d="M505 297l-120 -482h-62l120 483c7 26 10 50 10 71c0 63 -35 96 -98 96c-41 0 -80 -14 -116 -43s-60 -70 -73 -121l-75 -301h-62l92 370c5 23 8 40 8 52c0 27 -11 37 -34 37c-9 0 -17 -1 -25 -4l13 53c9 3 20 5 33 5c45 0 70 -24 70 -71l-1 -13h2c48 57 112 90 181 90
c93 0 148 -51 148 -146c0 -21 -4 -47 -11 -76z" />
    <glyph glyph-name="theta" unicode="&#x3b8;" horiz-adv-x="579" 
d="M533 271c-26 -79 -64 -146 -114 -201s-109 -83 -177 -83c-121 0 -185 83 -185 234c0 67 13 141 39 220s64 147 114 202c49 55 108 82 175 82c123 0 187 -83 187 -234c0 -68 -13 -141 -39 -220zM141 382h359c7 43 11 80 11 113c0 113 -44 176 -128 176
c-58 0 -108 -28 -149 -84s-72 -124 -93 -205zM118 218c0 -115 44 -177 127 -177c58 0 108 28 149 84s73 124 94 205h-359c-7 -43 -11 -80 -11 -112z" />
    <glyph glyph-name="iota" unicode="&#x3b9;" horiz-adv-x="259" 
d="M55 160l86 348h62l-86 -348c-7 -25 -10 -45 -10 -58c0 -37 18 -52 59 -52c12 0 23 2 33 5l-13 -55c-13 -3 -25 -4 -34 -4c-75 0 -108 27 -108 94c0 19 4 42 11 70z" />
    <glyph glyph-name="kappa" unicode="&#x3ba;" horiz-adv-x="503" 
d="M542 454c-8 1 -16 2 -23 2c-27 0 -56 -9 -87 -27s-74 -52 -131 -103l-65 -56l206 -270h-76l-174 231l-67 -58l-43 -173h-62l127 508h62l-62 -246h2l148 131c53 47 96 78 128 95c31 16 64 24 97 24c12 0 23 -2 33 -5z" />
    <glyph glyph-name="lambda" unicode="&#x3bb;" horiz-adv-x="547" 
d="M474 -1c-7 -2 -15 -3 -25 -3c-59 0 -82 23 -96 125c-17 129 -31 232 -41 310h-2c-38 -55 -96 -136 -173 -244l-132 -187h-73l363 511c-14 117 -39 152 -103 152c-19 0 -35 -2 -48 -7l13 53c13 5 28 8 45 8c47 0 83 -16 108 -47s43 -87 53 -166l46 -358
c9 -76 26 -96 59 -96c6 0 12 1 19 2z" />
    <glyph glyph-name="mu" unicode="&#x3bc;" horiz-adv-x="568" 
d="M490 0c-10 -3 -23 -5 -38 -5c-45 0 -67 22 -67 67l1 15h-2c-39 -52 -100 -85 -167 -85c-63 0 -104 23 -121 70l-61 -247h-62l173 693h62l-74 -295c-7 -29 -11 -53 -11 -71c0 -68 37 -97 104 -97c40 0 77 15 112 44c34 29 57 70 70 121l73 298h62l-93 -375
c-5 -19 -8 -36 -8 -51c0 -24 10 -33 35 -33c9 0 17 1 25 4z" />
    <glyph glyph-name="nu" unicode="&#x3bd;" horiz-adv-x="495" 
d="M531 466c-9 -38 -24 -76 -43 -113c-19 -38 -48 -84 -87 -138s-94 -126 -165 -215h-74l-32 365c-5 72 -19 93 -52 93c-7 0 -13 -1 -18 -2l13 51c10 3 20 5 31 5c56 0 78 -32 85 -128l26 -319h2c85 105 145 186 180 243s58 111 71 160c3 13 5 26 6 40h62
c0 -13 -2 -27 -5 -42z" />
    <glyph glyph-name="xi" unicode="&#x3be;" horiz-adv-x="448" 
d="M331 353c-171 0 -234 -87 -234 -166c0 -67 39 -97 132 -112c92 -13 130 -49 130 -110c0 -31 -16 -74 -40 -110h-61c25 37 37 69 37 96c0 36 -22 55 -83 64c-124 19 -182 69 -182 164c0 85 59 181 193 207v2c-48 16 -77 52 -77 103c0 32 11 64 34 96c23 31 53 55 92 71v2
h-108l13 52h364l-13 -52h-67c-172 0 -253 -85 -253 -164c0 -60 56 -91 143 -91h74l-13 -52h-81z" />
    <glyph glyph-name="omicron" unicode="&#x3bf;" horiz-adv-x="552" 
d="M479 161c-21 -50 -53 -91 -95 -124s-92 -50 -149 -50c-124 0 -194 77 -194 210c-2 146 102 328 274 324c125 0 196 -77 196 -210c0 -50 -11 -100 -32 -150zM105 195c0 -99 47 -154 135 -154c130 -4 209 154 208 272c0 99 -48 154 -137 154c-130 4 -207 -154 -206 -272z
" />
    <glyph glyph-name="pi" unicode="&#x3c0;" horiz-adv-x="642" 
d="M673 456h-125l-75 -302c-5 -21 -8 -38 -8 -49c0 -41 21 -56 61 -56c11 0 19 1 26 3l-14 -53c-12 -3 -24 -4 -36 -4c-67 0 -101 27 -101 94c0 16 4 39 11 70l74 297h-252l-113 -456h-62l113 456h-109l13 52h610z" />
    <glyph glyph-name="rho" unicode="&#x3c1;" horiz-adv-x="565" 
d="M494 165c-21 -51 -51 -93 -92 -126s-89 -50 -144 -50c-78 0 -130 35 -156 105h-2l-69 -279h-62l117 471c17 67 47 123 90 168s98 67 163 67c120 0 186 -75 186 -206c0 -50 -10 -100 -31 -150zM136 194c0 -95 45 -151 126 -151c124 -4 202 156 200 273
c0 96 -45 151 -128 151c-124 4 -199 -157 -198 -273z" />
    <glyph glyph-name="sigma1" unicode="&#x3c2;" horiz-adv-x="497" 
d="M492 320h-63c1 11 2 19 2 26c0 76 -44 121 -127 121c-125 4 -197 -134 -196 -233c0 -87 35 -127 119 -143c87 -16 124 -55 124 -119c0 -37 -13 -76 -40 -117h-61c24 35 38 73 38 100c0 41 -20 63 -80 75c-112 21 -165 81 -165 193c-1 133 102 303 270 298
c120 0 182 -61 182 -165c0 -11 -1 -23 -3 -36z" />
    <glyph glyph-name="sigma" unicode="&#x3c3;" horiz-adv-x="580" 
d="M618 456h-175v-2c44 -35 66 -86 66 -153c2 -142 -100 -318 -273 -314c-125 0 -196 75 -196 207c-2 141 101 319 272 314h318zM104 192c0 -96 47 -151 136 -151c128 -4 208 148 207 263c0 96 -49 151 -138 151c-128 4 -206 -148 -205 -263z" />
    <glyph glyph-name="tau" unicode="&#x3c4;" horiz-adv-x="466" 
d="M516 508l-12 -52h-197l-75 -302c-5 -21 -8 -38 -8 -49c0 -41 21 -56 61 -56c11 0 19 1 26 3l-14 -53c-12 -3 -24 -4 -36 -4c-67 0 -101 27 -101 94c0 16 4 39 11 70l74 297h-182l13 52h440z" />
    <glyph glyph-name="upsilon" unicode="&#x3c5;" horiz-adv-x="564" 
d="M519 413c0 -69 -9 -136 -26 -200c-17 -65 -47 -118 -88 -161s-96 -65 -163 -65c-115 0 -173 50 -173 151c0 19 4 42 11 69l41 165c5 23 8 40 8 51c0 27 -10 36 -34 36c-9 0 -17 -1 -25 -4l13 53c11 3 24 5 37 5c47 0 72 -24 72 -83c0 -14 -3 -35 -10 -64l-43 -175
c-5 -21 -8 -39 -8 -53c0 -68 40 -97 119 -97c52 0 94 20 125 60s53 88 66 145c12 57 18 113 18 169c0 32 -3 63 -9 93h62c5 -29 7 -60 7 -95z" />
    <glyph glyph-name="phi" unicode="&#x3c6;" horiz-adv-x="735" 
d="M652 147c-26 -46 -65 -84 -117 -114c-52 -31 -115 -46 -189 -46h-14l-43 -172h-61l44 176c-145 19 -230 100 -230 228c-2 140 124 306 347 302h15l35 141h61l-36 -145c144 -19 227 -101 227 -228c0 -49 -13 -96 -39 -142zM153 100c31 -30 75 -49 132 -56l105 423h-5
c-188 2 -281 -135 -279 -249c0 -49 16 -89 47 -118zM349 41c187 -3 280 134 279 249c0 97 -63 159 -178 174l-105 -423h4z" />
    <glyph glyph-name="chi" unicode="&#x3c7;" horiz-adv-x="558" 
d="M604 508l-311 -354l36 -198c14 -79 36 -92 80 -92c14 0 28 2 41 5l-13 -54c-15 -3 -30 -5 -44 -5c-69 0 -101 25 -119 127l-30 169h-2l-256 -291h-80l318 356l-39 201c-14 76 -33 91 -83 91c-17 0 -31 -2 -43 -7l14 54c12 5 27 7 44 7c37 0 64 -9 82 -26
c18 -18 31 -51 40 -99l32 -173h2l251 289h80z" />
    <glyph glyph-name="psi" unicode="&#x3c8;" horiz-adv-x="741" 
d="M701 448c0 -134 -27 -243 -81 -328c-55 -85 -147 -129 -278 -130l-44 -175h-62l44 177c-141 11 -212 71 -212 192c0 21 4 47 11 76l62 248h62l-64 -259c-6 -24 -9 -44 -9 -61c0 -91 54 -135 163 -143l154 617h62l-154 -618c189 7 284 142 284 403c0 22 -1 42 -3 61h62
c2 -19 3 -39 3 -60z" />
    <glyph glyph-name="omega" unicode="&#x3c9;" horiz-adv-x="756" 
d="M701 363c0 -57 -7 -114 -22 -171s-40 -106 -74 -145c-35 -40 -79 -60 -132 -60c-79 0 -119 31 -130 91h-1c-31 -61 -82 -91 -154 -91c-95 0 -142 51 -142 154c0 51 13 111 38 180c25 68 58 130 99 187h71c-43 -57 -77 -119 -104 -187s-41 -127 -41 -176
c0 -69 31 -104 92 -104c62 0 103 42 124 126l53 212h62l-49 -196c-5 -19 -8 -38 -8 -57c0 -57 28 -85 85 -85c41 0 74 18 100 53c25 35 44 78 55 128s16 98 16 144c0 51 -7 98 -21 142h62c14 -45 21 -93 21 -145z" />
    <glyph glyph-name="iotadieresis" unicode="&#x3ca;" horiz-adv-x="259" 
d="M55 160l86 348h62l-86 -348c-7 -25 -10 -45 -10 -58c0 -37 18 -52 59 -52c12 0 23 2 33 5l-13 -55c-13 -3 -25 -4 -34 -4c-75 0 -108 27 -108 94c0 19 4 42 11 70zM324 624h-61l21 88h61zM100 712h61l-22 -88h-60z" />
    <glyph glyph-name="upsilondieresis" unicode="&#x3cb;" horiz-adv-x="564" 
d="M493 213c-17 -65 -47 -118 -88 -161s-96 -65 -163 -65c-115 0 -173 50 -173 151c0 19 4 42 11 69l41 165c5 23 8 40 8 51c0 27 -10 36 -34 36c-9 0 -17 -1 -25 -4l13 53c11 3 24 5 37 5c47 0 72 -24 72 -83c0 -14 -3 -35 -10 -64l-43 -175c-5 -21 -8 -39 -8 -53
c0 -68 40 -97 119 -97c52 0 94 20 125 60s53 88 66 145c12 57 18 113 18 169c0 32 -3 63 -9 93h62c5 -29 7 -60 7 -95c0 -69 -9 -136 -26 -200zM422 712h61l-21 -88h-61zM217 624l21 88h61l-22 -88h-60z" />
    <glyph glyph-name="omicrontonos" unicode="&#x3cc;" horiz-adv-x="552" 
d="M479 161c-21 -50 -53 -91 -95 -124s-92 -50 -149 -50c-124 0 -194 77 -194 210c-2 146 102 328 274 324c125 0 196 -77 196 -210c0 -50 -11 -100 -32 -150zM140 81c23 -27 56 -40 100 -40c130 -4 209 154 208 272c0 99 -48 154 -137 154c-130 4 -207 -154 -206 -272
c0 -49 12 -87 35 -114zM392 732h65l-97 -157h-51z" />
    <glyph glyph-name="upsilontonos" unicode="&#x3cd;" horiz-adv-x="564" 
d="M519 413c0 -69 -9 -136 -26 -200c-17 -65 -47 -118 -88 -161s-96 -65 -163 -65c-115 0 -173 50 -173 151c0 19 4 42 11 69l41 165c5 23 8 40 8 51c0 27 -10 36 -34 36c-9 0 -17 -1 -25 -4l13 53c11 3 24 5 37 5c47 0 72 -24 72 -83c0 -14 -3 -35 -10 -64l-43 -175
c-5 -21 -8 -39 -8 -53c0 -68 40 -97 119 -97c52 0 94 20 125 60s53 88 66 145c12 57 18 113 18 169c0 32 -3 63 -9 93h62c5 -29 7 -60 7 -95zM300 575l83 157h65l-97 -157h-51z" />
    <glyph glyph-name="omegatonos" unicode="&#x3ce;" horiz-adv-x="756" 
d="M701 363c0 -57 -7 -114 -22 -171s-40 -106 -74 -145c-35 -40 -79 -60 -132 -60c-79 0 -119 31 -130 91h-1c-31 -61 -82 -91 -154 -91c-95 0 -142 51 -142 154c0 51 13 111 38 180c25 68 58 130 99 187h71c-43 -57 -77 -119 -104 -187s-41 -127 -41 -176
c0 -69 31 -104 92 -104c62 0 103 42 124 126l53 212h62l-49 -196c-5 -19 -8 -38 -8 -57c0 -57 28 -85 85 -85c41 0 74 18 100 53c25 35 44 78 55 128s16 98 16 144c0 51 -7 98 -21 142h62c14 -45 21 -93 21 -145zM514 732h65l-97 -157h-51z" />
    <glyph glyph-name="uni0400" unicode="&#x400;" horiz-adv-x="610" 
d="M507 59l-14 -59h-455l177 712h443l-15 -59h-378l-63 -258h358l-15 -59h-359l-69 -277h390zM436 895l60 -135h-55l-85 135h80z" />
    <glyph glyph-name="afii10023" unicode="&#x401;" horiz-adv-x="610" 
d="M643 653h-378l-63 -258h358l-15 -59h-359l-69 -277h390l-14 -59h-455l177 712h443zM504 778l22 88h61l-22 -88h-61zM320 778l22 88h61l-22 -88h-61z" />
    <glyph glyph-name="afii10051" unicode="&#x402;" horiz-adv-x="760" 
d="M690 127c-44 -81 -131 -137 -250 -137c-39 0 -71 4 -97 13l14 58c24 -8 52 -12 85 -12c141 -3 216 108 215 196c0 95 -51 145 -151 145c-52 0 -103 -12 -152 -36l-89 -354h-65l162 653h-253l15 59h572l-16 -59h-253l-57 -234c48 20 96 30 144 30c135 0 208 -75 208 -198
c0 -43 -11 -84 -32 -124z" />
    <glyph glyph-name="afii10052" unicode="&#x403;" horiz-adv-x="478" 
d="M215 712h367l-15 -59h-302l-162 -653h-65zM463 895h88l-145 -135h-63z" />
    <glyph glyph-name="afii10053" unicode="&#x404;" horiz-adv-x="690" 
d="M682 459h-68c2 13 3 26 3 37c0 103 -69 168 -177 168c-155 2 -258 -133 -294 -278h359l-14 -59h-356c-2 -18 -3 -36 -3 -54c0 -137 70 -225 190 -225c55 0 104 16 148 49s77 76 98 130h68c-24 -73 -65 -131 -122 -174c-57 -44 -123 -66 -197 -66c-79 0 -141 25 -185 76
c-45 50 -67 118 -67 203c0 71 15 142 44 213s73 129 131 176s127 70 208 70c149 0 237 -92 237 -224c0 -14 -1 -28 -3 -42z" />
    <glyph glyph-name="afii10054" unicode="&#x405;" horiz-adv-x="599" 
d="M523 491c5 18 7 35 7 50c0 83 -52 125 -156 125c-121 0 -178 -76 -178 -139c0 -35 11 -61 34 -79c22 -18 59 -36 111 -53c83 -28 130 -51 161 -98c15 -24 23 -55 23 -93c2 -102 -96 -220 -271 -217c-143 0 -220 63 -220 186c0 21 2 43 7 64h65c-4 -22 -6 -42 -6 -59
c0 -87 53 -131 158 -131c142 0 201 81 201 151c-4 76 -45 99 -150 137c-83 29 -129 52 -157 98c-15 23 -22 52 -22 88c-2 92 88 207 249 204c145 0 217 -59 217 -177c0 -19 -2 -38 -7 -57h-66z" />
    <glyph glyph-name="afii10055" unicode="&#x406;" horiz-adv-x="267" 
d="M215 712h65l-177 -712h-65z" />
    <glyph glyph-name="afii10056" unicode="&#x407;" horiz-adv-x="267" 
d="M38 0l177 712h65l-177 -712h-65zM325 778l22 88h61l-22 -88h-61zM163 866h61l-22 -88h-61z" />
    <glyph glyph-name="afii10057" unicode="&#x408;" horiz-adv-x="337" 
d="M-33 62c12 -3 24 -5 36 -5c83 0 135 43 160 142l127 513h66l-133 -531c-29 -123 -108 -185 -220 -185c-21 0 -37 3 -50 8z" />
    <glyph glyph-name="afii10058" unicode="&#x409;" horiz-adv-x="1033" 
d="M962 121c-40 -71 -121 -121 -236 -121h-261l162 653h-286c-49 -185 -92 -324 -128 -417c-37 -93 -72 -157 -106 -190c-35 -33 -76 -50 -123 -50c-15 0 -26 2 -34 6l13 54c5 -1 11 -2 17 -2c37 0 70 16 97 49c27 32 57 94 90 186s75 233 126 423h414l-74 -297h136
c145 0 222 -70 222 -186c0 -37 -10 -73 -29 -108zM545 59h183c133 0 196 89 196 167c0 84 -53 130 -160 130h-145z" />
    <glyph glyph-name="afii10059" unicode="&#x40a;" horiz-adv-x="1070" 
d="M999 121c-39 -71 -120 -121 -235 -121h-262l88 354h-399l-88 -354h-65l177 712h65l-75 -299h400l74 299h65l-74 -297h136c145 0 222 -70 222 -186c0 -37 -10 -73 -29 -108zM582 59h183c135 0 197 89 197 167c0 84 -53 130 -160 130h-146z" />
    <glyph glyph-name="afii10060" unicode="&#x40b;" horiz-adv-x="758" 
d="M704 190l-47 -190h-65l51 207c5 21 7 38 7 49c0 76 -46 117 -138 117c-55 0 -108 -9 -160 -26l-87 -347h-65l162 653h-253l15 59h572l-16 -59h-253l-60 -244c53 15 105 23 157 23c125 0 191 -59 191 -170c0 -16 -4 -40 -11 -72z" />
    <glyph glyph-name="afii10061" unicode="&#x40c;" horiz-adv-x="607" 
d="M193 361l-90 -361h-65l177 712h65l-80 -321h2l385 321h97l-417 -344l272 -368h-83l-261 361h-2zM504 895h88l-145 -135h-63z" />
    <glyph glyph-name="uni040D" unicode="&#x40d;" horiz-adv-x="747" 
d="M677 647l-532 -647h-108l178 712h65l-163 -647h2c31 37 78 94 139 170l394 477h108l-178 -712h-64l161 647h-2zM498 895l60 -135h-55l-85 135h80z" />
    <glyph glyph-name="afii10062" unicode="&#x40e;" horiz-adv-x="633" 
d="M741 712l-430 -578c-76 -101 -143 -141 -223 -141c-23 0 -42 2 -55 7l14 57c11 -3 25 -5 41 -5c61 0 107 29 166 108l-134 552h66l56 -241c25 -112 45 -196 58 -252h2l361 493h78zM309 870c0 11 1 19 2 25h47c-1 -3 -1 -9 -1 -16c0 -48 26 -74 73 -74c57 0 98 31 119 90
h54c-24 -88 -87 -139 -172 -139c-79 0 -122 41 -122 114z" />
    <glyph glyph-name="afii10145" unicode="&#x40f;" horiz-adv-x="721" 
d="M215 712h65l-163 -653h389l163 653h65l-177 -712h-229l-40 -160h-62l40 160h-228z" />
    <glyph glyph-name="afii10017" unicode="&#x410;" horiz-adv-x="664" 
d="M402 712h89l104 -712h-66l-32 230h-333l-146 -230h-75zM202 290h287l-51 369h-2c-74 -118 -136 -216 -187 -295z" />
    <glyph glyph-name="afii10018" unicode="&#x411;" horiz-adv-x="615" 
d="M633 653h-368l-61 -247h139c137 0 218 -69 218 -185c1 -104 -91 -224 -253 -221h-270l177 712h433zM117 59h184c131 0 192 83 192 161c0 81 -56 127 -164 127h-139z" />
    <glyph glyph-name="afii10019" unicode="&#x412;" horiz-adv-x="615" 
d="M581 440c-28 -37 -68 -64 -120 -80v-2c59 -17 92 -69 92 -141c2 -99 -92 -220 -259 -217h-256l177 712h203c136 0 204 -58 204 -155c0 -41 -14 -80 -41 -117zM117 57h175c136 0 194 85 194 162c0 73 -47 116 -148 116h-152zM345 392c154 0 211 84 211 159
c0 69 -50 104 -150 104h-140l-66 -263h145z" />
    <glyph glyph-name="afii10020" unicode="&#x413;" horiz-adv-x="478" 
d="M38 0l177 712h367l-15 -59h-302l-162 -653h-65z" />
    <glyph glyph-name="afii10021" unicode="&#x414;" horiz-adv-x="699" 
d="M572 -160h-62l40 160h-536l-40 -160h-62l54 219h65c37 42 75 112 114 209s84 245 137 444h429l-163 -653h78zM106 59h377l148 594h-301c-43 -161 -83 -289 -119 -382c-37 -94 -72 -165 -105 -212z" />
    <glyph glyph-name="afii10022" unicode="&#x415;" horiz-adv-x="610" 
d="M38 0l177 712h443l-15 -59h-378l-63 -258h358l-15 -59h-359l-69 -277h390l-14 -59h-455z" />
    <glyph glyph-name="afii10024" unicode="&#x416;" horiz-adv-x="856" 
d="M936 712l-371 -346l223 -366h-75l-222 369h-2l-91 -369h-66l90 360h-2l-384 -360h-94l408 378l-202 334h72l203 -337h2l84 337h66l-82 -329h2l350 329h91z" />
    <glyph glyph-name="afii10025" unicode="&#x417;" horiz-adv-x="602" 
d="M542 547c0 71 -61 116 -165 116c-105 0 -180 -54 -204 -155h-69c15 67 48 120 97 159c49 38 107 57 176 57c145 0 232 -68 232 -176c0 -84 -63 -159 -187 -192v-2c75 -27 116 -77 116 -149c2 -97 -107 -221 -287 -218c-152 0 -233 62 -233 170c0 15 2 31 6 47h67
c-3 -13 -4 -26 -4 -39c0 -78 55 -117 164 -117c139 0 219 82 219 158c0 81 -61 125 -176 125h-57l15 60h55c160 0 235 81 235 156z" />
    <glyph glyph-name="afii10026" unicode="&#x418;" horiz-adv-x="747" 
d="M677 647l-532 -647h-108l178 712h65l-163 -647h2c31 37 78 94 139 170l394 477h108l-178 -712h-64l161 647h-2z" />
    <glyph glyph-name="afii10027" unicode="&#x419;" horiz-adv-x="747" 
d="M677 647l-532 -647h-108l178 712h65l-163 -647h2c31 37 78 94 139 170l394 477h108l-178 -712h-64l161 647h-2zM388 895h47c-1 -3 -1 -9 -1 -16c0 -48 26 -74 73 -74c57 0 98 31 119 90h54c-24 -88 -87 -139 -172 -139c-79 0 -122 41 -122 114c0 11 1 19 2 25z" />
    <glyph glyph-name="afii10028" unicode="&#x41a;" horiz-adv-x="607" 
d="M215 712h65l-80 -321h2l385 321h97l-417 -344l272 -368h-83l-261 361h-2l-90 -361h-65z" />
    <glyph glyph-name="afii10029" unicode="&#x41b;" horiz-adv-x="694" 
d="M-37 56c5 -1 11 -2 17 -2c37 0 70 16 97 49c27 32 57 94 90 186s75 233 126 423h414l-177 -712h-65l162 653h-286c-49 -185 -92 -324 -128 -417c-37 -93 -72 -157 -106 -190c-35 -33 -76 -50 -123 -50c-15 0 -26 2 -34 6z" />
    <glyph glyph-name="afii10030" unicode="&#x41c;" horiz-adv-x="909" 
d="M838 641l-51 -80c-70 -110 -112 -176 -127 -198l-231 -363h-76l-51 363l-18 134c-9 64 -16 112 -20 144h-2l-159 -641h-65l177 712h100l80 -585l7 -57h2l407 642h111l-177 -712h-65l160 641h-2z" />
    <glyph glyph-name="afii10031" unicode="&#x41d;" horiz-adv-x="731" 
d="M38 0l177 712h65l-77 -313h399l77 313h65l-177 -712h-65l85 340h-400l-84 -340h-65z" />
    <glyph glyph-name="afii10032" unicode="&#x41e;" horiz-adv-x="724" 
d="M708 434c0 -69 -15 -139 -45 -208c-31 -69 -75 -126 -132 -171s-124 -68 -199 -68c-166 0 -265 118 -265 291c0 70 15 140 45 209s74 126 131 171s123 67 198 67c168 0 267 -118 267 -291zM133 278c0 -69 18 -125 53 -167s84 -63 147 -63c61 0 116 20 163 59
s83 88 108 148c25 59 38 119 38 178c0 70 -18 126 -53 168c-36 42 -86 63 -149 63c-61 0 -115 -20 -162 -59s-82 -89 -107 -149s-38 -119 -38 -178z" />
    <glyph glyph-name="afii10033" unicode="&#x41f;" horiz-adv-x="721" 
d="M215 712h519l-177 -712h-65l162 653h-389l-162 -653h-65z" />
    <glyph glyph-name="afii10034" unicode="&#x420;" horiz-adv-x="606" 
d="M609 418c-39 -71 -120 -121 -236 -121h-197l-73 -297h-65l177 712h201c145 0 222 -70 222 -186c0 -37 -10 -73 -29 -108zM191 356h184c135 0 197 89 197 167c0 84 -53 130 -160 130h-147z" />
    <glyph glyph-name="afii10035" unicode="&#x421;" horiz-adv-x="684" 
d="M676 459h-68c2 13 3 26 3 37c0 103 -68 168 -175 168c-63 0 -118 -20 -164 -60c-46 -41 -81 -91 -104 -152c-24 -61 -36 -120 -36 -179c0 -137 69 -225 186 -225c54 0 103 16 147 49c43 33 76 76 97 130h68c-24 -73 -64 -131 -121 -174c-57 -44 -122 -66 -196 -66
c-78 0 -139 25 -182 76c-44 50 -66 118 -66 203c0 71 15 142 44 213s72 129 129 176s126 70 206 70c147 0 235 -92 235 -224c0 -14 -1 -28 -3 -42z" />
    <glyph glyph-name="afii10036" unicode="&#x422;" horiz-adv-x="592" 
d="M109 653l15 59h572l-16 -59h-253l-162 -653h-65l162 653h-253z" />
    <glyph glyph-name="afii10037" unicode="&#x423;" horiz-adv-x="633" 
d="M88 52c61 0 107 29 166 108l-134 552h66l56 -241c25 -112 45 -196 58 -252h2l361 493h78l-430 -578c-76 -101 -143 -141 -223 -141c-23 0 -42 2 -55 7l14 57c11 -3 25 -5 41 -5z" />
    <glyph glyph-name="afii10038" unicode="&#x424;" horiz-adv-x="809" 
d="M745 228c-56 -100 -171 -171 -335 -171h-22l-20 -80h-65l21 86c-160 23 -251 120 -252 267c-2 152 130 328 379 325h21l20 80h65l-21 -85c160 -24 251 -120 251 -267c0 -53 -14 -105 -42 -155zM414 117c202 -4 308 145 306 262c0 115 -72 191 -200 211l-117 -473h11z
M192 191c35 -37 84 -60 147 -69l118 473h-10c-203 4 -308 -144 -307 -261c0 -59 17 -106 52 -143z" />
    <glyph glyph-name="afii10039" unicode="&#x425;" horiz-adv-x="617" 
d="M295 371l-157 341h71l134 -295h2l274 295h88l-329 -349l166 -363h-71l-142 316h-2l-294 -316h-88z" />
    <glyph glyph-name="afii10040" unicode="&#x426;" horiz-adv-x="723" 
d="M215 712h65l-163 -653h389l163 653h65l-163 -653h78l-54 -219h-62l40 160h-535z" />
    <glyph glyph-name="afii10041" unicode="&#x427;" horiz-adv-x="625" 
d="M152 712h65l-51 -204c-5 -21 -7 -37 -7 -49c0 -76 52 -117 153 -117c61 0 120 9 176 26l85 344h66l-177 -712h-66l77 306c-59 -15 -117 -23 -174 -23c-135 0 -205 61 -205 170c0 21 4 45 11 72z" />
    <glyph glyph-name="afii10042" unicode="&#x428;" horiz-adv-x="1017" 
d="M38 0l177 712h65l-163 -653h310l163 653h65l-163 -653h310l163 653h65l-177 -712h-815z" />
    <glyph glyph-name="afii10043" unicode="&#x429;" horiz-adv-x="1018" 
d="M117 59h310l163 653h65l-163 -653h310l163 653h65l-163 -653h78l-54 -219h-62l40 160h-831l177 712h65z" />
    <glyph glyph-name="afii10044" unicode="&#x42a;" horiz-adv-x="738" 
d="M667 121c-39 -71 -120 -121 -236 -121h-261l162 653h-223l15 59h288l-74 -297h136c145 0 222 -70 222 -186c0 -37 -10 -73 -29 -108zM433 59c135 0 197 89 197 167c0 84 -53 130 -160 130h-146l-74 -297h183z" />
    <glyph glyph-name="afii10045" unicode="&#x42b;" horiz-adv-x="873" 
d="M215 712h65l-74 -297h136c145 0 222 -70 222 -186c2 -109 -92 -231 -265 -229h-261zM301 59c133 0 196 89 196 167c0 84 -53 130 -160 130h-145l-74 -297h183zM886 712l-177 -712h-65l177 712h65z" />
    <glyph glyph-name="afii10046" unicode="&#x42c;" horiz-adv-x="606" 
d="M535 121c-40 -71 -121 -121 -236 -121h-261l177 712h65l-74 -297h136c145 0 222 -70 222 -186c0 -37 -10 -73 -29 -108zM118 59h183c133 0 196 89 196 167c0 84 -53 130 -160 130h-145z" />
    <glyph glyph-name="afii10047" unicode="&#x42d;" horiz-adv-x="684" 
d="M627 234c-29 -71 -73 -130 -130 -177s-126 -70 -206 -70c-151 0 -240 92 -240 224c0 14 1 28 3 42h69c-2 -13 -3 -25 -3 -37c0 -103 69 -168 178 -168c152 -2 256 133 291 279h-351l14 59h348c2 18 3 36 3 53c0 137 -70 225 -187 225c-53 0 -101 -16 -144 -49
s-75 -76 -95 -130h-69c24 73 64 131 121 175c56 43 120 65 193 65c78 0 139 -25 183 -75c43 -51 65 -119 65 -204c0 -71 -14 -141 -43 -212z" />
    <glyph glyph-name="afii10048" unicode="&#x42e;" horiz-adv-x="960" 
d="M944 439c0 -70 -15 -140 -44 -210c-30 -70 -72 -128 -127 -173c-55 -46 -119 -69 -192 -69c-157 0 -249 116 -249 286c0 18 1 36 3 54h-151l-81 -327h-65l177 712h65l-81 -326h146c38 177 169 341 349 339c157 0 250 -116 250 -286zM398 274c0 -68 17 -123 50 -164
s78 -62 136 -62s109 20 154 59s79 89 104 150c24 60 36 120 36 180c0 69 -16 124 -49 165s-78 62 -137 62s-110 -20 -155 -60s-79 -90 -103 -151s-36 -120 -36 -179z" />
    <glyph glyph-name="afii10049" unicode="&#x42f;" horiz-adv-x="613" 
d="M198 338c-58 29 -87 80 -87 154c0 108 79 220 262 220h253l-177 -712h-65l78 314h-139c-21 0 -43 2 -64 5l-232 -319h-81zM546 653h-177c-134 0 -191 -79 -191 -158c0 -75 49 -122 146 -122h152z" />
    <glyph glyph-name="afii10065" unicode="&#x430;" horiz-adv-x="524" 
d="M459 304l-44 -179c-13 -51 -20 -93 -21 -125h-59c1 26 5 48 10 67h-2c-45 -51 -105 -77 -179 -77c-97 0 -156 51 -156 128c0 94 73 152 220 174c55 8 112 14 172 18l3 12c5 19 7 35 7 49c0 65 -42 97 -113 97c-80 0 -133 -45 -148 -113h-65c11 49 36 89 75 120
s86 46 142 46c105 0 167 -50 167 -150c0 -19 -3 -42 -9 -67zM75 125c0 -52 38 -83 105 -83c93 0 167 62 195 166l12 50c-52 -3 -103 -9 -153 -17c-61 -9 -102 -24 -125 -43s-34 -44 -34 -73z" />
    <glyph glyph-name="afii10066" unicode="&#x431;" horiz-adv-x="562" 
d="M601 666c-21 -5 -49 -10 -83 -13c-35 -4 -57 -7 -66 -8l-21 -2c-167 -19 -219 -72 -285 -229h2c45 62 104 93 178 93c123 0 193 -79 193 -211c2 -137 -103 -314 -280 -309c-120 0 -187 77 -187 214c0 33 5 68 14 105c78 297 168 373 368 394c84 8 144 16 181 25zM146 82
c22 -27 55 -41 98 -41c133 -4 213 143 211 254c0 101 -48 160 -135 160c-147 3 -208 -153 -208 -258c0 -50 11 -88 34 -115z" />
    <glyph glyph-name="afii10067" unicode="&#x432;" horiz-adv-x="516" 
d="M456 309c-19 -25 -47 -42 -84 -52v-2c40 -12 66 -49 66 -102c0 -70 -64 -153 -190 -153h-228l126 508h182c104 0 157 -43 157 -118c0 -29 -10 -56 -29 -81zM94 52h148c91 0 130 44 130 99s-36 83 -109 83h-124zM152 284h130c96 0 137 44 137 97c0 51 -37 75 -113 75h-111
z" />
    <glyph glyph-name="afii10068" unicode="&#x433;" horiz-adv-x="405" 
d="M20 0l126 508h308l-13 -52h-246l-113 -456h-62z" />
    <glyph glyph-name="afii10069" unicode="&#x434;" horiz-adv-x="556" 
d="M-28 -160h-62l53 212h56c27 29 55 76 84 143c28 66 63 170 105 313h328l-113 -456h67l-53 -212h-62l40 160h-403zM89 52h272l100 404h-206c-60 -201 -115 -336 -166 -404z" />
    <glyph glyph-name="afii10070" unicode="&#x435;" horiz-adv-x="539" 
d="M492 242h-387c-4 -22 -6 -42 -6 -59c0 -93 50 -143 133 -143c77 0 140 44 169 111h64c-19 -47 -49 -86 -90 -117s-90 -47 -146 -47c-124 0 -190 73 -190 200c-2 148 107 339 285 334c117 0 181 -70 181 -187c0 -23 -4 -53 -13 -92zM117 293h327c3 14 4 29 4 44
c0 84 -47 131 -127 131c-95 0 -173 -67 -204 -175z" />
    <glyph glyph-name="afii10072" unicode="&#x436;" horiz-adv-x="652" 
d="M697 508l-267 -233l166 -275h-77l-155 275h-2l-68 -275h-62l66 267h-2l-271 -267h-95l305 284l-154 224h75l144 -226h2l56 226h62l-54 -218h2l236 218h93z" />
    <glyph glyph-name="afii10073" unicode="&#x437;" horiz-adv-x="477" 
d="M397 147c2 -72 -77 -162 -208 -160c-116 0 -178 47 -178 126c0 13 1 25 4 36h64c-2 -10 -3 -19 -3 -28c0 -52 37 -78 112 -78c93 0 146 53 146 106s-44 83 -124 83h-50l12 52h50c107 0 158 56 158 106c0 47 -38 75 -102 75c-75 0 -124 -34 -141 -103h-65
c23 99 102 159 206 159c105 0 166 -49 166 -129c0 -59 -41 -110 -128 -137v-2c52 -20 81 -57 81 -106z" />
    <glyph glyph-name="afii10074" unicode="&#x438;" horiz-adv-x="601" 
d="M100 66h2l373 442h106l-126 -508h-65l50 199c27 108 47 189 61 243h-2c-25 -29 -65 -76 -120 -142c-15 -18 -37 -45 -68 -81l-185 -219h-106l126 508h65l-50 -199c-27 -108 -47 -189 -61 -243z" />
    <glyph glyph-name="afii10075" unicode="&#x439;" horiz-adv-x="601" 
d="M20 0l126 508h65l-50 -199c-27 -108 -47 -189 -61 -243h2l373 442h106l-126 -508h-65l50 199c27 108 47 189 61 243h-2c-25 -29 -65 -76 -120 -142c-15 -18 -37 -45 -68 -81l-185 -219h-106zM561 712c-24 -88 -88 -139 -173 -139c-79 0 -121 42 -121 115c0 10 1 18 2 24
h47c-1 -3 -1 -9 -1 -16c0 -48 26 -73 73 -73c56 0 98 32 118 89h55z" />
    <glyph glyph-name="afii10076" unicode="&#x43a;" horiz-adv-x="496" 
d="M146 508h62l-52 -209h2l269 209h93l-303 -233l206 -275h-78l-195 267h-2l-66 -267h-62z" />
    <glyph glyph-name="afii10077" unicode="&#x43b;" horiz-adv-x="540" 
d="M-44 51c5 -1 12 -2 19 -2c27 0 51 11 71 34s42 67 66 132c23 65 52 162 87 293h321l-126 -508h-62l113 456h-200c-33 -127 -63 -223 -90 -289c-28 -66 -55 -111 -82 -134c-27 -24 -59 -36 -96 -36c-15 0 -27 1 -34 4z" />
    <glyph glyph-name="afii10078" unicode="&#x43c;" horiz-adv-x="734" 
d="M636 446l-294 -446h-76l-72 446h-2l-111 -446h-61l126 508h98l72 -442h2l129 200l160 242h107l-126 -508h-61l111 446h-2z" />
    <glyph glyph-name="afii10079" unicode="&#x43d;" horiz-adv-x="576" 
d="M20 0l126 508h62l-56 -228h286l56 228h62l-126 -508h-62l57 228h-286l-57 -228h-62z" />
    <glyph glyph-name="afii10080" unicode="&#x43e;" horiz-adv-x="552" 
d="M479 161c-21 -50 -53 -91 -95 -124s-92 -50 -149 -50c-124 0 -194 77 -194 210c-2 146 102 328 274 324c125 0 196 -77 196 -210c0 -50 -11 -100 -32 -150zM105 195c0 -99 47 -154 135 -154c130 -4 209 154 208 272c0 99 -48 154 -137 154c-130 4 -207 -154 -206 -272z
" />
    <glyph glyph-name="afii10081" unicode="&#x43f;" horiz-adv-x="568" 
d="M146 508h402l-126 -508h-62l113 456h-278l-113 -456h-62z" />
    <glyph glyph-name="afii10082" unicode="&#x440;" horiz-adv-x="565" 
d="M497 172c-21 -53 -52 -96 -93 -131s-90 -52 -145 -52c-79 0 -135 42 -151 109h-2l-70 -283h-62l173 693h62l-15 -60h2c40 45 98 73 159 73c111 0 174 -72 174 -195c0 -51 -11 -102 -32 -154zM168 81c21 -27 50 -40 88 -40c129 -5 208 155 206 276c0 96 -42 152 -118 152
c-131 4 -209 -153 -207 -276c0 -48 10 -85 31 -112z" />
    <glyph glyph-name="afii10083" unicode="&#x441;" horiz-adv-x="521" 
d="M495 323h-63c1 5 1 11 1 20c0 76 -43 124 -119 124c-128 4 -211 -156 -209 -275c0 -95 47 -151 123 -151c38 0 72 13 103 38s53 55 66 92h67c-19 -55 -50 -99 -93 -133s-92 -51 -147 -51c-113 0 -184 77 -184 202c-2 146 100 337 279 332c112 0 177 -68 177 -175
c0 -10 0 -18 -1 -23z" />
    <glyph glyph-name="afii10084" unicode="&#x442;" horiz-adv-x="439" 
d="M57 456l13 52l425 -1l-13 -51h-179l-114 -456h-64l113 456h-181z" />
    <glyph glyph-name="afii10085" unicode="&#x443;" horiz-adv-x="456" 
d="M-43 -134c78 3 100 22 174 134l-73 508h63l58 -429h2l272 429h71l-339 -532c-84 -132 -132 -165 -234 -165c-15 0 -29 2 -42 6l13 53c10 -3 22 -4 35 -4z" />
    <glyph glyph-name="afii10086" unicode="&#x444;" horiz-adv-x="770" 
d="M609 43c-41 -36 -90 -54 -145 -54c-43 0 -77 15 -103 44l-54 -218h-62l51 206c-33 -21 -68 -32 -105 -32c-99 0 -154 71 -154 192c-2 146 104 345 270 340c44 0 78 -16 101 -49l60 240h62l-56 -225c33 23 69 34 107 34c97 0 153 -71 153 -190c0 -50 -11 -102 -32 -155
s-52 -98 -93 -133zM132 81c19 -27 47 -40 82 -40c33 0 66 14 97 41l85 340c-21 31 -51 47 -92 47c-122 5 -204 -166 -202 -278c0 -47 10 -83 30 -110zM466 41c124 -5 204 166 202 278c0 93 -40 150 -111 150c-33 0 -66 -14 -98 -43l-85 -341c21 -29 51 -44 92 -44z" />
    <glyph glyph-name="afii10087" unicode="&#x445;" horiz-adv-x="467" 
d="M198 269l-117 239h68l92 -200h2l186 200h82l-236 -245l129 -263h-69l-104 221h-2l-208 -221h-84z" />
    <glyph glyph-name="afii10088" unicode="&#x446;" horiz-adv-x="569" 
d="M146 508h62l-113 -456h278l113 456h62l-113 -456h67l-53 -212h-62l40 160h-407z" />
    <glyph glyph-name="afii10089" unicode="&#x447;" horiz-adv-x="504" 
d="M63 375l33 133h62l-35 -140c-3 -13 -5 -25 -5 -34c0 -60 39 -90 116 -90c43 0 84 6 125 18l62 246h62l-126 -508h-62l51 207c-41 -11 -81 -16 -121 -16c-111 0 -168 48 -168 137c0 15 2 30 6 47z" />
    <glyph glyph-name="afii10090" unicode="&#x448;" horiz-adv-x="829" 
d="M20 0l126 508h62l-113 -456h238l113 456h62l-113 -456h238l114 456h62l-126 -508h-663z" />
    <glyph glyph-name="afii10091" unicode="&#x449;" horiz-adv-x="829" 
d="M95 52h238l113 456h62l-113 -456h238l114 456h62l-114 -456h58l-53 -212h-62l40 160h-658l126 508h62z" />
    <glyph glyph-name="afii10092" unicode="&#x44a;" horiz-adv-x="586" 
d="M500 88c-29 -52 -91 -88 -180 -88h-216l113 456h-160l13 52h222l-49 -200h105c115 0 174 -51 174 -140c0 -28 -7 -55 -22 -80zM179 52h142c95 0 138 52 138 113s-37 91 -116 91h-113z" />
    <glyph glyph-name="afii10093" unicode="&#x44b;" horiz-adv-x="691" 
d="M146 508h62l-49 -200h104c116 0 175 -51 175 -140c0 -84 -66 -168 -202 -168h-216zM237 52c95 0 138 52 138 113s-37 91 -116 91h-113l-51 -204h142zM671 508l-126 -508h-62l126 508h62z" />
    <glyph glyph-name="afii10094" unicode="&#x44c;" horiz-adv-x="502" 
d="M208 508l-49 -200h104c116 0 175 -51 175 -140c0 -84 -66 -168 -202 -168h-216l126 508h62zM237 52c95 0 138 52 138 113s-37 91 -116 91h-113l-51 -204h142z" />
    <glyph glyph-name="afii10095" unicode="&#x44d;" horiz-adv-x="521" 
d="M449 167c-21 -51 -53 -94 -95 -128c-42 -35 -93 -52 -152 -52c-112 0 -177 68 -177 175c0 10 0 18 1 23h63c-1 -5 -1 -11 -1 -20c0 -76 43 -124 118 -124c49 0 91 19 126 56c34 37 58 82 73 135h-250l13 52h246c1 15 2 25 2 32c0 95 -47 151 -123 151
c-39 0 -73 -12 -103 -37c-31 -25 -53 -56 -67 -93h-67c19 55 51 100 94 134c43 33 92 50 147 50c113 0 184 -77 184 -202c0 -50 -11 -101 -32 -152z" />
    <glyph glyph-name="afii10096" unicode="&#x44e;" horiz-adv-x="760" 
d="M687 161c-21 -50 -53 -91 -95 -124s-92 -50 -149 -50c-124 0 -193 77 -193 210c0 13 0 23 1 30h-113l-56 -227h-62l126 508h62l-57 -228l109 1c28 124 122 242 263 240c125 0 196 -77 196 -210c0 -50 -11 -100 -32 -150zM313 195c0 -99 47 -154 135 -154
c130 -4 209 154 208 272c0 99 -48 154 -137 154c-130 4 -207 -154 -206 -272z" />
    <glyph glyph-name="afii10097" unicode="&#x44f;" horiz-adv-x="511" 
d="M365 0h-64l50 202h-99c-11 0 -26 1 -43 2l-170 -204h-83l190 222c-49 22 -73 62 -73 121c0 85 63 165 199 165h219zM139 347c0 -57 37 -93 116 -93h109l50 202h-137c-93 0 -138 -48 -138 -109z" />
    <glyph glyph-name="uni0450" unicode="&#x450;" horiz-adv-x="539" 
d="M492 242h-387c-4 -22 -6 -42 -6 -59c0 -93 50 -143 133 -143c77 0 140 44 169 111h64c-19 -47 -49 -86 -90 -117s-90 -47 -146 -47c-124 0 -190 73 -190 200c-2 148 107 339 285 334c117 0 181 -70 181 -187c0 -23 -4 -53 -13 -92zM117 293h327c3 14 4 29 4 44
c0 84 -47 131 -127 131c-95 0 -173 -67 -204 -175zM247 712h80l59 -141h-55z" />
    <glyph glyph-name="afii10071" unicode="&#x451;" horiz-adv-x="539" 
d="M492 242h-387c-4 -22 -6 -42 -6 -59c0 -93 50 -143 133 -143c77 0 140 44 169 111h64c-19 -47 -49 -86 -90 -117s-90 -47 -146 -47c-124 0 -190 73 -190 200c-2 148 107 339 285 334c117 0 181 -70 181 -187c0 -23 -4 -53 -13 -92zM117 293h327c3 14 4 29 4 44
c0 84 -47 131 -127 131c-95 0 -173 -67 -204 -175zM424 712h61l-21 -88h-61zM240 712h61l-22 -88h-60z" />
    <glyph glyph-name="afii10099" unicode="&#x452;" 
d="M455 567h-232l-44 -175h2c43 45 102 73 165 73c93 0 147 -51 147 -146c0 -21 -4 -47 -11 -76l-72 -290c-27 -100 -79 -142 -156 -142c-17 0 -32 2 -46 6l12 53c10 -3 20 -4 30 -4c52 0 83 28 102 103l68 275c7 26 10 50 10 71c0 63 -35 96 -98 96c-42 0 -81 -14 -116 -43
s-59 -70 -72 -121l-62 -247h-62l141 567h-69l12 48h69l24 97h62l-24 -97h232z" />
    <glyph glyph-name="afii10100" unicode="&#x453;" horiz-adv-x="405" 
d="M146 508h308l-13 -52h-246l-113 -456h-62zM252 571l121 141h88l-146 -141h-63z" />
    <glyph glyph-name="afii10101" unicode="&#x454;" horiz-adv-x="521" 
d="M495 323h-63c1 5 1 11 1 20c0 76 -43 124 -118 124c-48 0 -89 -17 -123 -52c-35 -35 -59 -79 -74 -131h250l-13 -52h-248c-2 -14 -3 -27 -3 -40c0 -95 48 -151 124 -151c38 0 73 13 104 38s53 55 66 92h66c-19 -55 -50 -99 -93 -133s-92 -51 -147 -51
c-113 0 -184 77 -184 202c-2 146 100 337 279 332c112 0 177 -68 177 -175c0 -10 0 -18 -1 -23z" />
    <glyph glyph-name="afii10102" unicode="&#x455;" horiz-adv-x="479" 
d="M382 347c3 15 4 27 4 36c0 55 -41 84 -114 84c-75 0 -124 -32 -124 -91c5 -52 22 -59 105 -85c35 -11 62 -21 81 -30s36 -23 50 -41c13 -19 20 -43 20 -74c0 -82 -71 -159 -207 -159c-117 0 -182 50 -182 139c0 17 2 32 6 45h62c-3 -15 -5 -28 -5 -40
c0 -59 43 -90 124 -90c89 0 140 39 140 100c-4 56 -30 67 -124 97c-61 19 -91 31 -115 65c-12 17 -18 39 -18 68c0 77 72 150 193 150c111 0 170 -47 170 -131c0 -16 -2 -30 -5 -43h-61z" />
    <glyph glyph-name="afii10103" unicode="&#x456;" horiz-adv-x="228" 
d="M20 0l126 508h62l-126 -508h-62zM197 712h62l-21 -88h-62z" />
    <glyph glyph-name="afii10104" unicode="&#x457;" horiz-adv-x="228" 
d="M20 0l126 508h62l-126 -508h-62zM248 624l22 88h61l-22 -88h-61zM126 712h61l-22 -88h-60z" />
    <glyph glyph-name="afii10105" unicode="&#x458;" horiz-adv-x="235" 
d="M-113 -130c10 -3 20 -4 29 -4c53 0 84 28 103 103l134 539h62l-139 -555c-25 -100 -78 -142 -155 -142c-17 0 -33 2 -47 6zM204 712h62l-21 -88h-62z" />
    <glyph glyph-name="afii10106" unicode="&#x459;" horiz-adv-x="815" 
d="M728 88c-29 -52 -91 -88 -180 -88h-216l113 456h-200c-33 -127 -63 -223 -90 -289c-28 -66 -55 -111 -82 -134c-27 -24 -59 -36 -96 -36c-15 0 -27 1 -34 4l13 50c5 -1 12 -2 19 -2c27 0 51 11 71 34s42 67 66 132c23 65 52 162 87 293h321l-49 -200h105
c115 0 174 -51 174 -140c0 -28 -7 -55 -22 -80zM549 52c95 0 138 52 138 113s-37 91 -116 91h-113l-51 -204h142z" />
    <glyph glyph-name="afii10107" unicode="&#x45a;" horiz-adv-x="851" 
d="M764 88c-29 -52 -91 -88 -180 -88h-216l64 254h-287l-63 -254h-62l126 508h62l-50 -202h286l50 202h62l-49 -200h105c115 0 174 -51 174 -140c0 -28 -7 -55 -22 -80zM586 52c93 0 138 52 138 113s-38 91 -117 91h-113l-51 -204h143z" />
    <glyph glyph-name="afii10108" unicode="&#x45b;" 
d="M482 243l-60 -243h-62l60 244c7 26 10 50 10 71c0 63 -35 96 -98 96c-42 0 -81 -14 -116 -43s-59 -70 -72 -121l-62 -247h-62l141 567h-69l12 48h69l24 97h62l-24 -97h232l-12 -48h-232l-44 -175h2c43 45 102 73 165 73c93 0 147 -51 147 -146c0 -21 -4 -47 -11 -76z" />
    <glyph glyph-name="afii10109" unicode="&#x45c;" horiz-adv-x="496" 
d="M208 508l-52 -209h2l269 209h93l-303 -233l206 -275h-78l-195 267h-2l-66 -267h-62l126 508h62zM391 712h88l-146 -141h-63z" />
    <glyph glyph-name="uni045D" unicode="&#x45d;" horiz-adv-x="601" 
d="M499 442c-25 -29 -65 -76 -120 -142c-15 -18 -37 -45 -68 -81l-185 -219h-106l126 508h65l-50 -199c-27 -108 -47 -189 -61 -243h2l373 442h106l-126 -508h-65l50 199c27 108 47 189 61 243h-2zM298 712h80l59 -141h-55z" />
    <glyph glyph-name="afii10110" unicode="&#x45e;" horiz-adv-x="456" 
d="M524 508l-339 -532c-84 -132 -132 -165 -234 -165c-15 0 -29 2 -42 6l13 53c10 -3 22 -4 35 -4c78 3 100 22 174 134l-73 508h63l58 -429h2l272 429h71zM175 688c0 10 1 18 2 24h47c-1 -3 -1 -9 -1 -16c0 -48 26 -73 73 -73c56 0 98 32 118 89h55
c-24 -88 -88 -139 -173 -139c-79 0 -121 42 -121 115z" />
    <glyph glyph-name="afii10193" unicode="&#x45f;" horiz-adv-x="568" 
d="M146 508h62l-113 -456h278l113 456h62l-126 -508h-170l-40 -160h-62l40 160h-170z" />
    <glyph glyph-name="afii10050" unicode="&#x490;" horiz-adv-x="478" 
d="M38 0l177 712h305l39 153h62l-54 -212h-302l-162 -653h-65z" />
    <glyph glyph-name="afii10098" unicode="&#x491;" horiz-adv-x="405" 
d="M20 0l126 508h246l40 160h62l-53 -212h-246l-113 -456h-62z" />
    <glyph glyph-name="uni0492" unicode="&#x492;" horiz-adv-x="478" 
d="M38 0l80 321h-67l14 54h66l84 337h367l-15 -59h-302l-69 -278h144l-14 -54h-143l-80 -321h-65z" />
    <glyph glyph-name="uni0493" unicode="&#x493;" horiz-adv-x="406" 
d="M18 227l12 48h58l58 233h308l-13 -52h-246l-45 -181h135l-12 -48h-135l-56 -227h-62l56 227h-58z" />
    <glyph glyph-name="uni0496" unicode="&#x496;" horiz-adv-x="856" 
d="M936 712l-371 -346l187 -307h51l-54 -219h-62l40 160h-14l-222 369h-2l-91 -369h-66l90 360h-2l-384 -360h-94l408 378l-202 334h72l203 -337h2l84 337h66l-82 -329h2l350 329h91z" />
    <glyph glyph-name="uni0497" unicode="&#x497;" horiz-adv-x="652" 
d="M697 508l-267 -233l135 -223h44l-53 -212h-62l40 160h-15l-155 275h-2l-68 -275h-62l66 267h-2l-271 -267h-95l305 284l-154 224h75l144 -226h2l56 226h62l-54 -218h2l236 218h93z" />
    <glyph glyph-name="uni049A" unicode="&#x49a;" horiz-adv-x="607" 
d="M193 361l-90 -361h-65l177 712h65l-80 -321h2l385 321h97l-417 -344l228 -309h59l-54 -219h-62l40 160h-22l-261 361h-2z" />
    <glyph glyph-name="uni049B" unicode="&#x49b;" horiz-adv-x="496" 
d="M208 508l-52 -209h2l269 209h93l-303 -233l167 -223h52l-53 -212h-62l40 160h-16l-195 267h-2l-66 -267h-62l126 508h62z" />
    <glyph glyph-name="uni049C" unicode="&#x49c;" horiz-adv-x="672" 
d="M752 712l-370 -352l222 -360h-74l-209 340h-6l-45 -179h-63l45 179h-65l-84 -340h-65l177 712h65l-78 -313h65l45 179h63l-45 -179h5l326 313h91z" />
    <glyph glyph-name="uni049D" unicode="&#x49d;" horiz-adv-x="542" 
d="M586 508l-265 -236l165 -272h-77l-144 253h-2l-36 -145h-59l36 145h-60l-62 -253h-62l126 508h62l-51 -203h60l33 135h59l-33 -135h2l216 203h92z" />
    <glyph glyph-name="uni04A2" unicode="&#x4a2;" horiz-adv-x="733" 
d="M103 0h-65l177 712h65l-77 -313h399l77 313h65l-163 -653h78l-54 -219h-62l40 160h-81l85 340h-400z" />
    <glyph glyph-name="uni04A3" unicode="&#x4a3;" horiz-adv-x="577" 
d="M82 0h-62l126 508h62l-56 -228h286l56 228h62l-113 -456h67l-53 -212h-62l40 160h-67l57 228h-286z" />
    <glyph glyph-name="uni04AE" unicode="&#x4ae;" horiz-adv-x="602" 
d="M188 712l59 -154c17 -42 41 -106 73 -191h2c75 85 131 149 169 191l134 154h86l-365 -408l-75 -304h-66l76 304l-162 408h69z" />
    <glyph glyph-name="uni04AF" unicode="&#x4af;" horiz-adv-x="450" 
d="M120 508l27 -211c7 -60 17 -133 28 -219h2l136 219l133 211h72l-328 -515l-44 -178h-61l44 178l-71 515h62z" />
    <glyph glyph-name="uni04B2" unicode="&#x4b2;" horiz-adv-x="617" 
d="M707 712l-329 -349l139 -304h46l-54 -219h-62l40 160h-14l-142 316h-2l-294 -316h-88l348 371l-157 341h71l134 -295h2l274 295h88z" />
    <glyph glyph-name="uni04B3" unicode="&#x4b3;" horiz-adv-x="467" 
d="M511 508l-236 -245l103 -211h39l-53 -212h-62l40 160h-7l-104 221h-2l-208 -221h-84l261 269l-117 239h68l92 -200h2l186 200h82z" />
    <glyph glyph-name="uni04B8" unicode="&#x4b8;" horiz-adv-x="625" 
d="M639 712l-177 -712h-66l77 306c-49 -13 -98 -20 -148 -22l-38 -153h-64l38 154c-109 9 -167 69 -167 168c0 21 4 45 11 72l47 187h65l-51 -204c-5 -21 -7 -38 -7 -49c0 -67 40 -106 117 -115l54 220h64l-55 -221c53 2 103 10 149 25l85 344h66z" />
    <glyph glyph-name="uni04B9" unicode="&#x4b9;" horiz-adv-x="503" 
d="M483 508l-126 -508h-62l51 207c-37 -10 -72 -15 -107 -16l-25 -103h-59l26 106c-83 12 -124 57 -124 134c0 14 2 30 6 47l33 133h62l-35 -141c-3 -12 -5 -23 -5 -33c0 -48 25 -77 76 -87l41 165h59l-41 -168c35 2 70 8 106 18l62 246h62z" />
    <glyph glyph-name="uni04BA" unicode="&#x4ba;" horiz-adv-x="625" 
d="M103 0h-65l177 712h65l-76 -306c58 15 116 23 173 23c135 0 205 -61 205 -170c0 -21 -4 -45 -11 -72l-46 -187h-66l52 204c4 18 6 34 6 49c0 76 -52 117 -152 117c-61 0 -119 -9 -176 -26z" />
    <glyph glyph-name="uni04BB" unicode="&#x4bb;" 
d="M496 297l-74 -297h-62l74 298c7 26 10 50 10 71c0 63 -35 96 -98 96c-42 0 -81 -14 -116 -43s-59 -70 -72 -121l-76 -301h-62l177 712h62l-66 -266h2c43 45 102 73 165 73c93 0 147 -51 147 -146c0 -21 -4 -47 -11 -76z" />
    <glyph glyph-name="uni04C0" unicode="&#x4c0;" horiz-adv-x="267" 
d="M215 712h65l-177 -712h-65z" />
    <glyph glyph-name="uni04CF" unicode="&#x4cf;" horiz-adv-x="228" 
d="M197 712h62l-177 -712h-62z" />
    <glyph glyph-name="uni04D8" unicode="&#x4d8;" horiz-adv-x="729" 
d="M671 237c-32 -72 -78 -132 -139 -179s-134 -71 -217 -71c-165 0 -260 96 -260 259c0 41 8 85 25 134h562c5 25 7 50 7 73c0 137 -76 212 -204 212c-58 0 -110 -15 -156 -45c-47 -31 -81 -71 -102 -120h-74c26 66 69 120 128 162s128 63 207 63c175 0 270 -101 270 -276
c0 -70 -16 -141 -47 -212zM173 98c35 -34 83 -51 145 -51c147 0 270 107 310 274h-497c-7 -26 -10 -52 -10 -78c0 -63 17 -111 52 -145z" />
    <glyph glyph-name="afii10846" unicode="&#x4d9;" horiz-adv-x="539" 
d="M468 168c-23 -52 -56 -95 -99 -129c-43 -35 -95 -52 -154 -52c-117 0 -181 70 -181 187c0 32 6 65 19 100h382c3 15 5 32 5 51c0 93 -50 143 -133 143c-76 0 -137 -40 -166 -103h-65c19 45 49 82 90 112c41 29 89 44 144 44c124 0 191 -73 191 -200
c0 -51 -11 -102 -33 -153zM91 171c0 -84 47 -131 127 -131c96 0 177 68 206 183h-327c-4 -19 -6 -37 -6 -52z" />
    <glyph glyph-name="uni04E8" unicode="&#x4e8;" horiz-adv-x="724" 
d="M708 434c0 -69 -15 -139 -45 -208c-31 -69 -75 -126 -132 -171s-124 -68 -199 -68c-166 0 -265 118 -265 291c0 70 15 140 45 209s74 126 131 171s123 67 198 67c168 0 267 -118 267 -291zM132 278c0 -69 18 -125 53 -167s85 -63 148 -63c150 -2 260 131 297 279h-495
c-2 -17 -3 -34 -3 -49zM640 386c2 16 3 32 3 47c0 70 -18 126 -54 168s-86 63 -149 63c-149 2 -258 -133 -294 -278h494z" />
    <glyph glyph-name="uni04E9" unicode="&#x4e9;" horiz-adv-x="553" 
d="M479 161c-21 -50 -53 -91 -95 -124s-92 -50 -149 -50c-124 0 -194 77 -194 210c-2 146 102 328 274 324c125 0 196 -77 196 -210c0 -50 -11 -100 -32 -150zM139 81c23 -27 56 -40 101 -40c50 0 92 18 126 55c33 36 57 80 71 133h-331c-1 -16 -2 -27 -2 -34
c0 -49 12 -87 35 -114zM446 280c1 15 2 26 2 33c0 99 -48 154 -137 154c-49 0 -91 -18 -124 -54c-34 -36 -58 -80 -72 -133h331z" />
    <glyph glyph-name="Wgrave" unicode="&#x1e80;" horiz-adv-x="896" 
d="M999 712l-351 -712h-102v325c0 73 1 182 2 327h-2c-7 -13 -37 -74 -90 -181l-232 -471h-102l3 712h63l-1 -303c0 -77 -1 -193 -2 -348h2l172 350l150 301h99l-1 -301v-350h2l321 651h69zM488 895h80l60 -135h-55z" />
    <glyph glyph-name="wgrave" unicode="&#x1e81;" horiz-adv-x="750" 
d="M805 508l-273 -508h-89l-18 452h-2l-118 -222l-124 -230h-89l-21 508h60l16 -452h2l118 225l121 227h94l7 -227c4 -98 6 -173 7 -225h2l239 452h68zM370 712h80l59 -141h-55z" />
    <glyph glyph-name="Wacute" unicode="&#x1e82;" horiz-adv-x="896" 
d="M999 712l-351 -712h-102v325c0 73 1 182 2 327h-2c-7 -13 -37 -74 -90 -181l-232 -471h-102l3 712h63l-1 -303c0 -77 -1 -193 -2 -348h2l172 350l150 301h99l-1 -301v-350h2l321 651h69zM633 895h88l-145 -135h-63z" />
    <glyph glyph-name="wacute" unicode="&#x1e83;" horiz-adv-x="750" 
d="M805 508l-273 -508h-89l-18 452h-2l-118 -222l-124 -230h-89l-21 508h60l16 -452h2l118 225l121 227h94l7 -227c4 -98 6 -173 7 -225h2l239 452h68zM514 712h88l-146 -141h-63z" />
    <glyph glyph-name="Wdieresis" unicode="&#x1e84;" horiz-adv-x="896" 
d="M999 712l-351 -712h-102v325c0 73 1 182 2 327h-2c-7 -13 -37 -74 -90 -181l-232 -471h-102l3 712h63l-1 -303c0 -77 -1 -193 -2 -348h2l172 350l150 301h99l-1 -301v-350h2l321 651h69zM659 866h61l-22 -88h-61zM453 778l22 88h61l-22 -88h-61z" />
    <glyph glyph-name="wdieresis" unicode="&#x1e85;" horiz-adv-x="750" 
d="M805 508l-273 -508h-89l-18 452h-2l-118 -222l-124 -230h-89l-21 508h60l16 -452h2l118 225l121 227h94l7 -227c4 -98 6 -173 7 -225h2l239 452h68zM526 624l21 88h61l-21 -88h-61zM363 712h61l-22 -88h-60z" />
    <glyph glyph-name="uni1E9E" unicode="&#x1e9e;" horiz-adv-x="752" 
d="M658 107c-40 -71 -119 -118 -227 -118c-123 0 -188 50 -188 145c0 15 1 29 4 42h67c-3 -11 -4 -22 -4 -35c0 -60 42 -92 126 -92c125 0 183 83 183 161c0 97 -66 148 -195 161l13 52l208 177c-33 41 -90 65 -162 65c-148 0 -244 -79 -283 -235l-107 -430h-65l109 438
c47 183 172 287 351 287c111 0 196 -49 239 -126l-216 -184c117 -31 176 -97 176 -199c0 -38 -10 -74 -29 -109z" />
    <glyph glyph-name="Ygrave" unicode="&#x1ef2;" horiz-adv-x="602" 
d="M247 558c17 -42 41 -106 73 -191h2c75 85 131 149 169 191l134 154h86l-365 -408l-75 -304h-66l76 304l-162 408h69zM406 895l60 -135h-55l-85 135h80z" />
    <glyph glyph-name="ygrave" unicode="&#x1ef3;" horiz-adv-x="456" 
d="M524 508l-339 -532c-84 -132 -132 -165 -234 -165c-15 0 -29 2 -42 6l13 53c10 -3 22 -4 35 -4c78 3 100 22 174 134l-73 508h63l58 -429h2l272 429h71zM286 712l59 -141h-55l-84 141h80z" />
    <glyph glyph-name="uni2010" unicode="&#x2010;" horiz-adv-x="290" 
d="M32 261l15 62h230l-15 -62h-230z" />
    <glyph glyph-name="endash" unicode="&#x2013;" horiz-adv-x="500" 
d="M22 261l15 62h460l-15 -62h-460z" />
    <glyph glyph-name="emdash" unicode="&#x2014;" horiz-adv-x="1000" 
d="M22 261l15 62h960l-15 -62h-960z" />
    <glyph glyph-name="afii00208" unicode="&#x2015;" horiz-adv-x="1000" 
d="M-41 261l15 62h960l-15 -62h-960z" />
    <glyph glyph-name="underscoredbl" unicode="&#x2017;" horiz-adv-x="500" 
d="M-76 -50h500l-10 -38h-500zM-116 -210l10 38h500l-10 -38h-500z" />
    <glyph glyph-name="quoteleft" unicode="&#x2018;" horiz-adv-x="229" 
d="M154 584l73 128h44l-62 -128h29l-22 -90h-84z" />
    <glyph glyph-name="quoteright" unicode="&#x2019;" horiz-adv-x="229" 
d="M193 622h-29l22 90h84l-21 -90l-73 -128h-44z" />
    <glyph glyph-name="quotesinglbase" unicode="&#x201a;" horiz-adv-x="229" 
d="M38 0h-29l22 90h84l-21 -90l-73 -128h-44z" />
    <glyph glyph-name="quotereversed" unicode="&#x201b;" horiz-adv-x="229" 
d="M154 584l73 128h44l-62 -128h29l-22 -90h-84z" />
    <glyph glyph-name="quotedblleft" unicode="&#x201c;" horiz-adv-x="379" 
d="M282 494l22 90l73 128h44l-62 -128h29l-22 -90h-84zM132 494l22 90l73 128h44l-62 -128h29l-22 -90h-84z" />
    <glyph glyph-name="quotedblright" unicode="&#x201d;" horiz-adv-x="379" 
d="M282 494l61 128h-29l22 90h84l-21 -90l-73 -128h-44zM193 622h-29l22 90h84l-21 -90l-73 -128h-44z" />
    <glyph glyph-name="quotedblbase" unicode="&#x201e;" horiz-adv-x="379" 
d="M127 -128l61 128h-29l22 90h84l-21 -90l-73 -128h-44zM38 0h-29l22 90h84l-21 -90l-73 -128h-44z" />
    <glyph glyph-name="dagger" unicode="&#x2020;" horiz-adv-x="523" 
d="M105 460l14 55h175l49 197h65l-49 -197h175l-14 -55h-175l-144 -580h-65l144 580h-175z" />
    <glyph glyph-name="daggerdbl" unicode="&#x2021;" horiz-adv-x="523" 
d="M520 461h-175l-67 -268h175l-14 -55h-175l-63 -258h-65l64 258h-175l14 55h174l67 268h-175l14 55h175l49 196h65l-49 -196h175z" />
    <glyph glyph-name="bullet" unicode="&#x2022;" horiz-adv-x="322" 
d="M89 428c20 20 44 30 72 30c29 0 53 -10 73 -30s30 -44 30 -72s-10 -52 -30 -72s-44 -30 -73 -30c-28 0 -52 10 -72 30s-30 44 -30 72s10 52 30 72z" />
    <glyph glyph-name="ellipsis" unicode="&#x2026;" horiz-adv-x="681" 
d="M493 92h85l-22 -92h-86zM257 92h85l-22 -92h-86zM22 92h85l-22 -92h-86z" />
    <glyph glyph-name="perthousand" unicode="&#x2030;" horiz-adv-x="975" 
d="M113 574c24 64 73 113 141 113c71 0 106 -40 106 -115c1 -93 -57 -213 -159 -210c-69 0 -107 40 -107 116c0 31 6 63 19 96zM657 103c-1 92 59 213 160 210c71 0 106 -40 106 -116c1 -91 -56 -212 -158 -209c-69 0 -108 40 -108 115zM447 -12c-69 0 -108 40 -108 115
c-1 92 59 213 160 210c71 0 106 -40 106 -116c1 -91 -56 -212 -158 -209zM684 704l-607 -734h-62l606 734h63zM729 57c9 -12 21 -18 37 -18c64 -3 99 96 99 158c0 43 -16 64 -49 64c-64 3 -100 -95 -100 -155c0 -21 4 -38 13 -49zM444 236c-29 -35 -45 -89 -45 -130
c0 -43 17 -67 50 -67c63 -4 99 98 98 158c0 43 -16 64 -49 64c-21 0 -39 -8 -54 -25zM166 431c8 -11 20 -17 37 -17c62 -4 100 98 99 158c0 41 -17 64 -49 64c-64 3 -100 -96 -100 -156c0 -21 4 -38 13 -49z" />
    <glyph glyph-name="minute" unicode="&#x2032;" horiz-adv-x="172" 
d="M181 674h66l-124 -220h-43z" />
    <glyph glyph-name="second" unicode="&#x2033;" horiz-adv-x="296" 
d="M213 454l101 220h66l-124 -220h-43zM181 674h66l-124 -220h-43z" />
    <glyph glyph-name="guilsinglleft" unicode="&#x2039;" horiz-adv-x="276" 
d="M51 258l159 196h66l-163 -204l63 -196h-58z" />
    <glyph glyph-name="guilsinglright" unicode="&#x203a;" horiz-adv-x="276" 
d="M163 258l-63 196h58l67 -204l-158 -196h-67z" />
    <glyph glyph-name="exclamdbl" unicode="&#x203c;" horiz-adv-x="463" 
d="M410 712h83l-152 -548h-52zM77 164l121 548h83l-152 -548h-52zM258 93h78l-22 -93h-79zM124 93l-22 -93h-79l23 93h78z" />
    <glyph glyph-name="uni203D" unicode="&#x203d;" horiz-adv-x="501" 
d="M482 394c-22 -29 -61 -59 -116 -92c-88 -53 -98 -61 -123 -147h-52l96 430c-67 -11 -116 -57 -137 -133h-64c33 117 110 185 215 193l15 67h76l-19 -70c88 -16 141 -75 141 -156c0 -33 -11 -63 -32 -92zM281 304c13 11 32 25 55 40c44 29 73 54 88 74s22 42 22 65
c0 53 -33 89 -90 100l-77 -279h2zM143 0l23 93h79l-23 -93h-79z" />
    <glyph glyph-name="uni203E" unicode="&#x203e;" horiz-adv-x="500" 
d="M135 793l12 52h500l-12 -52h-500z" />
    <glyph glyph-name="fraction" unicode="&#x2044;" horiz-adv-x="147" 
d="M342 674h65l-560 -674h-65z" />
    <glyph glyph-name="uni2070" unicode="&#x2070;" horiz-adv-x="415" 
d="M438 504c-18 -51 -44 -95 -78 -130c-34 -36 -75 -54 -122 -54c-85 0 -130 57 -130 165c0 45 9 93 26 144s42 94 75 130c33 35 74 53 121 53c88 0 134 -58 134 -166c0 -44 -9 -91 -26 -142zM165 488c0 -76 28 -118 77 -118c34 0 63 16 88 47c24 31 42 68 55 111
s19 82 19 115c0 76 -25 117 -76 117c-34 0 -63 -15 -88 -46s-43 -69 -56 -112s-19 -81 -19 -114z" />
    <glyph glyph-name="uni2074" unicode="&#x2074;" horiz-adv-x="384" 
d="M423 454h-81l-31 -124h-56l31 124h-225l13 59l277 289h78l-74 -298h80zM299 504l36 143c18 69 26 99 23 90h-2l-223 -233h166z" />
    <glyph glyph-name="uni2075" unicode="&#x2075;" horiz-adv-x="396" 
d="M459 752h-215l-48 -138h2c23 16 55 26 84 26c84 0 133 -50 133 -134c1 -84 -72 -189 -190 -186c-87 0 -139 40 -139 107c0 9 1 18 3 28h59c-1 -5 -2 -12 -2 -20c0 -40 31 -63 82 -63c85 0 129 73 129 129s-33 89 -86 89c-47 0 -82 -26 -105 -71l-56 4l97 279h264z" />
    <glyph glyph-name="uni2076" unicode="&#x2076;" horiz-adv-x="401" 
d="M465 681h-58v7c0 48 -24 72 -73 72c-67 0 -126 -59 -158 -168h2c35 31 72 46 113 46c81 0 132 -53 132 -138c2 -78 -71 -183 -179 -180c-91 0 -138 52 -138 156c0 46 9 95 27 148c18 52 45 96 80 133s76 55 125 55c80 0 128 -45 128 -112c0 -8 0 -14 -1 -19zM160 462
c0 -53 32 -90 84 -90c78 0 120 72 120 124c0 56 -30 92 -81 92c-76 0 -123 -66 -123 -126z" />
    <glyph glyph-name="uni2077" unicode="&#x2077;" horiz-adv-x="348" 
d="M117 330c81 167 173 307 278 422h-261l13 50h326l-12 -51c-101 -109 -202 -257 -275 -421h-69z" />
    <glyph glyph-name="uni2078" unicode="&#x2078;" horiz-adv-x="403" 
d="M122 532c21 25 51 41 89 48v2c-38 22 -57 53 -57 94c0 64 64 136 168 136c87 0 143 -48 143 -117c0 -57 -42 -110 -111 -129v-2c39 -13 62 -52 62 -100c0 -71 -67 -144 -177 -144c-93 0 -150 50 -150 130c0 29 11 57 33 82zM173 393c17 -14 40 -21 70 -21
c77 0 117 51 117 98c0 48 -36 78 -96 78c-75 0 -117 -46 -117 -97c0 -25 9 -44 26 -58zM384 742c-16 12 -38 18 -65 18c-69 0 -109 -43 -109 -90c0 -44 32 -72 88 -72c71 0 109 45 109 92c0 22 -8 39 -23 52z" />
    <glyph glyph-name="uni2079" unicode="&#x2079;" horiz-adv-x="401" 
d="M424 509c-18 -53 -44 -97 -79 -134s-77 -55 -126 -55c-80 0 -128 45 -128 112c0 8 0 14 1 19h58v-7c0 -48 24 -72 73 -72c67 0 126 59 158 168h-2c-35 -31 -72 -46 -113 -46c-81 0 -132 53 -132 138c-2 78 71 183 179 180c91 0 138 -52 138 -156c0 -46 -9 -95 -27 -147z
M193 636c0 -56 30 -92 81 -92c76 0 123 66 123 126c0 53 -32 90 -84 90c-78 0 -120 -72 -120 -124z" />
    <glyph glyph-name="uni207A" unicode="&#x207a;" horiz-adv-x="405" 
d="M52 575h127v124h47v-124h127v-47h-127v-123h-47v123h-127v47z" />
    <glyph glyph-name="uni207B" unicode="&#x207b;" horiz-adv-x="406" 
d="M353 575v-47h-301v47h301z" />
    <glyph glyph-name="uni207C" unicode="&#x207c;" horiz-adv-x="405" 
d="M51 472v47h301v-47h-301zM51 584v47h301v-47h-301z" />
    <glyph glyph-name="uni207D" unicode="&#x207d;" horiz-adv-x="204" 
d="M97 425c0 70 16 142 47 217s76 144 137 207h50c-121 -145 -180 -300 -180 -441c0 -55 8 -116 25 -181h-44c-23 64 -35 130 -35 198z" />
    <glyph glyph-name="uni207E" unicode="&#x207e;" horiz-adv-x="204" 
d="M15 227c121 145 180 300 180 441c0 55 -8 116 -25 181h44c23 -64 35 -130 35 -198c0 -70 -15 -142 -46 -217s-77 -144 -138 -207h-50z" />
    <glyph glyph-name="uni2080" unicode="&#x2080;" horiz-adv-x="415" 
d="M313 2c-18 -51 -44 -95 -78 -131c-34 -35 -75 -53 -122 -53c-85 0 -130 57 -130 165c0 45 8 93 26 144c17 51 42 94 75 130c33 35 74 53 121 53c88 0 134 -58 134 -166c0 -44 -9 -91 -26 -142zM40 -14c0 -76 28 -118 77 -118c34 0 63 15 88 46c24 31 42 69 55 112
s19 82 19 115c0 76 -25 117 -76 117c-34 0 -63 -15 -88 -46s-43 -69 -56 -112s-19 -81 -19 -114z" />
    <glyph glyph-name="uni2081" unicode="&#x2081;" horiz-adv-x="247" 
d="M3 221c75 0 111 22 135 79h45l-118 -472h-56l86 348h-104z" />
    <glyph glyph-name="uni2082" unicode="&#x2082;" horiz-adv-x="400" 
d="M333 192c0 -38 -13 -71 -40 -98s-73 -57 -136 -88c-54 -27 -91 -49 -112 -67s-34 -38 -40 -61h264l-12 -50h-324c23 114 63 154 201 224c53 26 89 48 109 67c19 18 29 40 29 65c0 49 -25 74 -76 74c-56 0 -95 -35 -112 -94h-62c27 95 91 146 178 146
c81 0 133 -49 133 -118z" />
    <glyph glyph-name="uni2083" unicode="&#x2083;" horiz-adv-x="395" 
d="M330 194c0 -56 -36 -106 -113 -131v-1c41 -19 64 -51 64 -95c0 -68 -66 -149 -179 -149c-95 0 -145 41 -145 113c0 14 2 26 5 36h57c-3 -10 -4 -20 -4 -29c0 -46 29 -69 88 -69c76 0 122 51 122 97c0 51 -35 76 -100 76h-18l11 50h20c91 0 136 51 136 99
c0 41 -34 67 -87 67c-62 0 -101 -32 -116 -95h-58c21 92 89 147 174 147c91 0 143 -44 143 -116z" />
    <glyph glyph-name="uni2084" unicode="&#x2084;" horiz-adv-x="384" 
d="M298 -48h-81l-31 -124h-56l31 124h-225l13 59l277 289h78l-74 -298h80zM174 2l36 143c18 69 26 99 23 90h-2l-223 -233h166z" />
    <glyph glyph-name="uni2085" unicode="&#x2085;" horiz-adv-x="398" 
d="M336 250h-215l-48 -138h2c23 16 55 26 84 26c84 0 133 -50 133 -134c1 -84 -72 -188 -190 -186c-87 0 -139 40 -139 107c0 9 1 18 3 28h59c-1 -5 -2 -12 -2 -20c0 -40 31 -63 82 -63c85 0 129 73 129 129s-33 89 -86 89c-47 0 -82 -26 -105 -71l-56 4l97 279h264z" />
    <glyph glyph-name="uni2086" unicode="&#x2086;" horiz-adv-x="401" 
d="M340 179h-58v7c0 48 -24 72 -73 72c-67 0 -126 -59 -158 -168h2c35 31 72 46 113 46c81 0 132 -53 132 -138c2 -78 -71 -183 -179 -180c-91 0 -138 52 -138 156c0 46 9 95 27 148c18 52 45 96 80 133s76 55 125 55c80 0 128 -45 128 -112c0 -8 0 -14 -1 -19zM35 -40
c0 -53 32 -90 84 -90c78 0 120 72 120 124c0 56 -30 92 -81 92c-76 0 -123 -66 -123 -126z" />
    <glyph glyph-name="uni2087" unicode="&#x2087;" horiz-adv-x="349" 
d="M-8 -172c81 167 173 307 278 422h-261l13 50h326l-12 -51c-101 -109 -202 -257 -275 -421h-69z" />
    <glyph glyph-name="uni2088" unicode="&#x2088;" horiz-adv-x="402" 
d="M-5 30c22 25 52 41 90 48v2c-38 22 -57 53 -57 94c0 64 64 136 168 136c87 0 143 -48 143 -117c0 -57 -42 -110 -111 -129v-2c39 -13 62 -52 62 -100c0 -71 -67 -144 -177 -144c-93 0 -150 50 -150 130c0 29 11 57 32 82zM47 -109c17 -14 40 -21 70 -21
c77 0 117 51 117 98c0 48 -36 78 -96 78c-75 0 -117 -46 -117 -97c0 -25 9 -44 26 -58zM258 240c-16 12 -38 18 -65 18c-69 0 -109 -43 -109 -90c0 -44 32 -72 88 -72c71 0 109 45 109 92c0 22 -8 39 -23 52z" />
    <glyph glyph-name="uni2089" unicode="&#x2089;" horiz-adv-x="401" 
d="M299 7c-18 -53 -44 -97 -79 -134s-77 -55 -126 -55c-80 0 -128 45 -128 112c0 8 0 14 1 19h58v-7c0 -48 24 -72 73 -72c67 0 126 59 158 168h-2c-35 -31 -72 -46 -113 -46c-81 0 -132 53 -132 138c-2 78 71 183 179 180c91 0 138 -52 138 -156c0 -46 -9 -95 -27 -147z
M68 134c0 -56 30 -92 81 -92c76 0 123 66 123 126c0 53 -32 90 -84 90c-78 0 -120 -72 -120 -124z" />
    <glyph glyph-name="uni208A" unicode="&#x208a;" horiz-adv-x="405" 
d="M52 73h127v124h47v-124h127v-47h-127v-123h-47v123h-127v47z" />
    <glyph glyph-name="uni208B" unicode="&#x208b;" horiz-adv-x="405" 
d="M353 73v-47h-301v47h301z" />
    <glyph glyph-name="uni208C" unicode="&#x208c;" horiz-adv-x="405" 
d="M51 -30v47h301v-47h-301zM51 82v47h301v-47h-301z" />
    <glyph glyph-name="uni208D" unicode="&#x208d;" horiz-adv-x="204" 
d="M-28 -77c0 70 15 142 47 217c31 75 76 144 137 207h50c-121 -145 -180 -300 -180 -441c0 -55 8 -116 25 -181h-44c-23 64 -35 130 -35 198z" />
    <glyph glyph-name="uni208E" unicode="&#x208e;" horiz-adv-x="204" 
d="M-111 -275c121 145 180 300 180 441c0 55 -8 116 -25 181h44c23 -64 35 -130 35 -198c0 -70 -15 -142 -46 -217s-77 -144 -138 -207h-50z" />
    <glyph glyph-name="uni2099" unicode="&#x2099;" horiz-adv-x="409" 
d="M300 36l-52 -208h-53l52 208c4 18 6 34 6 47c0 41 -23 63 -66 63c-57 0 -112 -40 -131 -111l-51 -207h-54l89 356h53l-11 -43h1c31 32 73 51 117 51c69 0 108 -37 108 -105c0 -15 -3 -32 -8 -51z" />
    <glyph glyph-name="franc" unicode="&#x20a3;" horiz-adv-x="544" 
d="M599 615h-332l-55 -219h311l-15 -60h-311l-32 -131h177l-14 -55h-177l-37 -150h-66l37 150h-87l14 55h87l117 469h398z" />
    <glyph glyph-name="lira" unicode="&#x20a4;" horiz-adv-x="544" 
d="M433 0h-472l14 56c67 0 112 45 134 136l13 51h-101l13 54h101l16 64h-100l13 53h101l22 90c29 120 106 183 215 183c103 0 160 -54 160 -149c0 -16 -2 -33 -6 -51h-61c3 18 5 32 5 43c0 64 -37 97 -102 97c-77 0 -129 -48 -152 -136l-19 -77h127l-13 -53h-127l-16 -64
h127l-14 -54h-126l-13 -51c-16 -68 -41 -106 -82 -134v-2h357z" />
    <glyph glyph-name="peseta" unicode="&#x20a7;" horiz-adv-x="811" 
d="M768 626l-29 -118h102l-13 -52h-102l-79 -317c-4 -15 -6 -28 -6 -38c0 -35 18 -50 57 -50c11 0 23 1 35 4l-13 -54c-15 -3 -27 -4 -37 -4c-72 0 -104 29 -104 94c0 19 3 38 8 57l77 308h-78c-16 -102 -104 -197 -262 -197h-158l-63 -259h-65l167 674h162
c136 0 212 -62 220 -166h90l29 118h62zM326 318c133 0 196 89 196 167c0 84 -53 130 -160 130h-107l-74 -297h145z" />
    <glyph glyph-name="Euro" unicode="&#x20ac;" horiz-adv-x="544" 
d="M481 595c-21 21 -53 31 -94 31c-52 0 -97 -19 -134 -58c-38 -39 -68 -89 -89 -149h276l-24 -53h-268c-5 -20 -10 -41 -13 -64h254l-24 -53h-234v-7c0 -128 48 -194 141 -194c79 0 141 54 174 151h68c-47 -136 -138 -212 -251 -212c-131 0 -199 87 -199 254v8h-64l23 53
h45c2 18 6 39 11 64h-50l23 53h42c25 77 63 141 114 192s112 76 184 76c121 0 189 -60 189 -173c0 -12 -1 -26 -3 -41h-68c2 10 3 20 3 29c0 41 -11 72 -32 93z" />
    <glyph glyph-name="uni20B9" unicode="&#x20b9;" horiz-adv-x="544" 
d="M593 620h-189v-2c37 -17 57 -49 60 -94h119l-28 -54h-95c-21 -73 -98 -135 -215 -155v-2c40 -19 63 -55 80 -120l51 -193h-69l-46 179c-23 88 -60 121 -135 121h-16l14 55h52c119 0 191 51 215 115h-310l29 54h287c-7 64 -62 96 -166 96h-112l29 54h473z" />
    <glyph glyph-name="uni20BA" unicode="&#x20ba;" horiz-adv-x="544" 
d="M529 316c-40 -211 -178 -319 -403 -319c-25 0 -49 1 -71 3l73 291l-109 -53l15 61l108 52l25 96l-109 -52l15 61l109 52l41 166h65l-34 -137l190 91l-15 -60l-190 -91l-24 -96l190 91l-15 -60l-190 -92l-66 -264c86 0 158 23 217 68c58 45 95 109 110 192h68z" />
    <glyph glyph-name="uni20BC" unicode="&#x20bc;" horiz-adv-x="626" 
d="M580 267l-67 -267h-64l69 279c10 39 15 73 15 100c0 92 -39 137 -120 148l-131 -527h-64l132 530c-129 -4 -184 -65 -224 -226l-75 -304h-65l80 319c48 194 131 273 295 275h5l29 118h64l-30 -122c112 -17 167 -82 167 -209c0 -34 -5 -72 -16 -114z" />
    <glyph glyph-name="uni20BD" unicode="&#x20bd;" horiz-adv-x="544" 
d="M541 394c-37 -67 -113 -115 -221 -115h-155l-19 -74h205l-14 -55h-205l-37 -150h-62l37 150h-83l14 55h82l19 74h-83l14 56h83l85 339h162c135 0 205 -65 205 -177c0 -35 -9 -70 -27 -103zM178 335h144c124 0 181 86 181 160c0 79 -49 123 -146 123h-108z" />
    <glyph glyph-name="afii61248" unicode="&#x2105;" horiz-adv-x="859" 
d="M664 362c93 0 146 -54 146 -150c1 -101 -74 -228 -200 -225c-92 0 -143 55 -143 151c-2 102 72 227 197 224zM614 34c88 -3 142 102 141 180c0 64 -33 101 -94 101c-89 3 -141 -101 -140 -179c0 -65 32 -102 93 -102zM112 563c31 71 92 124 179 124
c85 0 135 -50 135 -127c0 -7 0 -12 -1 -15h-55c1 3 1 7 1 13c0 51 -31 83 -84 83c-86 3 -143 -101 -142 -181c0 -63 33 -101 84 -101s95 38 112 86h58c-28 -79 -94 -133 -174 -133c-83 0 -136 55 -136 146c0 35 8 70 23 105zM757 674l-560 -674h-65l560 674h65z" />
    <glyph glyph-name="afii61289" unicode="&#x2113;" horiz-adv-x="435" 
d="M418 552c2 -137 -94 -320 -253 -350l-14 -57c-4 -17 -6 -32 -6 -44c0 -39 18 -56 59 -56c17 0 35 3 52 8l-14 -56c-16 -4 -33 -6 -50 -6c-75 0 -110 34 -110 103c0 17 3 38 9 62l10 39c-19 0 -38 2 -58 7l11 43c17 -3 33 -5 49 -5h9l68 269c33 132 75 178 144 178
c59 0 94 -42 94 -135zM285 323c59 68 88 158 88 231c0 55 -16 83 -49 83c-36 0 -58 -31 -81 -123l-65 -262c41 13 77 37 107 71z" />
    <glyph glyph-name="afii61352" unicode="&#x2116;" horiz-adv-x="1120" 
d="M215 712h92l110 -316c43 -125 81 -235 114 -331h2c34 139 63 257 88 356l72 291h65l-177 -712h-92l-110 316c-43 125 -81 235 -114 331h-2c-12 -49 -37 -148 -74 -296l-86 -351h-65zM1092 574c25 -27 38 -64 38 -111c2 -102 -73 -229 -200 -226c-92 0 -143 55 -143 151
c-2 102 72 229 197 225c47 0 83 -13 108 -39zM981 566c-89 3 -141 -102 -140 -180c0 -65 32 -102 93 -102c88 -3 142 103 141 181c0 64 -33 101 -94 101zM1037 116h-308l13 53h308z" />
    <glyph glyph-name="uni2117" unicode="&#x2117;" horiz-adv-x="814" 
d="M721 548c29 -55 44 -119 44 -192c3 -217 -146 -369 -358 -367c-211 -2 -360 150 -358 367c-2 217 147 369 358 367c141 0 254 -64 314 -175zM573 640c-48 27 -103 40 -166 40c-189 0 -316 -130 -316 -324s127 -324 316 -324s316 131 316 324c0 128 -55 229 -150 284z
M434 588c116 0 180 -53 180 -148c0 -93 -65 -147 -180 -147h-99v-183h-63v478h162zM335 351h98c75 0 116 30 116 89c0 60 -41 91 -116 91h-98v-180z" />
    <glyph glyph-name="trademark" unicode="&#x2122;" horiz-adv-x="787" 
d="M784 655l-76 -125l-110 -174h-57l-21 174c-3 25 -7 66 -14 125h-2l-74 -299h-51l89 356h78l19 -164c6 -45 11 -90 15 -135h2c36 60 64 105 83 135l101 164h84l-89 -356h-50l75 299h-2zM119 712h293l-11 -46h-121l-78 -310h-51l77 310h-121z" />
    <glyph glyph-name="uni2126" unicode="&#x2126;" horiz-adv-x="726" 
d="M651 267c-43 -68 -107 -137 -192 -206v-2h177l-14 -59h-257l15 61c181 147 265 270 265 411c0 127 -74 192 -198 192c-191 4 -302 -179 -300 -331c0 -97 32 -173 95 -272l-15 -61h-249l14 59h183v2c-60 97 -93 178 -93 278c-2 180 132 391 371 386
c164 0 262 -82 262 -243c0 -75 -21 -147 -64 -215z" />
    <glyph glyph-name="estimated" unicode="&#x212e;" horiz-adv-x="859" 
d="M812 326h-610c-8 0 -13 -5 -13 -12v-166c0 -23 3 -33 15 -44c62 -61 137 -91 226 -91c96 0 185 44 238 109h69c-27 -37 -66 -68 -118 -94c-52 -27 -115 -40 -189 -40c-227 -3 -386 147 -383 348c-2 197 150 354 383 351c234 3 384 -167 382 -361zM189 361
c0 -9 4 -13 13 -13h454c9 0 13 4 13 13v166c0 20 -3 29 -15 41c-63 62 -137 93 -224 93c-89 0 -164 -31 -226 -93c-12 -12 -15 -21 -15 -41v-166z" />
    <glyph glyph-name="oneeighth" unicode="&#x215b;" horiz-adv-x="715" 
d="M656 385c23 -19 34 -43 34 -73c0 -52 -35 -94 -98 -110v-2c37 -11 55 -39 55 -84c0 -63 -58 -125 -151 -125c-84 0 -133 44 -133 113c0 53 40 99 105 110v2c-31 13 -51 45 -51 82c0 54 56 115 147 115c38 0 69 -9 92 -28zM627 674l-560 -674h-65l560 674h65zM85 561
l12 46c65 0 97 18 117 67h45l-100 -404h-56l72 291h-90zM591 121c0 39 -27 61 -76 61c-61 0 -94 -36 -94 -77c0 -39 30 -62 78 -62c59 0 92 39 92 78zM610 255c14 14 21 30 21 49c0 35 -25 57 -72 57c-55 0 -85 -32 -85 -71c0 -36 26 -57 71 -57c29 0 51 7 65 22z" />
    <glyph glyph-name="threeeighths" unicode="&#x215c;" horiz-adv-x="839" 
d="M620 -9c-84 0 -133 44 -133 113c0 53 40 99 105 110v2c-31 13 -51 45 -51 82c0 54 56 115 147 115c76 0 126 -41 126 -101c0 -52 -35 -94 -98 -110v-2c37 -11 55 -39 55 -84c0 -63 -58 -125 -151 -125zM59 360c0 11 1 21 4 32h59c-2 -9 -3 -17 -3 -26
c0 -37 22 -54 69 -54c60 0 96 37 96 78c0 39 -29 59 -81 59h-14l12 51h15c72 0 110 39 110 80c0 32 -25 52 -68 52c-49 0 -81 -26 -94 -77h-57c17 80 77 128 153 128c79 0 123 -37 123 -100c0 -51 -30 -87 -91 -109v-2c31 -16 49 -46 49 -82c0 -58 -57 -129 -154 -129
c-83 0 -128 36 -128 99zM751 674l-560 -674h-65l560 674h65zM691 68c16 16 24 34 24 53c0 39 -27 61 -76 61c-61 0 -94 -36 -94 -77c0 -39 30 -62 78 -62c29 0 52 8 68 25zM620 340c-15 -14 -22 -31 -22 -50c0 -36 26 -57 71 -57c59 0 86 34 86 71c0 35 -25 57 -72 57
c-27 0 -48 -7 -63 -21z" />
    <glyph glyph-name="fiveeighths" unicode="&#x215d;" horiz-adv-x="841" 
d="M593 214v2c-31 13 -51 45 -51 82c0 54 56 115 147 115c76 0 126 -41 126 -101c0 -52 -35 -94 -98 -110v-2c37 -11 55 -39 55 -84c0 -63 -58 -125 -151 -125c-84 0 -133 44 -133 113c0 53 40 99 105 110zM63 354c0 7 1 15 3 24h58c-1 -3 -1 -8 -1 -15c0 -31 27 -50 67 -50
c67 0 102 59 102 103c0 45 -26 71 -70 71c-36 0 -65 -20 -82 -56l-57 4l83 239h232l-12 -51h-182l-37 -107h1c17 15 38 22 65 22c75 0 117 -44 117 -117c0 -74 -60 -160 -164 -160c-77 0 -123 34 -123 93zM752 674l-560 -674h-65l560 674h65zM567 60c14 -11 33 -17 57 -17
c59 0 92 39 92 78s-27 61 -76 61c-61 0 -94 -36 -94 -77c0 -19 7 -34 21 -45zM599 290c0 -36 26 -57 71 -57c59 0 86 34 86 71c0 35 -25 57 -72 57c-55 0 -85 -32 -85 -71z" />
    <glyph glyph-name="seveneighths" unicode="&#x215e;" horiz-adv-x="747" 
d="M687 385c23 -19 34 -43 34 -73c0 -52 -35 -94 -98 -110v-2c37 -11 55 -39 55 -84c0 -63 -58 -125 -151 -125c-84 0 -133 44 -133 113c0 53 40 99 105 110v2c-31 13 -51 45 -51 82c0 54 56 115 147 115c38 0 69 -9 92 -28zM658 674l-560 -674h-65l560 674h65zM87 270
c72 149 156 270 231 353h-217l13 51h283l-12 -51c-84 -88 -168 -217 -228 -353h-70zM546 182c-61 0 -94 -36 -94 -77c0 -39 30 -62 78 -62c59 0 92 39 92 78s-27 61 -76 61zM641 255c14 14 21 30 21 49c0 35 -25 57 -72 57c-55 0 -85 -32 -85 -71c0 -36 26 -57 71 -57
c29 0 51 7 65 22z" />
    <glyph glyph-name="uni2166" unicode="&#x2166;" horiz-adv-x="1131" 
d="M186 712l36 -337c8 -69 19 -173 34 -312h2l188 312l205 337h73l-434 -712h-88l-81 712h65zM635 0l177 712h65l-177 -712h-65zM1144 712l-177 -712h-65l177 712h65z" />
    <glyph glyph-name="partialdiff" unicode="&#x2202;" horiz-adv-x="589" 
d="M520 263c-25 -77 -63 -143 -114 -196s-112 -80 -185 -80c-120 0 -183 70 -183 193c0 40 10 83 31 130s52 86 93 119s90 49 147 49c95 0 151 -48 168 -113h2c10 40 15 80 15 119c0 116 -48 181 -140 181c-71 0 -119 -42 -139 -115h-68c28 108 101 175 206 175
c133 0 204 -88 204 -243c0 -69 -12 -142 -37 -219zM105 178c0 -84 41 -131 121 -131c134 -5 213 151 212 234c0 84 -46 137 -127 137c-132 4 -207 -146 -206 -240z" />
    <glyph glyph-name="uni2206" unicode="&#x2206;" horiz-adv-x="664" 
d="M-57 0l459 712h89l104 -712h-652zM56 59h465l-41 305l-41 295h-2c-74 -118 -136 -216 -187 -295z" />
    <glyph glyph-name="product" unicode="&#x220f;" horiz-adv-x="652" 
d="M101 712h450v-832h-65v773h-320v-773h-65v832z" />
    <glyph glyph-name="summation" unicode="&#x2211;" horiz-adv-x="471" 
d="M35 712h401v-58h-329l214 -362l-214 -354h329v-58h-401v58l216 354l-216 362v58z" />
    <glyph glyph-name="minus" unicode="&#x2212;" horiz-adv-x="566" 
d="M492 345v-57h-418v57h418z" />
    <glyph glyph-name="uni2215" unicode="&#x2215;" horiz-adv-x="442" 
d="M384 745h70l-503 -834h-70z" />
    <glyph glyph-name="uni2219" unicode="&#x2219;" horiz-adv-x="335" 
d="M210 351v-91h-85v91h85z" />
    <glyph glyph-name="radical" unicode="&#x221a;" horiz-adv-x="541" 
d="M25 352h123l97 -406h2l218 766h56l-238 -832h-77l-100 420h-81v52z" />
    <glyph glyph-name="infinity" unicode="&#x221e;" horiz-adv-x="606" 
d="M555 205c-25 -27 -56 -40 -95 -40c-69 0 -112 37 -157 98c-45 -61 -88 -98 -156 -98c-79 0 -132 58 -132 143s53 143 132 143c68 0 111 -37 156 -98c45 61 88 98 157 98c77 0 131 -58 131 -143c0 -43 -12 -77 -36 -103zM334 308c40 -57 71 -87 120 -87c51 0 80 32 80 87
s-29 87 -80 87c-49 0 -80 -30 -120 -87zM72 308c0 -55 31 -87 80 -87s80 30 120 87c-40 57 -71 87 -120 87s-80 -32 -80 -87z" />
    <glyph glyph-name="integral" unicode="&#x222b;" horiz-adv-x="295" 
d="M43 -136c49 0 73 26 73 90v625c0 91 42 137 125 137c13 0 27 -1 42 -4v-53c-8 3 -19 4 -32 4c-49 0 -73 -26 -73 -90v-625c0 -91 -41 -137 -124 -137c-15 0 -29 1 -42 4v53c8 -3 18 -4 31 -4z" />
    <glyph glyph-name="approxequal" unicode="&#x2248;" horiz-adv-x="566" 
d="M445 472h53c0 -83 -46 -139 -117 -139c-43 0 -71 18 -114 53c-32 28 -54 43 -82 43c-40 0 -64 -32 -64 -83h-53c0 83 46 139 117 139c44 0 71 -18 114 -54c37 -31 54 -43 82 -43c40 0 64 32 64 84zM100 263c21 25 50 38 85 38c44 0 71 -18 114 -54c36 -29 54 -42 82 -42
c40 0 64 32 64 83h53c0 -83 -46 -139 -117 -139c-44 0 -73 19 -114 54c-35 29 -54 43 -82 43c-40 0 -64 -32 -64 -84h-53c0 41 11 75 32 101z" />
    <glyph glyph-name="notequal" unicode="&#x2260;" horiz-adv-x="566" 
d="M492 212h-246l-88 -132h-63l87 132h-108v56h145l65 97h-210v56h247l87 132h64l-88 -132h108v-56h-145l-64 -97h209v-56z" />
    <glyph glyph-name="lessequal" unicode="&#x2264;" horiz-adv-x="566" 
d="M74 281v75l418 175v-61l-359 -150v-2l359 -150v-62zM74 0v56h418v-56h-418z" />
    <glyph glyph-name="greaterequal" unicode="&#x2265;" horiz-adv-x="566" 
d="M433 318v2l-359 150v61l418 -175v-75l-418 -175v62zM74 0v56h418v-56h-418z" />
    <glyph glyph-name="lozenge" unicode="&#x25ca;" horiz-adv-x="574" 
d="M247 712h80l207 -356l-207 -356h-80l-207 356zM287 46l181 310l-181 310l-182 -310z" />
    <glyph glyph-name="uniF8FF" unicode="&#xf8ff;" horiz-adv-x="614" 
 />
    <glyph glyph-name="uniFB00" unicode="&#xfb00;" horiz-adv-x="541" 
d="M628 659c-9 3 -19 4 -30 4c-51 0 -82 -27 -98 -95l-15 -60h102l-12 -52h-103l-113 -456h-62l114 456h-193l-113 -456h-62l114 456h-92l13 52h92l19 76c21 88 72 132 152 132c17 0 33 -2 46 -5l-13 -52c-9 3 -19 4 -30 4c-51 0 -82 -27 -98 -95l-15 -60h193l19 76
c21 88 72 132 152 132c18 0 33 -2 45 -5z" />
    <glyph glyph-name="uniFB01" unicode="&#xfb01;" horiz-adv-x="516" 
d="M43 0l114 456h-92l13 52h92l19 76c21 88 72 132 152 132c17 0 33 -2 46 -5l-13 -52c-9 3 -19 4 -30 4c-51 0 -82 -27 -98 -95l-15 -60h103l-13 -52h-103l-113 -456h-62zM307 0l126 508h62l-126 -508h-62zM525 624h-62l21 88h62z" />
    <glyph glyph-name="uniFB02" unicode="&#xfb02;" horiz-adv-x="516" 
d="M157 456h-92l13 52h92l19 76c21 88 72 132 152 132c17 0 33 -2 46 -5l-13 -52c-9 3 -19 4 -30 4c-51 0 -82 -27 -98 -95l-15 -60h103l-13 -52h-103l-113 -456h-62zM546 712l-177 -712h-62l177 712h62z" />
    <glyph glyph-name="uniFB03" unicode="&#xfb03;" horiz-adv-x="769" 
d="M628 659c-9 3 -19 4 -30 4c-51 0 -82 -27 -98 -95l-15 -60h102l-12 -52h-103l-113 -456h-62l114 456h-193l-113 -456h-62l114 456h-92l13 52h92l19 76c21 88 72 132 152 132c17 0 33 -2 46 -5l-13 -52c-9 3 -19 4 -30 4c-51 0 -82 -27 -98 -95l-15 -60h193l19 76
c21 88 72 132 152 132c18 0 33 -2 45 -5zM749 508l-126 -508h-62l126 508h62zM717 624l21 88h62l-21 -88h-62z" />
    <glyph glyph-name="uniFB04" unicode="&#xfb04;" horiz-adv-x="769" 
d="M43 0l114 456h-92l13 52h92l19 76c21 88 72 132 152 132c17 0 33 -2 46 -5l-13 -52c-9 3 -19 4 -30 4c-51 0 -82 -27 -98 -95l-15 -60h193l19 76c21 88 72 132 152 132c18 0 33 -2 45 -5l-12 -52c-9 3 -19 4 -30 4c-51 0 -82 -27 -98 -95l-15 -60h102l-12 -52h-103
l-113 -456h-62l114 456h-193l-113 -456h-62zM623 0h-62l177 712h62z" />
    <glyph glyph-name="uniFEFF" unicode="&#xfeff;" horiz-adv-x="0" 
 />
    <glyph glyph-name="glyph202" horiz-adv-x="337" 
d="M-33 62c12 -3 24 -5 36 -5c83 0 135 43 160 142l127 513h66l-133 -531c-29 -123 -108 -185 -220 -185c-21 0 -37 3 -50 8zM281 775l121 141h88l-146 -141h-63z" />
    <glyph glyph-name="Ccedilla.salt" horiz-adv-x="684" 
d="M676 459h-68c2 13 3 26 3 37c0 103 -68 168 -175 168c-63 0 -118 -20 -164 -60c-46 -41 -81 -91 -104 -152c-24 -61 -36 -120 -36 -179c0 -137 69 -225 186 -225c54 0 103 16 147 49c43 33 76 76 97 130h68c-24 -73 -64 -131 -121 -174c-57 -44 -122 -66 -196 -66
c-78 0 -139 25 -182 76c-44 50 -66 118 -66 203c0 71 15 142 44 213s72 129 129 176s126 70 206 70c147 0 235 -92 235 -224c0 -14 -1 -28 -3 -42zM263 -49h64l-136 -159h-87z" />
    <glyph glyph-name="Scedilla.salt" horiz-adv-x="599" 
d="M442 259c-23 32 -61 51 -133 76c-83 29 -129 52 -157 98c-15 23 -22 52 -22 88c-2 92 88 207 249 204c145 0 217 -59 217 -177c0 -19 -2 -38 -7 -57h-66c5 18 7 35 7 50c0 83 -52 125 -156 125c-121 0 -178 -76 -178 -139c0 -35 11 -61 34 -79c22 -18 59 -36 111 -53
c83 -28 130 -51 161 -98c15 -24 23 -55 23 -93c2 -102 -96 -220 -271 -217c-143 0 -220 63 -220 186c0 21 2 43 7 64h65c-4 -22 -6 -42 -6 -59c0 -87 53 -131 158 -131c142 0 201 81 201 151c0 25 -6 45 -17 61zM218 -49h64l-136 -159h-87z" />
    <glyph glyph-name="Tcommaaccent.salt" horiz-adv-x="592" 
d="M124 712h572l-16 -59h-253l-162 -653h-65l162 653h-253zM45 -208l159 159h64l-136 -159h-87z" />
    <glyph glyph-name="i.locl" horiz-adv-x="228" 
d="M146 508h62l-126 -508h-62zM197 712h62l-21 -88h-62z" />
    <glyph glyph-name="glyph314" horiz-adv-x="235" 
d="M-113 -130c10 -3 20 -4 29 -4c53 0 84 28 103 103l134 539h62l-139 -555c-25 -100 -78 -142 -155 -142c-17 0 -33 2 -47 6zM142 571l121 141h88l-146 -141h-63z" />
    <glyph glyph-name="ccedilla.salt" horiz-adv-x="521" 
d="M495 323h-63c1 5 1 11 1 20c0 76 -43 124 -119 124c-128 4 -211 -156 -209 -275c0 -95 47 -151 123 -151c38 0 72 13 103 38s53 55 66 92h67c-19 -55 -50 -99 -93 -133s-92 -51 -147 -51c-113 0 -184 77 -184 202c-2 146 100 337 279 332c112 0 177 -68 177 -175
c0 -10 0 -18 -1 -23zM29 -208l159 159h64l-136 -159h-87z" />
    <glyph glyph-name="scedilla.salt" horiz-adv-x="479" 
d="M384 220c13 -19 20 -43 20 -74c0 -82 -71 -159 -207 -159c-117 0 -182 50 -182 139c0 17 2 32 6 45h62c-3 -15 -5 -28 -5 -40c0 -59 43 -90 124 -90c89 0 140 39 140 100c-4 56 -30 67 -124 97c-61 19 -91 31 -115 65c-12 17 -18 39 -18 68c0 77 72 150 193 150
c111 0 170 -47 170 -131c0 -16 -2 -30 -5 -43h-61c3 15 4 27 4 36c0 55 -41 84 -114 84c-75 0 -124 -32 -124 -91c5 -52 22 -59 105 -85c35 -11 62 -21 81 -30s36 -23 50 -41zM0 -208l159 159h64l-136 -159h-87z" />
    <glyph glyph-name="tcommaaccent.salt" horiz-adv-x="302" 
d="M318 456h-102l-79 -317c-4 -15 -6 -27 -6 -38c0 -35 18 -50 57 -50c12 0 24 1 36 4l-14 -54c-15 -3 -27 -4 -36 -4c-72 0 -105 29 -105 94c0 19 3 38 8 57l77 308h-92l13 52h92l29 118h62l-29 -118h102zM82 -49h64l-136 -159h-87z" />
    <glyph glyph-name="a.superior" horiz-adv-x="383" 
d="M400 542l-29 -121c-10 -40 -15 -70 -15 -91h-52c1 13 3 25 5 36h-2c-31 -29 -72 -43 -123 -43c-71 0 -114 36 -114 91c0 67 54 108 161 124c39 6 79 10 119 11l2 7c3 15 4 26 4 33c0 43 -29 62 -77 62c-55 0 -90 -28 -101 -72h-56c16 67 77 116 160 116
c79 0 124 -35 124 -107c0 -15 -2 -30 -6 -46zM128 420c0 -33 24 -53 71 -53c63 0 116 40 133 109l8 30c-39 -3 -73 -6 -103 -11c-85 -13 -109 -36 -109 -75z" />
    <glyph glyph-name="b.superior" horiz-adv-x="412" 
d="M426 449c-32 -73 -93 -127 -173 -127c-52 0 -91 27 -106 67h-2l-15 -59h-53l125 498h54l-45 -176h2c28 25 67 43 108 43c81 0 128 -50 128 -138c0 -35 -8 -71 -23 -108zM190 394c14 -18 34 -27 60 -27c87 -3 143 101 141 181c0 65 -29 103 -81 103
c-88 3 -143 -100 -142 -182c0 -32 7 -57 22 -75z" />
    <glyph glyph-name="c.superior" horiz-adv-x="380" 
d="M427 553h-55c1 3 1 7 1 13c0 51 -31 83 -84 83c-86 3 -143 -101 -142 -181c0 -63 33 -101 84 -101s95 38 112 86h58c-28 -79 -94 -133 -174 -133c-83 0 -136 55 -136 146c-1 101 72 232 202 229c85 0 135 -50 135 -127c0 -7 0 -12 -1 -15z" />
    <glyph glyph-name="d.superior" horiz-adv-x="412" 
d="M497 828l-124 -498h-53l9 35h-2c-27 -27 -69 -44 -109 -44c-81 0 -127 51 -127 138c-2 104 74 239 195 235c51 0 91 -27 106 -67h2l50 201h53zM148 468c0 -65 29 -103 81 -103c88 -3 143 100 142 182c0 64 -30 102 -81 102c-88 3 -143 -101 -142 -181z" />
    <glyph glyph-name="e.superior" horiz-adv-x="392" 
d="M421 496h-275c-2 -13 -3 -25 -3 -36c0 -64 36 -95 92 -95c53 0 94 28 114 71h55c-27 -65 -88 -116 -171 -116c-93 0 -142 53 -142 144c-1 103 76 234 206 231c88 0 134 -49 134 -133c0 -17 -3 -39 -10 -66zM157 538h223c1 7 1 16 1 27c0 56 -30 86 -87 86
c-63 0 -117 -44 -137 -113z" />
    <glyph glyph-name="egrave.superior" horiz-adv-x="392" 
d="M421 496h-275c-2 -13 -3 -25 -3 -36c0 -64 36 -95 92 -95c53 0 94 28 114 71h55c-27 -65 -88 -116 -171 -116c-93 0 -142 53 -142 144c-1 103 76 234 206 231c88 0 134 -49 134 -133c0 -17 -3 -39 -10 -66zM157 538h223c1 7 1 16 1 27c0 56 -30 86 -87 86
c-63 0 -117 -44 -137 -113zM227 828h74l47 -96h-50z" />
    <glyph glyph-name="f.superior" horiz-adv-x="213" 
d="M107 641l11 45h65l13 51c15 63 53 94 114 94c15 0 27 -1 36 -3l-10 -44c-10 2 -18 3 -23 3c-35 0 -56 -19 -68 -64l-9 -37h72l-10 -45h-73l-77 -311h-54l78 311h-65z" />
    <glyph glyph-name="g.superior" horiz-adv-x="411" 
d="M59 288c0 4 1 11 2 20h53c-1 -8 -2 -14 -2 -17c0 -33 28 -52 79 -52c72 0 113 34 133 114l5 23h-1c-32 -28 -75 -43 -116 -43c-75 0 -119 53 -119 140c-1 99 74 225 192 222c51 0 88 -22 107 -63h1l14 54h53l-87 -353c-23 -91 -88 -138 -184 -138c-83 0 -130 34 -130 93z
M370 552c0 63 -32 99 -89 99c-80 3 -135 -105 -134 -175c0 -60 29 -98 78 -98c92 -3 145 98 145 174z" />
    <glyph glyph-name="h.superior" horiz-adv-x="409" 
d="M426 538l-52 -208h-53l52 208c4 15 6 30 6 47c0 41 -23 63 -66 63c-59 0 -114 -40 -131 -111l-51 -207h-54l124 498h54l-46 -184h1c31 31 72 50 116 50c69 0 108 -37 108 -105c0 -15 -3 -32 -8 -51z" />
    <glyph glyph-name="i.superior" horiz-adv-x="170" 
d="M77 330l88 356h54l-88 -356h-54zM201 828h54l-16 -64h-53z" />
    </font>
</defs>
</svg>
