<?xml version="1.0" standalone="no"?>
<!DOCTYPE svg PUBLIC "-//W3C//DTD SVG 1.1//EN" "http://www.w3.org/Graphics/SVG/1.1/DTD/svg11.dtd" >
<svg xmlns="http://www.w3.org/2000/svg" xmlns:xlink="http://www.w3.org/1999/xlink" version="1.1">
<metadata>
Created by FontForge 20190801 at Wed Nov 27 11:15:59 2019
 By Jimmy Wärting
Copyright \(c\) 2015 Monotype Imaging Inc.  All rights reserved.
</metadata>
<defs>
<font id="NeueHaasUnica-BoldItalic" horiz-adv-x="600" >
  <font-face 
    font-family="Neue Haas Unica"
    font-weight="700"
    font-style="italic"
    font-stretch="normal"
    units-per-em="1000"
    panose-1="2 11 8 4 3 2 6 9 2 3"
    ascent="800"
    descent="-200"
    x-height="508"
    cap-height="712"
    bbox="-630 -275 1272 1116"
    underline-thickness="50"
    underline-position="-125"
    slope="-14"
    stemh="110"
    stemv="145"
    unicode-range="U+0020-FEFF"
  />
<missing-glyph horiz-adv-x="642" 
d="M590 -29c-25 -24 -58 -36 -99 -36h-340c-83 0 -135 52 -135 135v572c0 83 52 135 135 135h340c83 0 135 -52 135 -135v-572c0 -41 -12 -74 -36 -99zM491 -1c44 0 71 27 71 71v572c0 44 -27 71 -71 71h-340c-44 0 -71 -27 -71 -71v-572c0 -44 27 -71 71 -71h340zM431 359
c-27 -25 -44 -46 -52 -64c-9 -18 -13 -43 -13 -76h-102c-1 7 -1 18 -1 31c0 37 4 65 13 85s27 44 54 72c20 20 33 36 39 47c5 11 8 24 8 40c0 32 -19 52 -54 52c-43 0 -63 -24 -64 -80h-125c1 117 70 181 189 181c112 0 180 -58 180 -151c0 -27 -5 -50 -15 -69
s-29 -42 -57 -68zM379 177v-112h-128v112h128z" />
    <glyph glyph-name="f_f.liga" unicode="ff" horiz-adv-x="652" 
d="M732 613c-6 2 -14 3 -23 3c-52 0 -81 -24 -97 -87l-5 -21h95l-26 -104h-95l-101 -404h-138l101 404h-173l-101 -404h-138l101 404h-85l26 104h85l14 58c25 103 95 154 200 154c26 0 50 -3 73 -10l-24 -97c-6 2 -14 3 -23 3c-52 0 -81 -24 -97 -87l-5 -21h173l14 58
c25 103 95 154 200 154c26 0 50 -3 73 -10z" />
    <glyph glyph-name="f_f_i.liga" unicode="ffi" horiz-adv-x="928" 
d="M709 616c-52 0 -81 -24 -97 -87l-5 -21h95l-26 -104h-95l-101 -404h-138l101 404h-173l-101 -404h-138l101 404h-85l26 104h85l14 58c25 103 95 154 200 154c26 0 50 -3 73 -10l-24 -97c-6 2 -14 3 -23 3c-52 0 -81 -24 -97 -87l-5 -21h173l14 58c25 103 95 154 200 154
c26 0 50 -3 73 -10l-24 -97c-6 2 -14 3 -23 3zM923 508l-126 -508h-140l126 508h140zM834 712h140l-30 -120h-140z" />
    <glyph glyph-name="f_f_l.liga" unicode="ffl" horiz-adv-x="928" 
d="M756 710l-24 -97c-6 2 -14 3 -23 3c-52 0 -81 -24 -97 -87l-5 -21h95l-26 -104h-95l-101 -404h-138l101 404h-173l-101 -404h-138l101 404h-85l26 104h85l14 58c25 103 95 154 200 154c26 0 50 -3 73 -10l-24 -97c-6 2 -14 3 -23 3c-52 0 -81 -24 -97 -87l-5 -21h173
l14 58c25 103 95 154 200 154c26 0 50 -3 73 -10zM797 0h-140l177 712h140z" />
    <glyph glyph-name="f_i.liga" unicode="fi" horiz-adv-x="617" 
d="M31 0l101 404h-85l26 104h85l14 58c25 103 95 154 200 154c26 0 50 -3 73 -10l-24 -97c-6 2 -14 3 -23 3c-52 0 -81 -24 -97 -87l-5 -21h95l-26 -104h-95l-101 -404h-138zM346 0l126 508h140l-126 -508h-140zM633 592h-140l30 120h140z" />
    <glyph glyph-name="f_l.liga" unicode="fl" horiz-adv-x="617" 
d="M132 404h-85l26 104h85l14 58c25 103 95 154 200 154c26 0 50 -3 73 -10l-24 -97c-6 2 -14 3 -23 3c-52 0 -81 -24 -97 -87l-5 -21h95l-26 -104h-95l-101 -404h-138zM663 712l-177 -712h-140l177 712h140z" />
    <glyph glyph-name=".notdef" horiz-adv-x="642" 
d="M590 -29c-25 -24 -58 -36 -99 -36h-340c-83 0 -135 52 -135 135v572c0 83 52 135 135 135h340c83 0 135 -52 135 -135v-572c0 -41 -12 -74 -36 -99zM491 -1c44 0 71 27 71 71v572c0 44 -27 71 -71 71h-340c-44 0 -71 -27 -71 -71v-572c0 -44 27 -71 71 -71h340zM431 359
c-27 -25 -44 -46 -52 -64c-9 -18 -13 -43 -13 -76h-102c-1 7 -1 18 -1 31c0 37 4 65 13 85s27 44 54 72c20 20 33 36 39 47c5 11 8 24 8 40c0 32 -19 52 -54 52c-43 0 -63 -24 -64 -80h-125c1 117 70 181 189 181c112 0 180 -58 180 -151c0 -27 -5 -50 -15 -69
s-29 -42 -57 -68zM379 177v-112h-128v112h128z" />
    <glyph glyph-name="NULL" horiz-adv-x="0" 
 />
    <glyph glyph-name="NULL" horiz-adv-x="0" 
 />
    <glyph glyph-name="nonmarkingreturn" horiz-adv-x="333" 
 />
    <glyph glyph-name="space" unicode=" " horiz-adv-x="230" 
 />
    <glyph glyph-name="glyph1" 
 />
    <glyph glyph-name="exclam" unicode="!" horiz-adv-x="324" 
d="M202 198h-108l97 514h170zM22 0l33 132h154l-33 -132h-154z" />
    <glyph glyph-name="quotedbl" unicode="&#x22;" horiz-adv-x="436" 
d="M358 712h132l-83 -273h-102zM121 439l53 273h132l-83 -273h-102z" />
    <glyph glyph-name="numbersign" unicode="#" horiz-adv-x="672" 
d="M699 502l-41 -100h-99l-53 -129h100l-41 -100h-99l-71 -173h-120l71 173h-111l-71 -173h-120l71 173h-100l41 100h99l53 129h-100l41 100h100l70 172h120l-70 -172h111l70 172h120l-70 -172h99zM328 402l-53 -129h111l53 129h-111z" />
    <glyph glyph-name="dollar" unicode="$" 
d="M447 683c53 -8 92 -26 119 -53c26 -28 39 -65 39 -111c0 -19 -2 -36 -7 -53h-129c3 10 4 21 4 34c0 39 -17 65 -52 78l-46 -185c108 -37 169 -72 172 -186c2 -102 -99 -220 -274 -221l-21 -85h-81l22 90c-109 17 -171 78 -171 175c0 19 2 37 6 56h132
c-3 -15 -5 -29 -5 -40c0 -44 22 -73 65 -86l50 202c-53 19 -93 41 -120 66c-28 25 -42 62 -42 111c-2 96 96 212 259 213l19 76h81zM299 89c37 3 66 15 85 35c19 19 29 41 29 65c0 41 -21 62 -69 82zM268 555c-19 -17 -29 -37 -29 -60c0 -17 5 -31 15 -42
c9 -11 25 -22 46 -32l42 165c-31 -4 -55 -14 -74 -31z" />
    <glyph glyph-name="percent" unicode="%" horiz-adv-x="909" 
d="M711 380c46 0 81 -12 105 -36c23 -25 35 -60 35 -106c1 -115 -73 -258 -199 -254c-92 0 -141 50 -141 143c-1 115 72 256 200 253zM135 331c-24 24 -36 59 -36 106c-1 115 72 256 200 253c92 0 140 -50 140 -142c1 -115 -73 -258 -199 -254c-46 0 -81 12 -105 37z
M714 704h82l-560 -734h-82zM206 438c0 -43 13 -64 38 -64c58 -3 89 112 89 173c0 42 -13 63 -38 63c-58 3 -89 -111 -89 -172zM705 94c13 20 23 44 30 71s10 51 10 72c0 42 -13 63 -38 63c-58 3 -89 -111 -89 -172c0 -43 13 -64 38 -64c19 0 36 10 49 30z" />
    <glyph glyph-name="ampersand" unicode="&#x26;" horiz-adv-x="753" 
d="M549 687c31 -28 46 -66 46 -114c0 -81 -58 -151 -174 -208l92 -123c31 36 56 89 75 160h139c-28 -105 -75 -192 -140 -259l107 -143h-170l-45 60c-56 -48 -143 -76 -224 -76c-148 0 -227 68 -227 184c0 97 66 189 207 237c-31 48 -43 85 -43 130c-2 92 82 195 227 193
c55 0 99 -14 130 -41zM203 254c-17 -21 -25 -44 -25 -67c0 -49 40 -83 112 -83c41 0 83 14 124 42l-126 167c-41 -19 -69 -38 -85 -59zM328 537c0 -13 3 -27 8 -40s13 -31 25 -53c71 40 100 84 100 117s-22 53 -58 53c-47 0 -75 -37 -75 -77z" />
    <glyph glyph-name="quotesingle" unicode="'" horiz-adv-x="252" 
d="M121 439l53 273h132l-83 -273h-102z" />
    <glyph glyph-name="parenleft" unicode="(" horiz-adv-x="328" 
d="M87 -147c-33 98 -49 198 -49 301c0 196 86 406 262 587h119c-161 -213 -239 -435 -239 -638c0 -80 6 -163 18 -250h-111z" />
    <glyph glyph-name="parenright" unicode=")" horiz-adv-x="328" 
d="M-70 -147c161 213 239 435 239 638c0 80 -6 163 -18 250h111c33 -98 49 -198 49 -301c0 -196 -86 -406 -262 -587h-119z" />
    <glyph glyph-name="asterisk" unicode="*" horiz-adv-x="426" 
d="M225 529l-122 57l52 86l106 -85l17 134l97 -24l-48 -127l133 26l6 -100l-135 6l65 -118l-92 -37l-36 130l-92 -98l-64 76z" />
    <glyph glyph-name="plus" unicode="+" horiz-adv-x="566" 
d="M64 371h165v165h108v-165h165v-109h-165v-165h-108v165h-165v109z" />
    <glyph glyph-name="comma" unicode="," horiz-adv-x="258" 
d="M26 -172h-84l98 172h-51l41 167h154l-41 -167z" />
    <glyph glyph-name="hyphen" unicode="-" horiz-adv-x="320" 
d="M26 237l27 110h260l-27 -110h-260z" />
    <glyph glyph-name="period" unicode="." horiz-adv-x="258" 
d="M-11 0l41 167h154l-41 -167h-154z" />
    <glyph glyph-name="slash" unicode="/" horiz-adv-x="494" 
d="M62 -89h-118l503 834h118z" />
    <glyph glyph-name="zero" unicode="0" 
d="M598 439c0 -67 -13 -135 -38 -206c-26 -71 -64 -130 -115 -177c-51 -48 -113 -72 -185 -72c-143 0 -216 87 -216 250c0 67 13 136 39 207c25 71 64 130 115 178c51 47 112 71 184 71c143 0 216 -88 216 -251zM191 233c0 -87 26 -130 78 -130c38 0 71 20 98 59
s48 86 63 139c14 53 21 99 21 138c0 84 -27 130 -79 130c-37 0 -70 -20 -97 -59s-48 -86 -62 -139c-15 -53 -22 -99 -22 -138z" />
    <glyph glyph-name="one" unicode="1" 
d="M147 457l25 102c113 0 174 34 205 115h131l-168 -674h-144l114 457h-163z" />
    <glyph glyph-name="two" unicode="2" 
d="M594 515c0 -104 -69 -182 -225 -261c-135 -68 -164 -92 -178 -136h325l-28 -118h-505c33 169 100 241 284 335c133 68 176 105 176 168c0 43 -25 68 -72 68c-61 0 -100 -36 -119 -108h-145c36 147 137 227 277 227c131 0 210 -67 210 -175z" />
    <glyph glyph-name="three" unicode="3" 
d="M599 518c0 -40 -12 -76 -37 -107s-66 -56 -121 -73v-2c60 -25 90 -69 90 -134c1 -103 -95 -220 -268 -218c-151 0 -232 65 -232 185c0 14 2 31 5 51h144c-3 -17 -5 -30 -5 -40c0 -51 31 -77 94 -77c73 0 119 53 119 98c0 52 -37 78 -112 78h-20l28 116h19
c103 0 151 56 151 106c0 44 -31 70 -83 70c-63 0 -104 -37 -123 -111h-145c35 145 137 230 281 230c136 0 215 -64 215 -172z" />
    <glyph glyph-name="four" unicode="4" 
d="M421 0h-144l38 151h-327l33 131l367 392h201l-102 -410h94l-28 -113h-94zM153 264h193l20 82c25 93 45 164 62 215h-2c-67 -79 -128 -146 -182 -203z" />
    <glyph glyph-name="five" unicode="5" 
d="M622 674l-29 -117h-309l-52 -145h2c34 25 74 37 120 37c119 0 191 -74 191 -193c2 -121 -114 -277 -301 -272c-135 0 -216 60 -216 161c0 14 1 27 4 40h145c-1 -5 -2 -11 -2 -19c0 -41 35 -64 87 -64c91 0 132 79 132 144c0 57 -32 88 -88 88c-47 0 -86 -27 -106 -70
l-140 9l138 401h424z" />
    <glyph glyph-name="six" unicode="6" 
d="M607 513c0 -10 0 -18 -1 -23h-145l1 12c0 47 -24 70 -73 70c-69 0 -134 -58 -171 -179h2c43 31 90 47 143 47c115 0 186 -77 186 -198c3 -113 -109 -262 -280 -258c-139 0 -213 81 -213 238c0 67 13 137 40 210s66 134 118 184c51 49 113 74 184 74
c133 0 209 -65 209 -177zM210 257c-10 -21 -15 -42 -15 -63c0 -29 7 -51 21 -67c13 -17 33 -25 59 -25c77 0 123 72 123 132c0 61 -27 97 -79 97s-90 -31 -109 -74z" />
    <glyph glyph-name="seven" unicode="7" 
d="M275 0h-167c51 115 109 222 174 319s127 175 186 233h-352l30 122h501l-29 -124c-66 -71 -129 -155 -189 -250c-60 -96 -111 -196 -154 -300z" />
    <glyph glyph-name="eight" unicode="8" 
d="M442 339v-2c59 -25 94 -78 94 -146c2 -98 -99 -209 -276 -207c-144 0 -230 72 -230 192c0 79 62 163 177 185v2c-53 25 -84 73 -84 133c-2 88 100 197 260 194c67 0 121 -16 161 -47c39 -31 59 -74 59 -127c0 -40 -14 -77 -42 -110c-29 -34 -68 -56 -119 -67zM189 231
c-9 -17 -14 -33 -14 -49c0 -25 9 -44 26 -58s40 -21 71 -21c82 0 126 57 126 105c0 51 -36 81 -99 81c-53 0 -91 -25 -110 -58zM461 497c0 24 -8 43 -23 56c-16 13 -38 20 -67 20c-75 0 -115 -49 -115 -93c0 -49 32 -76 91 -76c76 0 114 54 114 93z" />
    <glyph glyph-name="nine" unicode="9" 
d="M565 452c0 -67 -13 -136 -40 -209s-66 -135 -117 -184c-52 -50 -114 -75 -185 -75c-133 0 -209 65 -209 177c0 10 0 18 1 23h145l-1 -12c0 -47 24 -70 73 -70c69 0 134 58 171 179h-2c-43 -31 -90 -47 -143 -47c-115 0 -186 77 -186 198c-3 113 109 262 280 258
c139 0 213 -81 213 -238zM238 501c-10 -21 -15 -41 -15 -61c0 -61 27 -97 79 -97c79 0 124 74 124 137c0 57 -28 92 -80 92c-51 0 -89 -31 -108 -71z" />
    <glyph glyph-name="colon" unicode=":" horiz-adv-x="258" 
d="M74 341l41 167h154l-41 -167h-154zM30 167h154l-41 -167h-154z" />
    <glyph glyph-name="semicolon" unicode=";" horiz-adv-x="258" 
d="M-58 -172l98 172h-51l41 167h154l-41 -167l-117 -172h-84zM115 508h154l-41 -167h-154z" />
    <glyph glyph-name="less" unicode="&#x3c;" horiz-adv-x="566" 
d="M64 256v122l438 181v-118l-309 -123v-2l309 -123v-118z" />
    <glyph glyph-name="equal" unicode="=" horiz-adv-x="566" 
d="M64 466h438v-109h-438v109zM64 167v109h438v-109h-438z" />
    <glyph glyph-name="greater" unicode="&#x3e;" horiz-adv-x="566" 
d="M502 256l-438 -181v118l309 123v2l-309 123v118l438 -181v-122z" />
    <glyph glyph-name="question" unicode="?" horiz-adv-x="547" 
d="M578 548c0 -35 -10 -68 -30 -97s-57 -62 -112 -99c-88 -62 -105 -80 -130 -166h-119c30 128 45 151 147 228c41 30 68 54 81 73c13 18 19 37 19 56c0 40 -27 63 -79 63c-60 0 -99 -32 -116 -101h-146c35 145 129 222 265 222c140 0 220 -66 220 -179zM122 0l33 132h154
l-33 -132h-154z" />
    <glyph glyph-name="at" unicode="@" horiz-adv-x="872" 
d="M595 69c-33 0 -59 7 -76 21c-18 14 -27 35 -27 62h-2c-39 -55 -87 -83 -142 -83c-80 0 -124 55 -124 156c0 40 10 83 31 129s49 85 86 117c37 31 78 47 124 47c57 0 91 -27 101 -80h2c11 27 21 50 31 70h111c-32 -71 -59 -136 -82 -196c-23 -61 -34 -100 -34 -119
c0 -23 10 -32 33 -32c90 -4 146 128 145 226c0 72 -24 129 -72 170c-49 41 -116 62 -201 62c-79 0 -147 -21 -203 -62c-57 -41 -99 -93 -127 -154s-42 -121 -42 -178c0 -163 90 -257 245 -257c87 0 164 18 231 53l30 -76c-76 -41 -160 -62 -253 -62c-107 0 -190 29 -249 88
c-59 60 -89 142 -89 249c0 72 18 146 55 221s90 137 160 188c70 50 152 75 246 75c223 0 354 -120 354 -314c2 -157 -106 -325 -262 -321zM520 351c0 21 -4 37 -12 48c-9 11 -21 16 -38 16c-70 4 -128 -112 -126 -176c0 -43 18 -66 51 -66c68 -4 127 119 125 178z" />
    <glyph glyph-name="A" unicode="A" horiz-adv-x="698" 
d="M104 0h-164l424 712h198l70 -712h-144l-12 174h-273zM274 300h193l-3 47c-7 107 -11 199 -13 278h-2c-47 -93 -96 -186 -148 -278z" />
    <glyph glyph-name="B" unicode="B" horiz-adv-x="650" 
d="M667 554c0 -85 -48 -162 -168 -195v-2c72 -17 101 -62 101 -134c2 -108 -96 -226 -283 -223h-298l177 712h236c157 0 235 -59 235 -158zM196 121h119c103 0 139 42 139 106c0 55 -32 76 -108 76h-105zM270 419h114c99 0 135 41 135 100c0 51 -33 73 -105 73h-101z" />
    <glyph glyph-name="C" unicode="C" horiz-adv-x="702" 
d="M709 495c0 -16 -1 -31 -4 -44h-148c1 12 2 21 2 28c0 75 -44 119 -119 119c-145 5 -232 -178 -230 -316c0 -103 45 -168 130 -168c73 0 140 46 169 122h151c-25 -79 -66 -141 -125 -185c-59 -45 -129 -67 -208 -67c-85 0 -151 26 -198 78c-47 51 -71 121 -71 210
c0 71 15 142 45 213c30 70 75 128 135 174c59 46 131 69 215 69c157 0 256 -93 256 -233z" />
    <glyph glyph-name="D" unicode="D" horiz-adv-x="734" 
d="M196 712h187c224 0 340 -107 340 -306c3 -194 -147 -411 -437 -406h-267zM311 586l-115 -460h99c194 -2 277 143 276 271c0 127 -63 189 -195 189h-65z" />
    <glyph glyph-name="E" unicode="E" horiz-adv-x="633" 
d="M19 0l177 712h492l-31 -126h-345l-40 -161h322l-32 -125h-322l-43 -174h354l-31 -126h-501z" />
    <glyph glyph-name="F" unicode="F" horiz-adv-x="584" 
d="M19 0l177 712h475l-31 -126h-328l-49 -194h303l-31 -126h-303l-66 -266h-147z" />
    <glyph glyph-name="G" unicode="G" horiz-adv-x="744" 
d="M730 508c0 -11 -1 -22 -3 -34h-158c1 3 1 8 1 14c0 71 -42 110 -117 110c-154 5 -247 -176 -245 -325c0 -107 45 -171 136 -171c88 0 163 58 188 153h-169l30 120h306l-93 -375h-124l15 61h-2c-48 -47 -118 -75 -195 -75c-76 0 -135 25 -178 76s-64 119 -64 205
c0 74 16 147 48 218s79 129 142 175c63 45 138 68 226 68c163 0 256 -83 256 -220z" />
    <glyph glyph-name="H" unicode="H" horiz-adv-x="750" 
d="M19 0l177 712h147l-69 -279h292l69 279h147l-177 -712h-147l76 307h-292l-76 -307h-147z" />
    <glyph glyph-name="I" unicode="I" horiz-adv-x="311" 
d="M166 0h-147l177 712h147z" />
    <glyph glyph-name="J" unicode="J" horiz-adv-x="392" 
d="M25 -7c-27 0 -52 3 -73 10l31 123c15 -3 28 -5 40 -5c78 0 120 28 148 145l111 446h147l-125 -501c-37 -149 -123 -218 -279 -218z" />
    <glyph glyph-name="K" unicode="K" horiz-adv-x="663" 
d="M19 0l177 712h147l-75 -301h2l292 301h188l-357 -345l203 -367h-171l-171 348h-2l-86 -348h-147z" />
    <glyph glyph-name="L" unicode="L" horiz-adv-x="575" 
d="M502 0h-483l177 712h147l-146 -586h336z" />
    <glyph glyph-name="M" unicode="M" horiz-adv-x="984" 
d="M859 621h-2c-48 -93 -95 -180 -142 -262l-202 -359h-168l-24 359c-6 100 -9 187 -10 262h-2c-21 -99 -42 -188 -61 -267l-88 -354h-141l177 712h227l22 -327c6 -105 9 -193 8 -262h2c43 95 87 182 132 262l184 327h245l-177 -712h-141l88 354c23 95 48 184 73 267z" />
    <glyph glyph-name="N" unicode="N" horiz-adv-x="776" 
d="M228 274l-68 -274h-141l177 712h197l72 -289c18 -75 40 -173 66 -294h2c18 103 40 206 66 309l68 274h141l-177 -712h-197l-72 289c-25 103 -47 201 -66 294h-2c-22 -118 -44 -221 -66 -309z" />
    <glyph glyph-name="O" unicode="O" horiz-adv-x="748" 
d="M704 586c23 -46 34 -100 34 -162c2 -205 -142 -446 -388 -440c-91 0 -162 27 -213 82c-51 54 -76 128 -76 222c0 70 15 139 45 207c29 68 73 124 132 168c58 43 128 65 210 65c121 0 211 -51 256 -142zM236 431c-18 -48 -27 -95 -27 -142c0 -109 54 -175 147 -175
c146 -5 235 174 234 310c0 108 -53 174 -148 174c-49 0 -91 -16 -126 -47c-35 -32 -62 -72 -80 -120z" />
    <glyph glyph-name="P" unicode="P" horiz-adv-x="636" 
d="M229 252l-63 -252h-147l177 712h219c168 0 252 -76 252 -208c1 -117 -92 -255 -286 -252h-152zM259 374h122c47 0 81 12 103 35s33 51 33 82c0 66 -37 99 -112 99h-92z" />
    <glyph glyph-name="Q" unicode="Q" horiz-adv-x="748" 
d="M707 589c22 -45 33 -97 33 -157c0 -66 -13 -131 -39 -196c-27 -65 -65 -120 -114 -163l56 -88l-91 -58l-56 88c-47 -21 -97 -31 -152 -31c-90 0 -160 27 -210 80s-75 125 -75 216c0 71 15 142 46 211c30 69 75 125 135 170c59 45 131 67 214 67c120 0 208 -51 253 -139z
M237 428c-19 -49 -28 -97 -28 -144c0 -55 13 -99 39 -130c26 -32 63 -48 110 -48c23 0 47 4 71 13l-77 121l91 58l72 -113c52 61 81 155 81 236c0 111 -55 177 -150 177c-49 0 -92 -16 -128 -48c-36 -33 -63 -73 -81 -122z" />
    <glyph glyph-name="R" unicode="R" horiz-adv-x="666" 
d="M670 542c0 -31 -7 -60 -20 -89c-27 -59 -81 -105 -158 -124v-2c41 -17 59 -50 71 -137l26 -190h-152l-19 169c-9 77 -35 103 -104 103h-81l-67 -272h-147l177 712h252c149 0 222 -59 222 -170zM314 593l-51 -204h114c47 0 82 12 105 36c22 24 33 51 33 81
c0 58 -32 87 -95 87h-106z" />
    <glyph glyph-name="S" unicode="S" horiz-adv-x="630" 
d="M580 219c0 -37 -12 -74 -35 -110c-47 -73 -141 -125 -266 -125c-167 0 -263 69 -263 194c0 19 2 37 7 56h152c-3 -11 -4 -23 -4 -36c0 -63 42 -95 125 -95c85 0 128 51 128 94c-5 59 -29 68 -120 102c-45 15 -80 30 -106 44c-27 14 -49 34 -66 60c-18 25 -27 59 -27 101
c-2 104 109 227 290 224c163 0 244 -60 244 -181c0 -15 -3 -33 -8 -53h-149c2 10 3 20 3 29c0 57 -37 88 -108 88c-67 0 -118 -37 -118 -86c0 -45 34 -67 129 -98c84 -28 134 -52 167 -104c17 -27 25 -61 25 -104z" />
    <glyph glyph-name="T" unicode="T" horiz-adv-x="615" 
d="M317 586h-224l31 126h595l-31 -126h-224l-146 -586h-147z" />
    <glyph glyph-name="U" unicode="U" horiz-adv-x="718" 
d="M90 313l100 399h147l-105 -423c-6 -24 -9 -45 -9 -64c0 -73 38 -111 111 -111c83 0 140 54 164 151l111 447h147l-120 -482c-40 -159 -153 -246 -314 -246c-157 0 -245 83 -245 232c0 30 4 62 13 97z" />
    <glyph glyph-name="V" unicode="V" horiz-adv-x="638" 
d="M120 712h140l16 -277c5 -81 8 -158 8 -230l-1 -61h2c47 102 96 199 147 291l154 277h160l-398 -712h-184z" />
    <glyph glyph-name="W" unicode="W" horiz-adv-x="956" 
d="M910 712h151l-326 -712h-191l4 282c1 97 5 198 14 305h-2c-37 -91 -83 -192 -138 -305l-136 -282h-191l28 712h137l-13 -259c-5 -95 -13 -198 -25 -308h2c36 84 83 187 142 308l126 259h186l-2 -259c-1 -105 -5 -207 -12 -308h2c32 83 75 186 129 308z" />
    <glyph glyph-name="X" unicode="X" horiz-adv-x="630" 
d="M-60 0l319 369l-131 343h153l77 -239h2l187 239h183l-305 -357l139 -355h-156l-83 245h-2l-197 -245h-186z" />
    <glyph glyph-name="Y" unicode="Y" horiz-adv-x="638" 
d="M251 277l-135 435h149l35 -134c15 -57 28 -118 39 -181h2c38 60 80 120 127 181l101 134h180l-351 -435l-69 -277h-147z" />
    <glyph glyph-name="Z" unicode="Z" horiz-adv-x="582" 
d="M-43 0l34 137l456 449v2h-328l31 124h509l-34 -137l-456 -449v-2h361l-31 -124h-542z" />
    <glyph glyph-name="bracketleft" unicode="[" horiz-adv-x="329" 
d="M-30 -149l221 890h244l-20 -81h-112l-181 -728h112l-20 -81h-244z" />
    <glyph glyph-name="backslash" unicode="\" horiz-adv-x="488" 
d="M152 745h104l95 -834h-104z" />
    <glyph glyph-name="bracketright" unicode="]" horiz-adv-x="329" 
d="M-85 -149l20 81h112l181 728h-112l20 81h244l-221 -890h-244z" />
    <glyph glyph-name="asciicircum" unicode="^" horiz-adv-x="496" 
d="M8 371l166 341h148l166 -341h-129l-110 231h-2l-110 -231h-129z" />
    <glyph glyph-name="underscore" unicode="_" horiz-adv-x="500" 
d="M-95 -126l19 76h500l-19 -76h-500z" />
    <glyph glyph-name="grave" unicode="`" horiz-adv-x="352" 
d="M165 712h167l47 -146h-104z" />
    <glyph glyph-name="a" unicode="a" horiz-adv-x="547" 
d="M506 366c0 -21 -3 -43 -9 -67l-40 -160c-15 -60 -22 -106 -21 -139h-122c0 21 3 40 8 59h-2c-48 -47 -105 -71 -171 -71c-97 0 -152 52 -152 135c0 43 18 81 53 114c35 32 94 54 178 67c47 7 93 11 138 14l3 12c3 13 5 24 5 33c0 43 -27 63 -72 63c-49 0 -84 -29 -95 -77
h-136c11 51 38 93 80 126s95 49 160 49c130 0 195 -53 195 -158zM240 222c-65 -11 -98 -37 -98 -80c0 -17 6 -30 17 -39c11 -10 26 -15 47 -15c68 0 112 40 131 113l8 32c-39 -3 -74 -6 -105 -11z" />
    <glyph glyph-name="b" unicode="b" horiz-adv-x="598" 
d="M569 323c0 -50 -11 -101 -33 -153c-22 -53 -54 -96 -95 -131c-42 -35 -91 -52 -147 -52c-63 0 -114 31 -133 86h-2l-18 -73h-136l178 712h140l-62 -246h2c37 36 85 55 130 55c112 0 176 -74 176 -198zM214 301c-11 -32 -17 -64 -17 -95c0 -35 7 -63 22 -82
c14 -20 34 -30 60 -30c88 -3 143 117 142 208c0 71 -30 112 -82 112c-59 0 -102 -49 -125 -113z" />
    <glyph glyph-name="c" unicode="c" horiz-adv-x="562" 
d="M544 336c0 -12 -1 -21 -2 -27h-146c1 7 2 13 2 19c0 55 -28 88 -76 88c-90 4 -147 -129 -146 -208c0 -73 29 -116 84 -116c49 0 94 37 111 97h147c-19 -62 -53 -112 -101 -149c-49 -37 -104 -56 -165 -56c-137 0 -219 83 -219 223c-2 140 108 322 297 317
c67 0 119 -17 157 -51c38 -35 57 -80 57 -137z" />
    <glyph glyph-name="d" unicode="d" horiz-adv-x="596" 
d="M502 712h140l-177 -712h-136l12 46h-2c-39 -37 -88 -59 -135 -59c-112 0 -176 74 -176 198c0 50 11 101 33 154c22 52 54 95 96 130c41 35 90 52 146 52c61 0 110 -29 131 -78h2zM193 301c-11 -32 -17 -64 -17 -95c0 -35 7 -63 22 -82c14 -20 34 -30 60 -30
c88 -3 143 117 142 208c0 71 -30 112 -82 112c-59 0 -102 -49 -125 -113z" />
    <glyph glyph-name="e" unicode="e" horiz-adv-x="573" 
d="M543 317c0 -27 -4 -57 -12 -92h-364c-3 -14 -4 -28 -4 -43c0 -68 37 -99 92 -99c51 0 93 30 108 71h143c-21 -49 -54 -89 -101 -121c-47 -33 -99 -49 -158 -49c-141 0 -216 80 -216 215c-2 144 110 330 297 325c140 0 215 -79 215 -207zM244 397c-23 -19 -42 -47 -55 -84
h222c1 11 2 18 2 22c0 60 -37 90 -93 90c-28 0 -53 -9 -76 -28z" />
    <glyph glyph-name="f" unicode="f" horiz-adv-x="341" 
d="M445 710l-24 -97c-6 2 -14 3 -23 3c-52 0 -81 -24 -97 -87l-5 -21h95l-26 -104h-95l-101 -404h-138l101 404h-85l26 104h85l14 58c25 103 95 154 200 154c26 0 50 -3 73 -10z" />
    <glyph glyph-name="g" unicode="g" horiz-adv-x="591" 
d="M382 498c23 -17 40 -39 51 -66h2l19 76h132l-126 -508c-32 -128 -133 -194 -270 -194s-207 48 -207 135c0 8 1 17 3 27h136c-1 -3 -1 -7 -1 -12c0 -32 28 -50 77 -50c65 0 110 31 131 115l9 37h-2c-41 -36 -84 -52 -135 -52c-107 0 -168 75 -168 202
c-2 136 101 319 259 314c36 0 66 -8 90 -24zM197 308c-11 -28 -16 -54 -16 -79c0 -67 30 -108 81 -108c83 -3 134 101 133 177c0 68 -33 109 -86 109c-52 0 -92 -44 -112 -99z" />
    <glyph glyph-name="h" unicode="h" 
d="M182 712h140l-63 -251h2c43 39 90 59 142 59c97 0 155 -53 155 -150c0 -23 -3 -47 -10 -73l-74 -297h-140l73 294c5 19 7 36 7 52c0 43 -22 64 -67 64c-60 0 -111 -49 -134 -138l-68 -272h-140z" />
    <glyph glyph-name="i" unicode="i" horiz-adv-x="276" 
d="M131 508h140l-126 -508h-140zM182 712h140l-30 -120h-140z" />
    <glyph glyph-name="j" unicode="j" horiz-adv-x="278" 
d="M-116 -81c7 -2 15 -3 23 -3c55 0 85 26 104 102l122 490h140l-133 -535c-28 -112 -105 -163 -206 -163c-29 0 -54 3 -75 9zM154 592l30 120h140l-30 -120h-140z" />
    <glyph glyph-name="k" unicode="k" horiz-adv-x="543" 
d="M5 0l177 712h140l-100 -403h2l193 199h178l-253 -245l148 -263h-153l-129 244h-2l-61 -244h-140z" />
    <glyph glyph-name="l" unicode="l" horiz-adv-x="276" 
d="M145 0h-140l177 712h140z" />
    <glyph glyph-name="m" unicode="m" horiz-adv-x="897" 
d="M856 374c0 -21 -4 -46 -11 -77l-74 -297h-140l74 298c5 18 7 34 7 49c0 42 -20 63 -59 63c-60 0 -106 -53 -130 -149l-65 -261h-140l76 307c4 15 6 28 6 41c0 41 -20 62 -60 62c-61 0 -107 -53 -130 -149l-65 -261h-140l126 508h132l-12 -51h2c44 43 88 63 143 63
c73 0 119 -31 134 -90c53 60 107 90 179 90c93 0 147 -50 147 -146z" />
    <glyph glyph-name="n" unicode="n" 
d="M558 370c0 -23 -3 -47 -10 -73l-74 -297h-140l73 294c5 19 7 36 7 52c0 43 -22 64 -67 64c-60 0 -111 -49 -134 -138l-68 -272h-140l127 508h131l-14 -56h2c43 43 96 68 152 68c99 0 155 -53 155 -150z" />
    <glyph glyph-name="o" unicode="o" horiz-adv-x="590" 
d="M557 300c2 -142 -112 -320 -301 -316c-144 0 -223 83 -223 224c-2 141 112 321 299 316c145 0 225 -83 225 -224zM177 209c0 -37 8 -66 23 -86c15 -21 38 -31 68 -31c94 -3 145 122 144 207c0 75 -31 117 -91 117c-95 3 -145 -122 -144 -207z" />
    <glyph glyph-name="p" unicode="p" horiz-adv-x="598" 
d="M569 323c0 -50 -11 -101 -33 -153c-22 -53 -54 -96 -95 -131c-42 -35 -91 -52 -147 -52c-61 0 -110 29 -131 78h-2l-62 -250h-140l173 693h136l-12 -46h2c39 37 88 59 135 59c112 0 176 -74 176 -198zM214 301c-11 -32 -17 -64 -17 -95c0 -35 7 -63 22 -82
c14 -20 34 -30 60 -30c88 -3 143 117 142 208c0 71 -30 112 -82 112c-59 0 -102 -49 -125 -113z" />
    <glyph glyph-name="q" unicode="q" horiz-adv-x="597" 
d="M456 508h136l-172 -693h-140l56 227h-2c-37 -36 -85 -55 -130 -55c-112 0 -176 74 -176 198c0 50 11 101 33 154c22 52 54 95 96 130c41 35 90 52 146 52c63 0 114 -31 133 -86h2zM176 206c0 -35 7 -63 22 -82c14 -20 34 -30 60 -30c88 -3 143 117 142 208
c0 71 -30 112 -82 112c-88 3 -143 -117 -142 -208z" />
    <glyph glyph-name="r" unicode="r" horiz-adv-x="392" 
d="M145 0h-140l126 508h129l-16 -65h2c48 49 98 73 157 73c17 0 32 -2 45 -6l-30 -121c-18 3 -32 5 -43 5c-87 0 -146 -54 -170 -154z" />
    <glyph glyph-name="s" unicode="s" horiz-adv-x="524" 
d="M448 489c33 -24 49 -59 49 -105c0 -10 -1 -21 -3 -32h-133c1 9 2 16 2 21c0 35 -23 53 -70 53c-51 0 -74 -23 -74 -50c0 -28 20 -41 92 -66c64 -21 100 -36 128 -75c13 -20 20 -46 20 -78c0 -89 -83 -173 -241 -173c-133 0 -209 49 -209 145c0 13 2 25 5 36h141
c-2 -8 -3 -15 -3 -22c0 -37 26 -58 78 -58c51 0 80 22 80 55c0 35 -25 48 -98 73c-61 21 -92 34 -116 71c-13 18 -19 43 -19 74c0 84 81 166 228 166c62 0 110 -12 143 -35z" />
    <glyph glyph-name="t" unicode="t" horiz-adv-x="357" 
d="M390 508l-26 -104h-97l-53 -213c-3 -15 -5 -27 -5 -36c0 -36 15 -50 54 -50c10 0 21 1 33 4l-28 -109c-17 -5 -35 -7 -55 -7c-103 0 -149 38 -149 127c0 20 4 45 11 74l52 210h-82l26 104h82l33 132h140l-33 -132h97z" />
    <glyph glyph-name="u" unicode="u" 
d="M595 508l-127 -508h-131l14 56h-2c-43 -43 -96 -68 -152 -68c-99 0 -155 53 -155 150c0 23 3 47 10 73l74 297h140l-73 -294c-5 -19 -7 -36 -7 -52c0 -43 22 -64 67 -64c60 0 111 49 134 138l68 272h140z" />
    <glyph glyph-name="v" unicode="v" horiz-adv-x="510" 
d="M56 508h137l9 -200c3 -79 4 -139 4 -181v-39h2c35 78 71 151 108 220l109 200h155l-298 -508h-182z" />
    <glyph glyph-name="w" unicode="w" horiz-adv-x="810" 
d="M723 508h145l-238 -508h-200l5 200c2 73 5 145 9 217h-2c-29 -77 -60 -149 -93 -217l-95 -200h-200l14 508h133l-11 -196c-5 -101 -10 -174 -15 -221h2c30 75 62 148 95 219l94 198h192l-4 -198c-1 -73 -4 -146 -9 -219h2c27 76 57 150 89 221z" />
    <glyph glyph-name="x" unicode="x" horiz-adv-x="508" 
d="M-69 0l244 267l-107 241h146l57 -143h2l117 143h176l-229 -253l114 -255h-148l-60 166h-2l-132 -166h-178z" />
    <glyph glyph-name="y" unicode="y" horiz-adv-x="504" 
d="M418 508h156l-309 -511c-90 -144 -158 -186 -289 -188c-26 0 -50 3 -71 8l28 112c14 -5 31 -8 52 -8c71 0 117 47 117 110c0 11 -2 33 -5 64l-41 413h138l12 -170c5 -78 8 -149 7 -213h2c38 81 74 152 108 213z" />
    <glyph glyph-name="z" unicode="z" horiz-adv-x="484" 
d="M-35 0l30 120l311 276v2h-232l28 110h408l-30 -120l-311 -276v-2h251l-27 -110h-428z" />
    <glyph glyph-name="braceleft" unicode="{" horiz-adv-x="338" 
d="M434 741l-20 -80c-57 -3 -85 -23 -100 -82l-40 -160c-17 -69 -55 -104 -124 -120l-1 -3c45 -16 66 -45 66 -93c0 -15 -2 -31 -7 -49l-32 -128c-4 -16 -6 -29 -6 -40c0 -40 18 -56 62 -57l-20 -81h-14c-109 0 -155 38 -155 123c0 19 4 44 11 75l29 117c4 16 6 29 6 40
c0 32 -14 51 -47 60l22 87c52 13 74 33 87 84l37 150c14 57 37 97 69 121c31 24 79 36 143 36h34z" />
    <glyph glyph-name="bar" unicode="|" horiz-adv-x="294" 
d="M84 -205v937h126v-937h-126z" />
    <glyph glyph-name="braceright" unicode="}" horiz-adv-x="338" 
d="M315 618c0 -19 -4 -44 -11 -75l-29 -117c-4 -16 -6 -29 -6 -40c0 -32 14 -51 47 -60l-22 -87c-52 -13 -74 -33 -87 -84l-37 -150c-14 -57 -37 -97 -68 -121c-32 -24 -80 -36 -144 -36h-34l20 80c57 3 85 23 100 82l40 160c17 69 55 104 124 120l1 3c-45 16 -66 45 -66 93
c0 15 2 31 7 49l32 128c4 16 6 29 6 40c0 40 -18 56 -62 57l20 81h14c109 0 155 -38 155 -123z" />
    <glyph glyph-name="asciitilde" unicode="~" horiz-adv-x="594" 
d="M608 410c-15 -61 -40 -109 -76 -143c-36 -35 -77 -52 -123 -52c-53 0 -81 19 -128 55c-35 28 -53 40 -81 40c-43 0 -80 -34 -93 -87h-90c29 123 108 196 199 196c53 0 85 -20 128 -56c35 -28 52 -40 80 -40c43 0 81 35 94 87h90z" />
    <glyph glyph-name="uni00A0" unicode="&#xa0;" horiz-adv-x="230" 
 />
    <glyph glyph-name="exclamdown" unicode="&#xa1;" horiz-adv-x="324" 
d="M133 -204h-170l159 514h108zM269 376h-154l33 132h154z" />
    <glyph glyph-name="cent" unicode="&#xa2;" 
d="M580 414c0 -12 -1 -21 -2 -27h-146c1 7 2 13 2 19c0 35 -11 61 -32 76l-77 -308c37 12 69 46 82 93h147c-19 -60 -51 -109 -98 -146s-100 -57 -159 -59l-22 -88h-81l24 96c-96 25 -149 102 -149 215c-2 136 103 313 282 317l22 88h81l-24 -94c95 -21 150 -89 150 -182z
M212 286c0 -47 12 -81 35 -100l75 302c-68 -24 -111 -135 -110 -202z" />
    <glyph glyph-name="sterling" unicode="&#xa3;" 
d="M632 523c0 -15 -2 -32 -6 -50h-140c2 10 3 19 3 28c0 45 -24 69 -68 69c-54 0 -90 -36 -108 -107l-17 -69h122l-29 -117h-122l-7 -26c-17 -72 -43 -108 -95 -133v-2h366l-29 -116h-541l29 118c61 0 100 36 123 131l7 28h-90l29 117h90l24 95c33 135 123 201 262 201
c125 0 197 -62 197 -167z" />
    <glyph glyph-name="currency" unicode="&#xa4;" 
d="M563 483l-72 -76c20 -34 30 -73 30 -116s-10 -82 -30 -116l72 -76l-87 -81l-71 77c-33 -15 -68 -22 -105 -22s-72 7 -105 22l-71 -77l-87 81l72 76c-20 34 -30 73 -30 116s10 82 30 116l-72 76l87 81l71 -77c33 15 68 22 105 22s72 -7 105 -22l71 77zM222 372
c-20 -21 -30 -48 -30 -81c0 -67 43 -112 108 -112s108 45 108 112s-43 112 -108 112c-33 0 -59 -10 -78 -31z" />
    <glyph glyph-name="yen" unicode="&#xa5;" 
d="M557 347l-17 -70h-160l-10 -40h160l-18 -70h-159l-42 -167h-148l42 167h-161l18 70h160l10 40h-160l17 70h123l-94 327h149l22 -96c17 -75 29 -135 36 -181h2c39 67 79 127 118 181l70 96h177l-257 -327h122z" />
    <glyph glyph-name="brokenbar" unicode="&#xa6;" horiz-adv-x="294" 
d="M84 732h126v-350h-126v350zM84 -205v350h126v-350h-126z" />
    <glyph glyph-name="section" unicode="&#xa7;" horiz-adv-x="646" 
d="M454 -56c-19 -29 -46 -53 -82 -72c-37 -19 -81 -28 -133 -28c-132 0 -208 48 -208 145c0 13 1 26 4 39h141c-1 -3 -1 -8 -1 -15c0 -37 24 -56 71 -56c51 0 89 24 89 63c-4 37 -19 46 -119 100c-89 47 -135 81 -138 166c0 72 43 143 132 188v2c-15 18 -23 40 -23 67
c-2 84 88 188 236 185c130 0 195 -51 195 -154c0 -13 -1 -24 -2 -32h-140c1 3 1 8 1 14c0 37 -25 59 -72 59c-41 0 -72 -25 -72 -61c0 -15 6 -27 19 -36c12 -10 38 -25 78 -44c72 -36 112 -58 138 -99c13 -21 19 -46 19 -76c0 -81 -44 -145 -132 -191v-2
c17 -19 26 -43 26 -74c0 -29 -9 -59 -27 -88zM429 313c-12 15 -32 30 -59 45l-90 49c-37 -17 -61 -50 -61 -87s22 -62 85 -98l80 -46c39 16 62 55 62 87c0 18 -6 35 -17 50z" />
    <glyph glyph-name="dieresis" unicode="&#xa8;" horiz-adv-x="441" 
d="M352 592l30 120h123l-30 -120h-123zM258 592h-123l30 120h123z" />
    <glyph glyph-name="copyright" unicode="&#xa9;" horiz-adv-x="802" 
d="M716 162c-60 -112 -172 -176 -315 -176c-213 -3 -362 151 -360 370c-2 219 147 373 360 370c213 3 362 -151 360 -370c0 -73 -15 -138 -45 -194zM670 521c-52 95 -148 150 -269 150c-183 0 -306 -127 -306 -315s123 -315 306 -315c121 0 217 55 269 150
c25 47 38 102 38 165s-13 118 -38 165zM597 297c-5 -54 -24 -96 -59 -126c-35 -31 -81 -46 -137 -46c-125 0 -202 87 -202 230c0 144 77 232 204 232c113 0 186 -66 191 -169h-97c-4 55 -38 90 -94 90c-67 0 -107 -58 -107 -153c0 -93 41 -151 105 -151c55 0 91 36 98 93h98
z" />
    <glyph glyph-name="ordfeminine" unicode="&#xaa;" horiz-adv-x="413" 
d="M444 583c0 -14 -2 -30 -6 -47l-26 -105c-11 -45 -16 -78 -14 -101h-107c0 15 2 29 5 40h-2c-35 -33 -75 -49 -122 -49c-71 0 -110 37 -110 97c0 61 47 112 171 128c35 5 67 8 94 9l2 7c2 7 3 14 3 21c0 26 -15 39 -45 39c-31 0 -51 -17 -58 -49h-116
c16 71 82 124 181 124c100 0 150 -38 150 -114zM244 483c-40 -7 -60 -23 -60 -50c0 -21 14 -34 41 -34c41 0 69 27 81 71l5 21c-25 -1 -47 -4 -67 -8z" />
    <glyph glyph-name="guillemotleft" unicode="&#xab;" horiz-adv-x="532" 
d="M253 258l157 196h128l-159 -204l59 -196h-116zM202 454h128l-159 -204l59 -196h-116l-69 204z" />
    <glyph glyph-name="logicalnot" unicode="&#xac;" horiz-adv-x="566" 
d="M64 353v109h438v-330h-108v221h-330z" />
    <glyph glyph-name="uni00AD" unicode="&#xad;" horiz-adv-x="320" 
d="M26 237l27 110h260l-27 -110h-260z" />
    <glyph glyph-name="registered" unicode="&#xae;" horiz-adv-x="592" 
d="M481 696c38 -21 67 -51 88 -90s31 -85 31 -136c0 -155 -100 -258 -251 -258s-251 103 -251 258s100 258 251 258c50 0 94 -11 132 -32zM462 276c64 36 102 106 102 194s-38 158 -102 195c-33 18 -70 27 -113 27c-128 0 -215 -89 -215 -222s87 -222 215 -222
c43 0 80 9 113 28zM452 493c-11 -14 -25 -23 -43 -28v-2c21 -7 33 -20 46 -56l33 -91h-72l-27 77c-9 32 -25 43 -56 43h-36v-120h-68v316h128c72 0 110 -34 110 -90c0 -19 -5 -35 -15 -49zM343 577h-46v-87h43c40 0 60 15 60 46c0 25 -20 41 -57 41z" />
    <glyph glyph-name="macron" unicode="&#xaf;" horiz-adv-x="427" 
d="M137 598l22 91h326l-22 -91h-326z" />
    <glyph glyph-name="degree" unicode="&#xb0;" horiz-adv-x="339" 
d="M387 587c0 -75 -63 -135 -135 -135c-74 0 -136 60 -136 135s62 135 136 135c72 0 135 -60 135 -135zM206 633c-13 -13 -19 -28 -19 -46c0 -36 29 -65 65 -65s65 29 65 65s-29 65 -65 65c-18 0 -33 -6 -46 -19z" />
    <glyph glyph-name="plusminus" unicode="&#xb1;" horiz-adv-x="566" 
d="M64 411h165v155h108v-155h165v-109h-165v-155h-108v155h-165v109zM64 0v109h438v-109h-438z" />
    <glyph glyph-name="uni00B2" unicode="&#xb2;" horiz-adv-x="457" 
d="M514 686c0 -72 -50 -128 -161 -176c-45 -19 -75 -34 -91 -45c-17 -11 -27 -23 -32 -36h235l-23 -99h-386c10 61 30 110 61 145s78 66 141 95c95 43 129 68 129 107c0 27 -17 41 -46 41c-38 0 -63 -23 -74 -69h-126c25 105 101 164 209 164c104 0 164 -50 164 -127z" />
    <glyph glyph-name="uni00B3" unicode="&#xb3;" horiz-adv-x="452" 
d="M515 690c0 -27 -9 -52 -26 -73c-18 -21 -46 -38 -85 -50v-1c43 -18 64 -49 64 -93c0 -74 -72 -154 -202 -154c-117 0 -181 45 -181 132c0 13 1 25 4 36h124c-2 -8 -3 -16 -3 -24c0 -33 20 -49 61 -49c45 0 75 30 75 59c0 32 -24 48 -73 48h-13l22 92h15c60 0 94 29 94 62
c0 28 -18 43 -54 43c-41 0 -68 -23 -79 -70h-123c24 104 103 165 212 165c107 0 168 -47 168 -123z" />
    <glyph glyph-name="acute" unicode="&#xb4;" horiz-adv-x="350" 
d="M128 566l107 146h179l-170 -146h-116z" />
    <glyph glyph-name="uni00B5" unicode="&#xb5;" horiz-adv-x="613" 
d="M541 101c8 0 16 1 25 3l-26 -105c-17 -5 -37 -7 -61 -7c-61 0 -92 28 -96 81h-2c-28 -48 -86 -79 -146 -79c-39 0 -67 11 -84 34l-53 -213h-140l173 693h140l-73 -292c-4 -18 -6 -33 -6 -46c0 -48 24 -72 72 -72c57 0 104 49 127 138l67 272h140l-84 -340
c-4 -15 -6 -27 -6 -36c0 -23 12 -31 33 -31z" />
    <glyph glyph-name="paragraph" unicode="&#xb6;" horiz-adv-x="656" 
d="M105 486c-2 104 84 229 220 226h421l-24 -96h-80l-183 -736h-103l183 736h-82l-183 -736h-103l102 410c-112 17 -168 82 -168 196z" />
    <glyph glyph-name="periodcentered" unicode="&#xb7;" horiz-adv-x="258" 
d="M44 222l41 167h154l-41 -167h-154z" />
    <glyph glyph-name="cedilla" unicode="&#xb8;" horiz-adv-x="333" 
d="M27 -106l-20 18l78 88h59l-53 -60c6 2 14 3 23 3c41 0 71 -27 71 -70c0 -28 -14 -52 -41 -71s-61 -28 -100 -28c-40 0 -75 10 -106 30l25 45c26 -15 52 -22 79 -22c35 0 57 16 57 40c0 21 -14 33 -38 33c-12 0 -23 -2 -34 -6z" />
    <glyph glyph-name="uni00B9" unicode="&#xb9;" horiz-adv-x="317" 
d="M105 631l22 89c84 0 129 25 153 82h111l-118 -472h-124l75 301h-119z" />
    <glyph glyph-name="ordmasculine" unicode="&#xba;" horiz-adv-x="442" 
d="M481 533c0 -33 -8 -66 -25 -99c-35 -67 -102 -115 -193 -115c-111 0 -175 61 -175 164c-2 98 80 217 217 214c112 0 176 -61 176 -164zM222 536c-7 -19 -10 -38 -10 -56c0 -47 19 -71 56 -71c59 0 88 73 88 126c0 47 -19 71 -56 71c-39 0 -66 -31 -78 -70z" />
    <glyph glyph-name="guillemotright" unicode="&#xbb;" horiz-adv-x="532" 
d="M330 54h-128l159 204l-59 196h116l69 -204zM-6 54l159 204l-59 196h116l69 -204l-157 -196h-128z" />
    <glyph glyph-name="onequarter" unicode="&#xbc;" horiz-adv-x="806" 
d="M753 80h-67l-20 -80h-111l20 80h-201l23 95l218 229h152l-60 -240h66zM61 0l537 674h91l-537 -674h-91zM96 603c73 0 113 20 133 71h102l-101 -404h-114l64 252h-103zM494 164h106l10 42c9 41 21 79 34 114h-2c-27 -30 -58 -63 -93 -100z" />
    <glyph glyph-name="onehalf" unicode="&#xbd;" horiz-adv-x="834" 
d="M768 221c-23 -25 -59 -47 -107 -66c-39 -15 -66 -27 -79 -36s-22 -18 -26 -29h206l-21 -90h-344c9 54 26 96 53 127s67 58 122 81c84 37 114 56 114 88c0 20 -14 33 -38 33c-33 0 -54 -19 -63 -58h-116c21 92 90 143 186 143c92 0 147 -43 147 -110
c0 -31 -11 -58 -34 -83zM61 0l537 674h91l-537 -674h-91zM77 522l19 81c73 0 113 20 133 71h102l-101 -404h-114l64 252h-103z" />
    <glyph glyph-name="threequarters" unicode="&#xbe;" horiz-adv-x="926" 
d="M494 80l23 95l218 229h152l-60 -240h66l-20 -84h-67l-20 -80h-111l20 80h-201zM65 406h114c-1 -9 -2 -16 -2 -20c0 -27 17 -40 52 -40c39 0 63 24 63 47c0 26 -21 39 -62 39h-12l20 82h14c49 0 78 23 78 50c0 23 -17 35 -46 35c-35 0 -58 -19 -67 -57h-112
c20 89 89 142 188 142c96 0 150 -39 150 -106c0 -50 -32 -85 -96 -105v-2c37 -14 56 -40 56 -78c0 -63 -64 -133 -179 -133c-105 0 -162 40 -162 115c0 10 1 20 3 31zM809 674l-537 -674h-91l537 674h91zM720 164l10 42c9 41 21 79 34 114h-2c-27 -30 -58 -63 -93 -100
l-55 -56h106z" />
    <glyph glyph-name="questiondown" unicode="&#xbf;" horiz-adv-x="517" 
d="M-31 -40c0 35 10 68 30 97s57 62 112 99c88 62 105 80 130 166h119c-29 -129 -45 -151 -147 -228c-41 -30 -68 -54 -81 -72c-13 -19 -19 -38 -19 -57c0 -40 27 -63 79 -63c60 0 99 32 116 101h146c-35 -145 -129 -222 -265 -222c-140 0 -220 66 -220 179zM425 508
l-33 -132h-154l33 132h154z" />
    <glyph glyph-name="Agrave" unicode="&#xc0;" horiz-adv-x="698" 
d="M632 0h-144l-12 174h-273l-99 -174h-164l424 712h198zM467 300l-3 47c-7 107 -11 199 -13 278h-2c-47 -93 -96 -186 -148 -278l-27 -47h193zM347 906h167l46 -146h-104z" />
    <glyph glyph-name="Aacute" unicode="&#xc1;" horiz-adv-x="698" 
d="M632 0h-144l-12 174h-273l-99 -174h-164l424 712h198zM274 300h193l-3 47c-7 107 -11 199 -13 278h-2c-47 -93 -96 -186 -148 -278zM498 906h179l-171 -146h-116z" />
    <glyph glyph-name="Acircumflex" unicode="&#xc2;" horiz-adv-x="698" 
d="M364 712h198l70 -712h-144l-12 174h-273l-99 -174h-164zM663 760h-114l-42 76l-79 -76h-142l151 146h149zM467 300l-3 47c-7 107 -11 199 -13 278h-2c-47 -93 -96 -186 -148 -278l-27 -47h193z" />
    <glyph glyph-name="Atilde" unicode="&#xc3;" horiz-adv-x="698" 
d="M364 712h198l70 -712h-144l-12 174h-273l-99 -174h-164zM645 807c-25 -24 -55 -36 -88 -36s-53 10 -80 27c-21 13 -33 19 -50 19c-28 0 -46 -14 -57 -46h-80c23 84 76 135 143 135c33 0 54 -10 81 -27c21 -13 32 -19 49 -19c29 0 47 14 59 46h78c-12 -42 -30 -75 -55 -99
zM467 300l-3 47c-7 107 -11 199 -13 278h-2c-47 -93 -96 -186 -148 -278l-27 -47h193z" />
    <glyph glyph-name="Adieresis" unicode="&#xc4;" horiz-adv-x="698" 
d="M-60 0l424 712h198l70 -712h-144l-12 174h-273l-99 -174h-164zM467 300l-3 47c-7 107 -11 199 -13 278h-2c-47 -93 -96 -186 -148 -278l-27 -47h193zM307 769l30 120h123l-30 -120h-123zM647 769h-123l30 120h123z" />
    <glyph glyph-name="Aring" unicode="&#xc5;" horiz-adv-x="698" 
d="M-60 0l424 712h198l70 -712h-144l-12 174h-273l-99 -174h-164zM597 858c0 -30 -10 -55 -31 -76s-47 -32 -77 -32s-55 11 -76 32s-32 46 -32 76s11 56 32 77s46 31 76 31s56 -10 77 -31s31 -47 31 -77zM274 300h193l-3 47c-7 107 -11 199 -13 278h-2
c-47 -93 -96 -186 -148 -278zM435 858c0 -29 25 -54 54 -54c31 0 54 25 54 54c0 31 -23 54 -54 54c-29 0 -54 -23 -54 -54z" />
    <glyph glyph-name="AE" unicode="&#xc6;" horiz-adv-x="965" 
d="M1020 712l-31 -126h-332l-17 -161h286l-32 -125h-268l-18 -174h275l-31 -126h-393l19 179h-254l-122 -179h-171l509 712h580zM507 595l-199 -292h182l31 292h-14z" />
    <glyph glyph-name="Ccedilla" unicode="&#xc7;" horiz-adv-x="702" 
d="M559 479c0 37 -10 67 -31 88s-51 31 -88 31c-145 5 -232 -178 -230 -316c0 -103 45 -168 130 -168c73 0 140 46 169 122h151c-47 -151 -162 -243 -310 -251l-39 -45c6 2 14 3 23 3c41 0 71 -27 71 -70c0 -28 -14 -52 -41 -71s-61 -28 -100 -28c-40 0 -75 10 -106 30
l25 45c25 -15 52 -22 79 -22c35 0 57 16 57 40c0 21 -14 33 -38 33c-12 0 -23 -2 -34 -6l-20 18l65 74c-149 13 -234 121 -234 286c0 71 15 142 45 213c30 70 75 128 135 174c59 46 131 69 215 69c157 0 256 -93 256 -233c0 -16 -1 -31 -4 -44h-148c1 12 2 21 2 28z" />
    <glyph glyph-name="Egrave" unicode="&#xc8;" horiz-adv-x="633" 
d="M688 712l-31 -126h-345l-40 -161h322l-32 -125h-322l-43 -174h354l-31 -126h-501l177 712h492zM483 906l46 -146h-104l-109 146h167z" />
    <glyph glyph-name="Eacute" unicode="&#xc9;" horiz-adv-x="633" 
d="M688 712l-31 -126h-345l-40 -161h322l-32 -125h-322l-43 -174h354l-31 -126h-501l177 712h492zM467 906h179l-171 -146h-116z" />
    <glyph glyph-name="Ecircumflex" unicode="&#xca;" horiz-adv-x="633" 
d="M657 586h-345l-40 -161h322l-32 -125h-322l-43 -174h354l-31 -126h-501l177 712h492zM406 906h149l77 -146h-114l-42 76l-79 -76h-142z" />
    <glyph glyph-name="Edieresis" unicode="&#xcb;" horiz-adv-x="633" 
d="M657 586h-345l-40 -161h322l-32 -125h-322l-43 -174h354l-31 -126h-501l177 712h492zM523 889h123l-30 -120h-123zM276 769l30 120h123l-30 -120h-123z" />
    <glyph glyph-name="Igrave" unicode="&#xcc;" horiz-adv-x="311" 
d="M19 0l177 712h147l-177 -712h-147zM321 906l46 -146h-104l-109 146h167z" />
    <glyph glyph-name="Iacute" unicode="&#xcd;" horiz-adv-x="311" 
d="M196 712h147l-177 -712h-147zM305 906h179l-171 -146h-116z" />
    <glyph glyph-name="Icircumflex" unicode="&#xce;" horiz-adv-x="311" 
d="M19 0l177 712h147l-177 -712h-147zM93 760l151 146h149l77 -146h-114l-42 76l-79 -76h-142z" />
    <glyph glyph-name="Idieresis" unicode="&#xcf;" horiz-adv-x="311" 
d="M196 712h147l-177 -712h-147zM331 769l30 120h123l-30 -120h-123zM144 889h123l-30 -120h-123z" />
    <glyph glyph-name="Eth" unicode="&#xd0;" horiz-adv-x="735" 
d="M723 406c0 -66 -16 -130 -47 -192c-32 -63 -81 -114 -147 -154s-147 -60 -243 -60h-267l76 307h-64l27 106h64l74 299h187c224 0 340 -107 340 -306zM196 126h99c194 -2 277 143 276 271c0 127 -63 189 -195 189h-65l-43 -173h166l-27 -106h-166z" />
    <glyph glyph-name="Ntilde" unicode="&#xd1;" horiz-adv-x="776" 
d="M19 0l177 712h197l72 -289c18 -75 40 -173 66 -294h2c18 103 40 206 66 309l68 274h141l-177 -712h-197l-72 289c-25 103 -47 201 -66 294h-2c-22 -118 -44 -221 -66 -309l-68 -274h-141zM739 906c-24 -84 -76 -135 -143 -135c-33 0 -53 10 -80 27c-21 13 -33 19 -50 19
c-28 0 -46 -14 -57 -46h-80c23 84 76 135 143 135c33 0 54 -10 81 -27c21 -13 32 -19 49 -19c29 0 47 14 59 46h78z" />
    <glyph glyph-name="Ograve" unicode="&#xd2;" horiz-adv-x="748" 
d="M738 424c2 -205 -142 -446 -388 -440c-91 0 -162 27 -213 82c-51 54 -76 128 -76 222c0 70 15 139 45 207c29 68 73 124 132 168c58 43 128 65 210 65c183 0 290 -118 290 -304zM209 289c0 -109 54 -175 147 -175c146 -5 235 174 234 310c0 108 -53 174 -148 174
c-147 5 -235 -172 -233 -309zM515 906l46 -146h-104l-109 146h167z" />
    <glyph glyph-name="Oacute" unicode="&#xd3;" horiz-adv-x="748" 
d="M738 424c2 -205 -142 -446 -388 -440c-91 0 -162 27 -213 82c-51 54 -76 128 -76 222c0 70 15 139 45 207c29 68 73 124 132 168c58 43 128 65 210 65c183 0 290 -118 290 -304zM209 289c0 -109 54 -175 147 -175c146 -5 235 174 234 310c0 108 -53 174 -148 174
c-147 5 -235 -172 -233 -309zM499 906h179l-171 -146h-116z" />
    <glyph glyph-name="Ocircumflex" unicode="&#xd4;" horiz-adv-x="748" 
d="M738 424c2 -205 -142 -446 -388 -440c-91 0 -162 27 -213 82c-51 54 -76 128 -76 222c0 70 15 139 45 207c29 68 73 124 132 168c58 43 128 65 210 65c183 0 290 -118 290 -304zM209 289c0 -109 54 -175 147 -175c146 -5 235 174 234 310c0 108 -53 174 -148 174
c-147 5 -235 -172 -233 -309zM438 906h149l77 -146h-114l-42 76l-79 -76h-142z" />
    <glyph glyph-name="Otilde" unicode="&#xd5;" horiz-adv-x="748" 
d="M704 586c23 -46 34 -100 34 -162c2 -205 -142 -446 -388 -440c-91 0 -162 27 -213 82c-51 54 -76 128 -76 222c0 70 15 139 45 207c29 68 73 124 132 168c58 43 128 65 210 65c121 0 211 -51 256 -142zM209 289c0 -109 54 -175 147 -175c146 -5 235 174 234 310
c0 108 -53 174 -148 174c-147 5 -235 -172 -233 -309zM600 871c9 7 17 19 23 35h78c-24 -84 -76 -135 -143 -135c-33 0 -53 10 -80 27c-21 13 -33 19 -50 19c-28 0 -46 -14 -57 -46h-80c23 84 76 135 143 135c33 0 54 -10 81 -27c21 -13 32 -19 49 -19c15 0 27 4 36 11z" />
    <glyph glyph-name="Odieresis" unicode="&#xd6;" horiz-adv-x="748" 
d="M738 424c2 -205 -142 -446 -388 -440c-91 0 -162 27 -213 82c-51 54 -76 128 -76 222c0 70 15 139 45 207c29 68 73 124 132 168c58 43 128 65 210 65c183 0 290 -118 290 -304zM209 289c0 -109 54 -175 147 -175c146 -5 235 174 234 310c0 108 -53 174 -148 174
c-147 5 -235 -172 -233 -309zM525 769l30 120h123l-30 -120h-123zM308 769l30 120h123l-30 -120h-123z" />
    <glyph glyph-name="multiply" unicode="&#xd7;" horiz-adv-x="566" 
d="M99 45l-78 77l185 185l-185 185l78 76l184 -184l185 184l77 -76l-185 -185l185 -185l-77 -77l-185 185z" />
    <glyph glyph-name="Oslash" unicode="&#xd8;" horiz-adv-x="748" 
d="M717 727l53 -53l-74 -74c28 -48 42 -107 42 -176c2 -205 -142 -446 -388 -440c-83 0 -150 23 -200 69l-67 -68l-53 53l73 73c-28 48 -42 107 -42 177s15 139 45 207c29 68 73 124 132 168c58 43 128 65 210 65c83 0 150 -23 201 -69zM203 289c0 -23 3 -46 8 -69l340 341
c-27 30 -63 45 -109 45c-149 5 -241 -178 -239 -317zM248 150c27 -29 63 -44 108 -44c148 -5 242 180 240 318c0 23 -3 46 -8 67z" />
    <glyph glyph-name="Ugrave" unicode="&#xd9;" horiz-adv-x="718" 
d="M636 230c-40 -159 -153 -246 -314 -246c-157 0 -245 83 -245 232c0 30 4 62 13 97l100 399h147l-105 -423c-6 -24 -9 -45 -9 -64c0 -73 38 -111 111 -111c83 0 140 54 164 151l111 447h147zM347 906h167l46 -146h-104z" />
    <glyph glyph-name="Uacute" unicode="&#xda;" horiz-adv-x="718" 
d="M636 230c-40 -159 -153 -246 -314 -246c-157 0 -245 83 -245 232c0 30 4 62 13 97l100 399h147l-105 -423c-6 -24 -9 -45 -9 -64c0 -73 38 -111 111 -111c83 0 140 54 164 151l111 447h147zM498 906h179l-171 -146h-116z" />
    <glyph glyph-name="Ucircumflex" unicode="&#xdb;" horiz-adv-x="718" 
d="M636 230c-40 -159 -153 -246 -314 -246c-157 0 -245 83 -245 232c0 30 4 62 13 97l100 399h147l-105 -423c-6 -24 -9 -45 -9 -64c0 -73 38 -111 111 -111c83 0 140 54 164 151l111 447h147zM286 760l151 146h149l77 -146h-114l-42 76l-79 -76h-142z" />
    <glyph glyph-name="Udieresis" unicode="&#xdc;" horiz-adv-x="718" 
d="M77 216c0 30 4 62 13 97l100 399h147l-105 -423c-6 -24 -9 -45 -9 -64c0 -73 38 -111 111 -111c83 0 140 54 164 151l111 447h147l-120 -482c-40 -159 -153 -246 -314 -246c-157 0 -245 83 -245 232zM307 769l30 120h123l-30 -120h-123zM647 769h-123l30 120h123z" />
    <glyph glyph-name="Yacute" unicode="&#xdd;" horiz-adv-x="638" 
d="M182 0l69 277l-135 435h149l35 -134c15 -57 28 -118 39 -181h2c38 60 80 120 127 181l101 134h180l-351 -435l-69 -277h-147zM442 906h179l-171 -146h-116z" />
    <glyph glyph-name="Thorn" unicode="&#xde;" horiz-adv-x="635" 
d="M639 395c0 -41 -10 -82 -31 -121c-41 -80 -129 -139 -257 -139h-152l-33 -135h-147l177 712h147l-30 -117h82c163 0 244 -73 244 -200zM283 473l-54 -216h122c47 0 81 12 103 35s33 51 33 82c0 66 -37 99 -112 99h-92z" />
    <glyph glyph-name="germandbls" unicode="&#xdf;" horiz-adv-x="575" 
d="M584 577c0 -41 -13 -78 -40 -112c-27 -35 -68 -59 -123 -72v-2c74 -23 111 -73 111 -152c2 -116 -103 -247 -271 -244c-21 0 -40 3 -57 8l27 110c5 -1 12 -2 21 -2c97 0 138 71 138 134c0 57 -33 88 -100 88h-4l28 115c48 0 82 11 102 32s30 44 30 71c0 44 -22 66 -67 66
c-56 0 -90 -36 -110 -117l-124 -500h-140l129 518c33 133 127 210 258 210c120 0 192 -58 192 -151z" />
    <glyph glyph-name="agrave" unicode="&#xe0;" horiz-adv-x="547" 
d="M457 139c-15 -60 -22 -106 -21 -139h-122c0 21 3 40 8 59h-2c-48 -47 -105 -71 -171 -71c-97 0 -152 52 -152 135c0 43 18 81 53 114c35 32 94 54 178 67c47 7 93 11 138 14l3 12c3 13 5 24 5 33c0 43 -27 63 -72 63c-49 0 -84 -29 -95 -77h-136c11 51 38 93 80 126
s95 49 160 49c130 0 195 -53 195 -158c0 -21 -3 -43 -9 -67zM159 103c11 -10 26 -15 47 -15c68 0 112 40 131 113l8 32c-39 -3 -74 -6 -105 -11c-65 -11 -98 -37 -98 -80c0 -17 6 -30 17 -39zM200 712h167l47 -146h-104z" />
    <glyph glyph-name="aacute" unicode="&#xe1;" horiz-adv-x="547" 
d="M457 139c-15 -60 -22 -106 -21 -139h-122c0 21 3 40 8 59h-2c-48 -47 -105 -71 -171 -71c-97 0 -152 52 -152 135c0 43 18 81 53 114c35 32 94 54 178 67c47 7 93 11 138 14l3 12c3 13 5 24 5 33c0 43 -27 63 -72 63c-49 0 -84 -29 -95 -77h-136c11 51 38 93 80 126
s95 49 160 49c130 0 195 -53 195 -158c0 -21 -3 -43 -9 -67zM159 103c11 -10 26 -15 47 -15c68 0 112 40 131 113l8 32c-39 -3 -74 -6 -105 -11c-65 -11 -98 -37 -98 -80c0 -17 6 -30 17 -39zM351 712h179l-170 -146h-116z" />
    <glyph glyph-name="acircumflex" unicode="&#xe2;" horiz-adv-x="547" 
d="M-3 123c0 43 18 81 53 114c35 32 94 54 178 67c47 7 93 11 138 14l3 12c3 13 5 24 5 33c0 43 -27 63 -72 63c-49 0 -84 -29 -95 -77h-136c11 51 38 93 80 126s95 49 160 49c130 0 195 -53 195 -158c0 -21 -3 -43 -9 -67l-40 -160c-15 -60 -22 -106 -21 -139h-122
c0 21 3 40 8 59h-2c-48 -47 -105 -71 -171 -71c-97 0 -152 52 -152 135zM399 566l-42 76l-79 -76h-138l150 146h149l78 -146h-118zM159 103c11 -10 26 -15 47 -15c68 0 112 40 131 113l8 32c-39 -3 -74 -6 -105 -11c-65 -11 -98 -37 -98 -80c0 -17 6 -30 17 -39z" />
    <glyph glyph-name="atilde" unicode="&#xe3;" horiz-adv-x="547" 
d="M355 411c-13 10 -30 15 -53 15c-49 0 -84 -29 -95 -77h-136c11 51 38 93 80 126s95 49 160 49c130 0 195 -53 195 -158c0 -21 -3 -43 -9 -67l-40 -160c-15 -60 -22 -106 -21 -139h-122c0 21 3 40 8 59h-2c-48 -47 -105 -71 -171 -71c-97 0 -152 52 -152 135
c0 43 18 81 53 114c35 32 94 54 178 67c47 7 93 11 138 14l3 12c3 13 5 24 5 33c0 21 -6 37 -19 48zM393 671c7 -3 14 -5 23 -5c29 0 47 14 59 46h78c-24 -84 -76 -135 -143 -135c-33 0 -54 10 -79 27c-21 13 -33 19 -50 19c-28 0 -46 -14 -57 -46h-80c23 84 76 135 143 135
c33 0 53 -10 80 -27c11 -7 19 -11 26 -14zM345 233c-39 -3 -74 -6 -105 -11c-65 -11 -98 -37 -98 -80c0 -33 23 -54 64 -54c68 0 112 40 131 113z" />
    <glyph glyph-name="adieresis" unicode="&#xe4;" horiz-adv-x="547" 
d="M-3 123c0 43 18 81 53 114c35 32 94 54 178 67c47 7 93 11 138 14l3 12c3 13 5 24 5 33c0 43 -27 63 -72 63c-49 0 -84 -29 -95 -77h-136c11 51 38 93 80 126s95 49 160 49c130 0 195 -53 195 -158c0 -21 -3 -43 -9 -67l-40 -160c-15 -60 -22 -106 -21 -139h-122
c0 21 3 40 8 59h-2c-48 -47 -105 -71 -171 -71c-97 0 -152 52 -152 135zM159 103c11 -10 26 -15 47 -15c68 0 112 40 131 113l8 32c-39 -3 -74 -6 -105 -11c-65 -11 -98 -37 -98 -80c0 -17 6 -30 17 -39zM165 592l30 120h123l-30 -120h-123zM412 712h123l-30 -120h-123z" />
    <glyph glyph-name="aring" unicode="&#xe5;" horiz-adv-x="547" 
d="M355 411c-13 10 -30 15 -53 15c-49 0 -84 -29 -95 -77h-136c11 51 38 93 80 126s95 49 160 49c130 0 195 -53 195 -158c0 -21 -3 -43 -9 -67l-40 -160c-15 -60 -22 -106 -21 -139h-122c0 21 3 40 8 59h-2c-48 -47 -105 -71 -171 -71c-97 0 -152 52 -152 135
c0 43 18 81 53 114c35 32 94 54 178 67c47 7 93 11 138 14l3 12c3 13 5 24 5 33c0 21 -6 37 -19 48zM343 556c-30 0 -55 11 -76 32s-32 46 -32 76s11 56 32 77s46 31 76 31s56 -10 77 -31s31 -47 31 -77s-10 -55 -31 -76s-47 -32 -77 -32zM159 103c11 -10 26 -15 47 -15
c68 0 112 40 131 113l8 32c-39 -3 -74 -6 -105 -11c-65 -11 -98 -37 -98 -80c0 -17 6 -30 17 -39zM343 718c-29 0 -54 -23 -54 -54c0 -29 25 -54 54 -54c31 0 54 25 54 54c0 31 -23 54 -54 54z" />
    <glyph glyph-name="ae" unicode="&#xe6;" horiz-adv-x="879" 
d="M714 33c-46 -33 -98 -49 -156 -49c-84 0 -142 33 -174 92c-51 -61 -122 -92 -199 -92c-120 0 -187 56 -187 143c0 91 74 181 286 181h88l4 16c3 15 5 26 5 34c0 48 -26 68 -77 68c-52 0 -87 -29 -98 -77h-136c11 51 37 93 80 126c42 33 95 49 158 49
c79 0 134 -21 164 -62c48 41 104 62 167 62c136 0 210 -79 210 -207c0 -27 -4 -57 -12 -92h-354c-3 -14 -4 -28 -4 -43c0 -68 35 -99 87 -99c48 0 88 30 103 71h143c-20 -49 -53 -89 -98 -121zM279 225c-93 0 -139 -28 -139 -83c0 -18 6 -32 18 -42c12 -11 30 -16 54 -16
c72 0 115 41 136 125l4 16h-73zM557 397c-22 -19 -39 -47 -52 -84h212c1 11 2 18 2 22c0 60 -35 90 -88 90c-27 0 -52 -9 -74 -28z" />
    <glyph glyph-name="ccedilla" unicode="&#xe7;" horiz-adv-x="562" 
d="M398 328c0 27 -7 49 -20 65c-13 15 -32 23 -56 23c-90 4 -147 -129 -146 -208c0 -73 29 -116 84 -116c49 0 94 37 111 97h147c-17 -57 -48 -103 -91 -140s-93 -59 -149 -64l-40 -45c6 2 14 3 23 3c41 0 71 -27 71 -70c0 -28 -14 -52 -41 -71s-61 -28 -100 -28
c-40 0 -75 10 -106 30l25 45c26 -15 52 -22 79 -22c35 0 57 16 57 40c0 21 -14 33 -38 33c-11 0 -23 -2 -34 -6l-20 18l65 74c-117 12 -186 93 -186 221c-2 140 108 322 297 317c67 0 119 -17 157 -51c38 -35 57 -80 57 -137c0 -12 -1 -21 -2 -27h-146c1 7 2 13 2 19z" />
    <glyph glyph-name="egrave" unicode="&#xe8;" horiz-adv-x="573" 
d="M531 225h-364c-3 -14 -4 -28 -4 -43c0 -68 37 -99 92 -99c51 0 93 30 108 71h143c-21 -49 -54 -89 -101 -121c-47 -33 -99 -49 -158 -49c-141 0 -216 80 -216 215c-2 144 110 330 297 325c140 0 215 -79 215 -207c0 -27 -4 -57 -12 -92zM411 313c1 11 2 18 2 22
c0 60 -37 90 -93 90s-104 -37 -131 -112h222zM215 712h167l47 -146h-104z" />
    <glyph glyph-name="eacute" unicode="&#xe9;" horiz-adv-x="573" 
d="M531 225h-364c-3 -14 -4 -28 -4 -43c0 -68 37 -99 92 -99c51 0 93 30 108 71h143c-21 -49 -54 -89 -101 -121c-47 -33 -99 -49 -158 -49c-141 0 -216 80 -216 215c-2 144 110 330 297 325c140 0 215 -79 215 -207c0 -27 -4 -57 -12 -92zM366 712h179l-170 -146h-116z
M189 313h222c1 11 2 18 2 22c0 60 -37 90 -93 90s-104 -37 -131 -112z" />
    <glyph glyph-name="ecircumflex" unicode="&#xea;" horiz-adv-x="573" 
d="M531 225h-364c-3 -14 -4 -28 -4 -43c0 -68 37 -99 92 -99c51 0 93 30 108 71h143c-21 -49 -54 -89 -101 -121c-47 -33 -99 -49 -158 -49c-141 0 -216 80 -216 215c-2 144 110 330 297 325c140 0 215 -79 215 -207c0 -27 -4 -57 -12 -92zM155 566l150 146h149l78 -146
h-118l-42 76l-79 -76h-138zM411 313c1 11 2 18 2 22c0 60 -37 90 -93 90s-104 -37 -131 -112h222z" />
    <glyph glyph-name="edieresis" unicode="&#xeb;" horiz-adv-x="573" 
d="M531 225h-364c-3 -14 -4 -28 -4 -43c0 -68 37 -99 92 -99c51 0 93 30 108 71h143c-21 -49 -54 -89 -101 -121c-47 -33 -99 -49 -158 -49c-141 0 -216 80 -216 215c-2 144 110 330 297 325c140 0 215 -79 215 -207c0 -27 -4 -57 -12 -92zM189 313h222c1 11 2 18 2 22
c0 60 -37 90 -93 90s-104 -37 -131 -112zM397 592l30 120h123l-30 -120h-123zM180 592l30 120h123l-30 -120h-123z" />
    <glyph glyph-name="igrave" unicode="&#xec;" horiz-adv-x="276" 
d="M131 508h140l-126 -508h-140zM254 712l47 -146h-104l-110 146h167z" />
    <glyph glyph-name="iacute" unicode="&#xed;" horiz-adv-x="276" 
d="M5 0l126 508h140l-126 -508h-140zM131 566l107 146h179l-170 -146h-116z" />
    <glyph glyph-name="icircumflex" unicode="&#xee;" horiz-adv-x="276" 
d="M5 0l126 508h140l-126 -508h-140zM181 712h141l67 -145h-110l-34 77l-72 -77h-131z" />
    <glyph glyph-name="idieresis" unicode="&#xef;" horiz-adv-x="276" 
d="M131 508h140l-126 -508h-140zM247 592l30 120h123l-30 -120h-123zM104 712h123l-30 -120h-123z" />
    <glyph glyph-name="eth" unicode="&#xf0;" horiz-adv-x="590" 
d="M541 724l22 -60l-111 -40c71 -91 110 -193 110 -298c2 -158 -114 -347 -311 -342c-137 0 -219 83 -220 222c0 131 111 307 283 302c26 0 49 -4 70 -12l1 2c-17 28 -36 55 -57 80l-144 -52l-22 60l120 44c-29 27 -43 40 -44 41l114 57c20 -17 39 -34 56 -53zM195 294
c-12 -34 -18 -66 -19 -96c1 -68 31 -106 84 -106c96 -3 156 127 155 210c0 72 -32 114 -88 114c-61 0 -108 -54 -132 -122z" />
    <glyph glyph-name="ntilde" unicode="&#xf1;" 
d="M5 0l127 508h131l-14 -56h2c43 43 96 68 152 68c99 0 155 -53 155 -150c0 -23 -3 -47 -10 -73l-74 -297h-140l73 294c5 19 7 36 7 52c0 43 -22 64 -67 64c-60 0 -111 -49 -134 -138l-68 -272h-140zM527 712h78c-24 -84 -76 -135 -143 -135c-33 0 -54 10 -79 27
c-21 13 -33 19 -50 19c-28 0 -46 -14 -57 -46h-80c23 84 76 135 143 135c33 0 53 -10 80 -27c21 -13 32 -19 49 -19c29 0 47 14 59 46z" />
    <glyph glyph-name="ograve" unicode="&#xf2;" horiz-adv-x="590" 
d="M522 154c-23 -49 -58 -89 -103 -121c-46 -33 -100 -49 -163 -49c-144 0 -223 83 -223 224c-2 141 112 321 299 316c145 0 225 -83 225 -224c0 -49 -12 -97 -35 -146zM200 123c15 -21 38 -31 68 -31c94 -3 145 122 144 207c0 75 -31 117 -91 117
c-95 3 -145 -122 -144 -207c0 -37 8 -66 23 -86zM391 712l47 -146h-104l-110 146h167z" />
    <glyph glyph-name="oacute" unicode="&#xf3;" horiz-adv-x="590" 
d="M522 154c-23 -49 -58 -89 -103 -121c-46 -33 -100 -49 -163 -49c-144 0 -223 83 -223 224c-2 141 112 321 299 316c145 0 225 -83 225 -224c0 -49 -12 -97 -35 -146zM200 123c15 -21 38 -31 68 -31c94 -3 145 122 144 207c0 75 -31 117 -91 117
c-95 3 -145 -122 -144 -207c0 -37 8 -66 23 -86zM375 712h179l-170 -146h-116z" />
    <glyph glyph-name="ocircumflex" unicode="&#xf4;" horiz-adv-x="590" 
d="M522 154c-23 -49 -58 -89 -103 -121c-46 -33 -100 -49 -163 -49c-144 0 -223 83 -223 224c-2 141 112 321 299 316c145 0 225 -83 225 -224c0 -49 -12 -97 -35 -146zM177 209c0 -75 31 -117 91 -117c94 -3 145 122 144 207c0 75 -31 117 -91 117
c-95 3 -145 -122 -144 -207zM314 712h149l78 -146h-118l-42 76l-79 -76h-138z" />
    <glyph glyph-name="otilde" unicode="&#xf5;" horiz-adv-x="590" 
d="M557 300c2 -142 -112 -320 -301 -316c-144 0 -223 83 -223 224c-2 141 112 321 299 316c145 0 225 -83 225 -224zM200 123c15 -21 38 -31 68 -31c94 -3 145 122 144 207c0 75 -31 117 -91 117c-95 3 -145 -122 -144 -207c0 -37 8 -66 23 -86zM476 677c9 7 17 19 23 35h78
c-24 -84 -76 -135 -143 -135c-33 0 -54 10 -79 27c-21 13 -33 19 -50 19c-28 0 -46 -14 -57 -46h-80c23 84 76 135 143 135c33 0 53 -10 80 -27c21 -13 32 -19 49 -19c15 0 27 4 36 11z" />
    <glyph glyph-name="odieresis" unicode="&#xf6;" horiz-adv-x="590" 
d="M33 208c-2 141 112 321 299 316c145 0 225 -83 225 -224c2 -142 -112 -320 -301 -316c-144 0 -223 83 -223 224zM200 123c15 -21 38 -31 68 -31c94 -3 145 122 144 207c0 75 -31 117 -91 117c-95 3 -145 -122 -144 -207c0 -37 8 -66 23 -86zM219 712h123l-30 -120h-123z
M529 592h-123l30 120h123z" />
    <glyph glyph-name="divide" unicode="&#xf7;" horiz-adv-x="566" 
d="M64 262v109h438v-109h-438zM342 82h-118v110h118v-110zM224 551h118v-110h-118v110z" />
    <glyph glyph-name="oslash" unicode="&#xf8;" horiz-adv-x="590" 
d="M537 544l46 -46l-61 -61c23 -37 35 -82 35 -137c2 -142 -112 -320 -301 -316c-59 0 -108 14 -145 42l-61 -61l-46 46l63 63c-23 35 -34 79 -34 134c-2 141 112 321 299 316c59 0 107 -13 145 -40zM417 332l-218 -218c17 -18 40 -27 69 -27c100 -4 152 127 152 212
c0 12 -1 23 -3 33zM186 303c-11 -33 -17 -65 -17 -94c0 -7 1 -18 2 -31l217 217c-16 17 -38 26 -67 26c-67 0 -112 -53 -135 -118z" />
    <glyph glyph-name="ugrave" unicode="&#xf9;" 
d="M468 0h-131l14 56h-2c-43 -43 -96 -68 -152 -68c-99 0 -155 53 -155 150c0 23 3 47 10 73l74 297h140l-73 -294c-5 -19 -7 -36 -7 -52c0 -43 22 -64 67 -64c60 0 111 49 134 138l68 272h140zM406 712l47 -146h-104l-110 146h167z" />
    <glyph glyph-name="uacute" unicode="&#xfa;" 
d="M468 0h-131l14 56h-2c-43 -43 -96 -68 -152 -68c-99 0 -155 53 -155 150c0 23 3 47 10 73l74 297h140l-73 -294c-5 -19 -7 -36 -7 -52c0 -43 22 -64 67 -64c60 0 111 49 134 138l68 272h140zM390 712h179l-170 -146h-116z" />
    <glyph glyph-name="ucircumflex" unicode="&#xfb;" 
d="M52 211l74 297h140l-73 -294c-5 -19 -7 -36 -7 -52c0 -43 22 -64 67 -64c60 0 111 49 134 138l68 272h140l-127 -508h-131l14 56h-2c-43 -43 -96 -68 -152 -68c-99 0 -155 53 -155 150c0 23 3 47 10 73zM556 566h-118l-42 76l-79 -76h-138l150 146h149z" />
    <glyph glyph-name="udieresis" unicode="&#xfc;" 
d="M52 211l74 297h140l-73 -294c-5 -19 -7 -36 -7 -52c0 -43 22 -64 67 -64c60 0 111 49 134 138l68 272h140l-127 -508h-131l14 56h-2c-43 -43 -96 -68 -152 -68c-99 0 -155 53 -155 150c0 23 3 47 10 73zM234 712h123l-30 -120h-123zM544 592h-123l30 120h123z" />
    <glyph glyph-name="yacute" unicode="&#xfd;" horiz-adv-x="504" 
d="M574 508l-309 -511c-90 -144 -158 -186 -289 -188c-26 0 -50 3 -71 8l28 112c14 -5 31 -8 52 -8c71 0 117 47 117 110c0 11 -2 33 -5 64l-41 413h138l12 -170c5 -78 8 -149 7 -213h2c38 81 74 152 108 213l95 170h156zM332 712h179l-170 -146h-116z" />
    <glyph glyph-name="thorn" unicode="&#xfe;" horiz-adv-x="598" 
d="M569 323c0 -50 -11 -101 -33 -153c-22 -53 -54 -96 -95 -131c-42 -35 -91 -52 -147 -52c-61 0 -110 29 -131 78h-2l-62 -250h-140l223 897h140l-61 -245h2c37 35 86 54 130 54c112 0 176 -74 176 -198zM214 301c-11 -32 -17 -64 -17 -95c0 -35 7 -63 22 -82
c14 -20 34 -30 60 -30c88 -3 143 117 142 208c0 71 -30 112 -82 112c-59 0 -102 -49 -125 -113z" />
    <glyph glyph-name="ydieresis" unicode="&#xff;" horiz-adv-x="504" 
d="M-95 -183l28 112c14 -5 31 -8 52 -8c71 0 117 47 117 110c0 11 -2 33 -5 64l-41 413h138l12 -170c5 -78 8 -149 7 -213h2c38 81 74 152 108 213l95 170h156l-309 -511c-90 -144 -158 -186 -289 -188c-26 0 -50 3 -71 8zM176 712h123l-30 -120h-123zM486 592h-123l30 120
h123z" />
    <glyph glyph-name="Amacron" unicode="&#x100;" horiz-adv-x="698" 
d="M-60 0l424 712h198l70 -712h-144l-12 174h-273l-99 -174h-164zM467 300l-3 47c-7 107 -11 199 -13 278h-2c-47 -93 -96 -186 -148 -278l-27 -47h193zM643 778h-326l22 91h326z" />
    <glyph glyph-name="amacron" unicode="&#x101;" horiz-adv-x="547" 
d="M497 299l-40 -160c-15 -60 -22 -106 -21 -139h-122c0 21 3 40 8 59h-2c-48 -47 -105 -71 -171 -71c-97 0 -152 52 -152 135c0 43 18 81 53 114c35 32 94 54 178 67c47 7 93 11 138 14l3 12c3 13 5 24 5 33c0 43 -27 63 -72 63c-49 0 -84 -29 -95 -77h-136
c11 51 38 93 80 126s95 49 160 49c130 0 195 -53 195 -158c0 -21 -3 -43 -9 -67zM196 689h326l-22 -91h-326zM142 142c0 -33 23 -54 64 -54c68 0 112 40 131 113l8 32c-39 -3 -74 -6 -105 -11c-65 -11 -98 -37 -98 -80z" />
    <glyph glyph-name="Abreve" unicode="&#x102;" horiz-adv-x="698" 
d="M-60 0l424 712h198l70 -712h-144l-12 174h-273l-99 -174h-164zM612 795c-37 -27 -81 -40 -133 -40c-91 0 -144 46 -144 123c0 5 1 15 2 28h83c-1 -3 -1 -8 -1 -13c0 -32 24 -51 67 -51c48 0 83 24 94 64h107c-13 -48 -38 -85 -75 -111zM274 300h193l-3 47
c-7 107 -11 199 -13 278h-2c-47 -93 -96 -186 -148 -278z" />
    <glyph glyph-name="abreve" unicode="&#x103;" horiz-adv-x="547" 
d="M355 411c-13 10 -30 15 -53 15c-49 0 -84 -29 -95 -77h-136c11 51 38 93 80 126s95 49 160 49c130 0 195 -53 195 -158c0 -21 -3 -43 -9 -67l-40 -160c-15 -60 -22 -106 -21 -139h-122c0 21 3 40 8 59h-2c-48 -47 -105 -71 -171 -71c-97 0 -152 52 -152 135
c0 43 18 81 53 114c35 32 94 54 178 67c47 7 93 11 138 14l3 12c3 13 5 24 5 33c0 21 -6 37 -19 48zM433 712h107c-27 -96 -104 -151 -208 -151c-91 0 -144 46 -144 123c0 5 1 15 2 28h83c-1 -3 -1 -8 -1 -13c0 -32 24 -51 67 -51c48 0 83 24 94 64zM159 103
c11 -10 26 -15 47 -15c68 0 112 40 131 113l8 32c-39 -3 -74 -6 -105 -11c-65 -11 -98 -37 -98 -80c0 -17 6 -30 17 -39z" />
    <glyph glyph-name="Aogonek" unicode="&#x104;" horiz-adv-x="698" 
d="M587 -188c-21 -6 -44 -9 -69 -9c-68 0 -103 27 -103 75c0 44 34 83 107 122h-34l-12 174h-273l-99 -174h-164l424 712h198l70 -712c-69 -41 -91 -69 -91 -98c0 -14 9 -21 28 -21c14 0 26 2 37 6zM467 300l-3 47c-7 107 -11 199 -13 278h-2c-47 -93 -96 -186 -148 -278
l-27 -47h193z" />
    <glyph glyph-name="aogonek" unicode="&#x105;" horiz-adv-x="547" 
d="M366 318l3 12c3 13 5 24 5 33c0 43 -27 63 -72 63c-49 0 -84 -29 -95 -77h-136c11 51 38 93 80 126s95 49 160 49c130 0 195 -53 195 -158c0 -21 -3 -43 -9 -67l-40 -160c-15 -60 -22 -106 -21 -139c-69 -41 -91 -69 -91 -98c0 -14 9 -21 28 -21c14 0 26 2 37 6l-19 -75
c-21 -6 -44 -9 -69 -9c-68 0 -103 27 -103 75c0 44 34 83 107 122h-12c0 21 3 40 8 59h-2c-48 -47 -105 -71 -171 -71c-97 0 -152 52 -152 135c0 43 18 81 53 114c35 32 94 54 178 67c47 7 93 11 138 14zM240 222c-65 -11 -98 -37 -98 -80c0 -17 6 -30 17 -39
c11 -10 26 -15 47 -15c68 0 112 40 131 113l8 32c-39 -3 -74 -6 -105 -11z" />
    <glyph glyph-name="Cacute" unicode="&#x106;" horiz-adv-x="702" 
d="M705 451h-148c1 12 2 21 2 28c0 75 -44 119 -119 119c-145 5 -232 -178 -230 -316c0 -103 45 -168 130 -168c73 0 140 46 169 122h151c-25 -79 -66 -141 -125 -185c-59 -45 -129 -67 -208 -67c-85 0 -151 26 -198 78c-47 51 -71 121 -71 210c0 71 15 142 45 213
c30 70 75 128 135 174c59 46 131 69 215 69c157 0 256 -93 256 -233c0 -16 -1 -31 -4 -44zM493 906h179l-171 -146h-116z" />
    <glyph glyph-name="cacute" unicode="&#x107;" horiz-adv-x="562" 
d="M542 309h-146c1 7 2 13 2 19c0 55 -28 88 -76 88c-90 4 -147 -129 -146 -208c0 -73 29 -116 84 -116c49 0 94 37 111 97h147c-19 -62 -53 -112 -101 -149c-49 -37 -104 -56 -165 -56c-137 0 -219 83 -219 223c-2 140 108 322 297 317c67 0 119 -17 157 -51
c38 -35 57 -80 57 -137c0 -12 -1 -21 -2 -27zM371 712h179l-170 -146h-116z" />
    <glyph glyph-name="Ccircumflex" unicode="&#x108;" horiz-adv-x="702" 
d="M705 451h-148c1 12 2 21 2 28c0 75 -44 119 -119 119c-145 5 -232 -178 -230 -316c0 -103 45 -168 130 -168c73 0 140 46 169 122h151c-25 -79 -66 -141 -125 -185c-59 -45 -129 -67 -208 -67c-85 0 -151 26 -198 78c-47 51 -71 121 -71 210c0 71 15 142 45 213
c30 70 75 128 135 174c59 46 131 69 215 69c157 0 256 -93 256 -233c0 -16 -1 -31 -4 -44zM432 906h149l77 -146h-114l-42 76l-79 -76h-142z" />
    <glyph glyph-name="ccircumflex" unicode="&#x109;" horiz-adv-x="562" 
d="M542 309h-146c1 7 2 13 2 19c0 55 -28 88 -76 88c-90 4 -147 -129 -146 -208c0 -73 29 -116 84 -116c49 0 94 37 111 97h147c-19 -62 -53 -112 -101 -149c-49 -37 -104 -56 -165 -56c-137 0 -219 83 -219 223c-2 140 108 322 297 317c67 0 119 -17 157 -51
c38 -35 57 -80 57 -137c0 -12 -1 -21 -2 -27zM160 566l150 146h149l78 -146h-118l-42 76l-79 -76h-138z" />
    <glyph glyph-name="Cdotaccent" unicode="&#x10a;" horiz-adv-x="702" 
d="M705 451h-148c1 12 2 21 2 28c0 75 -44 119 -119 119c-145 5 -232 -178 -230 -316c0 -103 45 -168 130 -168c73 0 140 46 169 122h151c-25 -79 -66 -141 -125 -185c-59 -45 -129 -67 -208 -67c-85 0 -151 26 -198 78c-47 51 -71 121 -71 210c0 71 15 142 45 213
c30 70 75 128 135 174c59 46 131 69 215 69c157 0 256 -93 256 -233c0 -16 -1 -31 -4 -44zM432 889h140l-30 -120h-140z" />
    <glyph glyph-name="cdotaccent" unicode="&#x10b;" horiz-adv-x="562" 
d="M542 309h-146c1 7 2 13 2 19c0 55 -28 88 -76 88c-90 4 -147 -129 -146 -208c0 -73 29 -116 84 -116c49 0 94 37 111 97h147c-19 -62 -53 -112 -101 -149c-49 -37 -104 -56 -165 -56c-137 0 -219 83 -219 223c-2 140 108 322 297 317c67 0 119 -17 157 -51
c38 -35 57 -80 57 -137c0 -12 -1 -21 -2 -27zM315 712h140l-30 -120h-140z" />
    <glyph glyph-name="Ccaron" unicode="&#x10c;" horiz-adv-x="702" 
d="M705 451h-148c1 12 2 21 2 28c0 75 -44 119 -119 119c-145 5 -232 -178 -230 -316c0 -103 45 -168 130 -168c73 0 140 46 169 122h151c-25 -79 -66 -141 -125 -185c-59 -45 -129 -67 -208 -67c-85 0 -151 26 -198 78c-47 51 -71 121 -71 210c0 71 15 142 45 213
c30 70 75 128 135 174c59 46 131 69 215 69c157 0 256 -93 256 -233c0 -16 -1 -31 -4 -44zM318 906h114l42 -76l79 76h142l-151 -146h-149z" />
    <glyph glyph-name="ccaron" unicode="&#x10d;" horiz-adv-x="562" 
d="M542 309h-146c1 7 2 13 2 19c0 55 -28 88 -76 88c-90 4 -147 -129 -146 -208c0 -73 29 -116 84 -116c49 0 94 37 111 97h147c-19 -62 -53 -112 -101 -149c-49 -37 -104 -56 -165 -56c-137 0 -219 83 -219 223c-2 140 108 322 297 317c67 0 119 -17 157 -51
c38 -35 57 -80 57 -137c0 -12 -1 -21 -2 -27zM314 712l42 -76l79 76h138l-150 -146h-149l-78 146h118z" />
    <glyph glyph-name="Dcaron" unicode="&#x10e;" horiz-adv-x="734" 
d="M676 214c-32 -63 -81 -114 -147 -154s-147 -60 -243 -60h-267l177 712h187c224 0 340 -107 340 -306c0 -66 -16 -130 -47 -192zM196 126h99c194 -2 277 143 276 271c0 127 -63 189 -195 189h-65zM422 906l42 -76l79 76h142l-151 -146h-149l-77 146h114z" />
    <glyph glyph-name="dcaron" unicode="&#x10f;" horiz-adv-x="596" 
d="M28 185c0 50 11 101 33 154c22 52 54 95 96 130c41 35 90 52 146 52c61 0 110 -29 131 -78h2l66 269h140l-177 -712h-136l12 46h-2c-39 -37 -88 -59 -135 -59c-112 0 -176 74 -176 198zM198 124c14 -20 34 -30 60 -30c88 -3 143 117 142 208c0 71 -30 112 -82 112
c-88 3 -143 -117 -142 -208c0 -35 7 -63 22 -82zM706 535h-79l70 177h111z" />
    <glyph glyph-name="Dcroat" unicode="&#x110;" horiz-adv-x="735" 
d="M676 214c-32 -63 -81 -114 -147 -154s-147 -60 -243 -60h-267l76 307h-64l27 106h64l74 299h187c224 0 340 -107 340 -306c0 -66 -16 -130 -47 -192zM295 126c194 -2 277 143 276 271c0 127 -63 189 -195 189h-65l-43 -173h166l-27 -106h-166l-45 -181h99z" />
    <glyph glyph-name="dcroat" unicode="&#x111;" horiz-adv-x="590" 
d="M642 712l-16 -64h68l-18 -72h-68l-143 -576h-136l12 46h-2c-39 -37 -88 -59 -135 -59c-112 0 -176 74 -176 198c0 50 11 101 33 154c22 52 54 95 96 130c41 35 90 52 146 52c61 0 110 -29 131 -78h2l33 133h-119l18 72h118l16 64h140zM193 301c-11 -32 -17 -64 -17 -95
c0 -71 30 -112 82 -112c88 -3 143 117 142 208c0 71 -30 112 -82 112c-59 0 -102 -49 -125 -113z" />
    <glyph glyph-name="Emacron" unicode="&#x112;" horiz-adv-x="633" 
d="M688 712l-31 -126h-345l-40 -161h322l-32 -125h-322l-43 -174h354l-31 -126h-501l177 712h492zM308 869h326l-22 -91h-326z" />
    <glyph glyph-name="emacron" unicode="&#x113;" horiz-adv-x="573" 
d="M531 225h-364c-3 -14 -4 -28 -4 -43c0 -68 37 -99 92 -99c51 0 93 30 108 71h143c-21 -49 -54 -89 -101 -121c-47 -33 -99 -49 -158 -49c-141 0 -216 80 -216 215c-2 144 110 330 297 325c140 0 215 -79 215 -207c0 -27 -4 -57 -12 -92zM211 689h326l-22 -91h-326z
M189 313h222c1 11 2 18 2 22c0 60 -37 90 -93 90s-104 -37 -131 -112z" />
    <glyph glyph-name="Ebreve" unicode="&#x114;" horiz-adv-x="633" 
d="M657 586h-345l-40 -161h322l-32 -125h-322l-43 -174h354l-31 -126h-501l177 712h492zM306 906h83c-1 -3 -1 -8 -1 -13c0 -32 24 -51 67 -51c48 0 83 24 94 64h107c-27 -96 -104 -151 -208 -151c-91 0 -144 46 -144 123c0 5 1 15 2 28z" />
    <glyph glyph-name="ebreve" unicode="&#x115;" horiz-adv-x="573" 
d="M66 349c23 50 57 92 102 125s98 50 160 50c140 0 215 -79 215 -207c0 -27 -4 -57 -12 -92h-364c-3 -14 -4 -28 -4 -43c0 -68 37 -99 92 -99c51 0 93 30 108 71h143c-21 -49 -54 -89 -101 -121c-47 -33 -99 -49 -158 -49c-141 0 -216 80 -216 215c0 49 12 99 35 150z
M555 712c-27 -96 -104 -151 -208 -151c-91 0 -144 46 -144 123c0 5 1 15 2 28h83c-1 -3 -1 -8 -1 -13c0 -32 24 -51 67 -51c48 0 83 24 94 64h107zM189 313h222c1 11 2 18 2 22c0 60 -37 90 -93 90s-104 -37 -131 -112z" />
    <glyph glyph-name="Edotaccent" unicode="&#x116;" horiz-adv-x="633" 
d="M688 712l-31 -126h-345l-40 -161h322l-32 -125h-322l-43 -174h354l-31 -126h-501l177 712h492zM406 889h140l-30 -120h-140z" />
    <glyph glyph-name="edotaccent" unicode="&#x117;" horiz-adv-x="573" 
d="M531 225h-364c-3 -14 -4 -28 -4 -43c0 -68 37 -99 92 -99c51 0 93 30 108 71h143c-21 -49 -54 -89 -101 -121c-47 -33 -99 -49 -158 -49c-141 0 -216 80 -216 215c-2 144 110 330 297 325c140 0 215 -79 215 -207c0 -27 -4 -57 -12 -92zM189 313h222c1 11 2 18 2 22
c0 60 -37 90 -93 90s-104 -37 -131 -112zM310 712h140l-30 -120h-140z" />
    <glyph glyph-name="Eogonek" unicode="&#x118;" horiz-adv-x="633" 
d="M657 586h-345l-40 -161h322l-32 -125h-322l-43 -174h354l-31 -126c-69 -41 -91 -69 -91 -98c0 -14 9 -21 28 -21c14 0 26 2 37 6l-19 -75c-21 -6 -44 -9 -69 -9c-68 0 -103 27 -103 75c0 44 34 83 107 122h-391l177 712h492z" />
    <glyph glyph-name="eogonek" unicode="&#x119;" horiz-adv-x="573" 
d="M31 199c0 49 12 99 35 150c23 50 57 92 102 125s98 50 160 50c140 0 215 -79 215 -207c0 -27 -4 -57 -12 -92h-364c-3 -14 -4 -28 -4 -43c0 -68 37 -99 92 -99c51 0 93 30 108 71h143c-21 -51 -60 -92 -115 -135c-71 -53 -91 -84 -91 -117c0 -14 9 -21 28 -21
c13 0 26 2 37 6l-19 -75c-21 -6 -44 -9 -69 -9c-68 0 -103 27 -103 75c0 39 24 71 76 104v2h-3c-141 0 -216 80 -216 215zM411 313c1 11 2 18 2 22c0 60 -37 90 -93 90s-104 -37 -131 -112h222z" />
    <glyph glyph-name="Ecaron" unicode="&#x11a;" horiz-adv-x="633" 
d="M657 586h-345l-40 -161h322l-32 -125h-322l-43 -174h354l-31 -126h-501l177 712h492zM406 906l42 -76l79 76h142l-151 -146h-149l-77 146h114z" />
    <glyph glyph-name="ecaron" unicode="&#x11b;" horiz-adv-x="573" 
d="M531 225h-364c-3 -14 -4 -28 -4 -43c0 -68 37 -99 92 -99c51 0 93 30 108 71h143c-21 -49 -54 -89 -101 -121c-47 -33 -99 -49 -158 -49c-141 0 -216 80 -216 215c-2 144 110 330 297 325c140 0 215 -79 215 -207c0 -27 -4 -57 -12 -92zM191 712h118l42 -76l79 76h138
l-150 -146h-149zM189 313h222c1 11 2 18 2 22c0 60 -37 90 -93 90s-104 -37 -131 -112z" />
    <glyph glyph-name="Gcircumflex" unicode="&#x11c;" horiz-adv-x="744" 
d="M106 485c32 71 79 129 142 175c63 45 138 68 226 68c163 0 256 -83 256 -220c0 -11 -1 -22 -3 -34h-158c1 3 1 8 1 14c0 71 -42 110 -117 110c-154 5 -247 -176 -245 -325c0 -107 45 -171 136 -171c88 0 163 58 188 153h-169l30 120h306l-93 -375h-124l15 61h-2
c-48 -47 -118 -75 -195 -75c-76 0 -135 25 -178 76s-64 119 -64 205c0 74 16 147 48 218zM661 760h-114l-42 76l-79 -76h-142l151 146h149z" />
    <glyph glyph-name="gcircumflex" unicode="&#x11d;" horiz-adv-x="591" 
d="M365 -145c-48 -33 -106 -49 -175 -49c-137 0 -207 48 -207 135c0 8 1 17 3 27h136c-1 -3 -1 -7 -1 -12c0 -32 28 -50 77 -50c65 0 110 31 131 115l9 37h-2c-41 -36 -84 -52 -135 -52c-107 0 -168 75 -168 202c-2 136 101 319 259 314c72 0 120 -35 141 -90h2l19 76h132
l-126 -508c-16 -64 -48 -112 -95 -145zM372 378c-15 19 -36 29 -63 29c-78 3 -129 -107 -128 -178c0 -67 30 -108 81 -108c83 -3 134 101 133 177c0 34 -8 61 -23 80zM383 642l-79 -76h-138l150 146h149l78 -146h-118z" />
    <glyph glyph-name="Gbreve" unicode="&#x11e;" horiz-adv-x="744" 
d="M570 488c0 71 -42 110 -117 110c-154 5 -247 -176 -245 -325c0 -107 45 -171 136 -171c88 0 163 58 188 153h-169l30 120h306l-93 -375h-124l15 61h-2c-48 -47 -118 -75 -195 -75c-76 0 -135 25 -178 76s-64 119 -64 205c0 74 16 147 48 218s79 129 142 175
c63 45 138 68 226 68c163 0 256 -83 256 -220c0 -11 -1 -22 -3 -34h-158c1 3 1 8 1 14zM578 906h107c-27 -96 -104 -151 -208 -151c-91 0 -144 46 -144 123c0 5 1 15 2 28h83c-1 -3 -1 -8 -1 -13c0 -32 24 -51 67 -51c48 0 83 24 94 64z" />
    <glyph glyph-name="gbreve" unicode="&#x11f;" horiz-adv-x="591" 
d="M338 58h-2c-41 -36 -84 -52 -135 -52c-107 0 -168 75 -168 202c-2 136 101 319 259 314c72 0 120 -35 141 -90h2l19 76h132l-126 -508c-32 -128 -133 -194 -270 -194s-207 48 -207 135c0 8 1 17 3 27h136c-1 -3 -1 -7 -1 -12c0 -32 28 -50 77 -50c65 0 110 31 131 115z
M380 218c10 27 15 54 15 80c0 68 -33 109 -86 109c-78 3 -129 -107 -128 -178c0 -67 30 -108 81 -108c55 0 97 42 118 97zM358 561c-91 0 -144 46 -144 123c0 5 1 15 2 28h83c-1 -3 -1 -8 -1 -13c0 -32 24 -51 67 -51c48 0 83 24 94 64h107c-27 -96 -104 -151 -208 -151z
" />
    <glyph glyph-name="Gdotaccent" unicode="&#x120;" horiz-adv-x="744" 
d="M727 474h-158c1 3 1 8 1 14c0 71 -42 110 -117 110c-154 5 -247 -176 -245 -325c0 -107 45 -171 136 -171c88 0 163 58 188 153h-169l30 120h306l-93 -375h-124l15 61h-2c-48 -47 -118 -75 -195 -75c-76 0 -135 25 -178 76s-64 119 -64 205c0 74 16 147 48 218
s79 129 142 175c63 45 138 68 226 68c163 0 256 -83 256 -220c0 -11 -1 -22 -3 -34zM435 889h140l-30 -120h-140z" />
    <glyph glyph-name="gdotaccent" unicode="&#x121;" horiz-adv-x="591" 
d="M433 432h2l19 76h132l-126 -508c-32 -128 -133 -194 -270 -194s-207 48 -207 135c0 8 1 17 3 27h136c-1 -3 -1 -7 -1 -12c0 -32 28 -50 77 -50c65 0 110 31 131 115l9 37h-2c-41 -36 -84 -52 -135 -52c-107 0 -168 75 -168 202c-2 136 101 319 259 314
c72 0 120 -35 141 -90zM372 378c-15 19 -36 29 -63 29c-78 3 -129 -107 -128 -178c0 -67 30 -108 81 -108c83 -3 134 101 133 177c0 34 -8 61 -23 80zM431 592h-140l30 120h140z" />
    <glyph glyph-name="Gcommaaccent" unicode="&#x122;" horiz-adv-x="744" 
d="M570 488c0 71 -42 110 -117 110c-154 5 -247 -176 -245 -325c0 -107 45 -171 136 -171c88 0 163 58 188 153h-169l30 120h306l-93 -375h-124l15 61h-2c-48 -47 -118 -75 -195 -75c-76 0 -135 25 -178 76s-64 119 -64 205c0 74 16 147 48 218s79 129 142 175
c63 45 138 68 226 68c163 0 256 -83 256 -220c0 -11 -1 -22 -3 -34h-158c1 3 1 8 1 14zM245 -163h-45l26 104h124l-26 -104l-95 -107h-56z" />
    <glyph glyph-name="gcommaaccent" unicode="&#x123;" horiz-adv-x="591" 
d="M433 432h2l19 76h132l-126 -508c-32 -128 -133 -194 -270 -194s-207 48 -207 135c0 8 1 17 3 27h136c-1 -3 -1 -7 -1 -12c0 -32 28 -50 77 -50c65 0 110 31 131 115l9 37h-2c-41 -36 -84 -52 -135 -52c-107 0 -168 75 -168 202c-2 136 101 319 259 314
c72 0 120 -35 141 -90zM372 378c-15 19 -36 29 -63 29c-78 3 -129 -107 -128 -178c0 -67 30 -108 81 -108c83 -3 134 101 133 177c0 34 -8 61 -23 80zM400 681h45l-25 -104h-124l25 104l95 107h56z" />
    <glyph glyph-name="Hcircumflex" unicode="&#x124;" horiz-adv-x="750" 
d="M782 712l-177 -712h-147l76 307h-292l-76 -307h-147l177 712h147l-69 -279h292l69 279h147zM312 760l151 146h149l77 -146h-114l-42 76l-79 -76h-142z" />
    <glyph glyph-name="hcircumflex" unicode="&#x125;" 
d="M548 297l-74 -297h-140l73 294c5 19 7 36 7 52c0 43 -22 64 -67 64c-60 0 -111 -49 -134 -138l-68 -272h-140l177 712h140l-63 -251h2c43 39 90 59 142 59c97 0 155 -53 155 -150c0 -23 -3 -47 -10 -73zM387 906h149l77 -146h-114l-42 76l-79 -76h-142z" />
    <glyph glyph-name="Hbar" unicode="&#x126;" horiz-adv-x="750" 
d="M819 640l-18 -72h-55l-141 -568h-147l76 307h-292l-76 -307h-147l141 568h-55l18 72h55l18 72h147l-18 -72h292l18 72h147l-18 -72h55zM274 433h292l33 135h-292z" />
    <glyph glyph-name="hbar" unicode="&#x127;" 
d="M558 370c0 -23 -3 -47 -10 -73l-74 -297h-140l73 294c5 19 7 36 7 52c0 43 -22 64 -67 64c-60 0 -111 -49 -134 -138l-68 -272h-140l143 576h-74l16 64h74l18 72h140l-18 -72h112l-16 -64h-112l-29 -115h2c43 39 90 59 142 59c97 0 155 -53 155 -150z" />
    <glyph glyph-name="Itilde" unicode="&#x128;" horiz-adv-x="311" 
d="M196 712h147l-177 -712h-147zM452 807c-25 -24 -55 -36 -88 -36s-53 10 -80 27c-21 13 -33 19 -50 19c-28 0 -46 -14 -57 -46h-80c23 84 76 135 143 135c33 0 54 -10 81 -27c21 -13 32 -19 49 -19c29 0 47 14 59 46h78c-12 -42 -30 -75 -55 -99z" />
    <glyph glyph-name="itilde" unicode="&#x129;" horiz-adv-x="276" 
d="M131 508h140l-126 -508h-140zM368 613c-23 -24 -50 -36 -81 -36c-29 0 -45 10 -70 27c-19 13 -28 19 -43 19c-24 0 -38 -14 -49 -46h-77c24 84 72 135 135 135c29 0 47 -10 70 -27c17 -13 28 -19 43 -19c24 0 39 14 50 46h76c-13 -43 -31 -76 -54 -99z" />
    <glyph glyph-name="Imacron" unicode="&#x12a;" horiz-adv-x="311" 
d="M19 0l177 712h147l-177 -712h-147zM124 778l22 91h326l-22 -91h-326z" />
    <glyph glyph-name="imacron" unicode="&#x12b;" horiz-adv-x="276" 
d="M5 0l126 508h140l-126 -508h-140zM80 598l23 91h286l-23 -91h-286z" />
    <glyph glyph-name="Ibreve" unicode="&#x12c;" horiz-adv-x="311" 
d="M166 0h-147l177 712h147zM144 906h83c-1 -3 -1 -8 -1 -13c0 -32 24 -51 67 -51c48 0 83 24 94 64h107c-27 -96 -104 -151 -208 -151c-91 0 -144 46 -144 123c0 5 1 15 2 28z" />
    <glyph glyph-name="ibreve" unicode="&#x12d;" horiz-adv-x="276" 
d="M271 508l-126 -508h-140l126 508h140zM90 680c0 11 1 22 3 32h81c-1 -3 -1 -8 -1 -15c0 -31 19 -49 55 -49c41 0 71 24 82 64h101c-25 -96 -97 -151 -192 -151c-81 0 -129 44 -129 119z" />
    <glyph glyph-name="Iogonek" unicode="&#x12e;" horiz-adv-x="311" 
d="M-51 -122c0 44 34 83 107 122h-37l177 712h147l-177 -712c-69 -41 -91 -69 -91 -98c0 -14 9 -21 28 -21c14 0 26 2 37 6l-19 -75c-21 -6 -44 -9 -69 -9c-68 0 -103 27 -103 75z" />
    <glyph glyph-name="iogonek" unicode="&#x12f;" horiz-adv-x="276" 
d="M-46 -178c-17 13 -26 32 -26 56c0 44 34 83 107 122h-30l126 508h140l-126 -508c-69 -41 -91 -69 -91 -98c0 -14 9 -21 28 -21c14 0 26 2 37 6l-19 -75c-21 -6 -44 -9 -69 -9c-34 0 -60 6 -77 19zM322 712l-30 -120h-140l30 120h140z" />
    <glyph glyph-name="Idotaccent" unicode="&#x130;" horiz-adv-x="311" 
d="M196 712h147l-177 -712h-147zM244 889h140l-30 -120h-140z" />
    <glyph glyph-name="dotlessi" unicode="&#x131;" horiz-adv-x="276" 
d="M5 0l126 508h140l-126 -508h-140z" />
    <glyph glyph-name="IJ" unicode="&#x132;" horiz-adv-x="703" 
d="M294 126c15 -3 28 -5 40 -5c78 0 120 28 148 145l111 446h147l-125 -501c-37 -149 -123 -218 -279 -218c-27 0 -52 3 -73 10zM196 712h147l-177 -712h-147z" />
    <glyph glyph-name="ij" unicode="&#x133;" horiz-adv-x="554" 
d="M135 -181l25 100c7 -2 15 -3 23 -3c55 0 85 26 104 102l122 490h140l-133 -535c-28 -112 -105 -163 -206 -163c-29 0 -54 3 -75 9zM5 0l126 508h140l-126 -508h-140zM152 592l30 120h140l-30 -120h-140zM600 712l-30 -120h-140l30 120h140z" />
    <glyph glyph-name="Jcircumflex" unicode="&#x134;" horiz-adv-x="392" 
d="M-48 3l31 123c15 -3 28 -5 40 -5c78 0 120 28 148 145l111 446h147l-125 -501c-37 -149 -123 -218 -279 -218c-27 0 -52 3 -73 10zM556 760h-114l-42 76l-79 -76h-142l151 146h149z" />
    <glyph glyph-name="jcircumflex" unicode="&#x135;" horiz-adv-x="278" 
d="M-28 -62c17 15 30 42 39 80l122 490h140l-133 -535c-28 -112 -105 -163 -206 -163c-29 0 -54 3 -75 9l25 100c7 -2 15 -3 23 -3c27 0 49 7 65 22zM183 712h141l67 -145h-110l-34 77l-72 -77h-131z" />
    <glyph glyph-name="Kcommaaccent" unicode="&#x136;" horiz-adv-x="663" 
d="M750 712l-357 -345l203 -367h-171l-171 348h-2l-86 -348h-147l177 712h147l-75 -301h2l292 301h188zM211 -163h-45l26 104h124l-26 -104l-95 -107h-56z" />
    <glyph glyph-name="kcommaaccent" unicode="&#x137;" horiz-adv-x="543" 
d="M595 508l-253 -245l148 -263h-153l-129 244h-2l-61 -244h-140l177 712h140l-100 -403h2l193 199h178zM108 -270l72 107h-45l26 104h124l-26 -104l-95 -107h-56z" />
    <glyph glyph-name="kgreenlandic" unicode="&#x138;" horiz-adv-x="560" 
d="M5 0l126 508h140l-49 -199h2l193 199h178l-253 -245l148 -263h-153l-129 244h-2l-61 -244h-140z" />
    <glyph glyph-name="Lacute" unicode="&#x139;" horiz-adv-x="575" 
d="M196 712h147l-146 -586h336l-31 -126h-483zM334 906h179l-171 -146h-116z" />
    <glyph glyph-name="lacute" unicode="&#x13a;" horiz-adv-x="276" 
d="M182 712h140l-177 -712h-140zM304 916h179l-170 -146h-116z" />
    <glyph glyph-name="Lcommaaccent" unicode="&#x13b;" horiz-adv-x="575" 
d="M196 712h147l-146 -586h336l-31 -126h-483zM203 -163h-45l26 104h124l-26 -104l-95 -107h-56z" />
    <glyph glyph-name="lcommaaccent" unicode="&#x13c;" horiz-adv-x="276" 
d="M182 712h140l-177 -712h-140zM-50 -270l72 107h-45l26 104h124l-26 -104l-95 -107h-56z" />
    <glyph glyph-name="Lcaron" unicode="&#x13d;" horiz-adv-x="575" 
d="M196 712h147l-146 -586h336l-31 -126h-483zM409 712h111l-114 -224h-79z" />
    <glyph glyph-name="lcaron" unicode="&#x13e;" horiz-adv-x="276" 
d="M5 0l177 712h140l-177 -712h-140zM306 535l70 177h111l-102 -177h-79z" />
    <glyph glyph-name="Ldot" unicode="&#x13f;" horiz-adv-x="655" 
d="M196 712h147l-146 -586h336l-31 -126h-483zM463 515h154l-41 -167h-154z" />
    <glyph glyph-name="ldot" unicode="&#x140;" horiz-adv-x="504" 
d="M5 0l177 712h140l-177 -712h-140zM358 439h154l-41 -167h-154z" />
    <glyph glyph-name="Lslash" unicode="&#x141;" horiz-adv-x="575" 
d="M7 232l34 135l80 41l75 304h147l-56 -226l159 83l-33 -135l-160 -83l-56 -225h336l-31 -126h-483l68 273z" />
    <glyph glyph-name="lslash" unicode="&#x142;" horiz-adv-x="332" 
d="M2 222l32 128l99 51l77 311h140l-61 -246l99 52l-32 -128l-99 -51l-84 -339h-140l68 273z" />
    <glyph glyph-name="Nacute" unicode="&#x143;" horiz-adv-x="776" 
d="M808 712l-177 -712h-197l-72 289c-25 103 -47 201 -66 294h-2c-22 -118 -44 -221 -66 -309l-68 -274h-141l177 712h197l72 -289c18 -75 40 -173 66 -294h2c18 103 40 206 66 309l68 274h141zM429 760l108 146h179l-171 -146h-116z" />
    <glyph glyph-name="nacute" unicode="&#x144;" 
d="M548 297l-74 -297h-140l73 294c5 19 7 36 7 52c0 43 -22 64 -67 64c-60 0 -111 -49 -134 -138l-68 -272h-140l127 508h131l-14 -56h2c43 43 96 68 152 68c99 0 155 -53 155 -150c0 -23 -3 -47 -10 -73zM403 712h179l-170 -146h-116z" />
    <glyph glyph-name="Ncommaaccent" unicode="&#x145;" horiz-adv-x="776" 
d="M808 712l-177 -712h-197l-72 289c-25 103 -47 201 -66 294h-2c-22 -118 -44 -221 -66 -309l-68 -274h-141l177 712h197l72 -289c18 -75 40 -173 66 -294h2c18 103 40 206 66 309l68 274h141zM267 -163h-45l26 104h124l-26 -104l-95 -107h-56z" />
    <glyph glyph-name="ncommaaccent" unicode="&#x146;" 
d="M548 297l-74 -297h-140l73 294c5 19 7 36 7 52c0 43 -22 64 -67 64c-60 0 -111 -49 -134 -138l-68 -272h-140l127 508h131l-14 -56h2c43 43 96 68 152 68c99 0 155 -53 155 -150c0 -23 -3 -47 -10 -73zM110 -270l72 107h-45l26 104h124l-26 -104l-95 -107h-56z" />
    <glyph glyph-name="Ncaron" unicode="&#x147;" horiz-adv-x="776" 
d="M808 712l-177 -712h-197l-72 289c-25 103 -47 201 -66 294h-2c-22 -118 -44 -221 -66 -309l-68 -274h-141l177 712h197l72 -289c18 -75 40 -173 66 -294h2c18 103 40 206 66 309l68 274h141zM362 906h114l42 -76l79 76h142l-151 -146h-149z" />
    <glyph glyph-name="ncaron" unicode="&#x148;" 
d="M548 297l-74 -297h-140l73 294c5 19 7 36 7 52c0 43 -22 64 -67 64c-60 0 -111 -49 -134 -138l-68 -272h-140l127 508h131l-14 -56h2c43 43 96 68 152 68c99 0 155 -53 155 -150c0 -23 -3 -47 -10 -73zM346 712l42 -76l79 76h138l-150 -146h-149l-78 146h118z" />
    <glyph glyph-name="napostrophe" unicode="&#x149;" horiz-adv-x="750" 
d="M698 297l-74 -297h-140l73 294c5 19 7 36 7 52c0 43 -22 64 -67 64c-60 0 -111 -49 -134 -138l-68 -272h-140l127 508h131l-14 -56h2c43 43 96 68 152 68c99 0 155 -53 155 -150c0 -23 -3 -47 -10 -73zM185 570h-44l35 142h131l-35 -142l-100 -146h-71z" />
    <glyph glyph-name="Eng" unicode="&#x14a;" horiz-adv-x="746" 
d="M637 712h141l-181 -726c-31 -123 -110 -179 -217 -179c-25 0 -48 3 -67 8l25 101c8 -2 18 -3 29 -3c53 0 86 30 86 89c0 11 -1 21 -4 32s-11 34 -22 69l-71 216c-25 74 -47 153 -66 236h-2c-13 -79 -31 -163 -53 -254l-75 -301h-141l177 712h171l87 -266
c27 -83 49 -162 66 -237h2c13 79 31 163 53 254z" />
    <glyph glyph-name="eng" unicode="&#x14b;" 
d="M558 370c0 -23 -3 -47 -10 -73l-81 -324c-28 -112 -105 -163 -206 -163c-29 0 -54 3 -75 9l25 100c7 -2 15 -3 23 -3c55 0 85 26 104 102l69 276c5 19 7 36 7 52c0 43 -22 64 -67 64c-60 0 -111 -49 -134 -138l-68 -272h-140l127 508h131l-14 -56h2c43 43 96 68 152 68
c97 0 155 -53 155 -150z" />
    <glyph glyph-name="Omacron" unicode="&#x14c;" horiz-adv-x="748" 
d="M738 424c2 -205 -142 -446 -388 -440c-91 0 -162 27 -213 82c-51 54 -76 128 -76 222c0 70 15 139 45 207c29 68 73 124 132 168c58 43 128 65 210 65c183 0 290 -118 290 -304zM248 161c25 -31 61 -47 108 -47c146 -5 235 174 234 310c0 108 -53 174 -148 174
c-147 5 -235 -172 -233 -309c0 -55 13 -97 39 -128zM340 869h326l-22 -91h-326z" />
    <glyph glyph-name="omacron" unicode="&#x14d;" horiz-adv-x="590" 
d="M33 208c-2 141 112 321 299 316c145 0 225 -83 225 -224c2 -142 -112 -320 -301 -316c-144 0 -223 83 -223 224zM177 209c0 -75 31 -117 91 -117c94 -3 145 122 144 207c0 75 -31 117 -91 117c-95 3 -145 -122 -144 -207zM524 598h-326l22 91h326z" />
    <glyph glyph-name="Obreve" unicode="&#x14e;" horiz-adv-x="748" 
d="M693 218c-30 -68 -74 -124 -132 -168c-59 -44 -129 -66 -211 -66c-91 0 -162 27 -213 82c-51 54 -76 128 -76 222c0 70 15 139 45 207c29 68 73 124 132 168c58 43 128 65 210 65c183 0 290 -118 290 -304c0 -70 -15 -139 -45 -206zM248 161c25 -31 61 -47 108 -47
c146 -5 235 174 234 310c0 108 -53 174 -148 174c-147 5 -235 -172 -233 -309c0 -55 13 -97 39 -128zM338 906h83c-1 -3 -1 -8 -1 -13c0 -32 24 -51 67 -51c48 0 83 24 94 64h107c-27 -96 -104 -151 -208 -151c-91 0 -144 46 -144 123c0 5 1 15 2 28z" />
    <glyph glyph-name="obreve" unicode="&#x14f;" horiz-adv-x="590" 
d="M522 154c-23 -49 -58 -89 -103 -121c-46 -33 -100 -49 -163 -49c-144 0 -223 83 -223 224c-2 141 112 321 299 316c145 0 225 -83 225 -224c0 -49 -12 -97 -35 -146zM200 123c15 -21 38 -31 68 -31c94 -3 145 122 144 207c0 75 -31 117 -91 117
c-95 3 -145 -122 -144 -207c0 -37 8 -66 23 -86zM212 684c0 5 1 15 2 28h83c-1 -3 -1 -8 -1 -13c0 -32 24 -51 67 -51c48 0 83 24 94 64h107c-27 -96 -104 -151 -208 -151c-91 0 -144 46 -144 123z" />
    <glyph glyph-name="Ohungarumlaut" unicode="&#x150;" horiz-adv-x="748" 
d="M738 424c2 -205 -142 -446 -388 -440c-91 0 -162 27 -213 82c-51 54 -76 128 -76 222c0 70 15 139 45 207c29 68 73 124 132 168c58 43 128 65 210 65c183 0 290 -118 290 -304zM209 289c0 -109 54 -175 147 -175c146 -5 235 174 234 310c0 108 -53 174 -148 174
c-147 5 -235 -172 -233 -309zM601 906h159l-171 -146h-116zM283 760l128 146h159l-171 -146h-116z" />
    <glyph glyph-name="ohungarumlaut" unicode="&#x151;" horiz-adv-x="590" 
d="M522 154c-23 -49 -58 -89 -103 -121c-46 -33 -100 -49 -163 -49c-144 0 -223 83 -223 224c-2 141 112 321 299 316c145 0 225 -83 225 -224c0 -49 -12 -97 -35 -146zM200 123c15 -21 38 -31 68 -31c94 -3 145 122 144 207c0 75 -31 117 -91 117
c-95 3 -145 -122 -144 -207c0 -37 8 -66 23 -86zM497 712h159l-170 -146h-116zM307 712h159l-170 -146h-116z" />
    <glyph glyph-name="OE" unicode="&#x152;" horiz-adv-x="1020" 
d="M1075 712l-31 -126h-345l-40 -161h322l-32 -125h-322l-43 -174h354l-31 -126h-527c-209 0 -318 107 -318 306c-2 194 145 411 435 406h578zM214 315c0 -63 15 -111 45 -142c29 -31 74 -47 134 -47h44l115 460h-64c-194 2 -275 -143 -274 -271z" />
    <glyph glyph-name="oe" unicode="&#x153;" horiz-adv-x="928" 
d="M718 154h143c-21 -49 -54 -89 -101 -121c-47 -33 -99 -49 -158 -49c-75 0 -130 28 -162 79c-54 -53 -119 -79 -194 -79c-137 0 -213 83 -213 224c-2 141 109 321 289 316c82 0 142 -28 179 -84c53 56 117 84 192 84c133 0 205 -80 205 -207c0 -27 -4 -57 -12 -92h-354
c-3 -14 -4 -28 -4 -43c0 -68 33 -99 82 -99c51 0 93 30 108 71zM177 209c0 -37 8 -66 23 -86c15 -21 38 -31 68 -31c94 -3 145 122 144 207c0 75 -31 117 -91 117c-95 3 -145 -122 -144 -207zM768 335c0 30 -8 53 -25 68s-40 22 -68 22c-52 0 -97 -37 -121 -112h213
c1 5 1 13 1 22z" />
    <glyph glyph-name="Racute" unicode="&#x154;" horiz-adv-x="666" 
d="M650 453c-27 -59 -81 -105 -158 -124v-2c41 -17 59 -50 71 -137l26 -190h-152l-19 169c-9 77 -35 103 -104 103h-81l-67 -272h-147l177 712h252c149 0 222 -59 222 -170c0 -31 -7 -60 -20 -89zM377 389c47 0 82 12 105 36c22 24 33 51 33 81c0 58 -32 87 -95 87h-106
l-51 -204h114zM346 760l108 146h179l-171 -146h-116z" />
    <glyph glyph-name="racute" unicode="&#x155;" horiz-adv-x="392" 
d="M145 0h-140l126 508h129l-16 -65h2c48 49 98 73 157 73c17 0 32 -2 45 -6l-30 -121c-18 3 -32 5 -43 5c-87 0 -146 -54 -170 -154zM309 712h179l-170 -146h-116z" />
    <glyph glyph-name="Rcommaaccent" unicode="&#x156;" horiz-adv-x="666" 
d="M650 453c-27 -59 -81 -105 -158 -124v-2c41 -17 59 -50 71 -137l26 -190h-152l-19 169c-9 77 -35 103 -104 103h-81l-67 -272h-147l177 712h252c149 0 222 -59 222 -170c0 -31 -7 -60 -20 -89zM377 389c47 0 82 12 105 36c22 24 33 51 33 81c0 58 -32 87 -95 87h-106
l-51 -204h114zM169 -270l72 107h-45l26 104h124l-26 -104l-95 -107h-56z" />
    <glyph glyph-name="rcommaaccent" unicode="&#x157;" horiz-adv-x="392" 
d="M418 389c-18 3 -32 5 -43 5c-87 0 -146 -54 -170 -154l-60 -240h-140l126 508h129l-16 -65h2c48 49 98 73 157 73c17 0 32 -2 45 -6zM22 -163h-45l26 104h124l-26 -104l-95 -107h-56z" />
    <glyph glyph-name="Rcaron" unicode="&#x158;" horiz-adv-x="666" 
d="M650 453c-27 -59 -81 -105 -158 -124v-2c41 -17 59 -50 71 -137l26 -190h-152l-19 169c-9 77 -35 103 -104 103h-81l-67 -272h-147l177 712h252c149 0 222 -59 222 -170c0 -31 -7 -60 -20 -89zM377 389c47 0 82 12 105 36c22 24 33 51 33 81c0 58 -32 87 -95 87h-106
l-51 -204h114zM279 906h114l42 -76l79 76h142l-151 -146h-149z" />
    <glyph glyph-name="rcaron" unicode="&#x159;" horiz-adv-x="392" 
d="M418 389c-18 3 -32 5 -43 5c-87 0 -146 -54 -170 -154l-60 -240h-140l126 508h129l-16 -65h2c48 49 98 73 157 73c17 0 32 -2 45 -6zM252 712l42 -76l79 76h138l-150 -146h-149l-78 146h118z" />
    <glyph glyph-name="Sacute" unicode="&#x15a;" horiz-adv-x="630" 
d="M482 494c2 10 3 20 3 29c0 57 -37 88 -108 88c-67 0 -118 -37 -118 -86c0 -45 34 -67 129 -98c84 -28 134 -52 167 -104c17 -27 25 -61 25 -104c2 -110 -112 -238 -301 -235c-167 0 -263 69 -263 194c0 19 2 37 7 56h152c-3 -11 -4 -23 -4 -36c0 -63 42 -95 125 -95
c85 0 128 51 128 94c-5 59 -29 68 -120 102c-45 15 -80 30 -106 44c-27 14 -49 34 -66 60c-18 25 -27 59 -27 101c-2 104 109 227 290 224c163 0 244 -60 244 -181c0 -15 -3 -33 -8 -53h-149zM430 906h179l-171 -146h-116z" />
    <glyph glyph-name="sacute" unicode="&#x15b;" horiz-adv-x="524" 
d="M363 373c0 35 -23 53 -70 53c-51 0 -74 -23 -74 -50c0 -28 20 -41 92 -66c64 -21 100 -36 128 -75c13 -20 20 -46 20 -78c0 -89 -83 -173 -241 -173c-133 0 -209 49 -209 145c0 13 2 25 5 36h141c-2 -8 -3 -15 -3 -22c0 -37 26 -58 78 -58c51 0 80 22 80 55
c0 35 -25 48 -98 73c-61 21 -92 34 -116 71c-13 18 -19 43 -19 74c0 84 81 166 228 166c124 0 192 -48 192 -140c0 -10 -1 -21 -3 -32h-133c1 9 2 16 2 21zM347 712h179l-170 -146h-116z" />
    <glyph glyph-name="Scircumflex" unicode="&#x15c;" horiz-adv-x="630" 
d="M458 589c-19 15 -46 22 -81 22c-67 0 -118 -37 -118 -86c0 -45 34 -67 129 -98c84 -28 134 -52 167 -104c17 -27 25 -61 25 -104c2 -110 -112 -238 -301 -235c-167 0 -263 69 -263 194c0 19 2 37 7 56h152c-3 -11 -4 -23 -4 -36c0 -63 42 -95 125 -95c85 0 128 51 128 94
c-5 59 -29 68 -120 102c-45 15 -80 30 -106 44c-27 14 -49 34 -66 60c-18 25 -27 59 -27 101c-2 104 109 227 290 224c163 0 244 -60 244 -181c0 -15 -3 -33 -8 -53h-149c2 10 3 20 3 29c0 29 -9 51 -27 66zM481 760l-42 76l-79 -76h-142l151 146h149l77 -146h-114z" />
    <glyph glyph-name="scircumflex" unicode="&#x15d;" horiz-adv-x="524" 
d="M363 373c0 35 -23 53 -70 53c-51 0 -74 -23 -74 -50c0 -28 20 -41 92 -66c64 -21 100 -36 128 -75c13 -20 20 -46 20 -78c0 -89 -83 -173 -241 -173c-133 0 -209 49 -209 145c0 13 2 25 5 36h141c-2 -8 -3 -15 -3 -22c0 -37 26 -58 78 -58c51 0 80 22 80 55
c0 35 -25 48 -98 73c-61 21 -92 34 -116 71c-13 18 -19 43 -19 74c0 84 81 166 228 166c124 0 192 -48 192 -140c0 -10 -1 -21 -3 -32h-133c1 9 2 16 2 21zM395 566l-42 76l-79 -76h-138l150 146h149l78 -146h-118z" />
    <glyph glyph-name="Scedilla" unicode="&#x15e;" horiz-adv-x="630" 
d="M375 271c-16 7 -40 17 -71 28c-45 15 -80 30 -106 44c-27 14 -49 34 -66 60c-18 25 -27 59 -27 101c-2 104 109 227 290 224c163 0 244 -60 244 -181c0 -15 -3 -33 -8 -53h-149c2 10 3 20 3 29c0 57 -37 88 -108 88c-67 0 -118 -37 -118 -86c0 -45 34 -67 129 -98
c84 -28 134 -52 167 -104c17 -27 25 -61 25 -104c1 -105 -106 -232 -286 -235l-39 -44c6 2 14 3 23 3c41 0 71 -27 71 -70c0 -28 -14 -52 -41 -71s-61 -28 -100 -28c-40 0 -75 10 -106 30l25 45c26 -15 52 -22 79 -22c35 0 57 16 57 40c0 21 -14 33 -38 33
c-11 0 -23 -2 -34 -6l-20 18l65 74c-141 11 -220 77 -220 192c0 19 2 37 7 56h152c-3 -11 -4 -23 -4 -36c0 -63 42 -95 125 -95c85 0 128 51 128 94c0 37 -18 58 -49 74z" />
    <glyph glyph-name="scedilla" unicode="&#x15f;" horiz-adv-x="524" 
d="M359 13c-33 -17 -74 -27 -122 -29l-39 -44c6 2 14 3 23 3c41 0 71 -27 71 -70c0 -28 -14 -52 -41 -71s-61 -28 -100 -28c-40 0 -75 10 -106 30l25 45c25 -15 52 -22 79 -22c35 0 57 16 57 40c0 21 -14 33 -38 33c-12 0 -23 -2 -34 -6l-20 18l65 74
c-108 8 -170 58 -170 143c0 13 2 25 5 36h141c-2 -8 -3 -15 -3 -22c0 -37 26 -58 78 -58c51 0 80 22 80 55c0 35 -25 48 -98 73c-61 21 -92 34 -116 71c-13 18 -19 43 -19 74c0 84 81 166 228 166c124 0 192 -48 192 -140c0 -10 -1 -21 -3 -32h-133c1 9 2 16 2 21
c0 35 -23 53 -70 53c-51 0 -74 -23 -74 -50c0 -28 20 -41 92 -66c64 -21 100 -36 128 -75c13 -20 20 -46 20 -78c0 -57 -33 -111 -100 -144z" />
    <glyph glyph-name="Scaron" unicode="&#x160;" horiz-adv-x="630" 
d="M458 589c-19 15 -46 22 -81 22c-67 0 -118 -37 -118 -86c0 -45 34 -67 129 -98c84 -28 134 -52 167 -104c17 -27 25 -61 25 -104c2 -110 -112 -238 -301 -235c-167 0 -263 69 -263 194c0 19 2 37 7 56h152c-3 -11 -4 -23 -4 -36c0 -63 42 -95 125 -95c85 0 128 51 128 94
c-5 59 -29 68 -120 102c-45 15 -80 30 -106 44c-27 14 -49 34 -66 60c-18 25 -27 59 -27 101c-2 104 109 227 290 224c163 0 244 -60 244 -181c0 -15 -3 -33 -8 -53h-149c2 10 3 20 3 29c0 29 -9 51 -27 66zM481 760h-149l-77 146h114l42 -76l79 76h142z" />
    <glyph glyph-name="scaron" unicode="&#x161;" horiz-adv-x="524" 
d="M363 373c0 35 -23 53 -70 53c-51 0 -74 -23 -74 -50c0 -28 20 -41 92 -66c64 -21 100 -36 128 -75c13 -20 20 -46 20 -78c0 -89 -83 -173 -241 -173c-133 0 -209 49 -209 145c0 13 2 25 5 36h141c-2 -8 -3 -15 -3 -22c0 -37 26 -58 78 -58c51 0 80 22 80 55
c0 35 -25 48 -98 73c-61 21 -92 34 -116 71c-13 18 -19 43 -19 74c0 84 81 166 228 166c124 0 192 -48 192 -140c0 -10 -1 -21 -3 -32h-133c1 9 2 16 2 21zM399 566h-149l-78 146h118l42 -76l79 76h138z" />
    <glyph glyph-name="Tcommaaccent" unicode="&#x162;" horiz-adv-x="615" 
d="M317 586h-224l31 126h595l-31 -126h-224l-146 -586h-147zM120 -270l72 107h-45l26 104h124l-26 -104l-95 -107h-56z" />
    <glyph glyph-name="tcommaaccent" unicode="&#x163;" horiz-adv-x="357" 
d="M390 508l-26 -104h-97l-53 -213c-3 -15 -5 -27 -5 -36c0 -36 15 -50 54 -50c10 0 21 1 33 4l-28 -109c-17 -5 -35 -7 -55 -7c-103 0 -149 38 -149 127c0 20 4 45 11 74l52 210h-82l26 104h82l33 132h140l-33 -132h97zM72 -270h-56l72 107h-45l26 104h124l-26 -104z" />
    <glyph glyph-name="Tcaron" unicode="&#x164;" horiz-adv-x="615" 
d="M93 586l31 126h595l-31 -126h-224l-146 -586h-147l146 586h-224zM268 906h114l42 -76l79 76h142l-151 -146h-149z" />
    <glyph glyph-name="tcaron" unicode="&#x165;" horiz-adv-x="357" 
d="M45 404l26 104h82l33 132h140l-33 -132h97l-26 -104h-97l-53 -213c-3 -15 -5 -27 -5 -36c0 -36 15 -50 54 -50c10 0 21 1 33 4l-28 -109c-17 -5 -35 -7 -55 -7c-103 0 -149 38 -149 127c0 20 4 45 11 74l52 210h-82zM407 535h-79l70 177h111z" />
    <glyph glyph-name="Tbar" unicode="&#x166;" horiz-adv-x="615" 
d="M244 294h-135l26 106h136l46 186h-224l31 126h595l-31 -126h-224l-46 -186h134l-26 -106h-135l-73 -294h-147z" />
    <glyph glyph-name="tbar" unicode="&#x167;" horiz-adv-x="357" 
d="M390 508l-26 -104h-97l-24 -96h94l-20 -83h-95l-8 -34c-3 -15 -5 -27 -5 -36c0 -36 15 -50 54 -50c10 0 21 1 33 4l-28 -109c-17 -5 -35 -7 -55 -7c-103 0 -148 38 -148 127c0 20 4 45 11 74l8 31h-80l20 83h80l24 96h-83l26 104h83l33 132h139l-33 -132h97z" />
    <glyph glyph-name="Utilde" unicode="&#x168;" horiz-adv-x="718" 
d="M77 216c0 30 4 62 13 97l100 399h147l-105 -423c-6 -24 -9 -45 -9 -64c0 -73 38 -111 111 -111c83 0 140 54 164 151l111 447h147l-120 -482c-40 -159 -153 -246 -314 -246c-157 0 -245 83 -245 232zM700 906c-24 -84 -76 -135 -143 -135c-33 0 -53 10 -80 27
c-21 13 -33 19 -50 19c-28 0 -46 -14 -57 -46h-80c23 84 76 135 143 135c33 0 54 -10 81 -27c21 -13 32 -19 49 -19c29 0 47 14 59 46h78z" />
    <glyph glyph-name="utilde" unicode="&#x169;" 
d="M595 508l-127 -508h-131l14 56h-2c-43 -43 -96 -68 -152 -68c-99 0 -155 53 -155 150c0 23 3 47 10 73l74 297h140l-73 -294c-5 -19 -7 -36 -7 -52c0 -43 22 -64 67 -64c60 0 111 49 134 138l68 272h140zM183 577c23 84 76 135 143 135c33 0 53 -10 80 -27
c21 -13 32 -19 49 -19c29 0 47 14 59 46h78c-24 -84 -76 -135 -143 -135c-33 0 -54 10 -79 27c-21 13 -33 19 -50 19c-28 0 -46 -14 -57 -46h-80z" />
    <glyph glyph-name="Umacron" unicode="&#x16a;" horiz-adv-x="718" 
d="M77 216c0 30 4 62 13 97l100 399h147l-105 -423c-6 -24 -9 -45 -9 -64c0 -73 38 -111 111 -111c83 0 140 54 164 151l111 447h147l-120 -482c-40 -159 -153 -246 -314 -246c-157 0 -245 83 -245 232zM643 778h-326l22 91h326z" />
    <glyph glyph-name="umacron" unicode="&#x16b;" 
d="M52 211l74 297h140l-73 -294c-5 -19 -7 -36 -7 -52c0 -43 22 -64 67 -64c60 0 111 49 134 138l68 272h140l-127 -508h-131l14 56h-2c-43 -43 -96 -68 -152 -68c-99 0 -155 53 -155 150c0 23 3 47 10 73zM539 598h-326l22 91h326z" />
    <glyph glyph-name="Ubreve" unicode="&#x16c;" horiz-adv-x="718" 
d="M636 230c-40 -159 -153 -246 -314 -246c-157 0 -245 83 -245 232c0 30 4 62 13 97l100 399h147l-105 -423c-6 -24 -9 -45 -9 -64c0 -73 38 -111 111 -111c83 0 140 54 164 151l111 447h147zM335 878c0 5 1 15 2 28h83c-1 -3 -1 -8 -1 -13c0 -32 24 -51 67 -51
c48 0 83 24 94 64h107c-27 -96 -104 -151 -208 -151c-91 0 -144 46 -144 123z" />
    <glyph glyph-name="ubreve" unicode="&#x16d;" 
d="M52 211l74 297h140l-73 -294c-5 -19 -7 -36 -7 -52c0 -43 22 -64 67 -64c60 0 111 49 134 138l68 272h140l-127 -508h-131l14 56h-2c-43 -43 -96 -68 -152 -68c-99 0 -155 53 -155 150c0 23 3 47 10 73zM504 601c-37 -27 -81 -40 -133 -40c-91 0 -144 46 -144 123
c0 5 1 15 2 28h83c-1 -3 -1 -8 -1 -13c0 -32 24 -51 67 -51c48 0 83 24 94 64h107c-13 -48 -38 -85 -75 -111z" />
    <glyph glyph-name="Uring" unicode="&#x16e;" horiz-adv-x="718" 
d="M636 230c-40 -159 -153 -246 -314 -246c-157 0 -245 83 -245 232c0 30 4 62 13 97l100 399h147l-105 -423c-6 -24 -9 -45 -9 -64c0 -73 38 -111 111 -111c83 0 140 54 164 151l111 447h147zM381 858c0 30 11 56 32 77s46 31 76 31s56 -10 77 -31s31 -47 31 -77
s-10 -55 -31 -76s-47 -32 -77 -32s-55 11 -76 32s-32 46 -32 76zM451 820c11 -11 23 -16 38 -16c31 0 54 25 54 54c0 31 -23 54 -54 54c-29 0 -54 -23 -54 -54c0 -15 5 -27 16 -38z" />
    <glyph glyph-name="uring" unicode="&#x16f;" 
d="M52 211l74 297h140l-73 -294c-5 -19 -7 -36 -7 -52c0 -43 22 -64 67 -64c60 0 111 49 134 138l68 272h140l-127 -508h-131l14 56h-2c-43 -43 -96 -68 -152 -68c-99 0 -155 53 -155 150c0 23 3 47 10 73zM459 588c-21 -21 -47 -32 -77 -32s-55 11 -76 32s-32 46 -32 76
s11 56 32 77s46 31 76 31s56 -10 77 -31s31 -47 31 -77s-10 -55 -31 -76zM328 664c0 -29 25 -54 54 -54c31 0 54 25 54 54c0 31 -23 54 -54 54c-29 0 -54 -23 -54 -54z" />
    <glyph glyph-name="Uhungarumlaut" unicode="&#x170;" horiz-adv-x="718" 
d="M636 230c-40 -159 -153 -246 -314 -246c-157 0 -245 83 -245 232c0 30 4 62 13 97l100 399h147l-105 -423c-6 -24 -9 -45 -9 -64c0 -73 38 -111 111 -111c83 0 140 54 164 151l111 447h147zM472 760l128 146h159l-171 -146h-116zM282 760l128 146h159l-171 -146h-116z
" />
    <glyph glyph-name="uhungarumlaut" unicode="&#x171;" 
d="M52 211l74 297h140l-73 -294c-5 -19 -7 -36 -7 -52c0 -43 22 -64 67 -64c60 0 111 49 134 138l68 272h140l-127 -508h-131l14 56h-2c-43 -43 -96 -68 -152 -68c-99 0 -155 53 -155 150c0 23 3 47 10 73zM322 712h159l-170 -146h-116zM671 712l-170 -146h-116l127 146h159
z" />
    <glyph glyph-name="Uogonek" unicode="&#x172;" horiz-adv-x="718" 
d="M756 712l-120 -482c-21 -87 -64 -152 -129 -197c-51 -35 -84 -61 -101 -79s-26 -35 -26 -52c0 -14 9 -21 28 -21c14 0 26 2 37 6l-19 -75c-21 -6 -44 -9 -69 -9c-68 0 -103 27 -103 75c0 37 25 72 76 104v2h-8c-161 0 -245 80 -245 232c0 30 4 62 13 97l100 399h147
l-105 -423c-6 -24 -9 -45 -9 -64c0 -73 38 -111 111 -111c83 0 140 54 164 151l111 447h147z" />
    <glyph glyph-name="uogonek" unicode="&#x173;" 
d="M595 508l-127 -508c-69 -41 -91 -69 -91 -98c0 -14 9 -21 28 -21c14 0 26 2 37 6l-19 -75c-21 -6 -44 -9 -69 -9c-68 0 -103 27 -103 75c0 44 34 83 107 122h-21l14 56h-2c-43 -43 -96 -68 -152 -68c-99 0 -155 53 -155 150c0 23 3 47 10 73l74 297h140l-73 -294
c-5 -19 -7 -36 -7 -52c0 -43 22 -64 67 -64c60 0 111 49 134 138l68 272h140z" />
    <glyph glyph-name="Wcircumflex" unicode="&#x174;" horiz-adv-x="956" 
d="M1061 712l-326 -712h-191l4 282c1 97 5 198 14 305h-2c-37 -91 -83 -192 -138 -305l-136 -282h-191l28 712h137l-13 -259c-5 -95 -13 -198 -25 -308h2c36 84 83 187 142 308l126 259h186l-2 -259c-1 -105 -5 -207 -12 -308h2c32 83 75 186 129 308l115 259h151zM559 906
h149l77 -146h-114l-42 76l-79 -76h-142z" />
    <glyph glyph-name="wcircumflex" unicode="&#x175;" horiz-adv-x="810" 
d="M868 508l-238 -508h-200l5 200c2 73 5 145 9 217h-2c-29 -77 -60 -149 -93 -217l-95 -200h-200l14 508h133l-11 -196c-5 -101 -10 -174 -15 -221h2c30 75 62 148 95 219l94 198h192l-4 -198c-1 -73 -4 -146 -9 -219h2c27 76 57 150 89 221l87 196h145zM438 712h149
l78 -146h-118l-42 76l-79 -76h-138z" />
    <glyph glyph-name="Ycircumflex" unicode="&#x176;" horiz-adv-x="638" 
d="M749 712l-351 -435l-69 -277h-147l69 277l-135 435h149l35 -134c15 -57 28 -118 39 -181h2c38 60 80 120 127 181l101 134h180zM381 906h149l77 -146h-114l-42 76l-79 -76h-142z" />
    <glyph glyph-name="ycircumflex" unicode="&#x177;" horiz-adv-x="504" 
d="M-67 -71c14 -5 31 -8 52 -8c71 0 117 47 117 110c0 11 -2 33 -5 64l-41 413h138l12 -170c5 -78 8 -149 7 -213h2c38 81 74 152 108 213l95 170h156l-309 -511c-90 -144 -158 -186 -289 -188c-26 0 -50 3 -71 8zM498 566h-118l-42 76l-79 -76h-138l150 146h149z" />
    <glyph glyph-name="Ydieresis" unicode="&#x178;" horiz-adv-x="638" 
d="M265 712l35 -134c15 -57 28 -118 39 -181h2c38 60 80 120 127 181l101 134h180l-351 -435l-69 -277h-147l69 277l-135 435h149zM251 769l30 120h123l-30 -120h-123zM591 769h-123l30 120h123z" />
    <glyph glyph-name="Zacute" unicode="&#x179;" horiz-adv-x="582" 
d="M447 586v2h-328l31 124h509l-34 -137l-456 -449v-2h361l-31 -124h-542l34 137zM430 906h179l-171 -146h-116z" />
    <glyph glyph-name="zacute" unicode="&#x17a;" horiz-adv-x="484" 
d="M306 396v2h-232l28 110h408l-30 -120l-311 -276v-2h251l-27 -110h-428l30 120zM325 712h179l-170 -146h-116z" />
    <glyph glyph-name="Zdotaccent" unicode="&#x17b;" horiz-adv-x="582" 
d="M447 586v2h-328l31 124h509l-34 -137l-456 -449v-2h361l-31 -124h-542l34 137zM369 889h140l-30 -120h-140z" />
    <glyph glyph-name="zdotaccent" unicode="&#x17c;" horiz-adv-x="484" 
d="M306 396v2h-232l28 110h408l-30 -120l-311 -276v-2h251l-27 -110h-428l30 120zM269 712h140l-30 -120h-140z" />
    <glyph glyph-name="Zcaron" unicode="&#x17d;" horiz-adv-x="582" 
d="M625 575l-456 -449v-2h361l-31 -124h-542l34 137l456 449v2h-328l31 124h509zM255 906h114l42 -76l79 76h142l-151 -146h-149z" />
    <glyph glyph-name="zcaron" unicode="&#x17e;" horiz-adv-x="484" 
d="M480 388l-311 -276v-2h251l-27 -110h-428l30 120l311 276v2h-232l28 110h408zM150 712h118l42 -76l79 76h138l-150 -146h-149z" />
    <glyph glyph-name="longs" unicode="&#x17f;" horiz-adv-x="341" 
d="M169 0h-138l101 404h-85l26 104h85l14 58c25 103 95 154 200 154c26 0 50 -3 73 -10l-24 -97c-6 2 -14 3 -23 3c-52 0 -81 -24 -97 -87z" />
    <glyph glyph-name="uni018F" unicode="&#x18f;" horiz-adv-x="763" 
d="M758 442c0 -70 -16 -140 -49 -211s-81 -129 -144 -176s-138 -71 -225 -71c-189 0 -288 107 -288 278c0 57 8 105 24 144h519c2 15 3 30 3 43c0 104 -62 152 -149 152c-81 0 -149 -43 -174 -106h-170c54 128 192 233 365 233c187 0 288 -106 288 -286zM209 284
c-1 -16 -2 -27 -2 -34c0 -88 60 -136 151 -136s171 62 207 170h-356z" />
    <glyph glyph-name="florin" unicode="&#x192;" 
d="M693 712l-26 -105c-13 3 -28 5 -45 5c-55 0 -88 -24 -123 -92l-26 -52h106l-26 -104h-131l-180 -358c-35 -71 -73 -122 -112 -152c-40 -30 -90 -45 -149 -45c-29 0 -52 3 -69 9l27 106c13 -3 28 -5 43 -5c26 0 48 7 65 20s35 39 54 78l174 347h-97l26 104h122l32 63
c67 135 143 192 254 192c32 0 59 -4 81 -11z" />
    <glyph glyph-name="Aringacute" unicode="&#x1fa;" horiz-adv-x="698" 
d="M364 712h198l70 -712h-144l-12 174h-273l-99 -174h-164zM550 765c-21 -21 -47 -32 -77 -32s-55 11 -76 32s-32 46 -32 76s11 56 32 77s46 31 76 31s56 -10 77 -31s31 -47 31 -77s-10 -55 -31 -76zM274 300h193l-3 47c-7 107 -11 199 -13 278h-2
c-47 -93 -96 -186 -148 -278zM508 1116h179l-171 -146h-116zM419 841c0 -29 25 -54 54 -54c31 0 54 25 54 54c0 31 -23 54 -54 54c-29 0 -54 -23 -54 -54z" />
    <glyph glyph-name="aringacute" unicode="&#x1fb;" horiz-adv-x="547" 
d="M355 411c-13 10 -30 15 -53 15c-49 0 -84 -29 -95 -77h-136c11 51 38 93 80 126s95 49 160 49c130 0 195 -53 195 -158c0 -21 -3 -43 -9 -67l-40 -160c-15 -60 -22 -106 -21 -139h-122c0 21 3 40 8 59h-2c-48 -47 -105 -71 -171 -71c-97 0 -152 52 -152 135
c0 43 18 81 53 114c35 32 94 54 178 67c47 7 93 11 138 14l3 12c3 13 5 24 5 33c0 21 -6 37 -19 48zM347 545c-30 0 -55 11 -76 32s-32 46 -32 76s11 56 32 77s46 31 76 31s56 -10 77 -31s31 -47 31 -77s-10 -55 -31 -76s-47 -32 -77 -32zM345 233c-39 -3 -74 -6 -105 -11
c-65 -11 -98 -37 -98 -80c0 -33 23 -54 64 -54c68 0 112 40 131 113zM560 928l-170 -146h-116l107 146h179zM386 615c10 11 15 23 15 38c0 31 -23 54 -54 54c-29 0 -54 -23 -54 -54c0 -29 25 -54 54 -54c15 0 28 5 39 16z" />
    <glyph glyph-name="AEacute" unicode="&#x1fc;" horiz-adv-x="965" 
d="M989 586h-332l-17 -161h286l-32 -125h-268l-18 -174h275l-31 -126h-393l19 179h-254l-122 -179h-171l509 712h580zM490 303l31 292h-14l-199 -292h182zM667 906h179l-171 -146h-116z" />
    <glyph glyph-name="aeacute" unicode="&#x1fd;" horiz-adv-x="879" 
d="M483 225c-3 -14 -4 -28 -4 -43c0 -68 35 -99 87 -99c48 0 88 30 103 71h143c-20 -49 -53 -89 -98 -121c-46 -33 -98 -49 -156 -49c-84 0 -142 33 -174 92c-51 -61 -122 -92 -199 -92c-120 0 -187 56 -187 143c0 91 74 181 286 181h88l4 16c3 15 5 26 5 34
c0 48 -26 68 -77 68c-52 0 -87 -29 -98 -77h-136c11 51 37 93 80 126c42 33 95 49 158 49c79 0 134 -21 164 -62c48 41 104 62 167 62c136 0 210 -79 210 -207c0 -27 -4 -57 -12 -92h-354zM158 100c12 -11 30 -16 54 -16c72 0 115 41 136 125l4 16h-73
c-93 0 -139 -28 -139 -83c0 -18 6 -32 18 -42zM714 712l-170 -146h-116l107 146h179zM717 313c1 11 2 18 2 22c0 60 -35 90 -88 90c-55 0 -101 -37 -126 -112h212z" />
    <glyph glyph-name="Oslashacute" unicode="&#x1fe;" horiz-adv-x="748" 
d="M770 674l-74 -74c28 -48 42 -107 42 -176c2 -205 -142 -446 -388 -440c-83 0 -150 23 -200 69l-67 -68l-53 53l73 73c-28 48 -42 107 -42 177s15 139 45 207c29 68 73 124 132 168c58 43 128 65 210 65c83 0 150 -23 201 -69l68 68zM211 220l340 341
c-27 30 -63 45 -109 45c-149 5 -241 -178 -239 -317c0 -23 3 -46 8 -69zM356 106c148 -5 242 180 240 318c0 23 -3 46 -8 67l-340 -341c27 -29 63 -44 108 -44zM523 906h179l-171 -146h-116z" />
    <glyph glyph-name="oslashacute" unicode="&#x1ff;" horiz-adv-x="590" 
d="M583 498l-61 -61c23 -37 35 -82 35 -137c2 -142 -112 -320 -301 -316c-59 0 -108 14 -145 42l-61 -61l-46 46l63 63c-23 35 -34 79 -34 134c-2 141 112 321 299 316c59 0 107 -13 145 -40l60 60zM268 87c100 -4 152 127 152 212c0 12 -1 23 -3 33l-218 -218
c17 -18 40 -27 69 -27zM169 209c0 -7 1 -18 2 -31l217 217c-16 17 -38 26 -67 26c-100 4 -152 -127 -152 -212zM395 712h179l-170 -146h-116z" />
    <glyph glyph-name="Scommaaccent" unicode="&#x218;" horiz-adv-x="630" 
d="M411 242c-17 23 -44 34 -107 57c-45 15 -80 30 -106 44c-27 14 -49 34 -66 60c-18 25 -27 59 -27 101c-2 104 109 227 290 224c163 0 244 -60 244 -181c0 -15 -3 -33 -8 -53h-149c2 10 3 20 3 29c0 57 -37 88 -108 88c-67 0 -118 -37 -118 -86c0 -45 34 -67 129 -98
c84 -28 134 -52 167 -104c17 -27 25 -61 25 -104c2 -110 -112 -238 -301 -235c-167 0 -263 69 -263 194c0 19 2 37 7 56h152c-3 -11 -4 -23 -4 -36c0 -63 42 -95 125 -95c85 0 128 51 128 94c0 19 -4 34 -13 45zM135 -270l72 107h-45l26 104h124l-26 -104l-95 -107h-56z" />
    <glyph glyph-name="scommaaccent" unicode="&#x219;" horiz-adv-x="524" 
d="M351 9c-37 -17 -81 -25 -133 -25c-133 0 -209 49 -209 145c0 13 2 25 5 36h141c-2 -8 -3 -15 -3 -22c0 -37 26 -58 78 -58c51 0 80 22 80 55c0 35 -25 48 -98 73c-61 21 -92 34 -116 71c-13 18 -19 43 -19 74c0 84 81 166 228 166c124 0 192 -48 192 -140
c0 -10 -1 -21 -3 -32h-133c1 9 2 16 2 21c0 35 -23 53 -70 53c-51 0 -74 -23 -74 -50c0 -28 20 -41 92 -66c64 -21 100 -36 128 -75c13 -20 20 -46 20 -78c0 -59 -36 -116 -108 -148zM78 -270l72 107h-45l26 104h124l-26 -104l-95 -107h-56z" />
    <glyph glyph-name="uni021A" unicode="&#x21a;" horiz-adv-x="615" 
d="M93 586l31 126h595l-31 -126h-224l-146 -586h-147l146 586h-224zM120 -270l72 107h-45l26 104h124l-26 -104l-95 -107h-56z" />
    <glyph glyph-name="uni021B" unicode="&#x21b;" horiz-adv-x="357" 
d="M364 404h-97l-53 -213c-3 -15 -5 -27 -5 -36c0 -36 15 -50 54 -50c10 0 21 1 33 4l-28 -109c-17 -5 -35 -7 -55 -7c-103 0 -149 38 -149 127c0 20 4 45 11 74l52 210h-82l26 104h82l33 132h140l-33 -132h97zM88 -163h-45l26 104h124l-26 -104l-95 -107h-56z" />
    <glyph glyph-name="uni0237" unicode="&#x237;" horiz-adv-x="278" 
d="M-66 -190c-29 0 -54 3 -75 9l25 100c7 -2 15 -3 23 -3c55 0 85 26 104 102l122 490h140l-133 -535c-28 -112 -105 -163 -206 -163z" />
    <glyph glyph-name="uni0259" unicode="&#x259;" horiz-adv-x="573" 
d="M542 309c0 -49 -11 -99 -34 -149c-23 -51 -57 -93 -102 -126s-99 -50 -161 -50c-140 0 -215 79 -215 207c0 35 5 68 15 97h362c2 14 3 27 3 38c0 68 -37 99 -92 99c-49 0 -91 -27 -107 -66h-143c21 47 54 87 101 118c46 31 98 47 157 47c141 0 216 -80 216 -215zM160 173
c0 -30 9 -52 26 -67s39 -23 67 -23c57 0 105 40 132 117h-223c-1 -13 -2 -22 -2 -27z" />
    <glyph glyph-name="afii57929" unicode="&#x2bc;" horiz-adv-x="255" 
d="M173 424h-71l84 146h-44l35 142h131l-35 -142z" />
    <glyph glyph-name="circumflex" unicode="&#x2c6;" horiz-adv-x="478" 
d="M266 566h-138l150 146h149l78 -146h-118l-42 76z" />
    <glyph glyph-name="caron" unicode="&#x2c7;" horiz-adv-x="478" 
d="M165 712h118l42 -76l79 76h138l-150 -146h-149z" />
    <glyph glyph-name="uni02C9" unicode="&#x2c9;" horiz-adv-x="427" 
d="M137 598l22 91h326l-22 -91h-326z" />
    <glyph glyph-name="breve" unicode="&#x2d8;" horiz-adv-x="450" 
d="M200 594c-25 21 -38 51 -38 90c0 5 1 15 2 28h83c-1 -3 -1 -8 -1 -13c0 -32 24 -51 67 -51c48 0 83 24 94 64h107c-27 -96 -104 -151 -208 -151c-45 0 -81 11 -106 33z" />
    <glyph glyph-name="dotaccent" unicode="&#x2d9;" horiz-adv-x="241" 
d="M135 592l30 120h140l-30 -120h-140z" />
    <glyph glyph-name="ring" unicode="&#x2da;" horiz-adv-x="323" 
d="M188 741c21 21 46 31 76 31s56 -10 77 -31s31 -47 31 -77s-10 -55 -31 -76s-47 -32 -77 -32s-55 11 -76 32s-32 46 -32 76s11 56 32 77zM210 664c0 -29 25 -54 54 -54c31 0 54 25 54 54c0 31 -23 54 -54 54c-29 0 -54 -23 -54 -54z" />
    <glyph glyph-name="ogonek" unicode="&#x2db;" horiz-adv-x="292" 
d="M-41 -122c0 44 34 83 107 122h110c-69 -41 -91 -69 -91 -98c0 -14 9 -21 28 -21c14 0 26 2 37 6l-19 -75c-21 -6 -44 -9 -69 -9c-68 0 -103 27 -103 75z" />
    <glyph glyph-name="tilde" unicode="&#x2dc;" horiz-adv-x="476" 
d="M540 712c-12 -42 -30 -75 -55 -99s-55 -36 -88 -36s-54 10 -79 27c-21 13 -33 19 -50 19c-28 0 -46 -14 -57 -46h-80c23 84 76 135 143 135c33 0 53 -10 80 -27c21 -13 32 -19 49 -19c29 0 47 14 59 46h78z" />
    <glyph glyph-name="hungarumlaut" unicode="&#x2dd;" horiz-adv-x="540" 
d="M318 566l127 146h159l-170 -146h-116zM128 566l127 146h159l-170 -146h-116z" />
    <glyph glyph-name="uni0312" unicode="&#x312;" horiz-adv-x="0" 
d="M256 577h-124l25 104l95 107h56l-72 -107h45z" />
    <glyph glyph-name="uni0326" unicode="&#x326;" horiz-adv-x="0" 
d="M-25 -270h-56l72 107h-45l26 104h124l-26 -104z" />
    <glyph glyph-name="uni0333" unicode="&#x333;" horiz-adv-x="0" 
d="M-94 -121h-500l18 71h500zM-630 -266l18 71h500l-18 -71h-500z" />
    <glyph glyph-name="uni0374" unicode="&#x374;" horiz-adv-x="215" 
d="M93 508l81 204h125l-118 -204h-88z" />
    <glyph glyph-name="uni0375" unicode="&#x375;" horiz-adv-x="215" 
d="M-57 -92l81 204h125l-118 -204h-88z" />
    <glyph glyph-name="uni037E" unicode="&#x37e;" horiz-adv-x="258" 
d="M26 -172h-84l98 172h-51l41 167h154l-41 -167zM228 341h-154l41 167h154z" />
    <glyph glyph-name="tonos" unicode="&#x384;" horiz-adv-x="273" 
d="M129 568l76 164h137l-109 -164h-104z" />
    <glyph glyph-name="dieresistonos" unicode="&#x385;" horiz-adv-x="541" 
d="M374 568h-95l72 156h116zM572 580h-113l29 117h113zM245 580h-113l29 117h113z" />
    <glyph glyph-name="Alphatonos" unicode="&#x386;" horiz-adv-x="698" 
d="M632 0h-144l-12 174h-273l-99 -174h-164l424 712h198zM274 300h193l-3 47c-7 107 -11 199 -13 278h-2c-47 -93 -96 -186 -148 -278zM66 508l86 204h137l-119 -204h-104z" />
    <glyph glyph-name="anoteleia" unicode="&#x387;" horiz-adv-x="258" 
d="M74 341l41 167h154l-41 -167h-154z" />
    <glyph glyph-name="Epsilontonos" unicode="&#x388;" horiz-adv-x="633" 
d="M19 0l177 712h492l-31 -126h-345l-40 -161h322l-32 -125h-322l-43 -174h354l-31 -126h-501zM153 712l-119 -204h-104l86 204h137z" />
    <glyph glyph-name="Etatonos" unicode="&#x389;" horiz-adv-x="750" 
d="M19 0l177 712h147l-69 -279h292l69 279h147l-177 -712h-147l76 307h-292l-76 -307h-147zM153 712l-119 -204h-104l86 204h137z" />
    <glyph glyph-name="Iotatonos" unicode="&#x38a;" horiz-adv-x="311" 
d="M196 712h147l-177 -712h-147zM16 712h137l-119 -204h-104z" />
    <glyph glyph-name="Omicrontonos" unicode="&#x38c;" horiz-adv-x="748" 
d="M738 424c2 -205 -142 -446 -388 -440c-91 0 -162 27 -213 82c-51 54 -76 128 -76 222c0 70 15 139 45 207c29 68 73 124 132 168c58 43 128 65 210 65c183 0 290 -118 290 -304zM248 161c25 -31 61 -47 108 -47c146 -5 235 174 234 310c0 108 -53 174 -148 174
c-147 5 -235 -172 -233 -309c0 -55 13 -97 39 -128zM59 712h137l-119 -204h-104z" />
    <glyph glyph-name="Upsilontonos" unicode="&#x38e;" horiz-adv-x="638" 
d="M265 712l35 -134c15 -57 28 -118 39 -181h2c38 60 80 120 127 181l101 134h180l-351 -435l-69 -277h-147l69 277l-135 435h149zM95 712l-119 -204h-104l86 204h137z" />
    <glyph glyph-name="Omegatonos" unicode="&#x38f;" horiz-adv-x="734" 
d="M679 296c-35 -58 -87 -115 -156 -170v-2h148l-31 -124h-294l32 130c127 99 193 206 193 318c0 97 -52 150 -136 150c-138 4 -222 -145 -221 -268c0 -76 23 -136 64 -200l-32 -130h-278l31 124h152v2c-51 73 -80 145 -80 232c-2 174 139 374 384 370
c172 0 276 -83 276 -242c0 -69 -17 -133 -52 -190zM-36 508l86 204h137l-119 -204h-104z" />
    <glyph glyph-name="iotadieresistonos" unicode="&#x390;" horiz-adv-x="316" 
d="M51 206l75 302h140l-73 -293c-7 -25 -10 -45 -10 -59c0 -36 16 -51 55 -51c10 0 20 1 31 4l-28 -110c-16 -4 -36 -6 -59 -6c-99 0 -144 38 -144 126c0 22 4 51 13 87zM213 724h116l-93 -156h-95zM23 697h113l-29 -117h-113zM434 580h-113l29 117h113z" />
    <glyph glyph-name="Alpha" unicode="&#x391;" horiz-adv-x="698" 
d="M104 0h-164l424 712h198l70 -712h-144l-12 174h-273zM274 300h193l-3 47c-7 107 -11 199 -13 278h-2c-47 -93 -96 -186 -148 -278z" />
    <glyph glyph-name="Beta" unicode="&#x392;" horiz-adv-x="650" 
d="M628 437c-26 -35 -69 -61 -129 -78v-2c72 -17 101 -62 101 -134c2 -108 -96 -226 -283 -223h-298l177 712h236c157 0 235 -59 235 -158c0 -43 -13 -82 -39 -117zM196 121h119c103 0 139 42 139 106c0 55 -32 76 -108 76h-105zM270 419h114c99 0 135 41 135 100
c0 51 -33 73 -105 73h-101z" />
    <glyph glyph-name="Gamma" unicode="&#x393;" horiz-adv-x="508" 
d="M166 0h-147l177 712h416l-31 -126h-269z" />
    <glyph glyph-name="Delta" unicode="&#x394;" horiz-adv-x="698" 
d="M-60 0l426 712h198l68 -712h-692zM177 126h304l-16 221c-7 101 -11 193 -14 278h-2c-43 -89 -92 -181 -147 -278z" />
    <glyph glyph-name="Epsilon" unicode="&#x395;" horiz-adv-x="633" 
d="M19 0l177 712h492l-31 -126h-345l-40 -161h322l-32 -125h-322l-43 -174h354l-31 -126h-501z" />
    <glyph glyph-name="Zeta" unicode="&#x396;" horiz-adv-x="582" 
d="M-43 0l34 137l456 449v2h-328l31 124h509l-34 -137l-456 -449v-2h361l-31 -124h-542z" />
    <glyph glyph-name="Eta" unicode="&#x397;" horiz-adv-x="750" 
d="M19 0l177 712h147l-69 -279h292l69 279h147l-177 -712h-147l76 307h-292l-76 -307h-147z" />
    <glyph glyph-name="Theta" unicode="&#x398;" horiz-adv-x="748" 
d="M707 589c22 -45 33 -97 33 -157c0 -71 -15 -141 -45 -210c-31 -69 -76 -126 -136 -171s-132 -67 -215 -67c-90 0 -160 27 -210 80s-75 125 -75 216c0 71 15 142 46 211c30 69 75 125 135 170c59 45 131 67 214 67c120 0 208 -51 253 -139zM203 289
c0 -112 56 -181 153 -181c151 -5 242 178 240 316c0 111 -57 180 -154 180c-150 4 -240 -177 -239 -315zM518 300h-266l29 113h266z" />
    <glyph glyph-name="Iota" unicode="&#x399;" horiz-adv-x="311" 
d="M166 0h-147l177 712h147z" />
    <glyph glyph-name="Kappa" unicode="&#x39a;" horiz-adv-x="663" 
d="M196 712h147l-75 -301h2l292 301h188l-357 -345l203 -367h-171l-171 348h-2l-86 -348h-147z" />
    <glyph glyph-name="Lambda" unicode="&#x39b;" horiz-adv-x="684" 
d="M-60 0l416 712h200l62 -712h-148l-19 342c-6 106 -9 198 -10 275h-2c-45 -96 -92 -188 -140 -275l-189 -342h-170z" />
    <glyph glyph-name="Mu" unicode="&#x39c;" horiz-adv-x="984" 
d="M857 621c-48 -93 -95 -180 -142 -262l-202 -359h-168l-24 359c-6 100 -9 187 -10 262h-2c-21 -99 -42 -188 -61 -267l-88 -354h-141l177 712h227l22 -327c6 -105 9 -193 8 -262h2c43 95 87 182 132 262l184 327h245l-177 -712h-141l88 354c23 95 48 184 73 267h-2z" />
    <glyph glyph-name="Nu" unicode="&#x39d;" horiz-adv-x="776" 
d="M160 0h-141l177 712h197l72 -289c18 -75 40 -173 66 -294h2c18 103 40 206 66 309l68 274h141l-177 -712h-197l-72 289c-25 103 -47 201 -66 294h-2c-22 -118 -44 -221 -66 -309z" />
    <glyph glyph-name="Xi" unicode="&#x39e;" horiz-adv-x="675" 
d="M-13 0l36 147h575l-36 -147h-575zM689 565h-547l36 147h547zM602 285h-513l36 147h513z" />
    <glyph glyph-name="Omicron" unicode="&#x39f;" horiz-adv-x="748" 
d="M704 586c23 -46 34 -100 34 -162c2 -205 -142 -446 -388 -440c-91 0 -162 27 -213 82c-51 54 -76 128 -76 222c0 70 15 139 45 207c29 68 73 124 132 168c58 43 128 65 210 65c121 0 211 -51 256 -142zM236 431c-18 -48 -27 -95 -27 -142c0 -109 54 -175 147 -175
c146 -5 235 174 234 310c0 108 -53 174 -148 174c-49 0 -91 -16 -126 -47c-35 -32 -62 -72 -80 -120z" />
    <glyph glyph-name="Pi" unicode="&#x3a0;" horiz-adv-x="739" 
d="M19 0l177 712h575l-177 -712h-146l146 586h-282l-146 -586h-147z" />
    <glyph glyph-name="Rho" unicode="&#x3a1;" horiz-adv-x="636" 
d="M166 0h-147l177 712h219c168 0 252 -76 252 -208c1 -117 -92 -255 -286 -252h-152zM381 374c47 0 81 12 103 35s33 51 33 82c0 66 -37 99 -112 99h-92l-54 -216h122z" />
    <glyph glyph-name="Sigma" unicode="&#x3a3;" horiz-adv-x="585" 
d="M-40 0l35 141l239 233l-114 226l28 112h517l-31 -124h-348v-2l118 -236l-230 -224v-2h359l-31 -124h-542z" />
    <glyph glyph-name="Tau" unicode="&#x3a4;" horiz-adv-x="615" 
d="M93 586l31 126h595l-31 -126h-224l-146 -586h-147l146 586h-224z" />
    <glyph glyph-name="Upsilon" unicode="&#x3a5;" horiz-adv-x="638" 
d="M251 277l-135 435h149l35 -134c15 -57 28 -118 39 -181h2c38 60 80 120 127 181l101 134h180l-351 -435l-69 -277h-147z" />
    <glyph glyph-name="Phi" unicode="&#x3a6;" horiz-adv-x="834" 
d="M821 397c0 -59 -14 -115 -41 -168c-56 -108 -173 -184 -344 -184l-19 -75h-141l20 80c-151 21 -231 116 -231 271c-2 166 126 356 386 352l18 69h141l-19 -74c149 -23 230 -118 230 -271zM213 329c0 -43 10 -77 29 -104s47 -45 84 -54l95 380
c-141 -10 -208 -123 -208 -222zM466 167c137 10 205 126 204 221c0 85 -38 141 -109 158z" />
    <glyph glyph-name="Chi" unicode="&#x3a7;" horiz-adv-x="630" 
d="M259 369l-131 343h153l77 -239h2l187 239h183l-305 -357l139 -355h-156l-83 245h-2l-197 -245h-186z" />
    <glyph glyph-name="Psi" unicode="&#x3a8;" horiz-adv-x="841" 
d="M915 712l-67 -268c-51 -189 -165 -277 -377 -282l-40 -162h-147l41 166c-161 17 -238 88 -238 227c0 35 5 73 16 115l51 204h147l-52 -208c-8 -33 -12 -62 -12 -86c0 -79 36 -118 119 -127l105 421h147l-105 -423c117 7 173 58 204 179l61 244h147z" />
    <glyph glyph-name="Omega" unicode="&#x3a9;" horiz-adv-x="734" 
d="M731 486c0 -69 -17 -133 -52 -190c-35 -58 -87 -115 -156 -170v-2h148l-31 -124h-294l32 130c127 99 193 206 193 318c0 97 -52 150 -136 150c-138 4 -222 -145 -221 -268c0 -76 23 -136 64 -200l-32 -130h-278l31 124h152v2c-51 73 -80 145 -80 232
c-2 174 139 374 384 370c172 0 276 -83 276 -242z" />
    <glyph glyph-name="Iotadieresis" unicode="&#x3aa;" horiz-adv-x="311" 
d="M196 712h147l-177 -712h-147zM338 796l30 120h123l-30 -120h-123zM151 916h123l-30 -120h-123z" />
    <glyph glyph-name="Upsilondieresis" unicode="&#x3ab;" horiz-adv-x="638" 
d="M265 712l35 -134c15 -57 28 -118 39 -181h2c38 60 80 120 127 181l101 134h180l-351 -435l-69 -277h-147l69 277l-135 435h149zM251 769l30 120h123l-30 -120h-123zM591 769h-123l30 120h123z" />
    <glyph glyph-name="alphatonos" unicode="&#x3ac;" horiz-adv-x="613" 
d="M509 168c-4 -15 -6 -27 -6 -36c0 -23 12 -31 33 -31c8 0 16 1 25 3l-26 -103c-23 -6 -48 -9 -77 -9c-59 0 -94 22 -103 67h-2c-43 -47 -96 -72 -148 -72c-112 0 -176 74 -176 198c0 50 11 101 33 154c22 52 54 95 96 130c41 35 90 52 146 52c64 0 117 -33 134 -90h2
c7 25 16 50 27 77h136c-21 -51 -39 -111 -55 -180zM199 124c14 -20 34 -30 60 -30c88 -3 143 117 142 208c0 71 -30 112 -82 112c-88 3 -143 -117 -142 -208c0 -35 7 -63 22 -82zM378 732h137l-109 -164h-104z" />
    <glyph glyph-name="epsilontonos" unicode="&#x3ad;" horiz-adv-x="518" 
d="M378 30c-44 -31 -101 -46 -171 -46c-124 0 -199 52 -199 140c0 67 42 121 135 146v2c-43 20 -65 49 -65 87c0 80 78 165 232 165c121 0 191 -56 191 -156c0 -11 -1 -20 -2 -27h-139c1 4 1 9 1 16c0 41 -24 64 -69 64c-51 0 -80 -30 -80 -63s27 -53 75 -53h44l-25 -101
h-56c-68 0 -103 -28 -103 -63c0 -33 28 -54 75 -54c56 0 90 25 102 76h140c-14 -59 -43 -103 -86 -133zM352 732h137l-109 -164h-104z" />
    <glyph glyph-name="etatonos" unicode="&#x3ae;" horiz-adv-x="616" 
d="M564 297l-120 -482h-140l119 479c5 19 7 36 7 52c0 43 -22 64 -67 64c-60 0 -111 -49 -134 -138l-68 -272h-140l84 337c4 17 6 31 6 41c0 24 -11 33 -32 33c-9 0 -18 -1 -26 -3l25 100c23 5 44 8 63 8c62 0 95 -27 99 -82h2c48 53 110 86 175 86c100 0 157 -53 157 -150
c0 -23 -3 -47 -10 -73zM373 732h137l-109 -164h-104z" />
    <glyph glyph-name="iotatonos" unicode="&#x3af;" horiz-adv-x="316" 
d="M126 508h140l-73 -293c-7 -25 -10 -45 -10 -59c0 -36 16 -51 55 -51c10 0 20 1 31 4l-28 -110c-16 -4 -36 -6 -59 -6c-99 0 -144 38 -144 126c0 22 4 51 13 87zM158 568l76 164h137l-109 -164h-104z" />
    <glyph glyph-name="upsilondieresistonos" unicode="&#x3b0;" horiz-adv-x="602" 
d="M50 404l26 103c23 6 46 9 69 9c73 0 109 -30 109 -109c0 -18 -4 -42 -11 -71l-34 -135c-4 -16 -6 -30 -6 -42c0 -44 25 -66 75 -66c39 0 70 18 94 55c23 36 40 79 50 130c10 50 15 98 15 145c0 27 -2 55 -7 85h136c4 -29 6 -59 6 -91c0 -73 -10 -143 -29 -208
s-52 -119 -98 -161c-46 -43 -107 -64 -182 -64c-131 0 -199 54 -199 170c0 19 3 41 9 65l27 108c5 21 8 37 8 48c0 24 -11 32 -32 32c-9 0 -18 -1 -26 -3zM277 568l72 156h116l-93 -156h-95zM130 580l29 117h113l-29 -117h-113zM486 697h113l-29 -117h-113z" />
    <glyph glyph-name="alpha" unicode="&#x3b1;" horiz-adv-x="613" 
d="M603 508c-21 -51 -39 -111 -55 -180l-39 -160c-4 -15 -6 -27 -6 -36c0 -23 12 -31 33 -31c8 0 16 1 25 3l-26 -103c-23 -6 -48 -9 -77 -9c-59 0 -94 22 -103 67h-2c-43 -47 -96 -72 -148 -72c-112 0 -176 74 -176 198c0 50 11 101 33 154c22 52 54 95 96 130
c41 35 90 52 146 52c64 0 117 -33 134 -90h2c7 25 16 50 27 77h136zM194 301c-11 -32 -17 -64 -17 -95c0 -71 30 -112 82 -112c88 -3 143 117 142 208c0 71 -30 112 -82 112c-59 0 -102 -49 -125 -113z" />
    <glyph glyph-name="beta" unicode="&#x3b2;" horiz-adv-x="606" 
d="M-41 -185l171 685c36 147 134 228 271 228c131 0 206 -65 206 -173c0 -80 -56 -150 -167 -174v-2c72 -20 118 -76 118 -157c2 -107 -92 -235 -257 -232c-72 0 -121 23 -141 64h-2l-59 -239h-140zM475 547c0 25 -7 44 -21 57c-15 13 -35 20 -61 20
c-65 0 -103 -43 -127 -139l-69 -275c-3 -10 -4 -21 -4 -32c0 -53 31 -84 95 -84c87 0 131 71 131 130c0 69 -41 101 -124 101h-10l27 109h18c47 0 83 11 108 34s37 49 37 79z" />
    <glyph glyph-name="gamma" unicode="&#x3b3;" horiz-adv-x="556" 
d="M609 508c-33 -95 -75 -181 -125 -257s-117 -158 -202 -245c-7 -30 -16 -63 -27 -99s-22 -67 -31 -92h-140c25 67 43 127 55 179c12 53 18 108 18 167c0 65 -6 123 -19 174s-35 76 -68 76c-6 0 -14 -1 -23 -2l25 99c19 6 39 9 59 9c104 0 142 -79 142 -267
c0 -29 -2 -60 -5 -92h2c88 116 145 219 188 350h151z" />
    <glyph glyph-name="delta" unicode="&#x3b4;" horiz-adv-x="590" 
d="M608 692l-27 -111c-56 25 -122 39 -181 39c-45 0 -67 -11 -67 -33c0 -23 24 -42 88 -83c85 -57 132 -127 132 -224c2 -139 -113 -300 -301 -296c-140 0 -225 77 -225 206c0 115 79 237 244 285v2c-55 41 -81 74 -81 114c0 35 16 66 49 92c32 26 84 39 155 39
c81 0 152 -10 214 -30zM173 192c0 -64 31 -101 87 -101c88 -3 146 97 145 169c0 63 -23 110 -69 142c-110 -37 -163 -130 -163 -210z" />
    <glyph glyph-name="epsilon" unicode="&#x3b5;" horiz-adv-x="518" 
d="M501 368c0 -11 -1 -20 -2 -27h-139c1 4 1 9 1 16c0 41 -24 64 -69 64c-51 0 -80 -30 -80 -63s27 -53 75 -53h44l-25 -101h-56c-68 0 -103 -28 -103 -63c0 -33 28 -54 75 -54c56 0 90 25 102 76h140c-28 -117 -117 -179 -257 -179c-124 0 -199 52 -199 140
c0 67 42 121 135 146v2c-43 20 -65 49 -65 87c0 80 78 165 232 165c121 0 191 -56 191 -156z" />
    <glyph glyph-name="zeta" unicode="&#x3b6;" horiz-adv-x="482" 
d="M576 712l-25 -101c-252 -121 -374 -275 -374 -396c0 -57 32 -86 115 -105c75 -17 104 -56 104 -120c0 -41 -16 -92 -44 -135h-119c20 33 32 67 32 88c0 31 -19 47 -78 59c-116 23 -164 73 -164 173c0 137 124 311 351 434v2h-224l25 101h401z" />
    <glyph glyph-name="eta" unicode="&#x3b7;" horiz-adv-x="616" 
d="M574 370c0 -23 -3 -47 -10 -73l-120 -482h-140l119 479c5 19 7 36 7 52c0 43 -22 64 -67 64c-60 0 -111 -49 -134 -138l-68 -272h-140l84 337c4 17 6 31 6 41c0 24 -11 33 -32 33c-9 0 -18 -1 -26 -3l25 100c23 5 44 8 63 8c62 0 95 -27 99 -82h2c48 53 110 86 175 86
c100 0 157 -53 157 -150z" />
    <glyph glyph-name="theta" unicode="&#x3b8;" horiz-adv-x="623" 
d="M625 480c0 -73 -14 -147 -41 -224s-68 -141 -122 -192c-54 -52 -118 -78 -193 -78c-144 0 -220 87 -220 247c0 71 14 145 42 222c27 77 68 141 123 193c54 52 118 78 192 78c144 0 219 -86 219 -246zM291 562c-31 -42 -55 -94 -74 -157h263c5 29 7 56 7 83
c0 89 -30 136 -89 136c-41 0 -76 -21 -107 -62zM194 307c-5 -29 -7 -56 -7 -81c0 -91 31 -138 90 -138c40 0 75 21 106 63c31 41 55 93 74 156h-263z" />
    <glyph glyph-name="iota" unicode="&#x3b9;" horiz-adv-x="316" 
d="M38 119c0 22 4 51 13 87l75 302h140l-73 -293c-7 -25 -10 -45 -10 -59c0 -36 16 -51 55 -51c10 0 20 1 31 4l-28 -110c-16 -4 -36 -6 -59 -6c-99 0 -144 38 -144 126z" />
    <glyph glyph-name="kappa" unicode="&#x3ba;" horiz-adv-x="560" 
d="M611 506l-28 -111c-7 2 -15 3 -26 3c-30 0 -61 -9 -93 -28c-33 -19 -76 -52 -129 -99l-6 -5l181 -266h-155l-122 181l-60 -52l-32 -129h-140l127 508h140l-52 -207h2l116 105c47 42 87 71 120 86s68 23 105 23c17 0 34 -3 52 -9z" />
    <glyph glyph-name="lambda" unicode="&#x3bb;" horiz-adv-x="597" 
d="M537 97c4 0 9 1 14 2l-24 -100c-14 -5 -31 -7 -50 -7c-82 0 -119 28 -129 146l-22 223h-1c-37 -58 -83 -127 -136 -208l-101 -153h-158l352 503c-8 81 -28 109 -77 109c-18 0 -35 -3 -51 -8l26 106c20 7 45 11 76 11c105 0 160 -57 182 -231l37 -291
c11 -81 29 -102 62 -102z" />
    <glyph glyph-name="mu" unicode="&#x3bc;" horiz-adv-x="613" 
d="M566 104l-26 -105c-17 -5 -37 -7 -61 -7c-61 0 -92 28 -96 81h-2c-28 -48 -86 -79 -146 -79c-39 0 -67 11 -84 34l-53 -213h-140l173 693h140l-73 -292c-4 -18 -6 -33 -6 -46c0 -48 24 -72 72 -72c57 0 104 49 127 138l67 272h140l-84 -340c-4 -15 -6 -27 -6 -36
c0 -23 12 -31 33 -31c8 0 16 1 25 3z" />
    <glyph glyph-name="nu" unicode="&#x3bd;" horiz-adv-x="542" 
d="M584 508c0 -15 -2 -31 -6 -47c-9 -38 -23 -76 -41 -113s-45 -82 -80 -135s-86 -124 -151 -213h-186l-12 323c-1 68 -13 88 -44 88c-7 0 -14 -1 -20 -3l25 98c19 7 40 10 63 10c77 0 112 -45 109 -154l-6 -256h2c63 91 110 163 139 216s49 102 60 147c3 13 5 26 6 39h142z
" />
    <glyph glyph-name="xi" unicode="&#x3be;" horiz-adv-x="487" 
d="M374 67c18 -22 27 -51 27 -87c0 -37 -14 -86 -41 -125h-119c20 29 31 61 31 85c0 35 -22 55 -86 64c-116 17 -168 69 -168 160c0 49 17 95 51 136c33 41 84 68 151 83v2c-53 15 -80 46 -80 93c0 56 36 111 104 131v2h-98l25 101h415l-25 -101h-97
c-139 0 -195 -62 -195 -122c0 -47 40 -73 105 -73h99l-25 -100h-95c-134 0 -183 -64 -183 -121c0 -47 29 -68 113 -84c43 -8 73 -23 91 -44z" />
    <glyph glyph-name="omicron" unicode="&#x3bf;" horiz-adv-x="590" 
d="M557 300c2 -142 -112 -320 -301 -316c-144 0 -223 83 -223 224c-2 141 112 321 299 316c145 0 225 -83 225 -224zM177 209c0 -37 8 -66 23 -86c15 -21 38 -31 68 -31c94 -3 145 122 144 207c0 75 -31 117 -91 117c-95 3 -145 -122 -144 -207z" />
    <glyph glyph-name="pi" unicode="&#x3c0;" horiz-adv-x="672" 
d="M717 508l-26 -104h-100l-53 -215c-5 -19 -8 -34 -8 -45c0 -35 15 -47 50 -47c6 0 13 1 21 2l-26 -100c-16 -5 -34 -7 -55 -7c-92 0 -135 33 -135 117c0 21 4 47 12 77l54 218h-172l-100 -404h-140l100 404h-93l26 104h645z" />
    <glyph glyph-name="rho" unicode="&#x3c1;" horiz-adv-x="602" 
d="M569 300c0 -47 -11 -95 -33 -143c-22 -49 -54 -89 -96 -121c-43 -32 -93 -48 -152 -48c-61 0 -105 23 -133 70h-2l-60 -243h-140l117 470c32 125 126 239 274 239c145 0 225 -83 225 -224zM205 303c-11 -32 -16 -62 -16 -91c0 -37 8 -66 23 -86c15 -21 38 -31 68 -31
c94 -3 145 121 144 204c0 75 -31 117 -91 117c-63 0 -107 -50 -128 -113z" />
    <glyph glyph-name="sigma1" unicode="&#x3c2;" horiz-adv-x="552" 
d="M544 338c0 -13 -1 -28 -3 -43h-145c2 10 3 19 3 27c0 59 -28 95 -84 95c-82 3 -136 -106 -135 -174c0 -65 33 -102 102 -117c96 -20 132 -61 132 -130c0 -49 -15 -96 -46 -141h-119c21 29 33 66 33 90c0 36 -23 57 -84 66c-113 17 -169 82 -169 197
c-2 144 109 320 302 316c143 0 213 -69 213 -186z" />
    <glyph glyph-name="sigma" unicode="&#x3c3;" horiz-adv-x="616" 
d="M669 508l-25 -101h-147v-2c33 -33 49 -76 49 -129c2 -131 -107 -297 -290 -292c-144 0 -225 81 -225 220c-2 137 110 308 297 304h341zM191 292c-11 -31 -16 -60 -16 -88c0 -71 32 -112 92 -112c95 -3 144 115 143 196c0 71 -32 112 -92 112c-63 0 -107 -48 -127 -108z
" />
    <glyph glyph-name="tau" unicode="&#x3c4;" horiz-adv-x="468" 
d="M72 508h450l-25 -101h-161l-54 -218c-5 -19 -8 -34 -8 -45c0 -35 15 -47 50 -47c6 0 13 1 21 2l-26 -100c-16 -5 -34 -7 -55 -7c-92 0 -135 33 -135 117c0 21 4 47 12 77l55 221h-149z" />
    <glyph glyph-name="upsilon" unicode="&#x3c5;" horiz-adv-x="602" 
d="M566 508c4 -29 6 -59 6 -91c0 -73 -10 -143 -29 -208s-52 -119 -98 -161c-46 -43 -107 -64 -182 -64c-131 0 -199 54 -199 170c0 19 3 41 9 65l27 108c5 21 8 37 8 48c0 24 -11 32 -32 32c-9 0 -18 -1 -26 -3l26 103c23 6 46 9 69 9c73 0 109 -30 109 -109
c0 -18 -4 -42 -11 -71l-34 -135c-4 -16 -6 -30 -6 -42c0 -44 25 -66 75 -66c39 0 70 18 94 55c23 36 40 79 50 130c10 50 15 98 15 145c0 27 -2 55 -7 85h136z" />
    <glyph glyph-name="phi" unicode="&#x3c6;" horiz-adv-x="795" 
d="M761 287c2 -141 -118 -307 -345 -303h-19l-42 -169h-133l43 172c-147 16 -231 101 -231 234c-2 141 120 307 343 303h22l34 138h133l-35 -141c147 -17 230 -101 230 -234zM175 219c0 -77 39 -124 114 -133l85 338h-14c-127 -2 -185 -110 -185 -205zM506 422l-84 -338h12
c125 0 187 115 186 206c0 76 -38 123 -114 132z" />
    <glyph glyph-name="chi" unicode="&#x3c7;" horiz-adv-x="601" 
d="M493 508h168l-306 -358l36 -153c16 -67 38 -85 81 -85c11 0 22 1 32 3l-24 -100c-19 -5 -42 -8 -68 -8c-40 0 -70 10 -90 29c-20 20 -36 55 -47 104l-23 97h-2l-192 -222h-168l314 348l-39 165c-16 69 -37 88 -82 88c-12 0 -24 -2 -36 -5l25 100c21 7 45 10 70 10
c43 0 74 -10 94 -29s35 -54 45 -103l23 -110h2z" />
    <glyph glyph-name="psi" unicode="&#x3c8;" horiz-adv-x="823" 
d="M791 508c3 -27 4 -47 4 -62c0 -135 -29 -245 -86 -329s-154 -126 -289 -127l-44 -175h-140l44 178c-149 13 -223 81 -223 205c0 19 4 46 12 80l57 230h140l-60 -244c-5 -18 -7 -35 -7 -51c0 -68 36 -104 108 -115l140 564h140l-141 -567c141 8 211 126 211 353
c0 15 -1 35 -4 60h138z" />
    <glyph glyph-name="omega" unicode="&#x3c9;" horiz-adv-x="832" 
d="M774 508c13 -46 20 -94 20 -145c2 -171 -95 -382 -270 -377c-76 0 -125 36 -138 105h-2c-33 -69 -95 -105 -180 -105c-113 0 -169 54 -169 163c0 49 12 107 37 175s57 129 97 184h152c-41 -53 -74 -111 -99 -176c-26 -65 -39 -120 -39 -164c0 -51 20 -77 60 -77
c41 0 69 28 83 84l53 212h140l-49 -196c-3 -13 -5 -26 -5 -40c0 -40 18 -60 54 -60c94 -4 129 167 128 274c0 51 -8 98 -23 143h150z" />
    <glyph glyph-name="iotadieresis" unicode="&#x3ca;" horiz-adv-x="316" 
d="M38 119c0 22 4 51 13 87l75 302h140l-73 -293c-7 -25 -10 -45 -10 -59c0 -36 16 -51 55 -51c10 0 20 1 31 4l-28 -110c-16 -4 -36 -6 -59 -6c-99 0 -144 38 -144 126zM77 712h123l-30 -120h-123zM387 592h-123l30 120h123z" />
    <glyph glyph-name="upsilondieresis" unicode="&#x3cb;" horiz-adv-x="602" 
d="M543 209c-19 -65 -52 -119 -98 -161c-46 -43 -107 -64 -182 -64c-131 0 -199 54 -199 170c0 19 3 41 9 65l27 108c5 21 8 37 8 48c0 24 -11 32 -32 32c-9 0 -18 -1 -26 -3l26 103c23 6 46 9 69 9c73 0 109 -30 109 -109c0 -18 -4 -42 -11 -71l-34 -135
c-4 -16 -6 -30 -6 -42c0 -44 25 -66 75 -66c39 0 70 18 94 55c23 36 40 79 50 130c10 50 15 98 15 145c0 27 -2 55 -7 85h136c4 -29 6 -59 6 -91c0 -73 -10 -143 -29 -208zM430 712h123l-30 -120h-123zM183 592l30 120h123l-30 -120h-123z" />
    <glyph glyph-name="omicrontonos" unicode="&#x3cc;" horiz-adv-x="590" 
d="M522 154c-23 -49 -58 -89 -103 -121c-46 -33 -100 -49 -163 -49c-144 0 -223 83 -223 224c-2 141 112 321 299 316c145 0 225 -83 225 -224c0 -49 -12 -97 -35 -146zM200 123c15 -21 38 -31 68 -31c94 -3 145 122 144 207c0 75 -31 117 -91 117
c-95 3 -145 -122 -144 -207c0 -37 8 -66 23 -86zM376 732h137l-109 -164h-104z" />
    <glyph glyph-name="upsilontonos" unicode="&#x3cd;" horiz-adv-x="602" 
d="M572 417c0 -73 -10 -143 -29 -208s-52 -119 -98 -161c-46 -43 -107 -64 -182 -64c-131 0 -199 54 -199 170c0 19 3 41 9 65l27 108c5 21 8 37 8 48c0 24 -11 32 -32 32c-9 0 -18 -1 -26 -3l26 103c23 6 46 9 69 9c73 0 109 -30 109 -109c0 -18 -4 -42 -11 -71l-34 -135
c-4 -16 -6 -30 -6 -42c0 -44 25 -66 75 -66c39 0 70 18 94 55c23 36 40 79 50 130c10 50 15 98 15 145c0 27 -2 55 -7 85h136c4 -29 6 -59 6 -91zM370 732h137l-109 -164h-104z" />
    <glyph glyph-name="omegatonos" unicode="&#x3ce;" horiz-adv-x="832" 
d="M794 363c2 -171 -95 -382 -270 -377c-76 0 -125 36 -138 105h-2c-33 -69 -95 -105 -180 -105c-113 0 -169 54 -169 163c0 49 12 107 37 175s57 129 97 184h152c-41 -53 -74 -111 -99 -176c-26 -65 -39 -120 -39 -164c0 -51 20 -77 60 -77c41 0 69 28 83 84l53 212h140
l-49 -196c-3 -13 -5 -26 -5 -40c0 -40 18 -60 54 -60c94 -4 129 167 128 274c0 51 -8 98 -23 143h150c13 -46 20 -94 20 -145zM517 732h137l-109 -164h-104z" />
    <glyph glyph-name="uni0400" unicode="&#x400;" horiz-adv-x="633" 
d="M688 712l-31 -126h-345l-40 -161h322l-32 -125h-322l-43 -174h354l-31 -126h-501l177 712h492zM483 906l46 -146h-104l-109 146h167z" />
    <glyph glyph-name="afii10023" unicode="&#x401;" horiz-adv-x="633" 
d="M657 586h-345l-40 -161h322l-32 -125h-322l-43 -174h354l-31 -126h-501l177 712h492zM523 889h123l-30 -120h-123zM276 769l30 120h123l-30 -120h-123z" />
    <glyph glyph-name="afii10051" unicode="&#x402;" horiz-adv-x="802" 
d="M770 258c0 -45 -11 -89 -32 -130c-44 -84 -133 -141 -257 -141c-39 0 -72 5 -99 15l30 121c20 -7 44 -10 73 -10c97 0 138 67 138 124c0 66 -38 99 -113 99c-41 0 -79 -8 -114 -23l-78 -313h-147l146 586h-224l31 126h595l-31 -126h-224l-37 -149c40 17 84 25 132 25
c136 0 210 -77 211 -204z" />
    <glyph glyph-name="afii10052" unicode="&#x403;" horiz-adv-x="508" 
d="M196 712h416l-31 -126h-269l-146 -586h-147zM321 760l108 146h179l-171 -146h-116z" />
    <glyph glyph-name="afii10053" unicode="&#x404;" horiz-adv-x="709" 
d="M717 495c0 -16 -1 -31 -4 -44h-148c1 12 2 21 2 28c0 75 -46 119 -123 119c-100 0 -172 -74 -211 -179h248l-31 -126h-241v-11c0 -103 47 -168 135 -168c75 0 142 46 173 122h151c-25 -79 -68 -141 -127 -185c-59 -45 -129 -67 -210 -67c-87 0 -154 26 -202 78
c-48 51 -72 121 -72 210c0 71 15 142 46 213c30 70 75 128 136 174s133 69 218 69c159 0 260 -93 260 -233z" />
    <glyph glyph-name="afii10054" unicode="&#x405;" horiz-adv-x="630" 
d="M545 109c-47 -73 -141 -125 -266 -125c-167 0 -263 69 -263 194c0 19 2 37 7 56h152c-3 -11 -4 -23 -4 -36c0 -63 42 -95 125 -95c85 0 128 51 128 94c-5 59 -29 68 -120 102c-45 15 -80 30 -106 44c-27 14 -49 34 -66 60c-18 25 -27 59 -27 101c-2 104 109 227 290 224
c163 0 244 -60 244 -181c0 -15 -3 -33 -8 -53h-149c2 10 3 20 3 29c0 57 -37 88 -108 88c-67 0 -118 -37 -118 -86c0 -45 34 -67 129 -98c84 -28 134 -52 167 -104c17 -27 25 -61 25 -104c0 -37 -12 -74 -35 -110z" />
    <glyph glyph-name="afii10055" unicode="&#x406;" horiz-adv-x="311" 
d="M196 712h147l-177 -712h-147z" />
    <glyph glyph-name="afii10056" unicode="&#x407;" horiz-adv-x="311" 
d="M196 712h147l-177 -712h-147zM331 769l30 120h123l-30 -120h-123zM144 889h123l-30 -120h-123z" />
    <glyph glyph-name="afii10057" unicode="&#x408;" horiz-adv-x="392" 
d="M-17 126c15 -3 28 -5 40 -5c78 0 120 28 148 145l111 446h147l-125 -501c-37 -149 -123 -218 -279 -218c-27 0 -52 3 -73 10z" />
    <glyph glyph-name="afii10058" unicode="&#x409;" horiz-adv-x="1060" 
d="M1030 252c1 -117 -95 -255 -288 -252h-299l146 586h-200c-47 -167 -89 -292 -126 -376c-38 -84 -77 -141 -116 -171s-88 -45 -146 -45c-21 0 -38 3 -52 8l29 118c4 -1 10 -2 17 -2c33 0 62 15 87 44s52 85 82 168c29 83 68 210 115 382h488l-62 -252h72
c168 0 253 -76 253 -208zM621 122h121c47 0 81 12 103 35s33 51 33 82c0 66 -37 99 -112 99h-91z" />
    <glyph glyph-name="afii10059" unicode="&#x40a;" horiz-adv-x="1074" 
d="M1042 252c1 -117 -95 -255 -286 -252h-298l76 307h-292l-76 -307h-147l177 712h147l-69 -279h292l69 279h147l-63 -252h72c167 0 251 -77 251 -208zM689 338l-54 -216h121c47 0 81 12 103 35s33 51 33 82c0 66 -37 99 -112 99h-91z" />
    <glyph glyph-name="afii10060" unicode="&#x40b;" horiz-adv-x="801" 
d="M762 263c0 -19 -4 -46 -12 -80l-45 -183h-147l45 182c3 15 5 28 5 39c0 60 -36 91 -104 91c-39 0 -77 -6 -113 -18l-73 -294h-147l146 586h-224l31 126h595l-31 -126h-224l-42 -166c45 12 90 18 133 18c137 0 207 -60 207 -175z" />
    <glyph glyph-name="afii10061" unicode="&#x40c;" horiz-adv-x="663" 
d="M343 712l-75 -301h2l292 301h188l-357 -345l203 -367h-171l-171 348h-2l-86 -348h-147l177 712h147zM481 906h179l-171 -146h-116z" />
    <glyph glyph-name="uni040D" unicode="&#x40d;" horiz-adv-x="783" 
d="M647 583c-81 -125 -147 -223 -198 -294l-206 -289h-225l178 712h141l-69 -274c-22 -91 -50 -194 -85 -309h2c71 111 137 209 198 294l207 289h225l-178 -712h-141l68 274c22 86 50 189 85 309h-2zM557 906l46 -146h-104l-109 146h167z" />
    <glyph glyph-name="afii10062" unicode="&#x40e;" horiz-adv-x="682" 
d="M794 712l-420 -572c-80 -108 -156 -149 -248 -149c-33 0 -60 3 -79 9l30 122c10 -3 22 -5 37 -5c65 0 115 44 115 105c0 11 -1 23 -2 34c-2 11 -6 29 -13 56l-98 400h148l40 -205c15 -76 28 -145 38 -206h2c47 73 93 141 138 206l142 205h170zM309 906h83
c-1 -3 -1 -8 -1 -13c0 -32 24 -51 67 -51c48 0 83 24 94 64h107c-27 -96 -104 -151 -208 -151c-91 0 -144 46 -144 123c0 5 1 15 2 28z" />
    <glyph glyph-name="afii10145" unicode="&#x40f;" horiz-adv-x="740" 
d="M19 0l177 712h147l-146 -586h282l146 586h147l-177 -712h-223l-40 -160h-140l40 160h-213z" />
    <glyph glyph-name="afii10017" unicode="&#x410;" horiz-adv-x="698" 
d="M364 712h198l70 -712h-144l-12 174h-273l-99 -174h-164zM274 300h193l-3 47c-7 107 -11 199 -13 278h-2c-47 -93 -96 -186 -148 -278z" />
    <glyph glyph-name="afii10018" unicode="&#x411;" horiz-adv-x="665" 
d="M697 712l-30 -122h-354l-37 -147h107c149 0 234 -77 234 -206c2 -114 -95 -240 -274 -237h-324l177 712h501zM246 321l-50 -199h138c93 0 134 48 134 109c0 60 -38 90 -114 90h-108z" />
    <glyph glyph-name="afii10019" unicode="&#x412;" horiz-adv-x="650" 
d="M628 437c-26 -35 -69 -61 -129 -78v-2c72 -17 101 -62 101 -134c2 -108 -96 -226 -283 -223h-298l177 712h236c157 0 235 -59 235 -158c0 -43 -13 -82 -39 -117zM196 121h119c103 0 139 42 139 106c0 55 -32 76 -108 76h-105zM270 419h114c99 0 135 41 135 100
c0 51 -33 73 -105 73h-101z" />
    <glyph glyph-name="afii10020" unicode="&#x413;" horiz-adv-x="508" 
d="M166 0h-147l177 712h416l-31 -126h-269z" />
    <glyph glyph-name="afii10021" unicode="&#x414;" horiz-adv-x="794" 
d="M97 0l-40 -160h-140l71 286h85c32 43 64 107 97 193s72 217 119 393h515l-146 -586h90l-71 -286h-140l40 160h-480zM227 126h284l115 460h-227c-58 -209 -115 -363 -172 -460z" />
    <glyph glyph-name="afii10022" unicode="&#x415;" horiz-adv-x="633" 
d="M19 0l177 712h492l-31 -126h-345l-40 -161h322l-32 -125h-322l-43 -174h354l-31 -126h-501z" />
    <glyph glyph-name="afii10024" unicode="&#x416;" horiz-adv-x="918" 
d="M822 712h181l-306 -346l154 -366h-162l-129 364h-2l-90 -364h-144l86 348h-2l-281 -348h-186l340 382l-138 330h157l114 -341h2l85 341h144l-81 -325h2z" />
    <glyph glyph-name="afii10025" unicode="&#x417;" horiz-adv-x="636" 
d="M556 297c18 -25 27 -54 27 -89c2 -107 -104 -227 -299 -225c-172 0 -268 70 -268 199c0 17 2 33 6 50h154c-3 -17 -5 -30 -5 -41c0 -55 38 -83 115 -83c97 0 144 58 144 106c0 51 -45 80 -129 80h-46l30 121h41c117 0 172 56 172 110c0 48 -39 78 -103 78
c-73 0 -124 -39 -144 -119h-158c35 153 150 243 314 243c156 0 246 -70 246 -186c0 -83 -55 -150 -180 -186v-2c37 -13 64 -31 83 -56z" />
    <glyph glyph-name="afii10026" unicode="&#x418;" horiz-adv-x="783" 
d="M183 129h2c71 111 137 209 198 294l207 289h225l-178 -712h-141l68 274c22 86 50 189 85 309h-2c-81 -125 -147 -223 -198 -294l-206 -289h-225l178 712h141l-69 -274c-22 -91 -50 -194 -85 -309z" />
    <glyph glyph-name="afii10027" unicode="&#x419;" horiz-adv-x="783" 
d="M196 712h141l-69 -274c-22 -91 -50 -194 -85 -309h2c71 111 137 209 198 294l207 289h225l-178 -712h-141l68 274c22 86 50 189 85 309h-2c-81 -125 -147 -223 -198 -294l-206 -289h-225zM655 795c-37 -27 -81 -40 -133 -40c-91 0 -144 46 -144 123c0 5 1 15 2 28h83
c-1 -3 -1 -8 -1 -13c0 -32 24 -51 67 -51c48 0 83 24 94 64h107c-13 -48 -38 -85 -75 -111z" />
    <glyph glyph-name="afii10028" unicode="&#x41a;" horiz-adv-x="663" 
d="M19 0l177 712h147l-75 -301h2l292 301h188l-357 -345l203 -367h-171l-171 348h-2l-86 -348h-147z" />
    <glyph glyph-name="afii10029" unicode="&#x41b;" horiz-adv-x="735" 
d="M1 -6c-21 0 -38 3 -52 8l29 118c4 -1 10 -2 17 -2c33 0 62 15 87 44s52 85 82 168c29 83 68 210 115 382h488l-177 -712h-147l146 586h-200c-47 -167 -89 -292 -126 -376c-38 -84 -77 -141 -116 -171s-88 -45 -146 -45z" />
    <glyph glyph-name="afii10030" unicode="&#x41c;" horiz-adv-x="984" 
d="M857 621c-48 -93 -95 -180 -142 -262l-202 -359h-168l-24 359c-6 100 -9 187 -10 262h-2c-21 -99 -42 -188 -61 -267l-88 -354h-141l177 712h227l22 -327c6 -105 9 -193 8 -262h2c43 95 87 182 132 262l184 327h245l-177 -712h-141l88 354c23 95 48 184 73 267h-2z" />
    <glyph glyph-name="afii10031" unicode="&#x41d;" horiz-adv-x="750" 
d="M19 0l177 712h147l-69 -279h292l69 279h147l-177 -712h-147l76 307h-292l-76 -307h-147z" />
    <glyph glyph-name="afii10032" unicode="&#x41e;" horiz-adv-x="748" 
d="M738 424c2 -205 -142 -446 -388 -440c-91 0 -162 27 -213 82c-51 54 -76 128 -76 222c0 70 15 139 45 207c29 68 73 124 132 168c58 43 128 65 210 65c183 0 290 -118 290 -304zM209 289c0 -109 54 -175 147 -175c146 -5 235 174 234 310c0 108 -53 174 -148 174
c-147 5 -235 -172 -233 -309z" />
    <glyph glyph-name="afii10033" unicode="&#x41f;" horiz-adv-x="739" 
d="M196 712h575l-177 -712h-146l146 586h-282l-146 -586h-147z" />
    <glyph glyph-name="afii10034" unicode="&#x420;" horiz-adv-x="636" 
d="M166 0h-147l177 712h219c168 0 252 -76 252 -208c1 -117 -92 -255 -286 -252h-152zM381 374c47 0 81 12 103 35s33 51 33 82c0 66 -37 99 -112 99h-92l-54 -216h122z" />
    <glyph glyph-name="afii10035" unicode="&#x421;" horiz-adv-x="702" 
d="M705 451h-148c1 12 2 21 2 28c0 75 -44 119 -119 119c-145 5 -232 -178 -230 -316c0 -103 45 -168 130 -168c73 0 140 46 169 122h151c-25 -79 -66 -141 -125 -185c-59 -45 -129 -67 -208 -67c-85 0 -151 26 -198 78c-47 51 -71 121 -71 210c0 71 15 142 45 213
c30 70 75 128 135 174c59 46 131 69 215 69c157 0 256 -93 256 -233c0 -16 -1 -31 -4 -44z" />
    <glyph glyph-name="afii10036" unicode="&#x422;" horiz-adv-x="615" 
d="M93 586l31 126h595l-31 -126h-224l-146 -586h-147l146 586h-224z" />
    <glyph glyph-name="afii10037" unicode="&#x423;" horiz-adv-x="682" 
d="M624 712h170l-420 -572c-80 -108 -156 -149 -248 -149c-33 0 -60 3 -79 9l30 122c10 -3 22 -5 37 -5c65 0 115 44 115 105c0 11 -1 23 -2 34c-2 11 -6 29 -13 56l-98 400h148l40 -205c15 -76 28 -145 38 -206h2c47 73 93 141 138 206z" />
    <glyph glyph-name="afii10038" unicode="&#x424;" horiz-adv-x="862" 
d="M848 387c2 -164 -131 -340 -397 -337l-19 -76h-143l21 81c-161 23 -246 115 -246 271c-2 160 129 339 397 336l19 76h143l-20 -81c159 -23 245 -117 245 -270zM237 424c-15 -31 -23 -62 -23 -93c0 -84 43 -139 126 -155l90 364c-97 -7 -162 -55 -193 -116zM482 172
c146 8 218 118 216 208c0 85 -45 140 -125 156z" />
    <glyph glyph-name="afii10039" unicode="&#x425;" horiz-adv-x="630" 
d="M259 369l-131 343h153l77 -239h2l187 239h183l-305 -357l139 -355h-156l-83 245h-2l-197 -245h-186z" />
    <glyph glyph-name="afii10040" unicode="&#x426;" horiz-adv-x="770" 
d="M19 0l177 712h147l-146 -586h282l146 586h147l-146 -586h90l-71 -286h-140l40 160h-526z" />
    <glyph glyph-name="afii10041" unicode="&#x427;" horiz-adv-x="679" 
d="M95 502l52 210h147l-52 -209c-3 -11 -5 -24 -5 -39c0 -59 41 -91 118 -91c45 0 88 6 129 18l80 321h147l-177 -712h-147l66 265c-51 -12 -101 -18 -149 -18c-147 0 -221 60 -221 175c0 19 4 46 12 80z" />
    <glyph glyph-name="afii10042" unicode="&#x428;" horiz-adv-x="1028" 
d="M19 0l177 712h147l-146 -586h212l146 586h147l-146 -586h212l146 586h146l-177 -712h-864z" />
    <glyph glyph-name="afii10043" unicode="&#x429;" horiz-adv-x="1050" 
d="M196 712h147l-146 -586h212l146 586h147l-146 -586h212l146 586h146l-146 -586h90l-71 -286h-140l40 160h-814z" />
    <glyph glyph-name="afii10044" unicode="&#x42a;" horiz-adv-x="757" 
d="M725 252c1 -117 -95 -255 -286 -252h-298l146 586h-194l31 126h341l-63 -252h72c167 0 251 -76 251 -208zM372 338l-54 -216h121c47 0 81 12 103 35s33 51 33 82c0 66 -37 99 -112 99h-91z" />
    <glyph glyph-name="afii10045" unicode="&#x42b;" horiz-adv-x="946" 
d="M196 712h147l-63 -252h72c167 0 251 -76 251 -208c1 -117 -92 -255 -286 -252h-298zM978 712l-177 -712h-147l177 712h147zM317 122c47 0 81 12 103 35s33 51 33 82c0 66 -37 99 -112 99h-91l-54 -216h121z" />
    <glyph glyph-name="afii10046" unicode="&#x42c;" horiz-adv-x="635" 
d="M196 712h147l-63 -252h72c167 0 251 -76 251 -208c1 -117 -92 -255 -286 -252h-298zM196 122h121c47 0 81 12 103 35s33 51 33 82c0 66 -37 99 -112 99h-91z" />
    <glyph glyph-name="afii10047" unicode="&#x42d;" horiz-adv-x="710" 
d="M704 440c0 -71 -15 -142 -45 -212c-31 -71 -76 -129 -137 -175s-133 -69 -218 -69c-161 0 -263 93 -263 233c0 16 1 31 4 44h148c-1 -12 -2 -21 -2 -28c0 -75 47 -119 126 -119c100 0 172 74 211 179h-248l31 126h241v11c0 103 -47 168 -135 168
c-73 0 -139 -46 -170 -122h-151c25 79 68 141 127 186c59 44 128 66 207 66c87 0 154 -26 202 -77c48 -52 72 -122 72 -211z" />
    <glyph glyph-name="afii10048" unicode="&#x42e;" horiz-adv-x="1035" 
d="M1026 428c0 -71 -15 -140 -44 -208c-29 -69 -73 -125 -130 -169c-58 -45 -127 -67 -206 -67c-87 0 -155 27 -203 81c-48 53 -72 126 -72 219v9h-132l-73 -293h-147l177 712h147l-73 -293h119c45 168 171 309 360 309c87 0 155 -27 204 -80c49 -54 73 -127 73 -220z
M519 286c0 -53 12 -95 36 -126c23 -31 57 -46 100 -46c139 -5 225 176 223 313c0 107 -50 171 -137 171c-139 5 -224 -174 -222 -312z" />
    <glyph glyph-name="afii10049" unicode="&#x42f;" horiz-adv-x="662" 
d="M694 712l-177 -712h-147l65 264h-93c-11 0 -27 1 -47 2l-189 -266h-168l232 309c-46 35 -69 88 -69 159c0 117 88 246 291 244h302zM247 471c0 -59 34 -90 114 -90h104l53 212h-132c-97 0 -139 -54 -139 -122z" />
    <glyph glyph-name="afii10065" unicode="&#x430;" horiz-adv-x="547" 
d="M497 299l-40 -160c-15 -60 -22 -106 -21 -139h-122c0 21 3 40 8 59h-2c-48 -47 -105 -71 -171 -71c-97 0 -152 52 -152 135c0 43 18 81 53 114c35 32 94 54 178 67c47 7 93 11 138 14l3 12c3 13 5 24 5 33c0 43 -27 63 -72 63c-49 0 -84 -29 -95 -77h-136
c11 51 38 93 80 126s95 49 160 49c130 0 195 -53 195 -158c0 -21 -3 -43 -9 -67zM159 103c11 -10 26 -15 47 -15c68 0 112 40 131 113l8 32c-39 -3 -74 -6 -105 -11c-65 -11 -98 -37 -98 -80c0 -17 6 -30 17 -39z" />
    <glyph glyph-name="afii10066" unicode="&#x431;" 
d="M649 728l-29 -117c-35 -9 -91 -16 -168 -20c-159 -9 -207 -49 -262 -166h2c39 46 95 69 166 69c125 0 200 -78 200 -207c2 -130 -113 -308 -304 -303c-141 0 -215 79 -215 228c0 33 5 69 15 110c74 286 181 365 398 382c94 7 160 15 197 24zM175 196
c0 -68 31 -104 91 -104c95 -3 146 116 145 195c0 68 -32 105 -93 105c-97 3 -144 -117 -143 -196z" />
    <glyph glyph-name="afii10067" unicode="&#x432;" horiz-adv-x="549" 
d="M526 389c0 -33 -9 -61 -28 -84s-50 -40 -91 -49v-2c51 -12 77 -46 77 -101c0 -76 -68 -153 -217 -153h-262l126 508h224c114 0 171 -40 171 -119zM193 215l-31 -124h95c63 0 90 32 90 68c0 37 -26 56 -79 56h-75zM214 299h86c64 0 89 29 89 64c0 36 -25 54 -75 54h-70z
" />
    <glyph glyph-name="afii10068" unicode="&#x433;" horiz-adv-x="441" 
d="M145 0h-140l126 508h363l-26 -104h-223z" />
    <glyph glyph-name="afii10069" unicode="&#x434;" horiz-adv-x="640" 
d="M35 104c26 30 52 74 77 133s55 149 91 271h422l-100 -404h70l-66 -264h-140l40 160h-344l-40 -160h-140l66 264h64zM193 104h192l74 300h-148c-41 -135 -81 -235 -118 -300z" />
    <glyph glyph-name="afii10070" unicode="&#x435;" horiz-adv-x="573" 
d="M531 225h-364c-3 -14 -4 -28 -4 -43c0 -68 37 -99 92 -99c51 0 93 30 108 71h143c-21 -49 -54 -89 -101 -121c-47 -33 -99 -49 -158 -49c-141 0 -216 80 -216 215c-2 144 110 330 297 325c140 0 215 -79 215 -207c0 -27 -4 -57 -12 -92zM189 313h222c1 11 2 18 2 22
c0 60 -37 90 -93 90s-104 -37 -131 -112z" />
    <glyph glyph-name="afii10072" unicode="&#x436;" horiz-adv-x="760" 
d="M652 508h163l-226 -242l120 -266h-158l-98 267h-2l-66 -267h-136l62 251h-2l-206 -251h-178l256 281l-110 227h143l101 -234h2l58 234h136l-54 -218h2z" />
    <glyph glyph-name="afii10073" unicode="&#x437;" horiz-adv-x="516" 
d="M499 386c0 -59 -40 -106 -135 -131v-2c57 -20 86 -55 86 -104c0 -81 -78 -165 -226 -165c-140 0 -216 52 -216 148c0 13 1 24 3 35h138c-2 -8 -3 -16 -3 -24c0 -37 26 -56 79 -56c56 0 90 31 90 66c0 34 -30 51 -89 51h-40l25 101h37c73 0 112 31 112 68
c0 31 -24 48 -65 48c-49 0 -80 -25 -94 -76h-138c27 112 115 179 246 179c120 0 190 -53 190 -138z" />
    <glyph glyph-name="afii10074" unicode="&#x438;" horiz-adv-x="678" 
d="M131 508h140l-47 -190c-14 -55 -33 -121 -57 -198h2c43 70 87 133 130 188l156 200h218l-126 -508h-140l47 189c13 55 32 122 57 199h-2c-39 -64 -83 -127 -130 -188l-156 -200h-218z" />
    <glyph glyph-name="afii10075" unicode="&#x439;" horiz-adv-x="678" 
d="M5 0l126 508h140l-47 -190c-14 -55 -33 -121 -57 -198h2c43 70 87 133 130 188l156 200h218l-126 -508h-140l47 189c13 55 32 122 57 199h-2c-39 -64 -83 -127 -130 -188l-156 -200h-218zM553 601c-37 -27 -81 -40 -133 -40c-91 0 -144 46 -144 123c0 5 1 15 2 28h83
c-1 -3 -1 -8 -1 -13c0 -32 24 -51 67 -51c48 0 83 24 94 64h107c-13 -48 -38 -85 -75 -111z" />
    <glyph glyph-name="afii10076" unicode="&#x43a;" horiz-adv-x="560" 
d="M5 0l126 508h140l-49 -199h2l193 199h178l-253 -245l148 -263h-153l-129 244h-2l-61 -244h-140z" />
    <glyph glyph-name="afii10077" unicode="&#x43b;" horiz-adv-x="574" 
d="M-5 -6c-21 0 -38 2 -52 7l24 98c7 -1 13 -2 19 -2c67 5 99 59 194 411h389l-126 -508h-140l100 404h-119c-31 -113 -60 -199 -89 -258s-58 -99 -89 -120s-68 -32 -111 -32z" />
    <glyph glyph-name="afii10078" unicode="&#x43c;" horiz-adv-x="834" 
d="M829 508l-126 -508h-130l58 233c13 54 30 115 50 183h-2c-35 -66 -69 -126 -102 -181l-140 -235h-166l-25 235c-6 60 -10 120 -12 181h-2c-13 -68 -27 -129 -40 -183l-58 -233h-129l126 508h210l22 -217c6 -61 10 -123 12 -186h2c25 63 56 125 92 186l130 217h230z" />
    <glyph glyph-name="afii10079" unicode="&#x43d;" horiz-adv-x="613" 
d="M5 0l126 508h140l-49 -198h197l49 198h140l-126 -508h-140l51 206h-197l-51 -206h-140z" />
    <glyph glyph-name="afii10080" unicode="&#x43e;" horiz-adv-x="590" 
d="M522 154c-23 -49 -58 -89 -103 -121c-46 -33 -100 -49 -163 -49c-144 0 -223 83 -223 224c-2 141 112 321 299 316c145 0 225 -83 225 -224c0 -49 -12 -97 -35 -146zM200 123c15 -21 38 -31 68 -31c94 -3 145 122 144 207c0 75 -31 117 -91 117
c-95 3 -145 -122 -144 -207c0 -37 8 -66 23 -86z" />
    <glyph glyph-name="afii10081" unicode="&#x43f;" horiz-adv-x="605" 
d="M145 0h-140l126 508h469l-126 -508h-140l100 404h-189z" />
    <glyph glyph-name="afii10082" unicode="&#x440;" horiz-adv-x="598" 
d="M536 170c-22 -53 -54 -96 -95 -131c-42 -35 -91 -52 -147 -52c-61 0 -110 29 -131 78h-2l-62 -250h-140l173 693h136l-12 -46h2c39 37 88 59 135 59c112 0 176 -74 176 -198c0 -50 -11 -101 -33 -153zM219 124c14 -20 34 -30 60 -30c88 -3 143 117 142 208
c0 71 -30 112 -82 112c-88 3 -143 -117 -142 -208c0 -35 7 -63 22 -82z" />
    <glyph glyph-name="afii10083" unicode="&#x441;" horiz-adv-x="562" 
d="M542 309h-146c1 7 2 13 2 19c0 55 -28 88 -76 88c-90 4 -147 -129 -146 -208c0 -73 29 -116 84 -116c49 0 94 37 111 97h147c-19 -62 -53 -112 -101 -149c-49 -37 -104 -56 -165 -56c-137 0 -219 83 -219 223c-2 140 108 322 297 317c67 0 119 -17 157 -51
c38 -35 57 -80 57 -137c0 -12 -1 -21 -2 -27z" />
    <glyph glyph-name="afii10084" unicode="&#x442;" horiz-adv-x="474" 
d="M204 404h-161l26 104h462l-26 -104h-161l-100 -404h-140z" />
    <glyph glyph-name="afii10085" unicode="&#x443;" horiz-adv-x="504" 
d="M574 508l-309 -511c-90 -144 -158 -186 -289 -188c-26 0 -50 3 -71 8l28 112c14 -5 31 -8 52 -8c71 0 117 47 117 110c0 11 -2 33 -5 64l-41 413h138l12 -170c5 -78 8 -149 7 -213h2c38 81 74 152 108 213l95 170h156z" />
    <glyph glyph-name="afii10086" unicode="&#x444;" horiz-adv-x="820" 
d="M28 183c0 49 11 100 32 153s52 97 93 132c40 35 87 53 142 53c43 0 77 -15 100 -46l59 237h140l-55 -220c33 19 66 29 100 29c97 0 153 -73 153 -196c0 -49 -11 -100 -32 -153s-52 -97 -93 -132s-89 -53 -144 -53c-40 0 -73 15 -98 44l-54 -216h-140l50 201
c-33 -19 -66 -29 -98 -29c-99 0 -155 73 -155 196zM626 207c11 31 16 61 16 89c0 75 -28 118 -77 118c-16 0 -33 -7 -51 -20l-67 -272c12 -19 31 -28 58 -28c57 0 100 49 121 113zM178 211c0 -75 26 -117 77 -117c16 0 33 7 51 21l67 270c-13 19 -33 29 -58 29
c-86 4 -138 -123 -137 -203z" />
    <glyph glyph-name="afii10087" unicode="&#x445;" horiz-adv-x="508" 
d="M175 267l-107 241h146l57 -143h2l117 143h176l-229 -253l114 -255h-148l-60 166h-2l-132 -166h-178z" />
    <glyph glyph-name="afii10088" unicode="&#x446;" horiz-adv-x="615" 
d="M5 0l126 508h140l-100 -404h189l100 404h140l-100 -404h70l-66 -264h-140l40 160h-399z" />
    <glyph glyph-name="afii10089" unicode="&#x447;" horiz-adv-x="580" 
d="M57 366l35 142h140l-36 -145c-2 -9 -3 -17 -3 -25c0 -44 28 -68 81 -68c27 0 54 4 82 11l57 227h140l-126 -508h-140l45 179c-35 -9 -73 -13 -115 -13c-111 0 -168 50 -168 146c0 15 3 33 8 54z" />
    <glyph glyph-name="afii10090" unicode="&#x448;" horiz-adv-x="854" 
d="M5 0l126 508h140l-100 -404h149l100 404h140l-100 -404h149l100 404h140l-126 -508h-718z" />
    <glyph glyph-name="afii10091" unicode="&#x449;" horiz-adv-x="864" 
d="M131 508h140l-100 -404h149l100 404h140l-100 -404h149l100 404h140l-100 -404h70l-66 -264h-140l40 160h-648z" />
    <glyph glyph-name="afii10092" unicode="&#x44a;" horiz-adv-x="625" 
d="M573 191c0 -31 -8 -61 -23 -90c-32 -59 -100 -101 -204 -101h-272l100 404h-131l26 104h271l-41 -164h72c133 0 202 -53 202 -153zM239 101h103c61 0 92 37 92 81c0 41 -26 61 -77 61h-83z" />
    <glyph glyph-name="afii10093" unicode="&#x44b;" horiz-adv-x="802" 
d="M131 508h140l-41 -164h72c133 0 202 -53 202 -153c0 -93 -69 -191 -227 -191h-272zM671 0h-140l126 508h140zM273 101c61 0 92 37 92 81c0 41 -26 61 -77 61h-83l-35 -142h103z" />
    <glyph glyph-name="afii10094" unicode="&#x44c;" horiz-adv-x="556" 
d="M131 508h140l-41 -164h72c133 0 202 -53 202 -153c0 -93 -69 -191 -227 -191h-272zM205 243l-35 -142h103c61 0 92 37 92 81c0 41 -26 61 -77 61h-83z" />
    <glyph glyph-name="afii10095" unicode="&#x44d;" horiz-adv-x="562" 
d="M529 301c0 -48 -11 -96 -34 -145s-56 -90 -101 -123s-99 -49 -162 -49c-67 0 -119 17 -157 52c-38 34 -57 79 -57 136c0 12 1 21 2 27h142c-1 -7 -2 -13 -2 -19c0 -57 30 -92 79 -92c61 0 109 52 133 121h-169l25 100h162c-3 71 -32 111 -87 111c-52 0 -97 -38 -116 -101
h-143c19 62 53 112 102 149c48 37 103 56 164 56c137 0 219 -83 219 -223z" />
    <glyph glyph-name="afii10096" unicode="&#x44e;" horiz-adv-x="846" 
d="M813 300c2 -142 -112 -320 -301 -316c-141 0 -220 81 -223 218h-94l-50 -202h-140l126 508h140l-50 -202h84c19 61 53 113 102 155s109 63 181 63c145 0 225 -83 225 -224zM449 301c-11 -32 -16 -63 -16 -92c0 -75 31 -117 91 -117c94 -3 145 122 144 207
c0 75 -31 117 -91 117c-63 0 -107 -51 -128 -115z" />
    <glyph glyph-name="afii10097" unicode="&#x44f;" horiz-adv-x="563" 
d="M558 508l-126 -508h-135l41 166h-72c-9 0 -23 1 -40 2l-127 -168h-154l168 208c-34 28 -51 69 -51 122c0 91 66 178 229 178h267zM219 384c-17 -14 -26 -32 -26 -53c0 -44 33 -66 99 -66h71l35 140h-95c-39 0 -67 -7 -84 -21z" />
    <glyph glyph-name="uni0450" unicode="&#x450;" horiz-adv-x="573" 
d="M531 225h-364c-3 -14 -4 -28 -4 -43c0 -68 37 -99 92 -99c51 0 93 30 108 71h143c-21 -49 -54 -89 -101 -121c-47 -33 -99 -49 -158 -49c-141 0 -216 80 -216 215c-2 144 110 330 297 325c140 0 215 -79 215 -207c0 -27 -4 -57 -12 -92zM411 313c1 11 2 18 2 22
c0 60 -37 90 -93 90s-104 -37 -131 -112h222zM215 712h167l47 -146h-104z" />
    <glyph glyph-name="afii10071" unicode="&#x451;" horiz-adv-x="573" 
d="M531 225h-364c-3 -14 -4 -28 -4 -43c0 -68 37 -99 92 -99c51 0 93 30 108 71h143c-21 -49 -54 -89 -101 -121c-47 -33 -99 -49 -158 -49c-141 0 -216 80 -216 215c-2 144 110 330 297 325c140 0 215 -79 215 -207c0 -27 -4 -57 -12 -92zM189 313h222c1 11 2 18 2 22
c0 60 -37 90 -93 90s-104 -37 -131 -112zM397 592l30 120h123l-30 -120h-123zM180 592l30 120h123l-30 -120h-123z" />
    <glyph glyph-name="afii10099" unicode="&#x452;" 
d="M544 316c0 -23 -3 -47 -10 -73l-67 -270c-28 -112 -105 -163 -206 -163c-29 0 -54 3 -75 9l25 100c7 -2 15 -3 23 -3c55 0 85 26 104 102l55 222c5 19 7 36 7 52c0 43 -22 64 -67 64c-60 0 -111 -49 -134 -138l-54 -218h-140l135 544h-74l22 88h74l20 80h140l-20 -80h212
l-22 -88h-212l-35 -137h2c43 39 90 59 142 59c97 0 155 -53 155 -150z" />
    <glyph glyph-name="afii10100" unicode="&#x453;" horiz-adv-x="441" 
d="M131 508h363l-26 -104h-223l-100 -404h-140zM344 712h179l-170 -146h-116z" />
    <glyph glyph-name="afii10101" unicode="&#x454;" horiz-adv-x="562" 
d="M544 336c0 -12 -1 -21 -2 -27h-142c1 7 2 13 2 19c0 57 -30 92 -79 92c-57 0 -103 -47 -130 -111h169l-25 -100h-165v-1c0 -76 31 -120 87 -120c52 0 97 38 116 101h143c-19 -62 -53 -112 -101 -149c-49 -37 -104 -56 -165 -56c-137 0 -219 83 -219 223
c-2 140 108 322 297 317c67 0 119 -17 157 -51c38 -35 57 -80 57 -137z" />
    <glyph glyph-name="afii10102" unicode="&#x455;" horiz-adv-x="524" 
d="M497 384c0 -10 -1 -21 -3 -32h-133c1 9 2 16 2 21c0 35 -23 53 -70 53c-51 0 -74 -23 -74 -50c0 -28 20 -41 92 -66c64 -21 100 -36 128 -75c13 -20 20 -46 20 -78c0 -89 -83 -173 -241 -173c-133 0 -209 49 -209 145c0 13 2 25 5 36h141c-2 -8 -3 -15 -3 -22
c0 -37 26 -58 78 -58c51 0 80 22 80 55c0 35 -25 48 -98 73c-61 21 -92 34 -116 71c-13 18 -19 43 -19 74c0 84 81 166 228 166c124 0 192 -48 192 -140z" />
    <glyph glyph-name="afii10103" unicode="&#x456;" horiz-adv-x="276" 
d="M5 0l126 508h140l-126 -508h-140zM292 592h-140l30 120h140z" />
    <glyph glyph-name="afii10104" unicode="&#x457;" horiz-adv-x="276" 
d="M131 508h140l-126 -508h-140zM247 592l30 120h123l-30 -120h-123zM104 712h123l-30 -120h-123z" />
    <glyph glyph-name="afii10105" unicode="&#x458;" horiz-adv-x="278" 
d="M-66 -190c-29 0 -54 3 -75 9l25 100c7 -2 15 -3 23 -3c55 0 85 26 104 102l122 490h140l-133 -535c-28 -112 -105 -163 -206 -163zM154 592l30 120h140l-30 -120h-140z" />
    <glyph glyph-name="afii10106" unicode="&#x459;" horiz-adv-x="854" 
d="M802 191c0 -31 -8 -61 -23 -90c-32 -59 -100 -101 -204 -101h-272l100 404h-119c-31 -113 -60 -199 -89 -258s-58 -99 -89 -120s-68 -32 -111 -32c-21 0 -38 2 -52 7l24 98c7 -1 13 -2 19 -2c67 5 99 59 194 411h389l-41 -164h72c133 0 202 -53 202 -153zM503 243
l-35 -142h103c61 0 92 37 92 81c0 41 -26 61 -77 61h-83z" />
    <glyph glyph-name="afii10107" unicode="&#x45a;" horiz-adv-x="893" 
d="M841 191c0 -31 -8 -61 -23 -90c-32 -59 -100 -101 -204 -101h-272l51 206h-197l-51 -206h-140l126 508h140l-49 -198h197l49 198h140l-41 -164h72c133 0 202 -53 202 -153zM542 243l-35 -142h103c61 0 92 37 92 81c0 41 -26 61 -77 61h-83z" />
    <glyph glyph-name="afii10108" unicode="&#x45b;" 
d="M544 316c0 -23 -3 -47 -10 -73l-60 -243h-140l59 240c5 19 7 36 7 52c0 43 -22 64 -67 64c-60 0 -111 -49 -134 -138l-54 -218h-140l135 544h-74l22 88h74l20 80h140l-20 -80h212l-22 -88h-212l-35 -137h2c43 39 90 59 142 59c97 0 155 -53 155 -150z" />
    <glyph glyph-name="afii10109" unicode="&#x45c;" horiz-adv-x="560" 
d="M145 0h-140l126 508h140l-49 -199h2l193 199h178l-253 -245l148 -263h-153l-129 244h-2zM381 712h179l-170 -146h-116z" />
    <glyph glyph-name="uni045D" unicode="&#x45d;" horiz-adv-x="678" 
d="M547 0h-140l47 189c13 55 32 122 57 199h-2c-39 -64 -83 -127 -130 -188l-156 -200h-218l126 508h140l-47 -190c-14 -55 -33 -121 -57 -198h2c43 70 87 133 130 188l156 200h218zM455 712l47 -146h-104l-110 146h167z" />
    <glyph glyph-name="afii10110" unicode="&#x45e;" horiz-adv-x="504" 
d="M-95 -183l28 112c14 -5 31 -8 52 -8c71 0 117 47 117 110c0 11 -2 33 -5 64l-41 413h138l12 -170c5 -78 8 -149 7 -213h2c38 81 74 152 108 213l95 170h156l-309 -511c-90 -144 -158 -186 -289 -188c-26 0 -50 3 -71 8zM446 601c-37 -27 -81 -40 -133 -40
c-91 0 -144 46 -144 123c0 5 1 15 2 28h83c-1 -3 -1 -8 -1 -13c0 -32 24 -51 67 -51c48 0 83 24 94 64h107c-13 -48 -38 -85 -75 -111z" />
    <glyph glyph-name="afii10193" unicode="&#x45f;" horiz-adv-x="605" 
d="M5 0l126 508h140l-100 -404h189l100 404h140l-126 -508h-167l-40 -160h-140l40 160h-162z" />
    <glyph glyph-name="afii10050" unicode="&#x490;" horiz-adv-x="508" 
d="M166 0h-147l177 712h276l35 138h140l-66 -264h-269z" />
    <glyph glyph-name="afii10098" unicode="&#x491;" horiz-adv-x="441" 
d="M145 0h-140l126 508h233l40 160h130l-66 -264h-223z" />
    <glyph glyph-name="uni0492" unicode="&#x492;" horiz-adv-x="508" 
d="M19 0l68 272h-65l27 106h64l83 334h416l-31 -126h-269l-52 -208h145l-27 -106h-144l-68 -272h-147z" />
    <glyph glyph-name="uni0493" unicode="&#x493;" horiz-adv-x="446" 
d="M-5 182l24 96h60l57 230h363l-26 -104h-223l-31 -126h126l-24 -96h-126l-45 -182h-140l45 182h-60z" />
    <glyph glyph-name="uni0496" unicode="&#x496;" horiz-adv-x="918" 
d="M822 712h181l-306 -346l101 -240h84l-71 -286h-140l40 160h-22l-129 364h-2l-90 -364h-144l86 348h-2l-281 -348h-186l340 382l-138 330h157l114 -341h2l85 341h144l-81 -325h2z" />
    <glyph glyph-name="uni0497" unicode="&#x497;" horiz-adv-x="760" 
d="M735 104l-66 -264h-140l40 160h-18l-98 267h-2l-66 -267h-136l62 251h-2l-206 -251h-178l256 281l-110 227h143l101 -234h2l58 234h136l-54 -218h2l193 218h163l-226 -242l73 -162h73z" />
    <glyph glyph-name="uni049A" unicode="&#x49a;" horiz-adv-x="663" 
d="M196 712h147l-75 -301h2l292 301h188l-357 -345l133 -241h101l-71 -286h-140l40 160h-31l-171 348h-2l-86 -348h-147z" />
    <glyph glyph-name="uni049B" unicode="&#x49b;" horiz-adv-x="560" 
d="M206 244l-61 -244h-140l126 508h140l-49 -199h2l193 199h178l-253 -245l89 -159h85l-66 -264h-140l40 160h-13l-129 244h-2z" />
    <glyph glyph-name="uni049C" unicode="&#x49c;" horiz-adv-x="737" 
d="M641 712h181l-306 -354l154 -358h-162l-112 307h-3l-38 -155h-110l38 155h-44l-76 -307h-144l177 712h144l-69 -279h44l38 155h110l-38 -155h3z" />
    <glyph glyph-name="uni049D" unicode="&#x49d;" horiz-adv-x="618" 
d="M508 508h163l-226 -247l120 -261h-158l-83 219h-4l-30 -119h-87l30 119h-38l-54 -219h-136l126 508h136l-46 -185h37l30 119h87l-30 -119h4z" />
    <glyph glyph-name="uni04A2" unicode="&#x4a2;" horiz-adv-x="780" 
d="M242 307l-76 -307h-147l177 712h147l-69 -279h292l69 279h147l-146 -586h90l-71 -286h-140l40 160h-97l76 307h-292z" />
    <glyph glyph-name="uni04A3" unicode="&#x4a3;" horiz-adv-x="623" 
d="M131 508h140l-49 -198h197l49 198h140l-100 -404h70l-66 -264h-140l40 160h-70l51 206h-197l-51 -206h-140z" />
    <glyph glyph-name="uni04AE" unicode="&#x4ae;" horiz-adv-x="638" 
d="M265 712l35 -134c15 -57 28 -118 39 -181h2c38 60 80 120 127 181l101 134h180l-351 -435l-69 -277h-147l69 277l-135 435h149z" />
    <glyph glyph-name="uni04AF" unicode="&#x4af;" horiz-adv-x="510" 
d="M118 -13l-62 521h135l15 -176c6 -75 9 -140 10 -196h2c31 69 65 134 102 196l103 176h157l-322 -521l-42 -172h-140z" />
    <glyph glyph-name="uni04B2" unicode="&#x4b2;" horiz-adv-x="630" 
d="M547 712h183l-305 -357l90 -229h80l-71 -286h-140l40 160h-16l-83 245h-2l-197 -245h-186l319 369l-131 343h153l77 -239h2z" />
    <glyph glyph-name="uni04B3" unicode="&#x4b3;" horiz-adv-x="508" 
d="M477 104l-66 -264h-140l40 160h-8l-60 166h-2l-132 -166h-178l244 267l-107 241h146l57 -143h2l117 143h176l-229 -253l68 -151h72z" />
    <glyph glyph-name="uni04B8" unicode="&#x4b8;" horiz-adv-x="679" 
d="M564 712h147l-177 -712h-147l66 265c-25 -5 -51 -10 -78 -14l-33 -131h-120l32 130c-113 12 -171 72 -171 172c0 19 4 46 12 80l52 210h147l-52 -209c-3 -11 -5 -24 -5 -39c0 -38 17 -65 51 -80l45 184h120l-48 -192c31 3 57 8 79 15z" />
    <glyph glyph-name="uni04B9" unicode="&#x4b9;" horiz-adv-x="558" 
d="M553 508l-126 -508h-140l45 179c-16 -4 -33 -7 -50 -9l-23 -91h-87l22 88c-96 5 -145 57 -145 145c0 15 3 33 8 54l35 142h140l-37 -149c-2 -9 -3 -18 -3 -25c0 -27 10 -45 30 -55l36 142h87l-37 -149l48 9l57 227h140z" />
    <glyph glyph-name="uni04BA" unicode="&#x4ba;" horiz-adv-x="679" 
d="M246 321l-80 -321h-147l177 712h147l-66 -265c51 12 101 18 149 18c147 0 221 -60 221 -175c0 -19 -4 -46 -12 -80l-52 -210h-147l52 209c3 12 5 25 5 39c0 59 -41 91 -118 91c-45 0 -88 -6 -129 -18z" />
    <glyph glyph-name="uni04BB" unicode="&#x4bb;" 
d="M322 712l-63 -251h2c43 39 90 59 142 59c97 0 155 -53 155 -150c0 -23 -3 -47 -10 -73l-74 -297h-140l73 294c5 19 7 36 7 52c0 43 -22 64 -67 64c-60 0 -111 -49 -134 -138l-68 -272h-140l177 712h140z" />
    <glyph glyph-name="uni04C0" unicode="&#x4c0;" horiz-adv-x="311" 
d="M196 712h147l-177 -712h-147z" />
    <glyph glyph-name="uni04CF" unicode="&#x4cf;" horiz-adv-x="276" 
d="M182 712h140l-177 -712h-140z" />
    <glyph glyph-name="uni04D8" unicode="&#x4d8;" horiz-adv-x="763" 
d="M709 231c-33 -71 -81 -129 -144 -176s-138 -71 -225 -71c-189 0 -288 107 -288 278c0 57 8 105 24 144h519c2 15 3 30 3 43c0 104 -62 152 -149 152c-81 0 -149 -43 -174 -106h-170c54 128 192 233 365 233c187 0 288 -106 288 -286c0 -70 -16 -140 -49 -211zM207 250
c0 -88 60 -136 151 -136s171 62 207 170h-356c-1 -16 -2 -27 -2 -34z" />
    <glyph glyph-name="afii10846" unicode="&#x4d9;" horiz-adv-x="573" 
d="M508 160c-23 -51 -57 -93 -102 -126s-99 -50 -161 -50c-140 0 -215 79 -215 207c0 35 5 68 15 97h362c2 14 3 27 3 38c0 68 -37 99 -92 99c-49 0 -91 -27 -107 -66h-143c21 47 54 87 101 118c46 31 98 47 157 47c141 0 216 -80 216 -215c0 -49 -11 -99 -34 -149zM186 106
c17 -15 39 -23 67 -23c57 0 105 40 132 117h-223c-1 -13 -2 -22 -2 -27c0 -30 9 -52 26 -67z" />
    <glyph glyph-name="uni04E8" unicode="&#x4e8;" horiz-adv-x="748" 
d="M704 586c23 -46 34 -100 34 -162c2 -205 -142 -446 -388 -440c-91 0 -162 27 -213 82c-51 54 -76 128 -76 222c0 70 15 139 45 207c29 68 73 124 132 168c58 43 128 65 210 65c121 0 211 -51 256 -142zM218 419h386v5c0 109 -61 182 -162 182c-54 0 -100 -18 -138 -53
s-67 -80 -86 -134zM195 289c0 -55 14 -100 43 -133c28 -33 67 -50 118 -50c53 0 99 18 138 53c38 35 67 80 86 134h-385v-4z" />
    <glyph glyph-name="uni04E9" unicode="&#x4e9;" horiz-adv-x="590" 
d="M557 300c2 -142 -112 -320 -301 -316c-144 0 -223 83 -223 224c-2 141 112 321 299 316c145 0 225 -83 225 -224zM184 299h236c0 76 -35 123 -99 123c-67 0 -113 -52 -137 -123zM405 209h-236c0 -76 35 -123 99 -123c67 0 112 51 137 123z" />
    <glyph glyph-name="Wgrave" unicode="&#x1e80;" horiz-adv-x="956" 
d="M1061 712l-326 -712h-191l4 282c1 97 5 198 14 305h-2c-37 -91 -83 -192 -138 -305l-136 -282h-191l28 712h137l-13 -259c-5 -95 -13 -198 -25 -308h2c36 84 83 187 142 308l126 259h186l-2 -259c-1 -105 -5 -207 -12 -308h2c32 83 75 186 129 308l115 259h151zM636 906
l46 -146h-104l-109 146h167z" />
    <glyph glyph-name="wgrave" unicode="&#x1e81;" horiz-adv-x="810" 
d="M868 508l-238 -508h-200l5 200c2 73 5 145 9 217h-2c-29 -77 -60 -149 -93 -217l-95 -200h-200l14 508h133l-11 -196c-5 -101 -10 -174 -15 -221h2c30 75 62 148 95 219l94 198h192l-4 -198c-1 -73 -4 -146 -9 -219h2c27 76 57 150 89 221l87 196h145zM515 712l47 -146
h-104l-110 146h167z" />
    <glyph glyph-name="Wacute" unicode="&#x1e82;" horiz-adv-x="956" 
d="M1061 712l-326 -712h-191l4 282c1 97 5 198 14 305h-2c-37 -91 -83 -192 -138 -305l-136 -282h-191l28 712h137l-13 -259c-5 -95 -13 -198 -25 -308h2c36 84 83 187 142 308l126 259h186l-2 -259c-1 -105 -5 -207 -12 -308h2c32 83 75 186 129 308l115 259h151zM620 906
h179l-171 -146h-116z" />
    <glyph glyph-name="wacute" unicode="&#x1e83;" horiz-adv-x="810" 
d="M868 508l-238 -508h-200l5 200c2 73 5 145 9 217h-2c-29 -77 -60 -149 -93 -217l-95 -200h-200l14 508h133l-11 -196c-5 -101 -10 -174 -15 -221h2c30 75 62 148 95 219l94 198h192l-4 -198c-1 -73 -4 -146 -9 -219h2c27 76 57 150 89 221l87 196h145zM499 712h179
l-170 -146h-116z" />
    <glyph glyph-name="Wdieresis" unicode="&#x1e84;" horiz-adv-x="956" 
d="M1061 712l-326 -712h-191l4 282c1 97 5 198 14 305h-2c-37 -91 -83 -192 -138 -305l-136 -282h-191l28 712h137l-13 -259c-5 -95 -13 -198 -25 -308h2c36 84 83 187 142 308l126 259h186l-2 -259c-1 -105 -5 -207 -12 -308h2c32 83 75 186 129 308l115 259h151zM646 769
l30 120h123l-30 -120h-123zM429 769l30 120h123l-30 -120h-123z" />
    <glyph glyph-name="wdieresis" unicode="&#x1e85;" horiz-adv-x="810" 
d="M868 508l-238 -508h-200l5 200c2 73 5 145 9 217h-2c-29 -77 -60 -149 -93 -217l-95 -200h-200l14 508h133l-11 -196c-5 -101 -10 -174 -15 -221h2c30 75 62 148 95 219l94 198h192l-4 -198c-1 -73 -4 -146 -9 -219h2c27 76 57 150 89 221l87 196h145zM530 592l30 120
h123l-30 -120h-123zM313 592l30 120h123l-30 -120h-123z" />
    <glyph glyph-name="uni1E9E" unicode="&#x1e9e;" horiz-adv-x="801" 
d="M748 221c0 -39 -10 -76 -31 -112c-43 -72 -127 -123 -247 -123c-139 0 -210 52 -210 153c0 16 2 34 6 53h141c-2 -10 -3 -18 -3 -25c0 -41 26 -61 79 -61c37 0 65 11 84 32s28 45 28 72c0 73 -59 112 -172 121l25 100l153 135c-24 25 -64 40 -112 40
c-120 0 -198 -66 -231 -194l-102 -412h-147l105 421c49 200 187 305 395 305c129 0 228 -55 276 -144l-185 -163c99 -35 148 -101 148 -198z" />
    <glyph glyph-name="Ygrave" unicode="&#x1ef2;" horiz-adv-x="638" 
d="M251 277l-135 435h149l35 -134c15 -57 28 -118 39 -181h2c38 60 80 120 127 181l101 134h180l-351 -435l-69 -277h-147zM458 906l46 -146h-104l-109 146h167z" />
    <glyph glyph-name="ygrave" unicode="&#x1ef3;" horiz-adv-x="504" 
d="M574 508l-309 -511c-90 -144 -158 -186 -289 -188c-26 0 -50 3 -71 8l28 112c14 -5 31 -8 52 -8c71 0 117 47 117 110c0 11 -2 33 -5 64l-41 413h138l12 -170c5 -78 8 -149 7 -213h2c38 81 74 152 108 213l95 170h156zM348 712l47 -146h-104l-110 146h167z" />
    <glyph glyph-name="uni2010" unicode="&#x2010;" horiz-adv-x="320" 
d="M26 237l27 110h260l-27 -110h-260z" />
    <glyph glyph-name="endash" unicode="&#x2013;" horiz-adv-x="500" 
d="M16 237l27 110h460l-27 -110h-460z" />
    <glyph glyph-name="emdash" unicode="&#x2014;" horiz-adv-x="1000" 
d="M16 237l27 110h960l-27 -110h-960z" />
    <glyph glyph-name="afii00208" unicode="&#x2015;" horiz-adv-x="1000" 
d="M-47 237l27 110h960l-27 -110h-960z" />
    <glyph glyph-name="underscoredbl" unicode="&#x2017;" horiz-adv-x="500" 
d="M406 -121h-500l18 71h500zM-130 -266l18 71h500l-18 -71h-500z" />
    <glyph glyph-name="quoteleft" unicode="&#x2018;" horiz-adv-x="254" 
d="M235 424h-131l35 142l100 146h71l-84 -146h44z" />
    <glyph glyph-name="quoteright" unicode="&#x2019;" horiz-adv-x="255" 
d="M172 424h-71l84 146h-44l35 142h131l-35 -142z" />
    <glyph glyph-name="quotesinglbase" unicode="&#x201a;" horiz-adv-x="254" 
d="M43 0h-44l35 142h131l-35 -142l-100 -146h-71z" />
    <glyph glyph-name="quotereversed" unicode="&#x201b;" horiz-adv-x="254" 
d="M235 424h-131l35 142l100 146h71l-84 -146h44z" />
    <glyph glyph-name="quotedblleft" unicode="&#x201c;" horiz-adv-x="436" 
d="M286 424l35 142l100 146h71l-84 -146h44l-35 -142h-131zM104 424l35 142l100 146h71l-84 -146h44l-35 -142h-131z" />
    <glyph glyph-name="quotedblright" unicode="&#x201d;" horiz-adv-x="436" 
d="M283 424l84 146h-44l35 142h131l-35 -142l-100 -146h-71zM185 570h-44l35 142h131l-35 -142l-100 -146h-71z" />
    <glyph glyph-name="quotedblbase" unicode="&#x201e;" horiz-adv-x="436" 
d="M141 -146l84 146h-44l35 142h131l-35 -142l-100 -146h-71zM43 0h-44l35 142h131l-35 -142l-100 -146h-71z" />
    <glyph glyph-name="dagger" unicode="&#x2020;" horiz-adv-x="564" 
d="M97 425l27 111h158l44 176h140l-44 -176h158l-27 -111h-158l-136 -545h-140l136 545h-158z" />
    <glyph glyph-name="daggerdbl" unicode="&#x2021;" horiz-adv-x="564" 
d="M580 536l-27 -111h-158l-65 -258h158l-27 -111h-158l-44 -176h-140l44 176h-158l27 111h158l65 258h-158l27 111h158l44 176h140l-44 -176h158z" />
    <glyph glyph-name="bullet" unicode="&#x2022;" horiz-adv-x="360" 
d="M40 356c0 78 64 140 140 140c78 0 140 -62 140 -140c0 -76 -62 -140 -140 -140c-76 0 -140 64 -140 140z" />
    <glyph glyph-name="ellipsis" unicode="&#x2026;" horiz-adv-x="898" 
d="M30 167h154l-41 -167h-154zM670 167h154l-41 -167h-154zM350 167h154l-41 -167h-154z" />
    <glyph glyph-name="perthousand" unicode="&#x2030;" horiz-adv-x="1091" 
d="M567 326c41 0 72 -10 93 -31s31 -52 31 -92c1 -102 -63 -222 -173 -219c-83 0 -126 43 -126 124c-2 100 64 221 175 218zM125 380c-21 21 -32 51 -32 92c-2 100 64 221 175 218c81 0 124 -43 124 -123c1 -101 -63 -222 -173 -219c-41 0 -73 11 -94 32zM740 108
c-2 100 64 221 175 218c81 0 124 -43 124 -123c1 -102 -63 -222 -173 -219c-83 0 -126 43 -126 124zM651 704h84l-603 -734h-84zM562 84c11 17 20 36 26 59c5 23 8 42 8 59c0 33 -11 49 -34 49c-48 3 -78 -95 -77 -143c0 -33 11 -49 34 -49c17 0 31 8 43 25zM842 167
c-6 -23 -9 -42 -9 -59c0 -33 11 -49 34 -49c50 -3 78 95 77 143c0 33 -11 49 -34 49c-32 0 -56 -39 -68 -84zM195 531c-6 -23 -9 -42 -9 -59c0 -33 11 -49 34 -49c50 -3 78 95 77 143c0 33 -11 49 -34 49c-32 0 -56 -39 -68 -84z" />
    <glyph glyph-name="minute" unicode="&#x2032;" horiz-adv-x="215" 
d="M165 439h-89l88 235h126z" />
    <glyph glyph-name="second" unicode="&#x2033;" horiz-adv-x="399" 
d="M260 439l88 235h126l-125 -235h-89zM164 674h126l-125 -235h-89z" />
    <glyph glyph-name="guilsinglleft" unicode="&#x2039;" horiz-adv-x="324" 
d="M114 54l-69 204l157 196h128l-159 -204l59 -196h-116z" />
    <glyph glyph-name="guilsinglright" unicode="&#x203a;" horiz-adv-x="324" 
d="M122 54h-128l159 204l-59 196h116l69 -204z" />
    <glyph glyph-name="exclamdbl" unicode="&#x203c;" horiz-adv-x="574" 
d="M94 198l97 514h170l-159 -514h-108zM441 712h170l-159 -514h-108zM305 132h154l-33 -132h-154zM209 132l-33 -132h-154l33 132h154z" />
    <glyph glyph-name="uni203D" unicode="&#x203d;" horiz-adv-x="547" 
d="M532 586c19 -27 29 -59 29 -98c0 -81 -38 -145 -150 -205c-37 -20 -63 -36 -76 -48c-14 -12 -24 -28 -29 -49h-119c21 98 29 108 140 178c35 21 59 40 71 55c11 15 17 33 17 53c0 40 -26 65 -77 65c-60 0 -97 -28 -114 -92h-146c31 121 105 192 216 209l11 58h162
l-21 -68c37 -12 66 -31 86 -58zM276 0h-154l33 132h154z" />
    <glyph glyph-name="uni203E" unicode="&#x203e;" horiz-adv-x="500" 
d="M131 778l22 91h500l-22 -91h-500z" />
    <glyph glyph-name="fraction" unicode="&#x2044;" horiz-adv-x="148" 
d="M-128 0h-91l537 674h91z" />
    <glyph glyph-name="uni2070" unicode="&#x2070;" horiz-adv-x="469" 
d="M520 631c0 -47 -9 -95 -28 -143s-48 -88 -85 -120c-38 -33 -84 -49 -137 -49c-109 0 -167 64 -167 181c-1 138 89 317 250 313c109 0 167 -65 167 -182zM241 587c-9 -35 -14 -66 -14 -91c0 -27 4 -47 13 -61c9 -15 21 -22 38 -22c74 -6 118 149 118 222
c0 53 -18 83 -51 83c-24 0 -45 -13 -63 -39s-32 -57 -41 -92z" />
    <glyph glyph-name="uni2074" unicode="&#x2074;" horiz-adv-x="450" 
d="M383 330h-121l24 97h-232l26 105l254 270h167l-71 -283h74l-22 -92h-75zM188 519h125l13 52c15 57 28 104 40 139h-2c-24 -27 -62 -68 -114 -125z" />
    <glyph glyph-name="uni2075" unicode="&#x2075;" horiz-adv-x="451" 
d="M526 802l-24 -99h-223l-31 -83h2c26 17 55 26 87 26c87 0 139 -53 139 -136c1 -84 -85 -194 -225 -191c-105 0 -167 43 -167 119c0 11 1 20 3 27h124c-1 -3 -1 -7 -1 -12c0 -25 21 -41 56 -41c55 0 83 44 83 89c0 36 -20 55 -55 55c-31 0 -57 -18 -69 -45l-119 7l98 284
h322z" />
    <glyph glyph-name="uni2076" unicode="&#x2076;" horiz-adv-x="448" 
d="M516 688c0 -9 0 -15 -1 -20h-123v8c0 29 -17 45 -46 45c-44 0 -84 -37 -108 -113h2c29 20 63 30 100 30c84 0 136 -54 136 -138c2 -81 -80 -184 -206 -181c-108 0 -168 60 -168 176c0 46 10 94 30 144c19 49 48 91 87 124c38 33 83 50 135 50c103 0 162 -46 162 -125z
M244 526c-15 -18 -22 -37 -22 -56c0 -35 19 -57 52 -57c23 0 41 8 56 25c14 17 21 35 21 54c0 37 -19 60 -51 60c-23 0 -42 -9 -56 -26z" />
    <glyph glyph-name="uni2077" unicode="&#x2077;" horiz-adv-x="400" 
d="M262 330h-142c33 73 72 143 117 208s89 119 132 161h-249l26 103h377l-23 -99c-93 -99 -181 -234 -238 -373z" />
    <glyph glyph-name="uni2078" unicode="&#x2078;" horiz-adv-x="450" 
d="M398 564c43 -15 70 -54 70 -102c0 -70 -70 -143 -206 -143c-111 0 -177 51 -177 136c0 59 48 115 128 128v2c-39 16 -61 50 -61 93c0 63 72 135 193 135c104 0 168 -49 168 -126c0 -56 -42 -108 -115 -121v-2zM209 463c0 -31 23 -51 62 -51c48 0 79 28 79 63
c0 32 -23 51 -63 51c-49 0 -78 -32 -78 -63zM263 663c0 -15 5 -26 15 -34c10 -9 24 -13 43 -13c45 0 73 29 73 58s-21 47 -57 47c-47 0 -74 -29 -74 -58z" />
    <glyph glyph-name="uni2079" unicode="&#x2079;" horiz-adv-x="448" 
d="M501 637c0 -46 -10 -94 -29 -143c-20 -50 -49 -92 -87 -125c-39 -33 -84 -50 -136 -50c-103 0 -162 46 -162 125c0 9 0 15 1 20h123v-8c0 -29 17 -45 46 -45c44 0 84 37 108 113h-2c-29 -20 -62 -30 -100 -30c-84 0 -136 54 -136 138c-2 81 80 184 206 181
c108 0 168 -60 168 -176zM274 694c-15 -17 -22 -35 -22 -54s5 -33 14 -44s21 -16 37 -16c23 0 42 9 57 27c14 17 21 36 21 55c0 35 -19 57 -52 57c-23 0 -41 -8 -55 -25z" />
    <glyph glyph-name="uni207A" unicode="&#x207a;" horiz-adv-x="413" 
d="M159 505h-114v93h114v111h95v-111h114v-93h-114v-111h-95v111z" />
    <glyph glyph-name="uni207B" unicode="&#x207b;" horiz-adv-x="413" 
d="M45 505v93h323v-93h-323z" />
    <glyph glyph-name="uni207C" unicode="&#x207c;" horiz-adv-x="413" 
d="M45 668h323v-89h-323v89zM45 435v89h323v-89h-323z" />
    <glyph glyph-name="uni207D" unicode="&#x207d;" horiz-adv-x="251" 
d="M90 442c0 67 16 135 47 206c31 70 77 137 140 201h101c-113 -152 -169 -303 -169 -452c0 -51 5 -108 14 -170h-93c-27 71 -40 143 -40 215z" />
    <glyph glyph-name="uni207E" unicode="&#x207e;" horiz-adv-x="251" 
d="M116 227h-101c113 152 169 303 169 452c0 51 -5 108 -14 170h93c27 -71 40 -143 40 -215c0 -133 -62 -279 -187 -407z" />
    <glyph glyph-name="uni2080" unicode="&#x2080;" horiz-adv-x="469" 
d="M367 -14c-19 -48 -48 -88 -85 -121c-38 -32 -84 -48 -137 -48c-109 0 -167 64 -167 181c-1 138 89 317 250 313c109 0 167 -65 167 -182c0 -47 -9 -95 -28 -143zM115 -68c9 -14 21 -21 38 -21c74 -5 118 150 118 222c0 53 -18 83 -51 83c-72 6 -119 -149 -118 -222
c0 -27 4 -47 13 -62z" />
    <glyph glyph-name="uni2081" unicode="&#x2081;" horiz-adv-x="316" 
d="M-21 129l22 89c84 0 129 25 153 82h111l-118 -472h-124l75 301h-119z" />
    <glyph glyph-name="uni2082" unicode="&#x2082;" horiz-adv-x="457" 
d="M350 87c-26 -29 -67 -55 -122 -79c-45 -19 -75 -35 -91 -46c-17 -11 -27 -22 -32 -35h235l-23 -99h-386c10 61 30 109 61 144c31 36 78 67 141 96c95 43 129 68 129 107c0 27 -17 41 -46 41c-38 0 -63 -23 -74 -69h-126c25 105 101 164 209 164c104 0 164 -50 164 -127
c0 -36 -13 -68 -39 -97z" />
    <glyph glyph-name="uni2083" unicode="&#x2083;" horiz-adv-x="452" 
d="M364 115c-18 -21 -46 -38 -85 -50v-1c43 -18 64 -49 64 -93c0 -74 -72 -154 -202 -154c-117 0 -181 45 -181 132c0 13 1 25 4 36h124c-2 -8 -3 -16 -3 -24c0 -33 20 -49 61 -49c45 0 75 30 75 59c0 32 -24 48 -73 48h-13l22 92h15c60 0 94 29 94 62c0 28 -18 43 -54 43
c-41 0 -68 -23 -79 -70h-123c24 104 103 165 212 165c107 0 168 -47 168 -123c0 -27 -9 -52 -26 -73z" />
    <glyph glyph-name="uni2084" unicode="&#x2084;" horiz-adv-x="449" 
d="M160 -75h-232l26 105l254 270h167l-71 -283h74l-22 -92h-75l-24 -97h-121zM187 17l13 52c15 57 28 104 40 139h-2c-24 -27 -62 -68 -114 -125l-62 -66h125z" />
    <glyph glyph-name="uni2085" unicode="&#x2085;" horiz-adv-x="451" 
d="M377 201h-223l-31 -83h2c26 17 55 26 87 26c87 0 139 -53 139 -136c1 -84 -85 -194 -225 -191c-105 0 -167 43 -167 119c0 11 1 20 3 27h124c-1 -3 -1 -7 -1 -12c0 -25 21 -41 56 -41c55 0 83 44 83 89c0 36 -20 55 -55 55c-31 0 -57 -18 -69 -45l-119 7l98 284h322z" />
    <glyph glyph-name="uni2086" unicode="&#x2086;" horiz-adv-x="447" 
d="M389 166h-123v8c0 29 -17 45 -46 45c-44 0 -84 -37 -108 -113h2c29 20 63 30 100 30c84 0 136 -54 136 -138c2 -81 -80 -184 -206 -181c-108 0 -168 60 -168 176c0 46 10 94 30 144c19 49 48 91 87 124c38 33 83 50 135 50c103 0 162 -46 162 -125c0 -9 0 -15 -1 -20z
M96 -32c0 -35 19 -57 52 -57c23 0 41 8 56 25c14 17 21 35 21 54c0 37 -19 60 -51 60c-23 0 -42 -9 -56 -26c-15 -18 -22 -37 -22 -56z" />
    <glyph glyph-name="uni2087" unicode="&#x2087;" horiz-adv-x="400" 
d="M-5 197l26 103h377l-23 -99c-93 -99 -181 -234 -238 -373h-142c33 73 72 143 117 208s89 119 132 161h-249z" />
    <glyph glyph-name="uni2088" unicode="&#x2088;" horiz-adv-x="450" 
d="M272 64v-2c43 -15 70 -54 70 -102c0 -70 -70 -143 -206 -143c-111 0 -177 51 -177 136c0 59 48 115 128 128v2c-39 16 -61 50 -61 93c0 63 72 135 193 135c104 0 168 -49 168 -126c0 -56 -42 -108 -115 -121zM83 -39c0 -31 23 -51 62 -51c48 0 79 28 79 63
c0 32 -23 51 -63 51c-49 0 -78 -32 -78 -63zM152 127c10 -9 24 -13 43 -13c45 0 73 29 73 58s-21 47 -57 47c-47 0 -74 -29 -74 -58c0 -15 5 -26 15 -34z" />
    <glyph glyph-name="uni2089" unicode="&#x2089;" horiz-adv-x="448" 
d="M347 -9c-20 -49 -49 -91 -87 -124c-39 -33 -84 -50 -136 -50c-103 0 -162 46 -162 125c0 9 0 15 1 20h123v-8c0 -29 17 -45 46 -45c44 0 84 37 108 113h-2c-29 -20 -62 -30 -100 -30c-84 0 -136 54 -136 138c-2 81 80 184 206 181c108 0 168 -60 168 -176
c0 -46 -10 -94 -29 -144zM141 94c9 -11 21 -16 37 -16c23 0 42 9 57 27c14 17 21 36 21 55c0 35 -19 57 -52 57c-23 0 -41 -8 -55 -25c-15 -17 -22 -35 -22 -54s5 -33 14 -44z" />
    <glyph glyph-name="uni208A" unicode="&#x208a;" horiz-adv-x="413" 
d="M45 96h114v111h95v-111h114v-93h-114v-111h-95v111h-114v93z" />
    <glyph glyph-name="uni208B" unicode="&#x208b;" horiz-adv-x="413" 
d="M368 96v-93h-323v93h323z" />
    <glyph glyph-name="uni208C" unicode="&#x208c;" horiz-adv-x="413" 
d="M45 -67v89h323v-89h-323zM45 77v89h323v-89h-323z" />
    <glyph glyph-name="uni208D" unicode="&#x208d;" horiz-adv-x="251" 
d="M12 146c31 70 77 137 140 201h101c-113 -152 -169 -303 -169 -452c0 -51 5 -108 14 -170h-93c-27 71 -40 143 -40 215c0 67 16 135 47 206z" />
    <glyph glyph-name="uni208E" unicode="&#x208e;" horiz-adv-x="251" 
d="M-111 -275c113 152 169 303 169 452c0 51 -5 108 -14 170h93c27 -71 40 -143 40 -215c0 -133 -62 -279 -187 -407h-101z" />
    <glyph glyph-name="uni2099" unicode="&#x2099;" horiz-adv-x="445" 
d="M107 11l-46 -183h-120l89 356h112l-10 -37h2c32 31 68 46 107 46c72 0 113 -38 113 -106c0 -16 -2 -33 -7 -51l-52 -208h-120l51 204c3 11 4 21 4 31c0 25 -13 37 -40 37c-37 0 -68 -30 -83 -89z" />
    <glyph glyph-name="franc" unicode="&#x20a3;" 
d="M678 674l-31 -126h-324l-32 -126h299l-31 -126h-299l-23 -92h164l-27 -107h-164l-24 -97h-147l24 97h-78l27 107h78l117 470h471z" />
    <glyph glyph-name="lira" unicode="&#x20a4;" 
d="M626 473h-140c2 10 3 19 3 28c0 45 -24 69 -68 69c-54 0 -90 -36 -108 -107l-12 -48h122l-17 -70h-122l-10 -40h122l-17 -70h-123c-17 -61 -43 -94 -91 -117v-2h366l-29 -116h-541l29 118c57 0 96 33 119 117h-89l17 70h90l10 40h-90l17 70h91l18 74
c33 135 123 201 262 201c125 0 197 -62 197 -167c0 -15 -2 -32 -6 -50z" />
    <glyph glyph-name="peseta" unicode="&#x20a7;" horiz-adv-x="895" 
d="M831 508h97l-26 -104h-97l-53 -213c-3 -15 -5 -27 -5 -36c0 -36 15 -50 54 -50c10 0 21 1 33 4l-28 -109c-17 -5 -35 -7 -55 -7c-103 0 -149 38 -149 127c0 20 4 45 11 74l52 210h-46c-15 -53 -45 -98 -92 -135s-109 -55 -186 -55h-122l-53 -214h-147l167 674h189
c148 0 232 -61 249 -166h67l33 132h140zM249 336h92c47 0 81 12 103 35s33 51 33 82c0 66 -37 99 -112 99h-62z" />
    <glyph glyph-name="Euro" unicode="&#x20ac;" 
d="M636 467h-138v12c0 59 -31 92 -90 92c-73 0 -130 -61 -166 -148h221l-30 -70h-212c-3 -9 -5 -23 -8 -40h202l-31 -70h-175c4 -92 38 -140 99 -140c56 0 103 40 126 107h141c-21 -70 -56 -125 -106 -165c-51 -41 -109 -61 -174 -61c-145 0 -222 90 -226 259h-71l31 70h44
c1 14 3 27 6 40h-53l30 70h42c26 77 67 141 122 192c55 50 123 75 204 75c137 0 215 -70 215 -187c0 -11 -1 -23 -3 -36z" />
    <glyph glyph-name="uni20B9" unicode="&#x20b9;" 
d="M678 674l-46 -86h-167v-2c29 -13 46 -35 52 -66h122l-45 -86h-86c-25 -65 -95 -118 -207 -135v-2c47 -16 73 -50 92 -118l48 -179h-158l-40 170c-17 73 -53 103 -117 103h-16l23 93h57c77 0 129 28 154 68h-271l45 86h236c-13 45 -53 68 -120 68h-123l46 86h521z" />
    <glyph glyph-name="uni20BA" unicode="&#x20ba;" 
d="M512 651l-22 -90l-189 -90l-16 -67l188 90l-22 -90l-189 -90l-48 -193c127 0 208 69 233 201h152c-40 -216 -183 -330 -404 -330c-50 0 -102 4 -157 12l60 242l-99 -48l22 90l100 48l16 67l-99 -48l22 90l100 48l45 181h147l-28 -113z" />
    <glyph glyph-name="uni20BC" unicode="&#x20bc;" horiz-adv-x="716" 
d="M697 389c0 -35 -5 -73 -16 -115l-68 -274h-132l69 278c9 34 13 65 13 92c0 71 -25 109 -80 120l-122 -490h-132l122 493c-46 -3 -81 -19 -105 -46s-44 -72 -59 -133l-78 -314h-132l84 338c24 95 61 166 112 211c50 45 120 68 210 71l23 92h132l-24 -97
c124 -19 183 -91 183 -226z" />
    <glyph glyph-name="uni20BD" unicode="&#x20bd;" 
d="M630 484c0 -36 -9 -72 -27 -107c-37 -71 -116 -122 -231 -122h-137l-13 -54h181l-27 -106h-181l-23 -95h-147l23 95h-79l27 106h79l13 54h-79l28 112h79l77 307h209c152 0 228 -70 228 -190zM263 367h96c84 0 120 48 120 105c0 60 -33 90 -99 90h-68z" />
    <glyph glyph-name="afii61248" unicode="&#x2105;" horiz-adv-x="951" 
d="M688 -16c-111 0 -175 61 -175 164c-2 98 80 217 217 214c112 0 176 -61 176 -164c2 -98 -82 -217 -218 -214zM110 574c33 67 102 116 195 116c103 0 165 -53 165 -137c0 -4 -1 -10 -2 -18h-125c1 4 2 8 2 13c0 33 -17 51 -48 51c-56 0 -89 -79 -89 -129
c0 -44 18 -68 50 -68c29 0 55 22 66 58h125c-28 -91 -104 -148 -199 -148c-104 0 -166 61 -166 161c0 33 9 67 26 101zM800 674l-537 -674h-91l537 674h91zM647 201c-7 -19 -10 -38 -10 -56c0 -47 19 -71 56 -71c59 0 88 73 88 126c0 47 -19 71 -56 71
c-39 0 -66 -31 -78 -70z" />
    <glyph glyph-name="afii61289" unicode="&#x2113;" horiz-adv-x="450" 
d="M458 535c0 -44 -9 -88 -27 -133c-37 -91 -113 -168 -220 -200l-5 -18c-4 -14 -6 -27 -6 -39c0 -37 18 -56 55 -56c15 0 30 2 44 6l-25 -99c-20 -4 -42 -6 -65 -6c-103 0 -151 42 -151 131c0 20 3 42 10 66c-21 3 -37 5 -48 7l19 75c13 -3 29 -5 47 -6l58 232
c19 73 43 123 72 152s67 43 116 43c77 0 126 -48 126 -155zM234 296c46 25 81 61 106 107c25 45 37 90 37 134c0 43 -10 64 -31 64c-25 0 -42 -21 -58 -88z" />
    <glyph glyph-name="afii61352" unicode="&#x2116;" horiz-adv-x="1183" 
d="M19 0l177 712h197l72 -289c18 -75 40 -173 66 -294h2c18 103 40 206 66 309l68 274h141l-177 -712h-197l-72 289c-25 103 -47 201 -66 294h-2c-22 -118 -44 -221 -66 -309l-68 -274h-141zM1183 358c-17 -33 -42 -61 -75 -82c-33 -22 -73 -33 -118 -33
c-111 0 -175 61 -175 164c-2 98 80 217 217 214c112 0 176 -61 176 -164c0 -33 -8 -66 -25 -99zM1124 194l-26 -105h-351l26 105h351zM1044 354c13 13 23 30 30 49c6 19 9 38 9 56c0 47 -19 71 -56 71c-59 0 -88 -73 -88 -126c0 -47 19 -71 56 -71c19 0 36 7 49 21z" />
    <glyph glyph-name="uni2117" unicode="&#x2117;" horiz-adv-x="802" 
d="M716 162c-60 -112 -172 -176 -315 -176c-213 -3 -362 151 -360 370c-2 219 147 373 360 370c213 3 362 -151 360 -370c0 -73 -15 -138 -45 -194zM670 191c25 47 38 102 38 165s-13 118 -38 165c-52 95 -148 150 -269 150c-183 0 -306 -127 -306 -315s123 -315 306 -315
c121 0 217 55 269 150zM563 538c29 -27 43 -63 43 -109c0 -92 -58 -148 -170 -148h-84v-155h-94v451h178c56 0 98 -13 127 -39zM352 499v-139h71c57 0 86 23 86 69c0 44 -27 70 -86 70h-71z" />
    <glyph glyph-name="trademark" unicode="&#x2122;" horiz-adv-x="829" 
d="M902 712l-89 -356h-90l41 163c7 29 19 72 35 129h-2l-17 -36c-19 -41 -33 -71 -44 -91l-83 -165h-114l2 292h-2c-7 -38 -17 -81 -29 -129l-41 -163h-90l89 356h148l1 -141c0 -51 -2 -95 -5 -131h2c18 43 38 87 61 131l71 141h156zM98 629l21 83h311l-21 -83h-106
l-68 -273h-99l68 273h-106z" />
    <glyph glyph-name="uni2126" unicode="&#x2126;" horiz-adv-x="734" 
d="M679 296c-35 -58 -87 -115 -156 -170v-2h148l-31 -124h-294l32 130c127 99 193 206 193 318c0 97 -52 150 -136 150c-138 4 -222 -145 -221 -268c0 -76 23 -136 64 -200l-32 -130h-278l31 124h152v2c-51 73 -80 145 -80 232c-2 174 139 374 384 370
c172 0 276 -83 276 -242c0 -69 -17 -133 -52 -190z" />
    <glyph glyph-name="estimated" unicode="&#x212e;" horiz-adv-x="863" 
d="M671 123h69c-27 -37 -66 -69 -118 -95c-52 -27 -115 -40 -190 -40c-227 -2 -388 149 -385 349c-3 199 151 356 385 353c236 4 385 -168 383 -362h-612c-8 0 -14 -6 -14 -13v-167c0 -21 4 -32 16 -44c62 -61 138 -91 227 -91c96 0 186 45 239 110zM189 529v-167
c0 -7 6 -12 14 -12h456c8 0 13 5 13 12v167c0 20 -3 30 -15 41c-63 63 -138 94 -225 94c-89 0 -164 -31 -227 -94c-12 -11 -16 -21 -16 -41z" />
    <glyph glyph-name="oneeighth" unicode="&#x215b;" horiz-adv-x="826" 
d="M759 384c27 -20 40 -47 40 -80c0 -48 -36 -91 -100 -102v-2c39 -13 62 -47 62 -88c0 -60 -61 -122 -182 -122c-100 0 -158 44 -158 117c0 52 41 100 112 109v2c-35 13 -55 44 -55 80c0 55 62 116 171 116c46 0 83 -10 110 -30zM61 0l537 674h91l-537 -674h-91zM77 522
l19 81c73 0 113 20 133 71h102l-101 -404h-114l64 252h-103zM600 166c-43 0 -66 -27 -66 -52s19 -40 52 -40c41 0 66 24 66 52c0 25 -19 40 -52 40zM674 261c11 9 17 20 17 33c0 24 -18 38 -49 38c-39 0 -62 -23 -62 -47s17 -39 49 -39c19 0 34 5 45 15z" />
    <glyph glyph-name="threeeighths" unicode="&#x215c;" horiz-adv-x="946" 
d="M879 384c27 -20 40 -47 40 -80c0 -48 -36 -91 -100 -102v-2c39 -13 62 -47 62 -88c0 -60 -61 -122 -182 -122c-100 0 -158 44 -158 117c0 52 41 100 112 109v2c-35 13 -55 44 -55 80c0 55 62 116 171 116c46 0 83 -10 110 -30zM62 375c0 10 1 20 3 31h114
c-1 -9 -2 -16 -2 -20c0 -27 17 -40 52 -40c39 0 63 24 63 47c0 26 -21 39 -62 39h-12l20 82h14c49 0 78 23 78 50c0 23 -17 35 -46 35c-35 0 -58 -19 -67 -57h-112c20 89 89 142 188 142c96 0 150 -39 150 -106c0 -50 -32 -85 -96 -105v-2c37 -14 56 -40 56 -78
c0 -63 -64 -133 -179 -133c-105 0 -162 40 -162 115zM809 674l-537 -674h-91l537 674h91zM720 166c-43 0 -66 -27 -66 -52s19 -40 52 -40c41 0 66 24 66 52c0 25 -19 40 -52 40zM794 261c11 9 17 20 17 33c0 24 -18 38 -49 38c-39 0 -62 -23 -62 -47s17 -39 49 -39
c19 0 34 5 45 15z" />
    <glyph glyph-name="fiveeighths" unicode="&#x215d;" horiz-adv-x="945" 
d="M582 21c-28 21 -42 49 -42 86c0 52 41 100 112 109v2c-35 13 -55 44 -55 80c0 55 62 116 171 116c92 0 150 -43 150 -110c0 -48 -36 -91 -100 -102v-2c39 -13 62 -47 62 -88c0 -60 -61 -122 -182 -122c-50 0 -89 10 -116 31zM60 364c0 7 1 15 3 23h114c-1 -4 -2 -7 -2 -9
c0 -21 19 -34 48 -34c45 0 70 35 70 72c0 29 -18 45 -47 45c-27 0 -47 -15 -58 -38l-109 7l85 244h286l-21 -90h-195l-26 -65h2c23 15 49 22 77 22c76 0 122 -45 122 -117c0 -74 -72 -164 -199 -164c-93 0 -150 39 -150 104zM808 674l-537 -674h-91l537 674h91zM667 85
c9 -7 21 -11 38 -11c41 0 66 24 66 52c0 25 -19 40 -52 40c-43 0 -66 -27 -66 -52c0 -13 5 -22 14 -29zM699 285c0 -24 17 -39 49 -39c37 0 62 23 62 48c0 24 -18 38 -49 38c-39 0 -62 -23 -62 -47z" />
    <glyph glyph-name="seveneighths" unicode="&#x215e;" horiz-adv-x="851" 
d="M784 384c27 -20 40 -47 40 -80c0 -48 -36 -91 -100 -102v-2c39 -13 62 -47 62 -88c0 -60 -61 -122 -182 -122c-100 0 -158 44 -158 117c0 52 41 100 112 109v2c-35 13 -55 44 -55 80c0 55 62 116 171 116c46 0 83 -10 110 -30zM91 270c29 62 63 121 102 176
s77 100 114 135h-216l22 93h335l-21 -89c-80 -81 -154 -196 -205 -315h-131zM714 674l-537 -674h-91l537 674h91zM625 166c-43 0 -66 -27 -66 -52s19 -40 52 -40c41 0 66 24 66 52c0 25 -19 40 -52 40zM699 261c11 9 17 20 17 33c0 24 -18 38 -49 38c-39 0 -62 -23 -62 -47
s17 -39 49 -39c19 0 34 5 45 15z" />
    <glyph glyph-name="uni2166" unicode="&#x2166;" horiz-adv-x="1240" 
d="M260 712l16 -277c5 -81 8 -158 8 -230l-1 -61h2c47 102 96 199 147 291l154 277h160l-398 -712h-184l-44 712h140zM814 712h147l-177 -712h-147zM1272 712l-177 -712h-147l177 712h147z" />
    <glyph glyph-name="partialdiff" unicode="&#x2202;" horiz-adv-x="625" 
d="M597 477c0 -69 -13 -141 -40 -218s-67 -142 -120 -195c-54 -53 -119 -80 -195 -80c-140 0 -212 78 -212 209c-1 112 93 291 280 286c72 0 122 -25 147 -64h2c7 20 12 54 12 77c0 76 -35 119 -102 119c-47 0 -78 -25 -93 -75h-145c28 117 112 192 235 192
c152 0 231 -91 231 -251zM172 189c0 -57 27 -88 82 -88c103 -4 156 112 155 182c0 57 -30 91 -85 91c-92 4 -153 -111 -152 -185z" />
    <glyph glyph-name="uni2206" unicode="&#x2206;" horiz-adv-x="698" 
d="M366 712h198l68 -712h-692zM177 126h304l-16 221c-7 101 -11 193 -14 278h-2c-43 -89 -92 -181 -147 -278z" />
    <glyph glyph-name="product" unicode="&#x220f;" horiz-adv-x="679" 
d="M82 712h515v-832h-146v706h-222v-706h-147v832z" />
    <glyph glyph-name="summation" unicode="&#x2211;" horiz-adv-x="515" 
d="M480 -120h-445v129l176 286l-176 289v128h445v-128h-283l173 -289l-173 -286h283v-129z" />
    <glyph glyph-name="minus" unicode="&#x2212;" horiz-adv-x="566" 
d="M64 262v109h438v-109h-438z" />
    <glyph glyph-name="uni2215" unicode="&#x2215;" horiz-adv-x="488" 
d="M384 745h118l-503 -834h-118z" />
    <glyph glyph-name="uni2219" unicode="&#x2219;" horiz-adv-x="362" 
d="M104 222v167h154v-167h-154z" />
    <glyph glyph-name="radical" unicode="&#x221a;" horiz-adv-x="641" 
d="M25 377h177l91 -380h2l204 715h122l-238 -832h-185l-90 385h-83v112z" />
    <glyph glyph-name="infinity" unicode="&#x221e;" horiz-adv-x="674" 
d="M659 308c0 -51 -14 -92 -43 -123s-67 -47 -114 -47c-72 0 -121 35 -165 91c-45 -57 -93 -91 -165 -91c-95 0 -157 67 -157 170s62 170 157 170c72 0 120 -34 165 -91c44 56 93 91 165 91c95 0 157 -67 157 -170zM393 308c32 -44 60 -68 97 -68c40 0 64 27 64 68
s-24 68 -64 68c-37 0 -65 -24 -97 -68zM137 358c-11 -13 -17 -29 -17 -50c0 -41 24 -68 64 -68c37 0 64 24 96 68c-32 44 -59 68 -96 68c-20 0 -36 -6 -47 -18z" />
    <glyph glyph-name="integral" unicode="&#x222b;" horiz-adv-x="352" 
d="M8 -86c6 -2 14 -3 25 -3c51 0 74 23 74 79v564c0 111 59 166 168 166c23 0 46 -3 69 -8v-99c-6 2 -14 3 -25 3c-51 0 -74 -23 -74 -79v-564c0 -111 -59 -166 -168 -166c-23 0 -46 3 -69 8v99z" />
    <glyph glyph-name="approxequal" unicode="&#x2248;" horiz-adv-x="566" 
d="M407 242c9 11 13 27 13 47h86c0 -100 -53 -166 -134 -166c-39 0 -66 16 -105 44c-32 23 -49 33 -69 33c-32 0 -52 -25 -52 -64h-86c0 100 53 166 134 166c39 0 65 -16 105 -44c29 -21 48 -33 69 -33c17 0 30 6 39 17zM146 345h-86c0 50 12 90 37 121c24 30 56 45 97 45
c39 0 65 -16 105 -44c29 -21 48 -33 69 -33c32 0 52 25 52 64h86c0 -100 -53 -166 -134 -166c-39 0 -66 16 -105 44c-32 23 -49 33 -69 33c-33 0 -52 -24 -52 -64z" />
    <glyph glyph-name="notequal" unicode="&#x2260;" horiz-adv-x="566" 
d="M502 276v-109h-255l-67 -117h-98l67 117h-85v109h146l47 81h-193v109h254l67 117h99l-67 -117h85v-109h-147l-46 -81h193z" />
    <glyph glyph-name="lessequal" unicode="&#x2264;" horiz-adv-x="566" 
d="M64 411l438 148v-110l-309 -104v-2l309 -104v-110l-438 148v134zM502 0h-438v105h438v-105z" />
    <glyph glyph-name="greaterequal" unicode="&#x2265;" horiz-adv-x="566" 
d="M502 277l-438 -148v110l309 104v2l-309 104v110l438 -148v-134zM502 0h-438v105h438v-105z" />
    <glyph glyph-name="lozenge" unicode="&#x25ca;" horiz-adv-x="644" 
d="M40 356l189 356h186l189 -356l-189 -356h-186zM322 612l-138 -256l138 -256l138 256z" />
    <glyph glyph-name="uniF8FF" unicode="&#xf8ff;" horiz-adv-x="642" 
 />
    <glyph glyph-name="uniFB00" unicode="&#xfb00;" horiz-adv-x="652" 
d="M756 710l-24 -97c-6 2 -14 3 -23 3c-52 0 -81 -24 -97 -87l-5 -21h95l-26 -104h-95l-101 -404h-138l101 404h-173l-101 -404h-138l101 404h-85l26 104h85l14 58c25 103 95 154 200 154c26 0 50 -3 73 -10l-24 -97c-6 2 -14 3 -23 3c-52 0 -81 -24 -97 -87l-5 -21h173
l14 58c25 103 95 154 200 154c26 0 50 -3 73 -10z" />
    <glyph glyph-name="uniFB01" unicode="&#xfb01;" horiz-adv-x="617" 
d="M31 0l101 404h-85l26 104h85l14 58c25 103 95 154 200 154c26 0 50 -3 73 -10l-24 -97c-6 2 -14 3 -23 3c-52 0 -81 -24 -97 -87l-5 -21h95l-26 -104h-95l-101 -404h-138zM346 0l126 508h140l-126 -508h-140zM633 592h-140l30 120h140z" />
    <glyph glyph-name="uniFB02" unicode="&#xfb02;" horiz-adv-x="617" 
d="M132 404h-85l26 104h85l14 58c25 103 95 154 200 154c26 0 50 -3 73 -10l-24 -97c-6 2 -14 3 -23 3c-52 0 -81 -24 -97 -87l-5 -21h95l-26 -104h-95l-101 -404h-138zM663 712l-177 -712h-140l177 712h140z" />
    <glyph glyph-name="uniFB03" unicode="&#xfb03;" horiz-adv-x="928" 
d="M732 613c-6 2 -14 3 -23 3c-52 0 -81 -24 -97 -87l-5 -21h95l-26 -104h-95l-101 -404h-138l101 404h-173l-101 -404h-138l101 404h-85l26 104h85l14 58c25 103 95 154 200 154c26 0 50 -3 73 -10l-24 -97c-6 2 -14 3 -23 3c-52 0 -81 -24 -97 -87l-5 -21h173l14 58
c25 103 95 154 200 154c26 0 50 -3 73 -10zM783 508h140l-126 -508h-140zM944 592h-140l30 120h140z" />
    <glyph glyph-name="uniFB04" unicode="&#xfb04;" horiz-adv-x="928" 
d="M683 720c26 0 50 -3 73 -10l-24 -97c-6 2 -14 3 -23 3c-52 0 -81 -24 -97 -87l-5 -21h95l-26 -104h-95l-101 -404h-138l101 404h-173l-101 -404h-138l101 404h-85l26 104h85l14 58c25 103 95 154 200 154c26 0 50 -3 73 -10l-24 -97c-6 2 -14 3 -23 3
c-52 0 -81 -24 -97 -87l-5 -21h173l14 58c25 103 95 154 200 154zM974 712l-177 -712h-140l177 712h140z" />
    <glyph glyph-name="uniFEFF" unicode="&#xfeff;" horiz-adv-x="0" 
 />
    <glyph glyph-name="glyph202" horiz-adv-x="392" 
d="M-48 3l31 123c15 -3 28 -5 40 -5c78 0 120 28 148 145l111 446h147l-125 -501c-37 -149 -123 -218 -279 -218c-27 0 -52 3 -73 10zM393 916h179l-170 -146h-116z" />
    <glyph glyph-name="Ccedilla.salt" horiz-adv-x="702" 
d="M705 451h-148c1 12 2 21 2 28c0 75 -44 119 -119 119c-145 5 -232 -178 -230 -316c0 -103 45 -168 130 -168c73 0 140 46 169 122h151c-25 -79 -66 -141 -125 -185c-59 -45 -129 -67 -208 -67c-85 0 -151 26 -198 78c-47 51 -71 121 -71 210c0 71 15 142 45 213
c30 70 75 128 135 174c59 46 131 69 215 69c157 0 256 -93 256 -233c0 -16 -1 -31 -4 -44zM255 -49h126l-132 -168h-169z" />
    <glyph glyph-name="Scedilla.salt" horiz-adv-x="630" 
d="M485 523c0 57 -37 88 -108 88c-67 0 -118 -37 -118 -86c0 -45 34 -67 129 -98c84 -28 134 -52 167 -104c17 -27 25 -61 25 -104c2 -110 -112 -238 -301 -235c-167 0 -263 69 -263 194c0 19 2 37 7 56h152c-3 -11 -4 -23 -4 -36c0 -63 42 -95 125 -95c85 0 128 51 128 94
c-5 59 -29 68 -120 102c-45 15 -80 30 -106 44c-27 14 -49 34 -66 60c-18 25 -27 59 -27 101c-2 104 109 227 290 224c163 0 244 -60 244 -181c0 -15 -3 -33 -8 -53h-149c2 10 3 20 3 29zM199 -49h126l-132 -168h-169z" />
    <glyph glyph-name="Tcommaaccent.salt" horiz-adv-x="615" 
d="M124 712h595l-31 -126h-224l-146 -586h-147l146 586h-224zM9 -217l175 168h126l-132 -168h-169z" />
    <glyph glyph-name="i.locl" horiz-adv-x="276" 
d="M131 508h140l-126 -508h-140zM182 712h140l-30 -120h-140z" />
    <glyph glyph-name="glyph314" horiz-adv-x="278" 
d="M-116 -81c7 -2 15 -3 23 -3c55 0 85 26 104 102l122 490h140l-133 -535c-28 -112 -105 -163 -206 -163c-29 0 -54 3 -75 9zM240 712h179l-170 -146h-116z" />
    <glyph glyph-name="ccedilla.salt" horiz-adv-x="562" 
d="M542 309h-146c1 7 2 13 2 19c0 55 -28 88 -76 88c-90 4 -147 -129 -146 -208c0 -73 29 -116 84 -116c49 0 94 37 111 97h147c-19 -62 -53 -112 -101 -149c-49 -37 -104 -56 -165 -56c-137 0 -219 83 -219 223c-2 140 108 322 297 317c67 0 119 -17 157 -51
c38 -35 57 -80 57 -137c0 -12 -1 -21 -2 -27zM7 -217l175 168h126l-132 -168h-169z" />
    <glyph glyph-name="scedilla.salt" horiz-adv-x="524" 
d="M361 352c1 9 2 16 2 21c0 35 -23 53 -70 53c-51 0 -74 -23 -74 -50c0 -28 20 -41 92 -66c64 -21 100 -36 128 -75c13 -20 20 -46 20 -78c0 -89 -83 -173 -241 -173c-133 0 -209 49 -209 145c0 13 2 25 5 36h141c-2 -8 -3 -15 -3 -22c0 -37 26 -58 78 -58
c51 0 80 22 80 55c0 35 -25 48 -98 73c-61 21 -92 34 -116 71c-13 18 -19 43 -19 74c0 84 81 166 228 166c124 0 192 -48 192 -140c0 -10 -1 -21 -3 -32h-133zM-33 -217l175 168h126l-132 -168h-169z" />
    <glyph glyph-name="tcommaaccent.salt" horiz-adv-x="357" 
d="M364 404h-97l-53 -213c-3 -15 -5 -27 -5 -36c0 -36 15 -50 54 -50c10 0 21 1 33 4l-28 -109c-17 -5 -35 -7 -55 -7c-103 0 -149 38 -149 127c0 20 4 45 11 74l52 210h-82l26 104h82l33 132h140l-33 -132h97zM-95 -217l175 168h126l-132 -168h-169z" />
    <glyph glyph-name="a.superior" horiz-adv-x="413" 
d="M438 536l-26 -105c-11 -45 -16 -78 -14 -101h-107c0 15 2 29 5 40h-2c-35 -33 -75 -49 -122 -49c-71 0 -110 37 -110 97c0 61 47 112 171 128c35 5 67 8 94 9l2 7c2 7 3 14 3 21c0 26 -15 39 -45 39c-31 0 -51 -17 -58 -49h-116c16 71 82 124 181 124
c100 0 150 -38 150 -114c0 -14 -2 -30 -6 -47zM184 433c0 -21 14 -34 41 -34c41 0 69 27 81 71l5 21c-25 -1 -47 -4 -67 -8c-40 -7 -60 -23 -60 -50z" />
    <glyph glyph-name="b.superior" horiz-adv-x="446" 
d="M489 554c0 -35 -8 -71 -23 -107c-32 -73 -95 -127 -176 -127c-44 0 -81 21 -94 57h-1l-12 -47h-116l124 498h120l-42 -168h1c27 23 61 36 93 36c80 0 126 -53 126 -142zM233 536c-7 -20 -11 -39 -11 -57c0 -43 19 -68 51 -68c55 0 89 71 89 126c0 43 -19 68 -51 68
c-36 0 -63 -30 -78 -69z" />
    <glyph glyph-name="c.superior" horiz-adv-x="420" 
d="M472 560c0 -4 -1 -10 -2 -18h-125c1 4 2 8 2 13c0 33 -17 51 -48 51c-56 0 -89 -79 -89 -129c0 -44 18 -68 50 -68c29 0 55 22 66 58h125c-28 -91 -104 -148 -199 -148c-104 0 -166 61 -166 161c-1 98 81 220 221 217c103 0 165 -53 165 -137z" />
    <glyph glyph-name="d.superior" horiz-adv-x="446" 
d="M421 828h121l-124 -498h-116l8 30h-2c-28 -25 -65 -40 -98 -40c-80 0 -126 53 -126 142c-2 103 78 238 200 234c41 0 75 -19 91 -51h1zM211 478c0 -21 4 -38 13 -49c9 -12 21 -18 38 -18c54 0 89 69 89 126c0 43 -19 68 -51 68c-55 0 -89 -71 -89 -127z" />
    <glyph glyph-name="e.superior" horiz-adv-x="428" 
d="M468 543c0 -17 -3 -37 -8 -60h-258c-2 -10 -3 -19 -3 -26c0 -39 19 -58 57 -58c31 0 56 16 65 40h122c-15 -35 -39 -63 -73 -86c-35 -23 -73 -34 -116 -34c-109 0 -167 61 -167 160c-1 97 79 221 215 218c107 0 166 -59 166 -154zM218 550h137c1 3 1 8 1 15
c0 36 -22 54 -57 54c-37 0 -64 -23 -81 -69z" />
    <glyph glyph-name="egrave.superior" horiz-adv-x="428" 
d="M468 543c0 -17 -3 -37 -8 -60h-258c-2 -10 -3 -19 -3 -26c0 -39 19 -58 57 -58c31 0 56 16 65 40h122c-15 -35 -39 -63 -73 -86c-35 -23 -73 -34 -116 -34c-109 0 -167 61 -167 160c-1 97 79 221 215 218c107 0 166 -59 166 -154zM279 724l-97 104h145l52 -104h-100z
M299 619c-37 0 -64 -23 -81 -69h137c1 3 1 8 1 15c0 36 -22 54 -57 54z" />
    <glyph glyph-name="f.superior" horiz-adv-x="262" 
d="M398 827l-20 -81c-5 1 -11 2 -17 2c-37 0 -58 -16 -67 -55l-2 -7h67l-21 -87h-68l-67 -269h-119l67 269h-58l21 87h58l9 35c20 76 74 114 157 114c20 0 40 -3 60 -8z" />
    </font>
</defs>
</svg>
