<?xml version="1.0" standalone="no"?>
<!DOCTYPE svg PUBLIC "-//W3C//DTD SVG 1.1//EN" "http://www.w3.org/Graphics/SVG/1.1/DTD/svg11.dtd" >
<svg xmlns="http://www.w3.org/2000/svg" xmlns:xlink="http://www.w3.org/1999/xlink" version="1.1">
<metadata>
Created by FontForge 20190801 at Wed Nov 27 11:19:37 2019
 By Jimmy Wärting
Copyright \(c\) 2015 Monotype Imaging Inc.  All rights reserved.
</metadata>
<defs>
<font id="NeueHaasUnica-Italic" horiz-adv-x="576" >
  <font-face 
    font-family="Neue Haas Unica"
    font-weight="400"
    font-style="italic"
    font-stretch="normal"
    units-per-em="1000"
    panose-1="2 11 5 4 3 2 6 9 2 3"
    ascent="800"
    descent="-200"
    x-height="508"
    cap-height="712"
    bbox="-621 -275 1187 1093"
    underline-thickness="50"
    underline-position="-125"
    slope="-14"
    stemh="72"
    stemv="90"
    unicode-range="U+0020-FEFF"
  />
<missing-glyph horiz-adv-x="623" 
d="M472 -65h-321c-80 0 -131 50 -131 131v580c0 81 51 131 131 131h321c81 0 131 -50 131 -131v-580c0 -81 -50 -131 -131 -131zM532 6c15 15 22 35 22 60v580c0 51 -31 82 -82 82h-321c-51 0 -82 -31 -82 -82v-580c0 -51 31 -82 82 -82h321c25 0 45 7 60 22zM371 554
c-15 13 -36 20 -62 20c-59 0 -91 -33 -94 -98h-84c5 111 69 170 178 170c103 0 171 -58 171 -147c0 -28 -5 -52 -16 -71s-32 -43 -64 -72c-60 -52 -68 -70 -68 -154h-72v27c0 40 5 71 15 92c9 21 30 47 61 76c24 23 40 41 47 54s10 28 10 47c0 23 -7 42 -22 56zM249 156h94
v-91h-94v91z" />
    <glyph glyph-name="f_f.liga" unicode="ff" horiz-adv-x="578" 
d="M662 644c-6 2 -15 3 -27 3c-51 0 -82 -27 -98 -92l-12 -47h101l-18 -70h-100l-109 -438h-87l109 438h-185l-110 -438h-87l109 438h-89l17 70h90l17 70c23 93 79 139 168 139c19 0 38 -2 55 -6l-16 -67c-7 2 -16 3 -28 3c-51 0 -81 -27 -97 -92l-12 -47h186l17 70
c23 93 79 139 168 139c19 0 38 -2 55 -6z" />
    <glyph glyph-name="f_f_i.liga" unicode="ffi" horiz-adv-x="822" 
d="M148 438h-89l17 70h90l17 70c23 93 79 139 168 139c19 0 38 -2 55 -6l-16 -67c-7 2 -16 3 -28 3c-51 0 -81 -27 -97 -92l-12 -47h186l17 70c23 93 79 139 168 139c19 0 38 -2 55 -6l-17 -67c-6 2 -15 3 -27 3c-51 0 -82 -27 -98 -92l-12 -47h101l-18 -70h-100l-109 -438
h-87l109 438h-185l-110 -438h-87zM681 0h-88l126 508h88zM770 712h88l-24 -99h-88z" />
    <glyph glyph-name="f_f_l.liga" unicode="ffl" horiz-adv-x="822" 
d="M662 644c-6 2 -15 3 -27 3c-51 0 -82 -27 -98 -92l-12 -47h101l-18 -70h-100l-109 -438h-87l109 438h-185l-110 -438h-87l109 438h-89l17 70h90l17 70c23 93 79 139 168 139c19 0 38 -2 55 -6l-16 -67c-7 2 -16 3 -28 3c-51 0 -81 -27 -97 -92l-12 -47h186l17 70
c23 93 79 139 168 139c19 0 38 -2 55 -6zM681 0h-88l177 712h88z" />
    <glyph glyph-name="f_i.liga" unicode="fi" horiz-adv-x="549" 
d="M39 0l109 438h-89l17 70h90l17 70c23 93 79 139 168 139c19 0 38 -2 55 -6l-16 -67c-7 2 -16 3 -28 3c-51 0 -81 -27 -97 -92l-12 -47h100l-17 -70h-100l-110 -438h-87zM320 0l126 508h88l-126 -508h-88zM561 613h-88l24 99h88z" />
    <glyph glyph-name="f_l.liga" unicode="fl" horiz-adv-x="549" 
d="M148 438h-89l17 70h90l17 70c23 93 79 139 168 139c19 0 38 -2 55 -6l-16 -67c-7 2 -16 3 -28 3c-51 0 -81 -27 -97 -92l-12 -47h100l-17 -70h-100l-110 -438h-87zM585 712l-177 -712h-88l177 712h88z" />
    <glyph glyph-name=".notdef" horiz-adv-x="623" 
d="M472 -65h-321c-80 0 -131 50 -131 131v580c0 81 51 131 131 131h321c81 0 131 -50 131 -131v-580c0 -81 -50 -131 -131 -131zM532 6c15 15 22 35 22 60v580c0 51 -31 82 -82 82h-321c-51 0 -82 -31 -82 -82v-580c0 -51 31 -82 82 -82h321c25 0 45 7 60 22zM371 554
c-15 13 -36 20 -62 20c-59 0 -91 -33 -94 -98h-84c5 111 69 170 178 170c103 0 171 -58 171 -147c0 -28 -5 -52 -16 -71s-32 -43 -64 -72c-60 -52 -68 -70 -68 -154h-72v27c0 40 5 71 15 92c9 21 30 47 61 76c24 23 40 41 47 54s10 28 10 47c0 23 -7 42 -22 56zM249 156h94
v-91h-94v91z" />
    <glyph glyph-name="NULL" horiz-adv-x="0" 
 />
    <glyph glyph-name="NULL" horiz-adv-x="0" 
 />
    <glyph glyph-name="nonmarkingreturn" horiz-adv-x="333" 
 />
    <glyph glyph-name="space" unicode=" " horiz-adv-x="230" 
 />
    <glyph glyph-name="glyph1" horiz-adv-x="600" 
 />
    <glyph glyph-name="exclam" unicode="!" horiz-adv-x="275" 
d="M195 712h113l-155 -537h-70zM23 0l26 106h104l-26 -106h-104z" />
    <glyph glyph-name="quotedbl" unicode="&#x22;" horiz-adv-x="372" 
d="M332 712h86l-76 -263h-65zM182 712h86l-76 -263h-65z" />
    <glyph glyph-name="numbersign" unicode="#" horiz-adv-x="649" 
d="M644 420h-117l-67 -164h118l-27 -65h-117l-78 -191h-76l78 191h-144l-78 -191h-76l78 191h-119l27 65h118l67 164h-119l27 66h119l77 188h76l-77 -188h144l77 188h76l-77 -188h117zM240 256h144l67 164h-144z" />
    <glyph glyph-name="dollar" unicode="$" horiz-adv-x="562" 
d="M401 610l-58 -231c101 -38 157 -71 160 -180c2 -98 -93 -213 -258 -212l-21 -86h-62l22 90c-101 15 -156 75 -156 172c0 19 2 39 6 61h87c-4 -19 -6 -36 -6 -51c0 -60 29 -96 88 -109l62 251c-95 37 -145 72 -148 171c-1 91 86 204 241 202l19 76h62l-20 -80
c99 -15 148 -69 148 -163c0 -19 -2 -37 -7 -55h-85c3 17 5 31 5 43c0 55 -26 88 -79 101zM415 189c0 53 -28 80 -93 105l-58 -234c106 6 151 71 151 129zM204 498c0 -48 26 -75 82 -98l54 215c-83 -5 -136 -56 -136 -117z" />
    <glyph glyph-name="percent" unicode="%" horiz-adv-x="864" 
d="M773 331c21 -23 32 -57 32 -101c1 -107 -68 -247 -188 -244c-84 0 -129 48 -129 137c-1 107 69 247 189 243c42 0 74 -12 96 -35zM101 445c-1 107 68 247 189 243c84 0 127 -48 127 -136c1 -107 -68 -247 -188 -244c-84 0 -128 48 -128 137zM767 704l-561 -734h-68
l561 734h68zM675 304c-70 4 -109 -113 -108 -180c0 -51 17 -76 52 -76c71 -3 109 114 108 181c0 50 -17 75 -52 75zM231 370c71 -3 109 114 108 181c0 50 -17 75 -52 75c-69 4 -108 -113 -107 -180c0 -51 17 -76 51 -76z" />
    <glyph glyph-name="ampersand" unicode="&#x26;" horiz-adv-x="734" 
d="M556 0l-63 83c-68 -61 -157 -98 -244 -98c-135 0 -212 66 -212 174c0 99 66 189 217 248c-33 53 -47 92 -47 136c-2 86 73 186 198 183c96 0 154 -55 154 -140c0 -80 -50 -147 -182 -206l133 -175c44 53 75 118 94 194h89c-25 -100 -69 -186 -134 -258l107 -141h-110z
M132 169c0 -63 49 -105 132 -105c64 0 128 27 184 78l-156 206c-107 -47 -160 -106 -160 -179zM302 495c6 -17 17 -38 34 -63c93 43 139 92 139 148c0 44 -29 70 -78 70c-34 0 -60 -11 -78 -33s-27 -46 -27 -73c0 -16 3 -32 10 -49z" />
    <glyph glyph-name="quotesingle" unicode="'" horiz-adv-x="222" 
d="M127 449l55 263h86l-76 -263h-65z" />
    <glyph glyph-name="parenleft" unicode="(" horiz-adv-x="292" 
d="M44 140c0 100 22 203 66 308c43 105 108 202 193 293h80c-165 -205 -247 -429 -247 -630c0 -82 9 -168 26 -258h-72c-31 94 -46 190 -46 287z" />
    <glyph glyph-name="parenright" unicode=")" horiz-adv-x="292" 
d="M-70 -147c167 205 248 429 248 630c0 79 -9 165 -27 258h73c30 -92 45 -188 45 -287c0 -100 -22 -202 -65 -307s-108 -203 -193 -294h-81z" />
    <glyph glyph-name="asterisk" unicode="*" horiz-adv-x="407" 
d="M155 668l107 -84l17 136l77 -19l-49 -129l134 25l6 -80l-135 9l65 -118l-74 -30l-36 132l-92 -100l-52 62l113 73l-124 55z" />
    <glyph glyph-name="plus" unicode="+" horiz-adv-x="566" 
d="M71 353h176v176h72v-176h176v-73h-176v-175h-72v175h-176v73z" />
    <glyph glyph-name="comma" unicode="," horiz-adv-x="226" 
d="M32 0h-36l28 117h109l-29 -117l-88 -144h-58z" />
    <glyph glyph-name="hyphen" unicode="-" horiz-adv-x="300" 
d="M30 253l19 78h240l-19 -78h-240z" />
    <glyph glyph-name="period" unicode="." horiz-adv-x="226" 
d="M-4 0l28 117h109l-29 -117h-108z" />
    <glyph glyph-name="slash" unicode="/" horiz-adv-x="462" 
d="M447 745h86l-503 -834h-86z" />
    <glyph glyph-name="zero" unicode="0" horiz-adv-x="562" 
d="M521 246c-25 -73 -61 -134 -109 -184c-49 -51 -107 -76 -175 -76c-125 0 -189 82 -189 237c0 65 12 133 37 206c24 72 60 133 108 184c48 50 106 75 174 75c125 0 190 -82 190 -237c0 -65 -12 -133 -36 -205zM141 224c0 -104 35 -159 102 -159c46 0 86 22 119 66
s59 96 76 157c17 60 25 113 25 160c0 104 -34 159 -102 159c-46 0 -86 -22 -119 -66s-58 -96 -75 -156c-17 -61 -26 -114 -26 -161z" />
    <glyph glyph-name="one" unicode="1" horiz-adv-x="562" 
d="M181 561c107 0 160 32 193 113h78l-168 -674h-91l122 491h-151z" />
    <glyph glyph-name="two" unicode="2" horiz-adv-x="562" 
d="M556 521c0 -53 -18 -100 -55 -140s-99 -81 -184 -123c-152 -77 -185 -113 -207 -179h357l-19 -79h-463c34 160 93 227 281 321c150 75 190 115 193 190c0 63 -35 97 -99 97c-76 0 -128 -48 -152 -132h-97c36 136 131 212 255 212c117 0 190 -66 190 -167z" />
    <glyph glyph-name="three" unicode="3" horiz-adv-x="562" 
d="M461 101c-40 -67 -119 -115 -226 -115c-135 0 -207 60 -207 167c0 17 2 33 6 50h92c-3 -13 -5 -27 -5 -42c0 -63 40 -96 117 -96c101 0 161 71 161 134c0 68 -45 103 -132 103h-27l20 77h25c124 0 182 72 182 136c0 57 -43 94 -114 94c-79 0 -133 -45 -154 -134h-93
c31 133 126 213 253 213s200 -63 200 -166c0 -81 -50 -151 -158 -184v-2c57 -24 89 -71 89 -136c0 -33 -10 -66 -29 -99z" />
    <glyph glyph-name="four" unicode="4" horiz-adv-x="562" 
d="M518 174h-110l-43 -174h-91l43 174h-318l22 89l384 411h128l-106 -424h110zM338 250l22 93l24 92c21 81 35 132 40 151h-2c-93 -102 -162 -177 -207 -225l-105 -111h228z" />
    <glyph glyph-name="five" unicode="5" horiz-adv-x="562" 
d="M563 596h-305l-67 -195h2c33 27 80 42 125 42c116 0 184 -73 184 -190c2 -119 -104 -271 -276 -267c-121 0 -195 57 -195 152c0 12 2 26 5 41h93c-2 -10 -3 -19 -3 -27c0 -55 42 -86 109 -86c113 -3 173 103 172 181c0 75 -42 118 -114 118c-60 0 -110 -34 -139 -95
l-90 6l137 398h382z" />
    <glyph glyph-name="six" unicode="6" horiz-adv-x="562" 
d="M567 501h-93c1 3 1 7 1 12c0 63 -32 95 -97 95c-88 0 -169 -80 -213 -237h2c47 45 101 68 162 68c112 0 179 -76 179 -196c2 -111 -101 -261 -259 -257c-128 0 -195 74 -195 221c0 66 13 137 39 212c25 75 63 139 113 191c49 52 108 78 176 78c120 0 187 -62 187 -162
c0 -10 -1 -18 -2 -25zM141 189c0 -77 40 -123 111 -123c101 -3 161 99 160 171c0 79 -39 127 -106 127c-102 2 -166 -99 -165 -175z" />
    <glyph glyph-name="seven" unicode="7" horiz-adv-x="562" 
d="M104 0c117 252 256 454 388 594h-365l20 80h466l-20 -81c-144 -155 -279 -360 -380 -593h-109z" />
    <glyph glyph-name="eight" unicode="8" horiz-adv-x="562" 
d="M408 339v-2c57 -27 89 -77 89 -145c2 -98 -97 -209 -255 -206c-132 0 -212 69 -212 184c0 87 60 160 173 188v2c-51 28 -80 74 -80 134c-2 88 94 197 242 194c61 0 109 -15 146 -45c36 -31 54 -71 54 -122c0 -83 -56 -153 -157 -182zM156 95c22 -19 53 -29 92 -29
c103 0 159 73 159 136c0 65 -48 106 -125 106c-103 0 -159 -72 -159 -135c0 -33 11 -59 33 -78zM442 583c-21 17 -49 26 -84 26c-94 0 -147 -66 -147 -125c0 -61 43 -98 115 -98c99 0 147 67 147 125c0 31 -10 55 -31 72z" />
    <glyph glyph-name="nine" unicode="9" horiz-adv-x="562" 
d="M504 255c-26 -75 -64 -139 -113 -191c-50 -52 -109 -78 -176 -78c-120 0 -187 62 -187 162c0 10 0 18 1 25h93l-1 -12c0 -63 32 -95 97 -95c89 0 170 80 213 237h-2c-44 -44 -101 -68 -162 -68c-111 0 -179 76 -179 196c-2 111 102 261 260 257c128 0 194 -74 194 -221
c0 -66 -13 -137 -38 -212zM184 437c0 -79 39 -127 106 -127c102 -2 166 99 165 175c0 77 -39 123 -110 123c-102 3 -162 -99 -161 -171z" />
    <glyph glyph-name="colon" unicode=":" horiz-adv-x="226" 
d="M94 391l28 117h109l-29 -117h-108zM24 117h109l-29 -117h-108z" />
    <glyph glyph-name="semicolon" unicode=";" horiz-adv-x="226" 
d="M-42 -144l74 144h-36l28 117h109l-29 -117l-88 -144h-58zM122 508h109l-29 -117h-108z" />
    <glyph glyph-name="less" unicode="&#x3c;" horiz-adv-x="566" 
d="M495 540v-80l-342 -142v-2l342 -142v-80l-424 178v90z" />
    <glyph glyph-name="equal" unicode="=" horiz-adv-x="566" 
d="M71 197v74h424v-74h-424zM71 362v74h424v-74h-424z" />
    <glyph glyph-name="greater" unicode="&#x3e;" horiz-adv-x="566" 
d="M495 362v-90l-424 -178v80l342 142v2l-342 142v80z" />
    <glyph glyph-name="question" unicode="?" horiz-adv-x="516" 
d="M516 455c-21 -31 -61 -66 -119 -104c-95 -65 -108 -82 -139 -186h-78c32 134 47 155 155 233c104 73 119 107 119 155c0 59 -40 93 -108 93c-77 0 -132 -44 -156 -129h-91c35 136 125 209 250 209c123 0 198 -65 198 -169c0 -37 -10 -71 -31 -102zM152 106h104l-26 -106
h-104z" />
    <glyph glyph-name="at" unicode="@" horiz-adv-x="868" 
d="M525 99c-15 16 -22 38 -19 66h-2c-42 -60 -93 -90 -153 -90c-77 0 -119 51 -119 147c0 41 10 84 31 131c20 47 48 86 85 118c37 31 78 47 124 47c63 0 98 -30 107 -89h2l34 79h76c-33 -71 -61 -137 -84 -199c-24 -63 -36 -105 -36 -127c0 -27 14 -41 43 -41
c100 -5 163 144 162 245c0 75 -24 135 -73 179c-49 43 -118 65 -205 65c-80 0 -149 -21 -206 -64s-101 -97 -130 -160c-29 -64 -44 -126 -44 -185c0 -168 91 -264 250 -264c85 0 162 19 231 56l22 -56c-75 -42 -158 -63 -249 -63c-101 0 -179 28 -235 85
c-57 57 -85 136 -85 238c0 69 18 141 54 215c35 74 87 136 155 186s148 75 240 75c213 0 340 -117 340 -306c2 -151 -98 -316 -246 -312c-31 0 -55 8 -70 24zM525 428c-11 13 -28 20 -49 20c-93 5 -162 -138 -161 -217c0 -56 23 -85 66 -85c89 -5 161 146 160 225
c0 25 -5 44 -16 57z" />
    <glyph glyph-name="A" unicode="A" horiz-adv-x="675" 
d="M389 712h125l94 -712h-92l-25 212h-314l-131 -212h-104zM227 293h255l-8 65c-11 89 -21 186 -32 290h-2c-53 -91 -111 -187 -173 -290z" />
    <glyph glyph-name="B" unicode="B" horiz-adv-x="627" 
d="M597 439c-27 -37 -68 -63 -123 -79v-2c63 -17 95 -67 95 -139c1 -102 -93 -222 -268 -219h-269l177 712h214c143 0 214 -57 214 -156c0 -41 -13 -80 -40 -117zM143 78h156c61 0 106 14 134 43c28 28 42 61 42 100c0 68 -42 103 -135 103h-135zM224 401h134
c65 0 113 14 142 42c29 27 43 60 43 97c0 63 -42 94 -135 94h-126z" />
    <glyph glyph-name="C" unicode="C" horiz-adv-x="690" 
d="M686 456h-95c1 16 2 27 2 34c0 93 -60 152 -156 152c-58 0 -108 -19 -150 -56c-43 -38 -75 -85 -96 -142c-22 -57 -33 -113 -33 -168c0 -127 61 -206 168 -206c48 0 92 15 131 44s68 67 87 116h96c-25 -75 -66 -135 -123 -178c-57 -44 -124 -66 -199 -66
c-81 0 -143 25 -188 76s-68 119 -68 206c0 71 15 141 45 212c29 71 73 129 131 176s128 70 209 70c150 0 242 -92 242 -227c0 -15 -1 -29 -3 -43z" />
    <glyph glyph-name="D" unicode="D" horiz-adv-x="723" 
d="M380 712c215 0 327 -107 327 -304c2 -193 -143 -412 -429 -408h-246l177 712h171zM282 82c224 -4 330 174 328 320c0 149 -79 228 -234 228h-96l-137 -548h139z" />
    <glyph glyph-name="E" unicode="E" horiz-adv-x="618" 
d="M32 0l177 712h459l-20 -82h-367l-56 -225h346l-20 -81h-347l-60 -242h378l-20 -82h-470z" />
    <glyph glyph-name="F" unicode="F" horiz-adv-x="573" 
d="M209 712h446l-20 -82h-354l-61 -243h332l-20 -82h-332l-76 -305h-92z" />
    <glyph glyph-name="G" unicode="G" horiz-adv-x="731" 
d="M705 482h-98c1 4 1 10 1 17c0 91 -57 143 -154 143c-187 5 -299 -205 -297 -373c0 -127 59 -203 168 -203c54 0 103 18 148 54s76 90 94 163h-196l20 79h284l-90 -362h-82l20 82h-2c-48 -59 -133 -95 -220 -95c-150 0 -238 112 -238 280c0 73 16 145 47 216
s76 129 137 175c61 45 133 68 216 68c153 0 244 -81 244 -212c0 -8 -1 -19 -2 -32z" />
    <glyph glyph-name="H" unicode="H" horiz-adv-x="737" 
d="M32 0l177 712h92l-75 -302h364l74 302h93l-177 -712h-93l82 329h-363l-82 -329h-92z" />
    <glyph glyph-name="I" unicode="I" horiz-adv-x="282" 
d="M209 712h92l-177 -712h-92z" />
    <glyph glyph-name="J" unicode="J" horiz-adv-x="356" 
d="M-28 83c13 -3 26 -5 38 -5c81 0 130 40 155 144l123 490h92l-130 -521c-32 -131 -112 -196 -239 -196c-25 0 -44 3 -58 9z" />
    <glyph glyph-name="K" unicode="K" horiz-adv-x="625" 
d="M209 712h92l-78 -314h2l354 314h127l-395 -345l247 -367h-112l-231 357h-2l-89 -357h-92z" />
    <glyph glyph-name="L" unicode="L" horiz-adv-x="561" 
d="M32 0l177 712h92l-157 -630h363l-19 -82h-456z" />
    <glyph glyph-name="M" unicode="M" horiz-adv-x="934" 
d="M844 634l-36 -60c-68 -113 -111 -183 -129 -212l-222 -362h-106l-43 362c-13 124 -23 215 -28 272h-2l-66 -272l-90 -362h-90l177 712h142l41 -351c9 -82 18 -173 27 -273h2c68 118 122 209 162 273l215 351h155l-177 -712h-90l104 417c8 31 27 104 56 217h-2z" />
    <glyph glyph-name="N" unicode="N" horiz-adv-x="755" 
d="M192 285l-70 -285h-90l177 712h127l97 -307c30 -94 59 -188 87 -282l11 -37h2c33 143 59 256 80 341l72 285h90l-177 -712h-128l-97 307c-37 120 -70 226 -98 319h-2c-33 -145 -60 -259 -81 -341z" />
    <glyph glyph-name="O" unicode="O" horiz-adv-x="732" 
d="M718 431c0 -70 -15 -139 -45 -208c-31 -69 -75 -125 -132 -170s-125 -67 -203 -67c-173 0 -273 119 -273 295c0 70 15 139 45 208s74 125 131 170s125 67 203 67c172 0 274 -119 274 -295zM158 281c0 -128 68 -211 183 -211c172 -5 285 198 283 360
c0 129 -68 212 -183 212c-57 0 -107 -18 -150 -55s-76 -83 -99 -139s-34 -112 -34 -167z" />
    <glyph glyph-name="P" unicode="P" horiz-adv-x="616" 
d="M618 407c-40 -72 -122 -125 -242 -125h-182l-70 -282h-92l177 712h207c153 0 232 -71 232 -194c0 -38 -10 -75 -30 -111zM214 362h163c124 0 176 78 176 150c0 77 -48 120 -144 120h-128z" />
    <glyph glyph-name="Q" unicode="Q" horiz-adv-x="731" 
d="M719 436c0 -67 -14 -133 -41 -199c-27 -67 -66 -122 -116 -165l58 -88l-65 -43l-57 86c-51 -27 -106 -41 -165 -41c-170 0 -270 116 -270 290c0 71 15 141 46 211c31 69 75 127 134 172c58 45 126 67 205 67c171 0 271 -116 271 -290zM207 125c32 -39 77 -58 135 -58
c40 0 77 9 111 28l-74 111l65 43l71 -107c35 36 63 80 83 132c19 52 29 104 29 155c0 129 -69 213 -185 213c-57 0 -108 -18 -151 -55s-76 -84 -99 -140c-23 -57 -34 -112 -34 -167c0 -65 16 -117 49 -155z" />
    <glyph glyph-name="R" unicode="R" horiz-adv-x="640" 
d="M616 456c-29 -59 -85 -106 -161 -121v-2c41 -15 60 -49 72 -134l25 -199h-94l-21 188c-5 43 -15 72 -31 88c-17 16 -44 24 -83 24h-124l-75 -300h-92l177 712h216c143 0 212 -60 212 -169c0 -29 -7 -58 -21 -87zM361 378c127 0 179 81 179 146c0 73 -43 109 -128 109
h-131l-63 -255h143z" />
    <glyph glyph-name="S" unicode="S" horiz-adv-x="609" 
d="M515 535c0 75 -49 112 -140 112c-103 0 -158 -62 -158 -121c0 -31 11 -54 32 -70c21 -17 57 -33 108 -50c83 -28 131 -52 163 -101c16 -25 24 -57 24 -96c2 -104 -103 -226 -282 -223c-151 0 -234 66 -234 189c0 20 2 40 7 61h94c-4 -19 -6 -36 -6 -51
c0 -80 52 -120 148 -120c123 0 176 72 176 133c-4 70 -41 89 -140 125c-84 29 -131 51 -162 99c-15 24 -23 55 -23 93c-2 96 95 214 262 211c151 0 226 -59 226 -178c0 -19 -2 -37 -7 -56h-93c3 18 5 32 5 43z" />
    <glyph glyph-name="T" unicode="T" horiz-adv-x="599" 
d="M104 630l20 82h579l-20 -82h-243l-157 -630h-93l157 630h-243z" />
    <glyph glyph-name="U" unicode="U" horiz-adv-x="705" 
d="M203 712h92l-107 -431c-7 -27 -11 -52 -11 -75c0 -89 49 -136 140 -136c103 0 176 62 207 182l114 460h93l-121 -483c-40 -159 -146 -243 -301 -243c-144 0 -223 77 -223 214c0 31 4 65 13 100z" />
    <glyph glyph-name="V" unicode="V" horiz-adv-x="624" 
d="M121 712h90l29 -317c9 -89 17 -191 25 -305h2c59 107 117 208 174 305l188 317h103l-423 -712h-120z" />
    <glyph glyph-name="W" unicode="W" horiz-adv-x="916" 
d="M1020 712l-343 -712h-132l2 311c0 71 2 178 6 319h-2c-41 -88 -93 -194 -154 -319l-152 -311h-132l11 712h88l-5 -288c-2 -113 -5 -224 -9 -335h2c41 89 95 201 162 336l141 287h129l-2 -287c0 -76 -1 -188 -4 -336h2c34 74 86 186 157 335l138 288h97z" />
    <glyph glyph-name="X" unicode="X" horiz-adv-x="621" 
d="M283 370l-148 342h98l115 -277h2l245 277h119l-320 -352l157 -360h-100l-122 293h-2l-262 -293h-121z" />
    <glyph glyph-name="Y" unicode="Y" horiz-adv-x="614" 
d="M214 712l51 -147c26 -77 46 -140 61 -188h2c49 61 101 124 155 188l124 147h117l-360 -417l-74 -295h-92l73 295l-153 417h96z" />
    <glyph glyph-name="Z" unicode="Z" horiz-adv-x="566" 
d="M-45 0l23 94l531 535v2h-386l20 81h500l-24 -94l-530 -535v-2h415l-19 -81h-530z" />
    <glyph glyph-name="bracketleft" unicode="[" horiz-adv-x="297" 
d="M197 741h203l-14 -59h-119l-192 -771h118l-14 -59h-203z" />
    <glyph glyph-name="backslash" unicode="\" horiz-adv-x="457" 
d="M152 745h75l93 -834h-74z" />
    <glyph glyph-name="bracketright" unicode="]" horiz-adv-x="297" 
d="M-82 -148l14 59h119l192 771h-118l14 59h203l-221 -889h-203z" />
    <glyph glyph-name="asciicircum" unicode="^" horiz-adv-x="449" 
d="M177 712h95l166 -341h-82l-130 270h-2l-130 -270h-83z" />
    <glyph glyph-name="underscore" unicode="_" horiz-adv-x="500" 
d="M-89 -101l13 51h500l-13 -51h-500z" />
    <glyph glyph-name="grave" unicode="`" horiz-adv-x="300" 
d="M273 712l55 -143h-71l-93 143h109z" />
    <glyph glyph-name="a" unicode="a" horiz-adv-x="531" 
d="M472 302l-43 -172c-14 -56 -21 -99 -21 -130h-80c0 17 3 39 9 64h-2c-46 -50 -105 -75 -176 -75c-97 0 -154 51 -154 131c0 97 75 156 224 179c59 9 113 14 160 16l3 9c4 20 6 35 6 45c0 57 -36 85 -99 85c-69 0 -118 -40 -131 -101h-88c11 49 36 90 76 122
c40 31 89 47 148 47c115 0 177 -50 177 -153c0 -19 -3 -42 -9 -67zM122 77c15 -13 37 -20 66 -20c85 0 150 55 174 148l11 43c-42 -2 -88 -7 -137 -14c-104 -16 -138 -52 -138 -103c0 -23 8 -41 24 -54z" />
    <glyph glyph-name="b" unicode="b" 
d="M510 171c-21 -53 -53 -96 -94 -131s-90 -52 -145 -52c-73 0 -129 39 -145 102h-2l-22 -90h-87l178 712h88l-64 -258h2c39 41 94 67 149 67c111 0 174 -73 174 -196c0 -51 -11 -102 -32 -154zM185 95c18 -24 44 -36 78 -36c115 -4 188 142 186 253c0 88 -39 138 -107 138
c-115 4 -187 -142 -185 -253c0 -44 9 -78 28 -102z" />
    <glyph glyph-name="c" unicode="c" horiz-adv-x="534" 
d="M511 318h-91c1 5 1 11 1 20c0 69 -37 112 -104 112c-116 4 -190 -146 -189 -253c0 -87 42 -139 111 -139c67 0 126 50 150 119h93c-19 -57 -51 -103 -96 -138s-96 -53 -153 -53c-121 0 -196 80 -196 209c-2 144 104 332 285 327c119 0 190 -70 190 -179
c0 -11 0 -19 -1 -25z" />
    <glyph glyph-name="d" unicode="d" horiz-adv-x="575" 
d="M611 712l-177 -712h-87l14 55h-2c-40 -41 -96 -68 -151 -68c-111 0 -174 73 -174 196c-3 148 104 342 271 337c72 0 127 -39 144 -99h2l72 291h88zM127 196c0 -88 39 -138 107 -138c114 -4 186 142 185 253c0 88 -39 138 -107 138c-114 4 -186 -142 -185 -253z" />
    <glyph glyph-name="e" unicode="e" horiz-adv-x="550" 
d="M505 236h-379c-4 -20 -6 -38 -6 -53c0 -85 47 -129 120 -129c68 0 124 39 148 98h90c-19 -47 -49 -87 -92 -118c-43 -32 -94 -48 -151 -48c-129 0 -199 76 -199 205c-2 146 109 336 289 331c125 0 193 -73 193 -194c0 -23 -4 -53 -13 -92zM142 303h291c2 11 3 22 3 33
c0 77 -43 118 -115 118c-81 0 -150 -55 -179 -151z" />
    <glyph glyph-name="f" unicode="f" horiz-adv-x="305" 
d="M76 508h90l17 70c23 93 79 139 168 139c19 0 38 -2 55 -6l-16 -67c-7 2 -16 3 -28 3c-51 0 -81 -27 -97 -92l-12 -47h100l-17 -70h-100l-110 -438h-87l109 438h-89z" />
    <glyph glyph-name="g" unicode="g" horiz-adv-x="573" 
d="M434 6c-32 -131 -125 -199 -258 -199c-121 0 -187 49 -187 133c0 9 1 18 3 28h87c-1 -5 -2 -12 -2 -21c0 -47 38 -72 103 -72c91 0 145 46 173 154l11 45h-2c-46 -46 -99 -69 -158 -69c-105 0 -166 75 -166 199c-2 139 103 322 265 317c73 0 126 -38 146 -102h2l22 89h85
zM157 115c18 -24 44 -36 77 -36c114 -3 186 134 185 235c0 84 -42 134 -114 134c-106 4 -177 -140 -175 -235c0 -42 9 -75 27 -98z" />
    <glyph glyph-name="h" unicode="h" 
d="M514 297l-74 -297h-88l73 297c6 25 9 47 9 64c0 57 -31 86 -88 86c-75 0 -145 -57 -170 -156l-73 -291h-88l177 712h88l-65 -261h2c41 43 98 68 157 68c95 0 150 -51 150 -147c0 -23 -3 -48 -10 -75z" />
    <glyph glyph-name="i" unicode="i" horiz-adv-x="244" 
d="M141 508h88l-126 -508h-88zM192 712h88l-24 -99h-88z" />
    <glyph glyph-name="j" unicode="j" horiz-adv-x="249" 
d="M-114 -114c9 -2 18 -3 27 -3c53 0 84 27 103 102l130 523h88l-137 -548c-25 -99 -82 -149 -172 -149c-21 0 -40 2 -56 7zM173 613l24 99h88l-24 -99h-88z" />
    <glyph glyph-name="k" unicode="k" horiz-adv-x="500" 
d="M15 0l177 712h88l-102 -410h2l244 206h121l-286 -237l187 -271h-103l-174 259h-2l-64 -259h-88z" />
    <glyph glyph-name="l" unicode="l" horiz-adv-x="244" 
d="M192 712h88l-177 -712h-88z" />
    <glyph glyph-name="m" unicode="m" horiz-adv-x="863" 
d="M801 297l-74 -297h-88l75 302c6 26 9 48 9 65c0 53 -27 80 -80 80c-73 0 -133 -62 -157 -159l-71 -288h-88l77 312c5 17 7 33 7 49c0 56 -27 86 -79 86c-73 0 -134 -64 -159 -165l-70 -282h-88l126 508h85l-13 -55h2c43 44 91 66 143 66c72 0 119 -34 134 -98
c49 65 109 98 178 98c93 0 142 -47 142 -142c0 -22 -4 -49 -11 -80z" />
    <glyph glyph-name="n" unicode="n" 
d="M514 297l-74 -297h-88l73 297c6 25 9 47 9 64c0 57 -31 86 -88 86c-75 0 -145 -57 -170 -156l-73 -291h-88l127 508h85l-16 -60h2c43 44 101 71 161 71c95 0 150 -51 150 -147c0 -23 -3 -48 -10 -75z" />
    <glyph glyph-name="o" unicode="o" horiz-adv-x="565" 
d="M493 159c-22 -50 -54 -91 -97 -124s-95 -49 -154 -49c-131 0 -203 78 -203 214c-2 146 103 326 282 322c132 0 205 -78 205 -214c0 -50 -11 -100 -33 -149zM129 200c0 -91 41 -142 120 -142c119 -4 188 143 187 250c0 91 -42 142 -122 142c-118 4 -186 -143 -185 -250z
" />
    <glyph glyph-name="p" unicode="p" 
d="M510 171c-21 -53 -53 -96 -94 -131s-90 -52 -145 -52c-72 0 -127 39 -144 99h-2l-68 -272h-88l173 693h87l-14 -55h2c40 41 95 68 151 68c111 0 174 -73 174 -196c0 -51 -11 -102 -32 -154zM185 95c18 -24 44 -36 78 -36c115 -4 188 142 186 253c0 88 -39 138 -107 138
c-115 4 -187 -142 -185 -253c0 -44 9 -78 28 -102z" />
    <glyph glyph-name="q" unicode="q" horiz-adv-x="575" 
d="M561 508l-173 -693h-88l59 239h-2c-39 -41 -93 -66 -149 -66c-111 0 -174 73 -174 196c-2 148 103 342 272 337c72 0 127 -40 144 -103h2l22 90h87zM156 95c18 -24 44 -36 78 -36c115 -4 187 142 185 253c0 88 -38 138 -106 138c-115 4 -187 -142 -185 -253
c0 -44 9 -78 28 -102z" />
    <glyph glyph-name="r" unicode="r" horiz-adv-x="362" 
d="M15 0l126 508h84l-18 -71h2c49 51 105 76 169 76c15 0 27 -1 37 -4l-20 -79c-22 2 -34 3 -35 3c-96 0 -165 -62 -193 -174l-64 -259h-88z" />
    <glyph glyph-name="s" unicode="s" horiz-adv-x="494" 
d="M399 70c-33 -49 -100 -84 -195 -84c-121 0 -191 49 -191 141c0 17 2 31 5 42h89c-3 -10 -4 -21 -4 -34c0 -51 37 -79 108 -79c77 0 120 32 120 85c0 23 -8 40 -25 51s-47 24 -90 38c-61 20 -91 31 -115 66c-12 17 -18 41 -18 71c0 80 74 155 204 155
c116 0 177 -47 177 -134c0 -15 -1 -28 -4 -39h-85c2 18 3 28 3 31c0 48 -35 74 -99 74c-67 0 -108 -30 -108 -78c4 -47 19 -51 101 -79c68 -23 103 -36 131 -73c13 -19 20 -44 20 -75c0 -28 -8 -54 -24 -79z" />
    <glyph glyph-name="t" unicode="t" horiz-adv-x="320" 
d="M333 438h-100l-70 -281c-4 -15 -6 -27 -6 -38c0 -35 17 -50 56 -50c11 0 23 1 35 4l-19 -72c-12 -3 -26 -5 -42 -5c-83 0 -120 32 -120 105c0 17 3 38 9 62l69 275h-89l18 70h88l31 123h88l-31 -123h101z" />
    <glyph glyph-name="u" unicode="u" 
d="M561 508l-127 -508h-85l15 60h-2c-41 -44 -100 -71 -161 -71c-95 0 -150 51 -150 147c0 21 4 46 11 75l74 297h88l-74 -297c-5 -22 -8 -43 -8 -64c0 -57 31 -86 87 -86c76 0 146 57 171 156l73 291h88z" />
    <glyph glyph-name="v" unicode="v" horiz-adv-x="470" 
d="M57 508h88l19 -213c8 -85 14 -161 18 -226h2c44 79 87 154 129 226l126 213h100l-311 -508h-114z" />
    <glyph glyph-name="w" unicode="w" horiz-adv-x="770" 
d="M826 508l-261 -508h-126l-5 220l-3 220h-2c-48 -98 -84 -171 -109 -220l-115 -220h-126l-9 508h85l1 -212c1 -25 1 -63 1 -114s0 -89 -1 -114h2l21 43c39 79 69 139 90 180l111 217h127l4 -217c1 -35 1 -87 1 -158v-65h2l16 34c27 58 59 123 95 194l107 212h94z" />
    <glyph glyph-name="x" unicode="x" horiz-adv-x="480" 
d="M190 268l-113 240h94l80 -181h2l163 181h114l-234 -248l124 -260h-96l-89 203h-2l-183 -203h-115z" />
    <glyph glyph-name="y" unicode="y" horiz-adv-x="472" 
d="M-32 -116c69 0 99 23 156 114l-67 510h88l47 -404h2l247 404h100l-333 -531c-84 -133 -135 -164 -246 -166c-21 0 -39 2 -52 7l18 72c11 -4 24 -6 40 -6z" />
    <glyph glyph-name="z" unicode="z" horiz-adv-x="469" 
d="M-17 81l382 353v2h-283l18 72h397l-20 -81l-383 -353v-2h303l-17 -72h-417z" />
    <glyph glyph-name="braceleft" unicode="{" horiz-adv-x="301" 
d="M385 685c-64 -3 -95 -26 -112 -93l-44 -179c-16 -64 -48 -94 -113 -113l-1 -3c41 -16 59 -42 59 -85c0 -15 -2 -31 -7 -49l-37 -148c-5 -17 -7 -32 -7 -45c0 -44 20 -62 68 -63l-14 -56h-13c-85 0 -124 34 -124 110c0 19 4 42 11 69l35 140c4 17 6 31 6 42
c0 33 -14 51 -47 63l15 61c52 13 76 36 89 89l43 172c25 101 77 144 174 144h32z" />
    <glyph glyph-name="bar" unicode="|" horiz-adv-x="273" 
d="M177 732v-937h-81v937h81z" />
    <glyph glyph-name="braceright" unicode="}" horiz-adv-x="301" 
d="M271 561l-35 -139c-4 -17 -6 -31 -6 -43c0 -33 14 -51 47 -62l-16 -61c-52 -15 -75 -37 -88 -89l-43 -172c-27 -101 -77 -144 -174 -144h-33l14 56c63 1 95 27 111 92l45 180c16 64 47 95 112 112l1 3c-40 17 -58 42 -58 85c0 15 2 32 7 50l37 147c5 17 7 32 7 46
c0 44 -20 61 -68 62l14 57h12c85 0 124 -35 124 -110c0 -17 -3 -40 -10 -70z" />
    <glyph glyph-name="asciitilde" unicode="~" horiz-adv-x="583" 
d="M595 399c-28 -111 -97 -175 -181 -175c-55 0 -84 21 -129 62c-36 33 -58 50 -93 50c-51 0 -96 -41 -109 -102h-63c27 112 96 176 180 176c55 0 86 -22 129 -62c36 -33 58 -50 93 -50c51 0 95 40 110 101h63z" />
    <glyph glyph-name="uni00A0" unicode="&#xa0;" horiz-adv-x="230" 
 />
    <glyph glyph-name="exclamdown" unicode="&#xa1;" horiz-adv-x="276" 
d="M122 333h70l-112 -537h-113zM123 402l26 106h104l-27 -106h-103z" />
    <glyph glyph-name="cent" unicode="&#xa2;" horiz-adv-x="562" 
d="M542 398h-91c1 8 2 14 2 19c0 52 -23 92 -63 105l-95 -383c57 11 105 57 125 117h94c-19 -55 -49 -100 -92 -135s-91 -53 -146 -56l-22 -89h-63l24 94c-92 19 -146 93 -146 204c-2 142 101 328 278 327l22 87h62l-23 -92c87 -19 136 -83 136 -174c0 -11 -1 -19 -2 -24z
M179 190c13 -23 31 -39 54 -47l96 385c-104 -12 -170 -152 -169 -251c0 -35 6 -64 19 -87z" />
    <glyph glyph-name="sterling" unicode="&#xa3;" horiz-adv-x="562" 
d="M580 482h-88c3 15 5 28 5 38c0 57 -32 88 -92 88c-69 0 -116 -43 -136 -126l-28 -112h125l-19 -77h-126l-20 -81c-17 -71 -41 -107 -86 -134v-2h360l-19 -76h-495l19 77c65 0 109 45 130 134l21 82h-97l19 77h97l32 129c32 125 112 189 231 189c111 0 173 -56 173 -155
c0 -16 -2 -33 -6 -51z" />
    <glyph glyph-name="currency" unicode="&#xa4;" horiz-adv-x="562" 
d="M473 26l-75 80c-34 -21 -73 -31 -117 -31s-83 10 -117 31l-75 -80l-59 55l76 80c-25 36 -37 79 -37 130s12 94 37 130l-76 80l59 55l75 -80c34 21 73 31 117 31s83 -10 117 -31l75 80l59 -55l-76 -81c25 -36 37 -79 37 -129s-12 -93 -37 -129l76 -81zM148 291
c0 -85 52 -141 133 -141s134 56 134 141s-53 141 -134 141s-133 -56 -133 -141z" />
    <glyph glyph-name="yen" unicode="&#xa5;" horiz-adv-x="562" 
d="M658 674l-269 -314h137l-14 -59h-173l-14 -56h173l-15 -59h-172l-46 -186h-93l46 186h-173l15 59h172l14 56h-172l14 59h137l-111 314h96l49 -150c11 -32 26 -78 45 -141h2c48 62 99 125 152 188l85 103h115z" />
    <glyph glyph-name="brokenbar" unicode="&#xa6;" horiz-adv-x="273" 
d="M96 -205v350h81v-350h-81zM96 382v350h81v-350h-81z" />
    <glyph glyph-name="section" unicode="&#xa7;" horiz-adv-x="578" 
d="M485 381c21 -24 32 -54 32 -90c0 -72 -38 -138 -125 -182v-2c17 -19 26 -45 26 -76c0 -85 -76 -181 -215 -181c-115 0 -177 46 -177 137c0 15 2 28 5 41h88c-2 -11 -3 -20 -3 -29c0 -50 31 -75 92 -75c73 0 118 47 118 99c0 21 -8 39 -23 54s-46 36 -91 63
c-47 29 -80 54 -100 77s-30 52 -30 87c0 67 41 136 122 177v2c-17 19 -25 42 -25 69c-2 80 78 177 205 174c107 0 164 -47 164 -138c0 -14 -1 -25 -2 -33h-88c1 11 2 19 2 24c0 49 -28 73 -85 73c-64 0 -103 -43 -103 -92c0 -25 13 -43 39 -59c13 -9 34 -22 64 -40
c52 -30 89 -57 110 -80zM337 386c-29 17 -56 33 -83 50c-56 -31 -85 -72 -85 -113c0 -43 25 -73 96 -116c32 -19 58 -36 79 -51c52 27 86 72 86 116s-24 74 -93 114z" />
    <glyph glyph-name="dieresis" unicode="&#xa8;" horiz-adv-x="377" 
d="M359 712h82l-24 -99h-82zM164 712h82l-24 -99h-82z" />
    <glyph glyph-name="copyright" unicode="&#xa9;" horiz-adv-x="810" 
d="M719 549c30 -56 45 -120 45 -193c3 -217 -148 -371 -359 -368c-212 -3 -361 151 -358 368c-3 217 146 371 358 368c141 0 254 -64 314 -175zM679 188c26 48 39 104 39 168c0 192 -126 321 -313 321s-313 -129 -313 -321s126 -321 313 -321c124 0 222 56 274 153zM539 160
c-34 -31 -79 -47 -134 -47c-127 0 -204 92 -204 243c0 75 18 135 55 178s87 65 150 65c56 0 101 -16 135 -47c33 -31 51 -72 54 -122h-75c-5 63 -47 104 -114 104c-80 0 -129 -67 -129 -178c0 -109 49 -178 128 -178c64 0 109 41 117 108h76c-5 -53 -25 -95 -59 -126z" />
    <glyph glyph-name="ordfeminine" unicode="&#xaa;" horiz-adv-x="393" 
d="M413 540l-29 -116c-10 -43 -15 -74 -14 -94h-70c0 13 2 25 5 37h-2c-33 -30 -74 -45 -123 -45c-71 0 -113 38 -113 93c0 69 55 111 165 127c38 5 75 9 110 10l2 6c3 9 4 18 4 29c0 36 -22 54 -67 54c-47 0 -77 -24 -86 -64h-76c16 69 78 119 167 119
c87 0 133 -37 133 -110c0 -15 -2 -30 -6 -46zM162 391c11 -9 26 -13 45 -13c57 0 101 36 117 96l6 26c-31 -3 -61 -6 -91 -10c-71 -11 -93 -33 -93 -66c0 -14 5 -25 16 -33z" />
    <glyph glyph-name="guillemotleft" unicode="&#xab;" horiz-adv-x="464" 
d="M221 258l158 196h87l-162 -204l62 -196h-77zM207 454h87l-162 -204l62 -196h-77l-68 204z" />
    <glyph glyph-name="logicalnot" unicode="&#xac;" horiz-adv-x="566" 
d="M71 380v74h424v-314h-73v240h-351z" />
    <glyph glyph-name="uni00AD" unicode="&#xad;" horiz-adv-x="300" 
d="M30 253l19 78h240l-19 -78h-240z" />
    <glyph glyph-name="registered" unicode="&#xae;" horiz-adv-x="587" 
d="M565 605c21 -39 31 -83 31 -134c0 -153 -100 -256 -249 -256c-148 0 -248 103 -248 256c0 152 100 255 248 255c99 0 177 -45 218 -121zM460 666c-33 18 -70 27 -113 27c-128 0 -215 -89 -215 -222s87 -222 215 -222s215 89 215 222c0 88 -38 158 -102 195zM403 464
c21 -7 32 -19 44 -52l33 -97h-58l-27 82c-9 33 -27 46 -59 46h-47v-128h-54v319h117c71 0 108 -34 108 -91c0 -37 -22 -70 -57 -77v-2zM289 588v-99h50c44 0 66 19 66 51c0 31 -20 48 -63 48h-53z" />
    <glyph glyph-name="macron" unicode="&#xaf;" horiz-adv-x="384" 
d="M141 616l15 64h285l-16 -64h-284z" />
    <glyph glyph-name="degree" unicode="&#xb0;" horiz-adv-x="319" 
d="M245 722c33 0 62 -12 86 -35c23 -24 35 -53 35 -86s-12 -62 -35 -85c-24 -23 -53 -35 -86 -35s-61 12 -84 36c-24 23 -36 51 -36 84s12 62 35 86c23 23 52 35 85 35zM179 601c0 -36 29 -66 66 -66s68 30 68 66c0 37 -31 68 -68 68s-66 -31 -66 -68z" />
    <glyph glyph-name="plusminus" unicode="&#xb1;" horiz-adv-x="566" 
d="M71 307v74h176v172h72v-172h176v-74h-176v-171h-72v171h-176zM71 74h424v-74h-424v74z" />
    <glyph glyph-name="uni00B2" unicode="&#xb2;" horiz-adv-x="419" 
d="M476 692c0 -76 -50 -126 -171 -183c-51 -24 -85 -44 -104 -59c-19 -16 -32 -34 -37 -54h253l-15 -66h-345c22 116 68 165 202 229c51 25 86 46 106 63c19 17 29 38 29 61c0 42 -22 63 -66 63c-49 0 -83 -29 -100 -86h-83c25 97 95 152 188 152c89 0 143 -48 143 -120z
" />
    <glyph glyph-name="uni00B3" unicode="&#xb3;" horiz-adv-x="414" 
d="M448 619c-18 -23 -46 -40 -85 -53v-1c43 -19 64 -50 64 -95c0 -69 -69 -150 -187 -150c-103 0 -157 43 -157 119c0 14 2 26 5 36h79c-2 -10 -3 -19 -3 -27c0 -42 26 -63 78 -63c33 0 59 9 78 27c19 17 29 37 29 58c0 44 -32 67 -91 67h-17l15 63h18c79 0 122 42 122 87
c0 37 -28 59 -76 59c-55 0 -89 -29 -103 -87h-80c21 96 94 153 187 153c96 0 151 -45 151 -118c0 -28 -9 -53 -27 -75z" />
    <glyph glyph-name="acute" unicode="&#xb4;" horiz-adv-x="299" 
d="M245 712h118l-153 -143h-81z" />
    <glyph glyph-name="uni00B5" unicode="&#xb5;" horiz-adv-x="583" 
d="M507 0c-11 -4 -27 -6 -46 -6c-53 0 -79 27 -76 82h-2c-33 -51 -96 -83 -160 -83c-54 0 -90 19 -108 58l-59 -236h-88l173 693h88l-74 -294c-6 -30 -9 -51 -9 -63c0 -59 31 -88 94 -88c71 0 138 56 163 155l71 290h88l-90 -363c-5 -19 -7 -34 -7 -46c0 -24 10 -32 34 -32
c8 0 16 1 25 3z" />
    <glyph glyph-name="paragraph" unicode="&#xb6;" horiz-adv-x="588" 
d="M106 493c-2 101 82 222 210 219h364l-15 -62h-80l-192 -770h-66l191 770h-86l-192 -770h-66l106 428c-116 12 -174 74 -174 185z" />
    <glyph glyph-name="periodcentered" unicode="&#xb7;" horiz-adv-x="226" 
d="M57 247l29 117h108l-29 -117h-108z" />
    <glyph glyph-name="cedilla" unicode="&#xb8;" horiz-adv-x="313" 
d="M87 0h51l-56 -62c5 1 12 2 19 2c39 0 65 -24 65 -67c0 -26 -12 -48 -36 -66c-25 -18 -55 -27 -92 -27c-38 0 -71 9 -99 27l21 37c23 -14 49 -21 76 -21c40 0 66 19 66 47c0 23 -15 36 -42 36c-12 0 -23 -2 -33 -6l-17 16z" />
    <glyph glyph-name="uni00B9" unicode="&#xb9;" horiz-adv-x="271" 
d="M128 722c77 0 117 23 141 80h67l-118 -472h-79l82 332h-108z" />
    <glyph glyph-name="ordmasculine" unicode="&#xba;" horiz-adv-x="415" 
d="M427 439c-32 -69 -95 -119 -182 -119c-99 0 -154 56 -154 155c-2 100 75 225 204 221c99 0 156 -56 156 -155c0 -34 -8 -68 -24 -102zM169 472c0 -59 27 -91 80 -91c79 -2 125 92 124 162c0 59 -27 91 -82 91c-79 0 -122 -90 -122 -162z" />
    <glyph glyph-name="guillemotright" unicode="&#xbb;" horiz-adv-x="464" 
d="M169 54l163 204l-63 196h78l68 -204l-158 -196h-88zM-2 54l162 204l-62 196h78l67 -204l-158 -196h-87z" />
    <glyph glyph-name="onequarter" unicode="&#xbc;" horiz-adv-x="723" 
d="M673 96h-67l-24 -96h-74l24 96h-195l18 70l226 238h102l-62 -248h67zM574 674h74l-553 -674h-73zM97 606c67 0 102 19 122 68h64l-101 -404h-75l70 278h-94zM425 156h124l12 49c7 29 18 71 33 126h-2c-35 -38 -71 -76 -108 -114z" />
    <glyph glyph-name="onehalf" unicode="&#xbd;" horiz-adv-x="754" 
d="M689 225c-23 -25 -61 -49 -113 -74c-43 -20 -72 -36 -87 -48c-16 -12 -26 -25 -31 -39h217l-15 -64h-303c18 102 58 144 174 200c43 21 72 39 89 53c16 13 24 30 24 49c0 32 -17 48 -52 48c-40 0 -67 -23 -81 -70h-80c23 87 82 133 165 133c77 0 127 -43 127 -104
c0 -32 -11 -60 -34 -84zM22 0l552 674h74l-553 -674h-73zM97 606c67 0 102 19 122 68h64l-101 -404h-75l70 278h-94z" />
    <glyph glyph-name="threequarters" unicode="&#xbe;" horiz-adv-x="845" 
d="M460 96l18 70l226 238h102l-62 -248h67l-15 -60h-67l-24 -96h-74l24 96h-195zM60 365c0 11 1 21 4 32h77c-2 -9 -3 -17 -3 -24c0 -33 21 -50 63 -50c53 0 86 33 86 68s-25 52 -75 52h-13l15 62h14c64 0 99 33 99 70c0 29 -22 46 -61 46c-44 0 -72 -23 -84 -70h-76
c17 83 81 132 165 132s132 -38 132 -102c0 -50 -31 -86 -92 -107v-2c34 -17 51 -44 51 -81c0 -60 -59 -130 -162 -130c-91 0 -140 37 -140 104zM770 674l-553 -674h-73l552 674h74zM672 156l12 49c7 29 18 71 33 126h-2c-35 -38 -71 -76 -108 -114l-59 -61h124z" />
    <glyph glyph-name="questiondown" unicode="&#xbf;" horiz-adv-x="483" 
d="M1 54c21 31 61 65 119 103c95 65 109 82 138 186h78c-32 -134 -47 -155 -155 -233c-104 -73 -119 -107 -119 -155c0 -59 40 -93 109 -93c77 0 132 44 155 129h92c-36 -136 -126 -209 -250 -209s-199 65 -199 169c0 37 11 72 32 103zM364 402h-103l26 106h104z" />
    <glyph glyph-name="Agrave" unicode="&#xc0;" horiz-adv-x="675" 
d="M516 0l-25 212h-314l-131 -212h-104l447 712h125l94 -712h-92zM482 293l-8 65c-11 89 -21 186 -32 290h-2c-53 -91 -111 -187 -173 -290l-40 -65h255zM366 898h109l56 -138h-72z" />
    <glyph glyph-name="Aacute" unicode="&#xc1;" horiz-adv-x="675" 
d="M516 0l-25 212h-314l-131 -212h-104l447 712h125l94 -712h-92zM227 293h255l-8 65c-11 89 -21 186 -32 290h-2c-53 -91 -111 -187 -173 -290zM513 898h118l-153 -138h-81z" />
    <glyph glyph-name="Acircumflex" unicode="&#xc2;" horiz-adv-x="675" 
d="M389 712h125l94 -712h-92l-25 212h-314l-131 -212h-104zM482 293l-8 65c-11 89 -21 186 -32 290h-2c-53 -91 -111 -187 -173 -290l-40 -65h255zM626 760h-79l-52 89l-96 -89h-98l149 138h97z" />
    <glyph glyph-name="Atilde" unicode="&#xc3;" horiz-adv-x="675" 
d="M389 712h125l94 -712h-92l-25 212h-314l-131 -212h-104zM482 293l-8 65c-11 89 -21 186 -32 290h-2c-53 -91 -111 -187 -173 -290l-40 -65h255zM622 807c-22 -20 -47 -30 -75 -30c-31 0 -50 10 -78 29c-27 16 -36 22 -55 22c-27 0 -47 -17 -58 -51h-60
c20 72 66 115 122 115c31 0 51 -10 80 -29c21 -15 38 -22 53 -22c28 0 48 17 61 51h58c-11 -37 -27 -65 -48 -85z" />
    <glyph glyph-name="Adieresis" unicode="&#xc4;" horiz-adv-x="675" 
d="M-58 0l447 712h125l94 -712h-92l-25 212h-314l-131 -212h-104zM482 293l-8 65c-11 89 -21 186 -32 290h-2c-53 -91 -111 -187 -173 -290l-40 -65h255zM329 775l25 99h82l-25 -99h-82zM606 775h-82l25 99h82z" />
    <glyph glyph-name="Aring" unicode="&#xc5;" horiz-adv-x="675" 
d="M-58 0l447 712h125l94 -712h-92l-25 212h-314l-131 -212h-104zM227 293h255l-8 65c-11 89 -21 186 -32 290h-2c-53 -91 -111 -187 -173 -290zM577 852c0 -27 -10 -51 -29 -70c-20 -20 -44 -30 -72 -30c-27 0 -51 10 -70 30c-20 19 -30 43 -30 70c0 28 10 52 30 72
c19 19 43 29 70 29c28 0 52 -10 72 -29c19 -20 29 -44 29 -72zM435 812c11 -11 25 -17 41 -17c33 0 58 25 58 57s-25 58 -58 58c-32 0 -58 -26 -58 -58c0 -16 6 -29 17 -40z" />
    <glyph glyph-name="AE" unicode="&#xc6;" horiz-adv-x="937" 
d="M967 630h-364l-22 -225h310l-21 -81h-298l-24 -242h293l-20 -82h-367l22 224h-273l-163 -224h-109l526 712h530zM485 305l32 329h-16l-239 -329h223z" />
    <glyph glyph-name="Ccedilla" unicode="&#xc7;" horiz-adv-x="690" 
d="M640 230c-23 -72 -62 -130 -115 -173c-54 -43 -116 -67 -187 -70l-44 -49c5 1 12 2 19 2c39 0 65 -24 65 -67c0 -26 -12 -48 -36 -66c-25 -18 -55 -27 -92 -27c-38 0 -71 9 -99 27l21 37c23 -14 49 -21 76 -21c40 0 66 19 66 47c0 23 -15 36 -42 36c-12 0 -23 -2 -33 -6
l-17 16l65 71c-143 13 -225 120 -225 281c0 71 15 141 45 212c29 71 73 129 131 176s128 70 209 70c150 0 242 -92 242 -227c0 -15 -1 -29 -3 -43h-95c1 16 2 27 2 34c0 93 -60 152 -156 152c-58 0 -108 -19 -150 -56c-43 -38 -75 -85 -96 -142c-22 -57 -33 -113 -33 -168
c0 -127 61 -206 168 -206c48 0 92 15 131 44s68 67 87 116h96z" />
    <glyph glyph-name="Egrave" unicode="&#xc8;" horiz-adv-x="618" 
d="M144 82h378l-20 -82h-470l177 712h459l-20 -82h-367l-56 -225h346l-20 -81h-347zM451 898l56 -138h-72l-93 138h109z" />
    <glyph glyph-name="Eacute" unicode="&#xc9;" horiz-adv-x="618" 
d="M144 82h378l-20 -82h-470l177 712h459l-20 -82h-367l-56 -225h346l-20 -81h-347zM489 898h118l-153 -138h-81z" />
    <glyph glyph-name="Ecircumflex" unicode="&#xca;" horiz-adv-x="618" 
d="M648 630h-367l-56 -225h346l-20 -81h-347l-60 -242h378l-20 -82h-470l177 712h459zM278 760l149 138h97l79 -138h-79l-52 89l-96 -89h-98z" />
    <glyph glyph-name="Edieresis" unicode="&#xcb;" horiz-adv-x="618" 
d="M648 630h-367l-56 -225h346l-20 -81h-347l-60 -242h378l-20 -82h-470l177 712h459zM501 775l25 99h82l-25 -99h-82zM331 874h82l-25 -99h-82z" />
    <glyph glyph-name="Igrave" unicode="&#xcc;" horiz-adv-x="282" 
d="M209 712h92l-177 -712h-92zM278 898l56 -138h-72l-93 138h109z" />
    <glyph glyph-name="Iacute" unicode="&#xcd;" horiz-adv-x="282" 
d="M209 712h92l-177 -712h-92zM200 760l116 138h118l-153 -138h-81z" />
    <glyph glyph-name="Icircumflex" unicode="&#xce;" horiz-adv-x="282" 
d="M32 0l177 712h92l-177 -712h-92zM104 760l149 138h97l79 -138h-79l-52 89l-96 -89h-98z" />
    <glyph glyph-name="Idieresis" unicode="&#xcf;" horiz-adv-x="282" 
d="M32 0l177 712h92l-177 -712h-92zM327 775l25 99h82l-25 -99h-82zM157 874h82l-25 -99h-82z" />
    <glyph glyph-name="Eth" unicode="&#xd0;" horiz-adv-x="724" 
d="M660 216c-31 -63 -79 -114 -143 -155c-65 -41 -144 -61 -239 -61h-246l81 325h-66l18 71h65l79 316h171c215 0 327 -107 327 -304c0 -66 -16 -130 -47 -192zM143 82h139c224 -4 330 174 328 320c0 149 -79 228 -234 228h-96l-58 -234h203l-19 -71h-202z" />
    <glyph glyph-name="Ntilde" unicode="&#xd1;" horiz-adv-x="755" 
d="M775 712l-177 -712h-128l-97 307c-37 120 -70 226 -98 319h-2c-33 -145 -60 -259 -81 -341l-70 -285h-90l177 712h127l97 -307c30 -94 59 -188 87 -282l11 -37h2c33 143 59 256 80 341l72 285h90zM385 862c21 20 46 30 74 30c31 0 51 -10 80 -29c21 -15 38 -22 53 -22
c28 0 48 17 61 51h58c-21 -73 -67 -115 -123 -115c-31 0 -50 10 -78 29c-27 16 -36 22 -55 22c-27 0 -47 -17 -58 -51h-60c10 36 26 64 48 85z" />
    <glyph glyph-name="Ograve" unicode="&#xd2;" horiz-adv-x="732" 
d="M718 431c0 -70 -15 -139 -45 -208c-31 -69 -75 -125 -132 -170s-125 -67 -203 -67c-173 0 -273 119 -273 295c0 70 15 139 45 208s74 125 131 170s125 67 203 67c172 0 274 -119 274 -295zM158 281c0 -128 68 -211 183 -211c172 -5 285 198 283 360
c0 129 -68 212 -183 212c-57 0 -107 -18 -150 -55s-76 -83 -99 -139s-34 -112 -34 -167zM479 898l56 -138h-72l-93 138h109z" />
    <glyph glyph-name="Oacute" unicode="&#xd3;" horiz-adv-x="732" 
d="M718 431c0 -70 -15 -139 -45 -208c-31 -69 -75 -125 -132 -170s-125 -67 -203 -67c-173 0 -273 119 -273 295c0 70 15 139 45 208s74 125 131 170s125 67 203 67c172 0 274 -119 274 -295zM158 281c0 -128 68 -211 183 -211c172 -5 285 198 283 360
c0 129 -68 212 -183 212c-57 0 -107 -18 -150 -55s-76 -83 -99 -139s-34 -112 -34 -167zM517 898h118l-153 -138h-81z" />
    <glyph glyph-name="Ocircumflex" unicode="&#xd4;" horiz-adv-x="732" 
d="M718 431c0 -70 -15 -139 -45 -208c-31 -69 -75 -125 -132 -170s-125 -67 -203 -67c-173 0 -273 119 -273 295c0 70 15 139 45 208s74 125 131 170s125 67 203 67c172 0 274 -119 274 -295zM207 128c32 -39 77 -58 134 -58c172 -5 285 198 283 360c0 129 -68 212 -183 212
c-57 0 -107 -18 -150 -55s-76 -83 -99 -139s-34 -112 -34 -167c0 -64 16 -115 49 -153zM454 898h97l79 -138h-79l-52 89l-96 -89h-98z" />
    <glyph glyph-name="Otilde" unicode="&#xd5;" horiz-adv-x="732" 
d="M110 489c30 69 74 125 131 170s125 67 203 67c172 0 274 -119 274 -295c0 -70 -15 -139 -45 -208c-31 -69 -75 -125 -132 -170s-125 -67 -203 -67c-173 0 -273 119 -273 295c0 70 15 139 45 208zM624 430c0 129 -68 212 -183 212c-57 0 -107 -18 -150 -55
s-76 -83 -99 -139s-34 -112 -34 -167c0 -128 68 -211 183 -211c172 -5 285 198 283 360zM301 777c20 72 66 115 122 115c31 0 51 -10 80 -29c21 -15 38 -22 53 -22c28 0 48 17 61 51h58c-21 -73 -67 -115 -123 -115c-31 0 -50 10 -78 29c-27 16 -36 22 -55 22
c-27 0 -47 -17 -58 -51h-60z" />
    <glyph glyph-name="Odieresis" unicode="&#xd6;" horiz-adv-x="732" 
d="M718 431c0 -70 -15 -139 -45 -208c-31 -69 -75 -125 -132 -170s-125 -67 -203 -67c-173 0 -273 119 -273 295c0 70 15 139 45 208s74 125 131 170s125 67 203 67c172 0 274 -119 274 -295zM158 281c0 -128 68 -211 183 -211c172 -5 285 198 283 360
c0 129 -68 212 -183 212c-57 0 -107 -18 -150 -55s-76 -83 -99 -139s-34 -112 -34 -167zM528 775l25 99h82l-25 -99h-82zM333 775l25 99h82l-25 -99h-82z" />
    <glyph glyph-name="multiply" unicode="&#xd7;" horiz-adv-x="566" 
d="M91 550l192 -192l193 192l51 -51l-193 -193l193 -192l-51 -51l-193 192l-192 -192l-52 51l193 192l-193 193z" />
    <glyph glyph-name="Oslash" unicode="&#xd8;" horiz-adv-x="732" 
d="M755 675l-75 -75c26 -48 39 -104 39 -167c0 -70 -15 -139 -45 -208c-31 -69 -75 -126 -133 -171c-59 -45 -127 -68 -205 -68c-83 0 -150 27 -197 76l-69 -69l-43 44l76 75c-26 46 -39 102 -39 167c0 70 15 140 46 209c30 69 74 126 132 171s126 67 204 67
c83 0 149 -27 196 -75l69 68zM341 67c57 0 108 19 151 56s77 83 100 140c23 56 35 112 35 167c0 37 -6 70 -17 101l-406 -404c34 -40 80 -60 137 -60zM156 281c0 -35 5 -68 16 -99l406 404c-34 39 -80 59 -137 59c-172 5 -288 -202 -285 -364z" />
    <glyph glyph-name="Ugrave" unicode="&#xd9;" horiz-adv-x="705" 
d="M731 712l-121 -483c-40 -159 -146 -243 -301 -243c-144 0 -223 77 -223 214c0 31 4 65 13 100l104 412h92l-107 -431c-7 -27 -11 -52 -11 -75c0 -89 49 -136 140 -136c103 0 176 62 207 182l114 460h93zM371 898h109l56 -138h-72z" />
    <glyph glyph-name="Uacute" unicode="&#xda;" horiz-adv-x="705" 
d="M731 712l-121 -483c-40 -159 -146 -243 -301 -243c-144 0 -223 77 -223 214c0 31 4 65 13 100l104 412h92l-107 -431c-7 -27 -11 -52 -11 -75c0 -89 49 -136 140 -136c103 0 176 62 207 182l114 460h93zM518 898h118l-153 -138h-81z" />
    <glyph glyph-name="Ucircumflex" unicode="&#xdb;" horiz-adv-x="705" 
d="M731 712l-121 -483c-40 -159 -146 -243 -301 -243c-144 0 -223 77 -223 214c0 31 4 65 13 100l104 412h92l-107 -431c-7 -27 -11 -52 -11 -75c0 -89 49 -136 140 -136c103 0 176 62 207 182l114 460h93zM455 898h97l79 -138h-79l-52 89l-96 -89h-98z" />
    <glyph glyph-name="Udieresis" unicode="&#xdc;" horiz-adv-x="705" 
d="M731 712l-121 -483c-40 -159 -146 -243 -301 -243c-144 0 -223 77 -223 214c0 31 4 65 13 100l104 412h92l-107 -431c-7 -27 -11 -52 -11 -75c0 -89 49 -136 140 -136c103 0 176 62 207 182l114 460h93zM529 775l25 99h82l-25 -99h-82zM359 874h82l-25 -99h-82z" />
    <glyph glyph-name="Yacute" unicode="&#xdd;" horiz-adv-x="614" 
d="M198 0l73 295l-153 417h96l51 -147c26 -77 46 -140 61 -188h2c49 61 101 124 155 188l124 147h117l-360 -417l-74 -295h-92zM461 898h118l-153 -138h-81z" />
    <glyph glyph-name="Thorn" unicode="&#xde;" horiz-adv-x="613" 
d="M586 279c-40 -73 -123 -126 -243 -126h-182l-37 -153h-92l177 712h92l-32 -130h118c151 0 229 -70 229 -190c0 -39 -10 -76 -30 -113zM345 233c121 0 176 78 176 150c0 76 -48 119 -144 119h-128l-68 -269h164z" />
    <glyph glyph-name="germandbls" unicode="&#xdf;" horiz-adv-x="557" 
d="M520 468c-27 -35 -66 -59 -117 -72v-2c69 -21 104 -73 104 -154c2 -117 -98 -249 -275 -246c-22 0 -41 3 -58 9l18 72c11 -3 24 -5 38 -5c126 0 188 91 188 173c0 72 -44 114 -124 114h-5l19 78c118 0 163 70 163 131c0 56 -34 86 -95 86c-74 0 -123 -49 -148 -148
l-125 -504h-88l128 515c33 135 120 211 240 211c111 0 177 -56 177 -145c0 -41 -13 -78 -40 -113z" />
    <glyph glyph-name="agrave" unicode="&#xe0;" horiz-adv-x="531" 
d="M429 130c-14 -56 -21 -99 -21 -130h-80c0 17 3 39 9 64h-2c-46 -50 -105 -75 -176 -75c-97 0 -154 51 -154 131c0 97 75 156 224 179c59 9 113 14 160 16l3 9c4 20 6 35 6 45c0 57 -36 85 -99 85c-69 0 -118 -40 -131 -101h-88c11 49 36 90 76 122c40 31 89 47 148 47
c115 0 177 -50 177 -153c0 -19 -3 -42 -9 -67zM98 131c0 -45 33 -74 90 -74c85 0 150 55 174 148l11 43c-42 -2 -88 -7 -137 -14c-104 -16 -138 -52 -138 -103zM333 712l55 -143h-71l-93 143h109z" />
    <glyph glyph-name="aacute" unicode="&#xe1;" horiz-adv-x="531" 
d="M429 130c-14 -56 -21 -99 -21 -130h-80c0 17 3 39 9 64h-2c-46 -50 -105 -75 -176 -75c-97 0 -154 51 -154 131c0 97 75 156 224 179c59 9 113 14 160 16l3 9c4 20 6 35 6 45c0 57 -36 85 -99 85c-69 0 -118 -40 -131 -101h-88c11 49 36 90 76 122c40 31 89 47 148 47
c115 0 177 -50 177 -153c0 -19 -3 -42 -9 -67zM122 77c15 -13 37 -20 66 -20c85 0 150 55 174 148l11 43c-42 -2 -88 -7 -137 -14c-104 -16 -138 -52 -138 -103c0 -23 8 -41 24 -54zM371 712h118l-153 -143h-81z" />
    <glyph glyph-name="acircumflex" unicode="&#xe2;" horiz-adv-x="531" 
d="M5 120c0 97 75 156 224 179c59 9 113 14 160 16l3 9c4 20 6 35 6 45c0 57 -36 85 -99 85c-69 0 -118 -40 -131 -101h-88c11 49 36 90 76 122c40 31 89 47 148 47c115 0 177 -50 177 -153c0 -19 -3 -42 -9 -67l-43 -172c-14 -56 -21 -99 -21 -130h-80c0 17 3 39 9 64h-2
c-46 -50 -105 -75 -176 -75c-97 0 -154 51 -154 131zM122 77c15 -13 37 -20 66 -20c85 0 150 55 174 148l11 43c-42 -2 -88 -7 -137 -14c-104 -16 -138 -52 -138 -103c0 -23 8 -41 24 -54zM403 569l-52 93l-96 -93h-96l149 143h97l79 -143h-81z" />
    <glyph glyph-name="atilde" unicode="&#xe3;" horiz-adv-x="531" 
d="M372 433c-17 14 -42 21 -73 21c-69 0 -118 -40 -131 -101h-88c11 49 36 90 76 122c40 31 89 47 148 47c115 0 177 -50 177 -153c0 -19 -3 -42 -9 -67l-43 -172c-14 -56 -21 -99 -21 -130h-80c0 17 3 39 9 64h-2c-46 -50 -105 -75 -176 -75c-97 0 -154 51 -154 131
c0 97 75 156 224 179c59 9 113 14 160 16l3 9c4 20 6 35 6 45c0 29 -9 50 -26 64zM373 248c-42 -2 -88 -7 -137 -14c-104 -16 -138 -52 -138 -103c0 -45 33 -74 90 -74c85 0 150 55 174 148zM366 599c-11 5 -24 12 -38 21c-24 15 -35 22 -54 22c-27 0 -47 -17 -58 -51h-60
c20 72 66 115 122 115c31 0 51 -10 79 -29c23 -15 36 -22 53 -22c28 0 48 17 60 51h58c-21 -73 -66 -115 -122 -115c-15 0 -29 3 -40 8z" />
    <glyph glyph-name="adieresis" unicode="&#xe4;" horiz-adv-x="531" 
d="M408 0h-80c0 17 3 39 9 64h-2c-46 -50 -105 -75 -176 -75c-97 0 -154 51 -154 131c0 97 75 156 224 179c59 9 113 14 160 16l3 9c4 20 6 35 6 45c0 57 -36 85 -99 85c-69 0 -118 -40 -131 -101h-88c11 49 36 90 76 122c40 31 89 47 148 47c115 0 177 -50 177 -153
c0 -19 -3 -42 -9 -67l-43 -172c-14 -56 -21 -99 -21 -130zM122 77c15 -13 37 -20 66 -20c85 0 150 55 174 148l11 43c-42 -2 -88 -7 -137 -14c-104 -16 -138 -52 -138 -103c0 -23 8 -41 24 -54zM194 613l24 99h82l-24 -99h-82zM495 712l-24 -99h-82l24 99h82z" />
    <glyph glyph-name="aring" unicode="&#xe5;" horiz-adv-x="531" 
d="M372 433c-17 14 -42 21 -73 21c-69 0 -118 -40 -131 -101h-88c11 49 36 90 76 122c40 31 89 47 148 47c115 0 177 -50 177 -153c0 -19 -3 -42 -9 -67l-43 -172c-14 -56 -21 -99 -21 -130h-80c0 17 3 39 9 64h-2c-46 -50 -105 -75 -176 -75c-97 0 -154 51 -154 131
c0 97 75 156 224 179c59 9 113 14 160 16l3 9c4 20 6 35 6 45c0 29 -9 50 -26 64zM373 248c-42 -2 -88 -7 -137 -14c-104 -16 -138 -52 -138 -103c0 -45 33 -74 90 -74c85 0 150 55 174 148zM407 737c19 -20 29 -44 29 -71c0 -28 -10 -52 -29 -71c-20 -20 -44 -30 -72 -30
c-27 0 -51 10 -70 30c-20 19 -30 43 -30 71c0 27 10 51 30 71c19 19 43 29 70 29c28 0 52 -10 72 -29zM377 707c-11 11 -25 17 -42 17c-31 0 -57 -26 -57 -58s26 -58 57 -58c33 0 58 25 58 58c0 16 -5 30 -16 41z" />
    <glyph glyph-name="ae" unicode="&#xe6;" horiz-adv-x="862" 
d="M560 54c64 0 116 39 140 98h90c-18 -47 -48 -87 -89 -118c-42 -32 -91 -48 -146 -48c-88 0 -144 40 -168 115c-49 -73 -125 -115 -210 -115c-109 0 -172 54 -172 135c0 87 67 179 262 179h121l6 20c3 18 5 32 5 42c0 61 -33 92 -99 92c-71 0 -117 -40 -132 -101h-88
c11 49 36 90 76 122c40 31 89 47 147 47c84 0 137 -29 160 -86c51 57 112 86 183 86c119 0 184 -73 184 -194c0 -26 -5 -58 -15 -95h-362c-3 -15 -5 -32 -5 -50c0 -85 43 -129 112 -129zM96 133c1 -51 32 -79 92 -79c88 0 155 58 179 161l5 18h-109
c-110 0 -166 -33 -167 -100zM536 414c-31 -27 -53 -65 -67 -114h276c2 13 3 25 3 36c0 77 -40 118 -107 118c-39 0 -74 -13 -105 -40z" />
    <glyph glyph-name="ccedilla" unicode="&#xe7;" horiz-adv-x="534" 
d="M394 420c-18 20 -44 30 -77 30c-116 4 -190 -146 -189 -253c0 -87 42 -139 111 -139c67 0 126 50 150 119h93c-35 -103 -116 -176 -217 -189l-45 -50c5 1 12 2 19 2c39 0 65 -24 65 -67c0 -26 -12 -48 -36 -66c-25 -18 -55 -27 -92 -27c-38 0 -71 9 -99 27l21 37
c23 -14 49 -21 76 -21c40 0 66 19 66 47c0 23 -15 36 -42 36c-12 0 -23 -2 -33 -6l-17 16l65 71c-109 8 -176 85 -176 208c-2 144 104 332 285 327c119 0 190 -70 190 -179c0 -11 0 -19 -1 -25h-91c1 5 1 11 1 20c0 35 -9 62 -27 82z" />
    <glyph glyph-name="egrave" unicode="&#xe8;" horiz-adv-x="550" 
d="M505 236h-379c-4 -20 -6 -38 -6 -53c0 -85 47 -129 120 -129c68 0 124 39 148 98h90c-19 -47 -49 -87 -92 -118c-43 -32 -94 -48 -151 -48c-129 0 -199 76 -199 205c-2 146 109 336 289 331c125 0 193 -73 193 -194c0 -23 -4 -53 -13 -92zM142 303h291c2 11 3 22 3 33
c0 77 -43 118 -115 118c-81 0 -150 -55 -179 -151zM345 712l55 -143h-71l-93 143h109z" />
    <glyph glyph-name="eacute" unicode="&#xe9;" horiz-adv-x="550" 
d="M505 236h-379c-4 -20 -6 -38 -6 -53c0 -85 47 -129 120 -129c68 0 124 39 148 98h90c-19 -47 -49 -87 -92 -118c-43 -32 -94 -48 -151 -48c-129 0 -199 76 -199 205c-2 146 109 336 289 331c125 0 193 -73 193 -194c0 -23 -4 -53 -13 -92zM142 303h291c2 11 3 22 3 33
c0 77 -43 118 -115 118c-81 0 -150 -55 -179 -151zM383 712h118l-153 -143h-81z" />
    <glyph glyph-name="ecircumflex" unicode="&#xea;" horiz-adv-x="550" 
d="M505 236h-379c-4 -20 -6 -38 -6 -53c0 -85 47 -129 120 -129c68 0 124 39 148 98h90c-19 -47 -49 -87 -92 -118c-43 -32 -94 -48 -151 -48c-129 0 -199 76 -199 205c-2 146 109 336 289 331c125 0 193 -73 193 -194c0 -23 -4 -53 -13 -92zM142 303h291c2 11 3 22 3 33
c0 77 -43 118 -115 118c-81 0 -150 -55 -179 -151zM171 569l149 143h97l79 -143h-81l-52 93l-96 -93h-96z" />
    <glyph glyph-name="edieresis" unicode="&#xeb;" horiz-adv-x="550" 
d="M505 236h-379c-4 -20 -6 -38 -6 -53c0 -85 47 -129 120 -129c68 0 124 39 148 98h90c-19 -47 -49 -87 -92 -118c-43 -32 -94 -48 -151 -48c-129 0 -199 76 -199 205c-2 146 109 336 289 331c125 0 193 -73 193 -194c0 -23 -4 -53 -13 -92zM142 303h291c2 11 3 22 3 33
c0 77 -43 118 -115 118c-81 0 -150 -55 -179 -151zM425 712h82l-24 -99h-82zM230 712h82l-24 -99h-82z" />
    <glyph glyph-name="igrave" unicode="&#xec;" horiz-adv-x="244" 
d="M141 508h88l-126 -508h-88zM213 712l55 -143h-71l-93 143h109z" />
    <glyph glyph-name="iacute" unicode="&#xed;" horiz-adv-x="244" 
d="M141 508h88l-126 -508h-88zM135 569l116 143h118l-153 -143h-81z" />
    <glyph glyph-name="icircumflex" unicode="&#xee;" horiz-adv-x="244" 
d="M15 0l126 508h88l-126 -508h-88zM188 712h96l64 -142h-77l-39 93l-86 -93h-93z" />
    <glyph glyph-name="idieresis" unicode="&#xef;" horiz-adv-x="244" 
d="M141 508h88l-126 -508h-88zM118 712h82l-24 -99h-82zM248 613l24 99h82l-25 -99h-81z" />
    <glyph glyph-name="eth" unicode="&#xf0;" horiz-adv-x="566" 
d="M535 674l-121 -49c73 -92 116 -197 116 -304c2 -154 -108 -340 -292 -335c-128 0 -201 79 -201 212c-3 140 107 317 280 313c41 0 72 -10 95 -31l1 2c-19 40 -44 78 -73 113l-147 -59l-19 48l129 52c-11 12 -28 28 -51 48l67 42c24 -22 44 -42 60 -59l136 55zM127 194
c1 -87 41 -136 116 -136c122 -4 197 147 196 250c0 88 -43 139 -119 139c-121 4 -192 -148 -193 -253z" />
    <glyph glyph-name="ntilde" unicode="&#xf1;" 
d="M524 372c0 -23 -3 -48 -10 -75l-74 -297h-88l73 297c6 25 9 47 9 64c0 57 -31 86 -88 86c-75 0 -145 -57 -170 -156l-73 -291h-88l127 508h85l-16 -60h2c43 44 101 71 161 71c95 0 150 -51 150 -147zM251 676c21 20 46 30 74 30c31 0 51 -10 79 -29c23 -15 36 -22 53 -22
c28 0 48 17 60 51h58c-21 -73 -66 -115 -122 -115c-31 0 -50 10 -78 29c-24 15 -35 22 -54 22c-27 0 -47 -17 -58 -51h-60c10 36 26 64 48 85z" />
    <glyph glyph-name="ograve" unicode="&#xf2;" horiz-adv-x="565" 
d="M493 159c-22 -50 -54 -91 -97 -124s-95 -49 -154 -49c-131 0 -203 78 -203 214c-2 146 103 326 282 322c132 0 205 -78 205 -214c0 -50 -11 -100 -33 -149zM160 95c20 -25 50 -37 89 -37c119 -4 188 143 187 250c0 91 -42 142 -122 142c-118 4 -186 -143 -185 -250
c0 -45 10 -80 31 -105zM353 712l55 -143h-71l-93 143h109z" />
    <glyph glyph-name="oacute" unicode="&#xf3;" horiz-adv-x="565" 
d="M493 159c-22 -50 -54 -91 -97 -124s-95 -49 -154 -49c-131 0 -203 78 -203 214c-2 146 103 326 282 322c132 0 205 -78 205 -214c0 -50 -11 -100 -33 -149zM160 95c20 -25 50 -37 89 -37c119 -4 188 143 187 250c0 91 -42 142 -122 142c-118 4 -186 -143 -185 -250
c0 -45 10 -80 31 -105zM391 712h118l-153 -143h-81z" />
    <glyph glyph-name="ocircumflex" unicode="&#xf4;" horiz-adv-x="565" 
d="M493 159c-22 -50 -54 -91 -97 -124s-95 -49 -154 -49c-131 0 -203 78 -203 214c-2 146 103 326 282 322c132 0 205 -78 205 -214c0 -50 -11 -100 -33 -149zM129 200c0 -91 41 -142 120 -142c119 -4 188 143 187 250c0 91 -42 142 -122 142c-118 4 -186 -143 -185 -250z
M328 712h97l79 -143h-81l-52 93l-96 -93h-96z" />
    <glyph glyph-name="otilde" unicode="&#xf5;" horiz-adv-x="565" 
d="M39 200c-2 146 103 326 282 322c132 0 205 -78 205 -214c2 -146 -105 -326 -284 -322c-131 0 -203 78 -203 214zM129 200c0 -91 41 -142 120 -142c119 -4 188 143 187 250c0 91 -42 142 -122 142c-118 4 -186 -143 -185 -250zM489 706h58c-21 -73 -66 -115 -122 -115
c-31 0 -50 10 -78 29c-24 15 -35 22 -54 22c-27 0 -47 -17 -58 -51h-60c20 72 66 115 122 115c31 0 51 -10 79 -29c23 -15 36 -22 53 -22c28 0 48 17 60 51z" />
    <glyph glyph-name="odieresis" unicode="&#xf6;" horiz-adv-x="565" 
d="M493 159c-22 -50 -54 -91 -97 -124s-95 -49 -154 -49c-131 0 -203 78 -203 214c-2 146 103 326 282 322c132 0 205 -78 205 -214c0 -50 -11 -100 -33 -149zM129 200c0 -91 41 -142 120 -142c119 -4 188 143 187 250c0 91 -42 142 -122 142c-118 4 -186 -143 -185 -250z
M432 712h82l-24 -99h-82zM213 613l24 99h82l-24 -99h-82z" />
    <glyph glyph-name="divide" unicode="&#xf7;" horiz-adv-x="566" 
d="M495 353v-73h-424v73h424zM242 526h82v-85h-82v85zM242 108v85h82v-85h-82z" />
    <glyph glyph-name="oslash" unicode="&#xf8;" horiz-adv-x="566" 
d="M562 495l-63 -62c19 -35 28 -77 28 -125c2 -145 -107 -327 -288 -322c-59 0 -106 16 -141 48l-59 -58l-38 38l64 64c-18 33 -27 73 -27 122c-2 145 107 327 287 322c59 0 105 -16 140 -47l58 58zM246 56c123 -4 195 145 193 252c0 19 -2 38 -7 58l-275 -274
c21 -24 50 -36 89 -36zM125 200c0 -20 2 -39 6 -56l275 273c-22 23 -51 35 -88 35c-122 4 -194 -146 -193 -252z" />
    <glyph glyph-name="ugrave" unicode="&#xf9;" 
d="M561 508l-127 -508h-85l15 60h-2c-41 -44 -100 -71 -161 -71c-95 0 -150 51 -150 147c0 21 4 46 11 75l74 297h88l-74 -297c-5 -22 -8 -43 -8 -64c0 -57 31 -86 87 -86c76 0 146 57 171 156l73 291h88zM259 712h109l55 -143h-71z" />
    <glyph glyph-name="uacute" unicode="&#xfa;" 
d="M561 508l-127 -508h-85l15 60h-2c-41 -44 -100 -71 -161 -71c-95 0 -150 51 -150 147c0 21 4 46 11 75l74 297h88l-74 -297c-5 -22 -8 -43 -8 -64c0 -57 31 -86 87 -86c76 0 146 57 171 156l73 291h88zM406 712h118l-153 -143h-81z" />
    <glyph glyph-name="ucircumflex" unicode="&#xfb;" 
d="M561 508l-127 -508h-85l15 60h-2c-41 -44 -100 -71 -161 -71c-95 0 -150 51 -150 147c0 21 4 46 11 75l74 297h88l-74 -297c-5 -22 -8 -43 -8 -64c0 -57 31 -86 87 -86c76 0 146 57 171 156l73 291h88zM194 569l149 143h97l79 -143h-81l-52 93l-96 -93h-96z" />
    <glyph glyph-name="udieresis" unicode="&#xfc;" 
d="M62 211l74 297h88l-74 -297c-5 -22 -8 -43 -8 -64c0 -57 31 -86 87 -86c76 0 146 57 171 156l73 291h88l-127 -508h-85l15 60h-2c-41 -44 -100 -71 -161 -71c-95 0 -150 51 -150 147c0 21 4 46 11 75zM229 613l24 99h82l-24 -99h-82zM506 613h-82l24 99h82z" />
    <glyph glyph-name="yacute" unicode="&#xfd;" horiz-adv-x="472" 
d="M541 508l-333 -531c-84 -133 -135 -164 -246 -166c-21 0 -39 2 -52 7l18 72c11 -4 24 -6 40 -6c69 0 99 23 156 114l-67 510h88l47 -404h2l247 404h100zM345 712h118l-153 -143h-81z" />
    <glyph glyph-name="thorn" unicode="&#xfe;" horiz-adv-x="577" 
d="M510 171c-21 -53 -53 -96 -94 -131s-90 -52 -145 -52c-72 0 -127 39 -144 99h-2l-68 -272h-88l223 897h88l-63 -258h2c39 41 94 67 149 67c111 0 174 -73 174 -196c0 -51 -11 -102 -32 -154zM185 95c18 -24 44 -36 78 -36c115 -4 188 142 186 253c0 88 -39 138 -107 138
c-115 4 -187 -142 -185 -253c0 -44 9 -78 28 -102z" />
    <glyph glyph-name="ydieresis" unicode="&#xff;" horiz-adv-x="472" 
d="M-72 -110c11 -4 24 -6 40 -6c69 0 99 23 156 114l-67 510h88l47 -404h2l247 404h100l-333 -531c-84 -133 -135 -164 -246 -166c-21 0 -39 2 -52 7zM167 613l24 99h82l-24 -99h-82zM444 613h-82l24 99h82z" />
    <glyph glyph-name="Amacron" unicode="&#x100;" horiz-adv-x="675" 
d="M-58 0l447 712h125l94 -712h-92l-25 212h-314l-131 -212h-104zM482 293l-8 65c-11 89 -21 186 -32 290h-2c-53 -91 -111 -187 -173 -290l-40 -65h255zM613 788h-284l15 65h284z" />
    <glyph glyph-name="amacron" unicode="&#x101;" horiz-adv-x="531" 
d="M481 369c0 -19 -3 -42 -9 -67l-43 -172c-14 -56 -21 -99 -21 -130h-80c0 17 3 39 9 64h-2c-46 -50 -105 -75 -176 -75c-97 0 -154 51 -154 131c0 97 75 156 224 179c59 9 113 14 160 16l3 9c4 20 6 35 6 45c0 57 -36 85 -99 85c-69 0 -118 -40 -131 -101h-88
c11 49 36 90 76 122c40 31 89 47 148 47c115 0 177 -50 177 -153zM122 77c15 -13 37 -20 66 -20c85 0 150 55 174 148l11 43c-42 -2 -88 -7 -137 -14c-104 -16 -138 -52 -138 -103c0 -23 8 -41 24 -54zM191 616l15 64h285l-16 -64h-284z" />
    <glyph glyph-name="Abreve" unicode="&#x102;" horiz-adv-x="675" 
d="M389 712h125l94 -712h-92l-25 212h-314l-131 -212h-104zM482 293l-8 65c-11 89 -21 186 -32 290h-2c-53 -91 -111 -187 -173 -290l-40 -65h255zM587 793c-32 -25 -71 -37 -117 -37c-83 0 -129 42 -129 117c0 11 1 19 2 25h59c-1 -3 -1 -8 -1 -14c0 -43 26 -66 71 -66
c53 0 93 29 110 80h72c-13 -45 -35 -80 -67 -105z" />
    <glyph glyph-name="abreve" unicode="&#x103;" horiz-adv-x="531" 
d="M372 433c-17 14 -42 21 -73 21c-69 0 -118 -40 -131 -101h-88c11 49 36 90 76 122c40 31 89 47 148 47c115 0 177 -50 177 -153c0 -19 -3 -42 -9 -67l-43 -172c-14 -56 -21 -99 -21 -130h-80c0 17 3 39 9 64h-2c-46 -50 -105 -75 -176 -75c-97 0 -154 51 -154 131
c0 97 75 156 224 179c59 9 113 14 160 16l3 9c4 20 6 35 6 45c0 29 -9 50 -26 64zM122 77c15 -13 37 -20 66 -20c85 0 150 55 174 148l11 43c-42 -2 -88 -7 -137 -14c-104 -16 -138 -52 -138 -103c0 -23 8 -41 24 -54zM440 712h72c-25 -91 -93 -143 -184 -143
c-84 0 -129 42 -129 118c0 11 1 19 2 25h59c-1 -3 -1 -8 -1 -15c0 -43 24 -66 71 -66c53 0 93 29 110 81z" />
    <glyph glyph-name="Aogonek" unicode="&#x104;" horiz-adv-x="675" 
d="M563 -187c-15 -5 -33 -7 -52 -7c-59 0 -88 26 -88 71c0 43 33 79 106 123h-13l-25 212h-314l-131 -212h-104l447 712h125l94 -712c-77 -47 -102 -80 -102 -111c0 -18 11 -27 32 -27c15 0 28 2 39 7zM227 293h255l-8 65c-11 89 -21 186 -32 290h-2
c-53 -91 -111 -187 -173 -290z" />
    <glyph glyph-name="aogonek" unicode="&#x105;" horiz-adv-x="531" 
d="M372 433c-17 14 -42 21 -73 21c-69 0 -118 -40 -131 -101h-88c11 49 36 90 76 122c40 31 89 47 148 47c115 0 177 -50 177 -153c0 -19 -3 -42 -9 -67l-43 -172c-14 -56 -21 -99 -21 -130c-77 -47 -102 -80 -102 -111c0 -18 11 -27 32 -27c15 0 28 2 39 7l-14 -56
c-15 -5 -33 -7 -52 -7c-59 0 -88 26 -88 71c0 43 32 79 105 123c0 17 3 39 9 64h-2c-46 -50 -105 -75 -176 -75c-97 0 -154 51 -154 131c0 97 75 156 224 179c59 9 113 14 160 16l3 9c4 20 6 35 6 45c0 29 -9 50 -26 64zM122 77c15 -13 37 -20 66 -20c85 0 150 55 174 148
l11 43c-42 -2 -88 -7 -137 -14c-104 -16 -138 -52 -138 -103c0 -23 8 -41 24 -54z" />
    <glyph glyph-name="Cacute" unicode="&#x106;" horiz-adv-x="690" 
d="M686 456h-95c1 16 2 27 2 34c0 93 -60 152 -156 152c-58 0 -108 -19 -150 -56c-43 -38 -75 -85 -96 -142c-22 -57 -33 -113 -33 -168c0 -127 61 -206 168 -206c48 0 92 15 131 44s68 67 87 116h96c-25 -75 -66 -135 -123 -178c-57 -44 -124 -66 -199 -66
c-81 0 -143 25 -188 76s-68 119 -68 206c0 71 15 141 45 212c29 71 73 129 131 176s128 70 209 70c150 0 242 -92 242 -227c0 -15 -1 -29 -3 -43zM514 898h118l-153 -138h-81z" />
    <glyph glyph-name="cacute" unicode="&#x107;" horiz-adv-x="534" 
d="M511 318h-91c1 5 1 11 1 20c0 69 -37 112 -104 112c-116 4 -190 -146 -189 -253c0 -87 42 -139 111 -139c67 0 126 50 150 119h93c-19 -57 -51 -103 -96 -138s-96 -53 -153 -53c-121 0 -196 80 -196 209c-2 144 104 332 285 327c119 0 190 -70 190 -179
c0 -11 0 -19 -1 -25zM272 569l116 143h118l-153 -143h-81z" />
    <glyph glyph-name="Ccircumflex" unicode="&#x108;" horiz-adv-x="690" 
d="M686 456h-95c1 16 2 27 2 34c0 93 -60 152 -156 152c-58 0 -108 -19 -150 -56c-43 -38 -75 -85 -96 -142c-22 -57 -33 -113 -33 -168c0 -127 61 -206 168 -206c48 0 92 15 131 44s68 67 87 116h96c-25 -75 -66 -135 -123 -178c-57 -44 -124 -66 -199 -66
c-81 0 -143 25 -188 76s-68 119 -68 206c0 71 15 141 45 212c29 71 73 129 131 176s128 70 209 70c150 0 242 -92 242 -227c0 -15 -1 -29 -3 -43zM302 760l149 138h97l79 -138h-79l-52 89l-96 -89h-98z" />
    <glyph glyph-name="ccircumflex" unicode="&#x109;" horiz-adv-x="534" 
d="M511 318h-91c1 5 1 11 1 20c0 69 -37 112 -104 112c-116 4 -190 -146 -189 -253c0 -87 42 -139 111 -139c67 0 126 50 150 119h93c-19 -57 -51 -103 -96 -138s-96 -53 -153 -53c-121 0 -196 80 -196 209c-2 144 104 332 285 327c119 0 190 -70 190 -179
c0 -11 0 -19 -1 -25zM325 712h97l79 -143h-81l-52 93l-96 -93h-96z" />
    <glyph glyph-name="Cdotaccent" unicode="&#x10a;" horiz-adv-x="690" 
d="M686 456h-95c1 16 2 27 2 34c0 93 -60 152 -156 152c-58 0 -108 -19 -150 -56c-43 -38 -75 -85 -96 -142c-22 -57 -33 -113 -33 -168c0 -127 61 -206 168 -206c48 0 92 15 131 44s68 67 87 116h96c-25 -75 -66 -135 -123 -178c-57 -44 -124 -66 -199 -66
c-81 0 -143 25 -188 76s-68 119 -68 206c0 71 15 141 45 212c29 71 73 129 131 176s128 70 209 70c150 0 242 -92 242 -227c0 -15 -1 -29 -3 -43zM449 874h88l-25 -99h-88z" />
    <glyph glyph-name="cdotaccent" unicode="&#x10b;" horiz-adv-x="534" 
d="M511 318h-91c1 5 1 11 1 20c0 69 -37 112 -104 112c-116 4 -190 -146 -189 -253c0 -87 42 -139 111 -139c67 0 126 50 150 119h93c-19 -57 -51 -103 -96 -138s-96 -53 -153 -53c-121 0 -196 80 -196 209c-2 144 104 332 285 327c119 0 190 -70 190 -179
c0 -11 0 -19 -1 -25zM305 613l24 99h88l-24 -99h-88z" />
    <glyph glyph-name="Ccaron" unicode="&#x10c;" horiz-adv-x="690" 
d="M686 456h-95c1 16 2 27 2 34c0 93 -60 152 -156 152c-58 0 -108 -19 -150 -56c-43 -38 -75 -85 -96 -142c-22 -57 -33 -113 -33 -168c0 -127 61 -206 168 -206c48 0 92 15 131 44s68 67 87 116h96c-25 -75 -66 -135 -123 -178c-57 -44 -124 -66 -199 -66
c-81 0 -143 25 -188 76s-68 119 -68 206c0 71 15 141 45 212c29 71 73 129 131 176s128 70 209 70c150 0 242 -92 242 -227c0 -15 -1 -29 -3 -43zM336 898h79l52 -88l96 88h98l-149 -138h-97z" />
    <glyph glyph-name="ccaron" unicode="&#x10d;" horiz-adv-x="534" 
d="M511 318h-91c1 5 1 11 1 20c0 69 -37 112 -104 112c-116 4 -190 -146 -189 -253c0 -87 42 -139 111 -139c67 0 126 50 150 119h93c-19 -57 -51 -103 -96 -138s-96 -53 -153 -53c-121 0 -196 80 -196 209c-2 144 104 332 285 327c119 0 190 -70 190 -179
c0 -11 0 -19 -1 -25zM211 712h81l52 -93l96 93h96l-149 -143h-97z" />
    <glyph glyph-name="Dcaron" unicode="&#x10e;" horiz-adv-x="723" 
d="M660 216c-31 -63 -79 -114 -143 -155c-65 -41 -144 -61 -239 -61h-246l177 712h171c215 0 327 -107 327 -304c0 -66 -16 -130 -47 -192zM282 82c224 -4 330 174 328 320c0 149 -79 228 -234 228h-96l-137 -548h139zM406 898l52 -88l96 88h98l-149 -138h-97l-79 138h79z
" />
    <glyph glyph-name="dcaron" unicode="&#x10f;" horiz-adv-x="575" 
d="M66 338c21 52 53 95 94 130s90 52 145 52c72 0 127 -39 144 -99h2l72 291h88l-177 -712h-87l14 55h-2c-40 -41 -96 -68 -151 -68c-111 0 -174 73 -174 196c0 51 11 102 32 155zM155 94c19 -24 45 -36 79 -36c114 -4 186 142 185 253c0 88 -39 138 -107 138
c-114 4 -186 -142 -185 -253c0 -44 9 -78 28 -102zM754 712l-98 -176h-54l73 176h79z" />
    <glyph glyph-name="Dcroat" unicode="&#x110;" horiz-adv-x="724" 
d="M660 216c-31 -63 -79 -114 -143 -155c-65 -41 -144 -61 -239 -61h-246l81 325h-66l18 71h65l79 316h171c215 0 327 -107 327 -304c0 -66 -16 -130 -47 -192zM143 82h139c224 -4 330 174 328 320c0 149 -79 228 -234 228h-96l-58 -234h203l-19 -71h-202z" />
    <glyph glyph-name="dcroat" unicode="&#x111;" horiz-adv-x="570" 
d="M658 635l-14 -55h-66l-144 -580h-87l14 55h-2c-40 -41 -96 -68 -151 -68c-111 0 -174 73 -174 196c-3 148 104 342 271 337c72 0 127 -39 144 -99h2l39 159h-130l14 55h130l19 77h88l-19 -77h66zM127 196c0 -88 39 -138 107 -138c114 -4 186 142 185 253
c0 88 -39 138 -107 138c-114 4 -186 -142 -185 -253z" />
    <glyph glyph-name="Emacron" unicode="&#x112;" horiz-adv-x="618" 
d="M144 82h378l-20 -82h-470l177 712h459l-20 -82h-367l-56 -225h346l-20 -81h-347zM321 853h284l-15 -65h-284z" />
    <glyph glyph-name="emacron" unicode="&#x113;" horiz-adv-x="550" 
d="M505 236h-379c-4 -20 -6 -38 -6 -53c0 -85 47 -129 120 -129c68 0 124 39 148 98h90c-19 -47 -49 -87 -92 -118c-43 -32 -94 -48 -151 -48c-129 0 -199 76 -199 205c-2 146 109 336 289 331c125 0 193 -73 193 -194c0 -23 -4 -53 -13 -92zM142 303h291c2 11 3 22 3 33
c0 77 -43 118 -115 118c-81 0 -150 -55 -179 -151zM218 680h285l-16 -64h-284z" />
    <glyph glyph-name="Ebreve" unicode="&#x114;" horiz-adv-x="618" 
d="M648 630h-367l-56 -225h346l-20 -81h-347l-60 -242h378l-20 -82h-470l177 712h459zM318 873c0 11 1 19 2 25h59c-1 -3 -1 -8 -1 -14c0 -43 26 -66 71 -66c53 0 93 29 110 80h72c-25 -91 -92 -142 -184 -142c-83 0 -129 42 -129 117z" />
    <glyph glyph-name="ebreve" unicode="&#x115;" horiz-adv-x="550" 
d="M70 343c23 51 56 94 100 128c43 34 95 51 155 51c125 0 193 -73 193 -194c0 -23 -4 -53 -13 -92h-379c-4 -20 -6 -38 -6 -53c0 -85 47 -129 120 -129c68 0 124 39 148 98h90c-19 -47 -49 -87 -92 -118c-43 -32 -94 -48 -151 -48c-129 0 -199 76 -199 205
c0 50 11 101 34 152zM142 303h291c2 11 3 22 3 33c0 77 -43 118 -115 118c-81 0 -150 -55 -179 -151zM524 712c-25 -91 -93 -143 -184 -143c-84 0 -129 42 -129 118c0 11 1 19 2 25h59c-1 -3 -1 -8 -1 -15c0 -43 24 -66 71 -66c53 0 93 29 110 81h72z" />
    <glyph glyph-name="Edotaccent" unicode="&#x116;" horiz-adv-x="618" 
d="M144 82h378l-20 -82h-470l177 712h459l-20 -82h-367l-56 -225h346l-20 -81h-347zM425 874h88l-25 -99h-88z" />
    <glyph glyph-name="edotaccent" unicode="&#x117;" horiz-adv-x="550" 
d="M505 236h-379c-4 -20 -6 -38 -6 -53c0 -85 47 -129 120 -129c68 0 124 39 148 98h90c-19 -47 -49 -87 -92 -118c-43 -32 -94 -48 -151 -48c-129 0 -199 76 -199 205c-2 146 109 336 289 331c125 0 193 -73 193 -194c0 -23 -4 -53 -13 -92zM142 303h291c2 11 3 22 3 33
c0 77 -43 118 -115 118c-81 0 -150 -55 -179 -151zM324 712h88l-24 -99h-88z" />
    <glyph glyph-name="Eogonek" unicode="&#x118;" horiz-adv-x="618" 
d="M648 630h-367l-56 -225h346l-20 -81h-347l-60 -242h378l-20 -82c-77 -47 -102 -80 -102 -111c0 -18 11 -27 32 -27c15 0 28 2 39 7l-14 -56c-15 -5 -33 -7 -52 -7c-59 0 -88 26 -88 71c0 43 33 79 106 123h-391l177 712h459z" />
    <glyph glyph-name="eogonek" unicode="&#x119;" horiz-adv-x="549" 
d="M35 191c-2 146 109 336 289 331c125 0 193 -73 193 -194c0 -24 -5 -55 -14 -92h-379c-3 -22 -5 -40 -5 -53c0 -85 47 -129 120 -129c68 0 124 39 148 98h90c-20 -50 -58 -96 -114 -137c-81 -57 -106 -93 -106 -126c0 -18 11 -27 33 -27c14 0 27 2 39 7l-14 -56
c-15 -5 -33 -7 -52 -7c-59 0 -88 26 -88 71c0 37 23 71 78 108v2l-19 -1c-129 0 -199 76 -199 205zM435 336c0 77 -43 118 -116 118c-80 0 -149 -55 -178 -151h291c2 11 3 22 3 33z" />
    <glyph glyph-name="Ecaron" unicode="&#x11a;" horiz-adv-x="618" 
d="M648 630h-367l-56 -225h346l-20 -81h-347l-60 -242h378l-20 -82h-470l177 712h459zM312 898h79l52 -88l96 88h98l-149 -138h-97z" />
    <glyph glyph-name="ecaron" unicode="&#x11b;" horiz-adv-x="550" 
d="M505 236h-379c-4 -20 -6 -38 -6 -53c0 -85 47 -129 120 -129c68 0 124 39 148 98h90c-19 -47 -49 -87 -92 -118c-43 -32 -94 -48 -151 -48c-129 0 -199 76 -199 205c-2 146 109 336 289 331c125 0 193 -73 193 -194c0 -23 -4 -53 -13 -92zM142 303h291c2 11 3 22 3 33
c0 77 -43 118 -115 118c-81 0 -150 -55 -179 -151zM206 712h81l52 -93l96 93h96l-149 -143h-97z" />
    <glyph glyph-name="Gcircumflex" unicode="&#x11c;" horiz-adv-x="731" 
d="M585 0h-82l20 82h-2c-48 -59 -133 -95 -220 -95c-150 0 -238 112 -238 280c0 73 16 145 47 216s76 129 137 175c61 45 133 68 216 68c153 0 244 -81 244 -212c0 -8 -1 -19 -2 -32h-98c1 4 1 10 1 17c0 91 -57 143 -154 143c-187 5 -299 -205 -297 -373
c0 -127 59 -203 168 -203c54 0 103 18 148 54s76 90 94 163h-196l20 79h284zM306 760l149 138h97l79 -138h-79l-52 89l-96 -89h-98z" />
    <glyph glyph-name="gcircumflex" unicode="&#x11d;" horiz-adv-x="573" 
d="M449 419h2l22 89h85l-124 -502c-32 -131 -125 -199 -258 -199c-121 0 -187 49 -187 133c0 9 1 18 3 28h87c-1 -5 -2 -12 -2 -21c0 -47 38 -72 103 -72c91 0 145 46 173 154l11 45h-2c-46 -46 -99 -69 -158 -69c-105 0 -166 75 -166 199c-2 139 103 322 265 317
c73 0 126 -38 146 -102zM389 413c-20 23 -48 35 -84 35c-106 4 -177 -140 -175 -235c0 -84 37 -134 104 -134c114 -3 186 134 185 235c0 42 -10 75 -30 99zM383 662l-96 -93h-96l149 143h97l79 -143h-81z" />
    <glyph glyph-name="Gbreve" unicode="&#x11e;" horiz-adv-x="731" 
d="M568 605c-27 25 -65 37 -114 37c-187 5 -299 -205 -297 -373c0 -127 59 -203 168 -203c54 0 103 18 148 54s76 90 94 163h-196l20 79h284l-90 -362h-82l20 82h-2c-48 -59 -133 -95 -220 -95c-150 0 -238 112 -238 280c0 73 16 145 47 216s76 129 137 175
c61 45 133 68 216 68c153 0 244 -81 244 -212c0 -8 -1 -19 -2 -32h-98c1 4 1 10 1 17c0 45 -13 81 -40 106zM587 898h72c-25 -91 -92 -142 -184 -142c-83 0 -129 42 -129 117c0 11 1 19 2 25h59c-1 -3 -1 -8 -1 -14c0 -43 26 -66 71 -66c53 0 93 29 110 80z" />
    <glyph glyph-name="gbreve" unicode="&#x11f;" horiz-adv-x="573" 
d="M343 -143c-45 -33 -100 -50 -167 -50c-121 0 -187 49 -187 133c0 9 1 18 3 28h87c-1 -5 -2 -12 -2 -21c0 -47 38 -72 103 -72c91 0 145 46 173 154l11 45h-2c-46 -46 -99 -69 -158 -69c-105 0 -166 75 -166 199c-2 139 103 322 265 317c73 0 126 -38 146 -102h2l22 89h85
l-124 -502c-16 -65 -46 -115 -91 -149zM389 413c-20 23 -48 35 -84 35c-106 4 -177 -140 -175 -235c0 -84 37 -134 104 -134c114 -3 186 134 185 235c0 42 -10 75 -30 99zM360 569c-84 0 -129 42 -129 118c0 11 1 19 2 25h59c-1 -3 -1 -8 -1 -15c0 -43 24 -66 71 -66
c53 0 93 29 110 81h72c-25 -91 -93 -143 -184 -143z" />
    <glyph glyph-name="Gdotaccent" unicode="&#x120;" horiz-adv-x="731" 
d="M707 514c0 -8 -1 -19 -2 -32h-98c1 4 1 10 1 17c0 91 -57 143 -154 143c-187 5 -299 -205 -297 -373c0 -127 59 -203 168 -203c54 0 103 18 148 54s76 90 94 163h-196l20 79h284l-90 -362h-82l20 82h-2c-48 -59 -133 -95 -220 -95c-150 0 -238 112 -238 280
c0 73 16 145 47 216s76 129 137 175c61 45 133 68 216 68c153 0 244 -81 244 -212zM453 874h88l-25 -99h-88z" />
    <glyph glyph-name="gdotaccent" unicode="&#x121;" horiz-adv-x="573" 
d="M449 419h2l22 89h85l-124 -502c-32 -131 -125 -199 -258 -199c-121 0 -187 49 -187 133c0 9 1 18 3 28h87c-1 -5 -2 -12 -2 -21c0 -47 38 -72 103 -72c91 0 145 46 173 154l11 45h-2c-46 -46 -99 -69 -158 -69c-105 0 -166 75 -166 199c-2 139 103 322 265 317
c73 0 126 -38 146 -102zM419 314c0 84 -42 134 -114 134c-106 4 -177 -140 -175 -235c0 -84 37 -134 104 -134c114 -3 186 134 185 235zM408 613h-88l24 99h88z" />
    <glyph glyph-name="Gcommaaccent" unicode="&#x122;" horiz-adv-x="731" 
d="M585 0h-82l20 82h-2c-48 -59 -133 -95 -220 -95c-150 0 -238 112 -238 280c0 73 16 145 47 216s76 129 137 175c61 45 133 68 216 68c153 0 244 -81 244 -212c0 -8 -1 -19 -2 -32h-98c1 4 1 10 1 17c0 91 -57 143 -154 143c-187 5 -299 -205 -297 -373
c0 -127 59 -203 168 -203c54 0 103 18 148 54s76 90 94 163h-196l20 79h284zM189 -257l64 103h-33l21 89h89l-22 -89l-81 -103h-38z" />
    <glyph glyph-name="gcommaaccent" unicode="&#x123;" horiz-adv-x="573" 
d="M449 419h2l22 89h85l-124 -502c-32 -131 -125 -199 -258 -199c-121 0 -187 49 -187 133c0 9 1 18 3 28h87c-1 -5 -2 -12 -2 -21c0 -47 38 -72 103 -72c91 0 145 46 173 154l11 45h-2c-46 -46 -99 -69 -158 -69c-105 0 -166 75 -166 199c-2 139 103 322 265 317
c73 0 126 -38 146 -102zM389 413c-20 23 -48 35 -84 35c-106 4 -177 -140 -175 -235c0 -84 37 -134 104 -134c114 -3 186 134 185 235c0 42 -10 75 -30 99zM420 672l-21 -89h-89l21 89l82 103h38l-64 -103h33z" />
    <glyph glyph-name="Hcircumflex" unicode="&#x124;" horiz-adv-x="737" 
d="M757 712l-177 -712h-93l82 329h-363l-82 -329h-92l177 712h92l-75 -302h364l74 302h93zM332 760l149 138h97l79 -138h-79l-52 89l-96 -89h-98z" />
    <glyph glyph-name="hcircumflex" unicode="&#x125;" 
d="M514 297l-74 -297h-88l73 297c6 25 9 47 9 64c0 57 -31 86 -88 86c-75 0 -145 -57 -170 -156l-73 -291h-88l177 712h88l-65 -261h2c41 43 98 68 157 68c95 0 150 -51 150 -147c0 -23 -3 -48 -10 -75zM400 898h97l79 -138h-79l-52 89l-96 -89h-98z" />
    <glyph glyph-name="Hbar" unicode="&#x126;" horiz-adv-x="737" 
d="M781 574h-58l-143 -574h-93l82 329h-363l-82 -329h-92l143 574h-59l15 58h58l20 80h92l-20 -80h363l20 80h93l-20 -80h58zM226 410h364l40 164h-363z" />
    <glyph glyph-name="hbar" unicode="&#x127;" 
d="M514 297l-74 -297h-88l73 297c6 25 9 47 9 64c0 57 -31 86 -88 86c-75 0 -145 -57 -170 -156l-73 -291h-88l144 580h-71l13 52h71l20 80h88l-20 -80h125l-13 -52h-125l-32 -129h2c41 43 98 68 157 68c95 0 150 -51 150 -147c0 -23 -3 -48 -10 -75z" />
    <glyph glyph-name="Itilde" unicode="&#x128;" horiz-adv-x="282" 
d="M209 712h92l-177 -712h-92zM426 807c-22 -20 -47 -30 -75 -30c-31 0 -50 10 -78 29c-27 16 -36 22 -55 22c-27 0 -47 -17 -58 -51h-60c20 72 66 115 122 115c31 0 51 -10 80 -29c21 -15 38 -22 53 -22c28 0 48 17 61 51h58c-11 -37 -27 -65 -48 -85z" />
    <glyph glyph-name="itilde" unicode="&#x129;" horiz-adv-x="244" 
d="M15 0l126 508h88l-126 -508h-88zM343 621c-20 -20 -43 -30 -69 -30c-25 0 -43 10 -67 29c-24 16 -32 22 -47 22c-23 0 -40 -17 -50 -51h-59c23 73 64 115 115 115c27 0 45 -11 69 -30c19 -15 30 -21 45 -21c23 0 41 17 53 51h56c-11 -37 -26 -65 -46 -85z" />
    <glyph glyph-name="Imacron" unicode="&#x12a;" horiz-adv-x="282" 
d="M209 712h92l-177 -712h-92zM133 788l15 65h284l-15 -65h-284z" />
    <glyph glyph-name="imacron" unicode="&#x12b;" horiz-adv-x="244" 
d="M15 0l126 508h88l-126 -508h-88zM83 616l16 64h257l-16 -64h-257z" />
    <glyph glyph-name="Ibreve" unicode="&#x12c;" horiz-adv-x="282" 
d="M124 0h-92l177 712h92zM144 873c0 11 1 19 2 25h59c-1 -3 -1 -8 -1 -14c0 -43 26 -66 71 -66c53 0 93 29 110 80h72c-25 -91 -92 -142 -184 -142c-83 0 -129 42 -129 117z" />
    <glyph glyph-name="ibreve" unicode="&#x12d;" horiz-adv-x="244" 
d="M103 0h-88l126 508h88zM97 712h58c-1 -3 -1 -9 -1 -18c0 -40 22 -63 59 -63c44 0 77 29 93 81h69c-24 -91 -87 -143 -168 -143c-72 0 -113 41 -113 113c0 11 1 21 3 30z" />
    <glyph glyph-name="Iogonek" unicode="&#x12e;" horiz-adv-x="282" 
d="M-36 -62c17 19 44 40 81 62h-13l177 712h92l-177 -712c-77 -47 -102 -80 -102 -111c0 -18 11 -27 32 -27c15 0 28 2 39 7l-14 -56c-15 -5 -33 -7 -52 -7c-59 0 -88 26 -88 71c0 21 8 42 25 61z" />
    <glyph glyph-name="iogonek" unicode="&#x12f;" horiz-adv-x="244" 
d="M-82 -123c0 43 33 79 106 123h-9l126 508h88l-126 -508c-77 -47 -102 -80 -102 -111c0 -18 11 -27 32 -27c15 0 28 2 39 7l-14 -56c-15 -5 -33 -7 -52 -7c-59 0 -88 26 -88 71zM256 613h-88l24 99h88z" />
    <glyph glyph-name="Idotaccent" unicode="&#x130;" horiz-adv-x="282" 
d="M209 712h92l-177 -712h-92zM252 874h88l-25 -99h-88z" />
    <glyph glyph-name="dotlessi" unicode="&#x131;" horiz-adv-x="244" 
d="M141 508h88l-126 -508h-88z" />
    <glyph glyph-name="IJ" unicode="&#x132;" horiz-adv-x="637" 
d="M235 4l19 79c13 -3 26 -5 38 -5c81 0 130 40 155 144l123 490h92l-130 -521c-32 -131 -112 -196 -239 -196c-25 0 -44 3 -58 9zM209 712h92l-177 -712h-92z" />
    <glyph glyph-name="ij" unicode="&#x133;" horiz-adv-x="493" 
d="M113 -182l17 68c9 -2 18 -3 27 -3c53 0 84 27 103 102l130 523h88l-137 -548c-25 -99 -82 -149 -172 -149c-21 0 -40 2 -56 7zM141 508h88l-126 -508h-88zM192 712h88l-24 -99h-88zM505 613h-88l24 99h88z" />
    <glyph glyph-name="Jcircumflex" unicode="&#x134;" horiz-adv-x="356" 
d="M10 78c81 0 130 40 155 144l123 490h92l-130 -521c-32 -131 -112 -196 -239 -196c-25 0 -44 3 -58 9l19 79c13 -3 26 -5 38 -5zM332 898h97l79 -138h-79l-52 89l-96 -89h-98z" />
    <glyph glyph-name="jcircumflex" unicode="&#x135;" horiz-adv-x="249" 
d="M-87 -117c53 0 84 27 103 102l130 523h88l-137 -548c-25 -99 -82 -149 -172 -149c-21 0 -40 2 -56 7l17 68c9 -2 18 -3 27 -3zM193 712h96l64 -142h-77l-39 93l-86 -93h-93z" />
    <glyph glyph-name="Kcommaaccent" unicode="&#x136;" horiz-adv-x="625" 
d="M706 712l-395 -345l247 -367h-112l-231 357h-2l-89 -357h-92l177 712h92l-78 -314h2l354 314h127zM215 -154h-33l21 89h89l-22 -89l-81 -103h-38z" />
    <glyph glyph-name="kcommaaccent" unicode="&#x137;" horiz-adv-x="500" 
d="M545 508l-286 -237l187 -271h-103l-174 259h-2l-64 -259h-88l177 712h88l-102 -410h2l244 206h121zM172 -154h-33l21 89h89l-22 -89l-81 -103h-38z" />
    <glyph glyph-name="kgreenlandic" unicode="&#x138;" horiz-adv-x="517" 
d="M15 0l126 508h88l-51 -206h2l244 206h121l-286 -237l187 -271h-103l-174 259h-2l-64 -259h-88z" />
    <glyph glyph-name="Lacute" unicode="&#x139;" horiz-adv-x="561" 
d="M209 712h92l-157 -630h363l-19 -82h-456zM348 898h118l-153 -138h-81z" />
    <glyph glyph-name="lacute" unicode="&#x13a;" horiz-adv-x="244" 
d="M192 712h88l-177 -712h-88zM321 916h118l-153 -143h-81z" />
    <glyph glyph-name="Lcommaaccent" unicode="&#x13b;" horiz-adv-x="561" 
d="M209 712h92l-157 -630h363l-19 -82h-456zM146 -257l64 103h-33l21 89h89l-22 -89l-81 -103h-38z" />
    <glyph glyph-name="lcommaaccent" unicode="&#x13c;" horiz-adv-x="244" 
d="M15 0l177 712h88l-177 -712h-88zM-49 -257l64 103h-33l21 89h89l-22 -89l-81 -103h-38z" />
    <glyph glyph-name="Lcaron" unicode="&#x13d;" horiz-adv-x="561" 
d="M209 712h92l-157 -630h363l-19 -82h-456zM389 712h80l-109 -218h-54z" />
    <glyph glyph-name="lcaron" unicode="&#x13e;" horiz-adv-x="244" 
d="M15 0l177 712h88l-177 -712h-88zM272 536l73 176h79l-98 -176h-54z" />
    <glyph glyph-name="Ldot" unicode="&#x13f;" horiz-adv-x="641" 
d="M209 712h92l-157 -630h363l-19 -82h-456zM458 471h108l-29 -117h-108z" />
    <glyph glyph-name="ldot" unicode="&#x140;" horiz-adv-x="406" 
d="M15 0l177 712h88l-177 -712h-88zM310 414h108l-29 -117h-108z" />
    <glyph glyph-name="Lslash" unicode="&#x141;" horiz-adv-x="561" 
d="M15 253l23 91l91 48l80 320h92l-68 -273l170 88l-23 -92l-170 -88l-66 -265h363l-19 -82h-456l75 300z" />
    <glyph glyph-name="lslash" unicode="&#x142;" horiz-adv-x="285" 
d="M38 366l102 52l73 294h88l-62 -251l101 53l-22 -88l-101 -53l-93 -373h-88l82 330l-102 -52z" />
    <glyph glyph-name="Nacute" unicode="&#x143;" horiz-adv-x="755" 
d="M775 712l-177 -712h-128l-97 307c-37 120 -70 226 -98 319h-2c-33 -145 -60 -259 -81 -341l-70 -285h-90l177 712h127l97 -307c30 -94 59 -188 87 -282l11 -37h2c33 143 59 256 80 341l72 285h90zM437 760l116 138h118l-153 -138h-81z" />
    <glyph glyph-name="nacute" unicode="&#x144;" 
d="M514 297l-74 -297h-88l73 297c6 25 9 47 9 64c0 57 -31 86 -88 86c-75 0 -145 -57 -170 -156l-73 -291h-88l127 508h85l-16 -60h2c43 44 101 71 161 71c95 0 150 -51 150 -147c0 -23 -3 -48 -10 -75zM303 569l116 143h118l-153 -143h-81z" />
    <glyph glyph-name="Ncommaaccent" unicode="&#x145;" horiz-adv-x="755" 
d="M775 712l-177 -712h-128l-97 307c-37 120 -70 226 -98 319h-2c-33 -145 -60 -259 -81 -341l-70 -285h-90l177 712h127l97 -307c30 -94 59 -188 87 -282l11 -37h2c33 143 59 256 80 341l72 285h90zM266 -154h-33l21 89h89l-22 -89l-81 -103h-38z" />
    <glyph glyph-name="ncommaaccent" unicode="&#x146;" 
d="M514 297l-74 -297h-88l73 297c6 25 9 47 9 64c0 57 -31 86 -88 86c-75 0 -145 -57 -170 -156l-73 -291h-88l127 508h85l-16 -60h2c43 44 101 71 161 71c95 0 150 -51 150 -147c0 -23 -3 -48 -10 -75zM178 -154h-33l21 89h89l-22 -89l-81 -103h-38z" />
    <glyph glyph-name="Ncaron" unicode="&#x147;" horiz-adv-x="755" 
d="M775 712l-177 -712h-128l-97 307c-37 120 -70 226 -98 319h-2c-33 -145 -60 -259 -81 -341l-70 -285h-90l177 712h127l97 -307c30 -94 59 -188 87 -282l11 -37h2c33 143 59 256 80 341l72 285h90zM376 898h79l52 -88l96 88h98l-149 -138h-97z" />
    <glyph glyph-name="ncaron" unicode="&#x148;" 
d="M514 297l-74 -297h-88l73 297c6 25 9 47 9 64c0 57 -31 86 -88 86c-75 0 -145 -57 -170 -156l-73 -291h-88l127 508h85l-16 -60h2c43 44 101 71 161 71c95 0 150 -51 150 -147c0 -23 -3 -48 -10 -75zM241 712h81l52 -93l96 93h96l-149 -143h-97z" />
    <glyph glyph-name="napostrophe" unicode="&#x149;" horiz-adv-x="694" 
d="M633 297l-74 -297h-88l73 297c6 25 9 47 9 64c0 57 -31 86 -88 86c-75 0 -145 -57 -170 -156l-73 -291h-88l127 508h85l-16 -60h2c43 44 101 71 161 71c95 0 150 -51 150 -147c0 -23 -3 -48 -10 -75zM191 604h-34l26 108h100l-27 -108l-81 -134h-53z" />
    <glyph glyph-name="Eng" unicode="&#x14a;" horiz-adv-x="744" 
d="M764 712l-189 -754c-25 -99 -84 -148 -177 -148c-21 0 -38 2 -52 7l16 68c10 -2 20 -3 30 -3c51 0 82 26 98 94l7 25l-122 327c-27 71 -61 167 -102 287h-2c-15 -70 -40 -175 -75 -315l-74 -300h-90l177 712h117l104 -285c23 -63 58 -159 103 -287h2
c23 102 47 207 74 315l64 257h91z" />
    <glyph glyph-name="eng" unicode="&#x14b;" 
d="M514 297l-85 -337c-25 -104 -88 -149 -172 -149c-22 0 -41 2 -57 7l17 68c10 -2 19 -3 28 -3c53 0 83 27 102 102l78 312c6 25 9 47 9 64c0 57 -31 86 -88 86c-75 0 -145 -57 -170 -156l-73 -291h-88l127 508h85l-16 -60h2c43 44 101 71 161 71c95 0 150 -51 150 -147
c0 -23 -3 -48 -10 -75z" />
    <glyph glyph-name="Omacron" unicode="&#x14c;" horiz-adv-x="732" 
d="M718 431c0 -70 -15 -139 -45 -208c-31 -69 -75 -125 -132 -170s-125 -67 -203 -67c-173 0 -273 119 -273 295c0 70 15 139 45 208s74 125 131 170s125 67 203 67c172 0 274 -119 274 -295zM207 128c32 -39 77 -58 134 -58c172 -5 285 198 283 360c0 129 -68 212 -183 212
c-57 0 -107 -18 -150 -55s-76 -83 -99 -139s-34 -112 -34 -167c0 -64 16 -115 49 -153zM349 853h284l-15 -65h-284z" />
    <glyph glyph-name="omacron" unicode="&#x14d;" horiz-adv-x="565" 
d="M72 350c21 49 53 90 96 123s94 49 153 49c132 0 205 -78 205 -214c2 -146 -105 -326 -284 -322c-131 0 -203 78 -203 214c0 50 11 100 33 150zM129 200c0 -91 41 -142 120 -142c119 -4 188 143 187 250c0 91 -42 142 -122 142c-118 4 -186 -143 -185 -250zM495 616h-284
l15 64h285z" />
    <glyph glyph-name="Obreve" unicode="&#x14e;" horiz-adv-x="732" 
d="M686 586c21 -45 32 -96 32 -155c0 -70 -15 -139 -45 -208c-31 -69 -75 -125 -132 -170s-125 -67 -203 -67c-173 0 -273 119 -273 295c0 70 15 139 45 208s74 125 131 170s125 67 203 67c115 0 198 -52 242 -140zM207 128c32 -39 77 -58 134 -58c172 -5 285 198 283 360
c0 129 -68 212 -183 212c-57 0 -107 -18 -150 -55s-76 -83 -99 -139s-34 -112 -34 -167c0 -64 16 -115 49 -153zM345 873c0 11 1 19 2 25h59c-1 -3 -1 -8 -1 -14c0 -43 26 -66 71 -66c53 0 93 29 110 80h72c-25 -91 -92 -142 -184 -142c-83 0 -129 42 -129 117z" />
    <glyph glyph-name="obreve" unicode="&#x14f;" horiz-adv-x="565" 
d="M493 159c-22 -50 -54 -91 -97 -124s-95 -49 -154 -49c-131 0 -203 78 -203 214c-2 146 103 326 282 322c132 0 205 -78 205 -214c0 -50 -11 -100 -33 -149zM160 95c20 -25 50 -37 89 -37c119 -4 188 143 187 250c0 91 -42 142 -122 142c-118 4 -186 -143 -185 -250
c0 -45 10 -80 31 -105zM219 687c0 11 1 19 2 25h59c-1 -3 -1 -8 -1 -15c0 -43 24 -66 71 -66c53 0 93 29 110 81h72c-25 -91 -93 -143 -184 -143c-84 0 -129 42 -129 118z" />
    <glyph glyph-name="Ohungarumlaut" unicode="&#x150;" horiz-adv-x="732" 
d="M718 431c0 -70 -15 -139 -45 -208c-31 -69 -75 -125 -132 -170s-125 -67 -203 -67c-173 0 -273 119 -273 295c0 70 15 139 45 208s74 125 131 170s125 67 203 67c172 0 274 -119 274 -295zM158 281c0 -128 68 -211 183 -211c172 -5 285 198 283 360
c0 129 -68 212 -183 212c-57 0 -107 -18 -150 -55s-76 -83 -99 -139s-34 -112 -34 -167zM480 756l138 142h109l-168 -142h-79zM320 756l138 142h109l-168 -142h-79z" />
    <glyph glyph-name="ohungarumlaut" unicode="&#x151;" horiz-adv-x="565" 
d="M39 200c-2 146 103 326 282 322c132 0 205 -78 205 -214c2 -146 -105 -326 -284 -322c-131 0 -203 78 -203 214zM129 200c0 -91 41 -142 120 -142c119 -4 188 143 187 250c0 91 -42 142 -122 142c-118 4 -186 -143 -185 -250zM203 569l136 143h109l-166 -143h-79z
M608 712l-166 -143h-79l136 143h109z" />
    <glyph glyph-name="OE" unicode="&#x152;" horiz-adv-x="999" 
d="M1029 630h-367l-56 -225h347l-21 -81h-346l-61 -242h378l-20 -82h-511c-200 0 -304 107 -304 304c0 66 15 130 46 193c31 62 78 113 142 154s143 61 236 61h557zM218 140c36 -39 90 -58 161 -58h54l137 548h-82c-222 4 -326 -174 -324 -320c0 -75 18 -131 54 -170z" />
    <glyph glyph-name="oe" unicode="&#x153;" horiz-adv-x="897" 
d="M736 152h90c-19 -47 -49 -87 -91 -118c-42 -32 -91 -48 -146 -48c-81 0 -137 38 -162 106c-48 -65 -116 -106 -200 -106c-121 0 -189 78 -189 211c-2 147 104 330 276 325c84 0 142 -40 169 -112c48 69 117 112 201 112c119 0 181 -71 181 -191c0 -28 -4 -60 -13 -95
h-360c-4 -20 -6 -38 -6 -55c0 -84 42 -127 109 -127c64 0 116 39 141 98zM128 197c0 -88 39 -139 111 -139c115 -4 184 146 182 253c0 88 -37 139 -109 139c-116 4 -185 -146 -184 -253zM675 454c-75 0 -139 -55 -167 -151h273c2 12 3 24 3 35c0 76 -40 116 -109 116z" />
    <glyph glyph-name="Racute" unicode="&#x154;" horiz-adv-x="640" 
d="M616 456c-29 -59 -85 -106 -161 -121v-2c41 -15 60 -49 72 -134l25 -199h-94l-21 188c-5 43 -15 72 -31 88c-17 16 -44 24 -83 24h-124l-75 -300h-92l177 712h216c143 0 212 -60 212 -169c0 -29 -7 -58 -21 -87zM361 378c127 0 179 81 179 146c0 73 -43 109 -128 109
h-131l-63 -255h143zM355 760l116 138h118l-153 -138h-81z" />
    <glyph glyph-name="racute" unicode="&#x155;" horiz-adv-x="362" 
d="M103 0h-88l126 508h84l-18 -71h2c49 51 105 76 169 76c15 0 27 -1 37 -4l-20 -79c-22 2 -34 3 -35 3c-96 0 -165 -62 -193 -174zM335 712h118l-153 -143h-81z" />
    <glyph glyph-name="Rcommaaccent" unicode="&#x156;" horiz-adv-x="640" 
d="M616 456c-29 -59 -85 -106 -161 -121v-2c41 -15 60 -49 72 -134l25 -199h-94l-21 188c-5 43 -15 72 -31 88c-17 16 -44 24 -83 24h-124l-75 -300h-92l177 712h216c143 0 212 -60 212 -169c0 -29 -7 -58 -21 -87zM218 378h143c127 0 179 81 179 146c0 73 -43 109 -128 109
h-131zM176 -257l64 103h-33l21 89h89l-22 -89l-81 -103h-38z" />
    <glyph glyph-name="rcommaaccent" unicode="&#x157;" horiz-adv-x="362" 
d="M395 430c-22 2 -34 3 -35 3c-96 0 -165 -62 -193 -174l-64 -259h-88l126 508h84l-18 -71h2c49 51 105 76 169 76c15 0 27 -1 37 -4zM15 -154h-33l21 89h89l-22 -89l-81 -103h-38z" />
    <glyph glyph-name="Rcaron" unicode="&#x158;" horiz-adv-x="640" 
d="M616 456c-29 -59 -85 -106 -161 -121v-2c41 -15 60 -49 72 -134l25 -199h-94l-21 188c-5 43 -15 72 -31 88c-17 16 -44 24 -83 24h-124l-75 -300h-92l177 712h216c143 0 212 -60 212 -169c0 -29 -7 -58 -21 -87zM361 378c127 0 179 81 179 146c0 73 -43 109 -128 109
h-131l-63 -255h143zM373 898l52 -88l96 88h98l-149 -138h-97l-79 138h79z" />
    <glyph glyph-name="rcaron" unicode="&#x159;" horiz-adv-x="362" 
d="M395 430c-22 2 -34 3 -35 3c-96 0 -165 -62 -193 -174l-64 -259h-88l126 508h84l-18 -71h2c49 51 105 76 169 76c15 0 27 -1 37 -4zM158 712h81l52 -93l96 93h96l-149 -143h-97z" />
    <glyph glyph-name="Sacute" unicode="&#x15a;" horiz-adv-x="609" 
d="M520 305c16 -25 24 -57 24 -96c2 -104 -103 -226 -282 -223c-151 0 -234 66 -234 189c0 20 2 40 7 61h94c-4 -19 -6 -36 -6 -51c0 -80 52 -120 148 -120c123 0 176 72 176 133c-4 70 -41 89 -140 125c-84 29 -131 51 -162 99c-15 24 -23 55 -23 93c-2 96 95 214 262 211
c151 0 226 -59 226 -178c0 -19 -2 -37 -7 -56h-93c3 18 5 32 5 43c0 75 -49 112 -140 112c-103 0 -158 -62 -158 -121c0 -31 11 -54 32 -70c21 -17 57 -33 108 -50c83 -28 131 -52 163 -101zM565 898l-153 -138h-81l116 138h118z" />
    <glyph glyph-name="sacute" unicode="&#x15b;" horiz-adv-x="494" 
d="M375 349c2 18 3 28 3 31c0 48 -35 74 -99 74c-67 0 -108 -30 -108 -78c4 -47 19 -51 101 -79c68 -23 103 -36 131 -73c13 -19 20 -44 20 -75c0 -83 -75 -163 -219 -163c-121 0 -191 49 -191 141c0 17 2 31 5 42h89c-3 -10 -4 -21 -4 -34c0 -51 37 -79 108 -79
c77 0 120 32 120 85c0 23 -8 40 -25 51s-47 24 -90 38c-61 20 -91 31 -115 66c-12 17 -18 41 -18 71c0 80 74 155 204 155c116 0 177 -47 177 -134c0 -15 -1 -28 -4 -39h-85zM475 712l-153 -143h-81l116 143h118z" />
    <glyph glyph-name="Scircumflex" unicode="&#x15c;" horiz-adv-x="609" 
d="M447 198c-4 70 -41 89 -140 125c-84 29 -131 51 -162 99c-15 24 -23 55 -23 93c-2 96 95 214 262 211c151 0 226 -59 226 -178c0 -19 -2 -37 -7 -56h-93c3 18 5 32 5 43c0 75 -49 112 -140 112c-103 0 -158 -62 -158 -121c0 -31 11 -54 32 -70c21 -17 57 -33 108 -50
c83 -28 131 -52 163 -101c16 -25 24 -57 24 -96c2 -104 -103 -226 -282 -223c-151 0 -234 66 -234 189c0 20 2 40 7 61h94c-4 -19 -6 -36 -6 -51c0 -80 52 -120 148 -120c123 0 176 72 176 133zM481 760l-52 89l-96 -89h-98l149 138h97l79 -138h-79z" />
    <glyph glyph-name="scircumflex" unicode="&#x15d;" horiz-adv-x="494" 
d="M403 224c13 -19 20 -44 20 -75c0 -83 -75 -163 -219 -163c-121 0 -191 49 -191 141c0 17 2 31 5 42h89c-3 -10 -4 -21 -4 -34c0 -51 37 -79 108 -79c77 0 120 32 120 85c0 23 -8 40 -25 51s-47 24 -90 38c-61 20 -91 31 -115 66c-12 17 -18 41 -18 71
c0 80 74 155 204 155c116 0 177 -47 177 -134c0 -15 -1 -28 -4 -39h-85c2 18 3 28 3 31c0 48 -35 74 -99 74c-67 0 -108 -30 -108 -78c4 -47 19 -51 101 -79c68 -23 103 -36 131 -73zM389 569l-52 93l-96 -93h-96l149 143h97l79 -143h-81z" />
    <glyph glyph-name="Scedilla" unicode="&#x15e;" horiz-adv-x="609" 
d="M289 629c-48 -24 -72 -63 -72 -103c0 -31 11 -54 32 -70c21 -17 57 -33 108 -50c83 -28 131 -52 163 -101c16 -25 24 -57 24 -96c2 -98 -91 -215 -254 -222l-44 -49c5 1 12 2 19 2c39 0 65 -24 65 -67c0 -26 -12 -48 -36 -66c-25 -18 -55 -27 -92 -27c-38 0 -71 9 -99 27
l21 37c23 -14 49 -21 76 -21c40 0 66 19 66 47c0 23 -15 36 -42 36c-12 0 -23 -2 -33 -6l-17 16l65 71c-136 7 -211 72 -211 188c0 20 2 40 7 61h94c-4 -19 -6 -36 -6 -51c0 -80 52 -120 148 -120c123 0 176 72 176 133c-4 70 -41 89 -140 125c-84 29 -131 51 -162 99
c-15 24 -23 55 -23 93c-2 96 95 214 262 211c151 0 226 -59 226 -178c0 -19 -2 -37 -7 -56h-93c3 18 5 32 5 43c0 75 -49 112 -140 112c-34 0 -63 -6 -86 -18z" />
    <glyph glyph-name="scedilla" unicode="&#x15f;" horiz-adv-x="494" 
d="M300 79c21 15 31 35 31 62c0 23 -8 40 -25 51s-47 24 -90 38c-61 20 -91 31 -115 66c-12 17 -18 41 -18 71c0 80 74 155 204 155c116 0 177 -47 177 -134c0 -15 -1 -28 -4 -39h-85c2 18 3 28 3 31c0 48 -35 74 -99 74c-67 0 -108 -30 -108 -78c4 -47 19 -51 101 -79
c68 -23 103 -36 131 -73c13 -19 20 -44 20 -75c0 -77 -66 -152 -191 -162l-44 -49c5 1 12 2 19 2c39 0 65 -24 65 -67c0 -26 -12 -48 -36 -66c-25 -18 -55 -27 -92 -27c-38 0 -71 9 -99 27l21 37c23 -14 49 -21 76 -21c40 0 66 19 66 47c0 23 -15 36 -42 36
c-12 0 -23 -2 -33 -6l-17 16l65 71c-108 7 -168 55 -168 140c0 17 2 31 5 42h89c-3 -10 -4 -21 -4 -34c0 -51 37 -79 108 -79c39 0 68 8 89 23z" />
    <glyph glyph-name="Scaron" unicode="&#x160;" horiz-adv-x="609" 
d="M447 198c-4 70 -41 89 -140 125c-84 29 -131 51 -162 99c-15 24 -23 55 -23 93c-2 96 95 214 262 211c151 0 226 -59 226 -178c0 -19 -2 -37 -7 -56h-93c3 18 5 32 5 43c0 75 -49 112 -140 112c-103 0 -158 -62 -158 -121c0 -31 11 -54 32 -70c21 -17 57 -33 108 -50
c83 -28 131 -52 163 -101c16 -25 24 -57 24 -96c2 -104 -103 -226 -282 -223c-151 0 -234 66 -234 189c0 20 2 40 7 61h94c-4 -19 -6 -36 -6 -51c0 -80 52 -120 148 -120c123 0 176 72 176 133zM446 760h-97l-79 138h79l52 -88l96 88h98z" />
    <glyph glyph-name="scaron" unicode="&#x161;" horiz-adv-x="494" 
d="M403 224c13 -19 20 -44 20 -75c0 -83 -75 -163 -219 -163c-121 0 -191 49 -191 141c0 17 2 31 5 42h89c-3 -10 -4 -21 -4 -34c0 -51 37 -79 108 -79c77 0 120 32 120 85c0 23 -8 40 -25 51s-47 24 -90 38c-61 20 -91 31 -115 66c-12 17 -18 41 -18 71
c0 80 74 155 204 155c116 0 177 -47 177 -134c0 -15 -1 -28 -4 -39h-85c2 18 3 28 3 31c0 48 -35 74 -99 74c-67 0 -108 -30 -108 -78c4 -47 19 -51 101 -79c68 -23 103 -36 131 -73zM356 569h-97l-79 143h81l52 -93l96 93h96z" />
    <glyph glyph-name="Tcommaaccent" unicode="&#x162;" horiz-adv-x="292" 
d="M104 630l20 82h579l-20 -82h-243l-157 -630h-93l157 630h-243zM128 -257l64 103h-33l21 89h89l-22 -89l-81 -103h-38z" />
    <glyph glyph-name="tcommaaccent" unicode="&#x163;" horiz-adv-x="320" 
d="M333 438h-100l-70 -281c-4 -15 -6 -27 -6 -38c0 -35 17 -50 56 -50c11 0 23 1 35 4l-19 -72c-12 -3 -26 -5 -42 -5c-83 0 -120 32 -120 105c0 17 3 38 9 62l69 275h-89l18 70h88l31 123h88l-31 -123h101zM12 -257l64 103h-33l21 89h89l-22 -89l-81 -103h-38z" />
    <glyph glyph-name="Tcaron" unicode="&#x164;" horiz-adv-x="599" 
d="M104 630l20 82h579l-20 -82h-243l-157 -630h-93l157 630h-243zM289 898h79l52 -88l96 88h98l-149 -138h-97z" />
    <glyph glyph-name="tcaron" unicode="&#x165;" horiz-adv-x="320" 
d="M74 508h88l31 123h88l-31 -123h101l-18 -70h-100l-70 -281c-4 -15 -6 -27 -6 -38c0 -35 17 -50 56 -50c11 0 23 1 35 4l-19 -72c-12 -3 -26 -5 -42 -5c-83 0 -120 32 -120 105c0 17 3 38 9 62l69 275h-89zM443 712l-98 -176h-54l73 176h79z" />
    <glyph glyph-name="Tbar" unicode="&#x166;" horiz-adv-x="599" 
d="M703 712l-20 -82h-243l-55 -221h141l-18 -72h-141l-84 -337h-93l84 337h-141l18 72h141l55 221h-243l20 82h579z" />
    <glyph glyph-name="tbar" unicode="&#x167;" horiz-adv-x="318" 
d="M333 438h-100l-34 -136h97l-14 -59h-98l-21 -86c-4 -15 -6 -27 -6 -38c0 -35 17 -50 56 -50c11 0 23 1 35 4l-19 -72c-12 -3 -26 -5 -42 -5c-83 0 -119 32 -119 105c0 21 3 41 9 62l20 80h-86l14 59h86l34 136h-89l18 70h89l30 123h88l-31 -123h101z" />
    <glyph glyph-name="Utilde" unicode="&#x168;" horiz-adv-x="705" 
d="M731 712l-121 -483c-40 -159 -146 -243 -301 -243c-144 0 -223 77 -223 214c0 31 4 65 13 100l104 412h92l-107 -431c-7 -27 -11 -52 -11 -75c0 -89 49 -136 140 -136c103 0 176 62 207 182l114 460h93zM301 777c20 72 66 115 122 115c31 0 51 -10 80 -29
c21 -15 38 -22 53 -22c28 0 48 17 61 51h58c-21 -73 -67 -115 -123 -115c-31 0 -50 10 -78 29c-27 16 -36 22 -55 22c-27 0 -47 -17 -58 -51h-60z" />
    <glyph glyph-name="utilde" unicode="&#x169;" 
d="M62 211l74 297h88l-74 -297c-5 -22 -8 -43 -8 -64c0 -57 31 -86 87 -86c76 0 146 57 171 156l73 291h88l-127 -508h-85l15 60h-2c-41 -44 -100 -71 -161 -71c-95 0 -150 51 -150 147c0 21 4 46 11 75zM505 706h58c-21 -73 -66 -115 -122 -115c-31 0 -50 10 -78 29
c-24 15 -35 22 -54 22c-27 0 -47 -17 -58 -51h-60c20 72 66 115 122 115c31 0 51 -10 79 -29c23 -15 36 -22 53 -22c28 0 48 17 60 51z" />
    <glyph glyph-name="Umacron" unicode="&#x16a;" horiz-adv-x="705" 
d="M731 712l-121 -483c-40 -159 -146 -243 -301 -243c-144 0 -223 77 -223 214c0 31 4 65 13 100l104 412h92l-107 -431c-7 -27 -11 -52 -11 -75c0 -89 49 -136 140 -136c103 0 176 62 207 182l114 460h93zM349 853h284l-15 -65h-284z" />
    <glyph glyph-name="umacron" unicode="&#x16b;" 
d="M62 211l74 297h88l-74 -297c-5 -22 -8 -43 -8 -64c0 -57 31 -86 87 -86c76 0 146 57 171 156l73 291h88l-127 -508h-85l15 60h-2c-41 -44 -100 -71 -161 -71c-95 0 -150 51 -150 147c0 21 4 46 11 75zM510 616h-284l15 64h285z" />
    <glyph glyph-name="Ubreve" unicode="&#x16c;" horiz-adv-x="705" 
d="M731 712l-121 -483c-40 -159 -146 -243 -301 -243c-144 0 -223 77 -223 214c0 31 4 65 13 100l104 412h92l-107 -431c-7 -27 -11 -52 -11 -75c0 -89 49 -136 140 -136c103 0 176 62 207 182l114 460h93zM346 873c0 11 1 19 2 25h59c-1 -3 -1 -8 -1 -14
c0 -43 26 -66 71 -66c53 0 93 29 110 80h72c-25 -91 -92 -142 -184 -142c-83 0 -129 42 -129 117z" />
    <glyph glyph-name="ubreve" unicode="&#x16d;" 
d="M62 211l74 297h88l-74 -297c-5 -22 -8 -43 -8 -64c0 -57 31 -86 87 -86c76 0 146 57 171 156l73 291h88l-127 -508h-85l15 60h-2c-41 -44 -100 -71 -161 -71c-95 0 -150 51 -150 147c0 21 4 46 11 75zM481 607c-33 -25 -72 -38 -117 -38c-84 0 -129 42 -129 118
c0 11 1 19 2 25h59c-1 -3 -1 -8 -1 -15c0 -43 24 -66 71 -66c53 0 93 29 110 81h72c-13 -45 -35 -80 -67 -105z" />
    <glyph glyph-name="Uring" unicode="&#x16e;" horiz-adv-x="705" 
d="M731 712l-121 -483c-40 -159 -146 -243 -301 -243c-144 0 -223 77 -223 214c0 31 4 65 13 100l104 412h92l-107 -431c-7 -27 -11 -52 -11 -75c0 -89 49 -136 140 -136c103 0 176 62 207 182l114 460h93zM381 852c0 28 10 52 30 72c19 19 43 29 70 29c28 0 52 -10 72 -29
c19 -20 29 -44 29 -72c0 -27 -10 -51 -29 -70c-20 -20 -44 -30 -72 -30c-27 0 -51 10 -70 30c-20 19 -30 43 -30 70zM423 852c0 -32 26 -57 58 -57c33 0 58 25 58 57s-25 58 -58 58c-32 0 -58 -26 -58 -58z" />
    <glyph glyph-name="uring" unicode="&#x16f;" 
d="M434 0h-85l15 60h-2c-41 -44 -100 -71 -161 -71c-95 0 -150 51 -150 147c0 21 4 46 11 75l74 297h88l-74 -297c-5 -22 -8 -43 -8 -64c0 -57 31 -86 87 -86c76 0 146 57 171 156l73 291h88zM300 737c19 19 43 29 70 29c28 0 52 -10 72 -29c19 -20 29 -44 29 -71
c0 -28 -10 -52 -29 -71c-20 -20 -44 -30 -72 -30c-27 0 -51 10 -70 30c-20 19 -30 43 -30 71c0 27 10 51 30 71zM313 666c0 -32 26 -58 57 -58c33 0 58 25 58 58c0 32 -25 58 -58 58c-31 0 -57 -26 -57 -58z" />
    <glyph glyph-name="Uhungarumlaut" unicode="&#x170;" horiz-adv-x="705" 
d="M731 712l-121 -483c-40 -159 -146 -243 -301 -243c-144 0 -223 77 -223 214c0 31 4 65 13 100l104 412h92l-107 -431c-7 -27 -11 -52 -11 -75c0 -89 49 -136 140 -136c103 0 176 62 207 182l114 460h93zM481 756l138 142h109l-168 -142h-79zM321 756l138 142h109
l-168 -142h-79z" />
    <glyph glyph-name="uhungarumlaut" unicode="&#x171;" 
d="M62 211l74 297h88l-74 -297c-5 -22 -8 -43 -8 -64c0 -57 31 -86 87 -86c76 0 146 57 171 156l73 291h88l-127 -508h-85l15 60h-2c-41 -44 -100 -71 -161 -71c-95 0 -150 51 -150 147c0 21 4 46 11 75zM219 569l136 143h109l-166 -143h-79zM624 712l-166 -143h-79l136 143
h109z" />
    <glyph glyph-name="Uogonek" unicode="&#x172;" horiz-adv-x="705" 
d="M731 712l-119 -478c-23 -91 -67 -159 -131 -202c-55 -36 -92 -65 -111 -86c-20 -21 -30 -40 -30 -57c0 -18 11 -27 32 -27c15 0 28 2 40 7l-14 -56c-16 -5 -33 -7 -52 -7c-59 0 -88 26 -88 71c0 39 25 72 82 109v2c-12 -1 -22 -2 -31 -2c-147 0 -223 73 -223 214
c0 31 4 65 13 100l104 412h92l-107 -431c-7 -27 -11 -52 -11 -75c0 -89 49 -136 140 -136c104 0 177 64 208 187l113 455h93z" />
    <glyph glyph-name="uogonek" unicode="&#x173;" 
d="M561 508l-127 -508c-77 -47 -102 -80 -102 -111c0 -18 11 -27 32 -27c15 0 28 2 39 7l-14 -56c-15 -5 -33 -7 -52 -7c-59 0 -88 26 -88 71c0 43 33 79 106 123h-6l15 60h-2c-41 -44 -100 -71 -161 -71c-95 0 -150 51 -150 147c0 21 4 46 11 75l74 297h88l-74 -297
c-5 -22 -8 -43 -8 -64c0 -57 31 -86 87 -86c76 0 146 57 171 156l73 291h88z" />
    <glyph glyph-name="Wcircumflex" unicode="&#x174;" horiz-adv-x="916" 
d="M1020 712l-343 -712h-132l2 311c0 71 2 178 6 319h-2c-41 -88 -93 -194 -154 -319l-152 -311h-132l11 712h88l-5 -288c-2 -113 -5 -224 -9 -335h2c41 89 95 201 162 336l141 287h129l-2 -287c0 -76 -1 -188 -4 -336h2c34 74 86 186 157 335l138 288h97zM566 898h97
l79 -138h-79l-52 89l-96 -89h-98z" />
    <glyph glyph-name="wcircumflex" unicode="&#x175;" horiz-adv-x="770" 
d="M732 508h94l-261 -508h-126l-5 220l-3 220h-2c-48 -98 -84 -171 -109 -220l-115 -220h-126l-9 508h85l1 -212c1 -25 1 -63 1 -114s0 -89 -1 -114h2l21 43c39 79 69 139 90 180l111 217h127l4 -217c1 -35 1 -87 1 -158v-65h2l16 34c27 58 59 123 95 194zM297 569l149 143
h97l79 -143h-81l-52 93l-96 -93h-96z" />
    <glyph glyph-name="Ycircumflex" unicode="&#x176;" horiz-adv-x="614" 
d="M724 712l-360 -417l-74 -295h-92l73 295l-153 417h96l51 -147c26 -77 46 -140 61 -188h2c49 61 101 124 155 188l124 147h117zM398 898h97l79 -138h-79l-52 89l-96 -89h-98z" />
    <glyph glyph-name="ycircumflex" unicode="&#x177;" horiz-adv-x="472" 
d="M541 508l-333 -531c-84 -133 -135 -164 -246 -166c-21 0 -39 2 -52 7l18 72c11 -4 24 -6 40 -6c69 0 99 23 156 114l-67 510h88l47 -404h2l247 404h100zM133 569l149 143h97l79 -143h-81l-52 93l-96 -93h-96z" />
    <glyph glyph-name="Ydieresis" unicode="&#x178;" horiz-adv-x="614" 
d="M724 712l-360 -417l-74 -295h-92l73 295l-153 417h96l51 -147c26 -77 46 -140 61 -188h2c49 61 101 124 155 188l124 147h117zM472 775l25 99h82l-25 -99h-82zM277 775l25 99h82l-25 -99h-82z" />
    <glyph glyph-name="Zacute" unicode="&#x179;" horiz-adv-x="566" 
d="M509 629v2h-386l20 81h500l-24 -94l-530 -535v-2h415l-19 -81h-530l23 94zM444 898h118l-153 -138h-81z" />
    <glyph glyph-name="zacute" unicode="&#x17a;" horiz-adv-x="469" 
d="M365 434v2h-283l18 72h397l-20 -81l-383 -353v-2h303l-17 -72h-417l20 81zM344 712h118l-153 -143h-81z" />
    <glyph glyph-name="Zdotaccent" unicode="&#x17b;" horiz-adv-x="566" 
d="M509 629v2h-386l20 81h500l-24 -94l-530 -535v-2h415l-19 -81h-530l23 94zM380 874h88l-25 -99h-88z" />
    <glyph glyph-name="zdotaccent" unicode="&#x17c;" horiz-adv-x="469" 
d="M365 434v2h-283l18 72h397l-20 -81l-383 -353v-2h303l-17 -72h-417l20 81zM285 712h88l-24 -99h-88z" />
    <glyph glyph-name="Zcaron" unicode="&#x17d;" horiz-adv-x="566" 
d="M619 618l-530 -535v-2h415l-19 -81h-530l23 94l531 535v2h-386l20 81h500zM267 898h79l52 -88l96 88h98l-149 -138h-97z" />
    <glyph glyph-name="zcaron" unicode="&#x17e;" horiz-adv-x="469" 
d="M477 427l-383 -353v-2h303l-17 -72h-417l20 81l382 353v2h-283l18 72h397zM167 712h81l52 -93l96 93h96l-149 -143h-97z" />
    <glyph glyph-name="longs" unicode="&#x17f;" horiz-adv-x="305" 
d="M39 0l109 438h-89l17 70h90l17 70c23 93 79 139 168 139c19 0 38 -2 55 -6l-16 -67c-7 2 -16 3 -28 3c-51 0 -81 -27 -97 -92l-139 -555h-87z" />
    <glyph glyph-name="uni018F" unicode="&#x18f;" horiz-adv-x="740" 
d="M683 235c-32 -71 -79 -131 -140 -178c-62 -47 -135 -71 -220 -71c-173 0 -269 100 -269 265c0 48 8 94 25 137h547c4 23 6 45 6 64c0 127 -71 192 -186 192c-53 0 -99 -13 -140 -40s-71 -63 -90 -106h-105c52 127 179 228 345 228c179 0 275 -104 275 -280
c0 -70 -16 -140 -48 -211zM149 246c0 -113 70 -176 182 -176c65 0 122 21 172 64c50 42 85 100 105 174h-451c-5 -23 -8 -44 -8 -62z" />
    <glyph glyph-name="florin" unicode="&#x192;" horiz-adv-x="562" 
d="M637 640c-9 3 -22 4 -39 4c-59 0 -96 -28 -133 -104l-36 -72h107l-17 -68h-123l-205 -407c-67 -135 -124 -183 -228 -183c-20 0 -37 2 -50 7l18 73c11 -3 23 -5 36 -5c27 0 51 8 71 24c19 16 41 47 64 94l199 397h-98l17 68h114l41 81c31 61 63 105 97 131s76 39 126 39
c21 0 40 -3 57 -8z" />
    <glyph glyph-name="Aringacute" unicode="&#x1fa;" horiz-adv-x="675" 
d="M389 712h125l94 -712h-92l-25 212h-314l-131 -212h-104zM227 293h255l-8 65c-11 89 -21 186 -32 290h-2c-53 -91 -111 -187 -173 -290zM360 833c0 28 10 52 30 72c19 19 43 29 70 29c28 0 52 -10 72 -29c19 -20 29 -44 29 -72c0 -27 -10 -51 -29 -70
c-20 -20 -44 -30 -72 -30c-27 0 -51 10 -70 30c-20 19 -30 43 -30 70zM635 1093l-153 -138h-81l116 138h118zM402 833c0 -32 26 -57 58 -57c33 0 58 25 58 57s-25 58 -58 58c-32 0 -58 -26 -58 -58z" />
    <glyph glyph-name="aringacute" unicode="&#x1fb;" horiz-adv-x="531" 
d="M372 433c-17 14 -42 21 -73 21c-69 0 -118 -40 -131 -101h-88c11 49 36 90 76 122c40 31 89 47 148 47c115 0 177 -50 177 -153c0 -19 -3 -42 -9 -67l-43 -172c-14 -56 -21 -99 -21 -130h-80c0 17 3 39 9 64h-2c-46 -50 -105 -75 -176 -75c-97 0 -154 51 -154 131
c0 97 75 156 224 179c59 9 113 14 160 16l3 9c4 20 6 35 6 45c0 29 -9 50 -26 64zM373 248c-42 -2 -88 -7 -137 -14c-104 -16 -138 -52 -138 -103c0 -45 33 -74 90 -74c85 0 150 55 174 148zM410 718c19 -20 29 -44 29 -71c0 -28 -10 -52 -29 -71c-20 -20 -44 -30 -72 -30
c-27 0 -51 10 -70 30c-20 19 -30 43 -30 71c0 27 10 51 30 71c19 19 43 29 70 29c28 0 52 -10 72 -29zM366 772h-81l116 143h118zM380 606c11 11 16 24 16 41c0 32 -25 58 -58 58c-31 0 -57 -26 -57 -58s26 -58 57 -58c17 0 31 6 42 17z" />
    <glyph glyph-name="AEacute" unicode="&#x1fc;" horiz-adv-x="937" 
d="M967 630h-364l-22 -225h310l-21 -81h-298l-24 -242h293l-20 -82h-367l22 224h-273l-163 -224h-109l526 712h530zM485 305l32 329h-16l-239 -329h223zM683 898h118l-153 -138h-81z" />
    <glyph glyph-name="aeacute" unicode="&#x1fd;" horiz-adv-x="862" 
d="M560 54c64 0 116 39 140 98h90c-18 -47 -48 -87 -89 -118c-42 -32 -91 -48 -146 -48c-88 0 -144 40 -168 115c-49 -73 -125 -115 -210 -115c-109 0 -172 54 -172 135c0 87 67 179 262 179h121l6 20c3 18 5 32 5 42c0 61 -33 92 -99 92c-71 0 -117 -40 -132 -101h-88
c11 49 36 90 76 122c40 31 89 47 147 47c84 0 137 -29 160 -86c51 57 112 86 183 86c119 0 184 -73 184 -194c0 -26 -5 -58 -15 -95h-362c-3 -15 -5 -32 -5 -50c0 -85 43 -129 112 -129zM120 75c15 -14 38 -21 68 -21c88 0 155 58 179 161l5 18h-109
c-110 0 -166 -33 -167 -100c1 -25 9 -45 24 -58zM745 300c2 13 3 25 3 36c0 77 -40 118 -107 118c-79 0 -144 -57 -172 -154h276zM521 569h-81l116 143h118z" />
    <glyph glyph-name="Oslashacute" unicode="&#x1fe;" horiz-adv-x="732" 
d="M719 433c0 -70 -15 -139 -45 -208c-31 -69 -75 -126 -133 -171c-59 -45 -127 -68 -205 -68c-83 0 -150 27 -197 76l-69 -69l-43 44l76 75c-26 46 -39 102 -39 167c0 70 15 140 46 209c30 69 74 126 132 171s126 67 204 67c83 0 149 -27 196 -75l69 68l44 -44l-75 -75
c26 -48 39 -104 39 -167zM341 67c57 0 108 19 151 56s77 83 100 140c23 56 35 112 35 167c0 37 -6 70 -17 101l-406 -404c34 -40 80 -60 137 -60zM156 281c0 -35 5 -68 16 -99l406 404c-34 39 -80 59 -137 59c-172 5 -288 -202 -285 -364zM425 760l116 138h118l-153 -138
h-81z" />
    <glyph glyph-name="oslashacute" unicode="&#x1ff;" horiz-adv-x="566" 
d="M562 495l-63 -62c19 -35 28 -77 28 -125c2 -145 -107 -327 -288 -322c-59 0 -106 16 -141 48l-59 -58l-38 38l64 64c-18 33 -27 73 -27 122c-2 145 107 327 287 322c59 0 105 -16 140 -47l58 58zM246 56c123 -4 195 145 193 252c0 19 -2 38 -7 58l-275 -274
c21 -24 50 -36 89 -36zM131 144l275 273c-22 23 -51 35 -88 35c-122 4 -194 -146 -193 -252c0 -20 2 -39 6 -56zM411 712h118l-153 -143h-81z" />
    <glyph glyph-name="Scommaaccent" unicode="&#x218;" horiz-adv-x="609" 
d="M387 290c-19 10 -46 21 -80 33c-84 29 -131 51 -162 99c-15 24 -23 55 -23 93c-2 96 95 214 262 211c151 0 226 -59 226 -178c0 -19 -2 -37 -7 -56h-93c3 18 5 32 5 43c0 75 -49 112 -140 112c-103 0 -158 -62 -158 -121c0 -31 11 -54 32 -70c21 -17 57 -33 108 -50
c83 -28 131 -52 163 -101c16 -25 24 -57 24 -96c2 -104 -103 -226 -282 -223c-151 0 -234 66 -234 189c0 20 2 40 7 61h94c-4 -19 -6 -36 -6 -51c0 -80 52 -120 148 -120c123 0 176 72 176 133c0 45 -23 72 -60 92zM143 -257l64 103h-33l21 89h89l-22 -89l-81 -103h-38z" />
    <glyph glyph-name="scommaaccent" unicode="&#x219;" horiz-adv-x="494" 
d="M306 192c-17 11 -47 24 -90 38c-61 20 -91 31 -115 66c-12 17 -18 41 -18 71c0 80 74 155 204 155c116 0 177 -47 177 -134c0 -15 -1 -28 -4 -39h-85c2 18 3 28 3 31c0 48 -35 74 -99 74c-67 0 -108 -30 -108 -78c4 -47 19 -51 101 -79c68 -23 103 -36 131 -73
c13 -19 20 -44 20 -75c0 -83 -75 -163 -219 -163c-121 0 -191 49 -191 141c0 17 2 31 5 42h89c-3 -10 -4 -21 -4 -34c0 -51 37 -79 108 -79c77 0 120 32 120 85c0 23 -8 40 -25 51zM85 -257l64 103h-33l21 89h89l-22 -89l-81 -103h-38z" />
    <glyph glyph-name="uni021A" unicode="&#x21a;" horiz-adv-x="599" 
d="M104 630l20 82h579l-20 -82h-243l-157 -630h-93l157 630h-243zM128 -257l64 103h-33l21 89h89l-22 -89l-81 -103h-38z" />
    <glyph glyph-name="uni021B" unicode="&#x21b;" horiz-adv-x="320" 
d="M333 438h-100l-70 -281c-4 -15 -6 -27 -6 -38c0 -35 17 -50 56 -50c11 0 23 1 35 4l-19 -72c-12 -3 -26 -5 -42 -5c-83 0 -120 32 -120 105c0 17 3 38 9 62l69 275h-89l18 70h88l31 123h88l-31 -123h101zM12 -257l64 103h-33l21 89h89l-22 -89l-81 -103h-38z" />
    <glyph glyph-name="uni0237" unicode="&#x237;" horiz-adv-x="249" 
d="M-114 -114c9 -2 18 -3 27 -3c53 0 84 27 103 102l130 523h88l-137 -548c-25 -99 -82 -149 -172 -149c-21 0 -40 2 -56 7z" />
    <glyph glyph-name="uni0259" unicode="&#x259;" horiz-adv-x="550" 
d="M480 165c-23 -51 -56 -94 -99 -128c-44 -34 -96 -51 -156 -51c-125 0 -192 73 -192 194c0 35 6 68 17 99h376c3 15 4 31 4 46c0 87 -45 129 -120 129c-67 0 -121 -36 -146 -91h-90c19 45 50 83 93 114c42 30 91 45 148 45c129 0 199 -76 199 -205
c0 -50 -11 -101 -34 -152zM114 172c0 -77 43 -118 116 -118c83 0 153 59 181 162h-292c-3 -13 -5 -27 -5 -44z" />
    <glyph glyph-name="afii57929" unicode="&#x2bc;" horiz-adv-x="237" 
d="M191 604h-34l26 108h100l-26 -108l-82 -134h-53z" />
    <glyph glyph-name="circumflex" unicode="&#x2c6;" horiz-adv-x="425" 
d="M129 569l149 143h97l79 -143h-81l-52 93l-96 -93h-96z" />
    <glyph glyph-name="caron" unicode="&#x2c7;" horiz-adv-x="425" 
d="M245 712l52 -93l96 93h96l-149 -143h-97l-79 143h81z" />
    <glyph glyph-name="uni02C9" unicode="&#x2c9;" horiz-adv-x="384" 
d="M141 616l15 64h285l-16 -64h-284z" />
    <glyph glyph-name="breve" unicode="&#x2d8;" horiz-adv-x="411" 
d="M162 687c0 11 1 19 2 25h59c-1 -3 -1 -8 -1 -15c0 -43 24 -66 71 -66c53 0 93 29 110 81h72c-25 -91 -93 -143 -184 -143c-84 0 -129 42 -129 118z" />
    <glyph glyph-name="dotaccent" unicode="&#x2d9;" horiz-adv-x="188" 
d="M140 613l24 99h88l-24 -99h-88z" />
    <glyph glyph-name="ring" unicode="&#x2da;" horiz-adv-x="307" 
d="M186 595c-20 19 -30 43 -30 71c0 27 10 51 30 71c19 19 43 29 70 29c28 0 52 -10 72 -29c19 -20 29 -44 29 -71c0 -28 -10 -52 -29 -71c-20 -20 -44 -30 -72 -30c-27 0 -51 10 -70 30zM199 666c0 -32 26 -58 57 -58c33 0 58 25 58 58c0 32 -25 58 -58 58
c-31 0 -57 -26 -57 -58z" />
    <glyph glyph-name="ogonek" unicode="&#x2db;" horiz-adv-x="259" 
d="M-42 -123c0 44 33 81 109 125l76 -2c-77 -47 -102 -80 -102 -111c0 -18 11 -27 32 -27c15 0 28 2 39 7l-14 -56c-15 -5 -33 -7 -52 -7c-59 0 -88 26 -88 71z" />
    <glyph glyph-name="tilde" unicode="&#x2dc;" horiz-adv-x="445" 
d="M257 706c31 0 51 -10 79 -29c23 -15 36 -22 53 -22c28 0 48 17 60 51h58c-21 -73 -66 -115 -122 -115c-31 0 -50 10 -78 29c-24 15 -35 22 -54 22c-27 0 -47 -17 -58 -51h-60c20 72 66 115 122 115z" />
    <glyph glyph-name="hungarumlaut" unicode="&#x2dd;" horiz-adv-x="470" 
d="M425 712h109l-166 -143h-79zM129 569l136 143h109l-166 -143h-79z" />
    <glyph glyph-name="uni0312" unicode="&#x312;" horiz-adv-x="0" 
d="M133 583l21 89l82 103h38l-64 -103h33l-21 -89h-89z" />
    <glyph glyph-name="uni0326" unicode="&#x326;" horiz-adv-x="0" 
d="M-13 -154h-33l21 89h89l-22 -89l-81 -103h-38z" />
    <glyph glyph-name="uni0333" unicode="&#x333;" horiz-adv-x="0" 
d="M-576 -50h500l-12 -49h-500zM-621 -228l13 49h500l-13 -49h-500z" />
    <glyph glyph-name="uni0374" unicode="&#x374;" horiz-adv-x="180" 
d="M179 712h85l-114 -204h-57z" />
    <glyph glyph-name="uni0375" unicode="&#x375;" horiz-adv-x="180" 
d="M29 112h85l-114 -204h-57z" />
    <glyph glyph-name="uni037E" unicode="&#x37e;" horiz-adv-x="226" 
d="M-42 -144l74 144h-36l28 117h109l-29 -117l-88 -144h-58zM94 391l28 117h109l-29 -117h-108z" />
    <glyph glyph-name="tonos" unicode="&#x384;" horiz-adv-x="230" 
d="M211 732h88l-100 -160h-69z" />
    <glyph glyph-name="dieresistonos" unicode="&#x385;" horiz-adv-x="458" 
d="M255 572l73 147h78l-87 -147h-64zM413 586l25 100h78l-25 -100h-78zM133 586l25 100h78l-25 -100h-78z" />
    <glyph glyph-name="Alphatonos" unicode="&#x386;" horiz-adv-x="675" 
d="M516 0l-25 212h-314l-131 -212h-104l447 712h125l94 -712h-92zM227 293h255l-8 65c-11 89 -21 186 -32 290h-2c-53 -91 -111 -187 -173 -290zM200 712h89l-111 -200h-69z" />
    <glyph glyph-name="anoteleia" unicode="&#x387;" horiz-adv-x="226" 
d="M93 391l29 117h108l-29 -117h-108z" />
    <glyph glyph-name="Epsilontonos" unicode="&#x388;" horiz-adv-x="618" 
d="M32 0l177 712h459l-20 -82h-367l-56 -225h346l-20 -81h-347l-60 -242h378l-20 -82h-470zM38 512h-69l91 200h89z" />
    <glyph glyph-name="Etatonos" unicode="&#x389;" horiz-adv-x="737" 
d="M32 0l177 712h92l-75 -302h364l74 302h93l-177 -712h-93l82 329h-363l-82 -329h-92zM38 512h-69l91 200h89z" />
    <glyph glyph-name="Iotatonos" unicode="&#x38a;" horiz-adv-x="282" 
d="M209 712h92l-177 -712h-92zM-31 512l91 200h89l-111 -200h-69z" />
    <glyph glyph-name="Omicrontonos" unicode="&#x38c;" horiz-adv-x="732" 
d="M718 431c0 -70 -15 -139 -45 -208c-31 -69 -75 -125 -132 -170s-125 -67 -203 -67c-173 0 -273 119 -273 295c0 70 15 139 45 208s74 125 131 170s125 67 203 67c172 0 274 -119 274 -295zM158 281c0 -128 68 -211 183 -211c172 -5 285 198 283 360
c0 129 -68 212 -183 212c-57 0 -107 -18 -150 -55s-76 -83 -99 -139s-34 -112 -34 -167zM94 712h89l-111 -200h-69z" />
    <glyph glyph-name="Upsilontonos" unicode="&#x38e;" horiz-adv-x="614" 
d="M118 712h96l51 -147c26 -77 46 -140 61 -188h2c49 61 101 124 155 188l124 147h117l-360 -417l-74 -295h-92l73 295zM-21 512h-69l91 200h89z" />
    <glyph glyph-name="Omegatonos" unicode="&#x38f;" horiz-adv-x="729" 
d="M660 276c-41 -65 -101 -129 -180 -193v-2h168l-20 -81h-269l20 84c163 131 241 248 241 380c0 117 -66 178 -177 178c-173 5 -275 -167 -273 -310c0 -91 29 -161 84 -248l-21 -84h-258l20 81h172v2c-56 88 -88 167 -88 262c-3 178 134 386 375 381
c167 0 266 -82 266 -243c0 -73 -20 -142 -60 -207zM-2 512l91 200h89l-111 -200h-69z" />
    <glyph glyph-name="iotadieresistonos" unicode="&#x390;" horiz-adv-x="278" 
d="M54 175l82 333h88l-82 -329c-7 -25 -10 -45 -10 -59c0 -36 18 -51 58 -51c9 0 20 1 33 4l-19 -73c-13 -3 -27 -5 -42 -5c-81 0 -120 32 -120 105c0 21 4 46 12 75zM143 572l73 147h78l-87 -147h-64zM46 686h78l-25 -100h-78zM379 586h-78l25 100h78z" />
    <glyph glyph-name="Alpha" unicode="&#x391;" horiz-adv-x="675" 
d="M389 712h125l94 -712h-92l-25 212h-314l-131 -212h-104zM227 293h255l-8 65c-11 89 -21 186 -32 290h-2c-53 -91 -111 -187 -173 -290z" />
    <glyph glyph-name="Beta" unicode="&#x392;" horiz-adv-x="627" 
d="M597 439c-27 -37 -68 -63 -123 -79v-2c63 -17 95 -67 95 -139c1 -102 -93 -222 -268 -219h-269l177 712h214c143 0 214 -57 214 -156c0 -41 -13 -80 -40 -117zM143 78h156c61 0 106 14 134 43c28 28 42 61 42 100c0 68 -42 103 -135 103h-135zM224 401h134
c65 0 113 14 142 42c29 27 43 60 43 97c0 63 -42 94 -135 94h-126z" />
    <glyph glyph-name="Gamma" unicode="&#x393;" horiz-adv-x="488" 
d="M32 0l177 712h383l-20 -82h-291l-157 -630h-92z" />
    <glyph glyph-name="Delta" unicode="&#x394;" horiz-adv-x="675" 
d="M390 712h125l93 -712h-666zM98 82h410l-33 276c-11 89 -21 186 -32 290h-2c-53 -91 -111 -188 -173 -290z" />
    <glyph glyph-name="Epsilon" unicode="&#x395;" horiz-adv-x="618" 
d="M32 0l177 712h459l-20 -82h-367l-56 -225h346l-20 -81h-347l-60 -242h378l-20 -82h-470z" />
    <glyph glyph-name="Zeta" unicode="&#x396;" horiz-adv-x="566" 
d="M-45 0l23 94l531 535v2h-386l20 81h500l-24 -94l-530 -535v-2h415l-19 -81h-530z" />
    <glyph glyph-name="Eta" unicode="&#x397;" horiz-adv-x="737" 
d="M32 0l177 712h92l-75 -302h364l74 302h93l-177 -712h-93l82 329h-363l-82 -329h-92z" />
    <glyph glyph-name="Theta" unicode="&#x398;" horiz-adv-x="732" 
d="M719 436c0 -71 -15 -141 -46 -210c-31 -70 -75 -127 -133 -172c-59 -45 -128 -68 -207 -68c-170 0 -270 116 -270 290c0 71 15 141 46 211c31 69 75 127 134 172c58 45 126 67 205 67c171 0 271 -116 271 -290zM205 126c33 -39 78 -58 136 -58c172 -5 288 200 286 362
c0 65 -16 117 -49 156s-79 58 -137 58s-109 -18 -152 -55s-76 -84 -99 -140c-23 -57 -34 -113 -34 -168c0 -65 16 -116 49 -155zM258 397h286l-20 -80h-286z" />
    <glyph glyph-name="Iota" unicode="&#x399;" horiz-adv-x="282" 
d="M209 712h92l-177 -712h-92z" />
    <glyph glyph-name="Kappa" unicode="&#x39a;" horiz-adv-x="625" 
d="M209 712h92l-78 -314h2l354 314h127l-395 -345l247 -367h-112l-231 357h-2l-89 -357h-92z" />
    <glyph glyph-name="Lambda" unicode="&#x39b;" horiz-adv-x="660" 
d="M-58 0l438 712h128l84 -712h-95l-37 356c-9 85 -16 160 -21 226l-6 61h-2c-59 -104 -115 -200 -168 -287l-213 -356h-108z" />
    <glyph glyph-name="Mu" unicode="&#x39c;" horiz-adv-x="934" 
d="M844 634l-36 -60c-68 -113 -111 -183 -129 -212l-222 -362h-106l-43 362c-13 124 -23 215 -28 272h-2l-66 -272l-90 -362h-90l177 712h142l41 -351c9 -82 18 -173 27 -273h2c68 118 122 209 162 273l215 351h155l-177 -712h-90l104 417c8 31 27 104 56 217h-2z" />
    <glyph glyph-name="Nu" unicode="&#x39d;" horiz-adv-x="755" 
d="M192 285l-70 -285h-90l177 712h127l97 -307c30 -94 59 -188 87 -282l11 -37h2c33 143 59 256 80 341l72 285h90l-177 -712h-128l-97 307c-37 120 -70 226 -98 319h-2c-33 -145 -60 -259 -81 -341z" />
    <glyph glyph-name="Xi" unicode="&#x39e;" horiz-adv-x="661" 
d="M16 92h549l-23 -92h-549zM184 712h521l-23 -92h-521zM124 403h487l-23 -92h-486z" />
    <glyph glyph-name="Omicron" unicode="&#x39f;" horiz-adv-x="732" 
d="M718 431c0 -70 -15 -139 -45 -208c-31 -69 -75 -125 -132 -170s-125 -67 -203 -67c-173 0 -273 119 -273 295c0 70 15 139 45 208s74 125 131 170s125 67 203 67c172 0 274 -119 274 -295zM158 281c0 -128 68 -211 183 -211c172 -5 285 198 283 360
c0 129 -68 212 -183 212c-57 0 -107 -18 -150 -55s-76 -83 -99 -139s-34 -112 -34 -167z" />
    <glyph glyph-name="Pi" unicode="&#x3a0;" horiz-adv-x="727" 
d="M209 712h538l-177 -712h-93l157 630h-353l-157 -630h-92z" />
    <glyph glyph-name="Rho" unicode="&#x3a1;" horiz-adv-x="616" 
d="M618 407c-40 -72 -122 -125 -242 -125h-182l-70 -282h-92l177 712h207c153 0 232 -71 232 -194c0 -38 -10 -75 -30 -111zM214 362h163c124 0 176 78 176 150c0 77 -48 120 -144 120h-128z" />
    <glyph glyph-name="Sigma" unicode="&#x3a3;" horiz-adv-x="561" 
d="M-20 90l278 279l-130 269l18 74h496l-20 -81h-389v-1l133 -277l-268 -270v-2h401l-20 -81h-521z" />
    <glyph glyph-name="Tau" unicode="&#x3a4;" horiz-adv-x="599" 
d="M104 630l20 82h579l-20 -82h-243l-157 -630h-93l157 630h-243z" />
    <glyph glyph-name="Upsilon" unicode="&#x3a5;" horiz-adv-x="614" 
d="M214 712l51 -147c26 -77 46 -140 61 -188h2c49 61 101 124 155 188l124 147h117l-360 -417l-74 -295h-92l73 295l-153 417h96z" />
    <glyph glyph-name="Phi" unicode="&#x3a6;" horiz-adv-x="793" 
d="M733 231c-27 -53 -69 -97 -125 -131s-124 -51 -205 -51h-12l-19 -75h-90l20 81c-149 23 -231 119 -231 270c-2 160 127 348 372 344h11l18 69h90l-19 -75c149 -23 231 -119 231 -268c0 -57 -14 -111 -41 -164zM207 200c27 -33 65 -55 115 -64l112 452
c-177 3 -269 -141 -268 -258c0 -53 14 -97 41 -130zM560 170c80 52 118 138 118 218c0 105 -55 175 -155 194l-112 -452c59 0 108 13 149 40z" />
    <glyph glyph-name="Chi" unicode="&#x3a7;" horiz-adv-x="621" 
d="M283 370l-148 342h98l115 -277h2l245 277h119l-320 -352l157 -360h-100l-122 293h-2l-262 -293h-121z" />
    <glyph glyph-name="Psi" unicode="&#x3a8;" horiz-adv-x="781" 
d="M785 457c-49 -192 -160 -274 -364 -277h-2l-45 -180h-93l45 183c-157 15 -231 84 -231 221c0 31 6 69 17 113l48 195h93l-51 -204c-9 -37 -14 -69 -14 -95c0 -93 50 -138 159 -146l111 445h93l-111 -447c74 2 131 19 171 51c39 32 68 85 87 159l59 237h92z" />
    <glyph glyph-name="Omega" unicode="&#x3a9;" horiz-adv-x="729" 
d="M660 276c-41 -65 -101 -129 -180 -193v-2h168l-20 -81h-269l20 84c163 131 241 248 241 380c0 117 -66 178 -177 178c-173 5 -275 -167 -273 -310c0 -91 29 -161 84 -248l-21 -84h-258l20 81h172v2c-56 88 -88 167 -88 262c-3 178 134 386 375 381
c167 0 266 -82 266 -243c0 -73 -20 -142 -60 -207z" />
    <glyph glyph-name="Iotadieresis" unicode="&#x3aa;" horiz-adv-x="282" 
d="M32 0l177 712h92l-177 -712h-92zM338 817l24 99h82l-24 -99h-82zM167 916h82l-24 -99h-82z" />
    <glyph glyph-name="Upsilondieresis" unicode="&#x3ab;" horiz-adv-x="614" 
d="M724 712l-360 -417l-74 -295h-92l73 295l-153 417h96l51 -147c26 -77 46 -140 61 -188h2c49 61 101 124 155 188l124 147h117zM472 775l25 99h82l-25 -99h-82zM277 775l25 99h82l-25 -99h-82z" />
    <glyph glyph-name="alphatonos" unicode="&#x3ac;" horiz-adv-x="587" 
d="M498 65c9 0 17 1 25 4l-17 -69c-16 -4 -33 -6 -52 -6c-53 0 -81 23 -84 69h-2c-43 -48 -99 -75 -159 -75c-111 0 -174 73 -174 196c-2 148 103 342 272 337c73 0 130 -43 145 -108h2c8 32 18 64 31 95h87c-20 -51 -39 -111 -56 -180l-45 -184c-5 -19 -7 -34 -7 -46
c0 -24 10 -33 34 -33zM129 197c0 -88 38 -138 106 -138c115 -4 187 142 185 253c0 88 -38 138 -106 138c-115 4 -187 -142 -185 -253zM395 732h88l-100 -160h-69z" />
    <glyph glyph-name="epsilontonos" unicode="&#x3ad;" horiz-adv-x="493" 
d="M382 373c0 51 -31 77 -92 77c-72 0 -114 -41 -114 -86s39 -73 103 -73h44l-16 -69h-60c-93 0 -141 -40 -141 -91c0 -45 38 -73 102 -73c72 0 116 31 131 94h91c-25 -105 -109 -166 -232 -166c-115 0 -182 50 -182 135c0 67 44 123 135 147v2c-41 20 -62 51 -62 92
c0 75 71 160 212 160c108 0 171 -52 171 -144c0 -12 -1 -21 -2 -27h-89c1 5 1 13 1 22zM369 732h88l-100 -160h-69z" />
    <glyph glyph-name="etatonos" unicode="&#x3ae;" horiz-adv-x="587" 
d="M525 297l-120 -482h-88l119 482c6 25 9 47 9 64c0 57 -31 86 -88 86c-75 0 -145 -57 -170 -156l-73 -291h-88l90 359c5 22 7 38 7 48c0 27 -10 36 -33 36c-9 0 -18 -1 -26 -4l17 69c13 4 27 6 43 6c53 0 81 -28 80 -83h2c47 55 111 88 178 88c96 0 151 -51 151 -147
c0 -23 -3 -48 -10 -75zM386 732h88l-100 -160h-69z" />
    <glyph glyph-name="iotatonos" unicode="&#x3af;" horiz-adv-x="278" 
d="M136 508h88l-82 -329c-7 -25 -10 -45 -10 -59c0 -36 18 -51 58 -51c9 0 20 1 33 4l-19 -73c-13 -3 -27 -5 -42 -5c-81 0 -120 32 -120 105c0 21 4 46 12 75zM242 732h88l-100 -160h-69z" />
    <glyph glyph-name="upsilondieresistonos" unicode="&#x3b0;" horiz-adv-x="577" 
d="M443 508h87c5 -28 7 -59 7 -94c0 -71 -9 -138 -27 -203s-48 -118 -91 -161s-100 -64 -170 -64c-121 0 -182 52 -182 157c0 17 3 40 10 68l37 146c5 23 8 39 8 50c0 25 -10 34 -33 34c-8 0 -17 -1 -26 -3l17 70c15 4 31 6 48 6c56 0 85 -26 85 -91c0 -17 -4 -39 -11 -67
l-40 -162c-5 -17 -7 -33 -7 -49c0 -60 35 -86 104 -86c48 0 86 19 115 58s49 85 60 140c11 54 17 108 17 161c0 29 -3 59 -8 90zM354 719h78l-87 -147h-64zM542 686l-25 -100h-78l25 100h78zM159 586l25 100h78l-25 -100h-78z" />
    <glyph glyph-name="alpha" unicode="&#x3b1;" horiz-adv-x="587" 
d="M516 328l-45 -184c-5 -19 -7 -34 -7 -46c0 -24 10 -33 34 -33c9 0 17 1 25 4l-17 -69c-16 -4 -33 -6 -52 -6c-53 0 -81 23 -84 69h-2c-43 -48 -99 -75 -159 -75c-111 0 -174 73 -174 196c-2 148 103 342 272 337c73 0 130 -43 145 -108h2c8 32 18 64 31 95h87
c-20 -51 -39 -111 -56 -180zM157 95c18 -24 44 -36 78 -36c115 -4 187 142 185 253c0 88 -38 138 -106 138c-115 4 -187 -142 -185 -253c0 -44 9 -78 28 -102z" />
    <glyph glyph-name="beta" unicode="&#x3b2;" horiz-adv-x="583" 
d="M137 489c37 155 128 237 263 237c113 0 178 -60 178 -161c0 -84 -57 -158 -162 -181v-2c68 -17 113 -72 113 -160c2 -110 -90 -235 -251 -232c-83 0 -136 27 -156 78h-2l-63 -253h-88zM466 630c-17 17 -42 25 -74 25c-89 0 -139 -55 -170 -176l-67 -270
c-3 -11 -5 -25 -5 -41c0 -68 41 -107 125 -107c111 0 167 89 167 163c0 83 -53 122 -160 122h-14l19 75h17c132 0 187 69 187 137c0 31 -8 55 -25 72z" />
    <glyph glyph-name="gamma" unicode="&#x3b3;" horiz-adv-x="522" 
d="M571 508c-33 -95 -75 -180 -125 -256c-51 -76 -118 -158 -202 -245c-7 -30 -16 -63 -27 -100c-11 -36 -22 -67 -31 -92h-88c25 68 44 129 56 182s18 111 18 172c0 73 -7 137 -20 192s-38 82 -73 82c-8 0 -16 -1 -24 -3l17 68c14 4 28 6 43 6c95 0 132 -99 132 -300
c0 -28 -3 -64 -8 -108h2c57 68 105 133 142 196c37 62 68 131 94 206h94z" />
    <glyph glyph-name="delta" unicode="&#x3b4;" horiz-adv-x="566" 
d="M488 141c-45 -89 -133 -155 -250 -155c-129 0 -207 75 -207 200c0 119 83 250 251 298v2c-61 48 -85 74 -85 118c0 32 14 60 41 83s71 35 130 35c78 0 149 -11 212 -34l-18 -74c-57 24 -126 38 -190 38s-85 -21 -85 -46c0 -28 26 -49 98 -98c91 -61 136 -132 136 -231
c0 -46 -11 -91 -33 -136zM124 188c0 -81 44 -130 120 -130c116 -3 186 118 185 207c0 75 -30 129 -90 173c-144 -42 -215 -155 -215 -250z" />
    <glyph glyph-name="epsilon" unicode="&#x3b5;" horiz-adv-x="493" 
d="M470 351h-89c1 5 1 13 1 22c0 51 -31 77 -92 77c-72 0 -114 -41 -114 -86s39 -73 103 -73h44l-16 -69h-60c-93 0 -141 -40 -141 -91c0 -45 38 -73 102 -73c72 0 116 31 131 94h91c-25 -105 -109 -166 -232 -166c-115 0 -182 50 -182 135c0 67 44 123 135 147v2
c-41 20 -62 51 -62 92c0 75 71 160 212 160c108 0 171 -52 171 -144c0 -12 -1 -21 -2 -27z" />
    <glyph glyph-name="zeta" unicode="&#x3b6;" horiz-adv-x="453" 
d="M523 644c-260 -127 -398 -306 -396 -436c0 -69 35 -102 122 -121c85 -17 118 -52 118 -111c0 -36 -16 -81 -43 -121h-80c23 35 36 70 36 93c0 33 -22 51 -83 63c-115 23 -166 75 -166 176c-3 140 135 329 368 455v2h-235l17 68h359z" />
    <glyph glyph-name="eta" unicode="&#x3b7;" horiz-adv-x="587" 
d="M525 297l-120 -482h-88l119 482c6 25 9 47 9 64c0 57 -31 86 -88 86c-75 0 -145 -57 -170 -156l-73 -291h-88l90 359c5 22 7 38 7 48c0 27 -10 36 -33 36c-9 0 -18 -1 -26 -4l17 69c13 4 27 6 43 6c53 0 81 -28 80 -83h2c47 55 111 88 178 88c96 0 151 -51 151 -147
c0 -23 -3 -48 -10 -75z" />
    <glyph glyph-name="theta" unicode="&#x3b8;" horiz-adv-x="594" 
d="M551 267c-27 -79 -66 -145 -117 -199s-112 -81 -183 -81c-129 0 -197 85 -197 238c0 69 13 142 40 221c27 78 66 144 117 198s111 81 181 81c131 0 198 -84 198 -237c0 -69 -13 -143 -39 -221zM493 389c7 36 10 70 10 103c0 105 -39 163 -115 163c-52 0 -97 -26 -135 -77
s-67 -114 -87 -189h327zM170 99c19 -28 48 -42 86 -42c52 0 97 26 135 77c37 51 66 114 87 189h-327c-7 -36 -10 -70 -10 -103c0 -53 10 -93 29 -121z" />
    <glyph glyph-name="iota" unicode="&#x3b9;" horiz-adv-x="278" 
d="M54 175l82 333h88l-82 -329c-7 -25 -10 -45 -10 -59c0 -36 18 -51 58 -51c9 0 20 1 33 4l-19 -73c-13 -3 -27 -5 -42 -5c-81 0 -120 32 -120 105c0 21 4 46 12 75z" />
    <glyph glyph-name="kappa" unicode="&#x3ba;" horiz-adv-x="522" 
d="M555 434c-6 2 -14 3 -23 3c-29 0 -58 -9 -89 -27c-31 -19 -75 -53 -131 -102l-45 -39l198 -269h-102l-158 214l-64 -56l-39 -158h-88l127 508h88l-59 -233h2l138 122c51 45 92 76 125 92c32 16 65 24 100 24c12 0 25 -2 38 -6z" />
    <glyph glyph-name="lambda" unicode="&#x3bb;" horiz-adv-x="564" 
d="M492 -1c-9 -3 -20 -4 -34 -4c-66 0 -95 24 -107 132l-34 280h-2l-282 -407h-102l360 508c-14 107 -36 138 -95 138c-18 0 -34 -3 -49 -8l17 71c16 6 35 9 56 9c97 0 146 -52 168 -219l43 -335c11 -77 27 -98 60 -98c6 0 12 1 17 2z" />
    <glyph glyph-name="mu" unicode="&#x3bc;" horiz-adv-x="583" 
d="M507 0c-11 -4 -27 -6 -46 -6c-53 0 -79 27 -76 82h-2c-33 -51 -96 -83 -160 -83c-54 0 -90 19 -108 58l-59 -236h-88l173 693h88l-74 -294c-6 -30 -9 -51 -9 -63c0 -59 31 -88 94 -88c71 0 138 56 163 155l71 290h88l-90 -363c-5 -19 -7 -34 -7 -46c0 -24 10 -32 34 -32
c8 0 16 1 25 3z" />
    <glyph glyph-name="nu" unicode="&#x3bd;" horiz-adv-x="511" 
d="M547 464c-9 -38 -23 -76 -42 -113c-19 -38 -48 -84 -85 -137s-91 -125 -161 -214h-111l-26 351c-4 69 -17 91 -49 91c-7 0 -13 -1 -18 -2l17 67c11 4 25 6 41 6c63 0 90 -37 94 -137l15 -298h2c77 100 133 178 166 235c33 56 55 108 67 155c3 13 5 26 6 40h89
c0 -14 -2 -29 -5 -44z" />
    <glyph glyph-name="xi" unicode="&#x3be;" horiz-adv-x="461" 
d="M373 -30c0 -33 -16 -79 -41 -115h-80c23 35 35 66 35 93c0 36 -22 55 -83 64c-121 19 -178 69 -178 162c0 87 61 182 196 211v2c-49 16 -78 51 -78 100c0 61 44 127 119 155v2h-105l17 68h381l-17 -68h-77c-162 0 -234 -78 -234 -151c0 -55 52 -85 131 -85h82l-17 -68
h-85c-160 0 -218 -78 -218 -150c0 -60 35 -88 126 -103c89 -15 126 -52 126 -117z" />
    <glyph glyph-name="omicron" unicode="&#x3bf;" horiz-adv-x="565" 
d="M493 159c-22 -50 -54 -91 -97 -124s-95 -49 -154 -49c-131 0 -203 78 -203 214c-2 146 103 326 282 322c132 0 205 -78 205 -214c0 -50 -11 -100 -33 -149zM129 200c0 -91 41 -142 120 -142c119 -4 188 143 187 250c0 91 -42 142 -122 142c-118 4 -186 -143 -185 -250z
" />
    <glyph glyph-name="pi" unicode="&#x3c0;" horiz-adv-x="652" 
d="M679 438h-117l-67 -272c-5 -20 -8 -36 -8 -48c0 -39 18 -53 57 -53c10 0 18 1 24 3l-17 -69c-12 -3 -26 -5 -43 -5c-75 0 -112 29 -112 102c0 17 4 41 11 72l67 270h-225l-109 -438h-88l109 438h-104l18 70h621z" />
    <glyph glyph-name="rho" unicode="&#x3c1;" horiz-adv-x="578" 
d="M508 162c-21 -50 -52 -91 -93 -124s-90 -49 -147 -49c-72 0 -123 33 -148 93h-2l-66 -267h-88l117 471c17 67 47 123 92 168s101 68 168 68c127 0 199 -79 199 -212c0 -49 -11 -98 -32 -148zM183 98c19 -25 48 -37 85 -37c114 -4 182 144 181 249c0 89 -40 140 -115 140
c-114 4 -181 -145 -180 -250c0 -44 10 -78 29 -102z" />
    <glyph glyph-name="sigma1" unicode="&#x3c2;" horiz-adv-x="516" 
d="M508 312h-90c1 12 2 21 2 26c0 71 -38 112 -113 112c-111 3 -177 -124 -175 -213c0 -80 34 -119 113 -134c91 -19 127 -58 127 -123c0 -40 -14 -82 -42 -125h-80c23 33 36 72 36 97c0 40 -21 60 -81 72c-113 20 -167 82 -167 194c-2 137 105 308 281 304
c127 0 192 -64 192 -172c0 -12 -1 -25 -3 -38z" />
    <glyph glyph-name="sigma" unicode="&#x3c3;" horiz-adv-x="592" 
d="M626 440h-165v-2c41 -35 61 -84 61 -145c2 -139 -104 -312 -279 -307c-132 0 -206 78 -206 211c-2 140 103 315 280 311h326zM127 196c0 -88 42 -138 122 -138c119 -4 186 138 185 241c0 87 -42 137 -122 137c-118 3 -186 -138 -185 -240z" />
    <glyph glyph-name="tau" unicode="&#x3c4;" horiz-adv-x="467" 
d="M518 508l-17 -68h-184l-68 -274c-5 -20 -8 -36 -8 -48c0 -39 18 -53 57 -53c10 0 18 1 24 3l-17 -69c-12 -3 -26 -5 -43 -5c-75 0 -112 29 -112 102c0 17 4 41 11 72l68 272h-171l17 68h443z" />
    <glyph glyph-name="upsilon" unicode="&#x3c5;" horiz-adv-x="577" 
d="M537 414c0 -71 -9 -138 -27 -203s-48 -118 -91 -161s-100 -64 -170 -64c-121 0 -182 52 -182 157c0 17 3 40 10 68l37 146c5 23 8 39 8 50c0 25 -10 34 -33 34c-8 0 -17 -1 -26 -3l17 70c15 4 31 6 48 6c56 0 85 -26 85 -91c0 -17 -4 -39 -11 -67l-40 -162
c-5 -17 -7 -33 -7 -49c0 -60 35 -86 104 -86c48 0 86 19 115 58s49 85 60 140c11 54 17 108 17 161c0 29 -3 59 -8 90h87c5 -28 7 -59 7 -94z" />
    <glyph glyph-name="phi" unicode="&#x3c6;" horiz-adv-x="755" 
d="M676 147c-52 -93 -158 -161 -307 -161h-15l-43 -171h-85l43 175c-145 17 -229 101 -229 230c-2 140 122 306 345 302h17l35 140h85l-36 -144c145 -19 229 -101 229 -230c0 -48 -13 -95 -39 -141zM129 218c0 -91 56 -147 157 -160l99 395h-8c-167 2 -249 -127 -248 -235z
M378 55c165 -3 249 128 248 235c0 89 -56 147 -157 160l-98 -395h7z" />
    <glyph glyph-name="chi" unicode="&#x3c7;" horiz-adv-x="572" 
d="M623 508l-309 -355l36 -184c15 -72 36 -89 80 -89c9 0 22 1 38 4l-17 -69c-16 -4 -33 -6 -52 -6c-37 0 -64 9 -82 27c-19 19 -33 53 -43 102l-28 145h-2l-234 -268h-109l316 354l-39 188c-16 74 -34 90 -82 90c-15 0 -29 -2 -41 -6l18 69c13 5 31 8 52 8
c78 0 108 -28 128 -127l29 -152h2l230 269h109z" />
    <glyph glyph-name="psi" unicode="&#x3c8;" horiz-adv-x="768" 
d="M732 447c0 -134 -27 -243 -82 -328s-149 -128 -282 -129l-44 -175h-88l44 177c-144 11 -215 73 -215 197c0 21 4 46 11 77l60 242h88l-62 -254c-6 -22 -9 -41 -9 -58c0 -84 48 -125 145 -133l149 599h88l-150 -601c173 7 260 136 260 386c0 22 -1 42 -3 61h87
c2 -19 3 -40 3 -61z" />
    <glyph glyph-name="omega" unicode="&#x3c9;" horiz-adv-x="781" 
d="M732 363c1 -165 -74 -381 -242 -376c-77 0 -121 32 -133 95h-1c-31 -63 -86 -95 -163 -95c-100 0 -150 52 -150 156c0 51 12 110 37 179s57 131 98 186h99c-42 -55 -76 -116 -103 -183s-40 -125 -40 -172c0 -63 27 -95 81 -95c55 0 92 37 110 111l53 213h88l-49 -197
c-5 -18 -7 -35 -7 -51c0 -51 25 -76 75 -76c37 0 68 17 92 51c23 33 40 74 50 121s15 93 15 136c0 51 -7 99 -22 142h91c14 -45 21 -93 21 -145z" />
    <glyph glyph-name="iotadieresis" unicode="&#x3ca;" horiz-adv-x="278" 
d="M42 100c0 21 4 46 12 75l82 333h88l-82 -329c-7 -25 -10 -45 -10 -59c0 -36 18 -51 58 -51c9 0 20 1 33 4l-19 -73c-13 -3 -27 -5 -42 -5c-81 0 -120 32 -120 105zM92 712h82l-24 -99h-82zM345 613h-82l24 99h82z" />
    <glyph glyph-name="upsilondieresis" unicode="&#x3cb;" horiz-adv-x="577" 
d="M510 211c-18 -65 -48 -118 -91 -161s-100 -64 -170 -64c-121 0 -182 52 -182 157c0 17 3 40 10 68l37 146c5 23 8 39 8 50c0 25 -10 34 -33 34c-8 0 -17 -1 -26 -3l17 70c15 4 31 6 48 6c56 0 85 -26 85 -91c0 -17 -4 -39 -11 -67l-40 -162c-5 -17 -7 -33 -7 -49
c0 -60 35 -86 104 -86c48 0 86 19 115 58s49 85 60 140c11 54 17 108 17 161c0 29 -3 59 -8 90h87c5 -28 7 -59 7 -94c0 -71 -9 -138 -27 -203zM425 712h82l-24 -99h-82zM206 613l24 99h82l-24 -99h-82z" />
    <glyph glyph-name="omicrontonos" unicode="&#x3cc;" horiz-adv-x="565" 
d="M493 159c-22 -50 -54 -91 -97 -124s-95 -49 -154 -49c-131 0 -203 78 -203 214c-2 146 103 326 282 322c132 0 205 -78 205 -214c0 -50 -11 -100 -33 -149zM160 95c20 -25 50 -37 89 -37c119 -4 188 143 187 250c0 91 -42 142 -122 142c-118 4 -186 -143 -185 -250
c0 -45 10 -80 31 -105zM387 732h88l-100 -160h-69z" />
    <glyph glyph-name="upsilontonos" unicode="&#x3cd;" horiz-adv-x="577" 
d="M537 414c0 -71 -9 -138 -27 -203s-48 -118 -91 -161s-100 -64 -170 -64c-121 0 -182 52 -182 157c0 17 3 40 10 68l37 146c5 23 8 39 8 50c0 25 -10 34 -33 34c-8 0 -17 -1 -26 -3l17 70c15 4 31 6 48 6c56 0 85 -26 85 -91c0 -17 -4 -39 -11 -67l-40 -162
c-5 -17 -7 -33 -7 -49c0 -60 35 -86 104 -86c48 0 86 19 115 58s49 85 60 140c11 54 17 108 17 161c0 29 -3 59 -8 90h87c5 -28 7 -59 7 -94zM379 732h88l-100 -160h-69z" />
    <glyph glyph-name="omegatonos" unicode="&#x3ce;" horiz-adv-x="781" 
d="M732 363c1 -165 -74 -381 -242 -376c-77 0 -121 32 -133 95h-1c-31 -63 -86 -95 -163 -95c-100 0 -150 52 -150 156c0 51 12 110 37 179s57 131 98 186h99c-42 -55 -76 -116 -103 -183s-40 -125 -40 -172c0 -63 27 -95 81 -95c55 0 92 37 110 111l53 213h88l-49 -197
c-5 -18 -7 -35 -7 -51c0 -51 25 -76 75 -76c37 0 68 17 92 51c23 33 40 74 50 121s15 93 15 136c0 51 -7 99 -22 142h91c14 -45 21 -93 21 -145zM515 732h88l-100 -160h-69z" />
    <glyph glyph-name="uni0400" unicode="&#x400;" horiz-adv-x="618" 
d="M144 82h378l-20 -82h-470l177 712h459l-20 -82h-367l-56 -225h346l-20 -81h-347zM451 898l56 -138h-72l-93 138h109z" />
    <glyph glyph-name="afii10023" unicode="&#x401;" horiz-adv-x="618" 
d="M648 630h-367l-56 -225h346l-20 -81h-347l-60 -242h378l-20 -82h-470l177 712h459zM501 775l25 99h82l-25 -99h-82zM331 874h82l-25 -99h-82z" />
    <glyph glyph-name="afii10051" unicode="&#x402;" horiz-adv-x="774" 
d="M706 127c-44 -81 -132 -138 -253 -138c-40 0 -72 5 -97 14l20 79c24 -8 51 -12 80 -12c128 0 190 93 190 172c0 85 -47 130 -139 130c-49 0 -95 -10 -139 -31l-85 -341h-93l157 630h-243l20 82h579l-20 -82h-243l-51 -205c46 19 93 28 140 28c135 0 209 -76 209 -199
c0 -44 -11 -86 -32 -127z" />
    <glyph glyph-name="afii10052" unicode="&#x403;" horiz-adv-x="488" 
d="M209 712h383l-20 -82h-291l-157 -630h-92zM451 898h118l-153 -138h-81z" />
    <glyph glyph-name="afii10053" unicode="&#x404;" horiz-adv-x="696" 
d="M692 456h-94c1 16 2 27 2 34c0 93 -60 152 -159 152c-67 0 -123 -23 -168 -70c-46 -47 -79 -106 -98 -175h322l-19 -81h-318c-1 -19 -2 -32 -2 -40c0 -127 63 -206 172 -206c97 0 182 63 221 160h96c-25 -75 -66 -135 -124 -178c-58 -44 -125 -66 -201 -66
c-81 0 -145 25 -191 76s-69 119 -69 206c0 71 15 141 45 212s74 129 133 176s129 70 211 70c151 0 245 -92 245 -227c0 -16 -1 -30 -4 -43z" />
    <glyph glyph-name="afii10054" unicode="&#x405;" horiz-adv-x="609" 
d="M515 535c0 75 -49 112 -140 112c-103 0 -158 -62 -158 -121c0 -31 11 -54 32 -70c21 -17 57 -33 108 -50c83 -28 131 -52 163 -101c16 -25 24 -57 24 -96c2 -104 -103 -226 -282 -223c-151 0 -234 66 -234 189c0 20 2 40 7 61h94c-4 -19 -6 -36 -6 -51
c0 -80 52 -120 148 -120c123 0 176 72 176 133c-4 70 -41 89 -140 125c-84 29 -131 51 -162 99c-15 24 -23 55 -23 93c-2 96 95 214 262 211c151 0 226 -59 226 -178c0 -19 -2 -37 -7 -56h-93c3 18 5 32 5 43z" />
    <glyph glyph-name="afii10055" unicode="&#x406;" horiz-adv-x="282" 
d="M209 712h92l-177 -712h-92z" />
    <glyph glyph-name="afii10056" unicode="&#x407;" horiz-adv-x="282" 
d="M32 0l177 712h92l-177 -712h-92zM327 775l25 99h82l-25 -99h-82zM157 874h82l-25 -99h-82z" />
    <glyph glyph-name="afii10057" unicode="&#x408;" horiz-adv-x="356" 
d="M-28 83c13 -3 26 -5 38 -5c81 0 130 40 155 144l123 490h92l-130 -521c-32 -131 -112 -196 -239 -196c-25 0 -44 3 -58 9z" />
    <glyph glyph-name="afii10058" unicode="&#x409;" horiz-adv-x="1042" 
d="M974 125c-40 -72 -123 -125 -243 -125h-274l157 630h-257c-49 -179 -91 -313 -128 -403s-73 -151 -109 -183c-36 -33 -79 -49 -130 -49c-16 0 -29 2 -40 7l18 75c5 -1 11 -2 17 -2c36 0 67 16 94 47c26 31 55 92 87 181c31 89 72 225 122 409h439l-70 -282h114
c153 0 233 -71 233 -194c0 -38 -10 -75 -30 -111zM570 80h163c121 0 176 78 176 150c0 77 -48 120 -144 120h-128z" />
    <glyph glyph-name="afii10059" unicode="&#x40a;" horiz-adv-x="1071" 
d="M1003 125c-40 -72 -122 -125 -242 -125h-274l85 338h-364l-84 -338h-92l177 712h92l-73 -292h364l72 292h93l-71 -282h115c153 0 232 -71 232 -194c0 -38 -10 -75 -30 -111zM600 80h162c124 0 176 78 176 150c0 77 -48 120 -144 120h-127z" />
    <glyph glyph-name="afii10060" unicode="&#x40b;" horiz-adv-x="772" 
d="M719 187l-46 -187h-92l49 199c4 16 6 31 6 45c0 71 -43 109 -127 109c-50 0 -98 -8 -144 -24l-82 -329h-93l157 630h-243l20 82h579l-20 -82h-243l-55 -218c47 15 97 22 149 22c131 0 197 -60 197 -172c0 -18 -4 -43 -12 -75z" />
    <glyph glyph-name="afii10061" unicode="&#x40c;" horiz-adv-x="625" 
d="M301 712l-78 -314h2l354 314h127l-395 -345l247 -367h-112l-231 357h-2l-89 -357h-92l177 712h92zM497 898h118l-153 -138h-81z" />
    <glyph glyph-name="uni040D" unicode="&#x40d;" horiz-adv-x="759" 
d="M667 626l-15 -19c-93 -122 -170 -222 -232 -300l-242 -307h-147l178 712h90l-72 -285c-29 -120 -59 -234 -88 -341h2c35 45 61 79 79 102c73 96 129 168 168 217l243 307h148l-178 -712h-91l72 285c25 104 54 218 87 341h-2zM408 898h109l56 -138h-72z" />
    <glyph glyph-name="afii10062" unicode="&#x40e;" horiz-adv-x="649" 
d="M759 712l-427 -576c-77 -104 -147 -144 -231 -144c-26 0 -47 3 -63 8l19 79c11 -3 24 -5 39 -5c60 0 103 27 154 102l-131 536h93l51 -229l51 -237h2c60 86 116 165 168 236l166 230h109zM308 873c0 11 1 19 2 25h59c-1 -3 -1 -8 -1 -14c0 -43 26 -66 71 -66
c53 0 93 29 110 80h72c-25 -91 -92 -142 -184 -142c-83 0 -129 42 -129 117z" />
    <glyph glyph-name="afii10145" unicode="&#x40f;" horiz-adv-x="727" 
d="M209 712h92l-157 -630h353l157 630h93l-177 -712h-227l-40 -160h-88l40 160h-223z" />
    <glyph glyph-name="afii10017" unicode="&#x410;" horiz-adv-x="675" 
d="M389 712h125l94 -712h-92l-25 212h-314l-131 -212h-104zM227 293h255l-8 65c-11 89 -21 186 -32 290h-2c-53 -91 -111 -187 -173 -290z" />
    <glyph glyph-name="afii10018" unicode="&#x411;" horiz-adv-x="632" 
d="M644 632h-363l-53 -213h128c141 0 223 -72 223 -193c1 -108 -90 -229 -259 -226h-288l177 712h455zM312 80c120 0 173 73 173 143c0 75 -51 116 -148 116h-129l-65 -259h169z" />
    <glyph glyph-name="afii10019" unicode="&#x412;" horiz-adv-x="627" 
d="M597 439c-27 -37 -68 -63 -123 -79v-2c63 -17 95 -67 95 -139c1 -102 -93 -222 -268 -219h-269l177 712h214c143 0 214 -57 214 -156c0 -41 -13 -80 -40 -117zM143 78h156c61 0 106 14 134 43c28 28 42 61 42 100c0 68 -42 103 -135 103h-135zM224 401h134
c65 0 113 14 142 42c29 27 43 60 43 97c0 63 -42 94 -135 94h-126z" />
    <glyph glyph-name="afii10020" unicode="&#x413;" horiz-adv-x="488" 
d="M32 0l177 712h383l-20 -82h-291l-157 -630h-92z" />
    <glyph glyph-name="afii10021" unicode="&#x414;" horiz-adv-x="731" 
d="M607 -160h-88l40 160h-517l-40 -160h-88l60 242h72c35 43 70 111 107 204s81 235 132 426h457l-157 -630h82zM146 82h346l137 548h-276c-39 -143 -76 -258 -109 -345c-34 -87 -67 -155 -98 -203z" />
    <glyph glyph-name="afii10022" unicode="&#x415;" horiz-adv-x="618" 
d="M32 0l177 712h459l-20 -82h-367l-56 -225h346l-20 -81h-347l-60 -242h378l-20 -82h-470z" />
    <glyph glyph-name="afii10024" unicode="&#x416;" horiz-adv-x="877" 
d="M959 712l-350 -346l200 -366h-104l-191 367h-2l-91 -367h-91l88 356h-2l-350 -356h-124l385 379l-181 333h101l173 -338h2l85 338h91l-82 -328h2l319 328h122z" />
    <glyph glyph-name="afii10025" unicode="&#x417;" horiz-adv-x="613" 
d="M553 206c2 -102 -106 -223 -291 -220c-159 0 -245 64 -245 179c0 16 2 32 6 48h97c-3 -15 -5 -29 -5 -40c0 -70 49 -105 148 -105c126 0 194 74 194 141c0 71 -56 109 -160 109h-54l20 81h50c145 0 214 73 214 140c0 64 -53 104 -144 104c-95 0 -160 -48 -184 -143h-98
c15 70 49 125 100 165s113 60 186 60c149 0 237 -69 237 -180c0 -83 -60 -154 -185 -189v-2c73 -27 114 -77 114 -148z" />
    <glyph glyph-name="afii10026" unicode="&#x418;" horiz-adv-x="759" 
d="M667 626l-15 -19c-93 -122 -170 -222 -232 -300l-242 -307h-147l178 712h90l-72 -285c-29 -120 -59 -234 -88 -341h2c35 45 61 79 79 102c73 96 129 168 168 217l243 307h148l-178 -712h-91l72 285c25 104 54 218 87 341h-2z" />
    <glyph glyph-name="afii10027" unicode="&#x419;" horiz-adv-x="759" 
d="M667 626l-15 -19c-93 -122 -170 -222 -232 -300l-242 -307h-147l178 712h90l-72 -285c-29 -120 -59 -234 -88 -341h2c35 45 61 79 79 102c73 96 129 168 168 217l243 307h148l-178 -712h-91l72 285c25 104 54 218 87 341h-2zM384 873c0 11 1 19 2 25h59
c-1 -3 -1 -8 -1 -14c0 -43 26 -66 71 -66c53 0 93 29 110 80h72c-25 -91 -92 -142 -184 -142c-83 0 -129 42 -129 117z" />
    <glyph glyph-name="afii10028" unicode="&#x41a;" horiz-adv-x="625" 
d="M209 712h92l-78 -314h2l354 314h127l-395 -345l247 -367h-112l-231 357h-2l-89 -357h-92z" />
    <glyph glyph-name="afii10029" unicode="&#x41b;" horiz-adv-x="707" 
d="M-32 77c5 -1 11 -2 17 -2c36 0 67 16 94 47c26 31 55 92 87 181c31 89 72 225 122 409h439l-177 -712h-93l157 630h-257c-49 -179 -91 -313 -128 -403s-73 -151 -109 -183c-36 -33 -79 -49 -130 -49c-16 0 -29 2 -40 7z" />
    <glyph glyph-name="afii10030" unicode="&#x41c;" horiz-adv-x="934" 
d="M844 634l-36 -60c-68 -113 -111 -183 -129 -212l-222 -362h-106l-43 362c-13 124 -23 215 -28 272h-2l-66 -272l-90 -362h-90l177 712h142l41 -351c9 -82 18 -173 27 -273h2c68 118 122 209 162 273l215 351h155l-177 -712h-90l104 417c8 31 27 104 56 217h-2z" />
    <glyph glyph-name="afii10031" unicode="&#x41d;" horiz-adv-x="737" 
d="M32 0l177 712h92l-75 -302h364l74 302h93l-177 -712h-93l82 329h-363l-82 -329h-92z" />
    <glyph glyph-name="afii10032" unicode="&#x41e;" horiz-adv-x="732" 
d="M718 431c0 -70 -15 -139 -45 -208c-31 -69 -75 -125 -132 -170s-125 -67 -203 -67c-173 0 -273 119 -273 295c0 70 15 139 45 208s74 125 131 170s125 67 203 67c172 0 274 -119 274 -295zM158 281c0 -128 68 -211 183 -211c172 -5 285 198 283 360
c0 129 -68 212 -183 212c-57 0 -107 -18 -150 -55s-76 -83 -99 -139s-34 -112 -34 -167z" />
    <glyph glyph-name="afii10033" unicode="&#x41f;" horiz-adv-x="727" 
d="M209 712h538l-177 -712h-93l157 630h-353l-157 -630h-92z" />
    <glyph glyph-name="afii10034" unicode="&#x420;" horiz-adv-x="616" 
d="M618 407c-40 -72 -122 -125 -242 -125h-182l-70 -282h-92l177 712h207c153 0 232 -71 232 -194c0 -38 -10 -75 -30 -111zM214 362h163c124 0 176 78 176 150c0 77 -48 120 -144 120h-128z" />
    <glyph glyph-name="afii10035" unicode="&#x421;" horiz-adv-x="690" 
d="M686 456h-95c1 16 2 27 2 34c0 93 -60 152 -156 152c-58 0 -108 -19 -150 -56c-43 -38 -75 -85 -96 -142c-22 -57 -33 -113 -33 -168c0 -127 61 -206 168 -206c48 0 92 15 131 44s68 67 87 116h96c-25 -75 -66 -135 -123 -178c-57 -44 -124 -66 -199 -66
c-81 0 -143 25 -188 76s-68 119 -68 206c0 71 15 141 45 212c29 71 73 129 131 176s128 70 209 70c150 0 242 -92 242 -227c0 -15 -1 -29 -3 -43z" />
    <glyph glyph-name="afii10036" unicode="&#x422;" horiz-adv-x="599" 
d="M104 630l20 82h579l-20 -82h-243l-157 -630h-93l157 630h-243z" />
    <glyph glyph-name="afii10037" unicode="&#x423;" horiz-adv-x="649" 
d="M96 74c60 0 103 27 154 102l-131 536h93l51 -229l51 -237h2c60 86 116 165 168 236l166 230h109l-427 -576c-77 -104 -147 -144 -231 -144c-26 0 -47 3 -63 8l19 79c11 -3 24 -5 39 -5z" />
    <glyph glyph-name="afii10038" unicode="&#x424;" horiz-adv-x="827" 
d="M765 227c-56 -101 -174 -173 -342 -173h-14l-20 -78h-91l21 83c-160 23 -249 119 -249 270c-2 154 128 333 384 329h14l20 78h91l-21 -83c160 -24 249 -120 249 -269c0 -54 -14 -106 -42 -157zM210 203c30 -33 73 -54 130 -63l108 437c-187 3 -285 -133 -283 -244
c0 -53 15 -97 45 -130zM587 173c85 49 125 130 125 206c0 107 -62 176 -174 193l-108 -437c62 0 114 13 157 38z" />
    <glyph glyph-name="afii10039" unicode="&#x425;" horiz-adv-x="621" 
d="M283 370l-148 342h98l115 -277h2l245 277h119l-320 -352l157 -360h-100l-122 293h-2l-262 -293h-121z" />
    <glyph glyph-name="afii10040" unicode="&#x426;" horiz-adv-x="739" 
d="M209 712h92l-157 -630h353l157 630h93l-157 -630h82l-60 -242h-88l40 160h-532z" />
    <glyph glyph-name="afii10041" unicode="&#x427;" horiz-adv-x="643" 
d="M150 712h93l-52 -206c-4 -16 -6 -31 -6 -45c0 -71 49 -109 141 -109c56 0 110 8 161 24l83 336h93l-177 -712h-93l73 293c-53 -15 -108 -22 -165 -22c-139 0 -210 60 -210 172c0 21 4 46 11 75z" />
    <glyph glyph-name="afii10042" unicode="&#x428;" horiz-adv-x="1020" 
d="M32 0l177 712h92l-157 -630h277l157 630h93l-158 -630h278l157 630h92l-177 -712h-831z" />
    <glyph glyph-name="afii10043" unicode="&#x429;" horiz-adv-x="1029" 
d="M144 82h277l157 630h93l-158 -630h278l157 630h92l-157 -630h82l-60 -242h-88l40 160h-825l177 712h92z" />
    <glyph glyph-name="afii10044" unicode="&#x42a;" horiz-adv-x="744" 
d="M676 125c-40 -72 -122 -125 -242 -125h-274l157 630h-213l20 82h306l-71 -282h115c153 0 232 -71 232 -194c0 -38 -10 -75 -30 -111zM435 80c124 0 176 78 176 150c0 77 -48 120 -144 120h-127l-67 -270h162z" />
    <glyph glyph-name="afii10045" unicode="&#x42b;" horiz-adv-x="897" 
d="M209 712h92l-70 -282h114c153 0 232 -71 232 -194c1 -111 -91 -238 -272 -236h-273zM306 80c124 0 176 78 176 150c0 77 -47 120 -144 120h-127l-67 -270h162zM917 712l-177 -712h-92l177 712h92z" />
    <glyph glyph-name="afii10046" unicode="&#x42c;" horiz-adv-x="616" 
d="M547 125c-40 -72 -122 -125 -242 -125h-273l177 712h92l-70 -282h114c153 0 232 -71 232 -194c0 -38 -10 -75 -30 -111zM144 80h162c124 0 176 78 176 150c0 77 -47 120 -144 120h-127z" />
    <glyph glyph-name="afii10047" unicode="&#x42d;" horiz-adv-x="692" 
d="M637 232c-29 -71 -73 -129 -131 -176c-59 -47 -129 -70 -211 -70c-153 0 -247 92 -247 227c0 15 1 29 3 43h95c-2 -12 -3 -23 -3 -34c0 -93 62 -152 161 -152c67 0 123 24 168 71s78 105 97 175h-317l20 81h312c1 17 2 30 2 39c0 127 -62 206 -170 206
c-47 0 -90 -14 -129 -43s-68 -68 -87 -117h-96c25 75 66 135 123 179c57 43 122 65 197 65c81 0 145 -25 190 -76s67 -119 67 -206c0 -71 -15 -141 -44 -212z" />
    <glyph glyph-name="afii10048" unicode="&#x42e;" horiz-adv-x="985" 
d="M971 436c0 -70 -15 -140 -44 -209c-29 -70 -72 -128 -128 -173s-121 -68 -196 -68c-163 0 -258 116 -258 290c0 9 1 23 2 40h-144l-79 -316h-92l177 712h92l-78 -315h137c40 173 169 332 352 329c163 0 259 -116 259 -290zM483 127c29 -38 71 -57 124 -57
c54 0 102 19 143 56s73 83 95 140s33 113 33 168c0 127 -62 208 -170 208c-162 5 -272 -202 -270 -364c0 -63 15 -114 45 -151z" />
    <glyph glyph-name="afii10049" unicode="&#x42f;" horiz-adv-x="629" 
d="M-57 0l246 328c-54 31 -81 83 -81 156c-1 110 83 231 271 228h270l-177 -712h-93l74 297h-124c-23 0 -42 1 -58 4l-218 -301h-110zM537 633h-162c-59 0 -103 -14 -131 -43c-29 -29 -43 -63 -43 -103c0 -71 44 -112 136 -112h136z" />
    <glyph glyph-name="afii10065" unicode="&#x430;" horiz-adv-x="531" 
d="M472 302l-43 -172c-14 -56 -21 -99 -21 -130h-80c0 17 3 39 9 64h-2c-46 -50 -105 -75 -176 -75c-97 0 -154 51 -154 131c0 97 75 156 224 179c59 9 113 14 160 16l3 9c4 20 6 35 6 45c0 57 -36 85 -99 85c-69 0 -118 -40 -131 -101h-88c11 49 36 90 76 122
c40 31 89 47 148 47c115 0 177 -50 177 -153c0 -19 -3 -42 -9 -67zM122 77c15 -13 37 -20 66 -20c85 0 150 55 174 148l11 43c-42 -2 -88 -7 -137 -14c-104 -16 -138 -52 -138 -103c0 -23 8 -41 24 -54z" />
    <glyph glyph-name="afii10066" unicode="&#x431;" horiz-adv-x="575" 
d="M607 648c-35 -9 -92 -16 -169 -23c-164 -15 -215 -63 -277 -208h2c41 57 99 86 174 86c123 0 195 -78 195 -210c2 -135 -107 -312 -288 -307c-127 0 -196 78 -196 218c0 35 5 70 14 107c76 293 173 372 378 390c90 8 152 16 186 25zM163 94c20 -24 50 -36 89 -36
c120 -4 189 133 188 234c0 91 -42 142 -121 142c-130 3 -187 -141 -186 -237c0 -45 10 -79 30 -103z" />
    <glyph glyph-name="afii10067" unicode="&#x432;" horiz-adv-x="527" 
d="M470 308c-19 -25 -48 -42 -86 -51v-2c43 -12 69 -49 69 -102c0 -73 -65 -153 -199 -153h-239l126 508h196c108 0 161 -42 161 -118c0 -31 -9 -58 -28 -82zM117 65h130c81 0 117 41 117 89c0 49 -33 74 -99 74h-108zM288 289c85 0 121 39 121 86c0 45 -34 68 -101 68h-97
l-38 -154h115z" />
    <glyph glyph-name="afii10068" unicode="&#x433;" horiz-adv-x="417" 
d="M15 0l126 508h326l-17 -70h-238l-109 -438h-88z" />
    <glyph glyph-name="afii10069" unicode="&#x434;" horiz-adv-x="584" 
d="M-4 -160h-88l57 230h60c27 30 54 77 82 140c27 63 60 163 99 298h359l-108 -438h68l-57 -230h-88l40 160h-384zM369 70l91 368h-187c-53 -177 -103 -299 -148 -368h244z" />
    <glyph glyph-name="afii10070" unicode="&#x435;" horiz-adv-x="550" 
d="M505 236h-379c-4 -20 -6 -38 -6 -53c0 -85 47 -129 120 -129c68 0 124 39 148 98h90c-19 -47 -49 -87 -92 -118c-43 -32 -94 -48 -151 -48c-129 0 -199 76 -199 205c-2 146 109 336 289 331c125 0 193 -73 193 -194c0 -23 -4 -53 -13 -92zM142 303h291c2 11 3 22 3 33
c0 77 -43 118 -115 118c-81 0 -150 -55 -179 -151z" />
    <glyph glyph-name="afii10072" unicode="&#x436;" horiz-adv-x="688" 
d="M736 508l-253 -236l151 -272h-104l-137 273h-2l-67 -273h-86l64 262h-2l-249 -262h-123l289 283l-139 225h97l130 -229h2l57 229h86l-54 -218h2l222 218h116z" />
    <glyph glyph-name="afii10073" unicode="&#x437;" horiz-adv-x="490" 
d="M462 390c0 -59 -41 -108 -130 -135v-2c55 -21 83 -56 83 -105c0 -76 -76 -162 -214 -162c-124 0 -191 48 -191 133c0 13 1 25 4 36h88c-2 -9 -3 -17 -3 -26c0 -47 34 -71 102 -71c82 0 127 46 127 92c0 48 -40 73 -113 73h-47l17 68h45c97 0 143 48 143 93
c0 41 -33 66 -89 66c-65 0 -110 -31 -126 -94h-89c24 104 107 166 219 166c109 0 174 -51 174 -132z" />
    <glyph glyph-name="afii10074" unicode="&#x438;" horiz-adv-x="627" 
d="M125 84c63 82 119 152 168 211l175 213h144l-126 -508h-90l49 196c16 67 36 143 59 228h-2c-73 -93 -129 -164 -168 -211l-176 -213h-143l126 508h90l-49 -196c-16 -67 -36 -143 -59 -228h2z" />
    <glyph glyph-name="afii10075" unicode="&#x439;" horiz-adv-x="627" 
d="M15 0l126 508h90l-49 -196c-16 -67 -36 -143 -59 -228h2c63 82 119 152 168 211l175 213h144l-126 -508h-90l49 196c16 67 36 143 59 228h-2c-73 -93 -129 -164 -168 -211l-176 -213h-143zM516 607c-33 -25 -72 -38 -117 -38c-84 0 -129 42 -129 118c0 11 1 19 2 25h59
c-1 -3 -1 -8 -1 -15c0 -43 24 -66 71 -66c53 0 93 29 110 81h72c-13 -45 -35 -80 -67 -105z" />
    <glyph glyph-name="afii10076" unicode="&#x43a;" horiz-adv-x="517" 
d="M15 0l126 508h88l-51 -206h2l244 206h121l-286 -237l187 -271h-103l-174 259h-2l-64 -259h-88z" />
    <glyph glyph-name="afii10077" unicode="&#x43b;" horiz-adv-x="551" 
d="M-41 67c7 -1 13 -2 19 -2c26 0 49 11 68 33s40 64 63 127s51 157 84 283h343l-126 -508h-88l109 438h-173c-32 -122 -62 -215 -89 -278c-28 -64 -56 -107 -84 -130c-29 -23 -63 -34 -102 -34c-17 0 -31 2 -40 5z" />
    <glyph glyph-name="afii10078" unicode="&#x43c;" horiz-adv-x="768" 
d="M650 436l-119 -190l-157 -246h-106l-36 246l-25 190h-2c-14 -63 -29 -126 -45 -189l-61 -247h-84l126 508h135l34 -234c9 -61 17 -126 26 -195h2c42 75 81 140 117 195l150 234h148l-126 -508h-85l61 247c21 84 38 147 49 189h-2z" />
    <glyph glyph-name="afii10079" unicode="&#x43d;" horiz-adv-x="589" 
d="M15 0l126 508h88l-54 -218h257l54 218h88l-126 -508h-88l54 220h-256l-55 -220h-88z" />
    <glyph glyph-name="afii10080" unicode="&#x43e;" horiz-adv-x="565" 
d="M493 159c-22 -50 -54 -91 -97 -124s-95 -49 -154 -49c-131 0 -203 78 -203 214c-2 146 103 326 282 322c132 0 205 -78 205 -214c0 -50 -11 -100 -33 -149zM129 200c0 -91 41 -142 120 -142c119 -4 188 143 187 250c0 91 -42 142 -122 142c-118 4 -186 -143 -185 -250z
" />
    <glyph glyph-name="afii10081" unicode="&#x43f;" horiz-adv-x="581" 
d="M141 508h425l-126 -508h-88l108 438h-248l-109 -438h-88z" />
    <glyph glyph-name="afii10082" unicode="&#x440;" 
d="M510 171c-21 -53 -53 -96 -94 -131s-90 -52 -145 -52c-72 0 -127 39 -144 99h-2l-68 -272h-88l173 693h87l-14 -55h2c40 41 95 68 151 68c111 0 174 -73 174 -196c0 -51 -11 -102 -32 -154zM185 95c18 -24 44 -36 78 -36c115 -4 188 142 186 253c0 88 -39 138 -107 138
c-115 4 -187 -142 -185 -253c0 -44 9 -78 28 -102z" />
    <glyph glyph-name="afii10083" unicode="&#x441;" horiz-adv-x="534" 
d="M511 318h-91c1 5 1 11 1 20c0 69 -37 112 -104 112c-116 4 -190 -146 -189 -253c0 -87 42 -139 111 -139c67 0 126 50 150 119h93c-19 -57 -51 -103 -96 -138s-96 -53 -153 -53c-121 0 -196 80 -196 209c-2 144 104 332 285 327c119 0 190 -70 190 -179
c0 -11 0 -19 -1 -25z" />
    <glyph glyph-name="afii10084" unicode="&#x442;" horiz-adv-x="451" 
d="M52 438l18 70l437 -1l-17 -69h-174l-108 -438h-90l109 438h-175z" />
    <glyph glyph-name="afii10085" unicode="&#x443;" horiz-adv-x="472" 
d="M-32 -116c69 0 99 23 156 114l-67 510h88l47 -404h2l247 404h100l-333 -531c-84 -133 -135 -164 -246 -166c-21 0 -39 2 -52 7l18 72c11 -4 24 -6 40 -6z" />
    <glyph glyph-name="afii10086" unicode="&#x444;" horiz-adv-x="787" 
d="M628 42c-41 -36 -89 -54 -144 -54c-42 0 -76 15 -102 44l-54 -217h-88l51 204c-34 -21 -68 -31 -103 -31c-99 0 -154 73 -154 194c0 49 11 101 32 154s53 97 94 132s88 53 143 53c43 0 77 -16 101 -48l59 239h88l-56 -223c35 21 70 32 105 32c97 0 153 -72 153 -192
c0 -49 -11 -101 -32 -154s-52 -98 -93 -133zM479 59c112 -4 182 151 181 253c0 87 -37 138 -101 138c-27 0 -55 -12 -83 -36l-78 -316c18 -26 45 -39 81 -39zM127 198c0 -88 36 -139 100 -139c27 0 54 11 82 34l79 317c-17 27 -44 40 -81 40c-110 4 -182 -152 -180 -252z
" />
    <glyph glyph-name="afii10087" unicode="&#x445;" horiz-adv-x="480" 
d="M190 268l-113 240h94l80 -181h2l163 181h114l-234 -248l124 -260h-96l-89 203h-2l-183 -203h-115z" />
    <glyph glyph-name="afii10088" unicode="&#x446;" horiz-adv-x="584" 
d="M141 508h88l-109 -438h249l109 438h88l-109 -438h68l-57 -230h-88l40 160h-405z" />
    <glyph glyph-name="afii10089" unicode="&#x447;" horiz-adv-x="529" 
d="M95 508h88l-36 -142c-3 -15 -4 -25 -4 -31c0 -55 35 -83 104 -83c35 0 72 5 111 16l60 240h88l-126 -508h-88l49 198c-37 -10 -76 -15 -119 -15c-111 0 -168 49 -168 140c0 16 2 32 7 49z" />
    <glyph glyph-name="afii10090" unicode="&#x448;" horiz-adv-x="837" 
d="M15 0l126 508h88l-109 -438h209l109 438h88l-109 -438h208l109 438h88l-126 -508h-681z" />
    <glyph glyph-name="afii10091" unicode="&#x449;" horiz-adv-x="841" 
d="M120 70h209l109 438h88l-109 -438h208l109 438h88l-109 -438h62l-57 -230h-88l40 160h-655l126 508h88z" />
    <glyph glyph-name="afii10092" unicode="&#x44a;" horiz-adv-x="599" 
d="M517 92c-31 -55 -94 -92 -189 -92h-234l109 438h-151l18 70h238l-47 -188h94c121 0 184 -52 184 -145c0 -29 -7 -56 -22 -83zM199 68h129c84 0 123 47 123 103c0 54 -34 81 -103 81h-103z" />
    <glyph glyph-name="afii10093" unicode="&#x44b;" horiz-adv-x="728" 
d="M15 0l126 508h88l-47 -188h94c121 0 184 -52 184 -145c0 -87 -67 -175 -211 -175h-234zM713 508l-126 -508h-88l126 508h88zM249 68c84 0 123 47 123 103c0 54 -34 81 -103 81h-103l-46 -184h129z" />
    <glyph glyph-name="afii10094" unicode="&#x44c;" horiz-adv-x="520" 
d="M229 508l-47 -188h94c121 0 184 -52 184 -145c0 -87 -67 -175 -211 -175h-234l126 508h88zM249 68c84 0 123 47 123 103c0 54 -34 81 -103 81h-103l-46 -184h129z" />
    <glyph glyph-name="afii10095" unicode="&#x44d;" horiz-adv-x="534" 
d="M464 163c-22 -51 -54 -93 -97 -126c-43 -34 -95 -51 -155 -51c-119 0 -190 70 -190 179c0 11 1 19 2 25h89c-1 -5 -1 -11 -1 -20c0 -69 38 -113 105 -113c43 0 79 16 110 48s53 72 68 119h-224l17 68h219l1 19c0 88 -41 140 -112 140c-68 0 -127 -49 -152 -120h-92
c19 57 51 104 96 139s96 52 153 52c121 0 196 -80 196 -209c0 -49 -11 -99 -33 -150z" />
    <glyph glyph-name="afii10096" unicode="&#x44e;" horiz-adv-x="789" 
d="M717 159c-22 -50 -54 -91 -97 -124s-95 -49 -154 -49c-131 0 -203 78 -203 214l1 19h-107l-54 -219h-88l126 508h88l-55 -220l101 1c30 122 127 235 270 233c132 0 205 -78 205 -214c0 -50 -11 -100 -33 -149zM384 95c20 -25 50 -37 89 -37c119 -4 188 143 187 250
c0 91 -42 142 -122 142c-118 4 -186 -143 -185 -250c0 -45 10 -80 31 -105z" />
    <glyph glyph-name="afii10097" unicode="&#x44f;" horiz-adv-x="529" 
d="M388 0h-88l47 190h-90c-11 0 -26 1 -43 2l-155 -192h-106l181 216c-43 25 -64 66 -64 123c0 85 63 169 208 169h236zM157 342c0 -53 36 -85 111 -85h96l45 182h-124c-87 0 -128 -42 -128 -97z" />
    <glyph glyph-name="uni0450" unicode="&#x450;" horiz-adv-x="550" 
d="M505 236h-379c-4 -20 -6 -38 -6 -53c0 -85 47 -129 120 -129c68 0 124 39 148 98h90c-19 -47 -49 -87 -92 -118c-43 -32 -94 -48 -151 -48c-129 0 -199 76 -199 205c-2 146 109 336 289 331c125 0 193 -73 193 -194c0 -23 -4 -53 -13 -92zM142 303h291c2 11 3 22 3 33
c0 77 -43 118 -115 118c-81 0 -150 -55 -179 -151zM345 712l55 -143h-71l-93 143h109z" />
    <glyph glyph-name="afii10071" unicode="&#x451;" horiz-adv-x="550" 
d="M505 236h-379c-4 -20 -6 -38 -6 -53c0 -85 47 -129 120 -129c68 0 124 39 148 98h90c-19 -47 -49 -87 -92 -118c-43 -32 -94 -48 -151 -48c-129 0 -199 76 -199 205c-2 146 109 336 289 331c125 0 193 -73 193 -194c0 -23 -4 -53 -13 -92zM142 303h291c2 11 3 22 3 33
c0 77 -43 118 -115 118c-81 0 -150 -55 -179 -151zM425 712h82l-24 -99h-82zM230 712h82l-24 -99h-82z" />
    <glyph glyph-name="afii10099" unicode="&#x452;" 
d="M510 318c0 -23 -3 -48 -10 -75l-71 -283c-25 -104 -88 -149 -172 -149c-22 0 -41 2 -57 7l17 68c10 -2 19 -3 28 -3c53 0 83 27 102 102l64 258c6 25 9 47 9 64c0 57 -31 86 -88 86c-75 0 -145 -57 -170 -156l-59 -237h-88l139 560h-70l15 61h70l23 91h88l-23 -91h226
l-15 -61h-226l-41 -163h2c41 43 98 68 157 68c95 0 150 -51 150 -147z" />
    <glyph glyph-name="afii10100" unicode="&#x453;" horiz-adv-x="417" 
d="M141 508h326l-17 -70h-238l-109 -438h-88zM247 569l116 143h118l-153 -143h-81z" />
    <glyph glyph-name="afii10101" unicode="&#x454;" horiz-adv-x="534" 
d="M511 318h-90c1 9 2 16 2 20c0 69 -39 113 -106 113c-41 0 -77 -15 -107 -45c-30 -31 -52 -69 -67 -114h223l-17 -68h-221c-1 -6 -1 -15 -1 -27c0 -88 42 -140 111 -140c68 0 128 51 152 120h92c-19 -57 -51 -103 -96 -138s-96 -53 -153 -53c-121 0 -196 80 -196 209
c-2 144 104 332 285 327c119 0 190 -70 190 -179c0 -11 0 -19 -1 -25z" />
    <glyph glyph-name="afii10102" unicode="&#x455;" horiz-adv-x="494" 
d="M399 70c-33 -49 -100 -84 -195 -84c-121 0 -191 49 -191 141c0 17 2 31 5 42h89c-3 -10 -4 -21 -4 -34c0 -51 37 -79 108 -79c77 0 120 32 120 85c0 23 -8 40 -25 51s-47 24 -90 38c-61 20 -91 31 -115 66c-12 17 -18 41 -18 71c0 80 74 155 204 155
c116 0 177 -47 177 -134c0 -15 -1 -28 -4 -39h-85c2 18 3 28 3 31c0 48 -35 74 -99 74c-67 0 -108 -30 -108 -78c4 -47 19 -51 101 -79c68 -23 103 -36 131 -73c13 -19 20 -44 20 -75c0 -28 -8 -54 -24 -79z" />
    <glyph glyph-name="afii10103" unicode="&#x456;" horiz-adv-x="244" 
d="M15 0l126 508h88l-126 -508h-88zM192 712h88l-24 -99h-88z" />
    <glyph glyph-name="afii10104" unicode="&#x457;" horiz-adv-x="244" 
d="M141 508h88l-126 -508h-88zM118 712h82l-24 -99h-82zM248 613l24 99h82l-25 -99h-81z" />
    <glyph glyph-name="afii10105" unicode="&#x458;" horiz-adv-x="249" 
d="M-114 -114c9 -2 18 -3 27 -3c53 0 84 27 103 102l130 523h88l-137 -548c-25 -99 -82 -149 -172 -149c-21 0 -40 2 -56 7zM197 712h88l-24 -99h-88z" />
    <glyph glyph-name="afii10106" unicode="&#x459;" horiz-adv-x="828" 
d="M746 92c-31 -53 -96 -92 -189 -92h-235l109 438h-173c-32 -122 -62 -215 -89 -278c-28 -64 -56 -107 -84 -130c-29 -23 -63 -34 -102 -34c-17 0 -31 2 -40 5l16 66c7 -1 13 -2 19 -2c26 0 49 11 68 33s40 64 63 127s51 157 84 283h343l-46 -188h94
c121 0 184 -52 184 -145c0 -29 -7 -56 -22 -83zM557 68c83 0 122 47 122 103c0 54 -34 81 -103 81h-103l-46 -184h130z" />
    <glyph glyph-name="afii10107" unicode="&#x45a;" horiz-adv-x="865" 
d="M783 92c-31 -53 -96 -92 -189 -92h-234l59 238h-257l-59 -238h-88l126 508h88l-50 -201h257l50 201h88l-47 -188h94c121 0 184 -52 184 -145c0 -29 -7 -56 -22 -83zM464 68h130c84 0 122 47 122 103c0 54 -34 81 -103 81h-103z" />
    <glyph glyph-name="afii10108" unicode="&#x45b;" 
d="M500 243l-60 -243h-88l59 243c6 25 9 47 9 64c0 57 -31 86 -88 86c-75 0 -145 -57 -170 -156l-59 -237h-88l139 560h-70l15 61h70l23 91h88l-23 -91h226l-15 -61h-226l-41 -163h2c41 43 98 68 157 68c95 0 150 -51 150 -147c0 -23 -3 -48 -10 -75z" />
    <glyph glyph-name="afii10109" unicode="&#x45c;" horiz-adv-x="517" 
d="M229 508l-51 -206h2l244 206h121l-286 -237l187 -271h-103l-174 259h-2l-64 -259h-88l126 508h88zM388 712h118l-153 -143h-81z" />
    <glyph glyph-name="uni045D" unicode="&#x45d;" horiz-adv-x="627" 
d="M502 424c-73 -93 -129 -164 -168 -211l-176 -213h-143l126 508h90l-49 -196c-16 -67 -36 -143 -59 -228h2c63 82 119 152 168 211l175 213h144l-126 -508h-90l49 196c16 67 36 143 59 228h-2zM404 712l55 -143h-71l-93 143h109z" />
    <glyph glyph-name="afii10110" unicode="&#x45e;" horiz-adv-x="472" 
d="M541 508l-333 -531c-84 -133 -135 -164 -246 -166c-21 0 -39 2 -52 7l18 72c11 -4 24 -6 40 -6c69 0 99 23 156 114l-67 510h88l47 -404h2l247 404h100zM173 687c0 11 1 19 2 25h59c-1 -3 -1 -8 -1 -15c0 -43 24 -66 71 -66c53 0 93 29 110 81h72
c-25 -91 -93 -143 -184 -143c-84 0 -129 42 -129 118z" />
    <glyph glyph-name="afii10193" unicode="&#x45f;" horiz-adv-x="581" 
d="M141 508h88l-109 -438h249l109 438h88l-126 -508h-170l-40 -160h-88l40 160h-167z" />
    <glyph glyph-name="afii10050" unicode="&#x490;" horiz-adv-x="488" 
d="M32 0l177 712h295l37 148h88l-57 -230h-291l-157 -630h-92z" />
    <glyph glyph-name="afii10098" unicode="&#x491;" horiz-adv-x="417" 
d="M15 0l126 508h242l40 160h84l-57 -230h-238l-109 -438h-88z" />
    <glyph glyph-name="uni0492" unicode="&#x492;" horiz-adv-x="488" 
d="M32 0l76 305h-67l19 71h65l84 336h383l-20 -82h-291l-63 -254h144l-18 -71h-144l-76 -305h-92z" />
    <glyph glyph-name="uni0493" unicode="&#x493;" horiz-adv-x="419" 
d="M11 212l16 64h58l58 232h326l-17 -70h-238l-40 -162h131l-16 -64h-131l-53 -212h-88l53 212h-59z" />
    <glyph glyph-name="uni0496" unicode="&#x496;" horiz-adv-x="877" 
d="M959 712l-350 -346l155 -284h65l-59 -242h-88l40 160h-17l-191 367h-2l-91 -367h-91l88 356h-2l-350 -356h-124l385 379l-181 333h101l173 -338h2l85 338h91l-82 -328h2l319 328h122z" />
    <glyph glyph-name="uni0497" unicode="&#x497;" horiz-adv-x="688" 
d="M651 70l-57 -230h-88l40 160h-16l-137 273h-2l-67 -273h-86l64 262h-2l-249 -262h-123l289 283l-139 225h97l130 -229h2l57 229h86l-54 -218h2l222 218h116l-253 -236l112 -202h56z" />
    <glyph glyph-name="uni049A" unicode="&#x49a;" horiz-adv-x="625" 
d="M706 712l-395 -345l192 -285h75l-60 -242h-88l40 160h-24l-231 357h-2l-89 -357h-92l177 712h92l-78 -314h2l354 314h127z" />
    <glyph glyph-name="uni049B" unicode="&#x49b;" horiz-adv-x="517" 
d="M463 70l-57 -230h-88l40 160h-15l-174 259h-2l-64 -259h-88l126 508h88l-51 -206h2l244 206h121l-286 -237l139 -201h65z" />
    <glyph glyph-name="uni049C" unicode="&#x49c;" horiz-adv-x="694" 
d="M776 712l-349 -353l199 -359h-104l-175 329h-6l-42 -171h-79l42 171h-57l-82 -329h-91l177 712h91l-75 -302h58l42 171h79l-42 -171h6l286 302h122z" />
    <glyph glyph-name="uni049D" unicode="&#x49d;" horiz-adv-x="567" 
d="M615 508l-251 -240l148 -268h-104l-122 242h-4l-34 -136h-68l34 136h-53l-59 -242h-87l126 508h87l-50 -197h53l32 130h68l-32 -130h3l197 197h116z" />
    <glyph glyph-name="uni04A2" unicode="&#x4a2;" horiz-adv-x="749" 
d="M124 0h-92l177 712h92l-75 -302h364l74 302h93l-157 -630h82l-60 -242h-88l40 160h-87l82 329h-363z" />
    <glyph glyph-name="uni04A3" unicode="&#x4a3;" horiz-adv-x="592" 
d="M103 0h-88l126 508h88l-54 -218h257l54 218h88l-109 -438h68l-57 -230h-88l40 160h-68l54 220h-256z" />
    <glyph glyph-name="uni04AE" unicode="&#x4ae;" horiz-adv-x="614" 
d="M214 712l51 -147c26 -77 46 -140 61 -188h2c49 61 101 124 155 188l124 147h117l-360 -417l-74 -295h-92l73 295l-153 417h96z" />
    <glyph glyph-name="uni04AF" unicode="&#x4af;" horiz-adv-x="470" 
d="M143 508l24 -199c9 -80 16 -151 21 -212h2c5 7 11 18 19 33c44 76 80 136 107 179l122 199h101l-326 -517l-43 -176h-88l44 176l-69 517h86z" />
    <glyph glyph-name="uni04B2" unicode="&#x4b2;" horiz-adv-x="621" 
d="M714 712l-320 -352l121 -278h59l-60 -242h-88l40 160h-15l-122 293h-2l-262 -293h-121l339 370l-148 342h98l115 -277h2l245 277h119z" />
    <glyph glyph-name="uni04B3" unicode="&#x4b3;" horiz-adv-x="480" 
d="M437 70l-57 -230h-88l40 160h-8l-89 203h-2l-183 -203h-115l255 268l-113 240h94l80 -181h2l163 181h114l-234 -248l91 -190h50z" />
    <glyph glyph-name="uni04B8" unicode="&#x4b8;" horiz-adv-x="643" 
d="M663 712l-177 -712h-93l73 293c-37 -11 -79 -18 -125 -21l-36 -144h-82l36 145c-111 11 -168 70 -168 170c0 21 4 46 11 75l48 194h93l-52 -206c-4 -16 -6 -31 -6 -45c0 -57 33 -94 94 -105l52 209h83l-53 -212c45 3 87 11 126 23l83 336h93z" />
    <glyph glyph-name="uni04B9" unicode="&#x4b9;" horiz-adv-x="521" 
d="M506 508l-126 -508h-88l49 198c-30 -7 -59 -12 -87 -14l-25 -99h-68l25 100c-88 9 -132 58 -132 138c0 16 2 32 7 49l34 136h88l-36 -143c-3 -10 -4 -20 -4 -31c0 -41 20 -67 61 -77l39 158h68l-40 -162c27 2 56 7 87 15l60 240h88z" />
    <glyph glyph-name="uni04BA" unicode="&#x4ba;" horiz-adv-x="643" 
d="M124 0h-92l177 712h92l-73 -293c53 15 108 22 165 22c139 0 211 -60 211 -172c0 -18 -4 -43 -12 -75l-48 -194h-92l51 206c4 16 6 31 6 45c0 71 -48 109 -141 109c-57 0 -110 -8 -160 -24z" />
    <glyph glyph-name="uni04BB" unicode="&#x4bb;" 
d="M514 297l-74 -297h-88l73 297c6 25 9 47 9 64c0 57 -31 86 -88 86c-75 0 -145 -57 -170 -156l-73 -291h-88l177 712h88l-65 -261h2c41 43 98 68 157 68c95 0 150 -51 150 -147c0 -23 -3 -48 -10 -75z" />
    <glyph glyph-name="uni04C0" unicode="&#x4c0;" horiz-adv-x="282" 
d="M209 712h92l-177 -712h-92z" />
    <glyph glyph-name="uni04CF" unicode="&#x4cf;" horiz-adv-x="244" 
d="M192 712h88l-177 -712h-88z" />
    <glyph glyph-name="uni04D8" unicode="&#x4d8;" horiz-adv-x="740" 
d="M683 235c-32 -71 -79 -131 -140 -178c-62 -47 -135 -71 -220 -71c-173 0 -269 100 -269 265c0 48 8 94 25 137h547c4 23 6 45 6 64c0 127 -71 192 -186 192c-53 0 -99 -13 -140 -40s-71 -63 -90 -106h-105c52 127 179 228 345 228c179 0 275 -104 275 -280
c0 -70 -16 -140 -48 -211zM149 246c0 -113 70 -176 182 -176c65 0 122 21 172 64c50 42 85 100 105 174h-451c-5 -23 -8 -44 -8 -62z" />
    <glyph glyph-name="afii10846" unicode="&#x4d9;" horiz-adv-x="550" 
d="M480 165c-23 -51 -56 -94 -99 -128c-44 -34 -96 -51 -156 -51c-125 0 -192 73 -192 194c0 35 6 68 17 99h376c3 15 4 31 4 46c0 87 -45 129 -120 129c-67 0 -121 -36 -146 -91h-90c19 45 50 83 93 114c42 30 91 45 148 45c129 0 199 -76 199 -205
c0 -50 -11 -101 -34 -152zM114 172c0 -77 43 -118 116 -118c83 0 153 59 181 162h-292c-3 -13 -5 -27 -5 -44z" />
    <glyph glyph-name="uni04E8" unicode="&#x4e8;" horiz-adv-x="732" 
d="M718 431c0 -70 -15 -139 -45 -208c-31 -69 -75 -125 -132 -170s-125 -67 -203 -67c-173 0 -273 119 -273 295c0 70 15 139 45 208s74 125 131 170s125 67 203 67c172 0 274 -119 274 -295zM153 281c0 -129 69 -214 188 -214c67 0 124 24 172 72c47 48 81 107 101 177
h-459c-1 -16 -2 -28 -2 -35zM629 397c1 7 1 18 1 33c0 131 -70 215 -189 215c-67 0 -123 -24 -170 -71c-47 -48 -81 -107 -101 -177h459z" />
    <glyph glyph-name="uni04E9" unicode="&#x4e9;" horiz-adv-x="566" 
d="M493 159c-22 -50 -54 -91 -97 -124s-95 -49 -154 -49c-131 0 -203 78 -203 214c-2 146 103 326 282 322c132 0 205 -78 205 -214c0 -50 -11 -100 -33 -149zM438 286l1 22c0 91 -44 144 -125 144c-44 0 -81 -16 -111 -47c-30 -32 -52 -72 -65 -119h300zM158 94
c21 -25 51 -38 91 -38c44 0 81 16 112 48s52 71 65 118h-299l-1 -22c0 -45 11 -81 32 -106z" />
    <glyph glyph-name="Wgrave" unicode="&#x1e80;" horiz-adv-x="916" 
d="M1020 712l-343 -712h-132l2 311c0 71 2 178 6 319h-2c-41 -88 -93 -194 -154 -319l-152 -311h-132l11 712h88l-5 -288c-2 -113 -5 -224 -9 -335h2c41 89 95 201 162 336l141 287h129l-2 -287c0 -76 -1 -188 -4 -336h2c34 74 86 186 157 335l138 288h97zM591 898l56 -138
h-72l-93 138h109z" />
    <glyph glyph-name="wgrave" unicode="&#x1e81;" horiz-adv-x="770" 
d="M826 508l-261 -508h-126l-5 220l-3 220h-2c-48 -98 -84 -171 -109 -220l-115 -220h-126l-9 508h85l1 -212c1 -25 1 -63 1 -114s0 -89 -1 -114h2l21 43c39 79 69 139 90 180l111 217h127l4 -217c1 -35 1 -87 1 -158v-65h2l16 34c27 58 59 123 95 194l107 212h94zM362 712
h109l55 -143h-71z" />
    <glyph glyph-name="Wacute" unicode="&#x1e82;" horiz-adv-x="916" 
d="M1020 712l-343 -712h-132l2 311c0 71 2 178 6 319h-2c-41 -88 -93 -194 -154 -319l-152 -311h-132l11 712h88l-5 -288c-2 -113 -5 -224 -9 -335h2c41 89 95 201 162 336l141 287h129l-2 -287c0 -76 -1 -188 -4 -336h2c34 74 86 186 157 335l138 288h97zM629 898h118
l-153 -138h-81z" />
    <glyph glyph-name="wacute" unicode="&#x1e83;" horiz-adv-x="770" 
d="M826 508l-261 -508h-126l-5 220l-3 220h-2c-48 -98 -84 -171 -109 -220l-115 -220h-126l-9 508h85l1 -212c1 -25 1 -63 1 -114s0 -89 -1 -114h2l21 43c39 79 69 139 90 180l111 217h127l4 -217c1 -35 1 -87 1 -158v-65h2l16 34c27 58 59 123 95 194l107 212h94zM509 712
h118l-153 -143h-81z" />
    <glyph glyph-name="Wdieresis" unicode="&#x1e84;" horiz-adv-x="916" 
d="M1020 712l-343 -712h-132l2 311c0 71 2 178 6 319h-2c-41 -88 -93 -194 -154 -319l-152 -311h-132l11 712h88l-5 -288c-2 -113 -5 -224 -9 -335h2c41 89 95 201 162 336l141 287h129l-2 -287c0 -76 -1 -188 -4 -336h2c34 74 86 186 157 335l138 288h97zM640 775l25 99h82
l-25 -99h-82zM470 874h82l-25 -99h-82z" />
    <glyph glyph-name="wdieresis" unicode="&#x1e85;" horiz-adv-x="770" 
d="M155 508l1 -212c1 -25 1 -63 1 -114s0 -89 -1 -114h2l21 43c39 79 69 139 90 180l111 217h127l4 -217c1 -35 1 -87 1 -158v-65h2l16 34c27 58 59 123 95 194l107 212h94l-261 -508h-126l-5 220l-3 220h-2c-48 -98 -84 -171 -109 -220l-115 -220h-126l-9 508h85zM356 712
h82l-24 -99h-82zM609 613h-82l24 99h82z" />
    <glyph glyph-name="uni1E9E" unicode="&#x1e9e;" horiz-adv-x="768" 
d="M677 108c-40 -71 -121 -120 -233 -120c-128 0 -195 51 -195 148c0 16 1 31 4 45h92c-3 -10 -4 -21 -4 -32c0 -53 36 -81 111 -81c109 0 159 73 159 142c0 89 -63 136 -187 148l16 68l190 163c-29 35 -81 56 -145 56c-139 0 -229 -74 -266 -221l-105 -424h-92l107 432
c48 189 177 293 366 293c117 0 207 -51 251 -132l-206 -177c111 -32 167 -98 167 -198c0 -39 -10 -75 -30 -110z" />
    <glyph glyph-name="Ygrave" unicode="&#x1ef2;" horiz-adv-x="614" 
d="M271 295l-153 417h96l51 -147c26 -77 46 -140 61 -188h2c49 61 101 124 155 188l124 147h117l-360 -417l-74 -295h-92zM423 898l56 -138h-72l-93 138h109z" />
    <glyph glyph-name="ygrave" unicode="&#x1ef3;" horiz-adv-x="472" 
d="M541 508l-333 -531c-84 -133 -135 -164 -246 -166c-21 0 -39 2 -52 7l18 72c11 -4 24 -6 40 -6c69 0 99 23 156 114l-67 510h88l47 -404h2l247 404h100zM307 712l55 -143h-71l-93 143h109z" />
    <glyph glyph-name="uni2010" unicode="&#x2010;" horiz-adv-x="300" 
d="M30 253l19 78h240l-19 -78h-240z" />
    <glyph glyph-name="endash" unicode="&#x2013;" horiz-adv-x="500" 
d="M20 253l19 78h460l-19 -78h-460z" />
    <glyph glyph-name="emdash" unicode="&#x2014;" horiz-adv-x="1000" 
d="M20 253l19 78h960l-19 -78h-960z" />
    <glyph glyph-name="afii00208" unicode="&#x2015;" horiz-adv-x="1000" 
d="M-43 253l19 78h960l-19 -78h-960z" />
    <glyph glyph-name="underscoredbl" unicode="&#x2017;" horiz-adv-x="500" 
d="M-76 -50h500l-12 -49h-500zM-121 -228l13 49h500l-13 -49h-500z" />
    <glyph glyph-name="quoteleft" unicode="&#x2018;" horiz-adv-x="237" 
d="M149 578l82 134h53l-69 -134h34l-27 -108h-99z" />
    <glyph glyph-name="quoteright" unicode="&#x2019;" horiz-adv-x="237" 
d="M191 604h-34l26 108h100l-27 -108l-81 -134h-53z" />
    <glyph glyph-name="quotesinglbase" unicode="&#x201a;" horiz-adv-x="237" 
d="M40 0h-34l26 108h100l-27 -108l-81 -134h-53z" />
    <glyph glyph-name="quotereversed" unicode="&#x201b;" horiz-adv-x="237" 
d="M149 578l82 134h53l-69 -134h34l-27 -108h-99z" />
    <glyph glyph-name="quotedblleft" unicode="&#x201c;" horiz-adv-x="398" 
d="M123 470l26 108l82 134h53l-69 -134h34l-27 -108h-99zM283 470l27 108l82 134h52l-69 -134h34l-26 -108h-100z" />
    <glyph glyph-name="quotedblright" unicode="&#x201d;" horiz-adv-x="398" 
d="M283 470l69 134h-34l26 108h100l-27 -108l-81 -134h-53zM191 604h-34l26 108h100l-27 -108l-81 -134h-53z" />
    <glyph glyph-name="quotedblbase" unicode="&#x201e;" horiz-adv-x="398" 
d="M132 -134l69 134h-34l26 108h100l-27 -108l-81 -134h-53zM40 0h-34l26 108h100l-27 -108l-81 -134h-53z" />
    <glyph glyph-name="dagger" unicode="&#x2020;" horiz-adv-x="536" 
d="M103 448l18 74h169l47 190h90l-47 -190h169l-18 -74h-169l-142 -568h-90l142 568h-169z" />
    <glyph glyph-name="daggerdbl" unicode="&#x2021;" horiz-adv-x="536" 
d="M531 449h-169l-66 -264h169l-18 -74h-170l-57 -231h-90l57 231h-169l18 74h170l66 264h-169l18 74h169l47 189h90l-47 -189h169z" />
    <glyph glyph-name="bullet" unicode="&#x2022;" horiz-adv-x="335" 
d="M87 438c22 22 49 33 80 33c32 0 59 -11 82 -33c22 -23 33 -50 33 -82c0 -31 -11 -58 -33 -81c-23 -23 -50 -34 -82 -34c-31 0 -58 11 -80 34c-23 23 -34 50 -34 81c0 32 11 59 34 82z" />
    <glyph glyph-name="ellipsis" unicode="&#x2026;" horiz-adv-x="753" 
d="M551 117h109l-29 -117h-108zM288 117h109l-29 -117h-108zM24 117h109l-29 -117h-108z" />
    <glyph glyph-name="perthousand" unicode="&#x2030;" horiz-adv-x="1014" 
d="M113 573c25 65 77 115 146 115c73 0 112 -42 112 -118c2 -96 -59 -216 -164 -213c-73 0 -113 42 -113 119c0 32 6 64 19 97zM606 287c19 -21 28 -50 28 -88c2 -95 -59 -215 -164 -212c-73 0 -113 41 -113 118c-1 93 60 215 165 212c37 0 65 -10 84 -30zM685 105
c-1 93 60 215 165 212c73 0 112 -42 112 -118c2 -95 -59 -215 -164 -212c-73 0 -113 41 -113 118zM701 704l-605 -734h-70l605 734h70zM755 107c0 -41 15 -61 45 -61c58 -3 91 95 91 153c0 39 -15 59 -44 59c-58 3 -93 -95 -92 -151zM519 258c-58 3 -93 -95 -92 -151
c0 -41 15 -61 45 -61c58 -3 91 95 91 153c0 39 -15 59 -44 59zM164 478c0 -41 15 -61 45 -61c58 -4 91 97 91 153c0 39 -15 59 -44 59c-58 3 -93 -95 -92 -151z" />
    <glyph glyph-name="minute" unicode="&#x2032;" horiz-adv-x="186" 
d="M175 674h86l-124 -225h-58z" />
    <glyph glyph-name="second" unicode="&#x2033;" horiz-adv-x="330" 
d="M229 449l96 225h86l-124 -225h-58zM175 674h86l-124 -225h-58z" />
    <glyph glyph-name="guilsinglleft" unicode="&#x2039;" horiz-adv-x="292" 
d="M49 258l158 196h87l-162 -204l62 -196h-77z" />
    <glyph glyph-name="guilsinglright" unicode="&#x203a;" horiz-adv-x="292" 
d="M160 258l-62 196h78l67 -204l-158 -196h-87z" />
    <glyph glyph-name="exclamdbl" unicode="&#x203c;" horiz-adv-x="500" 
d="M83 175l112 537h113l-155 -537h-70zM420 712h113l-155 -537h-70zM274 106h104l-26 -106h-104zM153 106l-26 -106h-104l26 106h104z" />
    <glyph glyph-name="uni203D" unicode="&#x203d;" horiz-adv-x="516" 
d="M499 395c-21 -29 -59 -59 -113 -91c-86 -52 -97 -63 -120 -139h-73l87 400c-53 -15 -88 -53 -105 -116h-92c32 117 108 187 215 199l14 64h100l-19 -67c88 -19 138 -75 138 -158c0 -33 -11 -63 -32 -92zM306 333c11 10 26 21 45 34c65 44 86 76 86 115
c0 41 -24 71 -67 82l-66 -231h2zM140 0l26 106h104l-27 -106h-103z" />
    <glyph glyph-name="uni203E" unicode="&#x203e;" horiz-adv-x="500" 
d="M134 788l15 65h500l-15 -65h-500z" />
    <glyph glyph-name="fraction" unicode="&#x2044;" horiz-adv-x="147" 
d="M334 674h74l-553 -674h-73z" />
    <glyph glyph-name="uni2070" unicode="&#x2070;" horiz-adv-x="433" 
d="M455 499c-18 -51 -44 -93 -79 -127c-35 -35 -78 -52 -127 -52c-95 0 -143 58 -143 170c-1 131 83 327 232 322c95 0 144 -59 144 -171c0 -45 -9 -92 -27 -142zM204 412c11 -19 28 -28 50 -28c31 0 57 15 80 44c22 29 39 64 51 105c11 41 17 76 17 107
c0 68 -24 106 -68 106c-92 5 -149 -168 -148 -256c0 -34 6 -60 18 -78z" />
    <glyph glyph-name="uni2074" unicode="&#x2074;" horiz-adv-x="406" 
d="M287 445h-229l18 74l269 283h108l-73 -293h78l-15 -64h-79l-29 -115h-77zM151 509h153l15 61c17 67 31 120 42 158h-2z" />
    <glyph glyph-name="uni2075" unicode="&#x2075;" horiz-adv-x="415" 
d="M473 736h-217l-42 -120h2c23 16 55 26 84 26c85 0 135 -51 135 -135c2 -84 -75 -190 -202 -187c-92 0 -148 41 -148 110c0 9 1 18 3 28h81c-1 -5 -2 -10 -2 -17c0 -36 29 -56 74 -56c75 0 113 65 113 116c0 49 -29 78 -76 78c-40 0 -73 -23 -92 -62l-77 4l97 281h284z
" />
    <glyph glyph-name="uni2076" unicode="&#x2076;" horiz-adv-x="417" 
d="M482 677h-80v7c0 42 -21 63 -64 63c-59 0 -112 -51 -141 -150h2c31 27 67 41 108 41c83 0 134 -54 134 -138c2 -78 -74 -183 -189 -180c-96 0 -147 55 -147 162c-2 133 87 335 238 330c88 0 140 -45 140 -116c0 -8 0 -14 -1 -19zM181 465c0 -48 28 -80 73 -80
c67 0 106 62 106 110c0 49 -27 81 -71 81c-67 0 -108 -58 -108 -111z" />
    <glyph glyph-name="uni2077" unicode="&#x2077;" horiz-adv-x="366" 
d="M118 330c79 168 177 308 269 404h-258l18 68h343l-16 -67c-99 -104 -194 -249 -263 -405h-93z" />
    <glyph glyph-name="uni2078" unicode="&#x2078;" horiz-adv-x="419" 
d="M121 533c22 25 52 41 91 48v2c-37 19 -59 53 -59 94c0 63 67 135 177 135c92 0 151 -48 151 -120c0 -57 -41 -110 -112 -126v-2c40 -13 65 -53 65 -101c0 -70 -70 -143 -187 -143c-99 0 -159 49 -159 132c0 29 11 56 33 81zM191 404c15 -13 35 -19 61 -19
c67 0 105 42 105 87c0 43 -32 68 -85 68c-67 0 -104 -41 -104 -85c0 -22 8 -39 23 -51zM382 731c-14 11 -33 16 -57 16c-61 0 -97 -37 -97 -80c0 -40 28 -63 77 -63c63 0 98 40 98 81c0 19 -7 35 -21 46z" />
    <glyph glyph-name="uni2079" unicode="&#x2079;" horiz-adv-x="417" 
d="M440 504c-19 -51 -46 -95 -82 -130c-36 -36 -79 -54 -129 -54c-87 0 -139 45 -139 116c0 8 0 14 1 19h79v-7c0 -42 21 -63 64 -63c59 0 111 51 142 150h-2c-32 -27 -68 -41 -109 -41c-83 0 -134 54 -134 138c-2 78 74 183 189 180c97 0 148 -55 148 -162
c0 -46 -9 -95 -28 -146zM213 637c0 -49 27 -81 71 -81c67 0 108 58 108 111c0 49 -27 80 -74 80c-66 0 -105 -62 -105 -110z" />
    <glyph glyph-name="uni207A" unicode="&#x207a;" horiz-adv-x="407" 
d="M49 583h123v119h63v-119h123v-63h-123v-118h-63v118h-123v63z" />
    <glyph glyph-name="uni207B" unicode="&#x207b;" horiz-adv-x="409" 
d="M358 583v-63h-309v63h309z" />
    <glyph glyph-name="uni207C" unicode="&#x207c;" horiz-adv-x="407" 
d="M49 459v62h308v-62h-308zM49 582v62h308v-62h-308z" />
    <glyph glyph-name="uni207D" unicode="&#x207d;" horiz-adv-x="220" 
d="M94 431c0 137 63 290 186 418h67c-119 -148 -177 -303 -177 -444c0 -54 7 -113 22 -178h-61c-25 68 -37 136 -37 204z" />
    <glyph glyph-name="uni207E" unicode="&#x207e;" horiz-adv-x="220" 
d="M15 227c119 149 177 304 177 444c0 49 -7 108 -22 178h60c25 -65 37 -133 37 -204c0 -137 -62 -290 -185 -418h-67z" />
    <glyph glyph-name="uni2080" unicode="&#x2080;" horiz-adv-x="433" 
d="M330 -4c-18 -50 -44 -92 -79 -127c-35 -34 -78 -51 -127 -51c-95 0 -143 58 -143 170c-1 131 83 327 232 322c95 0 144 -59 144 -171c0 -45 -9 -92 -27 -143zM79 -91c11 -18 28 -27 50 -27c31 0 57 15 80 44c22 29 39 64 51 105c11 41 17 76 17 107c0 68 -24 106 -68 106
c-92 5 -149 -168 -148 -256c0 -34 6 -60 18 -79z" />
    <glyph glyph-name="uni2081" unicode="&#x2081;" horiz-adv-x="270" 
d="M3 220c77 0 117 23 141 80h67l-118 -472h-79l82 332h-108z" />
    <glyph glyph-name="uni2082" unicode="&#x2082;" horiz-adv-x="419" 
d="M351 190c0 -76 -50 -126 -171 -183c-51 -24 -85 -44 -104 -60c-19 -15 -32 -33 -37 -53h253l-15 -66h-345c22 116 68 165 202 229c51 25 86 46 106 63c19 17 29 38 29 61c0 42 -22 63 -66 63c-49 0 -83 -29 -100 -86h-83c25 97 95 152 188 152c89 0 143 -48 143 -120z
" />
    <glyph glyph-name="uni2083" unicode="&#x2083;" horiz-adv-x="414" 
d="M323 117c-18 -23 -46 -40 -85 -53v-1c43 -19 64 -50 64 -95c0 -69 -69 -150 -187 -150c-103 0 -157 43 -157 119c0 14 2 26 5 36h79c-2 -10 -3 -19 -3 -27c0 -42 26 -63 78 -63c33 0 59 9 78 26c19 18 29 38 29 59c0 44 -32 67 -91 67h-17l15 63h18c79 0 122 42 122 87
c0 37 -28 59 -76 59c-55 0 -89 -29 -103 -87h-80c21 96 94 153 187 153c96 0 151 -45 151 -118c0 -28 -9 -53 -27 -75z" />
    <glyph glyph-name="uni2084" unicode="&#x2084;" horiz-adv-x="406" 
d="M162 -57h-229l18 74l269 283h108l-73 -293h78l-15 -64h-79l-29 -115h-77zM26 7h153l15 61c17 67 31 120 42 158h-2z" />
    <glyph glyph-name="uni2085" unicode="&#x2085;" horiz-adv-x="416" 
d="M349 234h-217l-42 -120h2c23 16 55 26 84 26c85 0 135 -51 135 -135c2 -84 -75 -190 -202 -187c-92 0 -148 41 -148 110c0 9 1 18 3 28h81c-1 -5 -2 -10 -2 -17c0 -36 29 -56 74 -56c75 0 113 65 113 116c0 49 -29 78 -76 78c-40 0 -73 -23 -92 -62l-77 4l97 281h284z
" />
    <glyph glyph-name="uni2086" unicode="&#x2086;" horiz-adv-x="416" 
d="M357 175h-80v7c0 42 -21 63 -64 63c-59 0 -112 -51 -141 -150h2c31 27 67 41 108 41c83 0 134 -54 134 -138c2 -78 -74 -183 -189 -180c-96 0 -147 55 -147 162c-2 133 87 335 238 330c88 0 140 -45 140 -116c0 -8 0 -14 -1 -19zM56 -37c0 -48 28 -80 73 -80
c67 0 106 62 106 110c0 49 -27 81 -71 81c-67 0 -108 -58 -108 -111z" />
    <glyph glyph-name="uni2087" unicode="&#x2087;" horiz-adv-x="366" 
d="M-7 -172c79 168 177 308 269 404h-258l18 68h343l-16 -67c-99 -104 -194 -249 -263 -405h-93z" />
    <glyph glyph-name="uni2088" unicode="&#x2088;" horiz-adv-x="418" 
d="M-5 31c22 25 52 41 91 48v2c-37 19 -59 53 -59 94c0 63 67 135 177 135c92 0 151 -48 151 -120c0 -57 -41 -110 -112 -126v-2c40 -13 65 -53 65 -101c0 -70 -70 -143 -187 -143c-99 0 -159 49 -159 132c0 29 11 56 33 81zM65 -99c15 -12 35 -18 61 -18
c67 0 105 42 105 87c0 43 -32 68 -85 68c-67 0 -104 -41 -104 -85c0 -22 8 -39 23 -52zM256 229c-14 11 -33 16 -57 16c-61 0 -97 -37 -97 -80c0 -40 28 -63 77 -63c63 0 98 40 98 81c0 19 -7 35 -21 46z" />
    <glyph glyph-name="uni2089" unicode="&#x2089;" horiz-adv-x="417" 
d="M315 2c-19 -51 -46 -95 -82 -131c-36 -35 -79 -53 -129 -53c-87 0 -139 45 -139 116c0 8 0 14 1 19h79v-7c0 -42 21 -63 64 -63c59 0 111 51 142 150h-2c-32 -27 -68 -41 -109 -41c-83 0 -134 54 -134 138c-2 78 74 183 189 180c97 0 148 -55 148 -162
c0 -46 -9 -95 -28 -146zM88 135c0 -49 27 -81 71 -81c67 0 108 58 108 111c0 49 -27 80 -74 80c-66 0 -105 -62 -105 -110z" />
    <glyph glyph-name="uni208A" unicode="&#x208a;" horiz-adv-x="408" 
d="M49 81h123v119h63v-119h123v-63h-123v-118h-63v118h-123v63z" />
    <glyph glyph-name="uni208B" unicode="&#x208b;" horiz-adv-x="408" 
d="M358 81v-63h-309v63h309z" />
    <glyph glyph-name="uni208C" unicode="&#x208c;" horiz-adv-x="408" 
d="M49 -43v62h308v-62h-308zM49 80v62h308v-62h-308z" />
    <glyph glyph-name="uni208D" unicode="&#x208d;" horiz-adv-x="220" 
d="M-31 -71c0 137 63 290 186 418h67c-119 -148 -177 -303 -177 -444c0 -54 7 -113 22 -178h-61c-25 68 -37 136 -37 204z" />
    <glyph glyph-name="uni208E" unicode="&#x208e;" horiz-adv-x="220" 
d="M-111 -275c119 149 177 304 177 444c0 49 -7 108 -22 178h60c25 -65 37 -133 37 -204c0 -137 -62 -290 -185 -418h-67z" />
    <glyph glyph-name="uni2099" unicode="&#x2099;" horiz-adv-x="421" 
d="M315 36l-52 -208h-75l51 207c4 13 6 26 6 41c0 36 -21 55 -57 55c-52 0 -99 -37 -115 -104l-50 -199h-75l89 356h72l-11 -41h2c29 31 70 49 113 49c69 0 110 -37 110 -105c0 -15 -3 -32 -8 -51z" />
    <glyph glyph-name="franc" unicode="&#x20a3;" horiz-adv-x="562" 
d="M615 592h-330l-47 -188h308l-21 -81h-307l-29 -118h173l-19 -73h-172l-33 -132h-93l33 132h-84l18 73h84l117 469h422z" />
    <glyph glyph-name="lira" unicode="&#x20a4;" horiz-adv-x="562" 
d="M456 0h-495l19 77c65 0 109 45 130 134l8 30h-97l14 58h97l14 57h-96l14 58h97l21 85c32 125 112 189 231 189c111 0 173 -56 173 -155c0 -16 -2 -33 -6 -51h-88c3 15 5 28 5 38c0 57 -32 88 -92 88c-69 0 -116 -43 -136 -126l-17 -68h125l-14 -58h-126l-14 -57h125
l-14 -58h-126l-7 -29c-17 -71 -41 -107 -86 -134v-2h360z" />
    <glyph glyph-name="peseta" unicode="&#x20a7;" horiz-adv-x="839" 
d="M767 73l-19 -72c-12 -3 -26 -5 -42 -5c-83 0 -120 32 -120 105c0 17 3 38 9 62l69 275h-67c-20 -101 -109 -194 -267 -194h-146l-60 -244h-92l167 674h170c141 0 219 -61 231 -166h81l31 123h88l-31 -123h101l-17 -70h-101l-70 -281c-4 -15 -6 -27 -6 -38
c0 -35 17 -50 56 -50c11 0 23 1 35 4zM331 324c121 0 176 78 176 150c0 77 -48 120 -144 120h-92l-67 -270h127z" />
    <glyph glyph-name="Euro" unicode="&#x20ac;" horiz-adv-x="562" 
d="M508 495c0 73 -39 113 -114 113c-47 0 -88 -18 -122 -53c-35 -35 -62 -80 -82 -135h257l-25 -58h-250c-3 -11 -6 -30 -11 -57h236l-26 -58h-214c0 -119 43 -181 127 -181c71 0 129 49 158 136h92c-45 -137 -140 -216 -260 -216c-137 0 -208 89 -208 260v1h-67l26 58h45
c2 19 5 38 9 57h-51l25 58h42c25 77 64 141 117 192s116 76 191 76c127 0 197 -62 197 -177c0 -13 -1 -26 -3 -40h-91c1 12 2 20 2 24z" />
    <glyph glyph-name="uni20B9" unicode="&#x20b9;" horiz-adv-x="562" 
d="M606 609h-182v-2c35 -16 54 -44 59 -84h118l-33 -65h-91c-24 -71 -98 -129 -214 -148v-2c43 -17 66 -52 85 -120l50 -188h-99l-44 176c-21 83 -58 115 -129 115h-16l17 67h54c105 0 170 43 195 100h-297l33 65h271c-10 57 -60 86 -151 86h-115l34 65h489z" />
    <glyph glyph-name="uni20BA" unicode="&#x20ba;" horiz-adv-x="562" 
d="M552 318c-39 -212 -179 -323 -403 -323c-25 0 -59 2 -100 6l69 275l-106 -51l18 71l105 50l22 86l-106 -50l18 71l105 50l43 171h92l-32 -129l190 91l-18 -71l-189 -90l-22 -87l190 92l-18 -71l-189 -91l-60 -240c157 0 267 85 295 240h96z" />
    <glyph glyph-name="uni20BC" unicode="&#x20bc;" horiz-adv-x="656" 
d="M613 270l-66 -270h-87l69 279c9 39 14 71 14 97c0 85 -34 127 -107 138l-128 -514h-87l128 517c-116 -4 -166 -62 -203 -210l-76 -307h-87l81 325c24 97 60 167 107 210s113 66 198 67h2l27 110h87l-28 -114c117 -17 173 -84 173 -215c0 -31 -6 -69 -17 -113z" />
    <glyph glyph-name="uni20BD" unicode="&#x20bd;" horiz-adv-x="562" 
d="M562 389c-37 -69 -113 -118 -224 -118h-150l-17 -67h198l-19 -73h-197l-32 -131h-91l32 131h-81l18 73h82l16 67h-81l18 75h82l82 328h178c140 0 213 -68 213 -181c0 -35 -9 -70 -27 -104zM207 346h128c112 0 160 75 160 142c0 72 -43 112 -130 112h-95z" />
    <glyph glyph-name="afii61248" unicode="&#x2105;" horiz-adv-x="890" 
d="M686 362c99 0 156 -56 156 -155c1 -100 -76 -225 -206 -221c-99 0 -154 56 -154 155c-2 100 75 225 204 221zM111 566c32 69 96 122 185 122c91 0 145 -51 145 -131c0 -3 -1 -8 -2 -15h-78c1 4 2 8 2 13c0 44 -28 72 -73 72c-76 3 -125 -96 -124 -164
c0 -56 28 -90 73 -90c44 0 81 33 96 77h81c-28 -83 -98 -138 -183 -138c-89 0 -146 58 -146 151c0 34 8 68 24 103zM771 674l-553 -674h-73l552 674h74zM640 47c79 -2 125 92 124 162c0 59 -27 91 -82 91c-79 0 -122 -90 -122 -162c0 -59 27 -91 80 -91z" />
    <glyph glyph-name="afii61289" unicode="&#x2113;" horiz-adv-x="440" 
d="M431 546c1 -135 -91 -307 -251 -344l-11 -44c-4 -16 -6 -30 -6 -42c0 -39 18 -56 58 -56c19 0 35 2 49 7l-17 -70c-18 -4 -36 -6 -55 -6c-84 0 -124 35 -124 112c0 19 3 40 10 64l6 25c-11 1 -29 3 -54 8l13 53c21 -4 38 -6 51 -6h4l64 257c17 69 38 117 63 144
s56 40 95 40c65 0 105 -45 105 -142zM294 336c53 64 80 144 80 212c0 51 -14 77 -42 77c-33 0 -54 -27 -74 -111l-62 -249c39 15 71 39 98 71z" />
    <glyph glyph-name="afii61352" unicode="&#x2116;" horiz-adv-x="1141" 
d="M209 712h127l97 -307c30 -94 59 -188 87 -282l11 -37h2c33 143 59 256 80 341l72 285h90l-177 -712h-128l-97 307c-37 120 -70 226 -98 319h-2c-33 -145 -60 -259 -81 -341l-70 -285h-90zM1116 575c27 -27 40 -65 40 -114c1 -100 -76 -225 -206 -222
c-99 0 -154 58 -154 155c-2 101 75 224 204 221c50 0 89 -13 116 -40zM996 554c-79 0 -122 -90 -122 -162c0 -59 27 -92 80 -92c79 -3 125 93 124 163c0 59 -27 91 -82 91zM1057 107h-322l17 70h323z" />
    <glyph glyph-name="uni2117" unicode="&#x2117;" horiz-adv-x="810" 
d="M719 549c30 -56 45 -120 45 -193c3 -217 -148 -371 -359 -368c-212 -3 -361 151 -358 368c-3 217 146 371 358 368c141 0 254 -64 314 -175zM569 637c-47 27 -102 40 -164 40c-187 0 -313 -129 -313 -321s126 -321 313 -321s313 129 313 321c0 128 -54 228 -149 281z
M267 115v470h168c113 0 177 -55 177 -148c0 -92 -64 -148 -177 -148h-94v-174h-74zM341 354h89c69 0 106 28 106 83s-37 83 -106 83h-89v-166z" />
    <glyph glyph-name="trademark" unicode="&#x2122;" horiz-adv-x="801" 
d="M788 652l-26 -46c-23 -40 -38 -66 -45 -79l-100 -171h-77l-22 296h-2l-30 -126l-43 -170h-64l89 356h102l13 -156c4 -60 7 -105 8 -134h2c27 50 52 95 75 134l91 156h109l-89 -356h-64l43 170c9 40 20 82 32 126h-2zM104 653l15 59h299l-15 -59h-116l-74 -297h-67l74 297
h-116z" />
    <glyph glyph-name="uni2126" unicode="&#x2126;" horiz-adv-x="729" 
d="M660 276c-41 -65 -101 -129 -180 -193v-2h168l-20 -81h-269l20 84c163 131 241 248 241 380c0 117 -66 178 -177 178c-173 5 -275 -167 -273 -310c0 -91 29 -161 84 -248l-21 -84h-258l20 81h172v2c-56 88 -88 167 -88 262c-3 178 134 386 375 381
c167 0 266 -82 266 -243c0 -73 -20 -142 -60 -207z" />
    <glyph glyph-name="estimated" unicode="&#x212e;" horiz-adv-x="860" 
d="M738 122c-27 -37 -66 -68 -118 -94c-52 -27 -115 -40 -189 -40c-229 -3 -386 147 -384 348c-2 198 150 355 384 352c234 3 384 -167 382 -361h-611c-8 0 -13 -6 -13 -13v-166c0 -23 3 -33 15 -44c62 -61 138 -91 227 -91c96 0 185 44 238 109h69zM189 361
c0 -7 5 -12 13 -12h455c8 0 13 5 13 12v167c0 20 -3 29 -15 41c-63 62 -137 93 -224 93c-89 0 -165 -31 -227 -93c-12 -12 -15 -21 -15 -41v-167z" />
    <glyph glyph-name="oneeighth" unicode="&#x215b;" horiz-adv-x="752" 
d="M690 385c24 -19 36 -45 36 -76c0 -51 -36 -94 -99 -107v-2c37 -12 58 -42 58 -85c0 -62 -60 -124 -161 -124c-89 0 -142 43 -142 114c0 52 40 99 107 110v2c-32 13 -52 45 -52 81c0 54 58 115 155 115c41 0 73 -9 98 -28zM648 674l-553 -674h-73l552 674h74zM97 606
c67 0 102 19 122 68h64l-101 -404h-75l70 278h-94zM611 123c0 35 -25 54 -68 54c-55 0 -84 -33 -84 -69c0 -35 25 -55 68 -55c53 0 84 34 84 70zM631 257c13 13 20 27 20 44c0 31 -23 50 -64 50c-51 0 -78 -28 -78 -63c0 -32 24 -51 64 -51c25 0 45 7 58 20z" />
    <glyph glyph-name="threeeighths" unicode="&#x215c;" horiz-adv-x="875" 
d="M813 385c24 -19 36 -45 36 -76c0 -51 -36 -94 -99 -107v-2c37 -12 58 -42 58 -85c0 -62 -60 -124 -161 -124c-89 0 -142 43 -142 114c0 52 40 99 107 110v2c-32 13 -52 45 -52 81c0 54 58 115 155 115c41 0 73 -9 98 -28zM64 397h77c-2 -9 -3 -17 -3 -24
c0 -33 21 -50 63 -50c53 0 86 33 86 68s-25 52 -75 52h-13l15 62h14c64 0 99 33 99 70c0 29 -22 46 -61 46c-44 0 -72 -23 -84 -70h-76c17 83 81 132 165 132s132 -38 132 -102c0 -50 -31 -86 -92 -107v-2c34 -17 51 -44 51 -81c0 -60 -59 -130 -162 -130
c-91 0 -140 37 -140 104c0 11 1 21 4 32zM770 674l-553 -674h-73l552 674h74zM666 177c-55 0 -84 -33 -84 -69c0 -35 25 -55 68 -55c53 0 84 34 84 70c0 35 -25 54 -68 54zM754 257c13 13 20 27 20 44c0 31 -23 50 -64 50c-51 0 -78 -28 -78 -63c0 -32 24 -51 64 -51
c25 0 45 7 58 20z" />
    <glyph glyph-name="fiveeighths" unicode="&#x215d;" horiz-adv-x="875" 
d="M613 215v2c-32 13 -52 45 -52 81c0 54 58 115 155 115c81 0 134 -41 134 -104c0 -51 -36 -94 -99 -107v-2c37 -12 58 -42 58 -85c0 -62 -60 -124 -161 -124c-89 0 -142 43 -142 114c0 52 40 99 107 110zM62 357c0 7 1 15 3 24h77c-1 -3 -1 -8 -1 -13c0 -28 24 -45 60 -45
c60 0 91 54 91 93c0 40 -23 63 -62 63c-33 0 -59 -19 -74 -51l-74 5l83 241h251l-16 -64h-186l-34 -93h2c19 15 42 22 69 22c75 0 119 -45 119 -117c0 -74 -65 -161 -176 -161c-83 0 -132 36 -132 96zM771 674l-553 -674h-73l552 674h74zM583 108c0 -35 25 -55 68 -55
c53 0 84 34 84 70c0 35 -25 54 -68 54c-55 0 -84 -33 -84 -69zM650 251c11 -9 27 -14 47 -14c51 0 78 31 78 64c0 31 -23 50 -64 50c-51 0 -78 -28 -78 -63c0 -16 6 -28 17 -37z" />
    <glyph glyph-name="seveneighths" unicode="&#x215e;" horiz-adv-x="781" 
d="M720 385c24 -19 36 -45 36 -76c0 -51 -36 -94 -99 -107v-2c37 -12 58 -42 58 -85c0 -62 -60 -124 -161 -124c-89 0 -142 43 -142 114c0 52 40 99 107 110v2c-32 13 -52 45 -52 81c0 54 58 115 155 115c41 0 73 -9 98 -28zM677 674l-553 -674h-73l552 674h74zM200 465
c40 58 78 106 115 144h-217l16 65h300l-15 -64c-83 -84 -164 -209 -220 -340h-91c35 71 72 136 112 195zM573 177c-55 0 -84 -33 -84 -69c0 -35 25 -55 68 -55c53 0 84 34 84 70c0 35 -25 54 -68 54zM661 257c13 13 20 27 20 44c0 31 -23 50 -64 50c-51 0 -78 -28 -78 -63
c0 -32 24 -51 64 -51c25 0 45 7 58 20z" />
    <glyph glyph-name="uni2166" unicode="&#x2166;" horiz-adv-x="1167" 
d="M121 712h90l29 -317c9 -89 17 -191 25 -305h2c59 107 117 208 174 305l188 317h103l-423 -712h-120zM813 712h92l-177 -712h-92zM1187 712l-177 -712h-92l177 712h92z" />
    <glyph glyph-name="partialdiff" unicode="&#x2202;" horiz-adv-x="601" 
d="M532 262c-26 -77 -65 -143 -116 -196c-52 -53 -115 -80 -188 -80c-127 0 -193 74 -193 198c-2 114 97 299 274 294c88 0 141 -40 161 -96h2c8 28 14 71 14 104c0 104 -43 161 -127 161c-61 0 -104 -37 -124 -102h-93c28 112 104 181 215 181c140 0 213 -89 213 -246
c0 -69 -13 -141 -38 -218zM128 181c0 -73 35 -116 107 -116c124 -5 194 138 193 217c0 75 -40 121 -113 121c-119 5 -188 -135 -187 -222z" />
    <glyph glyph-name="uni2206" unicode="&#x2206;" horiz-adv-x="675" 
d="M390 712h125l93 -712h-666zM98 82h410l-33 276c-11 89 -21 186 -32 290h-2c-53 -91 -111 -188 -173 -290z" />
    <glyph glyph-name="product" unicode="&#x220f;" horiz-adv-x="661" 
d="M95 712h471v-832h-92v750h-287v-750h-92v832z" />
    <glyph glyph-name="summation" unicode="&#x2211;" horiz-adv-x="486" 
d="M35 712h416v-81h-314l200 -338l-200 -332h314v-81h-416v81l203 332l-203 338v81z" />
    <glyph glyph-name="minus" unicode="&#x2212;" horiz-adv-x="566" 
d="M495 353v-73h-424v73h424z" />
    <glyph glyph-name="uni2215" unicode="&#x2215;" horiz-adv-x="457" 
d="M384 745h86l-503 -834h-86z" />
    <glyph glyph-name="uni2219" unicode="&#x2219;" horiz-adv-x="344" 
d="M226 364v-117h-108v117h108z" />
    <glyph glyph-name="radical" unicode="&#x221a;" horiz-adv-x="575" 
d="M25 360h141l95 -397h2l213 749h79l-238 -832h-114l-96 408h-82v72z" />
    <glyph glyph-name="infinity" unicode="&#x221e;" horiz-adv-x="629" 
d="M575 198c-26 -28 -60 -42 -101 -42c-71 0 -115 36 -160 96c-44 -60 -90 -96 -159 -96c-84 0 -140 61 -140 152s56 152 140 152c69 0 115 -36 159 -96c45 60 89 96 160 96c41 0 75 -14 101 -42s39 -65 39 -110s-13 -82 -39 -110zM88 308c0 -51 27 -81 75 -81
c44 0 73 28 112 81c-39 53 -68 81 -112 81c-48 0 -75 -30 -75 -81zM354 308c37 -52 68 -81 112 -81c47 0 75 30 75 81s-28 81 -75 81c-44 0 -75 -29 -112 -81z" />
    <glyph glyph-name="integral" unicode="&#x222b;" horiz-adv-x="314" 
d="M40 -120c51 0 73 25 73 86v605c0 97 48 146 139 146c21 0 38 -2 51 -5v-68c-6 2 -16 3 -29 3c-51 0 -73 -25 -73 -86v-605c0 -97 -48 -146 -140 -146c-20 0 -37 2 -50 5v68c6 -2 16 -3 29 -3z" />
    <glyph glyph-name="approxequal" unicode="&#x2248;" horiz-adv-x="566" 
d="M99 261c22 27 52 40 89 40c43 0 69 -17 112 -50c33 -27 52 -39 77 -39c37 0 60 29 60 76h63c0 -88 -47 -147 -122 -147c-43 0 -72 19 -111 51c-35 27 -53 39 -78 39c-37 0 -60 -30 -60 -77h-63c0 44 11 80 33 107zM437 480h63c0 -88 -47 -147 -122 -147
c-41 0 -71 18 -111 50c-35 27 -53 39 -78 39c-37 0 -60 -29 -60 -76h-63c0 88 47 147 122 147c43 0 68 -16 112 -51c33 -27 52 -39 77 -39c37 0 60 30 60 77z" />
    <glyph glyph-name="notequal" unicode="&#x2260;" horiz-adv-x="566" 
d="M495 197h-249l-80 -127h-75l80 127h-100v74h146l57 91h-203v74h249l80 127h76l-80 -127h99v-74h-145l-58 -91h203v-74z" />
    <glyph glyph-name="lessequal" unicode="&#x2264;" horiz-adv-x="566" 
d="M71 280v95l424 165v-77l-342 -135v-2l342 -135v-77zM71 0v72h424v-72h-424z" />
    <glyph glyph-name="greaterequal" unicode="&#x2265;" horiz-adv-x="566" 
d="M413 326v2l-342 135v77l424 -165v-95l-424 -166v77zM71 0v72h424v-72h-424z" />
    <glyph glyph-name="lozenge" unicode="&#x25ca;" horiz-adv-x="597" 
d="M241 712h115l201 -356l-201 -356h-115l-201 356zM299 64l167 292l-167 292l-168 -292z" />
    <glyph glyph-name="uniF8FF" unicode="&#xf8ff;" horiz-adv-x="623" 
 />
    <glyph glyph-name="uniFB00" unicode="&#xfb00;" horiz-adv-x="578" 
d="M662 644c-6 2 -15 3 -27 3c-51 0 -82 -27 -98 -92l-12 -47h101l-18 -70h-100l-109 -438h-87l109 438h-185l-110 -438h-87l109 438h-89l17 70h90l17 70c23 93 79 139 168 139c19 0 38 -2 55 -6l-16 -67c-7 2 -16 3 -28 3c-51 0 -81 -27 -97 -92l-12 -47h186l17 70
c23 93 79 139 168 139c19 0 38 -2 55 -6z" />
    <glyph glyph-name="uniFB01" unicode="&#xfb01;" horiz-adv-x="549" 
d="M39 0l109 438h-89l17 70h90l17 70c23 93 79 139 168 139c19 0 38 -2 55 -6l-16 -67c-7 2 -16 3 -28 3c-51 0 -81 -27 -97 -92l-12 -47h100l-17 -70h-100l-110 -438h-87zM320 0l126 508h88l-126 -508h-88zM561 613h-88l24 99h88z" />
    <glyph glyph-name="uniFB02" unicode="&#xfb02;" horiz-adv-x="549" 
d="M148 438h-89l17 70h90l17 70c23 93 79 139 168 139c19 0 38 -2 55 -6l-16 -67c-7 2 -16 3 -28 3c-51 0 -81 -27 -97 -92l-12 -47h100l-17 -70h-100l-110 -438h-87zM585 712l-177 -712h-88l177 712h88z" />
    <glyph glyph-name="uniFB03" unicode="&#xfb03;" horiz-adv-x="822" 
d="M148 438h-89l17 70h90l17 70c23 93 79 139 168 139c19 0 38 -2 55 -6l-16 -67c-7 2 -16 3 -28 3c-51 0 -81 -27 -97 -92l-12 -47h186l17 70c23 93 79 139 168 139c19 0 38 -2 55 -6l-17 -67c-6 2 -15 3 -27 3c-51 0 -82 -27 -98 -92l-12 -47h101l-18 -70h-100l-109 -438
h-87l109 438h-185l-110 -438h-87zM681 0h-88l126 508h88zM746 613l24 99h88l-24 -99h-88z" />
    <glyph glyph-name="uniFB04" unicode="&#xfb04;" horiz-adv-x="822" 
d="M662 644c-6 2 -15 3 -27 3c-51 0 -82 -27 -98 -92l-12 -47h101l-18 -70h-100l-109 -438h-87l109 438h-185l-110 -438h-87l109 438h-89l17 70h90l17 70c23 93 79 139 168 139c19 0 38 -2 55 -6l-16 -67c-7 2 -16 3 -28 3c-51 0 -81 -27 -97 -92l-12 -47h186l17 70
c23 93 79 139 168 139c19 0 38 -2 55 -6zM681 0h-88l177 712h88z" />
    <glyph glyph-name="uniFEFF" unicode="&#xfeff;" horiz-adv-x="0" 
 />
    <glyph glyph-name="glyph202" horiz-adv-x="356" 
d="M-28 83c13 -3 26 -5 38 -5c81 0 130 40 155 144l123 490h92l-130 -521c-32 -131 -112 -196 -239 -196c-25 0 -44 3 -58 9zM283 773l116 143h118l-153 -143h-81z" />
    <glyph glyph-name="Ccedilla.salt" horiz-adv-x="690" 
d="M686 456h-95c1 16 2 27 2 34c0 93 -60 152 -156 152c-58 0 -108 -19 -150 -56c-43 -38 -75 -85 -96 -142c-22 -57 -33 -113 -33 -168c0 -127 61 -206 168 -206c48 0 92 15 131 44s68 67 87 116h96c-25 -75 -66 -135 -123 -178c-57 -44 -124 -66 -199 -66
c-81 0 -143 25 -188 76s-68 119 -68 206c0 71 15 141 45 212c29 71 73 129 131 176s128 70 209 70c150 0 242 -92 242 -227c0 -15 -1 -29 -3 -43zM260 -49h84l-134 -162h-115z" />
    <glyph glyph-name="Scedilla.salt" horiz-adv-x="609" 
d="M431 254c-21 28 -56 45 -124 69c-84 29 -131 51 -162 99c-15 24 -23 55 -23 93c-2 96 95 214 262 211c151 0 226 -59 226 -178c0 -19 -2 -37 -7 -56h-93c3 18 5 32 5 43c0 75 -49 112 -140 112c-103 0 -158 -62 -158 -121c0 -31 11 -54 32 -70c21 -17 57 -33 108 -50
c83 -28 131 -52 163 -101c16 -25 24 -57 24 -96c2 -104 -103 -226 -282 -223c-151 0 -234 66 -234 189c0 20 2 40 7 61h94c-4 -19 -6 -36 -6 -51c0 -80 52 -120 148 -120c123 0 176 72 176 133c0 23 -5 41 -16 56zM212 -49h84l-134 -162h-115z" />
    <glyph glyph-name="Tcommaaccent.salt" horiz-adv-x="599" 
d="M124 712h579l-20 -82h-243l-157 -630h-93l157 630h-243zM33 -211l165 162h84l-134 -162h-115z" />
    <glyph glyph-name="i.locl" horiz-adv-x="244" 
d="M141 508h88l-126 -508h-88zM192 712h88l-24 -99h-88z" />
    <glyph glyph-name="glyph314" horiz-adv-x="249" 
d="M-114 -114c9 -2 18 -3 27 -3c53 0 84 27 103 102l130 523h88l-137 -548c-25 -99 -82 -149 -172 -149c-21 0 -40 2 -56 7zM140 569l116 143h118l-153 -143h-81z" />
    <glyph glyph-name="ccedilla.salt" horiz-adv-x="534" 
d="M511 318h-91c1 5 1 11 1 20c0 69 -37 112 -104 112c-116 4 -190 -146 -189 -253c0 -87 42 -139 111 -139c67 0 126 50 150 119h93c-19 -57 -51 -103 -96 -138s-96 -53 -153 -53c-121 0 -196 80 -196 209c-2 144 104 332 285 327c119 0 190 -70 190 -179
c0 -11 0 -19 -1 -25zM21 -211l165 162h84l-134 -162h-115z" />
    <glyph glyph-name="scedilla.salt" horiz-adv-x="494" 
d="M403 224c13 -19 20 -44 20 -75c0 -83 -75 -163 -219 -163c-121 0 -191 49 -191 141c0 17 2 31 5 42h89c-3 -10 -4 -21 -4 -34c0 -51 37 -79 108 -79c77 0 120 32 120 85c0 23 -8 40 -25 51s-47 24 -90 38c-61 20 -91 31 -115 66c-12 17 -18 41 -18 71
c0 80 74 155 204 155c116 0 177 -47 177 -134c0 -15 -1 -28 -4 -39h-85c2 18 3 28 3 31c0 48 -35 74 -99 74c-67 0 -108 -30 -108 -78c4 -47 19 -51 101 -79c68 -23 103 -36 131 -73zM-11 -211l165 162h84l-134 -162h-115z" />
    <glyph glyph-name="tcommaaccent.salt" horiz-adv-x="320" 
d="M333 438h-100l-70 -281c-4 -15 -6 -27 -6 -38c0 -35 17 -50 56 -50c11 0 23 1 35 4l-19 -72c-12 -3 -26 -5 -42 -5c-83 0 -120 32 -120 105c0 17 3 38 9 62l69 275h-89l18 70h88l31 123h88l-31 -123h101zM82 -49h84l-134 -162h-115z" />
    <glyph glyph-name="a.superior" horiz-adv-x="393" 
d="M413 540l-29 -116c-10 -43 -15 -74 -14 -94h-70c0 13 2 25 5 37h-2c-33 -30 -74 -45 -123 -45c-71 0 -113 38 -113 93c0 69 55 111 165 127c38 5 75 9 110 10l2 6c3 9 4 18 4 29c0 36 -22 54 -67 54c-47 0 -77 -24 -86 -64h-76c16 69 78 119 167 119
c87 0 133 -37 133 -110c0 -15 -2 -30 -6 -46zM162 391c11 -9 26 -13 45 -13c57 0 101 36 117 96l6 26c-31 -3 -61 -6 -91 -10c-71 -11 -93 -33 -93 -66c0 -14 5 -25 16 -33z" />
    <glyph glyph-name="b.superior" horiz-adv-x="423" 
d="M439 448c-32 -73 -93 -127 -173 -127c-49 0 -88 25 -103 64h-1l-14 -55h-74l125 498h75l-44 -174h2c27 25 64 41 103 41c80 0 127 -51 127 -139c0 -35 -8 -71 -23 -108zM205 406c12 -16 29 -24 52 -24c79 0 124 89 124 163c0 57 -26 91 -71 91c-76 3 -125 -91 -124 -164
c0 -28 6 -50 19 -66z" />
    <glyph glyph-name="c.superior" horiz-adv-x="393" 
d="M441 550h-78c1 4 2 8 2 13c0 44 -28 72 -73 72c-76 3 -125 -96 -124 -164c0 -56 28 -90 73 -90c44 0 81 33 96 77h81c-28 -83 -98 -138 -183 -138c-89 0 -146 58 -146 151c-1 99 75 228 209 225c91 0 145 -51 145 -131c0 -3 -1 -8 -2 -15z" />
    <glyph glyph-name="d.superior" horiz-adv-x="423" 
d="M512 828l-124 -498h-74l9 33h-2c-28 -25 -68 -42 -105 -42c-81 0 -128 51 -128 139c-2 104 77 239 197 235c48 0 86 -25 101 -62h2l48 195h76zM188 404c12 -16 29 -24 52 -24c77 -3 125 91 124 164c0 56 -26 90 -71 90c-77 3 -125 -91 -124 -163c0 -29 6 -51 19 -67z" />
    <glyph glyph-name="e.superior" horiz-adv-x="404" 
d="M434 492h-269c-3 -11 -4 -22 -4 -33c0 -56 32 -83 81 -83c44 0 82 25 98 61h77c-27 -67 -93 -117 -177 -117c-99 0 -150 54 -150 149c-2 101 76 230 209 227c95 0 145 -52 145 -140c0 -16 -3 -37 -10 -64zM176 542h195c1 11 2 18 2 23c0 49 -28 75 -77 75
c-55 0 -100 -35 -120 -98z" />
    <glyph glyph-name="egrave.superior" horiz-adv-x="404" 
d="M434 492h-269c-3 -11 -4 -22 -4 -33c0 -56 32 -83 81 -83c44 0 82 25 98 61h77c-27 -67 -93 -117 -177 -117c-99 0 -150 54 -150 149c-2 101 76 230 209 227c95 0 145 -52 145 -140c0 -16 -3 -37 -10 -64zM176 542h195c1 11 2 18 2 23c0 49 -28 75 -77 75
c-55 0 -100 -35 -120 -98zM309 828l49 -99h-67l-79 99h97z" />
    <glyph glyph-name="f.superior" horiz-adv-x="229" 
d="M117 686h63l11 46c17 67 60 100 128 100c14 0 29 -1 45 -4l-14 -57c-10 2 -17 3 -21 3c-36 0 -56 -17 -68 -61l-7 -27h71l-14 -59h-71l-74 -297h-75l74 297h-63z" />
    <glyph glyph-name="g.superior" horiz-adv-x="421" 
d="M387 632l14 54h72l-87 -354c-23 -92 -90 -138 -191 -138c-89 0 -138 35 -138 95c0 8 1 14 2 19h73c-1 -3 -1 -8 -1 -14c0 -29 24 -45 68 -45c61 0 98 30 117 101l5 23h-1c-32 -27 -68 -40 -108 -40c-76 0 -121 54 -121 143c-1 96 74 222 190 219c51 0 88 -23 105 -63h1z
M169 482c0 -53 25 -87 69 -87c79 0 125 85 125 152c0 56 -29 88 -78 88c-70 2 -117 -92 -116 -153z" />
    <glyph glyph-name="h.superior" horiz-adv-x="422" 
d="M442 538l-52 -208h-76l52 207c4 16 6 30 6 41c0 36 -21 55 -58 55c-51 0 -99 -37 -115 -104l-50 -199h-75l124 498h75l-44 -180h1c28 29 68 46 109 46c69 0 110 -37 110 -105c0 -17 -2 -34 -7 -51z" />
    </font>
</defs>
</svg>
