<?xml version="1.0" standalone="no"?>
<!DOCTYPE svg PUBLIC "-//W3C//DTD SVG 1.1//EN" "http://www.w3.org/Graphics/SVG/1.1/DTD/svg11.dtd" >
<svg xmlns="http://www.w3.org/2000/svg" xmlns:xlink="http://www.w3.org/1999/xlink" version="1.1">
<metadata>
Created by FontForge 20190801 at Wed Nov 27 10:57:37 2019
 By Jimmy Wärting
Copyright \(c\) 2013 Schick Toikka. All rights reserved. Noe Display is a trademark of Schick Toikka. Unauthorised copying or modification of any of its data is illegal.
</metadata>
<defs>
<font id="NoeDisplay-Regular" horiz-adv-x="540" >
  <font-face 
    font-family="Noe Display"
    font-weight="400"
    font-stretch="normal"
    units-per-em="1000"
    panose-1="2 10 5 0 9 4 0 0 0 2"
    ascent="750"
    descent="-250"
    x-height="487"
    cap-height="703"
    bbox="-225 -250 1199 967"
    underline-thickness="17"
    underline-position="-99"
    stemh="58"
    stemv="95"
    unicode-range="U+0020-FB02"
  />
<missing-glyph horiz-adv-x="600" 
d="M57 -250v1000h486v-1000h-486zM75 -216l217 467l-217 468v-935zM85 -233h431l-215 464zM310 251l215 -463v927zM301 270l215 463h-430z" />
    <glyph glyph-name="fi" unicode="fi" horiz-adv-x="597" 
d="M430 558l-50 124c-3 7 -8 11 -15 12c-13 2 -27 3 -42 3c-95 0 -130 -63 -130 -175v-35h316v-423c0 -9 4 -16 12 -21l67 -41v-2h-253v2l68 40c7 4 11 11 11 22v389c0 13 -2 16 -13 16h-208v-402c0 -12 2 -13 14 -20l90 -45v-2h-278v2l68 40c7 4 11 11 11 22v405h-70v18h70
c4 147 85 226 224 226c55 0 109 -10 162 -30l-52 -125h-2z" />
    <glyph glyph-name="fl" unicode="fl" horiz-adv-x="589" 
d="M582 2v-2h-253v2l68 40c7 4 11 11 11 22v583c0 9 -4 17 -12 22c-27 17 -57 26 -91 26c-75 0 -112 -53 -112 -159v-49h146v-18h-146v-402c0 -12 2 -13 14 -20l90 -45v-2h-278v2l68 40c7 4 11 11 11 22v405h-70v18h70c0 153 80 226 207 226c37 0 72 -10 106 -30l92 40v-659
c0 -9 4 -16 12 -21z" />
    <glyph glyph-name="f_j" unicode="fj" horiz-adv-x="571" 
d="M405 453c0 13 -2 16 -13 16h-199v-402c0 -12 2 -13 14 -20l90 -45v-2h-278v2l68 40c7 4 11 11 11 22v405h-70v18h70c4 147 83 226 219 226c55 0 109 -10 162 -30l-52 -125h-2l-50 124c-3 7 -8 11 -15 12c-13 2 -27 3 -42 3c-92 0 -125 -63 -125 -175v-35h307v-467
c0 -67 -16 -123 -47 -167c-32 -44 -79 -66 -142 -66c-8 0 -21 1 -38 4v2c88 8 132 63 132 202v458z" />
    <glyph glyph-name="f_b" unicode="fb" horiz-adv-x="845" 
d="M535 11c-21 12 -37 27 -47 45l-92 -64h-2v655c0 9 -4 17 -12 22c-27 17 -54 26 -81 26c-72 0 -108 -53 -108 -159v-49h146v-18h-146v-402c0 -12 2 -13 14 -20l90 -45v-2h-278v2l68 40c7 4 11 11 11 22v405h-70v18h70c0 153 78 226 203 226c30 0 62 -10 96 -30l92 40v-338
c33 73 83 110 149 110c54 0 96 -22 127 -65s46 -101 46 -174c0 -77 -17 -141 -52 -190s-83 -74 -144 -74c-32 0 -59 6 -80 19zM577 29c84 0 132 73 132 212c0 131 -42 204 -113 204c-41 0 -76 -23 -107 -69v-310c21 -25 50 -37 88 -37z" />
    <glyph glyph-name="f_h" unicode="fh" horiz-adv-x="869" 
d="M503 64c0 -9 4 -16 12 -21l67 -41v-2h-253v2l68 40c7 4 11 11 11 22v583c0 9 -4 17 -12 22c-27 17 -57 26 -91 26c-75 0 -112 -53 -112 -159v-49h146v-18h-146v-402c0 -12 2 -13 14 -20l90 -45v-2h-278v2l68 40c7 4 11 11 11 22v405h-70v18h70c0 153 80 226 207 226
c37 0 73 -10 107 -30l91 40v-354c23 84 73 126 148 126c92 0 138 -67 138 -200c0 -47 -1 -124 -2 -231c0 -10 4 -17 12 -22l68 -40v-2h-253v2l64 40c9 5 13 12 13 20c0 1 0 16 1 44c0 28 0 58 1 91c1 32 1 54 1 66c0 121 -27 174 -86 174c-44 0 -79 -25 -105 -74v-299z" />
    <glyph glyph-name="f_k" unicode="fk" horiz-adv-x="827" 
d="M503 264l194 147c5 5 5 9 0 14l-74 60v2h200v-2l-196 -148c-7 -5 -8 -10 -5 -16l136 -252c5 -11 13 -20 23 -27l58 -40v-2h-156l-129 247c-7 12 -16 18 -27 18c-7 0 -15 -3 -24 -10v-191c0 -9 4 -16 12 -21l67 -41v-2h-253v2l68 40c7 4 11 11 11 22v583c0 9 -4 17 -12 22
c-27 17 -57 26 -91 26c-75 0 -112 -53 -112 -159v-49h146v-18h-146v-402c0 -12 2 -13 14 -20l90 -45v-2h-278v2l68 40c7 4 11 11 11 22v405h-70v18h70c0 153 80 226 207 226c37 0 72 -10 106 -30l92 40v-459z" />
    <glyph glyph-name=".notdef" horiz-adv-x="600" 
d="M57 -250v1000h486v-1000h-486zM75 -216l217 467l-217 468v-935zM85 -233h431l-215 464zM310 251l215 -463v927zM301 270l215 463h-430z" />
    <glyph glyph-name=".null" horiz-adv-x="0" 
 />
    <glyph glyph-name="nonmarkingreturn" horiz-adv-x="333" 
 />
    <glyph glyph-name="space" unicode=" " horiz-adv-x="200" 
 />
    <glyph glyph-name="exclam" unicode="!" horiz-adv-x="240" 
d="M185 703l-67 -489h-2l-61 489h130zM57 54c0 36 27 64 62 64c36 0 63 -28 63 -64c0 -35 -27 -62 -63 -62c-35 0 -62 27 -62 62z" />
    <glyph glyph-name="quotedbl" unicode="&#x22;" horiz-adv-x="351" 
d="M209 662c0 34 15 51 46 51s46 -17 46 -51c0 -11 -1 -21 -4 -30l-41 -153h-2l-41 153c-3 9 -4 19 -4 30zM50 662c0 34 15 51 46 51s46 -17 46 -51c0 -10 -1 -20 -4 -30l-41 -153h-2l-41 153c-3 11 -4 21 -4 30z" />
    <glyph glyph-name="numbersign" unicode="#" horiz-adv-x="588" 
d="M553 437h-138l-59 -204h135v-17h-140l-55 -190l-16 5l53 185h-152l-55 -190l-16 5l53 185h-128v17h133l58 204h-128v17h133l57 199l18 -5l-56 -194h151l57 199l18 -5l-56 -194h133v-17zM186 233h152l58 204h-151z" />
    <glyph glyph-name="dollar" unicode="$" horiz-adv-x="523" 
d="M275 697h-7v-289l62 -30c100 -47 153 -97 153 -182c0 -56 -19 -103 -58 -141s-91 -59 -157 -64v-95h-17v94h-6c-67 0 -129 9 -185 27v209h2l91 -196c5 -11 13 -18 22 -19c21 -3 41 -5 58 -5h18v289l-68 33c-79 37 -137 103 -137 194c0 53 19 98 58 134
c38 35 87 54 147 57v80h17v-80c49 -1 105 -9 166 -24v-204h-2l-94 192c-5 10 -11 15 -19 16c-13 3 -28 4 -44 4zM226 428l25 -12v279c-76 -9 -124 -60 -124 -136c0 -56 33 -100 99 -131zM268 288v-280c76 9 128 54 128 134c0 67 -40 105 -128 146z" />
    <glyph glyph-name="percent" unicode="%" horiz-adv-x="640" 
d="M65 565c0 88 44 148 124 148c81 0 124 -60 124 -149c0 -88 -43 -147 -124 -147c-80 0 -124 60 -124 148zM324 138c0 88 44 148 124 148c81 0 124 -60 124 -149c0 -88 -43 -147 -124 -147c-80 0 -124 60 -124 148zM134 565c0 -96 11 -134 55 -134c45 0 55 37 55 133
c0 99 -10 135 -55 135c-44 0 -55 -38 -55 -134zM493 242c-7 20 -22 30 -45 30c-44 0 -55 -38 -55 -134s11 -134 55 -134c45 0 55 37 55 133c0 49 -3 84 -10 105zM564 713l15 -12l-503 -711l-15 13z" />
    <glyph glyph-name="ampersand" unicode="&#x26;" horiz-adv-x="745" 
d="M707 421v-2l-106 -89c-9 -7 -17 -18 -24 -33c-25 -46 -51 -90 -80 -133c31 -34 57 -57 79 -70c21 -13 45 -20 71 -20c51 0 96 40 100 113h2c7 -59 -4 -106 -33 -142c-30 -37 -67 -55 -112 -55c-55 0 -112 33 -169 98c-64 -67 -118 -98 -199 -98c-61 0 -109 16 -144 47
s-52 70 -52 119c0 45 16 85 49 120c32 35 71 63 118 86l-6 7c-53 62 -79 123 -79 182c0 49 17 88 50 118c33 29 77 44 130 44c99 0 166 -45 166 -132c0 -36 -17 -70 -36 -91c-9 -11 -23 -21 -41 -32c-19 -11 -34 -20 -47 -26c-13 -7 -31 -15 -54 -25l197 -231
c29 41 55 86 78 134c5 10 3 19 -5 27l-82 82v2h229zM176 81c29 -30 62 -45 100 -45c36 0 64 5 84 14s42 26 65 49c-3 3 -73 88 -212 257c-53 -43 -80 -97 -80 -162c0 -46 14 -84 43 -113zM208 586c0 -52 19 -101 56 -148l21 -26c66 47 99 104 99 172c0 76 -32 116 -81 116
c-59 0 -95 -45 -95 -114z" />
    <glyph glyph-name="quotesingle" unicode="'" horiz-adv-x="192" 
d="M50 662c0 34 15 51 46 51s46 -17 46 -51c0 -9 -1 -19 -4 -30l-41 -153h-2l-41 153c-3 11 -4 21 -4 30z" />
    <glyph glyph-name="parenleft" unicode="(" horiz-adv-x="318" 
d="M53 292c0 169 50 296 149 382c30 26 65 47 104 64l2 -2c-32 -27 -59 -58 -81 -94c-53 -88 -80 -205 -80 -350s27 -262 80 -350c22 -36 49 -67 81 -94l-2 -2c-39 17 -74 38 -104 64c-99 86 -149 213 -149 382z" />
    <glyph glyph-name="parenright" unicode=")" horiz-adv-x="318" 
d="M10 736l2 2c39 -17 74 -38 104 -64c99 -86 149 -213 149 -382s-50 -296 -149 -382c-30 -26 -65 -47 -104 -64l-2 2c32 27 59 58 81 94c53 88 80 205 80 350s-27 262 -80 350c-22 36 -49 67 -81 94z" />
    <glyph glyph-name="asterisk" unicode="*" horiz-adv-x="346" 
d="M30 565l28 87l111 -83l-41 134h91l-46 -134l115 81l28 -85h-142l113 -82l-73 -54l-43 134l-44 -133l-73 54l114 81h-138z" />
    <glyph glyph-name="plus" unicode="+" 
d="M50 314v17h211v212h18v-212h211v-17h-211v-211h-18v211h-211z" />
    <glyph glyph-name="comma" unicode="," horiz-adv-x="225" 
d="M42 -131c49 25 74 80 74 120c0 7 -4 11 -11 12c-28 3 -52 29 -52 61c0 35 27 61 60 61c37 0 64 -27 64 -80c0 -37 -13 -74 -38 -109c-26 -35 -58 -57 -96 -67z" />
    <glyph glyph-name="hyphen" unicode="-" horiz-adv-x="351" 
d="M306 252v-18h-260v18h260z" />
    <glyph glyph-name="period" unicode="." horiz-adv-x="225" 
d="M50 54c0 36 27 64 62 64c36 0 63 -28 63 -64c0 -35 -27 -62 -63 -62c-35 0 -62 27 -62 62z" />
    <glyph glyph-name="slash" unicode="/" horiz-adv-x="380" 
d="M33 -147l297 885l17 -6l-297 -885z" />
    <glyph glyph-name="zero" unicode="0" horiz-adv-x="627" 
d="M510 82c-46 -61 -112 -92 -197 -92c-169 0 -265 126 -265 363c0 236 96 360 265 360c171 0 266 -123 266 -362c0 -118 -23 -208 -69 -269zM157 353c0 -230 52 -345 156 -345c105 0 157 114 157 343c0 132 -16 226 -46 275s-64 69 -111 69c-45 0 -81 -20 -110 -69
s-46 -142 -46 -273z" />
    <glyph glyph-name="one" unicode="1" horiz-adv-x="393" 
d="M39 650v2l220 61v-634c0 -12 2 -14 14 -21l101 -56v-2h-325v2l102 56c9 5 13 12 13 21v522c0 11 -4 18 -13 21z" />
    <glyph glyph-name="two" unicode="2" horiz-adv-x="527" 
d="M472 192l-18 -192h-436v2l112 121c31 33 63 71 98 114c47 58 80 108 99 150c19 41 29 86 29 135c0 117 -43 175 -129 175c-17 0 -32 -2 -45 -5c-12 -3 -12 -3 -19 -18l-65 -155h-2l-53 149c60 30 126 45 197 45c139 0 226 -74 226 -195c0 -55 -25 -113 -55 -158
c-15 -23 -38 -49 -69 -79s-58 -55 -81 -76c-24 -21 -58 -49 -101 -85l-47 -39h240c29 0 33 2 46 19l71 92h2z" />
    <glyph glyph-name="three" unicode="3" horiz-adv-x="531" 
d="M487 199c0 -63 -24 -113 -72 -151c-48 -39 -113 -58 -196 -58c-64 0 -128 11 -192 34l62 167h2l48 -162c3 -10 8 -16 15 -17c19 -4 37 -6 55 -6c55 0 97 18 126 53s43 78 43 129c0 103 -63 170 -186 170v2c105 23 158 85 158 186c0 92 -47 151 -132 151
c-12 0 -25 -1 -38 -3c-12 -1 -14 -3 -21 -19l-65 -155h-2l-53 149c59 29 125 44 198 44c64 0 117 -15 158 -44s61 -70 61 -121c0 -85 -51 -142 -152 -171v-2c53 -5 97 -24 132 -55c34 -32 51 -72 51 -121z" />
    <glyph glyph-name="four" unicode="4" horiz-adv-x="565" 
d="M552 372l-15 -192h-141v-102c0 -9 4 -16 13 -21l80 -55v-2h-286v2l85 55c9 5 13 12 13 21v102h-292v1l314 522h73v-505h35c11 0 19 4 25 13l94 161h2zM42 198h259v430z" />
    <glyph glyph-name="five" unicode="5" horiz-adv-x="546" 
d="M466 748l-12 -76c-8 -51 -29 -64 -96 -64c-23 0 -51 1 -83 2l-156 5l-4 -253c53 38 112 57 177 57c66 0 119 -19 158 -58s58 -90 58 -151c0 -67 -24 -121 -71 -160c-47 -40 -113 -60 -197 -60c-69 0 -134 12 -193 35l62 166h2l48 -162c5 -15 7 -16 26 -19
c16 -3 32 -4 48 -4c107 0 166 80 166 197c0 107 -63 173 -170 173c-45 0 -89 -14 -131 -41l-2 1l7 367l173 -4c20 -1 45 -1 74 -1c42 0 70 7 85 22l29 28h2z" />
    <glyph glyph-name="six" unicode="6" horiz-adv-x="578" 
d="M534 226c0 -69 -22 -126 -67 -170s-100 -66 -167 -66c-80 0 -142 32 -186 96s-66 153 -66 266c0 229 94 361 290 361c51 0 108 -10 170 -30l-50 -152h-2l-67 150c-3 8 -10 13 -21 14c-15 1 -25 2 -32 2c-128 0 -183 -109 -183 -344v-19c45 67 116 103 191 103
c57 0 103 -19 138 -56s52 -89 52 -155zM153 322c5 -211 63 -316 148 -316c35 0 66 17 92 52s39 88 39 159c0 119 -44 187 -124 187c-55 0 -107 -27 -155 -82z" />
    <glyph glyph-name="seven" unicode="7" horiz-adv-x="479" 
d="M46 703h440v-2l-53 -61c-10 -12 -17 -22 -20 -29c-39 -98 -93 -302 -164 -611h-123c39 113 86 228 141 347c54 119 98 210 133 274h-278c-20 0 -21 -2 -36 -18l-59 -73h-2z" />
    <glyph glyph-name="eight" unicode="8" horiz-adv-x="564" 
d="M528 179c0 -51 -23 -95 -69 -132c-46 -38 -106 -57 -181 -57c-70 0 -126 17 -169 52c-43 34 -65 74 -65 121c0 49 14 86 43 111s72 48 130 67l-30 17c-79 45 -118 103 -118 174c0 54 20 98 61 131c40 33 91 50 153 50c57 0 106 -15 145 -45c39 -31 58 -70 58 -118
c0 -79 -51 -133 -152 -162l52 -28c100 -56 142 -102 142 -181zM128 167c0 -45 15 -83 46 -114c30 -31 67 -46 110 -46s79 12 108 37c29 24 43 57 43 99c0 63 -35 96 -115 140l-94 53c-65 -36 -98 -92 -98 -169zM156 573c0 -63 30 -103 105 -144l64 -36c52 33 78 85 78 157
c0 95 -51 146 -120 146c-36 0 -66 -11 -90 -34c-25 -23 -37 -53 -37 -89z" />
    <glyph glyph-name="nine" unicode="9" horiz-adv-x="578" 
d="M530 347c0 -110 -24 -197 -72 -261s-117 -96 -208 -96c-59 0 -120 10 -182 31l59 167h2l55 -166c3 -8 9 -13 20 -14c9 -1 22 -2 40 -2c125 0 181 113 181 341v23c-50 -67 -112 -101 -185 -101c-54 0 -100 19 -138 58c-39 38 -58 91 -58 158c0 66 23 121 68 164
s100 64 167 64c163 0 251 -129 251 -366zM146 485c0 -123 45 -184 134 -184c50 0 98 27 144 81c-5 210 -54 315 -147 315c-35 0 -66 -17 -92 -51c-26 -35 -39 -88 -39 -161z" />
    <glyph glyph-name="colon" unicode=":" horiz-adv-x="225" 
d="M68 100c12 12 27 18 44 18c36 0 63 -28 63 -64c0 -35 -27 -62 -63 -62c-35 0 -62 27 -62 62c0 18 6 33 18 46zM68 428c12 12 27 18 44 18c36 0 63 -28 63 -64c0 -35 -27 -62 -63 -62c-35 0 -62 27 -62 62c0 18 6 33 18 46z" />
    <glyph glyph-name="semicolon" unicode=";" horiz-adv-x="225" 
d="M177 43c0 -37 -13 -74 -38 -109c-26 -35 -58 -57 -96 -67l-1 2c49 25 74 80 74 120c0 7 -4 11 -11 12c-28 3 -52 29 -52 61c0 35 27 61 60 61c37 0 64 -27 64 -80zM68 428c12 12 27 18 44 18c36 0 63 -28 63 -64c0 -35 -27 -62 -63 -62c-35 0 -62 27 -62 62
c0 18 6 33 18 46z" />
    <glyph glyph-name="less" unicode="&#x3c;" 
d="M71 322v2l390 179l7 -16l-357 -164l357 -164l-7 -16z" />
    <glyph glyph-name="equal" unicode="=" 
d="M50 226v17h440v-17h-440zM50 404v17h440v-17h-440z" />
    <glyph glyph-name="greater" unicode="&#x3e;" 
d="M72 487l7 16l390 -179v-2l-390 -179l-7 16l357 164z" />
    <glyph glyph-name="question" unicode="?" horiz-adv-x="430" 
d="M415 566c0 -44 -24 -89 -72 -136l-83 -83c-25 -25 -42 -47 -51 -65c-9 -19 -11 -42 -6 -69l-1 -2c-38 21 -57 49 -57 85c0 27 19 60 34 77c7 8 19 21 34 38l56 61c34 37 51 75 51 116c0 65 -47 109 -115 109c-15 0 -29 -1 -40 -4c-19 -4 -19 -5 -24 -17l-66 -157h-2
l-53 149c62 30 128 45 199 45c57 0 104 -13 141 -39s55 -62 55 -108zM149 100c12 12 27 18 44 18c36 0 63 -28 63 -64c0 -35 -27 -62 -63 -62c-35 0 -62 27 -62 62c0 18 6 33 18 46z" />
    <glyph glyph-name="at" unicode="@" horiz-adv-x="1007" 
d="M725 495l2 -1l-73 -264c-11 -41 -17 -78 -17 -111c0 -71 29 -109 81 -109c59 0 111 30 155 91c44 60 66 137 66 232c0 105 -36 191 -108 257c-73 65 -167 98 -282 98c-141 0 -257 -46 -346 -139c-90 -93 -135 -212 -135 -357c0 -127 40 -227 121 -298
c80 -71 182 -106 307 -106c75 0 158 26 247 77l8 -15c-83 -53 -169 -79 -256 -79c-129 0 -235 37 -319 111s-126 177 -126 309c0 151 47 275 140 371c93 95 213 143 360 143c119 0 217 -35 293 -104s114 -158 114 -266c0 -102 -25 -185 -74 -248s-108 -95 -177 -95
c-92 0 -154 47 -154 140c0 19 2 39 7 60h-2c-45 -132 -96 -200 -164 -200c-60 0 -99 51 -99 148c0 56 11 111 34 166s54 100 93 136c39 35 80 53 123 53c45 0 73 -19 82 -57zM387 140c0 -62 16 -93 48 -93c35 0 68 38 100 115c11 23 27 65 46 126c19 60 32 109 41 146
c-9 20 -28 30 -57 30c-37 0 -71 -22 -102 -67c-22 -32 -40 -72 -54 -120c-15 -48 -22 -94 -22 -137z" />
    <glyph glyph-name="A" unicode="A" horiz-adv-x="621" 
d="M624 0h-249v2l71 54c7 5 9 14 4 25l-56 165h-237l-48 -143c-4 -19 -5 -17 15 -33l85 -68v-2h-225v2l80 68c13 12 22 24 26 36l168 498c5 21 5 22 -8 37l-55 60v2h153l210 -621c5 -15 13 -28 23 -38l43 -42v-2zM388 264l-112 335l-113 -335h225z" />
    <glyph glyph-name="B" unicode="B" horiz-adv-x="613" 
d="M495 426c-32 -30 -72 -48 -119 -54v-3c58 -3 105 -20 142 -50c37 -31 55 -70 55 -118c0 -63 -24 -113 -71 -148s-110 -53 -188 -53h-296v2l86 47c9 5 13 11 13 20v565c0 9 -4 15 -13 20l-86 47v2h285c152 0 240 -60 240 -171c0 -41 -16 -77 -48 -106zM221 42
c0 -21 3 -24 35 -24h26c119 0 178 57 178 170c0 111 -52 167 -177 167h-62v-313zM281 372c89 0 150 52 150 161c0 104 -56 152 -145 152h-47c-12 0 -18 -8 -18 -23v-290h60z" />
    <glyph glyph-name="C" unicode="C" horiz-adv-x="595" 
d="M540 7c-53 -11 -109 -17 -168 -17c-113 0 -198 32 -253 97c-56 65 -84 152 -84 262c0 109 29 197 86 264s137 100 238 100c58 0 118 -7 181 -22v-211h-2l-101 194c-8 15 -12 17 -32 20c-14 2 -28 3 -41 3c-139 0 -209 -115 -209 -346c0 -230 72 -345 216 -345
c9 0 20 1 35 2c14 1 24 7 30 18l102 201h2v-220z" />
    <glyph glyph-name="D" unicode="D" horiz-adv-x="672" 
d="M638 361c0 -110 -28 -198 -85 -263s-138 -98 -245 -98h-290v2l86 47c9 5 13 11 13 20v565c0 9 -4 15 -13 20l-86 47v2h291c216 0 329 -126 329 -342zM221 42c0 -21 3 -24 27 -24h21c80 0 142 26 185 78s65 139 65 260c0 117 -21 201 -62 252c-42 51 -98 77 -168 77h-52
c-12 0 -16 -4 -16 -20v-623z" />
    <glyph glyph-name="E" unicode="E" horiz-adv-x="593" 
d="M530 487h-2l-84 180c-6 12 -16 18 -29 18h-178c-13 0 -16 -4 -16 -23v-294h123c11 1 20 7 28 19l64 89h2v-234h-2l-64 90c-9 12 -18 18 -29 18h-122v-309c0 -19 3 -23 16 -23h178c17 0 29 4 34 13l89 182h2v-213h-522v2l86 47c9 5 13 11 13 20v565c0 9 -4 15 -13 20
l-86 47v2h512v-216z" />
    <glyph glyph-name="F" unicode="F" horiz-adv-x="561" 
d="M530 487h-2l-84 180c-5 12 -15 18 -29 18h-177c-13 0 -17 -5 -17 -22v-295h123c11 1 20 7 28 19l64 89h2v-234h-2l-64 90c-9 12 -18 18 -29 18h-122v-274c0 -10 4 -17 13 -20l115 -54v-2h-331v2l86 47c9 5 13 11 13 20v565c0 9 -4 15 -13 20l-86 47v2h512v-216z" />
    <glyph glyph-name="G" unicode="G" horiz-adv-x="644" 
d="M637 308l-78 -47c-11 -7 -12 -8 -12 -25v-246l-96 19c-39 -13 -74 -19 -103 -19c-106 0 -185 32 -236 97c-52 64 -78 151 -78 262c0 108 29 196 86 263s136 101 235 101c65 0 129 -7 192 -22v-211h-2l-100 192c-8 16 -11 18 -27 21s-32 4 -49 4
c-142 0 -213 -115 -213 -346c0 -230 64 -345 193 -345c27 0 55 5 83 15c7 3 11 8 11 16v199c0 16 0 17 -11 24l-79 48v2h284v-2z" />
    <glyph glyph-name="H" unicode="H" horiz-adv-x="742" 
d="M625 69c0 -12 1 -15 13 -20l86 -47v-2h-302v2l86 47c9 5 13 11 13 20v282h-300v-282c0 -12 1 -15 13 -20l86 -47v-2h-302v2l86 47c9 5 13 11 13 20v565c0 9 -4 15 -13 20l-86 47v2h302v-2l-86 -47c-12 -7 -13 -9 -13 -20v-265h300v265c0 9 -4 16 -13 20l-86 47v2h302v-2
l-86 -47c-12 -7 -13 -9 -13 -20v-565z" />
    <glyph glyph-name="I" unicode="I" horiz-adv-x="338" 
d="M320 701l-86 -47c-12 -7 -13 -9 -13 -20v-565c0 -12 1 -15 13 -20l86 -47v-2h-302v2l86 47c9 5 13 11 13 20v565c0 9 -4 15 -13 20l-86 47v2h302v-2z" />
    <glyph glyph-name="J" unicode="J" horiz-adv-x="308" 
d="M-16 -209c83 39 118 128 118 233v610c0 9 -4 15 -13 20l-86 47v2h302v-2l-86 -47c-12 -7 -13 -9 -13 -20v-607c0 -68 -20 -122 -61 -162s-94 -65 -160 -76z" />
    <glyph glyph-name="K" unicode="K" horiz-adv-x="647" 
d="M18 2l86 47c9 5 13 11 13 20v565c0 9 -4 15 -13 20l-86 47v2h302v-2l-86 -47c-12 -7 -13 -9 -13 -20v-565c0 -12 1 -15 13 -20l86 -47v-2h-302v2zM656 0h-164l-261 353l257 264c10 10 9 19 -4 26l-86 58v2h262v-2l-110 -60c-17 -9 -31 -19 -42 -30l-193 -199l239 -322
c9 -11 19 -21 32 -32l70 -56v-2z" />
    <glyph glyph-name="L" unicode="L" horiz-adv-x="555" 
d="M525 0h-507v2l86 47c9 5 13 11 13 20v565c0 9 -4 15 -13 20l-86 47v2h302v-2l-86 -47c-12 -7 -13 -9 -13 -20v-593c0 -19 3 -23 16 -23h158c18 0 29 4 34 13l94 193h2v-224z" />
    <glyph glyph-name="M" unicode="M" horiz-adv-x="856" 
d="M740 646c-1 -3 -2 -7 -2 -12v-565c0 -12 1 -15 13 -20l86 -47v-2h-302v2l86 47c9 5 13 11 13 20v480c0 18 1 41 4 69l-243 -623h-2l-231 555c-5 11 -13 33 -24 66v-515c0 -16 1 -19 16 -30l94 -69v-2h-240v2l95 69c15 11 16 14 16 30v521c0 12 -4 20 -12 25l-85 54v2h190
l226 -546l213 546h186v-2l-86 -47c-6 -3 -10 -6 -11 -8z" />
    <glyph glyph-name="N" unicode="N" horiz-adv-x="682" 
d="M687 701l-95 -69c-11 -7 -16 -17 -16 -30v-602h-69l-367 600v-499c0 -13 5 -23 16 -30l95 -69v-2h-241v2l95 69c11 7 16 17 16 30v507c0 15 -4 26 -13 34l-84 59v2h175l358 -587v486c0 12 -5 22 -16 30l-95 69v2h241v-2z" />
    <glyph glyph-name="O" unicode="O" horiz-adv-x="689" 
d="M117 87c-54 64 -81 152 -81 265s27 201 81 265s130 96 228 96s174 -32 228 -96c53 -64 80 -152 80 -265s-27 -201 -80 -265c-54 -65 -130 -97 -228 -97s-174 32 -228 97zM208 90c34 -55 80 -83 137 -84c115 0 189 106 189 346c0 120 -17 207 -51 262
c-35 55 -81 82 -138 83c-57 0 -103 -27 -137 -82c-35 -55 -52 -143 -52 -263s17 -207 52 -262z" />
    <glyph glyph-name="P" unicode="P" horiz-adv-x="589" 
d="M561 490c0 -67 -24 -119 -73 -158s-110 -59 -182 -59h-85v-192c0 -16 4 -26 11 -29l124 -50v-2h-338v2l86 47c9 5 13 11 13 20v565c0 9 -4 15 -13 20l-86 47v2h302c147 0 241 -69 241 -213zM289 291c45 0 82 16 113 47s46 82 46 152c0 135 -63 195 -158 195h-50
c-15 0 -19 -5 -19 -21v-373h68z" />
    <glyph glyph-name="Q" unicode="Q" horiz-adv-x="690" 
d="M698 -80l-47 -80c-28 -47 -84 -76 -147 -76c-47 0 -91 8 -134 25l-208 79c-19 7 -37 11 -54 11c-9 0 -19 -1 -29 -3l-1 1l156 129c-129 43 -200 166 -200 346c0 113 27 201 81 265s130 96 228 96s174 -32 228 -96c53 -64 80 -152 80 -265s-27 -201 -80 -265
c-54 -65 -130 -97 -228 -97c-31 0 -62 4 -91 11l-64 -56l222 -77c37 -13 79 -20 125 -20c53 0 95 14 126 42l35 31zM206 90c34 -55 80 -83 137 -84c115 0 189 106 189 346c0 120 -17 207 -51 262c-35 55 -81 82 -138 83c-57 0 -103 -27 -137 -82c-35 -55 -52 -143 -52 -263
s17 -207 52 -262z" />
    <glyph glyph-name="R" unicode="R" horiz-adv-x="637" 
d="M553 512c0 -87 -64 -158 -163 -183v-2l178 -249c10 -14 21 -26 33 -35l51 -41v-2h-156l-210 301c-8 11 -18 17 -30 17h-35v-251c0 -12 1 -15 13 -20l89 -45v-2h-305v2l86 47c9 5 13 11 13 20v565c0 9 -4 15 -13 20l-86 47v2h303c68 0 124 -16 167 -49s65 -80 65 -142z
M221 664v-328h49c111 0 167 57 167 171c0 132 -55 178 -156 178h-41c-15 0 -19 -5 -19 -21z" />
    <glyph glyph-name="S" unicode="S" horiz-adv-x="515" 
d="M483 196c0 -59 -22 -108 -65 -147s-101 -59 -173 -59c-67 0 -129 9 -185 27v209h2l91 -196c5 -11 13 -18 22 -19c21 -3 41 -5 58 -5c95 0 163 44 163 136c0 67 -39 104 -127 145l-86 41c-79 37 -137 103 -137 194c0 55 20 101 61 137s92 54 155 54c51 0 109 -8 172 -24
v-204h-2l-94 192c-5 10 -11 15 -19 16c-13 3 -28 4 -44 4c-89 0 -148 -54 -148 -138c0 -56 33 -100 99 -131l104 -50c100 -47 153 -97 153 -182z" />
    <glyph glyph-name="T" unicode="T" horiz-adv-x="602" 
d="M582 475h-2l-87 191c-7 16 -10 19 -26 19h-114v-616c0 -12 1 -15 13 -20l91 -47v-2h-312v2l91 47c9 5 13 11 13 20v616h-114c-16 0 -18 -2 -26 -19l-87 -191h-2v228h562v-228z" />
    <glyph glyph-name="U" unicode="U" horiz-adv-x="652" 
d="M666 701l-96 -69c-11 -7 -16 -17 -16 -30v-354c0 -160 -66 -258 -218 -258c-159 0 -239 71 -239 214v427c0 11 -1 13 -13 20l-79 50v2h293v-2l-84 -50c-12 -5 -13 -8 -13 -20v-405c0 -135 59 -208 168 -208c107 0 166 84 166 229v355c0 13 -5 23 -16 30l-95 69v2h242v-2z
" />
    <glyph glyph-name="V" unicode="V" horiz-adv-x="596" 
d="M628 701l-76 -65c-18 -17 -22 -17 -28 -39l-194 -597h-61l-215 621c-5 15 -13 28 -23 38l-43 42v2h250v-2l-71 -54c-7 -5 -8 -13 -4 -24l180 -522l160 494c5 13 0 25 -13 36l-87 70v2h225v-2z" />
    <glyph glyph-name="W" unicode="W" horiz-adv-x="960" 
d="M902 623c-5 -5 -10 -13 -14 -26l-193 -597h-61l-154 476l-155 -476h-61l-210 621c-5 15 -13 28 -23 38l-43 42v2h249v-2l-71 -54c-7 -5 -8 -13 -4 -24l176 -520l132 404l-37 114c-5 15 -13 28 -23 38l-37 42v2h244v-2l-71 -54c-7 -5 -8 -12 -5 -23l168 -520l158 491
c5 13 0 25 -13 36l-87 70v2h225v-2l-76 -65c-7 -6 -11 -10 -14 -13z" />
    <glyph glyph-name="X" unicode="X" horiz-adv-x="654" 
d="M494 629c0 3 -3 6 -8 9l-96 63v2h249v-2l-92 -57c-17 -9 -29 -20 -38 -33l-141 -209l207 -326c7 -12 18 -23 32 -33l56 -41v-2h-269v2l58 40c13 9 14 14 5 27l-160 251l-153 -229c-11 -15 -11 -19 0 -26l96 -63v-2h-249v2l92 57c17 9 29 20 38 33l165 245l-183 290
c-7 12 -18 23 -32 33l-56 41v2h269v-2l-58 -40c-13 -9 -13 -15 -5 -27l136 -215l129 193c5 7 8 13 8 17z" />
    <glyph glyph-name="Y" unicode="Y" horiz-adv-x="596" 
d="M628 701l-88 -69c-15 -13 -27 -26 -34 -39l-143 -270c-5 -9 -8 -21 -8 -36v-218c0 -12 1 -15 13 -20l91 -47v-2h-312v2l91 47c9 5 13 11 13 20v207c0 11 -3 21 -8 30l-177 317c-7 13 -16 24 -27 33l-51 45v2h260v-2l-65 -51c-6 -5 -7 -11 -4 -18l167 -299l143 270
c5 10 4 18 -3 24l-85 74v2h227v-2z" />
    <glyph glyph-name="Z" unicode="Z" horiz-adv-x="575" 
d="M15 2l402 683h-222c-18 0 -29 -4 -34 -13l-99 -201h-2v232h486v-2l-404 -683h244c18 0 29 4 34 13l103 198h2v-229h-510v2z" />
    <glyph glyph-name="bracketleft" unicode="[" horiz-adv-x="340" 
d="M80 728l250 -15v-2l-158 -43c-12 -3 -12 -3 -12 -15v-721c0 -12 0 -12 12 -15l158 -43v-2l-250 -15v871z" />
    <glyph glyph-name="backslash" unicode="\" horiz-adv-x="380" 
d="M50 738l297 -885l-17 -6l-297 885z" />
    <glyph glyph-name="bracketright" unicode="]" horiz-adv-x="340" 
d="M10 711v2l250 15v-871l-250 15v2l158 43c12 3 12 3 12 15v721c0 12 0 12 -12 15z" />
    <glyph glyph-name="asciicircum" unicode="^" 
d="M90 324l179 390h2l179 -390l-16 -8l-164 358l-164 -358z" />
    <glyph glyph-name="underscore" unicode="_" horiz-adv-x="500" 
d="M5 -74h490v-17h-490v17z" />
    <glyph glyph-name="grave" unicode="`" horiz-adv-x="310" 
d="M50 703h121l89 -161l-2 -2l-208 161v2z" />
    <glyph glyph-name="a" unicode="a" horiz-adv-x="465" 
d="M389 115c-1 -45 11 -67 36 -67c17 0 28 10 33 29h2c0 -11 -2 -21 -6 -31c-12 -31 -40 -54 -77 -54c-47 0 -80 37 -80 106c-20 -67 -70 -106 -134 -106c-36 0 -67 12 -92 35s-38 55 -38 96c0 46 16 82 49 108c32 25 70 38 113 38c41 0 76 -10 104 -31l2 106v3
c0 80 -36 131 -107 131c-25 0 -28 -1 -33 -14l-61 -132h-2l-45 130c53 22 109 33 168 33s102 -13 127 -39c30 -31 45 -86 45 -164v-14zM131 135c0 -52 32 -87 76 -87c37 0 67 19 90 58v3l2 123c-19 7 -39 10 -58 10c-69 0 -110 -47 -110 -107z" />
    <glyph glyph-name="b" unicode="b" horiz-adv-x="512" 
d="M478 256c0 -77 -17 -141 -52 -190s-83 -74 -144 -74c-64 0 -107 28 -127 64l-92 -64h-2v646c0 11 -4 18 -11 23l-68 40v2l174 20v-338c33 73 83 110 149 110c54 0 96 -22 127 -65s46 -101 46 -174zM156 66c21 -25 50 -37 88 -37c84 0 132 73 132 212
c0 131 -42 204 -113 204c-41 0 -76 -23 -107 -69v-310z" />
    <glyph glyph-name="c" unicode="c" horiz-adv-x="440" 
d="M415 162c-20 -105 -79 -170 -182 -170c-56 0 -104 21 -143 63c-40 41 -60 103 -60 184c0 185 118 256 234 256c46 0 94 -9 145 -28l-47 -145h-2l-59 144c-3 7 -7 11 -12 12c-6 1 -13 2 -21 2c-92 0 -141 -76 -141 -211c0 -148 60 -220 145 -220c63 0 110 38 141 113h2z
" />
    <glyph glyph-name="d" unicode="d" horiz-adv-x="536" 
d="M529 0h-174v103c-27 -75 -81 -111 -144 -111c-53 0 -95 23 -128 69s-50 105 -50 178c0 77 19 139 56 186s82 70 137 70c61 0 104 -31 129 -92v235c0 11 -4 18 -11 23l-68 40v2l174 20v-649c0 -9 4 -17 11 -22l68 -50v-2zM170 94c23 -35 52 -53 86 -53c35 0 68 23 99 69
v284c-28 41 -61 61 -98 61c-71 0 -122 -72 -122 -205c0 -69 12 -121 35 -156z" />
    <glyph glyph-name="e" unicode="e" horiz-adv-x="464" 
d="M433 171c-21 -119 -89 -179 -194 -179c-59 0 -109 21 -148 63c-40 41 -60 103 -60 184c0 91 27 162 70 200s91 56 142 56c52 0 96 -16 133 -47s55 -77 55 -137c0 -7 -1 -15 -2 -26h-302v-28c0 -131 60 -208 145 -208c73 0 126 41 159 123zM334 302v2
c0 117 -31 176 -92 176c-65 0 -106 -67 -114 -178h206z" />
    <glyph glyph-name="f" unicode="f" horiz-adv-x="322" 
d="M339 469h-146v-402c0 -12 2 -13 14 -20l90 -45v-2h-278v2l68 40c7 4 11 11 11 22v405h-70v18h70v37c0 133 51 189 160 189c43 0 85 -9 127 -26l-51 -122h-2l-49 120c-5 13 -5 13 -24 13c-44 0 -66 -39 -66 -117v-94h146v-18z" />
    <glyph glyph-name="g" unicode="g" horiz-adv-x="480" 
d="M360 465l97 131l2 -1v-150h-92c37 -29 56 -68 56 -116c0 -49 -19 -87 -56 -115c-37 -29 -82 -43 -135 -43c-23 0 -42 2 -59 7c-38 -11 -57 -29 -57 -54c0 -28 30 -48 86 -48h81c113 0 179 -52 179 -140c0 -54 -23 -96 -69 -127c-47 -30 -103 -45 -168 -45
c-55 0 -102 10 -143 31s-61 51 -61 88c0 52 42 92 119 109c-53 9 -84 45 -84 88c0 47 40 86 104 101c-69 21 -115 76 -115 152c0 51 18 90 54 119c35 29 79 43 130 43c42 0 80 -11 113 -32c8 -5 14 -5 18 2zM395 -106c0 56 -41 86 -124 90l-104 4c-3 0 -9 1 -17 2
c-40 -18 -60 -48 -60 -90c0 -37 16 -67 47 -88s67 -31 108 -31c42 0 78 10 107 29s43 47 43 84zM146 333c0 -98 29 -147 88 -147s88 49 88 147s-29 147 -88 147s-88 -49 -88 -147z" />
    <glyph glyph-name="h" unicode="h" horiz-adv-x="547" 
d="M545 0h-253v2l64 40c9 5 13 12 13 20c0 1 0 16 1 44c0 28 0 58 1 91c1 32 1 54 1 66c0 121 -27 174 -86 174c-44 0 -79 -25 -105 -74v-299c0 -9 4 -16 12 -21l67 -41v-2h-253v2l68 40c7 4 11 11 11 22v574c0 11 -4 18 -11 23l-68 40v2l174 20v-354c23 84 73 126 148 126
c92 0 138 -67 138 -200c0 -47 -1 -124 -2 -231c0 -10 4 -17 12 -22l68 -40v-2z" />
    <glyph glyph-name="i" unicode="i" horiz-adv-x="285" 
d="M276 0h-253v2l68 40c7 4 11 11 11 22v348c0 10 -4 18 -11 23l-68 50v2h174v-423c0 -9 4 -16 12 -21l67 -41v-2zM100 665c33 37 105 10 102 -44c0 -16 -6 -30 -17 -41c-35 -40 -106 -9 -102 41c0 17 6 32 17 44z" />
    <glyph glyph-name="j" unicode="j" horiz-adv-x="259" 
d="M188 20c0 -67 -16 -123 -47 -167c-32 -44 -79 -66 -142 -66c-8 0 -21 1 -38 4v2c88 8 132 63 132 202v417c0 10 -4 18 -11 23l-68 50v2h174v-467zM91 665c33 37 105 10 102 -44c0 -32 -27 -59 -60 -59s-59 27 -59 59c0 17 6 32 17 44z" />
    <glyph glyph-name="k" unicode="k" horiz-adv-x="505" 
d="M517 0h-156l-129 247c-7 12 -16 18 -27 18c-7 0 -15 -3 -24 -10v-191c0 -9 4 -16 12 -21l67 -41v-2h-253v2l68 40c7 4 11 11 11 22v574c0 11 -4 18 -11 23l-68 40v2l174 20v-459l194 147c5 5 5 9 0 14l-74 60v2h200v-2l-196 -148c-7 -5 -8 -10 -5 -16l136 -252
c5 -11 13 -20 23 -27l58 -40v-2z" />
    <glyph glyph-name="l" unicode="l" horiz-adv-x="267" 
d="M7 2l68 40c7 4 11 11 11 22v574c0 11 -4 18 -11 23l-68 40v2l174 20v-659c0 -9 4 -16 12 -21l67 -41v-2h-253v2z" />
    <glyph glyph-name="m" unicode="m" horiz-adv-x="849" 
d="M632 495c91 0 136 -67 136 -200c0 -47 -1 -124 -2 -231c0 -10 4 -17 12 -22l68 -40v-2h-253v2l64 40c9 5 13 12 13 20l2 88c1 58 1 95 1 111c0 123 -26 176 -87 176c-44 0 -80 -24 -109 -71c4 -21 6 -45 6 -71c0 -47 -1 -124 -2 -231c0 -10 4 -17 12 -22l68 -40v-2h-253
v2l64 40c9 5 13 12 13 20c0 1 0 16 1 44c0 28 0 58 1 91c1 32 1 54 1 66c0 121 -27 174 -86 174c-44 0 -79 -25 -105 -74v-299c0 -9 4 -16 12 -21l67 -41v-2h-253v2l68 40c7 4 11 11 11 22v348c0 10 -4 18 -11 23l-68 50v2h174v-118c23 84 73 126 148 126
c72 0 116 -41 131 -124c23 80 80 124 156 124z" />
    <glyph glyph-name="n" unicode="n" horiz-adv-x="564" 
d="M561 0h-253v2l64 40c9 5 13 12 13 20c0 1 0 16 1 44c0 28 0 58 1 91c1 32 1 54 1 66c0 121 -27 174 -86 174c-44 0 -79 -25 -105 -74v-299c0 -9 4 -16 12 -21l67 -41v-2h-253v2l68 40c7 4 11 11 11 22v348c0 10 -4 18 -11 23l-68 50v2h174v-118c23 84 73 126 148 126
c92 0 138 -67 138 -200c0 -47 -1 -124 -2 -231c0 -10 4 -17 12 -22l68 -40v-2z" />
    <glyph glyph-name="o" unicode="o" horiz-adv-x="508" 
d="M92 429c39 44 93 66 162 66s123 -22 163 -66c39 -44 59 -106 59 -185s-20 -141 -59 -185c-40 -45 -94 -67 -163 -67s-123 22 -162 67c-40 44 -60 106 -60 185s20 141 60 185zM141 244c0 -158 38 -237 113 -237s113 79 113 237c0 157 -38 236 -113 236s-113 -79 -113 -236
z" />
    <glyph glyph-name="p" unicode="p" horiz-adv-x="538" 
d="M503 257c0 -81 -17 -145 -52 -193s-80 -72 -137 -72c-63 0 -107 26 -132 78v-230c0 -9 5 -16 14 -21l90 -45v-2h-278v2l68 40c7 4 11 11 11 22v576c0 10 -4 18 -11 23l-68 50v2h174v-110c35 83 81 118 150 118c53 0 95 -22 126 -65c30 -44 45 -102 45 -173zM182 79
c24 -31 56 -47 97 -47c79 0 122 78 122 219c0 57 -10 104 -30 140c-21 36 -48 54 -82 54c-43 0 -78 -26 -107 -79v-287z" />
    <glyph glyph-name="q" unicode="q" horiz-adv-x="510" 
d="M520 -228h-268v2l90 45c9 5 14 12 14 21v263c-29 -74 -78 -111 -147 -111c-47 0 -88 22 -123 67s-52 103 -52 175c0 80 18 144 55 191s84 70 143 70c55 0 96 -22 124 -67l95 67v-659c0 -9 4 -17 11 -22l58 -40v-2zM170 99c22 -38 51 -57 86 -57c38 0 71 23 100 68v309
c-32 27 -63 40 -92 40c-75 0 -128 -76 -128 -212c0 -61 11 -110 34 -148z" />
    <glyph glyph-name="r" unicode="r" horiz-adv-x="398" 
d="M403 483l-50 -148h-2l-50 111c-2 4 -6 4 -12 1c-29 -17 -57 -54 -68 -75l-24 -48v-257c0 -11 4 -18 13 -21l106 -44v-2h-293v2l68 40c7 4 11 11 11 22v348c0 10 -4 18 -11 23l-68 50v2h174v-153c8 41 26 78 53 111s62 50 104 50c20 0 36 -4 49 -12z" />
    <glyph glyph-name="s" unicode="s" horiz-adv-x="416" 
d="M384 143c0 -48 -18 -85 -55 -111c-37 -27 -82 -40 -134 -40c-51 0 -104 10 -157 30l42 139h2l56 -138c3 -7 9 -11 19 -13c12 -2 25 -3 40 -3c65 0 102 42 102 93c0 27 -8 45 -29 61s-31 20 -64 35l-62 28c-63 29 -94 72 -94 131c0 43 17 77 50 102s72 38 116 38
c55 0 106 -8 151 -25l-38 -127h-2l-64 122c-7 11 -7 13 -22 14c-6 1 -15 1 -26 1c-49 0 -89 -33 -89 -88c0 -44 26 -66 77 -87l67 -29c72 -31 114 -65 114 -133z" />
    <glyph glyph-name="t" unicode="t" horiz-adv-x="309" 
d="M312 469h-142v-354c0 -44 21 -71 57 -71c35 0 65 26 77 59h2c-9 -64 -52 -111 -124 -111c-71 0 -107 38 -107 113v364h-70v18h55c11 0 19 5 24 14l84 148h2v-162h142v-18z" />
    <glyph glyph-name="u" unicode="u" 
d="M532 0h-174v116c-27 -83 -75 -124 -145 -124c-90 0 -135 67 -135 200c0 40 1 113 2 220c0 10 -4 18 -11 23l-68 50v2h175l-2 -119c-1 -79 -1 -127 -1 -142c0 -121 26 -176 86 -176c39 0 72 25 99 74v288c0 10 -4 18 -11 23l-68 50v2h174v-412c0 -10 4 -18 11 -23l68 -50
v-2z" />
    <glyph glyph-name="v" unicode="v" horiz-adv-x="437" 
d="M452 485l-57 -69c-8 -9 -14 -19 -17 -30l-139 -386h-46l-159 418c-4 11 -9 21 -15 28l-31 39v2h201v-2l-48 -46c-7 -6 -8 -14 -4 -24l120 -316l103 288c5 17 5 18 -6 31l-57 67v2h155v-2z" />
    <glyph glyph-name="w" unicode="w" horiz-adv-x="702" 
d="M660 416c-8 -9 -14 -19 -17 -30l-139 -386h-46l-112 303l-113 -303h-46l-154 418c-4 11 -9 21 -15 28l-31 39v2h200v-2l-48 -46c-7 -6 -8 -14 -4 -24l115 -318l87 231l-33 90c-4 11 -9 21 -15 28l-31 39v2h199v-2l-48 -46c-7 -6 -8 -14 -4 -24l116 -318l104 290
c5 17 5 18 -6 31l-57 67v2h155v-2z" />
    <glyph glyph-name="x" unicode="x" horiz-adv-x="476" 
d="M355 417c0 2 -3 6 -8 12l-55 56v2h183v-2l-82 -61c-11 -7 -21 -17 -30 -30l-90 -120l139 -202c12 -17 23 -29 33 -37l41 -33v-2h-240v2l61 38c7 5 7 12 0 22l-96 139l-87 -117c-9 -13 -10 -14 1 -26l55 -56v-2h-183v2l82 61c11 7 21 17 30 30l92 122l-137 200
c-12 17 -23 29 -33 37l-41 33v2h240v-2l-61 -38c-9 -7 -9 -9 0 -22l94 -137l85 115c5 7 7 11 7 14z" />
    <glyph glyph-name="y" unicode="y" horiz-adv-x="435" 
d="M455 485l-56 -69c-7 -7 -13 -19 -19 -34l-170 -446c-17 -45 -34 -80 -50 -105c-28 -45 -63 -67 -104 -67c-16 0 -30 3 -42 10l35 151h2l58 -100c9 -16 15 -15 24 -3c22 27 42 66 61 117l13 36l-173 443c-6 14 -12 25 -19 34l-25 33v2h198v-2l-48 -46c-7 -6 -8 -14 -4 -24
l120 -310l107 279c5 12 4 22 -3 30l-60 71v2h155v-2z" />
    <glyph glyph-name="z" unicode="z" horiz-adv-x="433" 
d="M417 485l-286 -468h141c17 0 18 0 27 15l100 154h2l-16 -186h-370v2l288 468h-147c-17 0 -18 0 -27 -15l-89 -144h-3v176h380v-2z" />
    <glyph glyph-name="braceleft" unicode="{" horiz-adv-x="351" 
d="M341 -134c-23 -5 -44 -8 -65 -8c-47 0 -90 17 -127 51s-53 77 -46 130l20 170c5 44 -29 78 -88 83v2c59 5 93 39 88 83l-20 170c-7 53 9 96 46 130s80 51 127 51c21 0 42 -3 65 -8v-2c-54 4 -94 -10 -119 -43c-26 -33 -37 -68 -33 -105l19 -173c5 -49 -30 -90 -74 -103
v-2c44 -13 79 -54 74 -103l-19 -173c-4 -37 7 -72 33 -105c25 -33 65 -47 119 -43v-2z" />
    <glyph glyph-name="bar" unicode="|" horiz-adv-x="218" 
d="M100 750h18v-1000h-18v1000z" />
    <glyph glyph-name="braceright" unicode="}" horiz-adv-x="351" 
d="M316 292c-59 -5 -93 -39 -88 -83l20 -170c7 -53 -9 -96 -46 -130s-80 -51 -127 -51c-21 0 -42 3 -65 8v2c54 -4 94 10 120 43c25 33 36 68 32 105l-19 173c-5 49 30 90 74 103v2c-44 13 -79 54 -74 103l19 173c4 37 -7 72 -32 105c-26 33 -66 47 -120 43v2
c23 5 44 8 65 8c47 0 90 -17 127 -51s53 -77 46 -130l-20 -170c-5 -44 29 -78 88 -83v-2z" />
    <glyph glyph-name="asciitilde" unicode="~" horiz-adv-x="502" 
d="M137 360c31 0 70 -11 117 -33s83 -33 110 -33c41 0 74 20 98 59l15 -9c-27 -45 -64 -67 -113 -67c-31 0 -69 11 -116 33s-84 33 -111 33c-41 0 -73 -20 -97 -59l-15 9c27 45 64 67 112 67z" />
    <glyph glyph-name="uni00A0" unicode="&#xa0;" horiz-adv-x="200" 
 />
    <glyph glyph-name="exclamdown" unicode="&#xa1;" horiz-adv-x="240" 
d="M55 -217l67 489h2l61 -489h-130zM58 432c0 35 27 62 63 62c35 0 62 -27 62 -62c0 -36 -27 -64 -62 -64c-36 0 -63 28 -63 64z" />
    <glyph glyph-name="cent" unicode="&#xa2;" horiz-adv-x="438" 
d="M413 162c-17 -104 -69 -160 -156 -169v-98h-17v97h-7c-120 0 -202 84 -202 248c0 83 20 145 59 187c39 41 89 64 150 67v111h17v-110c53 0 104 -8 154 -24v-2l-56 -149h-2l-54 147c-4 9 -9 12 -42 12v-429c3 -1 9 -1 17 -1c60 0 104 25 137 113h2zM159 120
c20 -35 47 -58 81 -67v425c-35 -5 -63 -25 -82 -62c-20 -37 -30 -86 -30 -149s10 -112 31 -147z" />
    <glyph glyph-name="sterling" unicode="&#xa3;" horiz-adv-x="517" 
d="M416 531l-67 149c-4 9 -11 13 -21 14c-15 1 -29 2 -43 2c-88 0 -126 -70 -126 -170c0 -51 9 -89 33 -153c12 -32 19 -52 21 -59h185v-17h-180c9 -33 14 -62 14 -87c0 -71 -50 -112 -115 -127v-2h240c29 0 33 2 46 19l71 92h2l-18 -192h-436v2l71 76c32 34 48 74 48 119
c0 23 -8 57 -23 100h-100v17h94c-30 83 -45 143 -45 181c0 133 77 218 222 218c59 0 119 -10 179 -30l-50 -152h-2z" />
    <glyph glyph-name="currency" unicode="&#xa4;" horiz-adv-x="664" 
d="M618 629l-113 -113c43 -43 65 -98 65 -164c0 -65 -21 -119 -64 -163l112 -112l-11 -12l-113 112c-43 -38 -97 -57 -162 -57c-64 0 -118 19 -162 57l-112 -112l-11 12l111 111c-42 43 -63 98 -63 164c0 67 21 121 64 164l-112 113l11 12l113 -113c45 38 98 57 161 57
s117 -19 161 -58l114 114zM113 352c0 -65 21 -117 63 -156c41 -39 93 -59 156 -59s115 20 157 59s63 91 63 156s-21 117 -63 157c-42 39 -94 59 -157 59s-115 -20 -156 -59c-42 -40 -63 -92 -63 -157z" />
    <glyph glyph-name="yen" unicode="&#xa5;" horiz-adv-x="601" 
d="M370 49l91 -47v-2h-312v2l91 47c9 5 13 11 13 20v97h-155v17h155v91h-155v17h154l-3 7c-2 3 -3 6 -4 8l-177 317c-7 13 -16 24 -27 33l-51 45v2h260v-2l-65 -51c-6 -5 -7 -11 -4 -18l167 -299l143 270c5 10 4 18 -3 24l-85 74v2h227v-2l-88 -69c-15 -13 -27 -26 -34 -39
l-143 -270c-5 -9 -8 -19 -8 -32h154v-17h-154v-91h154v-17h-154v-97c0 -12 1 -15 13 -20z" />
    <glyph glyph-name="brokenbar" unicode="&#xa6;" horiz-adv-x="218" 
d="M118 188v-438h-18v438h18zM118 750v-428h-18v428h18z" />
    <glyph glyph-name="section" unicode="&#xa7;" horiz-adv-x="484" 
d="M401 345c19 -26 28 -55 28 -88c0 -57 -35 -101 -104 -133c47 -41 70 -87 70 -137c0 -45 -17 -81 -52 -107c-35 -25 -76 -38 -121 -38c-43 0 -89 5 -138 16l23 197h2l73 -180c4 -9 8 -15 13 -16c7 -2 17 -3 28 -3c61 0 98 47 98 102c0 51 -32 97 -95 138l-50 34
c-85 56 -121 103 -121 168c0 57 35 101 104 132c-47 41 -70 87 -70 138c0 45 18 81 53 107c35 25 75 38 120 38c43 0 89 -5 138 -16l-23 -197h-2l-73 180c-4 9 -8 15 -13 16c-7 2 -17 3 -28 3c-61 0 -98 -47 -98 -102c0 -51 32 -97 95 -138l50 -34c43 -28 74 -55 93 -80z
M318 130c11 6 21 18 30 36s13 34 13 49c0 46 -23 85 -70 118c-50 35 -91 64 -122 89l-4 3c-11 -6 -21 -18 -29 -36c-9 -18 -13 -34 -13 -49c0 -46 23 -85 70 -118c50 -35 91 -64 122 -89z" />
    <glyph glyph-name="dieresis" unicode="&#xa8;" horiz-adv-x="368" 
d="M102 676c29 0 52 -24 52 -53c0 -28 -24 -52 -52 -52s-52 24 -52 52c0 29 23 53 52 53zM229 661c10 10 22 15 36 15c29 0 53 -24 53 -53c0 -28 -25 -52 -53 -52s-51 24 -51 52c0 15 5 27 15 38z" />
    <glyph glyph-name="copyright" unicode="&#xa9;" horiz-adv-x="813" 
d="M152 613c69 67 153 100 254 100s187 -33 256 -100s103 -155 103 -262c0 -108 -34 -195 -103 -261c-69 -67 -155 -100 -256 -100s-186 33 -255 100c-69 66 -103 153 -103 261c0 107 35 195 104 262zM66 351c0 -103 33 -186 98 -249s145 -95 242 -95s178 32 243 95
s98 146 98 249s-33 186 -98 250c-65 63 -146 95 -243 95c-96 0 -177 -32 -242 -95c-65 -64 -98 -147 -98 -250zM536 429h-1l-79 105c-5 7 -11 10 -18 11c-6 1 -12 1 -17 1c-31 0 -56 -18 -75 -54c-19 -37 -29 -83 -29 -139c0 -123 45 -194 113 -194c6 0 11 0 14 1
c4 1 9 4 15 11l76 108h1v-124c-31 -7 -66 -11 -105 -11c-66 0 -117 19 -154 58c-37 38 -55 88 -55 150c0 61 19 111 57 150c37 39 85 58 143 58c45 0 83 -4 114 -13v-118z" />
    <glyph glyph-name="ordfeminine" unicode="&#xaa;" horiz-adv-x="402" 
d="M352 424c0 -9 -1 -17 -4 -23c-9 -24 -27 -36 -53 -36c-31 0 -55 22 -56 66c-15 -41 -49 -66 -92 -66c-51 0 -90 35 -90 91c0 31 11 56 34 75c22 18 48 27 78 27c28 0 52 -8 71 -23l2 74c2 59 -24 88 -79 88c-9 0 -15 -3 -18 -9l-42 -93h-1l-31 95c37 15 76 23 117 23
s70 -9 87 -27c23 -23 33 -64 31 -123l-3 -113c-1 -31 7 -46 25 -46c10 0 17 7 22 20h2zM125 464c0 -36 21 -59 52 -59c23 0 44 12 62 37v4l1 83c-11 5 -24 8 -39 8c-48 0 -76 -32 -76 -73z" />
    <glyph glyph-name="guillemotleft" unicode="&#xab;" horiz-adv-x="433" 
d="M200 251l202 199l1 -1l-98 -199l98 -199l-1 -1l-202 199v2zM30 249v2l202 199l1 -1l-98 -199l98 -199l-1 -1z" />
    <glyph glyph-name="logicalnot" unicode="&#xac;" 
d="M501 334v-225h-18v208h-443v17h461z" />
    <glyph glyph-name="uni00AD" unicode="&#xad;" horiz-adv-x="351" 
d="M306 252v-18h-260v18h260z" />
    <glyph glyph-name="registered" unicode="&#xae;" horiz-adv-x="813" 
d="M406 -10c-101 0 -186 33 -255 100c-69 66 -103 153 -103 261c0 107 35 195 104 262s153 100 254 100s187 -33 256 -100s103 -155 103 -262c0 -108 -34 -195 -103 -261c-69 -67 -155 -100 -256 -100zM649 601c-65 63 -146 95 -243 95c-96 0 -177 -32 -242 -95
c-65 -64 -98 -147 -98 -250s33 -186 98 -249s145 -95 242 -95s178 32 243 95s98 146 98 249s-33 186 -98 250zM421 161h-188v2l49 24c5 2 7 6 7 11v310c0 5 -2 9 -7 11l-49 24v2h197c75 0 127 -36 127 -104c0 -47 -35 -88 -91 -101v-2l99 -134c6 -8 12 -15 18 -20l28 -21v-2
h-103l-109 161c-5 7 -10 10 -17 10h-16v-134c0 -5 2 -8 7 -11l48 -24v-2zM454 510c-13 12 -32 18 -55 18h-23c-7 0 -10 -4 -10 -11v-168h25c55 0 83 30 83 89c0 35 -7 59 -20 72z" />
    <glyph glyph-name="macron" unicode="&#xaf;" horiz-adv-x="346" 
d="M50 609h246v-18h-246v18z" />
    <glyph glyph-name="degree" unicode="&#xb0;" horiz-adv-x="324" 
d="M72 503c-25 22 -37 51 -37 86c0 36 12 65 37 88s55 34 90 34s65 -11 90 -34s37 -52 37 -88c0 -35 -12 -64 -37 -86s-55 -33 -90 -33s-65 11 -90 33zM53 589c0 -29 11 -54 33 -73s47 -29 76 -29s55 10 77 29c21 19 32 44 32 73c0 30 -11 55 -32 75c-22 20 -48 30 -77 30
s-54 -10 -76 -30s-33 -45 -33 -75z" />
    <glyph glyph-name="plusminus" unicode="&#xb1;" 
d="M50 383h211v161h18v-161h211v-17h-211v-163h-18v163h-211v17zM50 106v17h440v-17h-440z" />
    <glyph glyph-name="twosuperior" unicode="&#xb2;" horiz-adv-x="280" 
d="M251 518l-10 -97h-231v3c55 48 90 79 105 94c43 40 64 78 64 115c0 44 -21 66 -63 66c-7 0 -13 0 -16 -1c-5 -1 -9 -4 -11 -9l-37 -86h-2l-32 91c37 13 71 19 104 19c79 0 125 -29 125 -82c0 -29 -12 -54 -36 -75s-66 -48 -127 -81v-2h101c11 0 20 2 25 7l39 38h2z" />
    <glyph glyph-name="threesuperior" unicode="&#xb3;" horiz-adv-x="280" 
d="M224 441c-23 -16 -55 -24 -97 -24c-39 0 -75 6 -110 18l46 94h2l21 -88c1 -4 4 -6 8 -7c9 -2 20 -3 31 -3c40 0 69 28 69 71c0 44 -30 66 -89 67v2c53 9 80 33 80 74c0 36 -18 54 -53 54c-10 0 -17 0 -22 -1s-9 -4 -12 -9l-37 -86h-2l-33 91c37 13 73 19 110 19
c73 0 110 -23 110 -69c0 -34 -24 -57 -72 -69v-2c56 -3 84 -27 84 -71c0 -25 -11 -46 -34 -61z" />
    <glyph glyph-name="acute" unicode="&#xb4;" horiz-adv-x="310" 
d="M50 542l89 161h121v-2l-208 -161z" />
    <glyph glyph-name="mu" unicode="&#xb5;" horiz-adv-x="545" 
d="M537 0h-174v118c-23 -79 -74 -126 -137 -126c-20 0 -36 4 -48 12v-159c0 -11 5 -18 14 -23l90 -48v-2h-278v2l69 40c7 4 11 11 11 22v581c0 9 -4 16 -11 23l-67 45v2h175v-279c0 -61 6 -103 19 -124c13 -22 34 -33 64 -33c41 0 74 25 99 74v292c0 10 -4 18 -11 23l-68 45
v2h174v-417c0 -10 4 -18 11 -23l68 -45v-2z" />
    <glyph glyph-name="paragraph" unicode="&#xb6;" horiz-adv-x="602" 
d="M528 686h-97v-672h97v-14h-97v-250h-18v250h-75c-177 0 -266 114 -266 342c0 132 31 232 83 285c52 52 112 76 183 76h190v-17zM413 14v672h-78v-672h78z" />
    <glyph glyph-name="periodcentered" unicode="&#xb7;" horiz-adv-x="225" 
d="M50 425c0 36 27 64 62 64c36 0 63 -28 63 -64c0 -35 -27 -62 -63 -62c-35 0 -62 27 -62 62z" />
    <glyph glyph-name="cedilla" unicode="&#xb8;" horiz-adv-x="365" 
d="M251 -210c-19 -17 -46 -26 -80 -26c-61 0 -102 38 -109 85l2 1c11 -33 44 -56 77 -56c37 0 66 23 66 58c0 37 -26 61 -66 61c-11 0 -24 -2 -37 -6l-1 2l67 91h2l-10 -63c31 7 59 2 83 -15c23 -16 35 -38 35 -65s-10 -49 -29 -67z" />
    <glyph glyph-name="onesuperior" unicode="&#xb9;" horiz-adv-x="240" 
d="M16 690l140 25v-252c0 -3 3 -6 8 -8l66 -32v-2h-208v2l67 32c5 2 7 5 7 8v192c0 5 -2 8 -7 9l-73 24v2z" />
    <glyph glyph-name="ordmasculine" unicode="&#xba;" horiz-adv-x="399" 
d="M87 668c27 30 65 45 112 45s85 -15 113 -45c27 -31 41 -73 41 -128s-14 -98 -41 -129c-28 -31 -66 -46 -113 -46s-85 15 -112 46s-41 74 -41 129s14 97 41 128zM121 540c0 -107 26 -160 78 -160c53 0 79 53 79 160c0 105 -26 158 -79 158c-52 0 -78 -53 -78 -158z" />
    <glyph glyph-name="guillemotright" unicode="&#xbb;" horiz-adv-x="433" 
d="M298 250l-98 199l1 1l202 -199v-2l-202 -199l-1 1zM30 449l1 1l202 -199v-2l-202 -199l-1 1l98 199z" />
    <glyph glyph-name="onequarter" unicode="&#xbc;" horiz-adv-x="456" 
d="M341 1v-2h-167v2l48 28c5 3 7 6 7 10v33h-143v2l155 213h48v-201h13c8 0 13 3 16 8l46 84h2l-7 -106h-70v-33c0 -3 2 -7 7 -10zM335 421h-208v2l67 32c5 2 7 5 7 8v192c0 5 -2 8 -7 9l-73 24v2l140 25v-252c0 -3 3 -6 8 -8l66 -32v-2zM115 86h114v158zM396 343h-336v17
h336v-17z" />
    <glyph glyph-name="onehalf" unicode="&#xbd;" horiz-adv-x="456" 
d="M306 134c-24 -21 -66 -48 -127 -81v-2h101c11 0 20 2 25 7l39 38h2l-10 -97h-231v3c55 48 90 79 105 94c43 40 64 78 64 115c0 44 -21 66 -63 66c-7 0 -13 0 -16 -1c-5 -1 -9 -4 -11 -9l-37 -86h-2l-32 91c37 13 71 19 104 19c79 0 125 -29 125 -82
c0 -29 -12 -54 -36 -75zM335 421h-208v2l67 32c5 2 7 5 7 8v192c0 5 -2 8 -7 9l-73 24v2l140 25v-252c0 -3 3 -6 8 -8l66 -32v-2zM396 343h-336v17h336v-17z" />
    <glyph glyph-name="threequarters" unicode="&#xbe;" horiz-adv-x="456" 
d="M229 72h-143v2l155 213h48v-201h13c8 0 13 3 16 8l46 84h2l-7 -106h-70v-33c0 -3 2 -7 7 -10l45 -28v-2h-167v2l48 28c5 3 7 6 7 10v33zM265 575v-2c56 -3 84 -27 84 -71c0 -51 -47 -85 -131 -85c-39 0 -75 6 -110 18l46 94h2l21 -88c1 -4 4 -6 8 -7c9 -2 19 -3 31 -3
c40 0 69 28 69 71c0 44 -30 66 -89 67v2c53 9 80 33 80 74c0 36 -18 54 -53 54c-10 0 -17 0 -22 -1s-9 -4 -12 -9l-37 -86h-2l-33 91c37 13 73 19 110 19c73 0 110 -23 110 -69c0 -34 -24 -57 -72 -69zM115 86h114v158zM396 343h-336v17h336v-17z" />
    <glyph glyph-name="questiondown" unicode="&#xbf;" horiz-adv-x="393" 
d="M410 -182c-62 -30 -128 -45 -199 -45c-57 0 -103 13 -140 39s-56 62 -56 108c0 44 24 89 72 136l83 83c25 25 42 47 51 66c9 18 11 41 6 68l1 2c38 -21 57 -49 57 -85c0 -27 -19 -60 -34 -76c-7 -9 -19 -22 -34 -39l-56 -61c-34 -37 -51 -75 -51 -116
c0 -65 47 -109 115 -109c15 0 29 1 40 4c19 4 19 5 24 17l66 157h2zM192 476c12 12 27 18 45 18c35 0 62 -27 62 -62c0 -36 -27 -64 -62 -64c-36 0 -63 28 -63 64c0 17 6 32 18 44z" />
    <glyph glyph-name="Agrave" unicode="&#xc0;" horiz-adv-x="621" 
d="M624 2v-2h-249v2l71 54c7 5 9 14 4 25l-56 165h-237l-48 -143c-4 -19 -5 -17 15 -33l85 -68v-2h-225v2l80 68c13 12 22 24 26 36l168 498c5 21 5 22 -8 37l-55 60v2h153l210 -621c5 -15 13 -28 23 -38zM388 264l-112 335l-113 -335h225zM148 917v2h121l89 -161l-2 -2z
" />
    <glyph glyph-name="Aacute" unicode="&#xc1;" horiz-adv-x="621" 
d="M624 2v-2h-249v2l71 54c7 5 9 14 4 25l-56 165h-237l-48 -143c-4 -19 -5 -17 15 -33l85 -68v-2h-225v2l80 68c13 12 22 24 26 36l168 498c5 21 5 22 -8 37l-55 60v2h153l210 -621c5 -15 13 -28 23 -38zM388 264l-112 335l-113 -335h225zM324 919h121v-2l-208 -161l-2 2z
" />
    <glyph glyph-name="Acircumflex" unicode="&#xc2;" horiz-adv-x="621" 
d="M450 81l-56 165h-237l-48 -143c-4 -19 -5 -17 15 -33l85 -68v-2h-225v2l80 68c13 12 22 24 26 36l168 498c5 21 5 22 -8 37l-55 60v2h153l210 -621c5 -15 13 -28 23 -38l43 -42v-2h-249v2l71 54c7 5 9 14 4 25zM163 264h225l-112 335zM295 928h2l141 -173l-1 -2l-141 76
l-141 -76l-1 2z" />
    <glyph glyph-name="Atilde" unicode="&#xc3;" horiz-adv-x="621" 
d="M375 0v2l71 54c7 5 9 14 4 25l-56 165h-237l-48 -143c-4 -19 -5 -17 15 -33l85 -68v-2h-225v2l80 68c13 12 22 24 26 36l168 498c5 21 5 22 -8 37l-55 60v2h153l210 -621c5 -15 13 -28 23 -38l43 -42v-2h-249zM388 264l-112 335l-113 -335h225zM427 850
c-9 -49 -33 -73 -70 -73c-15 0 -37 8 -66 24c-30 15 -52 23 -66 23c-27 0 -47 -16 -60 -48l-2 1c0 11 1 23 3 34c9 51 33 76 70 76c15 0 37 -8 66 -23c29 -16 51 -24 65 -24c27 0 48 16 61 48l2 -1c0 -13 -1 -26 -3 -37z" />
    <glyph glyph-name="Adieresis" unicode="&#xc4;" horiz-adv-x="621" 
d="M446 56c7 5 9 14 4 25l-56 165h-237l-48 -143c-4 -19 -5 -17 15 -33l85 -68v-2h-225v2l80 68c13 12 22 24 26 36l168 498c5 21 5 22 -8 37l-55 60v2h153l210 -621c5 -15 13 -28 23 -38l43 -42v-2h-249v2zM388 264l-112 335l-113 -335h225zM177 877c30 33 92 8 89 -38
c0 -28 -24 -52 -52 -52s-52 24 -52 52c0 15 5 27 15 38zM415 877c10 -11 15 -23 15 -38c0 -28 -25 -52 -53 -52s-51 24 -51 52c0 29 23 53 51 53c15 0 27 -5 38 -15z" />
    <glyph glyph-name="Aring" unicode="&#xc5;" horiz-adv-x="621" 
d="M558 82c5 -15 13 -28 23 -38l43 -42v-2h-249v2l71 54c7 5 9 14 4 25l-56 165h-237l-48 -143c-4 -19 -5 -17 15 -33l85 -68v-2h-225v2l80 68c13 12 22 24 26 36l168 498c5 21 5 22 -8 37l-55 60v2h153zM163 264h225l-112 335zM355 781c-47 -52 -144 -13 -139 57
c-5 70 92 108 139 58c31 -32 31 -84 0 -115zM359 838c0 35 -27 63 -62 63s-62 -28 -62 -63c-4 -54 71 -86 106 -44c12 12 18 27 18 44z" />
    <glyph glyph-name="AE" unicode="&#xc6;" horiz-adv-x="911" 
d="M555 685c-13 0 -16 -4 -16 -23v-294h123c11 1 20 7 28 19l64 89h2v-234h-2l-64 90c-9 12 -18 18 -29 18h-122v-309c0 -19 3 -23 16 -23h178c17 0 29 4 34 13l89 182h2v-213h-522v2l86 47c9 5 13 11 13 20v176h-237l-82 -136c-13 -23 -15 -27 1 -40l84 -67v-2h-226v2
l74 58c19 15 32 28 39 39l306 505c13 21 13 24 0 37l-63 60v2h517v-216h-2l-84 180c-6 12 -16 18 -29 18h-178zM209 263h226v374z" />
    <glyph glyph-name="Ccedilla" unicode="&#xc7;" horiz-adv-x="595" 
d="M538 227h2v-220c-53 -11 -109 -17 -168 -17c-5 0 -20 1 -27 1l-8 -54c31 7 59 2 83 -15c23 -16 35 -38 35 -65c0 -53 -41 -93 -109 -93c-61 0 -102 38 -109 85l2 1c11 -33 44 -56 77 -56c37 0 66 23 66 58c0 37 -26 62 -66 61c-12 0 -24 -2 -37 -6l-1 2l60 82
c-102 6 -178 41 -228 105s-75 148 -75 253c0 109 29 197 86 264s137 100 238 100c58 0 118 -7 181 -22v-211h-2l-101 194c-8 15 -12 17 -32 20c-14 2 -28 3 -41 3c-139 0 -209 -115 -209 -346c0 -230 72 -345 216 -345c9 0 20 1 35 2c14 1 24 7 30 18z" />
    <glyph glyph-name="Egrave" unicode="&#xc8;" horiz-adv-x="593" 
d="M438 242h-2l-64 90c-9 12 -18 18 -29 18h-122v-309c0 -19 3 -23 16 -23h178c17 0 29 4 34 13l89 182h2v-213h-522v2l86 47c9 5 13 11 13 20v565c0 9 -4 15 -13 20l-86 47v2h512v-216h-2l-84 180c-6 12 -16 18 -29 18h-178c-13 0 -16 -4 -16 -23v-294h123c11 1 20 7 28 19
l64 89h2v-234zM164 917v2h121l89 -161l-2 -2z" />
    <glyph glyph-name="Eacute" unicode="&#xc9;" horiz-adv-x="593" 
d="M444 667c-6 12 -16 18 -29 18h-178c-13 0 -16 -4 -16 -23v-294h123c11 1 20 7 28 19l64 89h2v-234h-2l-64 90c-9 12 -18 18 -29 18h-122v-309c0 -19 3 -23 16 -23h178c17 0 29 4 34 13l89 182h2v-213h-522v2l86 47c9 5 13 11 13 20v565c0 9 -4 15 -13 20l-86 47v2h512
v-216h-2zM461 917l-208 -161l-2 2l89 161h121v-2z" />
    <glyph glyph-name="Ecircumflex" unicode="&#xca;" horiz-adv-x="593" 
d="M436 242l-64 90c-9 12 -18 18 -29 18h-122v-309c0 -19 3 -23 16 -23h178c17 0 29 4 34 13l89 182h2v-213h-522v2l86 47c9 5 13 11 13 20v565c0 9 -4 15 -13 20l-86 47v2h512v-216h-2l-84 180c-6 12 -16 18 -29 18h-178c-13 0 -16 -4 -16 -23v-294h123c11 1 20 7 28 19
l64 89h2v-234h-2zM453 753l-141 76l-141 -76l-1 2l141 173h2l141 -173z" />
    <glyph glyph-name="Edieresis" unicode="&#xcb;" horiz-adv-x="593" 
d="M436 476h2v-234h-2l-64 90c-9 12 -18 18 -29 18h-122v-309c0 -19 3 -23 16 -23h178c17 0 29 4 34 13l89 182h2v-213h-522v2l86 47c9 5 13 11 13 20v565c0 9 -4 15 -13 20l-86 47v2h512v-216h-2l-84 180c-6 12 -16 18 -29 18h-178c-13 0 -16 -4 -16 -23v-294h123
c11 1 20 7 28 19zM193 877c30 33 92 8 89 -38c0 -28 -24 -52 -52 -52s-52 24 -52 52c0 15 5 27 15 38zM357 803c-10 10 -15 22 -15 36c0 29 23 53 51 53c29 0 53 -24 53 -53c2 -44 -61 -71 -89 -36z" />
    <glyph glyph-name="Igrave" unicode="&#xcc;" horiz-adv-x="338" 
d="M320 0h-302v2l86 47c9 5 13 11 13 20v565c0 9 -4 15 -13 20l-86 47v2h302v-2l-86 -47c-12 -7 -13 -9 -13 -20v-565c0 -12 1 -15 13 -20l86 -47v-2zM141 919l89 -161l-2 -2l-208 161v2h121z" />
    <glyph glyph-name="Iacute" unicode="&#xcd;" horiz-adv-x="338" 
d="M320 0h-302v2l86 47c9 5 13 11 13 20v565c0 9 -4 15 -13 20l-86 47v2h302v-2l-86 -47c-12 -7 -13 -9 -13 -20v-565c0 -12 1 -15 13 -20l86 -47v-2zM107 758l89 161h121v-2l-208 -161z" />
    <glyph glyph-name="Icircumflex" unicode="&#xce;" horiz-adv-x="338" 
d="M320 0h-302v2l86 47c9 5 13 11 13 20v565c0 9 -4 15 -13 20l-86 47v2h302v-2l-86 -47c-12 -7 -13 -9 -13 -20v-565c0 -12 1 -15 13 -20l86 -47v-2zM26 755l141 173h2l141 -173l-1 -2l-141 76l-141 -76z" />
    <glyph glyph-name="Idieresis" unicode="&#xcf;" horiz-adv-x="338" 
d="M18 2l86 47c9 5 13 11 13 20v565c0 9 -4 15 -13 20l-86 47v2h302v-2l-86 -47c-12 -7 -13 -9 -13 -20v-565c0 -12 1 -15 13 -20l86 -47v-2h-302v2zM49 877c30 33 92 8 89 -38c0 -28 -24 -52 -52 -52s-52 24 -52 52c0 15 5 27 15 38zM302 839c0 -28 -25 -52 -53 -52
s-51 24 -51 52c0 29 23 53 51 53c29 0 53 -24 53 -53z" />
    <glyph glyph-name="Eth" unicode="&#xd0;" horiz-adv-x="674" 
d="M555 98c-57 -65 -138 -98 -245 -98h-293v2l89 45c12 5 13 10 13 27v273h-89v17h89v266c0 17 -1 21 -13 26l-89 45v2h294c216 0 329 -126 329 -342c0 -110 -28 -198 -85 -263zM223 42c0 -21 3 -24 27 -24h21c167 0 250 113 250 338c0 117 -21 201 -62 252
c-42 51 -98 77 -168 77h-52c-12 0 -16 -4 -16 -20v-301h125v-17h-125v-305z" />
    <glyph glyph-name="Ntilde" unicode="&#xd1;" horiz-adv-x="682" 
d="M541 632l-95 69v2h241v-2l-95 -69c-11 -7 -16 -17 -16 -30v-602h-69l-367 600v-499c0 -13 5 -23 16 -30l95 -69v-2h-241v2l95 69c11 7 16 17 16 30v507c0 15 -4 26 -13 34l-84 59v2h175l358 -587v486c0 12 -5 22 -16 30zM214 777c0 11 1 23 3 34c9 51 33 76 70 76
c15 0 37 -8 66 -23c29 -16 51 -24 65 -24c27 0 48 16 61 48l2 -1c0 -13 -1 -26 -3 -37c-9 -49 -33 -73 -70 -73c-15 0 -37 8 -66 24c-30 15 -52 23 -66 23c-27 0 -47 -16 -60 -48z" />
    <glyph glyph-name="Ograve" unicode="&#xd2;" horiz-adv-x="689" 
d="M573 87c-54 -65 -130 -97 -228 -97s-174 32 -228 97c-54 64 -81 152 -81 265s27 201 81 265s130 96 228 96s174 -32 228 -96c53 -64 80 -152 80 -265s-27 -201 -80 -265zM156 352c0 -120 17 -207 52 -262c34 -55 80 -83 137 -84c115 0 189 106 189 346
c0 120 -17 207 -51 262c-35 55 -81 82 -138 83c-57 0 -103 -27 -137 -82c-35 -55 -52 -143 -52 -263zM196 919h121l89 -161l-2 -2l-208 161v2z" />
    <glyph glyph-name="Oacute" unicode="&#xd3;" horiz-adv-x="689" 
d="M573 87c-54 -65 -130 -97 -228 -97s-174 32 -228 97c-54 64 -81 152 -81 265s27 201 81 265s130 96 228 96s174 -32 228 -96c53 -64 80 -152 80 -265s-27 -201 -80 -265zM208 90c34 -55 80 -83 137 -84c115 0 189 106 189 346c0 120 -17 207 -51 262
c-35 55 -81 82 -138 83c-57 0 -103 -27 -137 -82c-35 -55 -52 -143 -52 -263s17 -207 52 -262zM372 919h121v-2l-208 -161l-2 2z" />
    <glyph glyph-name="Ocircumflex" unicode="&#xd4;" horiz-adv-x="689" 
d="M573 87c-54 -65 -130 -97 -228 -97s-174 32 -228 97c-54 64 -81 152 -81 265s27 201 81 265s130 96 228 96s174 -32 228 -96c53 -64 80 -152 80 -265s-27 -201 -80 -265zM156 352c0 -120 17 -207 52 -262c34 -55 80 -83 137 -84c115 0 189 106 189 346
c0 120 -17 207 -51 262c-35 55 -81 82 -138 83c-57 0 -103 -27 -137 -82c-35 -55 -52 -143 -52 -263zM343 928h2l141 -173l-1 -2l-141 76l-141 -76l-1 2z" />
    <glyph glyph-name="Otilde" unicode="&#xd5;" horiz-adv-x="689" 
d="M573 87c-54 -65 -130 -97 -228 -97s-174 32 -228 97c-54 64 -81 152 -81 265s27 201 81 265s130 96 228 96s174 -32 228 -96c53 -64 80 -152 80 -265s-27 -201 -80 -265zM208 90c34 -55 80 -83 137 -84c115 0 189 106 189 346c0 120 -17 207 -51 262
c-35 55 -81 82 -138 83c-57 0 -103 -27 -137 -82c-35 -55 -52 -143 -52 -263s17 -207 52 -262zM214 811c9 51 33 76 70 76c15 0 37 -8 66 -23c29 -16 51 -24 65 -24c27 0 48 16 61 48l2 -1c0 -13 -1 -26 -3 -37c-9 -49 -33 -73 -70 -73c-15 0 -37 8 -66 24
c-30 15 -52 23 -66 23c-27 0 -47 -16 -60 -48l-2 1c0 11 1 23 3 34z" />
    <glyph glyph-name="Odieresis" unicode="&#xd6;" horiz-adv-x="689" 
d="M653 352c0 -113 -27 -201 -80 -265c-54 -65 -130 -97 -228 -97s-174 32 -228 97c-54 64 -81 152 -81 265s27 201 81 265s130 96 228 96s174 -32 228 -96c53 -64 80 -152 80 -265zM208 90c34 -55 80 -83 137 -84c115 0 189 106 189 346c0 120 -17 207 -51 262
c-35 55 -81 82 -138 83c-57 0 -103 -27 -137 -82c-35 -55 -52 -143 -52 -263s17 -207 52 -262zM210 839c0 29 23 53 52 53s52 -24 52 -53c0 -28 -24 -52 -52 -52s-52 24 -52 52zM374 839c0 29 23 53 51 53c29 0 53 -24 53 -53c0 -28 -25 -52 -53 -52s-51 24 -51 52z" />
    <glyph glyph-name="multiply" unicode="&#xd7;" 
d="M120 484l150 -150l150 150l12 -12l-150 -150l149 -149l-12 -12l-149 149l-149 -149l-12 12l149 149l-150 150z" />
    <glyph glyph-name="Oslash" unicode="&#xd8;" horiz-adv-x="689" 
d="M653 352c0 -113 -27 -201 -80 -265c-54 -65 -130 -97 -228 -97c-49 0 -93 8 -132 25l-43 -97l-17 7l43 98c-104 55 -160 169 -160 329c0 113 27 201 81 265s130 96 228 96c53 0 100 -10 142 -30l43 96l17 -7l-43 -98c96 -55 149 -169 149 -322zM218 73l249 563
c-32 41 -73 61 -122 61c-57 0 -103 -27 -137 -82c-35 -55 -52 -143 -52 -263c0 -129 21 -222 62 -279zM345 6c115 0 189 106 189 346c0 120 -18 209 -55 267l-248 -563c29 -33 67 -50 114 -50z" />
    <glyph glyph-name="Ugrave" unicode="&#xd9;" horiz-adv-x="652" 
d="M666 701l-96 -69c-11 -7 -16 -17 -16 -30v-354c0 -160 -66 -258 -218 -258c-159 0 -239 71 -239 214v427c0 11 -1 13 -13 20l-79 50v2h293v-2l-84 -50c-12 -5 -13 -8 -13 -20v-405c0 -135 59 -208 168 -208c107 0 166 84 166 229v355c0 13 -5 23 -16 30l-95 69v2h242v-2z
M213 917v2h121l89 -161l-2 -2z" />
    <glyph glyph-name="Uacute" unicode="&#xda;" horiz-adv-x="652" 
d="M666 701l-96 -69c-11 -7 -16 -17 -16 -30v-354c0 -160 -66 -258 -218 -258c-159 0 -239 71 -239 214v427c0 11 -1 13 -13 20l-79 50v2h293v-2l-84 -50c-12 -5 -13 -8 -13 -20v-405c0 -135 59 -208 168 -208c107 0 166 84 166 229v355c0 13 -5 23 -16 30l-95 69v2h242v-2z
M300 758l89 161h121v-2l-208 -161z" />
    <glyph glyph-name="Ucircumflex" unicode="&#xdb;" horiz-adv-x="652" 
d="M554 248c0 -160 -66 -258 -218 -258c-159 0 -239 71 -239 214v427c0 11 -1 13 -13 20l-79 50v2h293v-2l-84 -50c-12 -5 -13 -8 -13 -20v-405c0 -135 59 -208 168 -208c107 0 166 84 166 229v355c0 13 -5 23 -16 30l-95 69v2h242v-2l-96 -69c-11 -7 -16 -17 -16 -30v-354z
M360 928h2l141 -173l-1 -2l-141 76l-141 -76l-1 2z" />
    <glyph glyph-name="Udieresis" unicode="&#xdc;" horiz-adv-x="652" 
d="M535 247v355c0 13 -5 23 -16 30l-95 69v2h242v-2l-96 -69c-11 -7 -16 -17 -16 -30v-354c0 -160 -66 -258 -218 -258c-159 0 -239 71 -239 214v427c0 11 -1 13 -13 20l-79 50v2h293v-2l-84 -50c-12 -5 -13 -8 -13 -20v-405c0 -135 59 -208 168 -208c107 0 166 84 166 229z
M442 787c-28 0 -51 24 -51 52c0 29 23 53 51 53c29 0 53 -24 53 -53c0 -28 -24 -52 -53 -52zM227 839c0 29 23 53 52 53s52 -24 52 -53c0 -28 -24 -52 -52 -52s-52 24 -52 52z" />
    <glyph glyph-name="Yacute" unicode="&#xdd;" horiz-adv-x="596" 
d="M486 627l-85 74v2h227v-2l-88 -69c-15 -13 -27 -26 -34 -39l-143 -270c-5 -9 -8 -21 -8 -36v-218c0 -12 1 -15 13 -20l91 -47v-2h-312v2l91 47c9 5 13 11 13 20v207c0 11 -3 21 -8 30l-177 317c-7 13 -16 24 -27 33l-51 45v2h260v-2l-65 -51c-6 -5 -7 -11 -4 -18
l167 -299l143 270c5 10 4 18 -3 24zM264 758l89 161h121v-2l-208 -161z" />
    <glyph glyph-name="Thorn" unicode="&#xde;" horiz-adv-x="586" 
d="M561 370c0 -67 -24 -119 -73 -158s-110 -59 -182 -59h-85v-82c0 -12 1 -15 13 -20l112 -49v-2h-328v2l86 47c12 5 13 8 13 20v565c0 9 -4 16 -13 20l-86 47v2h203v-120h99c147 0 241 -69 241 -213zM289 171c45 0 82 16 113 47s46 82 46 152c0 135 -63 195 -158 195h-69
v-394h68z" />
    <glyph glyph-name="germandbls" unicode="&#xdf;" horiz-adv-x="571" 
d="M448 35c15 19 23 41 23 67c0 43 -29 69 -81 93l-63 30c-59 28 -89 63 -89 105c0 40 18 62 63 98l42 35c32 27 48 71 48 130s-37 105 -102 105c-64 0 -96 -51 -96 -152v-546h-174v2l68 41c7 4 11 11 11 21v406h-70v17h70v8c0 81 16 137 48 170c32 32 81 48 147 48
c47 0 89 -11 125 -32c35 -21 53 -52 53 -92c0 -37 -24 -72 -71 -106l-54 -38c-25 -18 -37 -38 -37 -59c0 -31 25 -58 76 -81l71 -32c67 -29 100 -73 100 -130c0 -47 -17 -84 -52 -111s-77 -40 -125 -40c-57 0 -110 12 -159 35l51 135h2l48 -138c2 -7 9 -11 20 -14
c12 -2 25 -3 40 -3c29 0 51 9 67 28z" />
    <glyph glyph-name="agrave" unicode="&#xe0;" horiz-adv-x="465" 
d="M377 -8c-47 0 -80 37 -80 106c-20 -67 -70 -106 -134 -106c-36 0 -67 12 -92 35s-38 55 -38 96c0 46 16 82 49 108c32 25 70 38 113 38c41 0 76 -10 104 -31l2 106v3c0 80 -36 131 -107 131c-25 0 -28 -1 -33 -14l-61 -132h-2l-45 130c53 22 109 33 168 33
s102 -13 127 -39c30 -31 45 -86 45 -164v-14l-4 -163c-1 -45 11 -67 36 -67c17 0 28 10 33 29h2c0 -11 -2 -21 -6 -31c-12 -31 -40 -54 -77 -54zM131 135c0 -52 32 -87 76 -87c37 0 67 19 90 58v3l2 123c-19 7 -39 10 -58 10c-69 0 -110 -47 -110 -107zM77 701v2h121
l89 -161l-2 -2z" />
    <glyph glyph-name="aacute" unicode="&#xe1;" horiz-adv-x="465" 
d="M348 456c30 -31 45 -86 45 -164v-14l-4 -163c-1 -45 11 -67 36 -67c17 0 28 10 33 29h2c0 -11 -2 -21 -6 -31c-12 -31 -40 -54 -77 -54c-47 0 -80 37 -80 106c-20 -67 -70 -106 -134 -106c-36 0 -67 12 -92 35s-38 55 -38 96c0 46 16 82 49 108c32 25 70 38 113 38
c41 0 76 -10 104 -31l2 106v3c0 80 -36 131 -107 131c-25 0 -28 -1 -33 -14l-61 -132h-2l-45 130c53 22 109 33 168 33s102 -13 127 -39zM131 135c0 -52 32 -87 76 -87c37 0 67 19 90 58v3l2 123c-19 7 -39 10 -58 10c-69 0 -110 -47 -110 -107zM374 701l-208 -161l-2 2
l89 161h121v-2z" />
    <glyph glyph-name="acircumflex" unicode="&#xe2;" horiz-adv-x="465" 
d="M301 344v3c0 80 -36 131 -107 131c-25 0 -28 -1 -33 -14l-61 -132h-2l-45 130c53 22 109 33 168 33s102 -13 127 -39c30 -31 45 -86 45 -164v-14l-4 -163c-1 -45 11 -67 36 -67c17 0 28 10 33 29h2c0 -11 -2 -21 -6 -31c-12 -31 -40 -54 -77 -54c-47 0 -80 37 -80 106
c-20 -67 -70 -106 -134 -106c-36 0 -67 12 -92 35s-38 55 -38 96c0 46 16 82 49 108c32 25 70 38 113 38c41 0 76 -10 104 -31zM160 211c-19 -21 -29 -46 -29 -76c0 -52 32 -87 76 -87c37 0 67 19 90 58v3l2 123c-19 7 -39 10 -58 10c-35 0 -62 -10 -81 -31zM366 537
l-141 76l-141 -76l-1 2l141 173h2l141 -173z" />
    <glyph glyph-name="atilde" unicode="&#xe3;" horiz-adv-x="465" 
d="M320 19c-15 18 -23 44 -23 79c-20 -67 -70 -106 -134 -106c-36 0 -67 12 -92 35s-38 55 -38 96c0 46 16 82 49 108c32 25 70 38 113 38c41 0 76 -10 104 -31l2 106v3c0 80 -36 131 -107 131c-25 0 -28 -1 -33 -14l-61 -132h-2l-45 130c53 22 109 33 168 33
s102 -13 127 -39c30 -31 45 -86 45 -164v-14l-4 -163c-1 -45 11 -67 36 -67c17 0 28 10 33 29h2c0 -11 -2 -21 -6 -31c-12 -31 -40 -54 -77 -54c-23 0 -42 9 -57 27zM297 106v3l2 123c-19 7 -39 10 -58 10c-69 0 -110 -47 -110 -107c0 -52 32 -87 76 -87c37 0 67 19 90 58z
M356 634c-9 -49 -33 -73 -70 -73c-15 0 -37 8 -66 24c-30 15 -52 23 -66 23c-27 0 -47 -16 -60 -48l-2 1c0 11 1 23 3 34c9 51 33 76 70 76c15 0 37 -8 66 -23c29 -16 51 -24 65 -24c27 0 48 16 61 48l2 -1c0 -14 -1 -26 -3 -37z" />
    <glyph glyph-name="adieresis" unicode="&#xe4;" horiz-adv-x="465" 
d="M301 347c0 80 -36 131 -107 131c-25 0 -28 -1 -33 -14l-61 -132h-2l-45 130c53 22 109 33 168 33s102 -13 127 -39c30 -31 45 -86 45 -164v-14l-4 -163c-1 -45 11 -67 36 -67c17 0 28 10 33 29h2c0 -11 -2 -21 -6 -31c-12 -31 -40 -54 -77 -54c-47 0 -80 37 -80 106
c-20 -67 -70 -106 -134 -106c-36 0 -67 12 -92 35s-38 55 -38 96c0 46 16 82 49 108c32 25 70 38 113 38c41 0 76 -10 104 -31l2 106v3zM297 109l2 123c-19 7 -39 10 -58 10c-69 0 -110 -47 -110 -107c0 -52 32 -87 76 -87c37 0 67 19 90 58v3zM270 587
c-10 10 -15 22 -15 36c0 29 23 53 51 53c29 0 53 -24 53 -53c0 -28 -24 -52 -53 -52c-14 0 -26 5 -36 16zM91 623c0 29 23 53 52 53s52 -24 52 -53c0 -28 -24 -52 -52 -52s-52 24 -52 52z" />
    <glyph glyph-name="aring" unicode="&#xe5;" horiz-adv-x="465" 
d="M297 98c-20 -67 -70 -106 -134 -106c-36 0 -67 12 -92 35s-38 55 -38 96c0 46 16 82 49 108c32 25 70 38 113 38c41 0 76 -10 104 -31l2 106v3c0 80 -36 131 -107 131c-25 0 -28 -1 -33 -14l-61 -132h-2l-45 130c53 22 109 33 168 33s102 -13 127 -39
c30 -31 45 -86 45 -164v-14l-4 -163c-1 -45 11 -67 36 -67c17 0 28 10 33 29h2c0 -11 -2 -21 -6 -31c-12 -31 -40 -54 -77 -54c-47 0 -80 37 -80 106zM297 109l2 123c-19 7 -39 10 -58 10c-69 0 -110 -47 -110 -107c0 -52 32 -87 76 -87c37 0 67 19 90 58v3zM284 565
c-47 -52 -144 -13 -139 57c-5 70 92 108 139 58c31 -32 31 -84 0 -115zM270 667c-35 40 -110 9 -106 -45c-4 -54 71 -86 106 -44c24 24 24 64 0 89z" />
    <glyph glyph-name="ae" unicode="&#xe6;" horiz-adv-x="732" 
d="M403 19c-32 18 -57 45 -75 81c-21 -67 -81 -108 -157 -108c-80 0 -138 52 -138 136c0 44 16 79 49 104c32 25 68 37 108 37c44 0 80 -10 109 -31v26l2 80c3 81 -36 133 -109 133c-23 0 -26 -1 -31 -13l-61 -131h-2l-49 135c56 18 115 27 176 27c55 0 96 -13 121 -39
c8 -9 14 -17 17 -23c39 41 89 62 148 62c52 0 96 -16 133 -47s55 -77 55 -137c0 -7 -1 -15 -2 -26h-303v-28c0 -131 61 -208 146 -208c73 0 126 41 159 122h2c-21 -119 -89 -179 -194 -179c-38 0 -73 9 -104 27zM395 302h207c0 119 -31 178 -92 178
c-65 0 -108 -69 -115 -178zM154 73c15 -17 36 -25 63 -25c45 0 82 19 109 56c-18 37 -27 80 -27 129c-24 6 -43 9 -57 9c-69 0 -111 -44 -111 -103c0 -27 8 -49 23 -66z" />
    <glyph glyph-name="ccedilla" unicode="&#xe7;" horiz-adv-x="440" 
d="M345 -143c0 -53 -41 -93 -109 -93c-61 0 -102 38 -109 85l2 1c11 -33 44 -56 77 -56c37 0 66 23 66 58c0 37 -26 62 -66 61c-12 0 -24 -2 -37 -6l-1 2l61 83c-55 1 -102 23 -141 64s-58 102 -58 183c0 185 118 256 234 256c46 0 94 -9 145 -28l-47 -145h-2l-59 144
c-3 7 -7 11 -12 12c-6 1 -13 2 -21 2c-92 0 -141 -76 -141 -211c0 -148 60 -220 145 -220c63 0 110 38 141 113h2c-20 -104 -79 -169 -180 -170l-8 -55c31 7 59 2 83 -15c23 -16 35 -38 35 -65z" />
    <glyph glyph-name="egrave" unicode="&#xe8;" horiz-adv-x="464" 
d="M433 171c-21 -119 -89 -179 -194 -179c-59 0 -109 21 -148 63c-40 41 -60 103 -60 184c0 91 27 162 70 200s91 56 142 56c52 0 96 -16 133 -47s55 -77 55 -137c0 -7 -1 -15 -2 -26h-302v-28c0 -131 60 -208 145 -208c73 0 126 41 159 123zM128 302h206v2
c0 117 -31 176 -92 176c-65 0 -106 -67 -114 -178zM97 703h121l89 -161l-2 -2l-208 161v2z" />
    <glyph glyph-name="eacute" unicode="&#xe9;" horiz-adv-x="464" 
d="M433 171c-21 -119 -89 -179 -194 -179c-59 0 -109 21 -148 63c-40 41 -60 103 -60 184c0 91 27 162 70 200s91 56 142 56c52 0 96 -16 133 -47s55 -77 55 -137c0 -7 -1 -15 -2 -26h-302v-28c0 -131 60 -208 145 -208c73 0 126 41 159 123zM334 302v2
c0 117 -31 176 -92 176c-65 0 -106 -67 -114 -178h206zM184 542l89 161h121v-2l-208 -161z" />
    <glyph glyph-name="ecircumflex" unicode="&#xea;" horiz-adv-x="464" 
d="M433 171c-21 -119 -89 -179 -194 -179c-59 0 -109 21 -148 63c-40 41 -60 103 -60 184c0 91 27 162 70 200s91 56 142 56c52 0 96 -16 133 -47s55 -77 55 -137c0 -7 -1 -15 -2 -26h-302v-28c0 -131 60 -208 145 -208c73 0 126 41 159 123zM334 302v2
c0 117 -31 176 -92 176c-65 0 -106 -67 -114 -178h206zM103 539l141 173h2l141 -173l-1 -2l-141 76l-141 -76z" />
    <glyph glyph-name="edieresis" unicode="&#xeb;" horiz-adv-x="464" 
d="M368 37c-33 -30 -76 -45 -129 -45c-59 0 -109 21 -148 63c-40 41 -60 103 -60 184c0 91 27 162 70 200s91 56 142 56c52 0 96 -16 133 -47s55 -77 55 -137c0 -7 -1 -15 -2 -26h-302v-28c0 -131 60 -208 145 -208c73 0 126 41 159 123l2 -1c-11 -59 -32 -104 -65 -134z
M334 302v2c0 117 -31 176 -92 176c-65 0 -106 -67 -114 -178h206zM364 587c-11 -11 -23 -16 -38 -16c-28 0 -51 24 -51 52c0 29 23 53 51 53c29 0 53 -24 53 -53c0 -14 -5 -26 -15 -36zM126 661c30 33 92 8 89 -38c0 -28 -24 -52 -52 -52s-52 24 -52 52c0 15 5 27 15 38z
" />
    <glyph glyph-name="igrave" unicode="&#xec;" horiz-adv-x="286" 
d="M277 0h-253v2l68 40c7 4 11 11 11 22v348c0 10 -4 18 -11 23l-68 50v2h174v-423c0 -9 4 -16 12 -21l67 -41v-2zM-2 701v2h121l89 -161l-2 -2z" />
    <glyph glyph-name="iacute" unicode="&#xed;" horiz-adv-x="286" 
d="M24 2l68 40c7 4 11 11 11 22v348c0 10 -4 18 -11 23l-68 50v2h174v-423c0 -9 4 -16 12 -21l67 -41v-2h-253v2zM295 701l-208 -161l-2 2l89 161h121v-2z" />
    <glyph glyph-name="icircumflex" unicode="&#xee;" horiz-adv-x="286" 
d="M277 0h-253v2l68 40c7 4 11 11 11 22v348c0 10 -4 18 -11 23l-68 50v2h174v-423c0 -9 4 -16 12 -21l67 -41v-2zM-10 539l141 173h2l141 -173l-1 -2l-141 76l-141 -76z" />
    <glyph glyph-name="idieresis" unicode="&#xef;" horiz-adv-x="286" 
d="M277 0h-253v2l68 40c7 4 11 11 11 22v348c0 10 -4 18 -11 23l-68 50v2h174v-423c0 -9 4 -16 12 -21l67 -41v-2zM-2 623c0 29 23 53 52 53s52 -24 52 -53c0 -28 -24 -52 -52 -52s-52 24 -52 52zM177 661c10 10 22 15 36 15c29 0 53 -24 53 -53c0 -28 -25 -52 -53 -52
s-51 24 -51 52c0 15 5 27 15 38z" />
    <glyph glyph-name="eth" unicode="&#xf0;" horiz-adv-x="499" 
d="M467 278c0 -191 -74 -286 -223 -286c-59 0 -109 22 -150 66s-62 102 -62 175c0 79 19 141 57 187c38 45 85 68 142 68c53 0 92 -21 118 -63c-16 71 -43 132 -82 182l-121 -72l-7 15l117 70c-32 37 -73 67 -124 91l1 2l14 -3c59 -12 109 -34 152 -65l113 68l8 -15
l-107 -63c103 -81 154 -212 154 -357zM166 73c19 -44 44 -66 77 -66c81 0 122 84 122 251c0 55 -4 105 -13 149c-27 35 -59 52 -97 52c-52 0 -90 -55 -105 -120c-8 -33 -12 -67 -12 -104c0 -65 9 -119 28 -162z" />
    <glyph glyph-name="ntilde" unicode="&#xf1;" horiz-adv-x="564" 
d="M385 62c0 1 0 16 1 44c0 28 0 58 1 91c1 32 1 54 1 66c0 121 -27 174 -86 174c-44 0 -79 -25 -105 -74v-299c0 -9 4 -16 12 -21l67 -41v-2h-253v2l68 40c7 4 11 11 11 22v348c0 10 -4 18 -11 23l-68 50v2h174v-118c23 84 73 126 148 126c92 0 138 -67 138 -200
c0 -47 -1 -124 -2 -231c0 -10 4 -17 12 -22l68 -40v-2h-253v2l64 40c9 5 13 12 13 20zM415 634c-9 -49 -33 -73 -70 -73c-15 0 -37 8 -66 24c-30 15 -52 23 -66 23c-27 0 -47 -16 -60 -48l-2 1c0 11 1 23 3 34c9 51 33 76 70 76c15 0 37 -8 66 -23c29 -16 51 -24 65 -24
c27 0 48 16 61 48l2 -1c0 -14 -1 -26 -3 -37z" />
    <glyph glyph-name="ograve" unicode="&#xf2;" horiz-adv-x="508" 
d="M254 495c137 0 222 -92 222 -251c0 -79 -20 -141 -59 -185c-40 -45 -94 -67 -163 -67s-123 22 -162 67c-40 44 -60 106 -60 185c0 159 85 251 222 251zM254 7c75 0 113 79 113 237c0 157 -38 236 -113 236s-113 -79 -113 -236c0 -158 38 -237 113 -237zM105 701v2h121
l89 -161l-2 -2z" />
    <glyph glyph-name="oacute" unicode="&#xf3;" horiz-adv-x="508" 
d="M254 495c137 0 222 -92 222 -251c0 -79 -20 -141 -59 -185c-40 -45 -94 -67 -163 -67s-123 22 -162 67c-40 44 -60 106 -60 185c0 159 85 251 222 251zM254 7c75 0 113 79 113 237c0 157 -38 236 -113 236s-113 -79 -113 -236c0 -158 38 -237 113 -237zM192 542l89 161
h121v-2l-208 -161z" />
    <glyph glyph-name="ocircumflex" unicode="&#xf4;" horiz-adv-x="508" 
d="M417 59c-40 -45 -94 -67 -163 -67s-123 22 -162 67c-40 44 -60 106 -60 185s20 141 60 185c39 44 93 66 162 66s123 -22 163 -66c39 -44 59 -106 59 -185s-20 -141 -59 -185zM254 7c75 0 113 79 113 237c0 157 -38 236 -113 236s-113 -79 -113 -236
c0 -158 38 -237 113 -237zM111 539l141 173h2l141 -173l-1 -2l-141 76l-141 -76z" />
    <glyph glyph-name="otilde" unicode="&#xf5;" horiz-adv-x="508" 
d="M417 59c-40 -45 -94 -67 -163 -67s-123 22 -162 67c-40 44 -60 106 -60 185s20 141 60 185c39 44 93 66 162 66s123 -22 163 -66c39 -44 59 -106 59 -185s-20 -141 -59 -185zM141 244c0 -158 38 -237 113 -237s113 79 113 237c0 157 -38 236 -113 236s-113 -79 -113 -236
zM123 595c9 51 33 76 70 76c15 0 37 -8 66 -23c29 -16 51 -24 65 -24c27 0 48 16 61 48l2 -1c0 -14 -1 -26 -3 -37c-9 -49 -33 -73 -70 -73c-15 0 -37 8 -66 24c-30 15 -52 23 -66 23c-27 0 -47 -16 -60 -48l-2 1c0 11 1 23 3 34z" />
    <glyph glyph-name="odieresis" unicode="&#xf6;" horiz-adv-x="508" 
d="M417 59c-40 -45 -94 -67 -163 -67s-123 22 -162 67c-40 44 -60 106 -60 185s20 141 60 185c39 44 93 66 162 66s123 -22 163 -66c39 -44 59 -106 59 -185s-20 -141 -59 -185zM254 7c75 0 113 79 113 237c0 157 -38 236 -113 236s-113 -79 -113 -236
c0 -158 38 -237 113 -237zM283 623c0 29 23 53 51 53c29 0 53 -24 53 -53c0 -28 -24 -52 -53 -52c-28 0 -51 24 -51 52zM134 661c30 33 92 8 89 -38c0 -28 -24 -52 -52 -52s-52 24 -52 52c0 15 5 27 15 38z" />
    <glyph glyph-name="divide" unicode="&#xf7;" 
d="M228 192c33 37 105 10 102 -44c0 -32 -27 -59 -60 -59s-59 27 -59 59c0 17 6 32 17 44zM211 468c0 35 26 61 59 61s60 -26 60 -61c0 -32 -27 -59 -60 -59s-59 27 -59 59zM490 304h-440v17h440v-17z" />
    <glyph glyph-name="oslash" unicode="&#xf8;" horiz-adv-x="508" 
d="M418 56c-40 -43 -95 -64 -164 -64c-37 0 -68 5 -94 16l-40 -90l-16 8l39 89c-75 37 -112 114 -112 229c0 167 84 251 223 251c35 0 67 -5 94 -16l33 73l17 -7l-33 -74c75 -37 112 -113 112 -227c0 -83 -20 -146 -59 -188zM167 69l163 369c-19 28 -44 42 -76 42
c-75 0 -112 -68 -112 -236c0 -81 8 -139 25 -175zM254 7c73 0 112 69 112 237c0 76 -8 134 -25 173l-163 -369c17 -27 42 -41 76 -41z" />
    <glyph glyph-name="ugrave" unicode="&#xf9;" 
d="M532 0h-174v116c-27 -83 -75 -124 -145 -124c-90 0 -135 67 -135 200c0 40 1 113 2 220c0 10 -4 18 -11 23l-68 50v2h175l-2 -119c-1 -79 -1 -127 -1 -142c0 -121 26 -176 86 -176c39 0 72 25 99 74v288c0 10 -4 18 -11 23l-68 50v2h174v-412c0 -10 4 -18 11 -23l68 -50
v-2zM227 703l89 -161l-2 -2l-208 161v2h121z" />
    <glyph glyph-name="uacute" unicode="&#xfa;" 
d="M532 0h-174v116c-27 -83 -75 -124 -145 -124c-90 0 -135 67 -135 200c0 40 1 113 2 220c0 10 -4 18 -11 23l-68 50v2h175l-2 -119c-1 -79 -1 -127 -1 -142c0 -121 26 -176 86 -176c39 0 72 25 99 74v288c0 10 -4 18 -11 23l-68 50v2h174v-412c0 -10 4 -18 11 -23l68 -50
v-2zM193 542l89 161h121v-2l-208 -161z" />
    <glyph glyph-name="ucircumflex" unicode="&#xfb;" 
d="M532 0h-174v116c-27 -83 -75 -124 -145 -124c-90 0 -135 67 -135 200c0 40 1 113 2 220c0 10 -4 18 -11 23l-68 50v2h175l-2 -119c-1 -79 -1 -127 -1 -142c0 -121 26 -176 86 -176c39 0 72 25 99 74v288c0 10 -4 18 -11 23l-68 50v2h174v-412c0 -10 4 -18 11 -23l68 -50
v-2zM253 712h2l141 -173l-1 -2l-141 76l-141 -76l-1 2z" />
    <glyph glyph-name="udieresis" unicode="&#xfc;" 
d="M358 412c0 10 -4 18 -11 23l-68 50v2h174v-412c0 -10 4 -18 11 -23l68 -50v-2h-174v116c-27 -83 -75 -124 -145 -124c-90 0 -135 67 -135 200c0 40 1 113 2 220c0 10 -4 18 -11 23l-68 50v2h175l-2 -119c-1 -79 -1 -127 -1 -142c0 -121 26 -176 86 -176c39 0 72 25 99 74
v288zM135 661c30 33 92 8 89 -38c0 -28 -24 -52 -52 -52s-52 24 -52 52c0 15 5 27 15 38zM372 587c-31 -35 -90 -8 -88 36c0 29 23 53 51 53c29 0 53 -24 53 -53c0 -14 -5 -26 -16 -36z" />
    <glyph glyph-name="yacute" unicode="&#xfd;" horiz-adv-x="435" 
d="M399 416c-7 -7 -13 -19 -19 -34l-170 -446c-17 -45 -34 -80 -50 -105c-28 -45 -63 -67 -104 -67c-16 0 -30 3 -42 10l35 151h2l58 -100c9 -16 15 -15 24 -3c22 27 42 66 61 117l13 36l-173 443c-6 14 -12 25 -19 34l-25 33v2h198v-2l-48 -46c-7 -6 -8 -14 -4 -24
l120 -310l107 279c5 12 4 22 -3 30l-60 71v2h155v-2zM181 542l89 161h121v-2l-208 -161z" />
    <glyph glyph-name="thorn" unicode="&#xfe;" horiz-adv-x="523" 
d="M489 257c0 -81 -16 -145 -49 -193s-79 -72 -138 -72c-65 0 -110 31 -135 92v-239c0 -11 5 -18 14 -23l90 -48v-2h-278v2l68 40c7 4 11 11 11 22v793c0 9 -4 17 -11 22l-68 50v2h174v-333c30 83 80 125 150 125c109 0 172 -89 172 -238zM167 93c23 -40 56 -60 97 -60
c80 0 121 78 121 218c0 132 -36 186 -111 186c-44 0 -80 -24 -107 -73v-271z" />
    <glyph glyph-name="ydieresis" unicode="&#xff;" horiz-adv-x="435" 
d="M300 487h155v-2l-56 -69c-7 -7 -13 -19 -19 -34l-170 -446c-17 -45 -34 -80 -50 -105c-28 -45 -63 -67 -104 -67c-16 0 -30 3 -42 10l35 151h2l58 -100c9 -16 15 -15 24 -3c22 27 42 66 61 117l13 36l-173 443c-6 14 -12 25 -19 34l-25 33v2h198v-2l-48 -46
c-7 -6 -8 -14 -4 -24l120 -310l107 279c5 12 4 22 -3 30l-60 71v2zM108 623c0 29 23 53 52 53s52 -24 52 -53c0 -28 -24 -52 -52 -52s-52 24 -52 52zM287 587c-10 10 -15 22 -15 36c0 29 23 53 51 53c29 0 53 -24 53 -53c2 -44 -61 -71 -89 -36z" />
    <glyph glyph-name="Amacron" unicode="&#x100;" horiz-adv-x="621" 
d="M624 0h-249v2l71 54c7 5 9 14 4 25l-56 165h-237l-48 -143c-4 -19 -5 -17 15 -33l85 -68v-2h-225v2l80 68c13 12 22 24 26 36l168 498c5 21 5 22 -8 37l-55 60v2h153l210 -621c5 -15 13 -28 23 -38l43 -42v-2zM388 264l-112 335l-113 -335h225zM416 825v-18h-246v18h246z
" />
    <glyph glyph-name="amacron" unicode="&#x101;" horiz-adv-x="465" 
d="M348 456c30 -31 45 -86 45 -164v-14l-4 -163c-1 -45 11 -67 36 -67c17 0 28 10 33 29h2c0 -11 -2 -21 -6 -31c-12 -31 -40 -54 -77 -54c-47 0 -80 37 -80 106c-20 -67 -70 -106 -134 -106c-36 0 -67 12 -92 35s-38 55 -38 96c0 46 16 82 49 108c32 25 70 38 113 38
c41 0 76 -10 104 -31l2 106v3c0 80 -36 131 -107 131c-25 0 -28 -1 -33 -14l-61 -132h-2l-45 130c53 22 109 33 168 33s102 -13 127 -39zM160 211c-19 -21 -29 -46 -29 -76c0 -52 32 -87 76 -87c37 0 67 19 90 58v3l2 123c-19 7 -39 10 -58 10c-35 0 -62 -10 -81 -31z
M99 609h246v-18h-246v18z" />
    <glyph glyph-name="Abreve" unicode="&#x102;" horiz-adv-x="621" 
d="M394 246h-237l-48 -143c-4 -19 -5 -17 15 -33l85 -68v-2h-225v2l80 68c13 12 22 24 26 36l168 498c5 21 5 22 -8 37l-55 60v2h153l210 -621c5 -15 13 -28 23 -38l43 -42v-2h-249v2l71 54c7 5 9 14 4 25zM163 264h225l-112 335zM375 788c-23 -20 -51 -30 -84 -30
s-60 10 -83 30s-35 50 -35 90c0 13 1 25 4 38h2c1 -60 49 -98 112 -98c64 0 112 38 113 98h2c3 -13 4 -25 4 -38c0 -40 -12 -70 -35 -90z" />
    <glyph glyph-name="abreve" unicode="&#x103;" horiz-adv-x="465" 
d="M299 238l2 106v3c0 80 -36 131 -107 131c-25 0 -28 -1 -33 -14l-61 -132h-2l-45 130c53 22 109 33 168 33s102 -13 127 -39c30 -31 45 -86 45 -164v-14l-4 -163c-1 -45 11 -67 36 -67c17 0 28 10 33 29h2c0 -11 -2 -21 -6 -31c-12 -31 -40 -54 -77 -54
c-47 0 -80 37 -80 106c-20 -67 -70 -106 -134 -106c-36 0 -67 12 -92 35s-38 55 -38 96c0 46 16 82 49 108c32 25 70 38 113 38c41 0 76 -10 104 -31zM297 106v3l2 123c-19 7 -39 10 -58 10c-69 0 -110 -47 -110 -107c0 -52 32 -87 76 -87c37 0 67 19 90 58zM333 700h2
c3 -13 4 -25 4 -38c0 -80 -54 -120 -119 -120s-118 40 -118 120c0 13 1 25 4 38h2c1 -60 49 -98 112 -98c64 0 112 38 113 98z" />
    <glyph glyph-name="Aogonek" unicode="&#x104;" horiz-adv-x="621" 
d="M394 246h-237l-48 -143c-4 -19 -5 -17 15 -33l85 -68v-2h-225v2l80 68c13 12 22 24 26 36l168 498c5 21 5 22 -8 37l-55 60v2h153l210 -621c5 -15 13 -28 23 -38l43 -42v-2h-238c-45 -27 -67 -63 -67 -109c0 -48 33 -76 74 -76c31 0 55 12 72 35l2 -1
c-24 -57 -60 -85 -109 -85c-25 0 -48 9 -69 27c-21 19 -31 43 -31 74c0 56 45 112 118 137l70 54c7 5 9 14 4 25zM388 264l-112 335l-113 -335h225z" />
    <glyph glyph-name="aogonek" unicode="&#x105;" horiz-adv-x="465" 
d="M319 -109c0 -48 33 -76 74 -76c31 0 55 12 72 35l2 -1c-24 -57 -60 -85 -109 -85c-25 0 -48 9 -69 27c-21 19 -31 43 -31 74c0 53 47 100 123 127h-4c-47 0 -80 37 -80 106c-20 -67 -70 -106 -134 -106c-36 0 -67 12 -92 35s-38 55 -38 96c0 46 16 82 49 108
c32 25 70 38 113 38c41 0 76 -10 104 -31l2 106v3c0 80 -36 131 -107 131c-25 0 -28 -1 -33 -14l-61 -132h-2l-45 130c53 22 109 33 168 33s102 -13 127 -39c30 -31 45 -86 45 -164v-14l-4 -163c-1 -45 11 -67 36 -67c17 0 28 10 33 29h2c0 -11 -2 -21 -6 -31
c-11 -29 -31 -46 -60 -52c-50 -23 -75 -58 -75 -103zM131 135c0 -52 32 -87 76 -87c37 0 67 19 90 58v3l2 123c-19 7 -39 10 -58 10c-69 0 -110 -47 -110 -107z" />
    <glyph glyph-name="Cacute" unicode="&#x106;" horiz-adv-x="595" 
d="M540 7c-53 -11 -109 -17 -168 -17c-113 0 -198 32 -253 97c-56 65 -84 152 -84 262c0 109 29 197 86 264s137 100 238 100c58 0 118 -7 181 -22v-211h-2l-101 194c-8 15 -12 17 -32 20c-14 2 -28 3 -41 3c-139 0 -209 -115 -209 -346c0 -230 72 -345 216 -345
c9 0 20 1 35 2c14 1 24 7 30 18l102 201h2v-220zM295 758l89 161h121v-2l-208 -161z" />
    <glyph glyph-name="cacute" unicode="&#x107;" horiz-adv-x="440" 
d="M415 162c-20 -105 -79 -170 -182 -170c-56 0 -104 21 -143 63c-40 41 -60 103 -60 184c0 185 118 256 234 256c46 0 94 -9 145 -28l-47 -145h-2l-59 144c-3 7 -7 11 -12 12c-6 1 -13 2 -21 2c-92 0 -141 -76 -141 -211c0 -148 60 -220 145 -220c63 0 110 38 141 113h2z
M283 703h121v-2l-208 -161l-2 2z" />
    <glyph glyph-name="Ccircumflex" unicode="&#x108;" horiz-adv-x="595" 
d="M540 7c-53 -11 -109 -17 -168 -17c-113 0 -198 32 -253 97c-56 65 -84 152 -84 262c0 109 29 197 86 264s137 100 238 100c58 0 118 -7 181 -22v-211h-2l-101 194c-8 15 -12 17 -32 20c-14 2 -28 3 -41 3c-139 0 -209 -115 -209 -346c0 -230 72 -345 216 -345
c9 0 20 1 35 2c14 1 24 7 30 18l102 201h2v-220zM355 928h2l141 -173l-1 -2l-141 76l-141 -76l-1 2z" />
    <glyph glyph-name="ccircumflex" unicode="&#x109;" horiz-adv-x="440" 
d="M415 162c-20 -105 -79 -170 -182 -170c-56 0 -104 21 -143 63c-40 41 -60 103 -60 184c0 185 118 256 234 256c46 0 94 -9 145 -28l-47 -145h-2l-59 144c-3 7 -7 11 -12 12c-6 1 -13 2 -21 2c-92 0 -141 -76 -141 -211c0 -148 60 -220 145 -220c63 0 110 38 141 113h2z
M113 539l141 173h2l141 -173l-1 -2l-141 76l-141 -76z" />
    <glyph glyph-name="Cdotaccent" unicode="&#x10a;" horiz-adv-x="595" 
d="M540 7c-53 -11 -109 -17 -168 -17c-113 0 -198 32 -253 97c-56 65 -84 152 -84 262c0 109 29 197 86 264s137 100 238 100c58 0 118 -7 181 -22v-211h-2l-101 194c-8 15 -12 17 -32 20c-14 2 -28 3 -41 3c-139 0 -209 -115 -209 -346c0 -230 72 -345 216 -345
c9 0 20 1 35 2c14 1 24 7 30 18l102 201h2v-220zM297 830c0 35 26 61 59 61s60 -26 60 -61c0 -32 -27 -59 -60 -59s-59 27 -59 59z" />
    <glyph glyph-name="cdotaccent" unicode="&#x10b;" horiz-adv-x="440" 
d="M415 162c-20 -105 -79 -170 -182 -170c-56 0 -104 21 -143 63c-40 41 -60 103 -60 184c0 185 118 256 234 256c46 0 94 -9 145 -28l-47 -145h-2l-59 144c-3 7 -7 11 -12 12c-6 1 -13 2 -21 2c-92 0 -141 -76 -141 -211c0 -148 60 -220 145 -220c63 0 110 38 141 113h2z
M196 614c0 35 26 61 59 61s60 -26 60 -61c0 -32 -27 -59 -60 -59s-59 27 -59 59z" />
    <glyph glyph-name="Ccaron" unicode="&#x10c;" horiz-adv-x="595" 
d="M540 7c-53 -11 -109 -17 -168 -17c-113 0 -198 32 -253 97c-56 65 -84 152 -84 262c0 109 29 197 86 264s137 100 238 100c58 0 118 -7 181 -22v-211h-2l-101 194c-8 15 -12 17 -32 20c-14 2 -28 3 -41 3c-139 0 -209 -115 -209 -346c0 -230 72 -345 216 -345
c9 0 20 1 35 2c14 1 24 7 30 18l102 201h2v-220zM215 920l141 -76l141 76l1 -2l-141 -173h-2l-141 173z" />
    <glyph glyph-name="ccaron" unicode="&#x10d;" horiz-adv-x="440" 
d="M415 162c-20 -105 -79 -170 -182 -170c-56 0 -104 21 -143 63c-40 41 -60 103 -60 184c0 185 118 256 234 256c46 0 94 -9 145 -28l-47 -145h-2l-59 144c-3 7 -7 11 -12 12c-6 1 -13 2 -21 2c-92 0 -141 -76 -141 -211c0 -148 60 -220 145 -220c63 0 110 38 141 113h2z
M114 704l141 -76l141 76l1 -2l-141 -173h-2l-141 173z" />
    <glyph glyph-name="Dcaron" unicode="&#x10e;" horiz-adv-x="672" 
d="M638 361c0 -110 -28 -198 -85 -263s-138 -98 -245 -98h-290v2l86 47c9 5 13 11 13 20v565c0 9 -4 15 -13 20l-86 47v2h291c216 0 329 -126 329 -342zM221 665v-623c0 -21 3 -24 27 -24h21c80 0 142 26 185 78s65 139 65 260c0 117 -21 201 -62 252c-42 51 -98 77 -168 77
h-52c-12 0 -16 -4 -16 -20zM189 920l141 -76l141 76l1 -2l-141 -173h-2l-141 173z" />
    <glyph glyph-name="dcaron" unicode="&#x10f;" horiz-adv-x="553" 
d="M529 0h-174v103c-27 -75 -81 -111 -144 -111c-53 0 -95 23 -128 69s-50 105 -50 178c0 77 19 139 56 186s82 70 137 70c61 0 104 -31 129 -92v235c0 11 -4 18 -11 23l-68 40v2l174 20v-649c0 -9 4 -17 11 -22l68 -50v-2zM170 94c23 -35 52 -53 86 -53c35 0 68 23 99 69
v284c-28 41 -61 61 -98 61c-71 0 -122 -72 -122 -205c0 -69 12 -121 35 -156zM511 703h92l-100 -191h-1z" />
    <glyph glyph-name="Dcroat" unicode="&#x110;" horiz-adv-x="672" 
d="M553 98c-57 -65 -138 -98 -245 -98h-293v2l89 45c12 5 13 10 13 27v273h-89v17h89v266c0 17 -1 21 -13 26l-89 45v2h294c216 0 329 -126 329 -342c0 -110 -28 -198 -85 -263zM221 42c0 -21 3 -24 27 -24h21c167 0 250 113 250 338c0 117 -21 201 -62 252
c-42 51 -98 77 -168 77h-52c-12 0 -16 -4 -16 -20v-301h125v-17h-125v-305z" />
    <glyph glyph-name="dcroat" unicode="&#x111;" horiz-adv-x="536" 
d="M529 561h-79v-487c0 -9 4 -17 11 -22l68 -50v-2h-174v103c-27 -75 -81 -111 -144 -111c-53 0 -95 23 -128 69s-50 105 -50 178c0 77 19 139 56 186s82 70 137 70c61 0 104 -31 129 -92v158h-141v17h141v60c0 11 -4 18 -11 23l-68 40v2l174 20v-145h79v-17zM170 94
c23 -35 52 -53 86 -53c35 0 68 23 99 69v284c-28 41 -61 61 -98 61c-71 0 -122 -72 -122 -205c0 -69 12 -121 35 -156z" />
    <glyph glyph-name="Emacron" unicode="&#x112;" horiz-adv-x="593" 
d="M444 667c-6 12 -16 18 -29 18h-178c-13 0 -16 -4 -16 -23v-294h123c11 1 20 7 28 19l64 89h2v-234h-2l-64 90c-9 12 -18 18 -29 18h-122v-309c0 -19 3 -23 16 -23h178c17 0 29 4 34 13l89 182h2v-213h-522v2l86 47c9 5 13 11 13 20v565c0 9 -4 15 -13 20l-86 47v2h512
v-216h-2zM186 807v18h246v-18h-246z" />
    <glyph glyph-name="emacron" unicode="&#x113;" horiz-adv-x="464" 
d="M433 171c-21 -119 -89 -179 -194 -179c-59 0 -109 21 -148 63c-40 41 -60 103 -60 184c0 91 27 162 70 200s91 56 142 56c52 0 96 -16 133 -47s55 -77 55 -137c0 -7 -1 -15 -2 -26h-302v-28c0 -131 60 -208 145 -208c73 0 126 41 159 123zM128 302h206v2
c0 117 -31 176 -92 176c-65 0 -106 -67 -114 -178zM119 591v18h246v-18h-246z" />
    <glyph glyph-name="Ebreve" unicode="&#x114;" horiz-adv-x="593" 
d="M449 31l89 182h2v-213h-522v2l86 47c9 5 13 11 13 20v565c0 9 -4 15 -13 20l-86 47v2h512v-216h-2l-84 180c-6 12 -16 18 -29 18h-178c-13 0 -16 -4 -16 -23v-294h123c11 1 20 7 28 19l64 89h2v-234h-2l-64 90c-9 12 -18 18 -29 18h-122v-309c0 -19 3 -23 16 -23h178
c17 0 29 4 34 13zM391 788c-23 -20 -51 -30 -84 -30s-60 10 -83 30s-35 50 -35 90c0 13 1 25 4 38h2c1 -60 49 -98 112 -98c64 0 112 38 113 98h2c3 -13 4 -25 4 -38c0 -40 -12 -70 -35 -90z" />
    <glyph glyph-name="ebreve" unicode="&#x115;" horiz-adv-x="464" 
d="M431 311c0 -7 -1 -15 -2 -26h-302v-28c0 -131 60 -208 145 -208c73 0 126 41 159 123l2 -1c-21 -119 -89 -179 -194 -179c-59 0 -109 21 -148 63c-40 41 -60 103 -60 184c0 91 27 162 70 200s91 56 142 56c52 0 96 -16 133 -47s55 -77 55 -137zM128 302h206v2
c0 117 -31 176 -92 176c-65 0 -106 -67 -114 -178zM122 662c0 13 1 25 4 38h2c1 -60 49 -98 112 -98c64 0 112 38 113 98h2c3 -13 4 -25 4 -38c0 -80 -54 -120 -119 -120s-118 40 -118 120z" />
    <glyph glyph-name="Edotaccent" unicode="&#x116;" horiz-adv-x="593" 
d="M449 31l89 182h2v-213h-522v2l86 47c9 5 13 11 13 20v565c0 9 -4 15 -13 20l-86 47v2h512v-216h-2l-84 180c-6 12 -16 18 -29 18h-178c-13 0 -16 -4 -16 -23v-294h123c11 1 20 7 28 19l64 89h2v-234h-2l-64 90c-9 12 -18 18 -29 18h-122v-309c0 -19 3 -23 16 -23h178
c17 0 29 4 34 13zM270 874c33 37 105 10 102 -44c0 -32 -27 -59 -60 -59s-59 27 -59 59c0 17 6 32 17 44z" />
    <glyph glyph-name="edotaccent" unicode="&#x117;" horiz-adv-x="464" 
d="M433 171c-21 -119 -89 -179 -194 -179c-59 0 -109 21 -148 63c-40 41 -60 103 -60 184c0 91 27 162 70 200s91 56 142 56c52 0 96 -16 133 -47s55 -77 55 -137c0 -7 -1 -15 -2 -26h-302v-28c0 -131 60 -208 145 -208c73 0 126 41 159 123zM334 302v2
c0 117 -31 176 -92 176c-65 0 -106 -67 -114 -178h206zM203 658c33 37 105 10 102 -44c0 -32 -27 -59 -60 -59s-59 27 -59 59c0 17 6 32 17 44z" />
    <glyph glyph-name="Eogonek" unicode="&#x118;" horiz-adv-x="593" 
d="M415 685h-178c-13 0 -16 -4 -16 -23v-294h123c11 1 20 7 28 19l64 89h2v-234h-2l-64 90c-9 12 -18 18 -29 18h-122v-309c0 -19 3 -23 16 -23h178c17 0 29 4 34 13l89 182h2v-213h-111c-49 -27 -73 -63 -73 -109c0 -48 33 -76 74 -76c31 0 55 12 72 35l2 -1
c-24 -57 -60 -85 -109 -85c-25 0 -48 9 -69 27c-21 19 -31 43 -31 74c0 57 49 110 132 135h-409v2l86 47c9 5 13 11 13 20v565c0 9 -4 15 -13 20l-86 47v2h512v-216h-2l-84 180c-6 12 -16 18 -29 18z" />
    <glyph glyph-name="eogonek" unicode="&#x119;" horiz-adv-x="464" 
d="M429 285h-302v-28c0 -131 60 -208 145 -208c73 0 126 41 159 123l2 -1c-18 -99 -66 -157 -144 -174c-45 -17 -74 -59 -74 -106c0 -48 33 -76 74 -76c31 0 55 12 72 35l2 -1c-24 -57 -60 -85 -109 -85c-25 0 -48 9 -69 27c-21 19 -31 43 -31 74c0 55 43 105 118 130
c-11 -2 -22 -3 -33 -3c-59 0 -109 21 -148 63c-40 41 -60 103 -60 184c0 91 27 162 70 200s91 56 142 56c52 0 96 -16 133 -47s55 -77 55 -137c0 -7 -1 -15 -2 -26zM128 302h206v2c0 117 -31 176 -92 176c-65 0 -106 -67 -114 -178z" />
    <glyph glyph-name="Ecaron" unicode="&#x11a;" horiz-adv-x="593" 
d="M436 242l-64 90c-9 12 -18 18 -29 18h-122v-309c0 -19 3 -23 16 -23h178c17 0 29 4 34 13l89 182h2v-213h-522v2l86 47c9 5 13 11 13 20v565c0 9 -4 15 -13 20l-86 47v2h512v-216h-2l-84 180c-6 12 -16 18 -29 18h-178c-13 0 -16 -4 -16 -23v-294h123c11 1 20 7 28 19
l64 89h2v-234h-2zM454 918l-141 -173h-2l-141 173l1 2l141 -76l141 76z" />
    <glyph glyph-name="ecaron" unicode="&#x11b;" horiz-adv-x="464" 
d="M433 171c-21 -119 -89 -179 -194 -179c-59 0 -109 21 -148 63c-40 41 -60 103 -60 184c0 91 27 162 70 200s91 56 142 56c52 0 96 -16 133 -47s55 -77 55 -137c0 -7 -1 -15 -2 -26h-302v-28c0 -131 60 -208 145 -208c73 0 126 41 159 123zM128 302h206v2
c0 117 -31 176 -92 176c-65 0 -106 -67 -114 -178zM103 702l1 2l141 -76l141 76l1 -2l-141 -173h-2z" />
    <glyph glyph-name="Gcircumflex" unicode="&#x11c;" horiz-adv-x="644" 
d="M547 -10l-96 19c-39 -13 -74 -19 -103 -19c-106 0 -185 32 -236 97c-52 64 -78 151 -78 262c0 108 29 196 86 263s136 101 235 101c65 0 129 -7 192 -22v-211h-2l-100 192c-8 16 -11 18 -27 21s-32 4 -49 4c-142 0 -213 -115 -213 -346c0 -230 64 -345 193 -345
c27 0 55 5 83 15c7 3 11 8 11 16v199c0 16 0 17 -11 24l-79 48v2h284v-2l-78 -47c-11 -7 -12 -8 -12 -25v-246zM212 755l141 173h2l141 -173l-1 -2l-141 76l-141 -76z" />
    <glyph glyph-name="gcircumflex" unicode="&#x11d;" horiz-adv-x="480" 
d="M415 39c31 -25 47 -59 47 -103c0 -54 -23 -96 -69 -127c-47 -30 -103 -45 -168 -45c-55 0 -102 10 -143 31s-61 51 -61 88c0 52 42 92 119 109c-53 9 -84 45 -84 88c0 47 40 86 104 101c-69 21 -115 76 -115 152c0 51 18 90 54 119c35 29 79 43 130 43
c42 0 80 -11 113 -32c8 -5 14 -5 18 2l97 131l2 -1v-150h-92c37 -29 56 -68 56 -116c0 -49 -19 -87 -56 -115c-37 -29 -82 -43 -135 -43c-23 0 -42 2 -59 7c-38 -11 -57 -29 -57 -54c0 -28 30 -48 86 -48h81c57 0 101 -12 132 -37zM352 -190c29 19 43 47 43 84
c0 56 -41 86 -124 90l-104 4c-3 0 -9 1 -17 2c-40 -18 -60 -48 -60 -90c0 -37 16 -67 47 -88s67 -31 108 -31c42 0 78 10 107 29zM234 186c59 0 88 49 88 147s-29 147 -88 147s-88 -49 -88 -147s29 -147 88 -147zM237 712l141 -173l-1 -2l-141 76l-141 -76l-1 2l141 173h2z
" />
    <glyph glyph-name="Gbreve" unicode="&#x11e;" horiz-adv-x="644" 
d="M545 480l-100 192c-8 16 -11 18 -27 21s-32 4 -49 4c-142 0 -213 -115 -213 -346c0 -230 64 -345 193 -345c27 0 55 5 83 15c7 3 11 8 11 16v199c0 16 0 17 -11 24l-79 48v2h284v-2l-78 -47c-11 -7 -12 -8 -12 -25v-246l-96 19c-39 -13 -74 -19 -103 -19
c-106 0 -185 32 -236 97c-52 64 -78 151 -78 262c0 108 29 196 86 263s136 101 235 101c65 0 129 -7 192 -22v-211h-2zM468 878c0 -80 -54 -120 -119 -120s-118 40 -118 120c0 13 1 25 4 38h2c1 -60 49 -98 112 -98c64 0 112 38 113 98h2c3 -13 4 -25 4 -38z" />
    <glyph glyph-name="gbreve" unicode="&#x11f;" horiz-adv-x="480" 
d="M232 171c-23 0 -42 2 -59 7c-38 -11 -57 -29 -57 -54c0 -28 30 -48 86 -48h81c113 0 179 -52 179 -140c0 -54 -23 -96 -69 -127c-47 -30 -103 -45 -168 -45c-55 0 -102 10 -143 31s-61 51 -61 88c0 52 42 92 119 109c-53 9 -84 45 -84 88c0 47 40 86 104 101
c-69 21 -115 76 -115 152c0 51 18 90 54 119c35 29 79 43 130 43c42 0 80 -11 113 -32c8 -5 14 -5 18 2l97 131l2 -1v-150h-92c37 -29 56 -68 56 -116c0 -49 -19 -87 -56 -115c-37 -29 -82 -43 -135 -43zM352 -190c29 19 43 47 43 84c0 56 -41 86 -124 90l-104 4
c-3 0 -9 1 -17 2c-40 -18 -60 -48 -60 -90c0 -37 16 -67 47 -88s67 -31 108 -31c42 0 78 10 107 29zM234 480c-59 0 -88 -49 -88 -147s29 -147 88 -147s88 49 88 147s-29 147 -88 147zM231 542c-65 0 -118 40 -118 120c0 13 1 25 4 38h2c1 -60 49 -98 112 -98
c64 0 112 38 113 98h2c3 -13 4 -25 4 -38c0 -80 -54 -120 -119 -120z" />
    <glyph glyph-name="Gdotaccent" unicode="&#x120;" horiz-adv-x="644" 
d="M547 236v-246l-96 19c-39 -13 -74 -19 -103 -19c-106 0 -185 32 -236 97c-52 64 -78 151 -78 262c0 108 29 196 86 263s136 101 235 101c65 0 129 -7 192 -22v-211h-2l-100 192c-8 16 -11 18 -27 21s-32 4 -49 4c-142 0 -213 -115 -213 -346c0 -230 64 -345 193 -345
c27 0 55 5 83 15c7 3 11 8 11 16v199c0 16 0 17 -11 24l-79 48v2h284v-2l-78 -47c-11 -7 -12 -8 -12 -25zM312 874c33 37 105 10 102 -44c0 -32 -27 -59 -60 -59s-59 27 -59 59c0 17 6 32 17 44z" />
    <glyph glyph-name="gdotaccent" unicode="&#x121;" horiz-adv-x="480" 
d="M415 39c31 -25 47 -59 47 -103c0 -54 -23 -96 -69 -127c-47 -30 -103 -45 -168 -45c-55 0 -102 10 -143 31s-61 51 -61 88c0 52 42 92 119 109c-53 9 -84 45 -84 88c0 47 40 86 104 101c-69 21 -115 76 -115 152c0 51 18 90 54 119c35 29 79 43 130 43
c42 0 80 -11 113 -32c8 -5 14 -5 18 2l97 131l2 -1v-150h-92c37 -29 56 -68 56 -116c0 -49 -19 -87 -56 -115c-37 -29 -82 -43 -135 -43c-23 0 -42 2 -59 7c-38 -11 -57 -29 -57 -54c0 -28 30 -48 86 -48h81c57 0 101 -12 132 -37zM352 -190c29 19 43 47 43 84
c0 56 -41 86 -124 90l-104 4c-3 0 -9 1 -17 2c-40 -18 -60 -48 -60 -90c0 -37 16 -67 47 -88s67 -31 108 -31c42 0 78 10 107 29zM234 480c-59 0 -88 -49 -88 -147s29 -147 88 -147s88 49 88 147s-29 147 -88 147zM236 555c-33 0 -59 27 -59 59c0 35 26 61 59 61
s60 -26 60 -61c0 -32 -27 -59 -60 -59z" />
    <glyph glyph-name="Gcommaaccent" unicode="&#x122;" horiz-adv-x="644" 
d="M545 480l-100 192c-8 16 -11 18 -27 21s-32 4 -49 4c-142 0 -213 -115 -213 -346c0 -230 64 -345 193 -345c27 0 55 5 83 15c7 3 11 8 11 16v199c0 16 0 17 -11 24l-79 48v2h284v-2l-78 -47c-11 -7 -12 -8 -12 -25v-246l-96 19c-39 -13 -74 -19 -103 -19
c-106 0 -185 32 -236 97c-52 64 -78 151 -78 262c0 108 29 196 86 263s136 101 235 101c65 0 129 -7 192 -22v-211h-2zM349 -154c1 6 -2 10 -9 11c-27 4 -44 25 -44 54c0 31 24 54 53 54c33 0 56 -23 56 -62c0 -31 -10 -59 -31 -86c-21 -26 -47 -43 -78 -52l-1 2
c33 21 51 48 54 79z" />
    <glyph glyph-name="gcommaaccent" unicode="&#x123;" horiz-adv-x="480" 
d="M415 39c31 -25 47 -59 47 -103c0 -54 -23 -96 -69 -127c-47 -30 -103 -45 -168 -45c-55 0 -102 10 -143 31s-61 51 -61 88c0 52 42 92 119 109c-53 9 -84 45 -84 88c0 47 40 86 104 101c-69 21 -115 76 -115 152c0 51 18 90 54 119c35 29 79 43 130 43
c42 0 80 -11 113 -32c8 -5 14 -5 18 2l97 131l2 -1v-150h-92c37 -29 56 -68 56 -116c0 -49 -19 -87 -56 -115c-37 -29 -82 -43 -135 -43c-23 0 -42 2 -59 7c-38 -11 -57 -29 -57 -54c0 -28 30 -48 86 -48h81c57 0 101 -12 132 -37zM352 -190c29 19 43 47 43 84
c0 56 -41 86 -124 90l-104 4c-3 0 -9 1 -17 2c-40 -18 -60 -48 -60 -90c0 -37 16 -67 47 -88s67 -31 108 -31c42 0 78 10 107 29zM322 333c0 98 -29 147 -88 147s-88 -49 -88 -147s29 -147 88 -147s88 49 88 147zM255 651c27 -4 44 -25 44 -54c0 -31 -24 -54 -53 -54
c-33 0 -56 23 -56 62c0 31 11 59 32 86c21 26 46 43 77 52l1 -2c-33 -21 -51 -48 -54 -79c-1 -6 2 -10 9 -11z" />
    <glyph glyph-name="Hcircumflex" unicode="&#x124;" horiz-adv-x="742" 
d="M422 701v2h302v-2l-86 -47c-12 -7 -13 -9 -13 -20v-565c0 -12 1 -15 13 -20l86 -47v-2h-302v2l86 47c9 5 13 11 13 20v282h-300v-282c0 -12 1 -15 13 -20l86 -47v-2h-302v2l86 47c9 5 13 11 13 20v565c0 9 -4 15 -13 20l-86 47v2h302v-2l-86 -47c-12 -7 -13 -9 -13 -20
v-265h300v265c0 9 -4 16 -13 20zM511 753l-141 76l-141 -76l-1 2l141 173h2l141 -173z" />
    <glyph glyph-name="hcircumflex" unicode="&#x125;" horiz-adv-x="546" 
d="M371 197v66c0 121 -26 174 -86 174c-44 0 -79 -25 -105 -74v-299c0 -9 4 -16 12 -21l67 -41v-2h-253v2l68 40c7 4 11 11 11 22v574c0 11 -4 18 -11 23l-68 40v2l174 20v-354c23 84 73 126 148 126c92 0 138 -67 138 -200c0 -47 -1 -124 -2 -231c0 -10 4 -17 12 -22
l68 -40v-2h-253v2l64 40c9 5 13 12 13 20c0 1 0 16 1 44s1 58 2 91zM-10 755l141 173h2l141 -173l-1 -2l-141 76l-141 -76z" />
    <glyph glyph-name="Hbar" unicode="&#x126;" horiz-adv-x="742" 
d="M419 701v2h308v-2l-89 -45c-9 -4 -13 -11 -13 -20v-142h92v-17h-92v-410c0 -12 1 -15 13 -20l89 -45v-2h-308v2l89 45c12 5 13 8 13 20v235h-300v-235c0 -12 1 -15 13 -20l89 -45v-2h-308v2l89 45c12 5 13 8 13 20v410h-93v17h93v142c0 8 -4 15 -13 20l-89 45v2h308v-2
l-89 -45c-9 -4 -13 -11 -13 -20v-142h300v142c0 9 -4 16 -13 20zM521 477h-300v-157h300v157z" />
    <glyph glyph-name="hbar" unicode="&#x127;" horiz-adv-x="546" 
d="M371 197v66c0 121 -26 174 -86 174c-44 0 -79 -25 -105 -74v-299c0 -9 4 -16 12 -21l67 -41v-2h-253v2l68 40c7 4 11 11 11 22v497h-79v17h79v60c0 11 -4 18 -11 23l-68 40v2l174 20v-145h145v-17h-145v-192c23 84 73 126 148 126c92 0 138 -67 138 -200
c0 -47 -1 -124 -2 -231c0 -10 4 -17 12 -22l68 -40v-2h-253v2l64 40c9 5 13 12 13 20c0 1 0 16 1 44s1 58 2 91z" />
    <glyph glyph-name="Itilde" unicode="&#x128;" horiz-adv-x="338" 
d="M320 0h-302v2l86 47c9 5 13 11 13 20v565c0 9 -4 15 -13 20l-86 47v2h302v-2l-86 -47c-12 -7 -13 -9 -13 -20v-565c0 -12 1 -15 13 -20l86 -47v-2zM38 811c9 51 33 76 70 76c15 0 37 -8 66 -23c29 -16 51 -24 65 -24c27 0 48 16 61 48l2 -1c0 -13 -1 -26 -3 -37
c-9 -49 -33 -73 -70 -73c-15 0 -37 8 -66 24c-30 15 -52 23 -66 23c-27 0 -47 -16 -60 -48l-2 1c0 11 1 23 3 34z" />
    <glyph glyph-name="itilde" unicode="&#x129;" horiz-adv-x="286" 
d="M277 0h-253v2l68 40c7 4 11 11 11 22v348c0 10 -4 18 -11 23l-68 50v2h174v-423c0 -9 4 -16 12 -21l67 -41v-2zM-1 561c0 11 1 23 3 34c9 51 33 76 70 76c15 0 37 -8 66 -23c29 -16 51 -24 65 -24c27 0 48 16 61 48l2 -1c0 -14 -1 -26 -3 -37c-9 -49 -33 -73 -70 -73
c-15 0 -37 8 -66 24c-30 15 -52 23 -66 23c-27 0 -47 -16 -60 -48z" />
    <glyph glyph-name="Imacron" unicode="&#x12a;" horiz-adv-x="338" 
d="M320 0h-302v2l86 47c9 5 13 11 13 20v565c0 9 -4 15 -13 20l-86 47v2h302v-2l-86 -47c-12 -7 -13 -9 -13 -20v-565c0 -12 1 -15 13 -20l86 -47v-2zM42 825h246v-18h-246v18z" />
    <glyph glyph-name="imacron" unicode="&#x12b;" horiz-adv-x="286" 
d="M198 487v-423c0 -9 4 -16 12 -21l67 -41v-2h-253v2l68 40c7 4 11 11 11 22v348c0 10 -4 18 -11 23l-68 50v2h174zM252 591h-246v18h246v-18z" />
    <glyph glyph-name="Ibreve" unicode="&#x12c;" horiz-adv-x="338" 
d="M320 0h-302v2l86 47c9 5 13 11 13 20v565c0 9 -4 15 -13 20l-86 47v2h302v-2l-86 -47c-12 -7 -13 -9 -13 -20v-565c0 -12 1 -15 13 -20l86 -47v-2zM49 916h2c1 -60 49 -98 112 -98c64 0 112 38 113 98h2c3 -13 4 -25 4 -38c0 -80 -54 -120 -119 -120s-118 40 -118 120
c0 13 1 25 4 38z" />
    <glyph glyph-name="ibreve" unicode="&#x12d;" horiz-adv-x="286" 
d="M277 0h-253v2l68 40c7 4 11 11 11 22v348c0 10 -4 18 -11 23l-68 50v2h174v-423c0 -9 4 -16 12 -21l67 -41v-2zM9 662c0 13 1 25 4 38h2c1 -60 49 -98 112 -98c64 0 112 38 113 98h2c3 -13 4 -25 4 -38c0 -80 -54 -120 -119 -120s-118 40 -118 120z" />
    <glyph glyph-name="Iogonek" unicode="&#x12e;" horiz-adv-x="338" 
d="M320 0h-117c-48 -23 -72 -59 -72 -109c0 -48 33 -76 74 -76c31 0 55 12 72 35l2 -1c-24 -57 -60 -85 -109 -85c-25 0 -48 9 -69 27c-21 19 -31 43 -31 74c0 59 47 115 124 135h-176v2l86 47c9 5 13 11 13 20v565c0 9 -4 15 -13 20l-86 47v2h302v-2l-86 -47
c-12 -7 -13 -9 -13 -20v-565c0 -12 1 -15 13 -20l86 -47v-2z" />
    <glyph glyph-name="iogonek" unicode="&#x12f;" horiz-adv-x="286" 
d="M276 0h-93c-48 -23 -72 -59 -72 -109c0 -48 33 -76 74 -76c31 0 55 12 72 35l2 -1c-24 -57 -60 -85 -109 -85c-25 0 -48 9 -69 27c-21 19 -31 43 -31 74c0 59 47 115 124 135h-151v2l68 40c7 4 11 11 11 22v348c0 10 -4 18 -11 23l-68 50v2h174v-423c0 -9 4 -16 12 -21
l67 -41v-2zM100 665c33 37 105 10 102 -44c0 -16 -6 -30 -17 -41c-35 -40 -106 -9 -102 41c0 17 6 32 17 44z" />
    <glyph glyph-name="Idotaccent" unicode="&#x130;" horiz-adv-x="338" 
d="M320 0h-302v2l86 47c9 5 13 11 13 20v565c0 9 -4 15 -13 20l-86 47v2h302v-2l-86 -47c-12 -7 -13 -9 -13 -20v-565c0 -12 1 -15 13 -20l86 -47v-2zM109 830c0 35 26 61 59 61s60 -26 60 -61c0 -32 -27 -59 -60 -59s-59 27 -59 59z" />
    <glyph glyph-name="dotlessi" unicode="&#x131;" horiz-adv-x="286" 
d="M24 2l68 40c7 4 11 11 11 22v348c0 10 -4 18 -11 23l-68 50v2h174v-423c0 -9 4 -16 12 -21l67 -41v-2h-253v2z" />
    <glyph glyph-name="IJ" unicode="&#x132;" horiz-adv-x="646" 
d="M557 654c-12 -7 -13 -9 -13 -20v-607c0 -68 -20 -122 -61 -162s-94 -65 -160 -76l-1 2c83 39 118 128 118 233v610c0 9 -4 15 -13 20l-86 47v2h302v-2zM320 703v-2l-86 -47c-12 -7 -13 -9 -13 -20v-565c0 -12 1 -15 13 -20l86 -47v-2h-302v2l86 47c9 5 13 11 13 20v565
c0 9 -4 15 -13 20l-86 47v2h302z" />
    <glyph glyph-name="ij" unicode="&#x133;" horiz-adv-x="545" 
d="M379 412c0 10 -4 18 -11 23l-68 50v2h174v-467c0 -67 -16 -123 -47 -167c-32 -44 -79 -66 -142 -66c-8 0 -21 1 -38 4v2c88 8 132 63 132 202v417zM24 0v2l68 40c7 4 11 11 11 22v348c0 10 -4 18 -11 23l-68 50v2h174v-423c0 -9 4 -16 12 -21l67 -41v-2h-253zM101 665
c33 37 105 10 102 -44c0 -16 -6 -30 -17 -41c-35 -40 -106 -9 -102 41c0 17 6 32 17 44zM377 580c-11 11 -17 25 -17 41c0 35 26 61 59 61s60 -26 60 -61c3 -50 -69 -81 -102 -41z" />
    <glyph glyph-name="Jcircumflex" unicode="&#x134;" horiz-adv-x="308" 
d="M305 701l-86 -47c-12 -7 -13 -9 -13 -20v-607c0 -68 -20 -122 -61 -162s-94 -65 -160 -76l-1 2c83 39 118 128 118 233v610c0 9 -4 15 -13 20l-86 47v2h302v-2zM153 928h2l141 -173l-1 -2l-141 76l-141 -76l-1 2z" />
    <glyph glyph-name="jcircumflex" unicode="&#x135;" horiz-adv-x="259" 
d="M60 -155c22 31 33 81 33 150v417c0 10 -4 18 -11 23l-68 50v2h174v-467c0 -67 -16 -123 -47 -167c-32 -44 -79 -66 -142 -66c-14 0 -27 1 -38 4v2c44 4 77 21 99 52zM269 537l-141 76l-141 -76l-1 2l141 173h2l141 -173z" />
    <glyph glyph-name="Kcommaaccent" unicode="&#x136;" horiz-adv-x="647" 
d="M104 49c9 5 13 11 13 20v565c0 9 -4 15 -13 20l-86 47v2h302v-2l-86 -47c-12 -7 -13 -9 -13 -20v-565c0 -12 1 -15 13 -20l86 -47v-2h-302v2zM398 701v2h262v-2l-110 -60c-17 -9 -31 -19 -42 -30l-193 -199l239 -322c9 -11 19 -21 32 -32l70 -56v-2h-164l-261 353
l257 264c10 10 9 19 -4 26zM423 -97c0 -31 -10 -59 -31 -86c-21 -26 -47 -43 -78 -52l-1 2c33 21 51 48 54 79c1 6 -2 10 -9 11c-27 4 -44 25 -44 54c0 31 24 54 53 54c33 0 56 -23 56 -62z" />
    <glyph glyph-name="kcommaaccent" unicode="&#x137;" horiz-adv-x="505" 
d="M305 337c-7 -5 -8 -10 -5 -16l136 -252c5 -11 13 -20 23 -27l58 -40v-2h-156l-129 247c-7 12 -16 18 -27 18c-7 0 -15 -3 -24 -10v-191c0 -9 4 -16 12 -21l67 -41v-2h-253v2l68 40c7 4 11 11 11 22v574c0 11 -4 18 -11 23l-68 40v2l174 20v-459l194 147c5 5 5 9 0 14
l-74 60v2h200v-2zM310 -183c-21 -26 -47 -43 -78 -52l-1 2c33 21 51 48 54 79c1 6 -2 10 -9 11c-27 4 -44 25 -44 54c0 31 24 54 53 54c33 0 56 -23 56 -62c0 -31 -10 -59 -31 -86z" />
    <glyph glyph-name="kgreenlandic" unicode="&#x138;" horiz-adv-x="521" 
d="M533 0h-156l-129 247c-7 12 -16 18 -27 18c-7 0 -15 -3 -24 -10v-191c0 -9 4 -16 12 -21l67 -41v-2h-253v2l68 40c7 4 11 11 11 22v348c0 10 -4 18 -11 23l-68 50v2h174v-223l194 147c5 5 5 9 0 14l-74 60v2h200v-2l-196 -148c-7 -5 -8 -10 -5 -16l136 -252
c5 -11 13 -20 23 -27l58 -40v-2z" />
    <glyph glyph-name="Lacute" unicode="&#x139;" horiz-adv-x="555" 
d="M525 0h-507v2l86 47c9 5 13 11 13 20v565c0 9 -4 15 -13 20l-86 47v2h302v-2l-86 -47c-12 -7 -13 -9 -13 -20v-593c0 -19 3 -23 16 -23h158c18 0 29 4 34 13l94 193h2v-224zM107 758l89 161h121v-2l-208 -161z" />
    <glyph glyph-name="lacute" unicode="&#x13a;" horiz-adv-x="267" 
d="M7 2l68 40c7 4 11 11 11 22v574c0 11 -4 18 -11 23l-68 40v2l174 20v-659c0 -9 4 -16 12 -21l67 -41v-2h-253v2zM282 917l-208 -161l-2 2l89 161h121v-2z" />
    <glyph glyph-name="Lcommaaccent" unicode="&#x13b;" horiz-adv-x="555" 
d="M525 0h-507v2l86 47c9 5 13 11 13 20v565c0 9 -4 15 -13 20l-86 47v2h302v-2l-86 -47c-12 -7 -13 -9 -13 -20v-593c0 -19 3 -23 16 -23h158c18 0 29 4 34 13l94 193h2v-224zM255 -233c33 21 51 48 54 79c1 6 -2 10 -9 11c-27 4 -44 25 -44 54c0 31 24 54 53 54
c33 0 56 -23 56 -62c0 -31 -10 -59 -31 -86c-21 -26 -47 -43 -78 -52z" />
    <glyph glyph-name="lcommaaccent" unicode="&#x13c;" horiz-adv-x="267" 
d="M260 0h-253v2l68 40c7 4 11 11 11 22v574c0 11 -4 18 -11 23l-68 40v2l174 20v-659c0 -9 4 -16 12 -21l67 -41v-2zM80 -233c33 21 51 48 54 79c1 6 -2 10 -9 11c-27 4 -44 25 -44 54c0 31 24 54 53 54c33 0 56 -23 56 -62c0 -31 -10 -59 -31 -86c-21 -26 -47 -43 -78 -52
z" />
    <glyph glyph-name="Lcaron" unicode="&#x13d;" horiz-adv-x="552" 
d="M525 0h-507v2l86 47c9 5 13 11 13 20v565c0 9 -4 15 -13 20l-86 47v2h302v-2l-86 -47c-12 -7 -13 -9 -13 -20v-593c0 -19 3 -23 16 -23h158c18 0 29 4 34 13l94 193h2v-224zM381 512l9 191h92l-100 -191h-1z" />
    <glyph glyph-name="lcaron" unicode="&#x13e;" horiz-adv-x="284" 
d="M7 701v2l174 20v-659c0 -9 4 -16 12 -21l67 -41v-2h-253v2l68 40c7 4 11 11 11 22v574c0 11 -4 18 -11 23zM233 512l9 191h92l-100 -191h-1z" />
    <glyph glyph-name="Ldot" unicode="&#x13f;" horiz-adv-x="564" 
d="M525 0h-507v2l86 47c9 5 13 11 13 20v565c0 9 -4 15 -13 20l-86 47v2h302v-2l-86 -47c-12 -7 -13 -9 -13 -20v-593c0 -19 3 -23 16 -23h158c18 0 29 4 34 13l94 193h2v-224zM371 426c33 37 105 10 102 -44c0 -32 -27 -59 -60 -59s-59 27 -59 59c0 17 6 32 17 44z" />
    <glyph glyph-name="ldot" unicode="&#x140;" horiz-adv-x="353" 
d="M7 0v2l68 40c7 4 11 11 11 22v574c0 11 -4 18 -11 23l-68 40v2l174 20v-659c0 -9 4 -16 12 -21l67 -41v-2h-253zM335 311c-36 -40 -106 -9 -102 41c0 35 26 61 59 61s60 -26 60 -61c0 -16 -6 -30 -17 -41z" />
    <glyph glyph-name="Lslash" unicode="&#x141;" horiz-adv-x="559" 
d="M529 0h-507v2l86 47c9 5 13 11 13 20v234l-86 -37l-7 15l93 40v313c0 9 -4 15 -13 20l-86 47v2h302v-2l-86 -47c-12 -7 -13 -9 -13 -20v-269l127 55l7 -15l-134 -58v-306c0 -19 3 -23 16 -23h158c18 0 29 4 34 13l94 193h2v-224z" />
    <glyph glyph-name="lslash" unicode="&#x142;" horiz-adv-x="287" 
d="M314 405l-123 -53v-288c0 -9 4 -16 12 -21l67 -41v-2h-253v2l68 40c7 4 11 11 11 22v247l-106 -45l-7 15l113 48v309c0 11 -4 18 -11 23l-68 40v2l174 20v-353l116 50z" />
    <glyph glyph-name="Nacute" unicode="&#x143;" horiz-adv-x="682" 
d="M687 701l-95 -69c-11 -7 -16 -17 -16 -30v-602h-69l-367 600v-499c0 -13 5 -23 16 -30l95 -69v-2h-241v2l95 69c11 7 16 17 16 30v507c0 15 -4 26 -13 34l-84 59v2h175l358 -587v486c0 12 -5 22 -16 30l-95 69v2h241v-2zM286 758l89 161h121v-2l-208 -161z" />
    <glyph glyph-name="nacute" unicode="&#x144;" horiz-adv-x="564" 
d="M481 64c0 -10 4 -17 12 -22l68 -40v-2h-253v2l64 40c9 5 13 12 13 20c0 1 0 16 1 44c0 28 0 58 1 91c1 32 1 54 1 66c0 121 -27 174 -86 174c-44 0 -79 -25 -105 -74v-299c0 -9 4 -16 12 -21l67 -41v-2h-253v2l68 40c7 4 11 11 11 22v348c0 10 -4 18 -11 23l-68 50v2h174
v-118c23 84 73 126 148 126c92 0 138 -67 138 -200c0 -47 -1 -124 -2 -231zM223 542l89 161h121v-2l-208 -161z" />
    <glyph glyph-name="Ncommaaccent" unicode="&#x145;" horiz-adv-x="682" 
d="M557 602c0 12 -5 22 -16 30l-95 69v2h241v-2l-95 -69c-11 -7 -16 -17 -16 -30v-602h-69l-367 600v-499c0 -13 5 -23 16 -30l95 -69v-2h-241v2l95 69c11 7 16 17 16 30v507c0 15 -4 26 -13 34l-84 59v2h175l358 -587v486zM294 -233c33 21 51 48 54 79c1 6 -2 10 -9 11
c-27 4 -44 25 -44 54c0 31 24 54 53 54c33 0 56 -23 56 -62c0 -31 -10 -59 -31 -86c-21 -26 -47 -43 -78 -52z" />
    <glyph glyph-name="ncommaaccent" unicode="&#x146;" horiz-adv-x="564" 
d="M367 396c-14 27 -36 41 -65 41c-44 0 -79 -25 -105 -74v-299c0 -9 4 -16 12 -21l67 -41v-2h-253v2l68 40c7 4 11 11 11 22v348c0 10 -4 18 -11 23l-68 50v2h174v-118c23 84 73 126 148 126c92 0 138 -67 138 -200c0 -47 -1 -124 -2 -231c0 -10 4 -17 12 -22l68 -40v-2
h-253v2l64 40c9 5 13 12 13 20c0 1 0 16 1 44c0 28 0 58 1 91c1 32 1 54 1 66c0 61 -7 105 -21 133zM238 -233c33 21 51 48 54 79c1 6 -2 10 -9 11c-27 4 -44 25 -44 54c0 31 24 54 53 54c33 0 56 -23 56 -62c0 -31 -10 -59 -31 -86c-21 -26 -47 -43 -78 -52z" />
    <glyph glyph-name="Ncaron" unicode="&#x147;" horiz-adv-x="682" 
d="M687 701l-95 -69c-11 -7 -16 -17 -16 -30v-602h-69l-367 600v-499c0 -13 5 -23 16 -30l95 -69v-2h-241v2l95 69c11 7 16 17 16 30v507c0 15 -4 26 -13 34l-84 59v2h175l358 -587v486c0 12 -5 22 -16 30l-95 69v2h241v-2zM205 918l1 2l141 -76l141 76l1 -2l-141 -173h-2z
" />
    <glyph glyph-name="ncaron" unicode="&#x148;" horiz-adv-x="564" 
d="M388 263c0 121 -27 174 -86 174c-44 0 -79 -25 -105 -74v-299c0 -9 4 -16 12 -21l67 -41v-2h-253v2l68 40c7 4 11 11 11 22v348c0 10 -4 18 -11 23l-68 50v2h174v-118c23 84 73 126 148 126c92 0 138 -67 138 -200c0 -47 -1 -124 -2 -231c0 -10 4 -17 12 -22l68 -40v-2
h-253v2l64 40c9 5 13 12 13 20c0 1 0 16 1 44c0 28 0 58 1 91c1 32 1 54 1 66zM143 704l141 -76l141 76l1 -2l-141 -173h-2l-141 173z" />
    <glyph glyph-name="napostrophe" unicode="&#x149;" horiz-adv-x="595" 
d="M399 396c-14 27 -36 41 -66 41c-44 0 -79 -25 -105 -74v-299c0 -9 4 -16 12 -21l67 -41v-2h-253v2l68 40c7 4 11 11 11 22v348c0 10 -4 18 -11 23l-68 50v2h174v-118c23 84 73 126 148 126c92 0 138 -67 138 -200c0 -47 -1 -124 -2 -231c0 -10 4 -17 12 -22l68 -40v-2
h-253v2l64 40c9 5 13 12 13 20c0 1 0 16 1 44s1 58 2 91v66c0 61 -7 105 -20 133zM24 567c1 6 -2 10 -9 11c-27 4 -44 25 -44 54c0 31 24 54 53 54c33 0 56 -23 56 -62c0 -31 -10 -59 -31 -85c-21 -27 -47 -44 -78 -53l-1 2c33 21 51 48 54 79z" />
    <glyph glyph-name="Eng" unicode="&#x14a;" horiz-adv-x="632" 
d="M577 44c0 -78 -19 -140 -58 -185s-94 -68 -163 -68v2c85 18 127 82 127 192v505c0 109 -44 164 -132 164c-24 0 -49 -7 -74 -21c-26 -15 -45 -33 -56 -55v-509c0 -12 1 -15 13 -20l86 -47v-2h-302v2l86 47c9 5 13 11 13 20v565c0 9 -4 15 -13 20l-86 47v2h203v-120
c24 84 94 129 173 129c53 0 96 -17 131 -51s52 -84 52 -149v-468z" />
    <glyph glyph-name="eng" unicode="&#x14b;" horiz-adv-x="543" 
d="M483 44c0 -77 -20 -139 -61 -185c-41 -45 -96 -68 -166 -68v2c85 17 133 85 133 192l-1 278c0 121 -27 174 -86 174c-44 0 -79 -25 -105 -74v-299c0 -9 4 -16 12 -21l67 -41v-2h-253v2l68 40c7 4 11 11 11 22v348c0 10 -4 18 -11 23l-68 50v2h174v-118
c23 84 73 126 148 126c92 0 138 -67 138 -200v-251z" />
    <glyph glyph-name="Omacron" unicode="&#x14c;" horiz-adv-x="689" 
d="M573 87c-54 -65 -130 -97 -228 -97s-174 32 -228 97c-54 64 -81 152 -81 265s27 201 81 265s130 96 228 96s174 -32 228 -96c53 -64 80 -152 80 -265s-27 -201 -80 -265zM208 90c34 -55 80 -83 137 -84c115 0 189 106 189 346c0 120 -17 207 -51 262
c-35 55 -81 82 -138 83c-57 0 -103 -27 -137 -82c-35 -55 -52 -143 -52 -263s17 -207 52 -262zM464 825v-18h-246v18h246z" />
    <glyph glyph-name="omacron" unicode="&#x14d;" horiz-adv-x="508" 
d="M254 495c137 0 222 -92 222 -251c0 -79 -20 -141 -59 -185c-40 -45 -94 -67 -163 -67s-123 22 -162 67c-40 44 -60 106 -60 185c0 159 85 251 222 251zM141 244c0 -158 38 -237 113 -237s113 79 113 237c0 157 -38 236 -113 236s-113 -79 -113 -236zM127 609h246v-18
h-246v18z" />
    <glyph glyph-name="Obreve" unicode="&#x14e;" horiz-adv-x="689" 
d="M653 352c0 -113 -27 -201 -80 -265c-54 -65 -130 -97 -228 -97s-174 32 -228 97c-54 64 -81 152 -81 265s27 201 81 265s130 96 228 96s174 -32 228 -96c53 -64 80 -152 80 -265zM208 90c34 -55 80 -83 137 -84c115 0 189 106 189 346c0 120 -17 207 -51 262
c-35 55 -81 82 -138 83c-57 0 -103 -27 -137 -82c-35 -55 -52 -143 -52 -263s17 -207 52 -262zM225 916h2c1 -60 49 -98 112 -98c64 0 112 38 113 98h2c3 -13 4 -25 4 -38c0 -80 -54 -120 -119 -120s-118 40 -118 120c0 13 1 25 4 38z" />
    <glyph glyph-name="obreve" unicode="&#x14f;" horiz-adv-x="508" 
d="M476 244c0 -79 -20 -141 -59 -185c-40 -45 -94 -67 -163 -67s-123 22 -162 67c-40 44 -60 106 -60 185s20 141 60 185c39 44 93 66 162 66s123 -22 163 -66c39 -44 59 -106 59 -185zM254 7c75 0 113 79 113 237c0 157 -38 236 -113 236s-113 -79 -113 -236
c0 -158 38 -237 113 -237zM134 700h2c1 -60 49 -98 112 -98c64 0 112 38 113 98h2c3 -13 4 -25 4 -38c0 -80 -54 -120 -119 -120s-118 40 -118 120c0 13 1 25 4 38z" />
    <glyph glyph-name="Ohungarumlaut" unicode="&#x150;" horiz-adv-x="689" 
d="M573 87c-54 -65 -130 -97 -228 -97s-174 32 -228 97c-54 64 -81 152 -81 265s27 201 81 265s130 96 228 96s174 -32 228 -96c53 -64 80 -152 80 -265s-27 -201 -80 -265zM208 90c34 -55 80 -83 137 -84c115 0 189 106 189 346c0 120 -17 207 -51 262
c-35 55 -81 82 -138 83c-57 0 -103 -27 -137 -82c-35 -55 -52 -143 -52 -263s17 -207 52 -262zM443 919h102v-2l-165 -169h-2zM306 919h102v-2l-165 -169h-2z" />
    <glyph glyph-name="ohungarumlaut" unicode="&#x151;" horiz-adv-x="508" 
d="M92 429c39 44 93 66 162 66s123 -22 163 -66c39 -44 59 -106 59 -185s-20 -141 -59 -185c-40 -45 -94 -67 -163 -67s-123 22 -162 67c-40 44 -60 106 -60 185s20 141 60 185zM141 244c0 -158 38 -237 113 -237s113 79 113 237c0 157 -38 236 -113 236s-113 -79 -113 -236
zM215 703h102v-2l-165 -169h-2zM454 701l-165 -169h-2l65 171h102v-2z" />
    <glyph glyph-name="OE" unicode="&#x152;" horiz-adv-x="961" 
d="M817 31l89 172h2v-203h-404c-47 -7 -90 -10 -131 -10c-113 0 -198 33 -253 98c-56 65 -84 153 -84 264c0 107 29 194 87 261c57 67 136 100 237 100c56 0 102 -3 138 -10h393v-206h-2l-86 170c-6 12 -16 18 -29 18h-169c-13 0 -16 -4 -16 -23v-297h133c11 1 21 7 28 19
l54 89h2v-233h-2l-54 90c-7 12 -17 18 -29 18h-132v-306c0 -23 2 -24 31 -24h163c17 0 29 4 34 13zM156 354c0 -233 72 -349 216 -349c29 0 63 12 100 36c9 6 13 13 13 20v576c0 11 -4 19 -13 25c-33 23 -70 35 -112 35c-93 0 -157 -69 -184 -168c-13 -50 -20 -108 -20 -175
z" />
    <glyph glyph-name="oe" unicode="&#x153;" horiz-adv-x="813" 
d="M782 171c-21 -119 -89 -179 -194 -179c-70 0 -124 26 -162 79c-39 -53 -96 -79 -172 -79c-137 0 -222 93 -222 252s85 251 222 251c77 0 135 -27 175 -82c39 55 94 82 163 82c52 0 96 -16 133 -47s55 -77 55 -137c0 -7 -1 -15 -2 -26h-302v-38c0 -124 61 -198 145 -198
c73 0 126 41 159 122h2zM254 7c75 0 113 79 113 237c0 157 -38 236 -113 236s-113 -79 -113 -236c0 -158 38 -237 113 -237zM477 302h206v4c-1 116 -32 174 -92 174c-65 0 -107 -67 -114 -178z" />
    <glyph glyph-name="Racute" unicode="&#x154;" horiz-adv-x="637" 
d="M390 327l178 -249c10 -14 21 -26 33 -35l51 -41v-2h-156l-210 301c-8 11 -18 17 -30 17h-35v-251c0 -12 1 -15 13 -20l89 -45v-2h-305v2l86 47c9 5 13 11 13 20v565c0 9 -4 15 -13 20l-86 47v2h303c68 0 124 -16 167 -49s65 -80 65 -142c0 -87 -64 -158 -163 -183v-2z
M397 646c-27 26 -65 39 -116 39h-41c-15 0 -19 -5 -19 -21v-328h49c111 0 167 57 167 171c0 66 -13 112 -40 139zM444 917l-208 -161l-2 2l89 161h121v-2z" />
    <glyph glyph-name="racute" unicode="&#x155;" horiz-adv-x="398" 
d="M197 487v-153c8 41 26 78 53 111s62 50 104 50c20 0 36 -4 49 -12l-50 -148h-2l-50 111c-2 4 -6 4 -12 1c-29 -17 -57 -54 -68 -75l-24 -48v-257c0 -11 4 -18 13 -21l106 -44v-2h-293v2l68 40c7 4 11 11 11 22v348c0 10 -4 18 -11 23l-68 50v2h174zM361 701l-208 -161
l-2 2l89 161h121v-2z" />
    <glyph glyph-name="Rcommaaccent" unicode="&#x156;" horiz-adv-x="637" 
d="M390 327l178 -249c10 -14 21 -26 33 -35l51 -41v-2h-156l-210 301c-8 11 -18 17 -30 17h-35v-251c0 -12 1 -15 13 -20l89 -45v-2h-305v2l86 47c9 5 13 11 13 20v565c0 9 -4 15 -13 20l-86 47v2h303c68 0 124 -16 167 -49s65 -80 65 -142c0 -87 -64 -158 -163 -183v-2z
M397 646c-27 26 -65 39 -116 39h-41c-15 0 -19 -5 -19 -21v-328h49c111 0 167 57 167 171c0 66 -13 112 -40 139zM357 -143c-27 4 -44 25 -44 54c0 31 24 54 53 54c33 0 56 -23 56 -62c0 -31 -10 -59 -31 -86c-21 -26 -47 -43 -78 -52l-1 2c33 21 51 48 54 79
c1 6 -2 10 -9 11z" />
    <glyph glyph-name="rcommaaccent" unicode="&#x157;" horiz-adv-x="398" 
d="M316 0h-293v2l68 40c7 4 11 11 11 22v348c0 10 -4 18 -11 23l-68 50v2h174v-153c8 41 26 78 53 111s62 50 104 50c20 0 36 -4 49 -12l-50 -148h-2l-50 111c-2 4 -6 4 -12 1c-29 -17 -57 -54 -68 -75l-24 -48v-257c0 -11 4 -18 13 -21l106 -44v-2zM149 -154
c1 6 -2 10 -9 11c-27 4 -44 25 -44 54c0 31 24 54 53 54c33 0 56 -23 56 -62c0 -31 -10 -59 -31 -86c-21 -26 -47 -43 -78 -52l-1 2c33 21 51 48 54 79z" />
    <glyph glyph-name="Rcaron" unicode="&#x158;" horiz-adv-x="637" 
d="M390 327l178 -249c10 -14 21 -26 33 -35l51 -41v-2h-156l-210 301c-8 11 -18 17 -30 17h-35v-251c0 -12 1 -15 13 -20l89 -45v-2h-305v2l86 47c9 5 13 11 13 20v565c0 9 -4 15 -13 20l-86 47v2h303c68 0 124 -16 167 -49s65 -80 65 -142c0 -87 -64 -158 -163 -183v-2z
M397 646c-27 26 -65 39 -116 39h-41c-15 0 -19 -5 -19 -21v-328h49c111 0 167 57 167 171c0 66 -13 112 -40 139zM437 918l-141 -173h-2l-141 173l1 2l141 -76l141 76z" />
    <glyph glyph-name="rcaron" unicode="&#x159;" horiz-adv-x="398" 
d="M403 483l-50 -148h-2l-50 111c-2 4 -6 4 -12 1c-29 -17 -57 -54 -68 -75l-24 -48v-257c0 -11 4 -18 13 -21l106 -44v-2h-293v2l68 40c7 4 11 11 11 22v348c0 10 -4 18 -11 23l-68 50v2h174v-153c8 41 26 78 53 111s62 50 104 50c20 0 36 -4 49 -12zM70 702l1 2l141 -76
l141 76l1 -2l-141 -173h-2z" />
    <glyph glyph-name="Sacute" unicode="&#x15a;" horiz-adv-x="515" 
d="M432 485l-94 192c-5 10 -11 15 -19 16c-13 3 -28 4 -44 4c-89 0 -148 -54 -148 -138c0 -56 33 -100 99 -131l104 -50c100 -47 153 -97 153 -182c0 -59 -22 -108 -65 -147s-101 -59 -173 -59c-67 0 -129 9 -185 27v209h2l91 -196c5 -11 13 -18 22 -19c21 -3 41 -5 58 -5
c95 0 163 44 163 136c0 67 -39 104 -127 145l-86 41c-79 37 -137 103 -137 194c0 55 20 101 61 137s92 54 155 54c51 0 109 -8 172 -24v-204h-2zM198 758l89 161h121v-2l-208 -161z" />
    <glyph glyph-name="sacute" unicode="&#x15b;" horiz-adv-x="416" 
d="M293 135c-9 19 -35 36 -50 44c-8 4 -20 10 -37 17l-62 28c-63 29 -94 72 -94 131c0 43 17 77 50 102s72 38 116 38c55 0 106 -8 151 -25l-38 -127h-2l-64 122c-7 11 -7 13 -22 14c-6 1 -15 1 -26 1c-49 0 -89 -33 -89 -88c0 -44 26 -66 77 -87l67 -29
c72 -31 114 -65 114 -133c0 -48 -18 -85 -55 -111c-37 -27 -82 -40 -134 -40c-51 0 -104 10 -157 30l42 139h2l56 -138c3 -7 9 -11 19 -13c12 -2 25 -3 40 -3c65 0 102 42 102 93c0 13 -2 25 -6 35zM151 542l89 161h121v-2l-208 -161z" />
    <glyph glyph-name="Scircumflex" unicode="&#x15c;" horiz-adv-x="515" 
d="M107 659c41 36 92 54 155 54c51 0 109 -8 172 -24v-204h-2l-94 192c-5 10 -11 15 -19 16c-13 3 -28 4 -44 4c-89 0 -148 -54 -148 -138c0 -56 33 -100 99 -131l104 -50c100 -47 153 -97 153 -182c0 -59 -22 -108 -65 -147s-101 -59 -173 -59c-67 0 -129 9 -185 27v209h2
l91 -196c5 -11 13 -18 22 -19c21 -3 41 -5 58 -5c95 0 163 44 163 136c0 67 -39 104 -127 145l-86 41c-79 37 -137 103 -137 194c0 55 20 101 61 137zM400 753l-141 76l-141 -76l-1 2l141 173h2l141 -173z" />
    <glyph glyph-name="scircumflex" unicode="&#x15d;" horiz-adv-x="416" 
d="M299 100c0 27 -8 45 -29 61s-31 20 -64 35l-62 28c-63 29 -94 72 -94 131c0 43 17 77 50 102s72 38 116 38c55 0 106 -8 151 -25l-38 -127h-2l-64 122c-7 11 -7 13 -22 14c-6 1 -15 1 -26 1c-49 0 -89 -33 -89 -88c0 -44 26 -66 77 -87l67 -29c72 -31 114 -65 114 -133
c0 -48 -18 -85 -55 -111c-37 -27 -82 -40 -134 -40c-51 0 -104 10 -157 30l42 139h2l56 -138c3 -7 9 -11 19 -13c12 -2 25 -3 40 -3c65 0 102 42 102 93zM353 537l-141 76l-141 -76l-1 2l141 173h2l141 -173z" />
    <glyph glyph-name="Scedilla" unicode="&#x15e;" horiz-adv-x="515" 
d="M269 287l-86 41c-79 37 -137 103 -137 194c0 55 20 101 61 137s92 54 155 54c51 0 109 -8 172 -24v-204h-2l-94 192c-5 10 -11 15 -19 16c-13 3 -28 4 -44 4c-89 0 -148 -54 -148 -138c0 -56 33 -100 99 -131l104 -50c100 -47 153 -97 153 -182c0 -58 -21 -106 -62 -145
c-42 -39 -98 -59 -168 -61l-9 -53c31 7 59 2 83 -15c23 -16 35 -38 35 -65c0 -53 -41 -93 -109 -93c-61 0 -102 38 -109 85l2 1c11 -33 44 -56 77 -56c37 0 66 23 66 58c0 36 -26 61 -63 62c-13 0 -26 -2 -40 -7l-1 2l65 81h-5c-67 0 -129 9 -185 27v209h2l91 -196
c5 -11 13 -18 22 -19c21 -3 41 -5 58 -5c95 0 163 44 163 136c0 67 -39 104 -127 145z" />
    <glyph glyph-name="scedilla" unicode="&#x15f;" horiz-adv-x="416" 
d="M228 -148c0 37 -26 62 -66 61c-12 0 -24 -2 -37 -6l-1 2l61 83c-52 2 -101 12 -147 30l42 139h2l56 -138c3 -7 9 -11 19 -13c12 -2 25 -3 40 -3c65 0 102 42 102 93c0 27 -8 45 -29 61s-31 20 -64 35l-62 28c-63 29 -94 72 -94 131c0 43 17 77 50 102s72 38 116 38
c55 0 106 -8 151 -25l-38 -127h-2l-64 122c-7 11 -7 13 -22 14c-6 1 -15 1 -26 1c-49 0 -89 -33 -89 -88c0 -44 26 -66 77 -87l67 -29c72 -31 114 -65 114 -133c0 -48 -18 -85 -55 -111c-37 -27 -82 -40 -134 -40h-4l-8 -55c31 7 59 2 83 -15c23 -16 35 -38 35 -65
c0 -53 -41 -93 -109 -93c-61 0 -102 38 -109 85l2 1c11 -33 44 -56 77 -56c37 0 66 23 66 58z" />
    <glyph glyph-name="Scaron" unicode="&#x160;" horiz-adv-x="515" 
d="M107 659c41 36 92 54 155 54c51 0 109 -8 172 -24v-204h-2l-94 192c-5 10 -11 15 -19 16c-13 3 -28 4 -44 4c-89 0 -148 -54 -148 -138c0 -56 33 -100 99 -131l104 -50c100 -47 153 -97 153 -182c0 -59 -22 -108 -65 -147s-101 -59 -173 -59c-67 0 -129 9 -185 27v209h2
l91 -196c5 -11 13 -18 22 -19c21 -3 41 -5 58 -5c95 0 163 44 163 136c0 67 -39 104 -127 145l-86 41c-79 37 -137 103 -137 194c0 55 20 101 61 137zM401 918l-141 -173h-2l-141 173l1 2l141 -76l141 76z" />
    <glyph glyph-name="scaron" unicode="&#x161;" horiz-adv-x="416" 
d="M299 100c0 27 -8 45 -29 61s-31 20 -64 35l-62 28c-63 29 -94 72 -94 131c0 43 17 77 50 102s72 38 116 38c55 0 106 -8 151 -25l-38 -127h-2l-64 122c-7 11 -7 13 -22 14c-6 1 -15 1 -26 1c-49 0 -89 -33 -89 -88c0 -44 26 -66 77 -87l67 -29c72 -31 114 -65 114 -133
c0 -48 -18 -85 -55 -111c-37 -27 -82 -40 -134 -40c-51 0 -104 10 -157 30l42 139h2l56 -138c3 -7 9 -11 19 -13c12 -2 25 -3 40 -3c65 0 102 42 102 93zM354 702l-141 -173h-2l-141 173l1 2l141 -76l141 76z" />
    <glyph glyph-name="Tcommaaccent" unicode="&#x162;" horiz-adv-x="602" 
d="M493 666c-7 16 -10 19 -26 19h-114v-616c0 -12 1 -15 13 -20l91 -47v-2h-312v2l91 47c9 5 13 11 13 20v616h-114c-16 0 -18 -2 -26 -19l-87 -191h-2v228h562v-228h-2zM247 -243c33 21 51 48 54 79c1 6 -2 10 -9 11c-27 4 -44 25 -44 54c0 31 24 54 53 54
c33 0 56 -23 56 -62c0 -31 -10 -59 -31 -86c-21 -26 -47 -43 -78 -52z" />
    <glyph glyph-name="tcommaaccent" unicode="&#x163;" horiz-adv-x="309" 
d="M312 469h-142v-354c0 -44 21 -71 57 -71c35 0 65 26 77 59h2c-9 -64 -52 -111 -124 -111c-71 0 -107 38 -107 113v364h-70v18h55c11 0 19 5 24 14l84 148h2v-162h142v-18zM182 -154c1 6 -2 10 -9 11c-27 4 -44 25 -44 54c0 31 24 54 53 54c33 0 56 -23 56 -62
c0 -31 -10 -59 -31 -86c-21 -26 -47 -43 -78 -52l-1 2c33 21 51 48 54 79z" />
    <glyph glyph-name="Tcaron" unicode="&#x164;" horiz-adv-x="602" 
d="M582 475h-2l-87 191c-7 16 -10 19 -26 19h-114v-616c0 -12 1 -15 13 -20l91 -47v-2h-312v2l91 47c9 5 13 11 13 20v616h-114c-16 0 -18 -2 -26 -19l-87 -191h-2v228h562v-228zM159 920l141 -76l141 76l1 -2l-141 -173h-2l-141 173z" />
    <glyph glyph-name="tcaron" unicode="&#x165;" horiz-adv-x="309" 
d="M312 469h-142v-354c0 -44 21 -71 57 -71c35 0 65 26 77 59h2c-9 -64 -52 -111 -124 -111c-71 0 -107 38 -107 113v364h-70v18h55c11 0 19 5 24 14l84 148h2v-162h142v-18zM213 512l9 191h92l-100 -191h-1z" />
    <glyph glyph-name="Tbar" unicode="&#x166;" horiz-adv-x="608" 
d="M585 475h-2l-87 191c-7 16 -10 19 -26 19h-114v-333h145v-17h-145v-266c0 -12 1 -15 13 -20l91 -47v-2h-312v2l91 47c9 5 13 11 13 20v266h-145v17h145v333h-114c-16 0 -18 -2 -26 -19l-87 -191h-2v228h562v-228z" />
    <glyph glyph-name="tbar" unicode="&#x167;" horiz-adv-x="319" 
d="M317 469h-142v-118h142v-17h-142v-219c0 -44 21 -71 57 -71c35 0 65 26 77 59h2c-9 -64 -52 -111 -124 -111c-71 0 -107 38 -107 113v229h-70v17h70v118h-70v18h55c11 0 19 5 24 14l84 148h2v-162h142v-18z" />
    <glyph glyph-name="Utilde" unicode="&#x168;" horiz-adv-x="652" 
d="M502 59c-35 -46 -90 -69 -166 -69c-159 0 -239 71 -239 214v427c0 11 -1 13 -13 20l-79 50v2h293v-2l-84 -50c-12 -5 -13 -8 -13 -20v-405c0 -135 59 -208 168 -208c107 0 166 84 166 229v355c0 13 -5 23 -16 30l-95 69v2h242v-2l-96 -69c-11 -7 -16 -17 -16 -30v-354
c0 -80 -17 -143 -52 -189zM231 811c9 51 33 76 70 76c15 0 37 -8 66 -23c29 -16 51 -24 65 -24c27 0 48 16 61 48l2 -1c0 -13 -1 -26 -3 -37c-9 -49 -33 -73 -70 -73c-15 0 -37 8 -66 24c-30 15 -52 23 -66 23c-27 0 -47 -16 -60 -48l-2 1c0 11 1 23 3 34z" />
    <glyph glyph-name="utilde" unicode="&#x169;" 
d="M464 52l68 -50v-2h-174v116c-27 -83 -75 -124 -145 -124c-90 0 -135 67 -135 200c0 40 1 113 2 220c0 10 -4 18 -11 23l-68 50v2h175l-2 -119c-1 -79 -1 -127 -1 -142c0 -121 26 -176 86 -176c39 0 72 25 99 74v288c0 10 -4 18 -11 23l-68 50v2h174v-412
c0 -10 4 -18 11 -23zM124 595c9 51 33 76 70 76c15 0 37 -8 66 -23c29 -16 51 -24 65 -24c27 0 48 16 61 48l2 -1c0 -14 -1 -26 -3 -37c-9 -49 -33 -73 -70 -73c-15 0 -37 8 -66 24c-30 15 -52 23 -66 23c-27 0 -47 -16 -60 -48l-2 1c0 11 1 23 3 34z" />
    <glyph glyph-name="Umacron" unicode="&#x16a;" horiz-adv-x="652" 
d="M666 701l-96 -69c-11 -7 -16 -17 -16 -30v-354c0 -160 -66 -258 -218 -258c-159 0 -239 71 -239 214v427c0 11 -1 13 -13 20l-79 50v2h293v-2l-84 -50c-12 -5 -13 -8 -13 -20v-405c0 -135 59 -208 168 -208c107 0 166 84 166 229v355c0 13 -5 23 -16 30l-95 69v2h242v-2z
M235 825h246v-18h-246v18z" />
    <glyph glyph-name="umacron" unicode="&#x16b;" 
d="M532 0h-174v116c-27 -83 -75 -124 -145 -124c-90 0 -135 67 -135 200c0 40 1 113 2 220c0 10 -4 18 -11 23l-68 50v2h175l-2 -119c-1 -79 -1 -127 -1 -142c0 -121 26 -176 86 -176c39 0 72 25 99 74v288c0 10 -4 18 -11 23l-68 50v2h174v-412c0 -10 4 -18 11 -23l68 -50
v-2zM128 609h246v-18h-246v18z" />
    <glyph glyph-name="Ubreve" unicode="&#x16c;" horiz-adv-x="652" 
d="M502 59c-35 -46 -90 -69 -166 -69c-159 0 -239 71 -239 214v427c0 11 -1 13 -13 20l-79 50v2h293v-2l-84 -50c-12 -5 -13 -8 -13 -20v-405c0 -135 59 -208 168 -208c107 0 166 84 166 229v355c0 13 -5 23 -16 30l-95 69v2h242v-2l-96 -69c-11 -7 -16 -17 -16 -30v-354
c0 -80 -17 -143 -52 -189zM242 916h2c1 -60 49 -98 112 -98c64 0 112 38 113 98h2c3 -13 4 -25 4 -38c0 -80 -54 -120 -119 -120s-118 40 -118 120c0 13 1 25 4 38z" />
    <glyph glyph-name="ubreve" unicode="&#x16d;" 
d="M453 75c0 -10 4 -18 11 -23l68 -50v-2h-174v116c-27 -83 -75 -124 -145 -124c-90 0 -135 67 -135 200c0 40 1 113 2 220c0 10 -4 18 -11 23l-68 50v2h175l-2 -119c-1 -79 -1 -127 -1 -142c0 -121 26 -176 86 -176c39 0 72 25 99 74v288c0 10 -4 18 -11 23l-68 50v2h174
v-412zM131 662c0 13 1 25 4 38h2c1 -60 49 -98 112 -98c64 0 112 38 113 98h2c3 -13 4 -25 4 -38c0 -80 -54 -120 -119 -120s-118 40 -118 120z" />
    <glyph glyph-name="Uring" unicode="&#x16e;" horiz-adv-x="652" 
d="M666 703v-2l-96 -69c-11 -7 -16 -17 -16 -30v-354c0 -160 -66 -258 -218 -258c-159 0 -239 71 -239 214v427c0 11 -1 13 -13 20l-79 50v2h293v-2l-84 -50c-12 -5 -13 -8 -13 -20v-405c0 -135 59 -208 168 -208c107 0 166 84 166 229v355c0 13 -5 23 -16 30l-95 69v2h242z
M281 838c-5 70 92 108 139 58c50 -47 12 -144 -58 -139c-45 0 -81 36 -81 81zM318 794c24 -25 64 -25 88 0c39 35 10 110 -44 107c-54 3 -83 -72 -44 -107z" />
    <glyph glyph-name="uring" unicode="&#x16f;" 
d="M358 0v116c-27 -83 -75 -124 -145 -124c-90 0 -135 67 -135 200c0 40 1 113 2 220c0 10 -4 18 -11 23l-68 50v2h175l-2 -119c-1 -79 -1 -127 -1 -142c0 -121 26 -176 86 -176c39 0 72 25 99 74v288c0 10 -4 18 -11 23l-68 50v2h174v-412c0 -10 4 -18 11 -23l68 -50v-2
h-174zM198 680c31 31 83 31 115 0c50 -47 12 -144 -58 -139c-70 -5 -109 92 -57 139zM211 578c24 -25 64 -25 88 0c39 35 10 110 -44 107c-54 3 -83 -72 -44 -107z" />
    <glyph glyph-name="Uhungarumlaut" unicode="&#x170;" horiz-adv-x="652" 
d="M535 602c0 13 -5 23 -16 30l-95 69v2h242v-2l-96 -69c-11 -7 -16 -17 -16 -30v-354c0 -160 -66 -258 -218 -258c-159 0 -239 71 -239 214v427c0 11 -1 13 -13 20l-79 50v2h293v-2l-84 -50c-12 -5 -13 -8 -13 -20v-405c0 -135 59 -208 168 -208c107 0 166 84 166 229v355z
M395 748l65 171h102v-2l-165 -169h-2zM323 919h102v-2l-165 -169h-2z" />
    <glyph glyph-name="uhungarumlaut" unicode="&#x171;" 
d="M532 2v-2h-174v116c-27 -83 -75 -124 -145 -124c-90 0 -135 67 -135 200c0 40 1 113 2 220c0 10 -4 18 -11 23l-68 50v2h175l-2 -119c-1 -79 -1 -127 -1 -142c0 -121 26 -176 86 -176c39 0 72 25 99 74v288c0 10 -4 18 -11 23l-68 50v2h174v-412c0 -10 4 -18 11 -23z
M288 532l65 171h102v-2l-165 -169h-2zM216 703h102v-2l-165 -169h-2z" />
    <glyph glyph-name="Uogonek" unicode="&#x172;" horiz-adv-x="652" 
d="M519 632l-95 69v2h242v-2l-96 -69c-11 -7 -16 -17 -16 -30v-354c0 -160 -66 -258 -218 -258h-4c-37 -26 -56 -59 -56 -99c0 -48 33 -76 74 -76c31 0 55 12 72 35l2 -1c-24 -57 -60 -85 -109 -85c-25 0 -48 9 -69 27c-21 19 -31 43 -31 74c0 51 39 98 104 125
c-148 5 -222 77 -222 214v427c0 11 -1 13 -13 20l-79 50v2h293v-2l-84 -50c-12 -5 -13 -8 -13 -20v-405c0 -135 59 -208 168 -208c107 0 166 84 166 229v355c0 13 -5 23 -16 30z" />
    <glyph glyph-name="uogonek" unicode="&#x173;" 
d="M532 2v-2h-163c-46 -22 -69 -58 -69 -109c0 -48 33 -76 74 -76c31 0 55 12 72 35l2 -1c-24 -57 -60 -85 -109 -85c-25 0 -48 9 -69 27c-21 19 -31 43 -31 74c0 59 46 117 119 137v114c-27 -83 -75 -124 -145 -124c-90 0 -135 67 -135 200c0 40 1 113 2 220
c0 10 -4 18 -11 23l-68 50v2h175l-2 -119c-1 -79 -1 -127 -1 -142c0 -121 26 -176 86 -176c39 0 72 25 99 74v288c0 10 -4 18 -11 23l-68 50v2h174v-412c0 -10 4 -18 11 -23z" />
    <glyph glyph-name="Wcircumflex" unicode="&#x174;" horiz-adv-x="960" 
d="M767 701v2h225v-2l-76 -65c-18 -17 -22 -17 -28 -39l-193 -597h-61l-154 476l-155 -476h-61l-210 621c-5 15 -13 28 -23 38l-43 42v2h249v-2l-71 -54c-7 -5 -8 -13 -4 -24l176 -520l132 404l-37 114c-5 15 -13 28 -23 38l-37 42v2h244v-2l-71 -54c-7 -5 -8 -12 -5 -23
l168 -520l158 491c5 13 0 25 -13 36zM489 928h2l141 -173l-1 -2l-141 76l-141 -76l-1 2z" />
    <glyph glyph-name="wcircumflex" unicode="&#x175;" horiz-adv-x="702" 
d="M562 487h155v-2l-57 -69c-8 -9 -14 -19 -17 -30l-139 -386h-46l-112 303l-113 -303h-46l-154 418c-4 11 -9 21 -15 28l-31 39v2h200v-2l-48 -46c-7 -6 -8 -14 -4 -24l115 -318l87 231l-33 90c-4 11 -9 21 -15 28l-31 39v2h199v-2l-48 -46c-7 -6 -8 -14 -4 -24l116 -318
l104 290c5 17 5 18 -6 31l-57 67v2zM219 539l141 173h2l141 -173l-1 -2l-141 76l-141 -76z" />
    <glyph glyph-name="Ycircumflex" unicode="&#x176;" horiz-adv-x="596" 
d="M459 0h-312v2l91 47c9 5 13 11 13 20v207c0 11 -3 21 -8 30l-177 317c-7 13 -16 24 -27 33l-51 45v2h260v-2l-65 -51c-6 -5 -7 -11 -4 -18l167 -299l143 270c5 10 4 18 -3 24l-85 74v2h227v-2l-88 -69c-15 -13 -27 -26 -34 -39l-143 -270c-5 -9 -8 -21 -8 -36v-218
c0 -12 1 -15 13 -20l91 -47v-2zM183 755l141 173h2l141 -173l-1 -2l-141 76l-141 -76z" />
    <glyph glyph-name="ycircumflex" unicode="&#x177;" horiz-adv-x="435" 
d="M380 382l-170 -446c-17 -45 -34 -80 -50 -105c-28 -45 -63 -67 -104 -67c-16 0 -30 3 -42 10l35 151h2l58 -100c9 -16 15 -15 24 -3c22 27 42 66 61 117l13 36l-173 443c-6 14 -12 25 -19 34l-25 33v2h198v-2l-48 -46c-7 -6 -8 -14 -4 -24l120 -310l107 279
c5 12 4 22 -3 30l-60 71v2h155v-2l-56 -69c-7 -7 -13 -19 -19 -34zM241 712h2l141 -173l-1 -2l-141 76l-141 -76l-1 2z" />
    <glyph glyph-name="Ydieresis" unicode="&#x178;" horiz-adv-x="596" 
d="M628 703v-2l-88 -69c-15 -13 -27 -26 -34 -39l-143 -270c-5 -9 -8 -21 -8 -36v-218c0 -12 1 -15 13 -20l91 -47v-2h-312v2l91 47c9 5 13 11 13 20v207c0 11 -3 21 -8 30l-177 317c-7 13 -16 24 -27 33l-51 45v2h260v-2l-65 -51c-6 -5 -7 -11 -4 -18l167 -299l143 270
c5 10 4 18 -3 24l-85 74v2h227zM406 892c29 0 53 -24 53 -53c0 -28 -24 -52 -53 -52c-28 0 -51 24 -51 52c0 29 23 53 51 53zM206 877c30 33 92 8 89 -38c0 -28 -24 -52 -52 -52s-52 24 -52 52c0 15 5 27 15 38z" />
    <glyph glyph-name="Zacute" unicode="&#x179;" horiz-adv-x="575" 
d="M546 701l-404 -683h244c18 0 29 4 34 13l103 198h2v-229h-510v2l402 683h-222c-18 0 -29 -4 -34 -13l-99 -201h-2v232h486v-2zM225 758l89 161h121v-2l-208 -161z" />
    <glyph glyph-name="zacute" unicode="&#x17a;" horiz-adv-x="433" 
d="M417 485l-286 -468h141c17 0 18 0 27 15l100 154h2l-16 -186h-370v2l288 468h-147c-17 0 -18 0 -27 -15l-89 -144h-3v176h380v-2zM163 542l89 161h121v-2l-208 -161z" />
    <glyph glyph-name="Zdotaccent" unicode="&#x17b;" horiz-adv-x="575" 
d="M546 701l-404 -683h244c18 0 29 4 34 13l103 198h2v-229h-510v2l402 683h-222c-18 0 -29 -4 -34 -13l-99 -201h-2v232h486v-2zM244 874c33 37 105 10 102 -44c0 -32 -27 -59 -60 -59s-59 27 -59 59c0 17 6 32 17 44z" />
    <glyph glyph-name="zdotaccent" unicode="&#x17c;" horiz-adv-x="433" 
d="M417 485l-286 -468h141c17 0 18 0 27 15l100 154h2l-16 -186h-370v2l288 468h-147c-17 0 -18 0 -27 -15l-89 -144h-3v176h380v-2zM182 658c33 37 105 10 102 -44c0 -32 -27 -59 -60 -59s-59 27 -59 59c0 17 6 32 17 44z" />
    <glyph glyph-name="Zcaron" unicode="&#x17d;" horiz-adv-x="575" 
d="M546 701l-404 -683h244c18 0 29 4 34 13l103 198h2v-229h-510v2l402 683h-222c-18 0 -29 -4 -34 -13l-99 -201h-2v232h486v-2zM145 920l141 -76l141 76l1 -2l-141 -173h-2l-141 173z" />
    <glyph glyph-name="zcaron" unicode="&#x17e;" horiz-adv-x="433" 
d="M417 485l-286 -468h141c17 0 18 0 27 15l100 154h2l-16 -186h-370v2l288 468h-147c-17 0 -18 0 -27 -15l-89 -144h-3v176h380v-2zM83 704l141 -76l141 76l1 -2l-141 -173h-2l-141 173z" />
    <glyph glyph-name="florin" unicode="&#x192;" horiz-adv-x="410" 
d="M388 565h-2l-49 120c-5 13 -5 13 -24 13c-44 0 -66 -39 -66 -117v-271h107v-18h-107v-290c0 -164 -50 -238 -155 -238c-43 0 -87 9 -132 26l51 122h2l48 -119c5 -13 9 -17 25 -17c29 0 48 12 56 36s10 43 10 79v401h-98v18h98v213c0 135 51 190 160 190
c43 0 85 -9 127 -26z" />
    <glyph glyph-name="uni01B5" unicode="&#x1b5;" horiz-adv-x="575" 
d="M546 701l-200 -337h145v-17h-155l-194 -329h244c18 0 29 4 34 13l103 198h2v-229h-510v2l203 345h-156v17h166l189 321h-222c-18 0 -29 -4 -34 -13l-99 -201h-2v232h486v-2z" />
    <glyph glyph-name="uni01B6" unicode="&#x1b6;" horiz-adv-x="437" 
d="M419 485l-140 -228h116v-17h-126l-136 -223h141c17 0 18 0 27 15l100 154h2l-16 -186h-370v2l146 238h-121v17h132l131 213h-147c-17 0 -18 0 -27 -15l-89 -144h-3v176h380v-2z" />
    <glyph glyph-name="Aringacute" unicode="&#x1fa;" horiz-adv-x="621" 
d="M558 82c5 -15 13 -28 23 -38l43 -42v-2h-249v2l71 54c7 5 9 14 4 25l-56 165h-237l-48 -143c-4 -19 -5 -17 15 -33l85 -68v-2h-225v2l80 68c13 12 22 24 26 36l168 498c5 21 5 22 -8 37l-55 60v2h153zM388 264l-112 335l-113 -335h225zM297 739c-43 0 -81 25 -81 62
c0 11 3 21 9 32l67 134h121v-2l-146 -99c-20 -13 -32 -23 -36 -30c19 18 41 27 66 27c43 0 81 -25 81 -62s-38 -62 -81 -62zM341 769c24 15 24 49 0 65c-25 15 -63 15 -87 0c-25 -16 -25 -50 0 -65c24 -16 62 -16 87 0z" />
    <glyph glyph-name="aringacute" unicode="&#x1fb;" horiz-adv-x="465" 
d="M247 20c-24 -19 -52 -28 -84 -28c-36 0 -67 12 -92 35s-38 55 -38 96c0 46 16 82 49 108c32 25 70 38 113 38c41 0 76 -10 104 -31l2 106v3c0 80 -36 131 -107 131c-25 0 -28 -1 -33 -14l-61 -132h-2l-45 130c53 22 109 33 168 33s102 -13 127 -39c30 -31 45 -86 45 -164
v-14l-4 -163c-1 -45 11 -67 36 -67c17 0 28 10 33 29h2c0 -11 -2 -21 -6 -31c-12 -31 -40 -54 -77 -54c-47 0 -80 37 -80 106c-10 -33 -27 -59 -50 -78zM241 242c-69 0 -110 -47 -110 -107c0 -52 32 -87 76 -87c37 0 67 19 90 58v3l2 123c-19 7 -39 10 -58 10zM284 629
c32 -23 32 -67 0 -90c-17 -11 -36 -17 -57 -17c-43 0 -81 25 -81 62c0 11 3 21 9 32l67 134h121v-2l-146 -99c-20 -13 -32 -23 -36 -30c19 18 41 27 66 27c21 0 40 -6 57 -17zM271 552c24 15 24 49 0 65c-25 15 -63 15 -87 0c-25 -16 -25 -50 0 -65c24 -16 62 -16 87 0z" />
    <glyph glyph-name="AEacute" unicode="&#x1fc;" horiz-adv-x="911" 
d="M539 368h123c11 1 20 7 28 19l64 89h2v-234h-2l-64 90c-9 12 -18 18 -29 18h-122v-309c0 -19 3 -23 16 -23h178c17 0 29 4 34 13l89 182h2v-213h-522v2l86 47c9 5 13 11 13 20v176h-237l-82 -136c-13 -23 -15 -27 1 -40l84 -67v-2h-226v2l74 58c19 15 32 28 39 39
l306 505c13 21 13 24 0 37l-63 60v2h517v-216h-2l-84 180c-6 12 -16 18 -29 18h-178c-13 0 -16 -4 -16 -23v-294zM435 263v374l-226 -374h226zM727 922v-2l-208 -161l-2 2l89 161h121z" />
    <glyph glyph-name="aeacute" unicode="&#x1fd;" horiz-adv-x="732" 
d="M394 257c0 -131 61 -208 146 -208c73 0 126 41 159 122h2c-21 -119 -89 -179 -194 -179c-76 0 -143 36 -179 108c-21 -67 -81 -108 -157 -108c-80 0 -138 52 -138 136c0 44 16 79 49 104c32 25 68 37 108 37c44 0 80 -10 109 -31v26l2 80c3 81 -36 133 -109 133
c-23 0 -26 -1 -31 -13l-61 -131h-2l-49 135c56 18 115 27 176 27c55 0 96 -13 121 -39c8 -9 14 -17 17 -23c39 41 89 62 148 62c52 0 96 -16 133 -47s55 -77 55 -137c0 -7 -1 -15 -2 -26h-303v-28zM395 302h207c0 119 -31 178 -92 178c-65 0 -108 -69 -115 -178zM154 73
c15 -17 36 -25 63 -25c45 0 82 19 109 56c-18 37 -27 80 -27 129c-24 6 -43 9 -57 9c-69 0 -111 -44 -111 -103c0 -27 8 -49 23 -66zM524 703v-2l-208 -161l-2 2l89 161h121z" />
    <glyph glyph-name="Oslashacute" unicode="&#x1fe;" horiz-adv-x="689" 
d="M653 352c0 -113 -27 -201 -80 -265c-54 -65 -130 -97 -228 -97c-49 0 -93 8 -132 25l-43 -97l-17 7l43 98c-104 55 -160 169 -160 329c0 113 27 201 81 265s130 96 228 96c53 0 100 -10 142 -30l43 96l17 -7l-43 -98c96 -55 149 -169 149 -322zM218 73l249 563
c-32 41 -73 61 -122 61c-57 0 -103 -27 -137 -82c-35 -55 -52 -143 -52 -263c0 -129 21 -222 62 -279zM231 56c29 -33 67 -50 114 -50c115 0 189 106 189 346c0 120 -18 209 -55 267zM402 919h121v-2l-208 -161l-2 2z" />
    <glyph glyph-name="oslashacute" unicode="&#x1ff;" horiz-adv-x="508" 
d="M418 56c-40 -43 -95 -64 -164 -64c-37 0 -68 5 -94 16l-40 -90l-16 8l39 89c-75 37 -112 114 -112 229c0 167 84 251 223 251c35 0 67 -5 94 -16l33 73l17 -7l-33 -74c75 -37 112 -113 112 -227c0 -83 -20 -146 -59 -188zM142 244c0 -81 8 -139 25 -175l163 369
c-19 28 -44 42 -76 42c-75 0 -112 -68 -112 -236zM254 7c73 0 112 69 112 237c0 76 -8 134 -25 173l-163 -369c17 -27 42 -41 76 -41zM281 703h121v-2l-208 -161l-2 2z" />
    <glyph glyph-name="Scommaaccent" unicode="&#x218;" horiz-adv-x="515" 
d="M444 302c26 -28 39 -63 39 -106c0 -59 -22 -108 -65 -147s-101 -59 -173 -59c-67 0 -129 9 -185 27v209h2l91 -196c5 -11 13 -18 22 -19c21 -3 41 -5 58 -5c95 0 163 44 163 136c0 67 -39 104 -127 145l-86 41c-79 37 -137 103 -137 194c0 55 20 101 61 137s92 54 155 54
c51 0 109 -8 172 -24v-204h-2l-94 192c-5 10 -11 15 -19 16c-13 3 -28 4 -44 4c-89 0 -148 -54 -148 -138c0 -56 33 -100 99 -131l104 -50c50 -23 88 -49 114 -76zM253 -154c1 6 -2 10 -9 11c-27 4 -44 25 -44 54c0 31 24 54 53 54c33 0 56 -23 56 -62
c0 -31 -10 -59 -31 -86c-21 -26 -47 -43 -78 -52l-1 2c33 21 51 48 54 79z" />
    <glyph glyph-name="scommaaccent" unicode="&#x219;" horiz-adv-x="416" 
d="M255 476c-2 1 -7 2 -14 3c-6 1 -15 1 -26 1c-49 0 -89 -33 -89 -88c0 -44 26 -66 77 -87l67 -29c72 -31 114 -65 114 -133c0 -48 -18 -85 -55 -111c-37 -27 -82 -40 -134 -40c-51 0 -104 10 -157 30l42 139h2l56 -138c3 -7 9 -11 19 -13c12 -2 25 -3 40 -3
c65 0 102 42 102 93c0 27 -8 45 -29 61s-31 20 -64 35l-62 28c-63 29 -94 72 -94 131c0 43 17 77 50 102s72 38 116 38c55 0 106 -8 151 -25l-38 -127h-2l-64 122c-3 5 -6 9 -8 11zM268 -107c0 -31 -10 -59 -31 -86c-21 -26 -47 -43 -78 -52l-1 2c33 21 51 48 54 79
c1 6 -2 10 -9 11c-27 4 -44 25 -44 54c0 31 24 54 53 54c33 0 56 -23 56 -62z" />
    <glyph glyph-name="uni021A" unicode="&#x21a;" horiz-adv-x="602" 
d="M493 666c-7 16 -10 19 -26 19h-114v-616c0 -12 1 -15 13 -20l91 -47v-2h-312v2l91 47c9 5 13 11 13 20v616h-114c-16 0 -18 -2 -26 -19l-87 -191h-2v228h562v-228h-2zM247 -243c33 21 51 48 54 79c1 6 -2 10 -9 11c-27 4 -44 25 -44 54c0 31 24 54 53 54
c33 0 56 -23 56 -62c0 -31 -10 -59 -31 -86c-21 -26 -47 -43 -78 -52z" />
    <glyph glyph-name="uni021B" unicode="&#x21b;" horiz-adv-x="309" 
d="M312 469h-142v-354c0 -44 21 -71 57 -71c35 0 65 26 77 59h2c-9 -64 -52 -111 -124 -111c-71 0 -107 38 -107 113v364h-70v18h55c11 0 19 5 24 14l84 148h2v-162h142v-18zM182 -154c1 6 -2 10 -9 11c-27 4 -44 25 -44 54c0 31 24 54 53 54c33 0 56 -23 56 -62
c0 -31 -10 -59 -31 -86c-21 -26 -47 -43 -78 -52l-1 2c33 21 51 48 54 79z" />
    <glyph glyph-name="dotlessj" unicode="&#x237;" horiz-adv-x="259" 
d="M60 -155c22 31 33 81 33 150v417c0 10 -4 18 -11 23l-68 50v2h174v-467c0 -67 -16 -123 -47 -167c-32 -44 -79 -66 -142 -66c-14 0 -27 1 -38 4v2c44 4 77 21 99 52z" />
    <glyph glyph-name="circumflex" unicode="&#x2c6;" horiz-adv-x="384" 
d="M191 712h2l141 -173l-1 -2l-141 76l-141 -76l-1 2z" />
    <glyph glyph-name="caron" unicode="&#x2c7;" horiz-adv-x="384" 
d="M50 710l1 2l141 -76l141 76l1 -2l-141 -173h-2z" />
    <glyph glyph-name="uni02C9" unicode="&#x2c9;" horiz-adv-x="346" 
d="M50 609h246v-18h-246v18z" />
    <glyph glyph-name="breve" unicode="&#x2d8;" horiz-adv-x="337" 
d="M50 662c0 13 1 25 4 38h2c1 -60 49 -98 112 -98c64 0 112 38 113 98h2c3 -13 4 -25 4 -38c0 -80 -54 -120 -119 -120s-118 40 -118 120z" />
    <glyph glyph-name="dotaccent" unicode="&#x2d9;" horiz-adv-x="219" 
d="M50 614c0 35 26 61 59 61s60 -26 60 -61c0 -32 -27 -59 -60 -59s-59 27 -59 59z" />
    <glyph glyph-name="ring" unicode="&#x2da;" horiz-adv-x="262" 
d="M74 565c-32 31 -32 83 0 115c31 31 83 31 115 0c31 -32 31 -84 0 -115c-32 -32 -84 -32 -115 0zM87 578c24 -25 64 -25 88 0c39 35 10 110 -44 107c-54 3 -83 -72 -44 -107z" />
    <glyph glyph-name="ogonek" unicode="&#x2db;" horiz-adv-x="309" 
d="M50 -135c0 57 49 110 132 135h2c-49 -27 -73 -63 -73 -109c0 -48 33 -76 74 -76c31 0 55 12 72 35l2 -1c-24 -57 -60 -85 -109 -85c-25 0 -48 9 -69 27c-21 19 -31 43 -31 74z" />
    <glyph glyph-name="tilde" unicode="&#x2dc;" horiz-adv-x="367" 
d="M50 561c0 11 1 23 3 34c9 51 33 76 70 76c15 0 37 -8 66 -23c29 -16 51 -24 65 -24c27 0 48 16 61 48l2 -1c0 -14 -1 -26 -3 -37c-9 -49 -33 -73 -70 -73c-15 0 -37 8 -66 24c-30 15 -52 23 -66 23c-27 0 -47 -16 -60 -48z" />
    <glyph glyph-name="hungarumlaut" unicode="&#x2dd;" horiz-adv-x="404" 
d="M187 532l65 171h102v-2l-165 -169h-2zM50 532l65 171h102v-2l-165 -169h-2z" />
    <glyph glyph-name="uni0394" unicode="&#x394;" horiz-adv-x="638" 
d="M31 0l244 599c9 19 6 36 -9 49l-56 53v2h155l257 -703h-591zM58 18h449l-214 576z" />
    <glyph glyph-name="uni03A9" unicode="&#x3a9;" horiz-adv-x="689" 
d="M653 0h-275v92c51 16 89 46 116 91s40 114 40 209c0 204 -76 305 -189 306c-113 -1 -190 -102 -190 -306c0 -95 13 -164 40 -209s65 -75 116 -91v-92h-275v203h2l89 -172c5 -9 17 -13 34 -13h132v62c-71 15 -132 50 -182 105c-51 54 -76 123 -76 207c0 92 27 169 81 230
c53 61 130 91 229 91s175 -30 229 -91c53 -61 80 -138 80 -230c0 -84 -25 -153 -75 -207c-51 -55 -112 -90 -183 -105v-62h132c17 0 29 4 34 13l89 172h2v-203z" />
    <glyph glyph-name="uni03BC" unicode="&#x3bc;" horiz-adv-x="542" 
d="M533 0h-174v118c-23 -79 -74 -126 -137 -126c-20 0 -36 4 -48 12v-159c0 -11 5 -18 14 -23l90 -48v-2h-278v2l69 40c7 4 11 11 11 22v581c0 9 -4 16 -11 23l-67 45v2h175v-279c0 -61 6 -103 19 -124c13 -22 34 -33 64 -33c41 0 74 25 99 74v292c0 10 -4 18 -11 23l-68 45
v2h174v-417c0 -10 4 -18 11 -23l68 -45v-2z" />
    <glyph glyph-name="pi" unicode="&#x3c0;" horiz-adv-x="583" 
d="M560 485l-68 -50c-7 -5 -11 -13 -11 -23v-348c0 -11 4 -18 11 -22l68 -40v-2h-253v2l67 41c8 5 12 12 12 21v405h-189v-405c0 -9 4 -16 12 -21l67 -41v-2h-253v2l68 40c7 4 11 11 11 22v348c0 10 -4 18 -11 23l-68 50v2h537v-2z" />
    <glyph glyph-name="Wgrave" unicode="&#x1e80;" horiz-adv-x="960" 
d="M992 703v-2l-76 -65c-18 -17 -22 -17 -28 -39l-193 -597h-61l-154 476l-155 -476h-61l-210 621c-5 15 -13 28 -23 38l-43 42v2h249v-2l-71 -54c-7 -5 -8 -13 -4 -24l176 -520l132 404l-37 114c-5 15 -13 28 -23 38l-37 42v2h244v-2l-71 -54c-7 -5 -8 -12 -5 -23l168 -520
l158 491c5 13 0 25 -13 36l-87 70v2h225zM463 919l89 -161l-2 -2l-208 161v2h121z" />
    <glyph glyph-name="wgrave" unicode="&#x1e81;" horiz-adv-x="702" 
d="M562 485v2h155v-2l-57 -69c-8 -9 -14 -19 -17 -30l-139 -386h-46l-112 303l-113 -303h-46l-154 418c-4 11 -9 21 -15 28l-31 39v2h200v-2l-48 -46c-7 -6 -8 -14 -4 -24l115 -318l87 231l-33 90c-4 11 -9 21 -15 28l-31 39v2h199v-2l-48 -46c-7 -6 -8 -14 -4 -24l116 -318
l104 290c5 17 5 18 -6 31zM334 703l89 -161l-2 -2l-208 161v2h121z" />
    <glyph glyph-name="Wacute" unicode="&#x1e82;" horiz-adv-x="960" 
d="M767 701v2h225v-2l-76 -65c-18 -17 -22 -17 -28 -39l-193 -597h-61l-154 476l-155 -476h-61l-210 621c-5 15 -13 28 -23 38l-43 42v2h249v-2l-71 -54c-7 -5 -8 -13 -4 -24l176 -520l132 404l-37 114c-5 15 -13 28 -23 38l-37 42v2h244v-2l-71 -54c-7 -5 -8 -12 -5 -23
l168 -520l158 491c5 13 0 25 -13 36zM518 919h121v-2l-208 -161l-2 2z" />
    <glyph glyph-name="wacute" unicode="&#x1e83;" horiz-adv-x="702" 
d="M562 485v2h155v-2l-57 -69c-8 -9 -14 -19 -17 -30l-139 -386h-46l-112 303l-113 -303h-46l-154 418c-4 11 -9 21 -15 28l-31 39v2h200v-2l-48 -46c-7 -6 -8 -14 -4 -24l115 -318l87 231l-33 90c-4 11 -9 21 -15 28l-31 39v2h199v-2l-48 -46c-7 -6 -8 -14 -4 -24l116 -318
l104 290c5 17 5 18 -6 31zM300 542l89 161h121v-2l-208 -161z" />
    <glyph glyph-name="Wdieresis" unicode="&#x1e84;" horiz-adv-x="960" 
d="M546 647c-7 -5 -8 -12 -5 -23l168 -520l158 491c5 13 0 25 -13 36l-87 70v2h225v-2l-76 -65c-18 -17 -22 -17 -28 -39l-193 -597h-61l-154 476l-155 -476h-61l-210 621c-5 15 -13 28 -23 38l-43 42v2h249v-2l-71 -54c-7 -5 -8 -13 -4 -24l176 -520l132 404l-37 114
c-5 15 -13 28 -23 38l-37 42v2h244v-2zM371 877c30 33 92 8 89 -38c0 -28 -24 -52 -52 -52s-52 24 -52 52c0 15 5 27 15 38zM571 787c-28 0 -51 24 -51 52c0 29 23 53 51 53c29 0 53 -24 53 -53c0 -28 -25 -52 -53 -52z" />
    <glyph glyph-name="wdieresis" unicode="&#x1e85;" horiz-adv-x="702" 
d="M409 439c-7 -6 -8 -14 -4 -24l116 -318l104 290c5 17 5 18 -6 31l-57 67v2h155v-2l-57 -69c-8 -9 -14 -19 -17 -30l-139 -386h-46l-112 303l-113 -303h-46l-154 418c-4 11 -9 21 -15 28l-31 39v2h200v-2l-48 -46c-7 -6 -8 -14 -4 -24l115 -318l87 231l-33 90
c-4 11 -9 21 -15 28l-31 39v2h199v-2zM442 571c-28 0 -51 24 -51 52c0 29 23 53 51 53c29 0 53 -24 53 -53c0 -28 -24 -52 -53 -52zM227 623c0 29 23 53 52 53s52 -24 52 -53c0 -28 -24 -52 -52 -52s-52 24 -52 52z" />
    <glyph glyph-name="uni1E8A" unicode="&#x1e8a;" horiz-adv-x="654" 
d="M639 703v-2l-92 -57c-17 -9 -29 -20 -38 -33l-141 -209l207 -326c7 -12 18 -23 32 -33l56 -41v-2h-269v2l58 40c13 9 14 14 5 27l-160 251l-153 -229c-11 -15 -11 -19 0 -26l96 -63v-2h-249v2l92 57c17 9 29 20 38 33l165 245l-183 290c-7 12 -18 23 -32 33l-56 41v2h269
v-2l-58 -40c-13 -9 -13 -15 -5 -27l136 -215l129 193c11 15 11 21 0 26l-96 63v2h249zM414 830c0 -32 -27 -59 -60 -59s-59 27 -59 59c0 35 26 61 59 61s60 -26 60 -61z" />
    <glyph glyph-name="uni1E8B" unicode="&#x1e8b;" horiz-adv-x="476" 
d="M412 72c12 -17 23 -29 33 -37l41 -33v-2h-240v2l61 38c7 5 7 12 0 22l-96 139l-87 -117c-9 -13 -10 -14 1 -26l55 -56v-2h-183v2l82 61c11 7 21 17 30 30l92 122l-137 200c-12 17 -23 29 -33 37l-41 33v2h240v-2l-61 -38c-9 -7 -9 -9 0 -22l94 -137l85 115
c9 13 10 14 -1 26l-55 56v2h183v-2l-82 -61c-11 -7 -21 -17 -30 -30l-90 -120zM322 614c0 -32 -27 -59 -60 -59s-59 27 -59 59c0 35 26 61 59 61s60 -26 60 -61z" />
    <glyph glyph-name="Ygrave" unicode="&#x1ef2;" horiz-adv-x="596" 
d="M486 627l-85 74v2h227v-2l-88 -69c-15 -13 -27 -26 -34 -39l-143 -270c-5 -9 -8 -21 -8 -36v-218c0 -12 1 -15 13 -20l91 -47v-2h-312v2l91 47c9 5 13 11 13 20v207c0 11 -3 21 -8 30l-177 317c-7 13 -16 24 -27 33l-51 45v2h260v-2l-65 -51c-6 -5 -7 -11 -4 -18
l167 -299l143 270c5 10 4 18 -3 24zM177 917v2h121l89 -161l-2 -2z" />
    <glyph glyph-name="ygrave" unicode="&#x1ef3;" horiz-adv-x="435" 
d="M399 416c-7 -7 -13 -19 -19 -34l-170 -446c-17 -45 -34 -80 -50 -105c-28 -45 -63 -67 -104 -67c-16 0 -30 3 -42 10l35 151h2l58 -100c9 -16 15 -15 24 -3c22 27 42 66 61 117l13 36l-173 443c-6 14 -12 25 -19 34l-25 33v2h198v-2l-48 -46c-7 -6 -8 -14 -4 -24
l120 -310l107 279c5 12 4 22 -3 30l-60 71v2h155v-2zM94 701v2h121l89 -161l-2 -2z" />
    <glyph glyph-name="endash" unicode="&#x2013;" horiz-adv-x="500" 
d="M5 251h490v-17h-490v17z" />
    <glyph glyph-name="emdash" unicode="&#x2014;" horiz-adv-x="1000" 
d="M5 251h990v-17h-990v17z" />
    <glyph glyph-name="quoteleft" unicode="&#x2018;" horiz-adv-x="199" 
d="M75 654c22 31 50 52 85 62l1 -2c-36 -20 -57 -61 -57 -98c0 -5 3 -8 10 -9c25 -3 46 -26 46 -57c0 -32 -25 -58 -57 -58c-35 0 -61 26 -61 66c0 33 11 65 33 96z" />
    <glyph glyph-name="quoteright" unicode="&#x2019;" horiz-adv-x="199" 
d="M40 491c36 20 57 61 57 98c0 5 -3 8 -10 9c-25 3 -46 26 -46 57c0 32 25 58 57 58c35 0 61 -26 61 -66c0 -33 -11 -65 -33 -96s-50 -52 -85 -62z" />
    <glyph glyph-name="quotesinglbase" unicode="&#x201a;" horiz-adv-x="199" 
d="M40 -87c36 20 57 61 57 98c0 5 -3 8 -10 9c-25 3 -46 26 -46 57c0 32 25 58 57 58c35 0 61 -26 61 -66c0 -33 -11 -65 -33 -96s-50 -52 -85 -62z" />
    <glyph glyph-name="quotedblleft" unicode="&#x201c;" horiz-adv-x="360" 
d="M75 654c22 31 50 52 85 62l1 -2c-36 -20 -57 -61 -57 -98c0 -5 3 -8 10 -9c25 -3 46 -26 46 -57c0 -32 -25 -58 -57 -58c-35 0 -61 26 -61 66c0 33 11 65 33 96zM322 714c-36 -20 -57 -61 -57 -98c0 -5 3 -8 10 -9c25 -3 46 -26 46 -57c0 -32 -25 -58 -57 -58
c-35 0 -61 26 -61 66c0 33 11 65 33 96s50 52 85 62z" />
    <glyph glyph-name="quotedblright" unicode="&#x201d;" horiz-adv-x="360" 
d="M320 647c0 -33 -11 -65 -33 -96s-50 -52 -85 -62l-1 2c36 20 57 61 57 98c0 5 -3 8 -10 9c-25 3 -46 26 -46 57c0 32 25 58 57 58c35 0 61 -26 61 -66zM40 491c36 20 57 61 57 98c0 5 -3 8 -10 9c-25 3 -46 26 -46 57c0 32 25 58 57 58c35 0 61 -26 61 -66
c0 -33 -11 -65 -33 -96s-50 -52 -85 -62z" />
    <glyph glyph-name="quotedblbase" unicode="&#x201e;" horiz-adv-x="360" 
d="M320 69c0 -33 -11 -65 -33 -96s-50 -52 -85 -62l-1 2c36 20 57 61 57 98c0 5 -3 8 -10 9c-25 3 -46 26 -46 57c0 32 25 58 57 58c35 0 61 -26 61 -66zM82 -45c10 19 15 37 15 56c0 5 -3 8 -10 9c-25 3 -46 26 -46 57c0 32 25 58 57 58c35 0 61 -26 61 -66
c0 -33 -11 -65 -33 -96s-50 -52 -85 -62l-1 2c18 10 32 24 42 42z" />
    <glyph glyph-name="dagger" unicode="&#x2020;" horiz-adv-x="430" 
d="M206 531v172h18v-172h151v-17h-151v-384h-18v384h-151v17h151z" />
    <glyph glyph-name="daggerdbl" unicode="&#x2021;" horiz-adv-x="430" 
d="M375 302h-151v-172h-18v172h-151v17h151v195h-151v17h151v172h18v-172h151v-17h-151v-195h151v-17z" />
    <glyph glyph-name="bullet" unicode="&#x2022;" horiz-adv-x="348" 
d="M78 351c0 53 43 95 96 95s96 -42 96 -95c5 -82 -109 -121 -164 -65c-19 17 -28 38 -28 65z" />
    <glyph glyph-name="ellipsis" unicode="&#x2026;" horiz-adv-x="595" 
d="M545 53c0 -35 -27 -62 -63 -62c-35 0 -62 27 -62 62c0 36 27 64 62 64c36 0 63 -28 63 -64zM235 53c0 36 27 64 62 64c36 0 63 -28 63 -64c0 -35 -27 -62 -63 -62c-35 0 -62 27 -62 62zM50 53c0 36 27 64 62 64c36 0 63 -28 63 -64c0 -35 -27 -62 -63 -62
c-35 0 -62 27 -62 62z" />
    <glyph glyph-name="perthousand" unicode="&#x2030;" horiz-adv-x="895" 
d="M65 565c0 88 44 148 124 148c81 0 124 -60 124 -149c0 -88 -43 -147 -124 -147c-80 0 -124 60 -124 148zM622 138c0 88 44 148 124 148c81 0 124 -60 124 -149c0 -88 -43 -147 -124 -147c-80 0 -124 60 -124 148zM541 31c-21 -27 -52 -41 -93 -41c-80 0 -124 60 -124 148
s44 148 124 148c81 0 124 -60 124 -149c0 -44 -10 -79 -31 -106zM493 242c-7 20 -22 30 -45 30c-44 0 -55 -38 -55 -134s11 -134 55 -134c45 0 55 37 55 133c0 49 -3 84 -10 105zM145 462c7 -21 22 -31 44 -31c45 0 55 37 55 133c0 99 -10 135 -55 135
c-44 0 -55 -38 -55 -134c0 -48 4 -82 11 -103zM702 35c7 -21 22 -31 44 -31c45 0 55 37 55 133c0 99 -10 135 -55 135c-44 0 -55 -38 -55 -134c0 -48 4 -82 11 -103zM579 701l-503 -711l-15 13l503 710z" />
    <glyph glyph-name="guilsinglleft" unicode="&#x2039;" horiz-adv-x="263" 
d="M30 249v2l202 199l1 -1l-98 -199l98 -199l-1 -1z" />
    <glyph glyph-name="guilsinglright" unicode="&#x203a;" horiz-adv-x="263" 
d="M31 450l202 -199v-2l-202 -199l-1 1l98 199l-98 199z" />
    <glyph glyph-name="fraction" unicode="&#x2044;" horiz-adv-x="48" 
d="M-225 3l503 710l15 -12l-503 -711z" />
    <glyph glyph-name="Euro" unicode="&#x20ac;" horiz-adv-x="665" 
d="M507 675c-8 15 -12 16 -32 19c-15 2 -31 3 -48 3c-124 0 -188 -109 -200 -284h238v-17h-239c-1 -10 -1 -25 -1 -45c0 -24 0 -41 1 -52h239v-17h-238c13 -184 85 -276 214 -276c6 0 18 1 35 2c15 2 25 8 30 18l102 201h2v-220c-53 -11 -109 -17 -168 -17
c-203 0 -312 111 -333 292h-69v17h67c-1 11 -2 27 -2 50c0 21 1 36 2 47h-67v17h69c11 91 44 164 100 219c56 54 129 81 220 81c58 0 118 -7 181 -22v-210h-2z" />
    <glyph glyph-name="trademark" unicode="&#x2122;" horiz-adv-x="804" 
d="M471 365v-2h-123v2l46 29c5 3 7 8 7 14v259c0 6 -2 10 -5 12l-43 22v2h119l94 -231l90 231h118v-2l-43 -21c-5 -3 -7 -6 -7 -10v-273c0 -5 2 -8 7 -10l43 -22v-2h-167v2l43 22c4 2 6 5 6 10v231c0 8 1 19 2 32l-117 -300h-1l-112 269c-1 2 -4 12 -10 29v-250
c0 -6 3 -11 8 -14zM25 591l5 112h284l5 -112h-2l-45 87c-3 5 -8 8 -15 8h-50v-289c0 -4 2 -7 5 -10l39 -22v-2h-160v2l41 22c4 3 6 6 6 10v289h-52c-7 0 -11 -3 -14 -8l-45 -87h-2z" />
    <glyph glyph-name="Omega" unicode="&#x2126;" horiz-adv-x="689" 
d="M653 0h-275v92c51 16 89 46 116 91s40 114 40 209c0 204 -76 305 -189 306c-113 -1 -190 -102 -190 -306c0 -95 13 -164 40 -209s65 -75 116 -91v-92h-275v203h2l89 -172c5 -9 17 -13 34 -13h132v62c-71 15 -132 50 -182 105c-51 54 -76 123 -76 207c0 92 27 169 81 230
c53 61 130 91 229 91s175 -30 229 -91c53 -61 80 -138 80 -230c0 -84 -25 -153 -75 -207c-51 -55 -112 -90 -183 -105v-62h132c17 0 29 4 34 13l89 172h2v-203z" />
    <glyph glyph-name="estimated" unicode="&#x212e;" horiz-adv-x="664" 
d="M599 233h-509c2 -67 26 -122 73 -163s104 -62 171 -62c54 0 102 15 144 44s71 67 87 116l21 -7c-17 -53 -49 -94 -94 -125c-46 -31 -99 -46 -158 -46c-75 0 -137 23 -188 69s-76 107 -76 183s25 137 76 184c50 46 113 69 188 69s138 -23 189 -69c51 -47 76 -108 76 -184
v-9zM90 252h489c-3 67 -27 121 -74 163c-47 41 -104 62 -171 62s-123 -21 -170 -62c-47 -42 -71 -96 -74 -163z" />
    <glyph glyph-name="uni2153" unicode="&#x2153;" horiz-adv-x="456" 
d="M265 153v-2c56 -3 84 -27 84 -71c0 -51 -47 -85 -131 -85c-39 0 -75 6 -110 18l46 94h1l22 -88c1 -4 4 -6 8 -7c9 -2 19 -3 31 -3c40 0 69 28 69 71c0 44 -30 66 -89 67v2c53 9 80 33 80 74c0 36 -18 54 -53 54c-10 0 -17 0 -22 -1s-9 -4 -12 -9l-38 -86h-1l-33 91
c37 13 73 19 110 19c73 0 110 -23 110 -69c0 -34 -24 -57 -72 -69zM261 462c0 -3 3 -6 8 -8l66 -32v-1h-208v1l67 32c5 3 7 5 7 8v193c0 5 -2 8 -7 9l-73 25v1l140 25v-253zM396 344h-336v17h336v-17z" />
    <glyph glyph-name="uni2154" unicode="&#x2154;" horiz-adv-x="456" 
d="M309 692c22 -14 33 -34 33 -61c0 -29 -12 -54 -36 -75s-66 -48 -127 -81v-2h101c11 0 20 2 25 7l39 38h2l-10 -97h-231v3c55 48 90 79 105 94c43 40 64 78 64 115c0 44 -21 66 -63 66c-7 0 -13 0 -16 -1c-5 -1 -9 -4 -11 -9l-37 -86h-2l-32 91c37 13 71 19 104 19
c39 0 70 -7 92 -21zM266 29c13 13 19 30 19 51c0 44 -30 66 -89 67v2c53 9 80 33 80 74c0 36 -18 54 -53 54c-10 0 -17 0 -22 -1s-9 -4 -12 -9l-37 -86h-2l-33 91c37 13 73 19 110 19c73 0 110 -23 110 -69c0 -34 -24 -57 -72 -69v-2c56 -3 84 -27 84 -71
c0 -51 -47 -85 -131 -85c-39 0 -75 6 -110 18l46 94h2l21 -88c1 -4 4 -6 8 -7c9 -2 19 -3 31 -3c20 0 37 7 50 20zM396 344h-336v17h336v-17z" />
    <glyph glyph-name="uni2155" unicode="&#x2155;" horiz-adv-x="456" 
d="M285 84c0 44 -26 66 -78 66c-23 0 -47 -5 -71 -16l-2 1l6 153c21 -1 55 -2 102 -2c17 0 31 0 42 1c23 1 37 5 43 11l7 7h2l-4 -32c-3 -26 -14 -39 -32 -40c-13 -1 -32 -1 -58 -1c-16 0 -46 1 -90 3l-4 -84c29 19 60 29 93 29c68 0 108 -39 108 -90
c0 -63 -48 -95 -128 -95c-41 0 -78 6 -113 18l46 94h2l20 -84c1 -7 6 -11 13 -12s17 -2 30 -2c39 0 66 31 66 75zM269 455l66 -32v-2h-208v2l67 32c5 2 7 5 7 8v192c0 5 -2 8 -7 9l-73 24v2l140 25v-252c0 -3 3 -6 8 -8zM396 344h-336v17h336v-17z" />
    <glyph glyph-name="uni2156" unicode="&#x2156;" horiz-adv-x="456" 
d="M267 30c12 14 18 32 18 54c0 44 -26 66 -78 66c-23 0 -47 -5 -71 -16l-2 1l6 153c41 -1 75 -2 102 -2c17 0 31 0 42 1c23 1 37 5 43 11l7 7h2l-4 -32c-3 -26 -14 -39 -32 -40c-13 -1 -32 -1 -58 -1c-16 0 -46 1 -90 3l-4 -84c29 19 60 29 93 29c68 0 108 -39 108 -90
c0 -63 -48 -95 -128 -95c-41 0 -78 6 -113 18l46 94h2l20 -84c1 -7 6 -11 13 -12c13 -1 23 -2 30 -2c19 0 35 7 48 21zM305 480l39 38h2l-10 -97h-231v3c55 48 90 79 105 94c43 40 64 78 64 115c0 44 -21 66 -63 66c-7 0 -13 0 -16 -1c-5 -1 -9 -4 -11 -9l-37 -86h-2l-32 91
c37 13 71 19 104 19c79 0 125 -29 125 -82c0 -29 -12 -54 -36 -75s-66 -48 -127 -81v-2h101c11 0 20 2 25 7zM396 344h-336v17h336v-17z" />
    <glyph glyph-name="uni2157" unicode="&#x2157;" horiz-adv-x="456" 
d="M267 30c12 14 18 32 18 54c0 44 -26 66 -78 66c-23 0 -47 -5 -71 -16l-2 1l6 153c22 -1 56 -2 102 -2c17 0 31 0 42 1c23 1 37 5 43 11l7 7h2l-4 -32c-3 -26 -14 -39 -32 -40c-13 -1 -32 -1 -58 -1c-16 0 -46 1 -90 3l-4 -84c29 19 60 29 93 29c68 0 108 -39 108 -90
c0 -63 -48 -95 -128 -95c-41 0 -78 6 -113 18l46 94h2l20 -84c1 -7 6 -11 13 -12c13 -1 23 -2 30 -2c19 0 35 7 48 21zM266 451c13 13 19 30 19 51c0 44 -30 66 -89 67v2c53 9 80 33 80 74c0 36 -18 54 -53 54c-10 0 -17 0 -22 -1s-9 -4 -12 -9l-37 -86h-2l-33 91
c37 13 73 19 110 19c73 0 110 -23 110 -69c0 -34 -24 -57 -72 -69v-2c56 -3 84 -27 84 -71c0 -51 -47 -85 -131 -85c-39 0 -75 6 -110 18l46 94h2l21 -88c1 -3 3 -6 8 -7c9 -2 19 -3 31 -3c20 0 37 7 50 20zM396 344h-336v17h336v-17z" />
    <glyph glyph-name="uni2158" unicode="&#x2158;" horiz-adv-x="456" 
d="M296 451l45 -28v-2h-167v2l48 28c5 3 7 6 7 10v33h-143v2l155 213h48v-201h13c8 0 13 3 16 8l46 84h2l-7 -106h-70v-33c0 -3 2 -7 7 -10zM242 232c-16 0 -46 1 -90 3l-4 -84c29 19 60 29 93 29c68 0 108 -39 108 -90c0 -63 -48 -95 -128 -95c-41 0 -78 6 -113 18l46 94h2
l20 -84c1 -7 6 -11 13 -12c13 -1 23 -2 30 -2c39 0 66 31 66 75s-26 66 -78 66c-23 0 -47 -5 -71 -16l-2 1l6 153c20 -1 54 -2 102 -2c17 0 31 0 42 1c23 1 37 5 43 11l7 7h2l-4 -32c-3 -26 -14 -39 -32 -40c-13 -1 -32 -1 -58 -1zM229 508v158l-114 -158h114zM396 344h-336
v17h336v-17z" />
    <glyph glyph-name="uni2159" unicode="&#x2159;" horiz-adv-x="456" 
d="M266 270c-1 3 -5 5 -12 6c-5 1 -11 1 -16 1c-51 0 -65 -44 -65 -132v-5c26 28 54 42 84 42c55 0 90 -35 90 -90s-45 -97 -114 -97c-85 0 -128 57 -128 150c0 89 47 146 135 146c31 0 63 -4 97 -13l-29 -81h-2zM335 423v-2h-208v2l67 32c5 2 7 5 7 8v192c0 5 -2 8 -7 9
l-73 25v1l140 25v-252c0 -3 3 -6 8 -8zM187 37c9 -19 24 -28 47 -28c31 0 46 27 46 80c0 47 -15 71 -45 71c-21 0 -41 -10 -62 -29c1 -44 5 -75 14 -94zM396 344h-336v17h336v-17z" />
    <glyph glyph-name="uni215A" unicode="&#x215a;" horiz-adv-x="456" 
d="M238 277c-51 0 -65 -44 -65 -132v-5c26 28 54 42 84 42c55 0 90 -35 90 -90s-45 -97 -114 -97c-85 0 -128 57 -128 150c0 89 47 146 135 146c31 0 63 -4 97 -13l-29 -81h-2l-40 73c-1 3 -5 5 -12 6c-5 1 -11 1 -16 1zM321 576c19 -17 28 -39 28 -64
c0 -63 -48 -95 -128 -95c-41 0 -78 6 -113 18l46 94h1l21 -84c1 -7 6 -11 13 -12c13 -1 23 -2 30 -2c39 0 66 31 66 75s-26 66 -78 66c-23 0 -47 -5 -71 -16l-2 1l6 153c40 -1 74 -2 102 -2c17 0 31 0 42 1c23 1 37 5 43 11l7 7h2l-4 -32c-3 -26 -14 -39 -32 -40
c-13 -1 -32 -1 -58 -1c-16 0 -46 1 -90 3l-4 -84c29 19 60 29 93 29c34 0 61 -9 80 -26zM235 160c-21 0 -41 -10 -62 -29c1 -88 16 -122 61 -122c31 0 46 27 46 80c0 47 -15 71 -45 71zM396 344h-336v17h336v-17z" />
    <glyph glyph-name="uni215B" unicode="&#x215b;" horiz-adv-x="456" 
d="M256 161l32 -12c41 -15 61 -39 61 -72c0 -45 -44 -82 -125 -82c-67 0 -115 32 -115 72c0 33 25 56 75 67c-39 17 -59 44 -59 81c0 44 40 76 103 76c61 0 104 -32 104 -68c0 -33 -25 -54 -76 -62zM261 463c0 -3 3 -6 8 -8l66 -32v-2h-208v2l67 32c5 2 7 5 7 8v192
c0 5 -2 8 -7 9l-73 24v2l140 25v-252zM290 59c0 23 -14 40 -42 51l-55 21c-17 -14 -26 -34 -26 -60c0 -35 23 -62 63 -62c41 0 60 23 60 50zM264 261c-17 21 -55 21 -71 1c-9 -11 -13 -22 -13 -35c0 -24 17 -43 51 -56l17 -7c19 14 28 33 28 58c0 15 -4 28 -12 39zM396 344
h-336v17h336v-17z" />
    <glyph glyph-name="uni215C" unicode="&#x215c;" horiz-adv-x="456" 
d="M224 -5c-67 0 -115 32 -115 72c0 33 25 56 75 67c-39 17 -59 44 -59 81c0 44 40 76 103 76c61 0 104 -32 104 -68c0 -33 -25 -54 -76 -62l32 -12c41 -16 61 -40 61 -72c0 -45 -44 -82 -125 -82zM218 417c-39 0 -75 6 -110 18l46 94h1l22 -88c1 -4 4 -6 8 -7
c9 -2 19 -3 31 -3c40 0 69 28 69 71c0 44 -30 66 -89 67v2c53 9 80 33 80 74c0 36 -18 54 -53 54c-10 0 -17 0 -22 -1s-9 -4 -12 -9l-38 -86h-1l-33 91c37 13 73 19 110 19c73 0 110 -23 110 -69c0 -34 -24 -57 -72 -69v-2c56 -3 84 -27 84 -71c0 -51 -47 -85 -131 -85z
M276 24c9 10 14 22 14 35c0 23 -14 40 -42 51l-55 21c-17 -14 -26 -34 -26 -60c0 -35 23 -62 63 -62c21 0 36 5 46 15zM228 277c-31 0 -48 -25 -48 -50c0 -24 17 -43 51 -56l17 -7c19 14 28 33 28 58c0 31 -17 55 -48 55zM396 344h-336v17h336v-17z" />
    <glyph glyph-name="uni215D" unicode="&#x215d;" horiz-adv-x="456" 
d="M224 -5c-67 0 -115 32 -115 72c0 33 25 56 75 67c-39 17 -59 44 -59 81c0 44 40 76 103 76c61 0 104 -32 104 -68c0 -33 -25 -54 -76 -62l32 -12c41 -15 61 -39 61 -72c0 -45 -44 -82 -125 -82zM321 576c19 -17 28 -39 28 -64c0 -63 -48 -95 -128 -95
c-41 0 -78 6 -113 18l46 94h1l21 -84c1 -7 6 -11 13 -12c13 -1 23 -2 30 -2c39 0 66 31 66 75s-26 66 -78 66c-23 0 -47 -5 -71 -16l-2 1l6 153c28 -1 62 -2 102 -2c17 0 31 0 42 1c23 1 37 5 43 11l7 7h2l-4 -32c-3 -26 -14 -39 -32 -40c-13 -1 -32 -1 -58 -1
c-16 0 -46 1 -90 3l-4 -84c29 19 60 29 93 29c34 0 61 -9 80 -26zM276 24c9 10 14 22 14 35c0 23 -14 40 -42 51l-55 21c-17 -14 -26 -34 -26 -60c0 -35 23 -62 63 -62c21 0 36 5 46 15zM228 277c-31 0 -48 -25 -48 -50c0 -24 17 -43 51 -56l17 -7c19 14 28 33 28 58
c0 31 -17 55 -48 55zM396 344h-336v17h336v-17z" />
    <glyph glyph-name="uni215E" unicode="&#x215e;" horiz-adv-x="456" 
d="M288 149c41 -16 61 -40 61 -72c0 -45 -44 -82 -125 -82c-67 0 -115 32 -115 72c0 33 25 56 75 67c-39 17 -59 44 -59 81c0 44 40 76 103 76c61 0 104 -32 104 -68c0 -33 -25 -54 -76 -62zM260 474c-9 -29 -15 -47 -17 -53h-78c63 114 113 195 148 242h-146
c-9 0 -15 -3 -20 -8l-26 -30h-1l10 84h241l-31 -28c-5 -3 -8 -7 -10 -12c-12 -23 -22 -48 -36 -89c-7 -21 -13 -36 -16 -46c-3 -11 -9 -31 -18 -60zM290 59c0 23 -14 40 -42 51l-55 21c-17 -14 -26 -34 -26 -60c0 -35 23 -62 63 -62c41 0 60 23 60 50zM264 261
c-17 21 -55 21 -71 1c-9 -11 -13 -22 -13 -35c0 -24 17 -43 51 -56l17 -7c19 14 28 33 28 58c0 15 -4 28 -12 39zM395 344h-335v17h335v-17z" />
    <glyph glyph-name="uni2190" unicode="&#x2190;" horiz-adv-x="706" 
d="M55 249l251 251l13 -13l-230 -229h562v-17h-562l229 -229l-12 -14z" />
    <glyph glyph-name="uni2191" unicode="&#x2191;" horiz-adv-x="612" 
d="M306 547l251 -251l-13 -13l-230 230v-562h-18v562l-228 -230l-13 13z" />
    <glyph glyph-name="uni2192" unicode="&#x2192;" horiz-adv-x="706" 
d="M55 241v17h562l-230 229l13 13l251 -251l-251 -251l-12 14l229 229h-562z" />
    <glyph glyph-name="uni2193" unicode="&#x2193;" horiz-adv-x="612" 
d="M55 185l13 13l228 -230v562h18v-562l230 230l13 -13l-251 -251z" />
    <glyph glyph-name="uni2196" unicode="&#x2196;" horiz-adv-x="539" 
d="M414 459v-17h-324l398 -397l-14 -13l-396 396v-325h-18v356h354z" />
    <glyph glyph-name="uni2197" unicode="&#x2197;" horiz-adv-x="539" 
d="M51 45l398 397h-324v17h354v-356h-18v325l-396 -396z" />
    <glyph glyph-name="uni2198" unicode="&#x2198;" horiz-adv-x="539" 
d="M51 445l14 13l396 -396v325h18v-356h-354v17h324z" />
    <glyph glyph-name="uni2199" unicode="&#x2199;" horiz-adv-x="539" 
d="M60 387h18v-325l396 396l14 -13l-398 -397h324v-17h-354v356z" />
    <glyph glyph-name="partialdiff" unicode="&#x2202;" horiz-adv-x="499" 
d="M467 278c0 -191 -74 -286 -223 -286c-59 0 -109 22 -150 66s-62 102 -62 175c0 79 19 141 57 187c38 45 85 68 142 68c53 0 92 -21 118 -63c-30 138 -102 233 -217 286l1 2l14 -3c105 -28 185 -81 239 -159s81 -169 81 -273zM138 235c0 -65 9 -119 28 -162
c19 -44 44 -66 77 -66c81 0 122 84 122 251c0 55 -4 105 -13 149c-27 35 -59 52 -97 52c-52 0 -90 -55 -105 -120c-8 -33 -12 -67 -12 -104z" />
    <glyph glyph-name="Delta" unicode="&#x2206;" horiz-adv-x="654" 
d="M31 0l244 599c9 19 6 36 -9 49l-56 53v2h155l257 -703h-591zM58 18h449l-214 576z" />
    <glyph glyph-name="product" unicode="&#x220f;" horiz-adv-x="742" 
d="M724 0h-302v2l86 47c12 5 13 8 13 20v616h-300v-616c0 -12 1 -15 13 -20l86 -47v-2h-302v2l86 47c12 5 13 8 13 20v565c0 9 -4 16 -13 20l-86 47v2h706v-2l-86 -47c-9 -4 -13 -11 -13 -20v-565c0 -12 1 -15 13 -20l86 -47v-2z" />
    <glyph glyph-name="summation" unicode="&#x2211;" horiz-adv-x="596" 
d="M543 0h-525v2l282 292l-187 343c-5 8 -14 15 -27 22l-78 42v2h516l12 -206h-2l-96 170c-7 12 -16 18 -29 18h-215l186 -335l-321 -332h359c17 0 29 4 34 13l89 172h2v-203z" />
    <glyph glyph-name="minus" unicode="&#x2212;" 
d="M490 331v-17h-440v17h440z" />
    <glyph glyph-name="uni2215" unicode="&#x2215;" horiz-adv-x="48" 
d="M-225 3l503 710l15 -12l-503 -711z" />
    <glyph glyph-name="uni2219" unicode="&#x2219;" horiz-adv-x="225" 
d="M50 425c0 36 27 64 62 64c36 0 63 -28 63 -64c0 -35 -27 -62 -63 -62c-35 0 -62 27 -62 62z" />
    <glyph glyph-name="radical" unicode="&#x221a;" 
d="M58 444l17 7l141 -400l247 704l17 -5l-263 -750h-2z" />
    <glyph glyph-name="infinity" unicode="&#x221e;" horiz-adv-x="762" 
d="M458 411c16 13 50 41 78 49c13 4 28 6 44 6c38 0 70 -14 95 -43s37 -61 37 -98s-12 -69 -37 -98s-57 -43 -95 -43c-32 0 -58 8 -87 29c-15 11 -26 20 -35 27s-22 20 -39 38c-18 17 -31 29 -38 36c-7 -7 -20 -19 -37 -36c-18 -18 -31 -31 -40 -38s-20 -16 -35 -27
c-29 -21 -56 -29 -87 -29c-38 0 -69 14 -94 43s-38 61 -38 98s13 69 38 98s56 43 94 43c31 0 56 -6 87 -29c15 -11 27 -20 35 -26c7 -7 21 -19 40 -38l37 -37l37 37c19 19 32 31 40 38zM467 253c15 -13 47 -39 72 -46c13 -4 26 -6 41 -6c34 0 62 13 83 38s31 53 31 86
s-10 62 -31 87s-49 37 -83 37c-29 0 -53 -6 -81 -26c-14 -11 -25 -19 -32 -26s-20 -19 -37 -36c-18 -18 -30 -30 -37 -36c7 -6 19 -18 37 -35c17 -18 30 -30 37 -37zM68 325c0 -33 11 -61 32 -86s48 -38 82 -38c28 0 52 6 81 27c14 11 25 19 32 25s20 18 38 36l36 36
c-8 7 -20 19 -37 36s-29 29 -37 36c-9 7 -20 16 -33 26c-27 19 -51 26 -80 26c-34 0 -61 -12 -82 -37s-32 -54 -32 -87z" />
    <glyph glyph-name="integral" unicode="&#x222b;" horiz-adv-x="410" 
d="M388 565h-2l-49 120c-5 13 -5 13 -24 13c-44 0 -66 -39 -66 -117v-579c0 -164 -50 -238 -155 -238c-43 0 -87 9 -132 26l51 122h2l48 -119c5 -13 9 -17 25 -17c29 0 48 12 56 36s10 43 10 79v632c0 135 51 190 160 190c43 0 85 -9 127 -26z" />
    <glyph glyph-name="approxequal" unicode="&#x2248;" 
d="M44 208c27 45 64 67 112 67c31 0 70 -11 117 -33s83 -33 110 -33c41 0 74 20 98 59l15 -9c-27 -45 -64 -67 -113 -67c-31 0 -69 11 -116 33s-84 33 -111 33c-41 0 -73 -20 -97 -59zM496 437c-27 -45 -64 -67 -113 -67c-31 0 -69 11 -116 33s-84 33 -111 33
c-41 0 -73 -20 -97 -59l-15 9c27 45 64 67 112 67c31 0 70 -11 117 -33s83 -33 110 -33c41 0 74 20 98 59z" />
    <glyph glyph-name="notequal" unicode="&#x2260;" 
d="M490 404h-165l-89 -161h254v-17h-264l-59 -107l-16 9l54 98h-155v17h165l89 161h-254v17h264l57 103l16 -9l-52 -94h155v-17z" />
    <glyph glyph-name="lessequal" unicode="&#x2264;" 
d="M71 372v2l387 128l6 -17l-345 -112l345 -112l-6 -17zM490 123v-17h-440v17h440z" />
    <glyph glyph-name="greaterequal" unicode="&#x2265;" 
d="M76 261l345 112l-345 112l6 17l387 -128v-2l-387 -128zM50 123h440v-17h-440v17z" />
    <glyph glyph-name="lozenge" unicode="&#x25ca;" 
d="M269 729h2l219 -405l-219 -405h-2l-219 405zM71 324l199 -367l199 367l-199 367z" />
    <glyph glyph-name="commaaccent" unicode="&#xf6c3;" horiz-adv-x="210" 
d="M50 -243c33 21 51 48 54 79c1 6 -2 10 -9 11c-27 4 -44 25 -44 54c0 31 24 54 53 54c33 0 56 -23 56 -62c0 -31 -10 -59 -31 -86c-21 -26 -47 -43 -78 -52z" />
    <glyph glyph-name="apple" unicode="&#xf8ff;" horiz-adv-x="1254" 
d="M1049 556c-8 0 -22 1 -42 2c-21 1 -34 2 -41 2c-73 0 -115 -36 -146 -107c-31 -74 -83 -111 -154 -111c-7 0 -21 1 -41 2s-33 1 -39 1c-72 0 -106 -32 -137 -101c-35 -76 -79 -119 -164 -119c-9 0 -23 1 -42 2c-20 1 -34 2 -41 2c-38 0 -69 -10 -93 -31s-36 -46 -36 -76
c0 -11 0 -18 1 -22h-18c-1 5 -1 12 -1 22c0 36 14 66 42 90c27 23 63 35 106 35c8 0 22 -1 43 -2c20 -1 33 -2 40 -2c68 0 117 36 147 109c31 74 82 111 153 111c7 0 21 0 41 -1s33 -2 39 -2c71 0 107 33 138 100c35 76 78 118 163 118c9 0 23 -1 43 -2c19 -1 33 -2 40 -2
c38 0 69 11 94 32s37 46 37 75c0 11 0 18 -1 22h18c1 -5 1 -12 1 -22c0 -35 -14 -65 -42 -89c-29 -24 -65 -36 -108 -36z" />
    <glyph glyph-name="commatop" horiz-adv-x="210" 
d="M82 691c21 26 46 43 77 52l1 -2c-33 -21 -51 -48 -54 -79c-1 -6 2 -10 9 -11c27 -4 44 -25 44 -54c0 -31 -24 -54 -53 -54c-33 0 -56 23 -56 62c0 31 11 59 32 86z" />
    <glyph glyph-name="zero.sups" horiz-adv-x="280" 
d="M48 458c-21 27 -32 63 -32 107s11 80 32 107s52 41 92 41c81 0 124 -60 124 -149c0 -88 -43 -147 -124 -147c-40 0 -71 14 -92 41zM85 565c0 -96 11 -134 55 -134c45 0 55 37 55 133c0 99 -10 135 -55 135c-44 0 -55 -38 -55 -134z" />
    <glyph glyph-name="two.sups" horiz-adv-x="280" 
d="M251 518l-10 -97h-231v3c55 48 90 79 105 94c43 40 64 78 64 115c0 44 -21 66 -63 66c-7 0 -13 0 -16 -1c-5 -1 -9 -4 -11 -9l-37 -86h-2l-32 91c37 13 71 19 104 19c79 0 125 -29 125 -82c0 -29 -12 -54 -36 -75s-66 -48 -127 -81v-2h101c11 0 20 2 25 7l39 38h2z" />
    <glyph glyph-name="one.sups" horiz-adv-x="240" 
d="M16 690l140 25v-252c0 -3 3 -6 8 -8l66 -32v-2h-208v2l67 32c5 2 7 5 7 8v192c0 5 -2 8 -7 9l-73 24v2z" />
    <glyph glyph-name="four.sups" horiz-adv-x="280" 
d="M278 600l-7 -106h-70v-33c0 -3 2 -7 7 -10l45 -28v-2h-167v2l48 28c5 3 7 6 7 10v33h-143v2l155 213h48v-201h13c8 0 13 3 16 8l46 84h2zM27 508h114v158z" />
    <glyph glyph-name="five.sups" horiz-adv-x="280" 
d="M245 727l-4 -32c-3 -26 -14 -39 -32 -40c-13 -1 -32 -1 -58 -1c-16 0 -46 1 -90 3l-4 -84c29 19 60 29 93 29c68 0 108 -39 108 -90c0 -63 -48 -95 -128 -95c-41 0 -78 6 -113 18l46 94h2l20 -84c1 -7 6 -11 13 -12c13 -1 23 -2 30 -2c39 0 66 31 66 75s-26 66 -78 66
c-23 0 -47 -5 -71 -16l-2 1l6 153c45 -1 79 -2 102 -2c17 0 31 0 42 1c23 1 37 5 43 11l7 7h2z" />
    <glyph glyph-name="six.sups" horiz-adv-x="280" 
d="M260 514c0 -55 -45 -97 -114 -97c-85 0 -128 57 -128 150c0 89 47 146 135 146c31 0 63 -4 97 -13l-29 -81h-2l-40 73c-1 3 -5 5 -12 6c-5 1 -11 1 -16 1c-51 0 -65 -44 -65 -132v-5c26 28 54 42 84 42c55 0 90 -35 90 -90zM100 459c9 -19 24 -28 47 -28
c31 0 46 27 46 80c0 47 -15 71 -45 71c-21 0 -41 -10 -62 -29c1 -44 5 -75 14 -94z" />
    <glyph glyph-name="seven.sups" horiz-adv-x="280" 
d="M26 709h241l-31 -28c-5 -3 -8 -7 -10 -12c-12 -23 -22 -48 -36 -89c-7 -21 -13 -36 -16 -46c-3 -11 -9 -31 -18 -60s-15 -47 -17 -53h-78c63 114 113 195 148 242h-146c-9 0 -15 -3 -20 -8l-25 -30h-2z" />
    <glyph glyph-name="eight.sups" horiz-adv-x="280" 
d="M229 441c-21 -16 -52 -24 -93 -24c-67 0 -115 32 -115 72c0 33 25 56 75 67c-39 17 -59 44 -59 81c0 44 40 76 103 76c61 0 104 -32 104 -68c0 -33 -25 -54 -76 -62l32 -12c41 -16 61 -40 61 -72c0 -23 -11 -42 -32 -58zM79 493c0 -35 23 -62 63 -62c41 0 60 23 60 50
c0 23 -14 40 -42 51l-55 21c-17 -14 -26 -34 -26 -60zM92 649c0 -24 17 -43 51 -56l17 -7c19 14 28 33 28 58c0 31 -17 55 -48 55s-48 -25 -48 -50z" />
    <glyph glyph-name="nine.sups" horiz-adv-x="280" 
d="M228 457c-23 -27 -57 -40 -101 -40c-31 0 -63 4 -97 13l29 81h2l40 -73c1 -3 5 -5 12 -6c5 -1 11 -1 16 -1c51 0 65 44 65 132v4c-25 -27 -53 -41 -84 -41c-51 0 -90 37 -90 90c0 56 43 97 114 97c85 0 128 -50 128 -150c0 -45 -11 -80 -34 -106zM132 548
c20 0 41 10 62 29c-1 87 -16 122 -61 122c-31 0 -46 -27 -46 -80c0 -47 15 -71 45 -71z" />
    <glyph glyph-name="three.sups" horiz-adv-x="280" 
d="M224 441c-23 -16 -55 -24 -97 -24c-39 0 -75 6 -110 18l46 94h2l21 -88c1 -4 4 -6 8 -7c9 -2 20 -3 31 -3c40 0 69 28 69 71c0 44 -30 66 -89 67v2c53 9 80 33 80 74c0 36 -18 54 -53 54c-10 0 -17 0 -22 -1s-9 -4 -12 -9l-37 -86h-2l-33 91c37 13 73 19 110 19
c73 0 110 -23 110 -69c0 -34 -24 -57 -72 -69v-2c56 -3 84 -27 84 -71c0 -25 -11 -46 -34 -61z" />
    <glyph glyph-name="caronslovak" horiz-adv-x="201" 
d="M59 703h92l-100 -191h-1z" />
    <glyph glyph-name="zero.subs" horiz-adv-x="280" 
d="M48 36c-21 27 -32 63 -32 107s11 80 32 107s52 41 92 41c81 0 124 -60 124 -149c0 -88 -43 -147 -124 -147c-40 0 -71 14 -92 41zM85 143c0 -96 11 -134 55 -134c45 0 55 37 55 133c0 99 -10 135 -55 135c-44 0 -55 -38 -55 -134z" />
    <glyph glyph-name="one.subs" horiz-adv-x="240" 
d="M16 268l140 25v-252c0 -3 3 -6 8 -8l66 -32v-2h-208v2l67 32c5 2 7 5 7 8v192c0 5 -2 8 -7 9l-73 24v2z" />
    <glyph glyph-name="two.subs" horiz-adv-x="280" 
d="M251 96l-10 -97h-231v3c55 48 90 79 105 94c43 40 64 78 64 115c0 44 -21 66 -63 66c-7 0 -13 0 -16 -1c-5 -1 -9 -4 -11 -9l-37 -86h-2l-32 91c37 13 71 19 104 19c79 0 125 -29 125 -82c0 -29 -12 -54 -36 -75s-66 -48 -127 -81v-2h101c11 0 20 2 25 7l39 38h2z" />
    <glyph glyph-name="three.subs" horiz-adv-x="280" 
d="M224 19c-23 -16 -55 -24 -97 -24c-39 0 -75 6 -110 18l46 94h2l21 -88c1 -4 4 -6 8 -7c9 -2 19 -3 31 -3c40 0 69 28 69 71c0 44 -30 66 -89 67v2c53 9 80 33 80 74c0 36 -18 54 -53 54c-10 0 -17 0 -22 -1s-9 -4 -12 -9l-37 -86h-2l-33 91c37 13 73 19 110 19
c73 0 110 -23 110 -69c0 -34 -24 -57 -72 -69v-2c56 -3 84 -27 84 -71c0 -25 -11 -46 -34 -61z" />
    <glyph glyph-name="four.subs" horiz-adv-x="280" 
d="M280 178l-7 -106h-70v-33c0 -3 2 -7 7 -10l45 -28v-2h-167v2l48 28c5 3 7 6 7 10v33h-143v2l155 213h48v-201h13c8 0 13 3 16 8l46 84h2zM29 86h114v158z" />
    <glyph glyph-name="five.subs" horiz-adv-x="280" 
d="M245 305l-4 -32c-3 -26 -14 -39 -32 -40c-13 -1 -32 -1 -58 -1c-16 0 -46 1 -90 3l-4 -84c29 19 60 29 93 29c68 0 108 -39 108 -90c0 -63 -48 -95 -128 -95c-41 0 -78 6 -113 18l46 94h2l20 -84c1 -7 6 -11 13 -12c13 -1 23 -2 30 -2c39 0 66 31 66 75s-26 66 -78 66
c-23 0 -47 -5 -71 -16l-2 1l6 153c45 -1 79 -2 102 -2c17 0 31 0 42 1c23 1 37 5 43 11l7 7h2z" />
    <glyph glyph-name="six.subs" horiz-adv-x="280" 
d="M260 92c0 -55 -45 -97 -114 -97c-85 0 -128 57 -128 150c0 89 47 146 135 146c31 0 63 -4 97 -13l-29 -81h-2l-40 73c-1 3 -5 5 -12 6c-5 1 -11 1 -16 1c-51 0 -65 -44 -65 -132v-5c26 28 54 42 84 42c55 0 90 -35 90 -90zM100 37c9 -19 24 -28 47 -28c31 0 46 27 46 80
c0 47 -15 71 -45 71c-21 0 -41 -10 -62 -29c1 -44 5 -75 14 -94z" />
    <glyph glyph-name="seven.subs" horiz-adv-x="280" 
d="M26 287h241l-31 -28c-5 -3 -8 -7 -10 -12c-12 -23 -22 -48 -36 -89c-7 -21 -13 -36 -16 -46c-3 -11 -9 -31 -18 -60s-15 -47 -17 -53h-78c63 114 113 195 148 242h-146c-9 0 -15 -3 -20 -8l-25 -30h-2z" />
    <glyph glyph-name="eight.subs" horiz-adv-x="280" 
d="M229 19c-21 -16 -52 -24 -93 -24c-67 0 -115 32 -115 72c0 33 25 56 75 67c-39 17 -59 44 -59 81c0 44 40 76 103 76c61 0 104 -32 104 -68c0 -33 -25 -54 -76 -62l32 -12c41 -16 61 -40 61 -72c0 -23 -11 -42 -32 -58zM79 71c0 -35 23 -62 63 -62c41 0 60 23 60 50
c0 23 -14 40 -42 51l-55 21c-17 -14 -26 -34 -26 -60zM92 227c0 -24 17 -43 51 -56l17 -7c19 14 28 33 28 58c0 31 -17 55 -48 55s-48 -25 -48 -50z" />
    <glyph glyph-name="nine.subs" horiz-adv-x="280" 
d="M228 35c-23 -27 -57 -40 -101 -40c-31 0 -63 4 -97 13l29 81h2l40 -73c1 -3 5 -5 12 -6c5 -1 11 -1 16 -1c51 0 65 44 65 132v4c-25 -27 -53 -41 -84 -41c-51 0 -90 37 -90 90c0 56 43 97 114 97c85 0 128 -50 128 -150c0 -45 -11 -80 -34 -106zM132 126
c20 0 41 10 62 29c-1 87 -16 122 -61 122c-31 0 -46 -27 -46 -80c0 -47 15 -71 45 -71z" />
    <glyph glyph-name="parenleft.sups" horiz-adv-x="177" 
d="M30 558c0 100 48 177 136 212l1 -2c-49 -49 -74 -119 -74 -210c0 -90 25 -160 74 -209l-1 -2c-88 35 -136 112 -136 211z" />
    <glyph glyph-name="parenright.sups" horiz-adv-x="177" 
d="M11 770c88 -35 136 -112 136 -212c0 -99 -48 -176 -136 -211l-1 2c49 49 74 119 74 209c0 91 -25 161 -74 210z" />
    <glyph glyph-name="parenleft.subs" horiz-adv-x="177" 
d="M30 145c0 100 48 177 136 212l1 -2c-49 -49 -74 -119 -74 -210c0 -90 25 -160 74 -209l-1 -2c-88 35 -136 112 -136 211z" />
    <glyph glyph-name="parenright.subs" horiz-adv-x="177" 
d="M11 357c88 -35 136 -112 136 -212c0 -99 -48 -176 -136 -211l-1 2c49 49 74 119 74 209c0 91 -25 161 -74 210z" />
    <glyph glyph-name="endash.case" horiz-adv-x="500" 
d="M5 356h490v-17h-490v17z" />
    <glyph glyph-name="emdash.case" horiz-adv-x="1000" 
d="M5 356h990v-17h-990v17z" />
    <glyph glyph-name="parenleft.case" horiz-adv-x="318" 
d="M53 344c0 169 50 296 149 382c30 26 65 47 104 64l2 -2c-32 -27 -59 -58 -81 -94c-53 -88 -80 -205 -80 -350s27 -262 80 -350c22 -36 49 -67 81 -94l-2 -2c-39 17 -74 38 -104 64c-99 86 -149 213 -149 382z" />
    <glyph glyph-name="parenright.case" horiz-adv-x="318" 
d="M10 788l2 2c39 -17 74 -38 104 -64c99 -86 149 -213 149 -382s-50 -296 -149 -382c-30 -26 -65 -47 -104 -64l-2 2c32 27 59 58 81 94c53 88 80 205 80 350s-27 262 -80 350c-22 36 -49 67 -81 94z" />
    <glyph glyph-name="bracketleft.case" horiz-adv-x="340" 
d="M80 780l250 -15v-2l-158 -43c-12 -3 -12 -3 -12 -15v-721c0 -12 0 -12 12 -15l158 -43v-2l-250 -15v871z" />
    <glyph glyph-name="bracketright.case" horiz-adv-x="340" 
d="M10 763v2l250 15v-871l-250 15v2l158 43c12 3 12 3 12 15v721c0 12 0 12 -12 15z" />
    <glyph glyph-name="braceleft.case" horiz-adv-x="351" 
d="M341 -82c-23 -5 -44 -8 -65 -8c-47 0 -90 17 -127 51s-53 77 -46 130l20 170c5 44 -29 78 -88 83v2c59 5 93 39 88 83l-20 170c-7 53 9 96 46 130s80 51 127 51c21 0 42 -3 65 -8v-2c-54 4 -94 -10 -119 -43c-26 -33 -37 -68 -33 -105l19 -173c5 -49 -30 -90 -74 -103v-2
c44 -13 79 -54 74 -103l-19 -173c-4 -37 7 -72 33 -105c25 -33 65 -47 119 -43v-2z" />
    <glyph glyph-name="braceright.case" horiz-adv-x="351" 
d="M316 344c-59 -5 -93 -39 -88 -83l20 -170c7 -53 -9 -96 -46 -130s-80 -51 -127 -51c-21 0 -42 3 -65 8v2c54 -4 94 10 120 43c25 33 36 68 32 105l-19 173c-5 49 30 90 74 103v2c-44 13 -79 54 -74 103l19 173c4 37 -7 72 -32 105c-26 33 -66 47 -120 43v2
c23 5 44 8 65 8c47 0 90 -17 127 -51s53 -77 46 -130l-20 -170c-5 -44 29 -78 88 -83v-2z" />
    <glyph glyph-name="slash.case" horiz-adv-x="380" 
d="M33 -88l297 885l17 -6l-297 -885z" />
    <glyph glyph-name="bar.case" horiz-adv-x="218" 
d="M100 820h18v-1000h-18v1000z" />
    <glyph glyph-name="backslash.case" horiz-adv-x="380" 
d="M50 797l297 -885l-17 -6l-297 885z" />
    <glyph glyph-name="guilsinglleft.case" horiz-adv-x="263" 
d="M30 339v2l202 199l1 -1l-98 -199l98 -199l-1 -1z" />
    <glyph glyph-name="guilsinglright.case" horiz-adv-x="263" 
d="M31 540l202 -199v-2l-202 -199l-1 1l98 199l-98 199z" />
    <glyph glyph-name="guillemotleft.case" horiz-adv-x="433" 
d="M200 341l202 199l1 -1l-98 -199l98 -199l-1 -1l-202 199v2zM30 339v2l202 199l1 -1l-98 -199l98 -199l-1 -1z" />
    <glyph glyph-name="guillemotright.case" horiz-adv-x="433" 
d="M298 340l-98 199l1 1l202 -199v-2l-202 -199l-1 1zM30 539l1 1l202 -199v-2l-202 -199l-1 1l98 199z" />
    <glyph glyph-name="exclamdown.case" horiz-adv-x="230" 
d="M50 1l67 489h2l61 -489h-130zM53 650c0 35 27 62 63 62c35 0 62 -27 62 -62c0 -36 -27 -64 -62 -64c-36 0 -63 28 -63 64z" />
    <glyph glyph-name="questiondown.case" horiz-adv-x="438" 
d="M423 39c-62 -30 -128 -45 -199 -45c-57 0 -103 13 -140 39s-56 62 -56 108c0 44 24 89 72 136l83 83c25 25 42 47 51 66c9 18 11 41 6 68l1 2c38 -21 57 -49 57 -85c0 -27 -19 -60 -34 -76c-7 -9 -19 -22 -34 -39l-56 -61c-34 -37 -51 -75 -51 -116
c0 -65 47 -109 115 -109c15 0 29 1 40 4c19 4 19 5 24 17l66 157h2zM205 697c12 12 27 18 45 18c35 0 62 -27 62 -62c0 -36 -27 -64 -62 -64c-36 0 -63 28 -63 64c0 17 6 32 18 44z" />
    <glyph glyph-name="hyphen.case" horiz-adv-x="351" 
d="M306 357v-18h-260v18h260z" />
    <glyph glyph-name="smiley" horiz-adv-x="818" 
d="M409 -10c-108 0 -195 35 -260 104c-66 69 -99 155 -99 258c0 102 35 188 105 257c69 69 154 104 254 104c105 0 191 -33 258 -100s101 -154 101 -261c0 -103 -33 -189 -99 -258c-67 -69 -153 -104 -260 -104zM654 600c-64 64 -146 96 -245 96c-95 0 -176 -33 -242 -99
s-99 -148 -99 -245c0 -99 31 -181 94 -246c62 -66 144 -99 247 -99c101 0 184 33 247 99c63 65 94 147 94 246c0 101 -32 184 -96 248zM627 273c-25 5 -36 21 -34 50h2c7 -20 24 -30 49 -30c17 0 30 5 39 16l2 -1c-7 -25 -21 -37 -42 -36c-4 -55 -27 -101 -70 -137
s-98 -54 -164 -54s-120 18 -163 54s-67 82 -72 137c-21 -1 -35 11 -42 36l2 1c9 -11 22 -16 39 -16c20 0 42 11 49 30h2c1 -28 -11 -44 -34 -49c5 -51 27 -93 66 -126s90 -50 153 -50c62 0 112 17 151 50s61 74 67 125zM465 456c0 101 11 160 25 160c17 0 26 -53 26 -160
c0 -103 -9 -154 -26 -154c-14 0 -25 58 -25 154zM328 616c14 0 25 -59 25 -160c0 -96 -11 -154 -25 -154c-17 0 -26 51 -26 154c0 107 9 160 26 160z" />
    <glyph glyph-name="parenleft.salt" horiz-adv-x="275" 
d="M53 291c0 86 18 170 53 253c35 82 85 146 150 192l9 -13c-62 -45 -110 -107 -143 -186c-34 -80 -51 -162 -51 -246s17 -166 51 -245c33 -80 81 -142 143 -187l-9 -13c-65 46 -115 110 -150 193c-35 82 -53 166 -53 252z" />
    <glyph glyph-name="parenright.salt" horiz-adv-x="275" 
d="M10 723l9 13c65 -46 116 -110 151 -192c69 -165 70 -341 0 -505c-35 -83 -86 -147 -151 -193l-9 13c62 45 110 107 144 187c33 79 50 161 50 245s-17 166 -50 246c-34 79 -82 141 -144 186z" />
    <glyph glyph-name="bracketleft.salt" horiz-adv-x="257" 
d="M80 -139v859h167v-17h-149v-825h149v-17h-167z" />
    <glyph glyph-name="bracketright.salt" horiz-adv-x="257" 
d="M10 -139v17h149v825h-149v17h167v-859h-167z" />
    <glyph glyph-name="braceleft.salt" horiz-adv-x="245" 
d="M235 -134c-21 -5 -38 -7 -53 -7c-73 0 -120 35 -120 107c0 18 4 40 11 65l44 149c5 15 7 28 7 39c0 43 -30 65 -89 65v17c59 0 89 22 89 65c0 11 -2 24 -7 39l-44 149c-8 27 -12 49 -12 65c0 73 46 107 121 107c15 0 32 -2 53 -7l-3 -16c-18 4 -35 6 -52 6
c-67 0 -101 -30 -101 -89c0 -16 4 -36 11 -60l44 -155c5 -16 7 -29 7 -39c0 -41 -20 -65 -60 -73v-1c40 -8 60 -32 60 -73c0 -10 -2 -23 -7 -39l-44 -155c-7 -22 -10 -42 -10 -60c0 -59 33 -89 100 -89c17 0 34 2 52 6z" />
    <glyph glyph-name="braceright.salt" horiz-adv-x="245" 
d="M210 284c-59 0 -89 -22 -89 -65c0 -11 2 -24 7 -39l44 -149c7 -25 11 -47 11 -65c0 -72 -47 -107 -120 -107c-14 0 -32 2 -53 7l3 16c18 -4 35 -6 52 -6c67 0 100 30 100 89c0 18 -3 38 -10 60l-44 155c-5 16 -7 29 -7 39c0 41 20 65 60 73v1c-40 8 -60 32 -60 73
c0 9 2 22 7 39l44 155c7 24 11 44 11 60c0 59 -34 89 -101 89c-17 0 -34 -2 -52 -6l-3 16c21 5 38 7 53 7c75 0 121 -34 121 -107c0 -16 -4 -38 -12 -65l-44 -149c-5 -15 -7 -28 -7 -39c0 -43 30 -65 89 -65v-17z" />
    <glyph glyph-name="guilsinglleft.salt" horiz-adv-x="269" 
d="M226 450l13 -12l-185 -186l185 -187l-13 -12l-196 199z" />
    <glyph glyph-name="guilsinglright.salt" horiz-adv-x="269" 
d="M30 65l185 187l-185 186l13 12l196 -198l-196 -199z" />
    <glyph glyph-name="guillemotleft.salt" horiz-adv-x="429" 
d="M190 252l196 198l13 -12l-185 -186l185 -187l-13 -12zM30 252l196 198l13 -12l-185 -186l185 -187l-13 -12z" />
    <glyph glyph-name="guillemotright.salt" horiz-adv-x="429" 
d="M190 66l185 186l-185 187l13 12l196 -199l-196 -198zM30 66l185 186l-185 187l13 12l196 -199l-196 -198z" />
    <glyph glyph-name="parenleft.salt.case" horiz-adv-x="275" 
d="M53 343c0 86 18 170 53 253c35 82 85 146 150 192l9 -13c-62 -45 -110 -107 -143 -186c-34 -80 -51 -162 -51 -246s17 -166 51 -245c33 -80 81 -142 143 -187l-9 -13c-65 46 -115 110 -150 193c-35 82 -53 166 -53 252z" />
    <glyph glyph-name="parenright.salt.case" horiz-adv-x="275" 
d="M10 775l9 13c65 -46 116 -110 151 -192c69 -165 70 -341 0 -505c-35 -83 -86 -147 -151 -193l-9 13c62 45 110 107 144 187c33 79 50 161 50 245s-17 166 -50 246c-34 79 -82 141 -144 186z" />
    <glyph glyph-name="bracketleft.salt.case" horiz-adv-x="257" 
d="M80 -87v859h167v-17h-149v-825h149v-17h-167z" />
    <glyph glyph-name="bracketright.salt.case" horiz-adv-x="257" 
d="M10 -87v17h149v825h-149v17h167v-859h-167z" />
    <glyph glyph-name="braceleft.salt.case" horiz-adv-x="245" 
d="M232 755c-18 4 -35 6 -52 6c-67 0 -101 -30 -101 -89c0 -16 4 -36 11 -60l44 -155c5 -17 7 -30 7 -39c0 -41 -20 -65 -60 -73v-1c40 -8 60 -32 60 -73c0 -10 -2 -23 -7 -39l-44 -155c-7 -22 -10 -42 -10 -60c0 -59 33 -89 100 -89c17 0 34 2 52 6l3 -16
c-21 -5 -38 -7 -53 -7c-73 0 -120 35 -120 107c0 18 4 40 11 65l44 149c5 15 7 28 7 39c0 43 -30 65 -89 65v17c59 0 89 22 89 65c0 11 -2 24 -7 39l-44 149c-8 27 -12 49 -12 65c0 73 46 107 121 107c15 0 32 -2 53 -7z" />
    <glyph glyph-name="braceright.salt.case" horiz-adv-x="245" 
d="M210 336c-59 0 -89 -22 -89 -65c0 -11 2 -24 7 -39l44 -149c7 -25 11 -47 11 -65c0 -72 -47 -107 -120 -107c-14 0 -32 2 -53 7l3 16c18 -4 35 -6 52 -6c67 0 100 30 100 89c0 18 -3 38 -10 60l-44 155c-5 16 -7 29 -7 39c0 41 20 65 60 73v1c-40 8 -60 32 -60 73
c0 9 2 22 7 39l44 155c7 24 11 44 11 60c0 59 -34 89 -101 89c-17 0 -34 -2 -52 -6l-3 16c21 5 38 7 53 7c75 0 121 -34 121 -107c0 -16 -4 -38 -12 -65l-44 -149c-5 -15 -7 -28 -7 -39c0 -43 30 -65 89 -65v-17z" />
    <glyph glyph-name="guilsinglleft.salt.case" horiz-adv-x="269" 
d="M226 540l13 -12l-185 -186l185 -187l-13 -12l-196 199z" />
    <glyph glyph-name="guilsinglright.salt.case" horiz-adv-x="269" 
d="M30 155l185 187l-185 186l13 12l196 -198l-196 -199z" />
    <glyph glyph-name="guillemotleft.salt.case" horiz-adv-x="429" 
d="M190 342l196 198l13 -12l-185 -186l185 -187l-13 -12zM30 342l196 198l13 -12l-185 -186l185 -187l-13 -12z" />
    <glyph glyph-name="guillemotright.salt.case" horiz-adv-x="429" 
d="M190 156l185 186l-185 187l13 12l196 -199l-196 -198zM30 156l185 186l-185 187l13 12l196 -199l-196 -198z" />
    <glyph glyph-name="jacute" horiz-adv-x="259" 
d="M-1 -213c-14 0 -27 1 -38 4v2c88 8 132 63 132 202v417c0 10 -4 18 -11 23l-68 50v2h174v-467c0 -67 -16 -123 -47 -167c-32 -44 -79 -66 -142 -66zM165 703h121v-2l-208 -161l-2 2z" />
    <glyph glyph-name="Jacute" horiz-adv-x="308" 
d="M305 701l-86 -47c-12 -7 -13 -9 -13 -20v-607c0 -68 -20 -122 -61 -162s-94 -65 -160 -76l-1 2c83 39 118 128 118 233v610c0 9 -4 15 -13 20l-86 47v2h302v-2zM92 758l89 161h121v-2l-208 -161z" />
    <glyph glyph-name="Iacute_Jacute" horiz-adv-x="646" 
d="M440 634c0 9 -4 15 -13 20l-86 47v2h302v-2l-86 -47c-12 -7 -13 -9 -13 -20v-607c0 -68 -20 -122 -61 -162s-94 -65 -160 -76l-1 2c83 39 118 128 118 233v610zM320 703v-2l-86 -47c-12 -7 -13 -9 -13 -20v-565c0 -12 1 -15 13 -20l86 -47v-2h-302v2l86 47
c9 5 13 11 13 20v565c0 9 -4 15 -13 20l-86 47v2h302zM196 919h121v-2l-208 -161l-2 2zM430 758l89 161h121v-2l-208 -161z" />
    <glyph glyph-name="i.trk" horiz-adv-x="285" 
d="M276 0h-253v2l68 40c7 4 11 11 11 22v348c0 10 -4 18 -11 23l-68 50v2h174v-423c0 -9 4 -16 12 -21l67 -41v-2zM100 665c33 37 105 10 102 -44c0 -16 -6 -30 -17 -41c-35 -40 -106 -9 -102 41c0 17 6 32 17 44z" />
    </font>
</defs>
</svg>
