<?xml version="1.0" standalone="no"?>
<!DOCTYPE svg PUBLIC "-//W3C//DTD SVG 1.1//EN" "http://www.w3.org/Graphics/SVG/1.1/DTD/svg11.dtd" >
<svg xmlns="http://www.w3.org/2000/svg" xmlns:xlink="http://www.w3.org/1999/xlink" version="1.1">
<metadata>
Created by FontForge 20190801 at Wed Nov 27 10:57:07 2019
 By Jimmy Wärting
Copyright \(c\) 2013 Schick Toikka. All rights reserved. Noe Display is a trademark of Schick Toikka. Unauthorised copying or modification of any of its data is illegal.
</metadata>
<defs>
<font id="NoeDisplay-MediumItalic" horiz-adv-x="295" >
  <font-face 
    font-family="Noe Display"
    font-weight="500"
    font-style="italic"
    font-stretch="normal"
    units-per-em="1000"
    panose-1="2 10 6 0 9 4 0 0 0 2"
    ascent="750"
    descent="-250"
    x-height="498"
    cap-height="703"
    bbox="-297 -253 1199 979"
    underline-thickness="18"
    underline-position="-100"
    slope="-12"
    stemh="31"
    stemv="124"
    unicode-range="U+0020-FB02"
  />
<missing-glyph horiz-adv-x="600" 
d="M549 -250h-487v1000h487v-1000zM297 250l-216 467v-932zM316 251l215 -463v926zM306 230l-214 -462h429zM92 732l214 -461l214 461h-428z" />
    <glyph glyph-name="fi" unicode="fi" horiz-adv-x="562" 
d="M389 679c-4 8 -7 13 -9 15c-3 2 -8 3 -15 3c-39 0 -69 -22 -89 -66s-31 -84 -43 -149h156c9 0 20 1 35 2l105 14l-90 -338c-10 -39 -15 -63 -15 -73c0 -18 8 -27 23 -27s30 10 44 29c20 27 35 64 45 113h2c-5 -53 -23 -102 -53 -145c-31 -43 -66 -65 -107 -65
c-44 0 -71 29 -71 76c0 24 4 51 12 80l80 295c4 14 -1 21 -14 21h-155l-58 -300c-29 -151 -68 -262 -144 -341c-39 -39 -83 -59 -132 -59c-34 0 -62 7 -83 22l62 158h2l43 -139c4 -12 9 -18 16 -18c8 0 16 5 24 14c27 31 54 123 83 278c3 15 6 27 7 35l49 264
c8 44 14 73 18 86h-77v18h81c40 147 112 231 255 231c53 0 99 -8 138 -24l-61 -146h-2z" />
    <glyph glyph-name="fl" unicode="fl" horiz-adv-x="549" 
d="M351 482v-18h-122l-57 -300c-21 -111 -50 -200 -94 -277s-107 -123 -182 -123c-34 0 -62 7 -83 22l62 158h2l43 -139c4 -12 9 -18 16 -18c8 0 16 5 25 16c35 43 55 128 84 283c2 13 4 22 5 28l57 299c4 23 7 40 10 51h-77v18h82c37 145 104 231 224 231
c28 0 58 -10 90 -30l125 41l-131 -566c-8 -33 -12 -56 -12 -69c0 -19 8 -29 23 -29s30 10 44 29c19 26 34 64 45 113h2c-7 -65 -28 -118 -62 -157c-31 -35 -64 -53 -99 -53c-45 0 -72 32 -72 77c0 19 4 45 12 80l116 503c2 8 0 15 -7 21c-21 16 -42 24 -65 24
c-36 0 -62 -21 -81 -65c-19 -45 -29 -82 -42 -150h119z" />
    <glyph glyph-name="f_b" unicode="fb" horiz-adv-x="767" 
d="M420 673c-21 16 -42 24 -65 24c-36 0 -62 -21 -81 -65c-19 -45 -29 -82 -42 -150h119v-18h-122l-57 -300c-21 -111 -50 -200 -94 -277s-107 -123 -182 -123c-34 0 -62 7 -83 22l62 158h2l43 -139c4 -12 9 -18 16 -18c9 0 17 6 25 17c12 16 23 40 34 73c12 33 20 62 26 89
c5 27 13 68 24 122c2 11 4 20 5 26l57 299c4 23 7 40 10 51h-77v18h82c37 145 104 231 224 231c28 0 58 -10 90 -30l125 41l-94 -415h2c41 126 97 189 167 189c63 0 108 -46 108 -154c0 -93 -27 -174 -82 -245s-114 -107 -176 -107c-42 0 -70 16 -83 48l-118 -48l142 660
c1 9 -1 16 -7 21zM505 364c-31 -57 -63 -163 -97 -318c8 -13 23 -19 44 -19c51 0 93 41 126 124c29 71 43 138 43 199c0 55 -14 82 -41 82c-25 0 -50 -23 -75 -68z" />
    <glyph glyph-name="f_h" unicode="fh" horiz-adv-x="802" 
d="M439 683l125 41l-99 -436h2c51 132 130 210 210 210c52 0 84 -32 84 -83c0 -24 -8 -63 -25 -116l-45 -142c-10 -31 -15 -55 -15 -70c0 -18 8 -27 23 -27c16 0 31 10 45 30c17 23 32 61 45 112h2c-8 -65 -28 -116 -59 -153c-32 -38 -67 -57 -106 -57c-45 0 -74 27 -74 74
c0 23 8 59 24 108l49 150c11 35 17 61 17 78c0 20 -9 30 -28 30c-38 0 -74 -28 -107 -85c-33 -58 -69 -174 -109 -347h-115l147 652c2 8 0 15 -7 21c-21 16 -43 24 -66 24c-36 0 -63 -21 -82 -65c-20 -44 -30 -82 -43 -150h119v-18h-122l-57 -300
c-21 -111 -50 -200 -94 -277s-107 -123 -182 -123c-34 0 -62 7 -83 22l62 158h2l43 -139c4 -12 9 -18 16 -18c8 0 17 7 27 21c35 51 56 142 87 306l57 299c4 23 7 40 10 51h-77v18h82c40 154 115 231 225 231c29 0 60 -10 92 -30z" />
    <glyph glyph-name="f_j" unicode="fj" horiz-adv-x="542" 
d="M332 103l69 339c2 15 -3 22 -14 22h-157l-58 -300c-29 -151 -68 -262 -144 -341c-39 -39 -83 -59 -132 -59c-34 0 -62 7 -83 22l62 158h2l43 -139c4 -12 9 -18 16 -18c9 0 19 9 30 27c27 41 55 141 84 300l52 279c7 35 12 59 15 71h-77v18h81c40 147 112 231 255 231
c53 0 99 -8 138 -24l-61 -146h-2l-62 136c-8 16 -9 18 -24 18c-39 0 -69 -22 -89 -66s-31 -84 -43 -149h156l33 3l111 13l-85 -370c-55 -243 -150 -364 -284 -364c-31 0 -57 7 -80 22l68 158h2l36 -143c5 -19 21 -20 40 3c36 45 70 144 102 299z" />
    <glyph glyph-name="f_k" unicode="fk" horiz-adv-x="769" 
d="M429 651c1 9 -1 16 -8 21c-20 17 -42 25 -66 25c-36 0 -62 -21 -81 -65c-19 -45 -29 -82 -42 -150h119v-18h-122l-57 -300c-21 -111 -50 -200 -94 -277s-107 -123 -182 -123c-34 0 -62 7 -83 22l62 158h2l43 -139c4 -12 9 -18 16 -18c8 0 16 6 25 18c35 51 57 141 89 309
l57 299c4 23 7 40 10 51h-77v18h82c37 145 104 231 224 231c28 0 58 -10 90 -30l125 41l-101 -453l164 121c13 9 19 16 19 20c0 5 -5 12 -14 21l-45 47v2h232v-2l-117 -61c-27 -15 -44 -25 -52 -31l-62 -46l36 -212c9 -52 19 -70 42 -70c16 0 32 11 47 34
c16 25 30 61 41 108h2c-7 -65 -27 -117 -59 -154s-66 -56 -103 -56c-51 0 -68 26 -79 94l-21 142c-4 29 -15 44 -32 37l-60 -265h-115z" />
    <glyph glyph-name="g_f" unicode="gf" horiz-adv-x="756" 
d="M532 598h2l-34 -162h-90c20 -23 30 -51 30 -83c0 -55 -21 -99 -64 -132s-93 -50 -150 -50c-25 0 -48 3 -67 10c-25 -7 -45 -24 -45 -40c0 -18 18 -31 53 -38l119 -26c83 -17 126 -68 126 -132c0 -61 -32 -110 -97 -145c19 -13 40 -20 61 -20c26 0 48 15 66 44
c27 43 54 139 83 290l57 301c5 27 9 43 11 50h-70v19h74c39 145 107 229 227 229c43 0 81 -7 115 -21l-62 -149h-2l-45 138c-5 15 -6 16 -21 16c-28 0 -49 -21 -65 -67c-8 -23 -14 -45 -19 -65c-5 -21 -10 -48 -16 -81h118v-19h-122l-57 -301c-51 -267 -140 -400 -265 -400
c-33 0 -62 9 -85 28c-41 -19 -85 -28 -133 -28c-60 0 -111 11 -153 33c-42 23 -63 54 -63 93c0 60 59 101 142 117c-49 15 -73 41 -73 77c0 49 46 88 130 100c-57 21 -93 67 -93 131c0 55 21 99 64 133c42 33 92 50 150 50c43 0 82 -12 116 -36c9 -6 16 -6 22 0zM31 -102
c0 -35 14 -63 43 -85s62 -33 101 -33c81 0 141 44 141 111c0 42 -31 70 -93 85c-75 17 -117 27 -125 29c-45 -26 -67 -62 -67 -107zM168 273c0 -58 16 -87 49 -87c68 -1 112 123 109 208c0 59 -17 89 -50 89c-32 0 -58 -23 -78 -68s-30 -93 -30 -142z" />
    <glyph glyph-name="q_f" unicode="qf" horiz-adv-x="771" 
d="M539 114l58 301c2 17 5 33 10 50h-76v19h80c39 145 107 229 227 229c43 0 82 -7 116 -21l-62 -149h-2l-46 138c-5 15 -7 16 -20 16c-28 0 -50 -21 -66 -67c-8 -23 -14 -45 -19 -65c-5 -21 -10 -48 -16 -81h118v-19h-122l-57 -301c-50 -265 -138 -397 -265 -397
c-12 0 -25 2 -38 5h-251v2l93 46c11 6 18 15 21 28l78 336h-2c-46 -128 -101 -192 -166 -192c-67 0 -109 57 -109 149c0 95 26 179 79 250s110 107 173 107c46 0 77 -17 92 -52l118 52h2l-151 -660c-5 -20 -5 -26 3 -34c16 -15 34 -22 55 -22c23 1 44 15 61 42
c26 41 54 137 84 290zM146 135c0 -51 14 -76 42 -76c29 0 57 30 84 90c28 62 58 159 90 291c-8 15 -24 23 -48 23c-43 0 -81 -32 -114 -96c-32 -65 -54 -162 -54 -232z" />
    <glyph glyph-name="g_j" unicode="gj" horiz-adv-x="741" 
d="M534 598l-34 -162h-90c20 -23 30 -51 30 -83c0 -55 -21 -99 -64 -132s-93 -50 -150 -50c-25 0 -48 3 -67 10c-25 -7 -45 -24 -45 -40c0 -18 18 -31 53 -38l119 -26c83 -17 126 -68 126 -132c0 -63 -34 -112 -102 -147c18 -12 38 -18 59 -18c23 0 42 7 57 22
c15 13 30 38 44 74c13 37 24 70 31 100c7 31 17 73 28 127l67 325c3 11 0 18 -11 23l-74 29v2l221 16l-86 -370c-25 -109 -52 -187 -95 -257c-44 -70 -105 -107 -181 -107c-31 0 -57 8 -78 25c-39 -17 -82 -25 -127 -25c-60 0 -111 11 -153 33c-42 23 -63 54 -63 93
c0 60 59 101 142 117c-49 15 -73 41 -73 77c0 49 46 88 130 100c-57 21 -93 67 -93 131c0 55 21 99 64 133c42 33 92 50 150 50c43 0 82 -12 116 -36c9 -6 16 -6 22 0l125 136h2zM98 5c-45 -26 -67 -62 -67 -107c0 -35 14 -63 43 -85s62 -33 101 -33c81 0 141 44 141 111
c0 43 -31 71 -93 85c-23 6 -97 22 -100 23zM168 273c0 -58 16 -87 49 -87c68 -1 112 123 109 208c0 59 -17 89 -50 89c-32 0 -58 -23 -78 -68s-30 -93 -30 -142zM632 618c0 41 34 74 78 74c36 0 63 -25 63 -61c0 -41 -33 -73 -77 -73c-37 0 -64 24 -64 60z" />
    <glyph glyph-name=".notdef" horiz-adv-x="600" 
d="M549 -250h-487v1000h487v-1000zM297 250l-216 467v-932zM316 251l215 -463v926zM306 230l-214 -462h429zM92 732l214 -461l214 461h-428z" />
    <glyph glyph-name=".null" horiz-adv-x="0" 
 />
    <glyph glyph-name="nonmarkingreturn" horiz-adv-x="333" 
 />
    <glyph glyph-name="space" unicode=" " horiz-adv-x="194" 
 />
    <glyph glyph-name="exclam" unicode="!" horiz-adv-x="272" 
d="M131 216h-2l14 487h177zM46 10c-12 11 -18 26 -18 44c0 41 33 76 77 76c36 0 64 -26 64 -62c0 -41 -34 -76 -78 -76c-18 0 -33 6 -45 18z" />
    <glyph glyph-name="quotedbl" unicode="&#x22;" horiz-adv-x="355" 
d="M386 700c8 -9 12 -20 12 -33c0 -14 -5 -32 -16 -53l-76 -144h-2l-14 154v13c0 44 22 76 61 76c15 0 26 -4 35 -13zM138 470l-14 154v13c0 44 22 76 61 76c29 0 47 -19 47 -46c0 -14 -5 -32 -16 -53l-76 -144h-2z" />
    <glyph glyph-name="numbersign" unicode="#" horiz-adv-x="588" 
d="M573 455v-18h-135l-59 -203h132v-18h-137l-55 -190l-17 5l53 185h-154l-55 -190l-17 5l53 185h-127v18h132l58 203h-127v18h132l57 198l19 -5l-56 -193h153l57 198l19 -5l-56 -193h130zM206 234h154l58 203h-153z" />
    <glyph glyph-name="dollar" unicode="$" horiz-adv-x="538" 
d="M386 380c72 -51 106 -100 106 -173c0 -59 -25 -110 -75 -151c-51 -42 -113 -64 -187 -66l-18 -95l-17 2l18 93c-87 1 -156 12 -205 33l57 216h2l63 -207c3 -11 10 -17 20 -20c15 -3 33 -5 55 -5h11l56 285l-62 46c-68 51 -102 109 -102 176c0 57 22 105 67 143
c44 37 100 56 167 56h12l15 76l17 -2l-14 -74c54 -2 112 -11 174 -27l-46 -210h-2l-72 199c-3 9 -9 15 -18 17c-11 3 -25 4 -40 4l-52 -266zM287 280l-53 -271c75 9 131 58 131 138c0 47 -26 92 -78 133zM220 576c0 -45 27 -89 81 -134l50 255c-76 -4 -131 -48 -131 -121z
" />
    <glyph glyph-name="percent" unicode="%" horiz-adv-x="660" 
d="M151 447c-19 21 -29 47 -29 79c0 53 15 98 46 134c31 35 71 53 121 53c64 0 107 -46 107 -109c0 -54 -15 -99 -46 -134c-31 -36 -71 -54 -122 -54c-33 0 -58 10 -77 31zM582 179c0 -54 -15 -99 -46 -134c-31 -36 -71 -54 -122 -54c-65 0 -106 46 -106 110
c0 53 15 98 46 134c31 35 71 53 121 53c64 0 107 -46 107 -109zM383 58c0 -35 11 -53 34 -53c18 0 34 14 49 43c14 29 24 59 31 92c6 32 9 59 9 82c0 35 -11 52 -34 52c-25 0 -46 -25 -63 -76s-26 -98 -26 -140zM197 483c0 -35 11 -53 34 -53c18 0 34 14 49 43
c14 29 24 59 31 92c6 32 9 59 9 82c0 35 -11 52 -34 52c-25 0 -46 -25 -63 -76s-26 -98 -26 -140zM34 -10l-13 14l648 710l14 -13z" />
    <glyph glyph-name="ampersand" unicode="&#x26;" horiz-adv-x="673" 
d="M428 548h-2l-46 134c-4 12 -7 14 -20 14c-33 0 -61 -13 -82 -40s-32 -60 -33 -99c0 -47 20 -83 59 -108v-2c-101 -28 -168 -93 -168 -186c0 -50 18 -92 54 -126c35 -35 84 -52 145 -52c69 0 122 16 161 48s58 70 58 114c0 59 -29 98 -86 98c-47 0 -81 -30 -81 -67
c0 -25 21 -46 49 -46c7 0 14 1 21 3v-2c-17 -18 -42 -27 -73 -27c-51 0 -92 34 -92 79c0 36 28 71 83 105l207 127c20 12 30 26 30 42c0 17 -17 31 -41 31c-7 0 -13 -1 -18 -2l-1 2c23 18 48 27 75 27c51 0 86 -27 86 -72c0 -32 -24 -62 -73 -91l-164 -95v-2
c37 0 67 -13 89 -39c21 -27 32 -58 32 -95c0 -66 -26 -121 -77 -165c-52 -44 -119 -66 -202 -66c-86 0 -155 21 -206 62s-77 94 -77 157c0 61 21 112 62 155c41 42 95 68 161 79v2c-83 13 -116 58 -116 110c0 45 20 82 60 113c40 30 91 45 154 45c53 0 100 -9 139 -26z" />
    <glyph glyph-name="quotesingle" unicode="'" horiz-adv-x="189" 
d="M124 624v13c0 44 22 76 61 76c29 0 47 -19 47 -46c0 -14 -5 -32 -16 -53l-76 -144h-2z" />
    <glyph glyph-name="parenleft" unicode="(" horiz-adv-x="328" 
d="M232 -154c-120 65 -180 174 -180 325c0 105 20 201 60 290s95 159 166 212c35 26 82 48 139 65l1 -2c-38 -27 -73 -59 -105 -96c-53 -62 -95 -142 -124 -239c-30 -98 -45 -190 -45 -275c0 -125 30 -217 90 -278z" />
    <glyph glyph-name="parenright" unicode=")" horiz-adv-x="328" 
d="M-73 -152c39 28 77 65 114 110c50 61 89 140 117 235s42 183 42 265c0 124 -30 217 -89 278l2 2c119 -66 179 -174 179 -325c0 -105 -20 -201 -59 -290c-40 -89 -95 -160 -166 -212c-35 -25 -81 -47 -139 -65z" />
    <glyph glyph-name="asterisk" unicode="*" horiz-adv-x="382" 
d="M243 548l-158 -3l34 104l126 -97l-51 151h108l-53 -151l127 95l34 -102l-159 3l128 -91l-88 -64l-44 153l-48 -152l-88 64z" />
    <glyph glyph-name="plus" unicode="+" horiz-adv-x="540" 
d="M70 314v18h211v211h19v-211h210v-18h-210v-211h-19v211h-211z" />
    <glyph glyph-name="comma" unicode="," horiz-adv-x="234" 
d="M37 -93c-23 -14 -44 -24 -64 -30v2c19 10 35 23 49 39c20 22 33 46 39 73c2 8 -1 13 -9 15c-24 5 -42 28 -42 56c0 41 34 73 74 73c37 0 64 -28 64 -67c0 -64 -48 -122 -111 -161z" />
    <glyph glyph-name="hyphen" unicode="-" horiz-adv-x="351" 
d="M47 235v19h260v-19h-260z" />
    <glyph glyph-name="period" unicode="." horiz-adv-x="234" 
d="M9 54c0 41 33 76 76 76c37 0 65 -26 65 -62c0 -41 -34 -76 -78 -76c-36 0 -63 26 -63 62z" />
    <glyph glyph-name="slash" unicode="/" horiz-adv-x="380" 
d="M-31 -153l-16 9l476 882l16 -7z" />
    <glyph glyph-name="zero" unicode="0" horiz-adv-x="619" 
d="M558 645c39 -45 58 -105 58 -179c0 -134 -34 -247 -102 -338c-68 -92 -153 -138 -256 -138c-65 0 -117 23 -156 69c-39 45 -58 105 -58 179c-4 260 156 479 358 475c65 0 117 -23 156 -68zM205 411c-21 -81 -32 -161 -32 -238c0 -109 33 -167 85 -167c38 0 75 28 111 83
s65 123 86 204s32 161 32 238c0 109 -32 166 -85 166c-38 0 -75 -27 -111 -82s-65 -123 -86 -204z" />
    <glyph glyph-name="one" unicode="1" horiz-adv-x="370" 
d="M-20 0v2l105 60c9 5 15 13 16 22l104 496c2 11 -1 18 -8 21l-97 30v2l254 83l2 -1l-132 -631c-2 -10 0 -17 7 -22l79 -60v-2h-330z" />
    <glyph glyph-name="two" unicode="2" horiz-adv-x="518" 
d="M529 549c0 -29 -5 -57 -15 -84c-21 -55 -73 -110 -117 -153c-23 -21 -54 -46 -93 -73s-72 -50 -99 -67s-63 -40 -110 -69h239c28 0 32 2 49 18l85 83h2l-66 -204h-434v2c120 113 206 196 259 250c55 57 97 111 126 161c28 49 42 103 42 161c0 73 -28 122 -84 122
c-24 0 -45 -1 -58 -21l-107 -173h-2l-33 163c73 32 145 48 216 48c127 0 200 -61 200 -164z" />
    <glyph glyph-name="three" unicode="3" horiz-adv-x="512" 
d="M467 668c35 -31 53 -68 53 -113s-19 -85 -57 -119c-38 -35 -85 -57 -140 -66v-2c92 -13 145 -75 145 -156c0 -61 -28 -114 -83 -157s-125 -65 -209 -65c-71 0 -136 12 -197 37l98 183h2l31 -180c3 -13 7 -18 19 -19c11 -2 22 -3 32 -3c50 0 90 19 121 57
c31 37 46 85 46 144c0 83 -38 142 -123 153v2c123 19 186 103 186 210c0 71 -33 122 -86 122c-13 0 -24 -1 -32 -3c-11 -3 -19 -8 -25 -17l-108 -173h-2l-33 162c74 32 145 48 214 48c63 0 113 -15 148 -45z" />
    <glyph glyph-name="four" unicode="4" horiz-adv-x="564" 
d="M575 380h2l-52 -201h-142l-20 -95c-2 -9 1 -16 8 -23l63 -59v-2h-302v2l91 59c11 7 17 15 18 23l19 95h-277v2l407 522h103l-106 -505h28c11 0 21 5 28 14zM21 198h243l89 426z" />
    <glyph glyph-name="five" unicode="5" horiz-adv-x="514" 
d="M557 748h2l-26 -86c-17 -56 -44 -74 -105 -74h-80c-45 0 -104 2 -176 7l-51 -225c53 37 111 56 176 56c52 0 96 -17 132 -52s54 -79 54 -132c0 -74 -28 -134 -85 -181s-130 -71 -217 -71c-71 0 -136 12 -197 36l99 183h2l30 -178c3 -16 7 -18 24 -21c6 -1 17 -2 32 -2
c49 0 90 22 123 65s49 93 49 149c0 99 -46 154 -123 154c-41 0 -82 -12 -123 -36l-2 1l82 364c14 -5 79 -7 194 -7h56c50 0 86 10 107 29z" />
    <glyph glyph-name="six" unicode="6" horiz-adv-x="570" 
d="M601 681l-89 -178h-2l-46 176c-3 12 -5 12 -20 15c-6 1 -15 1 -27 1c-50 0 -94 -31 -133 -93s-68 -138 -89 -228c42 41 94 62 156 62c50 0 93 -17 130 -51c36 -34 54 -79 54 -134c0 -74 -25 -136 -74 -185c-50 -50 -116 -75 -198 -75c-67 0 -120 23 -159 70
c-40 47 -60 110 -60 190c0 204 122 462 373 462c63 0 124 -11 184 -32zM192 360c-13 -60 -20 -120 -20 -179c0 -109 35 -172 92 -172c45 0 80 22 105 66c24 43 36 95 36 156c0 115 -29 171 -106 171c-41 0 -76 -14 -107 -42z" />
    <glyph glyph-name="seven" unicode="7" horiz-adv-x="478" 
d="M39 2c66 110 140 222 221 337s146 200 194 257v2h-285c-13 0 -26 -5 -37 -16l-71 -69h-2l60 190h452v-2l-80 -84c-11 -13 -21 -25 -28 -38c-60 -106 -148 -299 -263 -579h-161v2z" />
    <glyph glyph-name="eight" unicode="8" horiz-adv-x="537" 
d="M544 562c0 -92 -72 -150 -176 -171l31 -25c65 -52 102 -98 102 -165c0 -64 -27 -115 -80 -153c-53 -39 -115 -58 -185 -58c-64 0 -117 15 -158 46c-41 30 -62 70 -62 121c0 50 19 91 58 124c39 32 86 53 141 64l-26 22c-50 41 -75 91 -75 149c0 62 24 110 73 145
c48 35 104 52 168 52c53 0 97 -14 134 -42c37 -29 55 -65 55 -109zM111 161c0 -44 12 -81 35 -110s55 -44 97 -44c37 0 68 14 94 41c25 27 38 60 38 101c0 42 -22 82 -66 119l-87 72c-74 -44 -111 -104 -111 -179zM262 664c-21 -23 -32 -50 -32 -83c0 -51 21 -94 64 -130
l66 -54c63 40 92 90 92 167c0 84 -40 133 -109 133c-33 0 -60 -11 -81 -33z" />
    <glyph glyph-name="nine" unicode="9" horiz-adv-x="572" 
d="M568 452c0 -42 -5 -84 -14 -126c-40 -171 -158 -335 -359 -335c-66 0 -128 11 -185 32l90 177h2l45 -175c2 -9 9 -15 20 -16c7 -1 16 -1 28 -1c34 0 66 16 97 48s56 72 76 119s36 99 49 156c-41 -43 -92 -65 -151 -65c-54 0 -99 17 -135 51s-54 79 -54 135
c0 74 25 136 74 186s114 75 194 75c69 0 123 -23 163 -70s60 -110 60 -191zM243 629c-24 -44 -36 -96 -36 -157c0 -109 37 -170 106 -170c41 0 76 14 107 43c13 65 20 124 20 178c0 109 -35 171 -95 171c-44 0 -78 -22 -102 -65z" />
    <glyph glyph-name="colon" unicode=":" horiz-adv-x="234" 
d="M77 384c0 21 7 39 22 54s33 22 54 22c37 0 65 -26 65 -63c0 -40 -34 -75 -78 -75c-36 0 -63 26 -63 62zM72 -8c-18 0 -33 6 -45 18c-12 11 -18 26 -18 44c0 41 33 76 76 76c37 0 65 -26 65 -62c0 -41 -34 -76 -78 -76z" />
    <glyph glyph-name="semicolon" unicode=";" horiz-adv-x="234" 
d="M37 -93c-23 -14 -44 -24 -64 -30v2c19 10 35 23 49 39c20 22 33 46 39 73c2 8 -1 13 -9 15c-24 5 -42 28 -42 56c0 41 34 73 74 73c37 0 64 -28 64 -67c0 -64 -48 -122 -111 -161zM200 443c12 -12 18 -27 18 -46c0 -40 -34 -75 -78 -75c-36 0 -63 26 -63 62
c0 41 33 76 76 76c19 0 34 -6 47 -17z" />
    <glyph glyph-name="less" unicode="&#x3c;" horiz-adv-x="540" 
d="M70 324l390 179l7 -17l-355 -163l355 -163l-7 -17l-390 179v2z" />
    <glyph glyph-name="equal" unicode="=" horiz-adv-x="540" 
d="M70 422h440v-18h-440v18zM70 225v18h440v-18h-440z" />
    <glyph glyph-name="greater" unicode="&#x3e;" horiz-adv-x="540" 
d="M113 160l355 163l-355 163l7 17l390 -179v-2l-390 -179z" />
    <glyph glyph-name="question" unicode="?" horiz-adv-x="442" 
d="M443 675c34 -26 51 -61 51 -106c3 -79 -64 -138 -127 -177c-21 -13 -44 -28 -69 -43c-26 -15 -46 -28 -60 -39c-27 -21 -41 -43 -41 -64c0 -9 2 -17 6 -24l-1 -2c-37 1 -66 37 -66 74c0 129 230 153 230 300c0 67 -27 100 -81 100c-15 0 -25 -1 -32 -2
c-13 -3 -22 -8 -27 -17l-111 -173h-2l-31 163c71 32 144 48 219 48c60 0 107 -13 142 -38zM96 10c-13 11 -19 26 -19 44c0 41 34 76 77 76c37 0 64 -25 64 -62c0 -41 -33 -76 -77 -76c-18 0 -33 6 -45 18z" />
    <glyph glyph-name="at" unicode="@" horiz-adv-x="1006" 
d="M622 447l124 52l2 -2l-76 -290c-10 -38 -15 -71 -15 -98c0 -62 23 -93 70 -93c53 0 102 30 146 89c43 59 65 134 65 224c0 105 -36 190 -108 257s-166 100 -281 100c-137 0 -251 -46 -342 -139s-137 -212 -137 -355c0 -126 41 -225 122 -296s182 -106 303 -106
c80 0 163 26 250 77l8 -16c-83 -53 -170 -79 -259 -79c-119 0 -226 37 -309 104c-83 68 -134 180 -134 316c0 149 47 271 142 368c95 96 214 144 357 144c121 0 219 -35 294 -106s113 -160 113 -268c0 -97 -25 -177 -75 -241c-50 -65 -111 -97 -183 -97
c-91 0 -153 47 -153 138c0 18 2 34 5 48l-3 1c-43 -125 -98 -187 -163 -187c-63 0 -108 52 -108 151c0 89 26 171 77 245c51 73 110 110 177 110c45 0 76 -17 91 -51zM399 136c0 -51 14 -77 42 -77c31 0 62 39 95 116c7 18 21 61 42 128c20 67 33 112 38 137
c-8 15 -23 23 -46 23c-38 0 -72 -25 -101 -74c-20 -33 -37 -73 -50 -120s-20 -92 -20 -133z" />
    <glyph glyph-name="A" unicode="A" horiz-adv-x="621" 
d="M576 2v-2h-257v2l74 60c7 5 10 14 8 26l-19 158h-228l-62 -115c-8 -16 -7 -17 5 -34l66 -95v-2h-230v2l108 95c14 12 25 25 32 39l252 465c11 21 9 23 0 36l-43 64v2h176l73 -608c1 -13 6 -27 14 -40zM342 593l-178 -328h216z" />
    <glyph glyph-name="B" unicode="B" horiz-adv-x="633" 
d="M583 214c0 -66 -27 -118 -82 -156c-55 -39 -126 -58 -213 -58h-321v2l88 54c9 5 14 13 17 23l113 545c3 10 0 18 -7 23l-65 54v2h309c132 0 206 -49 206 -142c0 -52 -20 -95 -60 -130s-92 -55 -155 -59l-1 -3c107 -5 171 -66 171 -155zM193 43c-5 -21 -1 -24 27 -24h26
c63 0 112 20 147 61s52 92 52 154c0 81 -43 122 -129 122h-58zM262 374h56c49 0 91 18 124 55s50 85 50 146c0 71 -39 109 -106 109h-40c-15 0 -20 -4 -24 -23z" />
    <glyph glyph-name="C" unicode="C" horiz-adv-x="590" 
d="M629 690l-49 -229h-2l-79 214c-5 16 -10 17 -23 20c-9 1 -19 2 -30 2c-52 0 -99 -25 -141 -75s-73 -111 -94 -184s-32 -147 -32 -223c0 -61 11 -111 33 -150c21 -39 54 -59 99 -59c12 0 21 0 28 1c13 1 23 7 30 16l165 219h2l-46 -230c-65 -15 -128 -22 -190 -22
c-83 0 -148 26 -193 77c-46 51 -69 117 -69 198c0 80 16 154 49 222s79 123 140 164s129 62 204 62c73 0 139 -8 198 -23z" />
    <glyph glyph-name="D" unicode="D" horiz-adv-x="684" 
d="M605 630c51 -49 77 -115 77 -196c0 -121 -41 -224 -122 -308c-82 -84 -182 -126 -301 -126h-292v2l89 54c9 6 14 14 17 23l113 545c3 10 0 18 -7 23l-65 54v2h293c81 0 147 -24 198 -73zM194 43c-3 -11 -3 -18 0 -20c2 -3 9 -4 22 -4h19c71 0 131 26 179 78
c47 51 82 119 105 203c16 57 24 122 24 193c0 121 -63 191 -156 191h-41c-15 0 -19 -3 -23 -20z" />
    <glyph glyph-name="E" unicode="E" horiz-adv-x="591" 
d="M537 228l-46 -228h-524v2l89 54c9 6 14 14 17 23l113 545c3 10 0 18 -7 23l-66 54v2h513l-47 -228h-2l-64 191c-5 16 -10 18 -26 18h-140c-17 0 -20 -3 -24 -23l-62 -296h97c11 1 22 7 34 19l94 94h2l-51 -244h-2l-55 95c-9 16 -13 18 -26 18h-97l-63 -305
c-4 -20 -2 -23 15 -23h145c23 0 27 2 38 15l143 194h2z" />
    <glyph glyph-name="F" unicode="F" horiz-adv-x="562" 
d="M625 703l-47 -228h-2l-63 191c-5 16 -10 18 -27 18h-139c-17 0 -20 -3 -24 -22l-62 -297h96c11 1 22 7 34 19l94 94h2l-51 -244h-2l-54 95c-9 15 -14 18 -27 18h-96l-55 -263c-3 -10 0 -17 8 -22l95 -60v-2h-338v2l88 54c9 6 14 14 17 23l113 545c2 9 0 17 -7 23l-65 54
v2h512z" />
    <glyph glyph-name="G" unicode="G" horiz-adv-x="657" 
d="M665 311v-2l-79 -55c-9 -5 -14 -14 -16 -26l-50 -238l-108 22c-41 -15 -78 -22 -113 -22c-82 0 -146 26 -192 77s-69 119 -69 203c0 164 69 304 197 384c64 39 137 59 218 59c74 0 141 -7 202 -22l-46 -227h-2l-81 210c-7 15 -9 19 -24 20c-8 1 -20 2 -35 2
c-204 0 -288 -272 -288 -484c0 -131 48 -203 137 -203c25 0 52 5 82 16l42 203c2 12 0 21 -5 26l-57 55v2h287z" />
    <glyph glyph-name="H" unicode="H" horiz-adv-x="740" 
d="M607 56l65 -54v-2h-306v2l88 54c9 6 14 14 17 23l57 272h-269l-57 -272c-3 -10 -1 -18 6 -23l66 -54v-2h-307v2l89 54c9 6 14 14 17 23l113 545c3 10 0 18 -7 23l-66 54v2h307v-2l-88 -54c-9 -5 -15 -13 -16 -23l-53 -254h269l53 254c2 11 0 18 -7 23l-66 54v2h306v-2
l-88 -54c-9 -6 -15 -14 -16 -23l-113 -545c-3 -10 -1 -18 6 -23z" />
    <glyph glyph-name="I" unicode="I" horiz-adv-x="342" 
d="M-33 2l89 54c9 6 14 14 17 23l113 545c3 10 0 18 -7 23l-66 54v2h307v-2l-88 -54c-9 -5 -15 -13 -16 -23l-114 -545c-3 -10 -1 -18 6 -23l66 -54v-2h-307v2z" />
    <glyph glyph-name="J" unicode="J" horiz-adv-x="316" 
d="M-123 -209c93 42 151 123 176 242l124 591c1 10 -1 18 -7 23l-66 54v2h307v-2l-89 -54c-9 -6 -15 -14 -16 -23l-118 -564c-34 -165 -138 -255 -311 -271v2z" />
    <glyph glyph-name="K" unicode="K" horiz-adv-x="659" 
d="M-33 0v2l89 54c9 6 14 14 17 23l113 545c3 10 0 18 -7 23l-66 54v2h307v-2l-88 -54c-9 -6 -15 -14 -16 -23l-114 -545c-3 -10 -1 -18 6 -23l66 -54v-2h-307zM776 703v-2l-152 -80c-22 -11 -40 -23 -53 -34l-196 -168l155 -327c7 -13 14 -24 23 -34l53 -56v-2h-175
l-164 348l286 246c12 9 13 20 4 31l-65 76v2h284z" />
    <glyph glyph-name="L" unicode="L" horiz-adv-x="559" 
d="M525 240h2l-49 -240h-511v2l89 55c9 6 15 13 17 22l113 545c3 10 0 18 -7 23l-66 54v2h307v-2l-88 -54c-9 -5 -15 -13 -16 -23l-121 -582c-4 -20 -3 -23 14 -23h125c17 0 29 5 36 15z" />
    <glyph glyph-name="M" unicode="M" horiz-adv-x="864" 
d="M940 701l-89 -59c-9 -6 -15 -13 -16 -22l-113 -542c-3 -10 -1 -17 6 -22l66 -54v-2h-307v2l89 54c8 5 13 13 16 22l93 445c4 19 10 42 17 67l-360 -596h-2l-120 536c-5 23 -8 43 -11 62l-96 -461c-2 -11 1 -22 8 -31l76 -98v-2h-242v2l118 98c11 9 17 19 20 31l97 465
c3 11 1 20 -5 27l-66 78v2h192l119 -527l319 527h191v-2z" />
    <glyph glyph-name="N" unicode="N" horiz-adv-x="681" 
d="M787 703v-2l-118 -98c-12 -9 -19 -20 -21 -31l-119 -572h-82l-239 570l-91 -439c-3 -16 -3 -19 8 -31l77 -98v-2h-244v2l118 98c12 9 19 20 21 31l94 449c3 13 2 24 -5 33l-73 88v2h179l242 -580l94 449c3 11 0 22 -8 31l-78 98v2h245z" />
    <glyph glyph-name="O" unicode="O" horiz-adv-x="685" 
d="M312 -10c-87 0 -154 26 -201 78c-48 51 -72 119 -72 203c0 123 36 227 108 313s160 129 265 129c86 0 153 -26 201 -77c48 -52 72 -120 72 -204c0 -123 -36 -227 -108 -313c-73 -86 -161 -129 -265 -129zM178 203c0 -131 42 -196 125 -196c45 0 86 28 125 84
c39 55 68 121 88 196s30 146 30 213c0 131 -42 196 -125 196c-45 0 -86 -28 -125 -83c-39 -56 -68 -121 -88 -196s-30 -147 -30 -214z" />
    <glyph glyph-name="P" unicode="P" horiz-adv-x="622" 
d="M580 659c39 -29 59 -73 59 -132c0 -79 -31 -141 -94 -188s-141 -71 -235 -71h-69l-37 -182c-3 -12 0 -20 8 -25l95 -59v-2h-340v2l89 54c9 6 14 14 17 23l113 545c3 10 0 18 -7 23l-66 54v2h310c65 0 118 -15 157 -44zM323 663l-78 -376h51c58 0 107 24 147 73
c39 49 59 112 59 191c0 87 -44 133 -111 133h-43c-13 0 -22 -7 -25 -21z" />
    <glyph glyph-name="Q" unicode="Q" horiz-adv-x="685" 
d="M622 -73l2 -2l-63 -79c-43 -55 -97 -82 -164 -82c-38 0 -82 9 -132 27l-182 69c-25 8 -45 12 -61 12c-11 0 -22 -1 -31 -2l-1 2l195 142c-95 43 -147 136 -147 257c0 123 36 227 108 313s160 129 265 129c86 0 153 -26 201 -77c48 -52 72 -120 72 -204
c0 -123 -36 -227 -108 -313s-160 -129 -265 -129c-39 0 -75 6 -108 17l-71 -52l204 -70c43 -14 84 -21 123 -21s79 12 118 36zM177 203c0 -131 42 -196 125 -196c45 0 86 28 125 84c39 55 68 121 88 196s30 146 30 213c0 131 -42 196 -125 196c-45 0 -86 -28 -125 -83
c-39 -56 -68 -121 -88 -196s-30 -147 -30 -214z" />
    <glyph glyph-name="R" unicode="R" horiz-adv-x="639" 
d="M456 297l73 -216c3 -9 13 -23 29 -40l38 -39v-2h-176l-108 314c-3 9 -11 14 -23 14h-43l-51 -243c-3 -15 -2 -25 5 -30l59 -53v-2h-292v2l86 57c11 7 7 13 13 30l111 529c3 15 2 25 -5 30l-59 53v2h324c59 0 107 -14 143 -42c36 -29 54 -67 54 -114
c0 -61 -23 -110 -69 -149s-103 -61 -171 -64l-1 -2zM447 407c33 40 49 90 49 151c0 85 -34 128 -103 128h-50c-19 0 -24 -7 -28 -27l-65 -313h78c47 0 86 20 119 61z" />
    <glyph glyph-name="S" unicode="S" horiz-adv-x="528" 
d="M543 686l-46 -210h-2l-72 199c-3 9 -9 15 -18 17c-17 3 -32 5 -47 5c-80 0 -141 -44 -141 -121c0 -51 36 -102 107 -153l59 -43c72 -51 106 -100 106 -173c0 -60 -26 -111 -78 -153c-52 -43 -116 -64 -192 -64c-90 0 -161 11 -214 33l57 216h2l63 -207
c3 -11 10 -17 20 -20c15 -3 34 -5 55 -5c43 0 81 12 113 37c31 24 47 58 47 103c0 57 -31 99 -96 147l-59 44c-68 49 -102 108 -102 176c0 57 22 105 67 143c44 37 100 56 167 56c69 0 137 -9 204 -27z" />
    <glyph glyph-name="T" unicode="T" horiz-adv-x="605" 
d="M681 703l-51 -247h-2l-59 209c-5 17 -8 19 -24 19h-87l-125 -601c-3 -11 0 -19 7 -24l71 -57v-2h-319v2l94 57c9 5 14 13 17 24l126 601h-87c-17 0 -20 0 -32 -19l-145 -209h-2l51 247h567z" />
    <glyph glyph-name="U" unicode="U" horiz-adv-x="651" 
d="M763 703v-2l-110 -87c-15 -11 -24 -26 -27 -45l-67 -318c-18 -86 -48 -151 -90 -195s-105 -66 -190 -66c-129 0 -201 70 -201 179c0 19 2 38 6 58l82 394c1 11 -1 19 -7 24l-60 56v2h300v-2l-87 -56c-9 -5 -14 -13 -17 -24l-79 -384c-6 -30 -9 -57 -9 -81
c0 -90 42 -135 126 -135c105 0 174 76 206 229l67 319c5 20 4 30 -11 46l-73 86v2h241z" />
    <glyph glyph-name="V" unicode="V" horiz-adv-x="591" 
d="M720 703v-2l-104 -93c-15 -13 -27 -27 -34 -41l-299 -567h-82l-77 608c-2 15 -6 28 -13 40l-32 53v2h257v-2l-73 -60c-8 -6 -11 -15 -9 -26l64 -508l244 461c8 19 7 21 -4 36l-68 97v2h230z" />
    <glyph glyph-name="W" unicode="W" horiz-adv-x="957" 
d="M1086 703v-2l-104 -93c-16 -15 -27 -28 -34 -41l-298 -567h-85l-48 443l-235 -443h-86l-72 608c-2 15 -6 28 -13 40l-32 53v2h257v-2l-73 -60c-7 -7 -10 -15 -9 -25l60 -515l199 375l-14 132c-1 10 -6 23 -13 39l-26 54v2h250v-2l-74 -60c-7 -5 -10 -13 -9 -24l55 -513
l245 464c7 13 6 25 -3 36l-68 97v2h230z" />
    <glyph glyph-name="X" unicode="X" horiz-adv-x="656" 
d="M541 91c5 -10 13 -21 24 -34l49 -55v-2h-280v2l64 50c13 11 13 14 8 26l-96 222l-166 -183c-13 -15 -15 -19 -8 -28l68 -87v-2h-262v2l132 81c23 14 40 28 53 42l176 193l-126 294c-7 14 -14 25 -23 34l-49 55v2h279v-2l-64 -50c-9 -7 -12 -15 -7 -26l84 -197l143 158
c13 15 15 19 8 28l-68 87v2h262v-2l-131 -81c-25 -16 -43 -30 -54 -42l-153 -168z" />
    <glyph glyph-name="Y" unicode="Y" horiz-adv-x="601" 
d="M732 703v-2l-118 -93c-18 -14 -31 -27 -39 -38l-185 -255c-7 -9 -12 -22 -15 -37l-41 -197c-3 -13 -2 -15 7 -22l72 -57v-2h-320v2l95 57c9 5 14 13 16 22l38 183c3 11 3 20 0 28l-107 317c-5 13 -11 25 -19 37l-39 55v2h276v-2l-75 -59c-8 -6 -11 -13 -8 -21l98 -306
l190 264c7 9 7 18 2 27l-65 95v2h237z" />
    <glyph glyph-name="Z" unicode="Z" horiz-adv-x="580" 
d="M-34 2l539 682h-202c-15 0 -27 -4 -34 -13l-164 -217h-2l51 249h512v-2l-542 -682h221c16 0 27 4 33 13l167 214h2l-51 -246h-530v2z" />
    <glyph glyph-name="bracketleft" unicode="[" horiz-adv-x="351" 
d="M260 -128l-258 -14l179 869l252 -14v-2l-166 -47c-12 -3 -12 -4 -15 -16l-147 -711c-3 -11 -1 -13 8 -16l147 -47v-2z" />
    <glyph glyph-name="backslash" unicode="\" horiz-adv-x="380" 
d="M244 -152l-114 887l18 3l114 -888z" />
    <glyph glyph-name="bracketright" unicode="]" horiz-adv-x="351" 
d="M-66 -128v2l167 47c12 3 12 4 15 16l147 711c3 11 2 12 -9 16l-146 47v2l258 14l-179 -869z" />
    <glyph glyph-name="asciicircum" unicode="^" horiz-adv-x="540" 
d="M109 323l179 390h2l179 -390l-16 -8l-164 356l-163 -356z" />
    <glyph glyph-name="underscore" unicode="_" horiz-adv-x="500" 
d="M445 -91h-490v18h490v-18z" />
    <glyph glyph-name="grave" unicode="`" horiz-adv-x="347" 
d="M45 703h142l114 -163l-1 -1l-255 162v2z" />
    <glyph glyph-name="a" unicode="a" horiz-adv-x="522" 
d="M507 202h2c-9 -60 -28 -110 -57 -150s-63 -60 -102 -60c-43 0 -70 27 -70 79c0 22 6 60 19 113h-2c-44 -128 -100 -192 -167 -192c-61 0 -107 54 -107 153c0 57 12 113 35 168c23 54 54 98 94 133c39 35 81 52 124 52c44 0 74 -17 91 -51l125 51h2
c-7 -29 -38 -147 -94 -356c-5 -23 -8 -41 -8 -53c0 -21 8 -31 23 -31c18 0 35 14 52 42c15 25 28 59 40 102zM166 272c-13 -47 -20 -92 -20 -134c0 -53 14 -79 41 -79s54 27 81 82c27 58 59 158 94 299c-8 15 -24 23 -47 23c-36 0 -69 -24 -100 -71
c-20 -33 -36 -73 -49 -120z" />
    <glyph glyph-name="b" unicode="b" horiz-adv-x="485" 
d="M432 462c20 -25 30 -64 30 -118c0 -93 -27 -174 -82 -245s-114 -107 -176 -107c-42 0 -70 16 -83 48l-117 -48h-1l140 657c4 17 3 19 -9 23l-75 30v2l219 20l-93 -415h2c41 126 97 189 167 189c31 0 57 -12 78 -36zM126 46c8 -13 23 -19 44 -19c51 0 93 41 126 124
c29 71 43 138 43 199c0 55 -13 82 -40 82c-25 0 -51 -23 -76 -68c-31 -57 -63 -163 -97 -318z" />
    <glyph glyph-name="c" unicode="c" horiz-adv-x="419" 
d="M387 216h2c-25 -151 -102 -224 -202 -224c-49 0 -88 17 -119 50s-47 80 -47 139c0 83 27 157 82 221s123 96 205 96c45 0 85 -7 121 -22l-70 -178h-2l-41 168c-4 15 -5 16 -16 16c-28 0 -54 -16 -78 -49s-42 -71 -55 -114s-19 -84 -19 -123c0 -85 38 -127 91 -127
c60 0 117 50 148 147z" />
    <glyph glyph-name="d" unicode="d" horiz-adv-x="522" 
d="M506 202h2c-11 -77 -35 -134 -73 -172c-24 -25 -51 -38 -81 -38c-49 0 -73 26 -74 78c0 25 7 63 20 114h-2c-44 -128 -100 -192 -168 -192c-60 0 -107 59 -107 155c0 93 26 174 78 245c51 71 110 106 175 106c41 0 68 -16 81 -47l45 198c4 17 2 18 -10 23l-75 30v2
l220 20l-137 -587c-5 -19 -7 -34 -7 -46c0 -22 8 -33 24 -33c35 0 65 48 89 144zM164 271c-12 -47 -18 -91 -18 -130c0 -55 14 -82 41 -82c29 0 61 38 85 91c26 59 54 156 83 290v3c-12 13 -27 19 -45 19c-37 0 -69 -23 -97 -70c-21 -34 -38 -74 -49 -121z" />
    <glyph glyph-name="e" unicode="e" horiz-adv-x="445" 
d="M408 217h2c-13 -81 -46 -144 -86 -177s-83 -48 -130 -48c-51 0 -92 17 -124 52c-33 34 -49 81 -49 141c0 81 28 153 84 217c55 64 122 96 200 96c79 0 133 -41 133 -101c0 -51 -30 -92 -89 -123c-59 -32 -125 -45 -198 -39c-2 -13 -3 -26 -3 -40c0 -81 35 -128 100 -128
c67 0 132 53 160 150zM208 407c-29 -50 -47 -104 -56 -163c53 0 97 17 130 50s49 75 49 126c0 41 -11 62 -34 62c-31 0 -60 -25 -89 -75z" />
    <glyph glyph-name="f" unicode="f" horiz-adv-x="281" 
d="M400 543l-45 138c-5 15 -6 16 -21 16c-28 0 -50 -21 -66 -68c-8 -23 -14 -45 -19 -65s-10 -47 -16 -80h119v-19h-122l-58 -301c-21 -111 -50 -200 -94 -277s-107 -123 -182 -123c-34 0 -62 7 -83 22l62 158h2l43 -139c4 -12 9 -18 16 -18c9 0 18 5 25 15
c13 17 25 44 36 79c11 36 20 69 27 99c6 30 15 75 26 134l57 301c4 23 7 39 10 50h-76v19h81c39 145 105 229 226 229c43 0 82 -7 116 -21l-62 -149h-2z" />
    <glyph glyph-name="g" unicode="g" horiz-adv-x="475" 
d="M286 77c42 -9 74 -26 95 -49s31 -51 31 -83c0 -53 -24 -96 -73 -130s-107 -51 -174 -51c-60 0 -111 11 -153 33c-42 23 -63 54 -63 93c0 60 59 101 142 117c-49 15 -73 41 -73 77c0 49 46 88 130 100c-57 21 -93 67 -93 131c0 55 21 99 64 133c42 33 92 50 150 50
c43 0 82 -12 116 -36c9 -6 16 -6 22 0l125 136h2l-34 -162h-90c20 -23 30 -51 30 -83c0 -55 -21 -99 -64 -132s-93 -50 -150 -50c-25 0 -48 3 -67 10c-25 -7 -45 -24 -45 -40c0 -18 18 -31 53 -38zM276 -190c27 21 40 48 40 81c0 43 -31 71 -93 85l-110 25c-2 0 -7 1 -15 4
c-45 -26 -67 -62 -67 -107c0 -35 14 -63 43 -85s62 -33 101 -33c41 0 74 10 101 30zM314 302c8 31 12 62 12 92c0 59 -17 89 -50 89c-32 0 -58 -23 -78 -68s-30 -93 -30 -142c0 -58 16 -87 49 -87c22 0 42 12 59 35s30 50 38 81z" />
    <glyph glyph-name="h" unicode="h" horiz-adv-x="520" 
d="M506 202h2c-8 -65 -28 -116 -59 -153c-32 -38 -67 -57 -106 -57c-45 0 -74 27 -74 74c0 23 8 59 24 108l49 150c12 37 18 63 18 78c0 20 -10 30 -29 30c-38 0 -74 -28 -107 -85c-33 -58 -69 -174 -109 -347h-115l151 649c4 17 3 19 -9 23l-76 30v2l220 20l-103 -436h2
c49 132 129 210 209 210c52 0 84 -32 84 -83c0 -24 -8 -63 -25 -116l-45 -142c-10 -31 -15 -55 -15 -70c0 -18 8 -27 23 -27c16 0 31 10 45 30c17 23 32 61 45 112z" />
    <glyph glyph-name="i" unicode="i" horiz-adv-x="285" 
d="M36 68c0 20 4 47 12 80l74 279c3 12 0 20 -10 23l-75 30v2l222 16l-90 -338c-10 -39 -15 -63 -15 -73c0 -18 7 -27 22 -27c16 0 31 10 45 29c19 27 34 64 45 113h2c-6 -54 -24 -102 -54 -145c-31 -43 -66 -65 -107 -65c-44 0 -71 29 -71 76zM277 675
c12 -11 18 -26 18 -44c0 -41 -34 -73 -77 -73c-37 0 -64 24 -64 60c0 41 34 74 77 74c19 0 34 -6 46 -17z" />
    <glyph glyph-name="j" unicode="j" horiz-adv-x="263" 
d="M-203 -214l64 158h2l43 -143c3 -9 8 -14 15 -14c6 0 13 4 22 11c37 32 73 134 108 305l67 325c3 12 -1 20 -11 23l-74 29v2l221 16l-87 -370c-57 -243 -153 -364 -290 -364c-31 0 -57 7 -80 22zM277 675c12 -11 18 -26 18 -44c0 -41 -34 -73 -77 -73c-37 0 -64 24 -64 60
c0 41 34 74 77 74c19 0 34 -6 46 -17z" />
    <glyph glyph-name="k" unicode="k" horiz-adv-x="486" 
d="M534 482v-2l-117 -61c-27 -15 -44 -25 -52 -31l-62 -46l36 -212c9 -52 19 -70 42 -70c16 0 32 11 47 34c16 25 30 61 41 108h2c-7 -65 -27 -117 -59 -154s-66 -56 -103 -56c-51 0 -68 26 -79 94l-21 142c-4 29 -15 44 -32 37l-60 -265h-115l144 649c4 17 2 18 -10 23
l-75 30v2l219 20l-102 -453l164 121c13 9 19 16 19 20c0 5 -5 12 -14 21l-45 47v2h232z" />
    <glyph glyph-name="l" unicode="l" horiz-adv-x="262" 
d="M90 -8c-23 0 -40 7 -53 22c-13 14 -19 32 -19 55c0 19 4 45 12 80l115 500c4 16 2 19 -9 23l-75 30v2l219 20l-131 -566c-8 -33 -12 -56 -12 -69c0 -19 8 -29 23 -29s30 10 44 29c19 26 34 64 45 113h2c-7 -66 -29 -119 -65 -159c-31 -34 -63 -51 -96 -51z" />
    <glyph glyph-name="m" unicode="m" horiz-adv-x="798" 
d="M637 403c0 19 -9 29 -28 29c-25 0 -50 -14 -73 -42c-24 -29 -45 -68 -64 -119s-43 -141 -74 -271h-117l79 325c11 46 16 73 16 80c0 18 -8 27 -25 27c-26 0 -52 -17 -79 -51c-21 -28 -42 -69 -63 -123s-44 -140 -70 -258h-116l99 424c4 19 4 21 -9 27l-75 29v2l221 16
l-51 -207h2c23 60 53 110 90 149s74 58 110 58c48 0 85 -30 85 -87c0 -17 -9 -56 -27 -115h2c47 127 127 202 203 202c51 0 83 -34 83 -83c0 -22 -9 -61 -26 -116l-44 -142c-10 -31 -15 -55 -15 -70c0 -18 7 -27 22 -27c16 0 31 10 45 30c20 29 35 66 45 112h2
c-8 -65 -28 -116 -59 -153c-32 -38 -67 -57 -106 -57c-45 0 -73 27 -73 75c0 23 8 59 24 107l48 150c12 37 18 64 18 79z" />
    <glyph glyph-name="n" unicode="n" horiz-adv-x="546" 
d="M531 202h2c-8 -64 -28 -115 -59 -153s-66 -57 -105 -57c-45 0 -74 27 -74 74c0 23 8 59 24 108l48 150c12 37 18 64 18 79c0 19 -10 29 -30 29c-35 0 -68 -25 -100 -76c-37 -57 -75 -176 -116 -356h-116l99 424c4 19 4 21 -9 27l-75 29v2l221 16l-51 -208h2
c24 64 55 115 93 152c37 37 76 56 117 56c52 0 84 -32 84 -83c0 -22 -9 -61 -26 -116l-44 -142c-10 -31 -15 -55 -15 -70c0 -18 7 -27 22 -27c16 0 31 10 45 30c20 29 35 66 45 112z" />
    <glyph glyph-name="o" unicode="o" horiz-adv-x="489" 
d="M193 -9c-49 0 -90 15 -122 46c-33 31 -49 78 -49 142c0 85 27 159 80 223s118 96 193 96c49 0 90 -15 123 -46s49 -79 49 -142c0 -85 -27 -160 -80 -223c-54 -64 -119 -96 -194 -96zM147 109c0 -69 16 -103 49 -103c25 0 50 21 73 63c23 41 42 91 55 148s19 112 19 163
c0 69 -16 103 -49 103c-25 0 -50 -21 -73 -62c-23 -42 -41 -92 -54 -149s-20 -112 -20 -163z" />
    <glyph glyph-name="p" unicode="p" horiz-adv-x="509" 
d="M459 461c20 -25 30 -60 30 -106c0 -102 -27 -188 -80 -258c-54 -70 -114 -105 -181 -105c-38 0 -66 10 -84 30l-43 -181c-4 -15 -3 -17 9 -22l108 -45v-2h-305v2l52 36c10 7 16 17 19 28l138 587c4 19 3 20 -9 25l-75 30v2l221 16l-51 -205h2c49 137 106 205 173 205
c31 0 56 -12 76 -37zM147 35l-1 -5c12 -7 25 -10 40 -10c43 0 82 29 116 87c41 71 63 156 64 255c0 47 -13 70 -38 70c-26 0 -54 -30 -85 -90c-27 -51 -59 -153 -96 -307z" />
    <glyph glyph-name="q" unicode="q" horiz-adv-x="489" 
d="M485 498h2l-150 -656c-3 -12 0 -21 8 -26l57 -42v-2h-294v2l93 46c11 6 18 15 21 28l78 336h-2c-46 -128 -101 -192 -166 -192c-67 0 -109 57 -109 149c0 95 26 179 79 250s110 107 173 107c47 0 78 -17 92 -52zM146 135c0 -51 14 -76 42 -76c29 0 57 30 84 90
c28 62 58 160 89 293c-9 14 -24 21 -47 21c-43 0 -81 -32 -114 -96c-32 -65 -54 -162 -54 -232z" />
    <glyph glyph-name="r" unicode="r" horiz-adv-x="388" 
d="M378 498c20 0 37 -4 50 -13l-71 -193h-2l-38 124c-2 6 -5 9 -9 9c-6 0 -13 -4 -21 -12c-14 -14 -29 -37 -45 -70c-15 -29 -29 -65 -42 -109s-32 -122 -57 -234h-115l92 423c4 20 4 21 -11 28l-74 29v2l221 16l-47 -199h2c51 136 98 199 167 199z" />
    <glyph glyph-name="s" unicode="s" horiz-adv-x="388" 
d="M381 473l-56 -162h-2l-51 160c-3 9 -8 13 -16 13h-10c-56 0 -89 -32 -89 -79c0 -37 29 -71 92 -119c64 -48 94 -84 94 -137c0 -39 -17 -74 -50 -107c-34 -33 -82 -50 -144 -50c-55 0 -106 12 -152 36l60 166h2l49 -171c2 -9 7 -14 16 -15c6 -1 15 -2 27 -2
c60 0 93 38 93 87c0 18 -6 34 -18 49c-13 14 -36 35 -71 64c-64 52 -93 90 -93 145c0 41 16 75 49 104s76 43 131 43c47 0 93 -8 139 -25z" />
    <glyph glyph-name="t" unicode="t" horiz-adv-x="297" 
d="M355 482v-18h-117l-70 -306c-9 -36 -13 -59 -13 -70c0 -19 8 -28 23 -28s28 8 41 25c23 30 39 69 49 117h2c-8 -69 -31 -123 -68 -163c-30 -31 -61 -47 -94 -47c-44 0 -72 32 -72 73c0 18 4 46 13 83l75 316h-79v18h74c10 0 17 3 22 8l145 190h2l-46 -198h113z" />
    <glyph glyph-name="u" unicode="u" horiz-adv-x="551" 
d="M448 59c17 0 33 11 47 32c17 24 32 61 44 111h2c-11 -77 -35 -134 -72 -171c-26 -26 -55 -39 -86 -39c-45 0 -72 27 -72 78c0 36 8 80 23 131h-2c-24 -64 -54 -115 -91 -152c-37 -38 -75 -57 -113 -57c-51 0 -84 34 -84 83c0 24 9 63 26 116l44 142c10 31 15 55 15 70
c0 19 -7 28 -22 28s-31 -10 -46 -30c-18 -25 -33 -62 -44 -110l-2 1c9 63 30 114 61 151s65 55 103 55c45 0 74 -28 74 -73c0 -23 -8 -59 -24 -108l-48 -151c-12 -37 -18 -64 -18 -79c0 -20 11 -30 32 -30c27 0 58 26 92 78c17 27 35 66 52 116s38 128 64 235l117 7
l-88 -357c-5 -18 -7 -35 -7 -50c0 -18 8 -27 23 -27z" />
    <glyph glyph-name="v" unicode="v" horiz-adv-x="445" 
d="M452 498c0 -49 -8 -102 -23 -160c-32 -117 -82 -225 -160 -294c-39 -35 -80 -52 -121 -52c-65 0 -98 45 -98 105c0 27 7 65 22 116l33 114c10 34 15 59 15 74c0 19 -7 28 -22 28c-31 0 -56 -35 -92 -114h-2c38 122 93 183 165 183c49 0 73 -27 73 -80
c0 -24 -9 -65 -27 -124l-32 -104c-10 -30 -15 -55 -15 -76c0 -36 16 -64 51 -64c38 0 73 28 104 84s47 113 47 172c0 49 -11 90 -33 123l-18 25v2z" />
    <glyph glyph-name="w" unicode="w" horiz-adv-x="683" 
d="M570 442c-5 7 -8 11 -9 12v2l130 42c-1 -69 -15 -143 -41 -220s-62 -144 -109 -201s-97 -85 -148 -85c-49 0 -85 31 -85 96c0 21 4 47 12 76h-2c-37 -115 -93 -172 -169 -172c-67 0 -99 44 -99 104c0 26 7 64 22 115l33 116c10 34 15 59 15 74c0 19 -7 28 -22 28
c-27 0 -58 -38 -92 -114h-2c38 122 93 183 165 183c49 0 73 -27 73 -80c0 -25 -9 -67 -27 -124l-34 -109c-10 -33 -15 -59 -15 -79c0 -35 17 -55 42 -55c39 0 74 42 103 126c28 79 49 181 63 304l118 17c-4 -30 -9 -62 -15 -95s-11 -59 -15 -78c-5 -19 -11 -46 -20 -82
c-9 -37 -15 -59 -17 -67c-7 -31 -10 -52 -10 -63c0 -41 16 -62 48 -62c34 0 67 27 99 82c31 54 47 112 47 173c0 49 -10 89 -30 120c-1 3 -4 8 -9 16z" />
    <glyph glyph-name="x" unicode="x" horiz-adv-x="483" 
d="M380 469c20 19 43 29 69 29c25 0 45 -8 60 -23l-67 -171h-2l-28 101c-3 11 -9 16 -18 16c-6 0 -12 -2 -19 -7c-24 -16 -52 -53 -84 -111l34 -179c7 -41 21 -61 40 -61c33 0 66 49 89 130h2c-9 -60 -30 -108 -61 -145s-64 -56 -99 -56c-44 0 -69 26 -82 91l-18 89
c-10 -22 -18 -39 -25 -52c-49 -93 -83 -128 -134 -128c-25 0 -45 8 -60 23l67 172h2l28 -101c3 -11 10 -17 19 -17c6 0 13 3 20 8c25 18 52 55 81 110l-35 181c-7 40 -21 60 -40 60c-33 0 -69 -47 -90 -126h-2c9 59 29 106 61 142s65 54 99 54c45 0 70 -25 83 -89l18 -93
c3 5 7 14 14 28c6 13 10 22 12 25c24 47 46 80 66 100z" />
    <glyph glyph-name="y" unicode="y" horiz-adv-x="453" 
d="M460 498c-9 -92 -31 -183 -67 -273c-37 -90 -81 -170 -134 -239c-51 -67 -105 -120 -163 -161c-59 -41 -109 -61 -151 -61c-12 0 -21 2 -28 5l52 152h2l81 -87c6 -7 14 -8 23 -3c21 13 48 35 80 67c5 5 7 12 7 22v20c-1 85 -6 170 -17 256s-24 148 -37 187
c-8 24 -18 36 -31 36c-22 0 -46 -38 -71 -114h-2c11 56 29 102 53 139c23 36 52 54 85 54c45 0 69 -33 86 -96c12 -42 22 -98 29 -168s10 -140 8 -210h2c27 41 50 84 68 129c25 64 38 121 38 172c0 53 -16 96 -48 129v2z" />
    <glyph glyph-name="z" unicode="z" horiz-adv-x="388" 
d="M410 511h2c-3 -40 -22 -78 -58 -115l-246 -256c20 -2 49 -9 86 -22s64 -20 83 -20s37 8 54 24c17 15 32 47 46 94h2c-10 -65 -30 -119 -61 -164c-27 -41 -60 -62 -98 -62c-19 0 -49 7 -90 22c-41 16 -68 24 -80 24c-29 0 -47 -17 -55 -50h-2c0 11 1 20 2 27
c5 29 21 58 48 87l240 248c-21 3 -47 11 -78 24c-36 15 -66 23 -89 23c-36 0 -62 -21 -85 -101h-2c24 138 71 207 140 207c20 0 53 -9 100 -28c37 -15 61 -22 72 -22c37 0 60 20 69 60z" />
    <glyph glyph-name="braceleft" unicode="{" horiz-adv-x="352" 
d="M438 720v-2c-50 3 -90 -12 -120 -44c-31 -33 -48 -67 -52 -103l-19 -171c-5 -53 -52 -94 -108 -106v-2c49 -12 78 -62 62 -114l-50 -166c-11 -37 -9 -71 8 -102s51 -45 102 -42v-2c-23 -5 -44 -8 -65 -8c-47 0 -86 17 -116 51c-31 35 -38 77 -22 128l51 167
c15 47 -12 83 -65 88v2c56 7 97 39 101 80l18 172c9 87 64 146 121 167c29 10 59 15 92 15c21 0 42 -3 62 -8z" />
    <glyph glyph-name="bar" unicode="|" horiz-adv-x="219" 
d="M15 -250l-18 4l206 996l18 -4z" />
    <glyph glyph-name="braceright" unicode="}" horiz-adv-x="352" 
d="M324 294v-2c-55 -5 -95 -39 -100 -80l-19 -172c-7 -63 -31 -110 -72 -139s-88 -43 -140 -43c-21 0 -42 3 -63 8v2c50 -3 90 12 121 44c31 33 48 67 51 103l19 171c5 53 53 94 109 106v2c-49 12 -78 61 -63 113l50 166c19 62 3 151 -110 145v2c23 5 45 8 65 8
c47 0 86 -17 117 -51c30 -35 37 -77 21 -128l-51 -168c-15 -45 12 -82 65 -87z" />
    <glyph glyph-name="asciitilde" unicode="~" horiz-adv-x="502" 
d="M56 284l-16 10c27 45 64 67 113 67c31 0 70 -11 117 -33s83 -33 110 -33c41 0 73 19 97 58l16 -9c-27 -45 -64 -67 -113 -67c-31 0 -69 11 -116 33s-84 33 -111 33c-41 0 -73 -20 -97 -59z" />
    <glyph glyph-name="uni00A0" unicode="&#xa0;" horiz-adv-x="194" 
 />
    <glyph glyph-name="exclamdown" unicode="&#xa1;" horiz-adv-x="255" 
d="M117 -214h-177l189 487h2zM91 421c0 21 8 39 23 54s33 22 55 22c36 0 63 -26 63 -62c0 -41 -33 -76 -77 -76c-36 0 -64 26 -64 62z" />
    <glyph glyph-name="cent" unicode="&#xa2;" horiz-adv-x="444" 
d="M387 216h2c-24 -137 -95 -213 -182 -222l-20 -102l-17 3l19 97c-100 0 -168 70 -168 189c0 79 25 150 76 213s114 97 191 103l21 108l17 -3l-21 -104c47 0 88 -7 124 -22l-70 -178h-2l-41 168c-3 11 -8 16 -14 16l-80 -412c3 -1 9 -1 16 -1c60 0 118 50 149 147zM148 196
c0 -65 19 -105 57 -121l80 406c-37 -9 -69 -44 -96 -106s-41 -122 -41 -179z" />
    <glyph glyph-name="sterling" unicode="&#xa3;" horiz-adv-x="571" 
d="M439 314v-18h-177c-3 -91 -53 -166 -137 -187v-2h245c18 0 30 1 36 3s14 8 23 17l82 81h2l-66 -208h-460v2l87 81c57 53 84 95 84 156c0 17 -3 36 -8 57h-97v18h92c-1 5 -4 16 -8 33c-5 17 -8 29 -10 38c-4 17 -9 49 -9 73c0 75 25 137 76 184c50 47 117 71 201 71
c59 0 121 -8 185 -24l-51 -213h-2l-75 203c-3 9 -10 13 -19 14c-7 1 -18 1 -33 1c-35 0 -65 -13 -89 -38s-40 -54 -49 -87s-14 -67 -14 -104c0 -20 2 -46 7 -79c4 -33 6 -57 7 -72h177z" />
    <glyph glyph-name="currency" unicode="&#xa4;" horiz-adv-x="733" 
d="M661 641l12 -13l-113 -113c43 -43 64 -97 64 -163c0 -65 -21 -119 -64 -163l112 -111l-11 -13l-113 112c-44 -38 -98 -57 -162 -57s-118 19 -161 57l-113 -112l-12 12l112 112c-42 43 -63 98 -63 163s21 120 63 163l-112 113l12 13l113 -113c45 38 98 57 161 57
s117 -19 161 -58zM231 508c-42 -40 -63 -92 -63 -156c0 -65 21 -116 63 -155c41 -39 93 -59 155 -59s114 20 156 59s63 90 63 155c0 64 -21 116 -63 156c-42 39 -94 59 -156 59s-114 -20 -155 -59z" />
    <glyph glyph-name="yen" unicode="&#xa5;" horiz-adv-x="589" 
d="M561 570l-185 -255c-7 -9 -11 -19 -14 -29h152v-19h-156l-17 -85h153v-19h-157l-17 -82c-3 -13 -2 -15 7 -22l72 -57v-2h-320v2l95 57c9 5 14 13 16 22l17 82h-149v19h153l18 85h-151v19h152l-109 323c-4 12 -10 24 -19 37l-39 55v2h276v-2l-75 -59c-7 -7 -10 -14 -8 -21
l98 -306l190 264c7 9 7 18 2 27l-65 95v2h237v-2l-118 -93c-17 -13 -30 -26 -39 -38z" />
    <glyph glyph-name="brokenbar" unicode="&#xa6;" horiz-adv-x="219" 
d="M15 -250l-18 4l90 435l18 -4zM133 320l-18 4l88 426l18 -4z" />
    <glyph glyph-name="section" unicode="&#xa7;" horiz-adv-x="510" 
d="M427 193c-29 -29 -65 -50 -108 -63c39 -35 58 -75 58 -120c0 -53 -21 -96 -63 -130c-43 -33 -92 -50 -149 -50s-107 6 -150 17l73 193h2l43 -180c2 -9 8 -15 18 -16c5 -1 11 -1 19 -1c29 0 55 11 78 32c23 22 34 48 34 79c0 36 -27 74 -82 113l-40 30
c-73 53 -103 93 -103 148c0 40 14 75 43 104s64 50 107 63c-38 35 -57 75 -57 121c0 53 21 97 64 130c42 33 92 50 149 50c54 0 104 -6 150 -17l-73 -193h-2l-43 180c-2 9 -8 14 -17 15c-5 1 -12 1 -21 1c-29 0 -55 -11 -77 -32c-23 -22 -34 -48 -34 -79
c0 -36 27 -74 81 -113l40 -30c72 -52 103 -94 103 -145c0 -42 -14 -78 -43 -107zM355 177c12 19 18 39 18 60c0 27 -20 57 -60 90c-64 50 -97 76 -99 79c-33 -17 -60 -59 -60 -100c0 -29 20 -59 60 -90c2 -1 78 -62 98 -80c17 8 31 22 43 41z" />
    <glyph glyph-name="dieresis" unicode="&#xa8;" horiz-adv-x="401" 
d="M245 580c-11 9 -16 22 -16 38c0 36 30 64 67 64c32 0 55 -21 55 -53c0 -36 -30 -64 -67 -64c-15 0 -28 5 -39 15zM106 565c-16 0 -29 5 -39 15c-11 9 -16 22 -16 38c0 36 30 64 67 64c32 0 55 -21 55 -53c0 -36 -30 -64 -67 -64z" />
    <glyph glyph-name="copyright" unicode="&#xa9;" horiz-adv-x="813" 
d="M67 352c0 102 35 188 105 257c69 69 154 104 254 104c105 0 191 -33 258 -100s101 -154 101 -261c0 -103 -33 -189 -99 -258c-67 -69 -153 -104 -260 -104c-108 0 -195 35 -260 104c-66 69 -99 155 -99 258zM185 597c-66 -66 -99 -148 -99 -245c0 -98 31 -180 94 -245
c62 -66 144 -99 246 -99c101 0 183 33 246 99c63 65 94 147 94 245c0 101 -32 184 -96 248c-64 63 -145 95 -244 95c-95 0 -175 -33 -241 -98zM559 548v-128h-2l-83 114c-5 7 -12 11 -21 11h-10c-59 0 -95 -77 -95 -193c0 -123 39 -192 100 -192h9c9 0 15 3 19 10l81 117h2
v-133c-31 -7 -69 -10 -114 -10c-133 0 -207 82 -207 207c0 62 18 112 55 151s85 58 145 58c47 0 87 -4 121 -12z" />
    <glyph glyph-name="ordfeminine" unicode="&#xaa;" horiz-adv-x="364" 
d="M392 507h2c-7 -36 -19 -66 -34 -91c-21 -34 -46 -51 -75 -51s-49 19 -49 54c0 13 4 36 13 71h-2c-30 -83 -68 -125 -113 -125c-43 0 -73 37 -73 105c0 61 18 117 53 168c35 50 75 75 120 75c32 0 53 -12 63 -35l84 36l2 -1c-26 -105 -48 -186 -65 -243
c-4 -15 -6 -27 -6 -36c0 -15 6 -22 17 -22c23 0 44 32 63 95zM192 640c-31 -51 -47 -109 -47 -175c0 -36 9 -54 28 -54c23 0 45 26 64 77c10 25 28 86 55 182c-7 13 -17 19 -31 19c-25 0 -48 -16 -69 -49z" />
    <glyph glyph-name="guillemotleft" unicode="&#xab;" horiz-adv-x="449" 
d="M376 37l-167 213v2l256 213l2 -2l-142 -219l53 -206zM31 252l256 213l2 -2l-142 -219l53 -206l-2 -1l-167 213v2z" />
    <glyph glyph-name="logicalnot" unicode="&#xac;" horiz-adv-x="540" 
d="M488 316h-442v18h461v-225h-19v207z" />
    <glyph glyph-name="uni00AD" unicode="&#xad;" horiz-adv-x="351" 
d="M306 235h-260v19h260v-19z" />
    <glyph glyph-name="registered" unicode="&#xae;" horiz-adv-x="813" 
d="M684 613c67 -67 101 -154 101 -261c0 -103 -33 -189 -99 -258c-67 -69 -153 -104 -260 -104c-108 0 -195 35 -260 104c-66 69 -99 155 -99 258c0 102 35 188 105 257c69 69 154 104 254 104c105 0 191 -33 258 -100zM766 352c0 101 -32 184 -96 248
c-64 63 -145 95 -244 95c-95 0 -175 -33 -241 -98c-66 -66 -99 -148 -99 -245c0 -98 31 -180 94 -245c62 -66 144 -99 246 -99c101 0 183 33 246 99c63 65 94 147 94 245zM516 163l-89 166c-3 5 -8 8 -15 8h-22v-131c0 -5 2 -9 7 -13l42 -28v-2h-188v2l43 28c5 3 7 8 7 13
v297c0 6 -2 10 -7 13l-43 28v2h208c75 0 126 -33 126 -101c0 -52 -39 -91 -104 -100v-2l43 -21l67 -114c6 -9 12 -16 17 -20l28 -23v-2h-120zM390 354h28c47 0 71 29 71 86c0 59 -22 89 -65 89h-22c-8 0 -12 -4 -12 -11v-164z" />
    <glyph glyph-name="macron" unicode="&#xaf;" horiz-adv-x="365" 
d="M313 592h-262v18h262v-18z" />
    <glyph glyph-name="degree" unicode="&#xb0;" horiz-adv-x="324" 
d="M193 470c-35 0 -65 11 -90 33s-37 51 -37 86c0 36 12 65 37 88s55 34 90 34s65 -11 90 -34s37 -52 37 -88c0 -35 -12 -64 -37 -86s-55 -33 -90 -33zM118 664c-22 -20 -33 -45 -33 -75c0 -29 11 -53 33 -72c21 -19 46 -29 75 -29s55 10 76 29s32 43 32 72
c0 30 -11 55 -32 75c-21 19 -47 29 -76 29s-54 -10 -75 -29z" />
    <glyph glyph-name="plusminus" unicode="&#xb1;" horiz-adv-x="540" 
d="M70 365v18h211v161h19v-161h210v-18h-210v-162h-19v162h-211zM70 123h440v-18h-440v18z" />
    <glyph glyph-name="twosuperior" unicode="&#xb2;" 
d="M324 522h2l-35 -102h-239v2c21 16 59 46 114 90c61 49 100 92 100 144c0 28 -15 42 -45 42c-5 0 -9 0 -12 -1c-6 -1 -10 -3 -12 -7l-58 -92h-2l-20 93c42 15 81 22 118 22c73 0 109 -24 109 -73c0 -57 -66 -109 -199 -158v-2h105c14 0 24 3 31 8z" />
    <glyph glyph-name="threesuperior" unicode="&#xb3;" 
d="M343 646c0 -20 -8 -36 -24 -48c-17 -12 -40 -19 -70 -22v-2c47 -4 76 -29 76 -62s-16 -57 -47 -72c-32 -16 -71 -24 -116 -24c-38 0 -73 6 -106 18l69 96h2l9 -88c1 -5 4 -9 9 -10s10 -1 15 -1c48 0 87 35 87 86c0 34 -23 52 -70 55v2c52 5 90 34 90 83
c0 27 -14 41 -41 41c-6 0 -11 0 -14 -1c-5 -1 -10 -3 -13 -8l-58 -89h-2l-21 91c39 15 77 22 113 22c69 0 112 -27 112 -67z" />
    <glyph glyph-name="acute" unicode="&#xb4;" horiz-adv-x="347" 
d="M66 539l-1 1l115 163h143v-2z" />
    <glyph glyph-name="mu" unicode="&#xb5;" horiz-adv-x="570" 
d="M337 201h-2c-44 -119 -113 -192 -181 -201c-7 -1 -11 -2 -14 -2l-40 -157c-4 -15 -2 -17 10 -22l108 -45v-2h-306v2l52 36c13 9 16 13 20 28l133 495c9 33 14 56 14 70c0 19 -7 28 -22 28c-16 0 -31 -10 -45 -30c-18 -25 -33 -62 -44 -109h-2c9 63 29 113 60 150
s65 56 104 56c45 0 73 -28 73 -73c0 -21 -8 -57 -23 -108l-45 -151c-12 -41 -18 -68 -18 -79c0 -20 10 -30 29 -30c29 0 62 28 97 85c21 32 42 86 64 161c21 73 36 134 47 183l117 7l-88 -357c-5 -17 -7 -33 -7 -49c0 -19 8 -28 23 -28c35 0 70 55 91 143h2
c-9 -67 -31 -121 -65 -162c-28 -32 -59 -48 -94 -48c-44 0 -72 27 -72 79c0 31 8 74 24 130z" />
    <glyph glyph-name="paragraph" unicode="&#xb6;" horiz-adv-x="605" 
d="M620 703v-18h-90l-130 -667h86v-18h-90l-48 -250l-20 3l48 247h-68c-67 0 -121 20 -164 59s-65 99 -65 182c0 208 115 462 366 462h175zM439 685l-130 -667h71l130 667h-71z" />
    <glyph glyph-name="periodcentered" unicode="&#xb7;" horiz-adv-x="222" 
d="M69 416c0 41 33 76 76 76c37 0 65 -26 65 -62c0 -41 -34 -76 -78 -76c-36 0 -63 26 -63 62z" />
    <glyph glyph-name="cedilla" unicode="&#xb8;" horiz-adv-x="364" 
d="M264 -78c15 -12 22 -28 22 -47c0 -31 -13 -58 -38 -79c-26 -21 -58 -32 -95 -32c-64 0 -104 38 -99 89h2c4 -36 36 -55 69 -55c41 0 78 30 78 71c0 28 -22 45 -54 45c-13 0 -26 -2 -39 -7l-1 2l88 90h2l-21 -61c10 2 19 3 28 3c24 0 43 -6 58 -19z" />
    <glyph glyph-name="onesuperior" unicode="&#xb9;" horiz-adv-x="252" 
d="M58 422l71 31c5 2 8 5 9 8l40 189c1 5 -1 8 -5 9l-66 21v2l160 34l-54 -255c-1 -3 1 -5 5 -8l59 -31v-2h-219v2z" />
    <glyph glyph-name="ordmasculine" unicode="&#xba;" horiz-adv-x="354" 
d="M68 494c0 59 18 110 55 154c37 43 81 65 133 65c67 0 116 -41 116 -129c0 -59 -18 -110 -55 -153c-37 -44 -81 -66 -132 -66c-67 0 -117 42 -117 129zM154 446c0 -45 11 -67 33 -67c27 0 50 28 71 85c20 56 30 112 30 168c0 45 -11 67 -34 67c-27 0 -50 -28 -70 -84
s-30 -112 -30 -169z" />
    <glyph glyph-name="guillemotright" unicode="&#xbb;" horiz-adv-x="449" 
d="M164 37l-1 1l141 219l-53 207l2 1l167 -213v-2zM-13 37l-1 1l141 219l-53 207l2 1l167 -213v-2z" />
    <glyph glyph-name="onequarter" unicode="&#xbc;" horiz-adv-x="485" 
d="M308 2v-2h-172v2l50 26c5 3 8 6 9 11l7 33h-141v2l202 215h56l-42 -202h13c8 0 14 3 17 8l62 82h2l-29 -105h-68l-7 -34c-1 -4 1 -7 4 -10zM308 461c-1 -3 1 -5 5 -8l59 -31v-2h-219v2l71 31c5 2 8 5 9 8l40 189c1 5 -1 8 -5 9l-66 21v2l160 34zM92 87h113l34 155z
M448 361v-18h-365v18h365z" />
    <glyph glyph-name="onehalf" unicode="&#xbd;" horiz-adv-x="485" 
d="M299 0h-239v2c21 16 59 46 114 90c61 49 100 92 100 144c0 28 -15 42 -45 42c-5 0 -10 0 -13 -1c-5 -1 -9 -3 -11 -7l-58 -92h-2l-20 93c42 15 81 22 118 22c73 0 109 -24 109 -73c0 -57 -66 -109 -199 -158v-2h105c14 0 24 3 31 8l43 34h2zM308 461c-1 -3 1 -5 5 -8
l59 -31v-2h-219v2l71 31c5 2 8 5 9 8l40 189c1 5 -1 8 -5 9l-66 21v2l160 34zM83 343v18h365v-18h-365z" />
    <glyph glyph-name="threequarters" unicode="&#xbe;" horiz-adv-x="485" 
d="M342 72h-68l-7 -34c-1 -4 1 -7 4 -10l37 -26v-2h-172v2l50 26c5 3 8 6 9 11l7 33h-141v2l202 215h56l-42 -202h13c8 0 14 3 17 8l62 82h2zM342 517c0 34 -23 52 -70 55v2c26 3 48 11 65 25s25 33 25 58c0 27 -14 41 -41 41c-6 0 -11 0 -14 -1c-5 -1 -10 -3 -13 -8
l-58 -89h-2l-21 91c39 15 77 22 113 22c69 0 112 -27 112 -67s-34 -65 -94 -70v-2c47 -4 76 -29 76 -62s-16 -57 -47 -72c-32 -16 -71 -24 -116 -24c-38 0 -73 6 -106 18l69 96h2l9 -88c1 -5 4 -9 9 -10s10 -1 15 -1c48 0 87 35 87 86zM239 242l-147 -155h113zM445 361v-18
h-371v18h371z" />
    <glyph glyph-name="questiondown" unicode="&#xbf;" horiz-adv-x="434" 
d="M-42 -80c0 26 6 50 17 72c24 45 69 78 110 105c21 13 44 28 70 43c25 15 45 28 59 39c27 21 41 43 41 64c0 9 -2 17 -6 24l1 2c37 -1 66 -37 66 -74c0 -129 -230 -153 -230 -300c0 -67 27 -100 81 -100c15 0 25 1 32 2c13 3 22 8 27 17l111 173h2l31 -163
c-71 -32 -144 -48 -219 -48c-120 0 -193 55 -193 144zM375 435c0 -21 -7 -38 -22 -53s-34 -23 -55 -23c-37 0 -64 25 -64 62c0 41 33 76 77 76c36 0 64 -26 64 -62z" />
    <glyph glyph-name="Agrave" unicode="&#xc0;" horiz-adv-x="621" 
d="M545 55l31 -53v-2h-257v2l74 60c7 5 10 14 8 26l-19 158h-228l-62 -115c-8 -16 -7 -17 5 -34l66 -95v-2h-230v2l108 95c14 12 25 25 32 39l252 465c11 21 9 23 0 36l-43 64v2h176l73 -608c1 -13 6 -27 14 -40zM164 265h216l-38 328zM224 913v2h142l114 -163l-1 -1z" />
    <glyph glyph-name="Aacute" unicode="&#xc1;" horiz-adv-x="621" 
d="M-67 2l108 95c14 12 25 25 32 39l252 465c11 21 9 23 0 36l-43 64v2h176l73 -608c1 -13 6 -27 14 -40l31 -53v-2h-257v2l74 60c7 5 10 14 8 26l-19 158h-228l-62 -115c-8 -16 -7 -17 5 -34l66 -95v-2h-230v2zM164 265h216l-38 328zM570 915v-2l-257 -162l-1 1l115 163
h143z" />
    <glyph glyph-name="Acircumflex" unicode="&#xc2;" horiz-adv-x="621" 
d="M163 0h-230v2l108 95c14 12 25 25 32 39l252 465c11 21 9 23 0 36l-43 64v2h176l73 -608c1 -13 6 -27 14 -40l31 -53v-2h-257v2l74 60c7 5 10 14 8 26l-19 158h-228l-62 -115c-8 -16 -7 -17 5 -34l66 -95v-2zM164 265h216l-38 328zM532 750l-2 -2l-132 77l-168 -77l-2 2
l187 173h2z" />
    <glyph glyph-name="Atilde" unicode="&#xc3;" horiz-adv-x="621" 
d="M458 703l73 -608c1 -13 6 -27 14 -40l31 -53v-2h-257v2l74 60c7 5 10 14 8 26l-19 158h-228l-62 -115c-8 -16 -7 -17 5 -34l66 -95v-2h-230v2l108 95c14 12 25 25 32 39l252 465c11 21 9 23 0 36l-43 64v2h176zM164 265h216l-38 328zM515 807c-19 -22 -41 -33 -66 -33
c-16 0 -37 8 -64 24c-27 15 -48 23 -62 23c-29 0 -53 -16 -72 -48h-2c12 69 51 118 102 118c17 0 38 -8 65 -24s47 -24 61 -24c30 0 54 16 72 49h2c-6 -35 -18 -63 -36 -85z" />
    <glyph glyph-name="Adieresis" unicode="&#xc4;" horiz-adv-x="621" 
d="M458 703l73 -608c1 -13 6 -27 14 -40l31 -53v-2h-257v2l74 60c7 5 10 14 8 26l-19 158h-228l-62 -115c-8 -16 -7 -17 5 -34l66 -95v-2h-230v2l108 95c14 12 25 25 32 39l252 465c11 21 9 23 0 36l-43 64v2h176zM164 265h216l-38 328zM262 792c-11 9 -16 22 -16 38
c0 18 7 33 20 46c13 12 28 18 47 18c32 0 55 -21 55 -53c0 -36 -30 -64 -67 -64c-16 0 -29 5 -39 15zM440 792c-11 9 -16 22 -16 38c0 18 7 33 20 46c13 12 28 18 47 18c32 0 55 -21 55 -53c0 -36 -30 -64 -67 -64c-15 0 -28 5 -39 15z" />
    <glyph glyph-name="Aring" unicode="&#xc5;" horiz-adv-x="621" 
d="M393 62c7 5 10 14 8 26l-19 158h-228l-62 -115c-8 -16 -7 -17 5 -34l66 -95v-2h-230v2l108 95c14 12 25 25 32 39l252 465c11 21 9 23 0 36l-43 64v2h176l73 -608c1 -13 6 -27 14 -40l31 -53v-2h-257v2zM342 593l-178 -328h216zM414 925c21 0 39 -7 53 -20
c14 -14 21 -32 21 -53c0 -27 -10 -51 -29 -70s-43 -29 -70 -29c-43 0 -75 30 -75 73c0 27 10 51 29 70s43 29 71 29zM390 772c43 0 78 35 78 79c0 32 -23 55 -56 55c-41 0 -78 -35 -78 -79c0 -32 23 -55 56 -55z" />
    <glyph glyph-name="AE" unicode="&#xc6;" horiz-adv-x="909" 
d="M662 684c-13 0 -17 -4 -21 -21l-62 -298h99c9 0 20 6 31 17l96 96h2l-51 -244h-2l-56 97c-6 11 -14 16 -25 16h-97l-63 -307c-4 -19 -3 -21 12 -21h150c16 0 27 4 34 13l145 196h2l-47 -228h-522v2l88 54c9 5 15 13 16 22l35 167h-234l-89 -109c-19 -23 -20 -26 -9 -42
l58 -92v-2h-235v2l111 86c21 15 37 29 47 42l386 472c15 19 15 21 6 33l-51 66v2h529l-48 -228h-2l-64 192c-5 15 -9 17 -25 17h-144zM506 629l-299 -365h223z" />
    <glyph glyph-name="Ccedilla" unicode="&#xc7;" horiz-adv-x="590" 
d="M431 713c73 0 139 -8 198 -23l-49 -229h-2l-79 214c-5 16 -10 17 -23 20c-9 1 -19 2 -30 2c-52 0 -99 -25 -141 -75s-73 -111 -94 -184s-32 -147 -32 -223c0 -61 11 -111 33 -150c21 -39 54 -59 99 -59c12 0 21 0 28 1c13 1 23 7 30 16l165 219h2l-46 -230
c-65 -15 -128 -22 -191 -22l-18 -52c10 2 19 3 28 3c48 0 80 -27 80 -66c0 -31 -13 -58 -38 -79c-26 -21 -58 -32 -95 -32c-64 0 -104 38 -99 89h2c4 -36 36 -55 69 -55c41 0 78 30 78 71c0 28 -22 45 -54 45c-13 0 -26 -2 -39 -7l-1 2l79 81c-81 2 -143 28 -187 79
s-66 116 -66 196s16 154 49 222s79 123 140 164s129 62 204 62z" />
    <glyph glyph-name="Egrave" unicode="&#xc8;" horiz-adv-x="591" 
d="M488 478l-51 -244h-2l-55 95c-9 16 -13 18 -26 18h-97l-63 -305c-4 -20 -2 -23 15 -23h145c23 0 27 2 38 15l143 194h2l-46 -228h-524v2l89 54c9 6 14 14 17 23l113 545c3 10 0 18 -7 23l-66 54v2h513l-47 -228h-2l-64 191c-5 16 -10 18 -26 18h-140
c-17 0 -20 -3 -24 -23l-62 -296h97c11 1 22 7 34 19l94 94h2zM509 752l-1 -1l-255 162v2h142z" />
    <glyph glyph-name="Eacute" unicode="&#xc9;" horiz-adv-x="591" 
d="M486 478h2l-51 -244h-2l-55 95c-9 16 -13 18 -26 18h-97l-63 -305c-4 -20 -2 -23 15 -23h145c23 0 27 2 38 15l143 194h2l-46 -228h-524v2l89 54c9 6 14 14 17 23l113 545c3 10 0 18 -7 23l-66 54v2h513l-47 -228h-2l-64 191c-5 16 -10 18 -26 18h-140
c-17 0 -20 -3 -24 -23l-62 -296h97c11 1 22 7 34 19zM456 915h143v-2l-257 -162l-1 1z" />
    <glyph glyph-name="Ecircumflex" unicode="&#xca;" horiz-adv-x="591" 
d="M488 478l-51 -244h-2l-55 95c-9 16 -13 18 -26 18h-97l-63 -305c-4 -20 -2 -23 15 -23h145c23 0 27 2 38 15l143 194h2l-46 -228h-524v2l89 54c9 6 14 14 17 23l113 545c3 10 0 18 -7 23l-66 54v2h513l-47 -228h-2l-64 191c-5 16 -10 18 -26 18h-140
c-17 0 -20 -3 -24 -23l-62 -296h97c11 1 22 7 34 19l94 94h2zM443 923h2l115 -173l-2 -2l-132 77l-168 -77l-2 2z" />
    <glyph glyph-name="Edieresis" unicode="&#xcb;" horiz-adv-x="591" 
d="M392 384l94 94h2l-51 -244h-2l-55 95c-9 16 -13 18 -26 18h-97l-63 -305c-4 -20 -2 -23 15 -23h145c23 0 27 2 38 15l143 194h2l-46 -228h-524v2l89 54c9 6 14 14 17 23l113 545c3 10 0 18 -7 23l-66 54v2h513l-47 -228h-2l-64 191c-5 16 -10 18 -26 18h-140
c-17 0 -20 -3 -24 -23l-62 -296h97c11 1 22 7 34 19zM382 880c10 -10 15 -23 15 -39c0 -36 -30 -64 -67 -64c-32 0 -55 21 -55 53c0 36 30 64 67 64c16 0 29 -5 40 -14zM453 830c0 36 30 64 67 64c32 0 55 -21 55 -53c0 -36 -30 -64 -67 -64c-31 0 -55 21 -55 53z" />
    <glyph glyph-name="Igrave" unicode="&#xcc;" horiz-adv-x="342" 
d="M420 703v-2l-88 -54c-9 -5 -15 -13 -16 -23l-114 -545c-3 -10 -1 -18 6 -23l66 -54v-2h-307v2l89 54c9 6 14 14 17 23l113 545c3 10 0 18 -7 23l-66 54v2h307zM374 751l-255 162v2h142l114 -163z" />
    <glyph glyph-name="Iacute" unicode="&#xcd;" horiz-adv-x="342" 
d="M274 0h-307v2l89 54c9 6 14 14 17 23l113 545c3 10 0 18 -7 23l-66 54v2h307v-2l-88 -54c-9 -5 -15 -13 -16 -23l-114 -545c-3 -10 -1 -18 6 -23l66 -54v-2zM465 915v-2l-257 -162l-1 1l115 163h143z" />
    <glyph glyph-name="Icircumflex" unicode="&#xce;" horiz-adv-x="342" 
d="M-33 0v2l89 54c9 6 14 14 17 23l113 545c3 10 0 18 -7 23l-66 54v2h307v-2l-88 -54c-9 -5 -15 -13 -16 -23l-114 -545c-3 -10 -1 -18 6 -23l66 -54v-2h-307zM426 750l-2 -2l-132 77l-168 -77l-2 2l187 173h2z" />
    <glyph glyph-name="Idieresis" unicode="&#xcf;" horiz-adv-x="342" 
d="M274 0h-307v2l89 54c9 6 14 14 17 23l113 545c3 10 0 18 -7 23l-66 54v2h307v-2l-88 -54c-9 -5 -15 -13 -16 -23l-114 -545c-3 -10 -1 -18 6 -23l66 -54v-2zM157 792c-11 9 -16 22 -16 38c0 18 7 33 20 46c13 12 28 18 47 18c32 0 55 -21 55 -53c0 -36 -30 -64 -67 -64
c-16 0 -29 5 -39 15zM426 880c10 -10 15 -23 15 -39c0 -36 -30 -64 -67 -64c-31 0 -55 21 -55 53c0 36 30 64 67 64c16 0 29 -5 40 -14z" />
    <glyph glyph-name="Eth" unicode="&#xd0;" horiz-adv-x="685" 
d="M683 436c0 -120 -40 -223 -119 -308c-80 -85 -177 -128 -291 -128h-303v2l87 52c9 6 15 14 17 23l57 271h-93v19h97l54 259c2 9 0 17 -7 23l-67 52v2h290c85 0 152 -24 203 -72c50 -49 75 -114 75 -195zM199 43c-3 -11 -3 -18 0 -20c2 -3 9 -4 21 -4h18
c75 0 136 30 185 90c49 59 83 134 103 224c12 53 18 106 18 158c0 124 -57 193 -153 193h-41c-15 0 -19 -3 -22 -20l-62 -297h114v-19h-118z" />
    <glyph glyph-name="Ntilde" unicode="&#xd1;" horiz-adv-x="681" 
d="M628 572c3 11 0 22 -8 31l-78 98v2h245v-2l-118 -98c-12 -9 -19 -20 -21 -31l-119 -572h-82l-239 570l-91 -439c-3 -16 -3 -19 8 -31l77 -98v-2h-244v2l118 98c12 9 19 20 21 31l94 449c3 13 2 24 -5 33l-73 88v2h179l242 -580zM600 892c-6 -35 -18 -63 -36 -85
c-19 -22 -41 -33 -66 -33c-16 0 -37 8 -64 24c-27 15 -48 23 -62 23c-29 0 -53 -16 -72 -48h-2c12 69 51 118 102 118c17 0 38 -8 65 -24s47 -24 61 -24c30 0 54 16 72 49h2z" />
    <glyph glyph-name="Ograve" unicode="&#xd2;" horiz-adv-x="685" 
d="M613 636c48 -52 72 -120 72 -204c0 -123 -36 -227 -108 -313c-73 -86 -161 -129 -265 -129c-87 0 -154 26 -201 78c-48 51 -72 119 -72 203c0 123 36 227 108 313s160 129 265 129c86 0 153 -26 201 -77zM208 417c-20 -75 -30 -147 -30 -214c0 -131 42 -196 125 -196
c45 0 86 28 125 84c39 55 68 121 88 196s30 146 30 213c0 131 -42 196 -125 196c-45 0 -86 -28 -125 -83c-39 -56 -68 -121 -88 -196zM288 915h142l114 -163l-1 -1l-255 162v2z" />
    <glyph glyph-name="Oacute" unicode="&#xd3;" horiz-adv-x="685" 
d="M39 271c0 123 36 227 108 313s160 129 265 129c86 0 153 -26 201 -77c48 -52 72 -120 72 -204c0 -123 -36 -227 -108 -313c-73 -86 -161 -129 -265 -129c-87 0 -154 26 -201 78c-48 51 -72 119 -72 203zM178 203c0 -131 42 -196 125 -196c45 0 86 28 125 84
c39 55 68 121 88 196s30 146 30 213c0 131 -42 196 -125 196c-45 0 -86 -28 -125 -83c-39 -56 -68 -121 -88 -196s-30 -147 -30 -214zM633 915v-2l-257 -162l-1 1l115 163h143z" />
    <glyph glyph-name="Ocircumflex" unicode="&#xd4;" horiz-adv-x="685" 
d="M613 636c48 -52 72 -120 72 -204c0 -123 -36 -227 -108 -313c-73 -86 -161 -129 -265 -129c-87 0 -154 26 -201 78c-48 51 -72 119 -72 203c0 123 36 227 108 313s160 129 265 129c86 0 153 -26 201 -77zM178 203c0 -131 42 -196 125 -196c45 0 86 28 125 84
c39 55 68 121 88 196s30 146 30 213c0 131 -42 196 -125 196c-45 0 -86 -28 -125 -83c-39 -56 -68 -121 -88 -196s-30 -147 -30 -214zM293 748l-2 2l187 173h2l115 -173l-2 -2l-132 77z" />
    <glyph glyph-name="Otilde" unicode="&#xd5;" horiz-adv-x="685" 
d="M613 636c48 -52 72 -120 72 -204c0 -123 -36 -227 -108 -313c-73 -86 -161 -129 -265 -129c-87 0 -154 26 -201 78c-48 51 -72 119 -72 203c0 123 36 227 108 313s160 129 265 129c86 0 153 -26 201 -77zM208 417c-20 -75 -30 -147 -30 -214c0 -131 42 -196 125 -196
c45 0 86 28 125 84c39 55 68 121 88 196s30 146 30 213c0 131 -42 196 -125 196c-45 0 -86 -28 -125 -83c-39 -56 -68 -121 -88 -196zM314 773h-2c6 35 18 63 37 85c18 22 40 33 65 33c17 0 38 -8 65 -24s47 -24 61 -24c30 0 54 16 72 49h2c-12 -69 -51 -118 -102 -118
c-16 0 -37 8 -64 24c-27 15 -48 23 -62 23c-29 0 -53 -16 -72 -48z" />
    <glyph glyph-name="Odieresis" unicode="&#xd6;" horiz-adv-x="685" 
d="M613 636c48 -52 72 -120 72 -204c0 -123 -36 -227 -108 -313c-73 -86 -161 -129 -265 -129c-87 0 -154 26 -201 78c-48 51 -72 119 -72 203c0 123 36 227 108 313s160 129 265 129c86 0 153 -26 201 -77zM178 203c0 -131 42 -196 125 -196c45 0 86 28 125 84
c39 55 68 121 88 196s30 146 30 213c0 131 -42 196 -125 196c-45 0 -86 -28 -125 -83c-39 -56 -68 -121 -88 -196s-30 -147 -30 -214zM310 830c0 36 30 64 67 64c32 0 55 -21 55 -53c0 -36 -30 -64 -67 -64c-32 0 -55 21 -55 53zM504 792c-11 9 -16 22 -16 38
c0 36 30 64 67 64c32 0 55 -21 55 -53c0 -36 -30 -64 -67 -64c-15 0 -28 5 -39 15z" />
    <glyph glyph-name="multiply" unicode="&#xd7;" horiz-adv-x="540" 
d="M141 161l-13 13l149 149l-149 149l13 13l149 -149l149 149l13 -13l-149 -149l149 -149l-13 -13l-149 149z" />
    <glyph glyph-name="Oslash" unicode="&#xd8;" horiz-adv-x="685" 
d="M642 598c29 -47 43 -102 43 -166c0 -123 -36 -227 -108 -313c-73 -86 -161 -129 -265 -129c-33 0 -66 4 -97 13l-38 -85l-18 7l37 85c-101 40 -157 136 -157 261c0 123 36 227 108 313s160 129 265 129c33 0 63 -4 90 -12l35 78l17 -7l-34 -77c53 -19 93 -51 122 -97z
M505 660l-277 -627c18 -17 43 -26 75 -26c45 0 86 28 125 84c39 55 68 121 88 196s30 146 30 213c0 75 -14 129 -41 160zM178 203c0 -71 12 -122 35 -155l277 626c-19 15 -42 22 -69 22c-45 0 -86 -28 -125 -83c-39 -56 -68 -121 -88 -196s-30 -147 -30 -214z" />
    <glyph glyph-name="Ugrave" unicode="&#xd9;" horiz-adv-x="651" 
d="M763 703v-2l-110 -87c-15 -11 -24 -26 -27 -45l-67 -318c-18 -86 -48 -151 -90 -195s-105 -66 -190 -66c-129 0 -201 70 -201 179c0 19 2 38 6 58l82 394c1 11 -1 19 -7 24l-60 56v2h300v-2l-87 -56c-9 -5 -14 -13 -17 -24l-79 -384c-6 -30 -9 -57 -9 -81
c0 -90 42 -135 126 -135c105 0 174 76 206 229l67 319c5 20 4 30 -11 46l-73 86v2h241zM312 913v2h142l114 -163l-1 -1z" />
    <glyph glyph-name="Uacute" unicode="&#xda;" horiz-adv-x="651" 
d="M763 703v-2l-110 -87c-15 -11 -24 -26 -27 -45l-67 -318c-18 -86 -48 -151 -90 -195s-105 -66 -190 -66c-129 0 -201 70 -201 179c0 19 2 38 6 58l82 394c1 11 -1 19 -7 24l-60 56v2h300v-2l-87 -56c-9 -5 -14 -13 -17 -24l-79 -384c-6 -30 -9 -57 -9 -81
c0 -90 42 -135 126 -135c105 0 174 76 206 229l67 319c5 20 4 30 -11 46l-73 86v2h241zM399 752l115 163h143v-2l-257 -162z" />
    <glyph glyph-name="Ucircumflex" unicode="&#xdb;" horiz-adv-x="651" 
d="M653 614c-15 -11 -24 -26 -27 -45l-67 -318c-18 -86 -48 -151 -90 -195s-105 -66 -190 -66c-129 0 -201 70 -201 179c0 19 2 38 6 58l82 394c1 11 -1 19 -7 24l-60 56v2h300v-2l-87 -56c-9 -5 -14 -13 -17 -24l-79 -384c-6 -30 -9 -57 -9 -81c0 -90 42 -135 126 -135
c105 0 174 76 206 229l67 319c5 20 4 30 -11 46l-73 86v2h241v-2zM317 748l-2 2l187 173h2l115 -173l-2 -2l-132 77z" />
    <glyph glyph-name="Udieresis" unicode="&#xdc;" horiz-adv-x="651" 
d="M539 250l67 319c5 20 4 30 -11 46l-73 86v2h241v-2l-110 -87c-15 -11 -24 -26 -27 -45l-67 -318c-18 -86 -48 -151 -90 -195s-105 -66 -190 -66c-129 0 -201 70 -201 179c0 19 2 38 6 58l82 394c1 11 -1 19 -7 24l-60 56v2h300v-2l-87 -56c-9 -5 -14 -13 -17 -24
l-79 -384c-6 -30 -9 -57 -9 -81c0 -90 42 -135 126 -135c105 0 174 76 206 229zM334 830c0 36 30 64 67 64c32 0 55 -21 55 -53c0 -36 -30 -64 -67 -64c-32 0 -55 21 -55 53zM615 796c-13 -13 -29 -19 -48 -19c-31 0 -55 21 -55 53c0 36 30 64 67 64c32 0 55 -21 55 -53
c0 -18 -6 -33 -19 -45z" />
    <glyph glyph-name="Yacute" unicode="&#xdd;" horiz-adv-x="601" 
d="M614 608c-18 -14 -31 -27 -39 -38l-185 -255c-7 -9 -12 -22 -15 -37l-41 -197c-3 -13 -2 -15 7 -22l72 -57v-2h-320v2l95 57c9 5 14 13 16 22l38 183c3 11 3 20 0 28l-107 317c-5 13 -11 25 -19 37l-39 55v2h276v-2l-75 -59c-8 -6 -11 -13 -8 -21l98 -306l190 264
c7 9 7 18 2 27l-65 95v2h237v-2zM363 751l-1 1l115 163h143v-2z" />
    <glyph glyph-name="Thorn" unicode="&#xde;" horiz-adv-x="613" 
d="M554 525c39 -29 59 -73 59 -132c0 -79 -31 -141 -94 -188s-141 -71 -235 -71h-71l-11 -55c-2 -11 0 -18 6 -23l66 -54v-2h-307v2l89 54c9 6 14 14 17 23l113 545c3 10 0 18 -7 23l-66 54v2h307v-2l-88 -54c-8 -5 -13 -12 -16 -23l-12 -55h93c65 0 117 -15 157 -44z
M217 153h50c59 0 108 24 149 73c40 49 60 112 60 191c0 88 -45 133 -117 133h-59z" />
    <glyph glyph-name="germandbls" unicode="&#xdf;" horiz-adv-x="545" 
d="M361 187l-35 32c-32 29 -46 44 -64 76c-9 15 -14 30 -14 44c0 38 21 71 62 98l56 37c49 32 74 80 74 145c0 45 -26 78 -73 78c-61 0 -101 -53 -122 -158l-80 -403c-20 -102 -50 -186 -89 -253c-47 -79 -107 -119 -180 -119c-33 0 -61 7 -84 22l63 157h2l42 -136
c4 -13 9 -20 16 -20c24 0 43 31 62 95c9 33 17 64 24 95c7 32 15 71 24 118c1 3 1 5 1 6l73 364h-78v19h82c35 159 113 229 246 229c96 0 158 -40 158 -103c0 -41 -30 -79 -90 -114l-61 -37c-27 -17 -40 -37 -40 -60s23 -54 69 -93l46 -39c49 -43 70 -74 70 -126
c0 -41 -18 -76 -54 -105c-37 -29 -84 -44 -143 -44s-112 11 -158 34l81 140h2l32 -143c1 -7 6 -11 15 -12c10 -2 21 -3 34 -3c56 0 92 33 92 80c0 29 -20 62 -61 99z" />
    <glyph glyph-name="agrave" unicode="&#xe0;" horiz-adv-x="522" 
d="M492 498h2c-7 -29 -38 -147 -94 -356c-5 -23 -8 -41 -8 -53c0 -21 8 -31 23 -31c18 0 35 14 52 42c15 25 28 59 40 102h2c-9 -60 -28 -110 -57 -150s-63 -60 -102 -60c-43 0 -70 27 -70 79c0 22 6 60 19 113h-2c-44 -128 -100 -192 -167 -192c-61 0 -107 54 -107 153
c0 57 12 113 35 168c23 54 54 98 94 133c39 35 81 52 124 52c44 0 74 -17 91 -51zM146 138c0 -53 14 -79 41 -79s54 27 81 82c27 58 59 158 94 299c-8 15 -24 23 -47 23c-36 0 -69 -24 -100 -71c-20 -33 -36 -73 -49 -120s-20 -92 -20 -134zM181 701v2h142l114 -163l-1 -1z
" />
    <glyph glyph-name="aacute" unicode="&#xe1;" horiz-adv-x="522" 
d="M507 202h2c-9 -60 -28 -110 -57 -150s-63 -60 -102 -60c-43 0 -70 27 -70 79c0 22 6 60 19 113h-2c-44 -128 -100 -192 -167 -192c-61 0 -107 54 -107 153c0 57 12 113 35 168c23 54 54 98 94 133c39 35 81 52 124 52c44 0 74 -17 91 -51l125 51h2
c-7 -29 -38 -147 -94 -356c-5 -23 -8 -41 -8 -53c0 -21 8 -31 23 -31c18 0 35 14 52 42c15 25 28 59 40 102zM166 272c-13 -47 -20 -92 -20 -134c0 -53 14 -79 41 -79s54 27 81 82c27 58 59 158 94 299c-8 15 -24 23 -47 23c-36 0 -69 -24 -100 -71
c-20 -33 -36 -73 -49 -120zM268 540l115 163h143v-2l-257 -162z" />
    <glyph glyph-name="acircumflex" unicode="&#xe2;" horiz-adv-x="522" 
d="M467 100c15 25 28 59 40 102h2c-9 -60 -28 -110 -57 -150s-63 -60 -102 -60c-43 0 -70 27 -70 79c0 22 6 60 19 113h-2c-44 -128 -100 -192 -167 -192c-61 0 -107 54 -107 153c0 57 12 113 35 168c23 54 54 98 94 133c39 35 81 52 124 52c44 0 74 -17 91 -51l125 51h2
c-7 -29 -38 -147 -94 -356c-5 -23 -8 -41 -8 -53c0 -21 8 -31 23 -31c18 0 35 14 52 42zM146 138c0 -53 14 -79 41 -79s54 27 81 82c27 58 59 158 94 299c-8 15 -24 23 -47 23c-36 0 -69 -24 -100 -71c-20 -33 -36 -73 -49 -120s-20 -92 -20 -134zM184 538l187 173h2
l115 -173l-2 -2l-132 77l-168 -77z" />
    <glyph glyph-name="atilde" unicode="&#xe3;" horiz-adv-x="522" 
d="M415 58c18 0 35 14 52 42c15 25 28 59 40 102h2c-9 -60 -28 -110 -57 -150s-63 -60 -102 -60c-43 0 -70 27 -70 79c0 22 6 60 19 113h-2c-44 -128 -100 -192 -167 -192c-61 0 -107 54 -107 153c0 57 12 113 35 168c23 54 54 98 94 133c39 35 81 52 124 52
c44 0 74 -17 91 -51l125 51h2c-7 -29 -38 -147 -94 -356c-5 -23 -8 -41 -8 -53c0 -21 8 -31 23 -31zM146 138c0 -53 14 -79 41 -79s54 27 81 82c27 58 59 158 94 299c-8 15 -24 23 -47 23c-36 0 -69 -24 -100 -71c-20 -33 -36 -73 -49 -120s-20 -92 -20 -134zM433 631
c30 0 54 16 72 49h2c-12 -69 -51 -118 -102 -118c-16 0 -37 8 -64 24c-27 15 -48 23 -62 23c-29 0 -53 -16 -72 -48h-2c12 69 51 118 102 118c17 0 38 -8 65 -24s47 -24 61 -24z" />
    <glyph glyph-name="adieresis" unicode="&#xe4;" horiz-adv-x="522" 
d="M494 498c-7 -29 -38 -147 -94 -356c-5 -23 -8 -41 -8 -53c0 -21 8 -31 23 -31c18 0 35 14 52 42c15 25 28 59 40 102h2c-9 -60 -28 -110 -57 -150s-63 -60 -102 -60c-43 0 -70 27 -70 79c0 22 6 60 19 113h-2c-44 -128 -100 -192 -167 -192c-61 0 -107 54 -107 153
c0 57 12 113 35 168c23 54 54 98 94 133c39 35 81 52 124 52c44 0 74 -17 91 -51l125 51h2zM146 138c0 -53 14 -79 41 -79s54 27 81 82c27 58 59 158 94 299c-8 15 -24 23 -47 23c-36 0 -69 -24 -100 -71c-20 -33 -36 -73 -49 -120s-20 -92 -20 -134zM219 580
c-11 9 -16 22 -16 38c0 18 7 33 20 46c13 12 28 18 47 18c32 0 55 -21 55 -53c0 -36 -30 -64 -67 -64c-16 0 -29 5 -39 15zM436 565c-15 0 -28 5 -39 15c-11 9 -16 22 -16 38c0 36 30 64 67 64c32 0 55 -21 55 -53c0 -36 -30 -64 -67 -64z" />
    <glyph glyph-name="aring" unicode="&#xe5;" horiz-adv-x="522" 
d="M392 89c0 -21 8 -31 23 -31c18 0 35 14 52 42c15 25 28 59 40 102h2c-9 -60 -28 -110 -57 -150s-63 -60 -102 -60c-43 0 -70 27 -70 79c0 22 6 60 19 113h-2c-44 -128 -100 -192 -167 -192c-61 0 -107 54 -107 153c0 57 12 113 35 168c23 54 54 98 94 133
c39 35 81 52 124 52c44 0 74 -17 91 -51l125 51h2c-7 -29 -38 -147 -94 -356c-5 -23 -8 -41 -8 -53zM166 272c-13 -47 -20 -92 -20 -134c0 -53 14 -79 41 -79s54 27 81 82c27 58 59 158 94 299c-8 15 -24 23 -47 23c-36 0 -69 -24 -100 -71c-20 -33 -36 -73 -49 -120z
M444 640c0 -27 -10 -51 -29 -70s-43 -29 -70 -29c-43 0 -75 30 -75 73c0 27 10 51 29 70s43 29 71 29c43 0 74 -30 74 -73zM401 583c15 15 23 34 23 56c0 32 -23 55 -56 55c-41 0 -78 -35 -78 -79c0 -32 23 -55 56 -55c21 0 40 8 55 23z" />
    <glyph glyph-name="ae" unicode="&#xe6;" horiz-adv-x="714" 
d="M614 105c28 25 49 62 64 112h2c-11 -78 -37 -135 -78 -171s-88 -54 -139 -54c-47 0 -87 16 -119 47c-33 31 -51 73 -54 128l-2 -6c-36 -113 -89 -169 -158 -169c-61 0 -107 54 -107 153c0 89 26 170 77 243s110 110 177 110c58 0 95 -27 112 -80c55 53 116 80 185 80
c80 0 134 -41 134 -101c0 -51 -30 -92 -89 -123c-60 -32 -127 -45 -200 -39c-1 -19 -2 -32 -2 -40c0 -81 34 -128 101 -128c36 0 68 13 96 38zM146 137c0 -52 14 -78 42 -78c36 0 75 55 102 132c1 83 31 156 90 219c-15 35 -37 53 -67 53c-35 0 -67 -24 -98 -71
c-20 -33 -36 -73 -49 -120c-13 -48 -20 -93 -20 -135zM421 244c53 0 97 17 130 50s50 75 50 126c0 41 -11 62 -34 62c-31 0 -60 -25 -89 -75s-48 -104 -57 -163z" />
    <glyph glyph-name="ccedilla" unicode="&#xe7;" horiz-adv-x="419" 
d="M357 298l-41 168c-4 15 -5 16 -16 16c-28 0 -54 -16 -78 -49s-42 -71 -55 -114s-19 -84 -19 -123c0 -85 38 -127 91 -127c60 0 117 50 148 147h2c-25 -151 -101 -223 -200 -224l-18 -54c10 2 19 3 28 3c48 0 80 -27 80 -66c0 -31 -13 -58 -38 -79
c-26 -21 -58 -32 -95 -32c-64 0 -104 38 -99 89h2c4 -36 36 -55 69 -55c41 0 78 30 78 71c0 28 -22 45 -54 45c-13 0 -26 -2 -39 -7l-1 2l81 83c-96 3 -162 72 -162 189c0 83 27 157 82 221s123 96 205 96c45 0 85 -7 121 -22l-70 -178h-2z" />
    <glyph glyph-name="egrave" unicode="&#xe8;" horiz-adv-x="445" 
d="M21 185c0 81 28 153 84 217c55 64 122 96 200 96c79 0 133 -41 133 -101c0 -51 -30 -92 -89 -123c-59 -32 -125 -45 -198 -39c-2 -13 -3 -26 -3 -40c0 -81 35 -128 100 -128c67 0 132 53 160 150h2c-13 -81 -46 -144 -86 -177s-83 -48 -130 -48c-51 0 -92 17 -124 52
c-33 34 -49 81 -49 141zM208 407c-29 -50 -47 -104 -56 -163c53 0 97 17 130 50s49 75 49 126c0 41 -11 62 -34 62c-31 0 -60 -25 -89 -75zM414 540l-1 -1l-255 162v2h142z" />
    <glyph glyph-name="eacute" unicode="&#xe9;" horiz-adv-x="445" 
d="M21 185c0 81 28 153 84 217c55 64 122 96 200 96c79 0 133 -41 133 -101c0 -51 -30 -92 -89 -123c-59 -32 -125 -45 -198 -39c-2 -13 -3 -26 -3 -40c0 -81 35 -128 100 -128c67 0 132 53 160 150h2c-13 -81 -46 -144 -86 -177s-83 -48 -130 -48c-51 0 -92 17 -124 52
c-33 34 -49 81 -49 141zM152 244c53 0 97 17 130 50s49 75 49 126c0 41 -11 62 -34 62c-31 0 -60 -25 -89 -75s-47 -104 -56 -163zM503 703v-2l-257 -162l-1 1l115 163h143z" />
    <glyph glyph-name="ecircumflex" unicode="&#xea;" horiz-adv-x="445" 
d="M21 185c0 81 28 153 84 217c55 64 122 96 200 96c79 0 133 -41 133 -101c0 -51 -30 -92 -89 -123c-59 -32 -125 -45 -198 -39c-2 -13 -3 -26 -3 -40c0 -81 35 -128 100 -128c67 0 132 53 160 150h2c-13 -81 -46 -144 -86 -177s-83 -48 -130 -48c-51 0 -92 17 -124 52
c-33 34 -49 81 -49 141zM208 407c-29 -50 -47 -104 -56 -163c53 0 97 17 130 50s49 75 49 126c0 41 -11 62 -34 62c-31 0 -60 -25 -89 -75zM465 538l-2 -2l-132 77l-168 -77l-2 2l187 173h2z" />
    <glyph glyph-name="edieresis" unicode="&#xeb;" horiz-adv-x="445" 
d="M401 470c25 -19 37 -43 37 -73c0 -51 -30 -92 -89 -123c-59 -32 -125 -45 -198 -39c-2 -13 -3 -26 -3 -40c0 -81 35 -128 100 -128c67 0 132 53 160 150h2c-13 -81 -46 -144 -86 -177s-83 -48 -130 -48c-51 0 -92 17 -124 52c-33 34 -49 81 -49 141c0 81 28 153 84 217
c55 64 122 96 200 96c39 0 71 -9 96 -28zM152 244c53 0 97 17 130 50s49 75 49 126c0 41 -11 62 -34 62c-31 0 -60 -25 -89 -75s-47 -104 -56 -163zM196 580c-11 9 -16 22 -16 38c0 18 7 33 20 46c13 12 28 18 47 18c32 0 55 -21 55 -53c0 -36 -30 -64 -67 -64
c-16 0 -29 5 -39 15zM378 664c13 12 28 18 47 18c32 0 55 -21 55 -53c0 -36 -30 -64 -67 -64c-31 0 -55 21 -55 53c0 18 7 33 20 46z" />
    <glyph glyph-name="igrave" unicode="&#xec;" horiz-adv-x="284" 
d="M36 68c0 20 4 47 12 80l74 279c3 12 0 20 -10 23l-75 30v2l222 16l-90 -338c-10 -39 -15 -63 -15 -73c0 -18 7 -27 22 -27c16 0 31 10 45 29c19 27 34 64 45 113h2c-6 -54 -24 -102 -54 -145c-31 -43 -66 -65 -107 -65c-44 0 -71 29 -71 76zM291 540l-1 -1l-255 162v2
h142z" />
    <glyph glyph-name="iacute" unicode="&#xed;" horiz-adv-x="284" 
d="M36 68c0 20 4 47 12 80l74 279c3 12 0 20 -10 23l-75 30v2l222 16l-90 -338c-10 -39 -15 -63 -15 -73c0 -18 7 -27 22 -27c16 0 31 10 45 29c19 27 34 64 45 113h2c-6 -54 -24 -102 -54 -145c-31 -43 -66 -65 -107 -65c-44 0 -71 29 -71 76zM380 703v-2l-257 -162l-1 1
l115 163h143z" />
    <glyph glyph-name="icircumflex" unicode="&#xee;" horiz-adv-x="280" 
d="M46 13c-13 13 -19 32 -19 55c0 20 4 47 12 80l74 279c3 12 0 20 -10 23l-75 30v2l222 16l-90 -338c-10 -39 -15 -63 -15 -73c0 -18 7 -27 22 -27c16 0 31 10 45 29c19 27 34 64 45 113h2c-6 -54 -24 -102 -54 -145c-31 -43 -66 -65 -107 -65c-22 0 -39 7 -52 21zM325 538
l-2 -2l-132 77l-168 -77l-2 2l187 173h2z" />
    <glyph glyph-name="idieresis" unicode="&#xef;" horiz-adv-x="280" 
d="M28 68c0 20 4 47 12 80l74 279c3 12 0 20 -10 23l-75 30v2l222 16l-90 -338c-10 -39 -15 -63 -15 -73c0 -18 7 -27 22 -27c16 0 31 10 45 29c19 27 34 64 45 113h2c-6 -54 -24 -102 -54 -145c-31 -43 -66 -65 -107 -65c-44 0 -71 29 -71 76zM64 580c-11 9 -16 22 -16 38
c0 18 7 33 20 46c13 12 28 18 47 18c32 0 55 -21 55 -53c0 -36 -30 -64 -67 -64c-16 0 -29 5 -39 15zM333 668c10 -10 15 -23 15 -39c0 -36 -30 -64 -67 -64c-31 0 -55 21 -55 53c0 36 30 64 67 64c16 0 29 -5 40 -14z" />
    <glyph glyph-name="eth" unicode="&#xf0;" horiz-adv-x="504" 
d="M504 714l6 -15l-119 -59c61 -56 91 -144 91 -265c0 -104 -27 -194 -81 -270s-123 -114 -208 -114c-109 0 -171 77 -171 194c0 75 24 145 73 209s103 96 162 96c45 0 78 -17 98 -51c-1 75 -10 131 -27 170l-147 -73l-7 16l147 72c-22 41 -56 70 -101 87l1 2l27 -5
c49 -9 92 -28 129 -56zM165 266c-12 -50 -18 -98 -18 -144c0 -77 16 -115 49 -115c27 0 53 23 78 70c25 46 45 102 60 167c14 65 21 126 21 184c-13 16 -31 24 -53 24c-30 0 -57 -19 -82 -56s-43 -81 -55 -130z" />
    <glyph glyph-name="ntilde" unicode="&#xf1;" horiz-adv-x="546" 
d="M420 498c26 0 47 -7 62 -22s22 -36 22 -61c0 -22 -9 -61 -26 -116l-44 -142c-10 -31 -15 -55 -15 -70c0 -18 7 -27 22 -27c16 0 31 10 45 30c20 29 35 66 45 112h2c-8 -64 -28 -115 -59 -153s-66 -57 -105 -57c-45 0 -74 27 -74 74c0 23 8 59 24 108l48 150
c12 37 18 64 18 79c0 19 -10 29 -30 29c-35 0 -68 -25 -100 -76c-37 -57 -75 -176 -116 -356h-116l99 424c4 19 4 21 -9 27l-75 29v2l221 16l-51 -208h2c24 64 55 115 93 152c37 37 76 56 117 56zM432 631c30 0 54 16 72 49h2c-12 -69 -51 -118 -102 -118
c-16 0 -37 8 -64 24c-27 15 -48 23 -62 23c-29 0 -53 -16 -72 -48h-2c12 69 51 118 102 118c17 0 38 -8 65 -24s47 -24 61 -24z" />
    <glyph glyph-name="ograve" unicode="&#xf2;" horiz-adv-x="489" 
d="M418 452c33 -31 49 -79 49 -142c0 -85 -27 -160 -80 -223c-54 -64 -119 -96 -194 -96c-49 0 -90 15 -122 46c-33 31 -49 78 -49 142c0 85 27 159 80 223s118 96 193 96c49 0 90 -15 123 -46zM167 272c-13 -57 -20 -112 -20 -163c0 -69 16 -103 49 -103c25 0 50 21 73 63
c23 41 42 91 55 148s19 112 19 163c0 69 -16 103 -49 103c-25 0 -50 -21 -73 -62c-23 -42 -41 -92 -54 -149zM408 539l-255 162v2h142l114 -163z" />
    <glyph glyph-name="oacute" unicode="&#xf3;" horiz-adv-x="489" 
d="M22 179c0 85 27 159 80 223s118 96 193 96c49 0 90 -15 123 -46s49 -79 49 -142c0 -85 -27 -160 -80 -223c-54 -64 -119 -96 -194 -96c-49 0 -90 15 -122 46c-33 31 -49 78 -49 142zM147 109c0 -69 16 -103 49 -103c25 0 50 21 73 63c23 41 42 91 55 148s19 112 19 163
c0 69 -16 103 -49 103c-25 0 -50 -21 -73 -62c-23 -42 -41 -92 -54 -149s-20 -112 -20 -163zM499 703v-2l-257 -162l-1 1l115 163h143z" />
    <glyph glyph-name="ocircumflex" unicode="&#xf4;" horiz-adv-x="489" 
d="M22 179c0 85 27 159 80 223s118 96 193 96c49 0 90 -15 123 -46s49 -79 49 -142c0 -85 -27 -160 -80 -223c-54 -64 -119 -96 -194 -96c-49 0 -90 15 -122 46c-33 31 -49 78 -49 142zM167 272c-13 -57 -20 -112 -20 -163c0 -69 16 -103 49 -103c25 0 50 21 73 63
c23 41 42 91 55 148s19 112 19 163c0 69 -16 103 -49 103c-25 0 -50 -21 -73 -62c-23 -42 -41 -92 -54 -149zM461 538l-2 -2l-132 77l-168 -77l-2 2l187 173h2z" />
    <glyph glyph-name="otilde" unicode="&#xf5;" horiz-adv-x="489" 
d="M22 179c0 85 27 159 80 223s118 96 193 96c49 0 90 -15 123 -46s49 -79 49 -142c0 -85 -27 -160 -80 -223c-54 -64 -119 -96 -194 -96c-49 0 -90 15 -122 46c-33 31 -49 78 -49 142zM147 109c0 -69 16 -103 49 -103c25 0 50 21 73 63c23 41 42 91 55 148s19 112 19 163
c0 69 -16 103 -49 103c-25 0 -50 -21 -73 -62c-23 -42 -41 -92 -54 -149s-20 -112 -20 -163zM478 680h2c-12 -69 -51 -118 -102 -118c-16 0 -37 8 -64 24c-27 15 -48 23 -62 23c-29 0 -53 -16 -72 -48h-2c12 69 51 118 102 118c17 0 38 -8 65 -24s47 -24 61 -24
c30 0 54 16 72 49z" />
    <glyph glyph-name="odieresis" unicode="&#xf6;" horiz-adv-x="489" 
d="M22 179c0 85 27 159 80 223s118 96 193 96c49 0 90 -15 123 -46s49 -79 49 -142c0 -85 -27 -160 -80 -223c-54 -64 -119 -96 -194 -96c-49 0 -90 15 -122 46c-33 31 -49 78 -49 142zM167 272c-13 -57 -20 -112 -20 -163c0 -69 16 -103 49 -103c25 0 50 21 73 63
c23 41 42 91 55 148s19 112 19 163c0 69 -16 103 -49 103c-25 0 -50 -21 -73 -62c-23 -42 -41 -92 -54 -149zM175 618c0 36 30 64 67 64c32 0 55 -21 55 -53c0 -36 -30 -64 -67 -64c-32 0 -55 21 -55 53zM460 668c10 -10 15 -23 15 -39c0 -36 -30 -64 -67 -64
c-31 0 -55 21 -55 53c0 36 30 64 67 64c16 0 29 -5 40 -14z" />
    <glyph glyph-name="divide" unicode="&#xf7;" horiz-adv-x="540" 
d="M201 468c0 20 7 37 22 51c15 13 33 20 54 20c36 0 61 -23 61 -59c0 -40 -32 -71 -75 -71c-35 0 -62 23 -62 59zM201 148c0 40 33 71 76 71c36 0 61 -23 61 -59c0 -40 -32 -71 -75 -71c-35 0 -62 23 -62 59zM490 325v-18h-440v18h440z" />
    <glyph glyph-name="oslash" unicode="&#xf8;" horiz-adv-x="489" 
d="M467 310c0 -85 -27 -160 -80 -223c-54 -64 -119 -96 -194 -96c-18 0 -35 2 -51 6l-34 -78l-19 7l34 77c-67 25 -101 84 -101 176c0 85 27 159 80 223s118 96 193 96c13 0 28 -2 45 -5l30 68l18 -6l-30 -67c73 -25 109 -84 109 -178zM158 33c9 -18 22 -27 38 -27
c25 0 50 21 73 63c23 41 42 91 55 148s19 112 19 163c0 21 -2 41 -6 59zM167 272c-13 -57 -20 -112 -20 -163c0 -21 1 -36 3 -45l177 400c-9 13 -20 19 -33 19c-25 0 -50 -21 -73 -62c-23 -42 -41 -92 -54 -149z" />
    <glyph glyph-name="ugrave" unicode="&#xf9;" horiz-adv-x="551" 
d="M432 136c-5 -18 -7 -35 -7 -50c0 -18 8 -27 23 -27c17 0 33 11 47 32c17 24 32 61 44 111h2c-11 -77 -35 -134 -72 -171c-26 -26 -55 -39 -86 -39c-45 0 -72 27 -72 78c0 36 8 80 23 131h-2c-24 -64 -54 -115 -91 -152c-37 -38 -75 -57 -113 -57c-51 0 -84 34 -84 83
c0 24 9 63 26 116l44 142c10 31 15 55 15 70c0 19 -7 28 -22 28s-31 -10 -46 -30c-18 -25 -33 -62 -44 -110l-2 1c9 63 30 114 61 151s65 55 103 55c45 0 74 -28 74 -73c0 -23 -8 -59 -24 -108l-48 -151c-12 -37 -18 -64 -18 -79c0 -20 11 -30 32 -30c27 0 58 26 92 78
c17 27 35 66 52 116s38 128 64 235l117 7zM438 540l-1 -1l-255 162v2h142z" />
    <glyph glyph-name="uacute" unicode="&#xfa;" horiz-adv-x="551" 
d="M432 136c-5 -18 -7 -35 -7 -50c0 -18 8 -27 23 -27c17 0 33 11 47 32c17 24 32 61 44 111h2c-11 -77 -35 -134 -72 -171c-26 -26 -55 -39 -86 -39c-45 0 -72 27 -72 78c0 36 8 80 23 131h-2c-24 -64 -54 -115 -91 -152c-37 -38 -75 -57 -113 -57c-51 0 -84 34 -84 83
c0 24 9 63 26 116l44 142c10 31 15 55 15 70c0 19 -7 28 -22 28s-31 -10 -46 -30c-18 -25 -33 -62 -44 -110l-2 1c9 63 30 114 61 151s65 55 103 55c45 0 74 -28 74 -73c0 -23 -8 -59 -24 -108l-48 -151c-12 -37 -18 -64 -18 -79c0 -20 11 -30 32 -30c27 0 58 26 92 78
c17 27 35 66 52 116s38 128 64 235l117 7zM527 703v-2l-257 -162l-1 1l115 163h143z" />
    <glyph glyph-name="ucircumflex" unicode="&#xfb;" horiz-adv-x="551" 
d="M469 31c-26 -26 -55 -39 -86 -39c-45 0 -72 27 -72 78c0 36 8 80 23 131h-2c-24 -64 -54 -115 -91 -152c-37 -38 -75 -57 -113 -57c-51 0 -84 34 -84 83c0 24 9 63 26 116l44 142c10 31 15 55 15 70c0 19 -7 28 -22 28s-31 -10 -46 -30c-18 -25 -33 -62 -44 -110l-2 1
c9 63 30 114 61 151s65 55 103 55c45 0 74 -28 74 -73c0 -23 -8 -59 -24 -108l-48 -151c-12 -37 -18 -64 -18 -79c0 -20 11 -30 32 -30c27 0 58 26 92 78c17 27 35 66 52 116s38 128 64 235l117 7l-88 -357c-5 -18 -7 -35 -7 -50c0 -18 8 -27 23 -27c17 0 33 11 47 32
c17 24 32 61 44 111h2c-11 -77 -35 -134 -72 -171zM489 538l-2 -2l-132 77l-168 -77l-2 2l187 173h2z" />
    <glyph glyph-name="udieresis" unicode="&#xfc;" horiz-adv-x="551" 
d="M334 201h-2c-24 -64 -54 -115 -91 -152c-37 -38 -75 -57 -113 -57c-51 0 -84 34 -84 83c0 24 9 63 26 116l44 142c10 31 15 55 15 70c0 19 -7 28 -22 28s-31 -10 -46 -30c-18 -25 -33 -62 -44 -110l-2 1c9 63 30 114 61 151s65 55 103 55c45 0 74 -28 74 -73
c0 -23 -8 -59 -24 -108l-48 -151c-12 -37 -18 -64 -18 -79c0 -20 11 -30 32 -30c27 0 58 26 92 78c17 27 35 66 52 116s38 128 64 235l117 7l-88 -357c-5 -18 -7 -35 -7 -50c0 -18 8 -27 23 -27c17 0 33 11 47 32c17 24 32 61 44 111h2c-11 -77 -35 -134 -72 -171
c-26 -26 -55 -39 -86 -39c-45 0 -72 27 -72 78c0 36 8 80 23 131zM204 618c0 36 30 64 67 64c32 0 55 -21 55 -53c0 -36 -30 -64 -67 -64c-32 0 -55 21 -55 53zM398 580c-11 9 -16 22 -16 38c0 18 7 33 20 46c13 12 28 18 47 18c32 0 55 -21 55 -53c0 -36 -30 -64 -67 -64
c-15 0 -28 5 -39 15z" />
    <glyph glyph-name="yacute" unicode="&#xfd;" horiz-adv-x="452" 
d="M335 153c25 64 38 121 38 172c0 53 -16 96 -48 129v2l135 42c-9 -92 -31 -183 -67 -273c-37 -90 -81 -170 -134 -239c-51 -67 -105 -120 -163 -161c-59 -41 -109 -61 -151 -61c-12 0 -21 2 -28 5l52 152h2l81 -87c6 -7 14 -8 23 -3c21 13 48 35 80 67c5 5 7 12 7 22v20
c-1 85 -6 170 -17 256s-24 148 -37 187c-8 24 -18 36 -31 36c-22 0 -46 -38 -71 -114h-2c11 56 29 102 53 139c23 36 52 54 85 54c45 0 69 -33 86 -96c12 -42 22 -98 29 -168s10 -140 8 -210h2c27 41 50 84 68 129zM217 539l-1 1l115 163h143v-2z" />
    <glyph glyph-name="thorn" unicode="&#xfe;" horiz-adv-x="486" 
d="M433 460c20 -26 30 -63 30 -111c0 -95 -27 -179 -80 -250c-54 -71 -114 -107 -179 -107c-39 0 -67 10 -84 29l-37 -180c-3 -15 -2 -17 10 -22l107 -45v-2h-303v2l52 36c11 7 17 17 19 28l175 809c4 18 4 20 -9 26l-75 29v2l219 20l-93 -415h2c39 117 97 189 168 189
c32 0 58 -13 78 -38zM210 335c-27 -57 -56 -159 -87 -306c11 -7 24 -10 40 -10c43 0 81 29 114 86c42 71 63 156 63 256c0 45 -15 71 -39 71c-30 0 -60 -32 -91 -97z" />
    <glyph glyph-name="ydieresis" unicode="&#xff;" horiz-adv-x="452" 
d="M325 456l135 42c-9 -92 -31 -183 -67 -273c-37 -90 -81 -170 -134 -239c-51 -67 -105 -120 -163 -161c-59 -41 -109 -61 -151 -61c-12 0 -21 2 -28 5l52 152h2l81 -87c6 -7 14 -8 23 -3c21 13 48 35 80 67c5 5 7 12 7 22v20c-1 85 -6 170 -17 256s-24 148 -37 187
c-8 24 -18 36 -31 36c-22 0 -46 -38 -71 -114h-2c11 56 29 102 53 139c23 36 52 54 85 54c45 0 69 -33 86 -96c12 -42 22 -98 29 -168s10 -140 8 -210h2c27 41 50 84 68 129c25 64 38 121 38 172c0 53 -16 96 -48 129v2zM150 618c0 18 7 33 20 46c13 12 28 18 47 18
c32 0 55 -21 55 -53c0 -36 -30 -64 -67 -64c-32 0 -55 21 -55 53zM328 618c0 36 30 64 67 64c32 0 55 -21 55 -53c0 -36 -30 -64 -67 -64c-31 0 -55 21 -55 53z" />
    <glyph glyph-name="Amacron" unicode="&#x100;" horiz-adv-x="621" 
d="M576 2v-2h-257v2l74 60c7 5 10 14 8 26l-19 158h-228l-62 -115c-8 -16 -7 -17 5 -34l66 -95v-2h-230v2l108 95c14 12 25 25 32 39l252 465c11 21 9 23 0 36l-43 64v2h176l73 -608c1 -13 6 -27 14 -40zM342 593l-178 -328h216zM262 804v18h262v-18h-262z" />
    <glyph glyph-name="amacron" unicode="&#x101;" horiz-adv-x="522" 
d="M507 202h2c-9 -60 -28 -110 -57 -150s-63 -60 -102 -60c-43 0 -70 27 -70 79c0 22 6 60 19 113h-2c-44 -128 -100 -192 -167 -192c-61 0 -107 54 -107 153c0 57 12 113 35 168c23 54 54 98 94 133c39 35 81 52 124 52c44 0 74 -17 91 -51l125 51h2
c-7 -29 -38 -147 -94 -356c-5 -23 -8 -41 -8 -53c0 -21 8 -31 23 -31c18 0 35 14 52 42c15 25 28 59 40 102zM166 272c-13 -47 -20 -92 -20 -134c0 -53 14 -79 41 -79s54 27 81 82c27 58 59 158 94 299c-8 15 -24 23 -47 23c-36 0 -69 -24 -100 -71
c-20 -33 -36 -73 -49 -120zM219 610h262v-18h-262v18z" />
    <glyph glyph-name="Abreve" unicode="&#x102;" horiz-adv-x="621" 
d="M458 703l73 -608c1 -13 6 -27 14 -40l31 -53v-2h-257v2l74 60c7 5 10 14 8 26l-19 158h-228l-62 -115c-8 -16 -7 -17 5 -34l66 -95v-2h-230v2l108 95c14 12 25 25 32 39l252 465c11 21 9 23 0 36l-43 64v2h176zM164 265h216l-38 328zM481 847c25 17 41 40 49 71h2
c-4 -111 -66 -165 -145 -165c-61 0 -110 33 -110 97c0 19 5 42 15 68h2c-5 -30 1 -54 20 -71c18 -17 44 -26 78 -26s64 9 89 26z" />
    <glyph glyph-name="abreve" unicode="&#x103;" horiz-adv-x="522" 
d="M509 202c-9 -60 -28 -110 -57 -150s-63 -60 -102 -60c-43 0 -70 27 -70 79c0 22 6 60 19 113h-2c-44 -128 -100 -192 -167 -192c-61 0 -107 54 -107 153c0 57 12 113 35 168c23 54 54 98 94 133c39 35 81 52 124 52c44 0 74 -17 91 -51l125 51h2
c-7 -29 -38 -147 -94 -356c-5 -23 -8 -41 -8 -53c0 -21 8 -31 23 -31c18 0 35 14 52 42c15 25 28 59 40 102h2zM146 138c0 -53 14 -79 41 -79s54 27 81 82c27 58 59 158 94 299c-8 15 -24 23 -47 23c-36 0 -69 -24 -100 -71c-20 -33 -36 -73 -49 -120s-20 -92 -20 -134z
M437 635c25 17 41 40 49 71h2c-4 -111 -66 -165 -145 -165c-61 0 -110 33 -110 97c0 19 5 42 15 68h2c-5 -30 1 -54 20 -71c18 -17 44 -26 78 -26s64 9 89 26z" />
    <glyph glyph-name="Aogonek" unicode="&#x104;" horiz-adv-x="621" 
d="M383 -143l2 -1c-35 -61 -81 -92 -136 -92c-48 0 -85 30 -85 79c0 37 16 70 47 99s68 49 110 62l72 58c7 5 10 14 8 26l-19 158h-228l-62 -115c-8 -16 -7 -17 5 -34l66 -95v-2h-230v2l108 95c14 12 25 25 32 39l252 465c11 21 9 23 0 36l-43 64v2h176l73 -608
c1 -13 6 -27 14 -40l31 -53v-2h-243c-26 -8 -48 -24 -66 -49c-19 -24 -28 -50 -28 -78c0 -35 25 -56 61 -56c31 0 59 13 83 40zM164 265h216l-38 328z" />
    <glyph glyph-name="aogonek" unicode="&#x105;" horiz-adv-x="522" 
d="M422 225c-15 -55 -22 -82 -22 -83c-5 -21 -8 -39 -8 -53c0 -21 8 -31 23 -31c18 0 35 14 52 42c15 25 28 59 40 102h2c-8 -52 -24 -97 -47 -135c-24 -38 -52 -62 -84 -71c-56 -21 -99 -68 -99 -123c0 -35 25 -56 61 -56c31 0 59 13 83 40l2 -1c-35 -61 -81 -92 -136 -92
c-48 0 -85 30 -85 79c0 35 15 66 44 91c29 26 63 45 104 58c-44 0 -72 27 -72 79c0 22 6 60 19 113h-2c-44 -128 -100 -192 -167 -192c-61 0 -107 54 -107 153c0 57 12 113 35 168c23 54 54 98 94 133c39 35 81 52 124 52c44 0 74 -17 91 -51l125 51h2
c-4 -15 -13 -50 -28 -106c-15 -57 -30 -112 -44 -167zM146 138c0 -53 14 -79 41 -79s54 27 81 82c27 58 59 158 94 299c-8 15 -24 23 -47 23c-36 0 -69 -24 -100 -71c-20 -33 -36 -73 -49 -120s-20 -92 -20 -134z" />
    <glyph glyph-name="Cacute" unicode="&#x106;" horiz-adv-x="590" 
d="M38 265c0 80 16 154 49 222s79 123 140 164s129 62 204 62c73 0 139 -8 198 -23l-49 -229h-2l-79 214c-5 16 -10 17 -23 20c-9 1 -19 2 -30 2c-52 0 -99 -25 -141 -75s-73 -111 -94 -184s-32 -147 -32 -223c0 -61 11 -111 33 -150c21 -39 54 -59 99 -59c12 0 21 0 28 1
c13 1 23 7 30 16l165 219h2l-46 -230c-65 -15 -128 -22 -190 -22c-83 0 -148 26 -193 77c-46 51 -69 117 -69 198zM645 915v-2l-257 -162l-1 1l115 163h143z" />
    <glyph glyph-name="cacute" unicode="&#x107;" horiz-adv-x="419" 
d="M21 181c0 83 27 157 82 221s123 96 205 96c45 0 85 -7 121 -22l-70 -178h-2l-41 168c-4 15 -5 16 -16 16c-28 0 -54 -16 -78 -49s-42 -71 -55 -114s-19 -84 -19 -123c0 -85 38 -127 91 -127c60 0 117 50 148 147h2c-25 -151 -102 -224 -202 -224c-49 0 -88 17 -119 50
s-47 80 -47 139zM502 703v-2l-257 -162l-1 1l115 163h143z" />
    <glyph glyph-name="Ccircumflex" unicode="&#x108;" horiz-adv-x="590" 
d="M38 265c0 80 16 154 49 222s79 123 140 164s129 62 204 62c73 0 139 -8 198 -23l-49 -229h-2l-79 214c-5 16 -10 17 -23 20c-9 1 -19 2 -30 2c-52 0 -99 -25 -141 -75s-73 -111 -94 -184s-32 -147 -32 -223c0 -61 11 -111 33 -150c21 -39 54 -59 99 -59c12 0 21 0 28 1
c13 1 23 7 30 16l165 219h2l-46 -230c-65 -15 -128 -22 -190 -22c-83 0 -148 26 -193 77c-46 51 -69 117 -69 198zM607 750l-2 -2l-132 77l-168 -77l-2 2l187 173h2z" />
    <glyph glyph-name="ccircumflex" unicode="&#x109;" horiz-adv-x="419" 
d="M21 181c0 83 27 157 82 221s123 96 205 96c45 0 85 -7 121 -22l-70 -178h-2l-41 168c-4 15 -5 16 -16 16c-28 0 -54 -16 -78 -49s-42 -71 -55 -114s-19 -84 -19 -123c0 -85 38 -127 91 -127c60 0 117 50 148 147h2c-25 -151 -102 -224 -202 -224c-49 0 -88 17 -119 50
s-47 80 -47 139zM464 538l-2 -2l-132 77l-168 -77l-2 2l187 173h2z" />
    <glyph glyph-name="Cdotaccent" unicode="&#x10a;" horiz-adv-x="590" 
d="M629 690l-49 -229h-2l-79 214c-5 16 -10 17 -23 20c-9 1 -19 2 -30 2c-52 0 -99 -25 -141 -75s-73 -111 -94 -184s-32 -147 -32 -223c0 -61 11 -111 33 -150c21 -39 54 -59 99 -59c12 0 21 0 28 1c13 1 23 7 30 16l165 219h2l-46 -230c-65 -15 -128 -22 -190 -22
c-83 0 -148 26 -193 77c-46 51 -69 117 -69 198c0 80 16 154 49 222s79 123 140 164s129 62 204 62c73 0 139 -8 198 -23zM423 783c-12 11 -18 25 -18 43c0 40 33 71 76 71c36 0 61 -23 61 -59c0 -40 -32 -71 -75 -71c-17 0 -32 5 -44 16z" />
    <glyph glyph-name="cdotaccent" unicode="&#x10b;" horiz-adv-x="419" 
d="M387 216h2c-25 -151 -102 -224 -202 -224c-49 0 -88 17 -119 50s-47 80 -47 139c0 83 27 157 82 221s123 96 205 96c45 0 85 -7 121 -22l-70 -178h-2l-41 168c-4 15 -5 16 -16 16c-28 0 -54 -16 -78 -49s-42 -71 -55 -114s-19 -84 -19 -123c0 -85 38 -127 91 -127
c60 0 117 50 148 147zM279 571c-12 11 -18 25 -18 43c0 20 7 37 22 51c15 13 33 20 54 20c36 0 61 -23 61 -59c0 -40 -32 -71 -75 -71c-17 0 -32 5 -44 16z" />
    <glyph glyph-name="Ccaron" unicode="&#x10c;" horiz-adv-x="590" 
d="M38 265c0 80 16 154 49 222s79 123 140 164s129 62 204 62c73 0 139 -8 198 -23l-49 -229h-2l-79 214c-5 16 -10 17 -23 20c-9 1 -19 2 -30 2c-52 0 -99 -25 -141 -75s-73 -111 -94 -184s-32 -147 -32 -223c0 -61 11 -111 33 -150c21 -39 54 -59 99 -59c12 0 21 0 28 1
c13 1 23 7 30 16l165 219h2l-46 -230c-65 -15 -128 -22 -190 -22c-83 0 -148 26 -193 77c-46 51 -69 117 -69 198zM643 918l1 -2l-187 -174h-2l-115 174l2 2l133 -71z" />
    <glyph glyph-name="ccaron" unicode="&#x10d;" horiz-adv-x="419" 
d="M21 181c0 83 27 157 82 221s123 96 205 96c45 0 85 -7 121 -22l-70 -178h-2l-41 168c-4 15 -5 16 -16 16c-28 0 -54 -16 -78 -49s-42 -71 -55 -114s-19 -84 -19 -123c0 -85 38 -127 91 -127c60 0 117 50 148 147h2c-25 -151 -102 -224 -202 -224c-49 0 -88 17 -119 50
s-47 80 -47 139zM500 706l1 -2l-187 -174h-2l-115 174l2 2l133 -71z" />
    <glyph glyph-name="Dcaron" unicode="&#x10e;" horiz-adv-x="674" 
d="M596 630c51 -49 77 -115 77 -196c0 -121 -41 -224 -122 -308c-82 -84 -182 -126 -301 -126h-292v2l89 54c9 6 14 14 17 23l113 545c3 10 0 18 -7 23l-65 54v2h293c81 0 147 -24 198 -73zM185 43c-3 -11 -3 -18 0 -20c2 -3 9 -4 22 -4h19c71 0 131 26 179 78
c47 51 82 119 105 203c16 57 24 122 24 193c0 121 -63 191 -156 191h-41c-15 0 -19 -3 -23 -20zM279 916l2 2l133 -71l168 71l1 -2l-187 -174h-2z" />
    <glyph glyph-name="dcaron" unicode="&#x10f;" horiz-adv-x="513" 
d="M23 147c0 93 26 174 78 245c51 71 110 106 175 106c41 0 68 -16 81 -47l45 198c4 17 2 18 -10 23l-75 30v2l220 20l-137 -587c-5 -19 -7 -34 -7 -46c0 -22 8 -33 24 -33c35 0 65 48 89 144h2c-11 -77 -35 -134 -73 -172c-24 -25 -51 -38 -81 -38c-49 0 -73 26 -74 78
c0 25 7 63 20 114h-2c-44 -128 -100 -192 -168 -192c-60 0 -107 59 -107 155zM164 271c-12 -47 -18 -91 -18 -130c0 -55 14 -82 41 -82c29 0 61 38 85 91c26 59 54 156 83 290v3c-12 13 -27 19 -45 19c-37 0 -69 -23 -97 -70c-21 -34 -38 -74 -49 -121zM552 510h-1l44 193
h106z" />
    <glyph glyph-name="Dcroat" unicode="&#x110;" horiz-adv-x="690" 
d="M683 436c0 -120 -40 -223 -119 -308c-80 -85 -177 -128 -291 -128h-303v2l87 52c9 6 15 14 17 23l57 271h-93v19h97l54 259c2 9 0 17 -7 23l-67 52v2h290c85 0 152 -24 203 -72c50 -49 75 -114 75 -195zM199 43c-3 -11 -3 -18 0 -20c2 -3 9 -4 21 -4h18
c75 0 136 30 185 90c49 59 83 134 103 224c12 53 18 106 18 158c0 124 -57 193 -153 193h-41c-15 0 -19 -3 -22 -20l-62 -297h114v-19h-118z" />
    <glyph glyph-name="dcroat" unicode="&#x111;" horiz-adv-x="515" 
d="M417 58c35 0 65 48 89 144h2c-11 -77 -35 -134 -73 -172c-24 -25 -51 -38 -81 -38c-49 0 -73 26 -74 78c0 25 7 63 20 114h-2c-44 -128 -100 -192 -168 -192c-60 0 -107 59 -107 155c0 93 26 174 78 245c51 71 110 106 175 106c41 0 68 -16 81 -47l25 113h-124v18h129
l15 67c4 17 2 18 -10 23l-75 30v2l220 20l-34 -142h70v-18h-74l-99 -427c-5 -19 -7 -34 -7 -46c0 -22 8 -33 24 -33zM164 271c-12 -47 -18 -91 -18 -130c0 -55 14 -82 41 -82c29 0 61 38 85 91c26 59 54 156 83 290v3c-12 13 -27 19 -45 19c-37 0 -69 -23 -97 -70
c-21 -34 -38 -74 -49 -121z" />
    <glyph glyph-name="Emacron" unicode="&#x112;" horiz-adv-x="591" 
d="M486 478h2l-51 -244h-2l-55 95c-9 16 -13 18 -26 18h-97l-63 -305c-4 -20 -2 -23 15 -23h145c23 0 27 2 38 15l143 194h2l-46 -228h-524v2l89 54c9 6 14 14 17 23l113 545c3 10 0 18 -7 23l-66 54v2h513l-47 -228h-2l-64 191c-5 16 -10 18 -26 18h-140
c-17 0 -20 -3 -24 -23l-62 -296h97c11 1 22 7 34 19zM553 822v-18h-262v18h262z" />
    <glyph glyph-name="emacron" unicode="&#x113;" horiz-adv-x="445" 
d="M70 44c-33 34 -49 81 -49 141c0 81 28 153 84 217c55 64 122 96 200 96c79 0 133 -41 133 -101c0 -51 -30 -92 -89 -123c-59 -32 -125 -45 -198 -39c-2 -13 -3 -26 -3 -40c0 -81 35 -128 100 -128c67 0 132 53 160 150h2c-13 -81 -46 -144 -86 -177s-83 -48 -130 -48
c-51 0 -92 17 -124 52zM152 244c53 0 97 17 130 50s49 75 49 126c0 41 -11 62 -34 62c-31 0 -60 -25 -89 -75s-47 -104 -56 -163zM458 610v-18h-262v18h262z" />
    <glyph glyph-name="Ebreve" unicode="&#x114;" horiz-adv-x="591" 
d="M392 34l143 194h2l-46 -228h-524v2l89 54c9 6 14 14 17 23l113 545c3 10 0 18 -7 23l-66 54v2h513l-47 -228h-2l-64 191c-5 16 -10 18 -26 18h-140c-17 0 -20 -3 -24 -23l-62 -296h97c11 1 22 7 34 19l94 94h2l-51 -244h-2l-55 95c-9 16 -13 18 -26 18h-97l-63 -305
c-4 -20 -2 -23 15 -23h145c23 0 27 2 38 15zM517 794c-28 -27 -62 -41 -101 -41c-61 0 -110 33 -110 97c0 19 5 42 15 68h2c-5 -30 1 -54 20 -71c18 -17 44 -26 78 -26s64 9 89 26s41 40 49 71h2c-2 -55 -17 -97 -44 -124z" />
    <glyph glyph-name="ebreve" unicode="&#x115;" horiz-adv-x="445" 
d="M70 44c-33 34 -49 81 -49 141c0 81 28 153 84 217c55 64 122 96 200 96c79 0 133 -41 133 -101c0 -51 -30 -92 -89 -123c-59 -32 -125 -45 -198 -39c-2 -13 -3 -26 -3 -40c0 -81 35 -128 100 -128c67 0 132 53 160 150h2c-13 -81 -46 -144 -86 -177s-83 -48 -130 -48
c-51 0 -92 17 -124 52zM208 407c-29 -50 -47 -104 -56 -163c53 0 97 17 130 50s49 75 49 126c0 41 -11 62 -34 62c-31 0 -60 -25 -89 -75zM414 635c25 17 41 40 49 71h2c-4 -111 -66 -165 -145 -165c-61 0 -110 33 -110 97c0 19 5 42 15 68h2c-5 -30 1 -54 20 -71
c18 -17 44 -26 78 -26s64 9 89 26z" />
    <glyph glyph-name="Edotaccent" unicode="&#x116;" horiz-adv-x="591" 
d="M437 234h-2l-55 95c-9 16 -13 18 -26 18h-97l-63 -305c-4 -20 -2 -23 15 -23h145c23 0 27 2 38 15l143 194h2l-46 -228h-524v2l89 54c9 6 14 14 17 23l113 545c3 10 0 18 -7 23l-66 54v2h513l-47 -228h-2l-64 191c-5 16 -10 18 -26 18h-140c-17 0 -20 -3 -24 -23
l-62 -296h97c11 1 22 7 34 19l94 94h2zM434 897c36 0 61 -23 61 -59c0 -40 -32 -71 -75 -71c-35 0 -62 23 -62 59c0 40 33 71 76 71z" />
    <glyph glyph-name="edotaccent" unicode="&#x117;" horiz-adv-x="445" 
d="M408 217h2c-13 -81 -46 -144 -86 -177s-83 -48 -130 -48c-51 0 -92 17 -124 52c-33 34 -49 81 -49 141c0 81 28 153 84 217c55 64 122 96 200 96c79 0 133 -41 133 -101c0 -51 -30 -92 -89 -123c-59 -32 -125 -45 -198 -39c-2 -13 -3 -26 -3 -40c0 -81 35 -128 100 -128
c67 0 132 53 160 150zM152 244c53 0 97 17 130 50s49 75 49 126c0 41 -11 62 -34 62c-31 0 -60 -25 -89 -75s-47 -104 -56 -163zM262 614c0 20 7 37 22 51c15 13 33 20 54 20c36 0 61 -23 61 -59c0 -40 -32 -71 -75 -71c-35 0 -62 23 -62 59z" />
    <glyph glyph-name="Eogonek" unicode="&#x118;" horiz-adv-x="591" 
d="M380 329c-5 8 -8 13 -11 15s-8 3 -15 3h-97l-63 -305c-4 -20 -2 -23 15 -23h145c21 0 26 2 38 15l143 194h2l-46 -228h-93c-55 -24 -96 -72 -96 -127c0 -35 24 -56 60 -56c31 0 59 13 84 40l2 -1c-37 -61 -82 -92 -137 -92c-47 0 -85 30 -85 79c0 37 16 70 48 98
c31 28 68 48 111 59h-418v2l89 54c9 6 14 14 17 23l113 545c3 10 0 18 -7 23l-66 54v2h513l-47 -228h-2l-64 191c-5 16 -10 18 -26 18h-140c-17 0 -20 -3 -24 -23l-62 -296h97c11 1 22 7 34 19l94 94h2l-51 -244h-2z" />
    <glyph glyph-name="eogonek" unicode="&#x119;" horiz-adv-x="445" 
d="M408 217h2c-25 -148 -106 -217 -201 -224c-48 -25 -82 -71 -82 -120c0 -35 25 -56 61 -56c31 0 59 13 83 40l2 -1c-35 -61 -81 -92 -136 -92c-48 0 -85 30 -85 79c0 35 14 66 43 91c28 26 61 45 99 58c-51 0 -92 17 -124 52c-33 34 -49 81 -49 141c0 81 28 153 84 217
c55 64 122 96 200 96c79 0 133 -41 133 -101c0 -51 -30 -92 -89 -123c-59 -32 -125 -45 -198 -39c-2 -13 -3 -26 -3 -40c0 -81 35 -128 100 -128c67 0 132 53 160 150zM152 244c53 0 97 17 130 50s49 75 49 126c0 41 -11 62 -34 62c-31 0 -60 -25 -89 -75s-47 -104 -56 -163
z" />
    <glyph glyph-name="Ecaron" unicode="&#x11a;" horiz-adv-x="591" 
d="M437 234h-2l-55 95c-9 16 -13 18 -26 18h-97l-63 -305c-4 -20 -2 -23 15 -23h145c23 0 27 2 38 15l143 194h2l-46 -228h-524v2l89 54c9 6 14 14 17 23l113 545c3 10 0 18 -7 23l-66 54v2h513l-47 -228h-2l-64 191c-5 16 -10 18 -26 18h-140c-17 0 -20 -3 -24 -23
l-62 -296h97c11 1 22 7 34 19l94 94h2zM429 847l168 71l1 -2l-187 -174h-2l-115 174l2 2z" />
    <glyph glyph-name="ecaron" unicode="&#x11b;" horiz-adv-x="445" 
d="M21 185c0 81 28 153 84 217c55 64 122 96 200 96c79 0 133 -41 133 -101c0 -51 -30 -92 -89 -123c-59 -32 -125 -45 -198 -39c-2 -13 -3 -26 -3 -40c0 -81 35 -128 100 -128c67 0 132 53 160 150h2c-13 -81 -46 -144 -86 -177s-83 -48 -130 -48c-51 0 -92 17 -124 52
c-33 34 -49 81 -49 141zM152 244c53 0 97 17 130 50s49 75 49 126c0 41 -11 62 -34 62c-31 0 -60 -25 -89 -75s-47 -104 -56 -163zM501 706l1 -2l-187 -174h-2l-115 174l2 2l133 -71z" />
    <glyph glyph-name="Gcircumflex" unicode="&#x11c;" horiz-adv-x="655" 
d="M586 254c-9 -5 -14 -14 -16 -26l-50 -238l-108 22c-41 -15 -78 -22 -113 -22c-82 0 -146 26 -192 77s-69 119 -69 203c0 164 69 304 197 384c64 39 137 59 218 59c74 0 141 -7 202 -22l-46 -227h-2l-81 210c-7 15 -9 19 -24 20c-8 1 -20 2 -35 2
c-204 0 -288 -272 -288 -484c0 -131 48 -203 137 -203c25 0 52 5 82 16l42 203c2 12 0 21 -5 26l-57 55v2h287v-2zM602 750l-2 -2l-132 77l-168 -77l-2 2l187 173h2z" />
    <glyph glyph-name="gcircumflex" unicode="&#x11d;" horiz-adv-x="475" 
d="M269 498c43 0 82 -12 116 -36c9 -6 16 -6 22 0l125 136h2l-34 -162h-90c20 -23 30 -51 30 -83c0 -55 -21 -99 -64 -132s-93 -50 -150 -50c-25 0 -48 3 -67 10c-25 -7 -45 -24 -45 -40c0 -18 18 -31 53 -38l119 -26c84 -19 126 -68 126 -132c0 -53 -24 -96 -73 -130
s-107 -51 -174 -51c-60 0 -111 11 -153 33c-42 23 -63 54 -63 93c0 60 59 101 142 117c-49 15 -73 41 -73 77c0 49 46 88 130 100c-57 21 -93 67 -93 131c0 55 21 99 64 133c42 33 92 50 150 50zM276 -190c27 21 40 48 40 81c0 43 -31 71 -93 85l-110 25c-2 0 -7 1 -15 4
c-45 -26 -67 -62 -67 -107c0 -35 14 -63 43 -85s62 -33 101 -33c41 0 74 10 101 30zM326 394c0 59 -17 89 -50 89c-32 0 -58 -23 -78 -68s-30 -93 -30 -142c0 -58 16 -87 49 -87c68 -1 112 123 109 208zM437 536l-132 77l-168 -77l-2 2l187 173h2l115 -173z" />
    <glyph glyph-name="Gbreve" unicode="&#x11e;" horiz-adv-x="655" 
d="M570 228l-50 -238l-108 22c-41 -15 -78 -22 -113 -22c-82 0 -146 26 -192 77s-69 119 -69 203c0 164 69 304 197 384c64 39 137 59 218 59c74 0 141 -7 202 -22l-46 -227h-2l-81 210c-7 15 -9 19 -24 20c-8 1 -20 2 -35 2c-204 0 -288 -272 -288 -484
c0 -131 48 -203 137 -203c25 0 52 5 82 16l42 203c2 12 0 21 -5 26l-57 55v2h287v-2l-79 -55c-9 -5 -14 -14 -16 -26zM552 847c25 17 41 40 49 71h2c-4 -111 -66 -165 -145 -165c-61 0 -110 33 -110 97c0 19 5 42 15 68h2c-5 -30 1 -54 20 -71c18 -17 44 -26 78 -26
s64 9 89 26z" />
    <glyph glyph-name="gbreve" unicode="&#x11f;" horiz-adv-x="475" 
d="M376 221c-43 -33 -93 -50 -150 -50c-25 0 -48 3 -67 10c-25 -7 -45 -24 -45 -40c0 -18 18 -31 53 -38l119 -26c84 -19 126 -68 126 -132c0 -53 -24 -96 -73 -130s-107 -51 -174 -51c-60 0 -111 11 -153 33c-42 23 -63 54 -63 93c0 60 59 101 142 117
c-49 15 -73 41 -73 77c0 49 46 88 130 100c-57 21 -93 67 -93 131c0 55 21 99 64 133c42 33 92 50 150 50c43 0 82 -12 116 -36c9 -6 16 -6 22 0l125 136h2l-34 -162h-90c20 -23 30 -51 30 -83c0 -55 -21 -99 -64 -132zM316 -109c0 43 -31 71 -93 85l-110 25
c-2 0 -7 1 -15 4c-45 -26 -67 -62 -67 -107c0 -35 14 -63 43 -85s62 -33 101 -33c81 0 141 44 141 111zM326 394c0 59 -17 89 -50 89c-32 0 -58 -23 -78 -68s-30 -93 -30 -142c0 -58 16 -87 49 -87c68 -1 112 123 109 208zM221 635c18 -17 44 -26 78 -26c68 0 122 36 138 97
h2c-4 -111 -66 -165 -145 -165c-61 0 -110 33 -110 97c0 19 5 42 15 68h2c-5 -30 1 -54 20 -71z" />
    <glyph glyph-name="Gdotaccent" unicode="&#x120;" horiz-adv-x="655" 
d="M570 228l-50 -238l-108 22c-41 -15 -78 -22 -113 -22c-82 0 -146 26 -192 77s-69 119 -69 203c0 164 69 304 197 384c64 39 137 59 218 59c74 0 141 -7 202 -22l-46 -227h-2l-81 210c-7 15 -9 19 -24 20c-8 1 -20 2 -35 2c-204 0 -288 -272 -288 -484
c0 -131 48 -203 137 -203c25 0 52 5 82 16l42 203c2 12 0 21 -5 26l-57 55v2h287v-2l-79 -55c-9 -5 -14 -14 -16 -26zM418 783c-12 11 -18 25 -18 43c0 40 33 71 76 71c36 0 61 -23 61 -59c0 -40 -32 -71 -75 -71c-17 0 -32 5 -44 16z" />
    <glyph glyph-name="gdotaccent" unicode="&#x121;" horiz-adv-x="475" 
d="M269 498c43 0 82 -12 116 -36c9 -6 16 -6 22 0l125 136h2l-34 -162h-90c20 -23 30 -51 30 -83c0 -55 -21 -99 -64 -132s-93 -50 -150 -50c-25 0 -48 3 -67 10c-25 -7 -45 -24 -45 -40c0 -18 18 -31 53 -38l119 -26c84 -19 126 -68 126 -132c0 -53 -24 -96 -73 -130
s-107 -51 -174 -51c-60 0 -111 11 -153 33c-42 23 -63 54 -63 93c0 60 59 101 142 117c-49 15 -73 41 -73 77c0 49 46 88 130 100c-57 21 -93 67 -93 131c0 55 21 99 64 133c42 33 92 50 150 50zM276 -190c27 21 40 48 40 81c0 43 -31 71 -93 85l-110 25c-2 0 -7 1 -15 4
c-45 -26 -67 -62 -67 -107c0 -35 14 -63 43 -85s62 -33 101 -33c41 0 74 10 101 30zM326 394c0 59 -17 89 -50 89c-32 0 -58 -23 -78 -68s-30 -93 -30 -142c0 -58 16 -87 49 -87c68 -1 112 123 109 208zM258 665c15 13 33 20 54 20c36 0 61 -23 61 -59
c0 -40 -32 -71 -75 -71c-35 0 -62 23 -62 59c0 20 7 37 22 51z" />
    <glyph glyph-name="Gcommaaccent" unicode="&#x122;" horiz-adv-x="655" 
d="M453 713c74 0 141 -7 202 -22l-46 -227h-2l-81 210c-7 15 -9 19 -24 20c-8 1 -20 2 -35 2c-204 0 -288 -272 -288 -484c0 -131 48 -203 137 -203c25 0 52 5 82 16l42 203c2 12 0 21 -5 26l-57 55v2h287v-2l-79 -55c-9 -5 -14 -14 -16 -26l-50 -238l-108 22
c-41 -15 -78 -22 -113 -22c-82 0 -146 26 -192 77s-69 119 -69 203c0 164 69 304 197 384c64 39 137 59 218 59zM234 -234c-17 -9 -32 -15 -46 -19v2c17 8 31 18 40 31c15 20 25 38 30 55c2 7 0 11 -6 12c-25 4 -38 19 -38 45c0 37 31 67 67 67c32 0 54 -24 54 -57
c0 -55 -44 -105 -101 -136z" />
    <glyph glyph-name="gcommaaccent" unicode="&#x123;" horiz-adv-x="475" 
d="M269 498c43 0 82 -12 116 -36c9 -6 16 -6 22 0l125 136h2l-34 -162h-90c20 -23 30 -51 30 -83c0 -55 -21 -99 -64 -132s-93 -50 -150 -50c-25 0 -48 3 -67 10c-25 -7 -45 -24 -45 -40c0 -18 18 -31 53 -38l119 -26c84 -19 126 -68 126 -132c0 -53 -24 -96 -73 -130
s-107 -51 -174 -51c-60 0 -111 11 -153 33c-42 23 -63 54 -63 93c0 60 59 101 142 117c-49 15 -73 41 -73 77c0 49 46 88 130 100c-57 21 -93 67 -93 131c0 55 21 99 64 133c42 33 92 50 150 50zM276 -190c27 21 40 48 40 81c0 43 -31 71 -93 85l-110 25c-2 0 -7 1 -15 4
c-45 -26 -67 -62 -67 -107c0 -35 14 -63 43 -85s62 -33 101 -33c41 0 74 10 101 30zM276 221c35 45 50 113 50 173c0 59 -17 89 -50 89c-32 0 -58 -23 -78 -68s-30 -93 -30 -142c0 -58 16 -87 49 -87c22 0 42 12 59 35zM347 569c-13 -13 -29 -20 -47 -20
c-33 0 -54 22 -54 57c0 48 29 91 88 128c19 13 38 22 59 27v-2c-20 -10 -36 -23 -47 -38c-9 -11 -16 -27 -23 -48c-3 -7 -1 -11 6 -12c25 -4 38 -19 38 -45c0 -19 -7 -34 -20 -47z" />
    <glyph glyph-name="Hcircumflex" unicode="&#x124;" horiz-adv-x="740" 
d="M532 370l53 254c2 11 0 18 -7 23l-66 54v2h306v-2l-88 -54c-9 -6 -15 -14 -16 -23l-113 -545c-3 -10 -1 -18 6 -23l65 -54v-2h-306v2l88 54c9 6 14 14 17 23l57 272h-269l-57 -272c-3 -10 -1 -18 6 -23l66 -54v-2h-307v2l89 54c9 6 14 14 17 23l113 545c3 10 0 18 -7 23
l-66 54v2h307v-2l-88 -54c-9 -5 -15 -13 -16 -23l-53 -254h269zM515 923l115 -173l-2 -2l-132 77l-168 -77l-2 2l187 173h2z" />
    <glyph glyph-name="hcircumflex" unicode="&#x125;" horiz-adv-x="521" 
d="M417 60c16 0 31 10 45 30c17 23 32 61 45 112h2c-8 -65 -28 -116 -59 -153c-32 -38 -67 -57 -106 -57c-45 0 -74 27 -74 74c0 23 8 59 24 108l49 150c12 37 18 63 18 78c0 20 -10 30 -29 30c-38 0 -74 -28 -107 -85c-33 -58 -69 -174 -109 -347h-115l151 649
c4 17 3 19 -9 23l-76 30v2l220 20l-103 -436h2c49 132 129 210 209 210c52 0 84 -32 84 -83c0 -24 -8 -63 -25 -116l-45 -142c-10 -31 -15 -55 -15 -70c0 -18 8 -27 23 -27zM68 748l-2 2l187 173h2l115 -173l-2 -2l-132 77z" />
    <glyph glyph-name="Hbar" unicode="&#x126;" horiz-adv-x="740" 
d="M512 701v2h306v-2l-88 -54c-9 -6 -15 -14 -16 -23l-29 -140h75v-18h-79l-80 -387c-3 -10 -1 -18 6 -23l65 -54v-2h-306v2l88 54c9 6 14 14 17 23l45 214h-269l-45 -214c-3 -10 -1 -18 6 -23l66 -54v-2h-307v2l89 54c9 6 14 14 17 23l80 387h-78v18h82l29 140
c3 10 0 18 -7 23l-66 54v2h307v-2l-88 -54c-9 -5 -15 -13 -16 -23l-29 -140h269l29 140c2 11 0 18 -7 23zM520 312l32 154h-269l-32 -154h269z" />
    <glyph glyph-name="hbar" unicode="&#x127;" horiz-adv-x="521" 
d="M418 60c16 0 31 10 45 30c17 23 32 61 45 112h2c-8 -65 -28 -116 -59 -153c-32 -38 -67 -57 -106 -57c-45 0 -74 27 -74 74c0 23 8 59 24 108l49 150c12 37 18 63 18 78c0 20 -10 30 -29 30c-38 0 -74 -28 -107 -85c-33 -58 -69 -174 -109 -347h-115l131 564h-73v17h77
l16 68c4 17 3 19 -9 23l-76 30v2l220 20l-34 -143h138v-17h-142l-65 -276h2c49 132 129 210 209 210c52 0 84 -32 84 -83c0 -24 -8 -63 -25 -116l-45 -142c-10 -31 -15 -55 -15 -70c0 -18 8 -27 23 -27z" />
    <glyph glyph-name="Itilde" unicode="&#x128;" horiz-adv-x="342" 
d="M274 0h-307v2l89 54c9 6 14 14 17 23l113 545c3 10 0 18 -7 23l-66 54v2h307v-2l-88 -54c-9 -5 -15 -13 -16 -23l-114 -545c-3 -10 -1 -18 6 -23l66 -54v-2zM444 892h2c-12 -69 -51 -118 -102 -118c-16 0 -37 8 -64 24c-27 15 -48 23 -62 23c-29 0 -53 -16 -72 -48h-2
c12 69 51 118 102 118c17 0 38 -8 65 -24s47 -24 61 -24c30 0 54 16 72 49z" />
    <glyph glyph-name="itilde" unicode="&#x129;" horiz-adv-x="284" 
d="M28 68c0 20 4 47 12 80l74 279c3 12 0 20 -10 23l-75 30v2l222 16l-90 -338c-10 -39 -15 -63 -15 -73c0 -18 7 -27 22 -27c16 0 31 10 45 29c19 27 34 64 45 113h2c-6 -54 -24 -102 -54 -145c-31 -43 -66 -65 -107 -65c-44 0 -71 29 -71 76zM351 680h2
c-12 -69 -51 -118 -102 -118c-16 0 -37 8 -64 24c-27 15 -48 23 -62 23c-29 0 -53 -16 -72 -48h-2c12 69 51 118 102 118c17 0 38 -8 65 -24s47 -24 61 -24c30 0 54 16 72 49z" />
    <glyph glyph-name="Imacron" unicode="&#x12a;" horiz-adv-x="342" 
d="M420 703v-2l-88 -54c-9 -5 -15 -13 -16 -23l-114 -545c-3 -10 -1 -18 6 -23l66 -54v-2h-307v2l89 54c9 6 14 14 17 23l113 545c3 10 0 18 -7 23l-66 54v2h307zM419 804h-262v18h262v-18z" />
    <glyph glyph-name="imacron" unicode="&#x12b;" horiz-adv-x="284" 
d="M36 68c0 20 4 47 12 80l74 279c3 12 0 20 -10 23l-75 30v2l222 16l-90 -338c-10 -39 -15 -63 -15 -73c0 -18 7 -27 22 -27c16 0 31 10 45 29c19 27 34 64 45 113h2c-6 -54 -24 -102 -54 -145c-31 -43 -66 -65 -107 -65c-44 0 -71 29 -71 76zM334 610v-18h-262v18h262z
" />
    <glyph glyph-name="Ibreve" unicode="&#x12c;" horiz-adv-x="342" 
d="M274 0h-307v2l89 54c9 6 14 14 17 23l113 545c3 10 0 18 -7 23l-66 54v2h307v-2l-88 -54c-9 -5 -15 -13 -16 -23l-114 -545c-3 -10 -1 -18 6 -23l66 -54v-2zM425 918h2c-4 -111 -66 -165 -145 -165c-61 0 -110 33 -110 97c0 19 5 42 15 68h2c-5 -30 1 -54 20 -71
c18 -17 44 -26 78 -26s64 9 89 26s41 40 49 71z" />
    <glyph glyph-name="ibreve" unicode="&#x12d;" horiz-adv-x="284" 
d="M36 68c0 20 4 47 12 80l74 279c3 12 0 20 -10 23l-75 30v2l222 16l-90 -338c-10 -39 -15 -63 -15 -73c0 -18 7 -27 22 -27c16 0 31 10 45 29c19 27 34 64 45 113h2c-6 -54 -24 -102 -54 -145c-31 -43 -66 -65 -107 -65c-44 0 -71 29 -71 76zM340 706h2
c-4 -111 -66 -165 -145 -165c-61 0 -110 33 -110 97c0 19 5 42 15 68h2c-5 -30 1 -54 20 -71c18 -17 44 -26 78 -26s64 9 89 26s41 40 49 71z" />
    <glyph glyph-name="Iogonek" unicode="&#x12e;" horiz-adv-x="342" 
d="M420 703v-2l-88 -54c-10 -6 -15 -14 -16 -23l-114 -545c-3 -10 -1 -18 6 -23l66 -54v-2h-121c-55 -24 -96 -72 -96 -127c0 -35 24 -56 60 -56c32 0 60 13 84 40l2 -1c-37 -61 -82 -92 -137 -92c-47 0 -85 30 -85 79c0 37 16 70 48 98c31 28 68 48 111 59h-173v2l89 54
c9 6 14 14 17 23l113 545c3 10 0 18 -7 23l-66 54v2h307z" />
    <glyph glyph-name="iogonek" unicode="&#x12f;" horiz-adv-x="284" 
d="M-33 -157c0 35 14 65 41 90s61 45 100 59c-44 0 -71 29 -71 76c0 20 4 47 12 80l74 279c3 12 0 20 -10 23l-75 30v2l222 16l-90 -338c-10 -39 -15 -63 -15 -73c0 -18 7 -27 22 -27c16 0 31 10 45 29c19 27 34 64 45 113h2c-5 -49 -21 -95 -48 -136s-58 -65 -95 -72
c-48 -25 -83 -70 -83 -121c0 -35 24 -56 60 -56c31 0 59 13 84 40l2 -1c-37 -61 -82 -92 -137 -92c-47 0 -85 30 -85 79zM232 692c37 0 64 -25 64 -61c0 -41 -34 -73 -77 -73c-37 0 -64 24 -64 60c0 41 34 74 77 74z" />
    <glyph glyph-name="Idotaccent" unicode="&#x130;" horiz-adv-x="342" 
d="M420 703v-2l-88 -54c-9 -5 -15 -13 -16 -23l-114 -545c-3 -10 -1 -18 6 -23l66 -54v-2h-307v2l89 54c9 6 14 14 17 23l113 545c3 10 0 18 -7 23l-66 54v2h307zM224 826c0 40 33 71 76 71c36 0 61 -23 61 -59c0 -40 -32 -71 -75 -71c-35 0 -62 23 -62 59z" />
    <glyph glyph-name="dotlessi" unicode="&#x131;" horiz-adv-x="284" 
d="M37 480v2l222 16l-90 -338c-10 -39 -15 -63 -15 -73c0 -18 7 -27 22 -27c16 0 31 10 45 29c19 27 34 64 45 113h2c-6 -54 -24 -102 -54 -145c-31 -43 -66 -65 -107 -65c-44 0 -71 29 -71 76c0 20 4 47 12 80l74 279c3 12 0 20 -10 23z" />
    <glyph glyph-name="IJ" unicode="&#x132;" horiz-adv-x="652" 
d="M747 703v-2l-89 -54c-9 -6 -15 -14 -16 -23l-118 -564c-34 -165 -138 -255 -311 -271v2c93 42 151 123 176 242l124 591c1 10 -1 18 -7 23l-66 54v2h307zM-33 0v2l89 54c9 6 14 14 17 23l113 545c3 10 0 18 -7 23l-66 54v2h307v-2l-88 -54c-9 -5 -15 -13 -16 -23
l-114 -545c-3 -10 -1 -18 6 -23l66 -54v-2h-307z" />
    <glyph glyph-name="ij" unicode="&#x133;" horiz-adv-x="547" 
d="M390 451l-74 29v2l221 16l-87 -370c-57 -243 -153 -364 -290 -364c-31 0 -57 7 -80 22l64 158h2l43 -143c3 -9 8 -14 15 -14c6 0 13 4 22 11c37 32 73 134 108 305l67 325c3 12 -1 20 -11 23zM55 13c-13 13 -19 32 -19 55c0 20 4 47 12 80l74 279c3 12 0 20 -10 23
l-75 30v2l222 16l-90 -338c-10 -39 -15 -63 -15 -73c0 -18 7 -27 22 -27c16 0 31 10 45 29c19 27 34 64 45 113h2c-6 -54 -24 -102 -54 -145c-31 -43 -66 -65 -107 -65c-22 0 -39 7 -52 21zM154 618c0 21 8 38 23 53c15 14 33 21 54 21c37 0 64 -25 64 -61
c0 -41 -34 -73 -77 -73c-37 0 -64 24 -64 60zM437 618c0 21 8 38 23 53c15 14 33 21 54 21c37 0 64 -25 64 -61c0 -41 -34 -73 -77 -73c-37 0 -64 24 -64 60z" />
    <glyph glyph-name="Jcircumflex" unicode="&#x134;" horiz-adv-x="316" 
d="M188 60c-34 -165 -138 -255 -311 -271v2c93 42 151 123 176 242l124 591c1 10 -1 18 -7 23l-66 54v2h307v-2l-89 -54c-9 -6 -15 -14 -16 -23zM416 750l-2 -2l-132 77l-168 -77l-2 2l187 173h2z" />
    <glyph glyph-name="jcircumflex" unicode="&#x135;" horiz-adv-x="263" 
d="M-123 -236c-31 0 -57 7 -80 22l64 158h2l43 -143c3 -9 8 -14 15 -14c42 0 85 105 130 316l67 325c3 11 -1 19 -11 23l-74 29v2l221 16l-87 -370c-55 -243 -152 -364 -290 -364zM335 538l-2 -2l-132 77l-168 -77l-2 2l187 173h2z" />
    <glyph glyph-name="Kcommaaccent" unicode="&#x136;" horiz-adv-x="659" 
d="M-33 2l89 54c9 6 14 14 17 23l113 545c3 10 0 18 -7 23l-66 54v2h307v-2l-88 -54c-9 -6 -15 -14 -16 -23l-114 -545c-3 -10 -1 -18 6 -23l66 -54v-2h-307v2zM606 0h-175l-164 348l286 246c12 9 13 20 4 31l-65 76v2h284v-2l-152 -80c-22 -11 -40 -23 -53 -34l-196 -168
l155 -327c7 -13 14 -24 23 -34l53 -56v-2zM218 -251c17 8 31 18 40 31c15 20 25 38 30 55c2 7 0 11 -6 12c-25 4 -38 19 -38 45c0 37 31 67 67 67c32 0 54 -24 54 -57c0 -55 -44 -105 -101 -136c-17 -9 -32 -15 -46 -19v2z" />
    <glyph glyph-name="kcommaaccent" unicode="&#x137;" horiz-adv-x="488" 
d="M413 48c-32 -37 -66 -56 -103 -56c-51 0 -68 26 -79 94l-21 142c-4 29 -15 44 -32 37l-60 -265h-115l144 649c4 17 2 18 -10 23l-75 30v2l219 20l-102 -453l164 121c13 9 19 16 19 20c0 5 -5 12 -14 21l-45 47v2h232v-2l-117 -61c-27 -15 -44 -25 -52 -31l-62 -46
l36 -212c9 -52 19 -70 42 -70c16 0 32 11 47 34c16 25 30 61 41 108h2c-7 -65 -27 -117 -59 -154zM130 -234c-17 -9 -32 -15 -46 -19v2c17 8 31 18 40 31c15 20 25 38 30 55c2 7 0 11 -6 12c-25 4 -38 19 -38 45c0 37 31 67 67 67c32 0 54 -24 54 -57
c0 -55 -44 -105 -101 -136z" />
    <glyph glyph-name="kgreenlandic" unicode="&#x138;" horiz-adv-x="506" 
d="M488 202h2c-7 -65 -27 -117 -58 -154c-32 -37 -67 -56 -104 -56c-49 0 -67 26 -78 94l-22 145c-4 28 -15 41 -31 36l-61 -267h-115l95 425c4 19 4 21 -9 27l-78 29v2l221 15l-52 -226l164 120c12 9 18 16 18 21s-4 11 -13 20l-45 48v2h231v-2l-117 -62
c-25 -13 -42 -24 -52 -31l-62 -46l36 -212c9 -51 21 -70 42 -70c19 0 38 16 55 47c12 21 23 53 33 95z" />
    <glyph glyph-name="Lacute" unicode="&#x139;" horiz-adv-x="559" 
d="M525 240h2l-49 -240h-511v2l89 55c9 6 15 13 17 22l113 545c3 10 0 18 -7 23l-66 54v2h307v-2l-88 -54c-9 -5 -15 -13 -16 -23l-121 -582c-4 -20 -3 -23 14 -23h125c17 0 29 5 36 15zM209 751l-1 1l115 163h143v-2z" />
    <glyph glyph-name="lacute" unicode="&#x13a;" horiz-adv-x="268" 
d="M37 14c-13 14 -19 32 -19 55c0 19 4 45 12 80l115 500c4 16 2 19 -9 23l-75 30v2l219 20l-131 -566c-8 -33 -12 -56 -12 -69c0 -19 8 -29 23 -29s30 10 44 29c19 26 34 64 45 113h2c-7 -66 -29 -119 -65 -159c-31 -34 -63 -51 -96 -51c-23 0 -40 7 -53 22zM405 915v-2
l-257 -162l-1 1l115 163h143z" />
    <glyph glyph-name="Lcommaaccent" unicode="&#x13b;" horiz-adv-x="559" 
d="M525 240h2l-49 -240h-511v2l89 55c9 6 15 13 17 22l113 545c3 10 0 18 -7 23l-66 54v2h307v-2l-88 -54c-9 -5 -15 -13 -16 -23l-121 -582c-4 -20 -3 -23 14 -23h125c17 0 29 5 36 15zM153 -251c17 8 31 18 40 31c15 20 25 38 30 55c2 7 0 11 -6 12c-25 4 -38 19 -38 45
c0 37 31 67 67 67c32 0 54 -24 54 -57c0 -55 -44 -105 -101 -136c-17 -9 -32 -15 -46 -19v2z" />
    <glyph glyph-name="lcommaaccent" unicode="&#x13c;" horiz-adv-x="268" 
d="M249 202h2c-7 -66 -29 -119 -65 -159c-31 -34 -63 -51 -96 -51c-45 0 -72 32 -72 77c0 19 4 45 12 80l115 500c4 16 2 19 -9 23l-75 30v2l219 20l-131 -566c-8 -33 -12 -56 -12 -69c0 -19 8 -29 23 -29s30 10 44 29c19 26 34 64 45 113zM-20 -251c17 8 31 18 40 31
c15 20 25 38 30 55c2 7 0 11 -6 12c-25 4 -38 19 -38 45c0 37 31 67 67 67c32 0 54 -24 54 -57c0 -55 -44 -105 -101 -136c-17 -9 -32 -15 -46 -19v2z" />
    <glyph glyph-name="Lcaron" unicode="&#x13d;" horiz-adv-x="559" 
d="M525 240h2l-49 -240h-511v2l89 55c9 6 15 13 17 22l113 545c3 10 0 18 -7 23l-66 54v2h307v-2l-88 -54c-9 -5 -15 -13 -16 -23l-121 -582c-4 -20 -3 -23 14 -23h125c17 0 29 5 36 15zM451 510h-1l44 193h106z" />
    <glyph glyph-name="lcaron" unicode="&#x13e;" horiz-adv-x="271" 
d="M18 69c0 19 4 45 12 80l115 500c4 16 2 19 -9 23l-75 30v2l219 20l-131 -566c-8 -33 -12 -56 -12 -69c0 -19 8 -29 23 -29s30 10 44 29c19 26 34 64 45 113h2c-7 -66 -29 -119 -65 -159c-31 -34 -63 -51 -96 -51c-45 0 -72 32 -72 77zM331 703h106l-149 -193h-1z" />
    <glyph glyph-name="Ldot" unicode="&#x13f;" horiz-adv-x="559" 
d="M525 240h2l-49 -240h-511v2l89 55c9 6 15 13 17 22l113 545c3 10 0 18 -7 23l-66 54v2h307v-2l-88 -54c-9 -5 -15 -13 -16 -23l-121 -582c-4 -20 -3 -23 14 -23h125c17 0 29 5 36 15zM403 341c-12 11 -18 25 -18 43c0 40 33 71 76 71c36 0 61 -23 61 -59
c0 -40 -32 -71 -75 -71c-17 0 -32 5 -44 16z" />
    <glyph glyph-name="ldot" unicode="&#x140;" horiz-adv-x="373" 
d="M18 69c0 19 4 45 12 80l115 500c4 16 2 19 -9 23l-75 30v2l219 20l-131 -566c-8 -33 -12 -56 -12 -69c0 -19 8 -29 23 -29s30 10 44 29c19 26 34 64 45 113h2c-7 -66 -29 -119 -65 -159c-31 -34 -63 -51 -96 -51c-45 0 -72 32 -72 77zM373 416c11 -11 17 -25 17 -43
c0 -40 -32 -71 -75 -71c-35 0 -62 23 -62 59c0 40 33 71 76 71c18 0 33 -5 44 -16z" />
    <glyph glyph-name="Lslash" unicode="&#x141;" horiz-adv-x="546" 
d="M518 240h2l-49 -240h-511v2l89 55c10 6 16 13 17 22l45 219l-88 -36l-6 17l99 41l63 304c3 10 0 18 -7 23l-66 54v2h307v-2l-88 -54c-9 -5 -14 -13 -16 -23l-51 -245l110 46l7 -17l-122 -51l-65 -315c-4 -20 -3 -23 14 -23h125c17 0 29 5 36 15z" />
    <glyph glyph-name="lslash" unicode="&#x142;" horiz-adv-x="299" 
d="M329 418l7 -16l-115 -48l-45 -196c-8 -33 -12 -56 -12 -69c0 -19 8 -29 23 -29s30 10 44 29c19 26 34 64 45 113h2c-7 -66 -29 -119 -65 -159c-31 -34 -63 -51 -96 -51c-45 0 -72 32 -72 77c0 19 4 45 12 80l34 151l-90 -38l-6 16l101 42l76 329c4 16 2 19 -9 23l-75 30
v2l219 20l-81 -349z" />
    <glyph glyph-name="Nacute" unicode="&#x143;" horiz-adv-x="681" 
d="M787 703v-2l-118 -98c-12 -9 -19 -20 -21 -31l-119 -572h-82l-239 570l-91 -439c-3 -16 -3 -19 8 -31l77 -98v-2h-244v2l118 98c12 9 19 20 21 31l94 449c3 13 2 24 -5 33l-73 88v2h179l242 -580l94 449c3 11 0 22 -8 31l-78 98v2h245zM361 752l115 163h143v-2l-257 -162
z" />
    <glyph glyph-name="nacute" unicode="&#x144;" horiz-adv-x="546" 
d="M504 415c0 -22 -9 -61 -26 -116l-44 -142c-10 -31 -15 -55 -15 -70c0 -18 7 -27 22 -27c16 0 31 10 45 30c20 29 35 66 45 112h2c-8 -64 -28 -115 -59 -153s-66 -57 -105 -57c-45 0 -74 27 -74 74c0 23 8 59 24 108l48 150c12 37 18 64 18 79c0 19 -10 29 -30 29
c-35 0 -68 -25 -100 -76c-37 -57 -75 -176 -116 -356h-116l99 424c4 19 4 21 -9 27l-75 29v2l221 16l-51 -208h2c24 64 55 115 93 152c37 37 76 56 117 56c52 0 84 -32 84 -83zM268 539l-1 1l115 163h143v-2z" />
    <glyph glyph-name="Ncommaaccent" unicode="&#x145;" horiz-adv-x="681" 
d="M620 603l-78 98v2h245v-2l-118 -98c-12 -9 -19 -20 -21 -31l-119 -572h-82l-239 570l-91 -439c-3 -16 -3 -19 8 -31l77 -98v-2h-244v2l118 98c12 9 19 20 21 31l94 449c3 13 2 24 -5 33l-73 88v2h179l242 -580l94 449c3 11 0 22 -8 31zM185 -253v2c17 8 31 18 40 31
c15 20 25 38 30 55c2 7 0 11 -6 12c-25 4 -38 19 -38 45c0 37 31 67 67 67c32 0 54 -24 54 -57c0 -55 -44 -105 -101 -136c-17 -9 -32 -15 -46 -19z" />
    <glyph glyph-name="ncommaaccent" unicode="&#x146;" horiz-adv-x="546" 
d="M474 49c-31 -38 -66 -57 -105 -57c-45 0 -74 27 -74 74c0 23 8 59 24 108l48 150c12 37 18 64 18 79c0 19 -10 29 -30 29c-35 0 -68 -25 -100 -76c-37 -57 -75 -176 -116 -356h-116l99 424c4 19 4 21 -9 27l-75 29v2l221 16l-51 -208h2c24 64 55 115 93 152
c37 37 76 56 117 56c52 0 84 -32 84 -83c0 -22 -9 -61 -26 -116l-44 -142c-10 -31 -15 -55 -15 -70c0 -18 7 -27 22 -27c16 0 31 10 45 30c20 29 35 66 45 112h2c-8 -64 -28 -115 -59 -153zM122 -251c17 8 31 18 40 31c15 20 25 38 30 55c2 7 0 11 -6 12
c-25 4 -38 19 -38 45c0 37 31 67 67 67c32 0 54 -24 54 -57c0 -55 -44 -105 -101 -136c-17 -9 -32 -15 -46 -19v2z" />
    <glyph glyph-name="Ncaron" unicode="&#x147;" horiz-adv-x="681" 
d="M787 701l-118 -98c-12 -9 -19 -20 -21 -31l-119 -572h-82l-239 570l-91 -439c-3 -16 -3 -19 8 -31l77 -98v-2h-244v2l118 98c12 9 19 20 21 31l94 449c3 13 2 24 -5 33l-73 88v2h179l242 -580l94 449c3 11 0 22 -8 31l-78 98v2h245v-2zM428 742l-115 174l2 2l133 -71
l168 71l1 -2l-187 -174h-2z" />
    <glyph glyph-name="ncaron" unicode="&#x148;" horiz-adv-x="546" 
d="M533 202c-8 -64 -28 -115 -59 -153s-66 -57 -105 -57c-45 0 -74 27 -74 74c0 23 8 59 24 108l48 150c12 37 18 64 18 79c0 19 -10 29 -30 29c-35 0 -68 -25 -100 -76c-37 -57 -75 -176 -116 -356h-116l99 424c4 19 4 21 -9 27l-75 29v2l221 16l-51 -208h2
c24 64 55 115 93 152c37 37 76 56 117 56c52 0 84 -32 84 -83c0 -22 -9 -61 -26 -116l-44 -142c-10 -31 -15 -55 -15 -70c0 -18 7 -27 22 -27c16 0 31 10 45 30c20 29 35 66 45 112h2zM523 706l1 -2l-187 -174h-2l-115 174l2 2l133 -71z" />
    <glyph glyph-name="napostrophe" unicode="&#x149;" horiz-adv-x="590" 
d="M519 49c-31 -38 -66 -57 -105 -57c-45 0 -74 27 -74 74c0 23 8 59 24 108l48 150c12 37 18 64 18 79c0 19 -10 29 -30 29c-35 0 -68 -25 -100 -76c-37 -57 -75 -176 -116 -356h-116l99 424c4 19 4 21 -9 27l-75 29v2l221 16l-51 -208h2c24 64 55 115 93 152
c37 37 76 56 117 56c52 0 84 -32 84 -83c0 -22 -9 -61 -26 -116l-44 -142c-10 -31 -15 -55 -15 -70c0 -18 7 -27 22 -27c16 0 31 10 45 30c20 29 35 66 45 112h2c-8 -64 -28 -115 -59 -153zM5 503c17 8 31 18 40 31c15 20 25 38 30 55c2 7 0 11 -6 12c-25 4 -38 19 -38 45
c0 37 31 67 67 67c32 0 54 -24 54 -57c0 -55 -44 -105 -101 -136c-17 -9 -32 -15 -46 -19v2z" />
    <glyph glyph-name="Eng" unicode="&#x14a;" horiz-adv-x="697" 
d="M665 560c0 -16 -2 -34 -6 -53l-90 -438c-36 -177 -149 -279 -317 -279v2c93 27 151 101 176 220l98 474c4 21 6 40 6 55c0 68 -35 102 -104 102c-25 0 -53 -8 -84 -23c-31 -16 -55 -34 -71 -53l-101 -488c-3 -10 0 -18 7 -23l65 -54v-2h-306v2l88 54c10 6 16 14 17 23
l113 545c3 10 0 18 -7 23l-65 54v2h218l-27 -128c20 39 53 72 98 98s87 39 128 39c96 0 164 -53 164 -152z" />
    <glyph glyph-name="eng" unicode="&#x14b;" horiz-adv-x="526" 
d="M504 415c0 -28 -6 -67 -19 -116l-61 -238c-40 -160 -137 -246 -305 -262l-1 2c87 35 147 116 180 241l61 241c17 68 26 108 26 120c0 19 -10 29 -30 29c-35 0 -68 -25 -100 -76c-25 -39 -51 -106 -77 -201c-12 -40 -25 -92 -39 -155h-116l99 424c5 19 4 20 -9 27l-75 29
v2l221 16l-51 -208h2c24 64 55 115 93 152c37 37 76 56 117 56c52 0 84 -32 84 -83z" />
    <glyph glyph-name="Omacron" unicode="&#x14c;" horiz-adv-x="685" 
d="M613 636c48 -52 72 -120 72 -204c0 -123 -36 -227 -108 -313c-73 -86 -161 -129 -265 -129c-87 0 -154 26 -201 78c-48 51 -72 119 -72 203c0 123 36 227 108 313s160 129 265 129c86 0 153 -26 201 -77zM208 417c-20 -75 -30 -147 -30 -214c0 -131 42 -196 125 -196
c45 0 86 28 125 84c39 55 68 121 88 196s30 146 30 213c0 131 -42 196 -125 196c-45 0 -86 -28 -125 -83c-39 -56 -68 -121 -88 -196zM588 804h-262v18h262v-18z" />
    <glyph glyph-name="omacron" unicode="&#x14d;" horiz-adv-x="489" 
d="M22 179c0 85 27 159 80 223s118 96 193 96c49 0 90 -15 123 -46s49 -79 49 -142c0 -85 -27 -160 -80 -223c-54 -64 -119 -96 -194 -96c-49 0 -90 15 -122 46c-33 31 -49 78 -49 142zM147 109c0 -69 16 -103 49 -103c25 0 50 21 73 63c23 41 42 91 55 148s19 112 19 163
c0 69 -16 103 -49 103c-25 0 -50 -21 -73 -62c-23 -42 -41 -92 -54 -149s-20 -112 -20 -163zM453 610v-18h-262v18h262z" />
    <glyph glyph-name="Obreve" unicode="&#x14e;" horiz-adv-x="685" 
d="M613 636c48 -52 72 -120 72 -204c0 -123 -36 -227 -108 -313c-73 -86 -161 -129 -265 -129c-87 0 -154 26 -201 78c-48 51 -72 119 -72 203c0 123 36 227 108 313s160 129 265 129c86 0 153 -26 201 -77zM208 417c-20 -75 -30 -147 -30 -214c0 -131 42 -196 125 -196
c45 0 86 28 125 84c39 55 68 121 88 196s30 146 30 213c0 131 -42 196 -125 196c-45 0 -86 -28 -125 -83c-39 -56 -68 -121 -88 -196zM340 850c0 19 5 42 15 68h2c-5 -30 1 -54 20 -71c18 -17 44 -26 78 -26s64 9 89 26s41 40 49 71h2c-4 -111 -66 -165 -145 -165
c-61 0 -110 33 -110 97z" />
    <glyph glyph-name="obreve" unicode="&#x14f;" horiz-adv-x="489" 
d="M22 179c0 85 27 159 80 223s118 96 193 96c49 0 90 -15 123 -46s49 -79 49 -142c0 -85 -27 -160 -80 -223c-54 -64 -119 -96 -194 -96c-49 0 -90 15 -122 46c-33 31 -49 78 -49 142zM147 109c0 -69 16 -103 49 -103c25 0 50 21 73 63c23 41 42 91 55 148s19 112 19 163
c0 69 -16 103 -49 103c-25 0 -50 -21 -73 -62c-23 -42 -41 -92 -54 -149s-20 -112 -20 -163zM459 706h2c-4 -111 -66 -165 -145 -165c-61 0 -110 33 -110 97c0 19 5 42 15 68h2c-5 -30 1 -54 20 -71c18 -17 44 -26 78 -26s64 9 89 26s41 40 49 71z" />
    <glyph glyph-name="Ohungarumlaut" unicode="&#x150;" horiz-adv-x="685" 
d="M111 68c-48 51 -72 119 -72 203c0 123 36 227 108 313s160 129 265 129c86 0 153 -26 201 -77c48 -52 72 -120 72 -204c0 -123 -36 -227 -108 -313c-73 -86 -161 -129 -265 -129c-87 0 -154 26 -201 78zM178 203c0 -131 42 -196 125 -196c45 0 86 28 125 84
c39 55 68 121 88 196s30 146 30 213c0 131 -42 196 -125 196c-45 0 -86 -28 -125 -83c-39 -56 -68 -121 -88 -196s-30 -147 -30 -214zM342 744l95 171h115v-2l-209 -170zM702 915v-2l-208 -170l-1 1l95 171h114z" />
    <glyph glyph-name="ohungarumlaut" unicode="&#x151;" horiz-adv-x="489" 
d="M22 179c0 85 27 159 80 223s118 96 193 96c49 0 90 -15 123 -46s49 -79 49 -142c0 -85 -27 -160 -80 -223c-54 -64 -119 -96 -194 -96c-49 0 -90 15 -122 46c-33 31 -49 78 -49 142zM167 272c-13 -57 -20 -112 -20 -163c0 -69 16 -103 49 -103c25 0 50 21 73 63
c23 41 42 91 55 148s19 112 19 163c0 69 -16 103 -49 103c-25 0 -50 -21 -73 -62c-23 -42 -41 -92 -54 -149zM208 532l95 171h115v-2l-209 -170zM568 703v-2l-208 -170l-1 1l95 171h114z" />
    <glyph glyph-name="OE" unicode="&#x152;" horiz-adv-x="955" 
d="M719 19c11 0 18 1 23 3c5 1 10 5 15 12l143 194h2l-47 -228h-439c-35 -7 -69 -10 -104 -10c-88 0 -155 26 -202 77s-71 118 -71 200c0 79 16 153 49 221s79 123 138 164s126 61 199 61c44 0 90 -3 138 -10h428l-47 -228h-2l-64 191c-5 16 -10 18 -26 18h-140
c-17 0 -20 -3 -24 -23l-62 -296h97c11 1 22 7 33 19l94 94h2l-50 -244h-2l-55 95c-8 15 -12 18 -27 18h-96l-63 -305c-4 -20 -2 -23 14 -23h146zM182 208c0 -124 40 -202 127 -202c47 0 72 13 107 44c11 11 17 23 20 38l110 526c5 21 2 37 -9 46c-27 24 -59 36 -96 36
c-41 0 -78 -17 -113 -52s-62 -79 -82 -131c-41 -105 -64 -218 -64 -305z" />
    <glyph glyph-name="oe" unicode="&#x153;" horiz-adv-x="748" 
d="M704 470c25 -19 37 -43 37 -73c0 -51 -30 -92 -89 -124c-60 -32 -126 -45 -199 -40c-1 -8 -2 -21 -2 -38c0 -81 35 -128 100 -128c72 0 132 50 160 150h2c-11 -78 -37 -135 -78 -171s-88 -54 -139 -54c-61 0 -107 26 -136 77c-48 -52 -103 -78 -166 -78
c-49 0 -90 15 -122 46c-33 31 -49 78 -49 142c0 85 27 159 80 223s118 96 193 96c63 0 108 -26 135 -78c50 52 109 78 176 78c40 0 72 -9 97 -28zM167 272c-13 -57 -20 -112 -20 -163c0 -69 17 -103 50 -103c25 0 50 21 73 63c23 41 42 91 55 148s19 112 19 163
c0 69 -17 103 -50 103c-25 0 -50 -21 -73 -62c-23 -42 -41 -92 -54 -149zM512 407c-29 -50 -48 -104 -57 -162c53 0 97 17 130 50s49 75 49 125c0 41 -11 62 -34 62c-30 0 -59 -25 -88 -75z" />
    <glyph glyph-name="Racute" unicode="&#x154;" horiz-adv-x="639" 
d="M565 398c-46 -39 -103 -61 -171 -64l-1 -2l63 -35l73 -216c3 -9 13 -23 29 -40l38 -39v-2h-176l-108 314c-3 9 -11 14 -23 14h-43l-51 -243c-3 -15 -2 -25 5 -30l59 -53v-2h-292v2l86 57c11 7 7 13 13 30l111 529c3 15 2 25 -5 30l-59 53v2h324c59 0 107 -14 143 -42
c36 -29 54 -67 54 -114c0 -61 -23 -110 -69 -149zM447 407c33 40 49 90 49 151c0 85 -34 128 -103 128h-50c-19 0 -24 -7 -28 -27l-65 -313h78c47 0 86 20 119 61zM451 915h143v-2l-257 -162l-1 1z" />
    <glyph glyph-name="racute" unicode="&#x155;" horiz-adv-x="391" 
d="M28 0l92 423c4 20 4 21 -11 28l-74 29v2l221 16l-47 -199h2c51 136 98 199 167 199c20 0 37 -4 50 -13l-71 -193h-2l-38 124c-2 6 -5 9 -9 9c-6 0 -13 -4 -21 -12c-14 -14 -29 -37 -45 -70c-15 -29 -29 -65 -42 -109s-32 -122 -57 -234h-115zM461 703v-2l-257 -162l-1 1
l115 163h143z" />
    <glyph glyph-name="Rcommaaccent" unicode="&#x156;" horiz-adv-x="639" 
d="M393 332l63 -35l73 -216c3 -9 13 -23 29 -40l38 -39v-2h-176l-108 314c-3 9 -11 14 -23 14h-43l-51 -243c-3 -15 -2 -25 5 -30l59 -53v-2h-292v2l86 57c11 7 7 13 13 30l111 529c3 15 2 25 -5 30l-59 53v2h324c59 0 107 -14 143 -42c36 -29 54 -67 54 -114
c0 -61 -23 -110 -69 -149s-103 -61 -171 -64zM324 680c-4 -4 -7 -11 -9 -21l-65 -313h78c47 0 86 20 119 61c33 40 49 90 49 151c0 85 -34 128 -103 128h-50c-9 0 -16 -2 -19 -6zM360 -98c0 -55 -44 -105 -101 -136c-17 -9 -32 -15 -46 -19v2c17 8 31 18 40 31
c15 20 25 38 30 55c2 7 0 11 -6 12c-25 4 -38 19 -38 45c0 37 31 67 67 67c32 0 54 -24 54 -57z" />
    <glyph glyph-name="rcommaaccent" unicode="&#x157;" horiz-adv-x="391" 
d="M378 498c20 0 37 -4 50 -13l-71 -193h-2l-38 124c-2 6 -5 9 -9 9c-6 0 -13 -4 -21 -12c-14 -14 -29 -37 -45 -70c-15 -29 -29 -65 -42 -109s-32 -122 -57 -234h-115l92 423c4 20 4 21 -11 28l-74 29v2l221 16l-47 -199h2c51 136 98 199 167 199zM25 -234
c-17 -9 -32 -15 -46 -19v2c17 8 31 18 40 31c15 20 25 38 30 55c2 7 0 11 -6 12c-25 4 -38 19 -38 45c0 37 31 67 67 67c32 0 54 -24 54 -57c0 -55 -44 -105 -101 -136z" />
    <glyph glyph-name="Rcaron" unicode="&#x158;" horiz-adv-x="639" 
d="M565 398c-46 -39 -103 -61 -171 -64l-1 -2l63 -35l73 -216c3 -9 13 -23 29 -40l38 -39v-2h-176l-108 314c-3 9 -11 14 -23 14h-43l-51 -243c-3 -15 -2 -25 5 -30l59 -53v-2h-292v2l86 57c11 7 7 13 13 30l111 529c3 15 2 25 -5 30l-59 53v2h324c59 0 107 -14 143 -42
c36 -29 54 -67 54 -114c0 -61 -23 -110 -69 -149zM447 407c33 40 49 90 49 151c0 85 -34 128 -103 128h-50c-19 0 -24 -7 -28 -27l-65 -313h78c47 0 86 20 119 61zM406 742h-2l-115 174l2 2l133 -71l168 71l1 -2z" />
    <glyph glyph-name="rcaron" unicode="&#x159;" horiz-adv-x="391" 
d="M143 0h-115l92 423c4 20 4 21 -11 28l-74 29v2l221 16l-47 -199h2c51 136 98 199 167 199c20 0 37 -4 50 -13l-71 -193h-2l-38 124c-2 6 -5 9 -9 9c-6 0 -13 -4 -21 -12c-14 -14 -29 -37 -45 -70c-15 -29 -29 -65 -42 -109s-32 -122 -57 -234zM459 706l1 -2l-187 -174h-2
l-115 174l2 2l133 -71z" />
    <glyph glyph-name="Sacute" unicode="&#x15a;" horiz-adv-x="528" 
d="M543 686l-46 -210h-2l-72 199c-3 9 -9 15 -18 17c-17 3 -32 5 -47 5c-80 0 -141 -44 -141 -121c0 -51 36 -102 107 -153l59 -43c72 -51 106 -100 106 -173c0 -60 -26 -111 -78 -153c-52 -43 -116 -64 -192 -64c-90 0 -161 11 -214 33l57 216h2l63 -207
c3 -11 10 -17 20 -20c15 -3 34 -5 55 -5c43 0 81 12 113 37c31 24 47 58 47 103c0 57 -31 99 -96 147l-59 44c-68 49 -102 108 -102 176c0 57 22 105 67 143c44 37 100 56 167 56c69 0 137 -9 204 -27zM298 751l-1 1l115 163h143v-2z" />
    <glyph glyph-name="sacute" unicode="&#x15b;" horiz-adv-x="388" 
d="M381 473l-56 -162h-2l-51 160c-3 9 -8 13 -16 13h-10c-56 0 -89 -32 -89 -79c0 -37 29 -71 92 -119c64 -48 94 -84 94 -137c0 -39 -17 -74 -50 -107c-34 -33 -82 -50 -144 -50c-55 0 -106 12 -152 36l60 166h2l49 -171c2 -9 7 -14 16 -15c6 -1 15 -2 27 -2
c60 0 93 38 93 87c0 18 -6 34 -18 49c-13 14 -36 35 -71 64c-64 52 -93 90 -93 145c0 41 16 75 49 104s76 43 131 43c47 0 93 -8 139 -25zM179 539l-1 1l115 163h143v-2z" />
    <glyph glyph-name="Scircumflex" unicode="&#x15c;" horiz-adv-x="528" 
d="M463 302c17 -27 26 -58 26 -95c0 -60 -26 -111 -78 -153c-52 -43 -116 -64 -192 -64c-90 0 -161 11 -214 33l57 216h2l63 -207c3 -11 10 -17 20 -20c15 -3 34 -5 55 -5c43 0 81 12 113 37c31 24 47 58 47 103c0 57 -31 99 -96 147l-59 44c-68 49 -102 108 -102 176
c0 57 22 105 67 143c44 37 100 56 167 56c69 0 137 -9 204 -27l-46 -210h-2l-72 199c-3 9 -9 15 -18 17c-17 3 -32 5 -47 5c-80 0 -141 -44 -141 -121c0 -51 36 -102 107 -153l59 -43c36 -25 63 -51 80 -78zM215 748l-2 2l187 173h2l115 -173l-2 -2l-132 77z" />
    <glyph glyph-name="scircumflex" unicode="&#x15d;" horiz-adv-x="388" 
d="M320 220c15 -21 23 -44 23 -71c0 -39 -17 -74 -50 -107c-34 -33 -82 -50 -144 -50c-55 0 -106 12 -152 36l60 166h2l49 -171c2 -9 7 -14 16 -15c6 -1 15 -2 27 -2c60 0 93 38 93 87c0 18 -6 34 -18 49c-13 14 -36 35 -71 64c-64 52 -93 90 -93 145c0 41 16 75 49 104
s76 43 131 43c47 0 93 -8 139 -25l-56 -162h-2l-51 160c-3 9 -8 13 -16 13h-10c-56 0 -89 -32 -89 -79c0 -37 29 -71 92 -119c32 -24 56 -46 71 -66zM94 538l187 173h2l115 -173l-2 -2l-132 77l-168 -77z" />
    <glyph glyph-name="Scedilla" unicode="&#x15e;" horiz-adv-x="528" 
d="M315 -125c0 -31 -13 -58 -38 -79c-26 -21 -58 -32 -95 -32c-64 0 -104 38 -99 89h2c4 -36 36 -55 69 -55c41 0 78 30 78 71c0 28 -22 45 -54 45c-13 0 -26 -2 -39 -7l-1 2l79 81c-89 0 -160 11 -212 33l57 216h2l63 -207c3 -11 10 -17 20 -20c15 -3 34 -5 55 -5
c43 0 81 12 113 37c31 24 47 58 47 103c0 57 -31 99 -96 147l-59 44c-68 49 -102 108 -102 176c0 57 22 105 67 143c44 37 100 56 167 56c69 0 137 -9 204 -27l-46 -210h-2l-72 199c-3 9 -9 15 -18 17c-17 3 -32 5 -47 5c-80 0 -141 -44 -141 -121c0 -51 36 -102 107 -153
l59 -43c72 -51 106 -100 106 -173c0 -59 -25 -110 -76 -152s-113 -64 -188 -65l-18 -52c10 2 19 3 28 3c48 0 80 -27 80 -66z" />
    <glyph glyph-name="scedilla" unicode="&#x15f;" horiz-adv-x="388" 
d="M180 350c15 -19 38 -40 69 -64c64 -48 94 -84 94 -137c0 -39 -17 -74 -50 -107c-34 -33 -82 -50 -144 -50l-18 -54c10 2 19 3 28 3c48 0 80 -27 80 -66c0 -31 -13 -58 -38 -79c-26 -21 -58 -32 -95 -32c-64 0 -104 38 -99 89h2c4 -36 36 -55 69 -55c41 0 78 30 78 71
c0 28 -22 45 -54 45c-13 0 -26 -2 -39 -7l-1 2l81 83c-54 1 -103 13 -146 36l60 166h2l49 -171c3 -12 4 -12 15 -15c12 -1 21 -2 28 -2c60 0 93 38 93 87c0 18 -6 34 -18 49c-13 14 -36 35 -71 64c-64 52 -93 90 -93 145c0 41 16 75 49 104s76 43 131 43c47 0 93 -8 139 -25
l-56 -162h-2l-51 160c-3 9 -8 13 -16 13h-10c-56 0 -89 -32 -89 -79c0 -19 8 -37 23 -55z" />
    <glyph glyph-name="Scaron" unicode="&#x160;" horiz-adv-x="528" 
d="M463 302c17 -27 26 -58 26 -95c0 -60 -26 -111 -78 -153c-52 -43 -116 -64 -192 -64c-90 0 -161 11 -214 33l57 216h2l63 -207c3 -11 10 -17 20 -20c15 -3 34 -5 55 -5c43 0 81 12 113 37c31 24 47 58 47 103c0 57 -31 99 -96 147l-59 44c-68 49 -102 108 -102 176
c0 57 22 105 67 143c44 37 100 56 167 56c69 0 137 -9 204 -27l-46 -210h-2l-72 199c-3 9 -9 15 -18 17c-17 3 -32 5 -47 5c-80 0 -141 -44 -141 -121c0 -51 36 -102 107 -153l59 -43c36 -25 63 -51 80 -78zM250 916l2 2l133 -71l168 71l1 -2l-187 -174h-2z" />
    <glyph glyph-name="scaron" unicode="&#x161;" horiz-adv-x="388" 
d="M320 220c15 -21 23 -44 23 -71c0 -39 -17 -74 -50 -107c-34 -33 -82 -50 -144 -50c-55 0 -106 12 -152 36l60 166h2l49 -171c2 -9 7 -14 16 -15c6 -1 15 -2 27 -2c60 0 93 38 93 87c0 18 -6 34 -18 49c-13 14 -36 35 -71 64c-64 52 -93 90 -93 145c0 41 16 75 49 104
s76 43 131 43c47 0 93 -8 139 -25l-56 -162h-2l-51 160c-3 9 -8 13 -16 13h-10c-56 0 -89 -32 -89 -79c0 -37 29 -71 92 -119c32 -24 56 -46 71 -66zM246 530l-115 174l2 2l133 -71l168 71l1 -2l-187 -174h-2z" />
    <glyph glyph-name="Tcommaaccent" unicode="&#x162;" horiz-adv-x="605" 
d="M628 456l-59 209c-5 17 -8 19 -24 19h-87l-125 -601c-3 -11 0 -19 7 -24l71 -57v-2h-319v2l94 57c9 5 14 13 17 24l126 601h-87c-17 0 -20 0 -32 -19l-145 -209h-2l51 247h567l-51 -247h-2zM142 -253v2c17 8 31 18 40 31c15 20 25 38 30 55c2 7 0 11 -6 12
c-25 4 -38 19 -38 45c0 37 31 67 67 67c32 0 54 -24 54 -57c0 -55 -44 -105 -101 -136c-17 -9 -32 -15 -46 -19z" />
    <glyph glyph-name="tcommaaccent" unicode="&#x163;" horiz-adv-x="297" 
d="M268 202h2c-8 -69 -31 -123 -68 -163c-30 -31 -61 -47 -94 -47c-44 0 -72 32 -72 73c0 18 4 46 13 83l75 316h-79v18h74c10 0 17 3 22 8l145 190h2l-46 -198h113v-18h-117l-70 -306c-9 -36 -13 -59 -13 -70c0 -19 8 -28 23 -28s28 8 41 25c23 30 39 69 49 117zM-4 -251
c17 8 31 18 40 31c15 20 25 38 30 55c2 7 0 11 -6 12c-25 4 -38 19 -38 45c0 37 31 67 67 67c32 0 54 -24 54 -57c0 -55 -44 -105 -101 -136c-17 -9 -32 -15 -46 -19v2z" />
    <glyph glyph-name="Tcaron" unicode="&#x164;" horiz-adv-x="605" 
d="M681 703l-51 -247h-2l-59 209c-5 17 -8 19 -24 19h-87l-125 -601c-3 -11 0 -19 7 -24l71 -57v-2h-319v2l94 57c9 5 14 13 17 24l126 601h-87c-17 0 -20 0 -32 -19l-145 -209h-2l51 247h567zM406 742l-115 174l2 2l133 -71l168 71l1 -2l-187 -174h-2z" />
    <glyph glyph-name="tcaron" unicode="&#x165;" horiz-adv-x="297" 
d="M36 65c0 18 4 46 13 83l75 316h-79v18h74c10 0 17 3 22 8l145 190h2l-46 -198h113v-18h-117l-70 -306c-9 -36 -13 -59 -13 -70c0 -19 8 -28 23 -28s28 8 41 25c23 30 39 69 49 117h2c-8 -69 -31 -123 -68 -163c-30 -31 -61 -47 -94 -47c-44 0 -72 32 -72 73zM370 703h106
l-149 -193h-1z" />
    <glyph glyph-name="Tbar" unicode="&#x166;" horiz-adv-x="605" 
d="M681 703l-51 -247h-2l-59 209c-5 17 -8 19 -24 19h-87l-68 -323h130v-18h-133l-54 -260c-3 -11 0 -19 7 -24l71 -57v-2h-319v2l94 57c9 5 14 13 17 24l54 260h-127v18h131l68 323h-87c-16 0 -19 -2 -32 -19l-145 -209h-2l51 247h567z" />
    <glyph glyph-name="tbar" unicode="&#x167;" horiz-adv-x="312" 
d="M362 482v-18h-117l-26 -114h108v-18h-112l-40 -173c-9 -36 -13 -60 -13 -71c0 -19 8 -28 23 -28s28 8 41 25c23 30 39 69 49 117h2c-8 -69 -31 -123 -68 -163c-30 -31 -61 -47 -94 -47c-44 0 -72 32 -72 73c0 18 4 46 13 83l43 184h-83v18h88l27 114h-79v18h74
c10 0 17 3 22 8l145 190h2l-46 -198h113z" />
    <glyph glyph-name="Utilde" unicode="&#x168;" horiz-adv-x="651" 
d="M608 594c-1 6 -6 13 -13 21l-73 86v2h241v-2l-110 -87c-15 -11 -24 -26 -27 -45l-67 -318c-18 -86 -48 -151 -90 -195s-105 -66 -190 -66c-129 0 -201 70 -201 179c0 19 2 38 6 58l82 394c1 11 -1 19 -7 24l-60 56v2h300v-2l-87 -56c-9 -5 -14 -13 -17 -24l-79 -384
c-6 -30 -9 -57 -9 -81c0 -90 42 -135 126 -135c105 0 174 76 206 229l67 319c3 10 3 18 2 25zM638 892c-6 -35 -18 -63 -36 -85c-19 -22 -41 -33 -66 -33c-16 0 -37 8 -64 24c-27 15 -48 23 -62 23c-29 0 -53 -16 -72 -48h-2c12 69 51 118 102 118c17 0 38 -8 65 -24
s47 -24 61 -24c30 0 54 16 72 49h2z" />
    <glyph glyph-name="utilde" unicode="&#x169;" horiz-adv-x="551" 
d="M469 31c-26 -26 -55 -39 -86 -39c-45 0 -72 27 -72 78c0 36 8 80 23 131h-2c-24 -64 -54 -115 -91 -152c-37 -38 -75 -57 -113 -57c-51 0 -84 34 -84 83c0 24 9 63 26 116l44 142c10 31 15 55 15 70c0 19 -7 28 -22 28s-31 -10 -46 -30c-18 -25 -33 -62 -44 -110l-2 1
c9 63 30 114 61 151s65 55 103 55c45 0 74 -28 74 -73c0 -23 -8 -59 -24 -108l-48 -151c-12 -37 -18 -64 -18 -79c0 -20 11 -30 32 -30c27 0 58 26 92 78c17 27 35 66 52 116s38 128 64 235l117 7l-88 -357c-5 -18 -7 -35 -7 -50c0 -18 8 -27 23 -27c17 0 33 11 47 32
c17 24 32 61 44 111h2c-11 -77 -35 -134 -72 -171zM406 562c-16 0 -37 8 -64 24c-27 15 -48 23 -62 23c-29 0 -53 -16 -72 -48h-2c12 69 51 118 102 118c17 0 38 -8 65 -24s47 -24 61 -24c30 0 54 16 72 49h2c-12 -69 -51 -118 -102 -118z" />
    <glyph glyph-name="Umacron" unicode="&#x16a;" horiz-adv-x="651" 
d="M763 703v-2l-110 -87c-15 -11 -24 -26 -27 -45l-67 -318c-18 -86 -48 -151 -90 -195s-105 -66 -190 -66c-129 0 -201 70 -201 179c0 19 2 38 6 58l82 394c1 11 -1 19 -7 24l-60 56v2h300v-2l-87 -56c-9 -5 -14 -13 -17 -24l-79 -384c-6 -30 -9 -57 -9 -81
c0 -90 42 -135 126 -135c105 0 174 76 206 229l67 319c5 20 4 30 -11 46l-73 86v2h241zM350 804v18h262v-18h-262z" />
    <glyph glyph-name="umacron" unicode="&#x16b;" horiz-adv-x="551" 
d="M425 86c0 -18 8 -27 23 -27c17 0 33 11 47 32c17 24 32 61 44 111h2c-11 -77 -35 -134 -72 -171c-26 -26 -55 -39 -86 -39c-45 0 -72 27 -72 78c0 36 8 80 23 131h-2c-24 -64 -54 -115 -91 -152c-37 -38 -75 -57 -113 -57c-51 0 -84 34 -84 83c0 24 9 63 26 116l44 142
c10 31 15 55 15 70c0 19 -7 28 -22 28s-31 -10 -46 -30c-18 -25 -33 -62 -44 -110l-2 1c9 63 30 114 61 151s65 55 103 55c45 0 74 -28 74 -73c0 -23 -8 -59 -24 -108l-48 -151c-12 -37 -18 -64 -18 -79c0 -20 11 -30 32 -30c27 0 58 26 92 78c17 27 35 66 52 116
s38 128 64 235l117 7l-88 -357c-5 -18 -7 -35 -7 -50zM481 610v-18h-262v18h262z" />
    <glyph glyph-name="Ubreve" unicode="&#x16c;" horiz-adv-x="651" 
d="M608 594c-1 6 -6 13 -13 21l-73 86v2h241v-2l-110 -87c-15 -11 -24 -26 -27 -45l-67 -318c-18 -86 -48 -151 -90 -195s-105 -66 -190 -66c-129 0 -201 70 -201 179c0 19 2 38 6 58l82 394c1 11 -1 19 -7 24l-60 56v2h300v-2l-87 -56c-9 -5 -14 -13 -17 -24l-79 -384
c-6 -30 -9 -57 -9 -81c0 -90 42 -135 126 -135c105 0 174 76 206 229l67 319c3 10 3 18 2 25zM617 918h2c-4 -111 -66 -165 -145 -165c-61 0 -110 33 -110 97c0 19 5 42 15 68h2c-5 -30 1 -54 20 -71c18 -17 44 -26 78 -26s64 9 89 26s41 40 49 71z" />
    <glyph glyph-name="ubreve" unicode="&#x16d;" horiz-adv-x="551" 
d="M469 31c-26 -26 -55 -39 -86 -39c-45 0 -72 27 -72 78c0 36 8 80 23 131h-2c-24 -64 -54 -115 -91 -152c-37 -38 -75 -57 -113 -57c-51 0 -84 34 -84 83c0 24 9 63 26 116l44 142c10 31 15 55 15 70c0 19 -7 28 -22 28s-31 -10 -46 -30c-18 -25 -33 -62 -44 -110l-2 1
c9 63 30 114 61 151s65 55 103 55c45 0 74 -28 74 -73c0 -23 -8 -59 -24 -108l-48 -151c-12 -37 -18 -64 -18 -79c0 -20 11 -30 32 -30c27 0 58 26 92 78c17 27 35 66 52 116s38 128 64 235l117 7l-88 -357c-5 -18 -7 -35 -7 -50c0 -18 8 -27 23 -27c17 0 33 11 47 32
c17 24 32 61 44 111h2c-11 -77 -35 -134 -72 -171zM445 582c-28 -27 -62 -41 -101 -41c-61 0 -110 33 -110 97c0 19 5 42 15 68h2c-5 -30 1 -54 20 -71c18 -17 44 -26 78 -26s64 9 89 26s41 40 49 71h2c-2 -55 -17 -97 -44 -124z" />
    <glyph glyph-name="Uring" unicode="&#x16e;" horiz-adv-x="651" 
d="M539 250l67 319c5 20 4 30 -11 46l-73 86v2h241v-2l-110 -87c-15 -11 -24 -26 -27 -45l-67 -318c-18 -86 -48 -151 -90 -195s-105 -66 -190 -66c-129 0 -201 70 -201 179c0 19 2 38 6 58l82 394c1 11 -1 19 -7 24l-60 56v2h300v-2l-87 -56c-9 -5 -14 -13 -17 -24
l-79 -384c-6 -30 -9 -57 -9 -81c0 -90 42 -135 126 -135c105 0 174 76 206 229zM575 852c0 -27 -10 -51 -29 -70s-43 -29 -70 -29c-43 0 -75 30 -75 73c0 27 10 51 29 70s43 29 71 29c43 0 74 -30 74 -73zM532 795c15 15 23 34 23 56c0 32 -23 55 -56 55
c-41 0 -78 -35 -78 -79c0 -32 23 -55 56 -55c21 0 40 8 55 23z" />
    <glyph glyph-name="uring" unicode="&#x16f;" horiz-adv-x="551" 
d="M334 201h-2c-24 -64 -54 -115 -91 -152c-37 -38 -75 -57 -113 -57c-51 0 -84 34 -84 83c0 24 9 63 26 116l44 142c10 31 15 55 15 70c0 19 -7 28 -22 28s-31 -10 -46 -30c-18 -25 -33 -62 -44 -110l-2 1c9 63 30 114 61 151s65 55 103 55c45 0 74 -28 74 -73
c0 -23 -8 -59 -24 -108l-48 -151c-12 -37 -18 -64 -18 -79c0 -20 11 -30 32 -30c27 0 58 26 92 78c17 27 35 66 52 116s38 128 64 235l117 7l-88 -357c-5 -18 -7 -35 -7 -50c0 -18 8 -27 23 -27c17 0 33 11 47 32c17 24 32 61 44 111h2c-11 -77 -35 -134 -72 -171
c-26 -26 -55 -39 -86 -39c-45 0 -72 27 -72 78c0 36 8 80 23 131zM416 570c-19 -19 -43 -29 -70 -29c-43 0 -75 30 -75 73c0 27 10 51 29 70s43 29 71 29c43 0 74 -30 74 -73c0 -27 -10 -51 -29 -70zM347 560c43 0 78 35 78 79c0 32 -23 55 -56 55c-41 0 -78 -35 -78 -79
c0 -32 23 -55 56 -55z" />
    <glyph glyph-name="Uhungarumlaut" unicode="&#x170;" horiz-adv-x="651" 
d="M606 569c3 10 3 18 2 25c-1 6 -6 13 -13 21l-73 86v2h241v-2l-110 -87c-15 -11 -24 -26 -27 -45l-67 -318c-18 -86 -48 -151 -90 -195s-105 -66 -190 -66c-129 0 -201 70 -201 179c0 19 2 38 6 58l82 394c1 11 -1 19 -7 24l-60 56v2h300v-2l-87 -56
c-9 -5 -14 -13 -17 -24l-79 -384c-6 -30 -9 -57 -9 -81c0 -90 42 -135 126 -135c105 0 174 76 206 229zM367 743l-1 1l95 171h115v-2zM518 743l-1 1l95 171h114v-2z" />
    <glyph glyph-name="uhungarumlaut" unicode="&#x171;" horiz-adv-x="551" 
d="M403 486l117 7l-88 -357c-5 -18 -7 -35 -7 -50c0 -18 8 -27 23 -27c17 0 33 11 47 32c17 24 32 61 44 111h2c-11 -77 -35 -134 -72 -171c-26 -26 -55 -39 -86 -39c-45 0 -72 27 -72 78c0 36 8 80 23 131h-2c-24 -64 -54 -115 -91 -152c-37 -38 -75 -57 -113 -57
c-51 0 -84 34 -84 83c0 24 9 63 26 116l44 142c10 31 15 55 15 70c0 19 -7 28 -22 28s-31 -10 -46 -30c-18 -25 -33 -62 -44 -110l-2 1c9 63 30 114 61 151s65 55 103 55c45 0 74 -28 74 -73c0 -23 -8 -59 -24 -108l-48 -151c-12 -37 -18 -64 -18 -79c0 -20 11 -30 32 -30
c27 0 58 26 92 78c17 27 35 66 52 116s38 128 64 235zM446 703v-2l-209 -170l-1 1l95 171h115zM387 532l95 171h114v-2l-208 -170z" />
    <glyph glyph-name="Uogonek" unicode="&#x172;" horiz-adv-x="651" 
d="M626 569l-67 -318c-17 -82 -45 -145 -84 -188c-39 -44 -96 -68 -172 -72c-53 -30 -79 -69 -79 -118c0 -35 24 -56 60 -56c31 0 59 13 84 40l1 -1c-35 -61 -81 -92 -136 -92c-47 0 -85 30 -85 79c0 68 61 119 138 147h-7c-129 0 -201 70 -201 179c0 19 2 38 6 58l82 394
c2 10 0 18 -7 24l-60 56v2h300v-2l-87 -56c-9 -5 -14 -13 -17 -24l-79 -384c-6 -30 -9 -57 -9 -81c0 -90 42 -135 126 -135c105 0 174 76 206 229l67 319c5 20 4 30 -11 46l-73 86v2h241v-2l-110 -87c-15 -11 -24 -26 -27 -45z" />
    <glyph glyph-name="uogonek" unicode="&#x173;" horiz-adv-x="551" 
d="M338 -168c11 -10 26 -15 44 -15c31 0 59 13 83 40l2 -1c-35 -61 -81 -92 -136 -92c-48 0 -85 30 -85 79c0 69 61 122 140 149h-3c-45 0 -72 27 -72 78c0 36 8 80 23 131h-2c-24 -64 -54 -115 -91 -152c-37 -38 -75 -57 -113 -57c-51 0 -84 34 -84 83c0 24 9 63 26 116
l44 142c10 31 15 55 15 70c0 19 -7 28 -22 28s-31 -10 -46 -30c-18 -25 -33 -62 -44 -110l-2 1c9 63 30 114 61 151s65 55 103 55c45 0 74 -28 74 -73c0 -23 -8 -59 -24 -108l-48 -151c-12 -37 -18 -64 -18 -79c0 -20 11 -30 32 -30c27 0 58 26 92 78c17 27 35 66 52 116
s38 128 64 235l117 7l-88 -357c-5 -18 -7 -35 -7 -50c0 -18 8 -27 23 -27c17 0 33 11 47 32c17 24 32 61 44 111h2c-11 -77 -35 -134 -72 -171c-19 -19 -40 -31 -64 -36c-49 -25 -84 -71 -84 -122c0 -17 6 -31 17 -41z" />
    <glyph glyph-name="Wcircumflex" unicode="&#x174;" horiz-adv-x="957" 
d="M924 604l-68 97v2h230v-2l-104 -93c-16 -15 -27 -28 -34 -41l-298 -567h-85l-48 443l-235 -443h-86l-72 608c-2 15 -6 28 -13 40l-32 53v2h257v-2l-73 -60c-7 -7 -10 -15 -9 -25l60 -515l199 375l-14 132c-1 10 -6 23 -13 39l-26 54v2h250v-2l-74 -60
c-7 -5 -10 -13 -9 -24l55 -513l245 464c7 13 6 25 -3 36zM435 748l-2 2l187 173h2l115 -173l-2 -2l-132 77z" />
    <glyph glyph-name="wcircumflex" unicode="&#x175;" horiz-adv-x="683" 
d="M477 403c-6 -33 -11 -59 -15 -78c-5 -19 -11 -46 -20 -82c-9 -37 -15 -59 -17 -67c-7 -31 -10 -52 -10 -63c0 -41 16 -62 48 -62c34 0 67 27 99 82c31 54 47 112 47 173c0 49 -10 89 -30 120c-3 5 -17 27 -18 28v2l130 42c-1 -69 -15 -143 -41 -220s-62 -144 -109 -201
s-97 -85 -148 -85c-49 0 -85 31 -85 96c0 21 4 47 12 76h-2c-37 -115 -93 -172 -169 -172c-67 0 -99 44 -99 104c0 26 7 64 22 115l33 116c10 34 15 59 15 74c0 19 -7 28 -22 28c-27 0 -58 -38 -92 -114h-2c38 122 93 183 165 183c49 0 73 -27 73 -80c0 -25 -9 -67 -27 -124
l-34 -109c-10 -33 -15 -59 -15 -79c0 -35 17 -55 42 -55c39 0 74 42 103 126c28 79 49 181 63 304l118 17c-4 -30 -9 -62 -15 -95zM471 711h2l115 -173l-2 -2l-132 77l-168 -77l-2 2z" />
    <glyph glyph-name="Ycircumflex" unicode="&#x176;" horiz-adv-x="601" 
d="M495 701v2h237v-2l-118 -93c-18 -14 -31 -27 -39 -38l-185 -255c-7 -9 -12 -22 -15 -37l-41 -197c-3 -13 -2 -15 7 -22l72 -57v-2h-320v2l95 57c9 5 14 13 16 22l38 183c3 11 3 20 0 28l-107 317c-5 13 -11 25 -19 37l-39 55v2h276v-2l-75 -59c-8 -6 -11 -13 -8 -21
l98 -306l190 264c7 9 7 18 2 27zM278 750l187 173h2l115 -173l-2 -2l-132 77l-168 -77z" />
    <glyph glyph-name="ycircumflex" unicode="&#x177;" horiz-adv-x="452" 
d="M373 325c0 53 -16 96 -48 129v2l135 42c-9 -92 -31 -183 -67 -273c-37 -90 -81 -170 -134 -239c-51 -67 -105 -120 -163 -161c-59 -41 -109 -61 -151 -61c-12 0 -21 2 -28 5l52 152h2l81 -87c6 -7 14 -8 23 -3c21 13 48 35 80 67c5 5 7 12 7 22v20c-1 85 -6 170 -17 256
s-24 148 -37 187c-8 24 -18 36 -31 36c-22 0 -46 -38 -71 -114h-2c11 56 29 102 53 139c23 36 52 54 85 54c45 0 69 -33 86 -96c12 -42 22 -98 29 -168s10 -140 8 -210h2c27 41 50 84 68 129c25 64 38 121 38 172zM133 536l-2 2l187 173h2l115 -173l-2 -2l-132 77z" />
    <glyph glyph-name="Ydieresis" unicode="&#x178;" horiz-adv-x="601" 
d="M495 701v2h237v-2l-118 -93c-18 -14 -31 -27 -39 -38l-185 -255c-7 -9 -12 -22 -15 -37l-41 -197c-3 -13 -2 -15 7 -22l72 -57v-2h-320v2l95 57c9 5 14 13 16 22l38 183c3 11 3 20 0 28l-107 317c-5 13 -11 25 -19 37l-39 55v2h276v-2l-75 -59c-8 -6 -11 -13 -8 -21
l98 -306l190 264c7 9 7 18 2 27zM297 830c0 18 7 33 20 46c13 12 28 18 47 18c32 0 55 -21 55 -53c0 -36 -30 -64 -67 -64c-32 0 -55 21 -55 53zM491 792c-11 9 -16 22 -16 38c0 36 30 64 67 64c32 0 55 -21 55 -53c0 -36 -30 -64 -67 -64c-15 0 -28 5 -39 15z" />
    <glyph glyph-name="Zacute" unicode="&#x179;" horiz-adv-x="580" 
d="M666 703v-2l-542 -682h221c16 0 27 4 33 13l167 214h2l-51 -246h-530v2l539 682h-202c-15 0 -27 -4 -34 -13l-164 -217h-2l51 249h512zM344 752l115 163h143v-2l-257 -162z" />
    <glyph glyph-name="zacute" unicode="&#x17a;" horiz-adv-x="388" 
d="M-5 -14h-2c0 11 1 20 2 27c5 29 21 58 48 87l240 248c-21 3 -47 11 -78 24c-36 15 -66 23 -89 23c-36 0 -62 -21 -85 -101h-2c24 138 71 207 140 207c20 0 53 -9 100 -28c37 -15 61 -22 72 -22c37 0 60 20 69 60h2c-3 -40 -22 -78 -58 -115l-246 -256c20 -2 49 -9 86 -22
s64 -20 83 -20s37 8 54 24c17 15 32 47 46 94h2c-10 -65 -30 -119 -61 -164c-27 -41 -60 -62 -98 -62c-19 0 -49 7 -90 22c-41 16 -68 24 -80 24c-29 0 -47 -17 -55 -50zM450 703v-2l-257 -162l-1 1l115 163h143z" />
    <glyph glyph-name="Zdotaccent" unicode="&#x17b;" horiz-adv-x="580" 
d="M666 703v-2l-542 -682h221c16 0 27 4 33 13l167 214h2l-51 -246h-530v2l539 682h-202c-15 0 -27 -4 -34 -13l-164 -217h-2l51 249h512zM361 826c0 40 33 71 76 71c36 0 61 -23 61 -59c0 -40 -32 -71 -75 -71c-35 0 -62 23 -62 59z" />
    <glyph glyph-name="zdotaccent" unicode="&#x17c;" horiz-adv-x="388" 
d="M412 511c-3 -40 -22 -78 -58 -115l-246 -256c20 -2 49 -9 86 -22s64 -20 83 -20s37 8 54 24c17 15 32 47 46 94h2c-10 -65 -30 -119 -61 -164c-27 -41 -60 -62 -98 -62c-19 0 -49 7 -90 22c-41 16 -68 24 -80 24c-29 0 -47 -17 -55 -50h-2c0 11 1 20 2 27
c5 29 21 58 48 87l240 248c-21 3 -47 11 -78 24c-36 15 -66 23 -89 23c-36 0 -62 -21 -85 -101h-2c24 138 71 207 140 207c20 0 53 -9 100 -28c37 -15 61 -22 72 -22c37 0 60 20 69 60h2zM209 614c0 20 7 37 22 51c15 13 33 20 54 20c36 0 61 -23 61 -59
c0 -40 -32 -71 -75 -71c-35 0 -62 23 -62 59z" />
    <glyph glyph-name="Zcaron" unicode="&#x17d;" horiz-adv-x="580" 
d="M666 703v-2l-542 -682h221c16 0 27 4 33 13l167 214h2l-51 -246h-530v2l539 682h-202c-15 0 -27 -4 -34 -13l-164 -217h-2l51 249h512zM412 742l-115 174l2 2l133 -71l168 71l1 -2l-187 -174h-2z" />
    <glyph glyph-name="zcaron" unicode="&#x17e;" horiz-adv-x="388" 
d="M410 511h2c-3 -40 -22 -78 -58 -115l-246 -256c20 -2 49 -9 86 -22s64 -20 83 -20s37 8 54 24c17 15 32 47 46 94h2c-10 -65 -30 -119 -61 -164c-27 -41 -60 -62 -98 -62c-19 0 -49 7 -90 22c-41 16 -68 24 -80 24c-29 0 -47 -17 -55 -50h-2c0 11 1 20 2 27
c5 29 21 58 48 87l240 248c-21 3 -47 11 -78 24c-36 15 -66 23 -89 23c-36 0 -62 -21 -85 -101h-2c24 138 71 207 140 207c20 0 53 -9 100 -28c37 -15 61 -22 72 -22c37 0 60 20 69 60zM260 530l-115 174l2 2l133 -71l168 71l1 -2l-187 -174h-2z" />
    <glyph glyph-name="florin" unicode="&#x192;" horiz-adv-x="418" 
d="M308 555c-5 -21 -10 -49 -17 -84c-1 -3 -1 -5 -1 -6l-31 -160h115v-19h-119l-23 -122c-21 -111 -50 -200 -94 -277s-107 -123 -182 -123c-34 0 -62 7 -83 22l62 158h2l43 -139c4 -12 9 -18 16 -18s15 4 23 12c14 14 26 36 36 63c7 21 10 33 17 60c7 28 9 37 16 71
c3 18 6 30 7 39c1 8 4 22 8 41c3 19 6 32 7 41l32 172h-98v19h102l21 110c18 94 45 167 82 220c37 52 90 78 159 78c43 0 82 -7 116 -21l-62 -149h-2l-46 138c-5 15 -7 16 -20 16c-29 0 -51 -23 -67 -73c-8 -25 -14 -48 -19 -69z" />
    <glyph glyph-name="uni01B5" unicode="&#x1b5;" horiz-adv-x="597" 
d="M666 703v-2l-275 -346h143v-18h-158l-252 -318h221c16 0 27 4 33 13l167 214h2l-51 -246h-530v2l265 335h-147v18h161l260 329h-202c-15 0 -27 -4 -34 -13l-164 -217h-2l51 249h512z" />
    <glyph glyph-name="uni01B6" unicode="&#x1b6;" horiz-adv-x="388" 
d="M412 511c-3 -40 -22 -78 -58 -115l-133 -138h114v-18h-131l-96 -100c20 -2 49 -9 86 -22s64 -20 83 -20s37 8 54 24c17 15 32 47 46 94h2c-10 -65 -30 -119 -61 -164c-27 -41 -60 -62 -98 -62c-19 0 -49 7 -90 22c-41 16 -68 24 -80 24c-29 0 -47 -17 -55 -50h-2
c0 11 1 20 2 27c5 29 21 58 48 87l135 140h-120v18h138l87 90c-21 3 -47 11 -78 24c-36 15 -66 23 -89 23c-36 0 -62 -21 -85 -101h-2c24 138 71 207 140 207c20 0 53 -9 100 -28c37 -15 61 -22 72 -22c37 0 60 20 69 60h2z" />
    <glyph glyph-name="Aringacute" unicode="&#x1fa;" horiz-adv-x="628" 
d="M401 88l-19 158h-228l-62 -115c-8 -16 -7 -17 5 -34l66 -95v-2h-230v2l108 95c14 12 25 25 32 39l252 465c11 21 9 23 0 36l-43 64v2h176l73 -608c1 -13 6 -27 14 -40l31 -53v-2h-257v2l74 60c7 5 10 14 8 26zM164 265h216l-38 328zM521 977l-152 -97
c-25 -16 -39 -28 -44 -35c19 17 41 26 67 26c48 0 88 -26 88 -67c0 -40 -39 -65 -87 -65c-47 0 -88 26 -88 65c0 11 4 24 12 38l72 137h132v-2zM393 757c19 0 35 4 48 13c27 16 27 54 0 71c-27 16 -69 16 -96 -1s-27 -53 1 -70c13 -9 29 -13 47 -13z" />
    <glyph glyph-name="aringacute" unicode="&#x1fb;" horiz-adv-x="522" 
d="M452 52c-29 -40 -63 -60 -102 -60c-43 0 -70 27 -70 79c0 22 6 60 19 113h-2c-44 -128 -100 -192 -167 -192c-61 0 -107 54 -107 153c0 57 12 113 35 168c23 54 54 98 94 133c39 35 81 52 124 52c44 0 74 -17 91 -51l125 51h2c-4 -15 -13 -50 -28 -106s-30 -112 -44 -167
l-22 -83c-5 -23 -8 -41 -8 -53c0 -21 8 -31 23 -31c18 0 35 14 52 42c15 25 28 59 40 102h2c-9 -60 -28 -110 -57 -150zM166 272c-13 -47 -20 -92 -20 -134c0 -53 14 -79 41 -79s54 27 81 82c27 58 59 158 94 299c-8 15 -24 23 -47 23c-36 0 -69 -24 -100 -71
c-20 -33 -36 -73 -49 -120zM344 656c48 0 87 -26 87 -66c0 -20 -8 -36 -25 -48s-38 -18 -62 -18c-45 0 -87 27 -87 66c0 10 4 22 11 37l73 137h132v-2l-152 -97c-24 -15 -39 -26 -45 -35c19 17 41 26 68 26zM392 626c-13 8 -29 12 -48 12c-37 0 -68 -19 -68 -48
s32 -48 68 -48c37 0 68 17 68 48c0 15 -7 27 -20 36z" />
    <glyph glyph-name="AEacute" unicode="&#x1fc;" horiz-adv-x="909" 
d="M648 680c-3 -3 -5 -8 -7 -17l-62 -298h99c9 0 20 6 31 17l96 96h2l-51 -244h-2l-56 97c-6 11 -14 16 -25 16h-97l-63 -307c-4 -19 -3 -21 12 -21h150c16 0 27 4 34 13l145 196h2l-47 -228h-522v2l88 54c9 5 15 13 16 22l35 167h-234l-89 -109c-19 -23 -20 -26 -9 -42
l58 -92v-2h-235v2l111 86c21 15 37 29 47 42l386 472c15 19 15 21 6 33l-51 66v2h529l-48 -228h-2l-64 192c-5 15 -9 17 -25 17h-144c-7 0 -11 -1 -14 -4zM506 629l-299 -365h223zM602 753l-1 1l115 163h143v-2z" />
    <glyph glyph-name="aeacute" unicode="&#x1fd;" horiz-adv-x="714" 
d="M574 498c80 0 134 -41 134 -101c0 -51 -30 -92 -89 -123c-60 -32 -127 -45 -200 -39c-1 -19 -2 -32 -2 -40c0 -81 34 -128 101 -128c72 0 131 50 160 150h2c-11 -78 -37 -135 -78 -171s-88 -54 -139 -54c-47 0 -87 16 -119 47c-33 31 -51 73 -54 128l-2 -6
c-36 -113 -89 -169 -158 -169c-61 0 -107 54 -107 153c0 89 26 170 77 243s110 110 177 110c58 0 95 -27 112 -80c55 53 116 80 185 80zM166 272c-13 -48 -20 -93 -20 -135c0 -52 14 -78 42 -78c36 0 75 55 102 132c1 83 31 156 90 219c-15 35 -37 53 -67 53
c-35 0 -67 -24 -98 -71c-20 -33 -36 -73 -49 -120zM601 420c0 41 -11 62 -34 62c-31 0 -60 -25 -89 -75s-48 -104 -57 -163c53 0 97 17 130 50s50 75 50 126zM620 703v-2l-257 -162l-1 1l115 163h143z" />
    <glyph glyph-name="Oslashacute" unicode="&#x1fe;" horiz-adv-x="685" 
d="M642 598c29 -47 43 -102 43 -166c0 -123 -36 -227 -108 -313c-73 -86 -161 -129 -265 -129c-33 0 -66 4 -97 13l-38 -85l-18 7l37 85c-101 40 -157 136 -157 261c0 123 36 227 108 313s160 129 265 129c33 0 63 -4 90 -12l35 78l17 -7l-34 -77c53 -19 93 -51 122 -97z
M505 660l-277 -627c18 -17 43 -26 75 -26c45 0 86 28 125 84c39 55 68 121 88 196s30 146 30 213c0 75 -14 129 -41 160zM178 203c0 -71 12 -122 35 -155l277 626c-19 15 -42 22 -69 22c-45 0 -86 -28 -125 -83c-39 -56 -68 -121 -88 -196s-30 -147 -30 -214zM389 751l-1 1
l115 163h143v-2z" />
    <glyph glyph-name="oslashacute" unicode="&#x1ff;" horiz-adv-x="489" 
d="M22 179c0 85 27 159 80 223s118 96 193 96c13 0 28 -2 45 -5l30 68l18 -6l-30 -67c73 -25 109 -84 109 -178c0 -85 -27 -160 -80 -223c-54 -64 -119 -96 -194 -96c-18 0 -35 2 -51 6l-34 -78l-19 7l34 77c-67 25 -101 84 -101 176zM337 439l-179 -406
c9 -18 22 -27 38 -27c25 0 50 21 73 63c23 41 42 91 55 148s19 112 19 163c0 21 -2 41 -6 59zM167 272c-13 -57 -20 -112 -20 -163c0 -21 1 -36 3 -45l177 400c-9 13 -20 19 -33 19c-25 0 -50 -21 -73 -62c-23 -42 -41 -92 -54 -149zM520 703v-2l-257 -162l-1 1l115 163h143
z" />
    <glyph glyph-name="Scommaaccent" unicode="&#x218;" horiz-adv-x="528" 
d="M405 692c-17 3 -32 5 -47 5c-80 0 -141 -44 -141 -121c0 -51 36 -102 107 -153l59 -43c72 -51 106 -100 106 -173c0 -60 -26 -111 -78 -153c-52 -43 -116 -64 -192 -64c-90 0 -161 11 -214 33l57 216h2l63 -207c3 -11 10 -17 20 -20c15 -3 34 -5 55 -5c43 0 81 12 113 37
c31 24 47 58 47 103c0 57 -31 99 -96 147l-59 44c-68 49 -102 108 -102 176c0 57 22 105 67 143c44 37 100 56 167 56c69 0 137 -9 204 -27l-46 -210h-2l-72 199c-3 9 -9 15 -18 17zM114 -251c17 8 31 18 40 31c15 20 25 38 30 55c2 7 0 11 -6 12c-25 4 -38 19 -38 45
c0 37 31 67 67 67c32 0 54 -24 54 -57c0 -55 -44 -105 -101 -136c-17 -9 -32 -15 -46 -19v2z" />
    <glyph glyph-name="scommaaccent" unicode="&#x219;" horiz-adv-x="388" 
d="M256 484h-10c-56 0 -89 -32 -89 -79c0 -37 29 -71 92 -119c64 -48 94 -84 94 -137c0 -39 -17 -74 -50 -107c-34 -33 -82 -50 -144 -50c-55 0 -106 12 -152 36l60 166h2l49 -171c2 -9 7 -14 16 -15c6 -1 15 -2 27 -2c60 0 93 38 93 87c0 18 -6 34 -18 49
c-13 14 -36 35 -71 64c-64 52 -93 90 -93 145c0 41 16 75 49 104s76 43 131 43c47 0 93 -8 139 -25l-56 -162h-2l-51 160c-3 9 -8 13 -16 13zM37 -253v2c17 8 31 18 40 31c15 20 25 38 30 55c2 7 0 11 -6 12c-25 4 -38 19 -38 45c0 37 31 67 67 67c32 0 54 -24 54 -57
c0 -55 -44 -105 -101 -136c-17 -9 -32 -15 -46 -19z" />
    <glyph glyph-name="uni021A" unicode="&#x21a;" horiz-adv-x="605" 
d="M628 456l-59 209c-5 17 -8 19 -24 19h-87l-125 -601c-3 -11 0 -19 7 -24l71 -57v-2h-319v2l94 57c9 5 14 13 17 24l126 601h-87c-17 0 -20 0 -32 -19l-145 -209h-2l51 247h567l-51 -247h-2zM142 -253v2c17 8 31 18 40 31c15 20 25 38 30 55c2 7 0 11 -6 12
c-25 4 -38 19 -38 45c0 37 31 67 67 67c32 0 54 -24 54 -57c0 -55 -44 -105 -101 -136c-17 -9 -32 -15 -46 -19z" />
    <glyph glyph-name="uni021B" unicode="&#x21b;" horiz-adv-x="297" 
d="M268 202h2c-8 -69 -31 -123 -68 -163c-30 -31 -61 -47 -94 -47c-44 0 -72 32 -72 73c0 18 4 46 13 83l75 316h-79v18h74c10 0 17 3 22 8l145 190h2l-46 -198h113v-18h-117l-70 -306c-9 -36 -13 -59 -13 -70c0 -19 8 -28 23 -28s28 8 41 25c23 30 39 69 49 117zM-4 -251
c17 8 31 18 40 31c15 20 25 38 30 55c2 7 0 11 -6 12c-25 4 -38 19 -38 45c0 37 31 67 67 67c32 0 54 -24 54 -57c0 -55 -44 -105 -101 -136c-17 -9 -32 -15 -46 -19v2z" />
    <glyph glyph-name="dotlessj" unicode="&#x237;" horiz-adv-x="263" 
d="M-123 -236c-31 0 -57 7 -80 22l64 158h2l43 -143c3 -9 8 -14 15 -14c42 0 85 105 130 316l67 325c3 11 -1 19 -11 23l-74 29v2l221 16l-87 -370c-55 -243 -152 -364 -290 -364z" />
    <glyph glyph-name="circumflex" unicode="&#x2c6;" horiz-adv-x="404" 
d="M52 536l-2 2l187 173h2l115 -173l-2 -2l-132 77z" />
    <glyph glyph-name="caron" unicode="&#x2c7;" horiz-adv-x="404" 
d="M164 530l-115 174l2 2l133 -71l168 71l1 -2l-187 -174h-2z" />
    <glyph glyph-name="uni02C9" unicode="&#x2c9;" horiz-adv-x="365" 
d="M372 592h-262v18h262v-18z" />
    <glyph glyph-name="breve" unicode="&#x2d8;" horiz-adv-x="355" 
d="M82 566c-21 16 -32 40 -32 72c0 19 5 42 15 68h2c-5 -30 1 -54 20 -71c18 -17 44 -26 78 -26s64 9 89 26s41 40 49 71h2c-4 -111 -66 -165 -145 -165c-31 0 -57 8 -78 25z" />
    <glyph glyph-name="dotaccent" unicode="&#x2d9;" horiz-adv-x="237" 
d="M50 614c0 40 33 71 76 71c36 0 61 -23 61 -59c0 -40 -32 -71 -75 -71c-35 0 -62 23 -62 59z" />
    <glyph glyph-name="ring" unicode="&#x2da;" horiz-adv-x="276" 
d="M126 541c-21 0 -39 7 -53 21c-15 13 -22 31 -22 52c0 27 10 51 29 70s43 29 71 29c43 0 74 -30 74 -73c0 -27 -10 -51 -29 -70s-43 -29 -70 -29zM95 671c-16 -15 -24 -34 -24 -56c0 -32 23 -55 56 -55c43 0 78 35 78 79c0 32 -23 55 -56 55c-21 0 -39 -8 -54 -23z" />
    <glyph glyph-name="ogonek" unicode="&#x2db;" horiz-adv-x="321" 
d="M50 -157c0 39 17 73 52 100c34 27 73 47 118 58l2 -1c-55 -24 -96 -72 -96 -127c0 -35 24 -56 60 -56c31 0 59 13 84 40l1 -1c-35 -61 -81 -92 -136 -92c-48 0 -85 30 -85 79z" />
    <glyph glyph-name="tilde" unicode="&#x2dc;" horiz-adv-x="402" 
d="M52 561h-2c12 69 51 118 102 118c17 0 38 -8 65 -24s47 -24 61 -24c30 0 54 16 72 49h2c-12 -69 -51 -118 -102 -118c-16 0 -37 8 -64 24c-27 15 -48 23 -62 23c-29 0 -53 -16 -72 -48z" />
    <glyph glyph-name="hungarumlaut" unicode="&#x2dd;" horiz-adv-x="461" 
d="M50 532l95 171h115v-2l-209 -170zM202 531l-1 1l95 171h114v-2z" />
    <glyph glyph-name="uni0394" unicode="&#x394;" horiz-adv-x="551" 
d="M499 0h-542v2l324 599c11 21 10 21 1 36l-44 64v2h177zM-11 19h377l-68 574z" />
    <glyph glyph-name="uni03A9" unicode="&#x3a9;" horiz-adv-x="735" 
d="M689 217h2l-53 -217h-288l20 97c40 7 77 35 110 84c33 48 57 103 74 164c16 61 24 118 24 173c0 119 -41 179 -124 179c-41 0 -80 -21 -117 -64s-66 -97 -87 -162s-32 -131 -32 -197c0 -101 29 -159 88 -175l-20 -99h-287l36 217h2l72 -183c4 -10 15 -15 33 -15h129
l14 67c-66 11 -117 40 -154 86s-55 101 -55 165c0 103 36 192 109 266c73 73 161 110 266 110c81 0 146 -25 195 -74c49 -50 73 -113 73 -188c0 -97 -31 -180 -92 -249s-142 -108 -241 -119l-13 -64h129c18 0 31 5 40 15z" />
    <glyph glyph-name="uni03BC" unicode="&#x3bc;" horiz-adv-x="570" 
d="M359 303c21 73 36 134 47 183l117 7l-88 -357c-5 -21 -7 -37 -7 -49c0 -19 8 -28 23 -28c35 0 70 55 91 143h2c-9 -67 -31 -121 -65 -162c-28 -32 -59 -48 -94 -48c-44 0 -72 27 -72 79c0 31 8 74 24 130h-2c-44 -117 -112 -189 -180 -201c-7 -1 -12 -2 -15 -2l-39 -157
c-4 -15 -3 -17 9 -22l108 -45v-2h-305v2l52 36c10 7 16 17 19 28l133 495c9 33 14 56 14 70c0 19 -7 28 -22 28c-16 0 -31 -10 -45 -30c-18 -25 -33 -62 -44 -109h-2c9 63 29 113 60 150s65 56 104 56c45 0 73 -28 73 -73c0 -21 -8 -57 -23 -108l-45 -151
c-12 -41 -18 -68 -18 -79c0 -20 10 -30 29 -30c29 0 62 28 97 85c21 32 42 86 64 161z" />
    <glyph glyph-name="pi" unicode="&#x3c0;" horiz-adv-x="606" 
d="M634 490v-2l-70 -50c-8 -5 -13 -13 -15 -23l-71 -348c-2 -10 0 -17 5 -22l50 -43v-2h-266v2l69 43c9 5 14 13 15 22l83 405h-171l-83 -405c-2 -10 0 -17 6 -22l51 -43v-2h-265v2l67 43c8 5 13 13 15 22l72 348c2 10 0 18 -5 23l-50 50v2h563z" />
    <glyph glyph-name="Wgrave" unicode="&#x1e80;" horiz-adv-x="957" 
d="M924 604l-68 97v2h230v-2l-104 -93c-16 -15 -27 -28 -34 -41l-298 -567h-85l-48 443l-235 -443h-86l-72 608c-2 15 -6 28 -13 40l-32 53v2h257v-2l-73 -60c-7 -7 -10 -15 -9 -25l60 -515l199 375l-14 132c-1 10 -6 23 -13 39l-26 54v2h250v-2l-74 -60
c-7 -5 -10 -13 -9 -24l55 -513l245 464c7 13 6 25 -3 36zM685 751l-255 162v2h142l114 -163z" />
    <glyph glyph-name="wgrave" unicode="&#x1e81;" horiz-adv-x="683" 
d="M477 403c-6 -33 -11 -59 -15 -78c-5 -19 -11 -46 -20 -82c-9 -37 -15 -59 -17 -67c-7 -31 -10 -52 -10 -63c0 -41 16 -62 48 -62c34 0 67 27 99 82c31 54 47 112 47 173c0 49 -10 89 -30 120c-3 5 -17 27 -18 28v2l130 42c-1 -69 -15 -143 -41 -220s-62 -144 -109 -201
s-97 -85 -148 -85c-49 0 -85 31 -85 96c0 21 4 47 12 76h-2c-37 -115 -93 -172 -169 -172c-67 0 -99 44 -99 104c0 26 7 64 22 115l33 116c10 34 15 59 15 74c0 19 -7 28 -22 28c-27 0 -58 -38 -92 -114h-2c38 122 93 183 165 183c49 0 73 -27 73 -80c0 -25 -9 -67 -27 -124
l-34 -109c-10 -33 -15 -59 -15 -79c0 -35 17 -55 42 -55c39 0 74 42 103 126c28 79 49 181 63 304l118 17c-4 -30 -9 -62 -15 -95zM537 540l-1 -1l-255 162v2h142z" />
    <glyph glyph-name="Wacute" unicode="&#x1e82;" horiz-adv-x="957" 
d="M856 703h230v-2l-104 -93c-16 -15 -27 -28 -34 -41l-298 -567h-85l-48 443l-235 -443h-86l-72 608c-2 15 -6 28 -13 40l-32 53v2h257v-2l-73 -60c-7 -7 -10 -15 -9 -25l60 -515l199 375l-14 132c-1 10 -6 23 -13 39l-26 54v2h250v-2l-74 -60c-7 -5 -10 -13 -9 -24
l55 -513l245 464c7 13 6 25 -3 36l-68 97v2zM519 751l-1 1l115 163h143v-2z" />
    <glyph glyph-name="wacute" unicode="&#x1e83;" horiz-adv-x="683" 
d="M463 51c34 0 67 27 99 82c31 54 47 112 47 173c0 49 -10 89 -30 120c-3 5 -17 27 -18 28v2l130 42c-1 -69 -15 -143 -41 -220s-62 -144 -109 -201s-97 -85 -148 -85c-49 0 -85 31 -85 96c0 21 4 47 12 76h-2c-37 -115 -93 -172 -169 -172c-67 0 -99 44 -99 104
c0 26 7 64 22 115l33 116c10 34 15 59 15 74c0 19 -7 28 -22 28c-27 0 -58 -38 -92 -114h-2c38 122 93 183 165 183c49 0 73 -27 73 -80c0 -25 -9 -67 -27 -124l-34 -109c-10 -33 -15 -59 -15 -79c0 -35 17 -55 42 -55c39 0 74 42 103 126c28 79 49 181 63 304l118 17
c-4 -30 -9 -62 -15 -95s-11 -59 -15 -78c-5 -19 -11 -46 -20 -82c-9 -37 -15 -59 -17 -67c-7 -31 -10 -52 -10 -63c0 -41 16 -62 48 -62zM484 703h143v-2l-257 -162l-1 1z" />
    <glyph glyph-name="Wdieresis" unicode="&#x1e84;" horiz-adv-x="957" 
d="M948 567l-298 -567h-85l-48 443l-235 -443h-86l-72 608c-2 15 -6 28 -13 40l-32 53v2h257v-2l-73 -60c-7 -7 -10 -15 -9 -25l60 -515l199 375l-14 132c-1 10 -6 23 -13 39l-26 54v2h250v-2l-74 -60c-7 -5 -10 -13 -9 -24l55 -513l245 464c7 13 6 25 -3 36l-68 97v2h230
v-2l-104 -93c-16 -15 -27 -28 -34 -41zM468 792c-11 9 -16 22 -16 38c0 36 30 64 67 64c32 0 55 -21 55 -53c0 -36 -30 -64 -67 -64c-16 0 -29 5 -39 15zM685 777c-15 0 -28 5 -39 15c-11 9 -16 22 -16 38c0 36 30 64 67 64c32 0 55 -21 55 -53c0 -36 -30 -64 -67 -64z" />
    <glyph glyph-name="wdieresis" unicode="&#x1e85;" horiz-adv-x="683" 
d="M425 176c-7 -31 -10 -52 -10 -63c0 -41 16 -62 48 -62c34 0 67 27 99 82c31 54 47 112 47 173c0 49 -10 89 -30 120c-3 5 -17 27 -18 28v2l130 42c-1 -69 -15 -143 -41 -220s-62 -144 -109 -201s-97 -85 -148 -85c-49 0 -85 31 -85 96c0 21 4 47 12 76h-2
c-37 -115 -93 -172 -169 -172c-67 0 -99 44 -99 104c0 26 7 64 22 115l33 116c10 34 15 59 15 74c0 19 -7 28 -22 28c-27 0 -58 -38 -92 -114h-2c38 122 93 183 165 183c49 0 73 -27 73 -80c0 -25 -9 -67 -27 -124l-34 -109c-10 -33 -15 -59 -15 -79c0 -35 17 -55 42 -55
c39 0 74 42 103 126c28 79 49 181 63 304l118 17c-4 -30 -9 -62 -15 -95s-11 -59 -15 -78c-5 -19 -11 -46 -20 -82c-9 -37 -15 -59 -17 -67zM319 580c-11 9 -16 22 -16 38c0 18 7 33 20 46c13 12 28 18 47 18c32 0 55 -21 55 -53c0 -36 -30 -64 -67 -64c-16 0 -29 5 -39 15z
M497 580c-11 9 -16 22 -16 38c0 18 7 33 20 46c13 12 28 18 47 18c32 0 55 -21 55 -53c0 -36 -30 -64 -67 -64c-15 0 -28 5 -39 15z" />
    <glyph glyph-name="uni1E8A" unicode="&#x1e8a;" horiz-adv-x="656" 
d="M548 614l-68 87v2h262v-2l-131 -81c-25 -16 -43 -30 -54 -42l-153 -168l137 -319c5 -10 13 -21 24 -34l49 -55v-2h-280v2l64 50c13 11 13 14 8 26l-96 222l-166 -183c-13 -15 -15 -19 -8 -28l68 -87v-2h-262v2l132 81c23 14 40 28 53 42l176 193l-126 294
c-7 14 -14 25 -23 34l-49 55v2h279v-2l-64 -50c-9 -7 -12 -15 -7 -26l84 -197l143 158c13 15 15 19 8 28zM498 788c-15 -14 -33 -21 -54 -21c-35 0 -62 23 -62 59c0 40 33 71 76 71c36 0 61 -23 61 -59c0 -20 -7 -37 -21 -50z" />
    <glyph glyph-name="uni1E8B" unicode="&#x1e8b;" horiz-adv-x="487" 
d="M314 369c24 47 46 80 66 100c20 19 43 29 69 29c25 0 45 -8 60 -23l-67 -171h-2l-28 101c-3 11 -9 16 -18 16c-6 0 -12 -2 -19 -7c-24 -16 -52 -53 -84 -111l34 -179c7 -41 21 -61 40 -61c33 0 66 49 89 130h2c-9 -60 -30 -108 -61 -145s-64 -56 -99 -56
c-44 0 -69 26 -82 91l-18 89c-10 -22 -18 -39 -25 -52c-49 -93 -83 -128 -134 -128c-25 0 -45 8 -60 23l67 172h2l28 -101c3 -11 10 -17 19 -17c6 0 13 3 20 8c25 18 52 55 81 110l-35 181c-7 40 -21 60 -40 60c-33 0 -69 -47 -90 -126h-2c9 59 29 106 61 142s65 54 99 54
c45 0 70 -25 83 -89l18 -93c3 5 7 14 14 28c6 13 10 22 12 25zM380 576c-15 -14 -33 -21 -54 -21c-35 0 -62 23 -62 59c0 40 33 71 76 71c36 0 61 -23 61 -59c0 -20 -7 -37 -21 -50z" />
    <glyph glyph-name="Ygrave" unicode="&#x1ef2;" horiz-adv-x="601" 
d="M558 579c7 9 7 18 2 27l-65 95v2h237v-2l-118 -93c-18 -14 -31 -27 -39 -38l-185 -255c-7 -9 -12 -22 -15 -37l-41 -197c-3 -13 -2 -15 7 -22l72 -57v-2h-320v2l95 57c9 5 14 13 16 22l38 183c3 11 3 20 0 28l-107 317c-5 13 -11 25 -19 37l-39 55v2h276v-2l-75 -59
c-8 -6 -11 -13 -8 -21l98 -306zM530 751l-255 162v2h142l114 -163z" />
    <glyph glyph-name="ygrave" unicode="&#x1ef3;" horiz-adv-x="452" 
d="M335 153c25 64 38 121 38 172c0 53 -16 96 -48 129v2l135 42c-9 -92 -31 -183 -67 -273c-37 -90 -81 -170 -134 -239c-51 -67 -105 -120 -163 -161c-59 -41 -109 -61 -151 -61c-12 0 -21 2 -28 5l52 152h2l81 -87c6 -7 14 -8 23 -3c21 13 48 35 80 67c5 5 7 12 7 22v20
c-1 85 -6 170 -17 256s-24 148 -37 187c-8 24 -18 36 -31 36c-22 0 -46 -38 -71 -114h-2c11 56 29 102 53 139c23 36 52 54 85 54c45 0 69 -33 86 -96c12 -42 22 -98 29 -168s10 -140 8 -210h2c27 41 50 84 68 129zM128 701v2h142l114 -163l-1 -1z" />
    <glyph glyph-name="endash" unicode="&#x2013;" horiz-adv-x="500" 
d="M495 235h-490v18h490v-18z" />
    <glyph glyph-name="emdash" unicode="&#x2014;" horiz-adv-x="1000" 
d="M995 235h-990v18h990v-18z" />
    <glyph glyph-name="quoteleft" unicode="&#x2018;" horiz-adv-x="204" 
d="M96 549c0 29 10 56 31 82c20 25 45 46 74 63c19 11 37 19 54 24v-2c-19 -10 -34 -22 -46 -36c-15 -16 -26 -36 -33 -61c-3 -7 0 -12 8 -14c23 -5 40 -29 40 -54c0 -39 -30 -67 -66 -67s-62 26 -62 65z" />
    <glyph glyph-name="quoteright" unicode="&#x2019;" horiz-adv-x="204" 
d="M85 481c18 9 34 22 47 38c14 16 24 36 31 59c3 8 0 13 -8 15c-23 4 -40 27 -40 54c0 39 30 66 66 66s62 -25 62 -64c0 -53 -32 -100 -96 -140c-22 -14 -43 -24 -62 -30v2z" />
    <glyph glyph-name="quotesinglbase" unicode="&#x201a;" horiz-adv-x="204" 
d="M-29 -96c18 9 34 22 47 37c15 17 25 37 31 60c2 8 -1 13 -8 14c-23 5 -40 28 -40 55c0 37 30 66 66 66s62 -25 62 -64c0 -57 -44 -109 -101 -144c-20 -13 -39 -21 -57 -26v2z" />
    <glyph glyph-name="quotedblleft" unicode="&#x201c;" horiz-adv-x="376" 
d="M427 716v-2c-19 -10 -35 -23 -49 -39c-15 -18 -25 -37 -30 -58c-2 -8 1 -13 8 -15c23 -5 40 -27 40 -54c0 -37 -30 -66 -66 -66s-62 25 -62 64c0 52 33 99 100 142c20 13 40 22 59 28zM114 500c-12 11 -18 27 -18 46c0 51 32 97 97 140c22 14 43 24 62 30v-2
c-20 -10 -37 -24 -50 -41c-12 -16 -21 -35 -28 -56c-3 -8 0 -13 8 -15c23 -5 39 -27 39 -54c4 -58 -75 -88 -110 -48z" />
    <glyph glyph-name="quotedblright" unicode="&#x201d;" horiz-adv-x="376" 
d="M85 479v2c18 9 34 22 47 38c15 19 25 39 31 59c3 8 0 13 -8 15c-23 4 -40 27 -40 54c0 39 30 66 66 66s62 -25 62 -64c0 -53 -32 -100 -97 -141c-19 -13 -40 -22 -61 -29zM398 696c11 -12 17 -28 17 -47c0 -53 -33 -101 -100 -142c-21 -13 -41 -22 -59 -28v2
c21 11 37 24 48 38c16 19 26 39 31 59c2 8 -1 13 -8 15c-23 5 -40 27 -40 54c0 39 29 66 66 66c18 0 33 -6 45 -17z" />
    <glyph glyph-name="quotedblbase" unicode="&#x201e;" horiz-adv-x="376" 
d="M35 -67c-23 -15 -44 -25 -64 -31v2c17 9 34 23 50 44c15 19 25 36 28 53c2 8 -1 13 -8 14c-23 5 -40 28 -40 55c0 37 30 66 66 66s62 -25 62 -64c0 -52 -31 -98 -94 -139zM284 119c11 -12 17 -28 17 -47c0 -50 -31 -96 -93 -138c-23 -15 -45 -26 -66 -32v2
c19 9 36 23 50 41c16 19 26 38 29 56c2 7 -1 12 -8 14c-23 5 -40 28 -40 55c-4 58 76 87 111 49z" />
    <glyph glyph-name="dagger" unicode="&#x2020;" horiz-adv-x="429" 
d="M111 532h153l35 174l18 -3l-35 -171h150v-18h-153l-77 -384l-18 3l76 381h-149v18z" />
    <glyph glyph-name="daggerdbl" unicode="&#x2021;" horiz-adv-x="429" 
d="M432 532v-18h-153l-39 -195h149v-18h-153l-34 -171l-18 3l33 168h-149v18h153l39 195h-149v18h153l35 174l18 -3l-35 -171h150z" />
    <glyph glyph-name="bullet" unicode="&#x2022;" horiz-adv-x="346" 
d="M93 351c0 29 11 53 32 73c21 19 45 29 74 29c55 0 97 -41 97 -94c0 -59 -46 -101 -105 -101c-56 0 -98 38 -98 93z" />
    <glyph glyph-name="ellipsis" unicode="&#x2026;" horiz-adv-x="667" 
d="M242 8c-12 11 -18 25 -18 42c0 45 36 81 80 81c36 0 63 -24 63 -59c0 -45 -36 -81 -81 -81c-17 0 -32 6 -44 17zM28 8c-12 11 -18 25 -18 42c0 23 8 42 23 58c15 15 34 23 56 23c36 0 63 -24 63 -59c0 -47 -35 -81 -80 -81c-17 0 -32 6 -44 17zM564 115
c11 -11 17 -26 17 -43c0 -47 -35 -81 -80 -81c-35 0 -62 26 -62 59c0 45 36 81 80 81c18 0 33 -5 45 -16z" />
    <glyph glyph-name="perthousand" unicode="&#x2030;" horiz-adv-x="934" 
d="M553 257c19 -21 29 -47 29 -78c0 -54 -15 -99 -46 -134c-31 -36 -71 -54 -122 -54c-65 0 -106 46 -106 110c0 53 15 98 46 134c31 35 71 53 121 53c32 0 58 -10 78 -31zM122 526c0 53 15 98 46 134c31 35 71 53 121 53c64 0 107 -46 107 -109c0 -54 -15 -99 -46 -134
c-31 -36 -71 -54 -122 -54c-65 0 -106 46 -106 110zM648 22c-19 21 -29 47 -29 79c0 53 15 98 46 134c31 35 71 53 121 53c64 0 107 -46 107 -109c0 -54 -15 -99 -46 -134c-31 -36 -71 -54 -122 -54c-33 0 -58 10 -77 31zM197 483c0 -35 11 -53 34 -53c18 0 34 14 49 43
c14 29 24 59 31 92c6 32 9 59 9 82c0 35 -11 52 -34 52c-25 0 -46 -25 -63 -76s-26 -98 -26 -140zM720 198c-17 -51 -26 -98 -26 -140c0 -35 11 -53 34 -53c18 0 34 14 49 43c14 29 24 59 31 92c6 32 9 59 9 82c0 35 -11 52 -34 52c-25 0 -46 -25 -63 -76zM409 198
c-17 -51 -26 -98 -26 -140c0 -35 11 -53 34 -53c18 0 34 14 49 43c14 29 24 59 31 92c6 32 9 59 9 82c0 35 -11 52 -34 52c-25 0 -46 -25 -63 -76zM669 714l14 -13l-649 -711l-13 14z" />
    <glyph glyph-name="guilsinglleft" unicode="&#x2039;" horiz-adv-x="271" 
d="M31 252l256 213l2 -2l-142 -219l53 -206l-2 -1l-167 213v2z" />
    <glyph glyph-name="guilsinglright" unicode="&#x203a;" horiz-adv-x="271" 
d="M-12 37l-2 2l142 218l-53 207l2 1l167 -213v-2z" />
    <glyph glyph-name="fraction" unicode="&#x2044;" horiz-adv-x="48" 
d="M-284 -10l-13 14l648 710l14 -13z" />
    <glyph glyph-name="Euro" unicode="&#x20ac;" horiz-adv-x="653" 
d="M598 242l-46 -230c-65 -15 -128 -22 -190 -22c-83 0 -148 26 -193 77c-46 51 -69 117 -69 198v20h-91v20h92c3 33 9 65 16 94h-85v20h91c27 87 73 158 139 213c66 54 143 81 231 81c73 0 139 -8 198 -23l-49 -229h-2l-79 214c-5 16 -10 17 -23 20c-9 1 -19 2 -30 2
c-55 0 -103 -26 -144 -78c-42 -52 -74 -119 -96 -200h207v-20h-212c-9 -33 -14 -64 -17 -94h206v-20h-208c-2 -24 -3 -47 -3 -70c0 -61 11 -111 33 -150c21 -39 54 -59 99 -59c12 0 21 0 28 1c13 1 23 7 30 16l165 219h2z" />
    <glyph glyph-name="trademark" unicode="&#x2122;" horiz-adv-x="907" 
d="M527 404l46 -39v-2h-127v2l46 40c5 5 8 12 8 23v229c0 6 -2 11 -5 14l-39 30v2h121l93 -217l87 217h119v-2l-38 -27c-4 -3 -6 -7 -6 -12v-261c0 -4 2 -8 6 -11l38 -25v-2h-168v2l38 25c4 3 6 6 6 11v215c0 13 0 22 1 29l-113 -286h-1l-110 255c-1 1 -4 10 -11 27v-213
c0 -10 3 -18 9 -24zM120 583l6 120h288l6 -120h-2l-54 94c-4 6 -9 9 -15 9h-38v-282c0 -5 2 -9 5 -12l36 -27v-2h-166v2l39 27c3 3 5 7 5 12v282h-40c-7 0 -11 -3 -14 -9l-54 -94h-2z" />
    <glyph glyph-name="Omega" unicode="&#x2126;" horiz-adv-x="735" 
d="M689 217h2l-53 -217h-288l20 97c40 7 77 35 110 84c33 48 57 103 74 164c16 61 24 118 24 173c0 119 -41 179 -124 179c-41 0 -80 -21 -117 -64s-66 -97 -87 -162s-32 -131 -32 -197c0 -101 29 -159 88 -175l-20 -99h-287l36 217h2l72 -183c4 -10 15 -15 33 -15h129
l14 67c-66 11 -117 40 -154 86s-55 101 -55 165c0 103 36 192 109 266c73 73 161 110 266 110c81 0 146 -25 195 -74c49 -50 73 -113 73 -188c0 -97 -31 -180 -92 -249s-142 -108 -241 -119l-13 -64h129c18 0 31 5 40 15z" />
    <glyph glyph-name="estimated" unicode="&#x212e;" horiz-adv-x="664" 
d="M609 244v-9h-508c2 -67 26 -122 73 -163c46 -42 103 -63 170 -63c54 0 102 14 144 43s71 67 87 116l21 -7c-17 -53 -49 -94 -94 -125c-46 -31 -99 -46 -158 -46c-75 0 -137 23 -188 70s-76 108 -76 184c0 77 25 138 76 185c50 46 113 69 188 69s138 -23 189 -69
c51 -47 76 -108 76 -185zM175 418c-47 -42 -71 -97 -74 -164h487c-3 67 -27 122 -74 164c-47 41 -103 62 -170 62s-123 -21 -169 -62z" />
    <glyph glyph-name="uni2153" unicode="&#x2153;" horiz-adv-x="485" 
d="M328 178c-17 -12 -40 -19 -70 -22v-2c47 -4 76 -29 76 -62s-16 -57 -47 -72c-32 -16 -71 -24 -116 -24c-38 0 -73 6 -106 18l69 96h2l9 -88c1 -5 4 -9 9 -10s10 -1 15 -1c48 0 87 35 87 86c0 34 -23 52 -70 55v2c52 5 90 34 90 83c0 27 -14 41 -41 41c-7 0 -12 0 -15 -1
c-5 -1 -9 -3 -12 -8l-58 -89h-2l-21 91c39 15 77 22 113 22c69 0 112 -27 112 -67c0 -20 -8 -36 -24 -48zM273 650c1 5 -1 8 -5 9l-66 21v2l160 34l-54 -255c-1 -3 1 -5 5 -8l59 -31v-2h-219v2l71 31c5 2 8 5 9 8zM448 361v-18h-365v18h365z" />
    <glyph glyph-name="uni2154" unicode="&#x2154;" horiz-adv-x="485" 
d="M275 512c61 49 100 92 100 144c0 28 -15 42 -45 42c-5 0 -10 0 -13 -1c-5 -1 -9 -3 -11 -7l-58 -92h-2l-20 93c42 15 81 22 118 22c73 0 109 -24 109 -73c0 -57 -66 -109 -199 -158v-2h105c14 0 24 3 31 8l43 34h2l-35 -102h-239v2c21 16 59 46 114 90zM256 293
c35 0 62 -6 82 -18c20 -13 30 -29 30 -49s-8 -36 -24 -48c-17 -12 -40 -19 -70 -22v-2c47 -4 76 -29 76 -62s-16 -57 -47 -72c-32 -16 -71 -24 -116 -24c-38 0 -73 6 -106 18l69 96h2l9 -88c1 -5 4 -9 9 -10s10 -1 15 -1c48 0 87 35 87 86c0 34 -23 52 -70 55v2
c52 5 90 34 90 83c0 27 -14 41 -41 41c-7 0 -12 0 -15 -1c-5 -1 -9 -3 -12 -8l-58 -89h-2l-21 91c39 15 77 22 113 22zM464 361v-18h-365v18h365z" />
    <glyph glyph-name="uni2155" unicode="&#x2155;" horiz-adv-x="485" 
d="M341 98c0 -32 -15 -57 -44 -75c-29 -19 -67 -28 -113 -28c-43 0 -79 6 -109 19l69 94h2l10 -88c1 -6 4 -9 11 -10c5 -1 11 -1 18 -1c44 0 77 38 77 83c0 41 -23 62 -70 62c-19 0 -39 -7 -62 -20l-2 1l39 152c1 0 14 0 38 -1s43 -2 58 -2c31 0 52 0 63 1c13 1 24 6 35 13
l10 7h2l-12 -37c-9 -31 -20 -39 -43 -42c-13 -1 -36 -1 -70 -1c-23 0 -50 1 -81 4l-20 -76c32 21 64 32 95 32c61 0 99 -36 99 -87zM282 650c1 5 -1 8 -5 9l-66 21v2l160 34l-54 -255c-1 -3 1 -5 5 -8l59 -31v-2h-219v2l71 31c5 2 8 5 9 8zM457 361v-18h-365v18h365z" />
    <glyph glyph-name="uni2156" unicode="&#x2156;" horiz-adv-x="485" 
d="M266 512c61 49 100 92 100 144c0 28 -15 42 -45 42c-6 0 -11 0 -14 -1c-4 -1 -7 -3 -10 -7l-58 -92h-2l-20 93c42 15 81 22 118 22c73 0 109 -24 109 -73c0 -57 -66 -109 -199 -158v-2h105c14 0 24 3 31 8l43 34h2l-35 -102h-239v2c21 16 59 46 114 90zM316 226
c-13 -1 -36 -1 -70 -1c-23 0 -50 1 -81 4l-20 -76c32 21 64 32 95 32c61 0 99 -36 99 -87c0 -64 -65 -103 -157 -103c-43 0 -79 6 -109 19l69 94h2l10 -88c1 -6 4 -9 11 -10c5 -1 11 -1 18 -1c44 0 77 38 77 83c0 41 -23 62 -70 62c-19 0 -39 -7 -62 -20l-2 1l39 152
c1 0 14 0 38 -1s43 -2 58 -2c25 0 44 0 55 1c19 2 33 6 43 13l10 7h2l-12 -37c-9 -31 -20 -39 -43 -42zM455 361v-18h-365v18h365z" />
    <glyph glyph-name="uni2157" unicode="&#x2157;" horiz-adv-x="485" 
d="M274 284c25 0 44 0 55 1c19 2 33 6 43 13l10 7h2l-12 -37c-9 -31 -20 -39 -43 -42c-13 -1 -36 -1 -70 -1c-23 0 -50 1 -81 4l-20 -76c32 21 64 32 95 32c61 0 99 -36 99 -87c0 -64 -65 -103 -157 -103c-43 0 -79 6 -109 19l69 94h2l10 -88c1 -6 4 -9 11 -10
c5 -1 11 -1 18 -1c44 0 77 38 77 83c0 41 -23 62 -70 62c-19 0 -39 -7 -62 -20l-2 1l39 152c1 0 14 0 38 -1s43 -2 58 -2zM260 432c5 -1 10 -1 15 -1c48 0 87 35 87 86c0 34 -23 52 -70 55v2c52 5 90 34 90 83c0 27 -14 41 -41 41c-7 0 -12 0 -15 -1c-5 -1 -9 -3 -12 -8
l-58 -89h-2l-21 91c39 15 77 22 113 22c69 0 112 -27 112 -67s-34 -65 -94 -70v-2c47 -4 76 -29 76 -62s-16 -57 -47 -72c-32 -16 -71 -24 -116 -24c-38 0 -73 6 -106 18l69 96h2l9 -88c1 -5 4 -9 9 -10zM468 361v-18h-365v18h365z" />
    <glyph glyph-name="uni2158" unicode="&#x2158;" horiz-adv-x="485" 
d="M269 448c5 3 8 6 9 11l7 33h-141v2l202 215h56l-42 -202h13c8 0 14 3 17 8l62 82h2l-29 -105h-68l-7 -34c-1 -5 1 -8 4 -10l37 -26v-2h-172v2zM332 98c0 -32 -15 -57 -44 -75c-29 -19 -67 -28 -113 -28c-43 0 -79 6 -109 19l69 94h2l10 -88c1 -6 4 -9 11 -10
c5 -1 11 -1 18 -1c44 0 77 38 77 83c0 41 -23 62 -70 62c-19 0 -39 -7 -62 -20l-2 1l39 152c1 0 14 0 38 -1s43 -2 58 -2c25 0 44 0 55 1c19 2 33 6 43 13l10 7h2l-12 -37c-9 -31 -20 -39 -43 -42c-13 -1 -36 -1 -70 -1c-23 0 -50 1 -81 4l-20 -76c32 21 64 32 95 32
c61 0 99 -36 99 -87zM288 507l34 155l-147 -155h113zM448 361v-18h-365v18h365z" />
    <glyph glyph-name="uni2159" unicode="&#x2159;" horiz-adv-x="485" 
d="M321 197h-2l-29 74c-2 5 -6 7 -12 7h-11c-41 0 -72 -44 -91 -132c25 25 53 37 85 37c48 0 85 -33 85 -77c0 -31 -13 -57 -39 -78s-60 -32 -103 -32c-69 0 -112 43 -112 108c0 53 16 98 48 135c31 36 74 54 128 54c40 0 75 -5 106 -15zM373 716l-54 -255c-1 -3 1 -5 5 -8
l59 -31v-2h-219v2l71 31c5 2 8 5 9 8l40 189c1 5 -1 8 -5 9l-66 21v2zM167 65c0 -37 13 -55 38 -55c17 0 32 10 45 31c13 20 20 41 20 64c0 36 -14 54 -42 54c-18 0 -36 -8 -54 -23c-5 -25 -7 -49 -7 -71zM459 361v-18h-365v18h365z" />
    <glyph glyph-name="uni215A" unicode="&#x215a;" horiz-adv-x="485" 
d="M290 271c-2 5 -6 7 -12 7h-11c-41 0 -72 -44 -91 -132c25 25 53 37 85 37c48 0 85 -33 85 -77c0 -31 -13 -57 -39 -78s-60 -32 -103 -32c-69 0 -112 43 -112 108c0 53 16 98 48 135c31 36 74 54 128 54c40 0 75 -5 106 -15l-53 -81h-2zM383 444c-29 -19 -67 -28 -113 -28
c-43 0 -79 6 -109 19l69 94h2l10 -88c1 -6 4 -9 11 -10c5 -1 11 -1 18 -1c44 0 77 38 77 83c0 41 -23 62 -70 62c-19 0 -39 -7 -62 -20l-2 1l39 152c1 0 14 0 38 -1s43 -2 58 -2c25 0 44 0 55 1c19 2 33 6 43 13l10 7h2l-12 -37c-9 -31 -20 -39 -43 -42
c-13 -1 -36 -1 -70 -1c-23 0 -50 1 -81 4l-20 -76c32 21 64 32 95 32c61 0 99 -36 99 -87c0 -32 -15 -57 -44 -75zM167 65c0 -37 13 -55 38 -55c17 0 32 10 45 31c13 20 20 41 20 64c0 36 -14 54 -42 54c-18 0 -36 -8 -54 -23c-5 -25 -7 -49 -7 -71zM459 361v-18h-365v18
h365z" />
    <glyph glyph-name="uni215B" unicode="&#x215b;" horiz-adv-x="485" 
d="M264 168l22 -10c35 -15 52 -38 52 -68c0 -29 -14 -51 -43 -68s-61 -26 -98 -26c-63 0 -111 28 -111 67c0 37 39 60 91 67c-32 15 -48 39 -48 71c0 55 54 92 126 92c52 0 95 -28 95 -63c0 -40 -29 -61 -86 -62zM276 650c1 5 -1 8 -5 9l-66 21v2l160 34l-54 -255
c-1 -3 1 -5 5 -8l59 -31v-2h-219v2l71 31c5 2 8 5 9 8zM184 127c-26 -13 -39 -33 -39 -62c0 -17 6 -31 17 -40c11 -10 25 -15 42 -15c32 0 63 21 63 52c0 16 -12 30 -36 43zM259 170c23 19 34 40 34 63c0 28 -18 46 -42 46c-33 0 -58 -22 -58 -50c0 -19 12 -33 35 -44z
M451 361v-18h-365v18h365z" />
    <glyph glyph-name="uni215C" unicode="&#x215c;" horiz-adv-x="485" 
d="M252 293c26 0 48 -6 67 -18c19 -13 28 -28 28 -45c0 -40 -29 -61 -86 -62l22 -10c35 -15 52 -38 52 -68c0 -29 -14 -51 -43 -68s-61 -26 -98 -26c-63 0 -111 28 -111 67c0 37 40 61 92 68c-33 16 -49 39 -49 70c0 55 54 92 126 92zM255 431c24 0 45 8 62 24s25 37 25 62
c0 34 -23 52 -70 55v2c52 5 90 34 90 83c0 27 -14 41 -41 41c-7 0 -12 0 -15 -1c-5 -1 -9 -3 -12 -8l-58 -89h-2l-21 91c39 15 77 22 113 22c69 0 112 -27 112 -67s-34 -65 -94 -70v-2c47 -4 76 -29 76 -62s-16 -57 -47 -72c-32 -16 -71 -24 -116 -24c-38 0 -73 6 -106 18
l69 96h2l9 -88c1 -5 4 -9 9 -10s10 -1 15 -1zM142 65c0 -35 24 -55 59 -55c32 0 63 21 63 52c0 17 -12 32 -36 43l-47 22c-26 -13 -39 -33 -39 -62zM278 267c-8 8 -18 12 -30 12c-33 0 -58 -22 -58 -50c0 -18 12 -33 35 -44l31 -15c23 19 34 40 34 63c0 14 -4 25 -12 34z
M448 361v-18h-365v18h365z" />
    <glyph glyph-name="uni215D" unicode="&#x215d;" horiz-adv-x="485" 
d="M252 293c26 0 48 -6 67 -18c19 -13 28 -28 28 -45c0 -40 -29 -61 -86 -62l22 -10c35 -15 52 -38 52 -68c0 -29 -14 -51 -43 -68s-61 -26 -98 -26c-63 0 -111 28 -111 67c0 37 39 60 91 67c-32 15 -48 39 -48 71c0 55 54 92 126 92zM242 708c1 0 14 0 38 -1s43 -2 58 -2
c31 0 49 0 55 1c19 2 33 6 43 13l10 7h2l-12 -37c-9 -31 -20 -39 -43 -42c-13 -1 -36 -1 -70 -1c-23 0 -50 1 -81 4l-20 -76c32 21 64 32 95 32c61 0 99 -36 99 -87c0 -64 -65 -103 -157 -103c-43 0 -79 6 -109 19l69 94h2l10 -88c1 -6 4 -9 11 -10c5 -1 11 -1 18 -1
c44 0 77 38 77 83c0 41 -23 62 -70 62c-19 0 -39 -7 -62 -20l-2 1zM245 25c13 9 19 22 19 37c0 16 -12 30 -36 43l-47 22c-26 -13 -39 -33 -39 -62c0 -35 24 -55 59 -55c16 0 31 5 44 15zM278 267c-8 8 -18 12 -30 12c-33 0 -58 -22 -58 -50c0 -19 12 -33 35 -44l31 -15
c23 19 34 40 34 63c0 14 -4 25 -12 34zM448 361v-18h-365v18h365z" />
    <glyph glyph-name="uni215E" unicode="&#x215e;" horiz-adv-x="485" 
d="M261 168l22 -10c35 -15 52 -38 52 -68c0 -29 -14 -51 -43 -68s-61 -26 -98 -26c-63 0 -111 28 -111 67c0 37 39 60 91 67c-32 15 -48 39 -48 71c0 55 54 92 126 92c52 0 95 -28 95 -63c0 -40 -29 -61 -86 -62zM401 654h-146c-12 0 -21 -3 -28 -9l-30 -27h-2l31 91h250v-2
l-43 -37c-4 -3 -9 -8 -14 -15c-27 -36 -68 -114 -124 -235h-101v2c69 87 138 164 207 230v2zM142 65c0 -17 6 -31 17 -40c11 -10 25 -15 42 -15c32 0 63 21 63 52c0 17 -12 32 -36 43l-47 22c-26 -13 -39 -33 -39 -62zM256 170c23 19 34 40 34 63c0 28 -18 46 -42 46
c-33 0 -58 -22 -58 -50c0 -18 12 -33 35 -44zM448 361v-18h-365v18h365z" />
    <glyph glyph-name="uni2190" unicode="&#x2190;" horiz-adv-x="706" 
d="M55 249l251 251l13 -13l-229 -229h561v-17h-562l229 -229l-12 -14z" />
    <glyph glyph-name="uni2191" unicode="&#x2191;" horiz-adv-x="612" 
d="M55 296l251 251l251 -251l-13 -13l-230 230v-562h-18v560l-228 -228z" />
    <glyph glyph-name="uni2192" unicode="&#x2192;" horiz-adv-x="706" 
d="M55 258h561l-229 229l13 13l251 -251l-251 -251l-12 14l229 229h-562v17z" />
    <glyph glyph-name="uni2193" unicode="&#x2193;" horiz-adv-x="612" 
d="M55 185l13 13l228 -228v560h18v-562l230 230l13 -13l-251 -251z" />
    <glyph glyph-name="uni2196" unicode="&#x2196;" horiz-adv-x="539" 
d="M59 459h354v-17h-325l399 -397l-14 -13l-396 394v-323h-18v356z" />
    <glyph glyph-name="uni2197" unicode="&#x2197;" horiz-adv-x="539" 
d="M51 45l399 397h-325v17h354v-356h-18v323l-396 -394z" />
    <glyph glyph-name="uni2198" unicode="&#x2198;" horiz-adv-x="539" 
d="M52 445l14 13l396 -394v323h18v-356h-354v17h325z" />
    <glyph glyph-name="uni2199" unicode="&#x2199;" horiz-adv-x="539" 
d="M412 31h-354v356h18v-323l396 394l14 -13l-399 -397h325v-17z" />
    <glyph glyph-name="partialdiff" unicode="&#x2202;" horiz-adv-x="504" 
d="M432 592c33 -57 50 -129 50 -217c0 -104 -27 -194 -81 -270s-123 -114 -208 -114c-109 0 -171 77 -171 194c0 75 24 145 73 209s103 96 162 96c45 0 78 -17 98 -51c-3 149 -34 235 -135 272l2 2c7 -3 30 -8 37 -9c81 -19 139 -56 173 -112zM165 266
c-12 -50 -18 -98 -18 -144c0 -77 16 -115 49 -115c27 0 53 23 78 70c25 46 45 101 60 166c14 65 21 126 21 184v1c-13 16 -31 24 -53 24c-30 0 -57 -19 -82 -56s-43 -81 -55 -130z" />
    <glyph glyph-name="Delta" unicode="&#x2206;" horiz-adv-x="551" 
d="M499 0h-542v2l324 599c11 21 10 21 1 36l-44 64v2h177zM-11 19h377l-68 574z" />
    <glyph glyph-name="product" unicode="&#x220f;" horiz-adv-x="740" 
d="M818 703v-2l-88 -54c-9 -6 -15 -14 -16 -23l-113 -545c-3 -10 -1 -18 6 -23l65 -54v-2h-306v2l88 54c9 6 14 14 17 23l126 605h-269l-126 -605c-3 -10 -1 -18 6 -23l66 -54v-2h-307v2l89 54c9 6 14 14 17 23l113 545c3 10 0 18 -7 23l-66 54v2h705z" />
    <glyph glyph-name="summation" unicode="&#x2211;" horiz-adv-x="578" 
d="M610 703l-38 -221h-2l-73 184c-7 16 -10 18 -26 18h-192l121 -332l-411 -333h355c17 0 30 5 38 15l141 187h2l-45 -221h-538v2l341 280l-126 349c-4 11 -11 20 -22 27l-57 43v2h532z" />
    <glyph glyph-name="minus" unicode="&#x2212;" horiz-adv-x="540" 
d="M70 314v18h440v-18h-440z" />
    <glyph glyph-name="uni2215" unicode="&#x2215;" horiz-adv-x="48" 
d="M-284 -10l-13 14l648 710l14 -13z" />
    <glyph glyph-name="uni2219" unicode="&#x2219;" horiz-adv-x="222" 
d="M69 416c0 41 33 76 76 76c37 0 65 -26 65 -62c0 -41 -34 -76 -78 -76c-36 0 -63 26 -63 62z" />
    <glyph glyph-name="radical" unicode="&#x221a;" horiz-adv-x="540" 
d="M100 444l18 7l141 -397l246 701l17 -5l-262 -750h-2z" />
    <glyph glyph-name="infinity" unicode="&#x221e;" horiz-adv-x="765" 
d="M479 240c-9 7 -22 19 -40 37c-18 17 -30 29 -37 36c-7 -6 -19 -18 -37 -36c-19 -19 -32 -31 -40 -38s-19 -15 -34 -26c-30 -22 -57 -29 -88 -29c-38 0 -69 14 -94 43s-38 61 -38 98s13 69 38 98s56 43 94 43c31 0 58 -6 88 -28c15 -11 26 -20 34 -27s21 -19 40 -37
c18 -19 30 -31 37 -37l37 37c18 17 31 30 40 37c8 7 20 16 35 27c30 22 55 28 87 28c38 0 70 -14 95 -43s37 -61 37 -98s-12 -69 -37 -98s-57 -43 -95 -43c-32 0 -57 7 -87 29c-15 11 -27 20 -35 27zM451 290c17 -18 30 -30 38 -36c15 -13 47 -39 72 -46c12 -4 25 -6 40 -6
c34 0 62 12 83 37s31 53 31 86s-10 61 -31 86s-49 37 -83 37c-29 0 -52 -6 -80 -26c-14 -11 -25 -19 -32 -25c-8 -7 -21 -19 -38 -36c-17 -18 -29 -30 -36 -36c7 -6 19 -18 36 -35zM90 325c0 -33 11 -61 32 -86s48 -37 81 -37c28 0 52 6 80 27c14 10 25 18 32 24
s20 18 38 36l36 36l-36 36c-18 18 -31 30 -38 36s-18 14 -32 25c-28 20 -52 26 -80 26c-33 0 -60 -12 -81 -37s-32 -53 -32 -86z" />
    <glyph glyph-name="integral" unicode="&#x222b;" horiz-adv-x="418" 
d="M462 543h-2l-46 138c-5 15 -8 16 -20 16c-29 0 -51 -23 -67 -73c-8 -25 -14 -48 -19 -69s-10 -49 -17 -84c-1 -3 -1 -5 -1 -6l-58 -301c-21 -111 -50 -200 -94 -277s-107 -123 -182 -123c-34 0 -62 7 -83 22l62 158h2l43 -139c4 -16 7 -18 16 -18c7 0 15 4 22 12
c12 13 24 31 34 60s15 45 25 88c5 22 8 39 11 50c2 12 6 32 11 59s9 47 11 58l57 301c18 94 45 167 82 220c37 52 90 78 159 78c43 0 82 -7 116 -21z" />
    <glyph glyph-name="approxequal" unicode="&#x2248;" horiz-adv-x="540" 
d="M63 208c27 45 64 67 112 67c31 0 70 -11 117 -33s83 -33 110 -33c41 0 74 20 98 59l15 -10c-27 -45 -64 -67 -113 -67c-31 0 -69 11 -116 33s-84 33 -111 33c-40 0 -72 -19 -96 -58zM500 446l15 -10c-27 -45 -64 -67 -113 -67c-31 0 -69 11 -116 33s-84 33 -111 33
c-40 0 -72 -19 -96 -58l-16 9c27 45 64 67 112 67c31 0 70 -11 117 -33s83 -33 110 -33c41 0 74 20 98 59z" />
    <glyph glyph-name="notequal" unicode="&#x2260;" horiz-adv-x="540" 
d="M510 243v-18h-264l-59 -106l-17 9l54 97h-154v18h164l89 161h-253v18h263l57 102l17 -9l-52 -93h155v-18h-165l-89 -161h254z" />
    <glyph glyph-name="lessequal" unicode="&#x2264;" horiz-adv-x="540" 
d="M91 374l388 128l6 -18l-343 -111l343 -111l-6 -18l-388 128v2zM510 104h-440v18h440v-18z" />
    <glyph glyph-name="greaterequal" unicode="&#x2265;" horiz-adv-x="540" 
d="M95 262l343 111l-343 111l6 18l388 -128v-2l-388 -128zM510 104h-440v18h440v-18z" />
    <glyph glyph-name="lozenge" unicode="&#x25ca;" horiz-adv-x="540" 
d="M70 324l219 405h2l219 -405l-219 -405h-2zM290 690l-198 -366l198 -366l198 366z" />
    <glyph glyph-name="commaaccent" unicode="&#xf6c3;" horiz-adv-x="248" 
d="M49 -251c17 8 31 18 40 31c15 20 25 38 30 55c2 7 0 11 -6 12c-25 4 -38 19 -38 45c0 37 31 67 67 67c32 0 54 -24 54 -57c0 -55 -44 -105 -101 -136c-17 -9 -32 -15 -46 -19v2z" />
    <glyph glyph-name="apple" unicode="&#xf8ff;" horiz-adv-x="1254" 
d="M1157 592c-29 -24 -65 -36 -108 -36c-8 0 -22 1 -42 2c-21 1 -34 2 -41 2c-73 0 -115 -36 -146 -107c-32 -75 -83 -112 -154 -112c-7 0 -21 1 -41 2s-33 1 -39 1c-72 0 -105 -31 -136 -100c-35 -76 -80 -120 -165 -120c-9 0 -23 1 -42 2c-20 1 -34 2 -41 2
c-76 0 -128 -46 -128 -106c0 -11 0 -18 1 -22h-19c-1 5 -1 12 -1 22c0 36 14 66 42 90c27 23 63 35 106 35c8 0 22 -1 43 -2c20 -1 33 -2 40 -2c68 0 117 36 147 109c31 74 82 111 153 111c7 0 21 0 41 -1s33 -2 39 -2c69 0 106 33 137 100c35 76 79 119 164 119
c9 0 23 -1 43 -2c19 -1 33 -2 40 -2c38 0 69 11 94 32c24 21 36 45 36 74c0 11 0 18 -1 22h19c1 -5 1 -12 1 -22c0 -35 -14 -65 -42 -89z" />
    <glyph glyph-name="Iacute_Jacute" horiz-adv-x="668" 
d="M670 647c-9 -6 -15 -14 -16 -23l-118 -564c-34 -165 -138 -255 -311 -271v2c93 42 151 123 176 242l124 591c1 10 -1 18 -7 23l-66 54v2h307v-2zM-31 0v2l89 54c9 6 14 14 17 23l113 545c3 10 0 18 -7 23l-66 54v2h307v-2l-88 -54c-9 -5 -15 -13 -16 -23l-114 -545
c-3 -10 -1 -18 6 -23l66 -54v-2h-307zM221 753l115 163h143v-2l-257 -162zM837 913l-257 -162l-1 1l115 163h143v-2z" />
    <glyph glyph-name="Jacute" horiz-adv-x="316" 
d="M53 33l124 591c1 10 -1 18 -7 23l-66 54v2h307v-2l-89 -54c-9 -6 -15 -14 -16 -23l-118 -564c-34 -165 -138 -255 -311 -271v2c93 42 151 123 176 242zM234 754l115 163h143v-2l-257 -162z" />
    <glyph glyph-name="caronslovak" horiz-adv-x="250" 
d="M51 510h-1l44 193h106z" />
    <glyph glyph-name="commatop" horiz-adv-x="248" 
d="M50 606c0 48 29 91 88 128c19 13 38 22 59 27v-2c-20 -10 -36 -23 -47 -38c-9 -11 -16 -27 -23 -48c-3 -7 -1 -11 6 -12c25 -4 38 -19 38 -45c0 -37 -31 -67 -67 -67c-33 0 -54 22 -54 57z" />
    <glyph glyph-name="jacute" horiz-adv-x="263" 
d="M-203 -214l64 158h2l43 -143c3 -9 8 -14 15 -14c42 0 85 105 130 316l67 325c3 11 -1 19 -11 23l-74 29v2l221 16l-87 -370c-55 -243 -152 -364 -290 -364c-31 0 -57 7 -80 22zM381 703v-2l-257 -162l-1 1l115 163h143z" />
    <glyph glyph-name="smiley" horiz-adv-x="794" 
d="M781 388c0 -109 -37 -202 -111 -278c-75 -76 -167 -114 -278 -114c-103 0 -186 30 -249 89s-94 136 -94 229c0 109 39 201 116 278s169 115 276 115c99 0 181 -29 245 -88c63 -59 95 -136 95 -231zM673 605c-60 56 -137 84 -231 84c-101 0 -189 -36 -263 -108
c-74 -73 -111 -161 -111 -265c0 -89 30 -161 89 -217c59 -57 137 -85 235 -85c105 0 193 36 264 109c71 72 106 160 106 264c0 89 -30 162 -89 218zM548 149c40 31 65 72 75 123c-21 4 -32 15 -32 33c0 5 1 11 3 18h2c2 -20 17 -30 45 -30c15 0 28 5 39 16l2 -1
c-11 -23 -24 -35 -41 -36c-11 -57 -38 -103 -83 -137s-98 -51 -160 -51c-67 0 -122 18 -165 54c-44 35 -66 80 -67 134h-2c-22 0 -34 12 -35 36l2 1c7 -11 18 -16 33 -16c27 0 47 10 59 30h2c-4 -26 -18 -42 -41 -49c1 -51 22 -92 61 -124s91 -48 155 -48
c59 0 108 16 148 47zM482 302c-6 0 -9 11 -9 32c0 29 5 69 16 122c20 97 44 160 59 160c7 0 10 -10 10 -31c0 -28 -6 -71 -18 -129c-21 -103 -41 -154 -58 -154zM310 335c0 29 5 70 16 121c20 99 44 160 60 160c6 0 9 -10 9 -31c0 -28 -6 -71 -18 -129
c-19 -93 -44 -154 -57 -154c-7 0 -10 11 -10 33z" />
    <glyph glyph-name="backslash.case" horiz-adv-x="380" 
d="M254 -94l-114 887l18 3l114 -888z" />
    <glyph glyph-name="bar.case" horiz-adv-x="219" 
d="M26 -198l-18 4l206 996l18 -4z" />
    <glyph glyph-name="braceleft.case" horiz-adv-x="352" 
d="M448 772v-2c-50 3 -90 -12 -120 -44c-31 -33 -48 -67 -52 -103l-19 -171c-5 -53 -52 -94 -108 -106v-2c49 -12 78 -62 62 -114l-50 -166c-11 -37 -9 -71 8 -102s51 -45 102 -42v-2c-23 -5 -44 -8 -65 -8c-47 0 -86 17 -116 51c-31 35 -38 77 -22 128l51 167
c15 47 -12 83 -65 88v2c56 7 97 39 101 80l18 172c9 87 64 146 121 167c29 10 59 15 92 15c21 0 42 -3 62 -8z" />
    <glyph glyph-name="braceright.case" horiz-adv-x="352" 
d="M334 346v-2c-56 -5 -96 -39 -101 -80l-19 -172c-7 -63 -31 -110 -72 -139s-88 -43 -140 -43c-20 0 -41 3 -62 8v2c50 -3 90 12 121 44c30 33 47 67 51 103l19 171c5 53 52 94 108 106v2c-49 12 -78 61 -62 113l50 166c11 37 8 72 -9 103s-51 45 -102 42v2c23 5 45 8 66 8
c47 0 86 -17 117 -51c30 -35 37 -77 21 -128l-51 -168c-15 -45 12 -82 65 -87z" />
    <glyph glyph-name="bracketleft.case" horiz-adv-x="351" 
d="M271 -76l-258 -14l179 869l252 -14v-2l-166 -47c-12 -3 -12 -4 -15 -16l-147 -711c-3 -11 -1 -13 8 -16l147 -47v-2z" />
    <glyph glyph-name="bracketright.case" horiz-adv-x="351" 
d="M-55 -76v2l167 47c12 4 14 5 15 16l147 711c3 11 2 12 -9 16l-146 47v2l258 14l-179 -869z" />
    <glyph glyph-name="emdash.case" horiz-adv-x="1000" 
d="M1015 335h-990v18h990v-18z" />
    <glyph glyph-name="endash.case" horiz-adv-x="500" 
d="M515 335h-490v18h490v-18z" />
    <glyph glyph-name="exclamdown.case" horiz-adv-x="264" 
d="M177 0h-178l190 487h2zM151 635c0 21 8 39 23 54s33 22 55 22c36 0 63 -26 63 -62c0 -41 -33 -76 -77 -76c-36 0 -64 26 -64 62z" />
    <glyph glyph-name="guillemotleft.case" horiz-adv-x="449" 
d="M394 120l-167 212v2l257 213l1 -1l-142 -219l53 -206zM50 334l256 213l1 -1l-142 -219l53 -206l-2 -1l-166 212v2z" />
    <glyph glyph-name="guillemotright.case" horiz-adv-x="448" 
d="M185 120l-2 1l142 219l-53 206l2 1l167 -213v-2zM8 120l-2 1l142 219l-53 206l2 1l167 -213v-2z" />
    <glyph glyph-name="guilsinglleft.case" horiz-adv-x="271" 
d="M50 334l257 213l1 -1l-142 -219l53 -206l-2 -1l-167 212v2z" />
    <glyph glyph-name="guilsinglright.case" horiz-adv-x="271" 
d="M8 120l-2 1l142 219l-53 206l2 1l167 -213v-2z" />
    <glyph glyph-name="hyphen.case" horiz-adv-x="351" 
d="M66 335v19h260v-19h-260z" />
    <glyph glyph-name="parenleft.case" horiz-adv-x="328" 
d="M242 -103c-120 65 -180 174 -180 325c0 105 20 201 60 290s95 159 166 212c35 26 82 48 139 65l1 -2c-38 -27 -73 -59 -105 -96c-53 -62 -95 -142 -124 -239c-30 -98 -45 -190 -45 -275c0 -125 30 -217 90 -278z" />
    <glyph glyph-name="parenright.case" horiz-adv-x="328" 
d="M-63 -99c44 32 82 69 114 111c50 60 89 138 117 233s42 184 42 267c0 124 -30 216 -90 277l3 2c120 -66 180 -174 180 -325c0 -105 -20 -202 -60 -291s-95 -160 -166 -211c-37 -27 -84 -48 -139 -65z" />
    <glyph glyph-name="questiondown.case" horiz-adv-x="464" 
d="M68 30c-35 25 -52 60 -52 105c-3 79 64 138 127 177c21 13 44 28 70 43c25 15 45 28 59 39c27 21 41 43 41 64c0 9 -2 17 -6 24l1 2c37 -1 66 -37 66 -74c0 -129 -230 -153 -230 -300c0 -67 27 -100 81 -100c15 0 25 1 32 2c13 3 22 8 27 17l111 173h2l31 -163
c-71 -32 -144 -48 -219 -48c-60 0 -107 13 -141 39zM433 650c0 -21 -7 -38 -22 -53s-34 -23 -55 -23c-37 0 -64 25 -64 62c0 41 33 76 77 76c36 0 64 -26 64 -62z" />
    <glyph glyph-name="slash.case" horiz-adv-x="380" 
d="M-21 -95l-16 9l476 882l16 -7z" />
    <glyph glyph-name="braceleft.salt" horiz-adv-x="245" 
d="M325 719l-6 -17c-17 4 -34 6 -51 6c-69 0 -120 -43 -120 -118c0 -5 1 -15 2 -30l15 -155c1 -7 1 -12 1 -17c0 -51 -29 -90 -76 -95v-2c31 -7 47 -24 47 -53c0 -16 -5 -35 -16 -58l-76 -155c-16 -33 -24 -61 -24 -83c0 -43 28 -65 84 -65c13 0 31 2 53 7v-18
c-22 -5 -40 -7 -55 -7c-67 0 -101 27 -101 80c0 25 9 56 26 92l73 149c11 23 17 41 17 54c0 33 -26 49 -78 49l3 19c76 1 104 32 104 87c0 5 0 11 -1 16l-15 149c-1 12 -2 23 -2 34c0 88 58 138 145 138c14 0 31 -2 51 -7z" />
    <glyph glyph-name="braceright.salt" horiz-adv-x="245" 
d="M259 646c0 -25 -9 -56 -26 -92l-73 -149c-11 -23 -17 -41 -17 -54c0 -33 26 -49 78 -49l-3 -19c-76 -1 -104 -32 -104 -87c0 -5 0 -11 1 -16l15 -149c1 -12 2 -23 2 -34c0 -88 -58 -138 -145 -138c-14 0 -31 2 -51 7l6 17c17 -4 34 -6 51 -6c69 0 120 43 120 118
c0 5 -1 15 -2 30l-15 155c-1 7 -1 12 -1 17c0 51 29 89 76 94v2c-31 7 -47 25 -47 54c0 16 5 35 16 58l76 155c16 33 24 61 24 83c0 43 -28 65 -84 65c-13 0 -31 -2 -53 -7v18c22 5 40 7 55 7c67 0 101 -27 101 -80z" />
    <glyph glyph-name="bracketleft.salt" horiz-adv-x="257" 
d="M1 -138l177 859h163v-18h-148l-171 -823h144v-18h-165z" />
    <glyph glyph-name="bracketright.salt" horiz-adv-x="257" 
d="M96 -138h-163v18h146l171 823h-142v18h165z" />
    <glyph glyph-name="guillemotleft.salt" horiz-adv-x="428" 
d="M344 39l-153 214l239 213l12 -14l-226 -202l143 -200zM184 39l-153 214l239 213l12 -14l-226 -202l143 -200z" />
    <glyph glyph-name="guillemotright.salt" horiz-adv-x="428" 
d="M146 52l226 202l-143 200l15 11l153 -214l-239 -213zM-2 38l-12 14l226 202l-143 200l15 11l153 -214z" />
    <glyph glyph-name="guilsinglleft.salt" horiz-adv-x="268" 
d="M184 39l-153 215l239 213l12 -15l-226 -201l143 -200z" />
    <glyph glyph-name="guilsinglright.salt" horiz-adv-x="268" 
d="M-2 37l-12 15l226 201l-143 200l15 12l153 -215z" />
    <glyph glyph-name="parenleft.salt" horiz-adv-x="276" 
d="M90 11c-22 64 -33 131 -33 200c0 37 3 73 9 108c15 85 47 166 98 245c50 78 111 134 183 169l6 -15c-70 -37 -129 -92 -176 -167c-48 -75 -79 -153 -93 -236c-6 -35 -9 -70 -9 -105c0 -63 10 -126 31 -189c21 -64 52 -117 95 -160l-12 -14c-44 45 -77 100 -99 164z" />
    <glyph glyph-name="parenright.salt" horiz-adv-x="276" 
d="M-49 -136c70 37 129 92 177 167c47 75 78 153 92 236c6 35 9 70 9 105c0 63 -10 127 -31 190s-52 116 -95 159l12 14c88 -91 132 -225 132 -364c0 -37 -3 -73 -9 -108c-15 -85 -47 -166 -97 -244c-51 -79 -112 -135 -184 -170z" />
    <glyph glyph-name="braceleft.salt.case" horiz-adv-x="245" 
d="M333 772l-6 -17c-17 4 -34 6 -51 6c-69 0 -120 -43 -120 -118c0 -5 1 -15 2 -30l15 -155c1 -7 1 -12 1 -17c0 -51 -29 -90 -76 -95v-2c31 -7 47 -24 47 -53c0 -16 -5 -35 -16 -58l-76 -155c-16 -33 -24 -61 -24 -83c0 -43 28 -65 84 -65c13 0 31 2 53 7v-18
c-22 -5 -40 -7 -55 -7c-67 0 -101 27 -101 80c0 25 9 56 26 92l73 149c11 23 17 41 17 54c0 33 -26 49 -78 49l3 18c69 2 104 31 104 88c0 5 0 11 -1 16l-15 149c-1 12 -2 23 -2 34c0 88 60 138 145 138c14 0 31 -2 51 -7z" />
    <glyph glyph-name="braceright.salt.case" horiz-adv-x="245" 
d="M268 698c0 -25 -9 -56 -26 -92l-73 -149c-11 -23 -17 -41 -17 -54c0 -33 26 -49 78 -49l-3 -18c-69 -2 -104 -31 -104 -88c0 -5 0 -11 1 -16l15 -149c1 -12 2 -23 2 -34c0 -88 -60 -138 -145 -138c-14 0 -31 2 -51 7l6 17c17 -4 34 -6 51 -6c69 0 120 43 120 118
c0 5 -1 15 -2 30l-15 155c-1 7 -1 12 -1 17c0 51 29 89 76 94v2c-31 7 -47 25 -47 54c0 16 5 35 16 58l76 155c16 33 24 61 24 83c0 43 -28 65 -84 65c-13 0 -31 -2 -53 -7v18c22 5 40 7 55 7c67 0 101 -27 101 -80z" />
    <glyph glyph-name="bracketleft.salt.case" horiz-adv-x="257" 
d="M11 -87l178 859h163v-18h-148l-171 -823h143v-18h-165z" />
    <glyph glyph-name="bracketright.salt.case" horiz-adv-x="257" 
d="M-58 -69h148l171 823h-143v18h165l-178 -859h-163v18z" />
    <glyph glyph-name="guillemotleft.salt.case" horiz-adv-x="428" 
d="M362 129l-152 214l239 213l12 -14l-227 -202l143 -200zM202 129l-152 214l239 213l12 -14l-227 -202l143 -200z" />
    <glyph glyph-name="guillemotright.salt.case" horiz-adv-x="428" 
d="M164 142l227 202l-143 200l15 11l152 -214l-239 -213zM16 128l-12 14l227 202l-143 200l15 11l152 -214z" />
    <glyph glyph-name="guilsinglleft.salt.case" horiz-adv-x="268" 
d="M202 129l-152 214l239 213l12 -14l-227 -202l143 -200z" />
    <glyph glyph-name="guilsinglright.salt.case" horiz-adv-x="268" 
d="M16 128l-12 14l227 202l-143 200l15 11l152 -214z" />
    <glyph glyph-name="parenleft.salt.case" horiz-adv-x="276" 
d="M66 262c0 37 3 73 9 108c15 85 47 166 98 245c50 78 111 134 183 169l6 -15c-58 -31 -108 -76 -151 -133s-75 -118 -95 -182c-21 -65 -31 -129 -31 -192c0 -64 10 -127 31 -190c20 -63 51 -116 94 -159l-12 -15c-88 91 -132 225 -132 364z" />
    <glyph glyph-name="parenright.salt.case" horiz-adv-x="276" 
d="M-35 -98l-6 15c58 31 109 76 152 133c85 115 125 247 125 374c0 64 -10 127 -30 190c-21 63 -52 116 -95 159l12 15c88 -91 132 -225 132 -364c0 -37 -3 -73 -9 -108c-15 -85 -47 -166 -97 -244c-51 -79 -112 -135 -184 -170z" />
    <glyph glyph-name="eight.subs" 
d="M225 275c19 -13 28 -28 28 -45c0 -40 -29 -61 -86 -62l22 -10c35 -15 52 -38 52 -68c0 -29 -14 -51 -43 -68s-61 -26 -98 -26c-63 0 -111 28 -111 67c0 37 39 60 91 67c-32 15 -48 39 -48 71c0 55 54 92 126 92c26 0 48 -6 67 -18zM87 127c-26 -13 -39 -33 -39 -62
c0 -35 24 -55 59 -55c32 0 63 21 63 52c0 16 -12 30 -36 43zM96 229c0 -19 12 -33 35 -44l31 -15c23 19 34 40 34 63c0 28 -18 46 -42 46c-33 0 -58 -22 -58 -50z" />
    <glyph glyph-name="five.subs" 
d="M268 305h2l-12 -37c-9 -31 -20 -39 -43 -42c-13 -1 -36 -1 -70 -1c-23 0 -50 1 -81 4l-20 -76c32 21 64 32 95 32c61 0 99 -36 99 -87c0 -64 -65 -103 -157 -103c-43 0 -79 6 -109 19l69 94h2l10 -88c1 -6 4 -9 11 -10c5 -1 11 -1 18 -1c44 0 77 38 77 83
c0 41 -23 62 -70 62c-19 0 -39 -7 -62 -20l-2 1l39 152c1 0 14 0 38 -1s43 -2 58 -2c25 0 44 0 55 1c19 2 33 6 43 13z" />
    <glyph glyph-name="four.subs" 
d="M275 177h2l-29 -105h-68l-7 -34c-1 -5 1 -8 4 -10l37 -26v-2h-172v2l50 26c5 3 8 6 9 11l7 33h-141v2l202 215h56l-42 -202h13c8 0 14 3 17 8zM-2 87h113l34 155z" />
    <glyph glyph-name="nine.subs" 
d="M251 264c20 -20 30 -46 30 -79c0 -53 -16 -97 -48 -134s-75 -55 -128 -55c-41 0 -76 5 -106 15l53 81h2l28 -74c2 -5 6 -8 13 -8h10c42 0 73 45 92 134c-25 -25 -54 -38 -86 -38c-48 0 -84 33 -84 77c0 30 13 56 39 78c25 21 59 32 102 32c35 0 63 -10 83 -29zM123 248
c-13 -20 -20 -42 -20 -65c0 -35 14 -53 42 -53c19 0 37 8 54 24c5 22 7 45 7 70c0 36 -13 54 -38 54c-17 0 -32 -10 -45 -30z" />
    <glyph glyph-name="one.subs" horiz-adv-x="252" 
d="M-27 2l71 31c5 2 8 5 9 8l40 189c1 5 -1 8 -5 9l-66 21v2l160 34l-54 -255c-1 -3 1 -5 5 -8l59 -31v-2h-219v2z" />
    <glyph glyph-name="parenleft.subs" horiz-adv-x="192" 
d="M1 102c0 20 2 40 6 59c17 99 80 169 191 190l1 -2c-64 -43 -103 -108 -118 -196c-4 -24 -6 -49 -6 -74c0 -59 15 -107 44 -144l-1 -2c-76 31 -117 94 -117 169z" />
    <glyph glyph-name="parenright.subs" horiz-adv-x="191" 
d="M-35 -65c65 43 105 109 118 198c4 24 6 48 6 71c0 61 -14 109 -43 145l1 2c77 -32 116 -94 116 -170c0 -21 -2 -40 -6 -59c-21 -105 -84 -168 -191 -189z" />
    <glyph glyph-name="seven.subs" 
d="M13 2c69 87 138 164 207 230v2h-146c-12 0 -21 -3 -28 -9l-30 -27h-2l31 91h250v-2l-43 -37c-4 -3 -9 -8 -14 -15c-27 -36 -68 -114 -124 -235h-101v2z" />
    </font>
</defs>
</svg>
